<svg xmlns="http://www.w3.org/2000/svg" width="980" height="420" viewBox="0 0 980 420">
<rect width="100%" height="100%" fill="#ffffff"/>
<text x="28" y="34" font-family="Arial, sans-serif" font-size="20" font-weight="700" fill="#0f172a">Holdout actual vs predicted</text>
<text x="28" y="56" font-family="Arial, sans-serif" font-size="12" fill="#64748b">Chronological test split for the selected best model</text>
<line x1="76" y1="362.0" x2="946" y2="362.0" stroke="#e2e8f0" stroke-width="1"/>
<text x="68" y="366.0" font-family="Arial, sans-serif" font-size="10" text-anchor="end" fill="#64748b">262K</text>
<line x1="76" y1="292.0" x2="946" y2="292.0" stroke="#e2e8f0" stroke-width="1"/>
<text x="68" y="296.0" font-family="Arial, sans-serif" font-size="10" text-anchor="end" fill="#64748b">436K</text>
<line x1="76" y1="222.0" x2="946" y2="222.0" stroke="#e2e8f0" stroke-width="1"/>
<text x="68" y="226.0" font-family="Arial, sans-serif" font-size="10" text-anchor="end" fill="#64748b">610K</text>
<line x1="76" y1="152.0" x2="946" y2="152.0" stroke="#e2e8f0" stroke-width="1"/>
<text x="68" y="156.0" font-family="Arial, sans-serif" font-size="10" text-anchor="end" fill="#64748b">784K</text>
<line x1="76" y1="82.0" x2="946" y2="82.0" stroke="#e2e8f0" stroke-width="1"/>
<text x="68" y="86.0" font-family="Arial, sans-serif" font-size="10" text-anchor="end" fill="#64748b">958K</text>
<line x1="76" y1="362" x2="946" y2="362" stroke="#334155" stroke-width="1"/>
<line x1="76" y1="82" x2="76" y2="362" stroke="#334155" stroke-width="1"/>
<text x="76" y="72" font-family="Arial, sans-serif" font-size="11" fill="#64748b">nanoton</text>
<line x1="76.0" y1="362" x2="76.0" y2="366" stroke="#334155" stroke-width="1"/>
<text x="76.0" y="380" font-family="Arial, sans-serif" font-size="10" text-anchor="middle" fill="#64748b">0</text>
<line x1="512.6" y1="362" x2="512.6" y2="366" stroke="#334155" stroke-width="1"/>
<text x="512.6" y="380" font-family="Arial, sans-serif" font-size="10" text-anchor="middle" fill="#64748b">140</text>
<line x1="946.0" y1="362" x2="946.0" y2="366" stroke="#334155" stroke-width="1"/>
<text x="946.0" y="380" font-family="Arial, sans-serif" font-size="10" text-anchor="middle" fill="#64748b">279</text>
<polyline points="76.0,235.1 79.1,242.8 82.2,269.1 85.4,282.0 88.5,286.4 91.6,252.6 94.7,271.2 97.8,277.4 100.9,231.4 104.1,274.5 107.2,287.7 110.3,289.6 113.4,297.8 116.5,296.7 119.7,287.1 122.8,255.8 125.9,279.5 129.0,279.0 132.1,284.4 135.2,301.5 138.4,308.6 141.5,282.0 144.6,286.9 147.7,283.5 150.8,288.8 154.0,306.9 157.1,269.6 160.2,285.5 163.3,271.0 166.4,267.1 169.5,254.8 172.7,267.9 175.8,276.2 178.9,282.3 182.0,295.3 185.1,306.0 188.3,292.0 191.4,296.1 194.5,242.9 197.6,253.7 200.7,269.5 203.8,239.8 207.0,264.0 210.1,266.2 213.2,292.2 216.3,233.8 219.4,299.2 222.6,309.1 225.7,309.5 228.8,298.6 231.9,315.0 235.0,305.8 238.2,301.2 241.3,274.3 244.4,267.2 247.5,283.6 250.6,285.2 253.7,282.2 256.9,300.2 260.0,308.7 263.1,280.7 266.2,282.2 269.3,289.4 272.5,271.7 275.6,225.9 278.7,274.8 281.8,297.8 284.9,294.2 288.0,300.8 291.2,283.9 294.3,273.7 297.4,299.3 300.5,280.8 303.6,287.7 306.8,276.0 309.9,270.6 313.0,277.6 316.1,283.4 319.2,284.4 322.3,289.1 325.5,298.5 328.6,297.0 331.7,283.2 334.8,286.7 337.9,281.5 341.1,279.8 344.2,268.8 347.3,273.4 350.4,200.7 353.5,287.3 356.6,289.9 359.8,286.4 362.9,269.0 366.0,293.3 369.1,309.2 372.2,264.1 375.4,275.9 378.5,293.6 381.6,287.2 384.7,261.4 387.8,273.3 390.9,272.5 394.1,279.0 397.2,284.7 400.3,290.6 403.4,275.3 406.5,299.7 409.7,197.9 412.8,275.2 415.9,229.0 419.0,238.3 422.1,252.9 425.2,266.0 428.4,262.4 431.5,260.2 434.6,229.9 437.7,245.5 440.8,254.5 444.0,237.2 447.1,238.8 450.2,199.6 453.3,221.7 456.4,229.2 459.5,234.4 462.7,216.8 465.8,235.0 468.9,214.6 472.0,192.0 475.1,232.2 478.3,271.4 481.4,246.3 484.5,252.6 487.6,267.4 490.7,284.8 493.8,260.7 497.0,289.1 500.1,245.6 503.2,245.1 506.3,225.7 509.4,219.0 512.6,248.3 515.7,236.0 518.8,224.8 521.9,212.9 525.0,263.5 528.2,217.8 531.3,159.9 534.4,92.4 537.5,103.7 540.6,274.2 543.7,272.3 546.9,277.3 550.0,282.3 553.1,292.8 556.2,262.4 559.3,276.1 562.5,278.9 565.6,302.6 568.7,259.1 571.8,294.8 574.9,224.9 578.0,265.2 581.2,276.2 584.3,269.4 587.4,290.8 590.5,271.0 593.6,253.2 596.8,275.1 599.9,261.5 603.0,175.9 606.1,185.3 609.2,257.6 612.3,270.6 615.5,284.9 618.6,273.9 621.7,268.4 624.8,281.9 627.9,273.7 631.1,285.0 634.2,288.9 637.3,297.2 640.4,274.8 643.5,307.6 646.6,252.7 649.8,283.0 652.9,283.2 656.0,279.8 659.1,300.2 662.2,262.1 665.4,282.2 668.5,288.0 671.6,269.4 674.7,285.3 677.8,267.0 680.9,276.6 684.1,274.3 687.2,263.2 690.3,288.1 693.4,285.2 696.5,275.3 699.7,278.4 702.8,284.2 705.9,287.5 709.0,298.6 712.1,275.5 715.2,294.6 718.4,291.5 721.5,288.4 724.6,275.3 727.7,289.4 730.8,300.2 734.0,301.9 737.1,243.7 740.2,292.0 743.3,284.7 746.4,272.1 749.5,250.5 752.7,262.9 755.8,271.6 758.9,290.8 762.0,267.3 765.1,258.8 768.3,259.6 771.4,264.6 774.5,275.5 777.6,288.1 780.7,293.1 783.8,270.9 787.0,269.0 790.1,282.7 793.2,268.6 796.3,271.3 799.4,287.0 802.6,293.5 805.7,292.6 808.8,286.5 811.9,271.2 815.0,259.9 818.2,282.5 821.3,266.0 824.4,281.3 827.5,276.8 830.6,257.4 833.7,260.9 836.9,272.6 840.0,286.6 843.1,283.1 846.2,301.6 849.3,282.4 852.5,278.6 855.6,257.0 858.7,277.2 861.8,266.9 864.9,268.5 868.0,282.3 871.2,265.1 874.3,244.9 877.4,247.7 880.5,239.7 883.6,221.9 886.8,255.5 889.9,269.2 893.0,280.1 896.1,269.6 899.2,252.8 902.3,247.7 905.5,253.6 908.6,254.6 911.7,245.6 914.8,251.0 917.9,252.2 921.1,262.4 924.2,237.7 927.3,265.8 930.4,254.8 933.5,247.3 936.6,249.7 939.8,253.6 942.9,288.9 946.0,351.6" fill="none" stroke="#2563eb" stroke-width="2.2" stroke-linejoin="round" stroke-linecap="round"/>
<polyline points="76.0,265.2 79.1,261.0 82.2,252.9 85.4,253.0 88.5,252.1 91.6,256.3 94.7,261.3 97.8,267.3 100.9,273.1 104.1,266.8 107.2,265.6 110.3,265.8 113.4,272.0 116.5,276.4 119.7,279.6 122.8,288.9 125.9,285.8 129.0,284.4 132.1,282.6 135.2,280.4 138.4,281.2 141.5,284.8 144.6,289.2 147.7,290.4 150.8,291.1 154.0,291.9 157.1,292.8 160.2,286.3 163.3,286.8 166.4,284.2 169.5,281.5 172.7,275.8 175.8,269.3 178.9,270.4 182.0,269.9 185.1,273.9 188.3,280.4 191.4,286.6 194.5,291.3 197.6,285.8 200.7,281.0 203.8,276.7 207.0,265.7 210.1,261.0 213.2,256.0 216.3,264.2 219.4,260.9 222.6,265.9 225.7,277.4 228.8,285.0 231.9,290.4 235.0,294.2 238.2,306.2 241.3,306.5 244.4,300.7 247.5,293.7 250.6,291.2 253.7,286.2 256.9,282.3 260.0,282.1 263.1,287.8 266.2,290.1 269.3,289.9 272.5,290.6 275.6,288.8 278.7,276.4 281.8,270.8 284.9,273.6 288.0,275.6 291.2,277.5 294.3,279.6 297.4,287.5 300.5,291.6 303.6,288.8 306.8,287.7 309.9,283.6 313.0,281.3 316.1,282.0 319.2,279.3 322.3,279.9 325.5,280.2 328.6,283.9 331.7,288.3 334.8,289.3 337.9,289.8 341.1,289.3 344.2,287.8 347.3,282.8 350.4,278.9 353.5,265.1 356.6,265.2 359.8,266.6 362.9,267.7 366.0,267.8 369.1,271.1 372.2,289.2 375.4,285.3 378.5,283.0 381.6,284.2 384.7,287.2 387.8,281.9 390.9,275.9 394.1,277.3 397.2,277.8 400.3,276.3 403.4,276.9 406.5,279.2 409.7,283.6 412.8,271.2 415.9,270.6 419.0,261.3 422.1,252.6 425.2,248.8 428.4,243.2 431.5,254.0 434.6,251.5 437.7,251.6 440.8,252.8 444.0,253.1 447.1,248.3 450.2,244.4 453.3,234.2 456.4,232.9 459.5,230.2 462.7,226.8 465.8,223.4 468.9,222.8 472.0,225.3 475.1,220.3 478.3,220.8 481.4,227.0 484.5,231.9 487.6,234.8 490.7,243.7 493.8,259.1 497.0,263.9 500.1,266.8 503.2,266.7 506.3,265.5 509.4,258.5 512.6,247.5 515.7,245.4 518.8,236.6 521.9,233.1 525.0,227.8 528.2,234.1 531.3,233.9 534.4,219.2 537.5,195.2 540.6,175.0 543.7,185.2 546.9,186.7 550.0,196.6 553.1,217.0 556.2,250.4 559.3,276.9 562.5,277.2 565.6,278.3 568.7,282.5 571.8,278.7 574.9,279.0 578.0,272.7 581.2,270.9 584.3,270.5 587.4,264.9 590.5,270.2 593.6,266.3 596.8,271.0 599.9,272.6 603.0,270.2 606.1,254.6 609.2,237.0 612.3,234.8 615.5,237.7 618.6,239.3 621.7,241.4 624.8,256.8 627.9,272.9 631.1,275.6 634.2,278.0 637.3,278.6 640.4,282.5 643.5,283.6 646.6,287.8 649.8,284.3 652.9,284.0 656.0,283.1 659.1,280.2 662.2,284.4 665.4,276.8 668.5,281.7 671.6,282.6 674.7,280.3 677.8,281.2 680.9,275.7 684.1,278.1 687.2,276.8 690.3,272.6 693.4,275.7 696.5,275.7 699.7,277.1 702.8,277.4 705.9,279.1 709.0,283.1 712.1,284.9 715.2,283.3 718.4,286.5 721.5,288.6 724.6,289.4 727.7,287.3 730.8,285.8 734.0,289.9 737.1,291.1 740.2,283.2 743.3,283.7 746.4,285.3 749.5,282.4 752.7,274.1 755.8,267.6 758.9,272.3 762.0,272.1 765.1,269.2 768.3,267.0 771.4,268.5 774.5,268.8 777.6,269.4 780.7,269.0 783.8,273.3 787.0,275.3 790.1,276.9 793.2,279.9 796.3,278.7 799.4,275.9 802.6,274.9 805.7,278.7 808.8,282.6 811.9,283.3 815.0,283.7 818.2,281.8 821.3,281.0 824.4,276.4 827.5,274.6 830.6,272.9 833.7,270.7 836.9,270.8 840.0,269.2 843.1,272.6 846.2,272.9 849.3,277.0 852.5,281.2 855.6,284.1 858.7,281.5 861.8,280.0 864.9,277.3 868.0,271.8 871.2,271.8 874.3,269.5 877.4,267.5 880.5,262.6 883.6,258.0 886.8,250.3 889.9,245.8 893.0,246.5 896.1,252.4 899.2,256.0 902.3,258.2 905.5,262.5 908.6,262.2 911.7,259.7 914.8,254.0 917.9,250.9 921.1,250.8 924.2,253.2 927.3,250.6 930.4,252.4 933.5,254.0 936.6,253.3 939.8,252.9 942.9,251.5 946.0,260.0" fill="none" stroke="#dc2626" stroke-width="2.2" stroke-linejoin="round" stroke-linecap="round"/>
<line x1="76" y1="70" x2="94" y2="70" stroke="#2563eb" stroke-width="3"/>
<text x="100" y="74" font-family="Arial, sans-serif" font-size="11" fill="#0f172a">actual</text>
<line x1="172" y1="70" x2="190" y2="70" stroke="#dc2626" stroke-width="3"/>
<text x="196" y="74" font-family="Arial, sans-serif" font-size="11" fill="#0f172a">predicted</text>
<text x="28" y="404" font-family="Arial, sans-serif" font-size="11" fill="#64748b">Source: actual_vs_predicted.csv</text>
</svg>