<svg xmlns="http://www.w3.org/2000/svg" width="980" height="420" viewBox="0 0 980 420">
<rect width="100%" height="100%" fill="#ffffff"/>
<text x="28" y="34" font-family="Arial, sans-serif" font-size="20" font-weight="700" fill="#0f172a">Holdout actual vs predicted</text>
<text x="28" y="56" font-family="Arial, sans-serif" font-size="12" fill="#64748b">Chronological test split for the selected best model</text>
<line x1="76" y1="362.0" x2="946" y2="362.0" stroke="#e2e8f0" stroke-width="1"/>
<text x="68" y="366.0" font-family="Arial, sans-serif" font-size="10" text-anchor="end" fill="#64748b">1.6M</text>
<line x1="76" y1="292.0" x2="946" y2="292.0" stroke="#e2e8f0" stroke-width="1"/>
<text x="68" y="296.0" font-family="Arial, sans-serif" font-size="10" text-anchor="end" fill="#64748b">2.0M</text>
<line x1="76" y1="222.0" x2="946" y2="222.0" stroke="#e2e8f0" stroke-width="1"/>
<text x="68" y="226.0" font-family="Arial, sans-serif" font-size="10" text-anchor="end" fill="#64748b">2.4M</text>
<line x1="76" y1="152.0" x2="946" y2="152.0" stroke="#e2e8f0" stroke-width="1"/>
<text x="68" y="156.0" font-family="Arial, sans-serif" font-size="10" text-anchor="end" fill="#64748b">2.8M</text>
<line x1="76" y1="82.0" x2="946" y2="82.0" stroke="#e2e8f0" stroke-width="1"/>
<text x="68" y="86.0" font-family="Arial, sans-serif" font-size="10" text-anchor="end" fill="#64748b">3.1M</text>
<line x1="76" y1="362" x2="946" y2="362" stroke="#334155" stroke-width="1"/>
<line x1="76" y1="82" x2="76" y2="362" stroke="#334155" stroke-width="1"/>
<text x="76" y="72" font-family="Arial, sans-serif" font-size="11" fill="#64748b">nanoton</text>
<line x1="76.0" y1="362" x2="76.0" y2="366" stroke="#334155" stroke-width="1"/>
<text x="76.0" y="380" font-family="Arial, sans-serif" font-size="10" text-anchor="middle" fill="#64748b">0</text>
<line x1="513.8" y1="362" x2="513.8" y2="366" stroke="#334155" stroke-width="1"/>
<text x="513.8" y="380" font-family="Arial, sans-serif" font-size="10" text-anchor="middle" fill="#64748b">77</text>
<line x1="946.0" y1="362" x2="946.0" y2="366" stroke="#334155" stroke-width="1"/>
<text x="946.0" y="380" font-family="Arial, sans-serif" font-size="10" text-anchor="middle" fill="#64748b">153</text>
<polyline points="76.0,197.1 81.7,205.5 87.4,262.6 93.1,203.4 98.7,206.8 104.4,200.1 110.1,201.5 115.8,198.8 121.5,238.0 127.2,230.3 132.9,205.8 138.5,264.5 144.2,261.6 149.9,224.2 155.6,282.4 161.3,245.3 167.0,241.9 172.7,279.8 178.4,205.5 184.0,253.0 189.7,263.7 195.4,275.0 201.1,231.6 206.8,246.1 212.5,222.4 218.2,228.6 223.8,216.8 229.5,244.9 235.2,206.4 240.9,183.3 246.6,113.2 252.3,228.9 258.0,190.1 263.6,230.0 269.3,229.1 275.0,222.4 280.7,167.5 286.4,177.6 292.1,224.5 297.8,218.6 303.5,219.0 309.1,226.9 314.8,145.1 320.5,210.7 326.2,217.2 331.9,252.2 337.6,246.2 343.3,281.1 348.9,204.9 354.6,199.5 360.3,237.0 366.0,155.9 371.7,212.6 377.4,200.0 383.1,200.0 388.7,197.1 394.4,218.3 400.1,234.8 405.8,205.1 411.5,214.7 417.2,173.0 422.9,120.3 428.5,236.3 434.2,246.7 439.9,187.8 445.6,256.8 451.3,219.0 457.0,299.1 462.7,179.5 468.4,277.1 474.0,270.8 479.7,174.7 485.4,279.3 491.1,220.9 496.8,223.6 502.5,297.3 508.2,281.1 513.8,191.1 519.5,115.7 525.2,204.0 530.9,92.4 536.6,205.0 542.3,295.1 548.0,266.0 553.6,232.4 559.3,250.5 565.0,309.8 570.7,141.7 576.4,185.7 582.1,351.6 587.8,244.9 593.5,271.8 599.1,232.1 604.8,281.1 610.5,218.4 616.2,265.9 621.9,217.0 627.6,129.4 633.3,203.4 638.9,185.9 644.6,201.3 650.3,179.8 656.0,199.1 661.7,218.7 667.4,263.5 673.1,300.0 678.7,200.3 684.4,291.0 690.1,278.5 695.8,281.1 701.5,263.0 707.2,217.8 712.9,187.3 718.5,278.2 724.2,320.9 729.9,290.6 735.6,313.2 741.3,270.5 747.0,300.0 752.7,303.3 758.4,230.9 764.0,145.2 769.7,215.5 775.4,223.2 781.1,227.0 786.8,228.5 792.5,200.5 798.2,284.8 803.8,300.1 809.5,273.3 815.2,312.3 820.9,291.5 826.6,263.7 832.3,266.7 838.0,210.5 843.6,271.1 849.3,281.9 855.0,303.5 860.7,173.8 866.4,253.2 872.1,280.8 877.8,256.0 883.5,245.4 889.1,260.2 894.8,198.5 900.5,199.1 906.2,201.0 911.9,231.5 917.6,230.6 923.3,245.9 928.9,274.6 934.6,296.5 940.3,263.4 946.0,201.8" fill="none" stroke="#2563eb" stroke-width="2.2" stroke-linejoin="round" stroke-linecap="round"/>
<polyline points="76.0,229.6 81.7,217.9 87.4,223.2 93.1,231.3 98.7,226.0 104.4,214.3 110.1,213.8 115.8,217.0 121.5,217.0 127.2,223.4 132.9,231.0 138.5,223.0 144.2,238.0 149.9,239.3 155.6,232.8 161.3,248.4 167.0,244.7 172.7,236.0 178.4,253.0 184.0,238.6 189.7,238.1 195.4,253.7 201.1,259.4 206.8,251.8 212.5,239.7 218.2,230.6 223.8,232.2 229.5,229.6 235.2,232.8 240.9,223.8 246.6,218.4 252.3,208.6 258.0,223.0 263.6,219.0 269.3,220.1 275.0,230.4 280.7,223.0 286.4,209.1 292.1,205.5 297.8,216.0 303.5,217.0 309.1,218.1 314.8,218.1 320.5,214.1 326.2,217.1 331.9,222.1 337.6,231.9 343.3,244.5 348.9,237.2 354.6,223.6 360.3,217.9 366.0,224.3 371.7,213.7 377.4,213.6 383.1,212.7 388.7,217.5 394.4,218.1 400.1,216.5 405.8,231.4 411.5,223.0 417.2,218.1 422.9,209.1 428.5,203.0 434.2,216.2 439.9,226.5 445.6,222.4 451.3,235.8 457.0,231.3 462.7,247.4 468.4,246.1 474.0,249.6 479.7,261.5 485.4,219.2 491.1,238.5 496.8,236.2 502.5,211.4 508.2,235.7 513.8,246.9 519.5,214.0 525.2,206.1 530.9,205.6 536.6,198.1 542.3,202.2 548.0,233.5 553.6,246.9 559.3,226.2 565.0,228.4 570.7,244.4 576.4,219.2 582.1,210.8 587.8,241.0 593.5,240.2 599.1,237.7 604.8,239.0 610.5,251.2 616.2,237.9 621.9,229.9 627.6,228.0 633.3,208.7 638.9,208.9 644.6,209.9 650.3,208.8 656.0,205.0 661.7,216.5 667.4,216.5 673.1,235.5 678.7,250.0 684.4,234.7 690.1,244.4 695.8,254.6 701.5,252.9 707.2,244.5 712.9,244.6 718.5,223.2 724.2,247.2 729.9,252.0 735.6,253.7 741.3,246.7 747.0,265.3 752.7,265.7 758.4,257.6 764.0,244.5 769.7,215.6 775.4,219.8 781.1,224.1 786.8,224.7 792.5,221.3 798.2,224.7 803.8,227.6 809.5,262.1 815.2,261.5 820.9,261.0 826.6,260.2 832.3,260.2 838.0,250.8 843.6,239.1 849.3,247.9 855.0,249.1 860.7,265.8 866.4,243.2 872.1,240.7 877.8,260.1 883.5,255.9 889.1,250.3 894.8,241.2 900.5,226.0 906.2,205.0 911.9,218.6 917.6,219.7 923.3,220.9 928.9,216.5 934.6,225.9 940.3,247.6 946.0,254.4" fill="none" stroke="#dc2626" stroke-width="2.2" stroke-linejoin="round" stroke-linecap="round"/>
<line x1="76" y1="70" x2="94" y2="70" stroke="#2563eb" stroke-width="3"/>
<text x="100" y="74" font-family="Arial, sans-serif" font-size="11" fill="#0f172a">actual</text>
<line x1="172" y1="70" x2="190" y2="70" stroke="#dc2626" stroke-width="3"/>
<text x="196" y="74" font-family="Arial, sans-serif" font-size="11" fill="#0f172a">predicted</text>
<text x="28" y="404" font-family="Arial, sans-serif" font-size="11" fill="#64748b">Source: actual_vs_predicted.csv</text>
</svg>