<svg xmlns="http://www.w3.org/2000/svg" width="980" height="420" viewBox="0 0 980 420">
<rect width="100%" height="100%" fill="#ffffff"/>
<text x="28" y="34" font-family="Arial, sans-serif" font-size="20" font-weight="700" fill="#0f172a">Holdout actual vs predicted</text>
<text x="28" y="56" font-family="Arial, sans-serif" font-size="12" fill="#64748b">Chronological test split for the selected best model</text>
<line x1="76" y1="362.0" x2="946" y2="362.0" stroke="#e2e8f0" stroke-width="1"/>
<text x="68" y="366.0" font-family="Arial, sans-serif" font-size="10" text-anchor="end" fill="#64748b">259K</text>
<line x1="76" y1="292.0" x2="946" y2="292.0" stroke="#e2e8f0" stroke-width="1"/>
<text x="68" y="296.0" font-family="Arial, sans-serif" font-size="10" text-anchor="end" fill="#64748b">953K</text>
<line x1="76" y1="222.0" x2="946" y2="222.0" stroke="#e2e8f0" stroke-width="1"/>
<text x="68" y="226.0" font-family="Arial, sans-serif" font-size="10" text-anchor="end" fill="#64748b">1.6M</text>
<line x1="76" y1="152.0" x2="946" y2="152.0" stroke="#e2e8f0" stroke-width="1"/>
<text x="68" y="156.0" font-family="Arial, sans-serif" font-size="10" text-anchor="end" fill="#64748b">2.3M</text>
<line x1="76" y1="82.0" x2="946" y2="82.0" stroke="#e2e8f0" stroke-width="1"/>
<text x="68" y="86.0" font-family="Arial, sans-serif" font-size="10" text-anchor="end" fill="#64748b">3.0M</text>
<line x1="76" y1="362" x2="946" y2="362" stroke="#334155" stroke-width="1"/>
<line x1="76" y1="82" x2="76" y2="362" stroke="#334155" stroke-width="1"/>
<text x="76" y="72" font-family="Arial, sans-serif" font-size="11" fill="#64748b">nanoton</text>
<line x1="76.0" y1="362" x2="76.0" y2="366" stroke="#334155" stroke-width="1"/>
<text x="76.0" y="380" font-family="Arial, sans-serif" font-size="10" text-anchor="middle" fill="#64748b">0</text>
<line x1="511.0" y1="362" x2="511.0" y2="366" stroke="#334155" stroke-width="1"/>
<text x="511.0" y="380" font-family="Arial, sans-serif" font-size="10" text-anchor="middle" fill="#64748b">91</text>
<line x1="946.0" y1="362" x2="946.0" y2="366" stroke="#334155" stroke-width="1"/>
<text x="946.0" y="380" font-family="Arial, sans-serif" font-size="10" text-anchor="middle" fill="#64748b">182</text>
<polyline points="76.0,197.7 80.8,174.3 85.6,190.5 90.3,192.3 95.1,152.5 99.9,105.5 104.7,144.1 109.5,148.3 114.2,150.4 119.0,151.2 123.8,135.9 128.6,182.1 133.4,190.5 138.1,175.8 142.9,197.3 147.7,185.8 152.5,170.6 157.3,172.2 162.0,141.3 166.8,174.6 171.6,180.6 176.4,192.4 181.2,121.2 185.9,164.8 190.7,180.0 195.5,166.3 200.3,160.5 205.1,168.6 209.8,134.8 214.6,135.1 219.4,136.1 224.2,152.9 229.0,152.4 233.7,160.8 238.5,176.6 243.3,188.6 248.1,170.4 252.9,160.5 257.6,170.0 262.4,117.2 267.2,161.5 272.0,165.0 276.8,165.6 281.5,137.8 286.3,185.3 291.1,174.7 295.9,108.0 300.7,145.5 305.5,136.2 310.2,137.9 315.0,139.7 319.8,184.1 324.6,157.9 329.4,178.2 334.1,138.0 338.9,172.6 343.7,179.1 348.5,168.1 353.3,163.7 358.0,92.4 362.8,175.5 367.6,307.7 372.4,346.9 377.2,347.2 381.9,345.9 386.7,348.2 391.5,239.5 396.3,340.6 401.1,344.5 405.8,342.1 410.6,345.6 415.4,345.5 420.2,345.6 425.0,325.9 429.7,345.9 434.5,350.5 439.3,342.5 444.1,339.6 448.9,347.3 453.6,344.0 458.4,344.5 463.2,331.9 468.0,342.4 472.8,345.7 477.5,340.4 482.3,347.6 487.1,338.6 491.9,336.0 496.7,343.1 501.4,341.0 506.2,345.1 511.0,351.6 515.8,347.0 520.6,345.1 525.3,348.4 530.1,342.4 534.9,345.9 539.7,338.4 544.5,331.4 549.2,340.6 554.0,341.0 558.8,328.9 563.6,337.3 568.4,333.1 573.1,344.1 577.9,337.7 582.7,332.8 587.5,340.9 592.3,341.5 597.0,340.1 601.8,343.8 606.6,342.2 611.4,343.4 616.2,346.0 620.9,341.2 625.7,334.7 630.5,337.0 635.3,341.4 640.1,345.3 644.8,345.9 649.6,345.0 654.4,344.6 659.2,341.9 664.0,335.7 668.7,334.7 673.5,337.8 678.3,333.3 683.1,336.5 687.9,335.2 692.6,342.8 697.4,337.4 702.2,340.2 707.0,337.1 711.8,343.1 716.5,334.9 721.3,333.1 726.1,339.0 730.9,337.3 735.7,335.1 740.5,324.0 745.2,265.3 750.0,326.4 754.8,330.8 759.6,329.2 764.4,335.2 769.1,323.2 773.9,329.7 778.7,325.0 783.5,328.7 788.3,300.6 793.0,332.2 797.8,318.6 802.6,319.2 807.4,324.6 812.2,327.5 816.9,324.0 821.7,321.8 826.5,324.6 831.3,328.6 836.1,326.9 840.8,328.8 845.6,329.6 850.4,321.1 855.2,324.9 860.0,323.9 864.7,316.5 869.5,325.8 874.3,330.6 879.1,333.1 883.9,340.9 888.6,317.7 893.4,333.1 898.2,324.9 903.0,325.2 907.8,318.0 912.5,317.5 917.3,332.5 922.1,326.8 926.9,326.5 931.7,325.0 936.4,328.9 941.2,331.6 946.0,342.6" fill="none" stroke="#2563eb" stroke-width="2.2" stroke-linejoin="round" stroke-linecap="round"/>
<polyline points="76.0,170.3 80.8,172.6 85.6,175.1 90.3,176.9 95.1,175.9 99.9,166.5 104.7,155.4 109.5,154.4 114.2,156.9 119.0,156.9 123.8,158.7 128.6,153.4 133.4,154.3 138.1,168.9 142.9,174.2 147.7,176.0 152.5,184.3 157.3,176.9 162.0,171.3 166.8,167.2 171.6,162.9 176.4,176.8 181.2,178.0 185.9,170.2 190.7,170.7 195.5,174.8 200.3,165.3 205.1,169.5 209.8,166.8 214.6,157.7 219.4,152.9 224.2,151.7 229.0,152.8 233.7,151.5 238.5,147.3 243.3,153.0 248.1,150.7 252.9,165.0 257.6,162.6 262.4,170.3 267.2,156.1 272.0,153.7 276.8,163.7 281.5,162.6 286.3,162.7 291.1,163.6 295.9,177.8 300.7,159.4 305.5,154.3 310.2,162.4 315.0,158.4 319.8,156.4 324.6,159.1 329.4,165.5 334.1,168.1 338.9,158.1 343.7,157.4 348.5,161.4 353.3,162.5 358.0,162.3 362.8,141.7 367.6,149.3 372.4,183.5 377.2,212.8 381.9,244.5 386.7,249.4 391.5,267.7 396.3,222.8 401.1,247.8 405.8,251.6 410.6,264.1 415.4,271.5 420.2,276.2 425.0,274.6 429.7,267.3 434.5,269.1 439.3,270.8 444.1,275.5 448.9,265.8 453.6,268.8 458.4,270.5 463.2,265.0 468.0,273.7 472.8,271.8 477.5,270.0 482.3,262.6 487.1,265.0 491.9,267.0 496.7,265.4 501.4,266.9 506.2,265.4 511.0,276.5 515.8,269.8 520.6,273.0 525.3,272.2 530.1,266.6 534.9,268.6 539.7,268.3 544.5,261.5 549.2,262.9 554.0,253.9 558.8,266.4 563.6,251.9 568.4,253.4 573.1,254.8 577.9,259.2 582.7,258.3 587.5,253.2 592.3,261.3 597.0,253.9 601.8,264.6 606.6,261.1 611.4,265.0 616.2,261.3 620.9,270.1 625.7,268.2 630.5,263.0 635.3,261.9 640.1,270.7 644.8,261.9 649.6,269.7 654.4,266.3 659.2,265.1 664.0,270.5 668.7,252.2 673.5,259.5 678.3,260.5 683.1,248.3 687.9,254.9 692.6,248.0 697.4,252.5 702.2,252.1 707.0,256.0 711.8,248.9 716.5,250.6 721.3,251.8 726.1,268.6 730.9,257.8 735.7,253.8 740.5,253.6 745.2,251.3 750.0,228.5 754.8,246.2 759.6,253.1 764.4,246.6 769.1,257.2 773.9,242.8 778.7,256.0 783.5,246.9 788.3,247.6 793.0,228.3 797.8,245.8 802.6,240.8 807.4,238.8 812.2,244.1 816.9,245.4 821.7,244.4 826.5,238.9 831.3,241.9 836.1,248.2 840.8,248.3 845.6,252.3 850.4,250.1 855.2,250.9 860.0,250.7 864.7,253.5 869.5,241.7 874.3,248.7 879.1,248.0 883.9,255.8 888.6,259.8 893.4,245.4 898.2,254.4 903.0,245.6 907.8,246.5 912.5,248.2 917.3,237.0 922.1,247.1 926.9,245.2 931.7,253.1 936.4,248.5 941.2,246.6 946.0,249.3" fill="none" stroke="#dc2626" stroke-width="2.2" stroke-linejoin="round" stroke-linecap="round"/>
<line x1="76" y1="70" x2="94" y2="70" stroke="#2563eb" stroke-width="3"/>
<text x="100" y="74" font-family="Arial, sans-serif" font-size="11" fill="#0f172a">actual</text>
<line x1="172" y1="70" x2="190" y2="70" stroke="#dc2626" stroke-width="3"/>
<text x="196" y="74" font-family="Arial, sans-serif" font-size="11" fill="#0f172a">predicted</text>
<text x="28" y="404" font-family="Arial, sans-serif" font-size="11" fill="#64748b">Source: actual_vs_predicted.csv</text>
</svg>