<svg xmlns="http://www.w3.org/2000/svg" width="980" height="420" viewBox="0 0 980 420">
<rect width="100%" height="100%" fill="#ffffff"/>
<text x="28" y="34" font-family="Arial, sans-serif" font-size="20" font-weight="700" fill="#0f172a">Holdout actual vs predicted</text>
<text x="28" y="56" font-family="Arial, sans-serif" font-size="12" fill="#64748b">Chronological test split for the selected best model</text>
<line x1="76" y1="362.0" x2="946" y2="362.0" stroke="#e2e8f0" stroke-width="1"/>
<text x="68" y="366.0" font-family="Arial, sans-serif" font-size="10" text-anchor="end" fill="#64748b">259K</text>
<line x1="76" y1="292.0" x2="946" y2="292.0" stroke="#e2e8f0" stroke-width="1"/>
<text x="68" y="296.0" font-family="Arial, sans-serif" font-size="10" text-anchor="end" fill="#64748b">953K</text>
<line x1="76" y1="222.0" x2="946" y2="222.0" stroke="#e2e8f0" stroke-width="1"/>
<text x="68" y="226.0" font-family="Arial, sans-serif" font-size="10" text-anchor="end" fill="#64748b">1.6M</text>
<line x1="76" y1="152.0" x2="946" y2="152.0" stroke="#e2e8f0" stroke-width="1"/>
<text x="68" y="156.0" font-family="Arial, sans-serif" font-size="10" text-anchor="end" fill="#64748b">2.3M</text>
<line x1="76" y1="82.0" x2="946" y2="82.0" stroke="#e2e8f0" stroke-width="1"/>
<text x="68" y="86.0" font-family="Arial, sans-serif" font-size="10" text-anchor="end" fill="#64748b">3.0M</text>
<line x1="76" y1="362" x2="946" y2="362" stroke="#334155" stroke-width="1"/>
<line x1="76" y1="82" x2="76" y2="362" stroke="#334155" stroke-width="1"/>
<text x="76" y="72" font-family="Arial, sans-serif" font-size="11" fill="#64748b">nanoton</text>
<line x1="76.0" y1="362" x2="76.0" y2="366" stroke="#334155" stroke-width="1"/>
<text x="76.0" y="380" font-family="Arial, sans-serif" font-size="10" text-anchor="middle" fill="#64748b">0</text>
<line x1="513.5" y1="362" x2="513.5" y2="366" stroke="#334155" stroke-width="1"/>
<text x="513.5" y="380" font-family="Arial, sans-serif" font-size="10" text-anchor="middle" fill="#64748b">89</text>
<line x1="946.0" y1="362" x2="946.0" y2="366" stroke="#334155" stroke-width="1"/>
<text x="946.0" y="380" font-family="Arial, sans-serif" font-size="10" text-anchor="middle" fill="#64748b">177</text>
<polyline points="76.0,171.8 80.9,144.9 85.8,96.8 90.7,137.5 95.7,127.8 100.6,136.3 105.5,124.5 110.4,135.1 115.3,145.8 120.2,170.5 125.2,190.5 130.1,135.7 135.0,185.6 139.9,178.7 144.8,180.1 149.7,170.2 154.6,145.4 159.6,128.6 164.5,178.5 169.4,202.0 174.3,185.3 179.2,197.7 184.1,174.3 189.1,190.5 194.0,192.3 198.9,152.5 203.8,105.5 208.7,144.1 213.6,148.3 218.5,150.4 223.5,151.2 228.4,135.9 233.3,182.1 238.2,190.5 243.1,175.8 248.0,197.3 252.9,185.8 257.9,170.6 262.8,172.2 267.7,141.3 272.6,174.6 277.5,180.6 282.4,192.4 287.4,121.2 292.3,164.8 297.2,180.0 302.1,166.3 307.0,160.5 311.9,168.6 316.8,134.8 321.8,135.1 326.7,136.1 331.6,152.9 336.5,152.4 341.4,160.8 346.3,176.6 351.3,188.6 356.2,170.4 361.1,160.5 366.0,170.0 370.9,117.2 375.8,161.5 380.7,165.0 385.7,165.6 390.6,137.8 395.5,185.3 400.4,174.7 405.3,108.0 410.2,145.5 415.2,136.2 420.1,137.9 425.0,139.7 429.9,184.1 434.8,157.9 439.7,178.2 444.6,138.0 449.6,172.6 454.5,179.1 459.4,168.1 464.3,163.7 469.2,92.4 474.1,175.5 479.1,307.7 484.0,346.9 488.9,347.2 493.8,345.9 498.7,348.2 503.6,239.5 508.5,340.6 513.5,344.5 518.4,342.1 523.3,345.6 528.2,345.5 533.1,345.6 538.0,325.9 542.9,345.9 547.9,350.5 552.8,342.5 557.7,339.6 562.6,347.3 567.5,344.0 572.4,344.5 577.4,331.9 582.3,342.4 587.2,345.7 592.1,340.4 597.0,347.6 601.9,338.6 606.8,336.0 611.8,343.1 616.7,341.0 621.6,345.1 626.5,351.6 631.4,347.0 636.3,345.1 641.3,348.4 646.2,342.4 651.1,345.9 656.0,338.4 660.9,331.4 665.8,340.6 670.7,341.0 675.7,328.9 680.6,337.3 685.5,333.1 690.4,344.1 695.3,337.7 700.2,332.8 705.2,340.9 710.1,341.5 715.0,340.1 719.9,343.8 724.8,342.2 729.7,343.4 734.6,346.0 739.6,341.2 744.5,334.7 749.4,337.0 754.3,341.4 759.2,345.3 764.1,345.9 769.1,345.0 774.0,344.6 778.9,341.9 783.8,335.7 788.7,334.7 793.6,337.8 798.5,333.3 803.5,336.5 808.4,335.2 813.3,342.8 818.2,337.4 823.1,340.2 828.0,337.1 832.9,343.1 837.9,334.9 842.8,333.1 847.7,339.0 852.6,337.3 857.5,335.1 862.4,324.0 867.4,265.3 872.3,326.4 877.2,330.8 882.1,329.2 887.0,335.2 891.9,323.2 896.8,329.7 901.8,325.0 906.7,328.7 911.6,300.6 916.5,332.2 921.4,318.6 926.3,319.2 931.3,324.6 936.2,327.5 941.1,324.0 946.0,325.8" fill="none" stroke="#2563eb" stroke-width="2.2" stroke-linejoin="round" stroke-linecap="round"/>
<polyline points="76.0,163.9 80.9,169.0 85.8,159.5 90.7,148.6 95.7,145.4 100.6,159.7 105.5,144.4 110.4,144.8 115.3,144.0 120.2,147.8 125.2,158.5 130.1,164.7 135.0,159.9 139.9,165.5 144.8,172.3 149.7,174.9 154.6,172.1 159.6,182.8 164.5,165.8 169.4,167.1 174.3,171.8 179.2,173.8 184.1,175.3 189.1,178.9 194.0,179.8 198.9,179.1 203.8,170.6 208.7,161.4 213.6,158.0 218.5,160.4 223.5,160.4 228.4,162.1 233.3,155.6 238.2,155.3 243.1,169.9 248.0,176.5 252.9,177.7 257.9,189.6 262.8,179.1 267.7,175.0 272.6,169.7 277.5,165.6 282.4,178.8 287.4,180.1 292.3,173.2 297.2,173.2 302.1,176.6 307.0,167.6 311.9,172.3 316.8,170.1 321.8,160.5 326.7,158.3 331.6,153.7 336.5,155.3 341.4,154.7 346.3,151.0 351.3,154.1 356.2,152.3 361.1,166.3 366.0,164.9 370.9,171.1 375.8,161.1 380.7,157.2 385.7,166.6 390.6,163.4 395.5,162.5 400.4,166.8 405.3,180.4 410.2,161.8 415.2,157.0 420.1,164.5 425.0,163.5 429.9,159.0 434.8,161.2 439.7,166.4 444.6,171.0 449.6,160.0 454.5,160.0 459.4,163.5 464.3,164.1 469.2,164.8 474.1,144.9 479.1,151.0 484.0,183.6 488.9,214.4 493.8,248.2 498.7,252.5 503.6,270.3 508.5,230.3 513.5,252.3 518.4,256.0 523.3,270.1 528.2,274.1 533.1,280.9 538.0,277.9 542.9,270.7 547.9,273.2 552.8,274.5 557.7,279.9 562.6,269.8 567.5,272.7 572.4,272.8 577.4,269.1 582.3,280.1 587.2,276.6 592.1,271.5 597.0,262.8 601.9,267.5 606.8,267.5 611.8,266.6 616.7,265.4 621.6,264.6 626.5,276.6 631.4,265.6 636.3,271.1 641.3,271.0 646.2,265.8 651.1,267.9 656.0,267.1 660.9,261.5 665.8,262.8 670.7,252.4 675.7,268.1 680.6,250.5 685.5,252.8 690.4,254.0 695.3,257.5 700.2,256.7 705.2,252.1 710.1,259.8 715.0,252.7 719.9,262.6 724.8,259.3 729.7,264.1 734.6,260.5 739.6,268.4 744.5,266.6 749.4,262.1 754.3,261.5 759.2,269.8 764.1,259.6 769.1,270.1 774.0,265.2 778.9,264.1 783.8,269.5 788.7,251.8 793.6,257.6 798.5,259.8 803.5,246.2 808.4,255.5 813.3,248.3 818.2,250.6 823.1,250.4 828.0,254.7 832.9,246.1 837.9,251.2 842.8,248.8 847.7,270.3 852.6,256.3 857.5,253.3 862.4,252.6 867.4,250.6 872.3,228.1 877.2,245.5 882.1,252.0 887.0,245.0 891.9,256.3 896.8,241.2 901.8,257.6 906.7,246.0 911.6,245.6 916.5,228.3 921.4,243.4 926.3,238.9 931.3,235.2 936.2,241.9 941.1,242.2 946.0,241.1" fill="none" stroke="#dc2626" stroke-width="2.2" stroke-linejoin="round" stroke-linecap="round"/>
<line x1="76" y1="70" x2="94" y2="70" stroke="#2563eb" stroke-width="3"/>
<text x="100" y="74" font-family="Arial, sans-serif" font-size="11" fill="#0f172a">actual</text>
<line x1="172" y1="70" x2="190" y2="70" stroke="#dc2626" stroke-width="3"/>
<text x="196" y="74" font-family="Arial, sans-serif" font-size="11" fill="#0f172a">predicted</text>
<text x="28" y="404" font-family="Arial, sans-serif" font-size="11" fill="#64748b">Source: actual_vs_predicted.csv</text>
</svg>