<svg xmlns="http://www.w3.org/2000/svg" width="980" height="420" viewBox="0 0 980 420">
<rect width="100%" height="100%" fill="#ffffff"/>
<text x="28" y="34" font-family="Arial, sans-serif" font-size="20" font-weight="700" fill="#0f172a">Holdout actual vs predicted</text>
<text x="28" y="56" font-family="Arial, sans-serif" font-size="12" fill="#64748b">Chronological test split for the selected best model</text>
<line x1="76" y1="362.0" x2="946" y2="362.0" stroke="#e2e8f0" stroke-width="1"/>
<text x="68" y="366.0" font-family="Arial, sans-serif" font-size="10" text-anchor="end" fill="#64748b">1.6M</text>
<line x1="76" y1="292.0" x2="946" y2="292.0" stroke="#e2e8f0" stroke-width="1"/>
<text x="68" y="296.0" font-family="Arial, sans-serif" font-size="10" text-anchor="end" fill="#64748b">2.0M</text>
<line x1="76" y1="222.0" x2="946" y2="222.0" stroke="#e2e8f0" stroke-width="1"/>
<text x="68" y="226.0" font-family="Arial, sans-serif" font-size="10" text-anchor="end" fill="#64748b">2.4M</text>
<line x1="76" y1="152.0" x2="946" y2="152.0" stroke="#e2e8f0" stroke-width="1"/>
<text x="68" y="156.0" font-family="Arial, sans-serif" font-size="10" text-anchor="end" fill="#64748b">2.8M</text>
<line x1="76" y1="82.0" x2="946" y2="82.0" stroke="#e2e8f0" stroke-width="1"/>
<text x="68" y="86.0" font-family="Arial, sans-serif" font-size="10" text-anchor="end" fill="#64748b">3.1M</text>
<line x1="76" y1="362" x2="946" y2="362" stroke="#334155" stroke-width="1"/>
<line x1="76" y1="82" x2="76" y2="362" stroke="#334155" stroke-width="1"/>
<text x="76" y="72" font-family="Arial, sans-serif" font-size="11" fill="#64748b">nanoton</text>
<line x1="76.0" y1="362" x2="76.0" y2="366" stroke="#334155" stroke-width="1"/>
<text x="76.0" y="380" font-family="Arial, sans-serif" font-size="10" text-anchor="middle" fill="#64748b">0</text>
<line x1="511.0" y1="362" x2="511.0" y2="366" stroke="#334155" stroke-width="1"/>
<text x="511.0" y="380" font-family="Arial, sans-serif" font-size="10" text-anchor="middle" fill="#64748b">79</text>
<line x1="946.0" y1="362" x2="946.0" y2="366" stroke="#334155" stroke-width="1"/>
<text x="946.0" y="380" font-family="Arial, sans-serif" font-size="10" text-anchor="middle" fill="#64748b">158</text>
<polyline points="76.0,205.5 81.5,253.0 87.0,263.7 92.5,275.0 98.0,231.6 103.5,246.1 109.0,222.4 114.5,228.6 120.1,216.8 125.6,244.9 131.1,206.4 136.6,183.3 142.1,113.2 147.6,228.9 153.1,190.1 158.6,230.0 164.1,229.1 169.6,222.4 175.1,167.5 180.6,177.6 186.1,224.5 191.6,218.6 197.1,219.0 202.6,226.9 208.2,145.1 213.7,210.7 219.2,217.2 224.7,252.2 230.2,246.2 235.7,281.1 241.2,204.9 246.7,199.5 252.2,237.0 257.7,155.9 263.2,212.6 268.7,200.0 274.2,200.0 279.7,197.1 285.2,218.3 290.7,234.8 296.3,205.1 301.8,214.7 307.3,173.0 312.8,120.3 318.3,236.3 323.8,246.7 329.3,187.8 334.8,256.8 340.3,219.0 345.8,299.1 351.3,179.5 356.8,277.1 362.3,270.8 367.8,174.7 373.3,279.3 378.8,220.9 384.4,223.6 389.9,297.3 395.4,281.1 400.9,191.1 406.4,115.7 411.9,204.0 417.4,92.4 422.9,205.0 428.4,295.1 433.9,266.0 439.4,232.4 444.9,250.5 450.4,309.8 455.9,141.7 461.4,185.7 466.9,351.6 472.5,244.9 478.0,271.8 483.5,232.1 489.0,281.1 494.5,218.4 500.0,265.9 505.5,217.0 511.0,129.4 516.5,203.4 522.0,185.9 527.5,201.3 533.0,179.8 538.5,199.1 544.0,218.7 549.5,263.5 555.1,300.0 560.6,200.3 566.1,291.0 571.6,278.5 577.1,281.1 582.6,263.0 588.1,217.8 593.6,187.3 599.1,278.2 604.6,320.9 610.1,290.6 615.6,313.2 621.1,270.5 626.6,300.0 632.1,303.3 637.6,230.9 643.2,145.2 648.7,215.5 654.2,223.2 659.7,227.0 665.2,228.5 670.7,200.5 676.2,284.8 681.7,300.1 687.2,273.3 692.7,312.3 698.2,291.5 703.7,263.7 709.2,266.7 714.7,210.5 720.2,271.1 725.7,281.9 731.3,303.5 736.8,173.8 742.3,253.2 747.8,280.8 753.3,256.0 758.8,245.4 764.3,260.2 769.8,198.5 775.3,199.1 780.8,201.0 786.3,231.5 791.8,230.6 797.3,245.9 802.8,274.6 808.3,296.5 813.8,263.4 819.4,245.3 824.9,262.6 830.4,166.5 835.9,247.3 841.4,253.6 846.9,254.6 852.4,204.0 857.9,290.6 863.4,271.1 868.9,149.8 874.4,218.1 879.9,201.1 885.4,204.2 890.9,207.4 896.4,288.4 901.9,240.6 907.5,277.6 913.0,204.4 918.5,267.4 924.0,279.2 929.5,259.2 935.0,251.2 940.5,121.3 946.0,278.3" fill="none" stroke="#2563eb" stroke-width="2.2" stroke-linejoin="round" stroke-linecap="round"/>
<polyline points="76.0,251.1 81.5,239.8 87.0,237.6 92.5,251.6 98.0,258.9 103.5,250.7 109.0,239.9 114.5,228.8 120.1,225.7 125.6,227.8 131.1,231.8 136.6,212.5 142.1,217.8 147.6,208.9 153.1,222.0 158.6,219.2 164.1,220.1 169.6,233.1 175.1,225.2 180.6,208.9 186.1,205.8 191.6,215.0 197.1,218.1 202.6,219.2 208.2,219.2 213.7,214.0 219.2,220.2 224.7,223.3 230.2,233.1 235.7,244.0 241.2,238.5 246.7,226.4 252.2,217.8 257.7,225.7 263.2,213.6 268.7,202.8 274.2,214.3 279.7,219.1 285.2,219.2 290.7,219.1 296.3,230.1 301.8,225.2 307.3,219.2 312.8,208.9 318.3,204.8 323.8,217.0 329.3,227.2 334.8,224.1 340.3,232.1 345.8,233.1 351.3,247.7 356.8,246.8 362.3,251.2 367.8,263.2 373.3,219.6 378.8,234.2 384.4,236.9 389.9,210.0 395.4,233.4 400.9,246.3 406.4,214.6 411.9,204.5 417.4,207.2 422.9,195.1 428.4,202.3 433.9,230.9 439.4,246.7 444.9,227.0 450.4,230.3 455.9,242.6 461.4,217.5 466.9,211.7 472.5,240.3 478.0,240.8 483.5,237.0 489.0,239.9 494.5,250.4 500.0,235.9 505.5,228.1 511.0,225.9 516.5,199.7 522.0,210.2 527.5,208.4 533.0,208.4 538.5,205.9 544.0,219.1 549.5,219.1 555.1,236.3 560.6,250.3 566.1,235.6 571.6,248.1 577.1,253.8 582.6,252.8 588.1,249.7 593.6,242.8 599.1,222.6 604.6,247.1 610.1,253.9 615.6,254.9 621.1,248.9 626.6,265.2 632.1,265.3 637.6,256.3 643.2,241.7 648.7,214.6 654.2,218.7 659.7,221.8 665.2,223.8 670.7,224.8 676.2,227.7 681.7,228.6 687.2,261.6 692.7,262.6 698.2,262.7 703.7,260.5 709.2,260.5 714.7,250.0 720.2,236.9 725.7,246.5 731.3,251.4 736.8,265.5 742.3,242.3 747.8,241.0 753.3,260.5 758.8,256.1 764.3,249.0 769.8,240.2 775.3,228.1 780.8,207.5 786.3,220.4 791.8,226.2 797.3,224.5 802.8,221.6 808.3,230.6 813.8,250.3 819.4,255.3 824.9,253.2 830.4,253.6 835.9,230.0 841.4,217.2 846.9,240.6 852.4,243.3 857.9,230.4 863.4,235.7 868.9,250.7 874.4,229.5 879.9,228.6 885.4,220.4 890.9,223.3 896.4,224.3 901.9,235.7 907.5,239.3 913.0,247.2 918.5,233.8 924.0,241.2 929.5,249.0 935.0,243.6 940.5,244.2 946.0,220.1" fill="none" stroke="#dc2626" stroke-width="2.2" stroke-linejoin="round" stroke-linecap="round"/>
<line x1="76" y1="70" x2="94" y2="70" stroke="#2563eb" stroke-width="3"/>
<text x="100" y="74" font-family="Arial, sans-serif" font-size="11" fill="#0f172a">actual</text>
<line x1="172" y1="70" x2="190" y2="70" stroke="#dc2626" stroke-width="3"/>
<text x="196" y="74" font-family="Arial, sans-serif" font-size="11" fill="#0f172a">predicted</text>
<text x="28" y="404" font-family="Arial, sans-serif" font-size="11" fill="#64748b">Source: actual_vs_predicted.csv</text>
</svg>