<svg xmlns="http://www.w3.org/2000/svg" width="980" height="420" viewBox="0 0 980 420">
<rect width="100%" height="100%" fill="#ffffff"/>
<text x="28" y="34" font-family="Arial, sans-serif" font-size="20" font-weight="700" fill="#0f172a">Holdout actual vs predicted</text>
<text x="28" y="56" font-family="Arial, sans-serif" font-size="12" fill="#64748b">Chronological test split for the selected best model</text>
<line x1="76" y1="362.0" x2="946" y2="362.0" stroke="#e2e8f0" stroke-width="1"/>
<text x="68" y="366.0" font-family="Arial, sans-serif" font-size="10" text-anchor="end" fill="#64748b">264K</text>
<line x1="76" y1="292.0" x2="946" y2="292.0" stroke="#e2e8f0" stroke-width="1"/>
<text x="68" y="296.0" font-family="Arial, sans-serif" font-size="10" text-anchor="end" fill="#64748b">999K</text>
<line x1="76" y1="222.0" x2="946" y2="222.0" stroke="#e2e8f0" stroke-width="1"/>
<text x="68" y="226.0" font-family="Arial, sans-serif" font-size="10" text-anchor="end" fill="#64748b">1.7M</text>
<line x1="76" y1="152.0" x2="946" y2="152.0" stroke="#e2e8f0" stroke-width="1"/>
<text x="68" y="156.0" font-family="Arial, sans-serif" font-size="10" text-anchor="end" fill="#64748b">2.5M</text>
<line x1="76" y1="82.0" x2="946" y2="82.0" stroke="#e2e8f0" stroke-width="1"/>
<text x="68" y="86.0" font-family="Arial, sans-serif" font-size="10" text-anchor="end" fill="#64748b">3.2M</text>
<line x1="76" y1="362" x2="946" y2="362" stroke="#334155" stroke-width="1"/>
<line x1="76" y1="82" x2="76" y2="362" stroke="#334155" stroke-width="1"/>
<text x="76" y="72" font-family="Arial, sans-serif" font-size="11" fill="#64748b">nanoton</text>
<line x1="76.0" y1="362" x2="76.0" y2="366" stroke="#334155" stroke-width="1"/>
<text x="76.0" y="380" font-family="Arial, sans-serif" font-size="10" text-anchor="middle" fill="#64748b">0</text>
<line x1="513.7" y1="362" x2="513.7" y2="366" stroke="#334155" stroke-width="1"/>
<text x="513.7" y="380" font-family="Arial, sans-serif" font-size="10" text-anchor="middle" fill="#64748b">82</text>
<line x1="946.0" y1="362" x2="946.0" y2="366" stroke="#334155" stroke-width="1"/>
<text x="946.0" y="380" font-family="Arial, sans-serif" font-size="10" text-anchor="middle" fill="#64748b">163</text>
<polyline points="76.0,136.7 81.3,161.0 86.7,158.0 92.0,158.2 97.3,162.3 102.7,119.8 108.0,153.9 113.4,157.3 118.7,175.4 124.0,172.3 129.4,190.4 134.7,150.8 140.0,148.0 145.4,167.5 150.7,125.4 156.1,154.9 161.4,148.3 166.7,148.3 172.1,146.8 177.4,157.8 182.7,166.4 188.1,151.0 193.4,155.9 198.8,134.3 204.1,106.9 209.4,167.2 214.8,172.6 220.1,142.0 225.4,177.8 230.8,158.2 236.1,199.8 241.5,137.6 246.8,188.4 252.1,185.1 257.5,135.2 262.8,189.5 268.1,159.2 273.5,160.6 278.8,198.9 284.2,190.4 289.5,143.7 294.8,104.5 300.2,150.4 305.5,92.4 310.8,150.9 316.2,197.7 321.5,182.6 326.9,165.1 332.2,174.6 337.5,205.4 342.9,118.0 348.2,140.9 353.5,227.1 358.9,171.6 364.2,185.6 369.6,165.0 374.9,190.4 380.2,157.8 385.6,182.6 390.9,157.1 396.2,111.6 401.6,150.1 406.9,141.0 412.3,149.0 417.6,137.8 422.9,147.8 428.3,158.0 433.6,181.3 438.9,200.3 444.3,148.4 449.6,195.6 455.0,189.1 460.3,190.4 465.6,181.1 471.0,157.6 476.3,141.7 481.6,188.9 487.0,211.1 492.3,195.4 497.7,207.1 503.0,184.9 508.3,200.3 513.7,202.0 519.0,164.3 524.3,119.8 529.7,156.4 535.0,160.4 540.4,162.3 545.7,163.1 551.0,148.6 556.4,192.3 561.7,200.3 567.0,186.4 572.4,206.7 577.7,195.8 583.1,181.4 588.4,183.0 593.7,153.7 599.1,185.2 604.4,190.9 609.7,202.1 615.1,134.7 620.4,176.0 625.8,190.3 631.1,177.4 636.4,171.9 641.8,179.6 647.1,147.5 652.4,147.8 657.8,148.8 663.1,164.7 668.5,164.2 673.8,172.2 679.1,187.1 684.5,198.5 689.8,181.2 695.1,171.9 700.5,180.9 705.8,130.9 711.2,172.9 716.5,176.2 721.8,176.7 727.2,150.4 732.5,195.4 737.8,185.3 743.2,122.2 748.5,157.7 753.9,148.9 759.2,150.5 764.5,152.1 769.9,194.2 775.2,169.4 780.5,188.6 785.9,150.6 791.2,183.3 796.6,189.5 801.9,179.1 807.2,174.9 812.6,107.4 817.9,186.0 823.2,311.1 828.6,348.2 833.9,348.5 839.3,347.3 844.6,349.5 849.9,246.6 855.3,342.3 860.6,345.9 865.9,343.7 871.3,347.0 876.6,346.9 882.0,347.0 887.3,328.4 892.6,347.3 898.0,351.6 903.3,344.0 908.6,341.3 914.0,348.6 919.3,345.5 924.7,346.0 930.0,334.1 935.3,343.9 940.7,347.1 946.0,341.1" fill="none" stroke="#2563eb" stroke-width="2.2" stroke-linejoin="round" stroke-linecap="round"/>
<polyline points="76.0,162.3 81.3,157.2 86.7,159.0 92.0,159.8 97.3,158.3 102.7,162.3 108.0,155.2 113.4,157.1 118.7,156.7 124.0,162.5 129.4,166.4 134.7,170.7 140.0,168.4 145.4,158.2 150.7,160.3 156.1,147.8 161.4,150.2 166.7,153.0 172.1,153.9 177.4,152.9 182.7,153.7 188.1,162.5 193.4,154.6 198.8,155.8 204.1,156.5 209.4,146.0 214.8,153.8 220.1,164.7 225.4,170.9 230.8,178.5 236.1,184.6 241.5,191.0 246.8,185.9 252.1,176.4 257.5,196.2 262.8,169.3 268.1,181.9 273.5,179.8 278.8,166.5 284.2,185.1 289.5,177.1 294.8,172.5 300.2,148.1 305.5,160.8 310.8,148.3 316.2,151.1 321.5,172.5 326.9,182.8 332.2,185.6 337.5,193.2 342.9,197.6 348.2,170.9 353.5,168.2 358.9,191.8 364.2,187.6 369.6,184.0 374.9,184.6 380.2,193.6 385.6,182.7 390.9,180.0 396.2,176.0 401.6,159.4 406.9,161.9 412.3,174.8 417.6,160.8 422.9,160.3 428.3,162.4 433.6,170.2 438.9,175.9 444.3,183.9 449.6,178.2 455.0,184.6 460.3,192.7 465.6,192.1 471.0,190.0 476.3,193.6 481.6,183.5 487.0,183.5 492.3,189.8 497.7,190.5 503.0,192.6 508.3,196.6 513.7,198.9 519.0,196.2 524.3,182.6 529.7,172.6 535.0,171.6 540.4,176.4 545.7,174.7 551.0,176.6 556.4,174.0 561.7,176.9 567.0,188.5 572.4,193.7 577.7,195.6 583.1,207.6 588.4,197.6 593.7,192.9 599.1,185.4 604.4,185.1 609.7,191.6 615.1,195.8 620.4,184.4 625.8,188.8 631.1,196.8 636.4,183.8 641.8,185.0 647.1,185.0 652.4,177.0 657.8,174.7 663.1,170.0 668.5,168.5 673.8,173.2 679.1,168.0 684.5,174.3 689.8,173.7 695.1,187.4 700.5,182.3 705.8,187.7 711.2,175.4 716.5,170.1 721.8,181.1 727.2,181.6 732.5,180.8 737.8,183.3 743.2,196.1 748.5,176.8 753.9,174.3 759.2,178.5 764.5,179.2 769.9,169.6 775.2,179.4 780.5,187.2 785.9,187.5 791.2,176.2 796.6,179.0 801.9,184.0 807.2,179.5 812.6,183.4 817.9,162.2 823.2,175.0 828.6,204.9 833.9,233.4 839.3,260.3 844.6,272.4 849.9,290.4 855.3,259.6 860.6,262.0 865.9,268.9 871.3,275.5 876.6,284.6 882.0,289.9 887.3,297.0 892.6,279.9 898.0,281.8 903.3,285.5 908.6,287.1 914.0,279.4 919.3,281.2 924.7,285.7 930.0,279.1 935.3,289.2 940.7,287.1 946.0,285.0" fill="none" stroke="#dc2626" stroke-width="2.2" stroke-linejoin="round" stroke-linecap="round"/>
<line x1="76" y1="70" x2="94" y2="70" stroke="#2563eb" stroke-width="3"/>
<text x="100" y="74" font-family="Arial, sans-serif" font-size="11" fill="#0f172a">actual</text>
<line x1="172" y1="70" x2="190" y2="70" stroke="#dc2626" stroke-width="3"/>
<text x="196" y="74" font-family="Arial, sans-serif" font-size="11" fill="#0f172a">predicted</text>
<text x="28" y="404" font-family="Arial, sans-serif" font-size="11" fill="#64748b">Source: actual_vs_predicted.csv</text>
</svg>