<svg xmlns="http://www.w3.org/2000/svg" width="980" height="420" viewBox="0 0 980 420">
<rect width="100%" height="100%" fill="#ffffff"/>
<text x="28" y="34" font-family="Arial, sans-serif" font-size="20" font-weight="700" fill="#0f172a">Holdout actual vs predicted</text>
<text x="28" y="56" font-family="Arial, sans-serif" font-size="12" fill="#64748b">Chronological test split for the selected best model</text>
<line x1="76" y1="362.0" x2="946" y2="362.0" stroke="#e2e8f0" stroke-width="1"/>
<text x="68" y="366.0" font-family="Arial, sans-serif" font-size="10" text-anchor="end" fill="#64748b">252K</text>
<line x1="76" y1="292.0" x2="946" y2="292.0" stroke="#e2e8f0" stroke-width="1"/>
<text x="68" y="296.0" font-family="Arial, sans-serif" font-size="10" text-anchor="end" fill="#64748b">990K</text>
<line x1="76" y1="222.0" x2="946" y2="222.0" stroke="#e2e8f0" stroke-width="1"/>
<text x="68" y="226.0" font-family="Arial, sans-serif" font-size="10" text-anchor="end" fill="#64748b">1.7M</text>
<line x1="76" y1="152.0" x2="946" y2="152.0" stroke="#e2e8f0" stroke-width="1"/>
<text x="68" y="156.0" font-family="Arial, sans-serif" font-size="10" text-anchor="end" fill="#64748b">2.5M</text>
<line x1="76" y1="82.0" x2="946" y2="82.0" stroke="#e2e8f0" stroke-width="1"/>
<text x="68" y="86.0" font-family="Arial, sans-serif" font-size="10" text-anchor="end" fill="#64748b">3.2M</text>
<line x1="76" y1="362" x2="946" y2="362" stroke="#334155" stroke-width="1"/>
<line x1="76" y1="82" x2="76" y2="362" stroke="#334155" stroke-width="1"/>
<text x="76" y="72" font-family="Arial, sans-serif" font-size="11" fill="#64748b">nanoton</text>
<line x1="76.0" y1="362" x2="76.0" y2="366" stroke="#334155" stroke-width="1"/>
<text x="76.0" y="380" font-family="Arial, sans-serif" font-size="10" text-anchor="middle" fill="#64748b">0</text>
<line x1="513.6" y1="362" x2="513.6" y2="366" stroke="#334155" stroke-width="1"/>
<text x="513.6" y="380" font-family="Arial, sans-serif" font-size="10" text-anchor="middle" fill="#64748b">84</text>
<line x1="946.0" y1="362" x2="946.0" y2="366" stroke="#334155" stroke-width="1"/>
<text x="946.0" y="380" font-family="Arial, sans-serif" font-size="10" text-anchor="middle" fill="#64748b">167</text>
<polyline points="76.0,166.1 81.2,150.7 86.4,155.7 91.6,134.1 96.8,106.8 102.0,166.9 107.3,172.2 112.5,141.8 117.7,177.4 122.9,157.9 128.1,199.4 133.3,137.4 138.5,188.0 143.7,184.7 148.9,135.0 154.1,189.1 159.4,158.9 164.6,160.3 169.8,198.4 175.0,190.0 180.2,143.5 185.4,104.4 190.6,150.1 195.8,92.4 201.0,150.6 206.2,197.3 211.4,182.2 216.7,164.8 221.9,174.2 227.1,204.9 232.3,117.9 237.5,140.7 242.7,226.5 247.9,171.3 253.1,185.2 258.3,164.7 263.5,190.0 268.8,157.6 274.0,182.2 279.2,156.9 284.4,111.5 289.6,149.9 294.8,140.8 300.0,148.7 305.2,137.6 310.4,147.6 315.6,157.7 320.9,180.9 326.1,199.8 331.3,148.2 336.5,195.1 341.7,188.7 346.9,190.0 352.1,180.7 357.3,157.3 362.5,141.5 367.7,188.5 372.9,210.7 378.2,194.9 383.4,206.6 388.6,184.5 393.8,199.8 399.0,201.5 404.2,164.0 409.4,119.7 414.6,156.1 419.8,160.1 425.0,162.0 430.3,162.8 435.5,148.3 440.7,191.9 445.9,199.8 451.1,186.0 456.3,206.2 461.5,195.4 466.7,181.0 471.9,182.6 477.1,153.5 482.3,184.8 487.6,190.5 492.8,201.6 498.0,134.5 503.2,175.6 508.4,189.9 513.6,177.0 518.8,171.6 524.0,179.2 529.2,147.3 534.4,147.6 539.7,148.6 544.9,164.3 550.1,163.9 555.3,171.8 560.5,186.7 565.7,198.0 570.9,180.9 576.1,171.5 581.3,180.5 586.5,130.7 591.7,172.5 597.0,175.8 602.2,176.3 607.4,150.1 612.6,194.9 617.8,184.9 623.0,122.1 628.2,157.4 633.4,148.7 638.6,150.2 643.8,151.9 649.1,193.8 654.3,169.1 659.5,188.2 664.7,150.3 669.9,182.9 675.1,189.1 680.3,178.7 685.5,174.5 690.7,107.3 695.9,185.6 701.1,310.2 706.4,347.2 711.6,347.4 716.8,346.2 722.0,348.4 727.2,246.0 732.4,341.2 737.6,344.9 742.8,342.7 748.0,346.0 753.2,345.8 758.5,346.0 763.7,327.4 768.9,346.3 774.1,350.5 779.3,343.0 784.5,340.3 789.7,347.5 794.9,344.4 800.1,344.9 805.3,333.1 810.6,342.9 815.8,346.0 821.0,341.1 826.2,347.8 831.4,339.3 836.6,336.9 841.8,343.6 847.0,341.6 852.2,345.4 857.4,351.6 862.6,347.3 867.9,345.5 873.1,348.5 878.3,342.9 883.5,346.3 888.7,339.2 893.9,332.6 899.1,341.2 904.3,341.7 909.5,330.2 914.7,338.1 920.0,334.2 925.2,344.5 930.4,338.5 935.6,333.9 940.8,341.6 946.0,341.1" fill="none" stroke="#2563eb" stroke-width="2.2" stroke-linejoin="round" stroke-linecap="round"/>
<polyline points="76.0,152.8 81.2,161.2 86.4,153.9 91.6,155.1 96.8,155.3 102.0,144.9 107.3,153.2 112.5,164.0 117.7,171.4 122.9,178.7 128.1,184.2 133.3,190.8 138.5,186.5 143.7,177.3 148.9,195.9 154.1,169.7 159.4,182.2 164.6,180.1 169.8,167.1 175.0,185.1 180.2,178.0 185.4,173.0 190.6,149.0 195.8,161.8 201.0,149.8 206.2,153.6 211.4,174.0 216.7,184.2 221.9,186.1 227.1,193.4 232.3,198.0 237.5,172.2 242.7,169.2 247.9,192.3 253.1,189.3 258.3,185.7 263.5,185.1 268.8,194.4 274.0,184.3 279.2,181.2 284.4,177.4 289.6,161.6 294.8,162.7 300.0,175.2 305.2,162.0 310.4,161.4 315.6,163.2 320.9,171.3 326.1,177.0 331.3,184.8 336.5,179.1 341.7,185.4 346.9,193.4 352.1,193.1 357.3,190.5 362.5,194.7 367.7,185.8 372.9,184.8 378.2,191.3 383.4,192.1 388.6,194.2 393.8,197.4 399.0,199.4 404.2,197.2 409.4,184.0 414.6,173.6 419.8,172.1 425.0,177.1 430.3,175.7 435.5,177.7 440.7,174.9 445.9,178.1 451.1,189.7 456.3,195.0 461.5,196.3 466.7,207.4 471.9,198.2 477.1,193.4 482.3,186.9 487.6,185.3 492.8,193.0 498.0,197.3 503.2,185.3 508.4,190.1 513.6,197.7 518.8,184.9 524.0,186.6 529.2,186.2 534.4,177.4 539.7,175.5 544.9,170.8 550.1,169.8 555.3,173.6 560.5,169.7 565.7,175.4 570.9,175.5 576.1,187.9 581.3,183.0 586.5,188.5 591.7,176.3 597.0,173.5 602.2,182.2 607.4,182.8 612.6,182.0 617.8,184.6 623.0,196.8 628.2,178.7 633.4,175.0 638.6,179.8 643.8,180.7 649.1,170.6 654.3,180.2 659.5,188.0 664.7,188.3 669.9,176.3 675.1,179.3 680.3,184.0 685.5,180.9 690.7,183.7 695.9,162.5 701.1,175.3 706.4,205.7 711.6,234.4 716.8,260.3 722.0,271.2 727.2,289.6 732.4,260.2 737.6,263.6 742.8,270.7 748.0,277.6 753.2,286.9 758.5,291.7 763.7,298.4 768.9,283.5 774.1,285.2 779.3,288.9 784.5,290.6 789.7,282.7 794.9,283.2 800.1,288.2 805.3,281.7 810.6,291.3 815.8,289.2 821.0,287.4 826.2,280.8 831.4,282.4 836.6,280.1 841.8,280.4 847.0,281.9 852.2,279.2 857.4,288.1 862.6,282.3 867.9,287.7 873.1,285.7 878.3,279.7 883.5,282.3 888.7,283.7 893.9,273.1 899.1,275.5 904.3,271.3 909.5,275.0 914.7,266.4 920.0,264.7 925.2,269.3 930.4,272.8 935.6,272.1 940.8,267.8 946.0,279.6" fill="none" stroke="#dc2626" stroke-width="2.2" stroke-linejoin="round" stroke-linecap="round"/>
<line x1="76" y1="70" x2="94" y2="70" stroke="#2563eb" stroke-width="3"/>
<text x="100" y="74" font-family="Arial, sans-serif" font-size="11" fill="#0f172a">actual</text>
<line x1="172" y1="70" x2="190" y2="70" stroke="#dc2626" stroke-width="3"/>
<text x="196" y="74" font-family="Arial, sans-serif" font-size="11" fill="#0f172a">predicted</text>
<text x="28" y="404" font-family="Arial, sans-serif" font-size="11" fill="#64748b">Source: actual_vs_predicted.csv</text>
</svg>