<svg xmlns="http://www.w3.org/2000/svg" width="980" height="420" viewBox="0 0 980 420">
<rect width="100%" height="100%" fill="#ffffff"/>
<text x="28" y="34" font-family="Arial, sans-serif" font-size="20" font-weight="700" fill="#0f172a">Holdout actual vs predicted</text>
<text x="28" y="56" font-family="Arial, sans-serif" font-size="12" fill="#64748b">Chronological test split for the selected best model</text>
<line x1="76" y1="362.0" x2="946" y2="362.0" stroke="#e2e8f0" stroke-width="1"/>
<text x="68" y="366.0" font-family="Arial, sans-serif" font-size="10" text-anchor="end" fill="#64748b">261K</text>
<line x1="76" y1="292.0" x2="946" y2="292.0" stroke="#e2e8f0" stroke-width="1"/>
<text x="68" y="296.0" font-family="Arial, sans-serif" font-size="10" text-anchor="end" fill="#64748b">569K</text>
<line x1="76" y1="222.0" x2="946" y2="222.0" stroke="#e2e8f0" stroke-width="1"/>
<text x="68" y="226.0" font-family="Arial, sans-serif" font-size="10" text-anchor="end" fill="#64748b">877K</text>
<line x1="76" y1="152.0" x2="946" y2="152.0" stroke="#e2e8f0" stroke-width="1"/>
<text x="68" y="156.0" font-family="Arial, sans-serif" font-size="10" text-anchor="end" fill="#64748b">1.2M</text>
<line x1="76" y1="82.0" x2="946" y2="82.0" stroke="#e2e8f0" stroke-width="1"/>
<text x="68" y="86.0" font-family="Arial, sans-serif" font-size="10" text-anchor="end" fill="#64748b">1.5M</text>
<line x1="76" y1="362" x2="946" y2="362" stroke="#334155" stroke-width="1"/>
<line x1="76" y1="82" x2="76" y2="362" stroke="#334155" stroke-width="1"/>
<text x="76" y="72" font-family="Arial, sans-serif" font-size="11" fill="#64748b">nanoton</text>
<line x1="76.0" y1="362" x2="76.0" y2="366" stroke="#334155" stroke-width="1"/>
<text x="76.0" y="380" font-family="Arial, sans-serif" font-size="10" text-anchor="middle" fill="#64748b">0</text>
<line x1="511.0" y1="362" x2="511.0" y2="366" stroke="#334155" stroke-width="1"/>
<text x="511.0" y="380" font-family="Arial, sans-serif" font-size="10" text-anchor="middle" fill="#64748b">151</text>
<line x1="946.0" y1="362" x2="946.0" y2="366" stroke="#334155" stroke-width="1"/>
<text x="946.0" y="380" font-family="Arial, sans-serif" font-size="10" text-anchor="middle" fill="#64748b">302</text>
<polyline points="76.0,319.6 78.9,321.0 81.8,319.0 84.6,309.2 87.5,322.9 90.4,331.9 93.3,306.4 96.2,313.1 99.0,323.1 101.9,319.4 104.8,304.9 107.7,311.6 110.6,311.1 113.5,314.8 116.3,318.1 119.2,321.4 122.1,312.7 125.0,326.6 127.9,268.9 130.7,312.7 133.6,286.6 136.5,291.8 139.4,300.1 142.3,307.5 145.1,305.4 148.0,304.2 150.9,287.1 153.8,295.9 156.7,301.0 159.5,291.2 162.4,292.1 165.3,269.9 168.2,282.4 171.1,286.7 173.9,289.6 176.8,279.6 179.7,289.9 182.6,278.4 185.5,265.6 188.4,288.3 191.2,310.5 194.1,296.3 197.0,299.9 199.9,308.3 202.8,318.1 205.6,304.5 208.5,320.6 211.4,295.9 214.3,295.7 217.2,284.7 220.0,280.9 222.9,297.5 225.8,290.5 228.7,284.2 231.6,277.4 234.4,306.1 237.3,280.2 240.2,247.5 243.1,209.2 246.0,215.6 248.8,312.1 251.7,311.1 254.6,313.9 257.5,316.7 260.4,322.7 263.3,305.4 266.1,313.2 269.0,314.8 271.9,328.2 274.8,303.6 277.7,323.8 280.5,284.2 283.4,307.1 286.3,313.3 289.2,309.4 292.1,321.5 294.9,310.3 297.8,300.2 300.7,312.6 303.6,304.9 306.5,256.5 309.3,261.8 312.2,302.7 315.1,310.1 318.0,318.1 320.9,312.0 323.7,308.8 326.6,316.5 329.5,311.9 332.4,318.2 335.3,320.4 338.2,325.1 341.0,312.4 343.9,331.0 346.8,299.9 349.7,317.1 352.6,317.2 355.4,315.3 358.3,326.8 361.2,305.3 364.1,316.6 367.0,319.9 369.8,309.4 372.7,318.4 375.6,308.0 378.5,313.5 381.4,312.2 384.2,305.9 387.1,320.0 390.0,318.3 392.9,312.7 395.8,314.5 398.6,317.8 401.5,319.6 404.4,325.9 407.3,312.8 410.2,323.7 413.1,321.9 415.9,320.2 418.8,312.8 421.7,320.7 424.6,326.8 427.5,327.8 430.3,294.8 433.2,322.2 436.1,318.0 439.0,310.9 441.9,298.7 444.7,305.7 447.6,310.6 450.5,321.5 453.4,308.2 456.3,303.4 459.1,303.9 462.0,306.7 464.9,312.9 467.8,320.0 470.7,322.8 473.5,310.2 476.4,309.2 479.3,317.0 482.2,309.0 485.1,310.5 488.0,319.4 490.8,323.0 493.7,322.6 496.6,319.1 499.5,310.4 502.4,304.0 505.2,316.8 508.1,307.5 511.0,316.1 513.9,313.6 516.8,302.6 519.6,304.6 522.5,311.2 525.4,319.1 528.3,317.1 531.2,327.6 534.0,316.7 536.9,314.6 539.8,302.4 542.7,313.8 545.6,308.0 548.5,308.9 551.3,316.7 554.2,307.0 557.1,295.5 560.0,297.2 562.9,292.6 565.7,282.5 568.6,301.6 571.5,309.3 574.4,315.5 577.3,309.5 580.1,300.0 583.0,297.1 585.9,300.5 588.8,301.0 591.7,295.9 594.5,299.0 597.4,299.6 600.3,305.5 603.2,291.5 606.1,307.3 608.9,301.1 611.8,296.9 614.7,298.3 617.6,300.4 620.5,320.4 623.4,305.5 626.2,321.6 629.1,297.1 632.0,313.1 634.9,313.4 637.8,308.7 640.6,292.6 643.5,307.7 646.4,351.6 649.3,300.7 652.2,299.7 655.0,305.0 657.9,303.4 660.8,304.3 663.7,302.7 666.6,304.9 669.4,313.2 672.3,311.2 675.2,291.8 678.1,292.5 681.0,302.7 683.8,292.3 686.7,311.2 689.6,300.0 692.5,310.0 695.4,292.7 698.3,315.8 701.1,292.4 704.0,297.5 706.9,291.1 709.8,311.2 712.7,275.1 715.5,283.3 718.4,221.4 721.3,175.3 724.2,231.6 727.1,185.7 729.9,177.6 732.8,175.5 735.7,194.3 738.6,299.8 741.5,214.5 744.3,164.1 747.2,170.5 750.1,178.1 753.0,167.7 755.9,199.8 758.7,183.2 761.6,301.9 764.5,301.8 767.4,292.9 770.3,306.3 773.2,307.2 776.0,92.4 778.9,182.1 781.8,242.1 784.7,210.6 787.6,231.1 790.4,248.0 793.3,311.2 796.2,319.1 799.1,309.9 802.0,299.8 804.8,297.5 807.7,277.7 810.6,305.3 813.5,308.8 816.4,301.7 819.2,247.3 822.1,253.5 825.0,295.8 827.9,250.1 830.8,303.0 833.6,289.8 836.5,308.6 839.4,304.2 842.3,302.3 845.2,309.1 848.1,297.8 850.9,304.9 853.8,319.4 856.7,314.6 859.6,293.2 862.5,289.2 865.3,318.2 868.2,304.9 871.1,297.9 874.0,309.6 876.9,298.3 879.7,291.1 882.6,301.3 885.5,299.7 888.4,290.1 891.3,303.9 894.1,301.6 897.0,304.0 899.9,318.4 902.8,325.5 905.7,319.4 908.5,314.2 911.4,321.6 914.3,316.8 917.2,310.3 920.1,292.7 923.0,286.6 925.8,305.7 928.7,306.8 931.6,311.2 934.5,311.2 937.4,309.1 940.2,286.6 943.1,316.2 946.0,321.8" fill="none" stroke="#2563eb" stroke-width="2.2" stroke-linejoin="round" stroke-linecap="round"/>
<polyline points="76.0,307.0 78.9,307.1 81.8,307.8 84.6,308.5 87.5,308.5 90.4,310.4 93.3,320.6 96.2,318.4 99.0,317.1 101.9,317.8 104.8,319.5 107.7,316.5 110.6,313.1 113.5,313.9 116.3,314.2 119.2,313.3 122.1,313.7 125.0,315.0 127.9,317.5 130.7,310.4 133.6,310.1 136.5,304.8 139.4,299.9 142.3,297.8 145.1,294.6 148.0,300.7 150.9,299.3 153.8,299.3 156.7,300.0 159.5,300.2 162.4,297.5 165.3,295.2 168.2,289.5 171.1,288.7 173.9,287.2 176.8,285.3 179.7,283.4 182.6,283.0 185.5,284.4 188.4,281.6 191.2,281.9 194.1,285.4 197.0,288.2 199.9,289.9 202.8,294.8 205.6,303.6 208.5,306.3 211.4,308.0 214.3,307.9 217.2,307.2 220.0,303.2 222.9,297.0 225.8,295.9 228.7,290.8 231.6,288.9 234.4,285.8 237.3,289.4 240.2,289.3 243.1,281.0 246.0,267.4 248.8,256.0 251.7,261.8 254.6,262.6 257.5,268.2 260.4,279.8 263.3,298.7 266.1,313.6 269.0,313.8 271.9,314.4 274.8,316.8 277.7,314.6 280.5,314.8 283.4,311.3 286.3,310.3 289.2,310.0 292.1,306.9 294.9,309.9 297.8,307.6 300.7,310.3 303.6,311.2 306.5,309.8 309.3,301.0 312.2,291.1 315.1,289.8 318.0,291.5 320.9,292.4 323.7,293.5 326.6,302.3 329.5,311.4 332.4,312.9 335.3,314.3 338.2,314.6 341.0,316.8 343.9,317.4 346.8,319.8 349.7,317.9 352.6,317.7 355.4,317.1 358.3,315.5 361.2,317.9 364.1,313.6 367.0,316.4 369.8,316.9 372.7,315.6 375.6,316.1 378.5,312.9 381.4,314.3 384.2,313.6 387.1,311.2 390.0,313.0 392.9,313.0 395.8,313.8 398.6,313.9 401.5,314.9 404.4,317.2 407.3,318.2 410.2,317.2 413.1,319.1 415.9,320.3 418.8,320.7 421.7,319.5 424.6,318.7 427.5,321.0 430.3,321.7 433.2,317.2 436.1,317.5 439.0,318.4 441.9,316.8 444.7,312.1 447.6,308.4 450.5,311.0 453.4,310.9 456.3,309.3 459.1,308.0 462.0,308.9 464.9,309.1 467.8,309.4 470.7,309.2 473.5,311.6 476.4,312.8 479.3,313.6 482.2,315.3 485.1,314.7 488.0,313.1 490.8,312.5 493.7,314.7 496.6,316.9 499.5,317.2 502.4,317.5 505.2,316.4 508.1,316.0 511.0,313.4 513.9,312.3 516.8,311.4 519.6,310.1 522.5,310.2 525.4,309.3 528.3,311.2 531.2,311.4 534.0,313.7 536.9,316.1 539.8,317.7 542.7,316.3 545.6,315.4 548.5,313.9 551.3,310.7 554.2,310.7 557.1,309.5 560.0,308.3 562.9,305.5 565.7,303.0 568.6,298.6 571.5,296.1 574.4,296.4 577.3,299.8 580.1,301.8 583.0,303.1 585.9,305.5 588.8,305.3 591.7,303.9 594.5,300.7 597.4,298.9 600.3,298.9 603.2,300.3 606.1,298.8 608.9,299.8 611.8,300.7 614.7,300.3 617.6,300.1 620.5,299.3 623.4,304.1 626.2,303.8 629.1,307.2 632.0,307.2 634.9,309.7 637.8,311.9 640.6,309.9 643.5,307.8 646.4,305.4 649.3,314.5 652.2,312.5 655.0,310.2 657.9,309.6 660.8,311.4 663.7,310.8 666.6,302.6 669.4,303.3 672.3,305.6 675.2,306.6 678.1,304.7 681.0,302.7 683.8,302.7 686.7,300.6 689.6,300.3 692.5,298.4 695.4,301.5 698.3,301.5 701.1,303.7 704.0,303.7 706.9,301.4 709.8,299.9 712.7,300.1 715.5,297.2 718.4,291.8 721.3,279.9 724.2,259.6 727.1,249.6 729.9,228.7 732.8,212.5 735.7,194.5 738.6,190.0 741.5,210.8 744.3,207.9 747.2,204.3 750.1,203.1 753.0,203.6 755.9,199.1 758.7,182.4 761.6,177.2 764.5,200.2 767.4,222.1 770.3,241.2 773.2,264.3 776.0,282.2 778.9,267.1 781.8,247.1 784.7,237.1 787.6,223.4 790.4,210.9 793.3,201.0 796.2,237.5 799.1,260.3 802.0,271.6 804.8,286.5 807.7,297.6 810.6,302.5 813.5,301.6 816.4,299.9 819.2,298.5 822.1,289.7 825.0,282.4 827.9,285.4 830.8,276.2 833.6,275.2 836.5,273.2 839.4,283.5 842.3,291.9 845.2,293.0 848.1,302.8 850.9,302.0 853.8,304.5 856.7,306.3 859.6,308.0 862.5,306.5 865.3,303.2 868.2,306.6 871.1,306.6 874.0,303.0 876.9,302.2 879.7,303.0 882.6,303.3 885.5,300.5 888.4,299.7 891.3,298.4 894.1,297.4 897.0,298.0 899.9,300.1 902.8,302.9 905.7,307.2 908.5,312.1 911.4,313.8 914.3,317.2 917.2,319.3 920.1,318.0 923.0,312.5 925.8,307.0 928.7,305.6 931.6,303.1 934.5,302.2 937.4,302.3 940.2,305.1 943.1,305.1 946.0,306.9" fill="none" stroke="#dc2626" stroke-width="2.2" stroke-linejoin="round" stroke-linecap="round"/>
<line x1="76" y1="70" x2="94" y2="70" stroke="#2563eb" stroke-width="3"/>
<text x="100" y="74" font-family="Arial, sans-serif" font-size="11" fill="#0f172a">actual</text>
<line x1="172" y1="70" x2="190" y2="70" stroke="#dc2626" stroke-width="3"/>
<text x="196" y="74" font-family="Arial, sans-serif" font-size="11" fill="#0f172a">predicted</text>
<text x="28" y="404" font-family="Arial, sans-serif" font-size="11" fill="#64748b">Source: actual_vs_predicted.csv</text>
</svg>