<svg xmlns="http://www.w3.org/2000/svg" width="980" height="420" viewBox="0 0 980 420">
<rect width="100%" height="100%" fill="#ffffff"/>
<text x="28" y="34" font-family="Arial, sans-serif" font-size="20" font-weight="700" fill="#0f172a">Holdout actual vs predicted</text>
<text x="28" y="56" font-family="Arial, sans-serif" font-size="12" fill="#64748b">Chronological test split for the selected best model</text>
<line x1="76" y1="362.0" x2="946" y2="362.0" stroke="#e2e8f0" stroke-width="1"/>
<text x="68" y="366.0" font-family="Arial, sans-serif" font-size="10" text-anchor="end" fill="#64748b">243K</text>
<line x1="76" y1="292.0" x2="946" y2="292.0" stroke="#e2e8f0" stroke-width="1"/>
<text x="68" y="296.0" font-family="Arial, sans-serif" font-size="10" text-anchor="end" fill="#64748b">676K</text>
<line x1="76" y1="222.0" x2="946" y2="222.0" stroke="#e2e8f0" stroke-width="1"/>
<text x="68" y="226.0" font-family="Arial, sans-serif" font-size="10" text-anchor="end" fill="#64748b">1.1M</text>
<line x1="76" y1="152.0" x2="946" y2="152.0" stroke="#e2e8f0" stroke-width="1"/>
<text x="68" y="156.0" font-family="Arial, sans-serif" font-size="10" text-anchor="end" fill="#64748b">1.5M</text>
<line x1="76" y1="82.0" x2="946" y2="82.0" stroke="#e2e8f0" stroke-width="1"/>
<text x="68" y="86.0" font-family="Arial, sans-serif" font-size="10" text-anchor="end" fill="#64748b">2.0M</text>
<line x1="76" y1="362" x2="946" y2="362" stroke="#334155" stroke-width="1"/>
<line x1="76" y1="82" x2="76" y2="362" stroke="#334155" stroke-width="1"/>
<text x="76" y="72" font-family="Arial, sans-serif" font-size="11" fill="#64748b">nanoton</text>
<line x1="76.0" y1="362" x2="76.0" y2="366" stroke="#334155" stroke-width="1"/>
<text x="76.0" y="380" font-family="Arial, sans-serif" font-size="10" text-anchor="middle" fill="#64748b">0</text>
<line x1="511.0" y1="362" x2="511.0" y2="366" stroke="#334155" stroke-width="1"/>
<text x="511.0" y="380" font-family="Arial, sans-serif" font-size="10" text-anchor="middle" fill="#64748b">153</text>
<line x1="946.0" y1="362" x2="946.0" y2="366" stroke="#334155" stroke-width="1"/>
<text x="946.0" y="380" font-family="Arial, sans-serif" font-size="10" text-anchor="middle" fill="#64748b">306</text>
<polyline points="76.0,324.0 78.8,333.8 81.7,292.9 84.5,323.9 87.4,305.4 90.2,309.1 93.1,315.0 95.9,320.3 98.7,318.8 101.6,317.9 104.4,305.8 107.3,312.0 110.1,315.6 113.0,308.7 115.8,309.3 118.6,293.6 121.5,302.5 124.3,305.5 127.2,307.6 130.0,300.5 132.9,307.8 135.7,299.6 138.5,290.5 141.4,306.7 144.2,322.4 147.1,312.4 149.9,314.9 152.8,320.8 155.6,327.8 158.5,318.1 161.3,329.6 164.1,312.1 167.0,311.9 169.8,304.0 172.7,301.4 175.5,313.1 178.4,308.2 181.2,303.7 184.0,298.9 186.9,319.3 189.7,300.9 192.6,277.6 195.4,250.5 198.3,255.0 201.1,323.5 203.9,322.8 206.8,324.8 209.6,326.8 212.5,331.0 215.3,318.8 218.2,324.3 221.0,325.5 223.8,335.0 226.7,317.5 229.5,331.8 232.4,303.7 235.2,320.0 238.1,324.4 240.9,321.6 243.7,330.2 246.6,322.3 249.4,315.1 252.3,323.9 255.1,318.5 258.0,284.0 260.8,287.8 263.6,316.9 266.5,322.1 269.3,327.8 272.2,323.5 275.0,321.2 277.9,326.7 280.7,323.4 283.5,327.9 286.4,329.5 289.2,332.8 292.1,323.8 294.9,337.0 297.8,314.9 300.6,327.1 303.5,327.2 306.3,325.8 309.1,334.0 312.0,318.7 314.8,326.8 317.7,329.1 320.5,321.6 323.4,328.0 326.2,320.7 329.0,324.5 331.9,323.6 334.7,319.1 337.6,329.1 340.4,328.0 343.3,324.0 346.1,325.2 348.9,327.6 351.8,328.9 354.6,333.4 357.5,324.1 360.3,331.8 363.2,330.5 366.0,329.3 368.8,324.0 371.7,329.7 374.5,334.0 377.4,334.7 380.2,311.3 383.1,330.7 385.9,327.8 388.7,322.7 391.6,314.0 394.4,319.0 397.3,322.5 400.1,330.2 403.0,320.8 405.8,317.4 408.6,317.7 411.5,319.7 414.3,324.1 417.2,329.2 420.0,331.2 422.9,322.2 425.7,321.5 428.5,327.0 431.4,321.3 434.2,322.4 437.1,328.7 439.9,331.3 442.8,331.0 445.6,328.5 448.5,322.3 451.3,317.8 454.1,326.9 457.0,320.3 459.8,326.4 462.7,324.6 465.5,316.8 468.4,318.2 471.2,322.9 474.0,328.5 476.9,327.1 479.7,334.6 482.6,326.8 485.4,325.3 488.3,316.6 491.1,324.8 493.9,320.6 496.8,321.3 499.6,326.8 502.5,319.9 505.3,311.8 508.2,312.9 511.0,309.7 513.8,302.5 516.7,316.1 519.5,321.6 522.4,325.9 525.2,321.7 528.1,315.0 530.9,312.9 533.7,315.3 536.6,315.7 539.4,312.1 542.3,314.2 545.1,314.7 548.0,318.8 550.8,308.9 553.6,320.2 556.5,315.7 559.3,312.7 562.2,313.7 565.0,315.3 567.9,329.4 570.7,318.9 573.5,330.3 576.4,312.9 579.2,324.2 582.1,324.5 584.9,321.1 587.8,309.7 590.6,320.4 593.5,351.6 596.3,315.5 599.1,314.7 602.0,318.5 604.8,317.4 607.7,318.0 610.5,316.9 613.4,318.4 616.2,324.3 619.0,322.9 621.9,309.1 624.7,309.6 627.6,316.9 630.4,309.5 633.3,322.9 636.1,315.0 638.9,322.0 641.8,309.7 644.6,326.2 647.5,309.6 650.3,313.2 653.2,308.6 656.0,322.9 658.8,297.3 661.7,303.1 664.5,259.1 667.4,226.3 670.2,266.4 673.1,233.8 675.9,228.0 678.7,226.5 681.6,239.9 684.4,314.8 687.3,254.2 690.1,218.4 693.0,222.9 695.8,228.3 698.6,221.0 701.5,243.8 704.3,232.0 707.2,316.3 710.0,316.2 712.9,309.9 715.7,319.4 718.5,320.1 721.4,167.4 724.2,231.2 727.1,273.8 729.9,251.4 732.8,266.0 735.6,278.0 738.5,322.9 741.3,328.5 744.1,322.0 747.0,314.8 749.8,313.2 752.7,299.1 755.5,318.7 758.4,321.2 761.2,316.1 764.0,277.5 766.9,281.9 769.7,311.9 772.6,279.5 775.4,317.1 778.3,307.7 781.1,321.0 783.9,317.9 786.8,316.6 789.6,321.4 792.5,313.4 795.3,318.4 798.2,328.7 801.0,325.4 803.8,310.1 806.7,307.3 809.5,327.9 812.4,318.4 815.2,313.4 818.1,321.8 820.9,313.7 823.7,308.7 826.6,315.9 829.4,314.8 832.3,307.9 835.1,317.7 838.0,316.1 840.8,317.8 843.6,328.0 846.5,333.1 849.3,328.7 852.2,325.0 855.0,330.3 857.9,326.9 860.7,322.3 863.5,309.7 866.4,305.4 869.2,319.0 872.1,319.8 874.9,322.9 877.8,322.9 880.6,321.4 883.5,305.5 886.3,326.5 889.1,330.5 892.0,323.0 894.8,325.9 897.7,315.9 900.5,322.4 903.4,318.0 906.2,326.4 909.0,322.0 911.9,322.4 914.7,317.6 917.6,322.1 920.4,318.4 923.3,323.5 926.1,327.1 928.9,326.3 931.8,326.2 934.6,331.6 937.5,326.5 940.3,321.9 943.2,324.6 946.0,326.5" fill="none" stroke="#2563eb" stroke-width="2.2" stroke-linejoin="round" stroke-linecap="round"/>
<polyline points="76.0,322.0 78.8,321.3 81.7,326.2 84.5,315.8 87.4,319.6 90.2,320.5 93.1,311.3 95.9,312.5 98.7,314.7 101.6,311.1 104.4,319.5 107.3,313.9 110.1,311.9 113.0,315.2 115.8,308.3 118.6,313.9 121.5,313.0 124.3,306.7 127.2,309.7 130.0,314.2 132.9,312.5 135.7,308.8 138.5,311.4 141.4,304.8 144.2,311.7 147.1,309.6 149.9,308.9 152.8,310.9 155.6,321.7 158.5,320.7 161.3,318.3 164.1,324.4 167.0,313.1 169.8,313.6 172.7,313.2 175.5,302.3 178.4,308.1 181.2,313.0 184.0,306.0 186.9,306.3 189.7,307.8 192.6,307.4 195.4,310.4 198.3,309.0 201.1,305.1 203.9,309.4 206.8,317.0 209.6,317.0 212.5,322.4 215.3,326.7 218.2,322.7 221.0,321.0 223.8,321.2 226.7,329.1 229.5,321.5 232.4,324.9 235.2,315.8 238.1,320.1 240.9,319.9 243.7,315.6 246.6,320.5 249.4,320.5 252.3,320.2 255.1,319.8 258.0,319.1 260.8,319.1 263.6,317.8 266.5,318.5 269.3,317.3 272.2,316.3 275.0,323.2 277.9,322.0 280.7,322.6 283.5,321.0 286.4,323.9 289.2,324.7 292.1,325.7 294.9,323.3 297.8,331.6 300.6,321.2 303.5,324.5 306.3,323.3 309.1,323.0 312.0,325.6 314.8,322.3 317.7,322.5 320.5,324.0 323.4,321.3 326.2,322.2 329.0,322.0 331.9,321.3 334.7,321.5 337.6,320.8 340.4,323.0 343.3,323.2 346.1,320.8 348.9,321.0 351.8,322.8 354.6,323.6 357.5,326.6 360.3,321.0 363.2,325.2 366.0,324.6 368.8,323.0 371.7,322.1 374.5,323.7 377.4,325.5 380.2,325.2 383.1,321.9 385.9,324.1 388.7,322.2 391.6,317.3 394.4,322.0 397.3,320.1 400.1,321.3 403.0,323.5 405.8,321.5 408.6,320.3 411.5,321.2 414.3,320.3 417.2,320.7 420.0,324.2 422.9,324.8 425.7,320.5 428.5,322.6 431.4,323.5 434.2,321.7 437.1,320.5 439.9,323.9 442.8,324.9 445.6,323.4 448.5,323.3 451.3,320.5 454.1,321.8 457.0,322.1 459.8,321.5 462.7,321.8 465.5,321.8 468.4,320.2 471.2,319.4 474.0,321.0 476.9,321.3 479.7,321.0 482.6,324.2 485.4,320.7 488.3,321.8 491.1,320.0 493.9,319.9 496.8,319.5 499.6,319.0 502.5,320.7 505.3,319.3 508.2,313.6 511.0,315.5 513.8,313.7 516.7,302.7 519.5,313.3 522.4,313.4 525.2,316.9 528.1,320.2 530.9,317.9 533.7,319.8 536.6,318.9 539.4,313.9 542.3,316.9 545.1,313.0 548.0,316.0 550.8,315.2 553.6,317.7 556.5,317.1 559.3,317.9 562.2,315.7 565.0,317.8 567.9,318.8 570.7,317.6 573.5,319.3 576.4,324.1 579.2,315.2 582.1,319.2 584.9,320.4 587.8,316.4 590.6,317.7 593.5,319.9 596.3,316.7 599.1,316.0 602.0,319.8 604.8,320.5 607.7,319.8 610.5,318.9 613.4,318.8 616.2,319.8 619.0,319.8 621.9,320.2 624.7,319.5 627.6,319.0 630.4,316.0 633.3,312.6 636.1,313.6 638.9,319.5 641.8,316.6 644.6,319.0 647.5,322.6 650.3,314.1 653.2,310.0 656.0,314.2 658.8,304.3 661.7,311.5 664.5,312.2 667.4,304.9 670.2,306.9 673.1,311.8 675.9,306.5 678.7,307.8 681.6,308.8 684.4,304.9 687.3,313.3 690.1,306.5 693.0,301.9 695.8,313.7 698.6,310.4 701.5,309.4 704.3,303.9 707.2,305.4 710.0,317.3 712.9,318.2 715.7,316.1 718.5,323.5 721.4,322.9 724.2,309.5 727.1,312.1 729.9,314.8 732.8,306.5 735.6,307.8 738.5,307.8 741.3,96.2 744.1,319.4 747.0,318.6 749.8,322.7 752.7,321.8 755.5,316.0 758.4,318.4 761.2,318.6 764.0,317.0 766.9,319.6 769.7,318.9 772.6,318.4 775.4,308.2 778.3,316.7 781.1,308.3 783.9,317.5 786.8,323.1 789.6,317.8 792.5,321.8 795.3,320.6 798.2,320.6 801.0,325.0 803.8,326.9 806.7,322.0 809.5,322.8 812.4,322.0 815.2,317.0 818.1,315.6 820.9,318.9 823.7,318.0 826.6,318.0 829.4,318.2 832.3,316.1 835.1,312.1 838.0,316.1 840.8,316.2 843.6,314.1 846.5,323.9 849.3,325.8 852.2,323.2 855.0,323.1 857.9,326.7 860.7,324.7 863.5,321.5 866.4,320.8 869.2,316.7 872.1,318.1 874.9,314.4 877.8,318.3 880.6,321.8 883.5,321.8 886.3,315.3 889.1,322.4 892.0,92.4 894.8,318.1 897.7,323.9 900.5,319.8 903.4,323.0 906.2,319.6 909.0,320.9 911.9,321.4 914.7,320.1 917.6,320.2 920.4,323.0 923.3,321.2 926.1,321.0 928.9,321.9 931.8,322.6 934.6,323.0 937.5,325.4 940.3,322.6 943.2,320.5 946.0,320.2" fill="none" stroke="#dc2626" stroke-width="2.2" stroke-linejoin="round" stroke-linecap="round"/>
<line x1="76" y1="70" x2="94" y2="70" stroke="#2563eb" stroke-width="3"/>
<text x="100" y="74" font-family="Arial, sans-serif" font-size="11" fill="#0f172a">actual</text>
<line x1="172" y1="70" x2="190" y2="70" stroke="#dc2626" stroke-width="3"/>
<text x="196" y="74" font-family="Arial, sans-serif" font-size="11" fill="#0f172a">predicted</text>
<text x="28" y="404" font-family="Arial, sans-serif" font-size="11" fill="#64748b">Source: actual_vs_predicted.csv</text>
</svg>