<svg xmlns="http://www.w3.org/2000/svg" width="980" height="420" viewBox="0 0 980 420">
<rect width="100%" height="100%" fill="#ffffff"/>
<text x="28" y="34" font-family="Arial, sans-serif" font-size="20" font-weight="700" fill="#0f172a">Holdout actual vs predicted</text>
<text x="28" y="56" font-family="Arial, sans-serif" font-size="12" fill="#64748b">Chronological test split for the selected best model</text>
<line x1="76" y1="362.0" x2="946" y2="362.0" stroke="#e2e8f0" stroke-width="1"/>
<text x="68" y="366.0" font-family="Arial, sans-serif" font-size="10" text-anchor="end" fill="#64748b">252K</text>
<line x1="76" y1="292.0" x2="946" y2="292.0" stroke="#e2e8f0" stroke-width="1"/>
<text x="68" y="296.0" font-family="Arial, sans-serif" font-size="10" text-anchor="end" fill="#64748b">990K</text>
<line x1="76" y1="222.0" x2="946" y2="222.0" stroke="#e2e8f0" stroke-width="1"/>
<text x="68" y="226.0" font-family="Arial, sans-serif" font-size="10" text-anchor="end" fill="#64748b">1.7M</text>
<line x1="76" y1="152.0" x2="946" y2="152.0" stroke="#e2e8f0" stroke-width="1"/>
<text x="68" y="156.0" font-family="Arial, sans-serif" font-size="10" text-anchor="end" fill="#64748b">2.5M</text>
<line x1="76" y1="82.0" x2="946" y2="82.0" stroke="#e2e8f0" stroke-width="1"/>
<text x="68" y="86.0" font-family="Arial, sans-serif" font-size="10" text-anchor="end" fill="#64748b">3.2M</text>
<line x1="76" y1="362" x2="946" y2="362" stroke="#334155" stroke-width="1"/>
<line x1="76" y1="82" x2="76" y2="362" stroke="#334155" stroke-width="1"/>
<text x="76" y="72" font-family="Arial, sans-serif" font-size="11" fill="#64748b">nanoton</text>
<line x1="76.0" y1="362" x2="76.0" y2="366" stroke="#334155" stroke-width="1"/>
<text x="76.0" y="380" font-family="Arial, sans-serif" font-size="10" text-anchor="middle" fill="#64748b">0</text>
<line x1="513.5" y1="362" x2="513.5" y2="366" stroke="#334155" stroke-width="1"/>
<text x="513.5" y="380" font-family="Arial, sans-serif" font-size="10" text-anchor="middle" fill="#64748b">87</text>
<line x1="946.0" y1="362" x2="946.0" y2="366" stroke="#334155" stroke-width="1"/>
<text x="946.0" y="380" font-family="Arial, sans-serif" font-size="10" text-anchor="middle" fill="#64748b">173</text>
<polyline points="76.0,143.5 81.0,104.4 86.1,150.1 91.1,92.4 96.1,150.6 101.1,197.3 106.2,182.2 111.2,164.8 116.2,174.2 121.3,204.9 126.3,117.9 131.3,140.7 136.3,226.5 141.4,171.3 146.4,185.2 151.4,164.7 156.5,190.0 161.5,157.6 166.5,182.2 171.5,156.9 176.6,111.5 181.6,149.9 186.6,140.8 191.7,148.7 196.7,137.6 201.7,147.6 206.8,157.7 211.8,180.9 216.8,199.8 221.8,148.2 226.9,195.1 231.9,188.7 236.9,190.0 242.0,180.7 247.0,157.3 252.0,141.5 257.0,188.5 262.1,210.7 267.1,194.9 272.1,206.6 277.2,184.5 282.2,199.8 287.2,201.5 292.2,164.0 297.3,119.7 302.3,156.1 307.3,160.1 312.4,162.0 317.4,162.8 322.4,148.3 327.4,191.9 332.5,199.8 337.5,186.0 342.5,206.2 347.6,195.4 352.6,181.0 357.6,182.6 362.6,153.5 367.7,184.8 372.7,190.5 377.7,201.6 382.8,134.5 387.8,175.6 392.8,189.9 397.8,177.0 402.9,171.6 407.9,179.2 412.9,147.3 418.0,147.6 423.0,148.6 428.0,164.3 433.1,163.9 438.1,171.8 443.1,186.7 448.1,198.0 453.2,180.9 458.2,171.5 463.2,180.5 468.3,130.7 473.3,172.5 478.3,175.8 483.3,176.3 488.4,150.1 493.4,194.9 498.4,184.9 503.5,122.1 508.5,157.4 513.5,148.7 518.5,150.2 523.6,151.9 528.6,193.8 533.6,169.1 538.7,188.2 543.7,150.3 548.7,182.9 553.7,189.1 558.8,178.7 563.8,174.5 568.8,107.3 573.9,185.6 578.9,310.2 583.9,347.2 588.9,347.4 594.0,346.2 599.0,348.4 604.0,246.0 609.1,341.2 614.1,344.9 619.1,342.7 624.2,346.0 629.2,345.8 634.2,346.0 639.2,327.4 644.3,346.3 649.3,350.5 654.3,343.0 659.4,340.3 664.4,347.5 669.4,344.4 674.4,344.9 679.5,333.1 684.5,342.9 689.5,346.0 694.6,341.1 699.6,347.8 704.6,339.3 709.6,336.9 714.7,343.6 719.7,341.6 724.7,345.4 729.8,351.6 734.8,347.3 739.8,345.5 744.8,348.5 749.9,342.9 754.9,346.3 759.9,339.2 765.0,332.6 770.0,341.2 775.0,341.7 780.0,330.2 785.1,338.1 790.1,334.2 795.1,344.5 800.2,338.5 805.2,333.9 810.2,341.6 815.2,342.1 820.3,340.8 825.3,344.3 830.3,342.7 835.4,343.9 840.4,346.3 845.4,341.8 850.5,335.7 855.5,337.9 860.5,342.0 865.5,345.6 870.6,346.2 875.6,345.4 880.6,345.0 885.7,342.4 890.7,336.7 895.7,335.7 900.7,338.6 905.8,334.3 910.8,337.4 915.8,336.2 920.9,343.3 925.9,338.2 930.9,340.9 935.9,337.9 941.0,343.6 946.0,333.4" fill="none" stroke="#2563eb" stroke-width="2.2" stroke-linejoin="round" stroke-linecap="round"/>
<polyline points="76.0,170.8 81.0,165.6 86.1,142.1 91.1,156.6 96.1,138.1 101.1,145.3 106.2,164.5 111.2,181.1 116.2,180.8 121.3,184.1 126.3,193.0 131.3,169.5 136.3,169.6 141.4,188.5 146.4,184.7 151.4,185.1 156.5,180.5 161.5,194.3 166.5,181.5 171.5,178.8 176.6,175.2 181.6,163.3 186.6,161.6 191.7,171.8 196.7,164.0 201.7,161.0 206.8,160.8 211.8,171.1 216.8,171.3 221.8,179.4 226.9,177.4 231.9,181.5 236.9,190.3 242.0,192.2 247.0,189.3 252.0,203.4 257.0,188.4 262.1,181.9 267.1,188.2 272.1,190.0 277.2,191.8 282.2,194.3 287.2,195.6 292.2,194.5 297.3,181.5 302.3,174.4 307.3,169.6 312.4,175.3 317.4,177.0 322.4,174.0 327.4,174.7 332.5,172.5 337.5,185.9 342.5,196.4 347.6,190.6 352.6,199.1 357.6,195.5 362.6,187.7 367.7,183.2 372.7,179.3 377.7,190.8 382.8,194.8 387.8,194.0 392.8,190.8 397.8,197.8 402.9,174.8 407.9,187.3 412.9,183.4 418.0,175.6 423.0,169.3 428.0,167.0 433.1,167.7 438.1,169.2 443.1,161.3 448.1,164.1 453.2,165.9 458.2,181.4 463.2,179.2 468.3,190.1 473.3,178.2 478.3,179.8 483.3,176.9 488.4,176.1 493.4,180.0 498.4,180.9 503.5,196.0 508.5,179.7 513.5,171.4 518.5,176.0 523.6,186.5 528.6,170.8 533.6,176.4 538.7,187.0 543.7,179.9 548.7,175.5 553.7,174.6 558.8,181.9 563.8,177.4 568.8,183.0 573.9,159.1 578.9,169.9 583.9,205.5 588.9,233.0 594.0,270.3 599.0,276.4 604.0,303.0 609.1,252.7 614.1,280.0 619.1,282.1 624.2,295.5 629.2,301.6 634.2,312.8 639.2,315.9 644.3,308.1 649.3,299.1 654.3,308.9 659.4,314.3 664.4,298.5 669.4,295.1 674.4,306.3 679.5,298.9 684.5,302.8 689.5,300.6 694.6,299.4 699.6,293.8 704.6,291.6 709.6,292.1 714.7,288.5 719.7,289.8 724.7,282.3 729.8,297.7 734.8,289.4 739.8,295.0 744.8,290.1 749.9,282.9 754.9,289.9 759.9,290.1 765.0,273.8 770.0,286.4 775.0,274.2 780.0,282.9 785.1,270.5 790.1,274.0 795.1,273.0 800.2,283.7 805.2,278.8 810.2,275.4 815.2,284.1 820.3,278.3 825.3,288.5 830.3,280.1 835.4,288.9 840.4,285.6 845.4,290.9 850.5,282.2 855.5,289.6 860.5,286.7 865.5,293.2 870.6,281.5 875.6,291.5 880.6,286.4 885.7,290.4 890.7,287.2 895.7,270.4 900.7,274.7 905.8,273.7 910.8,265.6 915.8,271.1 920.9,266.5 925.9,269.7 930.9,270.6 935.9,279.2 941.0,271.8 946.0,271.9" fill="none" stroke="#dc2626" stroke-width="2.2" stroke-linejoin="round" stroke-linecap="round"/>
<line x1="76" y1="70" x2="94" y2="70" stroke="#2563eb" stroke-width="3"/>
<text x="100" y="74" font-family="Arial, sans-serif" font-size="11" fill="#0f172a">actual</text>
<line x1="172" y1="70" x2="190" y2="70" stroke="#dc2626" stroke-width="3"/>
<text x="196" y="74" font-family="Arial, sans-serif" font-size="11" fill="#0f172a">predicted</text>
<text x="28" y="404" font-family="Arial, sans-serif" font-size="11" fill="#64748b">Source: actual_vs_predicted.csv</text>
</svg>