<svg xmlns="http://www.w3.org/2000/svg" width="980" height="420" viewBox="0 0 980 420">
<rect width="100%" height="100%" fill="#ffffff"/>
<text x="28" y="34" font-family="Arial, sans-serif" font-size="20" font-weight="700" fill="#0f172a">Holdout actual vs predicted</text>
<text x="28" y="56" font-family="Arial, sans-serif" font-size="12" fill="#64748b">Chronological test split for the selected best model</text>
<line x1="76" y1="362.0" x2="946" y2="362.0" stroke="#e2e8f0" stroke-width="1"/>
<text x="68" y="366.0" font-family="Arial, sans-serif" font-size="10" text-anchor="end" fill="#64748b">1.9M</text>
<line x1="76" y1="292.0" x2="946" y2="292.0" stroke="#e2e8f0" stroke-width="1"/>
<text x="68" y="296.0" font-family="Arial, sans-serif" font-size="10" text-anchor="end" fill="#64748b">2.3M</text>
<line x1="76" y1="222.0" x2="946" y2="222.0" stroke="#e2e8f0" stroke-width="1"/>
<text x="68" y="226.0" font-family="Arial, sans-serif" font-size="10" text-anchor="end" fill="#64748b">2.6M</text>
<line x1="76" y1="152.0" x2="946" y2="152.0" stroke="#e2e8f0" stroke-width="1"/>
<text x="68" y="156.0" font-family="Arial, sans-serif" font-size="10" text-anchor="end" fill="#64748b">3.0M</text>
<line x1="76" y1="82.0" x2="946" y2="82.0" stroke="#e2e8f0" stroke-width="1"/>
<text x="68" y="86.0" font-family="Arial, sans-serif" font-size="10" text-anchor="end" fill="#64748b">3.3M</text>
<line x1="76" y1="362" x2="946" y2="362" stroke="#334155" stroke-width="1"/>
<line x1="76" y1="82" x2="76" y2="362" stroke="#334155" stroke-width="1"/>
<text x="76" y="72" font-family="Arial, sans-serif" font-size="11" fill="#64748b">nanoton</text>
<line x1="76.0" y1="362" x2="76.0" y2="366" stroke="#334155" stroke-width="1"/>
<text x="76.0" y="380" font-family="Arial, sans-serif" font-size="10" text-anchor="middle" fill="#64748b">0</text>
<line x1="511.0" y1="362" x2="511.0" y2="366" stroke="#334155" stroke-width="1"/>
<text x="511.0" y="380" font-family="Arial, sans-serif" font-size="10" text-anchor="middle" fill="#64748b">72</text>
<line x1="946.0" y1="362" x2="946.0" y2="366" stroke="#334155" stroke-width="1"/>
<text x="946.0" y="380" font-family="Arial, sans-serif" font-size="10" text-anchor="middle" fill="#64748b">144</text>
<polyline points="76.0,281.5 82.0,312.2 88.1,320.5 94.1,284.7 100.2,327.6 106.2,272.3 112.2,312.2 118.3,332.2 124.3,317.8 130.4,322.1 136.4,339.4 142.5,241.0 148.5,347.9 154.5,321.2 160.6,245.7 166.6,236.6 172.7,232.5 178.7,252.4 184.8,252.6 190.8,272.1 196.8,153.3 202.9,243.4 208.9,276.0 215.0,255.8 221.0,237.2 227.0,294.1 233.1,238.3 239.1,252.7 245.2,322.2 251.2,251.5 257.2,311.3 263.3,268.0 269.3,289.1 275.4,295.2 281.4,274.0 287.5,242.4 293.5,251.8 299.5,315.6 305.6,249.4 311.6,253.3 317.7,245.8 323.7,247.3 329.8,244.4 335.8,288.1 341.8,279.5 347.9,252.1 353.9,317.7 360.0,314.5 366.0,272.7 372.0,337.7 378.1,296.3 384.1,292.5 390.2,334.8 396.2,251.8 402.2,304.9 408.3,316.8 414.3,329.4 420.4,281.0 426.4,297.2 432.5,270.7 438.5,277.6 444.5,264.4 450.6,295.8 456.6,252.8 462.7,227.0 468.7,148.8 474.8,277.9 480.8,234.6 486.8,279.1 492.9,278.2 498.9,270.7 505.0,209.3 511.0,220.7 517.0,273.0 523.1,266.5 529.1,266.9 535.2,275.7 541.2,184.3 547.2,257.7 553.3,264.9 559.3,304.0 565.4,297.2 571.4,336.3 577.5,251.1 583.5,245.1 589.5,287.0 595.6,196.5 601.6,259.8 607.7,245.7 613.7,245.7 619.8,242.4 625.8,266.2 631.8,284.5 637.9,251.4 643.9,262.1 650.0,215.6 656.0,156.7 662.0,286.2 668.1,297.8 674.1,283.0 680.2,312.7 686.2,236.9 692.2,326.7 698.3,255.1 704.3,248.8 710.4,289.5 716.4,193.8 722.5,303.2 728.5,274.6 734.5,248.8 740.6,275.9 746.6,272.1 752.7,203.8 758.7,226.8 764.8,208.3 770.8,92.4 776.8,266.2 782.9,296.9 788.9,289.4 795.0,172.4 801.0,276.5 807.0,307.3 813.1,140.9 819.1,199.9 825.2,351.6 831.2,229.0 837.2,278.1 843.3,304.1 849.3,279.6 855.4,277.5 861.4,269.7 867.5,256.9 873.5,197.8 879.5,183.5 885.6,190.7 891.6,244.0 897.7,164.6 903.7,208.7 909.8,234.8 915.8,267.0 921.8,252.2 927.9,120.8 933.9,315.3 940.0,315.7 946.0,270.6" fill="none" stroke="#2563eb" stroke-width="2.2" stroke-linejoin="round" stroke-linecap="round"/>
<polyline points="76.0,284.5 82.0,288.2 88.1,287.2 94.1,305.6 100.2,288.2 106.2,307.3 112.2,290.0 118.3,297.7 124.3,311.9 130.4,313.5 136.4,313.9 142.5,302.0 148.5,278.9 154.5,287.3 160.6,304.1 166.6,274.1 172.7,260.8 178.7,262.4 184.8,263.1 190.8,268.0 196.8,268.3 202.9,255.5 208.9,254.7 215.0,256.5 221.0,261.8 227.0,269.2 233.1,270.4 239.1,272.7 245.2,261.7 251.2,289.8 257.2,281.7 263.3,292.3 269.3,285.4 275.4,288.5 281.4,293.5 287.5,278.8 293.5,264.8 299.5,262.7 305.6,284.6 311.6,273.9 317.7,256.6 323.7,261.7 329.8,267.3 335.8,267.5 341.8,271.3 347.9,283.1 353.9,273.2 360.0,283.3 366.0,293.0 372.0,283.8 378.1,300.3 384.1,296.2 390.2,283.3 396.2,306.5 402.2,288.3 408.3,288.9 414.3,308.6 420.4,316.7 426.4,303.8 432.5,294.1 438.5,281.1 444.5,282.7 450.6,278.9 456.6,285.6 462.7,267.2 468.7,265.7 474.8,250.7 480.8,271.7 486.8,268.1 492.9,265.3 498.9,281.8 505.0,272.2 511.0,254.0 517.0,254.7 523.1,261.7 529.1,266.0 535.2,266.3 541.2,266.3 547.2,260.9 553.3,265.4 559.3,273.1 565.4,283.2 571.4,297.0 577.5,291.2 583.5,269.1 589.5,264.9 595.6,269.9 601.6,258.3 607.7,255.6 613.7,262.4 619.8,267.8 625.8,267.0 631.8,263.5 637.9,282.5 643.9,272.6 650.0,266.4 656.0,254.0 662.0,246.3 668.1,262.1 674.1,276.9 680.2,280.7 686.2,289.8 692.2,282.8 698.3,295.0 704.3,287.2 710.4,278.0 716.4,293.0 722.5,275.4 728.5,273.9 734.5,270.1 740.6,253.1 746.6,253.4 752.7,254.4 758.7,239.4 764.8,249.9 770.8,240.1 776.8,232.2 782.9,244.8 788.9,265.3 795.0,269.2 801.0,251.4 807.0,251.3 813.1,275.9 819.1,253.0 825.2,237.0 831.2,277.3 837.2,277.2 843.3,267.5 849.3,281.4 855.4,282.1 861.4,285.4 867.5,262.4 873.5,258.6 879.5,250.3 885.6,239.9 891.6,234.9 897.7,242.6 903.7,237.9 909.8,241.5 915.8,255.3 921.8,257.7 927.9,273.9 933.9,254.0 940.0,270.4 946.0,275.9" fill="none" stroke="#dc2626" stroke-width="2.2" stroke-linejoin="round" stroke-linecap="round"/>
<line x1="76" y1="70" x2="94" y2="70" stroke="#2563eb" stroke-width="3"/>
<text x="100" y="74" font-family="Arial, sans-serif" font-size="11" fill="#0f172a">actual</text>
<line x1="172" y1="70" x2="190" y2="70" stroke="#dc2626" stroke-width="3"/>
<text x="196" y="74" font-family="Arial, sans-serif" font-size="11" fill="#0f172a">predicted</text>
<text x="28" y="404" font-family="Arial, sans-serif" font-size="11" fill="#64748b">Source: actual_vs_predicted.csv</text>
</svg>