<svg xmlns="http://www.w3.org/2000/svg" width="980" height="430" viewBox="0 0 980 430">
<rect width="100%" height="100%" fill="#ffffff"/>
<text x="28" y="34" font-family="Arial, sans-serif" font-size="20" font-weight="700" fill="#0f172a">Transaction fee distribution</text>
<text x="28" y="56" font-family="Arial, sans-serif" font-size="12" fill="#64748b">Histogram of log10(total_fees), zero-fee transactions excluded</text>
<line x1="86" y1="342.0" x2="946" y2="342.0" stroke="#e2e8f0" stroke-width="1"/>
<text x="78" y="346.0" font-family="Arial, sans-serif" font-size="10" text-anchor="end" fill="#64748b">-3K</text>
<line x1="86" y1="277.5" x2="946" y2="277.5" stroke="#e2e8f0" stroke-width="1"/>
<text x="78" y="281.5" font-family="Arial, sans-serif" font-size="10" text-anchor="end" fill="#64748b">8K</text>
<line x1="86" y1="213.0" x2="946" y2="213.0" stroke="#e2e8f0" stroke-width="1"/>
<text x="78" y="217.0" font-family="Arial, sans-serif" font-size="10" text-anchor="end" fill="#64748b">20K</text>
<line x1="86" y1="148.5" x2="946" y2="148.5" stroke="#e2e8f0" stroke-width="1"/>
<text x="78" y="152.5" font-family="Arial, sans-serif" font-size="10" text-anchor="end" fill="#64748b">31K</text>
<line x1="86" y1="84.0" x2="946" y2="84.0" stroke="#e2e8f0" stroke-width="1"/>
<text x="78" y="88.0" font-family="Arial, sans-serif" font-size="10" text-anchor="end" fill="#64748b">43K</text>
<line x1="86" y1="342" x2="946" y2="342" stroke="#334155" stroke-width="1"/>
<line x1="86" y1="84" x2="86" y2="342" stroke="#334155" stroke-width="1"/>
<text x="86" y="74" font-family="Arial, sans-serif" font-size="11" fill="#64748b">transactions</text>
<rect x="100.0" y="312.6" width="16.2" height="29.4" fill="#2563eb" rx="3"/>
<text x="108.1" y="306.6" font-family="Arial, sans-serif" font-size="10" text-anchor="middle" fill="#0f172a">2K</text>
<text x="108.1" y="360" font-family="Arial, sans-serif" font-size="10" text-anchor="middle" fill="#64748b" transform="rotate(22 108.1,360)">1e0.2</text>
<rect x="130.2" y="319.4" width="16.2" height="22.6" fill="#2563eb" rx="3"/>
<text x="138.3" y="313.4" font-family="Arial, sans-serif" font-size="10" text-anchor="middle" fill="#0f172a">862</text>
<text x="138.3" y="360" font-family="Arial, sans-serif" font-size="10" text-anchor="middle" fill="#64748b" transform="rotate(22 138.3,360)">1e0.5</text>
<rect x="160.4" y="319.4" width="16.2" height="22.6" fill="#2563eb" rx="3"/>
<text x="168.5" y="313.4" font-family="Arial, sans-serif" font-size="10" text-anchor="middle" fill="#0f172a">877</text>
<text x="168.5" y="360" font-family="Arial, sans-serif" font-size="10" text-anchor="middle" fill="#64748b" transform="rotate(22 168.5,360)">1e0.8</text>
<rect x="190.6" y="319.4" width="16.2" height="22.6" fill="#2563eb" rx="3"/>
<text x="198.8" y="313.4" font-family="Arial, sans-serif" font-size="10" text-anchor="middle" fill="#0f172a">866</text>
<text x="198.8" y="360" font-family="Arial, sans-serif" font-size="10" text-anchor="middle" fill="#64748b" transform="rotate(22 198.8,360)">1e1.1</text>
<rect x="220.9" y="321.2" width="16.2" height="20.8" fill="#2563eb" rx="3"/>
<text x="229.0" y="315.2" font-family="Arial, sans-serif" font-size="10" text-anchor="middle" fill="#0f172a">558</text>
<text x="229.0" y="360" font-family="Arial, sans-serif" font-size="10" text-anchor="middle" fill="#64748b" transform="rotate(22 229.0,360)">1e1.4</text>
<rect x="251.1" y="321.3" width="16.2" height="20.7" fill="#2563eb" rx="3"/>
<text x="259.2" y="315.3" font-family="Arial, sans-serif" font-size="10" text-anchor="middle" fill="#0f172a">532</text>
<text x="259.2" y="360" font-family="Arial, sans-serif" font-size="10" text-anchor="middle" fill="#64748b" transform="rotate(22 259.2,360)">1e1.7</text>
<rect x="281.3" y="322.1" width="16.2" height="19.9" fill="#2563eb" rx="3"/>
<text x="289.4" y="316.1" font-family="Arial, sans-serif" font-size="10" text-anchor="middle" fill="#0f172a">399</text>
<text x="289.4" y="360" font-family="Arial, sans-serif" font-size="10" text-anchor="middle" fill="#64748b" transform="rotate(22 289.4,360)">1e2.0</text>
<rect x="311.5" y="322.5" width="16.2" height="19.5" fill="#2563eb" rx="3"/>
<text x="319.6" y="316.5" font-family="Arial, sans-serif" font-size="10" text-anchor="middle" fill="#0f172a">326</text>
<text x="319.6" y="360" font-family="Arial, sans-serif" font-size="10" text-anchor="middle" fill="#64748b" transform="rotate(22 319.6,360)">1e2.3</text>
<rect x="341.7" y="322.7" width="16.2" height="19.3" fill="#2563eb" rx="3"/>
<text x="349.8" y="316.7" font-family="Arial, sans-serif" font-size="10" text-anchor="middle" fill="#0f172a">289</text>
<text x="349.8" y="360" font-family="Arial, sans-serif" font-size="10" text-anchor="middle" fill="#64748b" transform="rotate(22 349.8,360)">1e2.6</text>
<rect x="371.9" y="322.4" width="16.2" height="19.6" fill="#2563eb" rx="3"/>
<text x="380.0" y="316.4" font-family="Arial, sans-serif" font-size="10" text-anchor="middle" fill="#0f172a">338</text>
<text x="380.0" y="360" font-family="Arial, sans-serif" font-size="10" text-anchor="middle" fill="#64748b" transform="rotate(22 380.0,360)">1e2.9</text>
<rect x="402.1" y="322.8" width="16.2" height="19.2" fill="#2563eb" rx="3"/>
<text x="410.2" y="316.8" font-family="Arial, sans-serif" font-size="10" text-anchor="middle" fill="#0f172a">269</text>
<text x="410.2" y="360" font-family="Arial, sans-serif" font-size="10" text-anchor="middle" fill="#64748b" transform="rotate(22 410.2,360)">1e3.2</text>
<rect x="432.4" y="322.6" width="16.2" height="19.4" fill="#2563eb" rx="3"/>
<text x="440.5" y="316.6" font-family="Arial, sans-serif" font-size="10" text-anchor="middle" fill="#0f172a">298</text>
<text x="440.5" y="360" font-family="Arial, sans-serif" font-size="10" text-anchor="middle" fill="#64748b" transform="rotate(22 440.5,360)">1e3.5</text>
<rect x="462.6" y="303.7" width="16.2" height="38.3" fill="#2563eb" rx="3"/>
<text x="470.7" y="297.7" font-family="Arial, sans-serif" font-size="10" text-anchor="middle" fill="#0f172a">4K</text>
<text x="470.7" y="360" font-family="Arial, sans-serif" font-size="10" text-anchor="middle" fill="#64748b" transform="rotate(22 470.7,360)">1e3.8</text>
<rect x="492.8" y="321.5" width="16.2" height="20.5" fill="#2563eb" rx="3"/>
<text x="500.9" y="315.5" font-family="Arial, sans-serif" font-size="10" text-anchor="middle" fill="#0f172a">506</text>
<text x="500.9" y="360" font-family="Arial, sans-serif" font-size="10" text-anchor="middle" fill="#64748b" transform="rotate(22 500.9,360)">1e4.1</text>
<rect x="523.0" y="314.7" width="16.2" height="27.3" fill="#2563eb" rx="3"/>
<text x="531.1" y="308.7" font-family="Arial, sans-serif" font-size="10" text-anchor="middle" fill="#0f172a">2K</text>
<text x="531.1" y="360" font-family="Arial, sans-serif" font-size="10" text-anchor="middle" fill="#64748b" transform="rotate(22 531.1,360)">1e4.4</text>
<rect x="553.2" y="173.2" width="16.2" height="168.8" fill="#2563eb" rx="3"/>
<text x="561.3" y="167.2" font-family="Arial, sans-serif" font-size="10" text-anchor="middle" fill="#0f172a">27K</text>
<text x="561.3" y="360" font-family="Arial, sans-serif" font-size="10" text-anchor="middle" fill="#64748b" transform="rotate(22 561.3,360)">1e4.7</text>
<rect x="583.4" y="260.2" width="16.2" height="81.8" fill="#2563eb" rx="3"/>
<text x="591.5" y="254.2" font-family="Arial, sans-serif" font-size="10" text-anchor="middle" fill="#0f172a">11K</text>
<text x="591.5" y="360" font-family="Arial, sans-serif" font-size="10" text-anchor="middle" fill="#64748b" transform="rotate(22 591.5,360)">1e5.0</text>
<rect x="613.6" y="202.5" width="16.2" height="139.5" fill="#2563eb" rx="3"/>
<text x="621.8" y="196.5" font-family="Arial, sans-serif" font-size="10" text-anchor="middle" fill="#0f172a">22K</text>
<text x="621.8" y="360" font-family="Arial, sans-serif" font-size="10" text-anchor="middle" fill="#64748b" transform="rotate(22 621.8,360)">1e5.3</text>
<rect x="643.9" y="105.6" width="16.2" height="236.4" fill="#2563eb" rx="3"/>
<text x="652.0" y="99.6" font-family="Arial, sans-serif" font-size="10" text-anchor="middle" fill="#0f172a">39K</text>
<text x="652.0" y="360" font-family="Arial, sans-serif" font-size="10" text-anchor="middle" fill="#64748b" transform="rotate(22 652.0,360)">1e5.6</text>
<rect x="674.1" y="101.8" width="16.2" height="240.2" fill="#2563eb" rx="3"/>
<text x="682.2" y="95.8" font-family="Arial, sans-serif" font-size="10" text-anchor="middle" fill="#0f172a">39K</text>
<text x="682.2" y="360" font-family="Arial, sans-serif" font-size="10" text-anchor="middle" fill="#64748b" transform="rotate(22 682.2,360)">1e5.9</text>
<rect x="704.3" y="244.4" width="16.2" height="97.6" fill="#2563eb" rx="3"/>
<text x="712.4" y="238.4" font-family="Arial, sans-serif" font-size="10" text-anchor="middle" fill="#0f172a">14K</text>
<text x="712.4" y="360" font-family="Arial, sans-serif" font-size="10" text-anchor="middle" fill="#64748b" transform="rotate(22 712.4,360)">1e6.2</text>
<rect x="734.5" y="130.7" width="16.2" height="211.3" fill="#2563eb" rx="3"/>
<text x="742.6" y="124.7" font-family="Arial, sans-serif" font-size="10" text-anchor="middle" fill="#0f172a">34K</text>
<text x="742.6" y="360" font-family="Arial, sans-serif" font-size="10" text-anchor="middle" fill="#64748b" transform="rotate(22 742.6,360)">1e6.5</text>
<rect x="764.7" y="224.6" width="16.2" height="117.4" fill="#2563eb" rx="3"/>
<text x="772.8" y="218.6" font-family="Arial, sans-serif" font-size="10" text-anchor="middle" fill="#0f172a">18K</text>
<text x="772.8" y="360" font-family="Arial, sans-serif" font-size="10" text-anchor="middle" fill="#64748b" transform="rotate(22 772.8,360)">1e6.8</text>
<rect x="794.9" y="301.4" width="16.2" height="40.6" fill="#2563eb" rx="3"/>
<text x="803.0" y="295.4" font-family="Arial, sans-serif" font-size="10" text-anchor="middle" fill="#0f172a">4K</text>
<text x="803.0" y="360" font-family="Arial, sans-serif" font-size="10" text-anchor="middle" fill="#64748b" transform="rotate(22 803.0,360)">1e7.1</text>
<rect x="825.1" y="321.0" width="16.2" height="21.0" fill="#2563eb" rx="3"/>
<text x="833.2" y="315.0" font-family="Arial, sans-serif" font-size="10" text-anchor="middle" fill="#0f172a">581</text>
<text x="833.2" y="360" font-family="Arial, sans-serif" font-size="10" text-anchor="middle" fill="#64748b" transform="rotate(22 833.2,360)">1e7.4</text>
<rect x="855.4" y="323.8" width="16.2" height="18.2" fill="#2563eb" rx="3"/>
<text x="863.5" y="317.8" font-family="Arial, sans-serif" font-size="10" text-anchor="middle" fill="#0f172a">92</text>
<text x="863.5" y="360" font-family="Arial, sans-serif" font-size="10" text-anchor="middle" fill="#64748b" transform="rotate(22 863.5,360)">1e7.7</text>
<rect x="885.6" y="324.2" width="16.2" height="17.8" fill="#2563eb" rx="3"/>
<text x="893.7" y="318.2" font-family="Arial, sans-serif" font-size="10" text-anchor="middle" fill="#0f172a">19</text>
<text x="893.7" y="360" font-family="Arial, sans-serif" font-size="10" text-anchor="middle" fill="#64748b" transform="rotate(22 893.7,360)">1e8.0</text>
<rect x="915.8" y="324.2" width="16.2" height="17.8" fill="#2563eb" rx="3"/>
<text x="923.9" y="318.2" font-family="Arial, sans-serif" font-size="10" text-anchor="middle" fill="#0f172a">20</text>
<text x="923.9" y="360" font-family="Arial, sans-serif" font-size="10" text-anchor="middle" fill="#64748b" transform="rotate(22 923.9,360)">1e8.3</text>
<text x="28" y="414" font-family="Arial, sans-serif" font-size="11" fill="#64748b">Source: raw_transactions.csv</text>
</svg>