<svg xmlns="http://www.w3.org/2000/svg" width="980" height="430" viewBox="0 0 980 430">
<rect width="100%" height="100%" fill="#ffffff"/>
<text x="28" y="34" font-family="Arial, sans-serif" font-size="20" font-weight="700" fill="#0f172a">Transaction fee distribution</text>
<text x="28" y="56" font-family="Arial, sans-serif" font-size="12" fill="#64748b">Histogram of log10(total_fees), zero-fee transactions excluded</text>
<line x1="86" y1="342.0" x2="946" y2="342.0" stroke="#e2e8f0" stroke-width="1"/>
<text x="78" y="346.0" font-family="Arial, sans-serif" font-size="10" text-anchor="end" fill="#64748b">-243K</text>
<line x1="86" y1="277.5" x2="946" y2="277.5" stroke="#e2e8f0" stroke-width="1"/>
<text x="78" y="281.5" font-family="Arial, sans-serif" font-size="10" text-anchor="end" fill="#64748b">638K</text>
<line x1="86" y1="213.0" x2="946" y2="213.0" stroke="#e2e8f0" stroke-width="1"/>
<text x="78" y="217.0" font-family="Arial, sans-serif" font-size="10" text-anchor="end" fill="#64748b">1.5M</text>
<line x1="86" y1="148.5" x2="946" y2="148.5" stroke="#e2e8f0" stroke-width="1"/>
<text x="78" y="152.5" font-family="Arial, sans-serif" font-size="10" text-anchor="end" fill="#64748b">2.4M</text>
<line x1="86" y1="84.0" x2="946" y2="84.0" stroke="#e2e8f0" stroke-width="1"/>
<text x="78" y="88.0" font-family="Arial, sans-serif" font-size="10" text-anchor="end" fill="#64748b">3.3M</text>
<line x1="86" y1="342" x2="946" y2="342" stroke="#334155" stroke-width="1"/>
<line x1="86" y1="84" x2="86" y2="342" stroke="#334155" stroke-width="1"/>
<text x="86" y="74" font-family="Arial, sans-serif" font-size="11" fill="#64748b">transactions</text>
<rect x="100.0" y="312.4" width="16.2" height="29.6" fill="#2563eb" rx="3"/>
<text x="108.1" y="306.4" font-family="Arial, sans-serif" font-size="10" text-anchor="middle" fill="#0f172a">161K</text>
<text x="108.1" y="360" font-family="Arial, sans-serif" font-size="10" text-anchor="middle" fill="#64748b" transform="rotate(22 108.1,360)">1e0.2</text>
<rect x="130.2" y="321.9" width="16.2" height="20.1" fill="#2563eb" rx="3"/>
<text x="138.3" y="315.9" font-family="Arial, sans-serif" font-size="10" text-anchor="middle" fill="#0f172a">32K</text>
<text x="138.3" y="360" font-family="Arial, sans-serif" font-size="10" text-anchor="middle" fill="#64748b" transform="rotate(22 138.3,360)">1e0.5</text>
<rect x="160.4" y="321.0" width="16.2" height="21.0" fill="#2563eb" rx="3"/>
<text x="168.5" y="315.0" font-family="Arial, sans-serif" font-size="10" text-anchor="middle" fill="#0f172a">43K</text>
<text x="168.5" y="360" font-family="Arial, sans-serif" font-size="10" text-anchor="middle" fill="#64748b" transform="rotate(22 168.5,360)">1e0.8</text>
<rect x="190.6" y="321.5" width="16.2" height="20.5" fill="#2563eb" rx="3"/>
<text x="198.8" y="315.5" font-family="Arial, sans-serif" font-size="10" text-anchor="middle" fill="#0f172a">37K</text>
<text x="198.8" y="360" font-family="Arial, sans-serif" font-size="10" text-anchor="middle" fill="#64748b" transform="rotate(22 198.8,360)">1e1.1</text>
<rect x="220.9" y="322.1" width="16.2" height="19.9" fill="#2563eb" rx="3"/>
<text x="229.0" y="316.1" font-family="Arial, sans-serif" font-size="10" text-anchor="middle" fill="#0f172a">28K</text>
<text x="229.0" y="360" font-family="Arial, sans-serif" font-size="10" text-anchor="middle" fill="#64748b" transform="rotate(22 229.0,360)">1e1.5</text>
<rect x="251.1" y="322.4" width="16.2" height="19.6" fill="#2563eb" rx="3"/>
<text x="259.2" y="316.4" font-family="Arial, sans-serif" font-size="10" text-anchor="middle" fill="#0f172a">25K</text>
<text x="259.2" y="360" font-family="Arial, sans-serif" font-size="10" text-anchor="middle" fill="#64748b" transform="rotate(22 259.2,360)">1e1.8</text>
<rect x="281.3" y="322.7" width="16.2" height="19.3" fill="#2563eb" rx="3"/>
<text x="289.4" y="316.7" font-family="Arial, sans-serif" font-size="10" text-anchor="middle" fill="#0f172a">21K</text>
<text x="289.4" y="360" font-family="Arial, sans-serif" font-size="10" text-anchor="middle" fill="#64748b" transform="rotate(22 289.4,360)">1e2.1</text>
<rect x="311.5" y="322.8" width="16.2" height="19.2" fill="#2563eb" rx="3"/>
<text x="319.6" y="316.8" font-family="Arial, sans-serif" font-size="10" text-anchor="middle" fill="#0f172a">19K</text>
<text x="319.6" y="360" font-family="Arial, sans-serif" font-size="10" text-anchor="middle" fill="#64748b" transform="rotate(22 319.6,360)">1e2.5</text>
<rect x="341.7" y="322.7" width="16.2" height="19.3" fill="#2563eb" rx="3"/>
<text x="349.8" y="316.7" font-family="Arial, sans-serif" font-size="10" text-anchor="middle" fill="#0f172a">21K</text>
<text x="349.8" y="360" font-family="Arial, sans-serif" font-size="10" text-anchor="middle" fill="#64748b" transform="rotate(22 349.8,360)">1e2.8</text>
<rect x="371.9" y="322.6" width="16.2" height="19.4" fill="#2563eb" rx="3"/>
<text x="380.0" y="316.6" font-family="Arial, sans-serif" font-size="10" text-anchor="middle" fill="#0f172a">23K</text>
<text x="380.0" y="360" font-family="Arial, sans-serif" font-size="10" text-anchor="middle" fill="#64748b" transform="rotate(22 380.0,360)">1e3.1</text>
<rect x="402.1" y="322.4" width="16.2" height="19.6" fill="#2563eb" rx="3"/>
<text x="410.2" y="316.4" font-family="Arial, sans-serif" font-size="10" text-anchor="middle" fill="#0f172a">25K</text>
<text x="410.2" y="360" font-family="Arial, sans-serif" font-size="10" text-anchor="middle" fill="#64748b" transform="rotate(22 410.2,360)">1e3.4</text>
<rect x="432.4" y="299.9" width="16.2" height="42.1" fill="#2563eb" rx="3"/>
<text x="440.5" y="293.9" font-family="Arial, sans-serif" font-size="10" text-anchor="middle" fill="#0f172a">331K</text>
<text x="440.5" y="360" font-family="Arial, sans-serif" font-size="10" text-anchor="middle" fill="#64748b" transform="rotate(22 440.5,360)">1e3.8</text>
<rect x="462.6" y="320.2" width="16.2" height="21.8" fill="#2563eb" rx="3"/>
<text x="470.7" y="314.2" font-family="Arial, sans-serif" font-size="10" text-anchor="middle" fill="#0f172a">55K</text>
<text x="470.7" y="360" font-family="Arial, sans-serif" font-size="10" text-anchor="middle" fill="#64748b" transform="rotate(22 470.7,360)">1e4.1</text>
<rect x="492.8" y="270.8" width="16.2" height="71.2" fill="#2563eb" rx="3"/>
<text x="500.9" y="264.8" font-family="Arial, sans-serif" font-size="10" text-anchor="middle" fill="#0f172a">729K</text>
<text x="500.9" y="360" font-family="Arial, sans-serif" font-size="10" text-anchor="middle" fill="#64748b" transform="rotate(22 500.9,360)">1e4.4</text>
<rect x="523.0" y="213.6" width="16.2" height="128.4" fill="#2563eb" rx="3"/>
<text x="531.1" y="207.6" font-family="Arial, sans-serif" font-size="10" text-anchor="middle" fill="#0f172a">1.5M</text>
<text x="531.1" y="360" font-family="Arial, sans-serif" font-size="10" text-anchor="middle" fill="#64748b" transform="rotate(22 531.1,360)">1e4.8</text>
<rect x="553.2" y="264.1" width="16.2" height="77.9" fill="#2563eb" rx="3"/>
<text x="561.3" y="258.1" font-family="Arial, sans-serif" font-size="10" text-anchor="middle" fill="#0f172a">822K</text>
<text x="561.3" y="360" font-family="Arial, sans-serif" font-size="10" text-anchor="middle" fill="#64748b" transform="rotate(22 561.3,360)">1e5.1</text>
<rect x="583.4" y="210.7" width="16.2" height="131.3" fill="#2563eb" rx="3"/>
<text x="591.5" y="204.7" font-family="Arial, sans-serif" font-size="10" text-anchor="middle" fill="#0f172a">1.6M</text>
<text x="591.5" y="360" font-family="Arial, sans-serif" font-size="10" text-anchor="middle" fill="#64748b" transform="rotate(22 591.5,360)">1e5.4</text>
<rect x="613.6" y="101.8" width="16.2" height="240.2" fill="#2563eb" rx="3"/>
<text x="621.8" y="95.8" font-family="Arial, sans-serif" font-size="10" text-anchor="middle" fill="#0f172a">3.0M</text>
<text x="621.8" y="360" font-family="Arial, sans-serif" font-size="10" text-anchor="middle" fill="#64748b" transform="rotate(22 621.8,360)">1e5.7</text>
<rect x="643.9" y="201.0" width="16.2" height="141.0" fill="#2563eb" rx="3"/>
<text x="652.0" y="195.0" font-family="Arial, sans-serif" font-size="10" text-anchor="middle" fill="#0f172a">1.7M</text>
<text x="652.0" y="360" font-family="Arial, sans-serif" font-size="10" text-anchor="middle" fill="#64748b" transform="rotate(22 652.0,360)">1e6.1</text>
<rect x="674.1" y="216.2" width="16.2" height="125.8" fill="#2563eb" rx="3"/>
<text x="682.2" y="210.2" font-family="Arial, sans-serif" font-size="10" text-anchor="middle" fill="#0f172a">1.5M</text>
<text x="682.2" y="360" font-family="Arial, sans-serif" font-size="10" text-anchor="middle" fill="#64748b" transform="rotate(22 682.2,360)">1e6.4</text>
<rect x="704.3" y="255.7" width="16.2" height="86.3" fill="#2563eb" rx="3"/>
<text x="712.4" y="249.7" font-family="Arial, sans-serif" font-size="10" text-anchor="middle" fill="#0f172a">936K</text>
<text x="712.4" y="360" font-family="Arial, sans-serif" font-size="10" text-anchor="middle" fill="#64748b" transform="rotate(22 712.4,360)">1e6.7</text>
<rect x="734.5" y="305.0" width="16.2" height="37.0" fill="#2563eb" rx="3"/>
<text x="742.6" y="299.0" font-family="Arial, sans-serif" font-size="10" text-anchor="middle" fill="#0f172a">262K</text>
<text x="742.6" y="360" font-family="Arial, sans-serif" font-size="10" text-anchor="middle" fill="#64748b" transform="rotate(22 742.6,360)">1e7.0</text>
<rect x="764.7" y="322.0" width="16.2" height="20.0" fill="#2563eb" rx="3"/>
<text x="772.8" y="316.0" font-family="Arial, sans-serif" font-size="10" text-anchor="middle" fill="#0f172a">31K</text>
<text x="772.8" y="360" font-family="Arial, sans-serif" font-size="10" text-anchor="middle" fill="#64748b" transform="rotate(22 772.8,360)">1e7.4</text>
<rect x="794.9" y="323.9" width="16.2" height="18.1" fill="#2563eb" rx="3"/>
<text x="803.0" y="317.9" font-family="Arial, sans-serif" font-size="10" text-anchor="middle" fill="#0f172a">5K</text>
<text x="803.0" y="360" font-family="Arial, sans-serif" font-size="10" text-anchor="middle" fill="#64748b" transform="rotate(22 803.0,360)">1e7.7</text>
<rect x="825.1" y="324.1" width="16.2" height="17.9" fill="#2563eb" rx="3"/>
<text x="833.2" y="318.1" font-family="Arial, sans-serif" font-size="10" text-anchor="middle" fill="#0f172a">1K</text>
<text x="833.2" y="360" font-family="Arial, sans-serif" font-size="10" text-anchor="middle" fill="#64748b" transform="rotate(22 833.2,360)">1e8.0</text>
<rect x="855.4" y="324.2" width="16.2" height="17.8" fill="#2563eb" rx="3"/>
<text x="863.5" y="318.2" font-family="Arial, sans-serif" font-size="10" text-anchor="middle" fill="#0f172a">122</text>
<text x="863.5" y="360" font-family="Arial, sans-serif" font-size="10" text-anchor="middle" fill="#64748b" transform="rotate(22 863.5,360)">1e8.4</text>
<rect x="885.6" y="324.2" width="16.2" height="17.8" fill="#2563eb" rx="3"/>
<text x="893.7" y="318.2" font-family="Arial, sans-serif" font-size="10" text-anchor="middle" fill="#0f172a">22</text>
<text x="893.7" y="360" font-family="Arial, sans-serif" font-size="10" text-anchor="middle" fill="#64748b" transform="rotate(22 893.7,360)">1e8.7</text>
<rect x="915.8" y="324.2" width="16.2" height="17.8" fill="#2563eb" rx="3"/>
<text x="923.9" y="318.2" font-family="Arial, sans-serif" font-size="10" text-anchor="middle" fill="#0f172a">2.00</text>
<text x="923.9" y="360" font-family="Arial, sans-serif" font-size="10" text-anchor="middle" fill="#64748b" transform="rotate(22 923.9,360)">1e9.0</text>
<text x="28" y="414" font-family="Arial, sans-serif" font-size="11" fill="#64748b">Source: raw_transactions.csv</text>
</svg>