<svg xmlns="http://www.w3.org/2000/svg" width="980" height="430" viewBox="0 0 980 430">
<rect width="100%" height="100%" fill="#ffffff"/>
<text x="28" y="34" font-family="Arial, sans-serif" font-size="20" font-weight="700" fill="#0f172a">Transaction fee distribution</text>
<text x="28" y="56" font-family="Arial, sans-serif" font-size="12" fill="#64748b">Histogram of log10(total_fees), zero-fee transactions excluded</text>
<line x1="86" y1="342.0" x2="946" y2="342.0" stroke="#e2e8f0" stroke-width="1"/>
<text x="78" y="346.0" font-family="Arial, sans-serif" font-size="10" text-anchor="end" fill="#64748b">-2K</text>
<line x1="86" y1="277.5" x2="946" y2="277.5" stroke="#e2e8f0" stroke-width="1"/>
<text x="78" y="281.5" font-family="Arial, sans-serif" font-size="10" text-anchor="end" fill="#64748b">6K</text>
<line x1="86" y1="213.0" x2="946" y2="213.0" stroke="#e2e8f0" stroke-width="1"/>
<text x="78" y="217.0" font-family="Arial, sans-serif" font-size="10" text-anchor="end" fill="#64748b">13K</text>
<line x1="86" y1="148.5" x2="946" y2="148.5" stroke="#e2e8f0" stroke-width="1"/>
<text x="78" y="152.5" font-family="Arial, sans-serif" font-size="10" text-anchor="end" fill="#64748b">21K</text>
<line x1="86" y1="84.0" x2="946" y2="84.0" stroke="#e2e8f0" stroke-width="1"/>
<text x="78" y="88.0" font-family="Arial, sans-serif" font-size="10" text-anchor="end" fill="#64748b">29K</text>
<line x1="86" y1="342" x2="946" y2="342" stroke="#334155" stroke-width="1"/>
<line x1="86" y1="84" x2="86" y2="342" stroke="#334155" stroke-width="1"/>
<text x="86" y="74" font-family="Arial, sans-serif" font-size="11" fill="#64748b">transactions</text>
<rect x="100.0" y="316.6" width="16.2" height="25.4" fill="#2563eb" rx="3"/>
<text x="108.1" y="310.6" font-family="Arial, sans-serif" font-size="10" text-anchor="middle" fill="#0f172a">917</text>
<text x="108.1" y="360" font-family="Arial, sans-serif" font-size="10" text-anchor="middle" fill="#64748b" transform="rotate(22 108.1,360)">1e0.2</text>
<rect x="130.2" y="321.3" width="16.2" height="20.7" fill="#2563eb" rx="3"/>
<text x="138.3" y="315.3" font-family="Arial, sans-serif" font-size="10" text-anchor="middle" fill="#0f172a">364</text>
<text x="138.3" y="360" font-family="Arial, sans-serif" font-size="10" text-anchor="middle" fill="#64748b" transform="rotate(22 138.3,360)">1e0.5</text>
<rect x="160.4" y="319.9" width="16.2" height="22.1" fill="#2563eb" rx="3"/>
<text x="168.5" y="313.9" font-family="Arial, sans-serif" font-size="10" text-anchor="middle" fill="#0f172a">522</text>
<text x="168.5" y="360" font-family="Arial, sans-serif" font-size="10" text-anchor="middle" fill="#64748b" transform="rotate(22 168.5,360)">1e0.8</text>
<rect x="190.6" y="319.6" width="16.2" height="22.4" fill="#2563eb" rx="3"/>
<text x="198.8" y="313.6" font-family="Arial, sans-serif" font-size="10" text-anchor="middle" fill="#0f172a">562</text>
<text x="198.8" y="360" font-family="Arial, sans-serif" font-size="10" text-anchor="middle" fill="#64748b" transform="rotate(22 198.8,360)">1e1.1</text>
<rect x="220.9" y="321.2" width="16.2" height="20.8" fill="#2563eb" rx="3"/>
<text x="229.0" y="315.2" font-family="Arial, sans-serif" font-size="10" text-anchor="middle" fill="#0f172a">368</text>
<text x="229.0" y="360" font-family="Arial, sans-serif" font-size="10" text-anchor="middle" fill="#64748b" transform="rotate(22 229.0,360)">1e1.4</text>
<rect x="251.1" y="321.5" width="16.2" height="20.5" fill="#2563eb" rx="3"/>
<text x="259.2" y="315.5" font-family="Arial, sans-serif" font-size="10" text-anchor="middle" fill="#0f172a">331</text>
<text x="259.2" y="360" font-family="Arial, sans-serif" font-size="10" text-anchor="middle" fill="#64748b" transform="rotate(22 259.2,360)">1e1.7</text>
<rect x="281.3" y="322.4" width="16.2" height="19.6" fill="#2563eb" rx="3"/>
<text x="289.4" y="316.4" font-family="Arial, sans-serif" font-size="10" text-anchor="middle" fill="#0f172a">223</text>
<text x="289.4" y="360" font-family="Arial, sans-serif" font-size="10" text-anchor="middle" fill="#64748b" transform="rotate(22 289.4,360)">1e2.0</text>
<rect x="311.5" y="322.8" width="16.2" height="19.2" fill="#2563eb" rx="3"/>
<text x="319.6" y="316.8" font-family="Arial, sans-serif" font-size="10" text-anchor="middle" fill="#0f172a">175</text>
<text x="319.6" y="360" font-family="Arial, sans-serif" font-size="10" text-anchor="middle" fill="#64748b" transform="rotate(22 319.6,360)">1e2.3</text>
<rect x="341.7" y="323.2" width="16.2" height="18.8" fill="#2563eb" rx="3"/>
<text x="349.8" y="317.2" font-family="Arial, sans-serif" font-size="10" text-anchor="middle" fill="#0f172a">136</text>
<text x="349.8" y="360" font-family="Arial, sans-serif" font-size="10" text-anchor="middle" fill="#64748b" transform="rotate(22 349.8,360)">1e2.6</text>
<rect x="371.9" y="322.9" width="16.2" height="19.1" fill="#2563eb" rx="3"/>
<text x="380.0" y="316.9" font-family="Arial, sans-serif" font-size="10" text-anchor="middle" fill="#0f172a">166</text>
<text x="380.0" y="360" font-family="Arial, sans-serif" font-size="10" text-anchor="middle" fill="#64748b" transform="rotate(22 380.0,360)">1e2.9</text>
<rect x="402.1" y="323.5" width="16.2" height="18.5" fill="#2563eb" rx="3"/>
<text x="410.2" y="317.5" font-family="Arial, sans-serif" font-size="10" text-anchor="middle" fill="#0f172a">101</text>
<text x="410.2" y="360" font-family="Arial, sans-serif" font-size="10" text-anchor="middle" fill="#64748b" transform="rotate(22 410.2,360)">1e3.2</text>
<rect x="432.4" y="323.2" width="16.2" height="18.8" fill="#2563eb" rx="3"/>
<text x="440.5" y="317.2" font-family="Arial, sans-serif" font-size="10" text-anchor="middle" fill="#0f172a">132</text>
<text x="440.5" y="360" font-family="Arial, sans-serif" font-size="10" text-anchor="middle" fill="#64748b" transform="rotate(22 440.5,360)">1e3.5</text>
<rect x="462.6" y="322.0" width="16.2" height="20.0" fill="#2563eb" rx="3"/>
<text x="470.7" y="316.0" font-family="Arial, sans-serif" font-size="10" text-anchor="middle" fill="#0f172a">272</text>
<text x="470.7" y="360" font-family="Arial, sans-serif" font-size="10" text-anchor="middle" fill="#64748b" transform="rotate(22 470.7,360)">1e3.8</text>
<rect x="492.8" y="322.3" width="16.2" height="19.7" fill="#2563eb" rx="3"/>
<text x="500.9" y="316.3" font-family="Arial, sans-serif" font-size="10" text-anchor="middle" fill="#0f172a">241</text>
<text x="500.9" y="360" font-family="Arial, sans-serif" font-size="10" text-anchor="middle" fill="#64748b" transform="rotate(22 500.9,360)">1e4.1</text>
<rect x="523.0" y="322.8" width="16.2" height="19.2" fill="#2563eb" rx="3"/>
<text x="531.1" y="316.8" font-family="Arial, sans-serif" font-size="10" text-anchor="middle" fill="#0f172a">175</text>
<text x="531.1" y="360" font-family="Arial, sans-serif" font-size="10" text-anchor="middle" fill="#64748b" transform="rotate(22 531.1,360)">1e4.4</text>
<rect x="553.2" y="291.9" width="16.2" height="50.1" fill="#2563eb" rx="3"/>
<text x="561.3" y="285.9" font-family="Arial, sans-serif" font-size="10" text-anchor="middle" fill="#0f172a">4K</text>
<text x="561.3" y="360" font-family="Arial, sans-serif" font-size="10" text-anchor="middle" fill="#64748b" transform="rotate(22 561.3,360)">1e4.7</text>
<rect x="583.4" y="316.8" width="16.2" height="25.2" fill="#2563eb" rx="3"/>
<text x="591.5" y="310.8" font-family="Arial, sans-serif" font-size="10" text-anchor="middle" fill="#0f172a">890</text>
<text x="591.5" y="360" font-family="Arial, sans-serif" font-size="10" text-anchor="middle" fill="#64748b" transform="rotate(22 591.5,360)">1e5.0</text>
<rect x="613.6" y="236.3" width="16.2" height="105.7" fill="#2563eb" rx="3"/>
<text x="621.8" y="230.3" font-family="Arial, sans-serif" font-size="10" text-anchor="middle" fill="#0f172a">10K</text>
<text x="621.8" y="360" font-family="Arial, sans-serif" font-size="10" text-anchor="middle" fill="#64748b" transform="rotate(22 621.8,360)">1e5.3</text>
<rect x="643.9" y="188.2" width="16.2" height="153.8" fill="#2563eb" rx="3"/>
<text x="652.0" y="182.2" font-family="Arial, sans-serif" font-size="10" text-anchor="middle" fill="#0f172a">16K</text>
<text x="652.0" y="360" font-family="Arial, sans-serif" font-size="10" text-anchor="middle" fill="#64748b" transform="rotate(22 652.0,360)">1e5.6</text>
<rect x="674.1" y="222.8" width="16.2" height="119.2" fill="#2563eb" rx="3"/>
<text x="682.2" y="216.8" font-family="Arial, sans-serif" font-size="10" text-anchor="middle" fill="#0f172a">12K</text>
<text x="682.2" y="360" font-family="Arial, sans-serif" font-size="10" text-anchor="middle" fill="#64748b" transform="rotate(22 682.2,360)">1e5.9</text>
<rect x="704.3" y="285.7" width="16.2" height="56.3" fill="#2563eb" rx="3"/>
<text x="712.4" y="279.7" font-family="Arial, sans-serif" font-size="10" text-anchor="middle" fill="#0f172a">5K</text>
<text x="712.4" y="360" font-family="Arial, sans-serif" font-size="10" text-anchor="middle" fill="#64748b" transform="rotate(22 712.4,360)">1e6.2</text>
<rect x="734.5" y="101.8" width="16.2" height="240.2" fill="#2563eb" rx="3"/>
<text x="742.6" y="95.8" font-family="Arial, sans-serif" font-size="10" text-anchor="middle" fill="#0f172a">26K</text>
<text x="742.6" y="360" font-family="Arial, sans-serif" font-size="10" text-anchor="middle" fill="#64748b" transform="rotate(22 742.6,360)">1e6.5</text>
<rect x="764.7" y="209.4" width="16.2" height="132.6" fill="#2563eb" rx="3"/>
<text x="772.8" y="203.4" font-family="Arial, sans-serif" font-size="10" text-anchor="middle" fill="#0f172a">14K</text>
<text x="772.8" y="360" font-family="Arial, sans-serif" font-size="10" text-anchor="middle" fill="#64748b" transform="rotate(22 772.8,360)">1e6.8</text>
<rect x="794.9" y="297.7" width="16.2" height="44.3" fill="#2563eb" rx="3"/>
<text x="803.0" y="291.7" font-family="Arial, sans-serif" font-size="10" text-anchor="middle" fill="#0f172a">3K</text>
<text x="803.0" y="360" font-family="Arial, sans-serif" font-size="10" text-anchor="middle" fill="#64748b" transform="rotate(22 803.0,360)">1e7.1</text>
<rect x="825.1" y="320.4" width="16.2" height="21.6" fill="#2563eb" rx="3"/>
<text x="833.2" y="314.4" font-family="Arial, sans-serif" font-size="10" text-anchor="middle" fill="#0f172a">468</text>
<text x="833.2" y="360" font-family="Arial, sans-serif" font-size="10" text-anchor="middle" fill="#64748b" transform="rotate(22 833.2,360)">1e7.4</text>
<rect x="855.4" y="323.7" width="16.2" height="18.3" fill="#2563eb" rx="3"/>
<text x="863.5" y="317.7" font-family="Arial, sans-serif" font-size="10" text-anchor="middle" fill="#0f172a">69</text>
<text x="863.5" y="360" font-family="Arial, sans-serif" font-size="10" text-anchor="middle" fill="#64748b" transform="rotate(22 863.5,360)">1e7.7</text>
<rect x="885.6" y="324.2" width="16.2" height="17.8" fill="#2563eb" rx="3"/>
<text x="893.7" y="318.2" font-family="Arial, sans-serif" font-size="10" text-anchor="middle" fill="#0f172a">13</text>
<text x="893.7" y="360" font-family="Arial, sans-serif" font-size="10" text-anchor="middle" fill="#64748b" transform="rotate(22 893.7,360)">1e8.0</text>
<rect x="915.8" y="324.2" width="16.2" height="17.8" fill="#2563eb" rx="3"/>
<text x="923.9" y="318.2" font-family="Arial, sans-serif" font-size="10" text-anchor="middle" fill="#0f172a">18</text>
<text x="923.9" y="360" font-family="Arial, sans-serif" font-size="10" text-anchor="middle" fill="#64748b" transform="rotate(22 923.9,360)">1e8.3</text>
<text x="28" y="414" font-family="Arial, sans-serif" font-size="11" fill="#64748b">Source: raw_transactions.csv</text>
</svg>