<svg xmlns="http://www.w3.org/2000/svg" width="980" height="430" viewBox="0 0 980 430">
<rect width="100%" height="100%" fill="#ffffff"/>
<text x="28" y="34" font-family="Arial, sans-serif" font-size="20" font-weight="700" fill="#0f172a">Transaction fee distribution</text>
<text x="28" y="56" font-family="Arial, sans-serif" font-size="12" fill="#64748b">Histogram of log10(total_fees), zero-fee transactions excluded</text>
<line x1="86" y1="342.0" x2="946" y2="342.0" stroke="#e2e8f0" stroke-width="1"/>
<text x="78" y="346.0" font-family="Arial, sans-serif" font-size="10" text-anchor="end" fill="#64748b">-5K</text>
<line x1="86" y1="277.5" x2="946" y2="277.5" stroke="#e2e8f0" stroke-width="1"/>
<text x="78" y="281.5" font-family="Arial, sans-serif" font-size="10" text-anchor="end" fill="#64748b">13K</text>
<line x1="86" y1="213.0" x2="946" y2="213.0" stroke="#e2e8f0" stroke-width="1"/>
<text x="78" y="217.0" font-family="Arial, sans-serif" font-size="10" text-anchor="end" fill="#64748b">30K</text>
<line x1="86" y1="148.5" x2="946" y2="148.5" stroke="#e2e8f0" stroke-width="1"/>
<text x="78" y="152.5" font-family="Arial, sans-serif" font-size="10" text-anchor="end" fill="#64748b">48K</text>
<line x1="86" y1="84.0" x2="946" y2="84.0" stroke="#e2e8f0" stroke-width="1"/>
<text x="78" y="88.0" font-family="Arial, sans-serif" font-size="10" text-anchor="end" fill="#64748b">65K</text>
<line x1="86" y1="342" x2="946" y2="342" stroke="#334155" stroke-width="1"/>
<line x1="86" y1="84" x2="86" y2="342" stroke="#334155" stroke-width="1"/>
<text x="86" y="74" font-family="Arial, sans-serif" font-size="11" fill="#64748b">transactions</text>
<rect x="100.0" y="314.9" width="16.2" height="27.1" fill="#2563eb" rx="3"/>
<text x="108.1" y="308.9" font-family="Arial, sans-serif" font-size="10" text-anchor="middle" fill="#0f172a">3K</text>
<text x="108.1" y="360" font-family="Arial, sans-serif" font-size="10" text-anchor="middle" fill="#64748b" transform="rotate(22 108.1,360)">1e0.2</text>
<rect x="130.2" y="320.4" width="16.2" height="21.6" fill="#2563eb" rx="3"/>
<text x="138.3" y="314.4" font-family="Arial, sans-serif" font-size="10" text-anchor="middle" fill="#0f172a">1K</text>
<text x="138.3" y="360" font-family="Arial, sans-serif" font-size="10" text-anchor="middle" fill="#64748b" transform="rotate(22 138.3,360)">1e0.5</text>
<rect x="160.4" y="320.7" width="16.2" height="21.3" fill="#2563eb" rx="3"/>
<text x="168.5" y="314.7" font-family="Arial, sans-serif" font-size="10" text-anchor="middle" fill="#0f172a">971</text>
<text x="168.5" y="360" font-family="Arial, sans-serif" font-size="10" text-anchor="middle" fill="#64748b" transform="rotate(22 168.5,360)">1e0.8</text>
<rect x="190.6" y="320.8" width="16.2" height="21.2" fill="#2563eb" rx="3"/>
<text x="198.8" y="314.8" font-family="Arial, sans-serif" font-size="10" text-anchor="middle" fill="#0f172a">944</text>
<text x="198.8" y="360" font-family="Arial, sans-serif" font-size="10" text-anchor="middle" fill="#64748b" transform="rotate(22 198.8,360)">1e1.1</text>
<rect x="220.9" y="322.1" width="16.2" height="19.9" fill="#2563eb" rx="3"/>
<text x="229.0" y="316.1" font-family="Arial, sans-serif" font-size="10" text-anchor="middle" fill="#0f172a">602</text>
<text x="229.0" y="360" font-family="Arial, sans-serif" font-size="10" text-anchor="middle" fill="#64748b" transform="rotate(22 229.0,360)">1e1.4</text>
<rect x="251.1" y="322.2" width="16.2" height="19.8" fill="#2563eb" rx="3"/>
<text x="259.2" y="316.2" font-family="Arial, sans-serif" font-size="10" text-anchor="middle" fill="#0f172a">576</text>
<text x="259.2" y="360" font-family="Arial, sans-serif" font-size="10" text-anchor="middle" fill="#64748b" transform="rotate(22 259.2,360)">1e1.7</text>
<rect x="281.3" y="322.7" width="16.2" height="19.3" fill="#2563eb" rx="3"/>
<text x="289.4" y="316.7" font-family="Arial, sans-serif" font-size="10" text-anchor="middle" fill="#0f172a">439</text>
<text x="289.4" y="360" font-family="Arial, sans-serif" font-size="10" text-anchor="middle" fill="#64748b" transform="rotate(22 289.4,360)">1e2.0</text>
<rect x="311.5" y="322.9" width="16.2" height="19.1" fill="#2563eb" rx="3"/>
<text x="319.6" y="316.9" font-family="Arial, sans-serif" font-size="10" text-anchor="middle" fill="#0f172a">368</text>
<text x="319.6" y="360" font-family="Arial, sans-serif" font-size="10" text-anchor="middle" fill="#64748b" transform="rotate(22 319.6,360)">1e2.3</text>
<rect x="341.7" y="323.0" width="16.2" height="19.0" fill="#2563eb" rx="3"/>
<text x="349.8" y="317.0" font-family="Arial, sans-serif" font-size="10" text-anchor="middle" fill="#0f172a">354</text>
<text x="349.8" y="360" font-family="Arial, sans-serif" font-size="10" text-anchor="middle" fill="#64748b" transform="rotate(22 349.8,360)">1e2.6</text>
<rect x="371.9" y="322.6" width="16.2" height="19.4" fill="#2563eb" rx="3"/>
<text x="380.0" y="316.6" font-family="Arial, sans-serif" font-size="10" text-anchor="middle" fill="#0f172a">467</text>
<text x="380.0" y="360" font-family="Arial, sans-serif" font-size="10" text-anchor="middle" fill="#64748b" transform="rotate(22 380.0,360)">1e2.9</text>
<rect x="402.1" y="323.2" width="16.2" height="18.8" fill="#2563eb" rx="3"/>
<text x="410.2" y="317.2" font-family="Arial, sans-serif" font-size="10" text-anchor="middle" fill="#0f172a">300</text>
<text x="410.2" y="360" font-family="Arial, sans-serif" font-size="10" text-anchor="middle" fill="#64748b" transform="rotate(22 410.2,360)">1e3.2</text>
<rect x="432.4" y="323.0" width="16.2" height="19.0" fill="#2563eb" rx="3"/>
<text x="440.5" y="317.0" font-family="Arial, sans-serif" font-size="10" text-anchor="middle" fill="#0f172a">346</text>
<text x="440.5" y="360" font-family="Arial, sans-serif" font-size="10" text-anchor="middle" fill="#64748b" transform="rotate(22 440.5,360)">1e3.5</text>
<rect x="462.6" y="305.9" width="16.2" height="36.1" fill="#2563eb" rx="3"/>
<text x="470.7" y="299.9" font-family="Arial, sans-serif" font-size="10" text-anchor="middle" fill="#0f172a">5K</text>
<text x="470.7" y="360" font-family="Arial, sans-serif" font-size="10" text-anchor="middle" fill="#64748b" transform="rotate(22 470.7,360)">1e3.8</text>
<rect x="492.8" y="322.2" width="16.2" height="19.8" fill="#2563eb" rx="3"/>
<text x="500.9" y="316.2" font-family="Arial, sans-serif" font-size="10" text-anchor="middle" fill="#0f172a">566</text>
<text x="500.9" y="360" font-family="Arial, sans-serif" font-size="10" text-anchor="middle" fill="#64748b" transform="rotate(22 500.9,360)">1e4.1</text>
<rect x="523.0" y="315.2" width="16.2" height="26.8" fill="#2563eb" rx="3"/>
<text x="531.1" y="309.2" font-family="Arial, sans-serif" font-size="10" text-anchor="middle" fill="#0f172a">2K</text>
<text x="531.1" y="360" font-family="Arial, sans-serif" font-size="10" text-anchor="middle" fill="#64748b" transform="rotate(22 531.1,360)">1e4.4</text>
<rect x="553.2" y="189.6" width="16.2" height="152.4" fill="#2563eb" rx="3"/>
<text x="561.3" y="183.6" font-family="Arial, sans-serif" font-size="10" text-anchor="middle" fill="#0f172a">36K</text>
<text x="561.3" y="360" font-family="Arial, sans-serif" font-size="10" text-anchor="middle" fill="#64748b" transform="rotate(22 561.3,360)">1e4.7</text>
<rect x="583.4" y="256.6" width="16.2" height="85.4" fill="#2563eb" rx="3"/>
<text x="591.5" y="250.6" font-family="Arial, sans-serif" font-size="10" text-anchor="middle" fill="#0f172a">18K</text>
<text x="591.5" y="360" font-family="Arial, sans-serif" font-size="10" text-anchor="middle" fill="#64748b" transform="rotate(22 591.5,360)">1e5.0</text>
<rect x="613.6" y="227.3" width="16.2" height="114.7" fill="#2563eb" rx="3"/>
<text x="621.8" y="221.3" font-family="Arial, sans-serif" font-size="10" text-anchor="middle" fill="#0f172a">26K</text>
<text x="621.8" y="360" font-family="Arial, sans-serif" font-size="10" text-anchor="middle" fill="#64748b" transform="rotate(22 621.8,360)">1e5.3</text>
<rect x="643.9" y="138.6" width="16.2" height="203.4" fill="#2563eb" rx="3"/>
<text x="652.0" y="132.6" font-family="Arial, sans-serif" font-size="10" text-anchor="middle" fill="#0f172a">50K</text>
<text x="652.0" y="360" font-family="Arial, sans-serif" font-size="10" text-anchor="middle" fill="#64748b" transform="rotate(22 652.0,360)">1e5.6</text>
<rect x="674.1" y="101.8" width="16.2" height="240.2" fill="#2563eb" rx="3"/>
<text x="682.2" y="95.8" font-family="Arial, sans-serif" font-size="10" text-anchor="middle" fill="#0f172a">60K</text>
<text x="682.2" y="360" font-family="Arial, sans-serif" font-size="10" text-anchor="middle" fill="#64748b" transform="rotate(22 682.2,360)">1e5.9</text>
<rect x="704.3" y="233.3" width="16.2" height="108.7" fill="#2563eb" rx="3"/>
<text x="712.4" y="227.3" font-family="Arial, sans-serif" font-size="10" text-anchor="middle" fill="#0f172a">25K</text>
<text x="712.4" y="360" font-family="Arial, sans-serif" font-size="10" text-anchor="middle" fill="#64748b" transform="rotate(22 712.4,360)">1e6.2</text>
<rect x="734.5" y="193.9" width="16.2" height="148.1" fill="#2563eb" rx="3"/>
<text x="742.6" y="187.9" font-family="Arial, sans-serif" font-size="10" text-anchor="middle" fill="#0f172a">35K</text>
<text x="742.6" y="360" font-family="Arial, sans-serif" font-size="10" text-anchor="middle" fill="#64748b" transform="rotate(22 742.6,360)">1e6.5</text>
<rect x="764.7" y="257.8" width="16.2" height="84.2" fill="#2563eb" rx="3"/>
<text x="772.8" y="251.8" font-family="Arial, sans-serif" font-size="10" text-anchor="middle" fill="#0f172a">18K</text>
<text x="772.8" y="360" font-family="Arial, sans-serif" font-size="10" text-anchor="middle" fill="#64748b" transform="rotate(22 772.8,360)">1e6.8</text>
<rect x="794.9" y="308.7" width="16.2" height="33.3" fill="#2563eb" rx="3"/>
<text x="803.0" y="302.7" font-family="Arial, sans-serif" font-size="10" text-anchor="middle" fill="#0f172a">4K</text>
<text x="803.0" y="360" font-family="Arial, sans-serif" font-size="10" text-anchor="middle" fill="#64748b" transform="rotate(22 803.0,360)">1e7.1</text>
<rect x="825.1" y="322.0" width="16.2" height="20.0" fill="#2563eb" rx="3"/>
<text x="833.2" y="316.0" font-family="Arial, sans-serif" font-size="10" text-anchor="middle" fill="#0f172a">607</text>
<text x="833.2" y="360" font-family="Arial, sans-serif" font-size="10" text-anchor="middle" fill="#64748b" transform="rotate(22 833.2,360)">1e7.4</text>
<rect x="855.4" y="323.9" width="16.2" height="18.1" fill="#2563eb" rx="3"/>
<text x="863.5" y="317.9" font-family="Arial, sans-serif" font-size="10" text-anchor="middle" fill="#0f172a">104</text>
<text x="863.5" y="360" font-family="Arial, sans-serif" font-size="10" text-anchor="middle" fill="#64748b" transform="rotate(22 863.5,360)">1e7.7</text>
<rect x="885.6" y="324.2" width="16.2" height="17.8" fill="#2563eb" rx="3"/>
<text x="893.7" y="318.2" font-family="Arial, sans-serif" font-size="10" text-anchor="middle" fill="#0f172a">19</text>
<text x="893.7" y="360" font-family="Arial, sans-serif" font-size="10" text-anchor="middle" fill="#64748b" transform="rotate(22 893.7,360)">1e8.0</text>
<rect x="915.8" y="324.2" width="16.2" height="17.8" fill="#2563eb" rx="3"/>
<text x="923.9" y="318.2" font-family="Arial, sans-serif" font-size="10" text-anchor="middle" fill="#0f172a">20</text>
<text x="923.9" y="360" font-family="Arial, sans-serif" font-size="10" text-anchor="middle" fill="#64748b" transform="rotate(22 923.9,360)">1e8.3</text>
<text x="28" y="414" font-family="Arial, sans-serif" font-size="11" fill="#64748b">Source: raw_transactions.csv</text>
</svg>