<svg xmlns="http://www.w3.org/2000/svg" width="980" height="420" viewBox="0 0 980 420">
<rect width="100%" height="100%" fill="#ffffff"/>
<text x="28" y="34" font-family="Arial, sans-serif" font-size="20" font-weight="700" fill="#0f172a">Recent actual fees and 24-hour forecast</text>
<text x="28" y="56" font-family="Arial, sans-serif" font-size="12" fill="#64748b">Last 96 actual hours followed by generated forecast</text>
<line x1="76" y1="362.0" x2="946" y2="362.0" stroke="#e2e8f0" stroke-width="1"/>
<text x="68" y="366.0" font-family="Arial, sans-serif" font-size="10" text-anchor="end" fill="#64748b">1.6M</text>
<line x1="76" y1="292.0" x2="946" y2="292.0" stroke="#e2e8f0" stroke-width="1"/>
<text x="68" y="296.0" font-family="Arial, sans-serif" font-size="10" text-anchor="end" fill="#64748b">2.0M</text>
<line x1="76" y1="222.0" x2="946" y2="222.0" stroke="#e2e8f0" stroke-width="1"/>
<text x="68" y="226.0" font-family="Arial, sans-serif" font-size="10" text-anchor="end" fill="#64748b">2.4M</text>
<line x1="76" y1="152.0" x2="946" y2="152.0" stroke="#e2e8f0" stroke-width="1"/>
<text x="68" y="156.0" font-family="Arial, sans-serif" font-size="10" text-anchor="end" fill="#64748b">2.8M</text>
<line x1="76" y1="82.0" x2="946" y2="82.0" stroke="#e2e8f0" stroke-width="1"/>
<text x="68" y="86.0" font-family="Arial, sans-serif" font-size="10" text-anchor="end" fill="#64748b">3.1M</text>
<line x1="76" y1="362" x2="946" y2="362" stroke="#334155" stroke-width="1"/>
<line x1="76" y1="82" x2="76" y2="362" stroke="#334155" stroke-width="1"/>
<text x="76" y="72" font-family="Arial, sans-serif" font-size="11" fill="#64748b">nanoton</text>
<line x1="76.0" y1="362" x2="76.0" y2="366" stroke="#334155" stroke-width="1"/>
<text x="76.0" y="380" font-family="Arial, sans-serif" font-size="10" text-anchor="middle" fill="#64748b">0</text>
<line x1="514.7" y1="362" x2="514.7" y2="366" stroke="#334155" stroke-width="1"/>
<text x="514.7" y="380" font-family="Arial, sans-serif" font-size="10" text-anchor="middle" fill="#64748b">60</text>
<line x1="946.0" y1="362" x2="946.0" y2="366" stroke="#334155" stroke-width="1"/>
<text x="946.0" y="380" font-family="Arial, sans-serif" font-size="10" text-anchor="middle" fill="#64748b">119</text>
<polyline points="76.0,279.3 83.3,220.9 90.6,223.6 97.9,297.3 105.2,281.1 112.6,191.1 119.9,115.7 127.2,204.0 134.5,92.4 141.8,205.0 149.1,295.1 156.4,266.0 163.7,232.4 171.0,250.5 178.4,309.8 185.7,141.7 193.0,185.7 200.3,351.6 207.6,244.9 214.9,271.8 222.2,232.1 229.5,281.1 236.8,218.4 244.2,265.9 251.5,217.0 258.8,129.4 266.1,203.4 273.4,185.9 280.7,201.3 288.0,179.8 295.3,199.1 302.6,218.7 309.9,263.5 317.3,300.0 324.6,200.3 331.9,291.0 339.2,278.5 346.5,281.1 353.8,263.0 361.1,217.8 368.4,187.3 375.7,278.2 383.1,320.9 390.4,290.6 397.7,313.2 405.0,270.5 412.3,300.0 419.6,303.3 426.9,230.9 434.2,145.2 441.5,215.5 448.9,223.2 456.2,227.0 463.5,228.5 470.8,200.5 478.1,284.8 485.4,300.1 492.7,273.3 500.0,312.3 507.3,291.5 514.7,263.7 522.0,266.7 529.3,210.5 536.6,271.1 543.9,281.9 551.2,303.5 558.5,173.8 565.8,253.2 573.1,280.8 580.5,256.0 587.8,245.4 595.1,260.2 602.4,198.5 609.7,199.1 617.0,201.0 624.3,231.5 631.6,230.6 638.9,245.9 646.3,274.6 653.6,296.5 660.9,263.4 668.2,245.3 675.5,262.6 682.8,166.5 690.1,247.3 697.4,253.6 704.7,254.6 712.1,204.0 719.4,290.6 726.7,271.1 734.0,149.8 741.3,218.1 748.6,201.1 755.9,204.2 763.2,207.4 770.5,284.2" fill="none" stroke="#2563eb" stroke-width="2.2" stroke-linejoin="round" stroke-linecap="round"/>
<polyline points="777.8,232.0 785.2,237.4 792.5,242.0 799.8,242.0 807.1,242.0 814.4,242.0 821.7,235.2 829.0,240.0 836.3,240.5 843.6,240.5 851.0,246.8 858.3,241.0 865.6,246.8 872.9,240.5 880.2,240.5 887.5,241.0 894.8,240.5 902.1,240.5 909.4,247.3 916.8,246.1 924.1,252.4 931.4,257.5 938.7,257.5 946.0,257.0" fill="none" stroke="#d97706" stroke-width="2.2" stroke-linejoin="round" stroke-linecap="round"/>
<line x1="76" y1="70" x2="94" y2="70" stroke="#2563eb" stroke-width="3"/>
<text x="100" y="74" font-family="Arial, sans-serif" font-size="11" fill="#0f172a">actual avg fee</text>
<line x1="228" y1="70" x2="246" y2="70" stroke="#d97706" stroke-width="3"/>
<text x="252" y="74" font-family="Arial, sans-serif" font-size="11" fill="#0f172a">forecast avg fee</text>
<text x="28" y="404" font-family="Arial, sans-serif" font-size="11" fill="#64748b">Source: hourly_features.csv, predictions.csv</text>
</svg>