<svg xmlns="http://www.w3.org/2000/svg" width="980" height="420" viewBox="0 0 980 420">
<rect width="100%" height="100%" fill="#ffffff"/>
<text x="28" y="34" font-family="Arial, sans-serif" font-size="20" font-weight="700" fill="#0f172a">Recent actual fees and 24-hour forecast</text>
<text x="28" y="56" font-family="Arial, sans-serif" font-size="12" fill="#64748b">Last 96 actual hours followed by generated forecast</text>
<line x1="76" y1="362.0" x2="946" y2="362.0" stroke="#e2e8f0" stroke-width="1"/>
<text x="68" y="366.0" font-family="Arial, sans-serif" font-size="10" text-anchor="end" fill="#64748b">259K</text>
<line x1="76" y1="292.0" x2="946" y2="292.0" stroke="#e2e8f0" stroke-width="1"/>
<text x="68" y="296.0" font-family="Arial, sans-serif" font-size="10" text-anchor="end" fill="#64748b">953K</text>
<line x1="76" y1="222.0" x2="946" y2="222.0" stroke="#e2e8f0" stroke-width="1"/>
<text x="68" y="226.0" font-family="Arial, sans-serif" font-size="10" text-anchor="end" fill="#64748b">1.6M</text>
<line x1="76" y1="152.0" x2="946" y2="152.0" stroke="#e2e8f0" stroke-width="1"/>
<text x="68" y="156.0" font-family="Arial, sans-serif" font-size="10" text-anchor="end" fill="#64748b">2.3M</text>
<line x1="76" y1="82.0" x2="946" y2="82.0" stroke="#e2e8f0" stroke-width="1"/>
<text x="68" y="86.0" font-family="Arial, sans-serif" font-size="10" text-anchor="end" fill="#64748b">3.0M</text>
<line x1="76" y1="362" x2="946" y2="362" stroke="#334155" stroke-width="1"/>
<line x1="76" y1="82" x2="76" y2="362" stroke="#334155" stroke-width="1"/>
<text x="76" y="72" font-family="Arial, sans-serif" font-size="11" fill="#64748b">nanoton</text>
<line x1="76.0" y1="362" x2="76.0" y2="366" stroke="#334155" stroke-width="1"/>
<text x="76.0" y="380" font-family="Arial, sans-serif" font-size="10" text-anchor="middle" fill="#64748b">0</text>
<line x1="514.7" y1="362" x2="514.7" y2="366" stroke="#334155" stroke-width="1"/>
<text x="514.7" y="380" font-family="Arial, sans-serif" font-size="10" text-anchor="middle" fill="#64748b">60</text>
<line x1="946.0" y1="362" x2="946.0" y2="366" stroke="#334155" stroke-width="1"/>
<text x="946.0" y="380" font-family="Arial, sans-serif" font-size="10" text-anchor="middle" fill="#64748b">119</text>
<polyline points="76.0,192.4 83.3,121.2 90.6,164.8 97.9,180.0 105.2,166.3 112.6,160.5 119.9,168.6 127.2,134.8 134.5,135.1 141.8,136.1 149.1,152.9 156.4,152.4 163.7,160.8 171.0,176.6 178.4,188.6 185.7,170.4 193.0,160.5 200.3,170.0 207.6,117.2 214.9,161.5 222.2,165.0 229.5,165.6 236.8,137.8 244.2,185.3 251.5,174.7 258.8,108.0 266.1,145.5 273.4,136.2 280.7,137.9 288.0,139.7 295.3,184.1 302.6,157.9 309.9,178.2 317.3,138.0 324.6,172.6 331.9,179.1 339.2,168.1 346.5,163.7 353.8,92.4 361.1,175.5 368.4,307.7 375.7,346.9 383.1,347.2 390.4,345.9 397.7,348.2 405.0,239.5 412.3,340.6 419.6,344.5 426.9,342.1 434.2,345.6 441.5,345.5 448.9,345.6 456.2,325.9 463.5,345.9 470.8,350.5 478.1,342.5 485.4,339.6 492.7,347.3 500.0,344.0 507.3,344.5 514.7,331.9 522.0,342.4 529.3,345.7 536.6,340.4 543.9,347.6 551.2,338.6 558.5,336.0 565.8,343.1 573.1,341.0 580.5,345.1 587.8,351.6 595.1,347.0 602.4,345.1 609.7,348.4 617.0,342.4 624.3,345.9 631.6,338.4 638.9,331.4 646.3,340.6 653.6,341.0 660.9,328.9 668.2,337.3 675.5,333.1 682.8,344.1 690.1,337.7 697.4,332.8 704.7,340.9 712.1,341.5 719.4,340.1 726.7,343.8 734.0,342.2 741.3,343.4 748.6,346.0 755.9,341.2 763.2,334.7 770.5,339.8" fill="none" stroke="#2563eb" stroke-width="2.2" stroke-linejoin="round" stroke-linecap="round"/>
<polyline points="777.8,277.0 785.2,244.9 792.5,235.9 799.8,230.1 807.1,225.1 814.4,221.3 821.7,212.8 829.0,208.2 836.3,200.8 843.6,194.9 851.0,183.1 858.3,178.0 865.6,173.2 872.9,169.2 880.2,167.0 887.5,165.5 894.8,164.7 902.1,163.4 909.4,162.2 916.8,162.1 924.1,159.9 931.4,157.4 938.7,156.0 946.0,152.6" fill="none" stroke="#d97706" stroke-width="2.2" stroke-linejoin="round" stroke-linecap="round"/>
<line x1="76" y1="70" x2="94" y2="70" stroke="#2563eb" stroke-width="3"/>
<text x="100" y="74" font-family="Arial, sans-serif" font-size="11" fill="#0f172a">actual avg fee</text>
<line x1="228" y1="70" x2="246" y2="70" stroke="#d97706" stroke-width="3"/>
<text x="252" y="74" font-family="Arial, sans-serif" font-size="11" fill="#0f172a">forecast avg fee</text>
<text x="28" y="404" font-family="Arial, sans-serif" font-size="11" fill="#64748b">Source: hourly_features.csv, predictions.csv</text>
</svg>