<svg xmlns="http://www.w3.org/2000/svg" width="980" height="420" viewBox="0 0 980 420">
<rect width="100%" height="100%" fill="#ffffff"/>
<text x="28" y="34" font-family="Arial, sans-serif" font-size="20" font-weight="700" fill="#0f172a">Recent actual fees and 24-hour forecast</text>
<text x="28" y="56" font-family="Arial, sans-serif" font-size="12" fill="#64748b">Last 96 actual hours followed by generated forecast</text>
<line x1="76" y1="362.0" x2="946" y2="362.0" stroke="#e2e8f0" stroke-width="1"/>
<text x="68" y="366.0" font-family="Arial, sans-serif" font-size="10" text-anchor="end" fill="#64748b">294K</text>
<line x1="76" y1="292.0" x2="946" y2="292.0" stroke="#e2e8f0" stroke-width="1"/>
<text x="68" y="296.0" font-family="Arial, sans-serif" font-size="10" text-anchor="end" fill="#64748b">980K</text>
<line x1="76" y1="222.0" x2="946" y2="222.0" stroke="#e2e8f0" stroke-width="1"/>
<text x="68" y="226.0" font-family="Arial, sans-serif" font-size="10" text-anchor="end" fill="#64748b">1.7M</text>
<line x1="76" y1="152.0" x2="946" y2="152.0" stroke="#e2e8f0" stroke-width="1"/>
<text x="68" y="156.0" font-family="Arial, sans-serif" font-size="10" text-anchor="end" fill="#64748b">2.4M</text>
<line x1="76" y1="82.0" x2="946" y2="82.0" stroke="#e2e8f0" stroke-width="1"/>
<text x="68" y="86.0" font-family="Arial, sans-serif" font-size="10" text-anchor="end" fill="#64748b">3.0M</text>
<line x1="76" y1="362" x2="946" y2="362" stroke="#334155" stroke-width="1"/>
<line x1="76" y1="82" x2="76" y2="362" stroke="#334155" stroke-width="1"/>
<text x="76" y="72" font-family="Arial, sans-serif" font-size="11" fill="#64748b">nanoton</text>
<line x1="76.0" y1="362" x2="76.0" y2="366" stroke="#334155" stroke-width="1"/>
<text x="76.0" y="380" font-family="Arial, sans-serif" font-size="10" text-anchor="middle" fill="#64748b">0</text>
<line x1="514.7" y1="362" x2="514.7" y2="366" stroke="#334155" stroke-width="1"/>
<text x="514.7" y="380" font-family="Arial, sans-serif" font-size="10" text-anchor="middle" fill="#64748b">60</text>
<line x1="946.0" y1="362" x2="946.0" y2="366" stroke="#334155" stroke-width="1"/>
<text x="946.0" y="380" font-family="Arial, sans-serif" font-size="10" text-anchor="middle" fill="#64748b">119</text>
<polyline points="76.0,181.3 83.3,146.4 90.6,172.9 97.9,145.6 105.2,96.9 112.6,138.1 119.9,128.3 127.2,136.9 134.5,124.9 141.8,135.7 149.1,146.6 156.4,171.5 163.7,191.8 171.0,136.3 178.4,186.8 185.7,179.8 193.0,181.3 200.3,171.2 207.6,146.1 214.9,129.1 222.2,179.7 229.5,203.5 236.8,186.6 244.2,199.2 251.5,175.4 258.8,191.8 266.1,193.6 273.4,153.3 280.7,105.7 288.0,144.8 295.3,149.1 302.6,151.2 309.9,152.0 317.3,136.4 324.6,183.3 331.9,191.9 339.2,177.0 346.5,198.7 353.8,187.1 361.1,171.6 368.4,173.3 375.7,142.0 383.1,175.7 390.4,181.8 397.7,193.7 405.0,121.6 412.3,165.8 419.6,181.1 426.9,167.3 434.2,161.4 441.5,169.6 448.9,135.3 456.2,135.7 463.5,136.7 470.8,153.7 478.1,153.2 485.4,161.7 492.7,177.7 500.0,189.9 507.3,171.4 514.7,161.4 522.0,171.0 529.3,117.5 536.6,162.5 543.9,166.0 551.2,166.5 558.5,138.4 565.8,186.6 573.1,175.8 580.5,108.2 587.8,146.3 595.1,136.8 602.4,138.5 609.7,140.3 617.0,185.4 624.3,158.8 631.6,179.3 638.9,138.6 646.3,173.7 653.6,180.3 660.9,169.1 668.2,164.6 675.5,92.4 682.8,176.6 690.1,310.6 697.4,350.3 704.7,350.6 712.1,349.2 719.4,351.6 726.7,241.4 734.0,343.9 741.3,347.8 748.6,345.5 755.9,349.0 763.2,348.8 770.5,349.8" fill="none" stroke="#2563eb" stroke-width="2.2" stroke-linejoin="round" stroke-linecap="round"/>
<polyline points="777.8,175.5 785.2,172.7 792.5,169.7 799.8,164.8 807.1,163.5 814.4,164.0 821.7,163.5 829.0,161.3 836.3,154.6 843.6,158.7 851.0,161.9 858.3,161.4 865.6,161.4 872.9,163.6 880.2,166.2 887.5,166.2 894.8,163.9 902.1,163.9 909.4,163.9 916.8,163.9 924.1,163.9 931.4,166.2 938.7,166.8 946.0,169.0" fill="none" stroke="#d97706" stroke-width="2.2" stroke-linejoin="round" stroke-linecap="round"/>
<line x1="76" y1="70" x2="94" y2="70" stroke="#2563eb" stroke-width="3"/>
<text x="100" y="74" font-family="Arial, sans-serif" font-size="11" fill="#0f172a">actual avg fee</text>
<line x1="228" y1="70" x2="246" y2="70" stroke="#d97706" stroke-width="3"/>
<text x="252" y="74" font-family="Arial, sans-serif" font-size="11" fill="#0f172a">forecast avg fee</text>
<text x="28" y="404" font-family="Arial, sans-serif" font-size="11" fill="#64748b">Source: hourly_features.csv, predictions.csv</text>
</svg>