<svg xmlns="http://www.w3.org/2000/svg" width="980" height="420" viewBox="0 0 980 420">
<rect width="100%" height="100%" fill="#ffffff"/>
<text x="28" y="34" font-family="Arial, sans-serif" font-size="20" font-weight="700" fill="#0f172a">Recent actual fees and 24-hour forecast</text>
<text x="28" y="56" font-family="Arial, sans-serif" font-size="12" fill="#64748b">Last 96 actual hours followed by generated forecast</text>
<line x1="76" y1="362.0" x2="946" y2="362.0" stroke="#e2e8f0" stroke-width="1"/>
<text x="68" y="366.0" font-family="Arial, sans-serif" font-size="10" text-anchor="end" fill="#64748b">259K</text>
<line x1="76" y1="292.0" x2="946" y2="292.0" stroke="#e2e8f0" stroke-width="1"/>
<text x="68" y="296.0" font-family="Arial, sans-serif" font-size="10" text-anchor="end" fill="#64748b">953K</text>
<line x1="76" y1="222.0" x2="946" y2="222.0" stroke="#e2e8f0" stroke-width="1"/>
<text x="68" y="226.0" font-family="Arial, sans-serif" font-size="10" text-anchor="end" fill="#64748b">1.6M</text>
<line x1="76" y1="152.0" x2="946" y2="152.0" stroke="#e2e8f0" stroke-width="1"/>
<text x="68" y="156.0" font-family="Arial, sans-serif" font-size="10" text-anchor="end" fill="#64748b">2.3M</text>
<line x1="76" y1="82.0" x2="946" y2="82.0" stroke="#e2e8f0" stroke-width="1"/>
<text x="68" y="86.0" font-family="Arial, sans-serif" font-size="10" text-anchor="end" fill="#64748b">3.0M</text>
<line x1="76" y1="362" x2="946" y2="362" stroke="#334155" stroke-width="1"/>
<line x1="76" y1="82" x2="76" y2="362" stroke="#334155" stroke-width="1"/>
<text x="76" y="72" font-family="Arial, sans-serif" font-size="11" fill="#64748b">nanoton</text>
<line x1="76.0" y1="362" x2="76.0" y2="366" stroke="#334155" stroke-width="1"/>
<text x="76.0" y="380" font-family="Arial, sans-serif" font-size="10" text-anchor="middle" fill="#64748b">0</text>
<line x1="514.7" y1="362" x2="514.7" y2="366" stroke="#334155" stroke-width="1"/>
<text x="514.7" y="380" font-family="Arial, sans-serif" font-size="10" text-anchor="middle" fill="#64748b">60</text>
<line x1="946.0" y1="362" x2="946.0" y2="366" stroke="#334155" stroke-width="1"/>
<text x="946.0" y="380" font-family="Arial, sans-serif" font-size="10" text-anchor="middle" fill="#64748b">119</text>
<polyline points="76.0,139.7 83.3,184.1 90.6,157.9 97.9,178.2 105.2,138.0 112.6,172.6 119.9,179.1 127.2,168.1 134.5,163.7 141.8,92.4 149.1,175.5 156.4,307.7 163.7,346.9 171.0,347.2 178.4,345.9 185.7,348.2 193.0,239.5 200.3,340.6 207.6,344.5 214.9,342.1 222.2,345.6 229.5,345.5 236.8,345.6 244.2,325.9 251.5,345.9 258.8,350.5 266.1,342.5 273.4,339.6 280.7,347.3 288.0,344.0 295.3,344.5 302.6,331.9 309.9,342.4 317.3,345.7 324.6,340.4 331.9,347.6 339.2,338.6 346.5,336.0 353.8,343.1 361.1,341.0 368.4,345.1 375.7,351.6 383.1,347.0 390.4,345.1 397.7,348.4 405.0,342.4 412.3,345.9 419.6,338.4 426.9,331.4 434.2,340.6 441.5,341.0 448.9,328.9 456.2,337.3 463.5,333.1 470.8,344.1 478.1,337.7 485.4,332.8 492.7,340.9 500.0,341.5 507.3,340.1 514.7,343.8 522.0,342.2 529.3,343.4 536.6,346.0 543.9,341.2 551.2,334.7 558.5,337.0 565.8,341.4 573.1,345.3 580.5,345.9 587.8,345.0 595.1,344.6 602.4,341.9 609.7,335.7 617.0,334.7 624.3,337.8 631.6,333.3 638.9,336.5 646.3,335.2 653.6,342.8 660.9,337.4 668.2,340.2 675.5,337.1 682.8,343.1 690.1,334.9 697.4,333.1 704.7,339.0 712.1,337.3 719.4,335.1 726.7,324.0 734.0,265.3 741.3,326.4 748.6,330.8 755.9,329.2 763.2,335.2 770.5,326.1" fill="none" stroke="#2563eb" stroke-width="2.2" stroke-linejoin="round" stroke-linecap="round"/>
<polyline points="777.8,272.9 785.2,243.2 792.5,237.7 799.8,224.4 807.1,214.6 814.4,209.6 821.7,202.1 829.0,192.7 836.3,184.4 843.6,179.5 851.0,174.9 858.3,171.5 865.6,169.5 872.9,166.8 880.2,166.0 887.5,162.9 894.8,159.9 902.1,157.5 909.4,157.0 916.8,150.7 924.1,151.4 931.4,144.8 938.7,141.8 946.0,139.0" fill="none" stroke="#d97706" stroke-width="2.2" stroke-linejoin="round" stroke-linecap="round"/>
<line x1="76" y1="70" x2="94" y2="70" stroke="#2563eb" stroke-width="3"/>
<text x="100" y="74" font-family="Arial, sans-serif" font-size="11" fill="#0f172a">actual avg fee</text>
<line x1="228" y1="70" x2="246" y2="70" stroke="#d97706" stroke-width="3"/>
<text x="252" y="74" font-family="Arial, sans-serif" font-size="11" fill="#0f172a">forecast avg fee</text>
<text x="28" y="404" font-family="Arial, sans-serif" font-size="11" fill="#64748b">Source: hourly_features.csv, predictions.csv</text>
</svg>