<svg xmlns="http://www.w3.org/2000/svg" width="980" height="420" viewBox="0 0 980 420">
<rect width="100%" height="100%" fill="#ffffff"/>
<text x="28" y="34" font-family="Arial, sans-serif" font-size="20" font-weight="700" fill="#0f172a">Recent actual fees and 24-hour forecast</text>
<text x="28" y="56" font-family="Arial, sans-serif" font-size="12" fill="#64748b">Last 96 actual hours followed by generated forecast</text>
<line x1="76" y1="362.0" x2="946" y2="362.0" stroke="#e2e8f0" stroke-width="1"/>
<text x="68" y="366.0" font-family="Arial, sans-serif" font-size="10" text-anchor="end" fill="#64748b">259K</text>
<line x1="76" y1="292.0" x2="946" y2="292.0" stroke="#e2e8f0" stroke-width="1"/>
<text x="68" y="296.0" font-family="Arial, sans-serif" font-size="10" text-anchor="end" fill="#64748b">953K</text>
<line x1="76" y1="222.0" x2="946" y2="222.0" stroke="#e2e8f0" stroke-width="1"/>
<text x="68" y="226.0" font-family="Arial, sans-serif" font-size="10" text-anchor="end" fill="#64748b">1.6M</text>
<line x1="76" y1="152.0" x2="946" y2="152.0" stroke="#e2e8f0" stroke-width="1"/>
<text x="68" y="156.0" font-family="Arial, sans-serif" font-size="10" text-anchor="end" fill="#64748b">2.3M</text>
<line x1="76" y1="82.0" x2="946" y2="82.0" stroke="#e2e8f0" stroke-width="1"/>
<text x="68" y="86.0" font-family="Arial, sans-serif" font-size="10" text-anchor="end" fill="#64748b">3.0M</text>
<line x1="76" y1="362" x2="946" y2="362" stroke="#334155" stroke-width="1"/>
<line x1="76" y1="82" x2="76" y2="362" stroke="#334155" stroke-width="1"/>
<text x="76" y="72" font-family="Arial, sans-serif" font-size="11" fill="#64748b">nanoton</text>
<line x1="76.0" y1="362" x2="76.0" y2="366" stroke="#334155" stroke-width="1"/>
<text x="76.0" y="380" font-family="Arial, sans-serif" font-size="10" text-anchor="middle" fill="#64748b">0</text>
<line x1="514.7" y1="362" x2="514.7" y2="366" stroke="#334155" stroke-width="1"/>
<text x="514.7" y="380" font-family="Arial, sans-serif" font-size="10" text-anchor="middle" fill="#64748b">60</text>
<line x1="946.0" y1="362" x2="946.0" y2="366" stroke="#334155" stroke-width="1"/>
<text x="946.0" y="380" font-family="Arial, sans-serif" font-size="10" text-anchor="middle" fill="#64748b">119</text>
<polyline points="76.0,108.0 83.3,145.5 90.6,136.2 97.9,137.9 105.2,139.7 112.6,184.1 119.9,157.9 127.2,178.2 134.5,138.0 141.8,172.6 149.1,179.1 156.4,168.1 163.7,163.7 171.0,92.4 178.4,175.5 185.7,307.7 193.0,346.9 200.3,347.2 207.6,345.9 214.9,348.2 222.2,239.5 229.5,340.6 236.8,344.5 244.2,342.1 251.5,345.6 258.8,345.5 266.1,345.6 273.4,325.9 280.7,345.9 288.0,350.5 295.3,342.5 302.6,339.6 309.9,347.3 317.3,344.0 324.6,344.5 331.9,331.9 339.2,342.4 346.5,345.7 353.8,340.4 361.1,347.6 368.4,338.6 375.7,336.0 383.1,343.1 390.4,341.0 397.7,345.1 405.0,351.6 412.3,347.0 419.6,345.1 426.9,348.4 434.2,342.4 441.5,345.9 448.9,338.4 456.2,331.4 463.5,340.6 470.8,341.0 478.1,328.9 485.4,337.3 492.7,333.1 500.0,344.1 507.3,337.7 514.7,332.8 522.0,340.9 529.3,341.5 536.6,340.1 543.9,343.8 551.2,342.2 558.5,343.4 565.8,346.0 573.1,341.2 580.5,334.7 587.8,337.0 595.1,341.4 602.4,345.3 609.7,345.9 617.0,345.0 624.3,344.6 631.6,341.9 638.9,335.7 646.3,334.7 653.6,337.8 660.9,333.3 668.2,336.5 675.5,335.2 682.8,342.8 690.1,337.4 697.4,340.2 704.7,337.1 712.1,343.1 719.4,334.9 726.7,333.1 734.0,339.0 741.3,337.3 748.6,335.1 755.9,324.0 763.2,265.3 770.5,322.0" fill="none" stroke="#2563eb" stroke-width="2.2" stroke-linejoin="round" stroke-linecap="round"/>
<polyline points="777.8,272.7 785.2,238.0 792.5,236.6 799.8,228.9 807.1,221.9 814.4,216.8 821.7,207.7 829.0,193.3 836.3,184.5 843.6,180.5 851.0,177.3 858.3,170.0 865.6,162.1 872.9,158.8 880.2,156.1 887.5,154.6 894.8,153.6 902.1,151.0 909.4,150.2 916.8,147.1 924.1,143.9 931.4,141.1 938.7,139.9 946.0,133.3" fill="none" stroke="#d97706" stroke-width="2.2" stroke-linejoin="round" stroke-linecap="round"/>
<line x1="76" y1="70" x2="94" y2="70" stroke="#2563eb" stroke-width="3"/>
<text x="100" y="74" font-family="Arial, sans-serif" font-size="11" fill="#0f172a">actual avg fee</text>
<line x1="228" y1="70" x2="246" y2="70" stroke="#d97706" stroke-width="3"/>
<text x="252" y="74" font-family="Arial, sans-serif" font-size="11" fill="#0f172a">forecast avg fee</text>
<text x="28" y="404" font-family="Arial, sans-serif" font-size="11" fill="#64748b">Source: hourly_features.csv, predictions.csv</text>
</svg>