<svg xmlns="http://www.w3.org/2000/svg" width="980" height="420" viewBox="0 0 980 420">
<rect width="100%" height="100%" fill="#ffffff"/>
<text x="28" y="34" font-family="Arial, sans-serif" font-size="20" font-weight="700" fill="#0f172a">Recent actual fees and 24-hour forecast</text>
<text x="28" y="56" font-family="Arial, sans-serif" font-size="12" fill="#64748b">Last 96 actual hours followed by generated forecast</text>
<line x1="76" y1="362.0" x2="946" y2="362.0" stroke="#e2e8f0" stroke-width="1"/>
<text x="68" y="366.0" font-family="Arial, sans-serif" font-size="10" text-anchor="end" fill="#64748b">270K</text>
<line x1="76" y1="292.0" x2="946" y2="292.0" stroke="#e2e8f0" stroke-width="1"/>
<text x="68" y="296.0" font-family="Arial, sans-serif" font-size="10" text-anchor="end" fill="#64748b">962K</text>
<line x1="76" y1="222.0" x2="946" y2="222.0" stroke="#e2e8f0" stroke-width="1"/>
<text x="68" y="226.0" font-family="Arial, sans-serif" font-size="10" text-anchor="end" fill="#64748b">1.7M</text>
<line x1="76" y1="152.0" x2="946" y2="152.0" stroke="#e2e8f0" stroke-width="1"/>
<text x="68" y="156.0" font-family="Arial, sans-serif" font-size="10" text-anchor="end" fill="#64748b">2.3M</text>
<line x1="76" y1="82.0" x2="946" y2="82.0" stroke="#e2e8f0" stroke-width="1"/>
<text x="68" y="86.0" font-family="Arial, sans-serif" font-size="10" text-anchor="end" fill="#64748b">3.0M</text>
<line x1="76" y1="362" x2="946" y2="362" stroke="#334155" stroke-width="1"/>
<line x1="76" y1="82" x2="76" y2="362" stroke="#334155" stroke-width="1"/>
<text x="76" y="72" font-family="Arial, sans-serif" font-size="11" fill="#64748b">nanoton</text>
<line x1="76.0" y1="362" x2="76.0" y2="366" stroke="#334155" stroke-width="1"/>
<text x="76.0" y="380" font-family="Arial, sans-serif" font-size="10" text-anchor="middle" fill="#64748b">0</text>
<line x1="514.7" y1="362" x2="514.7" y2="366" stroke="#334155" stroke-width="1"/>
<text x="514.7" y="380" font-family="Arial, sans-serif" font-size="10" text-anchor="middle" fill="#64748b">60</text>
<line x1="946.0" y1="362" x2="946.0" y2="366" stroke="#334155" stroke-width="1"/>
<text x="946.0" y="380" font-family="Arial, sans-serif" font-size="10" text-anchor="middle" fill="#64748b">119</text>
<polyline points="76.0,170.8 83.3,190.9 90.6,135.9 97.9,186.0 105.2,179.1 112.6,180.5 119.9,170.6 127.2,145.6 134.5,128.8 141.8,178.9 149.1,202.5 156.4,185.7 163.7,198.2 171.0,174.7 178.4,190.9 185.7,192.7 193.0,152.8 200.3,105.6 207.6,144.3 214.9,148.6 222.2,150.7 229.5,151.5 236.8,136.1 244.2,182.5 251.5,191.0 258.8,176.2 266.1,197.8 273.4,186.2 280.7,170.9 288.0,172.6 295.3,141.5 302.6,175.0 309.9,181.0 317.3,192.9 324.6,121.4 331.9,165.2 339.2,180.4 346.5,166.6 353.8,160.8 361.1,169.0 368.4,134.9 375.7,135.3 383.1,136.3 390.4,153.1 397.7,152.7 405.0,161.1 412.3,177.0 419.6,189.0 426.9,170.7 434.2,160.8 441.5,170.3 448.9,117.3 456.2,161.9 463.5,165.4 470.8,165.9 478.1,138.0 485.4,185.7 492.7,175.0 500.0,108.1 507.3,145.8 514.7,136.4 522.0,138.1 529.3,139.9 536.6,184.6 543.9,158.2 551.2,178.6 558.5,138.2 565.8,173.0 573.1,179.5 580.5,168.5 587.8,164.0 595.1,92.4 602.4,175.8 609.7,308.6 617.0,348.0 624.3,348.3 631.6,347.0 638.9,349.4 646.3,240.1 653.6,341.7 660.9,345.6 668.2,343.2 675.5,346.8 682.8,346.6 690.1,346.7 697.4,327.0 704.7,347.1 712.1,351.6 719.4,343.6 726.7,340.7 734.0,348.4 741.3,345.1 748.6,345.6 755.9,333.0 763.2,343.5 770.5,346.2" fill="none" stroke="#2563eb" stroke-width="2.2" stroke-linejoin="round" stroke-linecap="round"/>
<polyline points="777.8,171.9 785.2,164.0 792.5,165.5 799.8,165.5 807.1,165.5 814.4,163.3 821.7,163.3 829.0,163.3 836.3,163.3 843.6,163.3 851.0,165.5 858.3,166.2 865.6,168.4 872.9,168.4 880.2,168.4 887.5,168.4 894.8,162.9 902.1,162.9 909.4,162.9 916.8,162.9 924.1,162.9 931.4,156.6 938.7,158.1 946.0,160.7" fill="none" stroke="#d97706" stroke-width="2.2" stroke-linejoin="round" stroke-linecap="round"/>
<line x1="76" y1="70" x2="94" y2="70" stroke="#2563eb" stroke-width="3"/>
<text x="100" y="74" font-family="Arial, sans-serif" font-size="11" fill="#0f172a">actual avg fee</text>
<line x1="228" y1="70" x2="246" y2="70" stroke="#d97706" stroke-width="3"/>
<text x="252" y="74" font-family="Arial, sans-serif" font-size="11" fill="#0f172a">forecast avg fee</text>
<text x="28" y="404" font-family="Arial, sans-serif" font-size="11" fill="#64748b">Source: hourly_features.csv, predictions.csv</text>
</svg>