<svg xmlns="http://www.w3.org/2000/svg" width="980" height="420" viewBox="0 0 980 420">
<rect width="100%" height="100%" fill="#ffffff"/>
<text x="28" y="34" font-family="Arial, sans-serif" font-size="20" font-weight="700" fill="#0f172a">Recent actual fees and 24-hour forecast</text>
<text x="28" y="56" font-family="Arial, sans-serif" font-size="12" fill="#64748b">Last 96 actual hours followed by generated forecast</text>
<line x1="76" y1="362.0" x2="946" y2="362.0" stroke="#e2e8f0" stroke-width="1"/>
<text x="68" y="366.0" font-family="Arial, sans-serif" font-size="10" text-anchor="end" fill="#64748b">284K</text>
<line x1="76" y1="292.0" x2="946" y2="292.0" stroke="#e2e8f0" stroke-width="1"/>
<text x="68" y="296.0" font-family="Arial, sans-serif" font-size="10" text-anchor="end" fill="#64748b">805K</text>
<line x1="76" y1="222.0" x2="946" y2="222.0" stroke="#e2e8f0" stroke-width="1"/>
<text x="68" y="226.0" font-family="Arial, sans-serif" font-size="10" text-anchor="end" fill="#64748b">1.3M</text>
<line x1="76" y1="152.0" x2="946" y2="152.0" stroke="#e2e8f0" stroke-width="1"/>
<text x="68" y="156.0" font-family="Arial, sans-serif" font-size="10" text-anchor="end" fill="#64748b">1.8M</text>
<line x1="76" y1="82.0" x2="946" y2="82.0" stroke="#e2e8f0" stroke-width="1"/>
<text x="68" y="86.0" font-family="Arial, sans-serif" font-size="10" text-anchor="end" fill="#64748b">2.4M</text>
<line x1="76" y1="362" x2="946" y2="362" stroke="#334155" stroke-width="1"/>
<line x1="76" y1="82" x2="76" y2="362" stroke="#334155" stroke-width="1"/>
<text x="76" y="72" font-family="Arial, sans-serif" font-size="11" fill="#64748b">nanoton</text>
<line x1="76.0" y1="362" x2="76.0" y2="366" stroke="#334155" stroke-width="1"/>
<text x="76.0" y="380" font-family="Arial, sans-serif" font-size="10" text-anchor="middle" fill="#64748b">0</text>
<line x1="514.7" y1="362" x2="514.7" y2="366" stroke="#334155" stroke-width="1"/>
<text x="514.7" y="380" font-family="Arial, sans-serif" font-size="10" text-anchor="middle" fill="#64748b">60</text>
<line x1="946.0" y1="362" x2="946.0" y2="366" stroke="#334155" stroke-width="1"/>
<text x="946.0" y="380" font-family="Arial, sans-serif" font-size="10" text-anchor="middle" fill="#64748b">119</text>
<polyline points="76.0,330.8 83.3,340.2 90.6,337.5 97.9,342.9 105.2,351.6 112.6,345.5 119.9,342.9 127.2,347.3 134.5,339.3 141.8,344.0 149.1,334.0 156.4,324.6 163.7,336.9 171.0,337.5 178.4,321.3 185.7,332.4 193.0,326.9 200.3,341.5 207.6,333.0 214.9,326.5 222.2,337.4 229.5,338.2 236.8,336.3 244.2,341.2 251.5,339.0 258.8,340.7 266.1,344.1 273.4,337.7 280.7,329.1 288.0,332.2 295.3,338.0 302.6,343.1 309.9,344.0 317.3,342.8 324.6,342.2 331.9,338.6 339.2,330.4 346.5,329.1 353.8,333.2 361.1,327.1 368.4,331.4 375.7,329.7 383.1,339.9 390.4,332.6 397.7,336.4 405.0,332.2 412.3,340.3 419.6,329.3 426.9,327.0 434.2,334.7 441.5,332.5 448.9,329.5 456.2,314.7 463.5,236.5 470.8,317.9 478.1,323.8 485.4,321.7 492.7,329.7 500.0,313.6 507.3,322.3 514.7,316.1 522.0,321.0 529.3,283.5 536.6,325.6 543.9,307.5 551.2,308.3 558.5,315.5 565.8,319.5 573.1,314.8 580.5,311.9 587.8,315.5 595.1,320.9 602.4,318.6 609.7,321.2 617.0,322.2 624.3,310.9 631.6,316.0 638.9,314.6 646.3,304.7 653.6,317.1 660.9,323.5 668.2,326.9 675.5,337.3 682.8,306.4 690.1,326.9 697.4,315.9 704.7,316.3 712.1,306.7 719.4,306.1 726.7,326.1 734.0,318.5 741.3,318.1 748.6,316.1 755.9,321.2 763.2,324.9 770.5,339.6" fill="none" stroke="#2563eb" stroke-width="2.2" stroke-linejoin="round" stroke-linecap="round"/>
<polyline points="777.8,225.7 785.2,201.8 792.5,196.7 799.8,188.8 807.1,184.7 814.4,178.4 821.7,165.7 829.0,162.8 836.3,155.9 843.6,152.5 851.0,147.4 858.3,144.5 865.6,138.7 872.9,137.1 880.2,128.6 887.5,123.9 894.8,115.6 902.1,111.7 909.4,106.1 916.8,102.0 924.1,98.8 931.4,96.7 938.7,95.0 946.0,92.4" fill="none" stroke="#d97706" stroke-width="2.2" stroke-linejoin="round" stroke-linecap="round"/>
<line x1="76" y1="70" x2="94" y2="70" stroke="#2563eb" stroke-width="3"/>
<text x="100" y="74" font-family="Arial, sans-serif" font-size="11" fill="#0f172a">actual avg fee</text>
<line x1="228" y1="70" x2="246" y2="70" stroke="#d97706" stroke-width="3"/>
<text x="252" y="74" font-family="Arial, sans-serif" font-size="11" fill="#0f172a">forecast avg fee</text>
<text x="28" y="404" font-family="Arial, sans-serif" font-size="11" fill="#64748b">Source: hourly_features.csv, predictions.csv</text>
</svg>