<svg xmlns="http://www.w3.org/2000/svg" width="980" height="420" viewBox="0 0 980 420">
<rect width="100%" height="100%" fill="#ffffff"/>
<text x="28" y="34" font-family="Arial, sans-serif" font-size="20" font-weight="700" fill="#0f172a">Recent actual fees and 24-hour forecast</text>
<text x="28" y="56" font-family="Arial, sans-serif" font-size="12" fill="#64748b">Last 96 actual hours followed by generated forecast</text>
<line x1="76" y1="362.0" x2="946" y2="362.0" stroke="#e2e8f0" stroke-width="1"/>
<text x="68" y="366.0" font-family="Arial, sans-serif" font-size="10" text-anchor="end" fill="#64748b">259K</text>
<line x1="76" y1="292.0" x2="946" y2="292.0" stroke="#e2e8f0" stroke-width="1"/>
<text x="68" y="296.0" font-family="Arial, sans-serif" font-size="10" text-anchor="end" fill="#64748b">953K</text>
<line x1="76" y1="222.0" x2="946" y2="222.0" stroke="#e2e8f0" stroke-width="1"/>
<text x="68" y="226.0" font-family="Arial, sans-serif" font-size="10" text-anchor="end" fill="#64748b">1.6M</text>
<line x1="76" y1="152.0" x2="946" y2="152.0" stroke="#e2e8f0" stroke-width="1"/>
<text x="68" y="156.0" font-family="Arial, sans-serif" font-size="10" text-anchor="end" fill="#64748b">2.3M</text>
<line x1="76" y1="82.0" x2="946" y2="82.0" stroke="#e2e8f0" stroke-width="1"/>
<text x="68" y="86.0" font-family="Arial, sans-serif" font-size="10" text-anchor="end" fill="#64748b">3.0M</text>
<line x1="76" y1="362" x2="946" y2="362" stroke="#334155" stroke-width="1"/>
<line x1="76" y1="82" x2="76" y2="362" stroke="#334155" stroke-width="1"/>
<text x="76" y="72" font-family="Arial, sans-serif" font-size="11" fill="#64748b">nanoton</text>
<line x1="76.0" y1="362" x2="76.0" y2="366" stroke="#334155" stroke-width="1"/>
<text x="76.0" y="380" font-family="Arial, sans-serif" font-size="10" text-anchor="middle" fill="#64748b">0</text>
<line x1="514.7" y1="362" x2="514.7" y2="366" stroke="#334155" stroke-width="1"/>
<text x="514.7" y="380" font-family="Arial, sans-serif" font-size="10" text-anchor="middle" fill="#64748b">60</text>
<line x1="946.0" y1="362" x2="946.0" y2="366" stroke="#334155" stroke-width="1"/>
<text x="946.0" y="380" font-family="Arial, sans-serif" font-size="10" text-anchor="middle" fill="#64748b">119</text>
<polyline points="76.0,164.8 83.3,180.0 90.6,166.3 97.9,160.5 105.2,168.6 112.6,134.8 119.9,135.1 127.2,136.1 134.5,152.9 141.8,152.4 149.1,160.8 156.4,176.6 163.7,188.6 171.0,170.4 178.4,160.5 185.7,170.0 193.0,117.2 200.3,161.5 207.6,165.0 214.9,165.6 222.2,137.8 229.5,185.3 236.8,174.7 244.2,108.0 251.5,145.5 258.8,136.2 266.1,137.9 273.4,139.7 280.7,184.1 288.0,157.9 295.3,178.2 302.6,138.0 309.9,172.6 317.3,179.1 324.6,168.1 331.9,163.7 339.2,92.4 346.5,175.5 353.8,307.7 361.1,346.9 368.4,347.2 375.7,345.9 383.1,348.2 390.4,239.5 397.7,340.6 405.0,344.5 412.3,342.1 419.6,345.6 426.9,345.5 434.2,345.6 441.5,325.9 448.9,345.9 456.2,350.5 463.5,342.5 470.8,339.6 478.1,347.3 485.4,344.0 492.7,344.5 500.0,331.9 507.3,342.4 514.7,345.7 522.0,340.4 529.3,347.6 536.6,338.6 543.9,336.0 551.2,343.1 558.5,341.0 565.8,345.1 573.1,351.6 580.5,347.0 587.8,345.1 595.1,348.4 602.4,342.4 609.7,345.9 617.0,338.4 624.3,331.4 631.6,340.6 638.9,341.0 646.3,328.9 653.6,337.3 660.9,333.1 668.2,344.1 675.5,337.7 682.8,332.8 690.1,340.9 697.4,341.5 704.7,340.1 712.1,343.8 719.4,342.2 726.7,343.4 734.0,346.0 741.3,341.2 748.6,334.7 755.9,337.0 763.2,341.4 770.5,343.9" fill="none" stroke="#2563eb" stroke-width="2.2" stroke-linejoin="round" stroke-linecap="round"/>
<polyline points="777.8,275.8 785.2,243.4 792.5,237.7 799.8,232.4 807.1,225.1 814.4,220.3 821.7,209.6 829.0,202.5 836.3,190.7 843.6,185.8 851.0,179.5 858.3,173.7 865.6,171.4 872.9,170.2 880.2,169.4 887.5,168.2 894.8,167.0 902.1,167.0 909.4,165.1 916.8,162.9 924.1,162.0 931.4,159.3 938.7,155.4 946.0,155.1" fill="none" stroke="#d97706" stroke-width="2.2" stroke-linejoin="round" stroke-linecap="round"/>
<line x1="76" y1="70" x2="94" y2="70" stroke="#2563eb" stroke-width="3"/>
<text x="100" y="74" font-family="Arial, sans-serif" font-size="11" fill="#0f172a">actual avg fee</text>
<line x1="228" y1="70" x2="246" y2="70" stroke="#d97706" stroke-width="3"/>
<text x="252" y="74" font-family="Arial, sans-serif" font-size="11" fill="#0f172a">forecast avg fee</text>
<text x="28" y="404" font-family="Arial, sans-serif" font-size="11" fill="#64748b">Source: hourly_features.csv, predictions.csv</text>
</svg>