<svg xmlns="http://www.w3.org/2000/svg" width="980" height="420" viewBox="0 0 980 420">
<rect width="100%" height="100%" fill="#ffffff"/>
<text x="28" y="34" font-family="Arial, sans-serif" font-size="20" font-weight="700" fill="#0f172a">Recent actual fees and 24-hour forecast</text>
<text x="28" y="56" font-family="Arial, sans-serif" font-size="12" fill="#64748b">Last 96 actual hours followed by generated forecast</text>
<line x1="76" y1="362.0" x2="946" y2="362.0" stroke="#e2e8f0" stroke-width="1"/>
<text x="68" y="366.0" font-family="Arial, sans-serif" font-size="10" text-anchor="end" fill="#64748b">259K</text>
<line x1="76" y1="292.0" x2="946" y2="292.0" stroke="#e2e8f0" stroke-width="1"/>
<text x="68" y="296.0" font-family="Arial, sans-serif" font-size="10" text-anchor="end" fill="#64748b">953K</text>
<line x1="76" y1="222.0" x2="946" y2="222.0" stroke="#e2e8f0" stroke-width="1"/>
<text x="68" y="226.0" font-family="Arial, sans-serif" font-size="10" text-anchor="end" fill="#64748b">1.6M</text>
<line x1="76" y1="152.0" x2="946" y2="152.0" stroke="#e2e8f0" stroke-width="1"/>
<text x="68" y="156.0" font-family="Arial, sans-serif" font-size="10" text-anchor="end" fill="#64748b">2.3M</text>
<line x1="76" y1="82.0" x2="946" y2="82.0" stroke="#e2e8f0" stroke-width="1"/>
<text x="68" y="86.0" font-family="Arial, sans-serif" font-size="10" text-anchor="end" fill="#64748b">3.0M</text>
<line x1="76" y1="362" x2="946" y2="362" stroke="#334155" stroke-width="1"/>
<line x1="76" y1="82" x2="76" y2="362" stroke="#334155" stroke-width="1"/>
<text x="76" y="72" font-family="Arial, sans-serif" font-size="11" fill="#64748b">nanoton</text>
<line x1="76.0" y1="362" x2="76.0" y2="366" stroke="#334155" stroke-width="1"/>
<text x="76.0" y="380" font-family="Arial, sans-serif" font-size="10" text-anchor="middle" fill="#64748b">0</text>
<line x1="514.7" y1="362" x2="514.7" y2="366" stroke="#334155" stroke-width="1"/>
<text x="514.7" y="380" font-family="Arial, sans-serif" font-size="10" text-anchor="middle" fill="#64748b">60</text>
<line x1="946.0" y1="362" x2="946.0" y2="366" stroke="#334155" stroke-width="1"/>
<text x="946.0" y="380" font-family="Arial, sans-serif" font-size="10" text-anchor="middle" fill="#64748b">119</text>
<polyline points="76.0,185.3 83.3,197.7 90.6,174.3 97.9,190.5 105.2,192.3 112.6,152.5 119.9,105.5 127.2,144.1 134.5,148.3 141.8,150.4 149.1,151.2 156.4,135.9 163.7,182.1 171.0,190.5 178.4,175.8 185.7,197.3 193.0,185.8 200.3,170.6 207.6,172.2 214.9,141.3 222.2,174.6 229.5,180.6 236.8,192.4 244.2,121.2 251.5,164.8 258.8,180.0 266.1,166.3 273.4,160.5 280.7,168.6 288.0,134.8 295.3,135.1 302.6,136.1 309.9,152.9 317.3,152.4 324.6,160.8 331.9,176.6 339.2,188.6 346.5,170.4 353.8,160.5 361.1,170.0 368.4,117.2 375.7,161.5 383.1,165.0 390.4,165.6 397.7,137.8 405.0,185.3 412.3,174.7 419.6,108.0 426.9,145.5 434.2,136.2 441.5,137.9 448.9,139.7 456.2,184.1 463.5,157.9 470.8,178.2 478.1,138.0 485.4,172.6 492.7,179.1 500.0,168.1 507.3,163.7 514.7,92.4 522.0,175.5 529.3,307.7 536.6,346.9 543.9,347.2 551.2,345.9 558.5,348.2 565.8,239.5 573.1,340.6 580.5,344.5 587.8,342.1 595.1,345.6 602.4,345.5 609.7,345.6 617.0,325.9 624.3,345.9 631.6,350.5 638.9,342.5 646.3,339.6 653.6,347.3 660.9,344.0 668.2,344.5 675.5,331.9 682.8,342.4 690.1,345.7 697.4,340.4 704.7,347.6 712.1,338.6 719.4,336.0 726.7,343.1 734.0,341.0 741.3,345.1 748.6,351.6 755.9,347.0 763.2,345.1 770.5,348.5" fill="none" stroke="#2563eb" stroke-width="2.2" stroke-linejoin="round" stroke-linecap="round"/>
<polyline points="777.8,275.8 785.2,242.2 792.5,236.2 799.8,229.4 807.1,221.8 814.4,216.9 821.7,206.0 829.0,198.5 836.3,191.5 843.6,187.5 851.0,181.8 858.3,175.8 865.6,173.6 872.9,172.9 880.2,172.3 887.5,171.7 894.8,171.1 902.1,171.5 909.4,169.9 916.8,168.1 924.1,166.9 931.4,164.4 938.7,160.8 946.0,160.5" fill="none" stroke="#d97706" stroke-width="2.2" stroke-linejoin="round" stroke-linecap="round"/>
<line x1="76" y1="70" x2="94" y2="70" stroke="#2563eb" stroke-width="3"/>
<text x="100" y="74" font-family="Arial, sans-serif" font-size="11" fill="#0f172a">actual avg fee</text>
<line x1="228" y1="70" x2="246" y2="70" stroke="#d97706" stroke-width="3"/>
<text x="252" y="74" font-family="Arial, sans-serif" font-size="11" fill="#0f172a">forecast avg fee</text>
<text x="28" y="404" font-family="Arial, sans-serif" font-size="11" fill="#64748b">Source: hourly_features.csv, predictions.csv</text>
</svg>