<svg xmlns="http://www.w3.org/2000/svg" width="980" height="420" viewBox="0 0 980 420">
<rect width="100%" height="100%" fill="#ffffff"/>
<text x="28" y="34" font-family="Arial, sans-serif" font-size="20" font-weight="700" fill="#0f172a">Recent actual fees and 24-hour forecast</text>
<text x="28" y="56" font-family="Arial, sans-serif" font-size="12" fill="#64748b">Last 96 actual hours followed by generated forecast</text>
<line x1="76" y1="362.0" x2="946" y2="362.0" stroke="#e2e8f0" stroke-width="1"/>
<text x="68" y="366.0" font-family="Arial, sans-serif" font-size="10" text-anchor="end" fill="#64748b">259K</text>
<line x1="76" y1="292.0" x2="946" y2="292.0" stroke="#e2e8f0" stroke-width="1"/>
<text x="68" y="296.0" font-family="Arial, sans-serif" font-size="10" text-anchor="end" fill="#64748b">953K</text>
<line x1="76" y1="222.0" x2="946" y2="222.0" stroke="#e2e8f0" stroke-width="1"/>
<text x="68" y="226.0" font-family="Arial, sans-serif" font-size="10" text-anchor="end" fill="#64748b">1.6M</text>
<line x1="76" y1="152.0" x2="946" y2="152.0" stroke="#e2e8f0" stroke-width="1"/>
<text x="68" y="156.0" font-family="Arial, sans-serif" font-size="10" text-anchor="end" fill="#64748b">2.3M</text>
<line x1="76" y1="82.0" x2="946" y2="82.0" stroke="#e2e8f0" stroke-width="1"/>
<text x="68" y="86.0" font-family="Arial, sans-serif" font-size="10" text-anchor="end" fill="#64748b">3.0M</text>
<line x1="76" y1="362" x2="946" y2="362" stroke="#334155" stroke-width="1"/>
<line x1="76" y1="82" x2="76" y2="362" stroke="#334155" stroke-width="1"/>
<text x="76" y="72" font-family="Arial, sans-serif" font-size="11" fill="#64748b">nanoton</text>
<line x1="76.0" y1="362" x2="76.0" y2="366" stroke="#334155" stroke-width="1"/>
<text x="76.0" y="380" font-family="Arial, sans-serif" font-size="10" text-anchor="middle" fill="#64748b">0</text>
<line x1="514.7" y1="362" x2="514.7" y2="366" stroke="#334155" stroke-width="1"/>
<text x="514.7" y="380" font-family="Arial, sans-serif" font-size="10" text-anchor="middle" fill="#64748b">60</text>
<line x1="946.0" y1="362" x2="946.0" y2="366" stroke="#334155" stroke-width="1"/>
<text x="946.0" y="380" font-family="Arial, sans-serif" font-size="10" text-anchor="middle" fill="#64748b">119</text>
<polyline points="76.0,134.8 83.3,135.1 90.6,136.1 97.9,152.9 105.2,152.4 112.6,160.8 119.9,176.6 127.2,188.6 134.5,170.4 141.8,160.5 149.1,170.0 156.4,117.2 163.7,161.5 171.0,165.0 178.4,165.6 185.7,137.8 193.0,185.3 200.3,174.7 207.6,108.0 214.9,145.5 222.2,136.2 229.5,137.9 236.8,139.7 244.2,184.1 251.5,157.9 258.8,178.2 266.1,138.0 273.4,172.6 280.7,179.1 288.0,168.1 295.3,163.7 302.6,92.4 309.9,175.5 317.3,307.7 324.6,346.9 331.9,347.2 339.2,345.9 346.5,348.2 353.8,239.5 361.1,340.6 368.4,344.5 375.7,342.1 383.1,345.6 390.4,345.5 397.7,345.6 405.0,325.9 412.3,345.9 419.6,350.5 426.9,342.5 434.2,339.6 441.5,347.3 448.9,344.0 456.2,344.5 463.5,331.9 470.8,342.4 478.1,345.7 485.4,340.4 492.7,347.6 500.0,338.6 507.3,336.0 514.7,343.1 522.0,341.0 529.3,345.1 536.6,351.6 543.9,347.0 551.2,345.1 558.5,348.4 565.8,342.4 573.1,345.9 580.5,338.4 587.8,331.4 595.1,340.6 602.4,341.0 609.7,328.9 617.0,337.3 624.3,333.1 631.6,344.1 638.9,337.7 646.3,332.8 653.6,340.9 660.9,341.5 668.2,340.1 675.5,343.8 682.8,342.2 690.1,343.4 697.4,346.0 704.7,341.2 712.1,334.7 719.4,337.0 726.7,341.4 734.0,345.3 741.3,345.9 748.6,345.0 755.9,344.6 763.2,341.9 770.5,330.8" fill="none" stroke="#2563eb" stroke-width="2.2" stroke-linejoin="round" stroke-linecap="round"/>
<polyline points="777.8,266.6 785.2,238.9 792.5,231.1 799.8,216.3 807.1,209.6 814.4,201.7 821.7,193.1 829.0,188.5 836.3,185.6 843.6,183.3 851.0,180.7 858.3,178.2 865.6,178.4 872.9,176.7 880.2,174.7 887.5,174.1 894.8,171.8 902.1,168.7 909.4,169.4 916.8,164.4 924.1,162.5 931.4,159.9 938.7,158.1 946.0,153.1" fill="none" stroke="#d97706" stroke-width="2.2" stroke-linejoin="round" stroke-linecap="round"/>
<line x1="76" y1="70" x2="94" y2="70" stroke="#2563eb" stroke-width="3"/>
<text x="100" y="74" font-family="Arial, sans-serif" font-size="11" fill="#0f172a">actual avg fee</text>
<line x1="228" y1="70" x2="246" y2="70" stroke="#d97706" stroke-width="3"/>
<text x="252" y="74" font-family="Arial, sans-serif" font-size="11" fill="#0f172a">forecast avg fee</text>
<text x="28" y="404" font-family="Arial, sans-serif" font-size="11" fill="#64748b">Source: hourly_features.csv, predictions.csv</text>
</svg>