<svg xmlns="http://www.w3.org/2000/svg" width="980" height="420" viewBox="0 0 980 420">
<rect width="100%" height="100%" fill="#ffffff"/>
<text x="28" y="34" font-family="Arial, sans-serif" font-size="20" font-weight="700" fill="#0f172a">Recent actual fees and 24-hour forecast</text>
<text x="28" y="56" font-family="Arial, sans-serif" font-size="12" fill="#64748b">Last 96 actual hours followed by generated forecast</text>
<line x1="76" y1="362.0" x2="946" y2="362.0" stroke="#e2e8f0" stroke-width="1"/>
<text x="68" y="366.0" font-family="Arial, sans-serif" font-size="10" text-anchor="end" fill="#64748b">1.6M</text>
<line x1="76" y1="292.0" x2="946" y2="292.0" stroke="#e2e8f0" stroke-width="1"/>
<text x="68" y="296.0" font-family="Arial, sans-serif" font-size="10" text-anchor="end" fill="#64748b">2.0M</text>
<line x1="76" y1="222.0" x2="946" y2="222.0" stroke="#e2e8f0" stroke-width="1"/>
<text x="68" y="226.0" font-family="Arial, sans-serif" font-size="10" text-anchor="end" fill="#64748b">2.4M</text>
<line x1="76" y1="152.0" x2="946" y2="152.0" stroke="#e2e8f0" stroke-width="1"/>
<text x="68" y="156.0" font-family="Arial, sans-serif" font-size="10" text-anchor="end" fill="#64748b">2.8M</text>
<line x1="76" y1="82.0" x2="946" y2="82.0" stroke="#e2e8f0" stroke-width="1"/>
<text x="68" y="86.0" font-family="Arial, sans-serif" font-size="10" text-anchor="end" fill="#64748b">3.1M</text>
<line x1="76" y1="362" x2="946" y2="362" stroke="#334155" stroke-width="1"/>
<line x1="76" y1="82" x2="76" y2="362" stroke="#334155" stroke-width="1"/>
<text x="76" y="72" font-family="Arial, sans-serif" font-size="11" fill="#64748b">nanoton</text>
<line x1="76.0" y1="362" x2="76.0" y2="366" stroke="#334155" stroke-width="1"/>
<text x="76.0" y="380" font-family="Arial, sans-serif" font-size="10" text-anchor="middle" fill="#64748b">0</text>
<line x1="514.7" y1="362" x2="514.7" y2="366" stroke="#334155" stroke-width="1"/>
<text x="514.7" y="380" font-family="Arial, sans-serif" font-size="10" text-anchor="middle" fill="#64748b">60</text>
<line x1="946.0" y1="362" x2="946.0" y2="366" stroke="#334155" stroke-width="1"/>
<text x="946.0" y="380" font-family="Arial, sans-serif" font-size="10" text-anchor="middle" fill="#64748b">119</text>
<polyline points="76.0,179.5 83.3,277.1 90.6,270.8 97.9,174.7 105.2,279.3 112.6,220.9 119.9,223.6 127.2,297.3 134.5,281.1 141.8,191.1 149.1,115.7 156.4,204.0 163.7,92.4 171.0,205.0 178.4,295.1 185.7,266.0 193.0,232.4 200.3,250.5 207.6,309.8 214.9,141.7 222.2,185.7 229.5,351.6 236.8,244.9 244.2,271.8 251.5,232.1 258.8,281.1 266.1,218.4 273.4,265.9 280.7,217.0 288.0,129.4 295.3,203.4 302.6,185.9 309.9,201.3 317.3,179.8 324.6,199.1 331.9,218.7 339.2,263.5 346.5,300.0 353.8,200.3 361.1,291.0 368.4,278.5 375.7,281.1 383.1,263.0 390.4,217.8 397.7,187.3 405.0,278.2 412.3,320.9 419.6,290.6 426.9,313.2 434.2,270.5 441.5,300.0 448.9,303.3 456.2,230.9 463.5,145.2 470.8,215.5 478.1,223.2 485.4,227.0 492.7,228.5 500.0,200.5 507.3,284.8 514.7,300.1 522.0,273.3 529.3,312.3 536.6,291.5 543.9,263.7 551.2,266.7 558.5,210.5 565.8,271.1 573.1,281.9 580.5,303.5 587.8,173.8 595.1,253.2 602.4,280.8 609.7,256.0 617.0,245.4 624.3,260.2 631.6,198.5 638.9,199.1 646.3,201.0 653.6,231.5 660.9,230.6 668.2,245.9 675.5,274.6 682.8,296.5 690.1,263.4 697.4,245.3 704.7,262.6 712.1,166.5 719.4,247.3 726.7,253.6 734.0,254.6 741.3,204.0 748.6,290.6 755.9,271.1 763.2,149.8 770.5,197.4" fill="none" stroke="#2563eb" stroke-width="2.2" stroke-linejoin="round" stroke-linecap="round"/>
<polyline points="777.8,223.3 785.2,233.8 792.5,251.4 799.8,252.4 807.1,243.1 814.4,242.5 821.7,242.5 829.0,242.0 836.3,242.0 843.6,242.0 851.0,235.7 858.3,240.0 865.6,240.5 872.9,240.5 880.2,246.8 887.5,241.0 894.8,246.8 902.1,240.5 909.4,240.5 916.8,241.0 924.1,240.5 931.4,240.5 938.7,247.3 946.0,246.1" fill="none" stroke="#d97706" stroke-width="2.2" stroke-linejoin="round" stroke-linecap="round"/>
<line x1="76" y1="70" x2="94" y2="70" stroke="#2563eb" stroke-width="3"/>
<text x="100" y="74" font-family="Arial, sans-serif" font-size="11" fill="#0f172a">actual avg fee</text>
<line x1="228" y1="70" x2="246" y2="70" stroke="#d97706" stroke-width="3"/>
<text x="252" y="74" font-family="Arial, sans-serif" font-size="11" fill="#0f172a">forecast avg fee</text>
<text x="28" y="404" font-family="Arial, sans-serif" font-size="11" fill="#64748b">Source: hourly_features.csv, predictions.csv</text>
</svg>