<svg xmlns="http://www.w3.org/2000/svg" width="980" height="420" viewBox="0 0 980 420">
<rect width="100%" height="100%" fill="#ffffff"/>
<text x="28" y="34" font-family="Arial, sans-serif" font-size="20" font-weight="700" fill="#0f172a">Recent actual fees and 24-hour forecast</text>
<text x="28" y="56" font-family="Arial, sans-serif" font-size="12" fill="#64748b">Last 96 actual hours followed by generated forecast</text>
<line x1="76" y1="362.0" x2="946" y2="362.0" stroke="#e2e8f0" stroke-width="1"/>
<text x="68" y="366.0" font-family="Arial, sans-serif" font-size="10" text-anchor="end" fill="#64748b">270K</text>
<line x1="76" y1="292.0" x2="946" y2="292.0" stroke="#e2e8f0" stroke-width="1"/>
<text x="68" y="296.0" font-family="Arial, sans-serif" font-size="10" text-anchor="end" fill="#64748b">962K</text>
<line x1="76" y1="222.0" x2="946" y2="222.0" stroke="#e2e8f0" stroke-width="1"/>
<text x="68" y="226.0" font-family="Arial, sans-serif" font-size="10" text-anchor="end" fill="#64748b">1.7M</text>
<line x1="76" y1="152.0" x2="946" y2="152.0" stroke="#e2e8f0" stroke-width="1"/>
<text x="68" y="156.0" font-family="Arial, sans-serif" font-size="10" text-anchor="end" fill="#64748b">2.3M</text>
<line x1="76" y1="82.0" x2="946" y2="82.0" stroke="#e2e8f0" stroke-width="1"/>
<text x="68" y="86.0" font-family="Arial, sans-serif" font-size="10" text-anchor="end" fill="#64748b">3.0M</text>
<line x1="76" y1="362" x2="946" y2="362" stroke="#334155" stroke-width="1"/>
<line x1="76" y1="82" x2="76" y2="362" stroke="#334155" stroke-width="1"/>
<text x="76" y="72" font-family="Arial, sans-serif" font-size="11" fill="#64748b">nanoton</text>
<line x1="76.0" y1="362" x2="76.0" y2="366" stroke="#334155" stroke-width="1"/>
<text x="76.0" y="380" font-family="Arial, sans-serif" font-size="10" text-anchor="middle" fill="#64748b">0</text>
<line x1="514.7" y1="362" x2="514.7" y2="366" stroke="#334155" stroke-width="1"/>
<text x="514.7" y="380" font-family="Arial, sans-serif" font-size="10" text-anchor="middle" fill="#64748b">60</text>
<line x1="946.0" y1="362" x2="946.0" y2="366" stroke="#334155" stroke-width="1"/>
<text x="946.0" y="380" font-family="Arial, sans-serif" font-size="10" text-anchor="middle" fill="#64748b">119</text>
<polyline points="76.0,179.1 83.3,180.5 90.6,170.6 97.9,145.6 105.2,128.8 112.6,178.9 119.9,202.5 127.2,185.7 134.5,198.2 141.8,174.7 149.1,190.9 156.4,192.7 163.7,152.8 171.0,105.6 178.4,144.3 185.7,148.6 193.0,150.7 200.3,151.5 207.6,136.1 214.9,182.5 222.2,191.0 229.5,176.2 236.8,197.8 244.2,186.2 251.5,170.9 258.8,172.6 266.1,141.5 273.4,175.0 280.7,181.0 288.0,192.9 295.3,121.4 302.6,165.2 309.9,180.4 317.3,166.6 324.6,160.8 331.9,169.0 339.2,134.9 346.5,135.3 353.8,136.3 361.1,153.1 368.4,152.7 375.7,161.1 383.1,177.0 390.4,189.0 397.7,170.7 405.0,160.8 412.3,170.3 419.6,117.3 426.9,161.9 434.2,165.4 441.5,165.9 448.9,138.0 456.2,185.7 463.5,175.0 470.8,108.1 478.1,145.8 485.4,136.4 492.7,138.1 500.0,139.9 507.3,184.6 514.7,158.2 522.0,178.6 529.3,138.2 536.6,173.0 543.9,179.5 551.2,168.5 558.5,164.0 565.8,92.4 573.1,175.8 580.5,308.6 587.8,348.0 595.1,348.3 602.4,347.0 609.7,349.4 617.0,240.1 624.3,341.7 631.6,345.6 638.9,343.2 646.3,346.8 653.6,346.6 660.9,346.7 668.2,327.0 675.5,347.1 682.8,351.6 690.1,343.6 697.4,340.7 704.7,348.4 712.1,345.1 719.4,345.6 726.7,333.0 734.0,343.5 741.3,346.8 748.6,341.5 755.9,348.7 763.2,339.7 770.5,347.1" fill="none" stroke="#2563eb" stroke-width="2.2" stroke-linejoin="round" stroke-linecap="round"/>
<polyline points="777.8,282.0 785.2,242.1 792.5,238.1 799.8,228.9 807.1,221.5 814.4,215.4 821.7,211.3 829.0,203.2 836.3,200.5 843.6,197.4 851.0,194.2 858.3,188.4 865.6,187.0 872.9,181.3 880.2,176.5 887.5,171.4 894.8,169.0 902.1,164.9 909.4,160.6 916.8,158.1 924.1,156.8 931.4,155.7 938.7,154.3 946.0,152.3" fill="none" stroke="#d97706" stroke-width="2.2" stroke-linejoin="round" stroke-linecap="round"/>
<line x1="76" y1="70" x2="94" y2="70" stroke="#2563eb" stroke-width="3"/>
<text x="100" y="74" font-family="Arial, sans-serif" font-size="11" fill="#0f172a">actual avg fee</text>
<line x1="228" y1="70" x2="246" y2="70" stroke="#d97706" stroke-width="3"/>
<text x="252" y="74" font-family="Arial, sans-serif" font-size="11" fill="#0f172a">forecast avg fee</text>
<text x="28" y="404" font-family="Arial, sans-serif" font-size="11" fill="#64748b">Source: hourly_features.csv, predictions.csv</text>
</svg>