<svg xmlns="http://www.w3.org/2000/svg" width="980" height="420" viewBox="0 0 980 420">
<rect width="100%" height="100%" fill="#ffffff"/>
<text x="28" y="34" font-family="Arial, sans-serif" font-size="20" font-weight="700" fill="#0f172a">Recent actual fees and 24-hour forecast</text>
<text x="28" y="56" font-family="Arial, sans-serif" font-size="12" fill="#64748b">Last 96 actual hours followed by generated forecast</text>
<line x1="76" y1="362.0" x2="946" y2="362.0" stroke="#e2e8f0" stroke-width="1"/>
<text x="68" y="366.0" font-family="Arial, sans-serif" font-size="10" text-anchor="end" fill="#64748b">206K</text>
<line x1="76" y1="292.0" x2="946" y2="292.0" stroke="#e2e8f0" stroke-width="1"/>
<text x="68" y="296.0" font-family="Arial, sans-serif" font-size="10" text-anchor="end" fill="#64748b">757K</text>
<line x1="76" y1="222.0" x2="946" y2="222.0" stroke="#e2e8f0" stroke-width="1"/>
<text x="68" y="226.0" font-family="Arial, sans-serif" font-size="10" text-anchor="end" fill="#64748b">1.3M</text>
<line x1="76" y1="152.0" x2="946" y2="152.0" stroke="#e2e8f0" stroke-width="1"/>
<text x="68" y="156.0" font-family="Arial, sans-serif" font-size="10" text-anchor="end" fill="#64748b">1.9M</text>
<line x1="76" y1="82.0" x2="946" y2="82.0" stroke="#e2e8f0" stroke-width="1"/>
<text x="68" y="86.0" font-family="Arial, sans-serif" font-size="10" text-anchor="end" fill="#64748b">2.4M</text>
<line x1="76" y1="362" x2="946" y2="362" stroke="#334155" stroke-width="1"/>
<line x1="76" y1="82" x2="76" y2="362" stroke="#334155" stroke-width="1"/>
<text x="76" y="72" font-family="Arial, sans-serif" font-size="11" fill="#64748b">nanoton</text>
<line x1="76.0" y1="362" x2="76.0" y2="366" stroke="#334155" stroke-width="1"/>
<text x="76.0" y="380" font-family="Arial, sans-serif" font-size="10" text-anchor="middle" fill="#64748b">0</text>
<line x1="514.7" y1="362" x2="514.7" y2="366" stroke="#334155" stroke-width="1"/>
<text x="514.7" y="380" font-family="Arial, sans-serif" font-size="10" text-anchor="middle" fill="#64748b">60</text>
<line x1="946.0" y1="362" x2="946.0" y2="366" stroke="#334155" stroke-width="1"/>
<text x="946.0" y="380" font-family="Arial, sans-serif" font-size="10" text-anchor="middle" fill="#64748b">119</text>
<polyline points="76.0,329.9 83.3,330.0 90.6,328.9 97.9,335.4 105.2,323.4 112.6,329.7 119.9,331.5 127.2,325.7 134.5,330.7 141.8,324.9 149.1,327.9 156.4,327.2 163.7,323.7 171.0,331.6 178.4,330.6 185.7,327.5 193.0,328.5 200.3,330.3 207.6,331.4 214.9,334.9 222.2,327.6 229.5,333.6 236.8,332.6 244.2,331.7 251.5,327.5 258.8,332.0 266.1,335.4 273.4,335.9 280.7,317.5 288.0,332.8 295.3,330.5 302.6,326.5 309.9,319.7 317.3,323.6 324.6,326.3 331.9,332.4 339.2,325.0 346.5,322.3 353.8,322.6 361.1,324.1 368.4,327.6 375.7,331.6 383.1,333.2 390.4,326.1 397.7,325.5 405.0,329.9 412.3,325.4 419.6,326.3 426.9,331.2 434.2,333.3 441.5,333.0 448.9,331.1 456.2,326.2 463.5,322.7 470.8,329.8 478.1,324.6 485.4,329.4 492.7,328.0 500.0,321.9 507.3,323.0 514.7,326.7 522.0,331.1 529.3,330.0 536.6,335.8 543.9,329.8 551.2,328.6 558.5,321.7 565.8,328.1 573.1,324.9 580.5,325.4 587.8,329.7 595.1,324.3 602.4,317.9 609.7,318.8 617.0,316.3 624.3,310.6 631.6,321.3 638.9,325.6 646.3,329.0 653.6,325.7 660.9,320.4 668.2,318.8 675.5,320.7 682.8,321.0 690.1,318.1 697.4,319.9 704.7,320.2 712.1,323.5 719.4,315.6 726.7,324.5 734.0,321.0 741.3,318.7 748.6,319.4 755.9,320.7 763.2,331.8 770.5,351.6" fill="none" stroke="#2563eb" stroke-width="2.2" stroke-linejoin="round" stroke-linecap="round"/>
<polyline points="777.8,119.0 785.2,107.9 792.5,106.7 799.8,109.6 807.1,109.8 814.4,109.8 821.7,109.8 829.0,114.3 836.3,108.4 843.6,101.8 851.0,99.9 858.3,99.9 865.6,99.9 872.9,96.7 880.2,92.4 887.5,97.6 894.8,101.9 902.1,102.1 909.4,101.9 916.8,103.7 924.1,103.7 931.4,103.8 938.7,102.1 946.0,101.9" fill="none" stroke="#d97706" stroke-width="2.2" stroke-linejoin="round" stroke-linecap="round"/>
<line x1="76" y1="70" x2="94" y2="70" stroke="#2563eb" stroke-width="3"/>
<text x="100" y="74" font-family="Arial, sans-serif" font-size="11" fill="#0f172a">actual avg fee</text>
<line x1="228" y1="70" x2="246" y2="70" stroke="#d97706" stroke-width="3"/>
<text x="252" y="74" font-family="Arial, sans-serif" font-size="11" fill="#0f172a">forecast avg fee</text>
<text x="28" y="404" font-family="Arial, sans-serif" font-size="11" fill="#64748b">Source: hourly_features.csv, predictions.csv</text>
</svg>