<svg xmlns="http://www.w3.org/2000/svg" width="980" height="420" viewBox="0 0 980 420">
<rect width="100%" height="100%" fill="#ffffff"/>
<text x="28" y="34" font-family="Arial, sans-serif" font-size="20" font-weight="700" fill="#0f172a">Recent actual fees and 24-hour forecast</text>
<text x="28" y="56" font-family="Arial, sans-serif" font-size="12" fill="#64748b">Last 96 actual hours followed by generated forecast</text>
<line x1="76" y1="362.0" x2="946" y2="362.0" stroke="#e2e8f0" stroke-width="1"/>
<text x="68" y="366.0" font-family="Arial, sans-serif" font-size="10" text-anchor="end" fill="#64748b">381K</text>
<line x1="76" y1="292.0" x2="946" y2="292.0" stroke="#e2e8f0" stroke-width="1"/>
<text x="68" y="296.0" font-family="Arial, sans-serif" font-size="10" text-anchor="end" fill="#64748b">657K</text>
<line x1="76" y1="222.0" x2="946" y2="222.0" stroke="#e2e8f0" stroke-width="1"/>
<text x="68" y="226.0" font-family="Arial, sans-serif" font-size="10" text-anchor="end" fill="#64748b">934K</text>
<line x1="76" y1="152.0" x2="946" y2="152.0" stroke="#e2e8f0" stroke-width="1"/>
<text x="68" y="156.0" font-family="Arial, sans-serif" font-size="10" text-anchor="end" fill="#64748b">1.2M</text>
<line x1="76" y1="82.0" x2="946" y2="82.0" stroke="#e2e8f0" stroke-width="1"/>
<text x="68" y="86.0" font-family="Arial, sans-serif" font-size="10" text-anchor="end" fill="#64748b">1.5M</text>
<line x1="76" y1="362" x2="946" y2="362" stroke="#334155" stroke-width="1"/>
<line x1="76" y1="82" x2="76" y2="362" stroke="#334155" stroke-width="1"/>
<text x="76" y="72" font-family="Arial, sans-serif" font-size="11" fill="#64748b">nanoton</text>
<line x1="76.0" y1="362" x2="76.0" y2="366" stroke="#334155" stroke-width="1"/>
<text x="76.0" y="380" font-family="Arial, sans-serif" font-size="10" text-anchor="middle" fill="#64748b">0</text>
<line x1="514.7" y1="362" x2="514.7" y2="366" stroke="#334155" stroke-width="1"/>
<text x="514.7" y="380" font-family="Arial, sans-serif" font-size="10" text-anchor="middle" fill="#64748b">60</text>
<line x1="946.0" y1="362" x2="946.0" y2="366" stroke="#334155" stroke-width="1"/>
<text x="946.0" y="380" font-family="Arial, sans-serif" font-size="10" text-anchor="middle" fill="#64748b">119</text>
<polyline points="76.0,335.7 83.3,314.2 90.6,314.9 97.9,326.3 105.2,314.7 112.6,335.7 119.9,323.3 127.2,334.3 134.5,315.1 141.8,340.9 149.1,314.9 156.4,320.5 163.7,313.4 171.0,335.7 178.4,295.6 185.7,304.7 193.0,235.9 200.3,184.6 207.6,247.2 214.9,196.2 222.2,187.1 229.5,184.8 236.8,205.7 244.2,323.1 251.5,228.2 258.8,172.1 266.1,179.3 273.4,187.7 280.7,176.2 288.0,211.8 295.3,193.4 302.6,325.4 309.9,325.3 317.3,315.4 324.6,330.2 331.9,331.3 339.2,92.4 346.5,192.1 353.8,258.8 361.1,223.8 368.4,246.6 375.7,265.4 383.1,335.7 390.4,344.5 397.7,334.3 405.0,323.1 412.3,320.5 419.6,298.5 426.9,329.2 434.2,333.0 441.5,325.1 448.9,264.7 456.2,271.5 463.5,318.6 470.8,267.8 478.1,326.6 485.4,311.9 492.7,332.8 500.0,327.9 507.3,325.9 514.7,333.4 522.0,320.8 529.3,328.7 536.6,344.8 543.9,339.6 551.2,315.7 558.5,311.3 565.8,343.5 573.1,328.7 580.5,320.9 587.8,334.0 595.1,321.4 602.4,313.4 609.7,324.7 617.0,323.0 624.3,312.2 631.6,327.6 638.9,325.1 646.3,327.7 653.6,343.7 660.9,351.6 668.2,344.8 675.5,339.0 682.8,347.2 690.1,341.9 697.4,334.8 704.7,315.1 712.1,308.3 719.4,329.6 726.7,330.8 734.0,335.7 741.3,335.7 748.6,333.4 755.9,308.4 763.2,341.3 770.5,347.5" fill="none" stroke="#2563eb" stroke-width="2.2" stroke-linejoin="round" stroke-linecap="round"/>
<polyline points="777.8,333.7 785.2,333.3 792.5,332.9 799.8,332.9 807.1,336.9 814.4,336.2 821.7,334.3 829.0,334.4 836.3,334.6 843.6,334.9 851.0,335.2 858.3,335.0 865.6,334.8 872.9,334.8 880.2,334.9 887.5,334.9 894.8,334.9 902.1,334.9 909.4,334.9 916.8,334.9 924.1,334.9 931.4,334.9 938.7,334.9 946.0,334.9" fill="none" stroke="#d97706" stroke-width="2.2" stroke-linejoin="round" stroke-linecap="round"/>
<line x1="76" y1="70" x2="94" y2="70" stroke="#2563eb" stroke-width="3"/>
<text x="100" y="74" font-family="Arial, sans-serif" font-size="11" fill="#0f172a">actual avg fee</text>
<line x1="228" y1="70" x2="246" y2="70" stroke="#d97706" stroke-width="3"/>
<text x="252" y="74" font-family="Arial, sans-serif" font-size="11" fill="#0f172a">forecast avg fee</text>
<text x="28" y="404" font-family="Arial, sans-serif" font-size="11" fill="#64748b">Source: hourly_features.csv, predictions.csv</text>
</svg>