<svg xmlns="http://www.w3.org/2000/svg" width="980" height="420" viewBox="0 0 980 420">
<rect width="100%" height="100%" fill="#ffffff"/>
<text x="28" y="34" font-family="Arial, sans-serif" font-size="20" font-weight="700" fill="#0f172a">Recent actual fees and 24-hour forecast</text>
<text x="28" y="56" font-family="Arial, sans-serif" font-size="12" fill="#64748b">Last 96 actual hours followed by generated forecast</text>
<line x1="76" y1="362.0" x2="946" y2="362.0" stroke="#e2e8f0" stroke-width="1"/>
<text x="68" y="366.0" font-family="Arial, sans-serif" font-size="10" text-anchor="end" fill="#64748b">1.6M</text>
<line x1="76" y1="292.0" x2="946" y2="292.0" stroke="#e2e8f0" stroke-width="1"/>
<text x="68" y="296.0" font-family="Arial, sans-serif" font-size="10" text-anchor="end" fill="#64748b">2.0M</text>
<line x1="76" y1="222.0" x2="946" y2="222.0" stroke="#e2e8f0" stroke-width="1"/>
<text x="68" y="226.0" font-family="Arial, sans-serif" font-size="10" text-anchor="end" fill="#64748b">2.3M</text>
<line x1="76" y1="152.0" x2="946" y2="152.0" stroke="#e2e8f0" stroke-width="1"/>
<text x="68" y="156.0" font-family="Arial, sans-serif" font-size="10" text-anchor="end" fill="#64748b">2.6M</text>
<line x1="76" y1="82.0" x2="946" y2="82.0" stroke="#e2e8f0" stroke-width="1"/>
<text x="68" y="86.0" font-family="Arial, sans-serif" font-size="10" text-anchor="end" fill="#64748b">3.0M</text>
<line x1="76" y1="362" x2="946" y2="362" stroke="#334155" stroke-width="1"/>
<line x1="76" y1="82" x2="76" y2="362" stroke="#334155" stroke-width="1"/>
<text x="76" y="72" font-family="Arial, sans-serif" font-size="11" fill="#64748b">nanoton</text>
<line x1="76.0" y1="362" x2="76.0" y2="366" stroke="#334155" stroke-width="1"/>
<text x="76.0" y="380" font-family="Arial, sans-serif" font-size="10" text-anchor="middle" fill="#64748b">0</text>
<line x1="514.7" y1="362" x2="514.7" y2="366" stroke="#334155" stroke-width="1"/>
<text x="514.7" y="380" font-family="Arial, sans-serif" font-size="10" text-anchor="middle" fill="#64748b">60</text>
<line x1="946.0" y1="362" x2="946.0" y2="366" stroke="#334155" stroke-width="1"/>
<text x="946.0" y="380" font-family="Arial, sans-serif" font-size="10" text-anchor="middle" fill="#64748b">119</text>
<polyline points="76.0,186.5 83.3,288.0 90.6,255.2 97.9,217.4 105.2,237.9 112.6,304.5 119.9,115.3 127.2,164.8 134.5,351.6 141.8,231.4 149.1,261.8 156.4,217.1 163.7,272.2 171.0,201.6 178.4,255.2 185.7,200.1 193.0,101.4 200.3,184.8 207.6,165.1 214.9,182.4 222.2,158.2 229.5,180.0 236.8,202.0 244.2,252.5 251.5,293.5 258.8,181.2 266.1,283.4 273.4,269.3 280.7,272.2 288.0,251.9 295.3,201.0 302.6,166.7 309.9,269.0 317.3,317.1 324.6,282.9 331.9,308.3 339.2,260.3 346.5,293.5 353.8,297.2 361.1,215.7 368.4,119.3 375.7,198.4 383.1,207.1 390.4,211.3 397.7,213.0 405.0,181.5 412.3,276.4 419.6,293.6 426.9,263.5 434.2,307.4 441.5,283.9 448.9,252.7 456.2,256.0 463.5,192.7 470.8,260.9 478.1,273.2 485.4,297.4 492.7,151.5 500.0,240.9 507.3,271.9 514.7,243.9 522.0,232.1 529.3,248.7 536.6,179.2 543.9,180.0 551.2,182.1 558.5,216.4 565.8,215.4 573.1,232.7 580.5,265.0 587.8,289.6 595.1,252.3 602.4,232.0 609.7,251.5 617.0,143.2 624.3,234.1 631.6,241.3 638.9,242.4 646.3,185.4 653.6,282.9 660.9,261.0 668.2,124.5 675.5,201.4 682.8,182.2 690.1,185.7 697.4,189.3 704.7,280.5 712.1,226.7 719.4,268.3 726.7,185.9 734.0,256.8 741.3,270.1 748.6,247.6 755.9,238.5 763.2,92.4 770.5,269.1" fill="none" stroke="#2563eb" stroke-width="2.2" stroke-linejoin="round" stroke-linecap="round"/>
<polyline points="777.8,231.6 785.2,231.4 792.5,232.5 799.8,231.4 807.1,226.9 814.4,226.9 821.7,228.0 829.0,226.9 836.3,226.9 843.6,232.5 851.0,233.8 858.3,238.3 865.6,243.6 872.9,243.6 880.2,242.4 887.5,231.2 894.8,226.0 902.1,227.1 909.4,226.0 916.8,221.5 924.1,213.2 931.4,221.5 938.7,228.0 946.0,226.9" fill="none" stroke="#d97706" stroke-width="2.2" stroke-linejoin="round" stroke-linecap="round"/>
<line x1="76" y1="70" x2="94" y2="70" stroke="#2563eb" stroke-width="3"/>
<text x="100" y="74" font-family="Arial, sans-serif" font-size="11" fill="#0f172a">actual avg fee</text>
<line x1="228" y1="70" x2="246" y2="70" stroke="#d97706" stroke-width="3"/>
<text x="252" y="74" font-family="Arial, sans-serif" font-size="11" fill="#0f172a">forecast avg fee</text>
<text x="28" y="404" font-family="Arial, sans-serif" font-size="11" fill="#64748b">Source: hourly_features.csv, predictions.csv</text>
</svg>