<svg xmlns="http://www.w3.org/2000/svg" width="980" height="420" viewBox="0 0 980 420">
<rect width="100%" height="100%" fill="#ffffff"/>
<text x="28" y="34" font-family="Arial, sans-serif" font-size="20" font-weight="700" fill="#0f172a">Recent actual fees and 24-hour forecast</text>
<text x="28" y="56" font-family="Arial, sans-serif" font-size="12" fill="#64748b">Last 96 actual hours followed by generated forecast</text>
<line x1="76" y1="362.0" x2="946" y2="362.0" stroke="#e2e8f0" stroke-width="1"/>
<text x="68" y="366.0" font-family="Arial, sans-serif" font-size="10" text-anchor="end" fill="#64748b">285K</text>
<line x1="76" y1="292.0" x2="946" y2="292.0" stroke="#e2e8f0" stroke-width="1"/>
<text x="68" y="296.0" font-family="Arial, sans-serif" font-size="10" text-anchor="end" fill="#64748b">804K</text>
<line x1="76" y1="222.0" x2="946" y2="222.0" stroke="#e2e8f0" stroke-width="1"/>
<text x="68" y="226.0" font-family="Arial, sans-serif" font-size="10" text-anchor="end" fill="#64748b">1.3M</text>
<line x1="76" y1="152.0" x2="946" y2="152.0" stroke="#e2e8f0" stroke-width="1"/>
<text x="68" y="156.0" font-family="Arial, sans-serif" font-size="10" text-anchor="end" fill="#64748b">1.8M</text>
<line x1="76" y1="82.0" x2="946" y2="82.0" stroke="#e2e8f0" stroke-width="1"/>
<text x="68" y="86.0" font-family="Arial, sans-serif" font-size="10" text-anchor="end" fill="#64748b">2.4M</text>
<line x1="76" y1="362" x2="946" y2="362" stroke="#334155" stroke-width="1"/>
<line x1="76" y1="82" x2="76" y2="362" stroke="#334155" stroke-width="1"/>
<text x="76" y="72" font-family="Arial, sans-serif" font-size="11" fill="#64748b">nanoton</text>
<line x1="76.0" y1="362" x2="76.0" y2="366" stroke="#334155" stroke-width="1"/>
<text x="76.0" y="380" font-family="Arial, sans-serif" font-size="10" text-anchor="middle" fill="#64748b">0</text>
<line x1="514.7" y1="362" x2="514.7" y2="366" stroke="#334155" stroke-width="1"/>
<text x="514.7" y="380" font-family="Arial, sans-serif" font-size="10" text-anchor="middle" fill="#64748b">60</text>
<line x1="946.0" y1="362" x2="946.0" y2="366" stroke="#334155" stroke-width="1"/>
<text x="946.0" y="380" font-family="Arial, sans-serif" font-size="10" text-anchor="middle" fill="#64748b">119</text>
<polyline points="76.0,201.5 83.3,336.8 90.6,342.0 97.9,338.9 105.2,343.6 112.6,343.4 119.9,343.6 127.2,317.2 134.5,344.0 141.8,350.1 149.1,339.3 156.4,335.5 163.7,345.8 171.0,341.4 178.4,342.1 185.7,325.2 193.0,339.2 200.3,343.7 207.6,336.6 214.9,346.2 222.2,334.2 229.5,330.8 236.8,340.2 244.2,337.5 251.5,342.8 258.8,351.6 266.1,345.5 273.4,342.9 280.7,347.2 288.0,339.2 295.3,344.0 302.6,334.0 309.9,324.6 317.3,336.9 324.6,337.5 331.9,321.2 339.2,332.4 346.5,326.9 353.8,341.5 361.1,332.9 368.4,326.4 375.7,337.3 383.1,338.1 390.4,336.2 397.7,341.2 405.0,339.0 412.3,340.7 419.6,344.1 426.9,337.7 434.2,329.0 441.5,332.1 448.9,338.0 456.2,343.1 463.5,344.0 470.8,342.8 478.1,342.2 485.4,338.6 492.7,330.4 500.0,329.0 507.3,333.1 514.7,327.1 522.0,331.4 529.3,329.7 536.6,339.8 543.9,332.5 551.2,336.3 558.5,332.2 565.8,340.3 573.1,329.3 580.5,326.9 587.8,334.7 595.1,332.4 602.4,329.5 609.7,314.6 617.0,236.2 624.3,317.8 631.6,323.8 638.9,321.6 646.3,329.6 653.6,313.5 660.9,322.3 668.2,316.0 675.5,321.0 682.8,283.3 690.1,325.6 697.4,307.4 704.7,308.2 712.1,315.4 719.4,319.4 726.7,314.7 734.0,311.8 741.3,315.4 748.6,320.9 755.9,318.5 763.2,321.1 770.5,320.1" fill="none" stroke="#2563eb" stroke-width="2.2" stroke-linejoin="round" stroke-linecap="round"/>
<polyline points="777.8,213.8 785.2,195.8 792.5,192.4 799.8,180.5 807.1,178.0 814.4,168.4 821.7,157.9 829.0,152.5 836.3,149.5 843.6,142.7 851.0,139.4 858.3,130.3 865.6,124.4 872.9,119.0 880.2,116.4 887.5,110.6 894.8,105.5 902.1,102.8 909.4,100.8 916.8,100.1 924.1,98.7 931.4,97.4 938.7,96.1 946.0,92.4" fill="none" stroke="#d97706" stroke-width="2.2" stroke-linejoin="round" stroke-linecap="round"/>
<line x1="76" y1="70" x2="94" y2="70" stroke="#2563eb" stroke-width="3"/>
<text x="100" y="74" font-family="Arial, sans-serif" font-size="11" fill="#0f172a">actual avg fee</text>
<line x1="228" y1="70" x2="246" y2="70" stroke="#d97706" stroke-width="3"/>
<text x="252" y="74" font-family="Arial, sans-serif" font-size="11" fill="#0f172a">forecast avg fee</text>
<text x="28" y="404" font-family="Arial, sans-serif" font-size="11" fill="#64748b">Source: hourly_features.csv, predictions.csv</text>
</svg>