<svg xmlns="http://www.w3.org/2000/svg" width="980" height="420" viewBox="0 0 980 420">
<rect width="100%" height="100%" fill="#ffffff"/>
<text x="28" y="34" font-family="Arial, sans-serif" font-size="20" font-weight="700" fill="#0f172a">Recent actual fees and 24-hour forecast</text>
<text x="28" y="56" font-family="Arial, sans-serif" font-size="12" fill="#64748b">Last 96 actual hours followed by generated forecast</text>
<line x1="76" y1="362.0" x2="946" y2="362.0" stroke="#e2e8f0" stroke-width="1"/>
<text x="68" y="366.0" font-family="Arial, sans-serif" font-size="10" text-anchor="end" fill="#64748b">346K</text>
<line x1="76" y1="292.0" x2="946" y2="292.0" stroke="#e2e8f0" stroke-width="1"/>
<text x="68" y="296.0" font-family="Arial, sans-serif" font-size="10" text-anchor="end" fill="#64748b">831K</text>
<line x1="76" y1="222.0" x2="946" y2="222.0" stroke="#e2e8f0" stroke-width="1"/>
<text x="68" y="226.0" font-family="Arial, sans-serif" font-size="10" text-anchor="end" fill="#64748b">1.3M</text>
<line x1="76" y1="152.0" x2="946" y2="152.0" stroke="#e2e8f0" stroke-width="1"/>
<text x="68" y="156.0" font-family="Arial, sans-serif" font-size="10" text-anchor="end" fill="#64748b">1.8M</text>
<line x1="76" y1="82.0" x2="946" y2="82.0" stroke="#e2e8f0" stroke-width="1"/>
<text x="68" y="86.0" font-family="Arial, sans-serif" font-size="10" text-anchor="end" fill="#64748b">2.3M</text>
<line x1="76" y1="362" x2="946" y2="362" stroke="#334155" stroke-width="1"/>
<line x1="76" y1="82" x2="76" y2="362" stroke="#334155" stroke-width="1"/>
<text x="76" y="72" font-family="Arial, sans-serif" font-size="11" fill="#64748b">nanoton</text>
<line x1="76.0" y1="362" x2="76.0" y2="366" stroke="#334155" stroke-width="1"/>
<text x="76.0" y="380" font-family="Arial, sans-serif" font-size="10" text-anchor="middle" fill="#64748b">0</text>
<line x1="514.7" y1="362" x2="514.7" y2="366" stroke="#334155" stroke-width="1"/>
<text x="514.7" y="380" font-family="Arial, sans-serif" font-size="10" text-anchor="middle" fill="#64748b">60</text>
<line x1="946.0" y1="362" x2="946.0" y2="366" stroke="#334155" stroke-width="1"/>
<text x="946.0" y="380" font-family="Arial, sans-serif" font-size="10" text-anchor="middle" fill="#64748b">119</text>
<polyline points="76.0,327.2 83.3,339.1 90.6,333.2 97.9,348.9 105.2,339.7 112.6,332.7 119.9,344.4 127.2,345.3 134.5,343.2 141.8,348.5 149.1,346.2 156.4,348.0 163.7,351.6 171.0,344.8 178.4,335.5 185.7,338.8 193.0,345.1 200.3,350.6 207.6,351.5 214.9,350.2 222.2,349.6 229.5,345.7 236.8,337.0 244.2,335.5 251.5,339.9 258.8,333.4 266.1,338.0 273.4,336.2 280.7,347.1 288.0,339.3 295.3,343.4 302.6,338.9 309.9,347.6 317.3,335.8 324.6,333.2 331.9,341.6 339.2,339.2 346.5,336.0 353.8,320.1 361.1,236.2 368.4,323.6 375.7,329.9 383.1,327.6 390.4,336.1 397.7,319.0 405.0,328.3 412.3,321.6 419.6,326.9 426.9,286.6 434.2,331.8 441.5,312.4 448.9,313.2 456.2,321.0 463.5,325.2 470.8,320.2 478.1,317.1 485.4,321.0 492.7,326.8 500.0,324.3 507.3,327.0 514.7,328.2 522.0,316.0 529.3,321.4 536.6,320.0 543.9,309.4 551.2,322.7 558.5,329.6 565.8,333.2 573.1,344.3 580.5,311.1 587.8,333.2 595.1,321.4 602.4,321.9 609.7,311.5 617.0,310.8 624.3,332.3 631.6,324.2 638.9,323.8 646.3,321.6 653.6,327.1 660.9,331.1 668.2,335.4 675.5,324.3 682.8,320.3 690.1,330.1 697.4,337.2 704.7,329.4 712.1,317.3 719.4,314.1 726.7,346.4 734.0,333.2 741.3,328.2 748.6,331.1 755.9,312.2 763.2,325.8 770.5,328.7" fill="none" stroke="#2563eb" stroke-width="2.2" stroke-linejoin="round" stroke-linecap="round"/>
<polyline points="777.8,219.8 785.2,192.0 792.5,180.0 799.8,169.8 807.1,161.4 814.4,153.1 821.7,141.4 829.0,136.5 836.3,133.9 843.6,131.2 851.0,128.8 858.3,127.1 865.6,124.6 872.9,122.1 880.2,121.2 887.5,118.7 894.8,115.3 902.1,114.8 909.4,109.7 916.8,108.2 924.1,104.2 931.4,102.4 938.7,95.9 946.0,92.4" fill="none" stroke="#d97706" stroke-width="2.2" stroke-linejoin="round" stroke-linecap="round"/>
<line x1="76" y1="70" x2="94" y2="70" stroke="#2563eb" stroke-width="3"/>
<text x="100" y="74" font-family="Arial, sans-serif" font-size="11" fill="#0f172a">actual avg fee</text>
<line x1="228" y1="70" x2="246" y2="70" stroke="#d97706" stroke-width="3"/>
<text x="252" y="74" font-family="Arial, sans-serif" font-size="11" fill="#0f172a">forecast avg fee</text>
<text x="28" y="404" font-family="Arial, sans-serif" font-size="11" fill="#64748b">Source: hourly_features.csv, predictions.csv</text>
</svg>