<svg xmlns="http://www.w3.org/2000/svg" width="980" height="420" viewBox="0 0 980 420">
<rect width="100%" height="100%" fill="#ffffff"/>
<text x="28" y="34" font-family="Arial, sans-serif" font-size="20" font-weight="700" fill="#0f172a">Recent actual fees and 24-hour forecast</text>
<text x="28" y="56" font-family="Arial, sans-serif" font-size="12" fill="#64748b">Last 96 actual hours followed by generated forecast</text>
<line x1="76" y1="362.0" x2="946" y2="362.0" stroke="#e2e8f0" stroke-width="1"/>
<text x="68" y="366.0" font-family="Arial, sans-serif" font-size="10" text-anchor="end" fill="#64748b">1.6M</text>
<line x1="76" y1="292.0" x2="946" y2="292.0" stroke="#e2e8f0" stroke-width="1"/>
<text x="68" y="296.0" font-family="Arial, sans-serif" font-size="10" text-anchor="end" fill="#64748b">2.0M</text>
<line x1="76" y1="222.0" x2="946" y2="222.0" stroke="#e2e8f0" stroke-width="1"/>
<text x="68" y="226.0" font-family="Arial, sans-serif" font-size="10" text-anchor="end" fill="#64748b">2.4M</text>
<line x1="76" y1="152.0" x2="946" y2="152.0" stroke="#e2e8f0" stroke-width="1"/>
<text x="68" y="156.0" font-family="Arial, sans-serif" font-size="10" text-anchor="end" fill="#64748b">2.8M</text>
<line x1="76" y1="82.0" x2="946" y2="82.0" stroke="#e2e8f0" stroke-width="1"/>
<text x="68" y="86.0" font-family="Arial, sans-serif" font-size="10" text-anchor="end" fill="#64748b">3.1M</text>
<line x1="76" y1="362" x2="946" y2="362" stroke="#334155" stroke-width="1"/>
<line x1="76" y1="82" x2="76" y2="362" stroke="#334155" stroke-width="1"/>
<text x="76" y="72" font-family="Arial, sans-serif" font-size="11" fill="#64748b">nanoton</text>
<line x1="76.0" y1="362" x2="76.0" y2="366" stroke="#334155" stroke-width="1"/>
<text x="76.0" y="380" font-family="Arial, sans-serif" font-size="10" text-anchor="middle" fill="#64748b">0</text>
<line x1="514.7" y1="362" x2="514.7" y2="366" stroke="#334155" stroke-width="1"/>
<text x="514.7" y="380" font-family="Arial, sans-serif" font-size="10" text-anchor="middle" fill="#64748b">60</text>
<line x1="946.0" y1="362" x2="946.0" y2="366" stroke="#334155" stroke-width="1"/>
<text x="946.0" y="380" font-family="Arial, sans-serif" font-size="10" text-anchor="middle" fill="#64748b">119</text>
<polyline points="76.0,246.7 83.3,187.8 90.6,256.8 97.9,219.0 105.2,299.1 112.6,179.5 119.9,277.1 127.2,270.8 134.5,174.7 141.8,279.3 149.1,220.9 156.4,223.6 163.7,297.3 171.0,281.1 178.4,191.1 185.7,115.7 193.0,204.0 200.3,92.4 207.6,205.0 214.9,295.1 222.2,266.0 229.5,232.4 236.8,250.5 244.2,309.8 251.5,141.7 258.8,185.7 266.1,351.6 273.4,244.9 280.7,271.8 288.0,232.1 295.3,281.1 302.6,218.4 309.9,265.9 317.3,217.0 324.6,129.4 331.9,203.4 339.2,185.9 346.5,201.3 353.8,179.8 361.1,199.1 368.4,218.7 375.7,263.5 383.1,300.0 390.4,200.3 397.7,291.0 405.0,278.5 412.3,281.1 419.6,263.0 426.9,217.8 434.2,187.3 441.5,278.2 448.9,320.9 456.2,290.6 463.5,313.2 470.8,270.5 478.1,300.0 485.4,303.3 492.7,230.9 500.0,145.2 507.3,215.5 514.7,223.2 522.0,227.0 529.3,228.5 536.6,200.5 543.9,284.8 551.2,300.1 558.5,273.3 565.8,312.3 573.1,291.5 580.5,263.7 587.8,266.7 595.1,210.5 602.4,271.1 609.7,281.9 617.0,303.5 624.3,173.8 631.6,253.2 638.9,280.8 646.3,256.0 653.6,245.4 660.9,260.2 668.2,198.5 675.5,199.1 682.8,201.0 690.1,231.5 697.4,230.6 704.7,245.9 712.1,274.6 719.4,296.5 726.7,263.4 734.0,245.3 741.3,262.6 748.6,166.5 755.9,247.3 763.2,253.6 770.5,253.8" fill="none" stroke="#2563eb" stroke-width="2.2" stroke-linejoin="round" stroke-linecap="round"/>
<polyline points="777.8,249.5 785.2,245.7 792.5,240.5 799.8,247.3 807.1,245.6 814.4,251.9 821.7,257.0 829.0,257.0 836.3,257.0 843.6,247.7 851.0,242.5 858.3,242.5 865.6,242.0 872.9,242.0 880.2,242.0 887.5,235.7 894.8,240.0 902.1,240.5 909.4,240.5 916.8,246.8 924.1,241.0 931.4,246.8 938.7,240.5 946.0,240.5" fill="none" stroke="#d97706" stroke-width="2.2" stroke-linejoin="round" stroke-linecap="round"/>
<line x1="76" y1="70" x2="94" y2="70" stroke="#2563eb" stroke-width="3"/>
<text x="100" y="74" font-family="Arial, sans-serif" font-size="11" fill="#0f172a">actual avg fee</text>
<line x1="228" y1="70" x2="246" y2="70" stroke="#d97706" stroke-width="3"/>
<text x="252" y="74" font-family="Arial, sans-serif" font-size="11" fill="#0f172a">forecast avg fee</text>
<text x="28" y="404" font-family="Arial, sans-serif" font-size="11" fill="#64748b">Source: hourly_features.csv, predictions.csv</text>
</svg>