<svg xmlns="http://www.w3.org/2000/svg" width="980" height="420" viewBox="0 0 980 420">
<rect width="100%" height="100%" fill="#ffffff"/>
<text x="28" y="34" font-family="Arial, sans-serif" font-size="20" font-weight="700" fill="#0f172a">Recent actual fees and 24-hour forecast</text>
<text x="28" y="56" font-family="Arial, sans-serif" font-size="12" fill="#64748b">Last 96 actual hours followed by generated forecast</text>
<line x1="76" y1="362.0" x2="946" y2="362.0" stroke="#e2e8f0" stroke-width="1"/>
<text x="68" y="366.0" font-family="Arial, sans-serif" font-size="10" text-anchor="end" fill="#64748b">321K</text>
<line x1="76" y1="292.0" x2="946" y2="292.0" stroke="#e2e8f0" stroke-width="1"/>
<text x="68" y="296.0" font-family="Arial, sans-serif" font-size="10" text-anchor="end" fill="#64748b">816K</text>
<line x1="76" y1="222.0" x2="946" y2="222.0" stroke="#e2e8f0" stroke-width="1"/>
<text x="68" y="226.0" font-family="Arial, sans-serif" font-size="10" text-anchor="end" fill="#64748b">1.3M</text>
<line x1="76" y1="152.0" x2="946" y2="152.0" stroke="#e2e8f0" stroke-width="1"/>
<text x="68" y="156.0" font-family="Arial, sans-serif" font-size="10" text-anchor="end" fill="#64748b">1.8M</text>
<line x1="76" y1="82.0" x2="946" y2="82.0" stroke="#e2e8f0" stroke-width="1"/>
<text x="68" y="86.0" font-family="Arial, sans-serif" font-size="10" text-anchor="end" fill="#64748b">2.3M</text>
<line x1="76" y1="362" x2="946" y2="362" stroke="#334155" stroke-width="1"/>
<line x1="76" y1="82" x2="76" y2="362" stroke="#334155" stroke-width="1"/>
<text x="76" y="72" font-family="Arial, sans-serif" font-size="11" fill="#64748b">nanoton</text>
<line x1="76.0" y1="362" x2="76.0" y2="366" stroke="#334155" stroke-width="1"/>
<text x="76.0" y="380" font-family="Arial, sans-serif" font-size="10" text-anchor="middle" fill="#64748b">0</text>
<line x1="514.7" y1="362" x2="514.7" y2="366" stroke="#334155" stroke-width="1"/>
<text x="514.7" y="380" font-family="Arial, sans-serif" font-size="10" text-anchor="middle" fill="#64748b">60</text>
<line x1="946.0" y1="362" x2="946.0" y2="366" stroke="#334155" stroke-width="1"/>
<text x="946.0" y="380" font-family="Arial, sans-serif" font-size="10" text-anchor="middle" fill="#64748b">119</text>
<polyline points="76.0,347.1 83.3,351.6 90.6,343.2 97.9,348.2 105.2,337.7 112.6,327.8 119.9,340.8 127.2,341.4 134.5,324.4 141.8,336.0 149.1,330.3 156.4,345.6 163.7,336.6 171.0,329.8 178.4,341.2 185.7,342.1 193.0,340.1 200.3,345.3 207.6,343.0 214.9,344.7 222.2,348.3 229.5,341.6 236.8,332.5 244.2,335.7 251.5,341.9 258.8,347.3 266.1,348.2 273.4,346.9 280.7,346.3 288.0,342.5 295.3,333.9 302.6,332.5 309.9,336.8 317.3,330.5 324.6,335.0 331.9,333.2 339.2,343.9 346.5,336.2 353.8,340.2 361.1,335.8 368.4,344.3 375.7,332.8 383.1,330.3 390.4,338.4 397.7,336.1 405.0,333.0 412.3,317.4 419.6,235.1 426.9,320.8 434.2,327.0 441.5,324.8 448.9,333.1 456.2,316.3 463.5,325.4 470.8,318.9 478.1,324.0 485.4,284.6 492.7,328.9 500.0,309.8 507.3,310.7 514.7,318.3 522.0,322.4 529.3,317.5 536.6,314.4 543.9,318.3 551.2,324.0 558.5,321.5 565.8,324.2 573.1,325.3 580.5,313.4 587.8,318.7 595.1,317.3 602.4,306.9 609.7,320.0 617.0,326.7 624.3,330.2 631.6,341.2 638.9,308.6 646.3,330.3 653.6,318.6 660.9,319.1 668.2,309.0 675.5,308.3 682.8,329.4 690.1,321.4 697.4,321.0 704.7,318.8 712.1,324.3 719.4,328.2 726.7,332.4 734.0,321.5 741.3,317.6 748.6,327.2 755.9,334.2 763.2,326.5 770.5,314.6" fill="none" stroke="#2563eb" stroke-width="2.2" stroke-linejoin="round" stroke-linecap="round"/>
<polyline points="777.8,220.6 785.2,201.6 792.5,192.8 799.8,185.4 807.1,178.1 814.4,172.8 821.7,159.2 829.0,154.8 836.3,144.3 843.6,137.5 851.0,127.3 858.3,121.7 865.6,115.6 872.9,111.5 880.2,108.4 887.5,106.6 894.8,105.6 902.1,104.2 909.4,103.3 916.8,103.2 924.1,100.9 931.4,97.9 938.7,96.2 946.0,92.4" fill="none" stroke="#d97706" stroke-width="2.2" stroke-linejoin="round" stroke-linecap="round"/>
<line x1="76" y1="70" x2="94" y2="70" stroke="#2563eb" stroke-width="3"/>
<text x="100" y="74" font-family="Arial, sans-serif" font-size="11" fill="#0f172a">actual avg fee</text>
<line x1="228" y1="70" x2="246" y2="70" stroke="#d97706" stroke-width="3"/>
<text x="252" y="74" font-family="Arial, sans-serif" font-size="11" fill="#0f172a">forecast avg fee</text>
<text x="28" y="404" font-family="Arial, sans-serif" font-size="11" fill="#64748b">Source: hourly_features.csv, predictions.csv</text>
</svg>