<svg xmlns="http://www.w3.org/2000/svg" width="980" height="420" viewBox="0 0 980 420">
<rect width="100%" height="100%" fill="#ffffff"/>
<text x="28" y="34" font-family="Arial, sans-serif" font-size="20" font-weight="700" fill="#0f172a">Recent actual fees and 24-hour forecast</text>
<text x="28" y="56" font-family="Arial, sans-serif" font-size="12" fill="#64748b">Last 96 actual hours followed by generated forecast</text>
<line x1="76" y1="362.0" x2="946" y2="362.0" stroke="#e2e8f0" stroke-width="1"/>
<text x="68" y="366.0" font-family="Arial, sans-serif" font-size="10" text-anchor="end" fill="#64748b">294K</text>
<line x1="76" y1="292.0" x2="946" y2="292.0" stroke="#e2e8f0" stroke-width="1"/>
<text x="68" y="296.0" font-family="Arial, sans-serif" font-size="10" text-anchor="end" fill="#64748b">980K</text>
<line x1="76" y1="222.0" x2="946" y2="222.0" stroke="#e2e8f0" stroke-width="1"/>
<text x="68" y="226.0" font-family="Arial, sans-serif" font-size="10" text-anchor="end" fill="#64748b">1.7M</text>
<line x1="76" y1="152.0" x2="946" y2="152.0" stroke="#e2e8f0" stroke-width="1"/>
<text x="68" y="156.0" font-family="Arial, sans-serif" font-size="10" text-anchor="end" fill="#64748b">2.4M</text>
<line x1="76" y1="82.0" x2="946" y2="82.0" stroke="#e2e8f0" stroke-width="1"/>
<text x="68" y="86.0" font-family="Arial, sans-serif" font-size="10" text-anchor="end" fill="#64748b">3.0M</text>
<line x1="76" y1="362" x2="946" y2="362" stroke="#334155" stroke-width="1"/>
<line x1="76" y1="82" x2="76" y2="362" stroke="#334155" stroke-width="1"/>
<text x="76" y="72" font-family="Arial, sans-serif" font-size="11" fill="#64748b">nanoton</text>
<line x1="76.0" y1="362" x2="76.0" y2="366" stroke="#334155" stroke-width="1"/>
<text x="76.0" y="380" font-family="Arial, sans-serif" font-size="10" text-anchor="middle" fill="#64748b">0</text>
<line x1="514.7" y1="362" x2="514.7" y2="366" stroke="#334155" stroke-width="1"/>
<text x="514.7" y="380" font-family="Arial, sans-serif" font-size="10" text-anchor="middle" fill="#64748b">60</text>
<line x1="946.0" y1="362" x2="946.0" y2="366" stroke="#334155" stroke-width="1"/>
<text x="946.0" y="380" font-family="Arial, sans-serif" font-size="10" text-anchor="middle" fill="#64748b">119</text>
<polyline points="76.0,145.6 83.3,96.9 90.6,138.1 97.9,128.3 105.2,136.9 112.6,124.9 119.9,135.7 127.2,146.6 134.5,171.5 141.8,191.8 149.1,136.3 156.4,186.8 163.7,179.8 171.0,181.3 178.4,171.2 185.7,146.1 193.0,129.1 200.3,179.7 207.6,203.5 214.9,186.6 222.2,199.2 229.5,175.4 236.8,191.8 244.2,193.6 251.5,153.3 258.8,105.7 266.1,144.8 273.4,149.1 280.7,151.2 288.0,152.0 295.3,136.4 302.6,183.3 309.9,191.9 317.3,177.0 324.6,198.7 331.9,187.1 339.2,171.6 346.5,173.3 353.8,142.0 361.1,175.7 368.4,181.8 375.7,193.7 383.1,121.6 390.4,165.8 397.7,181.1 405.0,167.3 412.3,161.4 419.6,169.6 426.9,135.3 434.2,135.7 441.5,136.7 448.9,153.7 456.2,153.2 463.5,161.7 470.8,177.7 478.1,189.9 485.4,171.4 492.7,161.4 500.0,171.0 507.3,117.5 514.7,162.5 522.0,166.0 529.3,166.5 536.6,138.4 543.9,186.6 551.2,175.8 558.5,108.2 565.8,146.3 573.1,136.8 580.5,138.5 587.8,140.3 595.1,185.4 602.4,158.8 609.7,179.3 617.0,138.6 624.3,173.7 631.6,180.3 638.9,169.1 646.3,164.6 653.6,92.4 660.9,176.6 668.2,310.6 675.5,350.3 682.8,350.6 690.1,349.2 697.4,351.6 704.7,241.4 712.1,343.9 719.4,347.8 726.7,345.5 734.0,349.0 741.3,348.8 748.6,349.0 755.9,329.0 763.2,349.3 770.5,350.7" fill="none" stroke="#2563eb" stroke-width="2.2" stroke-linejoin="round" stroke-linecap="round"/>
<polyline points="777.8,170.0 785.2,164.2 792.5,164.0 799.8,163.5 807.1,161.3 814.4,154.6 821.7,158.7 829.0,161.9 836.3,161.4 843.6,161.4 851.0,163.6 858.3,166.2 865.6,166.2 872.9,163.9 880.2,163.9 887.5,163.9 894.8,163.9 902.1,163.9 909.4,166.2 916.8,166.8 924.1,169.0 931.4,169.0 938.7,169.0 946.0,169.0" fill="none" stroke="#d97706" stroke-width="2.2" stroke-linejoin="round" stroke-linecap="round"/>
<line x1="76" y1="70" x2="94" y2="70" stroke="#2563eb" stroke-width="3"/>
<text x="100" y="74" font-family="Arial, sans-serif" font-size="11" fill="#0f172a">actual avg fee</text>
<line x1="228" y1="70" x2="246" y2="70" stroke="#d97706" stroke-width="3"/>
<text x="252" y="74" font-family="Arial, sans-serif" font-size="11" fill="#0f172a">forecast avg fee</text>
<text x="28" y="404" font-family="Arial, sans-serif" font-size="11" fill="#64748b">Source: hourly_features.csv, predictions.csv</text>
</svg>