<svg xmlns="http://www.w3.org/2000/svg" width="980" height="420" viewBox="0 0 980 420">
<rect width="100%" height="100%" fill="#ffffff"/>
<text x="28" y="34" font-family="Arial, sans-serif" font-size="20" font-weight="700" fill="#0f172a">Recent actual fees and 24-hour forecast</text>
<text x="28" y="56" font-family="Arial, sans-serif" font-size="12" fill="#64748b">Last 96 actual hours followed by generated forecast</text>
<line x1="76" y1="362.0" x2="946" y2="362.0" stroke="#e2e8f0" stroke-width="1"/>
<text x="68" y="366.0" font-family="Arial, sans-serif" font-size="10" text-anchor="end" fill="#64748b">259K</text>
<line x1="76" y1="292.0" x2="946" y2="292.0" stroke="#e2e8f0" stroke-width="1"/>
<text x="68" y="296.0" font-family="Arial, sans-serif" font-size="10" text-anchor="end" fill="#64748b">953K</text>
<line x1="76" y1="222.0" x2="946" y2="222.0" stroke="#e2e8f0" stroke-width="1"/>
<text x="68" y="226.0" font-family="Arial, sans-serif" font-size="10" text-anchor="end" fill="#64748b">1.6M</text>
<line x1="76" y1="152.0" x2="946" y2="152.0" stroke="#e2e8f0" stroke-width="1"/>
<text x="68" y="156.0" font-family="Arial, sans-serif" font-size="10" text-anchor="end" fill="#64748b">2.3M</text>
<line x1="76" y1="82.0" x2="946" y2="82.0" stroke="#e2e8f0" stroke-width="1"/>
<text x="68" y="86.0" font-family="Arial, sans-serif" font-size="10" text-anchor="end" fill="#64748b">3.0M</text>
<line x1="76" y1="362" x2="946" y2="362" stroke="#334155" stroke-width="1"/>
<line x1="76" y1="82" x2="76" y2="362" stroke="#334155" stroke-width="1"/>
<text x="76" y="72" font-family="Arial, sans-serif" font-size="11" fill="#64748b">nanoton</text>
<line x1="76.0" y1="362" x2="76.0" y2="366" stroke="#334155" stroke-width="1"/>
<text x="76.0" y="380" font-family="Arial, sans-serif" font-size="10" text-anchor="middle" fill="#64748b">0</text>
<line x1="514.7" y1="362" x2="514.7" y2="366" stroke="#334155" stroke-width="1"/>
<text x="514.7" y="380" font-family="Arial, sans-serif" font-size="10" text-anchor="middle" fill="#64748b">60</text>
<line x1="946.0" y1="362" x2="946.0" y2="366" stroke="#334155" stroke-width="1"/>
<text x="946.0" y="380" font-family="Arial, sans-serif" font-size="10" text-anchor="middle" fill="#64748b">119</text>
<polyline points="76.0,175.8 83.3,197.3 90.6,185.8 97.9,170.6 105.2,172.2 112.6,141.3 119.9,174.6 127.2,180.6 134.5,192.4 141.8,121.2 149.1,164.8 156.4,180.0 163.7,166.3 171.0,160.5 178.4,168.6 185.7,134.8 193.0,135.1 200.3,136.1 207.6,152.9 214.9,152.4 222.2,160.8 229.5,176.6 236.8,188.6 244.2,170.4 251.5,160.5 258.8,170.0 266.1,117.2 273.4,161.5 280.7,165.0 288.0,165.6 295.3,137.8 302.6,185.3 309.9,174.7 317.3,108.0 324.6,145.5 331.9,136.2 339.2,137.9 346.5,139.7 353.8,184.1 361.1,157.9 368.4,178.2 375.7,138.0 383.1,172.6 390.4,179.1 397.7,168.1 405.0,163.7 412.3,92.4 419.6,175.5 426.9,307.7 434.2,346.9 441.5,347.2 448.9,345.9 456.2,348.2 463.5,239.5 470.8,340.6 478.1,344.5 485.4,342.1 492.7,345.6 500.0,345.5 507.3,345.6 514.7,325.9 522.0,345.9 529.3,350.5 536.6,342.5 543.9,339.6 551.2,347.3 558.5,344.0 565.8,344.5 573.1,331.9 580.5,342.4 587.8,345.7 595.1,340.4 602.4,347.6 609.7,338.6 617.0,336.0 624.3,343.1 631.6,341.0 638.9,345.1 646.3,351.6 653.6,347.0 660.9,345.1 668.2,348.4 675.5,342.4 682.8,345.9 690.1,338.4 697.4,331.4 704.7,340.6 712.1,341.0 719.4,328.9 726.7,337.3 734.0,333.1 741.3,344.1 748.6,337.7 755.9,332.8 763.2,340.9 770.5,340.5" fill="none" stroke="#2563eb" stroke-width="2.2" stroke-linejoin="round" stroke-linecap="round"/>
<polyline points="777.8,270.7 785.2,237.4 792.5,232.1 799.8,227.8 807.1,222.9 814.4,217.6 821.7,211.5 829.0,206.3 836.3,201.6 843.6,200.8 851.0,194.4 858.3,191.4 865.6,189.7 872.9,189.1 880.2,185.2 887.5,183.5 894.8,177.6 902.1,173.2 909.4,162.6 916.8,159.0 924.1,153.9 931.4,149.1 938.7,146.1 946.0,143.5" fill="none" stroke="#d97706" stroke-width="2.2" stroke-linejoin="round" stroke-linecap="round"/>
<line x1="76" y1="70" x2="94" y2="70" stroke="#2563eb" stroke-width="3"/>
<text x="100" y="74" font-family="Arial, sans-serif" font-size="11" fill="#0f172a">actual avg fee</text>
<line x1="228" y1="70" x2="246" y2="70" stroke="#d97706" stroke-width="3"/>
<text x="252" y="74" font-family="Arial, sans-serif" font-size="11" fill="#0f172a">forecast avg fee</text>
<text x="28" y="404" font-family="Arial, sans-serif" font-size="11" fill="#64748b">Source: hourly_features.csv, predictions.csv</text>
</svg>