<svg xmlns="http://www.w3.org/2000/svg" width="980" height="420" viewBox="0 0 980 420">
<rect width="100%" height="100%" fill="#ffffff"/>
<text x="28" y="34" font-family="Arial, sans-serif" font-size="20" font-weight="700" fill="#0f172a">Recent actual fees and 24-hour forecast</text>
<text x="28" y="56" font-family="Arial, sans-serif" font-size="12" fill="#64748b">Last 96 actual hours followed by generated forecast</text>
<line x1="76" y1="362.0" x2="946" y2="362.0" stroke="#e2e8f0" stroke-width="1"/>
<text x="68" y="366.0" font-family="Arial, sans-serif" font-size="10" text-anchor="end" fill="#64748b">259K</text>
<line x1="76" y1="292.0" x2="946" y2="292.0" stroke="#e2e8f0" stroke-width="1"/>
<text x="68" y="296.0" font-family="Arial, sans-serif" font-size="10" text-anchor="end" fill="#64748b">953K</text>
<line x1="76" y1="222.0" x2="946" y2="222.0" stroke="#e2e8f0" stroke-width="1"/>
<text x="68" y="226.0" font-family="Arial, sans-serif" font-size="10" text-anchor="end" fill="#64748b">1.6M</text>
<line x1="76" y1="152.0" x2="946" y2="152.0" stroke="#e2e8f0" stroke-width="1"/>
<text x="68" y="156.0" font-family="Arial, sans-serif" font-size="10" text-anchor="end" fill="#64748b">2.3M</text>
<line x1="76" y1="82.0" x2="946" y2="82.0" stroke="#e2e8f0" stroke-width="1"/>
<text x="68" y="86.0" font-family="Arial, sans-serif" font-size="10" text-anchor="end" fill="#64748b">3.0M</text>
<line x1="76" y1="362" x2="946" y2="362" stroke="#334155" stroke-width="1"/>
<line x1="76" y1="82" x2="76" y2="362" stroke="#334155" stroke-width="1"/>
<text x="76" y="72" font-family="Arial, sans-serif" font-size="11" fill="#64748b">nanoton</text>
<line x1="76.0" y1="362" x2="76.0" y2="366" stroke="#334155" stroke-width="1"/>
<text x="76.0" y="380" font-family="Arial, sans-serif" font-size="10" text-anchor="middle" fill="#64748b">0</text>
<line x1="514.7" y1="362" x2="514.7" y2="366" stroke="#334155" stroke-width="1"/>
<text x="514.7" y="380" font-family="Arial, sans-serif" font-size="10" text-anchor="middle" fill="#64748b">60</text>
<line x1="946.0" y1="362" x2="946.0" y2="366" stroke="#334155" stroke-width="1"/>
<text x="946.0" y="380" font-family="Arial, sans-serif" font-size="10" text-anchor="middle" fill="#64748b">119</text>
<polyline points="76.0,172.2 83.3,141.3 90.6,174.6 97.9,180.6 105.2,192.4 112.6,121.2 119.9,164.8 127.2,180.0 134.5,166.3 141.8,160.5 149.1,168.6 156.4,134.8 163.7,135.1 171.0,136.1 178.4,152.9 185.7,152.4 193.0,160.8 200.3,176.6 207.6,188.6 214.9,170.4 222.2,160.5 229.5,170.0 236.8,117.2 244.2,161.5 251.5,165.0 258.8,165.6 266.1,137.8 273.4,185.3 280.7,174.7 288.0,108.0 295.3,145.5 302.6,136.2 309.9,137.9 317.3,139.7 324.6,184.1 331.9,157.9 339.2,178.2 346.5,138.0 353.8,172.6 361.1,179.1 368.4,168.1 375.7,163.7 383.1,92.4 390.4,175.5 397.7,307.7 405.0,346.9 412.3,347.2 419.6,345.9 426.9,348.2 434.2,239.5 441.5,340.6 448.9,344.5 456.2,342.1 463.5,345.6 470.8,345.5 478.1,345.6 485.4,325.9 492.7,345.9 500.0,350.5 507.3,342.5 514.7,339.6 522.0,347.3 529.3,344.0 536.6,344.5 543.9,331.9 551.2,342.4 558.5,345.7 565.8,340.4 573.1,347.6 580.5,338.6 587.8,336.0 595.1,343.1 602.4,341.0 609.7,345.1 617.0,351.6 624.3,347.0 631.6,345.1 638.9,348.4 646.3,342.4 653.6,345.9 660.9,338.4 668.2,331.4 675.5,340.6 682.8,341.0 690.1,328.9 697.4,337.3 704.7,333.1 712.1,344.1 719.4,337.7 726.7,332.8 734.0,340.9 741.3,341.5 748.6,340.1 755.9,343.8 763.2,342.2 770.5,350.0" fill="none" stroke="#2563eb" stroke-width="2.2" stroke-linejoin="round" stroke-linecap="round"/>
<polyline points="777.8,281.3 785.2,244.0 792.5,238.4 799.8,231.5 807.1,224.7 814.4,222.2 821.7,212.5 829.0,208.1 836.3,204.9 843.6,202.5 851.0,197.0 858.3,193.5 865.6,187.5 872.9,183.4 880.2,172.8 887.5,169.3 894.8,164.6 902.1,160.3 909.4,158.0 916.8,156.4 924.1,155.3 931.4,153.6 938.7,151.8 946.0,150.6" fill="none" stroke="#d97706" stroke-width="2.2" stroke-linejoin="round" stroke-linecap="round"/>
<line x1="76" y1="70" x2="94" y2="70" stroke="#2563eb" stroke-width="3"/>
<text x="100" y="74" font-family="Arial, sans-serif" font-size="11" fill="#0f172a">actual avg fee</text>
<line x1="228" y1="70" x2="246" y2="70" stroke="#d97706" stroke-width="3"/>
<text x="252" y="74" font-family="Arial, sans-serif" font-size="11" fill="#0f172a">forecast avg fee</text>
<text x="28" y="404" font-family="Arial, sans-serif" font-size="11" fill="#64748b">Source: hourly_features.csv, predictions.csv</text>
</svg>