<svg xmlns="http://www.w3.org/2000/svg" width="980" height="420" viewBox="0 0 980 420">
<rect width="100%" height="100%" fill="#ffffff"/>
<text x="28" y="34" font-family="Arial, sans-serif" font-size="20" font-weight="700" fill="#0f172a">Recent actual fees and 24-hour forecast</text>
<text x="28" y="56" font-family="Arial, sans-serif" font-size="12" fill="#64748b">Last 96 actual hours followed by generated forecast</text>
<line x1="76" y1="362.0" x2="946" y2="362.0" stroke="#e2e8f0" stroke-width="1"/>
<text x="68" y="366.0" font-family="Arial, sans-serif" font-size="10" text-anchor="end" fill="#64748b">1.6M</text>
<line x1="76" y1="292.0" x2="946" y2="292.0" stroke="#e2e8f0" stroke-width="1"/>
<text x="68" y="296.0" font-family="Arial, sans-serif" font-size="10" text-anchor="end" fill="#64748b">2.0M</text>
<line x1="76" y1="222.0" x2="946" y2="222.0" stroke="#e2e8f0" stroke-width="1"/>
<text x="68" y="226.0" font-family="Arial, sans-serif" font-size="10" text-anchor="end" fill="#64748b">2.4M</text>
<line x1="76" y1="152.0" x2="946" y2="152.0" stroke="#e2e8f0" stroke-width="1"/>
<text x="68" y="156.0" font-family="Arial, sans-serif" font-size="10" text-anchor="end" fill="#64748b">2.8M</text>
<line x1="76" y1="82.0" x2="946" y2="82.0" stroke="#e2e8f0" stroke-width="1"/>
<text x="68" y="86.0" font-family="Arial, sans-serif" font-size="10" text-anchor="end" fill="#64748b">3.1M</text>
<line x1="76" y1="362" x2="946" y2="362" stroke="#334155" stroke-width="1"/>
<line x1="76" y1="82" x2="76" y2="362" stroke="#334155" stroke-width="1"/>
<text x="76" y="72" font-family="Arial, sans-serif" font-size="11" fill="#64748b">nanoton</text>
<line x1="76.0" y1="362" x2="76.0" y2="366" stroke="#334155" stroke-width="1"/>
<text x="76.0" y="380" font-family="Arial, sans-serif" font-size="10" text-anchor="middle" fill="#64748b">0</text>
<line x1="514.7" y1="362" x2="514.7" y2="366" stroke="#334155" stroke-width="1"/>
<text x="514.7" y="380" font-family="Arial, sans-serif" font-size="10" text-anchor="middle" fill="#64748b">60</text>
<line x1="946.0" y1="362" x2="946.0" y2="366" stroke="#334155" stroke-width="1"/>
<text x="946.0" y="380" font-family="Arial, sans-serif" font-size="10" text-anchor="middle" fill="#64748b">119</text>
<polyline points="76.0,205.1 83.3,214.7 90.6,173.0 97.9,120.3 105.2,236.3 112.6,246.7 119.9,187.8 127.2,256.8 134.5,219.0 141.8,299.1 149.1,179.5 156.4,277.1 163.7,270.8 171.0,174.7 178.4,279.3 185.7,220.9 193.0,223.6 200.3,297.3 207.6,281.1 214.9,191.1 222.2,115.7 229.5,204.0 236.8,92.4 244.2,205.0 251.5,295.1 258.8,266.0 266.1,232.4 273.4,250.5 280.7,309.8 288.0,141.7 295.3,185.7 302.6,351.6 309.9,244.9 317.3,271.8 324.6,232.1 331.9,281.1 339.2,218.4 346.5,265.9 353.8,217.0 361.1,129.4 368.4,203.4 375.7,185.9 383.1,201.3 390.4,179.8 397.7,199.1 405.0,218.7 412.3,263.5 419.6,300.0 426.9,200.3 434.2,291.0 441.5,278.5 448.9,281.1 456.2,263.0 463.5,217.8 470.8,187.3 478.1,278.2 485.4,320.9 492.7,290.6 500.0,313.2 507.3,270.5 514.7,300.0 522.0,303.3 529.3,230.9 536.6,145.2 543.9,215.5 551.2,223.2 558.5,227.0 565.8,228.5 573.1,200.5 580.5,284.8 587.8,300.1 595.1,273.3 602.4,312.3 609.7,291.5 617.0,263.7 624.3,266.7 631.6,210.5 638.9,271.1 646.3,281.9 653.6,303.5 660.9,173.8 668.2,253.2 675.5,280.8 682.8,256.0 690.1,245.4 697.4,260.2 704.7,198.5 712.1,199.1 719.4,201.0 726.7,231.5 734.0,230.6 741.3,245.9 748.6,274.6 755.9,296.5 763.2,263.4 770.5,201.8" fill="none" stroke="#2563eb" stroke-width="2.2" stroke-linejoin="round" stroke-linecap="round"/>
<polyline points="777.8,232.0 785.2,240.0 792.5,246.8 799.8,240.5 807.1,241.0 814.4,240.5 821.7,240.5 829.0,240.5 836.3,247.3 843.6,245.6 851.0,251.9 858.3,257.0 865.6,257.0 872.9,257.0 880.2,247.7 887.5,242.5 894.8,242.5 902.1,242.0 909.4,242.0 916.8,242.0 924.1,235.7 931.4,240.0 938.7,240.5 946.0,241.0" fill="none" stroke="#d97706" stroke-width="2.2" stroke-linejoin="round" stroke-linecap="round"/>
<line x1="76" y1="70" x2="94" y2="70" stroke="#2563eb" stroke-width="3"/>
<text x="100" y="74" font-family="Arial, sans-serif" font-size="11" fill="#0f172a">actual avg fee</text>
<line x1="228" y1="70" x2="246" y2="70" stroke="#d97706" stroke-width="3"/>
<text x="252" y="74" font-family="Arial, sans-serif" font-size="11" fill="#0f172a">forecast avg fee</text>
<text x="28" y="404" font-family="Arial, sans-serif" font-size="11" fill="#64748b">Source: hourly_features.csv, predictions.csv</text>
</svg>