<svg xmlns="http://www.w3.org/2000/svg" width="980" height="420" viewBox="0 0 980 420">
<rect width="100%" height="100%" fill="#ffffff"/>
<text x="28" y="34" font-family="Arial, sans-serif" font-size="20" font-weight="700" fill="#0f172a">Recent actual fees and 24-hour forecast</text>
<text x="28" y="56" font-family="Arial, sans-serif" font-size="12" fill="#64748b">Last 96 actual hours followed by generated forecast</text>
<line x1="76" y1="362.0" x2="946" y2="362.0" stroke="#e2e8f0" stroke-width="1"/>
<text x="68" y="366.0" font-family="Arial, sans-serif" font-size="10" text-anchor="end" fill="#64748b">1.6M</text>
<line x1="76" y1="292.0" x2="946" y2="292.0" stroke="#e2e8f0" stroke-width="1"/>
<text x="68" y="296.0" font-family="Arial, sans-serif" font-size="10" text-anchor="end" fill="#64748b">2.0M</text>
<line x1="76" y1="222.0" x2="946" y2="222.0" stroke="#e2e8f0" stroke-width="1"/>
<text x="68" y="226.0" font-family="Arial, sans-serif" font-size="10" text-anchor="end" fill="#64748b">2.4M</text>
<line x1="76" y1="152.0" x2="946" y2="152.0" stroke="#e2e8f0" stroke-width="1"/>
<text x="68" y="156.0" font-family="Arial, sans-serif" font-size="10" text-anchor="end" fill="#64748b">2.8M</text>
<line x1="76" y1="82.0" x2="946" y2="82.0" stroke="#e2e8f0" stroke-width="1"/>
<text x="68" y="86.0" font-family="Arial, sans-serif" font-size="10" text-anchor="end" fill="#64748b">3.1M</text>
<line x1="76" y1="362" x2="946" y2="362" stroke="#334155" stroke-width="1"/>
<line x1="76" y1="82" x2="76" y2="362" stroke="#334155" stroke-width="1"/>
<text x="76" y="72" font-family="Arial, sans-serif" font-size="11" fill="#64748b">nanoton</text>
<line x1="76.0" y1="362" x2="76.0" y2="366" stroke="#334155" stroke-width="1"/>
<text x="76.0" y="380" font-family="Arial, sans-serif" font-size="10" text-anchor="middle" fill="#64748b">0</text>
<line x1="514.7" y1="362" x2="514.7" y2="366" stroke="#334155" stroke-width="1"/>
<text x="514.7" y="380" font-family="Arial, sans-serif" font-size="10" text-anchor="middle" fill="#64748b">60</text>
<line x1="946.0" y1="362" x2="946.0" y2="366" stroke="#334155" stroke-width="1"/>
<text x="946.0" y="380" font-family="Arial, sans-serif" font-size="10" text-anchor="middle" fill="#64748b">119</text>
<polyline points="76.0,219.0 83.3,226.9 90.6,145.1 97.9,210.7 105.2,217.2 112.6,252.2 119.9,246.2 127.2,281.1 134.5,204.9 141.8,199.5 149.1,237.0 156.4,155.9 163.7,212.6 171.0,200.0 178.4,200.0 185.7,197.1 193.0,218.3 200.3,234.8 207.6,205.1 214.9,214.7 222.2,173.0 229.5,120.3 236.8,236.3 244.2,246.7 251.5,187.8 258.8,256.8 266.1,219.0 273.4,299.1 280.7,179.5 288.0,277.1 295.3,270.8 302.6,174.7 309.9,279.3 317.3,220.9 324.6,223.6 331.9,297.3 339.2,281.1 346.5,191.1 353.8,115.7 361.1,204.0 368.4,92.4 375.7,205.0 383.1,295.1 390.4,266.0 397.7,232.4 405.0,250.5 412.3,309.8 419.6,141.7 426.9,185.7 434.2,351.6 441.5,244.9 448.9,271.8 456.2,232.1 463.5,281.1 470.8,218.4 478.1,265.9 485.4,217.0 492.7,129.4 500.0,203.4 507.3,185.9 514.7,201.3 522.0,179.8 529.3,199.1 536.6,218.7 543.9,263.5 551.2,300.0 558.5,200.3 565.8,291.0 573.1,278.5 580.5,281.1 587.8,263.0 595.1,217.8 602.4,187.3 609.7,278.2 617.0,320.9 624.3,290.6 631.6,313.2 638.9,270.5 646.3,300.0 653.6,303.3 660.9,230.9 668.2,145.2 675.5,215.5 682.8,223.2 690.1,227.0 697.4,228.5 704.7,200.5 712.1,284.8 719.4,300.1 726.7,273.3 734.0,312.3 741.3,291.5 748.6,263.7 755.9,266.7 763.2,210.5 770.5,277.3" fill="none" stroke="#2563eb" stroke-width="2.2" stroke-linejoin="round" stroke-linecap="round"/>
<polyline points="777.8,248.4 785.2,246.0 792.5,247.9 799.8,247.7 807.1,254.3 814.4,256.8 821.7,256.6 829.0,256.8 836.3,246.1 843.6,243.8 851.0,243.6 858.3,243.6 865.6,243.6 872.9,237.7 880.2,236.6 887.5,241.0 894.8,241.6 902.1,241.6 909.4,241.6 916.8,241.4 924.1,247.9 931.4,241.4 938.7,242.9 946.0,241.6" fill="none" stroke="#d97706" stroke-width="2.2" stroke-linejoin="round" stroke-linecap="round"/>
<line x1="76" y1="70" x2="94" y2="70" stroke="#2563eb" stroke-width="3"/>
<text x="100" y="74" font-family="Arial, sans-serif" font-size="11" fill="#0f172a">actual avg fee</text>
<line x1="228" y1="70" x2="246" y2="70" stroke="#d97706" stroke-width="3"/>
<text x="252" y="74" font-family="Arial, sans-serif" font-size="11" fill="#0f172a">forecast avg fee</text>
<text x="28" y="404" font-family="Arial, sans-serif" font-size="11" fill="#64748b">Source: hourly_features.csv, predictions.csv</text>
</svg>