<svg xmlns="http://www.w3.org/2000/svg" width="980" height="420" viewBox="0 0 980 420">
<rect width="100%" height="100%" fill="#ffffff"/>
<text x="28" y="34" font-family="Arial, sans-serif" font-size="20" font-weight="700" fill="#0f172a">Recent actual fees and 24-hour forecast</text>
<text x="28" y="56" font-family="Arial, sans-serif" font-size="12" fill="#64748b">Last 96 actual hours followed by generated forecast</text>
<line x1="76" y1="362.0" x2="946" y2="362.0" stroke="#e2e8f0" stroke-width="1"/>
<text x="68" y="366.0" font-family="Arial, sans-serif" font-size="10" text-anchor="end" fill="#64748b">1.9M</text>
<line x1="76" y1="292.0" x2="946" y2="292.0" stroke="#e2e8f0" stroke-width="1"/>
<text x="68" y="296.0" font-family="Arial, sans-serif" font-size="10" text-anchor="end" fill="#64748b">2.3M</text>
<line x1="76" y1="222.0" x2="946" y2="222.0" stroke="#e2e8f0" stroke-width="1"/>
<text x="68" y="226.0" font-family="Arial, sans-serif" font-size="10" text-anchor="end" fill="#64748b">2.6M</text>
<line x1="76" y1="152.0" x2="946" y2="152.0" stroke="#e2e8f0" stroke-width="1"/>
<text x="68" y="156.0" font-family="Arial, sans-serif" font-size="10" text-anchor="end" fill="#64748b">3.0M</text>
<line x1="76" y1="82.0" x2="946" y2="82.0" stroke="#e2e8f0" stroke-width="1"/>
<text x="68" y="86.0" font-family="Arial, sans-serif" font-size="10" text-anchor="end" fill="#64748b">3.3M</text>
<line x1="76" y1="362" x2="946" y2="362" stroke="#334155" stroke-width="1"/>
<line x1="76" y1="82" x2="76" y2="362" stroke="#334155" stroke-width="1"/>
<text x="76" y="72" font-family="Arial, sans-serif" font-size="11" fill="#64748b">nanoton</text>
<line x1="76.0" y1="362" x2="76.0" y2="366" stroke="#334155" stroke-width="1"/>
<text x="76.0" y="380" font-family="Arial, sans-serif" font-size="10" text-anchor="middle" fill="#64748b">0</text>
<line x1="514.7" y1="362" x2="514.7" y2="366" stroke="#334155" stroke-width="1"/>
<text x="514.7" y="380" font-family="Arial, sans-serif" font-size="10" text-anchor="middle" fill="#64748b">60</text>
<line x1="946.0" y1="362" x2="946.0" y2="366" stroke="#334155" stroke-width="1"/>
<text x="946.0" y="380" font-family="Arial, sans-serif" font-size="10" text-anchor="middle" fill="#64748b">119</text>
<polyline points="76.0,337.7 83.3,296.3 90.6,292.5 97.9,334.8 105.2,251.8 112.6,304.9 119.9,316.8 127.2,329.4 134.5,281.0 141.8,297.2 149.1,270.7 156.4,277.6 163.7,264.4 171.0,295.8 178.4,252.8 185.7,227.0 193.0,148.8 200.3,277.9 207.6,234.6 214.9,279.1 222.2,278.2 229.5,270.7 236.8,209.3 244.2,220.7 251.5,273.0 258.8,266.5 266.1,266.9 273.4,275.7 280.7,184.3 288.0,257.7 295.3,264.9 302.6,304.0 309.9,297.2 317.3,336.3 324.6,251.1 331.9,245.1 339.2,287.0 346.5,196.5 353.8,259.8 361.1,245.7 368.4,245.7 375.7,242.4 383.1,266.2 390.4,284.5 397.7,251.4 405.0,262.1 412.3,215.6 419.6,156.7 426.9,286.2 434.2,297.8 441.5,283.0 448.9,312.7 456.2,236.9 463.5,326.7 470.8,255.1 478.1,248.8 485.4,289.5 492.7,193.8 500.0,303.2 507.3,274.6 514.7,248.8 522.0,275.9 529.3,272.1 536.6,203.8 543.9,226.8 551.2,208.3 558.5,92.4 565.8,266.2 573.1,296.9 580.5,289.4 587.8,172.4 595.1,276.5 602.4,307.3 609.7,140.9 617.0,199.9 624.3,351.6 631.6,229.0 638.9,278.1 646.3,304.1 653.6,279.6 660.9,277.5 668.2,269.7 675.5,256.9 682.8,197.8 690.1,183.5 697.4,190.7 704.7,244.0 712.1,164.6 719.4,208.7 726.7,234.8 734.0,267.0 741.3,252.2 748.6,120.8 755.9,315.3 763.2,315.7 770.5,270.6" fill="none" stroke="#2563eb" stroke-width="2.2" stroke-linejoin="round" stroke-linecap="round"/>
<polyline points="777.8,274.8 785.2,273.6 792.5,273.6 799.8,275.9 807.1,284.7 814.4,293.6 821.7,305.6 829.0,309.9 836.3,310.4 843.6,310.6 851.0,297.2 858.3,294.6 865.6,294.6 872.9,294.3 880.2,287.0 887.5,288.8 894.8,287.0 902.1,293.0 909.4,293.6 916.8,293.6 924.1,293.6 931.4,291.9 938.7,299.5 946.0,293.6" fill="none" stroke="#d97706" stroke-width="2.2" stroke-linejoin="round" stroke-linecap="round"/>
<line x1="76" y1="70" x2="94" y2="70" stroke="#2563eb" stroke-width="3"/>
<text x="100" y="74" font-family="Arial, sans-serif" font-size="11" fill="#0f172a">actual avg fee</text>
<line x1="228" y1="70" x2="246" y2="70" stroke="#d97706" stroke-width="3"/>
<text x="252" y="74" font-family="Arial, sans-serif" font-size="11" fill="#0f172a">forecast avg fee</text>
<text x="28" y="404" font-family="Arial, sans-serif" font-size="11" fill="#64748b">Source: hourly_features.csv, predictions.csv</text>
</svg>