<svg xmlns="http://www.w3.org/2000/svg" width="980" height="420" viewBox="0 0 980 420">
<rect width="100%" height="100%" fill="#ffffff"/>
<text x="28" y="34" font-family="Arial, sans-serif" font-size="20" font-weight="700" fill="#0f172a">Recent actual fees and 24-hour forecast</text>
<text x="28" y="56" font-family="Arial, sans-serif" font-size="12" fill="#64748b">Last 96 actual hours followed by generated forecast</text>
<line x1="76" y1="362.0" x2="946" y2="362.0" stroke="#e2e8f0" stroke-width="1"/>
<text x="68" y="366.0" font-family="Arial, sans-serif" font-size="10" text-anchor="end" fill="#64748b">346K</text>
<line x1="76" y1="292.0" x2="946" y2="292.0" stroke="#e2e8f0" stroke-width="1"/>
<text x="68" y="296.0" font-family="Arial, sans-serif" font-size="10" text-anchor="end" fill="#64748b">830K</text>
<line x1="76" y1="222.0" x2="946" y2="222.0" stroke="#e2e8f0" stroke-width="1"/>
<text x="68" y="226.0" font-family="Arial, sans-serif" font-size="10" text-anchor="end" fill="#64748b">1.3M</text>
<line x1="76" y1="152.0" x2="946" y2="152.0" stroke="#e2e8f0" stroke-width="1"/>
<text x="68" y="156.0" font-family="Arial, sans-serif" font-size="10" text-anchor="end" fill="#64748b">1.8M</text>
<line x1="76" y1="82.0" x2="946" y2="82.0" stroke="#e2e8f0" stroke-width="1"/>
<text x="68" y="86.0" font-family="Arial, sans-serif" font-size="10" text-anchor="end" fill="#64748b">2.3M</text>
<line x1="76" y1="362" x2="946" y2="362" stroke="#334155" stroke-width="1"/>
<line x1="76" y1="82" x2="76" y2="362" stroke="#334155" stroke-width="1"/>
<text x="76" y="72" font-family="Arial, sans-serif" font-size="11" fill="#64748b">nanoton</text>
<line x1="76.0" y1="362" x2="76.0" y2="366" stroke="#334155" stroke-width="1"/>
<text x="76.0" y="380" font-family="Arial, sans-serif" font-size="10" text-anchor="middle" fill="#64748b">0</text>
<line x1="514.7" y1="362" x2="514.7" y2="366" stroke="#334155" stroke-width="1"/>
<text x="514.7" y="380" font-family="Arial, sans-serif" font-size="10" text-anchor="middle" fill="#64748b">60</text>
<line x1="946.0" y1="362" x2="946.0" y2="366" stroke="#334155" stroke-width="1"/>
<text x="946.0" y="380" font-family="Arial, sans-serif" font-size="10" text-anchor="middle" fill="#64748b">119</text>
<polyline points="76.0,330.7 83.3,343.9 90.6,344.5 97.9,327.2 105.2,339.1 112.6,333.2 119.9,348.9 127.2,339.7 134.5,332.7 141.8,344.4 149.1,345.3 156.4,343.2 163.7,348.5 171.0,346.2 178.4,348.0 185.7,351.6 193.0,344.8 200.3,335.5 207.6,338.8 214.9,345.1 222.2,350.6 229.5,351.5 236.8,350.2 244.2,349.6 251.5,345.7 258.8,336.9 266.1,335.5 273.4,339.9 280.7,333.4 288.0,338.0 295.3,336.2 302.6,347.1 309.9,339.3 317.3,343.3 324.6,338.9 331.9,347.6 339.2,335.8 346.5,333.2 353.8,341.5 361.1,339.1 368.4,336.0 375.7,320.1 383.1,236.0 390.4,323.5 397.7,329.8 405.0,327.6 412.3,336.1 419.6,318.9 426.9,328.2 434.2,321.5 441.5,326.8 448.9,286.5 456.2,331.8 463.5,312.3 470.8,313.2 478.1,320.9 485.4,325.2 492.7,320.2 500.0,317.0 507.3,320.9 514.7,326.8 522.0,324.2 529.3,327.0 536.6,328.1 543.9,315.9 551.2,321.4 558.5,319.9 565.8,309.3 573.1,322.7 580.5,329.5 587.8,333.2 595.1,344.3 602.4,311.1 609.7,333.2 617.0,321.3 624.3,321.8 631.6,311.4 638.9,310.8 646.3,332.3 653.6,324.2 660.9,323.7 668.2,321.5 675.5,327.1 682.8,331.0 690.1,335.4 697.4,324.3 704.7,320.2 712.1,330.1 719.4,337.2 726.7,329.4 734.0,317.3 741.3,314.1 748.6,346.4 755.9,333.2 763.2,328.2 770.5,330.3" fill="none" stroke="#2563eb" stroke-width="2.2" stroke-linejoin="round" stroke-linecap="round"/>
<polyline points="777.8,224.2 785.2,199.3 792.5,195.3 799.8,179.6 807.1,171.0 814.4,158.3 821.7,145.6 829.0,137.0 836.3,130.9 843.6,126.0 851.0,122.6 858.3,119.8 865.6,118.3 872.9,117.5 880.2,117.5 887.5,115.4 894.8,112.9 902.1,111.9 909.4,109.4 916.8,105.9 924.1,105.2 931.4,99.5 938.7,97.3 946.0,92.4" fill="none" stroke="#d97706" stroke-width="2.2" stroke-linejoin="round" stroke-linecap="round"/>
<line x1="76" y1="70" x2="94" y2="70" stroke="#2563eb" stroke-width="3"/>
<text x="100" y="74" font-family="Arial, sans-serif" font-size="11" fill="#0f172a">actual avg fee</text>
<line x1="228" y1="70" x2="246" y2="70" stroke="#d97706" stroke-width="3"/>
<text x="252" y="74" font-family="Arial, sans-serif" font-size="11" fill="#0f172a">forecast avg fee</text>
<text x="28" y="404" font-family="Arial, sans-serif" font-size="11" fill="#64748b">Source: hourly_features.csv, predictions.csv</text>
</svg>