<svg xmlns="http://www.w3.org/2000/svg" width="980" height="420" viewBox="0 0 980 420">
<rect width="100%" height="100%" fill="#ffffff"/>
<text x="28" y="34" font-family="Arial, sans-serif" font-size="20" font-weight="700" fill="#0f172a">Recent actual fees and 24-hour forecast</text>
<text x="28" y="56" font-family="Arial, sans-serif" font-size="12" fill="#64748b">Last 96 actual hours followed by generated forecast</text>
<line x1="76" y1="362.0" x2="946" y2="362.0" stroke="#e2e8f0" stroke-width="1"/>
<text x="68" y="366.0" font-family="Arial, sans-serif" font-size="10" text-anchor="end" fill="#64748b">1.6M</text>
<line x1="76" y1="292.0" x2="946" y2="292.0" stroke="#e2e8f0" stroke-width="1"/>
<text x="68" y="296.0" font-family="Arial, sans-serif" font-size="10" text-anchor="end" fill="#64748b">2.0M</text>
<line x1="76" y1="222.0" x2="946" y2="222.0" stroke="#e2e8f0" stroke-width="1"/>
<text x="68" y="226.0" font-family="Arial, sans-serif" font-size="10" text-anchor="end" fill="#64748b">2.4M</text>
<line x1="76" y1="152.0" x2="946" y2="152.0" stroke="#e2e8f0" stroke-width="1"/>
<text x="68" y="156.0" font-family="Arial, sans-serif" font-size="10" text-anchor="end" fill="#64748b">2.8M</text>
<line x1="76" y1="82.0" x2="946" y2="82.0" stroke="#e2e8f0" stroke-width="1"/>
<text x="68" y="86.0" font-family="Arial, sans-serif" font-size="10" text-anchor="end" fill="#64748b">3.1M</text>
<line x1="76" y1="362" x2="946" y2="362" stroke="#334155" stroke-width="1"/>
<line x1="76" y1="82" x2="76" y2="362" stroke="#334155" stroke-width="1"/>
<text x="76" y="72" font-family="Arial, sans-serif" font-size="11" fill="#64748b">nanoton</text>
<line x1="76.0" y1="362" x2="76.0" y2="366" stroke="#334155" stroke-width="1"/>
<text x="76.0" y="380" font-family="Arial, sans-serif" font-size="10" text-anchor="middle" fill="#64748b">0</text>
<line x1="514.7" y1="362" x2="514.7" y2="366" stroke="#334155" stroke-width="1"/>
<text x="514.7" y="380" font-family="Arial, sans-serif" font-size="10" text-anchor="middle" fill="#64748b">60</text>
<line x1="946.0" y1="362" x2="946.0" y2="366" stroke="#334155" stroke-width="1"/>
<text x="946.0" y="380" font-family="Arial, sans-serif" font-size="10" text-anchor="middle" fill="#64748b">119</text>
<polyline points="76.0,234.8 83.3,205.1 90.6,214.7 97.9,173.0 105.2,120.3 112.6,236.3 119.9,246.7 127.2,187.8 134.5,256.8 141.8,219.0 149.1,299.1 156.4,179.5 163.7,277.1 171.0,270.8 178.4,174.7 185.7,279.3 193.0,220.9 200.3,223.6 207.6,297.3 214.9,281.1 222.2,191.1 229.5,115.7 236.8,204.0 244.2,92.4 251.5,205.0 258.8,295.1 266.1,266.0 273.4,232.4 280.7,250.5 288.0,309.8 295.3,141.7 302.6,185.7 309.9,351.6 317.3,244.9 324.6,271.8 331.9,232.1 339.2,281.1 346.5,218.4 353.8,265.9 361.1,217.0 368.4,129.4 375.7,203.4 383.1,185.9 390.4,201.3 397.7,179.8 405.0,199.1 412.3,218.7 419.6,263.5 426.9,300.0 434.2,200.3 441.5,291.0 448.9,278.5 456.2,281.1 463.5,263.0 470.8,217.8 478.1,187.3 485.4,278.2 492.7,320.9 500.0,290.6 507.3,313.2 514.7,270.5 522.0,300.0 529.3,303.3 536.6,230.9 543.9,145.2 551.2,215.5 558.5,223.2 565.8,227.0 573.1,228.5 580.5,200.5 587.8,284.8 595.1,300.1 602.4,273.3 609.7,312.3 617.0,291.5 624.3,263.7 631.6,266.7 638.9,210.5 646.3,271.1 653.6,281.9 660.9,303.5 668.2,173.8 675.5,253.2 682.8,280.8 690.1,256.0 697.4,245.4 704.7,260.2 712.1,198.5 719.4,199.1 726.7,201.0 734.0,231.5 741.3,230.6 748.6,245.9 755.9,274.6 763.2,296.5 770.5,265.2" fill="none" stroke="#2563eb" stroke-width="2.2" stroke-linejoin="round" stroke-linecap="round"/>
<polyline points="777.8,260.9 785.2,248.8 792.5,241.4 799.8,247.9 807.1,241.4 814.4,242.9 821.7,241.6 829.0,241.6 836.3,241.6 843.6,249.3 851.0,250.1 858.3,256.8 865.6,256.8 872.9,256.6 880.2,256.8 887.5,246.1 894.8,243.8 902.1,243.8 909.4,242.2 916.8,235.7 924.1,237.3 931.4,235.3 938.7,241.0 946.0,241.6" fill="none" stroke="#d97706" stroke-width="2.2" stroke-linejoin="round" stroke-linecap="round"/>
<line x1="76" y1="70" x2="94" y2="70" stroke="#2563eb" stroke-width="3"/>
<text x="100" y="74" font-family="Arial, sans-serif" font-size="11" fill="#0f172a">actual avg fee</text>
<line x1="228" y1="70" x2="246" y2="70" stroke="#d97706" stroke-width="3"/>
<text x="252" y="74" font-family="Arial, sans-serif" font-size="11" fill="#0f172a">forecast avg fee</text>
<text x="28" y="404" font-family="Arial, sans-serif" font-size="11" fill="#64748b">Source: hourly_features.csv, predictions.csv</text>
</svg>