<svg xmlns="http://www.w3.org/2000/svg" width="980" height="420" viewBox="0 0 980 420">
<rect width="100%" height="100%" fill="#ffffff"/>
<text x="28" y="34" font-family="Arial, sans-serif" font-size="20" font-weight="700" fill="#0f172a">Recent actual fees and 24-hour forecast</text>
<text x="28" y="56" font-family="Arial, sans-serif" font-size="12" fill="#64748b">Last 96 actual hours followed by generated forecast</text>
<line x1="76" y1="362.0" x2="946" y2="362.0" stroke="#e2e8f0" stroke-width="1"/>
<text x="68" y="366.0" font-family="Arial, sans-serif" font-size="10" text-anchor="end" fill="#64748b">1.6M</text>
<line x1="76" y1="292.0" x2="946" y2="292.0" stroke="#e2e8f0" stroke-width="1"/>
<text x="68" y="296.0" font-family="Arial, sans-serif" font-size="10" text-anchor="end" fill="#64748b">2.0M</text>
<line x1="76" y1="222.0" x2="946" y2="222.0" stroke="#e2e8f0" stroke-width="1"/>
<text x="68" y="226.0" font-family="Arial, sans-serif" font-size="10" text-anchor="end" fill="#64748b">2.4M</text>
<line x1="76" y1="152.0" x2="946" y2="152.0" stroke="#e2e8f0" stroke-width="1"/>
<text x="68" y="156.0" font-family="Arial, sans-serif" font-size="10" text-anchor="end" fill="#64748b">2.8M</text>
<line x1="76" y1="82.0" x2="946" y2="82.0" stroke="#e2e8f0" stroke-width="1"/>
<text x="68" y="86.0" font-family="Arial, sans-serif" font-size="10" text-anchor="end" fill="#64748b">3.1M</text>
<line x1="76" y1="362" x2="946" y2="362" stroke="#334155" stroke-width="1"/>
<line x1="76" y1="82" x2="76" y2="362" stroke="#334155" stroke-width="1"/>
<text x="76" y="72" font-family="Arial, sans-serif" font-size="11" fill="#64748b">nanoton</text>
<line x1="76.0" y1="362" x2="76.0" y2="366" stroke="#334155" stroke-width="1"/>
<text x="76.0" y="380" font-family="Arial, sans-serif" font-size="10" text-anchor="middle" fill="#64748b">0</text>
<line x1="514.7" y1="362" x2="514.7" y2="366" stroke="#334155" stroke-width="1"/>
<text x="514.7" y="380" font-family="Arial, sans-serif" font-size="10" text-anchor="middle" fill="#64748b">60</text>
<line x1="946.0" y1="362" x2="946.0" y2="366" stroke="#334155" stroke-width="1"/>
<text x="946.0" y="380" font-family="Arial, sans-serif" font-size="10" text-anchor="middle" fill="#64748b">119</text>
<polyline points="76.0,246.2 83.3,281.1 90.6,204.9 97.9,199.5 105.2,237.0 112.6,155.9 119.9,212.6 127.2,200.0 134.5,200.0 141.8,197.1 149.1,218.3 156.4,234.8 163.7,205.1 171.0,214.7 178.4,173.0 185.7,120.3 193.0,236.3 200.3,246.7 207.6,187.8 214.9,256.8 222.2,219.0 229.5,299.1 236.8,179.5 244.2,277.1 251.5,270.8 258.8,174.7 266.1,279.3 273.4,220.9 280.7,223.6 288.0,297.3 295.3,281.1 302.6,191.1 309.9,115.7 317.3,204.0 324.6,92.4 331.9,205.0 339.2,295.1 346.5,266.0 353.8,232.4 361.1,250.5 368.4,309.8 375.7,141.7 383.1,185.7 390.4,351.6 397.7,244.9 405.0,271.8 412.3,232.1 419.6,281.1 426.9,218.4 434.2,265.9 441.5,217.0 448.9,129.4 456.2,203.4 463.5,185.9 470.8,201.3 478.1,179.8 485.4,199.1 492.7,218.7 500.0,263.5 507.3,300.0 514.7,200.3 522.0,291.0 529.3,278.5 536.6,281.1 543.9,263.0 551.2,217.8 558.5,187.3 565.8,278.2 573.1,320.9 580.5,290.6 587.8,313.2 595.1,270.5 602.4,300.0 609.7,303.3 617.0,230.9 624.3,145.2 631.6,215.5 638.9,223.2 646.3,227.0 653.6,228.5 660.9,200.5 668.2,284.8 675.5,300.1 682.8,273.3 690.1,312.3 697.4,291.5 704.7,263.7 712.1,266.7 719.4,210.5 726.7,271.1 734.0,281.9 741.3,303.5 748.6,173.8 755.9,253.2 763.2,280.8 770.5,241.7" fill="none" stroke="#2563eb" stroke-width="2.2" stroke-linejoin="round" stroke-linecap="round"/>
<polyline points="777.8,250.6 785.2,256.8 792.5,246.1 799.8,243.8 807.1,243.6 814.4,243.6 821.7,243.6 829.0,237.7 836.3,236.6 843.6,241.0 851.0,241.6 858.3,241.6 865.6,241.6 872.9,241.4 880.2,247.9 887.5,241.4 894.8,242.9 902.1,241.6 909.4,241.6 916.8,241.6 924.1,249.3 931.4,250.1 938.7,256.8 946.0,256.8" fill="none" stroke="#d97706" stroke-width="2.2" stroke-linejoin="round" stroke-linecap="round"/>
<line x1="76" y1="70" x2="94" y2="70" stroke="#2563eb" stroke-width="3"/>
<text x="100" y="74" font-family="Arial, sans-serif" font-size="11" fill="#0f172a">actual avg fee</text>
<line x1="228" y1="70" x2="246" y2="70" stroke="#d97706" stroke-width="3"/>
<text x="252" y="74" font-family="Arial, sans-serif" font-size="11" fill="#0f172a">forecast avg fee</text>
<text x="28" y="404" font-family="Arial, sans-serif" font-size="11" fill="#64748b">Source: hourly_features.csv, predictions.csv</text>
</svg>