<svg xmlns="http://www.w3.org/2000/svg" width="980" height="420" viewBox="0 0 980 420">
<rect width="100%" height="100%" fill="#ffffff"/>
<text x="28" y="34" font-family="Arial, sans-serif" font-size="20" font-weight="700" fill="#0f172a">Recent actual fees and 24-hour forecast</text>
<text x="28" y="56" font-family="Arial, sans-serif" font-size="12" fill="#64748b">Last 96 actual hours followed by generated forecast</text>
<line x1="76" y1="362.0" x2="946" y2="362.0" stroke="#e2e8f0" stroke-width="1"/>
<text x="68" y="366.0" font-family="Arial, sans-serif" font-size="10" text-anchor="end" fill="#64748b">270K</text>
<line x1="76" y1="292.0" x2="946" y2="292.0" stroke="#e2e8f0" stroke-width="1"/>
<text x="68" y="296.0" font-family="Arial, sans-serif" font-size="10" text-anchor="end" fill="#64748b">962K</text>
<line x1="76" y1="222.0" x2="946" y2="222.0" stroke="#e2e8f0" stroke-width="1"/>
<text x="68" y="226.0" font-family="Arial, sans-serif" font-size="10" text-anchor="end" fill="#64748b">1.7M</text>
<line x1="76" y1="152.0" x2="946" y2="152.0" stroke="#e2e8f0" stroke-width="1"/>
<text x="68" y="156.0" font-family="Arial, sans-serif" font-size="10" text-anchor="end" fill="#64748b">2.3M</text>
<line x1="76" y1="82.0" x2="946" y2="82.0" stroke="#e2e8f0" stroke-width="1"/>
<text x="68" y="86.0" font-family="Arial, sans-serif" font-size="10" text-anchor="end" fill="#64748b">3.0M</text>
<line x1="76" y1="362" x2="946" y2="362" stroke="#334155" stroke-width="1"/>
<line x1="76" y1="82" x2="76" y2="362" stroke="#334155" stroke-width="1"/>
<text x="76" y="72" font-family="Arial, sans-serif" font-size="11" fill="#64748b">nanoton</text>
<line x1="76.0" y1="362" x2="76.0" y2="366" stroke="#334155" stroke-width="1"/>
<text x="76.0" y="380" font-family="Arial, sans-serif" font-size="10" text-anchor="middle" fill="#64748b">0</text>
<line x1="514.7" y1="362" x2="514.7" y2="366" stroke="#334155" stroke-width="1"/>
<text x="514.7" y="380" font-family="Arial, sans-serif" font-size="10" text-anchor="middle" fill="#64748b">60</text>
<line x1="946.0" y1="362" x2="946.0" y2="366" stroke="#334155" stroke-width="1"/>
<text x="946.0" y="380" font-family="Arial, sans-serif" font-size="10" text-anchor="middle" fill="#64748b">119</text>
<polyline points="76.0,190.9 83.3,135.9 90.6,186.0 97.9,179.1 105.2,180.5 112.6,170.6 119.9,145.6 127.2,128.8 134.5,178.9 141.8,202.5 149.1,185.7 156.4,198.2 163.7,174.7 171.0,190.9 178.4,192.7 185.7,152.8 193.0,105.6 200.3,144.3 207.6,148.6 214.9,150.7 222.2,151.5 229.5,136.1 236.8,182.5 244.2,191.0 251.5,176.2 258.8,197.8 266.1,186.2 273.4,170.9 280.7,172.6 288.0,141.5 295.3,175.0 302.6,181.0 309.9,192.9 317.3,121.4 324.6,165.2 331.9,180.4 339.2,166.6 346.5,160.8 353.8,169.0 361.1,134.9 368.4,135.3 375.7,136.3 383.1,153.1 390.4,152.7 397.7,161.1 405.0,177.0 412.3,189.0 419.6,170.7 426.9,160.8 434.2,170.3 441.5,117.3 448.9,161.9 456.2,165.4 463.5,165.9 470.8,138.0 478.1,185.7 485.4,175.0 492.7,108.1 500.0,145.8 507.3,136.4 514.7,138.1 522.0,139.9 529.3,184.6 536.6,158.2 543.9,178.6 551.2,138.2 558.5,173.0 565.8,179.5 573.1,168.5 580.5,164.0 587.8,92.4 595.1,175.8 602.4,308.6 609.7,348.0 617.0,348.3 624.3,347.0 631.6,349.4 638.9,240.1 646.3,341.7 653.6,345.6 660.9,343.2 668.2,346.8 675.5,346.6 682.8,346.7 690.1,327.0 697.4,347.1 704.7,351.6 712.1,343.6 719.4,340.7 726.7,348.4 734.0,345.1 741.3,345.6 748.6,333.0 755.9,343.5 763.2,346.8 770.5,340.5" fill="none" stroke="#2563eb" stroke-width="2.2" stroke-linejoin="round" stroke-linecap="round"/>
<polyline points="777.8,278.1 785.2,237.8 792.5,230.1 799.8,225.7 807.1,219.6 814.4,217.3 821.7,209.3 829.0,202.8 836.3,198.5 843.6,197.5 851.0,190.8 858.3,188.1 865.6,186.9 872.9,185.7 880.2,181.8 887.5,180.4 894.8,174.2 902.1,169.4 909.4,164.3 916.8,161.7 924.1,157.2 931.4,152.5 938.7,149.4 946.0,147.3" fill="none" stroke="#d97706" stroke-width="2.2" stroke-linejoin="round" stroke-linecap="round"/>
<line x1="76" y1="70" x2="94" y2="70" stroke="#2563eb" stroke-width="3"/>
<text x="100" y="74" font-family="Arial, sans-serif" font-size="11" fill="#0f172a">actual avg fee</text>
<line x1="228" y1="70" x2="246" y2="70" stroke="#d97706" stroke-width="3"/>
<text x="252" y="74" font-family="Arial, sans-serif" font-size="11" fill="#0f172a">forecast avg fee</text>
<text x="28" y="404" font-family="Arial, sans-serif" font-size="11" fill="#64748b">Source: hourly_features.csv, predictions.csv</text>
</svg>