<svg xmlns="http://www.w3.org/2000/svg" width="980" height="420" viewBox="0 0 980 420">
<rect width="100%" height="100%" fill="#ffffff"/>
<text x="28" y="34" font-family="Arial, sans-serif" font-size="20" font-weight="700" fill="#0f172a">Recent actual fees and 24-hour forecast</text>
<text x="28" y="56" font-family="Arial, sans-serif" font-size="12" fill="#64748b">Last 96 actual hours followed by generated forecast</text>
<line x1="76" y1="362.0" x2="946" y2="362.0" stroke="#e2e8f0" stroke-width="1"/>
<text x="68" y="366.0" font-family="Arial, sans-serif" font-size="10" text-anchor="end" fill="#64748b">305K</text>
<line x1="76" y1="292.0" x2="946" y2="292.0" stroke="#e2e8f0" stroke-width="1"/>
<text x="68" y="296.0" font-family="Arial, sans-serif" font-size="10" text-anchor="end" fill="#64748b">987K</text>
<line x1="76" y1="222.0" x2="946" y2="222.0" stroke="#e2e8f0" stroke-width="1"/>
<text x="68" y="226.0" font-family="Arial, sans-serif" font-size="10" text-anchor="end" fill="#64748b">1.7M</text>
<line x1="76" y1="152.0" x2="946" y2="152.0" stroke="#e2e8f0" stroke-width="1"/>
<text x="68" y="156.0" font-family="Arial, sans-serif" font-size="10" text-anchor="end" fill="#64748b">2.4M</text>
<line x1="76" y1="82.0" x2="946" y2="82.0" stroke="#e2e8f0" stroke-width="1"/>
<text x="68" y="86.0" font-family="Arial, sans-serif" font-size="10" text-anchor="end" fill="#64748b">3.0M</text>
<line x1="76" y1="362" x2="946" y2="362" stroke="#334155" stroke-width="1"/>
<line x1="76" y1="82" x2="76" y2="362" stroke="#334155" stroke-width="1"/>
<text x="76" y="72" font-family="Arial, sans-serif" font-size="11" fill="#64748b">nanoton</text>
<line x1="76.0" y1="362" x2="76.0" y2="366" stroke="#334155" stroke-width="1"/>
<text x="76.0" y="380" font-family="Arial, sans-serif" font-size="10" text-anchor="middle" fill="#64748b">0</text>
<line x1="514.7" y1="362" x2="514.7" y2="366" stroke="#334155" stroke-width="1"/>
<text x="514.7" y="380" font-family="Arial, sans-serif" font-size="10" text-anchor="middle" fill="#64748b">60</text>
<line x1="946.0" y1="362" x2="946.0" y2="366" stroke="#334155" stroke-width="1"/>
<text x="946.0" y="380" font-family="Arial, sans-serif" font-size="10" text-anchor="middle" fill="#64748b">119</text>
<polyline points="76.0,164.6 83.3,197.7 90.6,103.8 97.9,128.3 105.2,221.1 112.6,161.4 119.9,176.5 127.2,154.3 134.5,181.7 141.8,146.6 149.1,173.2 156.4,145.8 163.7,96.9 171.0,138.3 178.4,128.5 185.7,137.0 193.0,125.1 200.3,135.8 207.6,146.8 214.9,171.8 222.2,192.2 229.5,136.5 236.8,187.2 244.2,180.2 251.5,181.6 258.8,171.6 266.1,146.3 273.4,129.3 280.7,180.1 288.0,203.9 295.3,186.9 302.6,199.6 309.9,175.7 317.3,192.2 324.6,194.0 331.9,153.6 339.2,105.7 346.5,145.0 353.8,149.3 361.1,151.4 368.4,152.3 375.7,136.6 383.1,183.7 390.4,192.3 397.7,177.3 405.0,199.1 412.3,187.5 419.6,171.9 426.9,173.6 434.2,142.2 441.5,176.0 448.9,182.1 456.2,194.2 463.5,121.7 470.8,166.1 478.1,181.5 485.4,167.6 492.7,161.7 500.0,170.0 507.3,135.5 514.7,135.8 522.0,136.9 529.3,153.9 536.6,153.4 543.9,162.0 551.2,178.0 558.5,190.3 565.8,171.7 573.1,161.7 580.5,171.3 587.8,117.6 595.1,162.8 602.4,166.3 609.7,166.8 617.0,138.6 624.3,187.0 631.6,176.1 638.9,108.3 646.3,146.5 653.6,137.0 660.9,138.7 668.2,140.5 675.5,185.7 682.8,159.0 690.1,179.7 697.4,138.8 704.7,174.0 712.1,180.6 719.4,169.4 726.7,164.9 734.0,92.4 741.3,176.9 748.6,311.4 755.9,351.3 763.2,351.6 770.5,351.2" fill="none" stroke="#2563eb" stroke-width="2.2" stroke-linejoin="round" stroke-linecap="round"/>
<polyline points="777.8,173.0 785.2,164.9 792.5,164.8 799.8,164.2 807.1,164.2 814.4,167.0 821.7,167.7 829.0,169.9 836.3,169.9 843.6,169.9 851.0,169.3 858.3,164.3 865.6,163.8 872.9,164.3 880.2,163.8 887.5,161.5 894.8,154.8 902.1,158.9 909.4,162.2 916.8,161.6 924.1,161.6 931.4,163.9 938.7,166.5 946.0,166.5" fill="none" stroke="#d97706" stroke-width="2.2" stroke-linejoin="round" stroke-linecap="round"/>
<line x1="76" y1="70" x2="94" y2="70" stroke="#2563eb" stroke-width="3"/>
<text x="100" y="74" font-family="Arial, sans-serif" font-size="11" fill="#0f172a">actual avg fee</text>
<line x1="228" y1="70" x2="246" y2="70" stroke="#d97706" stroke-width="3"/>
<text x="252" y="74" font-family="Arial, sans-serif" font-size="11" fill="#0f172a">forecast avg fee</text>
<text x="28" y="404" font-family="Arial, sans-serif" font-size="11" fill="#64748b">Source: hourly_features.csv, predictions.csv</text>
</svg>