<svg xmlns="http://www.w3.org/2000/svg" width="980" height="420" viewBox="0 0 980 420">
<rect width="100%" height="100%" fill="#ffffff"/>
<text x="28" y="34" font-family="Arial, sans-serif" font-size="20" font-weight="700" fill="#0f172a">Recent actual fees and 24-hour forecast</text>
<text x="28" y="56" font-family="Arial, sans-serif" font-size="12" fill="#64748b">Last 96 actual hours followed by generated forecast</text>
<line x1="76" y1="362.0" x2="946" y2="362.0" stroke="#e2e8f0" stroke-width="1"/>
<text x="68" y="366.0" font-family="Arial, sans-serif" font-size="10" text-anchor="end" fill="#64748b">204K</text>
<line x1="76" y1="292.0" x2="946" y2="292.0" stroke="#e2e8f0" stroke-width="1"/>
<text x="68" y="296.0" font-family="Arial, sans-serif" font-size="10" text-anchor="end" fill="#64748b">913K</text>
<line x1="76" y1="222.0" x2="946" y2="222.0" stroke="#e2e8f0" stroke-width="1"/>
<text x="68" y="226.0" font-family="Arial, sans-serif" font-size="10" text-anchor="end" fill="#64748b">1.6M</text>
<line x1="76" y1="152.0" x2="946" y2="152.0" stroke="#e2e8f0" stroke-width="1"/>
<text x="68" y="156.0" font-family="Arial, sans-serif" font-size="10" text-anchor="end" fill="#64748b">2.3M</text>
<line x1="76" y1="82.0" x2="946" y2="82.0" stroke="#e2e8f0" stroke-width="1"/>
<text x="68" y="86.0" font-family="Arial, sans-serif" font-size="10" text-anchor="end" fill="#64748b">3.0M</text>
<line x1="76" y1="362" x2="946" y2="362" stroke="#334155" stroke-width="1"/>
<line x1="76" y1="82" x2="76" y2="362" stroke="#334155" stroke-width="1"/>
<text x="76" y="72" font-family="Arial, sans-serif" font-size="11" fill="#64748b">nanoton</text>
<line x1="76.0" y1="362" x2="76.0" y2="366" stroke="#334155" stroke-width="1"/>
<text x="76.0" y="380" font-family="Arial, sans-serif" font-size="10" text-anchor="middle" fill="#64748b">0</text>
<line x1="514.7" y1="362" x2="514.7" y2="366" stroke="#334155" stroke-width="1"/>
<text x="514.7" y="380" font-family="Arial, sans-serif" font-size="10" text-anchor="middle" fill="#64748b">60</text>
<line x1="946.0" y1="362" x2="946.0" y2="366" stroke="#334155" stroke-width="1"/>
<text x="946.0" y="380" font-family="Arial, sans-serif" font-size="10" text-anchor="middle" fill="#64748b">119</text>
<polyline points="76.0,127.9 83.3,176.8 90.6,199.8 97.9,183.4 105.2,195.6 112.6,172.7 119.9,188.5 127.2,190.3 134.5,151.3 141.8,105.2 149.1,143.1 156.4,147.2 163.7,149.2 171.0,150.1 178.4,135.0 185.7,180.3 193.0,188.6 200.3,174.2 207.6,195.2 214.9,183.9 222.2,169.0 229.5,170.6 236.8,140.3 244.2,173.0 251.5,178.8 258.8,190.4 266.1,120.6 273.4,163.4 280.7,178.2 288.0,164.8 295.3,159.2 302.6,167.1 309.9,133.9 317.3,134.2 324.6,135.3 331.9,151.7 339.2,151.2 346.5,159.4 353.8,174.9 361.1,186.7 368.4,168.8 375.7,159.1 383.1,168.4 390.4,116.7 397.7,160.2 405.0,163.6 412.3,164.1 419.6,136.9 426.9,183.5 434.2,173.0 441.5,107.7 448.9,144.5 456.2,135.3 463.5,137.0 470.8,138.7 478.1,182.3 485.4,156.6 492.7,176.5 500.0,137.1 507.3,171.0 514.7,177.4 522.0,166.6 529.3,162.2 536.6,92.4 543.9,173.8 551.2,303.3 558.5,341.8 565.8,342.1 573.1,340.8 580.5,343.1 587.8,236.5 595.1,335.6 602.4,339.4 609.7,337.1 617.0,340.5 624.3,340.4 631.6,340.5 638.9,321.2 646.3,340.8 653.6,345.3 660.9,337.4 668.2,334.6 675.5,342.1 682.8,338.9 690.1,339.4 697.4,327.1 704.7,337.3 712.1,340.6 719.4,335.4 726.7,342.4 734.0,333.6 741.3,331.1 748.6,338.0 755.9,336.0 763.2,340.0 770.5,351.6" fill="none" stroke="#2563eb" stroke-width="2.2" stroke-linejoin="round" stroke-linecap="round"/>
<polyline points="777.8,277.4 785.2,238.7 792.5,234.8 799.8,224.6 807.1,219.7 814.4,215.2 821.7,208.6 829.0,201.9 836.3,198.8 843.6,191.2 851.0,185.0 858.3,178.0 865.6,175.8 872.9,172.2 880.2,168.0 887.5,165.7 894.8,164.7 902.1,164.0 909.4,163.3 916.8,162.7 924.1,162.9 931.4,160.9 938.7,158.5 946.0,156.6" fill="none" stroke="#d97706" stroke-width="2.2" stroke-linejoin="round" stroke-linecap="round"/>
<line x1="76" y1="70" x2="94" y2="70" stroke="#2563eb" stroke-width="3"/>
<text x="100" y="74" font-family="Arial, sans-serif" font-size="11" fill="#0f172a">actual avg fee</text>
<line x1="228" y1="70" x2="246" y2="70" stroke="#d97706" stroke-width="3"/>
<text x="252" y="74" font-family="Arial, sans-serif" font-size="11" fill="#0f172a">forecast avg fee</text>
<text x="28" y="404" font-family="Arial, sans-serif" font-size="11" fill="#64748b">Source: hourly_features.csv, predictions.csv</text>
</svg>