<svg xmlns="http://www.w3.org/2000/svg" width="980" height="420" viewBox="0 0 980 420">
<rect width="100%" height="100%" fill="#ffffff"/>
<text x="28" y="34" font-family="Arial, sans-serif" font-size="20" font-weight="700" fill="#0f172a">Recent actual fees and 24-hour forecast</text>
<text x="28" y="56" font-family="Arial, sans-serif" font-size="12" fill="#64748b">Last 96 actual hours followed by generated forecast</text>
<line x1="76" y1="362.0" x2="946" y2="362.0" stroke="#e2e8f0" stroke-width="1"/>
<text x="68" y="366.0" font-family="Arial, sans-serif" font-size="10" text-anchor="end" fill="#64748b">286K</text>
<line x1="76" y1="292.0" x2="946" y2="292.0" stroke="#e2e8f0" stroke-width="1"/>
<text x="68" y="296.0" font-family="Arial, sans-serif" font-size="10" text-anchor="end" fill="#64748b">796K</text>
<line x1="76" y1="222.0" x2="946" y2="222.0" stroke="#e2e8f0" stroke-width="1"/>
<text x="68" y="226.0" font-family="Arial, sans-serif" font-size="10" text-anchor="end" fill="#64748b">1.3M</text>
<line x1="76" y1="152.0" x2="946" y2="152.0" stroke="#e2e8f0" stroke-width="1"/>
<text x="68" y="156.0" font-family="Arial, sans-serif" font-size="10" text-anchor="end" fill="#64748b">1.8M</text>
<line x1="76" y1="82.0" x2="946" y2="82.0" stroke="#e2e8f0" stroke-width="1"/>
<text x="68" y="86.0" font-family="Arial, sans-serif" font-size="10" text-anchor="end" fill="#64748b">2.3M</text>
<line x1="76" y1="362" x2="946" y2="362" stroke="#334155" stroke-width="1"/>
<line x1="76" y1="82" x2="76" y2="362" stroke="#334155" stroke-width="1"/>
<text x="76" y="72" font-family="Arial, sans-serif" font-size="11" fill="#64748b">nanoton</text>
<line x1="76.0" y1="362" x2="76.0" y2="366" stroke="#334155" stroke-width="1"/>
<text x="76.0" y="380" font-family="Arial, sans-serif" font-size="10" text-anchor="middle" fill="#64748b">0</text>
<line x1="514.7" y1="362" x2="514.7" y2="366" stroke="#334155" stroke-width="1"/>
<text x="514.7" y="380" font-family="Arial, sans-serif" font-size="10" text-anchor="middle" fill="#64748b">60</text>
<line x1="946.0" y1="362" x2="946.0" y2="366" stroke="#334155" stroke-width="1"/>
<text x="946.0" y="380" font-family="Arial, sans-serif" font-size="10" text-anchor="middle" fill="#64748b">119</text>
<polyline points="76.0,343.4 83.3,316.6 90.6,343.9 97.9,350.1 105.2,339.1 112.6,335.2 119.9,345.7 127.2,341.2 134.5,341.9 141.8,324.8 149.1,339.0 156.4,343.5 163.7,336.4 171.0,346.1 178.4,333.9 185.7,330.4 193.0,340.0 200.3,337.2 207.6,342.7 214.9,351.6 222.2,345.4 229.5,342.8 236.8,347.2 244.2,339.0 251.5,343.9 258.8,333.7 266.1,324.1 273.4,336.6 280.7,337.2 288.0,320.7 295.3,332.1 302.6,326.5 309.9,341.3 317.3,332.6 324.6,326.0 331.9,337.1 339.2,337.9 346.5,336.0 353.8,341.0 361.1,338.8 368.4,340.5 375.7,343.9 383.1,337.5 390.4,328.6 397.7,331.8 405.0,337.8 412.3,343.0 419.6,343.8 426.9,342.6 434.2,342.0 441.5,338.4 448.9,330.0 456.2,328.6 463.5,332.8 470.8,326.7 478.1,331.0 485.4,329.3 492.7,339.6 500.0,332.2 507.3,336.1 514.7,331.8 522.0,340.1 529.3,328.9 536.6,326.5 543.9,334.4 551.2,332.1 558.5,329.1 565.8,314.0 573.1,234.2 580.5,317.3 587.8,323.3 595.1,321.1 602.4,329.2 609.7,312.9 617.0,321.8 624.3,315.4 631.6,320.4 638.9,282.2 646.3,325.1 653.6,306.6 660.9,307.4 668.2,314.8 675.5,318.8 682.8,314.1 690.1,311.1 697.4,314.8 704.7,320.3 712.1,317.9 719.4,320.6 726.7,321.6 734.0,310.1 741.3,315.3 748.6,313.9 755.9,303.8 763.2,316.5 770.5,324.8" fill="none" stroke="#2563eb" stroke-width="2.2" stroke-linejoin="round" stroke-linecap="round"/>
<polyline points="777.8,213.4 785.2,192.7 792.5,188.9 799.8,177.2 807.1,172.8 814.4,161.9 821.7,146.8 829.0,138.5 836.3,134.7 843.6,127.1 851.0,120.6 858.3,116.3 865.6,114.1 872.9,113.6 880.2,112.6 887.5,112.1 894.8,111.8 902.1,109.4 909.4,107.1 916.8,106.4 924.1,103.2 931.4,99.8 938.7,99.7 946.0,92.4" fill="none" stroke="#d97706" stroke-width="2.2" stroke-linejoin="round" stroke-linecap="round"/>
<line x1="76" y1="70" x2="94" y2="70" stroke="#2563eb" stroke-width="3"/>
<text x="100" y="74" font-family="Arial, sans-serif" font-size="11" fill="#0f172a">actual avg fee</text>
<line x1="228" y1="70" x2="246" y2="70" stroke="#d97706" stroke-width="3"/>
<text x="252" y="74" font-family="Arial, sans-serif" font-size="11" fill="#0f172a">forecast avg fee</text>
<text x="28" y="404" font-family="Arial, sans-serif" font-size="11" fill="#64748b">Source: hourly_features.csv, predictions.csv</text>
</svg>