<svg xmlns="http://www.w3.org/2000/svg" width="980" height="420" viewBox="0 0 980 420">
<rect width="100%" height="100%" fill="#ffffff"/>
<text x="28" y="34" font-family="Arial, sans-serif" font-size="20" font-weight="700" fill="#0f172a">Recent actual fees and 24-hour forecast</text>
<text x="28" y="56" font-family="Arial, sans-serif" font-size="12" fill="#64748b">Last 96 actual hours followed by generated forecast</text>
<line x1="76" y1="362.0" x2="946" y2="362.0" stroke="#e2e8f0" stroke-width="1"/>
<text x="68" y="366.0" font-family="Arial, sans-serif" font-size="10" text-anchor="end" fill="#64748b">259K</text>
<line x1="76" y1="292.0" x2="946" y2="292.0" stroke="#e2e8f0" stroke-width="1"/>
<text x="68" y="296.0" font-family="Arial, sans-serif" font-size="10" text-anchor="end" fill="#64748b">953K</text>
<line x1="76" y1="222.0" x2="946" y2="222.0" stroke="#e2e8f0" stroke-width="1"/>
<text x="68" y="226.0" font-family="Arial, sans-serif" font-size="10" text-anchor="end" fill="#64748b">1.6M</text>
<line x1="76" y1="152.0" x2="946" y2="152.0" stroke="#e2e8f0" stroke-width="1"/>
<text x="68" y="156.0" font-family="Arial, sans-serif" font-size="10" text-anchor="end" fill="#64748b">2.3M</text>
<line x1="76" y1="82.0" x2="946" y2="82.0" stroke="#e2e8f0" stroke-width="1"/>
<text x="68" y="86.0" font-family="Arial, sans-serif" font-size="10" text-anchor="end" fill="#64748b">3.0M</text>
<line x1="76" y1="362" x2="946" y2="362" stroke="#334155" stroke-width="1"/>
<line x1="76" y1="82" x2="76" y2="362" stroke="#334155" stroke-width="1"/>
<text x="76" y="72" font-family="Arial, sans-serif" font-size="11" fill="#64748b">nanoton</text>
<line x1="76.0" y1="362" x2="76.0" y2="366" stroke="#334155" stroke-width="1"/>
<text x="76.0" y="380" font-family="Arial, sans-serif" font-size="10" text-anchor="middle" fill="#64748b">0</text>
<line x1="514.7" y1="362" x2="514.7" y2="366" stroke="#334155" stroke-width="1"/>
<text x="514.7" y="380" font-family="Arial, sans-serif" font-size="10" text-anchor="middle" fill="#64748b">60</text>
<line x1="946.0" y1="362" x2="946.0" y2="366" stroke="#334155" stroke-width="1"/>
<text x="946.0" y="380" font-family="Arial, sans-serif" font-size="10" text-anchor="middle" fill="#64748b">119</text>
<polyline points="76.0,138.0 83.3,172.6 90.6,179.1 97.9,168.1 105.2,163.7 112.6,92.4 119.9,175.5 127.2,307.7 134.5,346.9 141.8,347.2 149.1,345.9 156.4,348.2 163.7,239.5 171.0,340.6 178.4,344.5 185.7,342.1 193.0,345.6 200.3,345.5 207.6,345.6 214.9,325.9 222.2,345.9 229.5,350.5 236.8,342.5 244.2,339.6 251.5,347.3 258.8,344.0 266.1,344.5 273.4,331.9 280.7,342.4 288.0,345.7 295.3,340.4 302.6,347.6 309.9,338.6 317.3,336.0 324.6,343.1 331.9,341.0 339.2,345.1 346.5,351.6 353.8,347.0 361.1,345.1 368.4,348.4 375.7,342.4 383.1,345.9 390.4,338.4 397.7,331.4 405.0,340.6 412.3,341.0 419.6,328.9 426.9,337.3 434.2,333.1 441.5,344.1 448.9,337.7 456.2,332.8 463.5,340.9 470.8,341.5 478.1,340.1 485.4,343.8 492.7,342.2 500.0,343.4 507.3,346.0 514.7,341.2 522.0,334.7 529.3,337.0 536.6,341.4 543.9,345.3 551.2,345.9 558.5,345.0 565.8,344.6 573.1,341.9 580.5,335.7 587.8,334.7 595.1,337.8 602.4,333.3 609.7,336.5 617.0,335.2 624.3,342.8 631.6,337.4 638.9,340.2 646.3,337.1 653.6,343.1 660.9,334.9 668.2,333.1 675.5,339.0 682.8,337.3 690.1,335.1 697.4,324.0 704.7,265.3 712.1,326.4 719.4,330.8 726.7,329.2 734.0,335.2 741.3,323.2 748.6,329.7 755.9,325.0 763.2,328.7 770.5,295.0" fill="none" stroke="#2563eb" stroke-width="2.2" stroke-linejoin="round" stroke-linecap="round"/>
<polyline points="777.8,251.8 785.2,231.2 792.5,227.1 799.8,218.7 807.1,209.8 814.4,202.7 821.7,194.8 829.0,190.5 836.3,187.8 843.6,183.7 851.0,181.1 858.3,176.5 865.6,172.8 872.9,170.4 880.2,169.8 887.5,163.3 894.8,163.9 902.1,157.5 909.4,155.2 916.8,153.5 924.1,152.1 931.4,145.4 938.7,141.7 946.0,132.7" fill="none" stroke="#d97706" stroke-width="2.2" stroke-linejoin="round" stroke-linecap="round"/>
<line x1="76" y1="70" x2="94" y2="70" stroke="#2563eb" stroke-width="3"/>
<text x="100" y="74" font-family="Arial, sans-serif" font-size="11" fill="#0f172a">actual avg fee</text>
<line x1="228" y1="70" x2="246" y2="70" stroke="#d97706" stroke-width="3"/>
<text x="252" y="74" font-family="Arial, sans-serif" font-size="11" fill="#0f172a">forecast avg fee</text>
<text x="28" y="404" font-family="Arial, sans-serif" font-size="11" fill="#64748b">Source: hourly_features.csv, predictions.csv</text>
</svg>