<svg xmlns="http://www.w3.org/2000/svg" width="980" height="420" viewBox="0 0 980 420">
<rect width="100%" height="100%" fill="#ffffff"/>
<text x="28" y="34" font-family="Arial, sans-serif" font-size="20" font-weight="700" fill="#0f172a">Recent actual fees and 24-hour forecast</text>
<text x="28" y="56" font-family="Arial, sans-serif" font-size="12" fill="#64748b">Last 96 actual hours followed by generated forecast</text>
<line x1="76" y1="362.0" x2="946" y2="362.0" stroke="#e2e8f0" stroke-width="1"/>
<text x="68" y="366.0" font-family="Arial, sans-serif" font-size="10" text-anchor="end" fill="#64748b">282K</text>
<line x1="76" y1="292.0" x2="946" y2="292.0" stroke="#e2e8f0" stroke-width="1"/>
<text x="68" y="296.0" font-family="Arial, sans-serif" font-size="10" text-anchor="end" fill="#64748b">819K</text>
<line x1="76" y1="222.0" x2="946" y2="222.0" stroke="#e2e8f0" stroke-width="1"/>
<text x="68" y="226.0" font-family="Arial, sans-serif" font-size="10" text-anchor="end" fill="#64748b">1.4M</text>
<line x1="76" y1="152.0" x2="946" y2="152.0" stroke="#e2e8f0" stroke-width="1"/>
<text x="68" y="156.0" font-family="Arial, sans-serif" font-size="10" text-anchor="end" fill="#64748b">1.9M</text>
<line x1="76" y1="82.0" x2="946" y2="82.0" stroke="#e2e8f0" stroke-width="1"/>
<text x="68" y="86.0" font-family="Arial, sans-serif" font-size="10" text-anchor="end" fill="#64748b">2.4M</text>
<line x1="76" y1="362" x2="946" y2="362" stroke="#334155" stroke-width="1"/>
<line x1="76" y1="82" x2="76" y2="362" stroke="#334155" stroke-width="1"/>
<text x="76" y="72" font-family="Arial, sans-serif" font-size="11" fill="#64748b">nanoton</text>
<line x1="76.0" y1="362" x2="76.0" y2="366" stroke="#334155" stroke-width="1"/>
<text x="76.0" y="380" font-family="Arial, sans-serif" font-size="10" text-anchor="middle" fill="#64748b">0</text>
<line x1="514.7" y1="362" x2="514.7" y2="366" stroke="#334155" stroke-width="1"/>
<text x="514.7" y="380" font-family="Arial, sans-serif" font-size="10" text-anchor="middle" fill="#64748b">60</text>
<line x1="946.0" y1="362" x2="946.0" y2="366" stroke="#334155" stroke-width="1"/>
<text x="946.0" y="380" font-family="Arial, sans-serif" font-size="10" text-anchor="middle" fill="#64748b">119</text>
<polyline points="76.0,345.5 83.3,345.9 90.6,344.2 97.9,347.2 105.2,206.5 112.6,337.3 119.9,342.3 127.2,339.3 134.5,343.9 141.8,343.6 149.1,343.8 156.4,318.4 163.7,344.3 171.0,350.1 178.4,339.8 185.7,336.1 193.0,346.0 200.3,341.7 207.6,342.4 214.9,326.1 222.2,339.6 229.5,343.9 236.8,337.1 244.2,346.4 251.5,334.7 258.8,331.5 266.1,340.6 273.4,337.9 280.7,343.1 288.0,351.6 295.3,345.7 302.6,343.2 309.9,347.4 317.3,339.7 324.6,344.3 331.9,334.6 339.2,325.5 346.5,337.4 353.8,337.9 361.1,322.3 368.4,333.0 375.7,327.7 383.1,341.8 390.4,333.6 397.7,327.3 405.0,337.8 412.3,338.6 419.6,336.8 426.9,341.5 434.2,339.4 441.5,341.0 448.9,344.3 456.2,338.2 463.5,329.8 470.8,332.8 478.1,338.5 485.4,343.4 492.7,344.2 500.0,343.1 507.3,342.5 514.7,339.0 522.0,331.1 529.3,329.8 536.6,333.8 543.9,327.9 551.2,332.0 558.5,330.4 565.8,340.2 573.1,333.2 580.5,336.8 587.8,332.8 595.1,340.7 602.4,330.0 609.7,327.7 617.0,335.2 624.3,333.1 631.6,330.2 638.9,315.8 646.3,240.0 653.6,319.0 660.9,324.7 668.2,322.6 675.5,330.3 682.8,314.8 690.1,323.2 697.4,317.2 704.7,322.0 712.1,285.6 719.4,326.4 726.7,308.9 734.0,309.6 741.3,316.7 748.6,320.5 755.9,315.9 763.2,313.1 770.5,314.7" fill="none" stroke="#2563eb" stroke-width="2.2" stroke-linejoin="round" stroke-linecap="round"/>
<polyline points="777.8,208.8 785.2,193.9 792.5,191.0 799.8,182.4 807.1,176.5 814.4,172.6 821.7,163.1 829.0,155.8 836.3,155.1 843.6,147.8 851.0,144.9 858.3,140.7 865.6,139.2 872.9,134.3 880.2,132.6 887.5,125.4 894.8,120.0 902.1,114.5 909.4,112.0 916.8,106.1 924.1,100.7 931.4,97.5 938.7,94.4 946.0,92.4" fill="none" stroke="#d97706" stroke-width="2.2" stroke-linejoin="round" stroke-linecap="round"/>
<line x1="76" y1="70" x2="94" y2="70" stroke="#2563eb" stroke-width="3"/>
<text x="100" y="74" font-family="Arial, sans-serif" font-size="11" fill="#0f172a">actual avg fee</text>
<line x1="228" y1="70" x2="246" y2="70" stroke="#d97706" stroke-width="3"/>
<text x="252" y="74" font-family="Arial, sans-serif" font-size="11" fill="#0f172a">forecast avg fee</text>
<text x="28" y="404" font-family="Arial, sans-serif" font-size="11" fill="#64748b">Source: hourly_features.csv, predictions.csv</text>
</svg>