<svg xmlns="http://www.w3.org/2000/svg" width="980" height="420" viewBox="0 0 980 420">
<rect width="100%" height="100%" fill="#ffffff"/>
<text x="28" y="34" font-family="Arial, sans-serif" font-size="20" font-weight="700" fill="#0f172a">Recent actual fees and 24-hour forecast</text>
<text x="28" y="56" font-family="Arial, sans-serif" font-size="12" fill="#64748b">Last 96 actual hours followed by generated forecast</text>
<line x1="76" y1="362.0" x2="946" y2="362.0" stroke="#e2e8f0" stroke-width="1"/>
<text x="68" y="366.0" font-family="Arial, sans-serif" font-size="10" text-anchor="end" fill="#64748b">294K</text>
<line x1="76" y1="292.0" x2="946" y2="292.0" stroke="#e2e8f0" stroke-width="1"/>
<text x="68" y="296.0" font-family="Arial, sans-serif" font-size="10" text-anchor="end" fill="#64748b">980K</text>
<line x1="76" y1="222.0" x2="946" y2="222.0" stroke="#e2e8f0" stroke-width="1"/>
<text x="68" y="226.0" font-family="Arial, sans-serif" font-size="10" text-anchor="end" fill="#64748b">1.7M</text>
<line x1="76" y1="152.0" x2="946" y2="152.0" stroke="#e2e8f0" stroke-width="1"/>
<text x="68" y="156.0" font-family="Arial, sans-serif" font-size="10" text-anchor="end" fill="#64748b">2.4M</text>
<line x1="76" y1="82.0" x2="946" y2="82.0" stroke="#e2e8f0" stroke-width="1"/>
<text x="68" y="86.0" font-family="Arial, sans-serif" font-size="10" text-anchor="end" fill="#64748b">3.0M</text>
<line x1="76" y1="362" x2="946" y2="362" stroke="#334155" stroke-width="1"/>
<line x1="76" y1="82" x2="76" y2="362" stroke="#334155" stroke-width="1"/>
<text x="76" y="72" font-family="Arial, sans-serif" font-size="11" fill="#64748b">nanoton</text>
<line x1="76.0" y1="362" x2="76.0" y2="366" stroke="#334155" stroke-width="1"/>
<text x="76.0" y="380" font-family="Arial, sans-serif" font-size="10" text-anchor="middle" fill="#64748b">0</text>
<line x1="514.7" y1="362" x2="514.7" y2="366" stroke="#334155" stroke-width="1"/>
<text x="514.7" y="380" font-family="Arial, sans-serif" font-size="10" text-anchor="middle" fill="#64748b">60</text>
<line x1="946.0" y1="362" x2="946.0" y2="366" stroke="#334155" stroke-width="1"/>
<text x="946.0" y="380" font-family="Arial, sans-serif" font-size="10" text-anchor="middle" fill="#64748b">119</text>
<polyline points="76.0,220.6 83.3,161.1 90.6,176.1 97.9,154.0 105.2,181.3 112.6,146.4 119.9,172.9 127.2,145.6 134.5,96.9 141.8,138.1 149.1,128.3 156.4,136.9 163.7,124.9 171.0,135.7 178.4,146.6 185.7,171.5 193.0,191.8 200.3,136.3 207.6,186.8 214.9,179.8 222.2,181.3 229.5,171.2 236.8,146.1 244.2,129.1 251.5,179.7 258.8,203.5 266.1,186.6 273.4,199.2 280.7,175.4 288.0,191.8 295.3,193.6 302.6,153.3 309.9,105.7 317.3,144.8 324.6,149.1 331.9,151.2 339.2,152.0 346.5,136.4 353.8,183.3 361.1,191.9 368.4,177.0 375.7,198.7 383.1,187.1 390.4,171.6 397.7,173.3 405.0,142.0 412.3,175.7 419.6,181.8 426.9,193.7 434.2,121.6 441.5,165.8 448.9,181.1 456.2,167.3 463.5,161.4 470.8,169.6 478.1,135.3 485.4,135.7 492.7,136.7 500.0,153.7 507.3,153.2 514.7,161.7 522.0,177.7 529.3,189.9 536.6,171.4 543.9,161.4 551.2,171.0 558.5,117.5 565.8,162.5 573.1,166.0 580.5,166.5 587.8,138.4 595.1,186.6 602.4,175.8 609.7,108.2 617.0,146.3 624.3,136.8 631.6,138.5 638.9,140.3 646.3,185.4 653.6,158.8 660.9,179.3 668.2,138.6 675.5,173.7 682.8,180.3 690.1,169.1 697.4,164.6 704.7,92.4 712.1,176.6 719.4,310.6 726.7,350.3 734.0,350.6 741.3,349.2 748.6,351.6 755.9,241.4 763.2,343.9 770.5,342.6" fill="none" stroke="#2563eb" stroke-width="2.2" stroke-linejoin="round" stroke-linecap="round"/>
<polyline points="777.8,168.5 785.2,166.7 792.5,167.4 799.8,169.6 807.1,169.6 814.4,169.6 821.7,169.0 829.0,164.0 836.3,163.5 843.6,164.0 851.0,163.5 858.3,161.3 865.6,154.6 872.9,158.7 880.2,161.9 887.5,161.4 894.8,161.4 902.1,163.6 909.4,166.2 916.8,166.2 924.1,163.9 931.4,163.9 938.7,163.9 946.0,163.9" fill="none" stroke="#d97706" stroke-width="2.2" stroke-linejoin="round" stroke-linecap="round"/>
<line x1="76" y1="70" x2="94" y2="70" stroke="#2563eb" stroke-width="3"/>
<text x="100" y="74" font-family="Arial, sans-serif" font-size="11" fill="#0f172a">actual avg fee</text>
<line x1="228" y1="70" x2="246" y2="70" stroke="#d97706" stroke-width="3"/>
<text x="252" y="74" font-family="Arial, sans-serif" font-size="11" fill="#0f172a">forecast avg fee</text>
<text x="28" y="404" font-family="Arial, sans-serif" font-size="11" fill="#64748b">Source: hourly_features.csv, predictions.csv</text>
</svg>