<svg xmlns="http://www.w3.org/2000/svg" width="980" height="420" viewBox="0 0 980 420">
<rect width="100%" height="100%" fill="#ffffff"/>
<text x="28" y="34" font-family="Arial, sans-serif" font-size="20" font-weight="700" fill="#0f172a">Recent actual fees and 24-hour forecast</text>
<text x="28" y="56" font-family="Arial, sans-serif" font-size="12" fill="#64748b">Last 96 actual hours followed by generated forecast</text>
<line x1="76" y1="362.0" x2="946" y2="362.0" stroke="#e2e8f0" stroke-width="1"/>
<text x="68" y="366.0" font-family="Arial, sans-serif" font-size="10" text-anchor="end" fill="#64748b">259K</text>
<line x1="76" y1="292.0" x2="946" y2="292.0" stroke="#e2e8f0" stroke-width="1"/>
<text x="68" y="296.0" font-family="Arial, sans-serif" font-size="10" text-anchor="end" fill="#64748b">953K</text>
<line x1="76" y1="222.0" x2="946" y2="222.0" stroke="#e2e8f0" stroke-width="1"/>
<text x="68" y="226.0" font-family="Arial, sans-serif" font-size="10" text-anchor="end" fill="#64748b">1.6M</text>
<line x1="76" y1="152.0" x2="946" y2="152.0" stroke="#e2e8f0" stroke-width="1"/>
<text x="68" y="156.0" font-family="Arial, sans-serif" font-size="10" text-anchor="end" fill="#64748b">2.3M</text>
<line x1="76" y1="82.0" x2="946" y2="82.0" stroke="#e2e8f0" stroke-width="1"/>
<text x="68" y="86.0" font-family="Arial, sans-serif" font-size="10" text-anchor="end" fill="#64748b">3.0M</text>
<line x1="76" y1="362" x2="946" y2="362" stroke="#334155" stroke-width="1"/>
<line x1="76" y1="82" x2="76" y2="362" stroke="#334155" stroke-width="1"/>
<text x="76" y="72" font-family="Arial, sans-serif" font-size="11" fill="#64748b">nanoton</text>
<line x1="76.0" y1="362" x2="76.0" y2="366" stroke="#334155" stroke-width="1"/>
<text x="76.0" y="380" font-family="Arial, sans-serif" font-size="10" text-anchor="middle" fill="#64748b">0</text>
<line x1="514.7" y1="362" x2="514.7" y2="366" stroke="#334155" stroke-width="1"/>
<text x="514.7" y="380" font-family="Arial, sans-serif" font-size="10" text-anchor="middle" fill="#64748b">60</text>
<line x1="946.0" y1="362" x2="946.0" y2="366" stroke="#334155" stroke-width="1"/>
<text x="946.0" y="380" font-family="Arial, sans-serif" font-size="10" text-anchor="middle" fill="#64748b">119</text>
<polyline points="76.0,117.2 83.3,161.5 90.6,165.0 97.9,165.6 105.2,137.8 112.6,185.3 119.9,174.7 127.2,108.0 134.5,145.5 141.8,136.2 149.1,137.9 156.4,139.7 163.7,184.1 171.0,157.9 178.4,178.2 185.7,138.0 193.0,172.6 200.3,179.1 207.6,168.1 214.9,163.7 222.2,92.4 229.5,175.5 236.8,307.7 244.2,346.9 251.5,347.2 258.8,345.9 266.1,348.2 273.4,239.5 280.7,340.6 288.0,344.5 295.3,342.1 302.6,345.6 309.9,345.5 317.3,345.6 324.6,325.9 331.9,345.9 339.2,350.5 346.5,342.5 353.8,339.6 361.1,347.3 368.4,344.0 375.7,344.5 383.1,331.9 390.4,342.4 397.7,345.7 405.0,340.4 412.3,347.6 419.6,338.6 426.9,336.0 434.2,343.1 441.5,341.0 448.9,345.1 456.2,351.6 463.5,347.0 470.8,345.1 478.1,348.4 485.4,342.4 492.7,345.9 500.0,338.4 507.3,331.4 514.7,340.6 522.0,341.0 529.3,328.9 536.6,337.3 543.9,333.1 551.2,344.1 558.5,337.7 565.8,332.8 573.1,340.9 580.5,341.5 587.8,340.1 595.1,343.8 602.4,342.2 609.7,343.4 617.0,346.0 624.3,341.2 631.6,334.7 638.9,337.0 646.3,341.4 653.6,345.3 660.9,345.9 668.2,345.0 675.5,344.6 682.8,341.9 690.1,335.7 697.4,334.7 704.7,337.8 712.1,333.3 719.4,336.5 726.7,335.2 734.0,342.8 741.3,337.4 748.6,340.2 755.9,337.1 763.2,343.1 770.5,332.3" fill="none" stroke="#2563eb" stroke-width="2.2" stroke-linejoin="round" stroke-linecap="round"/>
<polyline points="777.8,273.2 785.2,248.1 792.5,241.8 799.8,234.9 807.1,230.1 814.4,223.0 821.7,210.1 829.0,207.0 836.3,198.1 843.6,193.8 851.0,189.0 858.3,185.2 865.6,177.8 872.9,174.6 880.2,164.8 887.5,157.2 894.8,154.9 902.1,152.2 909.4,146.4 916.8,139.6 924.1,136.3 931.4,133.4 938.7,131.4 946.0,129.3" fill="none" stroke="#d97706" stroke-width="2.2" stroke-linejoin="round" stroke-linecap="round"/>
<line x1="76" y1="70" x2="94" y2="70" stroke="#2563eb" stroke-width="3"/>
<text x="100" y="74" font-family="Arial, sans-serif" font-size="11" fill="#0f172a">actual avg fee</text>
<line x1="228" y1="70" x2="246" y2="70" stroke="#d97706" stroke-width="3"/>
<text x="252" y="74" font-family="Arial, sans-serif" font-size="11" fill="#0f172a">forecast avg fee</text>
<text x="28" y="404" font-family="Arial, sans-serif" font-size="11" fill="#64748b">Source: hourly_features.csv, predictions.csv</text>
</svg>