<svg xmlns="http://www.w3.org/2000/svg" width="980" height="420" viewBox="0 0 980 420">
<rect width="100%" height="100%" fill="#ffffff"/>
<text x="28" y="34" font-family="Arial, sans-serif" font-size="20" font-weight="700" fill="#0f172a">Recent actual fees and 24-hour forecast</text>
<text x="28" y="56" font-family="Arial, sans-serif" font-size="12" fill="#64748b">Last 96 actual hours followed by generated forecast</text>
<line x1="76" y1="362.0" x2="946" y2="362.0" stroke="#e2e8f0" stroke-width="1"/>
<text x="68" y="366.0" font-family="Arial, sans-serif" font-size="10" text-anchor="end" fill="#64748b">259K</text>
<line x1="76" y1="292.0" x2="946" y2="292.0" stroke="#e2e8f0" stroke-width="1"/>
<text x="68" y="296.0" font-family="Arial, sans-serif" font-size="10" text-anchor="end" fill="#64748b">953K</text>
<line x1="76" y1="222.0" x2="946" y2="222.0" stroke="#e2e8f0" stroke-width="1"/>
<text x="68" y="226.0" font-family="Arial, sans-serif" font-size="10" text-anchor="end" fill="#64748b">1.6M</text>
<line x1="76" y1="152.0" x2="946" y2="152.0" stroke="#e2e8f0" stroke-width="1"/>
<text x="68" y="156.0" font-family="Arial, sans-serif" font-size="10" text-anchor="end" fill="#64748b">2.3M</text>
<line x1="76" y1="82.0" x2="946" y2="82.0" stroke="#e2e8f0" stroke-width="1"/>
<text x="68" y="86.0" font-family="Arial, sans-serif" font-size="10" text-anchor="end" fill="#64748b">3.0M</text>
<line x1="76" y1="362" x2="946" y2="362" stroke="#334155" stroke-width="1"/>
<line x1="76" y1="82" x2="76" y2="362" stroke="#334155" stroke-width="1"/>
<text x="76" y="72" font-family="Arial, sans-serif" font-size="11" fill="#64748b">nanoton</text>
<line x1="76.0" y1="362" x2="76.0" y2="366" stroke="#334155" stroke-width="1"/>
<text x="76.0" y="380" font-family="Arial, sans-serif" font-size="10" text-anchor="middle" fill="#64748b">0</text>
<line x1="514.7" y1="362" x2="514.7" y2="366" stroke="#334155" stroke-width="1"/>
<text x="514.7" y="380" font-family="Arial, sans-serif" font-size="10" text-anchor="middle" fill="#64748b">60</text>
<line x1="946.0" y1="362" x2="946.0" y2="366" stroke="#334155" stroke-width="1"/>
<text x="946.0" y="380" font-family="Arial, sans-serif" font-size="10" text-anchor="middle" fill="#64748b">119</text>
<polyline points="76.0,190.5 83.3,192.3 90.6,152.5 97.9,105.5 105.2,144.1 112.6,148.3 119.9,150.4 127.2,151.2 134.5,135.9 141.8,182.1 149.1,190.5 156.4,175.8 163.7,197.3 171.0,185.8 178.4,170.6 185.7,172.2 193.0,141.3 200.3,174.6 207.6,180.6 214.9,192.4 222.2,121.2 229.5,164.8 236.8,180.0 244.2,166.3 251.5,160.5 258.8,168.6 266.1,134.8 273.4,135.1 280.7,136.1 288.0,152.9 295.3,152.4 302.6,160.8 309.9,176.6 317.3,188.6 324.6,170.4 331.9,160.5 339.2,170.0 346.5,117.2 353.8,161.5 361.1,165.0 368.4,165.6 375.7,137.8 383.1,185.3 390.4,174.7 397.7,108.0 405.0,145.5 412.3,136.2 419.6,137.9 426.9,139.7 434.2,184.1 441.5,157.9 448.9,178.2 456.2,138.0 463.5,172.6 470.8,179.1 478.1,168.1 485.4,163.7 492.7,92.4 500.0,175.5 507.3,307.7 514.7,346.9 522.0,347.2 529.3,345.9 536.6,348.2 543.9,239.5 551.2,340.6 558.5,344.5 565.8,342.1 573.1,345.6 580.5,345.5 587.8,345.6 595.1,325.9 602.4,345.9 609.7,350.5 617.0,342.5 624.3,339.6 631.6,347.3 638.9,344.0 646.3,344.5 653.6,331.9 660.9,342.4 668.2,345.7 675.5,340.4 682.8,347.6 690.1,338.6 697.4,336.0 704.7,343.1 712.1,341.0 719.4,345.1 726.7,351.6 734.0,347.0 741.3,345.1 748.6,348.4 755.9,342.4 763.2,345.9 770.5,337.4" fill="none" stroke="#2563eb" stroke-width="2.2" stroke-linejoin="round" stroke-linecap="round"/>
<polyline points="777.8,266.8 785.2,239.8 792.5,234.4 799.8,223.3 807.1,215.0 814.4,206.1 821.7,199.1 829.0,192.7 836.3,186.8 843.6,182.8 851.0,180.1 858.3,178.1 865.6,177.8 872.9,177.5 880.2,177.9 887.5,176.4 894.8,174.6 902.1,173.7 909.4,171.7 916.8,168.6 924.1,169.0 931.4,163.9 938.7,162.1 946.0,159.4" fill="none" stroke="#d97706" stroke-width="2.2" stroke-linejoin="round" stroke-linecap="round"/>
<line x1="76" y1="70" x2="94" y2="70" stroke="#2563eb" stroke-width="3"/>
<text x="100" y="74" font-family="Arial, sans-serif" font-size="11" fill="#0f172a">actual avg fee</text>
<line x1="228" y1="70" x2="246" y2="70" stroke="#d97706" stroke-width="3"/>
<text x="252" y="74" font-family="Arial, sans-serif" font-size="11" fill="#0f172a">forecast avg fee</text>
<text x="28" y="404" font-family="Arial, sans-serif" font-size="11" fill="#64748b">Source: hourly_features.csv, predictions.csv</text>
</svg>