<svg xmlns="http://www.w3.org/2000/svg" width="980" height="420" viewBox="0 0 980 420">
<rect width="100%" height="100%" fill="#ffffff"/>
<text x="28" y="34" font-family="Arial, sans-serif" font-size="20" font-weight="700" fill="#0f172a">Recent actual fees and 24-hour forecast</text>
<text x="28" y="56" font-family="Arial, sans-serif" font-size="12" fill="#64748b">Last 96 actual hours followed by generated forecast</text>
<line x1="76" y1="362.0" x2="946" y2="362.0" stroke="#e2e8f0" stroke-width="1"/>
<text x="68" y="366.0" font-family="Arial, sans-serif" font-size="10" text-anchor="end" fill="#64748b">287K</text>
<line x1="76" y1="292.0" x2="946" y2="292.0" stroke="#e2e8f0" stroke-width="1"/>
<text x="68" y="296.0" font-family="Arial, sans-serif" font-size="10" text-anchor="end" fill="#64748b">791K</text>
<line x1="76" y1="222.0" x2="946" y2="222.0" stroke="#e2e8f0" stroke-width="1"/>
<text x="68" y="226.0" font-family="Arial, sans-serif" font-size="10" text-anchor="end" fill="#64748b">1.3M</text>
<line x1="76" y1="152.0" x2="946" y2="152.0" stroke="#e2e8f0" stroke-width="1"/>
<text x="68" y="156.0" font-family="Arial, sans-serif" font-size="10" text-anchor="end" fill="#64748b">1.8M</text>
<line x1="76" y1="82.0" x2="946" y2="82.0" stroke="#e2e8f0" stroke-width="1"/>
<text x="68" y="86.0" font-family="Arial, sans-serif" font-size="10" text-anchor="end" fill="#64748b">2.3M</text>
<line x1="76" y1="362" x2="946" y2="362" stroke="#334155" stroke-width="1"/>
<line x1="76" y1="82" x2="76" y2="362" stroke="#334155" stroke-width="1"/>
<text x="76" y="72" font-family="Arial, sans-serif" font-size="11" fill="#64748b">nanoton</text>
<line x1="76.0" y1="362" x2="76.0" y2="366" stroke="#334155" stroke-width="1"/>
<text x="76.0" y="380" font-family="Arial, sans-serif" font-size="10" text-anchor="middle" fill="#64748b">0</text>
<line x1="514.7" y1="362" x2="514.7" y2="366" stroke="#334155" stroke-width="1"/>
<text x="514.7" y="380" font-family="Arial, sans-serif" font-size="10" text-anchor="middle" fill="#64748b">60</text>
<line x1="946.0" y1="362" x2="946.0" y2="366" stroke="#334155" stroke-width="1"/>
<text x="946.0" y="380" font-family="Arial, sans-serif" font-size="10" text-anchor="middle" fill="#64748b">119</text>
<polyline points="76.0,350.0 83.3,339.0 90.6,335.0 97.9,345.6 105.2,341.1 112.6,341.8 119.9,324.4 127.2,338.8 134.5,343.4 141.8,336.2 149.1,346.0 156.4,333.6 163.7,330.1 171.0,339.8 178.4,337.0 185.7,342.6 193.0,351.6 200.3,345.3 207.6,342.7 214.9,347.1 222.2,338.9 229.5,343.8 236.8,333.4 244.2,323.7 251.5,336.4 258.8,337.0 266.1,320.3 273.4,331.8 280.7,326.1 288.0,341.2 295.3,332.3 302.6,325.6 309.9,336.9 317.3,337.7 324.6,335.8 331.9,340.9 339.2,338.6 346.5,340.3 353.8,343.8 361.1,337.3 368.4,328.3 375.7,331.5 383.1,337.6 390.4,342.8 397.7,343.7 405.0,342.5 412.3,341.9 419.6,338.2 426.9,329.7 434.2,328.3 441.5,332.6 448.9,326.3 456.2,330.7 463.5,329.0 470.8,339.5 478.1,331.9 485.4,335.9 492.7,331.6 500.0,339.9 507.3,328.6 514.7,326.1 522.0,334.1 529.3,331.8 536.6,328.8 543.9,313.5 551.2,232.6 558.5,316.8 565.8,322.9 573.1,320.7 580.5,328.9 587.8,312.4 595.1,321.3 602.4,314.9 609.7,320.0 617.0,281.2 624.3,324.8 631.6,306.0 638.9,306.8 646.3,314.3 653.6,318.4 660.9,313.6 668.2,310.5 675.5,314.3 682.8,319.9 690.1,317.5 697.4,320.1 704.7,321.2 712.1,309.5 719.4,314.8 726.7,313.4 734.0,303.2 741.3,316.0 748.6,322.6 755.9,326.1 763.2,336.8 770.5,302.0" fill="none" stroke="#2563eb" stroke-width="2.2" stroke-linejoin="round" stroke-linecap="round"/>
<polyline points="777.8,211.0 785.2,192.6 792.5,180.9 799.8,169.5 807.1,160.6 814.4,152.7 821.7,139.2 829.0,131.5 836.3,127.3 843.6,123.6 851.0,121.3 858.3,118.8 865.6,118.1 872.9,117.9 880.2,115.7 887.5,113.4 894.8,112.9 902.1,110.0 909.4,107.3 916.8,108.0 924.1,101.9 931.4,100.1 938.7,95.3 946.0,92.4" fill="none" stroke="#d97706" stroke-width="2.2" stroke-linejoin="round" stroke-linecap="round"/>
<line x1="76" y1="70" x2="94" y2="70" stroke="#2563eb" stroke-width="3"/>
<text x="100" y="74" font-family="Arial, sans-serif" font-size="11" fill="#0f172a">actual avg fee</text>
<line x1="228" y1="70" x2="246" y2="70" stroke="#d97706" stroke-width="3"/>
<text x="252" y="74" font-family="Arial, sans-serif" font-size="11" fill="#0f172a">forecast avg fee</text>
<text x="28" y="404" font-family="Arial, sans-serif" font-size="11" fill="#64748b">Source: hourly_features.csv, predictions.csv</text>
</svg>