<svg xmlns="http://www.w3.org/2000/svg" width="980" height="420" viewBox="0 0 980 420">
<rect width="100%" height="100%" fill="#ffffff"/>
<text x="28" y="34" font-family="Arial, sans-serif" font-size="20" font-weight="700" fill="#0f172a">Recent actual fees and 24-hour forecast</text>
<text x="28" y="56" font-family="Arial, sans-serif" font-size="12" fill="#64748b">Last 96 actual hours followed by generated forecast</text>
<line x1="76" y1="362.0" x2="946" y2="362.0" stroke="#e2e8f0" stroke-width="1"/>
<text x="68" y="366.0" font-family="Arial, sans-serif" font-size="10" text-anchor="end" fill="#64748b">259K</text>
<line x1="76" y1="292.0" x2="946" y2="292.0" stroke="#e2e8f0" stroke-width="1"/>
<text x="68" y="296.0" font-family="Arial, sans-serif" font-size="10" text-anchor="end" fill="#64748b">953K</text>
<line x1="76" y1="222.0" x2="946" y2="222.0" stroke="#e2e8f0" stroke-width="1"/>
<text x="68" y="226.0" font-family="Arial, sans-serif" font-size="10" text-anchor="end" fill="#64748b">1.6M</text>
<line x1="76" y1="152.0" x2="946" y2="152.0" stroke="#e2e8f0" stroke-width="1"/>
<text x="68" y="156.0" font-family="Arial, sans-serif" font-size="10" text-anchor="end" fill="#64748b">2.3M</text>
<line x1="76" y1="82.0" x2="946" y2="82.0" stroke="#e2e8f0" stroke-width="1"/>
<text x="68" y="86.0" font-family="Arial, sans-serif" font-size="10" text-anchor="end" fill="#64748b">3.0M</text>
<line x1="76" y1="362" x2="946" y2="362" stroke="#334155" stroke-width="1"/>
<line x1="76" y1="82" x2="76" y2="362" stroke="#334155" stroke-width="1"/>
<text x="76" y="72" font-family="Arial, sans-serif" font-size="11" fill="#64748b">nanoton</text>
<line x1="76.0" y1="362" x2="76.0" y2="366" stroke="#334155" stroke-width="1"/>
<text x="76.0" y="380" font-family="Arial, sans-serif" font-size="10" text-anchor="middle" fill="#64748b">0</text>
<line x1="514.7" y1="362" x2="514.7" y2="366" stroke="#334155" stroke-width="1"/>
<text x="514.7" y="380" font-family="Arial, sans-serif" font-size="10" text-anchor="middle" fill="#64748b">60</text>
<line x1="946.0" y1="362" x2="946.0" y2="366" stroke="#334155" stroke-width="1"/>
<text x="946.0" y="380" font-family="Arial, sans-serif" font-size="10" text-anchor="middle" fill="#64748b">119</text>
<polyline points="76.0,170.0 83.3,117.2 90.6,161.5 97.9,165.0 105.2,165.6 112.6,137.8 119.9,185.3 127.2,174.7 134.5,108.0 141.8,145.5 149.1,136.2 156.4,137.9 163.7,139.7 171.0,184.1 178.4,157.9 185.7,178.2 193.0,138.0 200.3,172.6 207.6,179.1 214.9,168.1 222.2,163.7 229.5,92.4 236.8,175.5 244.2,307.7 251.5,346.9 258.8,347.2 266.1,345.9 273.4,348.2 280.7,239.5 288.0,340.6 295.3,344.5 302.6,342.1 309.9,345.6 317.3,345.5 324.6,345.6 331.9,325.9 339.2,345.9 346.5,350.5 353.8,342.5 361.1,339.6 368.4,347.3 375.7,344.0 383.1,344.5 390.4,331.9 397.7,342.4 405.0,345.7 412.3,340.4 419.6,347.6 426.9,338.6 434.2,336.0 441.5,343.1 448.9,341.0 456.2,345.1 463.5,351.6 470.8,347.0 478.1,345.1 485.4,348.4 492.7,342.4 500.0,345.9 507.3,338.4 514.7,331.4 522.0,340.6 529.3,341.0 536.6,328.9 543.9,337.3 551.2,333.1 558.5,344.1 565.8,337.7 573.1,332.8 580.5,340.9 587.8,341.5 595.1,340.1 602.4,343.8 609.7,342.2 617.0,343.4 624.3,346.0 631.6,341.2 638.9,334.7 646.3,337.0 653.6,341.4 660.9,345.3 668.2,345.9 675.5,345.0 682.8,344.6 690.1,341.9 697.4,335.7 704.7,334.7 712.1,337.8 719.4,333.3 726.7,336.5 734.0,335.2 741.3,342.8 748.6,337.4 755.9,340.2 763.2,337.1 770.5,343.8" fill="none" stroke="#2563eb" stroke-width="2.2" stroke-linejoin="round" stroke-linecap="round"/>
<polyline points="777.8,266.1 785.2,234.0 792.5,230.5 799.8,223.5 807.1,218.1 814.4,214.0 821.7,206.3 829.0,200.0 836.3,199.1 843.6,192.6 851.0,189.4 858.3,185.6 865.6,184.6 872.9,181.1 880.2,179.4 887.5,173.1 894.8,168.8 902.1,165.4 909.4,163.4 916.8,158.6 924.1,154.1 931.4,151.9 938.7,150.1 946.0,148.4" fill="none" stroke="#d97706" stroke-width="2.2" stroke-linejoin="round" stroke-linecap="round"/>
<line x1="76" y1="70" x2="94" y2="70" stroke="#2563eb" stroke-width="3"/>
<text x="100" y="74" font-family="Arial, sans-serif" font-size="11" fill="#0f172a">actual avg fee</text>
<line x1="228" y1="70" x2="246" y2="70" stroke="#d97706" stroke-width="3"/>
<text x="252" y="74" font-family="Arial, sans-serif" font-size="11" fill="#0f172a">forecast avg fee</text>
<text x="28" y="404" font-family="Arial, sans-serif" font-size="11" fill="#64748b">Source: hourly_features.csv, predictions.csv</text>
</svg>