<svg xmlns="http://www.w3.org/2000/svg" width="980" height="420" viewBox="0 0 980 420">
<rect width="100%" height="100%" fill="#ffffff"/>
<text x="28" y="34" font-family="Arial, sans-serif" font-size="20" font-weight="700" fill="#0f172a">Recent actual fees and 24-hour forecast</text>
<text x="28" y="56" font-family="Arial, sans-serif" font-size="12" fill="#64748b">Last 96 actual hours followed by generated forecast</text>
<line x1="76" y1="362.0" x2="946" y2="362.0" stroke="#e2e8f0" stroke-width="1"/>
<text x="68" y="366.0" font-family="Arial, sans-serif" font-size="10" text-anchor="end" fill="#64748b">1.6M</text>
<line x1="76" y1="292.0" x2="946" y2="292.0" stroke="#e2e8f0" stroke-width="1"/>
<text x="68" y="296.0" font-family="Arial, sans-serif" font-size="10" text-anchor="end" fill="#64748b">2.0M</text>
<line x1="76" y1="222.0" x2="946" y2="222.0" stroke="#e2e8f0" stroke-width="1"/>
<text x="68" y="226.0" font-family="Arial, sans-serif" font-size="10" text-anchor="end" fill="#64748b">2.4M</text>
<line x1="76" y1="152.0" x2="946" y2="152.0" stroke="#e2e8f0" stroke-width="1"/>
<text x="68" y="156.0" font-family="Arial, sans-serif" font-size="10" text-anchor="end" fill="#64748b">2.8M</text>
<line x1="76" y1="82.0" x2="946" y2="82.0" stroke="#e2e8f0" stroke-width="1"/>
<text x="68" y="86.0" font-family="Arial, sans-serif" font-size="10" text-anchor="end" fill="#64748b">3.1M</text>
<line x1="76" y1="362" x2="946" y2="362" stroke="#334155" stroke-width="1"/>
<line x1="76" y1="82" x2="76" y2="362" stroke="#334155" stroke-width="1"/>
<text x="76" y="72" font-family="Arial, sans-serif" font-size="11" fill="#64748b">nanoton</text>
<line x1="76.0" y1="362" x2="76.0" y2="366" stroke="#334155" stroke-width="1"/>
<text x="76.0" y="380" font-family="Arial, sans-serif" font-size="10" text-anchor="middle" fill="#64748b">0</text>
<line x1="514.7" y1="362" x2="514.7" y2="366" stroke="#334155" stroke-width="1"/>
<text x="514.7" y="380" font-family="Arial, sans-serif" font-size="10" text-anchor="middle" fill="#64748b">60</text>
<line x1="946.0" y1="362" x2="946.0" y2="366" stroke="#334155" stroke-width="1"/>
<text x="946.0" y="380" font-family="Arial, sans-serif" font-size="10" text-anchor="middle" fill="#64748b">119</text>
<polyline points="76.0,199.5 83.3,237.0 90.6,155.9 97.9,212.6 105.2,200.0 112.6,200.0 119.9,197.1 127.2,218.3 134.5,234.8 141.8,205.1 149.1,214.7 156.4,173.0 163.7,120.3 171.0,236.3 178.4,246.7 185.7,187.8 193.0,256.8 200.3,219.0 207.6,299.1 214.9,179.5 222.2,277.1 229.5,270.8 236.8,174.7 244.2,279.3 251.5,220.9 258.8,223.6 266.1,297.3 273.4,281.1 280.7,191.1 288.0,115.7 295.3,204.0 302.6,92.4 309.9,205.0 317.3,295.1 324.6,266.0 331.9,232.4 339.2,250.5 346.5,309.8 353.8,141.7 361.1,185.7 368.4,351.6 375.7,244.9 383.1,271.8 390.4,232.1 397.7,281.1 405.0,218.4 412.3,265.9 419.6,217.0 426.9,129.4 434.2,203.4 441.5,185.9 448.9,201.3 456.2,179.8 463.5,199.1 470.8,218.7 478.1,263.5 485.4,300.0 492.7,200.3 500.0,291.0 507.3,278.5 514.7,281.1 522.0,263.0 529.3,217.8 536.6,187.3 543.9,278.2 551.2,320.9 558.5,290.6 565.8,313.2 573.1,270.5 580.5,300.0 587.8,303.3 595.1,230.9 602.4,145.2 609.7,215.5 617.0,223.2 624.3,227.0 631.6,228.5 638.9,200.5 646.3,284.8 653.6,300.1 660.9,273.3 668.2,312.3 675.5,291.5 682.8,263.7 690.1,266.7 697.4,210.5 704.7,271.1 712.1,281.9 719.4,303.5 726.7,173.8 734.0,253.2 741.3,280.8 748.6,256.0 755.9,245.4 763.2,260.2 770.5,195.9" fill="none" stroke="#2563eb" stroke-width="2.2" stroke-linejoin="round" stroke-linecap="round"/>
<polyline points="777.8,225.5 785.2,229.4 792.5,241.9 799.8,242.2 807.1,237.7 814.4,236.6 821.7,241.0 829.0,241.6 836.3,241.6 843.6,241.6 851.0,241.4 858.3,247.9 865.6,241.4 872.9,242.9 880.2,241.6 887.5,241.6 894.8,241.6 902.1,249.3 909.4,250.1 916.8,256.8 924.1,256.8 931.4,256.6 938.7,256.8 946.0,246.1" fill="none" stroke="#d97706" stroke-width="2.2" stroke-linejoin="round" stroke-linecap="round"/>
<line x1="76" y1="70" x2="94" y2="70" stroke="#2563eb" stroke-width="3"/>
<text x="100" y="74" font-family="Arial, sans-serif" font-size="11" fill="#0f172a">actual avg fee</text>
<line x1="228" y1="70" x2="246" y2="70" stroke="#d97706" stroke-width="3"/>
<text x="252" y="74" font-family="Arial, sans-serif" font-size="11" fill="#0f172a">forecast avg fee</text>
<text x="28" y="404" font-family="Arial, sans-serif" font-size="11" fill="#64748b">Source: hourly_features.csv, predictions.csv</text>
</svg>