<svg xmlns="http://www.w3.org/2000/svg" width="980" height="420" viewBox="0 0 980 420">
<rect width="100%" height="100%" fill="#ffffff"/>
<text x="28" y="34" font-family="Arial, sans-serif" font-size="20" font-weight="700" fill="#0f172a">Recent actual fees and 24-hour forecast</text>
<text x="28" y="56" font-family="Arial, sans-serif" font-size="12" fill="#64748b">Last 96 actual hours followed by generated forecast</text>
<line x1="76" y1="362.0" x2="946" y2="362.0" stroke="#e2e8f0" stroke-width="1"/>
<text x="68" y="366.0" font-family="Arial, sans-serif" font-size="10" text-anchor="end" fill="#64748b">259K</text>
<line x1="76" y1="292.0" x2="946" y2="292.0" stroke="#e2e8f0" stroke-width="1"/>
<text x="68" y="296.0" font-family="Arial, sans-serif" font-size="10" text-anchor="end" fill="#64748b">953K</text>
<line x1="76" y1="222.0" x2="946" y2="222.0" stroke="#e2e8f0" stroke-width="1"/>
<text x="68" y="226.0" font-family="Arial, sans-serif" font-size="10" text-anchor="end" fill="#64748b">1.6M</text>
<line x1="76" y1="152.0" x2="946" y2="152.0" stroke="#e2e8f0" stroke-width="1"/>
<text x="68" y="156.0" font-family="Arial, sans-serif" font-size="10" text-anchor="end" fill="#64748b">2.3M</text>
<line x1="76" y1="82.0" x2="946" y2="82.0" stroke="#e2e8f0" stroke-width="1"/>
<text x="68" y="86.0" font-family="Arial, sans-serif" font-size="10" text-anchor="end" fill="#64748b">3.0M</text>
<line x1="76" y1="362" x2="946" y2="362" stroke="#334155" stroke-width="1"/>
<line x1="76" y1="82" x2="76" y2="362" stroke="#334155" stroke-width="1"/>
<text x="76" y="72" font-family="Arial, sans-serif" font-size="11" fill="#64748b">nanoton</text>
<line x1="76.0" y1="362" x2="76.0" y2="366" stroke="#334155" stroke-width="1"/>
<text x="76.0" y="380" font-family="Arial, sans-serif" font-size="10" text-anchor="middle" fill="#64748b">0</text>
<line x1="514.7" y1="362" x2="514.7" y2="366" stroke="#334155" stroke-width="1"/>
<text x="514.7" y="380" font-family="Arial, sans-serif" font-size="10" text-anchor="middle" fill="#64748b">60</text>
<line x1="946.0" y1="362" x2="946.0" y2="366" stroke="#334155" stroke-width="1"/>
<text x="946.0" y="380" font-family="Arial, sans-serif" font-size="10" text-anchor="middle" fill="#64748b">119</text>
<polyline points="76.0,160.5 83.3,168.6 90.6,134.8 97.9,135.1 105.2,136.1 112.6,152.9 119.9,152.4 127.2,160.8 134.5,176.6 141.8,188.6 149.1,170.4 156.4,160.5 163.7,170.0 171.0,117.2 178.4,161.5 185.7,165.0 193.0,165.6 200.3,137.8 207.6,185.3 214.9,174.7 222.2,108.0 229.5,145.5 236.8,136.2 244.2,137.9 251.5,139.7 258.8,184.1 266.1,157.9 273.4,178.2 280.7,138.0 288.0,172.6 295.3,179.1 302.6,168.1 309.9,163.7 317.3,92.4 324.6,175.5 331.9,307.7 339.2,346.9 346.5,347.2 353.8,345.9 361.1,348.2 368.4,239.5 375.7,340.6 383.1,344.5 390.4,342.1 397.7,345.6 405.0,345.5 412.3,345.6 419.6,325.9 426.9,345.9 434.2,350.5 441.5,342.5 448.9,339.6 456.2,347.3 463.5,344.0 470.8,344.5 478.1,331.9 485.4,342.4 492.7,345.7 500.0,340.4 507.3,347.6 514.7,338.6 522.0,336.0 529.3,343.1 536.6,341.0 543.9,345.1 551.2,351.6 558.5,347.0 565.8,345.1 573.1,348.4 580.5,342.4 587.8,345.9 595.1,338.4 602.4,331.4 609.7,340.6 617.0,341.0 624.3,328.9 631.6,337.3 638.9,333.1 646.3,344.1 653.6,337.7 660.9,332.8 668.2,340.9 675.5,341.5 682.8,340.1 690.1,343.8 697.4,342.2 704.7,343.4 712.1,346.0 719.4,341.2 726.7,334.7 734.0,337.0 741.3,341.4 748.6,345.3 755.9,345.9 763.2,345.0 770.5,343.4" fill="none" stroke="#2563eb" stroke-width="2.2" stroke-linejoin="round" stroke-linecap="round"/>
<polyline points="777.8,280.2 785.2,244.6 792.5,238.6 799.8,228.4 807.1,220.5 814.4,206.9 821.7,198.9 829.0,191.5 836.3,185.8 843.6,182.0 851.0,179.0 858.3,176.6 865.6,175.3 872.9,174.4 880.2,174.5 887.5,172.6 894.8,170.6 902.1,169.9 909.4,167.7 916.8,164.5 924.1,164.9 931.4,159.6 938.7,157.3 946.0,154.2" fill="none" stroke="#d97706" stroke-width="2.2" stroke-linejoin="round" stroke-linecap="round"/>
<line x1="76" y1="70" x2="94" y2="70" stroke="#2563eb" stroke-width="3"/>
<text x="100" y="74" font-family="Arial, sans-serif" font-size="11" fill="#0f172a">actual avg fee</text>
<line x1="228" y1="70" x2="246" y2="70" stroke="#d97706" stroke-width="3"/>
<text x="252" y="74" font-family="Arial, sans-serif" font-size="11" fill="#0f172a">forecast avg fee</text>
<text x="28" y="404" font-family="Arial, sans-serif" font-size="11" fill="#64748b">Source: hourly_features.csv, predictions.csv</text>
</svg>