<svg xmlns="http://www.w3.org/2000/svg" width="980" height="420" viewBox="0 0 980 420">
<rect width="100%" height="100%" fill="#ffffff"/>
<text x="28" y="34" font-family="Arial, sans-serif" font-size="20" font-weight="700" fill="#0f172a">Recent actual fees and 24-hour forecast</text>
<text x="28" y="56" font-family="Arial, sans-serif" font-size="12" fill="#64748b">Last 96 actual hours followed by generated forecast</text>
<line x1="76" y1="362.0" x2="946" y2="362.0" stroke="#e2e8f0" stroke-width="1"/>
<text x="68" y="366.0" font-family="Arial, sans-serif" font-size="10" text-anchor="end" fill="#64748b">341K</text>
<line x1="76" y1="292.0" x2="946" y2="292.0" stroke="#e2e8f0" stroke-width="1"/>
<text x="68" y="296.0" font-family="Arial, sans-serif" font-size="10" text-anchor="end" fill="#64748b">856K</text>
<line x1="76" y1="222.0" x2="946" y2="222.0" stroke="#e2e8f0" stroke-width="1"/>
<text x="68" y="226.0" font-family="Arial, sans-serif" font-size="10" text-anchor="end" fill="#64748b">1.4M</text>
<line x1="76" y1="152.0" x2="946" y2="152.0" stroke="#e2e8f0" stroke-width="1"/>
<text x="68" y="156.0" font-family="Arial, sans-serif" font-size="10" text-anchor="end" fill="#64748b">1.9M</text>
<line x1="76" y1="82.0" x2="946" y2="82.0" stroke="#e2e8f0" stroke-width="1"/>
<text x="68" y="86.0" font-family="Arial, sans-serif" font-size="10" text-anchor="end" fill="#64748b">2.4M</text>
<line x1="76" y1="362" x2="946" y2="362" stroke="#334155" stroke-width="1"/>
<line x1="76" y1="82" x2="76" y2="362" stroke="#334155" stroke-width="1"/>
<text x="76" y="72" font-family="Arial, sans-serif" font-size="11" fill="#64748b">nanoton</text>
<line x1="76.0" y1="362" x2="76.0" y2="366" stroke="#334155" stroke-width="1"/>
<text x="76.0" y="380" font-family="Arial, sans-serif" font-size="10" text-anchor="middle" fill="#64748b">0</text>
<line x1="514.7" y1="362" x2="514.7" y2="366" stroke="#334155" stroke-width="1"/>
<text x="514.7" y="380" font-family="Arial, sans-serif" font-size="10" text-anchor="middle" fill="#64748b">60</text>
<line x1="946.0" y1="362" x2="946.0" y2="366" stroke="#334155" stroke-width="1"/>
<text x="946.0" y="380" font-family="Arial, sans-serif" font-size="10" text-anchor="middle" fill="#64748b">119</text>
<polyline points="76.0,346.5 83.3,348.2 90.6,351.6 97.9,345.2 105.2,336.4 112.6,339.6 119.9,345.5 127.2,350.7 134.5,351.5 141.8,350.3 149.1,349.7 156.4,346.1 163.7,337.8 171.0,336.5 178.4,340.6 185.7,334.5 193.0,338.8 200.3,337.1 207.6,347.4 214.9,340.0 222.2,343.8 229.5,339.6 236.8,347.8 244.2,336.7 251.5,334.3 258.8,342.1 266.1,339.9 273.4,336.9 280.7,321.9 288.0,242.9 295.3,325.2 302.6,331.1 309.9,329.0 317.3,337.0 324.6,320.9 331.9,329.6 339.2,323.3 346.5,328.3 353.8,290.4 361.1,333.0 368.4,314.7 375.7,315.5 383.1,322.8 390.4,326.8 397.7,322.0 405.0,319.1 412.3,322.8 419.6,328.2 426.9,325.9 434.2,328.5 441.5,329.5 448.9,318.1 456.2,323.2 463.5,321.8 470.8,311.9 478.1,324.4 485.4,330.8 492.7,334.3 500.0,344.8 507.3,313.5 514.7,334.3 522.0,323.1 529.3,323.6 536.6,313.8 543.9,313.2 551.2,333.5 558.5,325.8 565.8,325.4 573.1,323.3 580.5,328.5 587.8,332.3 595.1,336.4 602.4,325.9 609.7,322.1 617.0,331.4 624.3,338.1 631.6,330.7 638.9,319.3 646.3,316.3 653.6,346.7 660.9,334.3 668.2,329.6 675.5,332.3 682.8,314.5 690.1,327.3 697.4,325.9 704.7,323.2 712.1,323.2 719.4,346.6 726.7,320.1 734.0,311.2 741.3,334.9 748.6,325.5 755.9,332.0 763.2,325.6 770.5,313.5" fill="none" stroke="#2563eb" stroke-width="2.2" stroke-linejoin="round" stroke-linecap="round"/>
<polyline points="777.8,218.2 785.2,204.0 792.5,199.0 799.8,190.9 807.1,186.3 814.4,179.7 821.7,168.5 829.0,165.1 836.3,158.8 843.6,155.7 851.0,150.7 858.3,148.1 865.6,142.6 872.9,140.7 880.2,132.0 887.5,127.4 894.8,116.4 902.1,112.4 909.4,107.2 916.8,102.3 924.1,98.8 931.4,96.5 938.7,94.3 946.0,92.4" fill="none" stroke="#d97706" stroke-width="2.2" stroke-linejoin="round" stroke-linecap="round"/>
<line x1="76" y1="70" x2="94" y2="70" stroke="#2563eb" stroke-width="3"/>
<text x="100" y="74" font-family="Arial, sans-serif" font-size="11" fill="#0f172a">actual avg fee</text>
<line x1="228" y1="70" x2="246" y2="70" stroke="#d97706" stroke-width="3"/>
<text x="252" y="74" font-family="Arial, sans-serif" font-size="11" fill="#0f172a">forecast avg fee</text>
<text x="28" y="404" font-family="Arial, sans-serif" font-size="11" fill="#64748b">Source: hourly_features.csv, predictions.csv</text>
</svg>