<svg xmlns="http://www.w3.org/2000/svg" width="980" height="420" viewBox="0 0 980 420">
<rect width="100%" height="100%" fill="#ffffff"/>
<text x="28" y="34" font-family="Arial, sans-serif" font-size="20" font-weight="700" fill="#0f172a">Recent actual fees and 24-hour forecast</text>
<text x="28" y="56" font-family="Arial, sans-serif" font-size="12" fill="#64748b">Last 96 actual hours followed by generated forecast</text>
<line x1="76" y1="362.0" x2="946" y2="362.0" stroke="#e2e8f0" stroke-width="1"/>
<text x="68" y="366.0" font-family="Arial, sans-serif" font-size="10" text-anchor="end" fill="#64748b">259K</text>
<line x1="76" y1="292.0" x2="946" y2="292.0" stroke="#e2e8f0" stroke-width="1"/>
<text x="68" y="296.0" font-family="Arial, sans-serif" font-size="10" text-anchor="end" fill="#64748b">953K</text>
<line x1="76" y1="222.0" x2="946" y2="222.0" stroke="#e2e8f0" stroke-width="1"/>
<text x="68" y="226.0" font-family="Arial, sans-serif" font-size="10" text-anchor="end" fill="#64748b">1.6M</text>
<line x1="76" y1="152.0" x2="946" y2="152.0" stroke="#e2e8f0" stroke-width="1"/>
<text x="68" y="156.0" font-family="Arial, sans-serif" font-size="10" text-anchor="end" fill="#64748b">2.3M</text>
<line x1="76" y1="82.0" x2="946" y2="82.0" stroke="#e2e8f0" stroke-width="1"/>
<text x="68" y="86.0" font-family="Arial, sans-serif" font-size="10" text-anchor="end" fill="#64748b">3.0M</text>
<line x1="76" y1="362" x2="946" y2="362" stroke="#334155" stroke-width="1"/>
<line x1="76" y1="82" x2="76" y2="362" stroke="#334155" stroke-width="1"/>
<text x="76" y="72" font-family="Arial, sans-serif" font-size="11" fill="#64748b">nanoton</text>
<line x1="76.0" y1="362" x2="76.0" y2="366" stroke="#334155" stroke-width="1"/>
<text x="76.0" y="380" font-family="Arial, sans-serif" font-size="10" text-anchor="middle" fill="#64748b">0</text>
<line x1="514.7" y1="362" x2="514.7" y2="366" stroke="#334155" stroke-width="1"/>
<text x="514.7" y="380" font-family="Arial, sans-serif" font-size="10" text-anchor="middle" fill="#64748b">60</text>
<line x1="946.0" y1="362" x2="946.0" y2="366" stroke="#334155" stroke-width="1"/>
<text x="946.0" y="380" font-family="Arial, sans-serif" font-size="10" text-anchor="middle" fill="#64748b">119</text>
<polyline points="76.0,152.5 83.3,105.5 90.6,144.1 97.9,148.3 105.2,150.4 112.6,151.2 119.9,135.9 127.2,182.1 134.5,190.5 141.8,175.8 149.1,197.3 156.4,185.8 163.7,170.6 171.0,172.2 178.4,141.3 185.7,174.6 193.0,180.6 200.3,192.4 207.6,121.2 214.9,164.8 222.2,180.0 229.5,166.3 236.8,160.5 244.2,168.6 251.5,134.8 258.8,135.1 266.1,136.1 273.4,152.9 280.7,152.4 288.0,160.8 295.3,176.6 302.6,188.6 309.9,170.4 317.3,160.5 324.6,170.0 331.9,117.2 339.2,161.5 346.5,165.0 353.8,165.6 361.1,137.8 368.4,185.3 375.7,174.7 383.1,108.0 390.4,145.5 397.7,136.2 405.0,137.9 412.3,139.7 419.6,184.1 426.9,157.9 434.2,178.2 441.5,138.0 448.9,172.6 456.2,179.1 463.5,168.1 470.8,163.7 478.1,92.4 485.4,175.5 492.7,307.7 500.0,346.9 507.3,347.2 514.7,345.9 522.0,348.2 529.3,239.5 536.6,340.6 543.9,344.5 551.2,342.1 558.5,345.6 565.8,345.5 573.1,345.6 580.5,325.9 587.8,345.9 595.1,350.5 602.4,342.5 609.7,339.6 617.0,347.3 624.3,344.0 631.6,344.5 638.9,331.9 646.3,342.4 653.6,345.7 660.9,340.4 668.2,347.6 675.5,338.6 682.8,336.0 690.1,343.1 697.4,341.0 704.7,345.1 712.1,351.6 719.4,347.0 726.7,345.1 734.0,348.4 741.3,342.4 748.6,345.9 755.9,338.4 763.2,331.4 770.5,343.1" fill="none" stroke="#2563eb" stroke-width="2.2" stroke-linejoin="round" stroke-linecap="round"/>
<polyline points="777.8,268.1 785.2,235.7 792.5,227.8 799.8,217.2 807.1,211.4 814.4,204.2 821.7,195.1 829.0,190.2 836.3,187.6 843.6,185.5 851.0,183.6 858.3,181.1 865.6,181.9 872.9,180.7 880.2,178.9 887.5,178.0 894.8,175.9 902.1,173.0 909.4,173.7 916.8,168.9 924.1,167.5 931.4,165.5 938.7,163.9 946.0,159.0" fill="none" stroke="#d97706" stroke-width="2.2" stroke-linejoin="round" stroke-linecap="round"/>
<line x1="76" y1="70" x2="94" y2="70" stroke="#2563eb" stroke-width="3"/>
<text x="100" y="74" font-family="Arial, sans-serif" font-size="11" fill="#0f172a">actual avg fee</text>
<line x1="228" y1="70" x2="246" y2="70" stroke="#d97706" stroke-width="3"/>
<text x="252" y="74" font-family="Arial, sans-serif" font-size="11" fill="#0f172a">forecast avg fee</text>
<text x="28" y="404" font-family="Arial, sans-serif" font-size="11" fill="#64748b">Source: hourly_features.csv, predictions.csv</text>
</svg>