<svg xmlns="http://www.w3.org/2000/svg" width="980" height="420" viewBox="0 0 980 420">
<rect width="100%" height="100%" fill="#ffffff"/>
<text x="28" y="34" font-family="Arial, sans-serif" font-size="20" font-weight="700" fill="#0f172a">Recent actual fees and 24-hour forecast</text>
<text x="28" y="56" font-family="Arial, sans-serif" font-size="12" fill="#64748b">Last 96 actual hours followed by generated forecast</text>
<line x1="76" y1="362.0" x2="946" y2="362.0" stroke="#e2e8f0" stroke-width="1"/>
<text x="68" y="366.0" font-family="Arial, sans-serif" font-size="10" text-anchor="end" fill="#64748b">281K</text>
<line x1="76" y1="292.0" x2="946" y2="292.0" stroke="#e2e8f0" stroke-width="1"/>
<text x="68" y="296.0" font-family="Arial, sans-serif" font-size="10" text-anchor="end" fill="#64748b">823K</text>
<line x1="76" y1="222.0" x2="946" y2="222.0" stroke="#e2e8f0" stroke-width="1"/>
<text x="68" y="226.0" font-family="Arial, sans-serif" font-size="10" text-anchor="end" fill="#64748b">1.4M</text>
<line x1="76" y1="152.0" x2="946" y2="152.0" stroke="#e2e8f0" stroke-width="1"/>
<text x="68" y="156.0" font-family="Arial, sans-serif" font-size="10" text-anchor="end" fill="#64748b">1.9M</text>
<line x1="76" y1="82.0" x2="946" y2="82.0" stroke="#e2e8f0" stroke-width="1"/>
<text x="68" y="86.0" font-family="Arial, sans-serif" font-size="10" text-anchor="end" fill="#64748b">2.4M</text>
<line x1="76" y1="362" x2="946" y2="362" stroke="#334155" stroke-width="1"/>
<line x1="76" y1="82" x2="76" y2="362" stroke="#334155" stroke-width="1"/>
<text x="76" y="72" font-family="Arial, sans-serif" font-size="11" fill="#64748b">nanoton</text>
<line x1="76.0" y1="362" x2="76.0" y2="366" stroke="#334155" stroke-width="1"/>
<text x="76.0" y="380" font-family="Arial, sans-serif" font-size="10" text-anchor="middle" fill="#64748b">0</text>
<line x1="514.7" y1="362" x2="514.7" y2="366" stroke="#334155" stroke-width="1"/>
<text x="514.7" y="380" font-family="Arial, sans-serif" font-size="10" text-anchor="middle" fill="#64748b">60</text>
<line x1="946.0" y1="362" x2="946.0" y2="366" stroke="#334155" stroke-width="1"/>
<text x="946.0" y="380" font-family="Arial, sans-serif" font-size="10" text-anchor="middle" fill="#64748b">119</text>
<polyline points="76.0,295.2 83.3,345.6 90.6,345.9 97.9,344.2 105.2,347.2 112.6,207.7 119.9,337.4 127.2,342.4 134.5,339.4 141.8,343.9 149.1,343.7 156.4,343.9 163.7,318.6 171.0,344.3 178.4,350.1 185.7,339.9 193.0,336.2 200.3,346.0 207.6,341.8 214.9,342.5 222.2,326.3 229.5,339.7 236.8,344.0 244.2,337.3 251.5,346.4 258.8,334.9 266.1,331.6 273.4,340.7 280.7,338.0 288.0,343.2 295.3,351.6 302.6,345.7 309.9,343.3 317.3,347.4 324.6,339.8 331.9,344.3 339.2,334.7 346.5,325.7 353.8,337.5 361.1,338.0 368.4,322.5 375.7,333.2 383.1,327.9 390.4,341.9 397.7,333.7 405.0,327.5 412.3,337.9 419.6,338.7 426.9,336.9 434.2,341.6 441.5,339.5 448.9,341.1 456.2,344.4 463.5,338.3 470.8,329.9 478.1,332.9 485.4,338.6 492.7,343.5 500.0,344.3 507.3,343.1 514.7,342.6 522.0,339.1 529.3,331.3 536.6,329.9 543.9,333.9 551.2,328.1 558.5,332.2 565.8,330.6 573.1,340.3 580.5,333.3 587.8,337.0 595.1,333.0 602.4,340.7 609.7,330.2 617.0,327.9 624.3,335.4 631.6,333.2 638.9,330.4 646.3,316.1 653.6,240.9 660.9,319.2 668.2,324.9 675.5,322.9 682.8,330.5 690.1,315.1 697.4,323.5 704.7,317.5 712.1,322.2 719.4,286.1 726.7,326.6 734.0,309.2 741.3,310.0 748.6,316.9 755.9,320.7 763.2,316.2 770.5,318.5" fill="none" stroke="#2563eb" stroke-width="2.2" stroke-linejoin="round" stroke-linecap="round"/>
<polyline points="777.8,215.2 785.2,194.0 792.5,190.7 799.8,184.0 807.1,178.7 814.4,172.3 821.7,163.1 829.0,159.7 836.3,153.7 843.6,152.6 851.0,145.6 858.3,142.5 865.6,139.7 872.9,138.4 880.2,133.5 887.5,131.9 894.8,124.7 902.1,119.2 909.4,113.8 916.8,111.2 924.1,105.1 931.4,99.6 938.7,96.0 946.0,92.4" fill="none" stroke="#d97706" stroke-width="2.2" stroke-linejoin="round" stroke-linecap="round"/>
<line x1="76" y1="70" x2="94" y2="70" stroke="#2563eb" stroke-width="3"/>
<text x="100" y="74" font-family="Arial, sans-serif" font-size="11" fill="#0f172a">actual avg fee</text>
<line x1="228" y1="70" x2="246" y2="70" stroke="#d97706" stroke-width="3"/>
<text x="252" y="74" font-family="Arial, sans-serif" font-size="11" fill="#0f172a">forecast avg fee</text>
<text x="28" y="404" font-family="Arial, sans-serif" font-size="11" fill="#64748b">Source: hourly_features.csv, predictions.csv</text>
</svg>