<svg xmlns="http://www.w3.org/2000/svg" width="980" height="420" viewBox="0 0 980 420">
<rect width="100%" height="100%" fill="#ffffff"/>
<text x="28" y="34" font-family="Arial, sans-serif" font-size="20" font-weight="700" fill="#0f172a">Recent actual fees and 24-hour forecast</text>
<text x="28" y="56" font-family="Arial, sans-serif" font-size="12" fill="#64748b">Last 96 actual hours followed by generated forecast</text>
<line x1="76" y1="362.0" x2="946" y2="362.0" stroke="#e2e8f0" stroke-width="1"/>
<text x="68" y="366.0" font-family="Arial, sans-serif" font-size="10" text-anchor="end" fill="#64748b">381K</text>
<line x1="76" y1="292.0" x2="946" y2="292.0" stroke="#e2e8f0" stroke-width="1"/>
<text x="68" y="296.0" font-family="Arial, sans-serif" font-size="10" text-anchor="end" fill="#64748b">657K</text>
<line x1="76" y1="222.0" x2="946" y2="222.0" stroke="#e2e8f0" stroke-width="1"/>
<text x="68" y="226.0" font-family="Arial, sans-serif" font-size="10" text-anchor="end" fill="#64748b">934K</text>
<line x1="76" y1="152.0" x2="946" y2="152.0" stroke="#e2e8f0" stroke-width="1"/>
<text x="68" y="156.0" font-family="Arial, sans-serif" font-size="10" text-anchor="end" fill="#64748b">1.2M</text>
<line x1="76" y1="82.0" x2="946" y2="82.0" stroke="#e2e8f0" stroke-width="1"/>
<text x="68" y="86.0" font-family="Arial, sans-serif" font-size="10" text-anchor="end" fill="#64748b">1.5M</text>
<line x1="76" y1="362" x2="946" y2="362" stroke="#334155" stroke-width="1"/>
<line x1="76" y1="82" x2="76" y2="362" stroke="#334155" stroke-width="1"/>
<text x="76" y="72" font-family="Arial, sans-serif" font-size="11" fill="#64748b">nanoton</text>
<line x1="76.0" y1="362" x2="76.0" y2="366" stroke="#334155" stroke-width="1"/>
<text x="76.0" y="380" font-family="Arial, sans-serif" font-size="10" text-anchor="middle" fill="#64748b">0</text>
<line x1="514.7" y1="362" x2="514.7" y2="366" stroke="#334155" stroke-width="1"/>
<text x="514.7" y="380" font-family="Arial, sans-serif" font-size="10" text-anchor="middle" fill="#64748b">60</text>
<line x1="946.0" y1="362" x2="946.0" y2="366" stroke="#334155" stroke-width="1"/>
<text x="946.0" y="380" font-family="Arial, sans-serif" font-size="10" text-anchor="middle" fill="#64748b">119</text>
<polyline points="76.0,187.1 83.3,184.8 90.6,205.7 97.9,323.1 105.2,228.2 112.6,172.1 119.9,179.3 127.2,187.7 134.5,176.2 141.8,211.8 149.1,193.4 156.4,325.4 163.7,325.3 171.0,315.4 178.4,330.2 185.7,331.3 193.0,92.4 200.3,192.1 207.6,258.8 214.9,223.8 222.2,246.6 229.5,265.4 236.8,335.7 244.2,344.5 251.5,334.3 258.8,323.1 266.1,320.5 273.4,298.5 280.7,329.2 288.0,333.0 295.3,325.1 302.6,264.7 309.9,271.5 317.3,318.6 324.6,267.8 331.9,326.6 339.2,311.9 346.5,332.8 353.8,327.9 361.1,325.9 368.4,333.4 375.7,320.8 383.1,328.7 390.4,344.8 397.7,339.6 405.0,315.7 412.3,311.3 419.6,343.5 426.9,328.7 434.2,320.9 441.5,334.0 448.9,321.4 456.2,313.4 463.5,324.7 470.8,323.0 478.1,312.2 485.4,327.6 492.7,325.1 500.0,327.7 507.3,343.7 514.7,351.6 522.0,344.8 529.3,339.0 536.6,347.2 543.9,341.9 551.2,334.8 558.5,315.1 565.8,308.3 573.1,329.6 580.5,330.8 587.8,335.7 595.1,335.7 602.4,333.4 609.7,308.4 617.0,341.3 624.3,347.5 631.6,335.8 638.9,340.4 646.3,324.7 653.6,334.9 660.9,328.1 668.2,341.3 675.5,334.3 682.8,334.9 690.1,327.4 697.4,334.5 704.7,328.6 712.1,336.7 719.4,342.3 726.7,341.0 734.0,340.9 741.3,349.3 748.6,341.3 755.9,334.1 763.2,338.3 770.5,341.3" fill="none" stroke="#2563eb" stroke-width="2.2" stroke-linejoin="round" stroke-linecap="round"/>
<polyline points="777.8,334.2 785.2,327.2 792.5,316.7 799.8,318.1 807.1,318.3 814.4,305.6 821.7,312.9 829.0,310.2 836.3,317.0 843.6,305.6 851.0,309.4 858.3,313.8 865.6,308.1 872.9,309.4 880.2,317.0 887.5,309.4 894.8,317.0 902.1,314.0 909.4,315.5 916.8,316.1 924.1,315.6 931.4,313.8 938.7,310.6 946.0,312.5" fill="none" stroke="#d97706" stroke-width="2.2" stroke-linejoin="round" stroke-linecap="round"/>
<line x1="76" y1="70" x2="94" y2="70" stroke="#2563eb" stroke-width="3"/>
<text x="100" y="74" font-family="Arial, sans-serif" font-size="11" fill="#0f172a">actual avg fee</text>
<line x1="228" y1="70" x2="246" y2="70" stroke="#d97706" stroke-width="3"/>
<text x="252" y="74" font-family="Arial, sans-serif" font-size="11" fill="#0f172a">forecast avg fee</text>
<text x="28" y="404" font-family="Arial, sans-serif" font-size="11" fill="#64748b">Source: hourly_features.csv, predictions.csv</text>
</svg>