<svg xmlns="http://www.w3.org/2000/svg" width="980" height="420" viewBox="0 0 980 420">
<rect width="100%" height="100%" fill="#ffffff"/>
<text x="28" y="34" font-family="Arial, sans-serif" font-size="20" font-weight="700" fill="#0f172a">Hourly fee trend</text>
<text x="28" y="56" font-family="Arial, sans-serif" font-size="12" fill="#64748b">Average, median, and p90 total fee by hour</text>
<line x1="76" y1="362.0" x2="946" y2="362.0" stroke="#e2e8f0" stroke-width="1"/>
<text x="68" y="366.0" font-family="Arial, sans-serif" font-size="10" text-anchor="end" fill="#64748b">-382K</text>
<line x1="76" y1="292.0" x2="946" y2="292.0" stroke="#e2e8f0" stroke-width="1"/>
<text x="68" y="296.0" font-family="Arial, sans-serif" font-size="10" text-anchor="end" fill="#64748b">2.6M</text>
<line x1="76" y1="222.0" x2="946" y2="222.0" stroke="#e2e8f0" stroke-width="1"/>
<text x="68" y="226.0" font-family="Arial, sans-serif" font-size="10" text-anchor="end" fill="#64748b">5.7M</text>
<line x1="76" y1="152.0" x2="946" y2="152.0" stroke="#e2e8f0" stroke-width="1"/>
<text x="68" y="156.0" font-family="Arial, sans-serif" font-size="10" text-anchor="end" fill="#64748b">8.7M</text>
<line x1="76" y1="82.0" x2="946" y2="82.0" stroke="#e2e8f0" stroke-width="1"/>
<text x="68" y="86.0" font-family="Arial, sans-serif" font-size="10" text-anchor="end" fill="#64748b">11.7M</text>
<line x1="76" y1="362" x2="946" y2="362" stroke="#334155" stroke-width="1"/>
<line x1="76" y1="82" x2="76" y2="362" stroke="#334155" stroke-width="1"/>
<text x="76" y="72" font-family="Arial, sans-serif" font-size="11" fill="#64748b">nanoton</text>
<line x1="76.0" y1="362" x2="76.0" y2="366" stroke="#334155" stroke-width="1"/>
<text x="76.0" y="380" font-family="Arial, sans-serif" font-size="10" text-anchor="middle" fill="#64748b">0</text>
<line x1="511.5" y1="362" x2="511.5" y2="366" stroke="#334155" stroke-width="1"/>
<text x="511.5" y="380" font-family="Arial, sans-serif" font-size="10" text-anchor="middle" fill="#64748b">463</text>
<line x1="946.0" y1="362" x2="946.0" y2="366" stroke="#334155" stroke-width="1"/>
<text x="946.0" y="380" font-family="Arial, sans-serif" font-size="10" text-anchor="middle" fill="#64748b">925</text>
<polyline points="76.0,290.8 76.9,294.6 77.9,296.0 78.8,298.1 79.8,304.8 80.7,297.2 81.6,298.2 82.6,294.6 83.5,299.0 84.5,298.7 85.4,287.8 86.3,299.5 87.3,299.7 88.2,297.4 89.2,300.3 90.1,300.5 91.0,292.5 92.0,292.5 92.9,301.3 93.9,291.1 94.8,289.2 95.8,287.3 96.7,293.8 97.6,294.2 98.6,296.1 99.5,292.1 100.5,297.7 101.4,290.6 102.3,293.2 103.3,288.3 104.2,289.0 105.2,273.1 106.1,284.7 107.0,285.3 108.0,294.6 108.9,299.9 109.9,292.9 110.8,294.9 111.7,304.7 112.7,307.5 113.6,302.1 114.6,297.0 115.5,298.7 116.4,297.9 117.4,304.4 118.3,297.4 119.3,294.5 120.2,296.5 121.1,298.7 122.1,303.1 123.0,303.1 124.0,301.9 124.9,300.3 125.8,303.3 126.8,302.2 127.7,299.4 128.7,299.1 129.6,302.8 130.6,299.1 131.5,301.3 132.4,306.8 133.4,308.7 134.3,306.4 135.3,307.1 136.2,309.1 137.1,305.9 138.1,305.5 139.0,302.0 140.0,308.5 140.9,290.7 141.8,306.4 142.8,306.4 143.7,306.3 144.7,311.2 145.6,307.1 146.5,310.3 147.5,309.1 148.4,305.5 149.4,305.4 150.3,303.2 151.2,303.5 152.2,301.3 153.1,305.1 154.1,307.4 155.0,306.9 155.9,308.1 156.9,305.0 157.8,302.9 158.8,302.7 159.7,298.6 160.6,304.9 161.6,297.0 162.5,299.3 163.5,300.3 164.4,303.9 165.4,311.6 166.3,300.1 167.2,300.5 168.2,308.9 169.1,307.5 170.1,300.3 171.0,304.2 171.9,305.1 172.9,302.6 173.8,300.5 174.8,297.4 175.7,298.7 176.6,301.9 177.6,308.1 178.5,307.4 179.5,307.4 180.4,303.1 181.3,301.9 182.3,304.1 183.2,303.9 184.2,304.0 185.1,308.3 186.0,308.9 187.0,307.3 187.9,301.1 188.9,286.9 189.8,301.6 190.7,298.8 191.7,296.1 192.6,299.6 193.6,305.5 194.5,301.5 195.4,304.9 196.4,302.2 197.3,304.9 198.3,306.8 199.2,304.9 200.2,300.8 201.1,304.8 202.0,308.0 203.0,302.4 203.9,301.7 204.9,303.1 205.8,303.4 206.7,298.9 207.7,298.5 208.6,298.0 209.6,289.4 210.5,296.9 211.4,296.4 212.4,295.5 213.3,299.6 214.3,299.0 215.2,304.6 216.1,304.0 217.1,303.8 218.0,299.2 219.0,301.2 219.9,305.7 220.8,304.5 221.8,312.1 222.7,305.7 223.7,304.3 224.6,307.0 225.5,306.9 226.5,301.9 227.4,303.8 228.4,300.8 229.3,301.6 230.2,300.2 231.2,298.7 232.1,290.6 233.1,296.1 234.0,300.6 235.0,296.6 235.9,302.7 236.8,302.6 237.8,303.0 238.7,302.7 239.7,302.8 240.6,303.7 241.5,300.1 242.5,305.6 243.4,303.0 244.4,299.2 245.3,302.8 246.2,306.7 247.2,306.1 248.1,306.7 249.1,298.5 250.0,301.6 250.9,297.8 251.9,303.8 252.8,300.2 253.8,299.5 254.7,295.6 255.6,298.2 256.6,298.4 257.5,293.8 258.5,299.9 259.4,297.9 260.3,298.6 261.3,294.2 262.2,297.8 263.2,278.0 264.1,284.2 265.0,295.2 266.0,295.7 266.9,294.4 267.9,300.7 268.8,304.3 269.8,302.4 270.7,302.1 271.6,297.9 272.6,295.3 273.5,296.5 274.5,291.4 275.4,292.0 276.3,290.6 277.3,290.0 278.2,299.7 279.2,291.9 280.1,296.8 281.0,299.8 282.0,303.8 282.9,302.5 283.9,302.1 284.8,302.3 285.7,300.8 286.7,303.5 287.6,295.9 288.6,297.8 289.5,304.4 290.4,304.2 291.4,299.5 292.3,303.9 293.3,303.5 294.2,299.0 295.1,288.7 296.1,293.7 297.0,294.2 298.0,303.7 298.9,295.6 299.8,297.0 300.8,305.6 301.7,294.8 302.7,300.5 303.6,305.1 304.6,308.5 305.5,305.5 306.4,304.0 307.4,300.7 308.3,303.8 309.3,299.3 310.2,303.0 311.1,305.0 312.1,303.0 313.0,299.3 314.0,294.4 314.9,299.9 315.8,286.2 316.8,302.1 317.7,293.9 318.7,297.9 319.6,299.5 320.5,297.4 321.5,294.4 322.4,310.4 323.4,291.6 324.3,295.6 325.2,281.6 326.2,294.6 327.1,293.2 328.1,295.0 329.0,291.0 329.9,301.0 330.9,279.9 331.8,297.2 332.8,291.8 333.7,291.5 334.6,283.3 335.6,298.3 336.5,300.4 337.5,298.6 338.4,288.4 339.4,299.0 340.3,304.4 341.2,297.7 342.2,295.5 343.1,279.8 344.1,284.2 345.0,300.5 345.9,299.9 346.9,298.1 347.8,293.4 348.8,303.1 349.7,303.0 350.6,298.6 351.6,296.8 352.5,297.4 353.5,301.3 354.4,298.1 355.3,311.4 356.3,299.4 357.2,303.5 358.2,301.2 359.1,302.9 360.0,304.3 361.0,297.8 361.9,294.4 362.9,299.3 363.8,295.1 364.7,301.8 365.7,292.6 366.6,297.6 367.6,293.9 368.5,290.0 369.4,295.1 370.4,304.6 371.3,291.1 372.3,300.3 373.2,295.9 374.2,293.1 375.1,291.6 376.0,296.8 377.0,297.1 377.9,297.9 378.9,299.5 379.8,292.8 380.7,286.2 381.7,290.1 382.6,300.0 383.6,294.5 384.5,300.9 385.4,303.0 386.4,299.1 387.3,302.5 388.3,295.1 389.2,297.0 390.1,302.8 391.1,301.7 392.0,303.0 393.0,308.6 393.9,306.8 394.8,306.1 395.8,306.5 396.7,304.3 397.7,304.5 398.6,298.3 399.5,301.1 400.5,303.1 401.4,303.3 402.4,304.2 403.3,302.4 404.2,299.4 405.2,304.5 406.1,307.1 407.1,297.3 408.0,298.9 409.0,298.1 409.9,299.7 410.8,297.8 411.8,301.0 412.7,287.2 413.7,294.3 414.6,294.8 415.5,298.6 416.5,291.3 417.4,298.4 418.4,294.6 419.3,298.7 420.2,304.2 421.2,282.2 422.1,289.8 423.1,298.8 424.0,295.1 424.9,293.4 425.9,294.7 426.8,304.3 427.8,296.9 428.7,301.7 429.6,296.7 430.6,295.6 431.5,292.9 432.5,291.6 433.4,286.7 434.3,287.8 435.3,294.2 436.2,292.6 437.2,297.5 438.1,303.1 439.0,296.8 440.0,304.1 440.9,298.7 441.9,297.8 442.8,299.3 443.8,297.1 444.7,296.6 445.6,305.5 446.6,301.9 447.5,304.5 448.5,302.9 449.4,303.4 450.3,302.7 451.3,304.5 452.2,301.7 453.2,300.0 454.1,297.3 455.0,295.0 456.0,305.0 456.9,302.7 457.9,303.7 458.8,302.8 459.7,298.5 460.7,257.0 461.6,291.0 462.6,298.5 463.5,296.3 464.4,301.0 465.4,301.6 466.3,299.9 467.3,299.3 468.2,299.6 469.1,296.0 470.1,299.4 471.0,305.6 472.0,306.5 472.9,300.9 473.8,302.7 474.8,295.0 475.7,302.2 476.7,296.9 477.6,304.8 478.6,299.1 479.5,295.6 480.4,295.1 481.4,300.9 482.3,301.0 483.3,300.7 484.2,304.5 485.1,292.6 486.1,303.5 487.0,306.0 488.0,295.5 488.9,297.4 489.8,302.8 490.8,295.8 491.7,299.5 492.7,304.0 493.6,301.7 494.5,303.8 495.5,300.8 496.4,306.1 497.4,305.6 498.3,300.8 499.2,303.2 500.2,297.1 501.1,300.2 502.1,292.3 503.0,292.0 503.9,292.1 504.9,299.3 505.8,298.5 506.8,298.8 507.7,301.5 508.6,299.6 509.6,305.3 510.5,300.2 511.5,300.6 512.4,304.7 513.4,299.2 514.3,304.4 515.2,299.7 516.2,306.4 517.1,299.1 518.1,304.5 519.0,303.3 519.9,298.0 520.9,263.7 521.8,302.9 522.8,304.6 523.7,301.3 524.6,300.8 525.6,298.3 526.5,299.9 527.5,302.7 528.4,298.6 529.3,304.0 530.3,302.8 531.2,303.0 532.2,301.1 533.1,308.3 534.0,304.5 535.0,309.0 535.9,304.5 536.9,303.7 537.8,304.9 538.7,303.6 539.7,305.3 540.6,299.5 541.6,305.2 542.5,297.1 543.4,302.2 544.4,288.1 545.3,294.6 546.3,299.7 547.2,287.4 548.2,299.0 549.1,298.4 550.0,296.8 551.0,301.1 551.9,299.5 552.9,302.6 553.8,299.3 554.7,303.0 555.7,298.0 556.6,301.6 557.6,305.3 558.5,304.5 559.4,290.4 560.4,303.1 561.3,299.6 562.3,302.4 563.2,303.1 564.1,304.7 565.1,296.3 566.0,301.7 567.0,292.9 567.9,298.2 568.8,294.8 569.8,293.5 570.7,299.4 571.7,297.4 572.6,300.4 573.5,295.6 574.5,301.5 575.4,282.6 576.4,297.4 577.3,291.2 578.2,300.8 579.2,281.3 580.1,303.6 581.1,292.1 582.0,296.5 583.0,300.9 583.9,293.9 584.8,295.3 585.8,305.2 586.7,304.7 587.7,300.3 588.6,302.0 589.5,297.5 590.5,295.0 591.4,296.6 592.4,292.7 593.3,298.7 594.2,291.1 595.2,289.9 596.1,292.8 597.1,302.6 598.0,303.5 598.9,301.6 599.9,297.5 600.8,303.0 601.8,302.5 602.7,299.3 603.6,300.0 604.6,295.7 605.5,300.6 606.5,302.5 607.4,302.2 608.3,300.7 609.3,305.4 610.2,305.1 611.2,301.0 612.1,294.2 613.0,301.0 614.0,298.9 614.9,290.4 615.9,295.9 616.8,294.1 617.8,301.3 618.7,298.2 619.6,299.2 620.6,302.6 621.5,300.9 622.5,299.2 623.4,302.7 624.3,303.6 625.3,299.5 626.2,304.4 627.2,298.2 628.1,302.7 629.0,304.9 630.0,303.3 630.9,303.8 631.9,305.7 632.8,294.6 633.7,306.7 634.7,303.7 635.6,295.1 636.6,294.1 637.5,293.7 638.4,295.9 639.4,295.9 640.3,298.1 641.3,284.7 642.2,294.9 643.1,298.6 644.1,296.3 645.0,294.2 646.0,300.6 646.9,294.3 647.8,295.9 648.8,303.8 649.7,295.8 650.7,302.6 651.6,297.7 652.6,300.0 653.5,300.7 654.4,298.3 655.4,294.8 656.3,295.8 657.3,303.0 658.2,295.6 659.1,296.0 660.1,295.2 661.0,295.3 662.0,295.0 662.9,299.9 663.8,299.0 664.8,295.9 665.7,303.3 666.7,302.9 667.6,298.2 668.5,305.5 669.5,300.9 670.4,300.4 671.4,305.2 672.3,295.8 673.2,301.8 674.2,303.2 675.1,304.6 676.1,299.1 677.0,301.0 677.9,298.0 678.9,298.8 679.8,297.3 680.8,300.8 681.7,296.0 682.6,293.0 683.6,284.2 684.5,298.8 685.5,293.9 686.4,298.9 687.4,298.8 688.3,298.0 689.2,291.0 690.2,292.3 691.1,298.2 692.1,297.5 693.0,297.5 693.9,298.5 694.9,288.2 695.8,296.5 696.8,297.3 697.7,301.7 698.6,301.0 699.6,305.4 700.5,295.8 701.5,295.1 702.4,299.8 703.3,289.6 704.3,296.7 705.2,295.1 706.2,295.1 707.1,294.8 708.0,297.5 709.0,299.5 709.9,295.8 710.9,297.0 711.8,291.7 712.7,285.1 713.7,299.7 714.6,301.0 715.6,293.6 716.5,302.3 717.4,297.5 718.4,307.7 719.3,292.5 720.3,304.9 721.2,304.1 722.2,291.9 723.1,305.2 724.0,297.8 725.0,298.1 725.9,307.4 726.9,305.4 727.8,294.0 728.7,284.5 729.7,295.7 730.6,281.6 731.6,295.8 732.5,307.1 733.4,303.5 734.4,299.2 735.3,301.5 736.3,309.0 737.2,287.8 738.1,293.3 739.1,314.3 740.0,300.8 741.0,304.2 741.9,299.2 742.8,305.4 743.8,297.5 744.7,303.5 745.7,297.3 746.6,286.2 747.5,295.6 748.5,293.4 749.4,295.3 750.4,292.6 751.3,295.0 752.2,297.5 753.2,303.2 754.1,307.8 755.1,295.2 756.0,306.6 757.0,305.0 757.9,305.4 758.8,303.1 759.8,297.4 760.7,293.5 761.7,305.0 762.6,310.4 763.5,306.6 764.5,309.4 765.4,304.0 766.4,307.8 767.3,308.2 768.2,299.0 769.2,288.2 770.1,297.1 771.1,298.1 772.0,298.6 772.9,298.7 773.9,295.2 774.8,305.8 775.8,307.8 776.7,304.4 777.6,309.3 778.6,306.7 779.5,303.2 780.5,303.6 781.4,296.5 782.3,304.1 783.3,305.5 784.2,308.2 785.2,291.8 786.1,301.9 787.0,305.3 788.0,302.2 788.9,300.9 789.9,302.7 790.8,295.0 791.8,295.0 792.7,295.3 793.6,299.1 794.6,299.0 795.5,300.9 796.5,304.6 797.4,307.3 798.3,303.1 799.3,300.9 800.2,303.0 801.2,290.9 802.1,301.1 803.0,301.9 804.0,302.0 804.9,295.6 805.9,306.6 806.8,304.1 807.7,288.8 808.7,297.4 809.6,295.3 810.6,295.7 811.5,296.1 812.4,306.3 813.4,300.3 814.3,304.9 815.3,295.7 816.2,303.6 817.1,305.1 818.1,302.6 819.0,301.6 820.0,285.2 820.9,304.3 821.8,334.7 822.8,343.7 823.7,343.8 824.7,343.5 825.6,344.0 826.6,319.0 827.5,342.3 828.4,343.1 829.4,342.6 830.3,343.4 831.3,343.4 832.2,343.4 833.1,338.9 834.1,343.5 835.0,344.5 836.0,342.7 836.9,342.0 837.8,343.8 838.8,343.0 839.7,343.2 840.7,340.3 841.6,342.7 842.5,343.4 843.5,342.2 844.4,343.9 845.4,341.8 846.3,341.2 847.2,342.8 848.2,342.4 849.1,343.3 850.1,344.8 851.0,343.7 851.9,343.3 852.9,344.0 853.8,342.7 854.8,343.5 855.7,341.8 856.6,340.1 857.6,342.3 858.5,342.4 859.5,339.6 860.4,341.5 861.4,340.5 862.3,343.1 863.2,341.6 864.2,340.5 865.1,342.3 866.1,342.5 867.0,342.2 867.9,343.0 868.9,342.6 869.8,342.9 870.8,343.5 871.7,342.4 872.6,340.9 873.6,341.4 874.5,342.5 875.5,343.3 876.4,343.5 877.3,343.3 878.3,343.2 879.2,342.6 880.2,341.1 881.1,340.9 882.0,341.6 883.0,340.6 883.9,341.3 884.9,341.0 885.8,342.8 886.7,341.5 887.7,342.2 888.6,341.5 889.6,342.8 890.5,341.0 891.4,340.5 892.4,341.9 893.3,341.5 894.3,341.0 895.2,338.4 896.2,325.0 897.1,339.0 898.0,340.0 899.0,339.6 899.9,341.0 900.9,338.3 901.8,339.7 902.7,338.7 903.7,339.5 904.6,333.1 905.6,340.3 906.5,337.2 907.4,337.3 908.4,338.6 909.3,339.3 910.3,338.5 911.2,337.9 912.1,338.6 913.1,339.5 914.0,339.1 915.0,339.5 915.9,339.7 916.8,337.8 917.8,338.7 918.7,338.4 919.7,336.7 920.6,338.9 921.5,340.0 922.5,340.5 923.4,342.3 924.4,337.0 925.3,340.5 926.2,338.6 927.2,338.7 928.1,337.1 929.1,336.9 930.0,340.4 931.0,339.1 931.9,339.0 932.8,338.7 933.8,339.6 934.7,340.2 935.7,340.9 936.6,339.1 937.5,338.5 938.5,340.0 939.4,341.2 940.4,339.9 941.3,338.0 942.2,337.5 943.2,342.7 944.1,340.5 945.1,339.7 946.0,340.1" fill="none" stroke="#2563eb" stroke-width="2.2" stroke-linejoin="round" stroke-linecap="round"/>
<polyline points="76.0,311.4 76.9,324.9 77.9,334.1 78.8,334.5 79.8,335.0 80.7,334.6 81.6,334.4 82.6,330.8 83.5,334.6 84.5,334.6 85.4,320.5 86.3,334.6 87.3,334.2 88.2,330.7 89.2,334.4 90.1,333.8 91.0,321.1 92.0,330.5 92.9,332.4 93.9,310.6 94.8,302.9 95.8,305.9 96.7,320.5 97.6,315.5 98.6,310.4 99.5,329.8 100.5,333.4 101.4,312.5 102.3,335.0 103.3,319.0 104.2,330.5 105.2,283.8 106.1,300.4 107.0,303.3 108.0,308.3 108.9,331.3 109.9,312.5 110.8,310.6 111.7,334.9 112.7,335.0 113.6,329.7 114.6,310.6 115.5,310.6 116.4,312.5 117.4,340.8 118.3,334.9 119.3,308.9 120.2,310.3 121.1,334.9 122.1,335.3 123.0,334.2 124.0,333.4 124.9,333.9 125.8,334.6 126.8,331.5 127.7,334.6 128.7,330.9 129.6,334.3 130.6,334.6 131.5,334.2 132.4,335.0 133.4,334.9 134.3,334.9 135.3,344.0 136.2,335.8 137.1,334.9 138.1,334.9 139.0,330.7 140.0,344.0 140.9,335.6 141.8,336.2 142.8,336.2 143.7,335.0 144.7,338.1 145.6,336.2 146.5,336.1 147.5,335.1 148.4,335.0 149.4,335.0 150.3,334.5 151.2,335.0 152.2,334.6 153.1,334.6 154.1,335.0 155.0,335.0 155.9,335.0 156.9,334.3 157.8,334.9 158.8,334.9 159.7,330.7 160.6,334.7 161.6,312.2 162.5,329.6 163.5,331.1 164.4,333.8 165.4,344.0 166.3,330.6 167.2,333.8 168.2,335.0 169.1,336.2 170.1,334.7 171.0,334.7 171.9,334.8 172.9,334.6 173.8,331.0 174.8,330.5 175.7,331.5 176.6,333.0 177.6,335.0 178.5,334.9 179.5,334.9 180.4,334.1 181.3,334.9 182.3,334.9 183.2,331.5 184.2,332.3 185.1,336.2 186.0,344.0 187.0,336.1 187.9,335.0 188.9,310.1 189.8,334.9 190.7,334.5 191.7,334.7 192.6,333.8 193.6,334.9 194.5,334.0 195.4,334.9 196.4,334.9 197.3,334.9 198.3,335.0 199.2,334.7 200.2,333.2 201.1,334.9 202.0,335.0 203.0,335.0 203.9,334.1 204.9,334.2 205.8,330.3 206.7,310.6 207.7,298.7 208.6,309.8 209.6,304.4 210.5,310.2 211.4,310.1 212.4,327.6 213.3,333.0 214.3,333.8 215.2,333.8 216.1,334.9 217.1,334.9 218.0,333.8 219.0,334.7 219.9,334.7 220.8,334.6 221.8,344.0 222.7,334.9 223.7,334.9 224.6,335.0 225.5,335.0 226.5,333.8 227.4,334.4 228.4,330.9 229.3,319.7 230.2,298.7 231.2,334.1 232.1,326.9 233.1,334.7 234.0,331.8 235.0,331.8 235.9,331.4 236.8,334.7 237.8,334.4 238.7,334.6 239.7,334.6 240.6,330.7 241.5,330.7 242.5,334.9 243.4,334.4 244.4,331.0 245.3,334.6 246.2,335.0 247.2,334.6 248.1,334.9 249.1,330.5 250.0,334.3 250.9,315.6 251.9,334.6 252.8,298.7 253.8,334.0 254.7,329.7 255.6,332.6 256.6,331.8 257.5,310.6 258.5,331.8 259.4,332.3 260.3,334.6 261.3,323.8 262.2,334.0 263.2,295.8 264.1,298.7 265.0,327.1 266.0,331.1 266.9,330.7 267.9,332.3 268.8,334.6 269.8,334.7 270.7,334.1 271.6,324.8 272.6,315.1 273.5,308.6 274.5,305.4 275.4,298.7 276.3,306.5 277.3,305.4 278.2,331.7 279.2,305.5 280.1,317.0 281.0,333.4 282.0,335.0 282.9,334.1 283.9,335.0 284.8,334.9 285.7,333.7 286.7,335.0 287.6,319.7 288.6,319.7 289.5,334.1 290.4,333.8 291.4,333.4 292.3,334.7 293.3,334.6 294.2,331.3 295.1,305.4 296.1,308.2 297.0,308.3 298.0,298.7 298.9,310.2 299.8,335.5 300.8,336.2 301.7,312.5 302.7,334.5 303.6,336.2 304.6,335.9 305.5,336.2 306.4,335.0 307.4,333.8 308.3,334.3 309.3,334.4 310.2,333.5 311.1,334.6 312.1,334.4 313.0,329.6 314.0,308.9 314.9,334.1 315.8,308.2 316.8,334.4 317.7,310.7 318.7,310.3 319.6,325.1 320.5,305.5 321.5,319.7 322.4,344.0 323.4,315.6 324.3,334.2 325.2,308.2 326.2,309.9 327.1,330.0 328.1,334.1 329.0,335.0 329.9,333.2 330.9,323.8 331.8,333.8 332.8,308.2 333.7,306.1 334.6,323.8 335.6,315.6 336.5,333.4 337.5,332.6 338.4,303.2 339.4,334.1 340.3,334.7 341.2,326.5 342.2,333.8 343.1,320.8 344.1,333.7 345.0,333.7 345.9,334.1 346.9,330.7 347.8,331.8 348.8,333.7 349.7,334.6 350.6,333.8 351.6,333.0 352.5,310.6 353.5,334.7 354.4,330.7 355.3,345.9 356.3,333.8 357.2,334.7 358.2,333.7 359.1,334.7 360.0,334.7 361.0,310.6 361.9,315.4 362.9,332.0 363.8,310.5 364.7,331.7 365.7,305.3 366.6,330.5 367.6,326.9 368.5,302.2 369.4,309.7 370.4,335.9 371.3,333.4 372.3,334.9 373.2,334.4 374.2,306.5 375.1,306.5 376.0,318.3 377.0,320.1 377.9,323.6 378.9,331.8 379.8,310.6 380.7,305.4 381.7,308.2 382.6,331.8 383.6,305.2 384.5,330.5 385.4,334.1 386.4,326.7 387.3,330.7 388.3,305.4 389.2,308.2 390.1,333.8 391.1,334.1 392.0,335.0 393.0,340.8 393.9,336.2 394.8,336.1 395.8,335.0 396.7,336.2 397.7,335.8 398.6,333.8 399.5,334.4 400.5,335.0 401.4,334.8 402.4,334.9 403.3,334.6 404.2,331.8 405.2,334.5 406.1,335.0 407.1,329.1 408.0,330.7 409.0,325.8 409.9,325.3 410.8,308.2 411.8,333.5 412.7,308.4 413.7,310.3 414.6,330.5 415.5,319.6 416.5,308.3 417.4,334.6 418.4,318.7 419.3,335.8 420.2,335.0 421.2,297.6 422.1,305.3 423.1,325.3 424.0,325.7 424.9,318.9 425.9,310.3 426.8,334.9 427.8,321.4 428.7,334.2 429.6,331.5 430.6,329.7 431.5,309.6 432.5,308.4 433.4,298.7 434.3,302.7 435.3,305.5 436.2,309.0 437.2,331.8 438.1,334.0 439.0,329.6 440.0,334.7 440.9,333.8 441.9,335.0 442.8,334.0 443.8,334.0 444.7,325.3 445.6,334.9 446.6,334.5 447.5,334.6 448.5,334.7 449.4,334.7 450.3,334.7 451.3,334.6 452.2,334.1 453.2,326.9 454.1,326.6 455.0,305.4 456.0,343.0 456.9,335.3 457.9,344.0 458.8,335.0 459.7,329.1 460.7,301.0 461.6,334.2 462.6,334.1 463.5,315.6 464.4,335.0 465.4,334.1 466.3,334.6 467.3,333.6 468.2,330.5 469.1,330.4 470.1,333.8 471.0,335.0 472.0,335.0 472.9,333.2 473.8,334.4 474.8,310.5 475.7,332.0 476.7,310.1 477.6,332.7 478.6,305.4 479.5,309.8 480.4,310.6 481.4,330.0 482.3,333.8 483.3,332.4 484.2,335.3 485.1,318.3 486.1,334.7 487.0,336.2 488.0,331.4 488.9,325.8 489.8,334.6 490.8,331.3 491.7,331.8 492.7,334.7 493.6,334.5 494.5,333.8 495.5,330.7 496.4,334.9 497.4,334.8 498.3,331.8 499.2,333.2 500.2,310.7 501.1,330.5 502.1,308.2 503.0,308.4 503.9,305.4 504.9,330.4 505.8,326.9 506.8,330.4 507.7,334.9 508.6,331.5 509.6,335.0 510.5,334.6 511.5,334.1 512.4,334.9 513.4,334.7 514.3,335.0 515.2,333.8 516.2,335.0 517.1,333.3 518.1,334.6 519.0,335.0 519.9,332.7 520.9,283.6 521.8,333.8 522.8,335.0 523.7,319.3 524.6,331.1 525.6,329.7 526.5,331.8 527.5,334.1 528.4,334.6 529.3,334.9 530.3,334.7 531.2,334.6 532.2,334.8 533.1,335.0 534.0,334.9 535.0,335.0 535.9,334.9 536.9,334.7 537.8,334.9 538.7,335.0 539.7,334.7 540.6,334.1 541.6,335.7 542.5,334.1 543.4,334.4 544.4,305.3 545.3,319.6 546.3,309.3 547.2,300.7 548.2,310.4 549.1,330.5 550.0,310.6 551.0,330.5 551.9,333.0 552.9,334.7 553.8,333.8 554.7,334.1 555.7,330.9 556.6,334.7 557.6,334.9 558.5,334.9 559.4,305.4 560.4,334.4 561.3,331.0 562.3,335.0 563.2,333.8 564.1,335.0 565.1,333.8 566.0,334.9 567.0,310.6 567.9,334.3 568.8,306.4 569.8,308.4 570.7,333.8 571.7,330.9 572.6,334.1 573.5,329.7 574.5,334.3 575.4,305.3 576.4,330.7 577.3,328.8 578.2,333.8 579.2,295.8 580.1,334.6 581.1,310.6 582.0,310.6 583.0,333.8 583.9,318.4 584.8,318.5 585.8,334.2 586.7,334.9 587.7,334.1 588.6,334.1 589.5,330.4 590.5,308.2 591.4,308.2 592.4,310.2 593.3,333.8 594.2,310.6 595.2,310.4 596.1,327.3 597.1,332.0 598.0,335.0 598.9,334.6 599.9,334.0 600.8,334.6 601.8,334.5 602.7,330.7 603.6,333.5 604.6,331.5 605.5,334.6 606.5,334.1 607.4,333.8 608.3,330.7 609.3,334.7 610.2,334.9 611.2,332.0 612.1,307.0 613.0,326.1 614.0,305.4 614.9,306.4 615.9,309.0 616.8,306.4 617.8,334.6 618.7,327.0 619.6,333.8 620.6,333.2 621.5,334.1 622.5,335.0 623.4,334.6 624.3,333.9 625.3,333.8 626.2,334.7 627.2,330.7 628.1,331.8 629.0,334.9 630.0,334.1 630.9,334.6 631.9,334.9 632.8,327.5 633.7,335.0 634.7,333.6 635.6,319.7 636.6,302.9 637.5,310.1 638.4,327.5 639.4,326.8 640.3,323.6 641.3,298.7 642.2,310.6 643.1,331.1 644.1,330.7 645.0,334.6 646.0,324.6 646.9,323.8 647.8,330.4 648.8,333.8 649.7,330.7 650.7,334.6 651.6,323.9 652.6,333.2 653.5,334.1 654.4,325.7 655.4,309.1 656.3,315.6 657.3,333.8 658.2,308.5 659.1,306.5 660.1,308.2 661.0,310.2 662.0,312.5 662.9,331.0 663.8,331.9 664.8,317.9 665.7,334.6 666.7,335.0 667.6,335.0 668.5,335.0 669.5,334.6 670.4,333.8 671.4,334.9 672.3,330.4 673.2,334.3 674.2,334.6 675.1,334.2 676.1,333.8 677.0,335.0 677.9,330.7 678.9,333.8 679.8,315.5 680.8,330.7 681.7,305.4 682.6,324.4 683.6,306.5 684.5,331.8 685.5,308.9 686.4,333.8 687.4,333.8 688.3,331.2 689.2,310.7 690.2,333.8 691.1,330.0 692.1,327.2 693.0,323.8 693.9,330.0 694.9,305.0 695.8,312.5 696.8,333.8 697.7,332.0 698.6,329.7 699.6,333.8 700.5,322.8 701.5,308.3 702.4,310.4 703.3,305.2 704.3,305.4 705.2,308.2 706.2,310.7 707.1,310.1 708.0,319.6 709.0,325.7 709.9,330.8 710.9,330.9 711.8,305.4 712.7,305.2 713.7,333.8 714.6,331.0 715.6,305.4 716.5,334.7 717.4,308.3 718.4,334.1 719.3,334.7 720.3,332.8 721.2,332.9 722.2,308.2 723.1,335.0 724.0,330.4 725.0,310.4 725.9,330.0 726.9,326.8 727.8,305.9 728.7,306.4 729.7,323.8 730.6,296.7 731.6,334.1 732.5,335.0 733.4,335.0 734.4,331.5 735.3,334.7 736.3,335.0 737.2,304.3 738.1,308.2 739.1,335.0 740.0,331.8 741.0,334.5 741.9,331.2 742.8,334.7 743.8,331.8 744.7,321.5 745.7,334.9 746.6,331.9 747.5,310.4 748.5,308.3 749.4,305.4 750.4,305.9 751.3,305.7 752.2,324.6 753.2,330.7 754.1,334.5 755.1,331.6 756.0,335.0 757.0,335.0 757.9,335.0 758.8,322.4 759.8,334.9 760.7,331.1 761.7,335.0 762.6,344.0 763.5,344.0 764.5,344.0 765.4,334.6 766.4,335.0 767.3,335.0 768.2,334.4 769.2,311.6 770.1,308.9 771.1,308.2 772.0,308.1 772.9,330.4 773.9,308.6 774.8,337.4 775.8,335.0 776.7,335.0 777.6,335.0 778.6,331.8 779.5,332.0 780.5,334.1 781.4,330.5 782.3,334.6 783.3,335.0 784.2,334.9 785.2,312.5 786.1,333.8 787.0,332.0 788.0,333.8 788.9,331.7 789.9,331.0 790.8,310.7 791.8,308.6 792.7,314.0 793.6,327.1 794.6,304.8 795.5,340.8 796.5,341.6 797.4,335.0 798.3,334.6 799.3,334.6 800.2,324.6 801.2,317.8 802.1,346.0 803.0,334.6 804.0,334.9 804.9,317.9 805.9,344.0 806.8,334.0 807.7,321.8 808.7,332.8 809.6,325.5 810.6,333.8 811.5,313.7 812.4,334.6 813.4,328.5 814.3,331.2 815.3,305.4 816.2,331.0 817.1,310.0 818.1,331.4 819.0,330.2 820.0,290.8 820.9,335.0 821.8,347.8 822.8,350.1 823.7,349.5 824.7,346.1 825.6,349.4 826.6,341.0 827.5,346.4 828.4,349.3 829.4,344.7 830.3,345.1 831.3,349.2 832.2,349.4 833.1,343.5 834.1,350.0 835.0,350.1 836.0,347.6 836.9,344.9 837.8,349.2 838.8,345.2 839.7,344.1 840.7,344.7 841.6,345.7 842.5,346.1 843.5,345.7 844.4,349.5 845.4,345.1 846.3,349.4 847.2,348.7 848.2,346.1 849.1,345.8 850.1,351.6 851.0,348.3 851.9,345.7 852.9,349.9 853.8,344.7 854.8,346.4 855.7,345.2 856.6,343.4 857.6,345.2 858.5,346.1 859.5,342.1 860.4,343.4 861.4,343.5 862.3,345.2 863.2,345.2 864.2,344.0 865.1,345.2 866.1,345.4 867.0,345.3 867.9,344.8 868.9,345.8 869.8,346.1 870.8,344.8 871.7,345.0 872.6,344.3 873.6,345.2 874.5,347.2 875.5,347.4 876.4,350.1 877.3,346.4 878.3,348.8 879.2,348.0 880.2,344.7 881.1,344.0 882.0,345.4 883.0,342.7 883.9,345.8 884.9,344.1 885.8,346.0 886.7,349.5 887.7,344.0 888.6,345.9 889.6,347.6 890.5,344.8 891.4,343.6 892.4,343.6 893.3,344.9 894.3,343.6 895.2,342.0 896.2,343.9 897.1,342.7 898.0,343.4 899.0,341.6 899.9,343.4 900.9,341.5 901.8,342.3 902.7,342.7 903.7,341.5 904.6,341.0 905.6,342.2 906.5,341.2 907.4,340.3 908.4,342.4 909.3,341.6 910.3,341.6 911.2,341.4 912.1,341.5 913.1,341.6 914.0,342.3 915.0,342.2 915.9,341.8 916.8,340.9 917.8,342.0 918.7,341.6 919.7,341.8 920.6,342.0 921.5,343.4 922.5,341.9 923.4,345.8 924.4,341.6 925.3,343.4 926.2,341.6 927.2,341.6 928.1,338.9 929.1,339.8 930.0,342.4 931.0,341.6 931.9,342.1 932.8,342.6 933.8,341.8 934.7,343.4 935.7,343.5 936.6,341.6 937.5,342.3 938.5,344.2 939.4,342.3 940.4,343.2 941.3,341.6 942.2,339.8 943.2,349.4 944.1,343.6 945.1,342.0 946.0,342.7" fill="none" stroke="#059669" stroke-width="2.2" stroke-linejoin="round" stroke-linecap="round"/>
<polyline points="76.0,208.9 76.9,216.7 77.9,223.4 78.8,228.3 79.8,236.4 80.7,228.3 81.6,223.3 82.6,216.9 83.5,223.4 84.5,223.3 85.4,199.8 86.3,223.4 87.3,224.6 88.2,223.3 89.2,226.2 90.1,227.6 91.0,211.5 92.0,216.7 92.9,236.0 93.9,216.6 94.8,215.8 95.8,199.8 96.7,220.3 97.6,223.2 98.6,223.4 99.5,220.5 100.5,223.3 101.4,213.2 102.3,216.6 103.3,200.1 104.2,199.8 105.2,160.5 106.1,170.2 107.0,170.2 108.0,209.6 108.9,215.8 109.9,209.6 110.8,208.2 111.7,233.3 112.7,241.0 113.6,230.2 114.6,223.3 115.5,223.8 116.4,223.4 117.4,227.6 118.3,220.4 119.3,213.7 120.2,221.6 121.1,214.1 122.1,236.4 123.0,233.9 124.0,228.8 124.9,229.4 125.8,230.2 126.8,223.4 127.7,223.4 128.7,224.4 129.6,227.8 130.6,231.4 131.5,223.4 132.4,236.4 133.4,240.4 134.3,233.6 135.3,244.6 136.2,239.4 137.1,240.4 138.1,238.9 139.0,236.3 140.0,251.7 140.9,206.3 141.8,236.6 142.8,237.6 143.7,234.6 144.7,248.7 145.6,242.6 146.5,246.3 147.5,241.1 148.4,232.3 149.4,233.3 150.3,228.3 151.2,223.5 152.2,229.7 153.1,233.3 154.1,246.2 155.0,238.6 155.9,241.0 156.9,231.4 157.8,230.1 158.8,230.4 159.7,216.6 160.6,239.0 161.6,223.4 162.5,231.9 163.5,231.4 164.4,242.9 165.4,248.9 166.3,223.4 167.2,227.9 168.2,242.4 169.1,237.1 170.1,229.7 171.0,234.8 171.9,236.4 172.9,233.2 173.8,223.4 174.8,223.4 175.7,230.1 176.6,233.2 177.6,241.8 178.5,237.6 179.5,246.3 180.4,230.4 181.3,230.5 182.3,237.1 183.2,236.4 184.2,236.6 185.1,241.3 186.0,240.4 187.0,240.4 187.9,233.2 188.9,200.3 189.8,223.3 190.7,223.4 191.7,216.6 192.6,229.6 193.6,233.3 194.5,231.4 195.4,233.3 196.4,230.8 197.3,236.3 198.3,236.3 199.2,233.3 200.2,230.2 201.1,238.7 202.0,238.8 203.0,237.6 203.9,228.0 204.9,226.9 205.8,237.0 206.7,226.6 207.7,232.3 208.6,231.4 209.6,207.0 210.5,223.4 211.4,223.3 212.4,223.3 213.3,225.0 214.3,223.4 215.2,236.4 216.1,236.4 217.1,231.9 218.0,230.2 219.0,235.6 219.9,236.3 220.8,236.7 221.8,251.5 222.7,233.3 223.7,233.3 224.6,241.1 225.5,241.0 226.5,233.3 227.4,232.1 228.4,225.6 229.3,223.4 230.2,241.1 231.2,223.4 232.1,199.8 233.1,231.6 234.0,233.2 235.0,223.4 235.9,228.7 236.8,233.2 237.8,236.4 238.7,233.2 239.7,232.7 240.6,233.7 241.5,223.4 242.5,238.3 243.4,233.9 244.4,223.4 245.3,232.6 246.2,238.6 247.2,240.5 248.1,247.9 249.1,224.1 250.0,223.3 250.9,224.5 251.9,234.8 252.8,247.0 253.8,227.7 254.7,223.2 255.6,223.4 256.6,225.2 257.5,222.7 258.5,229.5 259.4,223.4 260.3,228.1 261.3,212.0 262.2,223.2 263.2,160.5 264.1,171.2 265.0,200.0 266.0,210.4 266.9,201.6 267.9,223.4 268.8,232.3 269.8,227.9 270.7,226.7 271.6,216.8 272.6,216.6 273.5,223.4 274.5,200.0 275.4,227.0 276.3,199.8 277.3,199.8 278.2,223.4 279.2,210.4 280.1,217.0 281.0,224.4 282.0,223.4 282.9,224.5 283.9,224.1 284.8,226.6 285.7,223.4 286.7,233.2 287.6,208.9 288.6,221.6 289.5,233.3 290.4,232.1 291.4,223.3 292.3,228.3 293.3,230.2 294.2,223.4 295.1,202.6 296.1,220.4 297.0,223.2 298.0,257.5 298.9,219.7 299.8,214.4 300.8,240.0 301.7,215.3 302.7,228.3 303.6,233.5 304.6,241.1 305.5,240.7 306.4,233.2 307.4,233.2 308.3,227.4 309.3,223.4 310.2,240.4 311.1,231.6 312.1,230.9 313.0,218.4 314.0,210.8 314.9,228.0 315.8,182.3 316.8,231.0 317.7,214.8 318.7,222.1 319.6,223.4 320.5,227.6 321.5,214.7 322.4,240.7 323.4,215.1 324.3,221.5 325.2,199.7 326.2,197.1 327.1,195.3 328.1,216.6 329.0,210.6 329.9,223.4 330.9,170.2 331.8,220.5 332.8,205.1 333.7,205.7 334.6,199.8 335.6,221.7 336.5,228.0 337.5,223.4 338.4,168.9 339.4,223.3 340.3,231.5 341.2,223.2 342.2,223.4 343.1,176.3 344.1,200.3 345.0,226.2 345.9,231.6 346.9,223.4 347.8,209.8 348.8,233.3 349.7,232.6 350.6,224.4 351.6,223.4 352.5,220.4 353.5,230.2 354.4,223.3 355.3,251.8 356.3,231.2 357.2,231.4 358.2,230.2 359.1,233.1 360.0,233.1 361.0,224.5 361.9,223.2 362.9,223.3 363.8,223.3 364.7,223.3 365.7,214.8 366.6,223.4 367.6,214.7 368.5,213.3 369.4,223.3 370.4,233.1 371.3,214.9 372.3,223.3 373.2,219.0 374.2,209.6 375.1,200.3 376.0,215.1 377.0,223.3 377.9,215.1 378.9,232.5 379.8,223.3 380.7,205.7 381.7,207.1 382.6,223.3 383.6,223.4 384.5,223.3 385.4,233.2 386.4,223.4 387.3,234.8 388.3,223.2 389.2,223.0 390.1,223.4 391.1,223.9 392.0,231.2 393.0,248.1 393.9,233.3 394.8,235.7 395.8,239.4 396.7,233.2 397.7,229.7 398.6,215.5 399.5,231.7 400.5,233.2 401.4,233.2 402.4,233.1 403.3,228.3 404.2,225.3 405.2,231.2 406.1,240.6 407.1,220.4 408.0,223.3 409.0,223.4 409.9,228.4 410.8,226.3 411.8,226.6 412.7,210.1 413.7,213.3 414.6,220.4 415.5,226.5 416.5,213.9 417.4,223.3 418.4,215.7 419.3,224.2 420.2,233.2 421.2,170.2 422.1,199.8 423.1,223.3 424.0,200.5 424.9,212.4 425.9,214.7 426.8,233.1 427.8,221.6 428.7,228.3 429.6,223.3 430.6,215.7 431.5,212.4 432.5,200.0 433.4,192.4 434.3,194.7 435.3,208.9 436.2,200.0 437.2,215.1 438.1,228.0 439.0,213.3 440.0,233.3 440.9,223.1 441.9,222.6 442.8,223.4 443.8,219.0 444.7,223.2 445.6,240.4 446.6,226.2 447.5,231.5 448.5,233.2 449.4,226.7 450.3,233.2 451.3,236.3 452.2,240.4 453.2,223.5 454.1,224.2 455.0,223.4 456.0,233.2 456.9,227.8 457.9,223.4 458.8,231.7 459.7,226.6 460.7,92.4 461.6,215.1 462.6,223.3 463.5,213.8 464.4,231.5 465.4,230.2 466.3,223.4 467.3,223.4 468.2,223.3 469.1,220.4 470.1,223.2 471.0,233.2 472.0,238.4 472.9,233.2 473.8,231.7 474.8,213.9 475.7,223.4 476.7,223.3 477.6,238.0 478.6,232.3 479.5,217.1 480.4,212.6 481.4,230.2 482.3,226.8 483.3,230.5 484.2,233.4 485.1,200.3 486.1,233.3 487.0,233.3 488.0,216.7 488.9,220.5 489.8,228.0 490.8,220.3 491.7,219.8 492.7,226.9 493.6,231.9 494.5,233.0 495.5,223.3 496.4,237.7 497.4,240.3 498.3,225.0 499.2,236.6 500.2,223.3 501.1,227.9 502.1,211.9 503.0,214.8 503.9,214.8 504.9,223.3 505.8,223.3 506.8,217.0 507.7,234.2 508.6,224.1 509.6,231.5 510.5,223.4 511.5,223.4 512.4,236.6 513.4,216.9 514.3,233.6 515.2,224.5 516.2,236.6 517.1,223.3 518.1,231.8 519.0,231.4 519.9,223.3 520.9,168.8 521.8,223.3 522.8,224.5 523.7,224.6 524.6,226.7 525.6,223.4 526.5,223.3 527.5,239.7 528.4,223.4 529.3,230.2 530.3,223.4 531.2,228.4 532.2,226.6 533.1,238.6 534.0,232.1 535.0,236.6 535.9,236.3 536.9,232.3 537.8,236.4 538.7,233.6 539.7,240.4 540.6,223.4 541.6,241.1 542.5,212.7 543.4,225.1 544.4,205.7 545.3,213.8 546.3,223.4 547.2,201.9 548.2,223.3 549.1,223.1 550.0,223.4 551.0,231.5 551.9,223.4 552.9,236.3 553.8,223.4 554.7,226.9 555.7,222.4 556.6,223.4 557.6,234.7 558.5,235.8 559.4,200.3 560.4,230.5 561.3,230.2 562.3,235.3 563.2,230.2 564.1,232.1 565.1,216.6 566.0,232.6 567.0,212.7 567.9,230.1 568.8,222.9 569.8,219.7 570.7,225.0 571.7,223.4 572.6,223.4 573.5,219.7 574.5,229.3 575.4,196.0 576.4,220.2 577.3,212.0 578.2,231.5 579.2,170.2 580.1,230.2 581.1,199.8 582.0,220.0 583.0,216.7 583.9,210.0 584.8,215.8 585.8,239.5 586.7,231.5 587.7,223.3 588.6,227.9 589.5,223.3 590.5,209.9 591.4,223.4 592.4,207.1 593.3,223.3 594.2,200.0 595.2,199.8 596.1,201.8 597.1,223.4 598.0,235.0 598.9,223.4 599.9,216.6 600.8,230.6 601.8,231.6 602.7,219.9 603.6,223.3 604.6,214.8 605.5,231.3 606.5,230.2 607.4,231.4 608.3,236.4 609.3,240.4 610.2,229.4 611.2,228.0 612.1,218.7 613.0,227.7 614.0,227.9 614.9,204.0 615.9,220.5 616.8,215.5 617.8,226.7 618.7,224.4 619.6,225.1 620.6,232.1 621.5,231.5 622.5,223.4 623.4,229.2 624.3,236.3 625.3,223.7 626.2,237.1 627.2,225.0 628.1,231.4 629.0,236.4 630.0,236.3 630.9,233.4 631.9,237.6 632.8,212.1 633.7,228.0 634.7,233.2 635.6,222.8 636.6,223.2 637.5,222.2 638.4,222.3 639.4,215.1 640.3,223.4 641.3,172.5 642.2,210.3 643.1,223.3 644.1,214.0 645.0,217.9 646.0,231.6 646.9,215.8 647.8,214.9 648.8,232.2 649.7,222.0 650.7,227.8 651.6,223.3 652.6,223.3 653.5,230.1 654.4,220.4 655.4,211.4 656.3,208.2 657.3,232.6 658.2,223.1 659.1,224.4 660.1,218.9 661.0,223.2 662.0,211.8 662.9,228.8 663.8,223.6 664.8,223.3 665.7,233.2 666.7,229.9 667.6,223.3 668.5,236.3 669.5,223.7 670.4,223.4 671.4,236.8 672.3,214.9 673.2,230.2 674.2,227.6 675.1,234.1 676.1,223.7 677.0,225.3 677.9,222.3 678.9,223.4 679.8,224.5 680.8,223.4 681.7,218.4 682.6,208.6 683.6,195.0 684.5,224.5 685.5,212.1 686.4,229.2 687.4,223.3 688.3,223.4 689.2,199.9 690.2,208.3 691.1,223.4 692.1,217.7 693.0,220.4 693.9,223.4 694.9,189.0 695.8,215.4 696.8,223.4 697.7,230.2 698.6,224.4 699.6,233.2 700.5,219.1 701.5,216.6 702.4,233.2 703.3,198.6 704.3,223.3 705.2,223.6 706.2,216.6 707.1,223.3 708.0,223.4 709.0,223.4 709.9,221.2 710.9,215.8 711.8,200.2 712.7,183.2 713.7,223.4 714.6,223.7 715.6,200.5 716.5,227.0 717.4,226.5 718.4,241.1 719.3,239.9 720.3,237.3 721.2,236.6 722.2,192.0 723.1,244.7 724.0,208.6 725.0,233.3 725.9,241.0 726.9,240.2 727.8,223.5 728.7,174.1 729.7,223.3 730.6,194.8 731.6,229.1 732.5,236.2 733.4,241.0 734.4,220.4 735.3,228.2 736.3,256.0 737.2,170.2 738.1,200.3 739.1,256.2 740.0,223.4 741.0,226.2 741.9,223.3 742.8,236.7 743.8,223.3 744.7,230.2 745.7,216.6 746.6,181.2 747.5,223.4 748.5,204.6 749.4,210.1 750.4,208.6 751.3,200.0 752.2,223.8 753.2,227.4 754.1,243.2 755.1,213.2 756.0,240.6 757.0,224.6 757.9,231.9 758.8,230.1 759.8,241.0 760.7,229.3 761.7,237.6 762.6,247.8 763.5,245.3 764.5,252.0 765.4,236.3 766.4,238.6 767.3,240.9 768.2,199.5 769.2,194.9 770.1,224.5 771.1,218.0 772.0,223.5 772.9,216.6 773.9,216.7 774.8,233.2 775.8,236.3 776.7,237.1 777.6,245.8 778.6,238.2 779.5,237.1 780.5,230.8 781.4,207.1 782.3,236.3 783.3,233.2 784.2,240.9 785.2,213.1 786.1,223.4 787.0,236.4 788.0,227.7 788.9,224.6 789.9,230.2 790.8,214.8 791.8,222.2 792.7,216.8 793.6,223.3 794.6,229.9 795.5,224.9 796.5,227.8 797.4,257.6 798.3,230.2 799.3,236.7 800.2,235.8 801.2,223.4 802.1,231.8 803.0,223.4 804.0,223.3 804.9,211.7 805.9,242.1 806.8,225.6 807.7,200.2 808.7,220.4 809.6,223.3 810.6,223.4 811.5,214.7 812.4,233.5 813.4,223.3 814.3,238.6 815.3,223.3 816.2,241.1 817.1,240.4 818.1,223.4 819.0,225.0 820.0,198.4 820.9,237.3 821.8,299.1 822.8,332.3 823.7,333.7 824.7,330.9 825.6,331.5 826.6,256.7 827.5,327.6 828.4,327.7 829.4,331.7 830.3,333.7 831.3,332.3 832.2,331.6 833.1,322.4 834.1,331.5 835.0,332.9 836.0,331.0 836.9,328.4 837.8,333.2 838.8,329.7 839.7,329.7 840.7,329.6 841.6,330.4 842.5,331.5 843.5,327.6 844.4,331.5 845.4,329.1 846.3,327.7 847.2,330.3 848.2,328.4 849.1,331.3 850.1,335.3 851.0,331.5 851.9,330.0 852.9,331.5 853.8,330.0 854.8,331.6 855.7,327.6 856.6,329.0 857.6,330.0 858.5,328.8 859.5,326.0 860.4,327.7 861.4,327.5 862.3,329.2 863.2,328.1 864.2,327.6 865.1,329.0 866.1,331.5 867.0,327.6 867.9,329.6 868.9,328.9 869.8,331.5 870.8,331.5 871.7,330.1 872.6,322.8 873.6,329.3 874.5,331.5 875.5,331.8 876.4,331.3 877.3,329.1 878.3,331.5 879.2,332.5 880.2,325.5 881.1,325.9 882.0,328.4 883.0,324.7 883.9,330.2 884.9,327.0 885.8,328.8 886.7,329.0 887.7,327.6 888.6,326.7 889.6,331.4 890.5,326.1 891.4,332.9 892.4,327.7 893.3,323.0 894.3,325.8 895.2,322.4 896.2,317.8 897.1,322.7 898.0,322.8 899.0,322.7 899.9,326.8 900.9,322.8 901.8,323.1 902.7,325.0 903.7,322.8 904.6,322.0 905.6,325.5 906.5,322.4 907.4,322.0 908.4,322.8 909.3,322.6 910.3,322.4 911.2,322.4 912.1,322.4 913.1,322.4 914.0,322.7 915.0,322.7 915.9,322.8 916.8,321.8 917.8,322.0 918.7,322.4 919.7,322.0 920.6,322.4 921.5,322.7 922.5,322.4 923.4,327.6 924.4,322.0 925.3,322.8 926.2,322.0 927.2,322.0 928.1,322.4 929.1,321.0 930.0,322.8 931.0,322.8 931.9,322.8 932.8,322.4 933.8,322.8 934.7,322.0 935.7,322.8 936.6,322.6 937.5,322.4 938.5,328.8 939.4,323.2 940.4,322.8 941.3,322.3 942.2,322.7 943.2,327.6 944.1,323.0 945.1,322.7 946.0,327.6" fill="none" stroke="#d97706" stroke-width="2.2" stroke-linejoin="round" stroke-linecap="round"/>
<line x1="76" y1="70" x2="94" y2="70" stroke="#2563eb" stroke-width="3"/>
<text x="100" y="74" font-family="Arial, sans-serif" font-size="11" fill="#0f172a">avg fee</text>
<line x1="179" y1="70" x2="197" y2="70" stroke="#059669" stroke-width="3"/>
<text x="203" y="74" font-family="Arial, sans-serif" font-size="11" fill="#0f172a">median fee</text>
<line x1="303" y1="70" x2="321" y2="70" stroke="#d97706" stroke-width="3"/>
<text x="327" y="74" font-family="Arial, sans-serif" font-size="11" fill="#0f172a">p90 fee</text>
<text x="28" y="404" font-family="Arial, sans-serif" font-size="11" fill="#64748b">Source: hourly_features.csv</text>
</svg>