<svg xmlns="http://www.w3.org/2000/svg" width="980" height="420" viewBox="0 0 980 420">
<rect width="100%" height="100%" fill="#ffffff"/>
<text x="28" y="34" font-family="Arial, sans-serif" font-size="20" font-weight="700" fill="#0f172a">Hourly fee trend</text>
<text x="28" y="56" font-family="Arial, sans-serif" font-size="12" fill="#64748b">Average, median, and p90 total fee by hour</text>
<line x1="76" y1="362.0" x2="946" y2="362.0" stroke="#e2e8f0" stroke-width="1"/>
<text x="68" y="366.0" font-family="Arial, sans-serif" font-size="10" text-anchor="end" fill="#64748b">-440K</text>
<line x1="76" y1="292.0" x2="946" y2="292.0" stroke="#e2e8f0" stroke-width="1"/>
<text x="68" y="296.0" font-family="Arial, sans-serif" font-size="10" text-anchor="end" fill="#64748b">2.6M</text>
<line x1="76" y1="222.0" x2="946" y2="222.0" stroke="#e2e8f0" stroke-width="1"/>
<text x="68" y="226.0" font-family="Arial, sans-serif" font-size="10" text-anchor="end" fill="#64748b">5.6M</text>
<line x1="76" y1="152.0" x2="946" y2="152.0" stroke="#e2e8f0" stroke-width="1"/>
<text x="68" y="156.0" font-family="Arial, sans-serif" font-size="10" text-anchor="end" fill="#64748b">8.7M</text>
<line x1="76" y1="82.0" x2="946" y2="82.0" stroke="#e2e8f0" stroke-width="1"/>
<text x="68" y="86.0" font-family="Arial, sans-serif" font-size="10" text-anchor="end" fill="#64748b">11.7M</text>
<line x1="76" y1="362" x2="946" y2="362" stroke="#334155" stroke-width="1"/>
<line x1="76" y1="82" x2="76" y2="362" stroke="#334155" stroke-width="1"/>
<text x="76" y="72" font-family="Arial, sans-serif" font-size="11" fill="#64748b">nanoton</text>
<line x1="76.0" y1="362" x2="76.0" y2="366" stroke="#334155" stroke-width="1"/>
<text x="76.0" y="380" font-family="Arial, sans-serif" font-size="10" text-anchor="middle" fill="#64748b">0</text>
<line x1="511.3" y1="362" x2="511.3" y2="366" stroke="#334155" stroke-width="1"/>
<text x="511.3" y="380" font-family="Arial, sans-serif" font-size="10" text-anchor="middle" fill="#64748b">700</text>
<line x1="946.0" y1="362" x2="946.0" y2="366" stroke="#334155" stroke-width="1"/>
<text x="946.0" y="380" font-family="Arial, sans-serif" font-size="10" text-anchor="middle" fill="#64748b">1399</text>
<polyline points="76.0,289.8 76.6,293.6 77.2,295.0 77.9,297.1 78.5,303.8 79.1,296.1 79.7,297.2 80.4,293.6 81.0,297.9 81.6,297.7 82.2,286.8 82.8,298.5 83.5,298.7 84.1,296.4 84.7,299.2 85.3,299.4 85.9,291.5 86.6,291.5 87.2,300.3 87.8,290.1 88.4,288.2 89.1,286.4 89.7,292.8 90.3,293.2 90.9,295.1 91.5,291.1 92.2,296.7 92.8,289.6 93.4,292.2 94.0,287.4 94.7,288.0 95.3,272.2 95.9,283.7 96.5,284.3 97.1,293.6 97.8,298.9 98.4,291.9 99.0,293.9 99.6,303.6 100.3,306.4 100.9,301.1 101.5,296.0 102.1,297.6 102.7,296.9 103.4,303.4 104.0,296.4 104.6,293.5 105.2,295.5 105.8,297.6 106.5,302.0 107.1,302.0 107.7,300.9 108.3,299.3 109.0,302.3 109.6,301.2 110.2,298.4 110.8,298.1 111.4,301.8 112.1,298.1 112.7,300.3 113.3,305.7 113.9,307.6 114.6,305.3 115.2,306.1 115.8,308.0 116.4,304.8 117.0,304.5 117.7,301.0 118.3,307.4 118.9,289.7 119.5,305.3 120.2,305.3 120.8,305.2 121.4,310.2 122.0,306.1 122.6,309.2 123.3,308.0 123.9,304.4 124.5,304.4 125.1,302.2 125.7,302.4 126.4,300.3 127.0,304.1 127.6,306.4 128.2,305.8 128.9,307.1 129.5,304.0 130.1,301.9 130.7,301.7 131.3,297.5 132.0,303.8 132.6,296.0 133.2,298.3 133.8,299.3 134.5,302.9 135.1,310.5 135.7,299.1 136.3,299.5 136.9,307.9 137.6,306.4 138.2,299.2 138.8,303.2 139.4,304.1 140.1,301.6 140.7,299.4 141.3,296.4 141.9,297.7 142.5,300.9 143.2,307.0 143.8,306.3 144.4,306.4 145.0,302.1 145.6,300.9 146.3,303.1 146.9,302.9 147.5,303.0 148.1,307.2 148.8,307.9 149.4,306.3 150.0,300.0 150.6,285.9 151.2,300.6 151.9,297.7 152.5,295.0 153.1,298.5 153.7,304.4 154.4,300.5 155.0,303.9 155.6,301.1 156.2,303.8 156.8,305.7 157.5,303.8 158.1,299.7 158.7,303.7 159.3,306.9 160.0,301.4 160.6,300.7 161.2,302.1 161.8,302.3 162.4,297.9 163.1,297.4 163.7,297.0 164.3,288.4 164.9,295.9 165.5,295.4 166.2,294.5 166.8,298.6 167.4,298.0 168.0,303.6 168.7,303.0 169.3,302.7 169.9,298.1 170.5,300.1 171.1,304.6 171.8,303.5 172.4,311.0 173.0,304.7 173.6,303.2 174.3,305.9 174.9,305.8 175.5,300.9 176.1,302.7 176.7,299.7 177.4,300.6 178.0,299.2 178.6,297.7 179.2,289.6 179.9,295.0 180.5,299.5 181.1,295.6 181.7,301.7 182.3,301.5 183.0,302.0 183.6,301.6 184.2,301.7 184.8,302.7 185.4,299.1 186.1,304.5 186.7,301.9 187.3,298.2 187.9,301.8 188.6,305.6 189.2,305.1 189.8,305.6 190.4,297.4 191.0,300.6 191.7,296.8 192.3,302.7 192.9,299.2 193.5,298.4 194.2,294.6 194.8,297.2 195.4,297.3 196.0,292.8 196.6,298.9 197.3,296.9 197.9,297.6 198.5,293.2 199.1,296.8 199.8,277.0 200.4,283.3 201.0,294.2 201.6,294.7 202.2,293.4 202.9,299.7 203.5,303.2 204.1,301.4 204.7,301.1 205.3,296.9 206.0,294.3 206.6,295.5 207.2,290.4 207.8,291.0 208.5,289.6 209.1,289.1 209.7,298.6 210.3,291.0 210.9,295.8 211.6,298.8 212.2,302.7 212.8,301.4 213.4,301.0 214.1,301.2 214.7,299.8 215.3,302.5 215.9,294.9 216.5,296.8 217.2,303.4 217.8,303.2 218.4,298.5 219.0,302.8 219.7,302.4 220.3,298.0 220.9,287.7 221.5,292.7 222.1,293.2 222.8,302.6 223.4,294.6 224.0,296.0 224.6,304.5 225.2,293.8 225.9,299.4 226.5,304.1 227.1,307.4 227.7,304.4 228.4,302.9 229.0,299.6 229.6,302.7 230.2,298.2 230.8,302.0 231.5,304.0 232.1,302.0 232.7,298.3 233.3,293.4 234.0,298.9 234.6,285.3 235.2,301.1 235.8,292.9 236.4,296.9 237.1,298.4 237.7,296.4 238.3,293.4 238.9,309.3 239.6,290.6 240.2,294.6 240.8,280.7 241.4,293.6 242.0,292.2 242.7,294.0 243.3,290.0 243.9,300.0 244.5,279.0 245.1,296.2 245.8,290.8 246.4,290.5 247.0,282.3 247.6,297.3 248.3,299.3 248.9,297.6 249.5,287.4 250.1,298.0 250.7,303.3 251.4,296.7 252.0,294.5 252.6,278.9 253.2,283.2 253.9,299.5 254.5,298.8 255.1,297.1 255.7,292.4 256.3,302.0 257.0,302.0 257.6,297.6 258.2,295.7 258.8,296.3 259.5,300.3 260.1,297.1 260.7,310.3 261.3,298.4 261.9,302.4 262.6,300.1 263.2,301.9 263.8,303.2 264.4,296.8 265.0,293.4 265.7,298.2 266.3,294.1 266.9,300.7 267.5,291.6 268.2,296.6 268.8,292.9 269.4,289.0 270.0,294.1 270.6,303.5 271.3,290.1 271.9,299.3 272.5,294.9 273.1,292.1 273.8,290.6 274.4,295.8 275.0,296.1 275.6,296.9 276.2,298.5 276.9,291.8 277.5,285.3 278.1,289.1 278.7,298.9 279.4,293.5 280.0,299.9 280.6,301.9 281.2,298.1 281.8,301.5 282.5,294.1 283.1,296.0 283.7,301.7 284.3,300.6 284.9,301.9 285.6,307.6 286.2,305.7 286.8,305.0 287.4,305.4 288.1,303.3 288.7,303.4 289.3,297.3 289.9,300.1 290.5,302.0 291.2,302.3 291.8,303.2 292.4,301.3 293.0,298.4 293.7,303.4 294.3,306.0 294.9,296.3 295.5,297.9 296.1,297.0 296.8,298.7 297.4,296.8 298.0,300.0 298.6,286.3 299.3,293.3 299.9,293.8 300.5,297.6 301.1,290.3 301.7,297.3 302.4,293.6 303.0,297.7 303.6,303.2 304.2,281.2 304.8,288.8 305.5,297.8 306.1,294.1 306.7,292.4 307.3,293.7 308.0,303.3 308.6,295.8 309.2,300.6 309.8,295.7 310.4,294.6 311.1,291.9 311.7,290.7 312.3,285.7 312.9,286.8 313.6,293.2 314.2,291.6 314.8,296.5 315.4,302.0 316.0,295.8 316.7,303.1 317.3,297.6 317.9,296.8 318.5,298.3 319.2,296.1 319.8,295.6 320.4,304.5 321.0,300.9 321.6,303.4 322.3,301.9 322.9,302.4 323.5,301.7 324.1,303.5 324.7,300.7 325.4,299.0 326.0,296.3 326.6,294.0 327.2,304.0 327.9,301.6 328.5,302.7 329.1,301.7 329.7,297.5 330.3,256.2 331.0,290.0 331.6,297.5 332.2,295.3 332.8,300.0 333.5,300.6 334.1,298.8 334.7,298.3 335.3,298.6 335.9,295.0 336.6,298.4 337.2,304.5 337.8,305.4 338.4,299.8 339.1,301.6 339.7,294.0 340.3,301.1 340.9,295.9 341.5,303.8 342.2,298.0 342.8,294.6 343.4,294.1 344.0,299.9 344.6,299.9 345.3,299.6 345.9,303.4 346.5,291.6 347.1,302.5 347.8,305.0 348.4,294.5 349.0,296.4 349.6,301.8 350.2,294.8 350.9,298.4 351.5,302.9 352.1,300.6 352.7,302.8 353.4,299.7 354.0,305.1 354.6,304.6 355.2,299.8 355.8,302.2 356.5,296.0 357.1,299.1 357.7,291.3 358.3,291.0 359.0,291.1 359.6,298.2 360.2,297.4 360.8,297.8 361.4,300.5 362.1,298.6 362.7,304.2 363.3,299.2 363.9,299.5 364.5,303.7 365.2,298.1 365.8,303.3 366.4,298.6 367.0,305.3 367.7,298.1 368.3,303.4 368.9,302.3 369.5,297.0 370.1,262.8 370.8,301.9 371.4,303.5 372.0,300.3 372.6,299.8 373.3,297.3 373.9,298.9 374.5,301.7 375.1,297.6 375.7,302.9 376.4,301.7 377.0,302.0 377.6,300.1 378.2,307.3 378.9,303.4 379.5,308.0 380.1,303.5 380.7,302.6 381.3,303.8 382.0,302.5 382.6,304.3 383.2,298.5 383.8,304.2 384.4,296.1 385.1,301.2 385.7,287.1 386.3,293.6 386.9,298.7 387.6,286.4 388.2,298.0 388.8,297.4 389.4,295.8 390.0,300.1 390.7,298.5 391.3,301.5 391.9,298.2 392.5,301.9 393.2,297.0 393.8,300.6 394.4,304.3 395.0,303.5 395.6,289.4 396.3,302.1 396.9,298.6 397.5,301.3 398.1,302.1 398.8,303.6 399.4,295.2 400.0,300.6 400.6,291.9 401.2,297.2 401.9,293.8 402.5,292.5 403.1,298.4 403.7,296.4 404.3,299.4 405.0,294.6 405.6,300.5 406.2,281.7 406.8,296.3 407.5,290.2 408.1,299.8 408.7,280.4 409.3,302.6 409.9,291.1 410.6,295.5 411.2,299.9 411.8,292.9 412.4,294.3 413.1,304.2 413.7,303.6 414.3,299.3 414.9,300.9 415.5,296.5 416.2,294.0 416.8,295.6 417.4,291.7 418.0,297.7 418.7,290.1 419.3,288.9 419.9,291.8 420.5,301.6 421.1,302.4 421.8,300.6 422.4,296.5 423.0,302.0 423.6,301.5 424.2,298.3 424.9,298.9 425.5,294.7 426.1,299.6 426.7,301.4 427.4,301.2 428.0,299.7 428.6,304.3 429.2,304.0 429.8,300.0 430.5,293.2 431.1,300.0 431.7,297.9 432.3,289.4 433.0,294.9 433.6,293.1 434.2,300.3 434.8,297.2 435.4,298.2 436.1,301.5 436.7,299.9 437.3,298.2 437.9,301.6 438.6,302.5 439.2,298.5 439.8,303.4 440.4,297.1 441.0,301.6 441.7,303.9 442.3,302.2 442.9,302.7 443.5,304.7 444.1,293.6 444.8,305.6 445.4,302.6 446.0,294.1 446.6,293.1 447.3,292.7 447.9,294.9 448.5,294.9 449.1,297.1 449.7,283.7 450.4,293.9 451.0,297.5 451.6,295.3 452.2,293.2 452.9,299.6 453.5,293.3 454.1,294.9 454.7,302.7 455.3,294.8 456.0,301.5 456.6,296.6 457.2,299.0 457.8,299.7 458.5,297.3 459.1,293.8 459.7,294.8 460.3,302.0 460.9,294.6 461.6,295.0 462.2,294.1 462.8,294.3 463.4,294.0 464.0,298.9 464.7,297.9 465.3,294.9 465.9,302.2 466.5,301.9 467.2,297.2 467.8,304.5 468.4,299.8 469.0,299.4 469.6,304.2 470.3,294.8 470.9,300.8 471.5,302.1 472.1,303.6 472.8,298.1 473.4,299.9 474.0,297.0 474.6,297.7 475.2,296.2 475.9,299.8 476.5,294.9 477.1,292.0 477.7,283.2 478.4,297.8 479.0,292.9 479.6,297.9 480.2,297.8 480.8,296.9 481.5,290.0 482.1,291.3 482.7,297.2 483.3,296.5 483.9,296.5 484.6,297.5 485.2,287.2 485.8,295.5 486.4,296.3 487.1,300.7 487.7,299.9 488.3,304.3 488.9,294.7 489.5,294.1 490.2,298.8 490.8,288.6 491.4,295.7 492.0,294.1 492.7,294.1 493.3,293.8 493.9,296.4 494.5,298.5 495.1,294.8 495.8,296.0 496.4,290.7 497.0,284.1 497.6,298.7 498.3,300.0 498.9,298.3 499.5,301.7 500.1,293.1 500.7,303.2 501.4,295.2 502.0,294.5 502.6,299.1 503.2,288.3 503.8,300.6 504.5,297.4 505.1,294.5 505.7,297.5 506.3,297.1 507.0,289.4 507.6,292.0 508.2,289.9 508.8,276.9 509.4,296.4 510.1,299.9 510.7,299.1 511.3,285.9 511.9,297.6 512.6,301.1 513.2,282.4 513.8,289.0 514.4,306.0 515.0,292.3 515.7,297.8 516.3,300.7 516.9,298.0 517.5,297.7 518.2,296.8 518.8,295.4 519.4,288.8 520.0,287.1 520.6,288.0 521.3,293.9 521.9,285.0 522.5,290.0 523.1,292.9 523.7,296.5 524.4,294.9 525.0,280.1 525.6,302.0 526.2,302.0 526.9,296.5 527.5,296.3 528.1,298.8 528.7,298.0 529.3,298.3 530.0,299.7 530.6,303.0 531.2,303.4 531.8,304.2 532.5,300.9 533.1,295.6 533.7,289.6 534.3,291.1 534.9,292.1 535.6,293.2 536.2,293.1 536.8,291.6 537.4,292.9 538.1,292.8 538.7,298.2 539.3,299.3 539.9,295.7 540.5,295.6 541.2,297.1 541.8,292.9 542.4,294.3 543.0,295.7 543.6,292.9 544.3,293.3 544.9,295.4 545.5,297.5 546.1,299.6 546.8,300.5 547.4,292.5 548.0,298.2 548.6,297.1 549.2,295.6 549.9,298.9 550.5,295.7 551.1,298.1 551.7,296.7 552.4,302.1 553.0,298.2 553.6,300.8 554.2,299.6 554.8,296.9 555.5,296.8 556.1,299.2 556.7,298.7 557.3,297.5 558.0,291.7 558.6,298.8 559.2,297.9 559.8,297.3 560.4,297.7 561.1,294.4 561.7,294.9 562.3,292.7 562.9,304.4 563.5,299.8 564.2,300.1 564.8,296.8 565.4,300.8 566.0,301.2 566.7,299.5 567.3,300.3 567.9,303.6 568.5,301.4 569.1,339.3 569.8,342.7 570.4,342.5 571.0,342.5 571.6,342.4 572.3,342.4 572.9,342.6 573.5,341.6 574.1,342.4 574.7,342.2 575.4,342.1 576.0,342.7 576.6,343.2 577.2,343.1 577.9,342.4 578.5,342.1 579.1,341.3 579.7,341.9 580.3,341.5 581.0,341.0 581.6,341.1 582.2,341.4 582.8,341.6 583.4,340.1 584.1,340.8 584.7,341.0 585.3,337.0 585.9,340.7 586.6,341.8 587.2,341.7 587.8,341.3 588.4,341.6 589.0,341.6 589.7,341.6 590.3,342.5 590.9,341.7 591.5,341.7 592.2,340.7 592.8,340.7 593.4,339.5 594.0,340.0 594.6,340.7 595.3,340.9 595.9,340.6 596.5,341.0 597.1,339.5 597.8,340.4 598.4,341.0 599.0,341.1 599.6,340.8 600.2,341.3 600.9,341.2 601.5,341.1 602.1,340.4 602.7,341.0 603.3,341.5 604.0,340.9 604.6,340.8 605.2,342.4 605.8,341.0 606.5,341.1 607.1,340.9 607.7,340.4 608.3,340.1 608.9,340.0 609.6,340.5 610.2,341.0 610.8,341.2 611.4,341.1 612.1,340.8 612.7,340.8 613.3,341.1 613.9,341.6 614.5,339.8 615.2,339.6 615.8,338.8 616.4,339.5 617.0,337.8 617.7,337.4 618.3,338.2 618.9,338.5 619.5,337.6 620.1,338.3 620.8,337.9 621.4,338.8 622.0,337.9 622.6,337.7 623.2,337.8 623.9,337.5 624.5,337.2 625.1,335.9 625.7,336.0 626.4,336.9 627.0,337.3 627.6,338.1 628.2,336.6 628.8,337.5 629.5,335.9 630.1,336.7 630.7,336.5 631.3,337.6 632.0,337.1 632.6,337.1 633.2,336.7 633.8,336.8 634.4,337.7 635.1,338.8 635.7,339.1 636.3,338.4 636.9,337.2 637.6,333.8 638.2,337.0 638.8,337.3 639.4,336.7 640.0,338.2 640.7,337.6 641.3,338.9 641.9,337.9 642.5,337.2 643.1,337.9 643.8,338.7 644.4,338.4 645.0,338.4 645.6,337.8 646.3,338.5 646.9,336.8 647.5,338.9 648.1,337.9 648.7,338.3 649.4,338.2 650.0,338.8 650.6,338.8 651.2,338.2 651.9,337.5 652.5,337.9 653.1,337.0 653.7,337.2 654.3,338.6 655.0,337.6 655.6,337.9 656.2,337.1 656.8,338.3 657.5,336.9 658.1,338.0 658.7,338.7 659.3,336.0 659.9,338.3 660.6,338.3 661.2,338.3 661.8,339.1 662.4,338.3 663.0,339.3 663.7,338.3 664.3,337.3 664.9,338.5 665.5,339.3 666.2,338.2 666.8,337.4 667.4,336.8 668.0,338.5 668.6,338.5 669.3,338.5 669.9,338.8 670.5,338.1 671.1,338.6 671.8,338.7 672.4,339.0 673.0,338.8 673.6,339.2 674.2,339.2 674.9,338.5 675.5,339.1 676.1,339.1 676.7,337.3 677.4,338.4 678.0,337.0 678.6,338.8 679.2,337.9 679.8,339.2 680.5,338.7 681.1,339.6 681.7,339.4 682.3,338.5 682.9,338.9 683.6,338.7 684.2,338.7 684.8,336.6 685.4,336.7 686.1,338.2 686.7,339.2 687.3,339.3 687.9,339.9 688.5,339.3 689.2,337.4 689.8,339.0 690.4,340.2 691.0,339.8 691.7,340.2 692.3,339.5 692.9,340.0 693.5,338.6 694.1,340.4 694.8,340.1 695.4,340.0 696.0,336.0 696.6,339.8 697.3,338.5 697.9,338.6 698.5,339.4 699.1,338.2 699.7,339.0 700.4,338.4 701.0,339.2 701.6,339.6 702.2,339.5 702.8,339.4 703.5,338.6 704.1,347.4 704.7,340.0 705.3,341.3 706.0,339.9 706.6,340.4 707.2,337.9 707.8,339.4 708.4,338.5 709.1,338.9 709.7,339.3 710.3,339.0 710.9,339.9 711.6,339.1 712.2,337.7 712.8,338.5 713.4,338.2 714.0,339.0 714.7,340.1 715.3,339.6 715.9,336.7 716.5,336.3 717.2,338.8 717.8,340.4 718.4,337.8 719.0,338.4 719.6,337.7 720.3,336.5 720.9,338.2 721.5,339.2 722.1,338.2 722.7,338.5 723.4,338.8 724.0,340.4 724.6,340.9 725.2,340.8 725.9,336.7 726.5,339.7 727.1,339.7 727.7,339.9 728.3,339.2 729.0,339.8 729.6,339.8 730.2,339.6 730.8,338.5 731.5,340.0 732.1,340.5 732.7,340.7 733.3,340.8 733.9,338.9 734.6,340.3 735.2,340.8 735.8,340.7 736.4,339.5 737.1,339.0 737.7,340.0 738.3,337.9 738.9,341.3 739.5,340.5 740.2,340.1 740.8,338.8 741.4,340.8 742.0,340.4 742.6,338.9 743.3,339.5 743.9,339.8 744.5,340.6 745.1,339.0 745.8,339.4 746.4,340.9 747.0,340.9 747.6,340.4 748.2,341.3 748.9,341.0 749.5,340.6 750.1,340.1 750.7,340.2 751.4,339.1 752.0,339.0 752.6,342.0 753.2,340.7 753.8,341.9 754.5,341.9 755.1,341.5 755.7,339.3 756.3,341.2 757.0,340.3 757.6,340.4 758.2,340.4 758.8,340.6 759.4,340.0 760.1,341.6 760.7,340.8 761.3,340.6 761.9,340.9 762.5,341.6 763.2,341.4 763.8,338.7 764.4,340.8 765.0,341.0 765.7,341.6 766.3,338.3 766.9,339.4 767.5,340.5 768.1,340.7 768.8,340.0 769.4,341.8 770.0,340.5 770.6,341.6 771.3,340.1 771.9,337.8 772.5,338.6 773.1,339.0 773.7,340.5 774.4,341.2 775.0,341.5 775.6,339.6 776.2,340.6 776.9,341.0 777.5,338.3 778.1,340.8 778.7,341.6 779.3,341.7 780.0,342.2 780.6,342.1 781.2,341.5 781.8,339.7 782.4,341.1 783.1,341.1 783.7,341.4 784.3,342.4 784.9,342.8 785.6,341.2 786.2,341.5 786.8,341.3 787.4,341.6 788.0,342.7 788.7,340.5 789.3,341.4 789.9,340.6 790.5,340.4 791.2,339.7 791.8,340.4 792.4,340.9 793.0,341.3 793.6,342.0 794.3,342.6 794.9,341.8 795.5,342.1 796.1,339.0 796.8,339.6 797.4,340.5 798.0,338.8 798.6,340.2 799.2,340.3 799.9,341.8 800.5,338.5 801.1,342.2 801.7,342.8 802.3,342.8 803.0,342.2 803.6,343.1 804.2,342.6 804.8,342.3 805.5,340.8 806.1,340.4 806.7,341.3 807.3,341.4 807.9,341.3 808.6,342.3 809.2,342.8 809.8,341.2 810.4,341.3 811.1,341.7 811.7,340.7 812.3,338.0 812.9,340.8 813.5,342.1 814.2,341.9 814.8,342.3 815.4,341.4 816.0,340.8 816.7,342.2 817.3,341.2 817.9,341.6 818.5,340.9 819.1,340.6 819.8,341.0 820.4,341.3 821.0,341.4 821.6,341.7 822.2,342.2 822.9,342.1 823.5,341.3 824.1,341.5 824.7,341.2 825.4,341.1 826.0,340.5 826.6,340.8 827.2,336.6 827.8,341.6 828.5,341.7 829.1,341.5 829.7,340.5 830.3,341.9 831.0,342.8 831.6,340.2 832.2,340.9 832.8,341.9 833.4,341.5 834.1,340.1 834.7,340.7 835.3,340.7 835.9,341.1 836.6,341.4 837.2,341.7 837.8,340.9 838.4,342.3 839.0,336.4 839.7,340.9 840.3,338.2 840.9,338.7 841.5,339.6 842.1,340.3 842.8,340.1 843.4,340.0 844.0,338.3 844.6,339.2 845.3,339.7 845.9,338.7 846.5,338.8 847.1,336.5 847.7,337.8 848.4,338.2 849.0,338.5 849.6,337.5 850.2,338.6 850.9,337.4 851.5,336.1 852.1,338.4 852.7,340.6 853.3,339.2 854.0,339.6 854.6,340.4 855.2,341.4 855.8,340.0 856.5,341.7 857.1,339.2 857.7,339.1 858.3,338.0 858.9,337.6 859.6,339.3 860.2,338.6 860.8,338.0 861.4,337.3 862.0,340.2 862.7,337.6 863.3,334.3 863.9,330.4 864.5,331.0 865.2,340.8 865.8,340.7 866.4,341.0 867.0,341.3 867.6,341.9 868.3,340.1 868.9,340.9 869.5,341.1 870.1,342.4 870.8,339.9 871.4,342.0 872.0,338.0 872.6,340.3 873.2,340.9 873.9,340.5 874.5,341.7 875.1,340.6 875.7,339.6 876.4,340.9 877.0,340.1 877.6,335.2 878.2,335.7 878.8,339.8 879.5,340.6 880.1,341.4 880.7,340.8 881.3,340.5 881.9,341.2 882.6,340.8 883.2,341.4 883.8,341.6 884.4,342.1 885.1,340.8 885.7,342.7 886.3,339.6 886.9,341.3 887.5,341.3 888.2,341.1 888.8,342.3 889.4,340.1 890.0,341.3 890.7,341.6 891.3,340.5 891.9,341.4 892.5,340.4 893.1,340.9 893.8,340.8 894.4,340.2 895.0,341.6 895.6,341.4 896.3,340.9 896.9,341.0 897.5,341.4 898.1,341.6 898.7,342.2 899.4,340.9 900.0,342.0 900.6,341.8 901.2,341.6 901.8,340.9 902.5,341.7 903.1,342.3 903.7,342.4 904.3,339.1 905.0,341.8 905.6,341.4 906.2,340.7 906.8,339.4 907.4,340.2 908.1,340.7 908.7,341.8 909.3,340.4 909.9,339.9 910.6,340.0 911.2,340.3 911.8,340.9 912.4,341.6 913.0,341.9 913.7,340.6 914.3,340.5 914.9,341.3 915.5,340.5 916.2,340.6 916.8,341.5 917.4,341.9 918.0,341.9 918.6,341.5 919.3,340.6 919.9,340.0 920.5,341.3 921.1,340.3 921.7,341.2 922.4,340.9 923.0,339.8 923.6,340.0 924.2,340.7 924.9,341.5 925.5,341.3 926.1,342.4 926.7,341.3 927.3,341.1 928.0,339.8 928.6,341.0 929.2,340.4 929.8,340.5 930.5,341.3 931.1,340.3 931.7,339.1 932.3,339.3 932.9,338.8 933.6,337.8 934.2,339.7 934.8,340.5 935.4,341.1 936.1,340.5 936.7,339.6 937.3,339.3 937.9,339.6 938.5,339.7 939.2,339.2 939.8,339.5 940.4,339.5 941.0,340.1 941.6,338.7 942.3,340.3 942.9,339.7 943.5,339.3 944.1,339.4 944.8,339.6 945.4,341.6 946.0,345.2" fill="none" stroke="#2563eb" stroke-width="2.2" stroke-linejoin="round" stroke-linecap="round"/>
<polyline points="76.0,310.3 76.6,323.8 77.2,332.9 77.9,333.3 78.5,333.8 79.1,333.4 79.7,333.1 80.4,329.6 81.0,333.4 81.6,333.4 82.2,319.3 82.8,333.4 83.5,333.0 84.1,329.5 84.7,333.2 85.3,332.6 85.9,319.9 86.6,329.3 87.2,331.2 87.8,309.5 88.4,301.9 89.1,304.9 89.7,319.3 90.3,314.4 90.9,309.4 91.5,328.7 92.2,332.2 92.8,311.4 93.4,333.8 94.0,317.9 94.7,329.3 95.3,282.9 95.9,299.3 96.5,302.2 97.1,307.2 97.8,330.1 98.4,311.4 99.0,309.5 99.6,333.7 100.3,333.8 100.9,328.5 101.5,309.5 102.1,309.5 102.7,311.4 103.4,339.6 104.0,333.7 104.6,307.8 105.2,309.2 105.8,333.7 106.5,334.1 107.1,333.0 107.7,332.2 108.3,332.7 109.0,333.4 109.6,330.3 110.2,333.4 110.8,329.7 111.4,333.1 112.1,333.4 112.7,333.0 113.3,333.8 113.9,333.7 114.6,333.7 115.2,342.7 115.8,334.5 116.4,333.7 117.0,333.7 117.7,329.5 118.3,342.7 118.9,334.4 119.5,335.0 120.2,335.0 120.8,333.8 121.4,336.9 122.0,335.0 122.6,334.9 123.3,333.9 123.9,333.8 124.5,333.8 125.1,333.3 125.7,333.8 126.4,333.4 127.0,333.4 127.6,333.8 128.2,333.8 128.9,333.8 129.5,333.1 130.1,333.7 130.7,333.6 131.3,329.5 132.0,333.5 132.6,311.1 133.2,328.5 133.8,329.9 134.5,332.6 135.1,342.7 135.7,329.4 136.3,332.6 136.9,333.8 137.6,335.0 138.2,333.5 138.8,333.5 139.4,333.6 140.1,333.3 140.7,329.8 141.3,329.3 141.9,330.3 142.5,331.8 143.2,333.7 143.8,333.7 144.4,333.7 145.0,332.9 145.6,333.7 146.3,333.7 146.9,330.3 147.5,331.1 148.1,335.0 148.8,342.7 149.4,334.9 150.0,333.8 150.6,309.0 151.2,333.7 151.9,333.3 152.5,333.5 153.1,332.6 153.7,333.7 154.4,332.8 155.0,333.7 155.6,333.7 156.2,333.7 156.8,333.8 157.5,333.5 158.1,332.0 158.7,333.7 159.3,333.8 160.0,333.8 160.6,332.9 161.2,333.0 161.8,329.1 162.4,309.5 163.1,297.7 163.7,308.7 164.3,303.3 164.9,309.1 165.5,309.1 166.2,326.5 166.8,331.8 167.4,332.6 168.0,332.6 168.7,333.7 169.3,333.7 169.9,332.6 170.5,333.5 171.1,333.5 171.8,333.4 172.4,342.7 173.0,333.7 173.6,333.7 174.3,333.8 174.9,333.8 175.5,332.6 176.1,333.2 176.7,329.7 177.4,318.6 178.0,297.7 178.6,332.9 179.2,325.7 179.9,333.5 180.5,330.6 181.1,330.6 181.7,330.2 182.3,333.5 183.0,333.2 183.6,333.4 184.2,333.4 184.8,329.5 185.4,329.5 186.1,333.7 186.7,333.2 187.3,329.8 187.9,333.4 188.6,333.8 189.2,333.4 189.8,333.7 190.4,329.3 191.0,333.1 191.7,314.5 192.3,333.4 192.9,297.7 193.5,332.8 194.2,328.5 194.8,331.4 195.4,330.6 196.0,309.5 196.6,330.6 197.3,331.1 197.9,333.4 198.5,322.7 199.1,332.8 199.8,294.8 200.4,297.6 201.0,325.9 201.6,329.9 202.2,329.5 202.9,331.1 203.5,333.4 204.1,333.5 204.7,332.9 205.3,323.7 206.0,314.0 206.6,307.6 207.2,304.3 207.8,297.7 208.5,305.5 209.1,304.3 209.7,330.5 210.3,304.4 210.9,315.9 211.6,332.2 212.2,333.8 212.8,332.9 213.4,333.8 214.1,333.7 214.7,332.5 215.3,333.8 215.9,318.6 216.5,318.6 217.2,332.9 217.8,332.6 218.4,332.2 219.0,333.5 219.7,333.4 220.3,330.1 220.9,304.3 221.5,307.2 222.1,307.2 222.8,297.7 223.4,309.1 224.0,334.3 224.6,335.0 225.2,311.4 225.9,333.3 226.5,334.9 227.1,334.7 227.7,335.0 228.4,333.8 229.0,332.6 229.6,333.1 230.2,333.2 230.8,332.3 231.5,333.4 232.1,333.2 232.7,328.4 233.3,307.9 234.0,332.9 234.6,307.2 235.2,333.2 235.8,309.6 236.4,309.2 237.1,324.0 237.7,304.4 238.3,318.6 238.9,342.7 239.6,314.5 240.2,333.0 240.8,307.2 241.4,308.8 242.0,328.9 242.7,332.9 243.3,333.8 243.9,332.0 244.5,322.7 245.1,332.6 245.8,307.2 246.4,305.1 247.0,322.7 247.6,314.5 248.3,332.2 248.9,331.4 249.5,302.1 250.1,332.9 250.7,333.5 251.4,325.3 252.0,332.6 252.6,319.7 253.2,332.5 253.9,332.5 254.5,332.9 255.1,329.5 255.7,330.6 256.3,332.5 257.0,333.4 257.6,332.6 258.2,331.8 258.8,309.5 259.5,333.5 260.1,329.5 260.7,344.6 261.3,332.6 261.9,333.5 262.6,332.5 263.2,333.5 263.8,333.5 264.4,309.5 265.0,314.3 265.7,330.8 266.3,309.4 266.9,330.5 267.5,304.3 268.2,329.3 268.8,325.7 269.4,301.2 270.0,308.6 270.6,334.6 271.3,332.2 271.9,333.7 272.5,333.2 273.1,305.4 273.8,305.5 274.4,317.2 275.0,319.0 275.6,322.4 276.2,330.6 276.9,309.5 277.5,304.3 278.1,307.1 278.7,330.6 279.4,304.1 280.0,329.3 280.6,332.9 281.2,325.6 281.8,329.5 282.5,304.3 283.1,307.2 283.7,332.6 284.3,332.9 284.9,333.8 285.6,339.6 286.2,334.9 286.8,334.8 287.4,333.8 288.1,335.0 288.7,334.5 289.3,332.6 289.9,333.2 290.5,333.7 291.2,333.6 291.8,333.7 292.4,333.4 293.0,330.6 293.7,333.3 294.3,333.8 294.9,328.0 295.5,329.5 296.1,324.6 296.8,324.2 297.4,307.2 298.0,332.3 298.6,307.3 299.3,309.2 299.9,329.3 300.5,318.5 301.1,307.2 301.7,333.4 302.4,317.6 303.0,334.6 303.6,333.8 304.2,296.6 304.8,304.3 305.5,324.2 306.1,324.5 306.7,317.8 307.3,309.2 308.0,333.7 308.6,320.2 309.2,333.0 309.8,330.3 310.4,328.6 311.1,308.5 311.7,307.3 312.3,297.7 312.9,301.6 313.6,304.4 314.2,307.9 314.8,330.6 315.4,332.8 316.0,328.4 316.7,333.5 317.3,332.6 317.9,333.8 318.5,332.8 319.2,332.8 319.8,324.2 320.4,333.7 321.0,333.3 321.6,333.4 322.3,333.5 322.9,333.5 323.5,333.5 324.1,333.4 324.7,332.9 325.4,325.7 326.0,325.5 326.6,304.4 327.2,341.7 327.9,334.1 328.5,342.7 329.1,333.8 329.7,327.9 330.3,300.0 331.0,333.0 331.6,332.9 332.2,314.5 332.8,333.8 333.5,332.9 334.1,333.4 334.7,332.4 335.3,329.3 335.9,329.3 336.6,332.6 337.2,333.8 337.8,333.7 338.4,332.0 339.1,333.2 339.7,309.4 340.3,330.8 340.9,309.0 341.5,331.5 342.2,304.4 342.8,308.7 343.4,309.5 344.0,328.8 344.6,332.6 345.3,331.2 345.9,334.1 346.5,317.2 347.1,333.5 347.8,335.0 348.4,330.2 349.0,324.6 349.6,333.4 350.2,330.1 350.9,330.6 351.5,333.5 352.1,333.3 352.7,332.6 353.4,329.5 354.0,333.7 354.6,333.6 355.2,330.6 355.8,332.0 356.5,309.6 357.1,329.3 357.7,307.2 358.3,307.3 359.0,304.3 359.6,329.2 360.2,325.7 360.8,329.2 361.4,333.7 362.1,330.3 362.7,333.8 363.3,333.4 363.9,332.9 364.5,333.7 365.2,333.5 365.8,333.8 366.4,332.6 367.0,333.8 367.7,332.1 368.3,333.4 368.9,333.8 369.5,331.5 370.1,282.6 370.8,332.6 371.4,333.8 372.0,318.2 372.6,329.9 373.3,328.5 373.9,330.6 374.5,332.9 375.1,333.4 375.7,333.7 376.4,333.5 377.0,333.4 377.6,333.6 378.2,333.8 378.9,333.7 379.5,333.8 380.1,333.7 380.7,333.5 381.3,333.7 382.0,333.8 382.6,333.5 383.2,332.9 383.8,334.5 384.4,332.9 385.1,333.2 385.7,304.3 386.3,318.5 386.9,308.2 387.6,299.7 388.2,309.3 388.8,329.3 389.4,309.5 390.0,329.3 390.7,331.8 391.3,333.5 391.9,332.6 392.5,332.9 393.2,329.7 393.8,333.5 394.4,333.7 395.0,333.7 395.6,304.3 396.3,333.2 396.9,329.8 397.5,333.8 398.1,332.6 398.8,333.8 399.4,332.6 400.0,333.7 400.6,309.5 401.2,333.1 401.9,305.4 402.5,307.3 403.1,332.6 403.7,329.7 404.3,332.9 405.0,328.6 405.6,333.1 406.2,304.3 406.8,329.5 407.5,327.7 408.1,332.6 408.7,294.8 409.3,333.4 409.9,309.5 410.6,309.5 411.2,332.6 411.8,317.2 412.4,317.3 413.1,333.0 413.7,333.7 414.3,332.9 414.9,332.9 415.5,329.3 416.2,307.2 416.8,307.2 417.4,309.1 418.0,332.6 418.7,309.5 419.3,309.3 419.9,326.1 420.5,330.8 421.1,333.8 421.8,333.4 422.4,332.8 423.0,333.4 423.6,333.3 424.2,329.5 424.9,332.3 425.5,330.3 426.1,333.4 426.7,332.9 427.4,332.6 428.0,329.5 428.6,333.5 429.2,333.7 429.8,330.8 430.5,306.0 431.1,325.0 431.7,304.3 432.3,305.3 433.0,307.9 433.6,305.4 434.2,333.4 434.8,325.9 435.4,332.6 436.1,332.0 436.7,332.9 437.3,333.8 437.9,333.4 438.6,332.7 439.2,332.6 439.8,333.5 440.4,329.5 441.0,330.6 441.7,333.7 442.3,332.9 442.9,333.4 443.5,333.7 444.1,326.3 444.8,333.8 445.4,332.4 446.0,318.6 446.6,301.9 447.3,309.1 447.9,326.3 448.5,325.7 449.1,322.4 449.7,297.7 450.4,309.6 451.0,330.0 451.6,329.5 452.2,333.4 452.9,323.4 453.5,322.7 454.1,329.2 454.7,332.6 455.3,329.5 456.0,333.4 456.6,322.8 457.2,332.0 457.8,332.9 458.5,324.5 459.1,308.0 459.7,314.5 460.3,332.6 460.9,307.4 461.6,305.5 462.2,307.2 462.8,309.1 463.4,311.4 464.0,329.8 464.7,330.7 465.3,316.8 465.9,333.4 466.5,333.8 467.2,333.8 467.8,333.8 468.4,333.4 469.0,332.6 469.6,333.7 470.3,329.2 470.9,333.1 471.5,333.4 472.1,333.0 472.8,332.6 473.4,333.8 474.0,329.5 474.6,332.6 475.2,314.4 475.9,329.5 476.5,304.3 477.1,323.2 477.7,305.5 478.4,330.6 479.0,307.9 479.6,332.6 480.2,332.6 480.8,330.0 481.5,309.6 482.1,332.6 482.7,328.8 483.3,326.0 483.9,322.7 484.6,328.8 485.2,304.0 485.8,311.4 486.4,332.6 487.1,330.8 487.7,328.5 488.3,332.6 488.9,321.7 489.5,307.2 490.2,309.3 490.8,304.1 491.4,304.3 492.0,307.2 492.7,309.6 493.3,309.1 493.9,318.5 494.5,324.5 495.1,329.7 495.8,329.7 496.4,304.3 497.0,304.2 497.6,332.6 498.3,329.8 498.9,329.4 499.5,332.6 500.1,309.5 500.7,333.4 501.4,329.6 502.0,317.9 502.6,326.7 503.2,307.2 503.8,330.8 504.5,333.8 505.1,309.5 505.7,309.5 506.3,304.5 507.0,304.3 507.6,306.6 508.2,307.9 508.8,284.4 509.4,325.1 510.1,330.1 510.7,332.6 511.3,307.2 511.9,332.6 512.6,333.5 513.2,296.0 513.8,304.3 514.4,333.5 515.0,307.2 515.7,332.6 516.3,332.9 516.9,330.8 517.5,330.6 518.2,329.3 518.8,332.6 519.4,328.3 520.0,304.3 520.6,304.1 521.3,302.4 521.9,302.0 522.5,304.3 523.1,307.9 523.7,317.9 524.4,330.4 525.0,304.9 525.6,333.8 526.2,339.6 526.9,333.4 527.5,333.4 528.1,333.8 528.7,333.7 529.3,333.8 530.0,333.7 530.6,335.8 531.2,334.6 531.8,333.8 532.5,330.7 533.1,332.9 533.7,322.8 534.3,307.2 534.9,308.8 535.6,309.2 536.2,307.9 536.8,322.4 537.4,324.2 538.1,325.9 538.7,333.8 539.3,330.6 539.9,330.8 540.5,317.6 541.2,329.3 541.8,322.7 542.4,318.6 543.0,329.4 543.6,318.6 544.3,318.5 544.9,326.5 545.5,328.5 546.1,332.6 546.8,332.6 547.4,309.5 548.0,327.9 548.6,311.4 549.2,324.8 549.9,322.3 550.5,308.3 551.1,325.7 551.7,333.8 552.4,334.3 553.0,329.5 553.6,332.1 554.2,329.7 554.8,332.9 555.5,331.1 556.1,332.9 556.7,332.6 557.3,332.2 558.0,311.3 558.6,332.9 559.2,329.5 559.8,330.0 560.4,326.0 561.1,328.3 561.7,309.5 562.3,329.0 562.9,334.6 563.5,330.4 564.2,329.3 564.8,323.2 565.4,326.5 566.0,327.7 566.7,330.6 567.3,330.6 567.9,333.7 568.5,332.2 569.1,347.6 569.8,348.7 570.4,348.3 571.0,348.7 571.6,348.7 572.3,348.7 572.9,348.1 573.5,348.3 574.1,348.5 574.7,348.3 575.4,347.7 576.0,348.7 576.6,348.8 577.2,348.7 577.9,347.9 578.5,346.0 579.1,344.7 579.7,344.8 580.3,344.3 581.0,343.8 581.6,344.1 582.2,344.4 582.8,344.7 583.4,344.0 584.1,343.9 584.7,345.9 585.3,342.9 585.9,344.7 586.6,348.3 587.2,348.1 587.8,346.2 588.4,344.8 589.0,346.0 589.7,346.1 590.3,348.1 590.9,346.3 591.5,344.8 592.2,343.5 592.8,343.9 593.4,342.2 594.0,343.1 594.6,343.9 595.3,343.9 595.9,342.8 596.5,343.9 597.1,343.8 597.8,343.7 598.4,343.9 599.0,343.9 599.6,344.7 600.2,344.7 600.9,344.7 601.5,344.2 602.1,343.9 602.7,344.8 603.3,346.4 604.0,347.3 604.6,343.9 605.2,348.1 605.8,344.2 606.5,344.5 607.1,344.4 607.7,343.8 608.3,343.5 608.9,342.4 609.6,343.9 610.2,344.4 610.8,344.5 611.4,344.4 612.1,344.4 612.7,344.7 613.3,346.3 613.9,348.3 614.5,342.8 615.2,343.5 615.8,342.3 616.4,343.5 617.0,340.6 617.7,340.3 618.3,340.8 618.9,341.4 619.5,340.8 620.1,340.3 620.8,340.8 621.4,340.9 622.0,340.9 622.6,340.6 623.2,340.3 623.9,340.3 624.5,339.5 625.1,338.3 625.7,338.6 626.4,339.3 627.0,340.3 627.6,340.3 628.2,340.3 628.8,340.3 629.5,339.6 630.1,340.3 630.7,340.3 631.3,340.8 632.0,340.2 632.6,340.3 633.2,340.3 633.8,340.3 634.4,340.6 635.1,341.6 635.7,342.2 636.3,340.9 636.9,340.3 637.6,340.3 638.2,340.3 638.8,340.3 639.4,340.4 640.0,340.9 640.7,340.3 641.3,340.7 641.9,340.9 642.5,341.0 643.1,340.8 643.8,341.4 644.4,341.4 645.0,340.6 645.6,340.4 646.3,341.5 646.9,340.9 647.5,342.1 648.1,341.2 648.7,341.4 649.4,341.1 650.0,341.2 650.6,342.0 651.2,340.9 651.9,340.3 652.5,341.1 653.1,341.1 653.7,339.4 654.3,341.6 655.0,340.4 655.6,340.8 656.2,340.4 656.8,341.4 657.5,339.6 658.1,342.3 658.7,341.4 659.3,340.3 659.9,340.9 660.6,341.4 661.2,341.1 661.8,342.3 662.4,342.1 663.0,342.7 663.7,341.4 664.3,340.3 664.9,341.4 665.5,342.3 666.2,341.6 666.8,340.3 667.4,340.3 668.0,342.2 668.6,342.4 669.3,341.5 669.9,342.2 670.5,340.8 671.1,340.9 671.8,342.2 672.4,341.9 673.0,342.2 673.6,342.1 674.2,342.2 674.9,341.2 675.5,341.6 676.1,342.3 676.7,340.3 677.4,342.7 678.0,340.3 678.6,341.5 679.2,340.9 679.8,342.2 680.5,340.9 681.1,342.4 681.7,342.1 682.3,340.8 682.9,341.4 683.6,340.9 684.2,341.1 684.8,340.2 685.4,340.3 686.1,340.9 686.7,342.2 687.3,342.2 687.9,342.8 688.5,342.3 689.2,341.0 689.8,344.4 690.4,343.8 691.0,342.7 691.7,343.5 692.3,342.8 692.9,343.5 693.5,341.1 694.1,343.7 694.8,343.5 695.4,342.7 696.0,343.9 696.6,342.7 697.3,340.9 697.9,340.8 698.5,342.2 699.1,340.4 699.7,342.2 700.4,342.2 701.0,342.1 701.6,342.3 702.2,342.3 702.8,342.5 703.5,341.4 704.1,351.6 704.7,343.0 705.3,344.4 706.0,343.5 706.6,343.5 707.2,340.6 707.8,342.4 708.4,342.2 709.1,341.6 709.7,342.2 710.3,342.4 710.9,343.3 711.6,342.1 712.2,340.6 712.8,341.4 713.4,341.1 714.0,341.9 714.7,343.1 715.3,342.8 715.9,340.6 716.5,343.1 717.2,343.8 717.8,343.6 718.4,343.8 719.0,343.5 719.6,341.1 720.3,341.6 720.9,342.3 721.5,342.2 722.1,341.6 722.7,342.3 723.4,342.2 724.0,343.9 724.6,344.4 725.2,345.1 725.9,340.6 726.5,342.4 727.1,342.4 727.7,342.3 728.3,341.1 729.0,343.2 729.6,342.4 730.2,342.3 730.8,341.1 731.5,342.7 732.1,343.6 732.7,343.4 733.3,343.9 733.9,343.3 734.6,343.9 735.2,344.0 735.8,343.6 736.4,342.2 737.1,341.8 737.7,342.3 738.3,340.9 738.9,344.4 739.5,343.5 740.2,343.7 740.8,341.1 741.4,342.8 742.0,342.4 742.6,341.8 743.3,342.4 743.9,342.0 744.5,343.8 745.1,342.3 745.8,343.5 746.4,344.0 747.0,343.9 747.6,344.0 748.2,344.8 748.9,344.8 749.5,343.9 750.1,343.9 750.7,344.0 751.4,340.9 752.0,343.5 752.6,344.8 753.2,343.7 753.8,348.8 754.5,348.5 755.1,344.8 755.7,341.7 756.3,344.4 757.0,343.5 757.6,343.9 758.2,344.3 758.8,343.8 759.4,343.5 760.1,344.8 760.7,343.9 761.3,343.7 761.9,344.4 762.5,344.9 763.2,344.4 763.8,344.5 764.4,344.8 765.0,344.2 765.7,348.1 766.3,340.8 766.9,342.9 767.5,344.4 768.1,344.5 768.8,343.8 769.4,348.1 770.0,344.4 770.6,344.8 771.3,344.8 771.9,342.8 772.5,343.9 773.1,348.9 773.7,343.5 774.4,344.4 775.0,344.4 775.6,343.8 776.2,344.4 776.9,344.7 777.5,344.7 778.1,344.4 778.7,345.1 779.3,346.9 780.0,348.6 780.6,346.3 781.2,344.8 781.8,342.4 782.4,344.8 783.1,344.5 783.7,346.6 784.3,348.6 784.9,348.6 785.6,344.4 786.2,346.6 786.8,344.8 787.4,344.5 788.0,348.7 788.7,342.6 789.3,344.3 789.9,344.2 790.5,343.9 791.2,343.6 791.8,344.0 792.4,344.8 793.0,344.5 793.6,348.1 794.3,348.7 794.9,347.3 795.5,348.8 796.1,344.4 796.8,341.4 797.4,344.4 798.0,342.8 798.6,343.9 799.2,344.2 799.9,346.5 800.5,348.8 801.1,345.6 801.7,345.1 802.3,346.3 803.0,344.8 803.6,348.7 804.2,344.5 804.8,344.2 805.5,343.9 806.1,343.9 806.7,344.7 807.3,343.6 807.9,344.8 808.6,345.6 809.2,348.3 809.8,343.8 810.4,344.8 811.1,344.5 811.7,346.8 812.3,340.6 812.9,343.7 813.5,348.9 814.2,344.8 814.8,348.1 815.4,344.8 816.0,342.3 816.7,344.2 817.3,342.8 817.9,343.5 818.5,343.9 819.1,343.8 819.8,344.8 820.4,344.4 821.0,344.8 821.6,344.8 822.2,346.3 822.9,348.3 823.5,344.8 824.1,345.8 824.7,344.8 825.4,347.3 826.0,343.8 826.6,343.9 827.2,339.3 827.8,344.4 828.5,347.9 829.1,344.5 829.7,345.4 830.3,344.8 831.0,348.8 831.6,343.5 832.2,344.4 832.8,344.4 833.4,344.4 834.1,342.5 834.7,343.8 835.3,343.7 835.9,344.2 836.6,344.8 837.2,344.4 837.8,343.9 838.4,347.6 839.0,346.5 839.7,343.8 840.3,346.0 840.9,346.3 841.5,344.2 842.1,344.8 842.8,344.5 843.4,343.9 844.0,340.6 844.6,342.3 845.3,343.9 845.9,343.7 846.5,343.6 847.1,343.9 847.7,342.6 848.4,343.8 849.0,344.0 849.6,343.9 850.2,344.0 850.9,343.9 851.5,342.7 852.1,343.9 852.7,344.5 853.3,344.4 854.0,343.6 854.6,344.8 855.2,344.8 855.8,343.8 856.5,344.8 857.1,342.3 857.7,342.8 858.3,343.5 858.9,343.5 859.6,343.8 860.2,343.1 860.8,342.4 861.4,340.7 862.0,344.0 862.7,342.3 863.3,343.2 863.9,342.8 864.5,343.8 865.2,343.9 865.8,343.3 866.4,344.4 867.0,344.4 867.6,345.7 868.3,346.0 868.9,344.4 869.5,344.8 870.1,348.5 870.8,343.9 871.4,347.5 872.0,340.5 872.6,343.9 873.2,344.0 873.9,344.7 874.5,344.5 875.1,343.9 875.7,343.8 876.4,343.1 877.0,343.8 877.6,343.9 878.2,342.3 878.8,342.4 879.5,343.9 880.1,344.4 880.7,344.0 881.3,343.9 881.9,344.4 882.6,344.6 883.2,344.8 883.8,348.7 884.4,348.7 885.1,344.8 885.7,348.8 886.3,344.4 886.9,348.6 887.5,344.4 888.2,343.5 888.8,348.1 889.4,342.4 890.0,344.6 890.7,344.8 891.3,343.5 891.9,344.4 892.5,343.1 893.1,342.8 893.8,343.8 894.4,343.9 895.0,344.1 895.6,344.2 896.3,344.4 896.9,344.4 897.5,345.8 898.1,346.0 898.7,344.8 899.4,344.5 900.0,346.3 900.6,348.2 901.2,344.8 901.8,344.4 902.5,347.6 903.1,348.1 903.7,348.5 904.3,346.3 905.0,344.4 905.6,345.1 906.2,344.0 906.8,342.3 907.4,343.9 908.1,344.4 908.7,344.4 909.3,344.6 909.9,343.7 910.6,343.5 911.2,344.7 911.8,344.8 912.4,346.3 913.0,345.0 913.7,344.4 914.3,347.7 914.9,347.5 915.5,344.0 916.2,344.4 916.8,344.8 917.4,347.7 918.0,346.5 918.6,346.0 919.3,345.1 919.9,343.1 920.5,344.8 921.1,343.5 921.7,344.8 922.4,344.4 923.0,343.5 923.6,342.7 924.2,344.4 924.9,344.4 925.5,344.8 926.1,348.8 926.7,345.6 927.3,348.5 928.0,344.4 928.6,344.8 929.2,347.7 929.8,344.6 930.5,348.7 931.1,343.9 931.7,342.3 932.3,342.8 932.9,342.4 933.6,341.1 934.2,343.9 934.8,344.4 935.4,344.8 936.1,343.9 936.7,343.7 937.3,343.4 937.9,342.8 938.5,342.3 939.2,342.3 939.8,342.7 940.4,343.4 941.0,342.3 941.6,342.7 942.3,344.4 942.9,343.6 943.5,343.9 944.1,343.8 944.8,343.3 945.4,347.6 946.0,348.7" fill="none" stroke="#059669" stroke-width="2.2" stroke-linejoin="round" stroke-linecap="round"/>
<polyline points="76.0,208.3 76.6,216.1 77.2,222.7 77.9,227.7 78.5,235.7 79.1,227.6 79.7,222.6 80.4,216.3 81.0,222.7 81.6,222.7 82.2,199.3 82.8,222.8 83.5,224.0 84.1,222.7 84.7,225.5 85.3,226.9 85.9,210.9 86.6,216.1 87.2,235.3 87.8,216.0 88.4,215.2 89.1,199.3 89.7,219.7 90.3,222.5 90.9,222.7 91.5,219.8 92.2,222.6 92.8,212.6 93.4,216.0 94.0,199.5 94.7,199.3 95.3,160.1 95.9,169.8 96.5,169.8 97.1,209.0 97.8,215.2 98.4,209.0 99.0,207.6 99.6,232.6 100.3,240.3 100.9,229.5 101.5,222.6 102.1,223.2 102.7,222.7 103.4,226.9 104.0,219.7 104.6,213.1 105.2,220.9 105.8,213.5 106.5,235.7 107.1,233.2 107.7,228.1 108.3,228.8 109.0,229.5 109.6,222.7 110.2,222.7 110.8,223.8 111.4,227.1 112.1,230.7 112.7,222.7 113.3,235.7 113.9,239.7 114.6,232.9 115.2,243.8 115.8,238.7 116.4,239.7 117.0,238.1 117.7,235.6 118.3,250.9 118.9,205.7 119.5,235.9 120.2,236.9 120.8,233.9 121.4,247.9 122.0,241.9 122.6,245.5 123.3,240.3 123.9,231.6 124.5,232.6 125.1,227.6 125.7,222.8 126.4,229.0 127.0,232.6 127.6,245.4 128.2,237.8 128.9,240.3 129.5,230.7 130.1,229.4 130.7,229.7 131.3,216.0 132.0,238.3 132.6,222.7 133.2,231.2 133.8,230.7 134.5,242.2 135.1,248.2 135.7,222.7 136.3,227.2 136.9,241.6 137.6,236.4 138.2,229.1 138.8,234.1 139.4,235.7 140.1,232.5 140.7,222.8 141.3,222.8 141.9,229.4 142.5,232.5 143.2,241.1 143.8,236.9 144.4,245.5 145.0,229.7 145.6,229.8 146.3,236.4 146.9,235.7 147.5,235.9 148.1,240.5 148.8,239.7 149.4,239.7 150.0,232.5 150.6,199.7 151.2,222.7 151.9,222.7 152.5,216.0 153.1,228.9 153.7,232.6 154.4,230.7 155.0,232.6 155.6,230.1 156.2,235.6 156.8,235.6 157.5,232.6 158.1,229.5 158.7,238.0 159.3,238.1 160.0,236.9 160.6,227.3 161.2,226.3 161.8,236.2 162.4,226.0 163.1,231.6 163.7,230.7 164.3,206.5 164.9,222.7 165.5,222.7 166.2,222.6 166.8,224.4 167.4,222.8 168.0,235.7 168.7,235.7 169.3,231.2 169.9,229.5 170.5,234.9 171.1,235.6 171.8,236.0 172.4,250.7 173.0,232.6 173.6,232.6 174.3,240.3 174.9,240.3 175.5,232.6 176.1,231.4 176.7,224.9 177.4,222.8 178.0,240.3 178.6,222.7 179.2,199.2 179.9,230.9 180.5,232.5 181.1,222.7 181.7,228.0 182.3,232.5 183.0,235.7 183.6,232.5 184.2,232.0 184.8,233.0 185.4,222.7 186.1,237.6 186.7,233.2 187.3,222.7 187.9,231.9 188.6,237.9 189.2,239.8 189.8,247.2 190.4,223.5 191.0,222.7 191.7,223.8 192.3,234.0 192.9,246.2 193.5,227.1 194.2,222.5 194.8,222.7 195.4,224.5 196.0,222.0 196.6,228.8 197.3,222.7 197.9,227.5 198.5,211.4 199.1,222.6 199.8,160.1 200.4,170.8 201.0,199.5 201.6,209.8 202.2,201.0 202.9,222.7 203.5,231.6 204.1,227.2 204.7,226.0 205.3,216.2 206.0,216.0 206.6,222.7 207.2,199.5 207.8,226.3 208.5,199.3 209.1,199.3 209.7,222.7 210.3,209.8 210.9,216.4 211.6,223.8 212.2,222.7 212.8,223.8 213.4,223.5 214.1,225.9 214.7,222.8 215.3,232.5 215.9,208.3 216.5,221.0 217.2,232.6 217.8,231.4 218.4,222.7 219.0,227.6 219.7,229.5 220.3,222.7 220.9,202.1 221.5,219.8 222.1,222.5 222.8,256.7 223.4,219.1 224.0,213.8 224.6,239.3 225.2,214.7 225.9,227.6 226.5,232.8 227.1,240.3 227.7,240.0 228.4,232.5 229.0,232.5 229.6,226.7 230.2,222.7 230.8,239.7 231.5,230.9 232.1,230.2 232.7,217.7 233.3,210.2 234.0,227.4 234.6,181.8 235.2,230.3 235.8,214.2 236.4,221.5 237.1,222.7 237.7,226.9 238.3,214.1 238.9,240.0 239.6,214.5 240.2,220.9 240.8,199.2 241.4,196.6 242.0,194.8 242.7,216.0 243.3,210.0 243.9,222.7 244.5,169.9 245.1,219.8 245.8,204.6 246.4,205.2 247.0,199.3 247.6,221.0 248.3,227.3 248.9,222.7 249.5,168.5 250.1,222.6 250.7,230.8 251.4,222.5 252.0,222.8 252.6,175.9 253.2,199.8 253.9,225.6 254.5,230.9 255.1,222.7 255.7,209.2 256.3,232.6 257.0,231.9 257.6,223.7 258.2,222.8 258.8,219.7 259.5,229.5 260.1,222.7 260.7,251.0 261.3,230.5 261.9,230.7 262.6,229.5 263.2,232.4 263.8,232.4 264.4,223.8 265.0,222.5 265.7,222.7 266.3,222.7 266.9,222.7 267.5,214.2 268.2,222.7 268.8,214.1 269.4,212.7 270.0,222.6 270.6,232.4 271.3,214.3 271.9,222.7 272.5,218.4 273.1,209.0 273.8,199.8 274.4,214.5 275.0,222.7 275.6,214.5 276.2,231.8 276.9,222.7 277.5,205.2 278.1,206.5 278.7,222.7 279.4,222.7 280.0,222.7 280.6,232.5 281.2,222.7 281.8,234.1 282.5,222.6 283.1,222.3 283.7,222.8 284.3,223.3 284.9,230.5 285.6,247.3 286.2,232.6 286.8,235.0 287.4,238.7 288.1,232.5 288.7,229.0 289.3,214.9 289.9,231.0 290.5,232.5 291.2,232.5 291.8,232.4 292.4,227.6 293.0,224.7 293.7,230.5 294.3,239.8 294.9,219.7 295.5,222.6 296.1,222.7 296.8,227.8 297.4,225.6 298.0,226.0 298.6,209.5 299.3,212.7 299.9,219.8 300.5,225.8 301.1,213.3 301.7,222.7 302.4,215.1 303.0,223.5 303.6,232.5 304.2,169.8 304.8,199.3 305.5,222.7 306.1,199.9 306.7,211.8 307.3,214.0 308.0,232.4 308.6,221.0 309.2,227.6 309.8,222.6 310.4,215.1 311.1,211.8 311.7,199.5 312.3,191.9 312.9,194.2 313.6,208.3 314.2,199.5 314.8,214.5 315.4,227.3 316.0,212.7 316.7,232.6 317.3,222.5 317.9,222.0 318.5,222.8 319.2,218.3 319.8,222.6 320.4,239.7 321.0,225.6 321.6,230.8 322.3,232.5 322.9,226.1 323.5,232.5 324.1,235.6 324.7,239.7 325.4,222.8 326.0,223.5 326.6,222.7 327.2,232.5 327.9,227.1 328.5,222.8 329.1,231.0 329.7,226.0 330.3,92.4 331.0,214.5 331.6,222.7 332.2,213.2 332.8,230.8 333.5,229.5 334.1,222.7 334.7,222.7 335.3,222.7 335.9,219.7 336.6,222.5 337.2,232.5 337.8,237.6 338.4,232.5 339.1,231.0 339.7,213.3 340.3,222.8 340.9,222.7 341.5,237.3 342.2,231.6 342.8,216.5 343.4,212.0 344.0,229.5 344.6,226.1 345.3,229.8 345.9,232.7 346.5,199.8 347.1,232.6 347.8,232.6 348.4,216.1 349.0,219.8 349.6,227.4 350.2,219.7 350.9,219.1 351.5,226.2 352.1,231.2 352.7,232.3 353.4,222.7 354.0,236.9 354.6,239.6 355.2,224.4 355.8,235.9 356.5,222.7 357.1,227.2 357.7,211.4 358.3,214.2 359.0,214.2 359.6,222.6 360.2,222.7 360.8,216.4 361.4,233.5 362.1,223.5 362.7,230.8 363.3,222.7 363.9,222.7 364.5,235.9 365.2,216.3 365.8,232.9 366.4,223.8 367.0,235.9 367.7,222.6 368.3,231.1 368.9,230.7 369.5,222.6 370.1,168.4 370.8,222.7 371.4,223.8 372.0,224.0 372.6,226.0 373.3,222.7 373.9,222.7 374.5,238.9 375.1,222.7 375.7,229.5 376.4,222.8 377.0,227.7 377.6,226.0 378.2,237.9 378.9,231.4 379.5,235.9 380.1,235.6 380.7,231.6 381.3,235.7 382.0,232.9 382.6,239.7 383.2,222.7 383.8,240.3 384.4,212.1 385.1,224.4 385.7,205.2 386.3,213.2 386.9,222.8 387.6,201.4 388.2,222.7 388.8,222.5 389.4,222.7 390.0,230.8 390.7,222.8 391.3,235.6 391.9,222.7 392.5,226.3 393.2,221.8 393.8,222.7 394.4,234.0 395.0,235.1 395.6,199.8 396.3,229.8 396.9,229.5 397.5,234.6 398.1,229.5 398.8,231.4 399.4,216.0 400.0,231.9 400.6,212.1 401.2,229.4 401.9,222.2 402.5,219.0 403.1,224.4 403.7,222.7 404.3,222.7 405.0,219.1 405.6,228.6 406.2,195.5 406.8,219.5 407.5,211.4 408.1,230.8 408.7,169.8 409.3,229.5 409.9,199.3 410.6,219.3 411.2,216.1 411.8,209.4 412.4,215.2 413.1,238.7 413.7,230.8 414.3,222.6 414.9,227.2 415.5,222.6 416.2,209.4 416.8,222.7 417.4,206.5 418.0,222.7 418.7,199.5 419.3,199.3 419.9,201.2 420.5,222.7 421.1,234.3 421.8,222.7 422.4,216.0 423.0,230.0 423.6,230.9 424.2,219.2 424.9,222.7 425.5,214.2 426.1,230.6 426.7,229.5 427.4,230.7 428.0,235.7 428.6,239.6 429.2,228.7 429.8,227.4 430.5,218.1 431.1,227.0 431.7,227.2 432.3,203.5 433.0,219.8 433.6,214.9 434.2,226.1 434.8,223.8 435.4,224.4 436.1,231.4 436.7,230.8 437.3,222.7 437.9,228.5 438.6,235.6 439.2,223.1 439.8,236.4 440.4,224.3 441.0,230.7 441.7,235.7 442.3,235.6 442.9,232.7 443.5,236.9 444.1,211.5 444.8,227.4 445.4,232.5 446.0,222.1 446.6,222.6 447.3,221.6 447.9,221.6 448.5,214.5 449.1,222.8 449.7,172.1 450.4,209.7 451.0,222.7 451.6,213.4 452.2,217.3 452.9,230.9 453.5,215.2 454.1,214.3 454.7,231.5 455.3,221.3 456.0,227.1 456.6,222.7 457.2,222.7 457.8,229.4 458.5,219.7 459.1,210.8 459.7,207.6 460.3,231.9 460.9,222.4 461.6,223.7 462.2,218.3 462.8,222.6 463.4,211.2 464.0,228.1 464.7,222.9 465.3,222.7 465.9,232.5 466.5,229.2 467.2,222.7 467.8,235.6 468.4,223.1 469.0,222.8 469.6,236.1 470.3,214.2 470.9,229.5 471.5,226.9 472.1,233.4 472.8,223.1 473.4,224.6 474.0,221.6 474.6,222.8 475.2,223.8 475.9,222.7 476.5,217.8 477.1,208.0 477.7,194.5 478.4,223.9 479.0,211.5 479.6,228.6 480.2,222.6 480.8,222.7 481.5,199.4 482.1,207.7 482.7,222.8 483.3,217.1 483.9,219.8 484.6,222.7 485.2,188.5 485.8,214.8 486.4,222.7 487.1,229.5 487.7,223.8 488.3,232.5 488.9,218.5 489.5,216.0 490.2,232.5 490.8,198.1 491.4,222.7 492.0,222.9 492.7,216.0 493.3,222.6 493.9,222.8 494.5,222.8 495.1,220.6 495.8,215.2 496.4,199.6 497.0,182.8 497.6,222.7 498.3,223.1 498.9,217.3 499.5,224.4 500.1,219.1 500.7,235.6 501.4,222.8 502.0,221.0 502.6,231.7 503.2,209.6 503.8,231.8 504.5,222.7 505.1,231.6 505.7,227.5 506.3,227.1 507.0,222.6 507.6,201.0 508.2,212.4 508.8,182.8 509.4,222.8 510.1,230.8 510.7,229.5 511.3,196.5 511.9,222.7 512.6,235.7 513.2,169.8 513.8,199.3 514.4,236.4 515.0,203.8 515.7,221.8 516.3,229.5 516.9,222.8 517.5,223.3 518.2,222.7 518.8,222.7 519.4,199.8 520.0,199.5 520.6,199.3 521.3,213.3 521.9,188.6 522.5,199.3 523.1,215.5 523.7,222.7 524.4,214.2 525.0,170.6 525.6,222.7 526.2,222.6 526.9,216.1 527.5,216.1 528.1,222.7 528.7,219.7 529.3,221.4 530.0,222.7 530.6,228.6 531.2,231.9 531.8,236.4 532.5,225.8 533.1,222.7 533.7,210.0 534.3,212.3 534.9,214.5 535.6,215.5 536.2,216.1 536.8,206.2 537.4,212.4 538.1,216.7 538.7,222.7 539.3,227.6 539.9,216.1 540.5,219.1 541.2,219.1 541.8,206.5 542.4,219.2 543.0,222.7 543.6,214.2 544.3,215.1 544.9,215.8 545.5,222.7 546.1,226.0 546.8,229.5 547.4,222.4 548.0,222.7 548.6,222.7 549.2,222.8 549.9,224.4 550.5,222.7 551.1,222.7 551.7,219.0 552.4,230.6 553.0,222.7 553.6,227.9 554.2,222.7 554.8,222.6 555.5,221.5 556.1,226.2 556.7,222.7 557.3,219.0 558.0,199.8 558.6,222.8 559.2,222.7 559.8,222.6 560.4,222.5 561.1,222.7 561.7,221.4 562.3,221.7 562.9,236.4 563.5,228.8 564.2,224.4 564.8,222.7 565.4,230.8 566.0,232.6 566.7,226.3 567.3,227.5 567.9,238.1 568.5,240.3 569.1,325.5 569.8,330.4 570.4,330.3 571.0,330.3 571.6,330.4 572.3,330.5 572.9,330.3 573.5,330.3 574.1,330.9 574.7,330.3 575.4,330.2 576.0,332.0 576.6,331.8 577.2,332.0 577.9,330.3 578.5,329.3 579.1,326.5 579.7,330.4 580.3,329.0 581.0,327.2 581.6,329.1 582.2,329.3 582.8,330.1 583.4,327.9 584.1,326.5 584.7,329.2 585.3,328.6 585.9,326.7 586.6,329.2 587.2,328.9 587.8,329.5 588.4,329.1 589.0,330.1 589.7,329.2 590.3,330.4 590.9,329.2 591.5,329.1 592.2,328.8 592.8,328.7 593.4,326.4 594.0,326.5 594.6,327.9 595.3,329.0 595.9,327.9 596.5,328.7 597.1,327.9 597.8,326.4 598.4,328.4 599.0,328.4 599.6,329.0 600.2,328.2 600.9,328.9 601.5,327.6 602.1,325.7 602.7,328.7 603.3,328.9 604.0,329.3 604.6,327.9 605.2,330.3 605.8,327.9 606.5,327.9 607.1,326.5 607.7,326.7 608.3,324.9 608.9,325.9 609.6,326.5 610.2,329.2 610.8,329.7 611.4,329.2 612.1,328.2 612.7,326.5 613.3,329.2 613.9,330.3 614.5,326.4 615.2,322.9 615.8,316.7 616.4,323.7 617.0,319.9 617.7,320.5 618.3,321.3 618.9,321.6 619.5,320.9 620.1,322.9 620.8,321.8 621.4,323.5 622.0,322.1 622.6,321.7 623.2,321.7 623.9,321.5 624.5,321.6 625.1,321.3 625.7,320.9 626.4,321.5 627.0,321.5 627.6,321.6 628.2,321.3 628.8,321.6 629.5,320.5 630.1,320.9 630.7,320.9 631.3,321.2 632.0,321.3 632.6,321.1 633.2,321.1 633.8,320.8 634.4,321.6 635.1,321.5 635.7,322.9 636.3,321.6 636.9,321.1 637.6,320.5 638.2,320.9 638.8,321.1 639.4,321.5 640.0,321.5 640.7,321.2 641.3,322.9 641.9,321.5 642.5,321.5 643.1,321.5 643.8,321.3 644.4,321.7 645.0,321.3 645.6,321.3 646.3,322.2 646.9,321.4 647.5,321.7 648.1,321.1 648.7,321.3 649.4,321.5 650.0,321.3 650.6,321.6 651.2,321.5 651.9,320.9 652.5,321.5 653.1,321.3 653.7,321.5 654.3,321.6 655.0,321.5 655.6,321.7 656.2,321.6 656.8,321.7 657.5,321.6 658.1,321.6 658.7,322.2 659.3,320.9 659.9,321.6 660.6,321.3 661.2,321.3 661.8,321.6 662.4,321.3 663.0,321.6 663.7,321.3 664.3,320.9 664.9,321.6 665.5,321.7 666.2,321.3 666.8,320.9 667.4,320.9 668.0,321.6 668.6,322.7 669.3,321.7 669.9,321.7 670.5,321.6 671.1,321.7 671.8,322.6 672.4,322.1 673.0,321.7 673.6,321.7 674.2,322.1 674.9,321.6 675.5,321.6 676.1,321.5 676.7,320.9 677.4,321.7 678.0,320.9 678.6,321.3 679.2,320.9 679.8,321.5 680.5,321.5 681.1,321.7 681.7,321.3 682.3,321.3 682.9,321.6 683.6,321.7 684.2,321.6 684.8,321.1 685.4,321.3 686.1,321.6 686.7,321.7 687.3,322.1 687.9,322.1 688.5,321.6 689.2,321.2 689.8,326.0 690.4,322.3 691.0,322.1 691.7,325.2 692.3,321.7 692.9,323.7 693.5,321.3 694.1,326.5 694.8,325.5 695.4,324.5 696.0,322.1 696.6,321.5 697.3,321.6 697.9,321.3 698.5,321.7 699.1,321.6 699.7,321.7 700.4,321.6 701.0,321.7 701.6,325.8 702.2,324.9 702.8,324.7 703.5,321.7 704.1,348.4 704.7,327.3 705.3,328.1 706.0,326.5 706.6,326.4 707.2,321.3 707.8,322.1 708.4,321.7 709.1,323.0 709.7,321.3 710.3,321.3 710.9,325.3 711.6,321.7 712.2,321.7 712.8,321.8 713.4,321.5 714.0,321.7 714.7,326.4 715.3,326.4 715.9,321.6 716.5,322.8 717.2,326.4 717.8,326.5 718.4,325.0 719.0,322.9 719.6,321.6 720.3,321.3 720.9,321.6 721.5,321.7 722.1,321.3 722.7,321.7 723.4,321.7 724.0,326.4 724.6,326.5 725.2,327.4 725.9,321.2 726.5,325.3 727.1,325.8 727.7,325.2 728.3,322.9 729.0,327.8 729.6,326.5 730.2,326.5 730.8,321.9 731.5,325.8 732.1,326.4 732.7,326.5 733.3,327.2 733.9,325.7 734.6,327.7 735.2,326.5 735.8,326.4 736.4,321.3 737.1,321.3 737.7,323.8 738.3,320.9 738.9,326.5 739.5,326.5 740.2,328.2 740.8,321.3 741.4,328.6 742.0,326.5 742.6,321.1 743.3,325.8 743.9,328.8 744.5,328.9 745.1,326.4 745.8,326.5 746.4,326.7 747.0,328.0 747.6,327.4 748.2,329.3 748.9,328.4 749.5,327.4 750.1,326.5 750.7,327.5 751.4,325.5 752.0,325.1 752.6,328.9 753.2,326.4 753.8,330.3 754.5,330.3 755.1,328.8 755.7,321.6 756.3,328.0 757.0,329.2 757.6,326.5 758.2,326.9 758.8,326.8 759.4,326.4 760.1,328.7 760.7,326.5 761.3,327.6 761.9,327.9 762.5,329.8 763.2,328.7 763.8,326.5 764.4,330.3 765.0,326.8 765.7,329.2 766.3,320.9 766.9,321.7 767.5,327.0 768.1,328.6 768.8,327.6 769.4,329.6 770.0,326.5 770.6,329.2 771.3,327.5 771.9,322.9 772.5,326.4 773.1,326.4 773.7,327.4 774.4,329.1 775.0,330.3 775.6,326.5 776.2,328.6 776.9,329.1 777.5,328.4 778.1,327.6 778.7,330.0 779.3,330.3 780.0,330.7 780.6,329.1 781.2,329.2 781.8,326.5 782.4,329.0 783.1,327.9 783.7,328.6 784.3,330.3 784.9,330.6 785.6,328.9 786.2,329.8 786.8,328.9 787.4,330.3 788.0,331.8 788.7,328.9 789.3,329.6 789.9,330.3 790.5,330.3 791.2,327.4 791.8,327.4 792.4,326.7 793.0,329.5 793.6,330.5 794.3,330.3 794.9,329.8 795.5,330.5 796.1,328.8 796.8,327.4 797.4,330.3 798.0,327.9 798.6,330.3 799.2,328.6 799.9,330.7 800.5,326.5 801.1,332.5 801.7,333.3 802.3,332.7 803.0,330.3 803.6,332.6 804.2,332.5 804.8,332.4 805.5,329.3 806.1,326.5 806.7,330.3 807.3,330.6 807.9,330.3 808.6,332.2 809.2,332.3 809.8,330.3 810.4,329.4 811.1,331.3 811.7,329.2 812.3,320.9 812.9,326.5 813.5,330.3 814.2,330.4 814.8,332.9 815.4,329.0 816.0,326.5 816.7,333.0 817.3,329.3 817.9,330.4 818.5,328.0 819.1,326.5 819.8,326.5 820.4,329.5 821.0,328.8 821.6,329.0 822.2,330.4 822.9,330.5 823.5,329.8 824.1,330.4 824.7,329.6 825.4,329.0 826.0,326.5 826.6,327.9 827.2,320.5 827.8,327.4 828.5,329.1 829.1,329.8 829.7,329.2 830.3,330.3 831.0,330.4 831.6,326.5 832.2,326.7 832.8,329.2 833.4,329.1 834.1,326.4 834.7,326.5 835.3,329.3 835.9,328.8 836.6,329.2 837.2,329.0 837.8,328.0 838.4,330.4 839.0,333.0 839.7,327.4 840.3,328.9 840.9,327.0 841.5,326.5 842.1,328.3 842.8,326.5 843.4,326.5 844.0,320.9 844.6,321.6 845.3,326.5 845.9,324.7 846.5,326.2 847.1,326.4 847.7,325.8 848.4,326.5 849.0,327.1 849.6,326.5 850.2,326.5 850.9,326.2 851.5,321.7 852.1,326.5 852.7,327.4 853.3,326.5 854.0,325.6 854.6,327.1 855.2,328.1 855.8,325.3 856.5,328.9 857.1,321.7 857.7,321.5 858.3,321.7 858.9,321.7 859.6,326.4 860.2,326.5 860.8,322.7 861.4,321.3 862.0,326.5 862.7,326.2 863.3,326.2 863.9,321.7 864.5,324.5 865.2,326.5 865.8,327.9 866.4,326.5 867.0,328.6 867.6,329.0 868.3,327.5 868.9,326.5 869.5,328.6 870.1,330.3 870.8,326.5 871.4,327.4 872.0,320.9 872.6,325.3 873.2,327.3 873.9,327.1 874.5,327.4 875.1,326.7 875.7,327.4 876.4,327.4 877.0,326.5 877.6,326.5 878.2,326.5 878.8,326.5 879.5,327.9 880.1,328.4 880.7,327.4 881.3,326.5 881.9,329.2 882.6,327.3 883.2,328.6 883.8,329.2 884.4,330.3 885.1,327.4 885.7,330.3 886.3,326.6 886.9,329.2 887.5,328.7 888.2,328.1 888.8,328.9 889.4,326.5 890.0,328.9 890.7,329.2 891.3,326.5 891.9,328.8 892.5,326.6 893.1,328.2 893.8,326.5 894.4,326.5 895.0,328.9 895.6,328.0 896.3,327.9 896.9,327.4 897.5,328.7 898.1,329.2 898.7,330.4 899.4,327.9 900.0,330.3 900.6,330.3 901.2,329.2 901.8,326.5 902.5,328.6 903.1,330.3 903.7,329.5 904.3,328.9 905.0,330.3 905.6,328.8 906.2,326.5 906.8,326.0 907.4,326.5 908.1,328.2 908.7,330.3 909.3,326.5 909.9,326.4 910.6,326.5 911.2,328.4 911.8,329.3 912.4,330.3 913.0,331.7 913.7,327.1 914.3,329.2 914.9,329.2 915.5,326.9 916.2,326.5 916.8,330.1 917.4,330.3 918.0,328.6 918.6,328.9 919.3,328.9 919.9,327.4 920.5,328.9 921.1,327.4 921.7,329.2 922.4,327.9 923.0,326.5 923.6,326.5 924.2,329.2 924.9,328.3 925.5,328.9 926.1,330.6 926.7,328.9 927.3,328.1 928.0,326.6 928.6,327.9 929.2,327.9 929.8,326.6 930.5,326.6 931.1,325.7 931.7,321.6 932.3,324.2 932.9,322.9 933.6,321.7 934.2,326.4 934.8,328.5 935.4,326.5 936.1,326.5 936.7,325.4 937.3,325.9 937.9,325.6 938.5,322.1 939.2,326.4 939.8,322.0 940.4,325.6 941.0,326.4 941.6,325.6 942.3,327.9 942.9,327.3 943.5,326.5 944.1,326.5 944.8,326.1 945.4,329.4 946.0,337.7" fill="none" stroke="#d97706" stroke-width="2.2" stroke-linejoin="round" stroke-linecap="round"/>
<line x1="76" y1="70" x2="94" y2="70" stroke="#2563eb" stroke-width="3"/>
<text x="100" y="74" font-family="Arial, sans-serif" font-size="11" fill="#0f172a">avg fee</text>
<line x1="179" y1="70" x2="197" y2="70" stroke="#059669" stroke-width="3"/>
<text x="203" y="74" font-family="Arial, sans-serif" font-size="11" fill="#0f172a">median fee</text>
<line x1="303" y1="70" x2="321" y2="70" stroke="#d97706" stroke-width="3"/>
<text x="327" y="74" font-family="Arial, sans-serif" font-size="11" fill="#0f172a">p90 fee</text>
<text x="28" y="404" font-family="Arial, sans-serif" font-size="11" fill="#64748b">Source: hourly_features.csv</text>
</svg>