<svg xmlns="http://www.w3.org/2000/svg" width="980" height="420" viewBox="0 0 980 420">
<rect width="100%" height="100%" fill="#ffffff"/>
<text x="28" y="34" font-family="Arial, sans-serif" font-size="20" font-weight="700" fill="#0f172a">Hourly fee trend</text>
<text x="28" y="56" font-family="Arial, sans-serif" font-size="12" fill="#64748b">Average, median, and p90 total fee by hour</text>
<line x1="76" y1="362.0" x2="946" y2="362.0" stroke="#e2e8f0" stroke-width="1"/>
<text x="68" y="366.0" font-family="Arial, sans-serif" font-size="10" text-anchor="end" fill="#64748b">-382K</text>
<line x1="76" y1="292.0" x2="946" y2="292.0" stroke="#e2e8f0" stroke-width="1"/>
<text x="68" y="296.0" font-family="Arial, sans-serif" font-size="10" text-anchor="end" fill="#64748b">2.6M</text>
<line x1="76" y1="222.0" x2="946" y2="222.0" stroke="#e2e8f0" stroke-width="1"/>
<text x="68" y="226.0" font-family="Arial, sans-serif" font-size="10" text-anchor="end" fill="#64748b">5.7M</text>
<line x1="76" y1="152.0" x2="946" y2="152.0" stroke="#e2e8f0" stroke-width="1"/>
<text x="68" y="156.0" font-family="Arial, sans-serif" font-size="10" text-anchor="end" fill="#64748b">8.7M</text>
<line x1="76" y1="82.0" x2="946" y2="82.0" stroke="#e2e8f0" stroke-width="1"/>
<text x="68" y="86.0" font-family="Arial, sans-serif" font-size="10" text-anchor="end" fill="#64748b">11.7M</text>
<line x1="76" y1="362" x2="946" y2="362" stroke="#334155" stroke-width="1"/>
<line x1="76" y1="82" x2="76" y2="362" stroke="#334155" stroke-width="1"/>
<text x="76" y="72" font-family="Arial, sans-serif" font-size="11" fill="#64748b">nanoton</text>
<line x1="76.0" y1="362" x2="76.0" y2="366" stroke="#334155" stroke-width="1"/>
<text x="76.0" y="380" font-family="Arial, sans-serif" font-size="10" text-anchor="middle" fill="#64748b">0</text>
<line x1="511.0" y1="362" x2="511.0" y2="366" stroke="#334155" stroke-width="1"/>
<text x="511.0" y="380" font-family="Arial, sans-serif" font-size="10" text-anchor="middle" fill="#64748b">413</text>
<line x1="946.0" y1="362" x2="946.0" y2="366" stroke="#334155" stroke-width="1"/>
<text x="946.0" y="380" font-family="Arial, sans-serif" font-size="10" text-anchor="middle" fill="#64748b">826</text>
<polyline points="76.0,290.8 77.1,294.6 78.1,296.0 79.2,298.1 80.2,304.8 81.3,297.2 82.3,298.2 83.4,294.6 84.4,299.0 85.5,298.7 86.5,287.8 87.6,299.5 88.6,299.7 89.7,297.4 90.7,300.3 91.8,300.5 92.9,292.5 93.9,292.5 95.0,301.3 96.0,291.1 97.1,289.2 98.1,287.3 99.2,293.8 100.2,294.2 101.3,296.1 102.3,292.1 103.4,297.7 104.4,290.6 105.5,293.2 106.5,288.3 107.6,289.0 108.7,273.1 109.7,284.7 110.8,285.3 111.8,294.6 112.9,299.9 113.9,292.9 115.0,294.9 116.0,304.7 117.1,307.5 118.1,302.1 119.2,297.0 120.2,298.7 121.3,297.9 122.3,304.4 123.4,297.4 124.5,294.5 125.5,296.5 126.6,298.7 127.6,303.1 128.7,303.1 129.7,301.9 130.8,300.3 131.8,303.3 132.9,302.2 133.9,299.4 135.0,299.1 136.0,302.8 137.1,299.1 138.1,301.3 139.2,306.8 140.2,308.7 141.3,306.4 142.4,307.1 143.4,309.1 144.5,305.9 145.5,305.5 146.6,302.0 147.6,308.5 148.7,290.7 149.7,306.4 150.8,306.4 151.8,306.3 152.9,311.2 153.9,307.1 155.0,310.3 156.0,309.1 157.1,305.5 158.2,305.4 159.2,303.2 160.3,303.5 161.3,301.3 162.4,305.1 163.4,307.4 164.5,306.9 165.5,308.1 166.6,305.0 167.6,302.9 168.7,302.7 169.7,298.6 170.8,304.9 171.8,297.0 172.9,299.3 174.0,300.3 175.0,303.9 176.1,311.6 177.1,300.1 178.2,300.5 179.2,308.9 180.3,307.5 181.3,300.3 182.4,304.2 183.4,305.1 184.5,302.6 185.5,300.5 186.6,297.4 187.6,298.7 188.7,301.9 189.8,308.1 190.8,307.4 191.9,307.4 192.9,303.1 194.0,301.9 195.0,304.1 196.1,303.9 197.1,304.0 198.2,308.3 199.2,308.9 200.3,307.3 201.3,301.1 202.4,286.9 203.4,301.6 204.5,298.8 205.6,296.1 206.6,299.6 207.7,305.5 208.7,301.5 209.8,304.9 210.8,302.2 211.9,304.9 212.9,306.8 214.0,304.9 215.0,300.8 216.1,304.8 217.1,308.0 218.2,302.4 219.2,301.7 220.3,303.1 221.4,303.4 222.4,298.9 223.5,298.5 224.5,298.0 225.6,289.4 226.6,296.9 227.7,296.4 228.7,295.5 229.8,299.6 230.8,299.0 231.9,304.6 232.9,304.0 234.0,303.8 235.0,299.2 236.1,301.2 237.2,305.7 238.2,304.5 239.3,312.1 240.3,305.7 241.4,304.3 242.4,307.0 243.5,306.9 244.5,301.9 245.6,303.8 246.6,300.8 247.7,301.6 248.7,300.2 249.8,298.7 250.8,290.6 251.9,296.1 252.9,300.6 254.0,296.6 255.1,302.7 256.1,302.6 257.2,303.0 258.2,302.7 259.3,302.8 260.3,303.7 261.4,300.1 262.4,305.6 263.5,303.0 264.5,299.2 265.6,302.8 266.6,306.7 267.7,306.1 268.7,306.7 269.8,298.5 270.9,301.6 271.9,297.8 273.0,303.8 274.0,300.2 275.1,299.5 276.1,295.6 277.2,298.2 278.2,298.4 279.3,293.8 280.3,299.9 281.4,297.9 282.4,298.6 283.5,294.2 284.5,297.8 285.6,278.0 286.7,284.2 287.7,295.2 288.8,295.7 289.8,294.4 290.9,300.7 291.9,304.3 293.0,302.4 294.0,302.1 295.1,297.9 296.1,295.3 297.2,296.5 298.2,291.4 299.3,292.0 300.3,290.6 301.4,290.0 302.5,299.7 303.5,291.9 304.6,296.8 305.6,299.8 306.7,303.8 307.7,302.5 308.8,302.1 309.8,302.3 310.9,300.8 311.9,303.5 313.0,295.9 314.0,297.8 315.1,304.4 316.1,304.2 317.2,299.5 318.3,303.9 319.3,303.5 320.4,299.0 321.4,288.7 322.5,293.7 323.5,294.2 324.6,303.7 325.6,295.6 326.7,297.0 327.7,305.6 328.8,294.8 329.8,300.5 330.9,305.1 331.9,308.5 333.0,305.5 334.1,304.0 335.1,300.7 336.2,303.8 337.2,299.3 338.3,303.0 339.3,305.0 340.4,303.0 341.4,299.3 342.5,294.4 343.5,299.9 344.6,286.2 345.6,302.1 346.7,293.9 347.7,297.9 348.8,299.5 349.8,297.4 350.9,294.4 352.0,310.4 353.0,291.6 354.1,295.6 355.1,281.6 356.2,294.6 357.2,293.2 358.3,295.0 359.3,291.0 360.4,301.0 361.4,279.9 362.5,297.2 363.5,291.8 364.6,291.5 365.6,283.3 366.7,298.3 367.8,300.4 368.8,298.6 369.9,288.4 370.9,299.0 372.0,304.4 373.0,297.7 374.1,295.5 375.1,279.8 376.2,284.2 377.2,300.5 378.3,299.9 379.3,298.1 380.4,293.4 381.4,303.1 382.5,303.0 383.6,298.6 384.6,296.8 385.7,297.4 386.7,301.3 387.8,298.1 388.8,311.4 389.9,299.4 390.9,303.5 392.0,301.2 393.0,302.9 394.1,304.3 395.1,297.8 396.2,294.4 397.2,299.3 398.3,295.1 399.4,301.8 400.4,292.6 401.5,297.6 402.5,293.9 403.6,290.0 404.6,295.1 405.7,304.6 406.7,291.1 407.8,300.3 408.8,295.9 409.9,293.1 410.9,291.6 412.0,296.8 413.0,297.1 414.1,297.9 415.2,299.5 416.2,292.8 417.3,286.2 418.3,290.1 419.4,300.0 420.4,294.5 421.5,300.9 422.5,303.0 423.6,299.1 424.6,302.5 425.7,295.1 426.7,297.0 427.8,302.8 428.8,301.7 429.9,303.0 431.0,308.6 432.0,306.8 433.1,306.1 434.1,306.5 435.2,304.3 436.2,304.5 437.3,298.3 438.3,301.1 439.4,303.1 440.4,303.3 441.5,304.2 442.5,302.4 443.6,299.4 444.6,304.5 445.7,307.1 446.8,297.3 447.8,298.9 448.9,298.1 449.9,299.7 451.0,297.8 452.0,301.0 453.1,287.2 454.1,294.3 455.2,294.8 456.2,298.6 457.3,291.3 458.3,298.4 459.4,294.6 460.4,298.7 461.5,304.2 462.5,282.2 463.6,289.8 464.7,298.8 465.7,295.1 466.8,293.4 467.8,294.7 468.9,304.3 469.9,296.9 471.0,301.7 472.0,296.7 473.1,295.6 474.1,292.9 475.2,291.6 476.2,286.7 477.3,287.8 478.3,294.2 479.4,292.6 480.5,297.5 481.5,303.1 482.6,296.8 483.6,304.1 484.7,298.7 485.7,297.8 486.8,299.3 487.8,297.1 488.9,296.6 489.9,305.5 491.0,301.9 492.0,304.5 493.1,302.9 494.1,303.4 495.2,302.7 496.3,304.5 497.3,301.7 498.4,300.0 499.4,297.3 500.5,295.0 501.5,305.0 502.6,302.7 503.6,303.7 504.7,302.8 505.7,298.5 506.8,257.0 507.8,291.0 508.9,298.5 509.9,296.3 511.0,301.0 512.1,301.6 513.1,299.9 514.2,299.3 515.2,299.6 516.3,296.0 517.3,299.4 518.4,305.6 519.4,306.5 520.5,300.9 521.5,302.7 522.6,295.0 523.6,302.2 524.7,296.9 525.7,304.8 526.8,299.1 527.9,295.6 528.9,295.1 530.0,300.9 531.0,301.0 532.1,300.7 533.1,304.5 534.2,292.6 535.2,303.5 536.3,306.0 537.3,295.5 538.4,297.4 539.4,302.8 540.5,295.8 541.5,299.5 542.6,304.0 543.7,301.7 544.7,303.8 545.8,300.8 546.8,306.1 547.9,305.6 548.9,300.8 550.0,303.2 551.0,297.1 552.1,300.2 553.1,292.3 554.2,292.0 555.2,292.1 556.3,299.3 557.3,298.5 558.4,298.8 559.5,301.5 560.5,299.6 561.6,305.3 562.6,300.2 563.7,300.6 564.7,304.7 565.8,299.2 566.8,304.4 567.9,299.7 568.9,306.4 570.0,299.1 571.0,304.5 572.1,303.3 573.1,298.0 574.2,263.7 575.2,302.9 576.3,304.6 577.4,301.3 578.4,300.8 579.5,298.3 580.5,299.9 581.6,302.7 582.6,298.6 583.7,304.0 584.7,302.8 585.8,303.0 586.8,301.1 587.9,308.3 588.9,304.5 590.0,309.0 591.0,304.5 592.1,303.7 593.2,304.9 594.2,303.6 595.3,305.3 596.3,299.5 597.4,305.2 598.4,297.1 599.5,302.2 600.5,288.1 601.6,294.6 602.6,299.7 603.7,287.4 604.7,299.0 605.8,298.4 606.8,296.8 607.9,301.1 609.0,299.5 610.0,302.6 611.1,299.3 612.1,303.0 613.2,298.0 614.2,301.6 615.3,305.3 616.3,304.5 617.4,290.4 618.4,303.1 619.5,299.6 620.5,302.4 621.6,303.1 622.6,304.7 623.7,296.3 624.8,301.7 625.8,292.9 626.9,298.2 627.9,294.8 629.0,293.5 630.0,299.4 631.1,297.4 632.1,300.4 633.2,295.6 634.2,301.5 635.3,282.6 636.3,297.4 637.4,291.2 638.4,300.8 639.5,281.3 640.6,303.6 641.6,292.1 642.7,296.5 643.7,300.9 644.8,293.9 645.8,295.3 646.9,305.2 647.9,304.7 649.0,300.3 650.0,302.0 651.1,297.5 652.1,295.0 653.2,296.6 654.2,292.7 655.3,298.7 656.4,291.1 657.4,289.9 658.5,292.8 659.5,302.6 660.6,303.5 661.6,301.6 662.7,297.5 663.7,303.0 664.8,302.5 665.8,299.3 666.9,300.0 667.9,295.7 669.0,300.6 670.0,302.5 671.1,302.2 672.2,300.7 673.2,305.4 674.3,305.1 675.3,301.0 676.4,294.2 677.4,301.0 678.5,298.9 679.5,290.4 680.6,295.9 681.6,294.1 682.7,301.3 683.7,298.2 684.8,299.2 685.8,302.6 686.9,300.9 687.9,299.2 689.0,302.7 690.1,303.6 691.1,299.5 692.2,304.4 693.2,298.2 694.3,302.7 695.3,304.9 696.4,303.3 697.4,303.8 698.5,305.7 699.5,294.6 700.6,306.7 701.6,303.7 702.7,295.1 703.7,294.1 704.8,293.7 705.9,295.9 706.9,295.9 708.0,298.1 709.0,284.7 710.1,294.9 711.1,298.6 712.2,296.3 713.2,294.2 714.3,300.6 715.3,294.3 716.4,295.9 717.4,303.8 718.5,295.8 719.5,302.6 720.6,297.7 721.7,300.0 722.7,300.7 723.8,298.3 724.8,294.8 725.9,295.8 726.9,303.0 728.0,295.6 729.0,296.0 730.1,295.2 731.1,295.3 732.2,295.0 733.2,299.9 734.3,299.0 735.3,295.9 736.4,303.3 737.5,302.9 738.5,298.2 739.6,305.5 740.6,300.9 741.7,300.4 742.7,305.2 743.8,295.8 744.8,301.8 745.9,303.2 746.9,304.6 748.0,299.1 749.0,301.0 750.1,298.0 751.1,298.8 752.2,297.3 753.3,300.8 754.3,296.0 755.4,293.0 756.4,284.2 757.5,298.8 758.5,293.9 759.6,298.9 760.6,298.8 761.7,298.0 762.7,291.0 763.8,292.3 764.8,298.2 765.9,297.5 766.9,297.5 768.0,298.5 769.1,288.2 770.1,296.5 771.2,297.3 772.2,301.7 773.3,301.0 774.3,305.4 775.4,295.8 776.4,295.1 777.5,299.8 778.5,289.6 779.6,296.7 780.6,295.1 781.7,295.1 782.7,294.8 783.8,297.5 784.8,299.5 785.9,295.8 787.0,297.0 788.0,291.7 789.1,285.1 790.1,299.7 791.2,301.0 792.2,293.6 793.3,302.3 794.3,297.5 795.4,307.7 796.4,292.5 797.5,304.9 798.5,304.1 799.6,291.9 800.6,305.2 801.7,297.8 802.8,298.1 803.8,307.4 804.9,305.4 805.9,294.0 807.0,284.5 808.0,295.7 809.1,281.6 810.1,295.8 811.2,307.1 812.2,303.5 813.3,299.2 814.3,301.5 815.4,309.0 816.4,287.8 817.5,293.3 818.6,314.3 819.6,300.8 820.7,304.2 821.7,299.2 822.8,305.4 823.8,297.5 824.9,303.5 825.9,297.3 827.0,286.2 828.0,295.6 829.1,293.4 830.1,295.3 831.2,292.6 832.2,295.0 833.3,297.5 834.4,303.2 835.4,307.8 836.5,295.2 837.5,306.6 838.6,305.0 839.6,305.4 840.7,303.1 841.7,297.4 842.8,293.5 843.8,305.0 844.9,310.4 845.9,306.6 847.0,309.4 848.0,304.0 849.1,307.8 850.2,308.2 851.2,299.0 852.3,288.2 853.3,297.1 854.4,298.1 855.4,298.6 856.5,298.7 857.5,295.2 858.6,305.8 859.6,307.8 860.7,304.4 861.7,309.3 862.8,306.7 863.8,303.2 864.9,303.6 866.0,296.5 867.0,304.1 868.1,305.5 869.1,308.2 870.2,291.8 871.2,301.9 872.3,305.3 873.3,302.2 874.4,300.9 875.4,302.7 876.5,295.0 877.5,295.0 878.6,295.3 879.6,299.1 880.7,299.0 881.8,300.9 882.8,304.6 883.9,307.3 884.9,303.1 886.0,300.9 887.0,303.0 888.1,290.9 889.1,301.1 890.2,301.9 891.2,302.0 892.3,295.6 893.3,306.6 894.4,304.1 895.4,288.8 896.5,297.4 897.5,295.3 898.6,295.7 899.7,296.1 900.7,306.3 901.8,300.3 902.8,304.9 903.9,295.7 904.9,303.6 906.0,305.1 907.0,302.6 908.1,301.6 909.1,285.2 910.2,304.3 911.2,334.7 912.3,343.7 913.3,343.8 914.4,343.5 915.5,344.0 916.5,319.0 917.6,342.3 918.6,343.1 919.7,342.6 920.7,343.4 921.8,343.4 922.8,343.4 923.9,338.9 924.9,343.5 926.0,344.5 927.0,342.7 928.1,342.0 929.1,343.8 930.2,343.0 931.3,343.2 932.3,340.3 933.4,342.7 934.4,343.4 935.5,342.2 936.5,343.9 937.6,341.8 938.6,341.2 939.7,342.8 940.7,342.4 941.8,343.3 942.8,344.8 943.9,343.7 944.9,343.3 946.0,344.1" fill="none" stroke="#2563eb" stroke-width="2.2" stroke-linejoin="round" stroke-linecap="round"/>
<polyline points="76.0,311.4 77.1,324.9 78.1,334.1 79.2,334.5 80.2,335.0 81.3,334.6 82.3,334.4 83.4,330.8 84.4,334.6 85.5,334.6 86.5,320.5 87.6,334.6 88.6,334.2 89.7,330.7 90.7,334.4 91.8,333.8 92.9,321.1 93.9,330.5 95.0,332.4 96.0,310.6 97.1,302.9 98.1,305.9 99.2,320.5 100.2,315.5 101.3,310.4 102.3,329.8 103.4,333.4 104.4,312.5 105.5,335.0 106.5,319.0 107.6,330.5 108.7,283.8 109.7,300.4 110.8,303.3 111.8,308.3 112.9,331.3 113.9,312.5 115.0,310.6 116.0,334.9 117.1,335.0 118.1,329.7 119.2,310.6 120.2,310.6 121.3,312.5 122.3,340.8 123.4,334.9 124.5,308.9 125.5,310.3 126.6,334.9 127.6,335.3 128.7,334.2 129.7,333.4 130.8,333.9 131.8,334.6 132.9,331.5 133.9,334.6 135.0,330.9 136.0,334.3 137.1,334.6 138.1,334.2 139.2,335.0 140.2,334.9 141.3,334.9 142.4,344.0 143.4,335.8 144.5,334.9 145.5,334.9 146.6,330.7 147.6,344.0 148.7,335.6 149.7,336.2 150.8,336.2 151.8,335.0 152.9,338.1 153.9,336.2 155.0,336.1 156.0,335.1 157.1,335.0 158.2,335.0 159.2,334.5 160.3,335.0 161.3,334.6 162.4,334.6 163.4,335.0 164.5,335.0 165.5,335.0 166.6,334.3 167.6,334.9 168.7,334.9 169.7,330.7 170.8,334.7 171.8,312.2 172.9,329.6 174.0,331.1 175.0,333.8 176.1,344.0 177.1,330.6 178.2,333.8 179.2,335.0 180.3,336.2 181.3,334.7 182.4,334.7 183.4,334.8 184.5,334.6 185.5,331.0 186.6,330.5 187.6,331.5 188.7,333.0 189.8,335.0 190.8,334.9 191.9,334.9 192.9,334.1 194.0,334.9 195.0,334.9 196.1,331.5 197.1,332.3 198.2,336.2 199.2,344.0 200.3,336.1 201.3,335.0 202.4,310.1 203.4,334.9 204.5,334.5 205.6,334.7 206.6,333.8 207.7,334.9 208.7,334.0 209.8,334.9 210.8,334.9 211.9,334.9 212.9,335.0 214.0,334.7 215.0,333.2 216.1,334.9 217.1,335.0 218.2,335.0 219.2,334.1 220.3,334.2 221.4,330.3 222.4,310.6 223.5,298.7 224.5,309.8 225.6,304.4 226.6,310.2 227.7,310.1 228.7,327.6 229.8,333.0 230.8,333.8 231.9,333.8 232.9,334.9 234.0,334.9 235.0,333.8 236.1,334.7 237.2,334.7 238.2,334.6 239.3,344.0 240.3,334.9 241.4,334.9 242.4,335.0 243.5,335.0 244.5,333.8 245.6,334.4 246.6,330.9 247.7,319.7 248.7,298.7 249.8,334.1 250.8,326.9 251.9,334.7 252.9,331.8 254.0,331.8 255.1,331.4 256.1,334.7 257.2,334.4 258.2,334.6 259.3,334.6 260.3,330.7 261.4,330.7 262.4,334.9 263.5,334.4 264.5,331.0 265.6,334.6 266.6,335.0 267.7,334.6 268.7,334.9 269.8,330.5 270.9,334.3 271.9,315.6 273.0,334.6 274.0,298.7 275.1,334.0 276.1,329.7 277.2,332.6 278.2,331.8 279.3,310.6 280.3,331.8 281.4,332.3 282.4,334.6 283.5,323.8 284.5,334.0 285.6,295.8 286.7,298.7 287.7,327.1 288.8,331.1 289.8,330.7 290.9,332.3 291.9,334.6 293.0,334.7 294.0,334.1 295.1,324.8 296.1,315.1 297.2,308.6 298.2,305.4 299.3,298.7 300.3,306.5 301.4,305.4 302.5,331.7 303.5,305.5 304.6,317.0 305.6,333.4 306.7,335.0 307.7,334.1 308.8,335.0 309.8,334.9 310.9,333.7 311.9,335.0 313.0,319.7 314.0,319.7 315.1,334.1 316.1,333.8 317.2,333.4 318.3,334.7 319.3,334.6 320.4,331.3 321.4,305.4 322.5,308.2 323.5,308.3 324.6,298.7 325.6,310.2 326.7,335.5 327.7,336.2 328.8,312.5 329.8,334.5 330.9,336.2 331.9,335.9 333.0,336.2 334.1,335.0 335.1,333.8 336.2,334.3 337.2,334.4 338.3,333.5 339.3,334.6 340.4,334.4 341.4,329.6 342.5,308.9 343.5,334.1 344.6,308.2 345.6,334.4 346.7,310.7 347.7,310.3 348.8,325.1 349.8,305.5 350.9,319.7 352.0,344.0 353.0,315.6 354.1,334.2 355.1,308.2 356.2,309.9 357.2,330.0 358.3,334.1 359.3,335.0 360.4,333.2 361.4,323.8 362.5,333.8 363.5,308.2 364.6,306.1 365.6,323.8 366.7,315.6 367.8,333.4 368.8,332.6 369.9,303.2 370.9,334.1 372.0,334.7 373.0,326.5 374.1,333.8 375.1,320.8 376.2,333.7 377.2,333.7 378.3,334.1 379.3,330.7 380.4,331.8 381.4,333.7 382.5,334.6 383.6,333.8 384.6,333.0 385.7,310.6 386.7,334.7 387.8,330.7 388.8,345.9 389.9,333.8 390.9,334.7 392.0,333.7 393.0,334.7 394.1,334.7 395.1,310.6 396.2,315.4 397.2,332.0 398.3,310.5 399.4,331.7 400.4,305.3 401.5,330.5 402.5,326.9 403.6,302.2 404.6,309.7 405.7,335.9 406.7,333.4 407.8,334.9 408.8,334.4 409.9,306.5 410.9,306.5 412.0,318.3 413.0,320.1 414.1,323.6 415.2,331.8 416.2,310.6 417.3,305.4 418.3,308.2 419.4,331.8 420.4,305.2 421.5,330.5 422.5,334.1 423.6,326.7 424.6,330.7 425.7,305.4 426.7,308.2 427.8,333.8 428.8,334.1 429.9,335.0 431.0,340.8 432.0,336.2 433.1,336.1 434.1,335.0 435.2,336.2 436.2,335.8 437.3,333.8 438.3,334.4 439.4,335.0 440.4,334.8 441.5,334.9 442.5,334.6 443.6,331.8 444.6,334.5 445.7,335.0 446.8,329.1 447.8,330.7 448.9,325.8 449.9,325.3 451.0,308.2 452.0,333.5 453.1,308.4 454.1,310.3 455.2,330.5 456.2,319.6 457.3,308.3 458.3,334.6 459.4,318.7 460.4,335.8 461.5,335.0 462.5,297.6 463.6,305.3 464.7,325.3 465.7,325.7 466.8,318.9 467.8,310.3 468.9,334.9 469.9,321.4 471.0,334.2 472.0,331.5 473.1,329.7 474.1,309.6 475.2,308.4 476.2,298.7 477.3,302.7 478.3,305.5 479.4,309.0 480.5,331.8 481.5,334.0 482.6,329.6 483.6,334.7 484.7,333.8 485.7,335.0 486.8,334.0 487.8,334.0 488.9,325.3 489.9,334.9 491.0,334.5 492.0,334.6 493.1,334.7 494.1,334.7 495.2,334.7 496.3,334.6 497.3,334.1 498.4,326.9 499.4,326.6 500.5,305.4 501.5,343.0 502.6,335.3 503.6,344.0 504.7,335.0 505.7,329.1 506.8,301.0 507.8,334.2 508.9,334.1 509.9,315.6 511.0,335.0 512.1,334.1 513.1,334.6 514.2,333.6 515.2,330.5 516.3,330.4 517.3,333.8 518.4,335.0 519.4,335.0 520.5,333.2 521.5,334.4 522.6,310.5 523.6,332.0 524.7,310.1 525.7,332.7 526.8,305.4 527.9,309.8 528.9,310.6 530.0,330.0 531.0,333.8 532.1,332.4 533.1,335.3 534.2,318.3 535.2,334.7 536.3,336.2 537.3,331.4 538.4,325.8 539.4,334.6 540.5,331.3 541.5,331.8 542.6,334.7 543.7,334.5 544.7,333.8 545.8,330.7 546.8,334.9 547.9,334.8 548.9,331.8 550.0,333.2 551.0,310.7 552.1,330.5 553.1,308.2 554.2,308.4 555.2,305.4 556.3,330.4 557.3,326.9 558.4,330.4 559.5,334.9 560.5,331.5 561.6,335.0 562.6,334.6 563.7,334.1 564.7,334.9 565.8,334.7 566.8,335.0 567.9,333.8 568.9,335.0 570.0,333.3 571.0,334.6 572.1,335.0 573.1,332.7 574.2,283.6 575.2,333.8 576.3,335.0 577.4,319.3 578.4,331.1 579.5,329.7 580.5,331.8 581.6,334.1 582.6,334.6 583.7,334.9 584.7,334.7 585.8,334.6 586.8,334.8 587.9,335.0 588.9,334.9 590.0,335.0 591.0,334.9 592.1,334.7 593.2,334.9 594.2,335.0 595.3,334.7 596.3,334.1 597.4,335.7 598.4,334.1 599.5,334.4 600.5,305.3 601.6,319.6 602.6,309.3 603.7,300.7 604.7,310.4 605.8,330.5 606.8,310.6 607.9,330.5 609.0,333.0 610.0,334.7 611.1,333.8 612.1,334.1 613.2,330.9 614.2,334.7 615.3,334.9 616.3,334.9 617.4,305.4 618.4,334.4 619.5,331.0 620.5,335.0 621.6,333.8 622.6,335.0 623.7,333.8 624.8,334.9 625.8,310.6 626.9,334.3 627.9,306.4 629.0,308.4 630.0,333.8 631.1,330.9 632.1,334.1 633.2,329.7 634.2,334.3 635.3,305.3 636.3,330.7 637.4,328.8 638.4,333.8 639.5,295.8 640.6,334.6 641.6,310.6 642.7,310.6 643.7,333.8 644.8,318.4 645.8,318.5 646.9,334.2 647.9,334.9 649.0,334.1 650.0,334.1 651.1,330.4 652.1,308.2 653.2,308.2 654.2,310.2 655.3,333.8 656.4,310.6 657.4,310.4 658.5,327.3 659.5,332.0 660.6,335.0 661.6,334.6 662.7,334.0 663.7,334.6 664.8,334.5 665.8,330.7 666.9,333.5 667.9,331.5 669.0,334.6 670.0,334.1 671.1,333.8 672.2,330.7 673.2,334.7 674.3,334.9 675.3,332.0 676.4,307.0 677.4,326.1 678.5,305.4 679.5,306.4 680.6,309.0 681.6,306.4 682.7,334.6 683.7,327.0 684.8,333.8 685.8,333.2 686.9,334.1 687.9,335.0 689.0,334.6 690.1,333.9 691.1,333.8 692.2,334.7 693.2,330.7 694.3,331.8 695.3,334.9 696.4,334.1 697.4,334.6 698.5,334.9 699.5,327.5 700.6,335.0 701.6,333.6 702.7,319.7 703.7,302.9 704.8,310.1 705.9,327.5 706.9,326.8 708.0,323.6 709.0,298.7 710.1,310.6 711.1,331.1 712.2,330.7 713.2,334.6 714.3,324.6 715.3,323.8 716.4,330.4 717.4,333.8 718.5,330.7 719.5,334.6 720.6,323.9 721.7,333.2 722.7,334.1 723.8,325.7 724.8,309.1 725.9,315.6 726.9,333.8 728.0,308.5 729.0,306.5 730.1,308.2 731.1,310.2 732.2,312.5 733.2,331.0 734.3,331.9 735.3,317.9 736.4,334.6 737.5,335.0 738.5,335.0 739.6,335.0 740.6,334.6 741.7,333.8 742.7,334.9 743.8,330.4 744.8,334.3 745.9,334.6 746.9,334.2 748.0,333.8 749.0,335.0 750.1,330.7 751.1,333.8 752.2,315.5 753.3,330.7 754.3,305.4 755.4,324.4 756.4,306.5 757.5,331.8 758.5,308.9 759.6,333.8 760.6,333.8 761.7,331.2 762.7,310.7 763.8,333.8 764.8,330.0 765.9,327.2 766.9,323.8 768.0,330.0 769.1,305.0 770.1,312.5 771.2,333.8 772.2,332.0 773.3,329.7 774.3,333.8 775.4,322.8 776.4,308.3 777.5,310.4 778.5,305.2 779.6,305.4 780.6,308.2 781.7,310.7 782.7,310.1 783.8,319.6 784.8,325.7 785.9,330.8 787.0,330.9 788.0,305.4 789.1,305.2 790.1,333.8 791.2,331.0 792.2,305.4 793.3,334.7 794.3,308.3 795.4,334.1 796.4,334.7 797.5,332.8 798.5,332.9 799.6,308.2 800.6,335.0 801.7,330.4 802.8,310.4 803.8,330.0 804.9,326.8 805.9,305.9 807.0,306.4 808.0,323.8 809.1,296.7 810.1,334.1 811.2,335.0 812.2,335.0 813.3,331.5 814.3,334.7 815.4,335.0 816.4,304.3 817.5,308.2 818.6,335.0 819.6,331.8 820.7,334.5 821.7,331.2 822.8,334.7 823.8,331.8 824.9,321.5 825.9,334.9 827.0,331.9 828.0,310.4 829.1,308.3 830.1,305.4 831.2,305.9 832.2,305.7 833.3,324.6 834.4,330.7 835.4,334.5 836.5,331.6 837.5,335.0 838.6,335.0 839.6,335.0 840.7,322.4 841.7,334.9 842.8,331.1 843.8,335.0 844.9,344.0 845.9,344.0 847.0,344.0 848.0,334.6 849.1,335.0 850.2,335.0 851.2,334.4 852.3,311.6 853.3,308.9 854.4,308.2 855.4,308.1 856.5,330.4 857.5,308.6 858.6,337.4 859.6,335.0 860.7,335.0 861.7,335.0 862.8,331.8 863.8,332.0 864.9,334.1 866.0,330.5 867.0,334.6 868.1,335.0 869.1,334.9 870.2,312.5 871.2,333.8 872.3,332.0 873.3,333.8 874.4,331.7 875.4,331.0 876.5,310.7 877.5,308.6 878.6,314.0 879.6,327.1 880.7,304.8 881.8,340.8 882.8,341.6 883.9,335.0 884.9,334.6 886.0,334.6 887.0,324.6 888.1,317.8 889.1,346.0 890.2,334.6 891.2,334.9 892.3,317.9 893.3,344.0 894.4,334.0 895.4,321.8 896.5,332.8 897.5,325.5 898.6,333.8 899.7,313.7 900.7,334.6 901.8,328.5 902.8,331.2 903.9,305.4 904.9,331.0 906.0,310.0 907.0,331.4 908.1,330.2 909.1,290.8 910.2,335.0 911.2,347.8 912.3,350.1 913.3,349.5 914.4,346.1 915.5,349.4 916.5,341.0 917.6,346.4 918.6,349.3 919.7,344.7 920.7,345.1 921.8,349.2 922.8,349.4 923.9,343.5 924.9,350.0 926.0,350.1 927.0,347.6 928.1,344.9 929.1,349.2 930.2,345.2 931.3,344.1 932.3,344.7 933.4,345.7 934.4,346.1 935.5,345.7 936.5,349.5 937.6,345.1 938.6,349.4 939.7,348.7 940.7,346.1 941.8,345.8 942.8,351.6 943.9,348.3 944.9,345.7 946.0,349.9" fill="none" stroke="#059669" stroke-width="2.2" stroke-linejoin="round" stroke-linecap="round"/>
<polyline points="76.0,208.9 77.1,216.7 78.1,223.4 79.2,228.3 80.2,236.4 81.3,228.3 82.3,223.3 83.4,216.9 84.4,223.4 85.5,223.3 86.5,199.8 87.6,223.4 88.6,224.6 89.7,223.3 90.7,226.2 91.8,227.6 92.9,211.5 93.9,216.7 95.0,236.0 96.0,216.6 97.1,215.8 98.1,199.8 99.2,220.3 100.2,223.2 101.3,223.4 102.3,220.5 103.4,223.3 104.4,213.2 105.5,216.6 106.5,200.1 107.6,199.8 108.7,160.5 109.7,170.2 110.8,170.2 111.8,209.6 112.9,215.8 113.9,209.6 115.0,208.2 116.0,233.3 117.1,241.0 118.1,230.2 119.2,223.3 120.2,223.8 121.3,223.4 122.3,227.6 123.4,220.4 124.5,213.7 125.5,221.6 126.6,214.1 127.6,236.4 128.7,233.9 129.7,228.8 130.8,229.4 131.8,230.2 132.9,223.4 133.9,223.4 135.0,224.4 136.0,227.8 137.1,231.4 138.1,223.4 139.2,236.4 140.2,240.4 141.3,233.6 142.4,244.6 143.4,239.4 144.5,240.4 145.5,238.9 146.6,236.3 147.6,251.7 148.7,206.3 149.7,236.6 150.8,237.6 151.8,234.6 152.9,248.7 153.9,242.6 155.0,246.3 156.0,241.1 157.1,232.3 158.2,233.3 159.2,228.3 160.3,223.5 161.3,229.7 162.4,233.3 163.4,246.2 164.5,238.6 165.5,241.0 166.6,231.4 167.6,230.1 168.7,230.4 169.7,216.6 170.8,239.0 171.8,223.4 172.9,231.9 174.0,231.4 175.0,242.9 176.1,248.9 177.1,223.4 178.2,227.9 179.2,242.4 180.3,237.1 181.3,229.7 182.4,234.8 183.4,236.4 184.5,233.2 185.5,223.4 186.6,223.4 187.6,230.1 188.7,233.2 189.8,241.8 190.8,237.6 191.9,246.3 192.9,230.4 194.0,230.5 195.0,237.1 196.1,236.4 197.1,236.6 198.2,241.3 199.2,240.4 200.3,240.4 201.3,233.2 202.4,200.3 203.4,223.3 204.5,223.4 205.6,216.6 206.6,229.6 207.7,233.3 208.7,231.4 209.8,233.3 210.8,230.8 211.9,236.3 212.9,236.3 214.0,233.3 215.0,230.2 216.1,238.7 217.1,238.8 218.2,237.6 219.2,228.0 220.3,226.9 221.4,237.0 222.4,226.6 223.5,232.3 224.5,231.4 225.6,207.0 226.6,223.4 227.7,223.3 228.7,223.3 229.8,225.0 230.8,223.4 231.9,236.4 232.9,236.4 234.0,231.9 235.0,230.2 236.1,235.6 237.2,236.3 238.2,236.7 239.3,251.5 240.3,233.3 241.4,233.3 242.4,241.1 243.5,241.0 244.5,233.3 245.6,232.1 246.6,225.6 247.7,223.4 248.7,241.1 249.8,223.4 250.8,199.8 251.9,231.6 252.9,233.2 254.0,223.4 255.1,228.7 256.1,233.2 257.2,236.4 258.2,233.2 259.3,232.7 260.3,233.7 261.4,223.4 262.4,238.3 263.5,233.9 264.5,223.4 265.6,232.6 266.6,238.6 267.7,240.5 268.7,247.9 269.8,224.1 270.9,223.3 271.9,224.5 273.0,234.8 274.0,247.0 275.1,227.7 276.1,223.2 277.2,223.4 278.2,225.2 279.3,222.7 280.3,229.5 281.4,223.4 282.4,228.1 283.5,212.0 284.5,223.2 285.6,160.5 286.7,171.2 287.7,200.0 288.8,210.4 289.8,201.6 290.9,223.4 291.9,232.3 293.0,227.9 294.0,226.7 295.1,216.8 296.1,216.6 297.2,223.4 298.2,200.0 299.3,227.0 300.3,199.8 301.4,199.8 302.5,223.4 303.5,210.4 304.6,217.0 305.6,224.4 306.7,223.4 307.7,224.5 308.8,224.1 309.8,226.6 310.9,223.4 311.9,233.2 313.0,208.9 314.0,221.6 315.1,233.3 316.1,232.1 317.2,223.3 318.3,228.3 319.3,230.2 320.4,223.4 321.4,202.6 322.5,220.4 323.5,223.2 324.6,257.5 325.6,219.7 326.7,214.4 327.7,240.0 328.8,215.3 329.8,228.3 330.9,233.5 331.9,241.1 333.0,240.7 334.1,233.2 335.1,233.2 336.2,227.4 337.2,223.4 338.3,240.4 339.3,231.6 340.4,230.9 341.4,218.4 342.5,210.8 343.5,228.0 344.6,182.3 345.6,231.0 346.7,214.8 347.7,222.1 348.8,223.4 349.8,227.6 350.9,214.7 352.0,240.7 353.0,215.1 354.1,221.5 355.1,199.7 356.2,197.1 357.2,195.3 358.3,216.6 359.3,210.6 360.4,223.4 361.4,170.2 362.5,220.5 363.5,205.1 364.6,205.7 365.6,199.8 366.7,221.7 367.8,228.0 368.8,223.4 369.9,168.9 370.9,223.3 372.0,231.5 373.0,223.2 374.1,223.4 375.1,176.3 376.2,200.3 377.2,226.2 378.3,231.6 379.3,223.4 380.4,209.8 381.4,233.3 382.5,232.6 383.6,224.4 384.6,223.4 385.7,220.4 386.7,230.2 387.8,223.3 388.8,251.8 389.9,231.2 390.9,231.4 392.0,230.2 393.0,233.1 394.1,233.1 395.1,224.5 396.2,223.2 397.2,223.3 398.3,223.3 399.4,223.3 400.4,214.8 401.5,223.4 402.5,214.7 403.6,213.3 404.6,223.3 405.7,233.1 406.7,214.9 407.8,223.3 408.8,219.0 409.9,209.6 410.9,200.3 412.0,215.1 413.0,223.3 414.1,215.1 415.2,232.5 416.2,223.3 417.3,205.7 418.3,207.1 419.4,223.3 420.4,223.4 421.5,223.3 422.5,233.2 423.6,223.4 424.6,234.8 425.7,223.2 426.7,223.0 427.8,223.4 428.8,223.9 429.9,231.2 431.0,248.1 432.0,233.3 433.1,235.7 434.1,239.4 435.2,233.2 436.2,229.7 437.3,215.5 438.3,231.7 439.4,233.2 440.4,233.2 441.5,233.1 442.5,228.3 443.6,225.3 444.6,231.2 445.7,240.6 446.8,220.4 447.8,223.3 448.9,223.4 449.9,228.4 451.0,226.3 452.0,226.6 453.1,210.1 454.1,213.3 455.2,220.4 456.2,226.5 457.3,213.9 458.3,223.3 459.4,215.7 460.4,224.2 461.5,233.2 462.5,170.2 463.6,199.8 464.7,223.3 465.7,200.5 466.8,212.4 467.8,214.7 468.9,233.1 469.9,221.6 471.0,228.3 472.0,223.3 473.1,215.7 474.1,212.4 475.2,200.0 476.2,192.4 477.3,194.7 478.3,208.9 479.4,200.0 480.5,215.1 481.5,228.0 482.6,213.3 483.6,233.3 484.7,223.1 485.7,222.6 486.8,223.4 487.8,219.0 488.9,223.2 489.9,240.4 491.0,226.2 492.0,231.5 493.1,233.2 494.1,226.7 495.2,233.2 496.3,236.3 497.3,240.4 498.4,223.5 499.4,224.2 500.5,223.4 501.5,233.2 502.6,227.8 503.6,223.4 504.7,231.7 505.7,226.6 506.8,92.4 507.8,215.1 508.9,223.3 509.9,213.8 511.0,231.5 512.1,230.2 513.1,223.4 514.2,223.4 515.2,223.3 516.3,220.4 517.3,223.2 518.4,233.2 519.4,238.4 520.5,233.2 521.5,231.7 522.6,213.9 523.6,223.4 524.7,223.3 525.7,238.0 526.8,232.3 527.9,217.1 528.9,212.6 530.0,230.2 531.0,226.8 532.1,230.5 533.1,233.4 534.2,200.3 535.2,233.3 536.3,233.3 537.3,216.7 538.4,220.5 539.4,228.0 540.5,220.3 541.5,219.8 542.6,226.9 543.7,231.9 544.7,233.0 545.8,223.3 546.8,237.7 547.9,240.3 548.9,225.0 550.0,236.6 551.0,223.3 552.1,227.9 553.1,211.9 554.2,214.8 555.2,214.8 556.3,223.3 557.3,223.3 558.4,217.0 559.5,234.2 560.5,224.1 561.6,231.5 562.6,223.4 563.7,223.4 564.7,236.6 565.8,216.9 566.8,233.6 567.9,224.5 568.9,236.6 570.0,223.3 571.0,231.8 572.1,231.4 573.1,223.3 574.2,168.8 575.2,223.3 576.3,224.5 577.4,224.6 578.4,226.7 579.5,223.4 580.5,223.3 581.6,239.7 582.6,223.4 583.7,230.2 584.7,223.4 585.8,228.4 586.8,226.6 587.9,238.6 588.9,232.1 590.0,236.6 591.0,236.3 592.1,232.3 593.2,236.4 594.2,233.6 595.3,240.4 596.3,223.4 597.4,241.1 598.4,212.7 599.5,225.1 600.5,205.7 601.6,213.8 602.6,223.4 603.7,201.9 604.7,223.3 605.8,223.1 606.8,223.4 607.9,231.5 609.0,223.4 610.0,236.3 611.1,223.4 612.1,226.9 613.2,222.4 614.2,223.4 615.3,234.7 616.3,235.8 617.4,200.3 618.4,230.5 619.5,230.2 620.5,235.3 621.6,230.2 622.6,232.1 623.7,216.6 624.8,232.6 625.8,212.7 626.9,230.1 627.9,222.9 629.0,219.7 630.0,225.0 631.1,223.4 632.1,223.4 633.2,219.7 634.2,229.3 635.3,196.0 636.3,220.2 637.4,212.0 638.4,231.5 639.5,170.2 640.6,230.2 641.6,199.8 642.7,220.0 643.7,216.7 644.8,210.0 645.8,215.8 646.9,239.5 647.9,231.5 649.0,223.3 650.0,227.9 651.1,223.3 652.1,209.9 653.2,223.4 654.2,207.1 655.3,223.3 656.4,200.0 657.4,199.8 658.5,201.8 659.5,223.4 660.6,235.0 661.6,223.4 662.7,216.6 663.7,230.6 664.8,231.6 665.8,219.9 666.9,223.3 667.9,214.8 669.0,231.3 670.0,230.2 671.1,231.4 672.2,236.4 673.2,240.4 674.3,229.4 675.3,228.0 676.4,218.7 677.4,227.7 678.5,227.9 679.5,204.0 680.6,220.5 681.6,215.5 682.7,226.7 683.7,224.4 684.8,225.1 685.8,232.1 686.9,231.5 687.9,223.4 689.0,229.2 690.1,236.3 691.1,223.7 692.2,237.1 693.2,225.0 694.3,231.4 695.3,236.4 696.4,236.3 697.4,233.4 698.5,237.6 699.5,212.1 700.6,228.0 701.6,233.2 702.7,222.8 703.7,223.2 704.8,222.2 705.9,222.3 706.9,215.1 708.0,223.4 709.0,172.5 710.1,210.3 711.1,223.3 712.2,214.0 713.2,217.9 714.3,231.6 715.3,215.8 716.4,214.9 717.4,232.2 718.5,222.0 719.5,227.8 720.6,223.3 721.7,223.3 722.7,230.1 723.8,220.4 724.8,211.4 725.9,208.2 726.9,232.6 728.0,223.1 729.0,224.4 730.1,218.9 731.1,223.2 732.2,211.8 733.2,228.8 734.3,223.6 735.3,223.3 736.4,233.2 737.5,229.9 738.5,223.3 739.6,236.3 740.6,223.7 741.7,223.4 742.7,236.8 743.8,214.9 744.8,230.2 745.9,227.6 746.9,234.1 748.0,223.7 749.0,225.3 750.1,222.3 751.1,223.4 752.2,224.5 753.3,223.4 754.3,218.4 755.4,208.6 756.4,195.0 757.5,224.5 758.5,212.1 759.6,229.2 760.6,223.3 761.7,223.4 762.7,199.9 763.8,208.3 764.8,223.4 765.9,217.7 766.9,220.4 768.0,223.4 769.1,189.0 770.1,215.4 771.2,223.4 772.2,230.2 773.3,224.4 774.3,233.2 775.4,219.1 776.4,216.6 777.5,233.2 778.5,198.6 779.6,223.3 780.6,223.6 781.7,216.6 782.7,223.3 783.8,223.4 784.8,223.4 785.9,221.2 787.0,215.8 788.0,200.2 789.1,183.2 790.1,223.4 791.2,223.7 792.2,200.5 793.3,227.0 794.3,226.5 795.4,241.1 796.4,239.9 797.5,237.3 798.5,236.6 799.6,192.0 800.6,244.7 801.7,208.6 802.8,233.3 803.8,241.0 804.9,240.2 805.9,223.5 807.0,174.1 808.0,223.3 809.1,194.8 810.1,229.1 811.2,236.2 812.2,241.0 813.3,220.4 814.3,228.2 815.4,256.0 816.4,170.2 817.5,200.3 818.6,256.2 819.6,223.4 820.7,226.2 821.7,223.3 822.8,236.7 823.8,223.3 824.9,230.2 825.9,216.6 827.0,181.2 828.0,223.4 829.1,204.6 830.1,210.1 831.2,208.6 832.2,200.0 833.3,223.8 834.4,227.4 835.4,243.2 836.5,213.2 837.5,240.6 838.6,224.6 839.6,231.9 840.7,230.1 841.7,241.0 842.8,229.3 843.8,237.6 844.9,247.8 845.9,245.3 847.0,252.0 848.0,236.3 849.1,238.6 850.2,240.9 851.2,199.5 852.3,194.9 853.3,224.5 854.4,218.0 855.4,223.5 856.5,216.6 857.5,216.7 858.6,233.2 859.6,236.3 860.7,237.1 861.7,245.8 862.8,238.2 863.8,237.1 864.9,230.8 866.0,207.1 867.0,236.3 868.1,233.2 869.1,240.9 870.2,213.1 871.2,223.4 872.3,236.4 873.3,227.7 874.4,224.6 875.4,230.2 876.5,214.8 877.5,222.2 878.6,216.8 879.6,223.3 880.7,229.9 881.8,224.9 882.8,227.8 883.9,257.6 884.9,230.2 886.0,236.7 887.0,235.8 888.1,223.4 889.1,231.8 890.2,223.4 891.2,223.3 892.3,211.7 893.3,242.1 894.4,225.6 895.4,200.2 896.5,220.4 897.5,223.3 898.6,223.4 899.7,214.7 900.7,233.5 901.8,223.3 902.8,238.6 903.9,223.3 904.9,241.1 906.0,240.4 907.0,223.4 908.1,225.0 909.1,198.4 910.2,237.3 911.2,299.1 912.3,332.3 913.3,333.7 914.4,330.9 915.5,331.5 916.5,256.7 917.6,327.6 918.6,327.7 919.7,331.7 920.7,333.7 921.8,332.3 922.8,331.6 923.9,322.4 924.9,331.5 926.0,332.9 927.0,331.0 928.1,328.4 929.1,333.2 930.2,329.7 931.3,329.7 932.3,329.6 933.4,330.4 934.4,331.5 935.5,327.6 936.5,331.5 937.6,329.1 938.6,327.7 939.7,330.3 940.7,328.4 941.8,331.3 942.8,335.3 943.9,331.5 944.9,330.0 946.0,331.6" fill="none" stroke="#d97706" stroke-width="2.2" stroke-linejoin="round" stroke-linecap="round"/>
<line x1="76" y1="70" x2="94" y2="70" stroke="#2563eb" stroke-width="3"/>
<text x="100" y="74" font-family="Arial, sans-serif" font-size="11" fill="#0f172a">avg fee</text>
<line x1="179" y1="70" x2="197" y2="70" stroke="#059669" stroke-width="3"/>
<text x="203" y="74" font-family="Arial, sans-serif" font-size="11" fill="#0f172a">median fee</text>
<line x1="303" y1="70" x2="321" y2="70" stroke="#d97706" stroke-width="3"/>
<text x="327" y="74" font-family="Arial, sans-serif" font-size="11" fill="#0f172a">p90 fee</text>
<text x="28" y="404" font-family="Arial, sans-serif" font-size="11" fill="#64748b">Source: hourly_features.csv</text>
</svg>