<svg xmlns="http://www.w3.org/2000/svg" width="980" height="420" viewBox="0 0 980 420">
<rect width="100%" height="100%" fill="#ffffff"/>
<text x="28" y="34" font-family="Arial, sans-serif" font-size="20" font-weight="700" fill="#0f172a">Hourly fee trend</text>
<text x="28" y="56" font-family="Arial, sans-serif" font-size="12" fill="#64748b">Average, median, and p90 total fee by hour</text>
<line x1="76" y1="362.0" x2="946" y2="362.0" stroke="#e2e8f0" stroke-width="1"/>
<text x="68" y="366.0" font-family="Arial, sans-serif" font-size="10" text-anchor="end" fill="#64748b">-312K</text>
<line x1="76" y1="292.0" x2="946" y2="292.0" stroke="#e2e8f0" stroke-width="1"/>
<text x="68" y="296.0" font-family="Arial, sans-serif" font-size="10" text-anchor="end" fill="#64748b">2.7M</text>
<line x1="76" y1="222.0" x2="946" y2="222.0" stroke="#e2e8f0" stroke-width="1"/>
<text x="68" y="226.0" font-family="Arial, sans-serif" font-size="10" text-anchor="end" fill="#64748b">5.7M</text>
<line x1="76" y1="152.0" x2="946" y2="152.0" stroke="#e2e8f0" stroke-width="1"/>
<text x="68" y="156.0" font-family="Arial, sans-serif" font-size="10" text-anchor="end" fill="#64748b">8.7M</text>
<line x1="76" y1="82.0" x2="946" y2="82.0" stroke="#e2e8f0" stroke-width="1"/>
<text x="68" y="86.0" font-family="Arial, sans-serif" font-size="10" text-anchor="end" fill="#64748b">11.7M</text>
<line x1="76" y1="362" x2="946" y2="362" stroke="#334155" stroke-width="1"/>
<line x1="76" y1="82" x2="76" y2="362" stroke="#334155" stroke-width="1"/>
<text x="76" y="72" font-family="Arial, sans-serif" font-size="11" fill="#64748b">nanoton</text>
<line x1="76.0" y1="362" x2="76.0" y2="366" stroke="#334155" stroke-width="1"/>
<text x="76.0" y="380" font-family="Arial, sans-serif" font-size="10" text-anchor="middle" fill="#64748b">0</text>
<line x1="511.0" y1="362" x2="511.0" y2="366" stroke="#334155" stroke-width="1"/>
<text x="511.0" y="380" font-family="Arial, sans-serif" font-size="10" text-anchor="middle" fill="#64748b">408</text>
<line x1="946.0" y1="362" x2="946.0" y2="366" stroke="#334155" stroke-width="1"/>
<text x="946.0" y="380" font-family="Arial, sans-serif" font-size="10" text-anchor="middle" fill="#64748b">816</text>
<polyline points="76.0,292.0 77.1,295.8 78.1,297.2 79.2,299.3 80.3,306.1 81.3,298.4 82.4,299.4 83.5,295.8 84.5,300.2 85.6,300.0 86.7,288.9 87.7,300.8 88.8,300.9 89.9,298.6 90.9,301.5 92.0,301.7 93.1,293.7 94.1,293.7 95.2,302.6 96.3,292.3 97.3,290.4 98.4,288.5 99.5,295.1 100.5,295.4 101.6,297.3 102.7,293.3 103.7,298.9 104.8,291.8 105.9,294.5 106.9,289.5 108.0,290.2 109.1,274.2 110.1,285.8 111.2,286.5 112.2,295.8 113.3,301.2 114.4,294.1 115.4,296.1 116.5,305.9 117.6,308.8 118.6,303.4 119.7,298.2 120.8,299.9 121.8,299.2 122.9,305.7 124.0,298.6 125.0,295.7 126.1,297.7 127.2,299.9 128.2,304.3 129.3,304.4 130.4,303.2 131.4,301.6 132.5,304.6 133.6,303.5 134.6,300.7 135.7,300.4 136.8,304.1 137.8,300.4 138.9,302.6 140.0,308.1 141.0,310.0 142.1,307.7 143.2,308.4 144.2,310.4 145.3,307.2 146.4,306.8 147.4,303.3 148.5,309.8 149.6,291.9 150.6,307.7 151.7,307.6 152.8,307.6 153.8,312.6 154.9,308.4 156.0,311.6 157.0,310.4 158.1,306.8 159.2,306.7 160.2,304.5 161.3,304.7 162.4,302.6 163.4,306.4 164.5,308.7 165.6,308.2 166.6,309.4 167.7,306.3 168.8,304.2 169.8,304.0 170.9,299.8 172.0,306.2 173.0,298.3 174.1,300.5 175.2,301.6 176.2,305.2 177.3,312.9 178.4,301.4 179.4,301.8 180.5,310.2 181.6,308.8 182.6,301.5 183.7,305.5 184.8,306.4 185.8,303.9 186.9,301.7 187.9,298.7 189.0,299.9 190.1,303.2 191.1,309.4 192.2,308.7 193.3,308.7 194.3,304.4 195.4,303.2 196.5,305.4 197.5,305.2 198.6,305.3 199.7,309.6 200.7,310.2 201.8,308.6 202.9,302.3 203.9,288.0 205.0,302.9 206.1,300.0 207.1,297.3 208.2,300.8 209.3,306.8 210.3,302.8 211.4,306.2 212.5,303.4 213.5,306.2 214.6,308.1 215.7,306.2 216.7,302.0 217.8,306.1 218.9,309.3 219.9,303.7 221.0,303.0 222.1,304.4 223.1,304.6 224.2,300.1 225.3,299.7 226.3,299.2 227.4,290.6 228.5,298.1 229.5,297.6 230.6,296.7 231.7,300.9 232.7,300.3 233.8,305.9 234.9,305.3 235.9,305.1 237.0,300.4 238.1,302.4 239.1,307.0 240.2,305.8 241.3,313.4 242.3,307.0 243.4,305.6 244.5,308.3 245.5,308.2 246.6,303.2 247.7,305.1 248.7,302.0 249.8,302.9 250.9,301.5 251.9,300.0 253.0,291.8 254.1,297.3 255.1,301.8 256.2,297.8 257.2,304.0 258.3,303.8 259.4,304.3 260.4,303.9 261.5,304.1 262.6,305.0 263.6,301.4 264.7,306.9 265.8,304.2 266.8,300.5 267.9,304.1 269.0,308.0 270.0,307.4 271.1,308.0 272.2,299.7 273.2,302.9 274.3,299.1 275.4,305.1 276.4,301.5 277.5,300.7 278.6,296.9 279.6,299.4 280.7,299.6 281.8,295.0 282.8,301.2 283.9,299.1 285.0,299.9 286.0,295.4 287.1,299.1 288.2,279.1 289.2,285.4 290.3,296.4 291.4,296.9 292.4,295.6 293.5,302.0 294.6,305.5 295.6,303.7 296.7,303.4 297.8,299.1 298.8,296.5 299.9,297.8 301.0,292.6 302.0,293.2 303.1,291.8 304.2,291.2 305.2,300.9 306.3,293.2 307.4,298.0 308.4,301.0 309.5,305.0 310.6,303.7 311.6,303.3 312.7,303.5 313.8,302.1 314.8,304.8 315.9,297.1 317.0,299.0 318.0,305.7 319.1,305.5 320.2,300.8 321.2,305.1 322.3,304.7 323.4,300.2 324.4,289.9 325.5,294.9 326.6,295.4 327.6,304.9 328.7,296.8 329.8,298.2 330.8,306.9 331.9,296.1 332.9,301.7 334.0,306.4 335.1,309.8 336.1,306.7 337.2,305.3 338.3,301.9 339.3,305.1 340.4,300.5 341.5,304.3 342.5,306.3 343.6,304.3 344.7,300.6 345.7,295.6 346.8,301.2 347.9,287.4 348.9,303.4 350.0,295.1 351.1,299.2 352.1,300.7 353.2,298.7 354.3,295.7 355.3,311.7 356.4,292.8 357.5,296.8 358.5,282.8 359.6,295.8 360.7,294.5 361.7,296.2 362.8,292.2 363.9,302.3 364.9,281.0 366.0,298.5 367.1,293.0 368.1,292.7 369.2,284.4 370.3,299.5 371.3,301.6 372.4,299.9 373.5,289.6 374.5,300.3 375.6,305.6 376.7,299.0 377.7,296.8 378.8,280.9 379.9,285.3 380.9,301.8 382.0,301.1 383.1,299.3 384.1,294.6 385.2,304.4 386.3,304.3 387.3,299.9 388.4,298.0 389.5,298.6 390.5,302.6 391.6,299.4 392.7,312.8 393.7,300.7 394.8,304.7 395.9,302.4 396.9,304.2 398.0,305.5 399.1,299.0 400.1,295.6 401.2,300.5 402.2,296.3 403.3,303.0 404.4,293.8 405.4,298.8 406.5,295.1 407.6,291.2 408.6,296.3 409.7,305.8 410.8,292.3 411.8,301.6 412.9,297.1 414.0,294.3 415.0,292.8 416.1,298.1 417.2,298.3 418.2,299.1 419.3,300.8 420.4,294.1 421.4,287.4 422.5,291.3 423.6,301.2 424.6,295.7 425.7,302.2 426.8,304.3 427.8,300.4 428.9,303.8 430.0,296.4 431.0,298.3 432.1,304.0 433.2,302.9 434.2,304.2 435.3,310.0 436.4,308.1 437.4,307.4 438.5,307.8 439.6,305.6 440.6,305.7 441.7,299.6 442.8,302.4 443.8,304.3 444.9,304.6 446.0,305.5 447.0,303.6 448.1,300.6 449.2,305.7 450.2,308.4 451.3,298.5 452.4,300.2 453.4,299.3 454.5,300.9 455.6,299.1 456.6,302.3 457.7,288.4 458.8,295.5 459.8,296.0 460.9,299.9 462.0,292.5 463.0,299.6 464.1,295.8 465.2,300.0 466.2,305.5 467.3,283.3 468.4,291.0 469.4,300.1 470.5,296.4 471.6,294.6 472.6,295.9 473.7,305.6 474.8,298.1 475.8,303.0 476.9,298.0 477.9,296.8 479.0,294.1 480.1,292.9 481.1,287.9 482.2,288.9 483.3,295.4 484.3,293.8 485.4,298.7 486.5,304.3 487.5,298.0 488.6,305.4 489.7,299.9 490.7,299.0 491.8,300.6 492.9,298.4 493.9,297.8 495.0,306.8 496.1,303.2 497.1,305.8 498.2,304.2 499.3,304.7 500.3,304.0 501.4,305.8 502.5,303.0 503.5,301.3 504.6,298.5 505.7,296.2 506.7,306.3 507.8,304.0 508.9,305.0 509.9,304.1 511.0,299.7 512.1,258.0 513.1,292.2 514.2,299.7 515.3,297.5 516.3,302.3 517.4,302.9 518.5,301.1 519.5,300.6 520.6,300.9 521.7,297.2 522.7,300.7 523.8,306.9 524.9,307.8 525.9,302.1 527.0,304.0 528.1,296.3 529.1,303.5 530.2,298.1 531.3,306.1 532.3,300.3 533.4,296.8 534.5,296.3 535.5,302.2 536.6,302.2 537.7,301.9 538.7,305.8 539.8,293.8 540.9,304.8 541.9,307.3 543.0,296.7 544.1,298.7 545.1,304.1 546.2,297.1 547.2,300.7 548.3,305.2 549.4,302.9 550.4,305.1 551.5,302.0 552.6,307.4 553.6,306.9 554.7,302.1 555.8,304.5 556.8,298.3 557.9,301.4 559.0,293.5 560.0,293.2 561.1,293.3 562.2,300.5 563.2,299.7 564.3,300.1 565.4,302.8 566.4,300.9 567.5,306.6 568.6,301.5 569.6,301.8 570.7,306.0 571.8,300.4 572.8,305.7 573.9,300.9 575.0,307.7 576.0,300.4 577.1,305.7 578.2,304.6 579.2,299.3 580.3,264.7 581.4,304.2 582.4,305.8 583.5,302.6 584.6,302.1 585.6,299.5 586.7,301.2 587.8,304.0 588.8,299.9 589.9,305.3 591.0,304.0 592.0,304.3 593.1,302.4 594.2,309.6 595.2,305.7 596.3,310.4 597.4,305.8 598.4,305.0 599.5,306.2 600.6,304.9 601.6,306.6 602.7,300.8 603.8,306.5 604.8,298.3 605.9,303.5 607.0,289.3 608.0,295.8 609.1,301.0 610.2,288.5 611.2,300.3 612.3,299.7 613.4,298.1 614.4,302.4 615.5,300.7 616.6,303.9 617.6,300.5 618.7,304.3 619.8,299.2 620.8,302.9 621.9,306.6 622.9,305.8 624.0,291.5 625.1,304.4 626.1,300.9 627.2,303.6 628.3,304.4 629.3,305.9 630.4,297.5 631.5,302.9 632.5,294.1 633.6,299.5 634.7,296.0 635.7,294.7 636.8,300.6 637.9,298.7 638.9,301.7 640.0,296.9 641.1,302.8 642.1,283.8 643.2,298.6 644.3,292.4 645.3,302.1 646.4,282.5 647.5,304.9 648.5,293.3 649.6,297.7 650.7,302.2 651.7,295.1 652.8,296.5 653.9,306.5 654.9,305.9 656.0,301.6 657.1,303.2 658.1,298.8 659.2,296.2 660.3,297.8 661.3,293.9 662.4,299.9 663.5,292.3 664.5,291.1 665.6,294.0 666.7,303.9 667.7,304.7 668.8,302.9 669.9,298.8 670.9,304.3 672.0,303.8 673.1,300.6 674.1,301.2 675.2,296.9 676.3,301.9 677.3,303.8 678.4,303.5 679.5,302.0 680.5,306.7 681.6,306.4 682.7,302.3 683.7,295.5 684.8,302.3 685.9,300.2 686.9,291.6 688.0,297.1 689.1,295.3 690.1,302.6 691.2,299.4 692.2,300.4 693.3,303.9 694.4,302.2 695.4,300.4 696.5,303.9 697.6,304.9 698.6,300.8 699.7,305.7 700.8,299.4 701.8,303.9 702.9,306.2 704.0,304.6 705.0,305.1 706.1,307.0 707.2,295.8 708.2,308.0 709.3,305.0 710.4,296.4 711.4,295.3 712.5,294.9 713.6,297.1 714.6,297.2 715.7,299.4 716.8,285.9 717.8,296.1 718.9,299.8 720.0,297.5 721.0,295.4 722.1,301.9 723.2,295.5 724.2,297.2 725.3,305.1 726.4,297.0 727.4,303.8 728.5,298.9 729.6,301.3 730.6,302.0 731.7,299.6 732.8,296.0 733.8,297.1 734.9,304.3 736.0,296.8 737.0,297.2 738.1,296.4 739.2,296.6 740.2,296.2 741.3,301.2 742.4,300.2 743.4,297.1 744.5,304.6 745.6,304.2 746.6,299.4 747.7,306.8 748.8,302.1 749.8,301.7 750.9,306.5 752.0,297.1 753.0,303.1 754.1,304.5 755.2,305.9 756.2,300.4 757.3,302.2 758.4,299.2 759.4,300.0 760.5,298.5 761.6,302.1 762.6,297.2 763.7,294.2 764.8,285.3 765.8,300.0 766.9,295.1 767.9,300.2 769.0,300.1 770.1,299.2 771.1,292.2 772.2,293.5 773.3,299.5 774.3,298.7 775.4,298.8 776.5,299.8 777.5,289.4 778.6,297.7 779.7,298.6 780.7,303.0 781.8,302.2 782.9,306.7 783.9,297.0 785.0,296.3 786.1,301.1 787.1,290.8 788.2,298.0 789.3,296.4 790.3,296.4 791.4,296.0 792.5,298.7 793.5,300.8 794.6,297.0 795.7,298.2 796.7,292.9 797.8,286.2 798.9,301.0 799.9,302.3 801.0,294.8 802.1,303.6 803.1,298.8 804.2,309.0 805.3,293.8 806.3,306.2 807.4,305.4 808.5,293.2 809.5,306.4 810.6,299.0 811.7,299.4 812.7,308.7 813.8,306.7 814.9,295.2 815.9,285.7 817.0,296.9 818.1,282.7 819.1,297.0 820.2,308.4 821.3,304.7 822.3,300.5 823.4,302.8 824.5,310.3 825.5,289.0 826.6,294.6 827.7,315.6 828.7,302.1 829.8,305.5 830.9,300.4 831.9,306.7 833.0,298.7 834.1,304.7 835.1,298.5 836.2,287.4 837.2,296.8 838.3,294.6 839.4,296.5 840.4,293.8 841.5,296.3 842.6,298.7 843.6,304.4 844.7,309.1 845.8,296.4 846.8,307.9 847.9,306.3 849.0,306.7 850.0,304.4 851.1,298.6 852.2,294.8 853.2,306.3 854.3,311.7 855.4,307.9 856.4,310.7 857.5,305.3 858.6,309.1 859.6,309.5 860.7,300.3 861.8,289.4 862.8,298.3 863.9,299.3 865.0,299.8 866.0,300.0 867.1,296.4 868.2,307.1 869.2,309.1 870.3,305.7 871.4,310.6 872.4,308.0 873.5,304.5 874.6,304.8 875.6,297.7 876.7,305.4 877.8,306.8 878.8,309.5 879.9,293.0 881.0,303.1 882.0,306.6 883.1,303.5 884.2,302.1 885.2,304.0 886.3,296.2 887.4,296.3 888.4,296.5 889.5,300.4 890.6,300.3 891.6,302.2 892.7,305.8 893.8,308.6 894.8,304.4 895.9,302.1 897.0,304.3 898.0,292.1 899.1,302.4 900.2,303.2 901.2,303.3 902.3,296.9 903.4,307.9 904.4,305.4 905.5,290.0 906.6,298.7 907.6,296.5 908.7,296.9 909.8,297.3 910.8,307.6 911.9,301.5 912.9,306.2 914.0,296.9 915.1,304.9 916.1,306.4 917.2,303.9 918.3,302.9 919.3,286.4 920.4,305.6 921.5,336.2 922.5,345.2 923.6,345.3 924.7,345.0 925.7,345.5 926.8,320.4 927.9,343.8 928.9,344.7 930.0,344.1 931.1,344.9 932.1,344.9 933.2,344.9 934.3,340.4 935.3,345.0 936.4,346.1 937.5,344.2 938.5,343.5 939.6,345.3 940.7,344.6 941.7,344.7 942.8,341.8 943.9,344.2 944.9,344.9 946.0,343.5" fill="none" stroke="#2563eb" stroke-width="2.2" stroke-linejoin="round" stroke-linecap="round"/>
<polyline points="76.0,312.8 77.1,326.4 78.1,335.5 79.2,336.0 80.3,336.5 81.3,336.1 82.4,335.8 83.5,332.2 84.5,336.1 85.6,336.1 86.7,321.8 87.7,336.1 88.8,335.6 89.9,332.2 90.9,335.9 92.0,335.3 93.1,322.5 94.1,331.9 95.2,333.8 96.3,311.9 97.3,304.2 98.4,307.2 99.5,321.9 100.5,316.8 101.6,311.8 102.7,331.3 103.7,334.9 104.8,313.8 105.9,336.4 106.9,320.4 108.0,331.9 109.1,285.0 110.1,301.6 111.2,304.6 112.2,309.6 113.3,332.8 114.4,313.8 115.4,311.9 116.5,336.3 117.6,336.5 118.6,331.2 119.7,311.9 120.8,311.9 121.8,313.8 122.9,342.3 124.0,336.3 125.0,310.2 126.1,311.6 127.2,336.4 128.2,336.8 129.3,335.6 130.4,334.9 131.4,335.4 132.5,336.0 133.6,332.9 134.6,336.0 135.7,332.3 136.8,335.7 137.8,336.1 138.9,335.6 140.0,336.4 141.0,336.3 142.1,336.4 143.2,345.5 144.2,337.2 145.3,336.4 146.4,336.4 147.4,332.2 148.5,345.5 149.6,337.1 150.6,337.7 151.7,337.7 152.8,336.5 153.8,339.6 154.9,337.6 156.0,337.6 157.0,336.6 158.1,336.4 159.2,336.4 160.2,336.0 161.3,336.4 162.4,336.1 163.4,336.0 164.5,336.4 165.6,336.5 166.6,336.5 167.7,335.8 168.8,336.4 169.8,336.3 170.9,332.2 172.0,336.2 173.0,313.5 174.1,331.1 175.2,332.5 176.2,335.3 177.3,345.5 178.4,332.0 179.4,335.3 180.5,336.4 181.6,337.7 182.6,336.1 183.7,336.2 184.8,336.3 185.8,336.0 186.9,332.4 187.9,331.9 189.0,333.0 190.1,334.5 191.1,336.4 192.2,336.3 193.3,336.4 194.3,335.5 195.4,336.3 196.5,336.3 197.5,333.0 198.6,333.8 199.7,337.7 200.7,345.5 201.8,337.6 202.9,336.5 203.9,311.4 205.0,336.4 206.1,335.9 207.1,336.1 208.2,335.3 209.3,336.4 210.3,335.5 211.4,336.4 212.5,336.3 213.5,336.4 214.6,336.4 215.7,336.2 216.7,334.6 217.8,336.3 218.9,336.4 219.9,336.4 221.0,335.6 222.1,335.7 223.1,331.7 224.2,311.9 225.3,300.0 226.3,311.1 227.4,305.7 228.5,311.5 229.5,311.5 230.6,329.1 231.7,334.4 232.7,335.3 233.8,335.3 234.9,336.3 235.9,336.4 237.0,335.3 238.1,336.2 239.1,336.1 240.2,336.1 241.3,345.5 242.3,336.4 243.4,336.3 244.5,336.4 245.5,336.4 246.6,335.3 247.7,335.9 248.7,332.4 249.8,321.1 250.9,300.0 251.9,335.5 253.0,328.3 254.1,336.1 255.1,333.2 256.2,333.2 257.2,332.8 258.3,336.2 259.4,335.9 260.4,336.1 261.5,336.1 262.6,332.2 263.6,332.2 264.7,336.4 265.8,335.8 266.8,332.4 267.9,336.0 269.0,336.4 270.0,336.0 271.1,336.4 272.2,331.9 273.2,335.8 274.3,316.9 275.4,336.1 276.4,300.0 277.5,335.5 278.6,331.1 279.6,334.0 280.7,333.3 281.8,311.9 282.8,333.2 283.9,333.7 285.0,336.0 286.0,325.2 287.1,335.4 288.2,297.0 289.2,299.9 290.3,328.5 291.4,332.6 292.4,332.2 293.5,333.7 294.6,336.1 295.6,336.1 296.7,335.5 297.8,326.2 298.8,316.4 299.9,309.9 301.0,306.7 302.0,300.0 303.1,307.8 304.2,306.7 305.2,333.2 306.3,306.8 307.4,318.4 308.4,334.9 309.5,336.4 310.6,335.6 311.6,336.4 312.7,336.4 313.8,335.2 314.8,336.4 315.9,321.1 317.0,321.1 318.0,335.5 319.1,335.3 320.2,334.9 321.2,336.1 322.3,336.0 323.4,332.7 324.4,306.7 325.5,309.6 326.6,309.6 327.6,300.0 328.7,311.5 329.8,336.9 330.8,337.7 331.9,313.8 332.9,336.0 334.0,337.6 335.1,337.4 336.1,337.7 337.2,336.4 338.3,335.3 339.3,335.7 340.4,335.9 341.5,335.0 342.5,336.1 343.6,335.9 344.7,331.0 345.7,310.3 346.8,335.5 347.9,309.5 348.9,335.8 350.0,312.0 351.1,311.6 352.1,326.5 353.2,306.8 354.3,321.1 355.3,345.5 356.4,316.9 357.5,335.6 358.5,309.6 359.6,311.2 360.7,331.5 361.7,335.5 362.8,336.5 363.9,334.7 364.9,325.2 366.0,335.3 367.1,309.5 368.1,307.4 369.2,325.2 370.3,316.9 371.3,334.9 372.4,334.0 373.5,304.5 374.5,335.5 375.6,336.1 376.7,327.9 377.7,335.3 378.8,322.2 379.9,335.1 380.9,335.2 382.0,335.5 383.1,332.2 384.1,333.2 385.2,335.2 386.3,336.1 387.3,335.3 388.4,334.5 389.5,311.9 390.5,336.2 391.6,332.2 392.7,347.4 393.7,335.3 394.8,336.2 395.9,335.2 396.9,336.2 398.0,336.1 399.1,311.9 400.1,316.7 401.2,333.5 402.2,311.8 403.3,333.2 404.4,306.6 405.4,331.9 406.5,328.3 407.6,303.5 408.6,311.0 409.7,337.3 410.8,334.9 411.8,336.4 412.9,335.9 414.0,307.8 415.0,307.8 416.1,319.6 417.2,321.5 418.2,325.0 419.3,333.2 420.4,311.9 421.4,306.7 422.5,309.5 423.6,333.2 424.6,306.5 425.7,331.9 426.8,335.5 427.8,328.2 428.9,332.2 430.0,306.7 431.0,309.5 432.1,335.3 433.2,335.5 434.2,336.5 435.3,342.3 436.4,337.6 437.4,337.5 438.5,336.4 439.6,337.7 440.6,337.2 441.7,335.3 442.8,335.9 443.8,336.4 444.9,336.3 446.0,336.4 447.0,336.1 448.1,333.3 449.2,335.9 450.2,336.4 451.3,330.6 452.4,332.2 453.4,327.2 454.5,326.7 455.6,309.5 456.6,335.0 457.7,309.7 458.8,311.6 459.8,331.9 460.9,321.0 462.0,309.6 463.0,336.0 464.1,320.1 465.2,337.3 466.2,336.4 467.3,298.8 468.4,306.6 469.4,326.7 470.5,327.1 471.6,320.3 472.6,311.6 473.7,336.4 474.8,322.7 475.8,335.6 476.9,333.0 477.9,331.2 479.0,310.9 480.1,309.7 481.1,300.0 482.2,303.9 483.3,306.8 484.3,310.3 485.4,333.2 486.5,335.5 487.5,331.0 488.6,336.1 489.7,335.3 490.7,336.4 491.8,335.5 492.9,335.5 493.9,326.7 495.0,336.4 496.1,336.0 497.1,336.1 498.2,336.2 499.3,336.2 500.3,336.1 501.4,336.0 502.5,335.5 503.5,328.3 504.6,328.1 505.7,306.7 506.7,344.5 507.8,336.8 508.9,345.5 509.9,336.5 511.0,330.5 512.1,302.3 513.1,335.7 514.2,335.6 515.3,317.0 516.3,336.5 517.4,335.6 518.5,336.1 519.5,335.0 520.6,331.9 521.7,331.9 522.7,335.3 523.8,336.4 524.9,336.4 525.9,334.6 527.0,335.8 528.1,311.8 529.1,333.5 530.2,311.4 531.3,334.2 532.3,306.7 533.4,311.1 534.5,311.9 535.5,331.5 536.6,335.3 537.7,333.9 538.7,336.8 539.8,319.7 540.9,336.1 541.9,337.7 543.0,332.8 544.1,327.2 545.1,336.1 546.2,332.7 547.2,333.2 548.3,336.2 549.4,335.9 550.4,335.3 551.5,332.2 552.6,336.4 553.6,336.3 554.7,333.2 555.8,334.7 556.8,312.0 557.9,331.9 559.0,309.5 560.0,309.7 561.1,306.7 562.2,331.9 563.2,328.3 564.3,331.8 565.4,336.3 566.4,332.9 567.5,336.4 568.6,336.1 569.6,335.5 570.7,336.4 571.8,336.1 572.8,336.4 573.9,335.3 575.0,336.4 576.0,334.7 577.1,336.1 578.2,336.4 579.2,334.2 580.3,284.8 581.4,335.3 582.4,336.5 583.5,320.7 584.6,332.6 585.6,331.2 586.7,333.3 587.8,335.5 588.8,336.0 589.9,336.4 591.0,336.2 592.0,336.0 593.1,336.2 594.2,336.5 595.2,336.3 596.3,336.5 597.4,336.4 598.4,336.1 599.5,336.4 600.6,336.4 601.6,336.1 602.7,335.5 603.8,337.2 604.8,335.5 605.9,335.8 607.0,306.6 608.0,321.0 609.1,310.6 610.2,302.0 611.2,311.7 612.3,332.0 613.4,311.9 614.4,331.9 615.5,334.5 616.6,336.2 617.6,335.2 618.7,335.5 619.8,332.4 620.8,336.1 621.9,336.3 622.9,336.3 624.0,306.7 625.1,335.9 626.1,332.4 627.2,336.5 628.3,335.3 629.3,336.4 630.4,335.3 631.5,336.3 632.5,311.9 633.6,335.8 634.7,307.7 635.7,309.7 636.8,335.3 637.9,332.4 638.9,335.5 640.0,331.2 641.1,335.8 642.1,306.6 643.2,332.2 644.3,330.3 645.3,335.3 646.4,297.0 647.5,336.1 648.5,311.9 649.6,311.9 650.7,335.3 651.7,319.7 652.8,319.8 653.9,335.6 654.9,336.4 656.0,335.5 657.1,335.5 658.1,331.9 659.2,309.5 660.3,309.5 661.3,311.5 662.4,335.3 663.5,311.9 664.5,311.7 665.6,328.7 666.7,333.5 667.7,336.4 668.8,336.0 669.9,335.4 670.9,336.1 672.0,336.0 673.1,332.2 674.1,335.0 675.2,333.0 676.3,336.0 677.3,335.5 678.4,335.3 679.5,332.2 680.5,336.2 681.6,336.4 682.7,333.5 683.7,308.3 684.8,327.5 685.9,306.7 686.9,307.7 688.0,310.3 689.1,307.7 690.1,336.1 691.2,328.4 692.2,335.3 693.3,334.6 694.4,335.6 695.4,336.4 696.5,336.1 697.6,335.4 698.6,335.3 699.7,336.1 700.8,332.2 701.8,333.2 702.9,336.4 704.0,335.5 705.0,336.0 706.1,336.4 707.2,328.9 708.2,336.4 709.3,335.1 710.4,321.1 711.4,304.2 712.5,311.5 713.6,328.9 714.6,328.2 715.7,325.0 716.8,299.9 717.8,312.0 718.9,332.6 720.0,332.2 721.0,336.1 722.1,326.0 723.2,325.2 724.2,331.8 725.3,335.3 726.4,332.2 727.4,336.1 728.5,325.3 729.6,334.6 730.6,335.5 731.7,327.1 732.8,310.4 733.8,316.9 734.9,335.3 736.0,309.8 737.0,307.8 738.1,309.5 739.2,311.5 740.2,313.8 741.3,332.4 742.4,333.4 743.4,319.3 744.5,336.1 745.6,336.4 746.6,336.4 747.7,336.4 748.8,336.1 749.8,335.3 750.9,336.3 752.0,331.8 753.0,335.8 754.1,336.0 755.2,335.7 756.2,335.3 757.3,336.4 758.4,332.2 759.4,335.3 760.5,316.9 761.6,332.2 762.6,306.7 763.7,325.8 764.8,307.8 765.8,333.3 766.9,310.3 767.9,335.3 769.0,335.3 770.1,332.7 771.1,312.0 772.2,335.3 773.3,331.5 774.3,328.6 775.4,325.2 776.5,331.5 777.5,306.3 778.6,313.8 779.7,335.3 780.7,333.5 781.8,331.1 782.9,335.3 783.9,324.2 785.0,309.6 786.1,311.7 787.1,306.5 788.2,306.7 789.3,309.5 790.3,312.0 791.4,311.5 792.5,321.0 793.5,327.1 794.6,332.3 795.7,332.4 796.7,306.7 797.8,306.5 798.9,335.3 799.9,332.4 801.0,306.7 802.1,336.2 803.1,309.6 804.2,335.5 805.3,336.1 806.3,334.3 807.4,334.4 808.5,309.5 809.5,336.4 810.6,331.8 811.7,311.7 812.7,331.5 813.8,328.2 814.9,307.2 815.9,307.7 817.0,325.2 818.1,297.9 819.1,335.6 820.2,336.4 821.3,336.4 822.3,333.0 823.4,336.1 824.5,336.5 825.5,305.6 826.6,309.5 827.7,336.4 828.7,333.2 829.8,335.9 830.9,332.7 831.9,336.1 833.0,333.2 834.1,322.9 835.1,336.4 836.2,333.4 837.2,311.8 838.3,309.6 839.4,306.7 840.4,307.2 841.5,307.0 842.6,326.0 843.6,332.2 844.7,335.9 845.8,333.1 846.8,336.4 847.9,336.4 849.0,336.4 850.0,323.8 851.1,336.3 852.2,332.5 853.2,336.4 854.3,345.5 855.4,345.5 856.4,345.5 857.5,336.1 858.6,336.4 859.6,336.4 860.7,335.8 861.8,312.9 862.8,310.3 863.9,309.5 865.0,309.4 866.0,331.8 867.1,309.9 868.2,338.9 869.2,336.4 870.3,336.4 871.4,336.4 872.4,333.2 873.5,333.5 874.6,335.5 875.6,331.9 876.7,336.0 877.8,336.4 878.8,336.4 879.9,313.8 881.0,335.3 882.0,333.5 883.1,335.3 884.2,333.2 885.2,332.4 886.3,312.0 887.4,309.9 888.4,315.4 889.5,328.5 890.6,306.1 891.6,342.3 892.7,343.1 893.8,336.4 894.8,336.0 895.9,336.1 897.0,326.0 898.0,319.2 899.1,347.5 900.2,336.1 901.2,336.3 902.3,319.3 903.4,345.5 904.4,335.5 905.5,323.1 906.6,334.2 907.6,326.9 908.7,335.3 909.8,315.1 910.8,336.0 911.9,330.0 912.9,332.7 914.0,306.7 915.1,332.4 916.1,311.3 917.2,332.8 918.3,331.7 919.3,292.0 920.4,336.4 921.5,349.4 922.5,351.6 923.6,351.0 924.7,347.6 925.7,351.0 926.8,342.5 927.9,347.9 928.9,350.9 930.0,346.3 931.1,346.6 932.1,350.8 933.2,351.0 934.3,345.0 935.3,351.6 936.4,351.6 937.5,349.1 938.5,346.4 939.6,350.8 940.7,346.7 941.7,345.6 942.8,346.3 943.9,347.2 944.9,347.6 946.0,346.7" fill="none" stroke="#059669" stroke-width="2.2" stroke-linejoin="round" stroke-linecap="round"/>
<polyline points="76.0,209.6 77.1,217.4 78.1,224.1 79.2,229.2 80.3,237.2 81.3,229.1 82.4,224.0 83.5,217.7 84.5,224.2 85.6,224.1 86.7,200.5 87.7,224.2 88.8,225.4 89.9,224.1 90.9,227.0 92.0,228.4 93.1,212.2 94.1,217.4 95.2,236.9 96.3,217.3 97.3,216.5 98.4,200.5 99.5,221.1 100.5,223.9 101.6,224.2 102.7,221.2 103.7,224.0 104.8,213.9 105.9,217.4 106.9,200.7 108.0,200.5 109.1,160.9 110.1,170.6 111.2,170.6 112.2,210.3 113.3,216.6 114.4,210.3 115.4,208.9 116.5,234.1 117.6,241.9 118.6,231.0 119.7,224.0 120.8,224.6 121.8,224.1 122.9,228.4 124.0,221.1 125.0,214.4 126.1,222.3 127.2,214.9 128.2,237.2 129.3,234.7 130.4,229.6 131.4,230.3 132.5,231.0 133.6,224.2 134.6,224.2 135.7,225.2 136.8,228.6 137.8,232.2 138.9,224.1 140.0,237.2 141.0,241.3 142.1,234.4 143.2,245.5 144.2,240.3 145.3,241.3 146.4,239.8 147.4,237.2 148.5,252.6 149.6,207.0 150.6,237.5 151.7,238.5 152.8,235.5 153.8,249.6 154.9,243.5 156.0,247.2 157.0,242.0 158.1,233.1 159.2,234.1 160.2,229.1 161.3,224.3 162.4,230.5 163.4,234.2 164.5,247.1 165.6,239.5 166.6,241.9 167.7,232.2 168.8,231.0 169.8,231.2 170.9,217.4 172.0,239.9 173.0,224.2 174.1,232.7 175.2,232.2 176.2,243.8 177.3,249.9 178.4,224.2 179.4,228.7 180.5,243.3 181.6,238.0 182.6,230.6 183.7,235.7 184.8,237.2 185.8,234.1 186.9,224.2 187.9,224.2 189.0,231.0 190.1,234.1 191.1,242.7 192.2,238.5 193.3,247.2 194.3,231.2 195.4,231.3 196.5,238.0 197.5,237.3 198.6,237.5 199.7,242.2 200.7,241.3 201.8,241.3 202.9,234.1 203.9,200.9 205.0,224.1 206.1,224.2 207.1,217.4 208.2,230.4 209.3,234.1 210.3,232.3 211.4,234.1 212.5,231.6 213.5,237.2 214.6,237.2 215.7,234.1 216.7,231.0 217.8,239.6 218.9,239.7 219.9,238.5 221.0,228.8 222.1,227.7 223.1,237.8 224.2,227.4 225.3,233.1 226.3,232.2 227.4,207.7 228.5,224.2 229.5,224.1 230.6,224.1 231.7,225.8 232.7,224.2 233.8,237.2 234.9,237.2 235.9,232.7 237.0,231.0 238.1,236.4 239.1,237.2 240.2,237.6 241.3,252.5 242.3,234.1 243.4,234.1 244.5,242.0 245.5,241.9 246.6,234.1 247.7,233.0 248.7,226.4 249.8,224.2 250.9,242.0 251.9,224.1 253.0,200.4 254.1,232.4 255.1,234.1 256.2,224.2 257.2,229.5 258.3,234.1 259.4,237.2 260.4,234.1 261.5,233.5 262.6,234.6 263.6,224.2 264.7,239.2 265.8,234.7 266.8,224.2 267.9,233.4 269.0,239.5 270.0,241.4 271.1,248.9 272.2,224.9 273.2,224.1 274.3,225.3 275.4,235.6 276.4,247.9 277.5,228.6 278.6,224.0 279.6,224.2 280.7,226.0 281.8,223.4 282.8,230.3 283.9,224.2 285.0,229.0 286.0,212.7 287.1,224.0 288.2,160.9 289.2,171.6 290.3,200.7 291.4,211.1 292.4,202.2 293.5,224.1 294.6,233.2 295.6,228.7 296.7,227.5 297.8,217.6 298.8,217.4 299.9,224.1 301.0,200.7 302.0,227.8 303.1,200.5 304.2,200.5 305.2,224.1 306.3,211.1 307.4,217.8 308.4,225.2 309.5,224.1 310.6,225.3 311.6,224.9 312.7,227.4 313.8,224.2 314.8,234.1 315.9,209.6 317.0,222.4 318.0,234.1 319.1,233.0 320.2,224.1 321.2,229.1 322.3,231.0 323.4,224.1 324.4,203.3 325.5,221.2 326.6,224.0 327.6,258.5 328.7,220.5 329.8,215.1 330.8,240.9 331.9,216.0 332.9,229.1 334.0,234.3 335.1,242.0 336.1,241.6 337.2,234.1 338.3,234.1 339.3,228.2 340.4,224.2 341.5,241.3 342.5,232.4 343.6,231.7 344.7,219.1 345.7,211.5 346.8,228.8 347.9,182.8 348.9,231.9 350.0,215.5 351.1,222.9 352.1,224.1 353.2,228.4 354.3,215.5 355.3,241.6 356.4,215.8 357.5,222.3 358.5,200.4 359.6,197.8 360.7,196.0 361.7,217.4 362.8,211.3 363.9,224.2 364.9,170.7 366.0,221.2 367.1,205.8 368.1,206.4 369.2,200.5 370.3,222.5 371.3,228.8 372.4,224.2 373.5,169.3 374.5,224.0 375.6,232.4 376.7,224.0 377.7,224.2 378.8,176.8 379.9,201.0 380.9,227.0 382.0,232.4 383.1,224.2 384.1,210.5 385.2,234.1 386.3,233.5 387.3,225.2 388.4,224.2 389.5,221.2 390.5,231.0 391.6,224.1 392.7,252.7 393.7,232.0 394.8,232.2 395.9,231.0 396.9,233.9 398.0,234.0 399.1,225.3 400.1,224.0 401.2,224.1 402.2,224.1 403.3,224.1 404.4,215.6 405.4,224.1 406.5,215.5 407.6,214.1 408.6,224.1 409.7,234.0 410.8,215.6 411.8,224.1 412.9,219.8 414.0,210.3 415.0,201.0 416.1,215.8 417.2,224.1 418.2,215.9 419.3,233.4 420.4,224.1 421.4,206.4 422.5,207.8 423.6,224.1 424.6,224.2 425.7,224.1 426.8,234.1 427.8,224.2 428.9,235.6 430.0,224.0 431.0,223.8 432.1,224.2 433.2,224.7 434.2,232.0 435.3,249.0 436.4,234.1 437.4,236.5 438.5,240.3 439.6,234.1 440.6,230.5 441.7,216.3 442.8,232.6 443.8,234.0 444.9,234.1 446.0,234.0 447.0,229.1 448.1,226.1 449.2,232.0 450.2,241.5 451.3,221.2 452.4,224.1 453.4,224.1 454.5,229.3 455.6,227.1 456.6,227.4 457.7,210.8 458.8,214.0 459.8,221.2 460.9,227.3 462.0,214.6 463.0,224.1 464.1,216.4 465.2,225.0 466.2,234.1 467.3,170.6 468.4,200.5 469.4,224.1 470.5,201.1 471.6,213.1 472.6,215.4 473.7,233.9 474.8,222.4 475.8,229.1 476.9,224.1 477.9,216.5 479.0,213.2 480.1,200.6 481.1,193.0 482.2,195.4 483.3,209.6 484.3,200.7 485.4,215.9 486.5,228.8 487.5,214.0 488.6,234.1 489.7,223.9 490.7,223.4 491.8,224.2 492.9,219.7 493.9,224.0 495.0,241.3 496.1,227.0 497.1,232.3 498.2,234.1 499.3,227.5 500.3,234.1 501.4,237.2 502.5,241.3 503.5,224.3 504.6,225.0 505.7,224.1 506.7,234.1 507.8,228.6 508.9,224.2 509.9,232.5 511.0,227.4 512.1,92.4 513.1,215.9 514.2,224.1 515.3,214.6 516.3,232.4 517.4,231.0 518.5,224.1 519.5,224.2 520.6,224.1 521.7,221.1 522.7,224.0 523.8,234.1 524.9,239.3 525.9,234.1 527.0,232.6 528.1,214.6 529.1,224.2 530.2,224.1 531.3,238.9 532.3,233.2 533.4,217.9 534.5,213.3 535.5,231.0 536.6,227.6 537.7,231.4 538.7,234.3 539.8,201.0 540.9,234.1 541.9,234.1 543.0,217.4 544.1,221.2 545.1,228.8 546.2,221.1 547.2,220.6 548.3,227.7 549.4,232.8 550.4,233.9 551.5,224.1 552.6,238.5 553.6,241.2 554.7,225.8 555.8,237.5 556.8,224.1 557.9,228.7 559.0,212.7 560.0,215.6 561.1,215.6 562.2,224.1 563.2,224.1 564.3,217.8 565.4,235.0 566.4,224.9 567.5,232.3 568.6,224.2 569.6,224.2 570.7,237.5 571.8,217.7 572.8,234.4 573.9,225.3 575.0,237.5 576.0,224.0 577.1,232.6 578.2,232.3 579.2,224.0 580.3,169.3 581.4,224.1 582.4,225.3 583.5,225.4 584.6,227.5 585.6,224.1 586.7,224.1 587.8,240.6 588.8,224.2 589.9,231.0 591.0,224.2 592.0,229.2 593.1,227.5 594.2,239.5 595.2,232.9 596.3,237.5 597.4,237.2 598.4,233.1 599.5,237.2 600.6,234.5 601.6,241.3 602.7,224.2 603.8,242.0 604.8,213.4 605.9,225.9 607.0,206.4 608.0,214.5 609.1,224.2 610.2,202.6 611.2,224.1 612.3,223.9 613.4,224.2 614.4,232.3 615.5,224.2 616.6,237.2 617.6,224.1 618.7,227.8 619.8,223.2 620.8,224.2 621.9,235.5 622.9,236.7 624.0,201.0 625.1,231.3 626.1,231.0 627.2,236.2 628.3,231.0 629.3,232.9 630.4,217.4 631.5,233.5 632.5,213.4 633.6,231.0 634.7,223.7 635.7,220.4 636.8,225.8 637.9,224.2 638.9,224.2 640.0,220.5 641.1,230.1 642.1,196.6 643.2,220.9 644.3,212.7 645.3,232.4 646.4,170.6 647.5,231.0 648.5,200.5 649.6,220.7 650.7,217.4 651.7,210.7 652.8,216.5 653.9,240.4 654.9,232.4 656.0,224.0 657.1,228.7 658.1,224.1 659.2,210.7 660.3,224.1 661.3,207.8 662.4,224.1 663.5,200.7 664.5,200.5 665.6,202.5 666.7,224.2 667.7,235.8 668.8,224.2 669.9,217.4 670.9,231.5 672.0,232.4 673.1,220.6 674.1,224.1 675.2,215.6 676.3,232.1 677.3,231.0 678.4,232.3 679.5,237.2 680.5,241.3 681.6,230.3 682.7,228.8 683.7,219.5 684.8,228.5 685.9,228.7 686.9,204.7 688.0,221.2 689.1,216.3 690.1,227.5 691.2,225.2 692.2,225.9 693.3,232.9 694.4,232.4 695.4,224.2 696.5,230.1 697.6,237.2 698.6,224.5 699.7,238.0 700.8,225.8 701.8,232.2 702.9,237.2 704.0,237.2 705.0,234.2 706.1,238.5 707.2,212.8 708.2,228.8 709.3,234.1 710.4,223.6 711.4,224.0 712.5,223.0 713.6,223.1 714.6,215.9 715.7,224.2 716.8,173.0 717.8,211.0 718.9,224.1 720.0,214.7 721.0,218.7 722.1,232.4 723.2,216.5 724.2,215.7 725.3,233.0 726.4,222.8 727.4,228.6 728.5,224.1 729.6,224.1 730.6,231.0 731.7,221.1 732.8,212.2 733.8,208.9 734.9,233.4 736.0,223.9 737.0,225.2 738.1,219.7 739.2,224.0 740.2,212.6 741.3,229.6 742.4,224.4 743.4,224.1 744.5,234.1 745.6,230.7 746.6,224.1 747.7,237.2 748.8,224.5 749.8,224.2 750.9,237.7 752.0,215.6 753.0,231.0 754.1,228.4 755.2,234.9 756.2,224.5 757.3,226.1 758.4,223.0 759.4,224.2 760.5,225.3 761.6,224.1 762.6,219.2 763.7,209.3 764.8,195.6 765.8,225.3 766.9,212.8 767.9,230.1 769.0,224.0 770.1,224.1 771.1,200.5 772.2,209.0 773.3,224.2 774.3,218.5 775.4,221.2 776.5,224.2 777.5,189.6 778.6,216.2 779.7,224.1 780.7,231.0 781.8,225.2 782.9,234.1 783.9,219.9 785.0,217.4 786.1,234.1 787.1,199.2 788.2,224.1 789.3,224.4 790.3,217.4 791.4,224.0 792.5,224.2 793.5,224.2 794.6,222.0 795.7,216.5 796.7,200.8 797.8,183.8 798.9,224.2 799.9,224.5 801.0,201.1 802.1,227.9 803.1,227.3 804.2,242.0 805.3,240.8 806.3,238.2 807.4,237.5 808.5,192.6 809.5,245.6 810.6,209.3 811.7,234.1 812.7,241.9 813.8,241.1 814.9,224.3 815.9,174.6 817.0,224.1 818.1,195.4 819.1,229.9 820.2,237.1 821.3,241.9 822.3,221.2 823.4,229.0 824.5,257.0 825.5,170.6 826.6,201.0 827.7,257.2 828.7,224.2 829.8,227.0 830.9,224.1 831.9,237.5 833.0,224.1 834.1,231.0 835.1,217.4 836.2,181.7 837.2,224.2 838.3,205.2 839.4,210.8 840.4,209.3 841.5,200.6 842.6,224.6 843.6,228.3 844.7,244.1 845.8,213.9 846.8,241.5 847.9,225.4 849.0,232.8 850.0,231.0 851.1,241.9 852.2,230.2 853.2,238.5 854.3,248.7 855.4,246.2 856.4,252.9 857.5,237.2 858.6,239.5 859.6,241.8 860.7,200.2 861.8,195.5 862.8,225.3 863.9,218.8 865.0,224.3 866.0,217.4 867.1,217.4 868.2,234.0 869.2,237.2 870.3,238.0 871.4,246.7 872.4,239.1 873.5,238.0 874.6,231.6 875.6,207.8 876.7,237.2 877.8,234.1 878.8,241.8 879.9,213.8 881.0,224.2 882.0,237.2 883.1,228.5 884.2,225.4 885.2,231.0 886.3,215.6 887.4,223.0 888.4,217.6 889.5,224.1 890.6,230.8 891.6,225.7 892.7,228.6 893.8,258.6 894.8,231.0 895.9,237.6 897.0,236.7 898.0,224.2 899.1,232.7 900.2,224.1 901.2,224.1 902.3,212.4 903.4,243.0 904.4,226.4 905.5,200.9 906.6,221.2 907.6,224.1 908.7,224.2 909.8,215.5 910.8,234.4 911.9,224.1 912.9,239.5 914.0,224.1 915.1,242.0 916.1,241.3 917.2,224.2 918.3,225.8 919.3,199.1 920.4,238.2 921.5,300.4 922.5,333.7 923.6,335.1 924.7,332.4 925.7,333.0 926.8,257.7 927.9,329.0 928.9,329.1 930.0,333.2 931.1,335.2 932.1,333.8 933.2,333.1 934.3,323.8 935.3,333.0 936.4,334.4 937.5,332.4 938.5,329.8 939.6,334.7 940.7,331.1 941.7,331.1 942.8,331.1 943.9,331.9 944.9,333.0 946.0,328.8" fill="none" stroke="#d97706" stroke-width="2.2" stroke-linejoin="round" stroke-linecap="round"/>
<line x1="76" y1="70" x2="94" y2="70" stroke="#2563eb" stroke-width="3"/>
<text x="100" y="74" font-family="Arial, sans-serif" font-size="11" fill="#0f172a">avg fee</text>
<line x1="179" y1="70" x2="197" y2="70" stroke="#059669" stroke-width="3"/>
<text x="203" y="74" font-family="Arial, sans-serif" font-size="11" fill="#0f172a">median fee</text>
<line x1="303" y1="70" x2="321" y2="70" stroke="#d97706" stroke-width="3"/>
<text x="327" y="74" font-family="Arial, sans-serif" font-size="11" fill="#0f172a">p90 fee</text>
<text x="28" y="404" font-family="Arial, sans-serif" font-size="11" fill="#64748b">Source: hourly_features.csv</text>
</svg>