<svg xmlns="http://www.w3.org/2000/svg" width="980" height="420" viewBox="0 0 980 420">
<rect width="100%" height="100%" fill="#ffffff"/>
<text x="28" y="34" font-family="Arial, sans-serif" font-size="20" font-weight="700" fill="#0f172a">Hourly fee trend</text>
<text x="28" y="56" font-family="Arial, sans-serif" font-size="12" fill="#64748b">Average, median, and p90 total fee by hour</text>
<line x1="76" y1="362.0" x2="946" y2="362.0" stroke="#e2e8f0" stroke-width="1"/>
<text x="68" y="366.0" font-family="Arial, sans-serif" font-size="10" text-anchor="end" fill="#64748b">-128K</text>
<line x1="76" y1="292.0" x2="946" y2="292.0" stroke="#e2e8f0" stroke-width="1"/>
<text x="68" y="296.0" font-family="Arial, sans-serif" font-size="10" text-anchor="end" fill="#64748b">2.8M</text>
<line x1="76" y1="222.0" x2="946" y2="222.0" stroke="#e2e8f0" stroke-width="1"/>
<text x="68" y="226.0" font-family="Arial, sans-serif" font-size="10" text-anchor="end" fill="#64748b">5.8M</text>
<line x1="76" y1="152.0" x2="946" y2="152.0" stroke="#e2e8f0" stroke-width="1"/>
<text x="68" y="156.0" font-family="Arial, sans-serif" font-size="10" text-anchor="end" fill="#64748b">8.7M</text>
<line x1="76" y1="82.0" x2="946" y2="82.0" stroke="#e2e8f0" stroke-width="1"/>
<text x="68" y="86.0" font-family="Arial, sans-serif" font-size="10" text-anchor="end" fill="#64748b">11.7M</text>
<line x1="76" y1="362" x2="946" y2="362" stroke="#334155" stroke-width="1"/>
<line x1="76" y1="82" x2="76" y2="362" stroke="#334155" stroke-width="1"/>
<text x="76" y="72" font-family="Arial, sans-serif" font-size="11" fill="#64748b">nanoton</text>
<line x1="76.0" y1="362" x2="76.0" y2="366" stroke="#334155" stroke-width="1"/>
<text x="76.0" y="380" font-family="Arial, sans-serif" font-size="10" text-anchor="middle" fill="#64748b">0</text>
<line x1="511.6" y1="362" x2="511.6" y2="366" stroke="#334155" stroke-width="1"/>
<text x="511.6" y="380" font-family="Arial, sans-serif" font-size="10" text-anchor="middle" fill="#64748b">392</text>
<line x1="946.0" y1="362" x2="946.0" y2="366" stroke="#334155" stroke-width="1"/>
<text x="946.0" y="380" font-family="Arial, sans-serif" font-size="10" text-anchor="middle" fill="#64748b">783</text>
<polyline points="76.0,295.2 77.1,299.1 78.2,300.5 79.3,302.7 80.4,309.6 81.6,301.7 82.7,302.8 83.8,299.1 84.9,303.6 86.0,303.3 87.1,292.1 88.2,304.1 89.3,304.3 90.4,301.9 91.6,304.9 92.7,305.1 93.8,296.9 94.9,297.0 96.0,306.0 97.1,295.6 98.2,293.6 99.3,291.7 100.4,298.3 101.6,298.7 102.7,300.6 103.8,296.5 104.9,302.3 106.0,295.0 107.1,297.7 108.2,292.7 109.3,293.4 110.4,277.2 111.6,288.9 112.7,289.6 113.8,299.1 114.9,304.5 116.0,297.4 117.1,299.4 118.2,309.4 119.3,312.2 120.4,306.8 121.6,301.5 122.7,303.2 123.8,302.5 124.9,309.1 126.0,302.0 127.1,299.0 128.2,301.0 129.3,303.3 130.4,307.8 131.6,307.8 132.7,306.6 133.8,304.9 134.9,308.0 136.0,306.9 137.1,304.0 138.2,303.7 139.3,307.5 140.4,303.7 141.6,306.0 142.7,311.6 143.8,313.5 144.9,311.2 146.0,311.9 147.1,313.9 148.2,310.7 149.3,310.3 150.4,306.7 151.6,313.3 152.7,295.1 153.8,311.2 154.9,311.1 156.0,311.1 157.1,316.1 158.2,311.9 159.3,315.1 160.4,313.9 161.6,310.2 162.7,310.2 163.8,307.9 164.9,308.2 166.0,306.0 167.1,309.9 168.2,312.2 169.3,311.7 170.4,312.9 171.6,309.8 172.7,307.6 173.8,307.4 174.9,303.1 176.0,309.6 177.1,301.6 178.2,303.9 179.3,304.9 180.4,308.6 181.6,316.5 182.7,304.7 183.8,305.1 184.9,313.8 186.0,312.3 187.1,304.9 188.2,309.0 189.3,309.8 190.4,307.3 191.6,305.1 192.7,302.0 193.8,303.3 194.9,306.6 196.0,312.9 197.1,312.2 198.2,312.2 199.3,307.8 200.4,306.6 201.6,308.9 202.7,308.6 203.8,308.7 204.9,313.1 206.0,313.8 207.1,312.1 208.2,305.7 209.3,291.2 210.4,306.3 211.6,303.4 212.7,300.6 213.8,304.2 214.9,310.2 216.0,306.2 217.1,309.7 218.2,306.8 219.3,309.6 220.4,311.5 221.6,309.6 222.7,305.4 223.8,309.5 224.9,312.7 226.0,307.1 227.1,306.4 228.2,307.8 229.3,308.1 230.4,303.5 231.6,303.0 232.7,302.6 233.8,293.8 234.9,301.4 236.0,300.9 237.1,300.0 238.2,304.2 239.3,303.6 240.4,309.4 241.6,308.7 242.7,308.5 243.8,303.8 244.9,305.8 246.0,310.4 247.1,309.2 248.2,317.0 249.3,310.5 250.4,309.0 251.6,311.8 252.7,311.7 253.8,306.6 254.9,308.5 256.0,305.4 257.1,306.3 258.2,304.8 259.3,303.3 260.4,295.0 261.6,300.6 262.7,305.2 263.8,301.1 264.9,307.4 266.0,307.2 267.1,307.7 268.2,307.3 269.3,307.5 270.4,308.4 271.6,304.7 272.7,310.3 273.8,307.6 274.9,303.8 276.0,307.5 277.1,311.5 278.2,310.9 279.3,311.5 280.4,303.0 281.6,306.3 282.7,302.4 283.8,308.5 284.9,304.8 286.0,304.1 287.1,300.2 288.2,302.8 289.3,303.0 290.4,298.2 291.6,304.5 292.7,302.5 293.8,303.2 294.9,298.6 296.0,302.4 297.1,282.1 298.2,288.5 299.3,299.7 300.4,300.2 301.6,298.9 302.7,305.4 303.8,309.0 304.9,307.1 306.0,306.8 307.1,302.5 308.2,299.8 309.3,301.1 310.4,295.8 311.6,296.4 312.7,295.0 313.8,294.4 314.9,304.3 316.0,296.4 317.1,301.3 318.2,304.4 319.3,308.5 320.4,307.1 321.6,306.7 322.7,306.9 323.8,305.5 324.9,308.2 326.0,300.4 327.1,302.3 328.2,309.2 329.3,309.0 330.4,304.1 331.6,308.6 332.7,308.2 333.8,303.6 334.9,293.1 336.0,298.2 337.1,298.7 338.2,308.4 339.3,300.1 340.4,301.5 341.6,310.3 342.7,299.3 343.8,305.1 344.9,309.9 346.0,313.3 347.1,310.2 348.2,308.7 349.3,305.3 350.4,308.5 351.6,303.9 352.7,307.7 353.8,309.7 354.9,307.7 356.0,303.9 357.1,298.9 358.2,304.6 359.3,290.6 360.4,306.8 361.6,298.4 362.7,302.5 363.8,304.1 364.9,302.0 366.0,298.9 367.1,315.2 368.2,296.0 369.3,300.1 370.4,285.8 371.6,299.1 372.7,297.7 373.8,299.5 374.9,295.4 376.0,305.7 377.1,284.1 378.2,301.8 379.3,296.3 380.4,295.9 381.6,287.5 382.7,302.9 383.8,305.0 384.9,303.2 386.0,292.7 387.1,303.6 388.2,309.1 389.3,302.3 390.4,300.0 391.6,284.0 392.7,288.4 393.8,305.1 394.9,304.5 396.0,302.7 397.1,297.8 398.2,307.8 399.3,307.7 400.4,303.2 401.6,301.3 402.7,301.9 403.8,306.0 404.9,302.7 406.0,316.3 407.1,304.0 408.2,308.2 409.3,305.8 410.4,307.6 411.6,309.0 412.7,302.4 413.8,298.9 414.9,303.9 416.0,299.6 417.1,306.4 418.2,297.0 419.3,302.2 420.4,298.4 421.6,294.4 422.7,299.6 423.8,309.3 424.9,295.5 426.0,305.0 427.1,300.4 428.2,297.5 429.3,296.0 430.4,301.4 431.6,301.7 432.7,302.5 433.8,304.1 434.9,297.3 436.0,290.6 437.1,294.5 438.2,304.6 439.3,299.0 440.4,305.5 441.6,307.7 442.7,303.7 443.8,307.2 444.9,299.7 446.0,301.6 447.1,307.4 448.2,306.3 449.3,307.6 450.4,313.5 451.6,311.5 452.7,310.8 453.8,311.3 454.9,309.0 456.0,309.2 457.1,302.9 458.2,305.8 459.3,307.8 460.4,308.0 461.6,308.9 462.7,307.0 463.8,304.0 464.9,309.2 466.0,311.9 467.1,301.9 468.2,303.5 469.3,302.6 470.4,304.3 471.6,302.4 472.7,305.6 473.8,291.6 474.9,298.8 476.0,299.3 477.1,303.2 478.2,295.8 479.3,303.0 480.4,299.1 481.6,303.3 482.7,308.9 483.8,286.4 484.9,294.2 486.0,303.4 487.1,299.7 488.2,297.8 489.3,299.2 490.4,309.1 491.6,301.4 492.7,306.3 493.8,301.3 494.9,300.1 496.0,297.4 497.1,296.1 498.2,291.0 499.3,292.1 500.4,298.7 501.6,297.1 502.7,302.0 503.8,307.8 504.9,301.3 506.0,308.8 507.1,303.2 508.2,302.4 509.3,304.0 510.4,301.7 511.6,301.1 512.7,310.3 513.8,306.6 514.9,309.2 516.0,307.6 517.1,308.1 518.2,307.4 519.3,309.2 520.4,306.4 521.6,304.6 522.7,301.8 523.8,299.5 524.9,309.8 526.0,307.4 527.1,308.4 528.2,307.5 529.3,303.1 530.4,260.7 531.6,295.4 532.7,303.1 533.8,300.8 534.9,305.6 536.0,306.3 537.1,304.5 538.2,303.9 539.3,304.2 540.4,300.5 541.6,304.0 542.7,310.3 543.8,311.2 544.9,305.5 546.0,307.4 547.1,299.5 548.2,306.9 549.3,301.4 550.4,309.6 551.6,303.7 552.7,300.1 553.8,299.6 554.9,305.5 556.0,305.6 557.1,305.3 558.2,309.2 559.3,297.0 560.4,308.2 561.6,310.8 562.7,300.0 563.8,302.0 564.9,307.5 566.0,300.4 567.1,304.1 568.2,308.7 569.3,306.3 570.4,308.5 571.6,305.4 572.7,310.9 573.8,310.4 574.9,305.4 576.0,307.9 577.1,301.6 578.2,304.8 579.3,296.8 580.4,296.4 581.6,296.5 582.7,303.9 583.8,303.0 584.9,303.4 586.0,306.2 587.1,304.2 588.2,310.0 589.3,304.9 590.4,305.2 591.6,309.4 592.7,303.8 593.8,309.1 594.9,304.3 596.0,311.2 597.1,303.7 598.2,309.2 599.3,308.0 600.4,302.6 601.6,267.5 602.7,307.6 603.8,309.3 604.9,306.0 606.0,305.4 607.1,302.9 608.2,304.6 609.3,307.4 610.4,303.2 611.6,308.7 612.7,307.4 613.8,307.7 614.9,305.8 616.0,313.1 617.1,309.2 618.2,313.9 619.3,309.3 620.4,308.4 621.6,309.6 622.7,308.3 623.8,310.1 624.9,304.1 626.0,310.0 627.1,301.6 628.2,306.9 629.3,292.4 630.4,299.1 631.6,304.3 632.7,291.7 633.8,303.6 634.9,303.0 636.0,301.4 637.1,305.8 638.2,304.1 639.3,307.3 640.4,303.9 641.6,307.7 642.7,302.6 643.8,306.3 644.9,310.1 646.0,309.2 647.1,294.8 648.2,307.8 649.3,304.2 650.4,307.0 651.6,307.8 652.7,309.4 653.8,300.8 654.9,306.3 656.0,297.3 657.1,302.8 658.2,299.3 659.3,298.0 660.4,304.0 661.6,302.0 662.7,305.1 663.8,300.2 664.9,306.2 666.0,286.9 667.1,301.9 668.2,295.6 669.3,305.4 670.4,285.5 671.6,308.3 672.7,296.5 673.8,301.1 674.9,305.6 676.0,298.4 677.1,299.8 678.2,310.0 679.3,309.4 680.4,304.9 681.6,306.6 682.7,302.1 683.8,299.5 684.9,301.1 686.0,297.1 687.1,303.3 688.2,295.5 689.3,294.3 690.4,297.2 691.6,307.3 692.7,308.2 693.8,306.3 694.9,302.1 696.0,307.7 697.1,307.2 698.2,303.9 699.3,304.6 700.4,300.2 701.6,305.3 702.7,307.2 703.8,306.9 704.9,305.4 706.0,310.1 707.1,309.8 708.2,305.7 709.3,298.7 710.4,305.6 711.6,303.5 712.7,294.8 713.8,300.4 714.9,298.6 716.0,306.0 717.1,302.8 718.2,303.8 719.3,307.3 720.4,305.6 721.6,303.8 722.7,307.3 723.8,308.3 724.9,304.2 726.0,309.1 727.1,302.7 728.2,307.3 729.3,309.6 730.4,308.0 731.6,308.5 732.7,310.5 733.8,299.1 734.9,311.5 736.0,308.4 737.1,299.7 738.2,298.6 739.3,298.1 740.4,300.4 741.6,300.5 742.7,302.7 743.8,289.0 744.9,299.4 746.0,303.2 747.1,300.8 748.2,298.7 749.3,305.3 750.4,298.8 751.6,300.5 752.7,308.5 753.8,300.3 754.9,307.2 756.0,302.2 757.1,304.7 758.2,305.4 759.3,302.9 760.4,299.3 761.6,300.4 762.7,307.7 763.8,300.1 764.9,300.5 766.0,299.7 767.1,299.8 768.2,299.5 769.3,304.6 770.4,303.6 771.6,300.4 772.7,308.0 773.8,307.6 774.9,302.8 776.0,310.3 777.1,305.5 778.2,305.1 779.3,310.0 780.4,300.4 781.6,306.5 782.7,307.9 783.8,309.3 784.9,303.7 786.0,305.6 787.1,302.5 788.2,303.3 789.3,301.8 790.4,305.4 791.6,300.5 792.7,297.5 793.8,288.5 794.9,303.4 796.0,298.4 797.1,303.5 798.2,303.4 799.3,302.5 800.4,295.5 801.6,296.8 802.7,302.8 803.8,302.1 804.9,302.1 806.0,303.1 807.1,292.6 808.2,301.0 809.3,301.9 810.4,306.4 811.6,305.6 812.7,310.1 813.8,300.3 814.9,299.6 816.0,304.4 817.1,294.0 818.2,301.3 819.3,299.7 820.4,299.7 821.6,299.3 822.7,302.0 823.8,304.1 824.9,300.3 826.0,301.6 827.1,296.2 828.2,289.4 829.3,304.3 830.4,305.7 831.6,298.1 832.7,307.0 833.8,302.1 834.9,312.4 836.0,297.0 837.1,309.6 838.2,308.8 839.3,296.4 840.4,309.9 841.6,302.3 842.7,302.7 843.8,312.2 844.9,310.1 846.0,298.5 847.1,288.8 848.2,300.2 849.3,285.8 850.4,300.3 851.6,311.9 852.7,308.2 853.8,303.8 854.9,306.2 856.0,313.8 857.1,292.1 858.2,297.8 859.3,319.2 860.4,305.4 861.6,308.9 862.7,303.8 863.8,310.1 864.9,302.0 866.0,308.2 867.1,301.8 868.2,290.5 869.3,300.1 870.4,297.8 871.6,299.8 872.7,297.1 873.8,299.5 874.9,302.1 876.0,307.9 877.1,312.6 878.2,299.7 879.3,311.4 880.4,309.8 881.6,310.1 882.7,307.8 883.8,302.0 884.9,298.0 886.0,309.7 887.1,315.3 888.2,311.3 889.3,314.3 890.4,308.7 891.6,312.6 892.7,313.0 893.8,303.6 894.9,292.6 896.0,301.7 897.1,302.7 898.2,303.1 899.3,303.3 900.4,299.7 901.6,310.6 902.7,312.6 903.8,309.1 904.9,314.2 906.0,311.5 907.1,307.9 908.2,308.3 909.3,301.0 910.4,308.8 911.6,310.2 912.7,313.0 913.8,296.3 914.9,306.5 916.0,310.1 917.1,306.9 918.2,305.5 919.3,307.4 920.4,299.5 921.6,299.5 922.7,299.8 923.8,303.7 924.9,303.6 926.0,305.6 927.1,309.3 928.2,312.1 929.3,307.8 930.4,305.5 931.6,307.7 932.7,295.3 933.8,305.8 934.9,306.6 936.0,306.7 937.1,300.2 938.2,311.3 939.3,308.8 940.4,293.2 941.6,302.0 942.7,299.8 943.8,300.2 944.9,300.6 946.0,310.5" fill="none" stroke="#2563eb" stroke-width="2.2" stroke-linejoin="round" stroke-linecap="round"/>
<polyline points="76.0,316.3 77.1,330.1 78.2,339.5 79.3,339.9 80.4,340.4 81.6,340.0 82.7,339.7 83.8,336.1 84.9,340.0 86.0,340.0 87.1,325.5 88.2,340.0 89.3,339.6 90.4,336.0 91.6,339.8 92.7,339.2 93.8,326.2 94.9,335.8 96.0,337.7 97.1,315.5 98.2,307.6 99.3,310.7 100.4,325.5 101.6,320.4 102.7,315.3 103.8,335.1 104.9,338.8 106.0,317.4 107.1,340.4 108.2,324.1 109.3,335.8 110.4,288.1 111.6,305.0 112.7,308.0 113.8,313.1 114.9,336.6 116.0,317.4 117.1,315.5 118.2,340.3 119.3,340.4 120.4,335.0 121.6,315.4 122.7,315.4 123.8,317.4 124.9,346.3 126.0,340.3 127.1,313.7 128.2,315.1 129.3,340.3 130.4,340.7 131.6,339.5 132.7,338.8 133.8,339.3 134.9,340.0 136.0,336.8 137.1,340.0 138.2,336.2 139.3,339.7 140.4,340.0 141.6,339.5 142.7,340.4 143.8,340.3 144.9,340.3 146.0,349.6 147.1,341.2 148.2,340.3 149.3,340.3 150.4,336.0 151.6,349.6 152.7,341.0 153.8,341.6 154.9,341.6 156.0,340.4 157.1,343.6 158.2,341.6 159.3,341.5 160.4,340.5 161.6,340.4 162.7,340.4 163.8,339.9 164.9,340.4 166.0,340.0 167.1,340.0 168.2,340.4 169.3,340.4 170.4,340.4 171.6,339.7 172.7,340.3 173.8,340.2 174.9,336.0 176.0,340.1 177.1,317.1 178.2,334.9 179.3,336.4 180.4,339.2 181.6,349.6 182.7,335.9 183.8,339.2 184.9,340.4 186.0,341.6 187.1,340.1 188.2,340.1 189.3,340.2 190.4,339.9 191.6,336.3 192.7,335.8 193.8,336.8 194.9,338.4 196.0,340.4 197.1,340.3 198.2,340.3 199.3,339.5 200.4,340.3 201.6,340.3 202.7,336.8 203.8,337.7 204.9,341.6 206.0,349.6 207.1,341.5 208.2,340.4 209.3,314.9 210.4,340.3 211.6,339.9 212.7,340.1 213.8,339.2 214.9,340.3 216.0,339.4 217.1,340.3 218.2,340.3 219.3,340.3 220.4,340.4 221.6,340.1 222.7,338.5 223.8,340.3 224.9,340.4 226.0,340.4 227.1,339.5 228.2,339.6 229.3,335.6 230.4,315.4 231.6,303.3 232.7,314.6 233.8,309.1 234.9,315.0 236.0,315.0 237.1,332.9 238.2,338.3 239.3,339.2 240.4,339.2 241.6,340.3 242.7,340.3 243.8,339.2 244.9,340.1 246.0,340.1 247.1,340.0 248.2,349.6 249.3,340.3 250.4,340.3 251.6,340.4 252.7,340.4 253.8,339.2 254.9,339.8 256.0,336.2 257.1,324.8 258.2,303.3 259.3,339.4 260.4,332.1 261.6,340.1 262.7,337.1 263.8,337.1 264.9,336.7 266.0,340.1 267.1,339.8 268.2,340.0 269.3,340.0 270.4,336.0 271.6,336.0 272.7,340.3 273.8,339.7 274.9,336.3 276.0,340.0 277.1,340.4 278.2,340.0 279.3,340.3 280.4,335.8 281.6,339.7 282.7,320.5 283.8,340.0 284.9,303.3 286.0,339.4 287.1,335.0 288.2,337.9 289.3,337.1 290.4,315.4 291.6,337.1 292.7,337.6 293.8,340.0 294.9,329.0 296.0,339.3 297.1,300.3 298.2,303.3 299.3,332.3 300.4,336.4 301.6,336.0 302.7,337.6 303.8,340.0 304.9,340.1 306.0,339.5 307.1,330.0 308.2,320.0 309.3,313.4 310.4,310.1 311.6,303.3 312.7,311.3 313.8,310.1 314.9,337.1 316.0,310.2 317.1,322.0 318.2,338.8 319.3,340.4 320.4,339.5 321.6,340.4 322.7,340.3 323.8,339.1 324.9,340.4 326.0,324.8 327.1,324.8 328.2,339.5 329.3,339.2 330.4,338.8 331.6,340.1 332.7,340.0 333.8,336.6 334.9,310.1 336.0,313.0 337.1,313.1 338.2,303.3 339.3,315.0 340.4,340.9 341.6,341.6 342.7,317.4 343.8,339.9 344.9,341.6 346.0,341.3 347.1,341.6 348.2,340.4 349.3,339.2 350.4,339.7 351.6,339.8 352.7,338.9 353.8,340.0 354.9,339.8 356.0,334.9 357.1,313.8 358.2,339.5 359.3,313.0 360.4,339.8 361.6,315.5 362.7,315.1 363.8,330.3 364.9,310.2 366.0,324.8 367.1,349.6 368.2,320.5 369.3,339.5 370.4,313.0 371.6,314.7 372.7,335.3 373.8,339.5 374.9,340.4 376.0,338.6 377.1,329.0 378.2,339.2 379.3,313.0 380.4,310.9 381.6,329.0 382.7,320.5 383.8,338.8 384.9,337.9 386.0,307.9 387.1,339.5 388.2,340.0 389.3,331.7 390.4,339.2 391.6,325.9 392.7,339.0 393.8,339.1 394.9,339.4 396.0,336.0 397.1,337.1 398.2,339.1 399.3,340.0 400.4,339.2 401.6,338.4 402.7,315.5 403.8,340.1 404.9,336.0 406.0,351.5 407.1,339.2 408.2,340.1 409.3,339.1 410.4,340.1 411.6,340.1 412.7,315.5 413.8,320.3 414.9,337.3 416.0,315.4 417.1,337.0 418.2,310.1 419.3,335.8 420.4,332.1 421.6,306.9 422.7,314.5 423.8,341.3 424.9,338.8 426.0,340.3 427.1,339.8 428.2,311.3 429.3,311.3 430.4,323.3 431.6,325.2 432.7,328.7 433.8,337.1 434.9,315.5 436.0,310.1 437.1,313.0 438.2,337.1 439.3,309.9 440.4,335.8 441.6,339.4 442.7,332.0 443.8,336.0 444.9,310.1 446.0,313.0 447.1,339.2 448.2,339.4 449.3,340.4 450.4,346.3 451.6,341.6 452.7,341.5 453.8,340.4 454.9,341.6 456.0,341.2 457.1,339.2 458.2,339.8 459.3,340.3 460.4,340.2 461.6,340.3 462.7,340.0 463.8,337.1 464.9,339.8 466.0,340.4 467.1,334.4 468.2,336.0 469.3,331.0 470.4,330.5 471.6,313.0 472.7,338.9 473.8,313.2 474.9,315.1 476.0,335.8 477.1,324.7 478.2,313.1 479.3,340.0 480.4,323.7 481.6,341.2 482.7,340.4 483.8,302.1 484.9,310.1 486.0,330.5 487.1,330.9 488.2,324.0 489.3,315.1 490.4,340.3 491.6,326.4 492.7,339.5 493.8,336.8 494.9,335.0 496.0,314.4 497.1,313.2 498.2,303.3 499.3,307.3 500.4,310.2 501.6,313.8 502.7,337.1 503.8,339.4 504.9,334.9 506.0,340.1 507.1,339.2 508.2,340.4 509.3,339.4 510.4,339.4 511.6,330.5 512.7,340.3 513.8,339.9 514.9,340.0 516.0,340.1 517.1,340.1 518.2,340.1 519.3,340.0 520.4,339.4 521.6,332.1 522.7,331.9 523.8,310.2 524.9,348.6 526.0,340.7 527.1,349.6 528.2,340.4 529.3,334.3 530.4,305.7 531.6,339.6 532.7,339.5 533.8,320.6 534.9,340.4 536.0,339.5 537.1,340.0 538.2,338.9 539.3,335.8 540.4,335.7 541.6,339.2 542.7,340.4 543.8,340.4 544.9,338.5 546.0,339.7 547.1,315.3 548.2,337.3 549.3,315.0 550.4,338.0 551.6,310.2 552.7,314.6 553.8,315.5 554.9,335.3 556.0,339.2 557.1,337.8 558.2,340.7 559.3,323.3 560.4,340.1 561.6,341.6 562.7,336.7 563.8,330.9 564.9,340.0 566.0,336.6 567.1,337.1 568.2,340.1 569.3,339.9 570.4,339.2 571.6,336.0 572.7,340.3 573.8,340.2 574.9,337.1 576.0,338.6 577.1,315.5 578.2,335.8 579.3,313.0 580.4,313.2 581.6,310.1 582.7,335.7 583.8,332.1 584.9,335.7 586.0,340.3 587.1,336.8 588.2,340.4 589.3,340.0 590.4,339.5 591.6,340.3 592.7,340.1 593.8,340.4 594.9,339.2 596.0,340.4 597.1,338.6 598.2,340.0 599.3,340.4 600.4,338.1 601.6,287.9 602.7,339.2 603.8,340.4 604.9,324.4 606.0,336.4 607.1,335.0 608.2,337.1 609.3,339.5 610.4,340.0 611.6,340.3 612.7,340.1 613.8,340.0 614.9,340.2 616.0,340.4 617.1,340.3 618.2,340.4 619.3,340.3 620.4,340.1 621.6,340.3 622.7,340.4 623.8,340.1 624.9,339.5 626.0,341.1 627.1,339.5 628.2,339.8 629.3,310.1 630.4,324.7 631.6,314.2 632.7,305.3 633.8,315.2 634.9,335.8 636.0,315.5 637.1,335.8 638.2,338.4 639.3,340.1 640.4,339.2 641.6,339.5 642.7,336.2 643.8,340.1 644.9,340.3 646.0,340.3 647.1,310.1 648.2,339.8 649.3,336.3 650.4,340.4 651.6,339.2 652.7,340.4 653.8,339.2 654.9,340.3 656.0,315.4 657.1,339.7 658.2,311.2 659.3,313.2 660.4,339.2 661.6,336.2 662.7,339.5 663.8,335.0 664.9,339.7 666.0,310.1 667.1,336.0 668.2,334.1 669.3,339.2 670.4,300.3 671.6,340.0 672.7,315.4 673.8,315.5 674.9,339.2 676.0,323.4 677.1,323.5 678.2,339.5 679.3,340.3 680.4,339.5 681.6,339.5 682.7,335.7 683.8,313.0 684.9,313.0 686.0,315.0 687.1,339.2 688.2,315.5 689.3,315.2 690.4,332.5 691.6,337.3 692.7,340.4 693.8,340.0 694.9,339.4 696.0,340.0 697.1,339.9 698.2,336.0 699.3,338.9 700.4,336.9 701.6,340.0 702.7,339.5 703.8,339.2 704.9,336.0 706.0,340.1 707.1,340.3 708.2,337.3 709.3,311.8 710.4,331.3 711.6,310.1 712.7,311.2 713.8,313.8 714.9,311.2 716.0,340.0 717.1,332.2 718.2,339.2 719.3,338.5 720.4,339.5 721.6,340.4 722.7,340.0 723.8,339.3 724.9,339.2 726.0,340.1 727.1,336.0 728.2,337.1 729.3,340.3 730.4,339.5 731.6,340.0 732.7,340.3 733.8,332.7 734.9,340.4 736.0,339.0 737.1,324.8 738.2,307.6 739.3,315.0 740.4,332.7 741.6,332.0 742.7,328.7 743.8,303.3 744.9,315.5 746.0,336.5 747.1,336.0 748.2,340.0 749.3,329.7 750.4,329.0 751.6,335.7 752.7,339.2 753.8,336.0 754.9,340.0 756.0,329.1 757.1,338.5 758.2,339.5 759.3,330.9 760.4,313.9 761.6,320.5 762.7,339.2 763.8,313.3 764.9,311.3 766.0,313.0 767.1,315.0 768.2,317.4 769.3,336.3 770.4,337.3 771.6,323.0 772.7,340.0 773.8,340.4 774.9,340.4 776.0,340.4 777.1,340.0 778.2,339.2 779.3,340.3 780.4,335.7 781.6,339.7 782.7,340.0 783.8,339.6 784.9,339.2 786.0,340.4 787.1,336.0 788.2,339.2 789.3,320.5 790.4,336.0 791.6,310.1 792.7,329.6 793.8,311.3 794.9,337.1 796.0,313.8 797.1,339.2 798.2,339.2 799.3,336.5 800.4,315.5 801.6,339.2 802.7,335.3 803.8,332.4 804.9,329.0 806.0,335.3 807.1,309.8 808.2,317.4 809.3,339.2 810.4,337.3 811.6,334.9 812.7,339.2 813.8,328.0 814.9,313.1 816.0,315.2 817.1,309.9 818.2,310.1 819.3,313.0 820.4,315.5 821.6,315.0 822.7,324.7 823.8,330.9 824.9,336.1 826.0,336.2 827.1,310.1 828.2,310.0 829.3,339.2 830.4,336.3 831.6,310.1 832.7,340.1 833.8,313.1 834.9,339.4 836.0,340.1 837.1,338.2 838.2,338.3 839.3,313.0 840.4,340.4 841.6,335.7 842.7,315.2 843.8,335.3 844.9,332.0 846.0,310.7 847.1,311.2 848.2,329.0 849.3,301.3 850.4,339.5 851.6,340.4 852.7,340.4 853.8,336.9 854.9,340.1 856.0,340.4 857.1,309.0 858.2,313.0 859.3,340.4 860.4,337.1 861.6,339.8 862.7,336.6 863.8,340.1 864.9,337.1 866.0,326.6 867.1,340.3 868.2,337.2 869.3,315.3 870.4,313.1 871.6,310.1 872.7,310.7 873.8,310.4 874.9,329.8 876.0,336.0 877.1,339.9 878.2,337.0 879.3,340.4 880.4,340.4 881.6,340.4 882.7,327.6 883.8,340.3 884.9,336.4 886.0,340.4 887.1,349.6 888.2,349.6 889.3,349.6 890.4,340.0 891.6,340.4 892.7,340.4 893.8,339.7 894.9,316.5 896.0,313.8 897.1,313.0 898.2,312.9 899.3,335.6 900.4,313.4 901.6,342.9 902.7,340.4 903.8,340.4 904.9,340.4 906.0,337.1 907.1,337.3 908.2,339.5 909.3,335.8 910.4,340.0 911.6,340.4 912.7,340.3 913.8,317.4 914.9,339.2 916.0,337.3 917.1,339.2 918.2,337.1 919.3,336.3 920.4,315.5 921.6,313.4 922.7,319.0 923.8,332.3 924.9,309.5 926.0,346.3 927.1,347.1 928.2,340.4 929.3,340.0 930.4,340.0 931.6,329.7 932.7,322.9 933.8,351.6 934.9,340.0 936.0,340.3 937.1,323.0 938.2,349.6 939.3,339.4 940.4,326.9 941.6,338.1 942.7,330.7 943.8,339.2 944.9,318.7 946.0,339.9" fill="none" stroke="#059669" stroke-width="2.2" stroke-linejoin="round" stroke-linecap="round"/>
<polyline points="76.0,211.5 77.1,219.5 78.2,226.3 79.3,231.4 80.4,239.6 81.6,231.3 82.7,226.2 83.8,219.7 84.9,226.3 86.0,226.2 87.1,202.2 88.2,226.4 89.3,227.6 90.4,226.2 91.6,229.2 92.7,230.6 93.8,214.1 94.9,219.5 96.0,239.2 97.1,219.3 98.2,218.5 99.3,202.2 100.4,223.2 101.6,226.1 102.7,226.3 103.8,223.3 104.9,226.2 106.0,215.9 107.1,219.4 108.2,202.5 109.3,202.2 110.4,162.0 111.6,171.9 112.7,171.9 113.8,212.2 114.9,218.6 116.0,212.2 117.1,210.7 118.2,236.4 119.3,244.3 120.4,233.2 121.6,226.2 122.7,226.7 123.8,226.3 124.9,230.6 126.0,223.2 127.1,216.4 128.2,224.4 129.3,216.8 130.4,239.6 131.6,237.0 132.7,231.9 133.8,232.5 134.9,233.2 136.0,226.3 137.1,226.3 138.2,227.4 139.3,230.8 140.4,234.5 141.6,226.3 142.7,239.6 143.8,243.7 144.9,236.7 146.0,248.0 147.1,242.7 148.2,243.7 149.3,242.1 150.4,239.5 151.6,255.2 152.7,208.8 153.8,239.9 154.9,240.9 156.0,237.8 157.1,252.1 158.2,246.0 159.3,249.7 160.4,244.4 161.6,235.4 162.7,236.4 163.8,231.3 164.9,226.4 166.0,232.7 167.1,236.5 168.2,249.6 169.3,241.8 170.4,244.4 171.6,234.5 172.7,233.2 173.8,233.5 174.9,219.4 176.0,242.2 177.1,226.3 178.2,235.0 179.3,234.5 180.4,246.3 181.6,252.4 182.7,226.3 183.8,230.9 184.9,245.7 186.0,240.3 187.1,232.8 188.2,238.0 189.3,239.6 190.4,236.3 191.6,226.3 192.7,226.4 193.8,233.2 194.9,236.3 196.0,245.1 197.1,240.8 198.2,249.7 199.3,233.5 200.4,233.6 201.6,240.4 202.7,239.6 203.8,239.8 204.9,244.6 206.0,243.7 207.1,243.7 208.2,236.4 209.3,202.7 210.4,226.3 211.6,226.3 212.7,219.4 213.8,232.6 214.9,236.4 216.0,234.5 217.1,236.4 218.2,233.8 219.3,239.5 220.4,239.5 221.6,236.4 222.7,233.2 223.8,241.9 224.9,242.1 226.0,240.8 227.1,231.0 228.2,229.9 229.3,240.2 230.4,229.6 231.6,235.4 232.7,234.5 233.8,209.6 234.9,226.3 236.0,226.2 237.1,226.2 238.2,228.0 239.3,226.3 240.4,239.6 241.6,239.6 242.7,235.0 243.8,233.2 244.9,238.8 246.0,239.5 247.1,240.0 248.2,255.1 249.3,236.4 250.4,236.4 251.6,244.4 252.7,244.3 253.8,236.4 254.9,235.3 256.0,228.6 257.1,226.3 258.2,244.4 259.3,226.3 260.4,202.1 261.6,234.7 262.7,236.4 263.8,226.3 264.9,231.7 266.0,236.3 267.1,239.6 268.2,236.3 269.3,235.8 270.4,236.9 271.6,226.3 272.7,241.6 273.8,237.0 274.9,226.3 276.0,235.7 277.1,241.8 278.2,243.8 279.3,251.4 280.4,227.0 281.6,226.2 282.7,227.4 283.8,237.9 284.9,250.4 286.0,230.8 287.1,226.1 288.2,226.3 289.3,228.1 290.4,225.5 291.6,232.5 292.7,226.3 293.8,231.2 294.9,214.7 296.0,226.2 297.1,162.0 298.2,172.9 299.3,202.4 300.4,213.0 301.6,204.0 302.7,226.3 303.8,235.4 304.9,230.9 306.0,229.6 307.1,219.6 308.2,219.4 309.3,226.3 310.4,202.4 311.6,230.0 312.7,202.2 313.8,202.2 314.9,226.3 316.0,213.1 317.1,219.8 318.2,227.4 319.3,226.3 320.4,227.4 321.6,227.1 322.7,229.6 323.8,226.3 324.9,236.4 326.0,211.5 327.1,224.5 328.2,236.4 329.3,235.2 330.4,226.2 331.6,231.3 332.7,233.2 333.8,226.3 334.9,205.1 336.0,223.3 337.1,226.1 338.2,261.2 339.3,222.6 340.4,217.1 341.6,243.3 342.7,218.0 343.8,231.3 344.9,236.6 346.0,244.4 347.1,244.0 348.2,236.3 349.3,236.3 350.4,230.4 351.6,226.3 352.7,243.7 353.8,234.7 354.9,234.0 356.0,221.2 357.1,213.5 358.2,231.0 359.3,184.3 360.4,234.1 361.6,217.5 362.7,225.0 363.8,226.3 364.9,230.6 366.0,217.5 367.1,244.0 368.2,217.8 369.3,224.4 370.4,202.1 371.6,199.5 372.7,197.6 373.8,219.4 374.9,213.2 376.0,226.3 377.1,172.0 378.2,223.3 379.3,207.7 380.4,208.2 381.6,202.2 382.7,224.6 383.8,231.0 384.9,226.3 386.0,170.6 387.1,226.2 388.2,234.6 389.3,226.1 390.4,226.3 391.6,178.2 392.7,202.7 393.8,229.2 394.9,234.7 396.0,226.3 397.1,212.4 398.2,236.4 399.3,235.7 400.4,227.3 401.6,226.3 402.7,223.2 403.8,233.2 404.9,226.2 406.0,255.3 407.1,234.3 408.2,234.5 409.3,233.2 410.4,236.2 411.6,236.2 412.7,227.4 413.8,226.1 414.9,226.2 416.0,226.2 417.1,226.2 418.2,217.6 419.3,226.3 420.4,217.5 421.6,216.0 422.7,226.2 423.8,236.2 424.9,217.6 426.0,226.2 427.1,221.8 428.2,212.2 429.3,202.7 430.4,217.8 431.6,226.2 432.7,217.8 433.8,235.6 434.9,226.2 436.0,208.3 437.1,209.7 438.2,226.2 439.3,226.3 440.4,226.2 441.6,236.4 442.7,226.3 443.8,237.9 444.9,226.1 446.0,225.9 447.1,226.3 448.2,226.9 449.3,234.2 450.4,251.6 451.6,236.4 452.7,238.9 453.8,242.7 454.9,236.3 456.0,232.8 457.1,218.3 458.2,234.8 459.3,236.3 460.4,236.3 461.6,236.2 462.7,231.3 463.8,228.3 464.9,234.3 466.0,243.9 467.1,223.2 468.2,226.2 469.3,226.3 470.4,231.5 471.6,229.3 472.7,229.6 473.8,212.8 474.9,216.0 476.0,223.3 477.1,229.4 478.2,216.6 479.3,226.2 480.4,218.4 481.6,227.1 482.7,236.3 483.8,171.9 484.9,202.2 486.0,226.2 487.1,202.9 488.2,215.1 489.3,217.4 490.4,236.2 491.6,224.5 492.7,231.3 493.8,226.2 494.9,218.5 496.0,215.1 497.1,202.4 498.2,194.7 499.3,197.0 500.4,211.5 501.6,202.4 502.7,217.8 503.8,231.0 504.9,216.0 506.0,236.4 507.1,226.0 508.2,225.5 509.3,226.3 510.4,221.8 511.6,226.1 512.7,243.7 513.8,229.2 514.9,234.6 516.0,236.3 517.1,229.7 518.2,236.3 519.3,239.5 520.4,243.7 521.6,226.4 522.7,227.1 523.8,226.3 524.9,236.3 526.0,230.8 527.1,226.3 528.2,234.8 529.3,229.6 530.4,92.4 531.6,217.8 532.7,226.2 533.8,216.6 534.9,234.6 536.0,233.2 537.1,226.3 538.2,226.3 539.3,226.2 540.4,223.2 541.6,226.1 542.7,236.3 543.8,241.6 544.9,236.3 546.0,234.8 547.1,216.6 548.2,226.3 549.3,226.2 550.4,241.2 551.6,235.4 552.7,219.9 553.8,215.3 554.9,233.2 556.0,229.7 557.1,233.6 558.2,236.5 559.3,202.7 560.4,236.4 561.6,236.4 562.7,219.5 563.8,223.3 564.9,231.0 566.0,223.2 567.1,222.6 568.2,229.9 569.3,235.0 570.4,236.2 571.6,226.2 572.7,240.9 573.8,243.6 574.9,228.0 576.0,239.8 577.1,226.2 578.2,230.9 579.3,214.6 580.4,217.5 581.6,217.5 582.7,226.2 583.8,226.2 584.9,219.8 586.0,237.3 587.1,227.1 588.2,234.6 589.3,226.3 590.4,226.3 591.6,239.8 592.7,219.7 593.8,236.7 594.9,227.4 596.0,239.8 597.1,226.2 598.2,234.9 599.3,234.5 600.4,226.2 601.6,170.5 602.7,226.2 603.8,227.4 604.9,227.6 606.0,229.6 607.1,226.3 608.2,226.2 609.3,242.9 610.4,226.3 611.6,233.2 612.7,226.3 613.8,231.4 614.9,229.6 616.0,241.9 617.1,235.2 618.2,239.8 619.3,239.5 620.4,235.4 621.6,239.6 622.7,236.7 623.8,243.7 624.9,226.3 626.0,244.4 627.1,215.4 628.2,228.0 629.3,208.2 630.4,216.5 631.6,226.3 632.7,204.4 633.8,226.2 634.9,226.0 636.0,226.3 637.1,234.6 638.2,226.3 639.3,239.5 640.4,226.3 641.6,229.9 642.7,225.3 643.8,226.3 644.9,237.8 646.0,239.0 647.1,202.7 648.2,233.5 649.3,233.2 650.4,238.5 651.6,233.2 652.7,235.2 653.8,219.4 654.9,235.7 656.0,215.4 657.1,233.2 658.2,225.8 659.3,222.5 660.4,228.0 661.6,226.3 662.7,226.3 663.8,222.5 664.9,232.3 666.0,198.3 667.1,223.0 668.2,214.6 669.3,234.6 670.4,171.9 671.6,233.2 672.7,202.2 673.8,222.8 674.9,219.5 676.0,212.6 677.1,218.5 678.2,242.7 679.3,234.6 680.4,226.2 681.6,230.9 682.7,226.2 683.8,212.6 684.9,226.3 686.0,209.7 687.1,226.2 688.2,202.4 689.3,202.2 690.4,204.2 691.6,226.3 692.7,238.1 693.8,226.3 694.9,219.4 696.0,233.7 697.1,234.7 698.2,222.7 699.3,226.2 700.4,217.5 701.6,234.4 702.7,233.2 703.8,234.5 704.9,239.6 706.0,243.7 707.1,232.5 708.2,231.0 709.3,221.5 710.4,230.7 711.6,230.9 712.7,206.5 713.8,223.3 714.9,218.3 716.0,229.7 717.1,227.4 718.2,228.1 719.3,235.2 720.4,234.6 721.6,226.3 722.7,232.3 723.8,239.5 724.9,226.6 726.0,240.3 727.1,227.9 728.2,234.5 729.3,239.6 730.4,239.5 731.6,236.5 732.7,240.8 733.8,214.8 734.9,231.0 736.0,236.3 737.1,225.7 738.2,226.2 739.3,225.1 740.4,225.2 741.6,217.8 742.7,226.3 743.8,174.3 744.9,212.9 746.0,226.2 747.1,216.7 748.2,220.7 749.3,234.7 750.4,218.5 751.6,217.6 752.7,235.3 753.8,224.9 754.9,230.8 756.0,226.2 757.1,226.2 758.2,233.2 759.3,223.2 760.4,214.1 761.6,210.8 762.7,235.7 763.8,226.0 764.9,227.3 766.0,221.7 767.1,226.1 768.2,214.5 769.3,231.9 770.4,226.5 771.6,226.2 772.7,236.4 773.8,233.0 774.9,226.2 776.0,239.5 777.1,226.7 778.2,226.3 779.3,240.1 780.4,217.6 781.6,233.2 782.7,230.6 783.8,237.2 784.9,226.7 786.0,228.2 787.1,225.1 788.2,226.3 789.3,227.4 790.4,226.3 791.6,221.2 792.7,211.2 793.8,197.3 794.9,227.5 796.0,214.8 797.1,232.3 798.2,226.2 799.3,226.3 800.4,202.3 801.6,210.9 802.7,226.3 803.8,220.5 804.9,223.3 806.0,226.3 807.1,191.1 808.2,218.2 809.3,226.3 810.4,233.2 811.6,227.4 812.7,236.4 813.8,221.9 814.9,219.4 816.0,236.3 817.1,200.9 818.2,226.2 819.3,226.5 820.4,219.4 821.6,226.2 822.7,226.3 823.8,226.3 824.9,224.1 826.0,218.5 827.1,202.6 828.2,185.2 829.3,226.3 830.4,226.7 831.6,202.9 832.7,230.0 833.8,229.5 834.9,244.4 836.0,243.2 837.1,240.5 838.2,239.9 839.3,194.2 840.4,248.1 841.6,211.2 842.7,236.4 843.8,244.3 844.9,243.5 846.0,226.4 847.1,176.0 848.2,226.2 849.3,197.1 850.4,232.1 851.6,239.4 852.7,244.3 853.8,223.3 854.9,231.2 856.0,259.7 857.1,171.9 858.2,202.7 859.3,259.8 860.4,226.3 861.6,229.1 862.7,226.2 863.8,239.9 864.9,226.2 866.0,233.2 867.1,219.4 868.2,183.1 869.3,226.3 870.4,207.1 871.6,212.7 872.7,211.2 873.8,202.4 874.9,226.7 876.0,230.4 877.1,246.6 878.2,215.9 879.3,243.9 880.4,227.6 881.6,235.0 882.7,233.2 883.8,244.3 884.9,232.4 886.0,240.8 887.1,251.3 888.2,248.7 889.3,255.5 890.4,239.5 891.6,241.8 892.7,244.2 893.8,201.9 894.9,197.1 896.0,227.4 897.1,220.8 898.2,226.4 899.3,219.4 900.4,219.5 901.6,236.3 902.7,239.5 903.8,240.3 904.9,249.2 906.0,241.5 907.1,240.3 908.2,233.8 909.3,209.7 910.4,239.5 911.6,236.3 912.7,244.2 913.8,215.8 914.9,226.3 916.0,239.6 917.1,230.7 918.2,227.6 919.3,233.2 920.4,217.6 921.6,225.1 922.7,219.6 923.8,226.2 924.9,233.0 926.0,227.8 927.1,230.8 928.2,261.2 929.3,233.2 930.4,239.9 931.6,239.0 932.7,226.3 933.8,234.9 934.9,226.3 936.0,226.3 937.1,214.4 938.2,245.4 939.3,228.6 940.4,202.6 941.6,223.3 942.7,226.2 943.8,226.3 944.9,217.4 946.0,233.7" fill="none" stroke="#d97706" stroke-width="2.2" stroke-linejoin="round" stroke-linecap="round"/>
<line x1="76" y1="70" x2="94" y2="70" stroke="#2563eb" stroke-width="3"/>
<text x="100" y="74" font-family="Arial, sans-serif" font-size="11" fill="#0f172a">avg fee</text>
<line x1="179" y1="70" x2="197" y2="70" stroke="#059669" stroke-width="3"/>
<text x="203" y="74" font-family="Arial, sans-serif" font-size="11" fill="#0f172a">median fee</text>
<line x1="303" y1="70" x2="321" y2="70" stroke="#d97706" stroke-width="3"/>
<text x="327" y="74" font-family="Arial, sans-serif" font-size="11" fill="#0f172a">p90 fee</text>
<text x="28" y="404" font-family="Arial, sans-serif" font-size="11" fill="#64748b">Source: hourly_features.csv</text>
</svg>