<svg xmlns="http://www.w3.org/2000/svg" width="980" height="420" viewBox="0 0 980 420">
<rect width="100%" height="100%" fill="#ffffff"/>
<text x="28" y="34" font-family="Arial, sans-serif" font-size="20" font-weight="700" fill="#0f172a">Hourly fee trend</text>
<text x="28" y="56" font-family="Arial, sans-serif" font-size="12" fill="#64748b">Average, median, and p90 total fee by hour</text>
<line x1="76" y1="362.0" x2="946" y2="362.0" stroke="#e2e8f0" stroke-width="1"/>
<text x="68" y="366.0" font-family="Arial, sans-serif" font-size="10" text-anchor="end" fill="#64748b">-128K</text>
<line x1="76" y1="292.0" x2="946" y2="292.0" stroke="#e2e8f0" stroke-width="1"/>
<text x="68" y="296.0" font-family="Arial, sans-serif" font-size="10" text-anchor="end" fill="#64748b">2.8M</text>
<line x1="76" y1="222.0" x2="946" y2="222.0" stroke="#e2e8f0" stroke-width="1"/>
<text x="68" y="226.0" font-family="Arial, sans-serif" font-size="10" text-anchor="end" fill="#64748b">5.8M</text>
<line x1="76" y1="152.0" x2="946" y2="152.0" stroke="#e2e8f0" stroke-width="1"/>
<text x="68" y="156.0" font-family="Arial, sans-serif" font-size="10" text-anchor="end" fill="#64748b">8.7M</text>
<line x1="76" y1="82.0" x2="946" y2="82.0" stroke="#e2e8f0" stroke-width="1"/>
<text x="68" y="86.0" font-family="Arial, sans-serif" font-size="10" text-anchor="end" fill="#64748b">11.7M</text>
<line x1="76" y1="362" x2="946" y2="362" stroke="#334155" stroke-width="1"/>
<line x1="76" y1="82" x2="76" y2="362" stroke="#334155" stroke-width="1"/>
<text x="76" y="72" font-family="Arial, sans-serif" font-size="11" fill="#64748b">nanoton</text>
<line x1="76.0" y1="362" x2="76.0" y2="366" stroke="#334155" stroke-width="1"/>
<text x="76.0" y="380" font-family="Arial, sans-serif" font-size="10" text-anchor="middle" fill="#64748b">0</text>
<line x1="511.0" y1="362" x2="511.0" y2="366" stroke="#334155" stroke-width="1"/>
<text x="511.0" y="380" font-family="Arial, sans-serif" font-size="10" text-anchor="middle" fill="#64748b">387</text>
<line x1="946.0" y1="362" x2="946.0" y2="366" stroke="#334155" stroke-width="1"/>
<text x="946.0" y="380" font-family="Arial, sans-serif" font-size="10" text-anchor="middle" fill="#64748b">774</text>
<polyline points="76.0,295.2 77.1,299.1 78.2,300.5 79.4,302.7 80.5,309.6 81.6,301.7 82.7,302.8 83.9,299.1 85.0,303.6 86.1,303.3 87.2,292.1 88.4,304.1 89.5,304.3 90.6,301.9 91.7,304.9 92.9,305.1 94.0,296.9 95.1,297.0 96.2,306.0 97.4,295.6 98.5,293.6 99.6,291.7 100.7,298.3 101.9,298.7 103.0,300.6 104.1,296.5 105.2,302.3 106.3,295.0 107.5,297.7 108.6,292.7 109.7,293.4 110.8,277.2 112.0,288.9 113.1,289.6 114.2,299.1 115.3,304.5 116.5,297.4 117.6,299.4 118.7,309.4 119.8,312.2 121.0,306.8 122.1,301.5 123.2,303.2 124.3,302.5 125.5,309.1 126.6,302.0 127.7,299.0 128.8,301.0 130.0,303.3 131.1,307.8 132.2,307.8 133.3,306.6 134.4,304.9 135.6,308.0 136.7,306.9 137.8,304.0 138.9,303.7 140.1,307.5 141.2,303.7 142.3,306.0 143.4,311.6 144.6,313.5 145.7,311.2 146.8,311.9 147.9,313.9 149.1,310.7 150.2,310.3 151.3,306.7 152.4,313.3 153.6,295.1 154.7,311.2 155.8,311.1 156.9,311.1 158.1,316.1 159.2,311.9 160.3,315.1 161.4,313.9 162.6,310.2 163.7,310.2 164.8,307.9 165.9,308.2 167.0,306.0 168.2,309.9 169.3,312.2 170.4,311.7 171.5,312.9 172.7,309.8 173.8,307.6 174.9,307.4 176.0,303.1 177.2,309.6 178.3,301.6 179.4,303.9 180.5,304.9 181.7,308.6 182.8,316.5 183.9,304.7 185.0,305.1 186.2,313.8 187.3,312.3 188.4,304.9 189.5,309.0 190.7,309.8 191.8,307.3 192.9,305.1 194.0,302.0 195.1,303.3 196.3,306.6 197.4,312.9 198.5,312.2 199.6,312.2 200.8,307.8 201.9,306.6 203.0,308.9 204.1,308.6 205.3,308.7 206.4,313.1 207.5,313.8 208.6,312.1 209.8,305.7 210.9,291.2 212.0,306.3 213.1,303.4 214.3,300.6 215.4,304.2 216.5,310.2 217.6,306.2 218.8,309.7 219.9,306.8 221.0,309.6 222.1,311.5 223.2,309.6 224.4,305.4 225.5,309.5 226.6,312.7 227.7,307.1 228.9,306.4 230.0,307.8 231.1,308.1 232.2,303.5 233.4,303.0 234.5,302.6 235.6,293.8 236.7,301.4 237.9,300.9 239.0,300.0 240.1,304.2 241.2,303.6 242.4,309.4 243.5,308.7 244.6,308.5 245.7,303.8 246.9,305.8 248.0,310.4 249.1,309.2 250.2,317.0 251.3,310.5 252.5,309.0 253.6,311.8 254.7,311.7 255.8,306.6 257.0,308.5 258.1,305.4 259.2,306.3 260.3,304.8 261.5,303.3 262.6,295.0 263.7,300.6 264.8,305.2 266.0,301.1 267.1,307.4 268.2,307.2 269.3,307.7 270.5,307.3 271.6,307.5 272.7,308.4 273.8,304.7 275.0,310.3 276.1,307.6 277.2,303.8 278.3,307.5 279.4,311.5 280.6,310.9 281.7,311.5 282.8,303.0 283.9,306.3 285.1,302.4 286.2,308.5 287.3,304.8 288.4,304.1 289.6,300.2 290.7,302.8 291.8,303.0 292.9,298.2 294.1,304.5 295.2,302.5 296.3,303.2 297.4,298.6 298.6,302.4 299.7,282.1 300.8,288.5 301.9,299.7 303.1,300.2 304.2,298.9 305.3,305.4 306.4,309.0 307.6,307.1 308.7,306.8 309.8,302.5 310.9,299.8 312.0,301.1 313.2,295.8 314.3,296.4 315.4,295.0 316.5,294.4 317.7,304.3 318.8,296.4 319.9,301.3 321.0,304.4 322.2,308.5 323.3,307.1 324.4,306.7 325.5,306.9 326.7,305.5 327.8,308.2 328.9,300.4 330.0,302.3 331.2,309.2 332.3,309.0 333.4,304.1 334.5,308.6 335.7,308.2 336.8,303.6 337.9,293.1 339.0,298.2 340.1,298.7 341.3,308.4 342.4,300.1 343.5,301.5 344.6,310.3 345.8,299.3 346.9,305.1 348.0,309.9 349.1,313.3 350.3,310.2 351.4,308.7 352.5,305.3 353.6,308.5 354.8,303.9 355.9,307.7 357.0,309.7 358.1,307.7 359.3,303.9 360.4,298.9 361.5,304.6 362.6,290.6 363.8,306.8 364.9,298.4 366.0,302.5 367.1,304.1 368.2,302.0 369.4,298.9 370.5,315.2 371.6,296.0 372.7,300.1 373.9,285.8 375.0,299.1 376.1,297.7 377.2,299.5 378.4,295.4 379.5,305.7 380.6,284.1 381.7,301.8 382.9,296.3 384.0,295.9 385.1,287.5 386.2,302.9 387.4,305.0 388.5,303.2 389.6,292.7 390.7,303.6 391.9,309.1 393.0,302.3 394.1,300.0 395.2,284.0 396.3,288.4 397.5,305.1 398.6,304.5 399.7,302.7 400.8,297.8 402.0,307.8 403.1,307.7 404.2,303.2 405.3,301.3 406.5,301.9 407.6,306.0 408.7,302.7 409.8,316.3 411.0,304.0 412.1,308.2 413.2,305.8 414.3,307.6 415.5,309.0 416.6,302.4 417.7,298.9 418.8,303.9 420.0,299.6 421.1,306.4 422.2,297.0 423.3,302.2 424.4,298.4 425.6,294.4 426.7,299.6 427.8,309.3 428.9,295.5 430.1,305.0 431.2,300.4 432.3,297.5 433.4,296.0 434.6,301.4 435.7,301.7 436.8,302.5 437.9,304.1 439.1,297.3 440.2,290.6 441.3,294.5 442.4,304.6 443.6,299.0 444.7,305.5 445.8,307.7 446.9,303.7 448.1,307.2 449.2,299.7 450.3,301.6 451.4,307.4 452.6,306.3 453.7,307.6 454.8,313.5 455.9,311.5 457.0,310.8 458.2,311.3 459.3,309.0 460.4,309.2 461.5,302.9 462.7,305.8 463.8,307.8 464.9,308.0 466.0,308.9 467.2,307.0 468.3,304.0 469.4,309.2 470.5,311.9 471.7,301.9 472.8,303.5 473.9,302.6 475.0,304.3 476.2,302.4 477.3,305.6 478.4,291.6 479.5,298.8 480.7,299.3 481.8,303.2 482.9,295.8 484.0,303.0 485.1,299.1 486.3,303.3 487.4,308.9 488.5,286.4 489.6,294.2 490.8,303.4 491.9,299.7 493.0,297.8 494.1,299.2 495.3,309.1 496.4,301.4 497.5,306.3 498.6,301.3 499.8,300.1 500.9,297.4 502.0,296.1 503.1,291.0 504.3,292.1 505.4,298.7 506.5,297.1 507.6,302.0 508.8,307.8 509.9,301.3 511.0,308.8 512.1,303.2 513.2,302.4 514.4,304.0 515.5,301.7 516.6,301.1 517.7,310.3 518.9,306.6 520.0,309.2 521.1,307.6 522.2,308.1 523.4,307.4 524.5,309.2 525.6,306.4 526.7,304.6 527.9,301.8 529.0,299.5 530.1,309.8 531.2,307.4 532.4,308.4 533.5,307.5 534.6,303.1 535.7,260.7 536.9,295.4 538.0,303.1 539.1,300.8 540.2,305.6 541.3,306.3 542.5,304.5 543.6,303.9 544.7,304.2 545.8,300.5 547.0,304.0 548.1,310.3 549.2,311.2 550.3,305.5 551.5,307.4 552.6,299.5 553.7,306.9 554.8,301.4 556.0,309.6 557.1,303.7 558.2,300.1 559.3,299.6 560.5,305.5 561.6,305.6 562.7,305.3 563.8,309.2 565.0,297.0 566.1,308.2 567.2,310.8 568.3,300.0 569.4,302.0 570.6,307.5 571.7,300.4 572.8,304.1 573.9,308.7 575.1,306.3 576.2,308.5 577.3,305.4 578.4,310.9 579.6,310.4 580.7,305.4 581.8,307.9 582.9,301.6 584.1,304.8 585.2,296.8 586.3,296.4 587.4,296.5 588.6,303.9 589.7,303.0 590.8,303.4 591.9,306.2 593.1,304.2 594.2,310.0 595.3,304.9 596.4,305.2 597.6,309.4 598.7,303.8 599.8,309.1 600.9,304.3 602.0,311.2 603.2,303.7 604.3,309.2 605.4,308.0 606.5,302.6 607.7,267.5 608.8,307.6 609.9,309.3 611.0,306.0 612.2,305.4 613.3,302.9 614.4,304.6 615.5,307.4 616.7,303.2 617.8,308.7 618.9,307.4 620.0,307.7 621.2,305.8 622.3,313.1 623.4,309.2 624.5,313.9 625.7,309.3 626.8,308.4 627.9,309.6 629.0,308.3 630.1,310.1 631.3,304.1 632.4,310.0 633.5,301.6 634.6,306.9 635.8,292.4 636.9,299.1 638.0,304.3 639.1,291.7 640.3,303.6 641.4,303.0 642.5,301.4 643.6,305.8 644.8,304.1 645.9,307.3 647.0,303.9 648.1,307.7 649.3,302.6 650.4,306.3 651.5,310.1 652.6,309.2 653.8,294.8 654.9,307.8 656.0,304.2 657.1,307.0 658.2,307.8 659.4,309.4 660.5,300.8 661.6,306.3 662.7,297.3 663.9,302.8 665.0,299.3 666.1,298.0 667.2,304.0 668.4,302.0 669.5,305.1 670.6,300.2 671.7,306.2 672.9,286.9 674.0,301.9 675.1,295.6 676.2,305.4 677.4,285.5 678.5,308.3 679.6,296.5 680.7,301.1 681.9,305.6 683.0,298.4 684.1,299.8 685.2,310.0 686.3,309.4 687.5,304.9 688.6,306.6 689.7,302.1 690.8,299.5 692.0,301.1 693.1,297.1 694.2,303.3 695.3,295.5 696.5,294.3 697.6,297.2 698.7,307.3 699.8,308.2 701.0,306.3 702.1,302.1 703.2,307.7 704.3,307.2 705.5,303.9 706.6,304.6 707.7,300.2 708.8,305.3 710.0,307.2 711.1,306.9 712.2,305.4 713.3,310.1 714.4,309.8 715.6,305.7 716.7,298.7 717.8,305.6 718.9,303.5 720.1,294.8 721.2,300.4 722.3,298.6 723.4,306.0 724.6,302.8 725.7,303.8 726.8,307.3 727.9,305.6 729.1,303.8 730.2,307.3 731.3,308.3 732.4,304.2 733.6,309.1 734.7,302.7 735.8,307.3 736.9,309.6 738.1,308.0 739.2,308.5 740.3,310.5 741.4,299.1 742.6,311.5 743.7,308.4 744.8,299.7 745.9,298.6 747.0,298.1 748.2,300.4 749.3,300.5 750.4,302.7 751.5,289.0 752.7,299.4 753.8,303.2 754.9,300.8 756.0,298.7 757.2,305.3 758.3,298.8 759.4,300.5 760.5,308.5 761.7,300.3 762.8,307.2 763.9,302.2 765.0,304.7 766.2,305.4 767.3,302.9 768.4,299.3 769.5,300.4 770.7,307.7 771.8,300.1 772.9,300.5 774.0,299.7 775.1,299.8 776.3,299.5 777.4,304.6 778.5,303.6 779.6,300.4 780.8,308.0 781.9,307.6 783.0,302.8 784.1,310.3 785.3,305.5 786.4,305.1 787.5,310.0 788.6,300.4 789.8,306.5 790.9,307.9 792.0,309.3 793.1,303.7 794.3,305.6 795.4,302.5 796.5,303.3 797.6,301.8 798.8,305.4 799.9,300.5 801.0,297.5 802.1,288.5 803.2,303.4 804.4,298.4 805.5,303.5 806.6,303.4 807.7,302.5 808.9,295.5 810.0,296.8 811.1,302.8 812.2,302.1 813.4,302.1 814.5,303.1 815.6,292.6 816.7,301.0 817.9,301.9 819.0,306.4 820.1,305.6 821.2,310.1 822.4,300.3 823.5,299.6 824.6,304.4 825.7,294.0 826.9,301.3 828.0,299.7 829.1,299.7 830.2,299.3 831.3,302.0 832.5,304.1 833.6,300.3 834.7,301.6 835.8,296.2 837.0,289.4 838.1,304.3 839.2,305.7 840.3,298.1 841.5,307.0 842.6,302.1 843.7,312.4 844.8,297.0 846.0,309.6 847.1,308.8 848.2,296.4 849.3,309.9 850.5,302.3 851.6,302.7 852.7,312.2 853.8,310.1 855.0,298.5 856.1,288.8 857.2,300.2 858.3,285.8 859.4,300.3 860.6,311.9 861.7,308.2 862.8,303.8 863.9,306.2 865.1,313.8 866.2,292.1 867.3,297.8 868.4,319.2 869.6,305.4 870.7,308.9 871.8,303.8 872.9,310.1 874.1,302.0 875.2,308.2 876.3,301.8 877.4,290.5 878.6,300.1 879.7,297.8 880.8,299.8 881.9,297.1 883.1,299.5 884.2,302.1 885.3,307.9 886.4,312.6 887.6,299.7 888.7,311.4 889.8,309.8 890.9,310.1 892.0,307.8 893.2,302.0 894.3,298.0 895.4,309.7 896.5,315.3 897.7,311.3 898.8,314.3 899.9,308.7 901.0,312.6 902.2,313.0 903.3,303.6 904.4,292.6 905.5,301.7 906.7,302.7 907.8,303.1 908.9,303.3 910.0,299.7 911.2,310.6 912.3,312.6 913.4,309.1 914.5,314.2 915.7,311.5 916.8,307.9 917.9,308.3 919.0,301.0 920.1,308.8 921.3,310.2 922.4,313.0 923.5,296.3 924.6,306.5 925.8,310.1 926.9,306.9 928.0,305.5 929.1,307.4 930.3,299.5 931.4,299.5 932.5,299.8 933.6,303.7 934.8,303.6 935.9,305.6 937.0,309.3 938.1,312.1 939.3,307.8 940.4,305.5 941.5,307.7 942.6,295.3 943.8,305.8 944.9,306.6 946.0,306.6" fill="none" stroke="#2563eb" stroke-width="2.2" stroke-linejoin="round" stroke-linecap="round"/>
<polyline points="76.0,316.3 77.1,330.1 78.2,339.5 79.4,339.9 80.5,340.4 81.6,340.0 82.7,339.7 83.9,336.1 85.0,340.0 86.1,340.0 87.2,325.5 88.4,340.0 89.5,339.6 90.6,336.0 91.7,339.8 92.9,339.2 94.0,326.2 95.1,335.8 96.2,337.7 97.4,315.5 98.5,307.6 99.6,310.7 100.7,325.5 101.9,320.4 103.0,315.3 104.1,335.1 105.2,338.8 106.3,317.4 107.5,340.4 108.6,324.1 109.7,335.8 110.8,288.1 112.0,305.0 113.1,308.0 114.2,313.1 115.3,336.6 116.5,317.4 117.6,315.5 118.7,340.3 119.8,340.4 121.0,335.0 122.1,315.4 123.2,315.4 124.3,317.4 125.5,346.3 126.6,340.3 127.7,313.7 128.8,315.1 130.0,340.3 131.1,340.7 132.2,339.5 133.3,338.8 134.4,339.3 135.6,340.0 136.7,336.8 137.8,340.0 138.9,336.2 140.1,339.7 141.2,340.0 142.3,339.5 143.4,340.4 144.6,340.3 145.7,340.3 146.8,349.6 147.9,341.2 149.1,340.3 150.2,340.3 151.3,336.0 152.4,349.6 153.6,341.0 154.7,341.6 155.8,341.6 156.9,340.4 158.1,343.6 159.2,341.6 160.3,341.5 161.4,340.5 162.6,340.4 163.7,340.4 164.8,339.9 165.9,340.4 167.0,340.0 168.2,340.0 169.3,340.4 170.4,340.4 171.5,340.4 172.7,339.7 173.8,340.3 174.9,340.2 176.0,336.0 177.2,340.1 178.3,317.1 179.4,334.9 180.5,336.4 181.7,339.2 182.8,349.6 183.9,335.9 185.0,339.2 186.2,340.4 187.3,341.6 188.4,340.1 189.5,340.1 190.7,340.2 191.8,339.9 192.9,336.3 194.0,335.8 195.1,336.8 196.3,338.4 197.4,340.4 198.5,340.3 199.6,340.3 200.8,339.5 201.9,340.3 203.0,340.3 204.1,336.8 205.3,337.7 206.4,341.6 207.5,349.6 208.6,341.5 209.8,340.4 210.9,314.9 212.0,340.3 213.1,339.9 214.3,340.1 215.4,339.2 216.5,340.3 217.6,339.4 218.8,340.3 219.9,340.3 221.0,340.3 222.1,340.4 223.2,340.1 224.4,338.5 225.5,340.3 226.6,340.4 227.7,340.4 228.9,339.5 230.0,339.6 231.1,335.6 232.2,315.4 233.4,303.3 234.5,314.6 235.6,309.1 236.7,315.0 237.9,315.0 239.0,332.9 240.1,338.3 241.2,339.2 242.4,339.2 243.5,340.3 244.6,340.3 245.7,339.2 246.9,340.1 248.0,340.1 249.1,340.0 250.2,349.6 251.3,340.3 252.5,340.3 253.6,340.4 254.7,340.4 255.8,339.2 257.0,339.8 258.1,336.2 259.2,324.8 260.3,303.3 261.5,339.4 262.6,332.1 263.7,340.1 264.8,337.1 266.0,337.1 267.1,336.7 268.2,340.1 269.3,339.8 270.5,340.0 271.6,340.0 272.7,336.0 273.8,336.0 275.0,340.3 276.1,339.7 277.2,336.3 278.3,340.0 279.4,340.4 280.6,340.0 281.7,340.3 282.8,335.8 283.9,339.7 285.1,320.5 286.2,340.0 287.3,303.3 288.4,339.4 289.6,335.0 290.7,337.9 291.8,337.1 292.9,315.4 294.1,337.1 295.2,337.6 296.3,340.0 297.4,329.0 298.6,339.3 299.7,300.3 300.8,303.3 301.9,332.3 303.1,336.4 304.2,336.0 305.3,337.6 306.4,340.0 307.6,340.1 308.7,339.5 309.8,330.0 310.9,320.0 312.0,313.4 313.2,310.1 314.3,303.3 315.4,311.3 316.5,310.1 317.7,337.1 318.8,310.2 319.9,322.0 321.0,338.8 322.2,340.4 323.3,339.5 324.4,340.4 325.5,340.3 326.7,339.1 327.8,340.4 328.9,324.8 330.0,324.8 331.2,339.5 332.3,339.2 333.4,338.8 334.5,340.1 335.7,340.0 336.8,336.6 337.9,310.1 339.0,313.0 340.1,313.1 341.3,303.3 342.4,315.0 343.5,340.9 344.6,341.6 345.8,317.4 346.9,339.9 348.0,341.6 349.1,341.3 350.3,341.6 351.4,340.4 352.5,339.2 353.6,339.7 354.8,339.8 355.9,338.9 357.0,340.0 358.1,339.8 359.3,334.9 360.4,313.8 361.5,339.5 362.6,313.0 363.8,339.8 364.9,315.5 366.0,315.1 367.1,330.3 368.2,310.2 369.4,324.8 370.5,349.6 371.6,320.5 372.7,339.5 373.9,313.0 375.0,314.7 376.1,335.3 377.2,339.5 378.4,340.4 379.5,338.6 380.6,329.0 381.7,339.2 382.9,313.0 384.0,310.9 385.1,329.0 386.2,320.5 387.4,338.8 388.5,337.9 389.6,307.9 390.7,339.5 391.9,340.0 393.0,331.7 394.1,339.2 395.2,325.9 396.3,339.0 397.5,339.1 398.6,339.4 399.7,336.0 400.8,337.1 402.0,339.1 403.1,340.0 404.2,339.2 405.3,338.4 406.5,315.5 407.6,340.1 408.7,336.0 409.8,351.5 411.0,339.2 412.1,340.1 413.2,339.1 414.3,340.1 415.5,340.1 416.6,315.5 417.7,320.3 418.8,337.3 420.0,315.4 421.1,337.0 422.2,310.1 423.3,335.8 424.4,332.1 425.6,306.9 426.7,314.5 427.8,341.3 428.9,338.8 430.1,340.3 431.2,339.8 432.3,311.3 433.4,311.3 434.6,323.3 435.7,325.2 436.8,328.7 437.9,337.1 439.1,315.5 440.2,310.1 441.3,313.0 442.4,337.1 443.6,309.9 444.7,335.8 445.8,339.4 446.9,332.0 448.1,336.0 449.2,310.1 450.3,313.0 451.4,339.2 452.6,339.4 453.7,340.4 454.8,346.3 455.9,341.6 457.0,341.5 458.2,340.4 459.3,341.6 460.4,341.2 461.5,339.2 462.7,339.8 463.8,340.3 464.9,340.2 466.0,340.3 467.2,340.0 468.3,337.1 469.4,339.8 470.5,340.4 471.7,334.4 472.8,336.0 473.9,331.0 475.0,330.5 476.2,313.0 477.3,338.9 478.4,313.2 479.5,315.1 480.7,335.8 481.8,324.7 482.9,313.1 484.0,340.0 485.1,323.7 486.3,341.2 487.4,340.4 488.5,302.1 489.6,310.1 490.8,330.5 491.9,330.9 493.0,324.0 494.1,315.1 495.3,340.3 496.4,326.4 497.5,339.5 498.6,336.8 499.8,335.0 500.9,314.4 502.0,313.2 503.1,303.3 504.3,307.3 505.4,310.2 506.5,313.8 507.6,337.1 508.8,339.4 509.9,334.9 511.0,340.1 512.1,339.2 513.2,340.4 514.4,339.4 515.5,339.4 516.6,330.5 517.7,340.3 518.9,339.9 520.0,340.0 521.1,340.1 522.2,340.1 523.4,340.1 524.5,340.0 525.6,339.4 526.7,332.1 527.9,331.9 529.0,310.2 530.1,348.6 531.2,340.7 532.4,349.6 533.5,340.4 534.6,334.3 535.7,305.7 536.9,339.6 538.0,339.5 539.1,320.6 540.2,340.4 541.3,339.5 542.5,340.0 543.6,338.9 544.7,335.8 545.8,335.7 547.0,339.2 548.1,340.4 549.2,340.4 550.3,338.5 551.5,339.7 552.6,315.3 553.7,337.3 554.8,315.0 556.0,338.0 557.1,310.2 558.2,314.6 559.3,315.5 560.5,335.3 561.6,339.2 562.7,337.8 563.8,340.7 565.0,323.3 566.1,340.1 567.2,341.6 568.3,336.7 569.4,330.9 570.6,340.0 571.7,336.6 572.8,337.1 573.9,340.1 575.1,339.9 576.2,339.2 577.3,336.0 578.4,340.3 579.6,340.2 580.7,337.1 581.8,338.6 582.9,315.5 584.1,335.8 585.2,313.0 586.3,313.2 587.4,310.1 588.6,335.7 589.7,332.1 590.8,335.7 591.9,340.3 593.1,336.8 594.2,340.4 595.3,340.0 596.4,339.5 597.6,340.3 598.7,340.1 599.8,340.4 600.9,339.2 602.0,340.4 603.2,338.6 604.3,340.0 605.4,340.4 606.5,338.1 607.7,287.9 608.8,339.2 609.9,340.4 611.0,324.4 612.2,336.4 613.3,335.0 614.4,337.1 615.5,339.5 616.7,340.0 617.8,340.3 618.9,340.1 620.0,340.0 621.2,340.2 622.3,340.4 623.4,340.3 624.5,340.4 625.7,340.3 626.8,340.1 627.9,340.3 629.0,340.4 630.1,340.1 631.3,339.5 632.4,341.1 633.5,339.5 634.6,339.8 635.8,310.1 636.9,324.7 638.0,314.2 639.1,305.3 640.3,315.2 641.4,335.8 642.5,315.5 643.6,335.8 644.8,338.4 645.9,340.1 647.0,339.2 648.1,339.5 649.3,336.2 650.4,340.1 651.5,340.3 652.6,340.3 653.8,310.1 654.9,339.8 656.0,336.3 657.1,340.4 658.2,339.2 659.4,340.4 660.5,339.2 661.6,340.3 662.7,315.4 663.9,339.7 665.0,311.2 666.1,313.2 667.2,339.2 668.4,336.2 669.5,339.5 670.6,335.0 671.7,339.7 672.9,310.1 674.0,336.0 675.1,334.1 676.2,339.2 677.4,300.3 678.5,340.0 679.6,315.4 680.7,315.5 681.9,339.2 683.0,323.4 684.1,323.5 685.2,339.5 686.3,340.3 687.5,339.5 688.6,339.5 689.7,335.7 690.8,313.0 692.0,313.0 693.1,315.0 694.2,339.2 695.3,315.5 696.5,315.2 697.6,332.5 698.7,337.3 699.8,340.4 701.0,340.0 702.1,339.4 703.2,340.0 704.3,339.9 705.5,336.0 706.6,338.9 707.7,336.9 708.8,340.0 710.0,339.5 711.1,339.2 712.2,336.0 713.3,340.1 714.4,340.3 715.6,337.3 716.7,311.8 717.8,331.3 718.9,310.1 720.1,311.2 721.2,313.8 722.3,311.2 723.4,340.0 724.6,332.2 725.7,339.2 726.8,338.5 727.9,339.5 729.1,340.4 730.2,340.0 731.3,339.3 732.4,339.2 733.6,340.1 734.7,336.0 735.8,337.1 736.9,340.3 738.1,339.5 739.2,340.0 740.3,340.3 741.4,332.7 742.6,340.4 743.7,339.0 744.8,324.8 745.9,307.6 747.0,315.0 748.2,332.7 749.3,332.0 750.4,328.7 751.5,303.3 752.7,315.5 753.8,336.5 754.9,336.0 756.0,340.0 757.2,329.7 758.3,329.0 759.4,335.7 760.5,339.2 761.7,336.0 762.8,340.0 763.9,329.1 765.0,338.5 766.2,339.5 767.3,330.9 768.4,313.9 769.5,320.5 770.7,339.2 771.8,313.3 772.9,311.3 774.0,313.0 775.1,315.0 776.3,317.4 777.4,336.3 778.5,337.3 779.6,323.0 780.8,340.0 781.9,340.4 783.0,340.4 784.1,340.4 785.3,340.0 786.4,339.2 787.5,340.3 788.6,335.7 789.8,339.7 790.9,340.0 792.0,339.6 793.1,339.2 794.3,340.4 795.4,336.0 796.5,339.2 797.6,320.5 798.8,336.0 799.9,310.1 801.0,329.6 802.1,311.3 803.2,337.1 804.4,313.8 805.5,339.2 806.6,339.2 807.7,336.5 808.9,315.5 810.0,339.2 811.1,335.3 812.2,332.4 813.4,329.0 814.5,335.3 815.6,309.8 816.7,317.4 817.9,339.2 819.0,337.3 820.1,334.9 821.2,339.2 822.4,328.0 823.5,313.1 824.6,315.2 825.7,309.9 826.9,310.1 828.0,313.0 829.1,315.5 830.2,315.0 831.3,324.7 832.5,330.9 833.6,336.1 834.7,336.2 835.8,310.1 837.0,310.0 838.1,339.2 839.2,336.3 840.3,310.1 841.5,340.1 842.6,313.1 843.7,339.4 844.8,340.1 846.0,338.2 847.1,338.3 848.2,313.0 849.3,340.4 850.5,335.7 851.6,315.2 852.7,335.3 853.8,332.0 855.0,310.7 856.1,311.2 857.2,329.0 858.3,301.3 859.4,339.5 860.6,340.4 861.7,340.4 862.8,336.9 863.9,340.1 865.1,340.4 866.2,309.0 867.3,313.0 868.4,340.4 869.6,337.1 870.7,339.8 871.8,336.6 872.9,340.1 874.1,337.1 875.2,326.6 876.3,340.3 877.4,337.2 878.6,315.3 879.7,313.1 880.8,310.1 881.9,310.7 883.1,310.4 884.2,329.8 885.3,336.0 886.4,339.9 887.6,337.0 888.7,340.4 889.8,340.4 890.9,340.4 892.0,327.6 893.2,340.3 894.3,336.4 895.4,340.4 896.5,349.6 897.7,349.6 898.8,349.6 899.9,340.0 901.0,340.4 902.2,340.4 903.3,339.7 904.4,316.5 905.5,313.8 906.7,313.0 907.8,312.9 908.9,335.6 910.0,313.4 911.2,342.9 912.3,340.4 913.4,340.4 914.5,340.4 915.7,337.1 916.8,337.3 917.9,339.5 919.0,335.8 920.1,340.0 921.3,340.4 922.4,340.3 923.5,317.4 924.6,339.2 925.8,337.3 926.9,339.2 928.0,337.1 929.1,336.3 930.3,315.5 931.4,313.4 932.5,319.0 933.6,332.3 934.8,309.5 935.9,346.3 937.0,347.1 938.1,340.4 939.3,340.0 940.4,340.0 941.5,329.7 942.6,322.9 943.8,351.6 944.9,340.0 946.0,340.3" fill="none" stroke="#059669" stroke-width="2.2" stroke-linejoin="round" stroke-linecap="round"/>
<polyline points="76.0,211.5 77.1,219.5 78.2,226.3 79.4,231.4 80.5,239.6 81.6,231.3 82.7,226.2 83.9,219.7 85.0,226.3 86.1,226.2 87.2,202.2 88.4,226.4 89.5,227.6 90.6,226.2 91.7,229.2 92.9,230.6 94.0,214.1 95.1,219.5 96.2,239.2 97.4,219.3 98.5,218.5 99.6,202.2 100.7,223.2 101.9,226.1 103.0,226.3 104.1,223.3 105.2,226.2 106.3,215.9 107.5,219.4 108.6,202.5 109.7,202.2 110.8,162.0 112.0,171.9 113.1,171.9 114.2,212.2 115.3,218.6 116.5,212.2 117.6,210.7 118.7,236.4 119.8,244.3 121.0,233.2 122.1,226.2 123.2,226.7 124.3,226.3 125.5,230.6 126.6,223.2 127.7,216.4 128.8,224.4 130.0,216.8 131.1,239.6 132.2,237.0 133.3,231.9 134.4,232.5 135.6,233.2 136.7,226.3 137.8,226.3 138.9,227.4 140.1,230.8 141.2,234.5 142.3,226.3 143.4,239.6 144.6,243.7 145.7,236.7 146.8,248.0 147.9,242.7 149.1,243.7 150.2,242.1 151.3,239.5 152.4,255.2 153.6,208.8 154.7,239.9 155.8,240.9 156.9,237.8 158.1,252.1 159.2,246.0 160.3,249.7 161.4,244.4 162.6,235.4 163.7,236.4 164.8,231.3 165.9,226.4 167.0,232.7 168.2,236.5 169.3,249.6 170.4,241.8 171.5,244.4 172.7,234.5 173.8,233.2 174.9,233.5 176.0,219.4 177.2,242.2 178.3,226.3 179.4,235.0 180.5,234.5 181.7,246.3 182.8,252.4 183.9,226.3 185.0,230.9 186.2,245.7 187.3,240.3 188.4,232.8 189.5,238.0 190.7,239.6 191.8,236.3 192.9,226.3 194.0,226.4 195.1,233.2 196.3,236.3 197.4,245.1 198.5,240.8 199.6,249.7 200.8,233.5 201.9,233.6 203.0,240.4 204.1,239.6 205.3,239.8 206.4,244.6 207.5,243.7 208.6,243.7 209.8,236.4 210.9,202.7 212.0,226.3 213.1,226.3 214.3,219.4 215.4,232.6 216.5,236.4 217.6,234.5 218.8,236.4 219.9,233.8 221.0,239.5 222.1,239.5 223.2,236.4 224.4,233.2 225.5,241.9 226.6,242.1 227.7,240.8 228.9,231.0 230.0,229.9 231.1,240.2 232.2,229.6 233.4,235.4 234.5,234.5 235.6,209.6 236.7,226.3 237.9,226.2 239.0,226.2 240.1,228.0 241.2,226.3 242.4,239.6 243.5,239.6 244.6,235.0 245.7,233.2 246.9,238.8 248.0,239.5 249.1,240.0 250.2,255.1 251.3,236.4 252.5,236.4 253.6,244.4 254.7,244.3 255.8,236.4 257.0,235.3 258.1,228.6 259.2,226.3 260.3,244.4 261.5,226.3 262.6,202.1 263.7,234.7 264.8,236.4 266.0,226.3 267.1,231.7 268.2,236.3 269.3,239.6 270.5,236.3 271.6,235.8 272.7,236.9 273.8,226.3 275.0,241.6 276.1,237.0 277.2,226.3 278.3,235.7 279.4,241.8 280.6,243.8 281.7,251.4 282.8,227.0 283.9,226.2 285.1,227.4 286.2,237.9 287.3,250.4 288.4,230.8 289.6,226.1 290.7,226.3 291.8,228.1 292.9,225.5 294.1,232.5 295.2,226.3 296.3,231.2 297.4,214.7 298.6,226.2 299.7,162.0 300.8,172.9 301.9,202.4 303.1,213.0 304.2,204.0 305.3,226.3 306.4,235.4 307.6,230.9 308.7,229.6 309.8,219.6 310.9,219.4 312.0,226.3 313.2,202.4 314.3,230.0 315.4,202.2 316.5,202.2 317.7,226.3 318.8,213.1 319.9,219.8 321.0,227.4 322.2,226.3 323.3,227.4 324.4,227.1 325.5,229.6 326.7,226.3 327.8,236.4 328.9,211.5 330.0,224.5 331.2,236.4 332.3,235.2 333.4,226.2 334.5,231.3 335.7,233.2 336.8,226.3 337.9,205.1 339.0,223.3 340.1,226.1 341.3,261.2 342.4,222.6 343.5,217.1 344.6,243.3 345.8,218.0 346.9,231.3 348.0,236.6 349.1,244.4 350.3,244.0 351.4,236.3 352.5,236.3 353.6,230.4 354.8,226.3 355.9,243.7 357.0,234.7 358.1,234.0 359.3,221.2 360.4,213.5 361.5,231.0 362.6,184.3 363.8,234.1 364.9,217.5 366.0,225.0 367.1,226.3 368.2,230.6 369.4,217.5 370.5,244.0 371.6,217.8 372.7,224.4 373.9,202.1 375.0,199.5 376.1,197.6 377.2,219.4 378.4,213.2 379.5,226.3 380.6,172.0 381.7,223.3 382.9,207.7 384.0,208.2 385.1,202.2 386.2,224.6 387.4,231.0 388.5,226.3 389.6,170.6 390.7,226.2 391.9,234.6 393.0,226.1 394.1,226.3 395.2,178.2 396.3,202.7 397.5,229.2 398.6,234.7 399.7,226.3 400.8,212.4 402.0,236.4 403.1,235.7 404.2,227.3 405.3,226.3 406.5,223.2 407.6,233.2 408.7,226.2 409.8,255.3 411.0,234.3 412.1,234.5 413.2,233.2 414.3,236.2 415.5,236.2 416.6,227.4 417.7,226.1 418.8,226.2 420.0,226.2 421.1,226.2 422.2,217.6 423.3,226.3 424.4,217.5 425.6,216.0 426.7,226.2 427.8,236.2 428.9,217.6 430.1,226.2 431.2,221.8 432.3,212.2 433.4,202.7 434.6,217.8 435.7,226.2 436.8,217.8 437.9,235.6 439.1,226.2 440.2,208.3 441.3,209.7 442.4,226.2 443.6,226.3 444.7,226.2 445.8,236.4 446.9,226.3 448.1,237.9 449.2,226.1 450.3,225.9 451.4,226.3 452.6,226.9 453.7,234.2 454.8,251.6 455.9,236.4 457.0,238.9 458.2,242.7 459.3,236.3 460.4,232.8 461.5,218.3 462.7,234.8 463.8,236.3 464.9,236.3 466.0,236.2 467.2,231.3 468.3,228.3 469.4,234.3 470.5,243.9 471.7,223.2 472.8,226.2 473.9,226.3 475.0,231.5 476.2,229.3 477.3,229.6 478.4,212.8 479.5,216.0 480.7,223.3 481.8,229.4 482.9,216.6 484.0,226.2 485.1,218.4 486.3,227.1 487.4,236.3 488.5,171.9 489.6,202.2 490.8,226.2 491.9,202.9 493.0,215.1 494.1,217.4 495.3,236.2 496.4,224.5 497.5,231.3 498.6,226.2 499.8,218.5 500.9,215.1 502.0,202.4 503.1,194.7 504.3,197.0 505.4,211.5 506.5,202.4 507.6,217.8 508.8,231.0 509.9,216.0 511.0,236.4 512.1,226.0 513.2,225.5 514.4,226.3 515.5,221.8 516.6,226.1 517.7,243.7 518.9,229.2 520.0,234.6 521.1,236.3 522.2,229.7 523.4,236.3 524.5,239.5 525.6,243.7 526.7,226.4 527.9,227.1 529.0,226.3 530.1,236.3 531.2,230.8 532.4,226.3 533.5,234.8 534.6,229.6 535.7,92.4 536.9,217.8 538.0,226.2 539.1,216.6 540.2,234.6 541.3,233.2 542.5,226.3 543.6,226.3 544.7,226.2 545.8,223.2 547.0,226.1 548.1,236.3 549.2,241.6 550.3,236.3 551.5,234.8 552.6,216.6 553.7,226.3 554.8,226.2 556.0,241.2 557.1,235.4 558.2,219.9 559.3,215.3 560.5,233.2 561.6,229.7 562.7,233.6 563.8,236.5 565.0,202.7 566.1,236.4 567.2,236.4 568.3,219.5 569.4,223.3 570.6,231.0 571.7,223.2 572.8,222.6 573.9,229.9 575.1,235.0 576.2,236.2 577.3,226.2 578.4,240.9 579.6,243.6 580.7,228.0 581.8,239.8 582.9,226.2 584.1,230.9 585.2,214.6 586.3,217.5 587.4,217.5 588.6,226.2 589.7,226.2 590.8,219.8 591.9,237.3 593.1,227.1 594.2,234.6 595.3,226.3 596.4,226.3 597.6,239.8 598.7,219.7 599.8,236.7 600.9,227.4 602.0,239.8 603.2,226.2 604.3,234.9 605.4,234.5 606.5,226.2 607.7,170.5 608.8,226.2 609.9,227.4 611.0,227.6 612.2,229.6 613.3,226.3 614.4,226.2 615.5,242.9 616.7,226.3 617.8,233.2 618.9,226.3 620.0,231.4 621.2,229.6 622.3,241.9 623.4,235.2 624.5,239.8 625.7,239.5 626.8,235.4 627.9,239.6 629.0,236.7 630.1,243.7 631.3,226.3 632.4,244.4 633.5,215.4 634.6,228.0 635.8,208.2 636.9,216.5 638.0,226.3 639.1,204.4 640.3,226.2 641.4,226.0 642.5,226.3 643.6,234.6 644.8,226.3 645.9,239.5 647.0,226.3 648.1,229.9 649.3,225.3 650.4,226.3 651.5,237.8 652.6,239.0 653.8,202.7 654.9,233.5 656.0,233.2 657.1,238.5 658.2,233.2 659.4,235.2 660.5,219.4 661.6,235.7 662.7,215.4 663.9,233.2 665.0,225.8 666.1,222.5 667.2,228.0 668.4,226.3 669.5,226.3 670.6,222.5 671.7,232.3 672.9,198.3 674.0,223.0 675.1,214.6 676.2,234.6 677.4,171.9 678.5,233.2 679.6,202.2 680.7,222.8 681.9,219.5 683.0,212.6 684.1,218.5 685.2,242.7 686.3,234.6 687.5,226.2 688.6,230.9 689.7,226.2 690.8,212.6 692.0,226.3 693.1,209.7 694.2,226.2 695.3,202.4 696.5,202.2 697.6,204.2 698.7,226.3 699.8,238.1 701.0,226.3 702.1,219.4 703.2,233.7 704.3,234.7 705.5,222.7 706.6,226.2 707.7,217.5 708.8,234.4 710.0,233.2 711.1,234.5 712.2,239.6 713.3,243.7 714.4,232.5 715.6,231.0 716.7,221.5 717.8,230.7 718.9,230.9 720.1,206.5 721.2,223.3 722.3,218.3 723.4,229.7 724.6,227.4 725.7,228.1 726.8,235.2 727.9,234.6 729.1,226.3 730.2,232.3 731.3,239.5 732.4,226.6 733.6,240.3 734.7,227.9 735.8,234.5 736.9,239.6 738.1,239.5 739.2,236.5 740.3,240.8 741.4,214.8 742.6,231.0 743.7,236.3 744.8,225.7 745.9,226.2 747.0,225.1 748.2,225.2 749.3,217.8 750.4,226.3 751.5,174.3 752.7,212.9 753.8,226.2 754.9,216.7 756.0,220.7 757.2,234.7 758.3,218.5 759.4,217.6 760.5,235.3 761.7,224.9 762.8,230.8 763.9,226.2 765.0,226.2 766.2,233.2 767.3,223.2 768.4,214.1 769.5,210.8 770.7,235.7 771.8,226.0 772.9,227.3 774.0,221.7 775.1,226.1 776.3,214.5 777.4,231.9 778.5,226.5 779.6,226.2 780.8,236.4 781.9,233.0 783.0,226.2 784.1,239.5 785.3,226.7 786.4,226.3 787.5,240.1 788.6,217.6 789.8,233.2 790.9,230.6 792.0,237.2 793.1,226.7 794.3,228.2 795.4,225.1 796.5,226.3 797.6,227.4 798.8,226.3 799.9,221.2 801.0,211.2 802.1,197.3 803.2,227.5 804.4,214.8 805.5,232.3 806.6,226.2 807.7,226.3 808.9,202.3 810.0,210.9 811.1,226.3 812.2,220.5 813.4,223.3 814.5,226.3 815.6,191.1 816.7,218.2 817.9,226.3 819.0,233.2 820.1,227.4 821.2,236.4 822.4,221.9 823.5,219.4 824.6,236.3 825.7,200.9 826.9,226.2 828.0,226.5 829.1,219.4 830.2,226.2 831.3,226.3 832.5,226.3 833.6,224.1 834.7,218.5 835.8,202.6 837.0,185.2 838.1,226.3 839.2,226.7 840.3,202.9 841.5,230.0 842.6,229.5 843.7,244.4 844.8,243.2 846.0,240.5 847.1,239.9 848.2,194.2 849.3,248.1 850.5,211.2 851.6,236.4 852.7,244.3 853.8,243.5 855.0,226.4 856.1,176.0 857.2,226.2 858.3,197.1 859.4,232.1 860.6,239.4 861.7,244.3 862.8,223.3 863.9,231.2 865.1,259.7 866.2,171.9 867.3,202.7 868.4,259.8 869.6,226.3 870.7,229.1 871.8,226.2 872.9,239.9 874.1,226.2 875.2,233.2 876.3,219.4 877.4,183.1 878.6,226.3 879.7,207.1 880.8,212.7 881.9,211.2 883.1,202.4 884.2,226.7 885.3,230.4 886.4,246.6 887.6,215.9 888.7,243.9 889.8,227.6 890.9,235.0 892.0,233.2 893.2,244.3 894.3,232.4 895.4,240.8 896.5,251.3 897.7,248.7 898.8,255.5 899.9,239.5 901.0,241.8 902.2,244.2 903.3,201.9 904.4,197.1 905.5,227.4 906.7,220.8 907.8,226.4 908.9,219.4 910.0,219.5 911.2,236.3 912.3,239.5 913.4,240.3 914.5,249.2 915.7,241.5 916.8,240.3 917.9,233.8 919.0,209.7 920.1,239.5 921.3,236.3 922.4,244.2 923.5,215.8 924.6,226.3 925.8,239.6 926.9,230.7 928.0,227.6 929.1,233.2 930.3,217.6 931.4,225.1 932.5,219.6 933.6,226.2 934.8,233.0 935.9,227.8 937.0,230.8 938.1,261.2 939.3,233.2 940.4,239.9 941.5,239.0 942.6,226.3 943.8,234.9 944.9,226.3 946.0,226.3" fill="none" stroke="#d97706" stroke-width="2.2" stroke-linejoin="round" stroke-linecap="round"/>
<line x1="76" y1="70" x2="94" y2="70" stroke="#2563eb" stroke-width="3"/>
<text x="100" y="74" font-family="Arial, sans-serif" font-size="11" fill="#0f172a">avg fee</text>
<line x1="179" y1="70" x2="197" y2="70" stroke="#059669" stroke-width="3"/>
<text x="203" y="74" font-family="Arial, sans-serif" font-size="11" fill="#0f172a">median fee</text>
<line x1="303" y1="70" x2="321" y2="70" stroke="#d97706" stroke-width="3"/>
<text x="327" y="74" font-family="Arial, sans-serif" font-size="11" fill="#0f172a">p90 fee</text>
<text x="28" y="404" font-family="Arial, sans-serif" font-size="11" fill="#64748b">Source: hourly_features.csv</text>
</svg>