<svg xmlns="http://www.w3.org/2000/svg" width="980" height="420" viewBox="0 0 980 420">
<rect width="100%" height="100%" fill="#ffffff"/>
<text x="28" y="34" font-family="Arial, sans-serif" font-size="20" font-weight="700" fill="#0f172a">Hourly fee trend</text>
<text x="28" y="56" font-family="Arial, sans-serif" font-size="12" fill="#64748b">Average, median, and p90 total fee by hour</text>
<line x1="76" y1="362.0" x2="946" y2="362.0" stroke="#e2e8f0" stroke-width="1"/>
<text x="68" y="366.0" font-family="Arial, sans-serif" font-size="10" text-anchor="end" fill="#64748b">-312K</text>
<line x1="76" y1="292.0" x2="946" y2="292.0" stroke="#e2e8f0" stroke-width="1"/>
<text x="68" y="296.0" font-family="Arial, sans-serif" font-size="10" text-anchor="end" fill="#64748b">2.7M</text>
<line x1="76" y1="222.0" x2="946" y2="222.0" stroke="#e2e8f0" stroke-width="1"/>
<text x="68" y="226.0" font-family="Arial, sans-serif" font-size="10" text-anchor="end" fill="#64748b">5.7M</text>
<line x1="76" y1="152.0" x2="946" y2="152.0" stroke="#e2e8f0" stroke-width="1"/>
<text x="68" y="156.0" font-family="Arial, sans-serif" font-size="10" text-anchor="end" fill="#64748b">8.7M</text>
<line x1="76" y1="82.0" x2="946" y2="82.0" stroke="#e2e8f0" stroke-width="1"/>
<text x="68" y="86.0" font-family="Arial, sans-serif" font-size="10" text-anchor="end" fill="#64748b">11.7M</text>
<line x1="76" y1="362" x2="946" y2="362" stroke="#334155" stroke-width="1"/>
<line x1="76" y1="82" x2="76" y2="362" stroke="#334155" stroke-width="1"/>
<text x="76" y="72" font-family="Arial, sans-serif" font-size="11" fill="#64748b">nanoton</text>
<line x1="76.0" y1="362" x2="76.0" y2="366" stroke="#334155" stroke-width="1"/>
<text x="76.0" y="380" font-family="Arial, sans-serif" font-size="10" text-anchor="middle" fill="#64748b">0</text>
<line x1="511.5" y1="362" x2="511.5" y2="366" stroke="#334155" stroke-width="1"/>
<text x="511.5" y="380" font-family="Arial, sans-serif" font-size="10" text-anchor="middle" fill="#64748b">410</text>
<line x1="946.0" y1="362" x2="946.0" y2="366" stroke="#334155" stroke-width="1"/>
<text x="946.0" y="380" font-family="Arial, sans-serif" font-size="10" text-anchor="middle" fill="#64748b">819</text>
<polyline points="76.0,292.0 77.1,295.8 78.1,297.2 79.2,299.3 80.2,306.1 81.3,298.4 82.4,299.4 83.4,295.8 84.5,300.2 85.6,300.0 86.6,288.9 87.7,300.8 88.7,300.9 89.8,298.6 90.9,301.5 91.9,301.7 93.0,293.7 94.1,293.7 95.1,302.6 96.2,292.3 97.2,290.4 98.3,288.5 99.4,295.1 100.4,295.4 101.5,297.3 102.6,293.3 103.6,298.9 104.7,291.8 105.7,294.5 106.8,289.5 107.9,290.2 108.9,274.2 110.0,285.8 111.1,286.5 112.1,295.8 113.2,301.2 114.2,294.1 115.3,296.1 116.4,305.9 117.4,308.8 118.5,303.4 119.6,298.2 120.6,299.9 121.7,299.2 122.7,305.7 123.8,298.6 124.9,295.7 125.9,297.7 127.0,299.9 128.1,304.3 129.1,304.4 130.2,303.2 131.2,301.6 132.3,304.6 133.4,303.5 134.4,300.7 135.5,300.4 136.5,304.1 137.6,300.4 138.7,302.6 139.7,308.1 140.8,310.0 141.9,307.7 142.9,308.4 144.0,310.4 145.0,307.2 146.1,306.8 147.2,303.3 148.2,309.8 149.3,291.9 150.4,307.7 151.4,307.6 152.5,307.6 153.5,312.6 154.6,308.4 155.7,311.6 156.7,310.4 157.8,306.8 158.9,306.7 159.9,304.5 161.0,304.7 162.0,302.6 163.1,306.4 164.2,308.7 165.2,308.2 166.3,309.4 167.4,306.3 168.4,304.2 169.5,304.0 170.5,299.8 171.6,306.2 172.7,298.3 173.7,300.5 174.8,301.6 175.9,305.2 176.9,312.9 178.0,301.4 179.0,301.8 180.1,310.2 181.2,308.8 182.2,301.5 183.3,305.5 184.4,306.4 185.4,303.9 186.5,301.7 187.5,298.7 188.6,299.9 189.7,303.2 190.7,309.4 191.8,308.7 192.8,308.7 193.9,304.4 195.0,303.2 196.0,305.4 197.1,305.2 198.2,305.3 199.2,309.6 200.3,310.2 201.3,308.6 202.4,302.3 203.5,288.0 204.5,302.9 205.6,300.0 206.7,297.3 207.7,300.8 208.8,306.8 209.8,302.8 210.9,306.2 212.0,303.4 213.0,306.2 214.1,308.1 215.2,306.2 216.2,302.0 217.3,306.1 218.3,309.3 219.4,303.7 220.5,303.0 221.5,304.4 222.6,304.6 223.7,300.1 224.7,299.7 225.8,299.2 226.8,290.6 227.9,298.1 229.0,297.6 230.0,296.7 231.1,300.9 232.2,300.3 233.2,305.9 234.3,305.3 235.3,305.1 236.4,300.4 237.5,302.4 238.5,307.0 239.6,305.8 240.7,313.4 241.7,307.0 242.8,305.6 243.8,308.3 244.9,308.2 246.0,303.2 247.0,305.1 248.1,302.0 249.2,302.9 250.2,301.5 251.3,300.0 252.3,291.8 253.4,297.3 254.5,301.8 255.5,297.8 256.6,304.0 257.6,303.8 258.7,304.3 259.8,303.9 260.8,304.1 261.9,305.0 263.0,301.4 264.0,306.9 265.1,304.2 266.1,300.5 267.2,304.1 268.3,308.0 269.3,307.4 270.4,308.0 271.5,299.7 272.5,302.9 273.6,299.1 274.6,305.1 275.7,301.5 276.8,300.7 277.8,296.9 278.9,299.4 280.0,299.6 281.0,295.0 282.1,301.2 283.1,299.1 284.2,299.9 285.3,295.4 286.3,299.1 287.4,279.1 288.5,285.4 289.5,296.4 290.6,296.9 291.6,295.6 292.7,302.0 293.8,305.5 294.8,303.7 295.9,303.4 297.0,299.1 298.0,296.5 299.1,297.8 300.1,292.6 301.2,293.2 302.3,291.8 303.3,291.2 304.4,300.9 305.5,293.2 306.5,298.0 307.6,301.0 308.6,305.0 309.7,303.7 310.8,303.3 311.8,303.5 312.9,302.1 313.9,304.8 315.0,297.1 316.1,299.0 317.1,305.7 318.2,305.5 319.3,300.8 320.3,305.1 321.4,304.7 322.4,300.2 323.5,289.9 324.6,294.9 325.6,295.4 326.7,304.9 327.8,296.8 328.8,298.2 329.9,306.9 330.9,296.1 332.0,301.7 333.1,306.4 334.1,309.8 335.2,306.7 336.3,305.3 337.3,301.9 338.4,305.1 339.4,300.5 340.5,304.3 341.6,306.3 342.6,304.3 343.7,300.6 344.8,295.6 345.8,301.2 346.9,287.4 347.9,303.4 349.0,295.1 350.1,299.2 351.1,300.7 352.2,298.7 353.3,295.7 354.3,311.7 355.4,292.8 356.4,296.8 357.5,282.8 358.6,295.8 359.6,294.5 360.7,296.2 361.8,292.2 362.8,302.3 363.9,281.0 364.9,298.5 366.0,293.0 367.1,292.7 368.1,284.4 369.2,299.5 370.2,301.6 371.3,299.9 372.4,289.6 373.4,300.3 374.5,305.6 375.6,299.0 376.6,296.8 377.7,280.9 378.7,285.3 379.8,301.8 380.9,301.1 381.9,299.3 383.0,294.6 384.1,304.4 385.1,304.3 386.2,299.9 387.2,298.0 388.3,298.6 389.4,302.6 390.4,299.4 391.5,312.8 392.6,300.7 393.6,304.7 394.7,302.4 395.7,304.2 396.8,305.5 397.9,299.0 398.9,295.6 400.0,300.5 401.1,296.3 402.1,303.0 403.2,293.8 404.2,298.8 405.3,295.1 406.4,291.2 407.4,296.3 408.5,305.8 409.6,292.3 410.6,301.6 411.7,297.1 412.7,294.3 413.8,292.8 414.9,298.1 415.9,298.3 417.0,299.1 418.1,300.8 419.1,294.1 420.2,287.4 421.2,291.3 422.3,301.2 423.4,295.7 424.4,302.2 425.5,304.3 426.5,300.4 427.6,303.8 428.7,296.4 429.7,298.3 430.8,304.0 431.9,302.9 432.9,304.2 434.0,310.0 435.0,308.1 436.1,307.4 437.2,307.8 438.2,305.6 439.3,305.7 440.4,299.6 441.4,302.4 442.5,304.3 443.5,304.6 444.6,305.5 445.7,303.6 446.7,300.6 447.8,305.7 448.9,308.4 449.9,298.5 451.0,300.2 452.0,299.3 453.1,300.9 454.2,299.1 455.2,302.3 456.3,288.4 457.4,295.5 458.4,296.0 459.5,299.9 460.5,292.5 461.6,299.6 462.7,295.8 463.7,300.0 464.8,305.5 465.9,283.3 466.9,291.0 468.0,300.1 469.0,296.4 470.1,294.6 471.2,295.9 472.2,305.6 473.3,298.1 474.4,303.0 475.4,298.0 476.5,296.8 477.5,294.1 478.6,292.9 479.7,287.9 480.7,288.9 481.8,295.4 482.8,293.8 483.9,298.7 485.0,304.3 486.0,298.0 487.1,305.4 488.2,299.9 489.2,299.0 490.3,300.6 491.3,298.4 492.4,297.8 493.5,306.8 494.5,303.2 495.6,305.8 496.7,304.2 497.7,304.7 498.8,304.0 499.8,305.8 500.9,303.0 502.0,301.3 503.0,298.5 504.1,296.2 505.2,306.3 506.2,304.0 507.3,305.0 508.3,304.1 509.4,299.7 510.5,258.0 511.5,292.2 512.6,299.7 513.7,297.5 514.7,302.3 515.8,302.9 516.8,301.1 517.9,300.6 519.0,300.9 520.0,297.2 521.1,300.7 522.2,306.9 523.2,307.8 524.3,302.1 525.3,304.0 526.4,296.3 527.5,303.5 528.5,298.1 529.6,306.1 530.7,300.3 531.7,296.8 532.8,296.3 533.8,302.2 534.9,302.2 536.0,301.9 537.0,305.8 538.1,293.8 539.2,304.8 540.2,307.3 541.3,296.7 542.3,298.7 543.4,304.1 544.5,297.1 545.5,300.7 546.6,305.2 547.6,302.9 548.7,305.1 549.8,302.0 550.8,307.4 551.9,306.9 553.0,302.1 554.0,304.5 555.1,298.3 556.1,301.4 557.2,293.5 558.3,293.2 559.3,293.3 560.4,300.5 561.5,299.7 562.5,300.1 563.6,302.8 564.6,300.9 565.7,306.6 566.8,301.5 567.8,301.8 568.9,306.0 570.0,300.4 571.0,305.7 572.1,300.9 573.1,307.7 574.2,300.4 575.3,305.7 576.3,304.6 577.4,299.3 578.5,264.7 579.5,304.2 580.6,305.8 581.6,302.6 582.7,302.1 583.8,299.5 584.8,301.2 585.9,304.0 587.0,299.9 588.0,305.3 589.1,304.0 590.1,304.3 591.2,302.4 592.3,309.6 593.3,305.7 594.4,310.4 595.5,305.8 596.5,305.0 597.6,306.2 598.6,304.9 599.7,306.6 600.8,300.8 601.8,306.5 602.9,298.3 603.9,303.5 605.0,289.3 606.1,295.8 607.1,301.0 608.2,288.5 609.3,300.3 610.3,299.7 611.4,298.1 612.4,302.4 613.5,300.7 614.6,303.9 615.6,300.5 616.7,304.3 617.8,299.2 618.8,302.9 619.9,306.6 620.9,305.8 622.0,291.5 623.1,304.4 624.1,300.9 625.2,303.6 626.3,304.4 627.3,305.9 628.4,297.5 629.4,302.9 630.5,294.1 631.6,299.5 632.6,296.0 633.7,294.7 634.8,300.6 635.8,298.7 636.9,301.7 637.9,296.9 639.0,302.8 640.1,283.8 641.1,298.6 642.2,292.4 643.3,302.1 644.3,282.5 645.4,304.9 646.4,293.3 647.5,297.7 648.6,302.2 649.6,295.1 650.7,296.5 651.8,306.5 652.8,305.9 653.9,301.6 654.9,303.2 656.0,298.8 657.1,296.2 658.1,297.8 659.2,293.9 660.2,299.9 661.3,292.3 662.4,291.1 663.4,294.0 664.5,303.9 665.6,304.7 666.6,302.9 667.7,298.8 668.7,304.3 669.8,303.8 670.9,300.6 671.9,301.2 673.0,296.9 674.1,301.9 675.1,303.8 676.2,303.5 677.2,302.0 678.3,306.7 679.4,306.4 680.4,302.3 681.5,295.5 682.6,302.3 683.6,300.2 684.7,291.6 685.7,297.1 686.8,295.3 687.9,302.6 688.9,299.4 690.0,300.4 691.1,303.9 692.1,302.2 693.2,300.4 694.2,303.9 695.3,304.9 696.4,300.8 697.4,305.7 698.5,299.4 699.6,303.9 700.6,306.2 701.7,304.6 702.7,305.1 703.8,307.0 704.9,295.8 705.9,308.0 707.0,305.0 708.1,296.4 709.1,295.3 710.2,294.9 711.2,297.1 712.3,297.2 713.4,299.4 714.4,285.9 715.5,296.1 716.5,299.8 717.6,297.5 718.7,295.4 719.7,301.9 720.8,295.5 721.9,297.2 722.9,305.1 724.0,297.0 725.0,303.8 726.1,298.9 727.2,301.3 728.2,302.0 729.3,299.6 730.4,296.0 731.4,297.1 732.5,304.3 733.5,296.8 734.6,297.2 735.7,296.4 736.7,296.6 737.8,296.2 738.9,301.2 739.9,300.2 741.0,297.1 742.0,304.6 743.1,304.2 744.2,299.4 745.2,306.8 746.3,302.1 747.4,301.7 748.4,306.5 749.5,297.1 750.5,303.1 751.6,304.5 752.7,305.9 753.7,300.4 754.8,302.2 755.9,299.2 756.9,300.0 758.0,298.5 759.0,302.1 760.1,297.2 761.2,294.2 762.2,285.3 763.3,300.0 764.4,295.1 765.4,300.2 766.5,300.1 767.5,299.2 768.6,292.2 769.7,293.5 770.7,299.5 771.8,298.7 772.8,298.8 773.9,299.8 775.0,289.4 776.0,297.7 777.1,298.6 778.2,303.0 779.2,302.2 780.3,306.7 781.3,297.0 782.4,296.3 783.5,301.1 784.5,290.8 785.6,298.0 786.7,296.4 787.7,296.4 788.8,296.0 789.8,298.7 790.9,300.8 792.0,297.0 793.0,298.2 794.1,292.9 795.2,286.2 796.2,301.0 797.3,302.3 798.3,294.8 799.4,303.6 800.5,298.8 801.5,309.0 802.6,293.8 803.7,306.2 804.7,305.4 805.8,293.2 806.8,306.4 807.9,299.0 809.0,299.4 810.0,308.7 811.1,306.7 812.2,295.2 813.2,285.7 814.3,296.9 815.3,282.7 816.4,297.0 817.5,308.4 818.5,304.7 819.6,300.5 820.7,302.8 821.7,310.3 822.8,289.0 823.8,294.6 824.9,315.6 826.0,302.1 827.0,305.5 828.1,300.4 829.2,306.7 830.2,298.7 831.3,304.7 832.3,298.5 833.4,287.4 834.5,296.8 835.5,294.6 836.6,296.5 837.6,293.8 838.7,296.3 839.8,298.7 840.8,304.4 841.9,309.1 843.0,296.4 844.0,307.9 845.1,306.3 846.1,306.7 847.2,304.4 848.3,298.6 849.3,294.8 850.4,306.3 851.5,311.7 852.5,307.9 853.6,310.7 854.6,305.3 855.7,309.1 856.8,309.5 857.8,300.3 858.9,289.4 860.0,298.3 861.0,299.3 862.1,299.8 863.1,300.0 864.2,296.4 865.3,307.1 866.3,309.1 867.4,305.7 868.5,310.6 869.5,308.0 870.6,304.5 871.6,304.8 872.7,297.7 873.8,305.4 874.8,306.8 875.9,309.5 877.0,293.0 878.0,303.1 879.1,306.6 880.1,303.5 881.2,302.1 882.3,304.0 883.3,296.2 884.4,296.3 885.5,296.5 886.5,300.4 887.6,300.3 888.6,302.2 889.7,305.8 890.8,308.6 891.8,304.4 892.9,302.1 893.9,304.3 895.0,292.1 896.1,302.4 897.1,303.2 898.2,303.3 899.3,296.9 900.3,307.9 901.4,305.4 902.4,290.0 903.5,298.7 904.6,296.5 905.6,296.9 906.7,297.3 907.8,307.6 908.8,301.5 909.9,306.2 910.9,296.9 912.0,304.9 913.1,306.4 914.1,303.9 915.2,302.9 916.3,286.4 917.3,305.6 918.4,336.2 919.4,345.2 920.5,345.3 921.6,345.0 922.6,345.5 923.7,320.4 924.8,343.8 925.8,344.7 926.9,344.1 927.9,344.9 929.0,344.9 930.1,344.9 931.1,340.4 932.2,345.0 933.3,346.1 934.3,344.2 935.4,343.5 936.4,345.3 937.5,344.6 938.6,344.7 939.6,341.8 940.7,344.2 941.8,344.9 942.8,343.7 943.9,345.4 944.9,343.3 946.0,345.0" fill="none" stroke="#2563eb" stroke-width="2.2" stroke-linejoin="round" stroke-linecap="round"/>
<polyline points="76.0,312.8 77.1,326.4 78.1,335.5 79.2,336.0 80.2,336.5 81.3,336.1 82.4,335.8 83.4,332.2 84.5,336.1 85.6,336.1 86.6,321.8 87.7,336.1 88.7,335.6 89.8,332.2 90.9,335.9 91.9,335.3 93.0,322.5 94.1,331.9 95.1,333.8 96.2,311.9 97.2,304.2 98.3,307.2 99.4,321.9 100.4,316.8 101.5,311.8 102.6,331.3 103.6,334.9 104.7,313.8 105.7,336.4 106.8,320.4 107.9,331.9 108.9,285.0 110.0,301.6 111.1,304.6 112.1,309.6 113.2,332.8 114.2,313.8 115.3,311.9 116.4,336.3 117.4,336.5 118.5,331.2 119.6,311.9 120.6,311.9 121.7,313.8 122.7,342.3 123.8,336.3 124.9,310.2 125.9,311.6 127.0,336.4 128.1,336.8 129.1,335.6 130.2,334.9 131.2,335.4 132.3,336.0 133.4,332.9 134.4,336.0 135.5,332.3 136.5,335.7 137.6,336.1 138.7,335.6 139.7,336.4 140.8,336.3 141.9,336.4 142.9,345.5 144.0,337.2 145.0,336.4 146.1,336.4 147.2,332.2 148.2,345.5 149.3,337.1 150.4,337.7 151.4,337.7 152.5,336.5 153.5,339.6 154.6,337.6 155.7,337.6 156.7,336.6 157.8,336.4 158.9,336.4 159.9,336.0 161.0,336.4 162.0,336.1 163.1,336.0 164.2,336.4 165.2,336.5 166.3,336.5 167.4,335.8 168.4,336.4 169.5,336.3 170.5,332.2 171.6,336.2 172.7,313.5 173.7,331.1 174.8,332.5 175.9,335.3 176.9,345.5 178.0,332.0 179.0,335.3 180.1,336.4 181.2,337.7 182.2,336.1 183.3,336.2 184.4,336.3 185.4,336.0 186.5,332.4 187.5,331.9 188.6,333.0 189.7,334.5 190.7,336.4 191.8,336.3 192.8,336.4 193.9,335.5 195.0,336.3 196.0,336.3 197.1,333.0 198.2,333.8 199.2,337.7 200.3,345.5 201.3,337.6 202.4,336.5 203.5,311.4 204.5,336.4 205.6,335.9 206.7,336.1 207.7,335.3 208.8,336.4 209.8,335.5 210.9,336.4 212.0,336.3 213.0,336.4 214.1,336.4 215.2,336.2 216.2,334.6 217.3,336.3 218.3,336.4 219.4,336.4 220.5,335.6 221.5,335.7 222.6,331.7 223.7,311.9 224.7,300.0 225.8,311.1 226.8,305.7 227.9,311.5 229.0,311.5 230.0,329.1 231.1,334.4 232.2,335.3 233.2,335.3 234.3,336.3 235.3,336.4 236.4,335.3 237.5,336.2 238.5,336.1 239.6,336.1 240.7,345.5 241.7,336.4 242.8,336.3 243.8,336.4 244.9,336.4 246.0,335.3 247.0,335.9 248.1,332.4 249.2,321.1 250.2,300.0 251.3,335.5 252.3,328.3 253.4,336.1 254.5,333.2 255.5,333.2 256.6,332.8 257.6,336.2 258.7,335.9 259.8,336.1 260.8,336.1 261.9,332.2 263.0,332.2 264.0,336.4 265.1,335.8 266.1,332.4 267.2,336.0 268.3,336.4 269.3,336.0 270.4,336.4 271.5,331.9 272.5,335.8 273.6,316.9 274.6,336.1 275.7,300.0 276.8,335.5 277.8,331.1 278.9,334.0 280.0,333.3 281.0,311.9 282.1,333.2 283.1,333.7 284.2,336.0 285.3,325.2 286.3,335.4 287.4,297.0 288.5,299.9 289.5,328.5 290.6,332.6 291.6,332.2 292.7,333.7 293.8,336.1 294.8,336.1 295.9,335.5 297.0,326.2 298.0,316.4 299.1,309.9 300.1,306.7 301.2,300.0 302.3,307.8 303.3,306.7 304.4,333.2 305.5,306.8 306.5,318.4 307.6,334.9 308.6,336.4 309.7,335.6 310.8,336.4 311.8,336.4 312.9,335.2 313.9,336.4 315.0,321.1 316.1,321.1 317.1,335.5 318.2,335.3 319.3,334.9 320.3,336.1 321.4,336.0 322.4,332.7 323.5,306.7 324.6,309.6 325.6,309.6 326.7,300.0 327.8,311.5 328.8,336.9 329.9,337.7 330.9,313.8 332.0,336.0 333.1,337.6 334.1,337.4 335.2,337.7 336.3,336.4 337.3,335.3 338.4,335.7 339.4,335.9 340.5,335.0 341.6,336.1 342.6,335.9 343.7,331.0 344.8,310.3 345.8,335.5 346.9,309.5 347.9,335.8 349.0,312.0 350.1,311.6 351.1,326.5 352.2,306.8 353.3,321.1 354.3,345.5 355.4,316.9 356.4,335.6 357.5,309.6 358.6,311.2 359.6,331.5 360.7,335.5 361.8,336.5 362.8,334.7 363.9,325.2 364.9,335.3 366.0,309.5 367.1,307.4 368.1,325.2 369.2,316.9 370.2,334.9 371.3,334.0 372.4,304.5 373.4,335.5 374.5,336.1 375.6,327.9 376.6,335.3 377.7,322.2 378.7,335.1 379.8,335.2 380.9,335.5 381.9,332.2 383.0,333.2 384.1,335.2 385.1,336.1 386.2,335.3 387.2,334.5 388.3,311.9 389.4,336.2 390.4,332.2 391.5,347.4 392.6,335.3 393.6,336.2 394.7,335.2 395.7,336.2 396.8,336.1 397.9,311.9 398.9,316.7 400.0,333.5 401.1,311.8 402.1,333.2 403.2,306.6 404.2,331.9 405.3,328.3 406.4,303.5 407.4,311.0 408.5,337.3 409.6,334.9 410.6,336.4 411.7,335.9 412.7,307.8 413.8,307.8 414.9,319.6 415.9,321.5 417.0,325.0 418.1,333.2 419.1,311.9 420.2,306.7 421.2,309.5 422.3,333.2 423.4,306.5 424.4,331.9 425.5,335.5 426.5,328.2 427.6,332.2 428.7,306.7 429.7,309.5 430.8,335.3 431.9,335.5 432.9,336.5 434.0,342.3 435.0,337.6 436.1,337.5 437.2,336.4 438.2,337.7 439.3,337.2 440.4,335.3 441.4,335.9 442.5,336.4 443.5,336.3 444.6,336.4 445.7,336.1 446.7,333.3 447.8,335.9 448.9,336.4 449.9,330.6 451.0,332.2 452.0,327.2 453.1,326.7 454.2,309.5 455.2,335.0 456.3,309.7 457.4,311.6 458.4,331.9 459.5,321.0 460.5,309.6 461.6,336.0 462.7,320.1 463.7,337.3 464.8,336.4 465.9,298.8 466.9,306.6 468.0,326.7 469.0,327.1 470.1,320.3 471.2,311.6 472.2,336.4 473.3,322.7 474.4,335.6 475.4,333.0 476.5,331.2 477.5,310.9 478.6,309.7 479.7,300.0 480.7,303.9 481.8,306.8 482.8,310.3 483.9,333.2 485.0,335.5 486.0,331.0 487.1,336.1 488.2,335.3 489.2,336.4 490.3,335.5 491.3,335.5 492.4,326.7 493.5,336.4 494.5,336.0 495.6,336.1 496.7,336.2 497.7,336.2 498.8,336.1 499.8,336.0 500.9,335.5 502.0,328.3 503.0,328.1 504.1,306.7 505.2,344.5 506.2,336.8 507.3,345.5 508.3,336.5 509.4,330.5 510.5,302.3 511.5,335.7 512.6,335.6 513.7,317.0 514.7,336.5 515.8,335.6 516.8,336.1 517.9,335.0 519.0,331.9 520.0,331.9 521.1,335.3 522.2,336.4 523.2,336.4 524.3,334.6 525.3,335.8 526.4,311.8 527.5,333.5 528.5,311.4 529.6,334.2 530.7,306.7 531.7,311.1 532.8,311.9 533.8,331.5 534.9,335.3 536.0,333.9 537.0,336.8 538.1,319.7 539.2,336.1 540.2,337.7 541.3,332.8 542.3,327.2 543.4,336.1 544.5,332.7 545.5,333.2 546.6,336.2 547.6,335.9 548.7,335.3 549.8,332.2 550.8,336.4 551.9,336.3 553.0,333.2 554.0,334.7 555.1,312.0 556.1,331.9 557.2,309.5 558.3,309.7 559.3,306.7 560.4,331.9 561.5,328.3 562.5,331.8 563.6,336.3 564.6,332.9 565.7,336.4 566.8,336.1 567.8,335.5 568.9,336.4 570.0,336.1 571.0,336.4 572.1,335.3 573.1,336.4 574.2,334.7 575.3,336.1 576.3,336.4 577.4,334.2 578.5,284.8 579.5,335.3 580.6,336.5 581.6,320.7 582.7,332.6 583.8,331.2 584.8,333.3 585.9,335.5 587.0,336.0 588.0,336.4 589.1,336.2 590.1,336.0 591.2,336.2 592.3,336.5 593.3,336.3 594.4,336.5 595.5,336.4 596.5,336.1 597.6,336.4 598.6,336.4 599.7,336.1 600.8,335.5 601.8,337.2 602.9,335.5 603.9,335.8 605.0,306.6 606.1,321.0 607.1,310.6 608.2,302.0 609.3,311.7 610.3,332.0 611.4,311.9 612.4,331.9 613.5,334.5 614.6,336.2 615.6,335.2 616.7,335.5 617.8,332.4 618.8,336.1 619.9,336.3 620.9,336.3 622.0,306.7 623.1,335.9 624.1,332.4 625.2,336.5 626.3,335.3 627.3,336.4 628.4,335.3 629.4,336.3 630.5,311.9 631.6,335.8 632.6,307.7 633.7,309.7 634.8,335.3 635.8,332.4 636.9,335.5 637.9,331.2 639.0,335.8 640.1,306.6 641.1,332.2 642.2,330.3 643.3,335.3 644.3,297.0 645.4,336.1 646.4,311.9 647.5,311.9 648.6,335.3 649.6,319.7 650.7,319.8 651.8,335.6 652.8,336.4 653.9,335.5 654.9,335.5 656.0,331.9 657.1,309.5 658.1,309.5 659.2,311.5 660.2,335.3 661.3,311.9 662.4,311.7 663.4,328.7 664.5,333.5 665.6,336.4 666.6,336.0 667.7,335.4 668.7,336.1 669.8,336.0 670.9,332.2 671.9,335.0 673.0,333.0 674.1,336.0 675.1,335.5 676.2,335.3 677.2,332.2 678.3,336.2 679.4,336.4 680.4,333.5 681.5,308.3 682.6,327.5 683.6,306.7 684.7,307.7 685.7,310.3 686.8,307.7 687.9,336.1 688.9,328.4 690.0,335.3 691.1,334.6 692.1,335.6 693.2,336.4 694.2,336.1 695.3,335.4 696.4,335.3 697.4,336.1 698.5,332.2 699.6,333.2 700.6,336.4 701.7,335.5 702.7,336.0 703.8,336.4 704.9,328.9 705.9,336.4 707.0,335.1 708.1,321.1 709.1,304.2 710.2,311.5 711.2,328.9 712.3,328.2 713.4,325.0 714.4,299.9 715.5,312.0 716.5,332.6 717.6,332.2 718.7,336.1 719.7,326.0 720.8,325.2 721.9,331.8 722.9,335.3 724.0,332.2 725.0,336.1 726.1,325.3 727.2,334.6 728.2,335.5 729.3,327.1 730.4,310.4 731.4,316.9 732.5,335.3 733.5,309.8 734.6,307.8 735.7,309.5 736.7,311.5 737.8,313.8 738.9,332.4 739.9,333.4 741.0,319.3 742.0,336.1 743.1,336.4 744.2,336.4 745.2,336.4 746.3,336.1 747.4,335.3 748.4,336.3 749.5,331.8 750.5,335.8 751.6,336.0 752.7,335.7 753.7,335.3 754.8,336.4 755.9,332.2 756.9,335.3 758.0,316.9 759.0,332.2 760.1,306.7 761.2,325.8 762.2,307.8 763.3,333.3 764.4,310.3 765.4,335.3 766.5,335.3 767.5,332.7 768.6,312.0 769.7,335.3 770.7,331.5 771.8,328.6 772.8,325.2 773.9,331.5 775.0,306.3 776.0,313.8 777.1,335.3 778.2,333.5 779.2,331.1 780.3,335.3 781.3,324.2 782.4,309.6 783.5,311.7 784.5,306.5 785.6,306.7 786.7,309.5 787.7,312.0 788.8,311.5 789.8,321.0 790.9,327.1 792.0,332.3 793.0,332.4 794.1,306.7 795.2,306.5 796.2,335.3 797.3,332.4 798.3,306.7 799.4,336.2 800.5,309.6 801.5,335.5 802.6,336.1 803.7,334.3 804.7,334.4 805.8,309.5 806.8,336.4 807.9,331.8 809.0,311.7 810.0,331.5 811.1,328.2 812.2,307.2 813.2,307.7 814.3,325.2 815.3,297.9 816.4,335.6 817.5,336.4 818.5,336.4 819.6,333.0 820.7,336.1 821.7,336.5 822.8,305.6 823.8,309.5 824.9,336.4 826.0,333.2 827.0,335.9 828.1,332.7 829.2,336.1 830.2,333.2 831.3,322.9 832.3,336.4 833.4,333.4 834.5,311.8 835.5,309.6 836.6,306.7 837.6,307.2 838.7,307.0 839.8,326.0 840.8,332.2 841.9,335.9 843.0,333.1 844.0,336.4 845.1,336.4 846.1,336.4 847.2,323.8 848.3,336.3 849.3,332.5 850.4,336.4 851.5,345.5 852.5,345.5 853.6,345.5 854.6,336.1 855.7,336.4 856.8,336.4 857.8,335.8 858.9,312.9 860.0,310.3 861.0,309.5 862.1,309.4 863.1,331.8 864.2,309.9 865.3,338.9 866.3,336.4 867.4,336.4 868.5,336.4 869.5,333.2 870.6,333.5 871.6,335.5 872.7,331.9 873.8,336.0 874.8,336.4 875.9,336.4 877.0,313.8 878.0,335.3 879.1,333.5 880.1,335.3 881.2,333.2 882.3,332.4 883.3,312.0 884.4,309.9 885.5,315.4 886.5,328.5 887.6,306.1 888.6,342.3 889.7,343.1 890.8,336.4 891.8,336.0 892.9,336.1 893.9,326.0 895.0,319.2 896.1,347.5 897.1,336.1 898.2,336.3 899.3,319.3 900.3,345.5 901.4,335.5 902.4,323.1 903.5,334.2 904.6,326.9 905.6,335.3 906.7,315.1 907.8,336.0 908.8,330.0 909.9,332.7 910.9,306.7 912.0,332.4 913.1,311.3 914.1,332.8 915.2,331.7 916.3,292.0 917.3,336.4 918.4,349.4 919.4,351.6 920.5,351.0 921.6,347.6 922.6,351.0 923.7,342.5 924.8,347.9 925.8,350.9 926.9,346.3 927.9,346.6 929.0,350.8 930.1,351.0 931.1,345.0 932.2,351.6 933.3,351.6 934.3,349.1 935.4,346.4 936.4,350.8 937.5,346.7 938.6,345.6 939.6,346.3 940.7,347.2 941.8,347.6 942.8,347.2 943.9,351.1 944.9,346.6 946.0,350.9" fill="none" stroke="#059669" stroke-width="2.2" stroke-linejoin="round" stroke-linecap="round"/>
<polyline points="76.0,209.6 77.1,217.4 78.1,224.1 79.2,229.2 80.2,237.2 81.3,229.1 82.4,224.0 83.4,217.7 84.5,224.2 85.6,224.1 86.6,200.5 87.7,224.2 88.7,225.4 89.8,224.1 90.9,227.0 91.9,228.4 93.0,212.2 94.1,217.4 95.1,236.9 96.2,217.3 97.2,216.5 98.3,200.5 99.4,221.1 100.4,223.9 101.5,224.2 102.6,221.2 103.6,224.0 104.7,213.9 105.7,217.4 106.8,200.7 107.9,200.5 108.9,160.9 110.0,170.6 111.1,170.6 112.1,210.3 113.2,216.6 114.2,210.3 115.3,208.9 116.4,234.1 117.4,241.9 118.5,231.0 119.6,224.0 120.6,224.6 121.7,224.1 122.7,228.4 123.8,221.1 124.9,214.4 125.9,222.3 127.0,214.9 128.1,237.2 129.1,234.7 130.2,229.6 131.2,230.3 132.3,231.0 133.4,224.2 134.4,224.2 135.5,225.2 136.5,228.6 137.6,232.2 138.7,224.1 139.7,237.2 140.8,241.3 141.9,234.4 142.9,245.5 144.0,240.3 145.0,241.3 146.1,239.8 147.2,237.2 148.2,252.6 149.3,207.0 150.4,237.5 151.4,238.5 152.5,235.5 153.5,249.6 154.6,243.5 155.7,247.2 156.7,242.0 157.8,233.1 158.9,234.1 159.9,229.1 161.0,224.3 162.0,230.5 163.1,234.2 164.2,247.1 165.2,239.5 166.3,241.9 167.4,232.2 168.4,231.0 169.5,231.2 170.5,217.4 171.6,239.9 172.7,224.2 173.7,232.7 174.8,232.2 175.9,243.8 176.9,249.9 178.0,224.2 179.0,228.7 180.1,243.3 181.2,238.0 182.2,230.6 183.3,235.7 184.4,237.2 185.4,234.1 186.5,224.2 187.5,224.2 188.6,231.0 189.7,234.1 190.7,242.7 191.8,238.5 192.8,247.2 193.9,231.2 195.0,231.3 196.0,238.0 197.1,237.3 198.2,237.5 199.2,242.2 200.3,241.3 201.3,241.3 202.4,234.1 203.5,200.9 204.5,224.1 205.6,224.2 206.7,217.4 207.7,230.4 208.8,234.1 209.8,232.3 210.9,234.1 212.0,231.6 213.0,237.2 214.1,237.2 215.2,234.1 216.2,231.0 217.3,239.6 218.3,239.7 219.4,238.5 220.5,228.8 221.5,227.7 222.6,237.8 223.7,227.4 224.7,233.1 225.8,232.2 226.8,207.7 227.9,224.2 229.0,224.1 230.0,224.1 231.1,225.8 232.2,224.2 233.2,237.2 234.3,237.2 235.3,232.7 236.4,231.0 237.5,236.4 238.5,237.2 239.6,237.6 240.7,252.5 241.7,234.1 242.8,234.1 243.8,242.0 244.9,241.9 246.0,234.1 247.0,233.0 248.1,226.4 249.2,224.2 250.2,242.0 251.3,224.1 252.3,200.4 253.4,232.4 254.5,234.1 255.5,224.2 256.6,229.5 257.6,234.1 258.7,237.2 259.8,234.1 260.8,233.5 261.9,234.6 263.0,224.2 264.0,239.2 265.1,234.7 266.1,224.2 267.2,233.4 268.3,239.5 269.3,241.4 270.4,248.9 271.5,224.9 272.5,224.1 273.6,225.3 274.6,235.6 275.7,247.9 276.8,228.6 277.8,224.0 278.9,224.2 280.0,226.0 281.0,223.4 282.1,230.3 283.1,224.2 284.2,229.0 285.3,212.7 286.3,224.0 287.4,160.9 288.5,171.6 289.5,200.7 290.6,211.1 291.6,202.2 292.7,224.1 293.8,233.2 294.8,228.7 295.9,227.5 297.0,217.6 298.0,217.4 299.1,224.1 300.1,200.7 301.2,227.8 302.3,200.5 303.3,200.5 304.4,224.1 305.5,211.1 306.5,217.8 307.6,225.2 308.6,224.1 309.7,225.3 310.8,224.9 311.8,227.4 312.9,224.2 313.9,234.1 315.0,209.6 316.1,222.4 317.1,234.1 318.2,233.0 319.3,224.1 320.3,229.1 321.4,231.0 322.4,224.1 323.5,203.3 324.6,221.2 325.6,224.0 326.7,258.5 327.8,220.5 328.8,215.1 329.9,240.9 330.9,216.0 332.0,229.1 333.1,234.3 334.1,242.0 335.2,241.6 336.3,234.1 337.3,234.1 338.4,228.2 339.4,224.2 340.5,241.3 341.6,232.4 342.6,231.7 343.7,219.1 344.8,211.5 345.8,228.8 346.9,182.8 347.9,231.9 349.0,215.5 350.1,222.9 351.1,224.1 352.2,228.4 353.3,215.5 354.3,241.6 355.4,215.8 356.4,222.3 357.5,200.4 358.6,197.8 359.6,196.0 360.7,217.4 361.8,211.3 362.8,224.2 363.9,170.7 364.9,221.2 366.0,205.8 367.1,206.4 368.1,200.5 369.2,222.5 370.2,228.8 371.3,224.2 372.4,169.3 373.4,224.0 374.5,232.4 375.6,224.0 376.6,224.2 377.7,176.8 378.7,201.0 379.8,227.0 380.9,232.4 381.9,224.2 383.0,210.5 384.1,234.1 385.1,233.5 386.2,225.2 387.2,224.2 388.3,221.2 389.4,231.0 390.4,224.1 391.5,252.7 392.6,232.0 393.6,232.2 394.7,231.0 395.7,233.9 396.8,234.0 397.9,225.3 398.9,224.0 400.0,224.1 401.1,224.1 402.1,224.1 403.2,215.6 404.2,224.1 405.3,215.5 406.4,214.1 407.4,224.1 408.5,234.0 409.6,215.6 410.6,224.1 411.7,219.8 412.7,210.3 413.8,201.0 414.9,215.8 415.9,224.1 417.0,215.9 418.1,233.4 419.1,224.1 420.2,206.4 421.2,207.8 422.3,224.1 423.4,224.2 424.4,224.1 425.5,234.1 426.5,224.2 427.6,235.6 428.7,224.0 429.7,223.8 430.8,224.2 431.9,224.7 432.9,232.0 434.0,249.0 435.0,234.1 436.1,236.5 437.2,240.3 438.2,234.1 439.3,230.5 440.4,216.3 441.4,232.6 442.5,234.0 443.5,234.1 444.6,234.0 445.7,229.1 446.7,226.1 447.8,232.0 448.9,241.5 449.9,221.2 451.0,224.1 452.0,224.1 453.1,229.3 454.2,227.1 455.2,227.4 456.3,210.8 457.4,214.0 458.4,221.2 459.5,227.3 460.5,214.6 461.6,224.1 462.7,216.4 463.7,225.0 464.8,234.1 465.9,170.6 466.9,200.5 468.0,224.1 469.0,201.1 470.1,213.1 471.2,215.4 472.2,233.9 473.3,222.4 474.4,229.1 475.4,224.1 476.5,216.5 477.5,213.2 478.6,200.6 479.7,193.0 480.7,195.4 481.8,209.6 482.8,200.7 483.9,215.9 485.0,228.8 486.0,214.0 487.1,234.1 488.2,223.9 489.2,223.4 490.3,224.2 491.3,219.7 492.4,224.0 493.5,241.3 494.5,227.0 495.6,232.3 496.7,234.1 497.7,227.5 498.8,234.1 499.8,237.2 500.9,241.3 502.0,224.3 503.0,225.0 504.1,224.1 505.2,234.1 506.2,228.6 507.3,224.2 508.3,232.5 509.4,227.4 510.5,92.4 511.5,215.9 512.6,224.1 513.7,214.6 514.7,232.4 515.8,231.0 516.8,224.1 517.9,224.2 519.0,224.1 520.0,221.1 521.1,224.0 522.2,234.1 523.2,239.3 524.3,234.1 525.3,232.6 526.4,214.6 527.5,224.2 528.5,224.1 529.6,238.9 530.7,233.2 531.7,217.9 532.8,213.3 533.8,231.0 534.9,227.6 536.0,231.4 537.0,234.3 538.1,201.0 539.2,234.1 540.2,234.1 541.3,217.4 542.3,221.2 543.4,228.8 544.5,221.1 545.5,220.6 546.6,227.7 547.6,232.8 548.7,233.9 549.8,224.1 550.8,238.5 551.9,241.2 553.0,225.8 554.0,237.5 555.1,224.1 556.1,228.7 557.2,212.7 558.3,215.6 559.3,215.6 560.4,224.1 561.5,224.1 562.5,217.8 563.6,235.0 564.6,224.9 565.7,232.3 566.8,224.2 567.8,224.2 568.9,237.5 570.0,217.7 571.0,234.4 572.1,225.3 573.1,237.5 574.2,224.0 575.3,232.6 576.3,232.3 577.4,224.0 578.5,169.3 579.5,224.1 580.6,225.3 581.6,225.4 582.7,227.5 583.8,224.1 584.8,224.1 585.9,240.6 587.0,224.2 588.0,231.0 589.1,224.2 590.1,229.2 591.2,227.5 592.3,239.5 593.3,232.9 594.4,237.5 595.5,237.2 596.5,233.1 597.6,237.2 598.6,234.5 599.7,241.3 600.8,224.2 601.8,242.0 602.9,213.4 603.9,225.9 605.0,206.4 606.1,214.5 607.1,224.2 608.2,202.6 609.3,224.1 610.3,223.9 611.4,224.2 612.4,232.3 613.5,224.2 614.6,237.2 615.6,224.1 616.7,227.8 617.8,223.2 618.8,224.2 619.9,235.5 620.9,236.7 622.0,201.0 623.1,231.3 624.1,231.0 625.2,236.2 626.3,231.0 627.3,232.9 628.4,217.4 629.4,233.5 630.5,213.4 631.6,231.0 632.6,223.7 633.7,220.4 634.8,225.8 635.8,224.2 636.9,224.2 637.9,220.5 639.0,230.1 640.1,196.6 641.1,220.9 642.2,212.7 643.3,232.4 644.3,170.6 645.4,231.0 646.4,200.5 647.5,220.7 648.6,217.4 649.6,210.7 650.7,216.5 651.8,240.4 652.8,232.4 653.9,224.0 654.9,228.7 656.0,224.1 657.1,210.7 658.1,224.1 659.2,207.8 660.2,224.1 661.3,200.7 662.4,200.5 663.4,202.5 664.5,224.2 665.6,235.8 666.6,224.2 667.7,217.4 668.7,231.5 669.8,232.4 670.9,220.6 671.9,224.1 673.0,215.6 674.1,232.1 675.1,231.0 676.2,232.3 677.2,237.2 678.3,241.3 679.4,230.3 680.4,228.8 681.5,219.5 682.6,228.5 683.6,228.7 684.7,204.7 685.7,221.2 686.8,216.3 687.9,227.5 688.9,225.2 690.0,225.9 691.1,232.9 692.1,232.4 693.2,224.2 694.2,230.1 695.3,237.2 696.4,224.5 697.4,238.0 698.5,225.8 699.6,232.2 700.6,237.2 701.7,237.2 702.7,234.2 703.8,238.5 704.9,212.8 705.9,228.8 707.0,234.1 708.1,223.6 709.1,224.0 710.2,223.0 711.2,223.1 712.3,215.9 713.4,224.2 714.4,173.0 715.5,211.0 716.5,224.1 717.6,214.7 718.7,218.7 719.7,232.4 720.8,216.5 721.9,215.7 722.9,233.0 724.0,222.8 725.0,228.6 726.1,224.1 727.2,224.1 728.2,231.0 729.3,221.1 730.4,212.2 731.4,208.9 732.5,233.4 733.5,223.9 734.6,225.2 735.7,219.7 736.7,224.0 737.8,212.6 738.9,229.6 739.9,224.4 741.0,224.1 742.0,234.1 743.1,230.7 744.2,224.1 745.2,237.2 746.3,224.5 747.4,224.2 748.4,237.7 749.5,215.6 750.5,231.0 751.6,228.4 752.7,234.9 753.7,224.5 754.8,226.1 755.9,223.0 756.9,224.2 758.0,225.3 759.0,224.1 760.1,219.2 761.2,209.3 762.2,195.6 763.3,225.3 764.4,212.8 765.4,230.1 766.5,224.0 767.5,224.1 768.6,200.5 769.7,209.0 770.7,224.2 771.8,218.5 772.8,221.2 773.9,224.2 775.0,189.6 776.0,216.2 777.1,224.1 778.2,231.0 779.2,225.2 780.3,234.1 781.3,219.9 782.4,217.4 783.5,234.1 784.5,199.2 785.6,224.1 786.7,224.4 787.7,217.4 788.8,224.0 789.8,224.2 790.9,224.2 792.0,222.0 793.0,216.5 794.1,200.8 795.2,183.8 796.2,224.2 797.3,224.5 798.3,201.1 799.4,227.9 800.5,227.3 801.5,242.0 802.6,240.8 803.7,238.2 804.7,237.5 805.8,192.6 806.8,245.6 807.9,209.3 809.0,234.1 810.0,241.9 811.1,241.1 812.2,224.3 813.2,174.6 814.3,224.1 815.3,195.4 816.4,229.9 817.5,237.1 818.5,241.9 819.6,221.2 820.7,229.0 821.7,257.0 822.8,170.6 823.8,201.0 824.9,257.2 826.0,224.2 827.0,227.0 828.1,224.1 829.2,237.5 830.2,224.1 831.3,231.0 832.3,217.4 833.4,181.7 834.5,224.2 835.5,205.2 836.6,210.8 837.6,209.3 838.7,200.6 839.8,224.6 840.8,228.3 841.9,244.1 843.0,213.9 844.0,241.5 845.1,225.4 846.1,232.8 847.2,231.0 848.3,241.9 849.3,230.2 850.4,238.5 851.5,248.7 852.5,246.2 853.6,252.9 854.6,237.2 855.7,239.5 856.8,241.8 857.8,200.2 858.9,195.5 860.0,225.3 861.0,218.8 862.1,224.3 863.1,217.4 864.2,217.4 865.3,234.0 866.3,237.2 867.4,238.0 868.5,246.7 869.5,239.1 870.6,238.0 871.6,231.6 872.7,207.8 873.8,237.2 874.8,234.1 875.9,241.8 877.0,213.8 878.0,224.2 879.1,237.2 880.1,228.5 881.2,225.4 882.3,231.0 883.3,215.6 884.4,223.0 885.5,217.6 886.5,224.1 887.6,230.8 888.6,225.7 889.7,228.6 890.8,258.6 891.8,231.0 892.9,237.6 893.9,236.7 895.0,224.2 896.1,232.7 897.1,224.1 898.2,224.1 899.3,212.4 900.3,243.0 901.4,226.4 902.4,200.9 903.5,221.2 904.6,224.1 905.6,224.2 906.7,215.5 907.8,234.4 908.8,224.1 909.9,239.5 910.9,224.1 912.0,242.0 913.1,241.3 914.1,224.2 915.2,225.8 916.3,199.1 917.3,238.2 918.4,300.4 919.4,333.7 920.5,335.1 921.6,332.4 922.6,333.0 923.7,257.7 924.8,329.0 925.8,329.1 926.9,333.2 927.9,335.2 929.0,333.8 930.1,333.1 931.1,323.8 932.2,333.0 933.3,334.4 934.3,332.4 935.4,329.8 936.4,334.7 937.5,331.1 938.6,331.1 939.6,331.1 940.7,331.9 941.8,333.0 942.8,329.1 943.9,333.0 944.9,330.6 946.0,331.2" fill="none" stroke="#d97706" stroke-width="2.2" stroke-linejoin="round" stroke-linecap="round"/>
<line x1="76" y1="70" x2="94" y2="70" stroke="#2563eb" stroke-width="3"/>
<text x="100" y="74" font-family="Arial, sans-serif" font-size="11" fill="#0f172a">avg fee</text>
<line x1="179" y1="70" x2="197" y2="70" stroke="#059669" stroke-width="3"/>
<text x="203" y="74" font-family="Arial, sans-serif" font-size="11" fill="#0f172a">median fee</text>
<line x1="303" y1="70" x2="321" y2="70" stroke="#d97706" stroke-width="3"/>
<text x="327" y="74" font-family="Arial, sans-serif" font-size="11" fill="#0f172a">p90 fee</text>
<text x="28" y="404" font-family="Arial, sans-serif" font-size="11" fill="#64748b">Source: hourly_features.csv</text>
</svg>