<svg xmlns="http://www.w3.org/2000/svg" width="980" height="420" viewBox="0 0 980 420">
<rect width="100%" height="100%" fill="#ffffff"/>
<text x="28" y="34" font-family="Arial, sans-serif" font-size="20" font-weight="700" fill="#0f172a">Hourly fee trend</text>
<text x="28" y="56" font-family="Arial, sans-serif" font-size="12" fill="#64748b">Average, median, and p90 total fee by hour</text>
<line x1="76" y1="362.0" x2="946" y2="362.0" stroke="#e2e8f0" stroke-width="1"/>
<text x="68" y="366.0" font-family="Arial, sans-serif" font-size="10" text-anchor="end" fill="#64748b">-382K</text>
<line x1="76" y1="292.0" x2="946" y2="292.0" stroke="#e2e8f0" stroke-width="1"/>
<text x="68" y="296.0" font-family="Arial, sans-serif" font-size="10" text-anchor="end" fill="#64748b">2.6M</text>
<line x1="76" y1="222.0" x2="946" y2="222.0" stroke="#e2e8f0" stroke-width="1"/>
<text x="68" y="226.0" font-family="Arial, sans-serif" font-size="10" text-anchor="end" fill="#64748b">5.7M</text>
<line x1="76" y1="152.0" x2="946" y2="152.0" stroke="#e2e8f0" stroke-width="1"/>
<text x="68" y="156.0" font-family="Arial, sans-serif" font-size="10" text-anchor="end" fill="#64748b">8.7M</text>
<line x1="76" y1="82.0" x2="946" y2="82.0" stroke="#e2e8f0" stroke-width="1"/>
<text x="68" y="86.0" font-family="Arial, sans-serif" font-size="10" text-anchor="end" fill="#64748b">11.7M</text>
<line x1="76" y1="362" x2="946" y2="362" stroke="#334155" stroke-width="1"/>
<line x1="76" y1="82" x2="76" y2="362" stroke="#334155" stroke-width="1"/>
<text x="76" y="72" font-family="Arial, sans-serif" font-size="11" fill="#64748b">nanoton</text>
<line x1="76.0" y1="362" x2="76.0" y2="366" stroke="#334155" stroke-width="1"/>
<text x="76.0" y="380" font-family="Arial, sans-serif" font-size="10" text-anchor="middle" fill="#64748b">0</text>
<line x1="511.5" y1="362" x2="511.5" y2="366" stroke="#334155" stroke-width="1"/>
<text x="511.5" y="380" font-family="Arial, sans-serif" font-size="10" text-anchor="middle" fill="#64748b">441</text>
<line x1="946.0" y1="362" x2="946.0" y2="366" stroke="#334155" stroke-width="1"/>
<text x="946.0" y="380" font-family="Arial, sans-serif" font-size="10" text-anchor="middle" fill="#64748b">881</text>
<polyline points="76.0,290.8 77.0,294.6 78.0,296.0 79.0,298.1 80.0,304.8 80.9,297.2 81.9,298.2 82.9,294.6 83.9,299.0 84.9,298.7 85.9,287.8 86.9,299.5 87.9,299.7 88.8,297.4 89.8,300.3 90.8,300.5 91.8,292.5 92.8,292.5 93.8,301.3 94.8,291.1 95.8,289.2 96.7,287.3 97.7,293.8 98.7,294.2 99.7,296.1 100.7,292.1 101.7,297.7 102.7,290.6 103.7,293.2 104.6,288.3 105.6,289.0 106.6,273.1 107.6,284.7 108.6,285.3 109.6,294.6 110.6,299.9 111.6,292.9 112.5,294.9 113.5,304.7 114.5,307.5 115.5,302.1 116.5,297.0 117.5,298.7 118.5,297.9 119.5,304.4 120.4,297.4 121.4,294.5 122.4,296.5 123.4,298.7 124.4,303.1 125.4,303.1 126.4,301.9 127.4,300.3 128.3,303.3 129.3,302.2 130.3,299.4 131.3,299.1 132.3,302.8 133.3,299.1 134.3,301.3 135.3,306.8 136.2,308.7 137.2,306.4 138.2,307.1 139.2,309.1 140.2,305.9 141.2,305.5 142.2,302.0 143.2,308.5 144.1,290.7 145.1,306.4 146.1,306.4 147.1,306.3 148.1,311.2 149.1,307.1 150.1,310.3 151.1,309.1 152.0,305.5 153.0,305.4 154.0,303.2 155.0,303.5 156.0,301.3 157.0,305.1 158.0,307.4 159.0,306.9 159.9,308.1 160.9,305.0 161.9,302.9 162.9,302.7 163.9,298.6 164.9,304.9 165.9,297.0 166.9,299.3 167.8,300.3 168.8,303.9 169.8,311.6 170.8,300.1 171.8,300.5 172.8,308.9 173.8,307.5 174.8,300.3 175.7,304.2 176.7,305.1 177.7,302.6 178.7,300.5 179.7,297.4 180.7,298.7 181.7,301.9 182.7,308.1 183.6,307.4 184.6,307.4 185.6,303.1 186.6,301.9 187.6,304.1 188.6,303.9 189.6,304.0 190.6,308.3 191.5,308.9 192.5,307.3 193.5,301.1 194.5,286.9 195.5,301.6 196.5,298.8 197.5,296.1 198.5,299.6 199.4,305.5 200.4,301.5 201.4,304.9 202.4,302.2 203.4,304.9 204.4,306.8 205.4,304.9 206.4,300.8 207.3,304.8 208.3,308.0 209.3,302.4 210.3,301.7 211.3,303.1 212.3,303.4 213.3,298.9 214.3,298.5 215.2,298.0 216.2,289.4 217.2,296.9 218.2,296.4 219.2,295.5 220.2,299.6 221.2,299.0 222.2,304.6 223.1,304.0 224.1,303.8 225.1,299.2 226.1,301.2 227.1,305.7 228.1,304.5 229.1,312.1 230.1,305.7 231.0,304.3 232.0,307.0 233.0,306.9 234.0,301.9 235.0,303.8 236.0,300.8 237.0,301.6 238.0,300.2 238.9,298.7 239.9,290.6 240.9,296.1 241.9,300.6 242.9,296.6 243.9,302.7 244.9,302.6 245.9,303.0 246.8,302.7 247.8,302.8 248.8,303.7 249.8,300.1 250.8,305.6 251.8,303.0 252.8,299.2 253.8,302.8 254.7,306.7 255.7,306.1 256.7,306.7 257.7,298.5 258.7,301.6 259.7,297.8 260.7,303.8 261.7,300.2 262.6,299.5 263.6,295.6 264.6,298.2 265.6,298.4 266.6,293.8 267.6,299.9 268.6,297.9 269.6,298.6 270.5,294.2 271.5,297.8 272.5,278.0 273.5,284.2 274.5,295.2 275.5,295.7 276.5,294.4 277.5,300.7 278.4,304.3 279.4,302.4 280.4,302.1 281.4,297.9 282.4,295.3 283.4,296.5 284.4,291.4 285.4,292.0 286.3,290.6 287.3,290.0 288.3,299.7 289.3,291.9 290.3,296.8 291.3,299.8 292.3,303.8 293.3,302.5 294.2,302.1 295.2,302.3 296.2,300.8 297.2,303.5 298.2,295.9 299.2,297.8 300.2,304.4 301.2,304.2 302.1,299.5 303.1,303.9 304.1,303.5 305.1,299.0 306.1,288.7 307.1,293.7 308.1,294.2 309.1,303.7 310.0,295.6 311.0,297.0 312.0,305.6 313.0,294.8 314.0,300.5 315.0,305.1 316.0,308.5 317.0,305.5 317.9,304.0 318.9,300.7 319.9,303.8 320.9,299.3 321.9,303.0 322.9,305.0 323.9,303.0 324.9,299.3 325.8,294.4 326.8,299.9 327.8,286.2 328.8,302.1 329.8,293.9 330.8,297.9 331.8,299.5 332.8,297.4 333.7,294.4 334.7,310.4 335.7,291.6 336.7,295.6 337.7,281.6 338.7,294.6 339.7,293.2 340.7,295.0 341.6,291.0 342.6,301.0 343.6,279.9 344.6,297.2 345.6,291.8 346.6,291.5 347.6,283.3 348.6,298.3 349.5,300.4 350.5,298.6 351.5,288.4 352.5,299.0 353.5,304.4 354.5,297.7 355.5,295.5 356.5,279.8 357.4,284.2 358.4,300.5 359.4,299.9 360.4,298.1 361.4,293.4 362.4,303.1 363.4,303.0 364.4,298.6 365.3,296.8 366.3,297.4 367.3,301.3 368.3,298.1 369.3,311.4 370.3,299.4 371.3,303.5 372.3,301.2 373.2,302.9 374.2,304.3 375.2,297.8 376.2,294.4 377.2,299.3 378.2,295.1 379.2,301.8 380.2,292.6 381.1,297.6 382.1,293.9 383.1,290.0 384.1,295.1 385.1,304.6 386.1,291.1 387.1,300.3 388.1,295.9 389.0,293.1 390.0,291.6 391.0,296.8 392.0,297.1 393.0,297.9 394.0,299.5 395.0,292.8 396.0,286.2 396.9,290.1 397.9,300.0 398.9,294.5 399.9,300.9 400.9,303.0 401.9,299.1 402.9,302.5 403.9,295.1 404.8,297.0 405.8,302.8 406.8,301.7 407.8,303.0 408.8,308.6 409.8,306.8 410.8,306.1 411.8,306.5 412.7,304.3 413.7,304.5 414.7,298.3 415.7,301.1 416.7,303.1 417.7,303.3 418.7,304.2 419.7,302.4 420.6,299.4 421.6,304.5 422.6,307.1 423.6,297.3 424.6,298.9 425.6,298.1 426.6,299.7 427.6,297.8 428.5,301.0 429.5,287.2 430.5,294.3 431.5,294.8 432.5,298.6 433.5,291.3 434.5,298.4 435.5,294.6 436.4,298.7 437.4,304.2 438.4,282.2 439.4,289.8 440.4,298.8 441.4,295.1 442.4,293.4 443.4,294.7 444.3,304.3 445.3,296.9 446.3,301.7 447.3,296.7 448.3,295.6 449.3,292.9 450.3,291.6 451.3,286.7 452.2,287.8 453.2,294.2 454.2,292.6 455.2,297.5 456.2,303.1 457.2,296.8 458.2,304.1 459.2,298.7 460.1,297.8 461.1,299.3 462.1,297.1 463.1,296.6 464.1,305.5 465.1,301.9 466.1,304.5 467.1,302.9 468.0,303.4 469.0,302.7 470.0,304.5 471.0,301.7 472.0,300.0 473.0,297.3 474.0,295.0 475.0,305.0 475.9,302.7 476.9,303.7 477.9,302.8 478.9,298.5 479.9,257.0 480.9,291.0 481.9,298.5 482.9,296.3 483.8,301.0 484.8,301.6 485.8,299.9 486.8,299.3 487.8,299.6 488.8,296.0 489.8,299.4 490.8,305.6 491.7,306.5 492.7,300.9 493.7,302.7 494.7,295.0 495.7,302.2 496.7,296.9 497.7,304.8 498.7,299.1 499.6,295.6 500.6,295.1 501.6,300.9 502.6,301.0 503.6,300.7 504.6,304.5 505.6,292.6 506.6,303.5 507.5,306.0 508.5,295.5 509.5,297.4 510.5,302.8 511.5,295.8 512.5,299.5 513.5,304.0 514.5,301.7 515.4,303.8 516.4,300.8 517.4,306.1 518.4,305.6 519.4,300.8 520.4,303.2 521.4,297.1 522.4,300.2 523.3,292.3 524.3,292.0 525.3,292.1 526.3,299.3 527.3,298.5 528.3,298.8 529.3,301.5 530.3,299.6 531.2,305.3 532.2,300.2 533.2,300.6 534.2,304.7 535.2,299.2 536.2,304.4 537.2,299.7 538.2,306.4 539.1,299.1 540.1,304.5 541.1,303.3 542.1,298.0 543.1,263.7 544.1,302.9 545.1,304.6 546.1,301.3 547.0,300.8 548.0,298.3 549.0,299.9 550.0,302.7 551.0,298.6 552.0,304.0 553.0,302.8 554.0,303.0 554.9,301.1 555.9,308.3 556.9,304.5 557.9,309.0 558.9,304.5 559.9,303.7 560.9,304.9 561.9,303.6 562.8,305.3 563.8,299.5 564.8,305.2 565.8,297.1 566.8,302.2 567.8,288.1 568.8,294.6 569.8,299.7 570.7,287.4 571.7,299.0 572.7,298.4 573.7,296.8 574.7,301.1 575.7,299.5 576.7,302.6 577.7,299.3 578.6,303.0 579.6,298.0 580.6,301.6 581.6,305.3 582.6,304.5 583.6,290.4 584.6,303.1 585.6,299.6 586.5,302.4 587.5,303.1 588.5,304.7 589.5,296.3 590.5,301.7 591.5,292.9 592.5,298.2 593.5,294.8 594.4,293.5 595.4,299.4 596.4,297.4 597.4,300.4 598.4,295.6 599.4,301.5 600.4,282.6 601.4,297.4 602.3,291.2 603.3,300.8 604.3,281.3 605.3,303.6 606.3,292.1 607.3,296.5 608.3,300.9 609.3,293.9 610.2,295.3 611.2,305.2 612.2,304.7 613.2,300.3 614.2,302.0 615.2,297.5 616.2,295.0 617.2,296.6 618.1,292.7 619.1,298.7 620.1,291.1 621.1,289.9 622.1,292.8 623.1,302.6 624.1,303.5 625.1,301.6 626.0,297.5 627.0,303.0 628.0,302.5 629.0,299.3 630.0,300.0 631.0,295.7 632.0,300.6 633.0,302.5 633.9,302.2 634.9,300.7 635.9,305.4 636.9,305.1 637.9,301.0 638.9,294.2 639.9,301.0 640.9,298.9 641.8,290.4 642.8,295.9 643.8,294.1 644.8,301.3 645.8,298.2 646.8,299.2 647.8,302.6 648.8,300.9 649.7,299.2 650.7,302.7 651.7,303.6 652.7,299.5 653.7,304.4 654.7,298.2 655.7,302.7 656.7,304.9 657.6,303.3 658.6,303.8 659.6,305.7 660.6,294.6 661.6,306.7 662.6,303.7 663.6,295.1 664.6,294.1 665.5,293.7 666.5,295.9 667.5,295.9 668.5,298.1 669.5,284.7 670.5,294.9 671.5,298.6 672.5,296.3 673.4,294.2 674.4,300.6 675.4,294.3 676.4,295.9 677.4,303.8 678.4,295.8 679.4,302.6 680.4,297.7 681.3,300.0 682.3,300.7 683.3,298.3 684.3,294.8 685.3,295.8 686.3,303.0 687.3,295.6 688.3,296.0 689.2,295.2 690.2,295.3 691.2,295.0 692.2,299.9 693.2,299.0 694.2,295.9 695.2,303.3 696.2,302.9 697.1,298.2 698.1,305.5 699.1,300.9 700.1,300.4 701.1,305.2 702.1,295.8 703.1,301.8 704.1,303.2 705.0,304.6 706.0,299.1 707.0,301.0 708.0,298.0 709.0,298.8 710.0,297.3 711.0,300.8 712.0,296.0 712.9,293.0 713.9,284.2 714.9,298.8 715.9,293.9 716.9,298.9 717.9,298.8 718.9,298.0 719.9,291.0 720.8,292.3 721.8,298.2 722.8,297.5 723.8,297.5 724.8,298.5 725.8,288.2 726.8,296.5 727.8,297.3 728.7,301.7 729.7,301.0 730.7,305.4 731.7,295.8 732.7,295.1 733.7,299.8 734.7,289.6 735.7,296.7 736.6,295.1 737.6,295.1 738.6,294.8 739.6,297.5 740.6,299.5 741.6,295.8 742.6,297.0 743.6,291.7 744.5,285.1 745.5,299.7 746.5,301.0 747.5,293.6 748.5,302.3 749.5,297.5 750.5,307.7 751.5,292.5 752.4,304.9 753.4,304.1 754.4,291.9 755.4,305.2 756.4,297.8 757.4,298.1 758.4,307.4 759.4,305.4 760.3,294.0 761.3,284.5 762.3,295.7 763.3,281.6 764.3,295.8 765.3,307.1 766.3,303.5 767.3,299.2 768.2,301.5 769.2,309.0 770.2,287.8 771.2,293.3 772.2,314.3 773.2,300.8 774.2,304.2 775.2,299.2 776.1,305.4 777.1,297.5 778.1,303.5 779.1,297.3 780.1,286.2 781.1,295.6 782.1,293.4 783.1,295.3 784.0,292.6 785.0,295.0 786.0,297.5 787.0,303.2 788.0,307.8 789.0,295.2 790.0,306.6 791.0,305.0 791.9,305.4 792.9,303.1 793.9,297.4 794.9,293.5 795.9,305.0 796.9,310.4 797.9,306.6 798.9,309.4 799.8,304.0 800.8,307.8 801.8,308.2 802.8,299.0 803.8,288.2 804.8,297.1 805.8,298.1 806.8,298.6 807.7,298.7 808.7,295.2 809.7,305.8 810.7,307.8 811.7,304.4 812.7,309.3 813.7,306.7 814.7,303.2 815.6,303.6 816.6,296.5 817.6,304.1 818.6,305.5 819.6,308.2 820.6,291.8 821.6,301.9 822.6,305.3 823.5,302.2 824.5,300.9 825.5,302.7 826.5,295.0 827.5,295.0 828.5,295.3 829.5,299.1 830.5,299.0 831.4,300.9 832.4,304.6 833.4,307.3 834.4,303.1 835.4,300.9 836.4,303.0 837.4,290.9 838.4,301.1 839.3,301.9 840.3,302.0 841.3,295.6 842.3,306.6 843.3,304.1 844.3,288.8 845.3,297.4 846.3,295.3 847.2,295.7 848.2,296.1 849.2,306.3 850.2,300.3 851.2,304.9 852.2,295.7 853.2,303.6 854.2,305.1 855.1,302.6 856.1,301.6 857.1,285.2 858.1,304.3 859.1,334.7 860.1,343.7 861.1,343.8 862.1,343.5 863.0,344.0 864.0,319.0 865.0,342.3 866.0,343.1 867.0,342.6 868.0,343.4 869.0,343.4 870.0,343.4 870.9,338.9 871.9,343.5 872.9,344.5 873.9,342.7 874.9,342.0 875.9,343.8 876.9,343.0 877.9,343.2 878.8,340.3 879.8,342.7 880.8,343.4 881.8,342.2 882.8,343.9 883.8,341.8 884.8,341.2 885.8,342.8 886.7,342.4 887.7,343.3 888.7,344.8 889.7,343.7 890.7,343.3 891.7,344.0 892.7,342.7 893.7,343.5 894.6,341.8 895.6,340.1 896.6,342.3 897.6,342.4 898.6,339.6 899.6,341.5 900.6,340.5 901.6,343.1 902.5,341.6 903.5,340.5 904.5,342.3 905.5,342.5 906.5,342.2 907.5,343.0 908.5,342.6 909.5,342.9 910.4,343.5 911.4,342.4 912.4,340.9 913.4,341.4 914.4,342.5 915.4,343.3 916.4,343.5 917.4,343.3 918.3,343.2 919.3,342.6 920.3,341.1 921.3,340.9 922.3,341.6 923.3,340.6 924.3,341.3 925.3,341.0 926.2,342.8 927.2,341.5 928.2,342.2 929.2,341.5 930.2,342.8 931.2,341.0 932.2,340.5 933.2,341.9 934.1,341.5 935.1,341.0 936.1,338.4 937.1,325.0 938.1,339.0 939.1,340.0 940.1,339.6 941.1,341.0 942.0,338.3 943.0,339.7 944.0,338.7 945.0,339.5 946.0,331.8" fill="none" stroke="#2563eb" stroke-width="2.2" stroke-linejoin="round" stroke-linecap="round"/>
<polyline points="76.0,311.4 77.0,324.9 78.0,334.1 79.0,334.5 80.0,335.0 80.9,334.6 81.9,334.4 82.9,330.8 83.9,334.6 84.9,334.6 85.9,320.5 86.9,334.6 87.9,334.2 88.8,330.7 89.8,334.4 90.8,333.8 91.8,321.1 92.8,330.5 93.8,332.4 94.8,310.6 95.8,302.9 96.7,305.9 97.7,320.5 98.7,315.5 99.7,310.4 100.7,329.8 101.7,333.4 102.7,312.5 103.7,335.0 104.6,319.0 105.6,330.5 106.6,283.8 107.6,300.4 108.6,303.3 109.6,308.3 110.6,331.3 111.6,312.5 112.5,310.6 113.5,334.9 114.5,335.0 115.5,329.7 116.5,310.6 117.5,310.6 118.5,312.5 119.5,340.8 120.4,334.9 121.4,308.9 122.4,310.3 123.4,334.9 124.4,335.3 125.4,334.2 126.4,333.4 127.4,333.9 128.3,334.6 129.3,331.5 130.3,334.6 131.3,330.9 132.3,334.3 133.3,334.6 134.3,334.2 135.3,335.0 136.2,334.9 137.2,334.9 138.2,344.0 139.2,335.8 140.2,334.9 141.2,334.9 142.2,330.7 143.2,344.0 144.1,335.6 145.1,336.2 146.1,336.2 147.1,335.0 148.1,338.1 149.1,336.2 150.1,336.1 151.1,335.1 152.0,335.0 153.0,335.0 154.0,334.5 155.0,335.0 156.0,334.6 157.0,334.6 158.0,335.0 159.0,335.0 159.9,335.0 160.9,334.3 161.9,334.9 162.9,334.9 163.9,330.7 164.9,334.7 165.9,312.2 166.9,329.6 167.8,331.1 168.8,333.8 169.8,344.0 170.8,330.6 171.8,333.8 172.8,335.0 173.8,336.2 174.8,334.7 175.7,334.7 176.7,334.8 177.7,334.6 178.7,331.0 179.7,330.5 180.7,331.5 181.7,333.0 182.7,335.0 183.6,334.9 184.6,334.9 185.6,334.1 186.6,334.9 187.6,334.9 188.6,331.5 189.6,332.3 190.6,336.2 191.5,344.0 192.5,336.1 193.5,335.0 194.5,310.1 195.5,334.9 196.5,334.5 197.5,334.7 198.5,333.8 199.4,334.9 200.4,334.0 201.4,334.9 202.4,334.9 203.4,334.9 204.4,335.0 205.4,334.7 206.4,333.2 207.3,334.9 208.3,335.0 209.3,335.0 210.3,334.1 211.3,334.2 212.3,330.3 213.3,310.6 214.3,298.7 215.2,309.8 216.2,304.4 217.2,310.2 218.2,310.1 219.2,327.6 220.2,333.0 221.2,333.8 222.2,333.8 223.1,334.9 224.1,334.9 225.1,333.8 226.1,334.7 227.1,334.7 228.1,334.6 229.1,344.0 230.1,334.9 231.0,334.9 232.0,335.0 233.0,335.0 234.0,333.8 235.0,334.4 236.0,330.9 237.0,319.7 238.0,298.7 238.9,334.1 239.9,326.9 240.9,334.7 241.9,331.8 242.9,331.8 243.9,331.4 244.9,334.7 245.9,334.4 246.8,334.6 247.8,334.6 248.8,330.7 249.8,330.7 250.8,334.9 251.8,334.4 252.8,331.0 253.8,334.6 254.7,335.0 255.7,334.6 256.7,334.9 257.7,330.5 258.7,334.3 259.7,315.6 260.7,334.6 261.7,298.7 262.6,334.0 263.6,329.7 264.6,332.6 265.6,331.8 266.6,310.6 267.6,331.8 268.6,332.3 269.6,334.6 270.5,323.8 271.5,334.0 272.5,295.8 273.5,298.7 274.5,327.1 275.5,331.1 276.5,330.7 277.5,332.3 278.4,334.6 279.4,334.7 280.4,334.1 281.4,324.8 282.4,315.1 283.4,308.6 284.4,305.4 285.4,298.7 286.3,306.5 287.3,305.4 288.3,331.7 289.3,305.5 290.3,317.0 291.3,333.4 292.3,335.0 293.3,334.1 294.2,335.0 295.2,334.9 296.2,333.7 297.2,335.0 298.2,319.7 299.2,319.7 300.2,334.1 301.2,333.8 302.1,333.4 303.1,334.7 304.1,334.6 305.1,331.3 306.1,305.4 307.1,308.2 308.1,308.3 309.1,298.7 310.0,310.2 311.0,335.5 312.0,336.2 313.0,312.5 314.0,334.5 315.0,336.2 316.0,335.9 317.0,336.2 317.9,335.0 318.9,333.8 319.9,334.3 320.9,334.4 321.9,333.5 322.9,334.6 323.9,334.4 324.9,329.6 325.8,308.9 326.8,334.1 327.8,308.2 328.8,334.4 329.8,310.7 330.8,310.3 331.8,325.1 332.8,305.5 333.7,319.7 334.7,344.0 335.7,315.6 336.7,334.2 337.7,308.2 338.7,309.9 339.7,330.0 340.7,334.1 341.6,335.0 342.6,333.2 343.6,323.8 344.6,333.8 345.6,308.2 346.6,306.1 347.6,323.8 348.6,315.6 349.5,333.4 350.5,332.6 351.5,303.2 352.5,334.1 353.5,334.7 354.5,326.5 355.5,333.8 356.5,320.8 357.4,333.7 358.4,333.7 359.4,334.1 360.4,330.7 361.4,331.8 362.4,333.7 363.4,334.6 364.4,333.8 365.3,333.0 366.3,310.6 367.3,334.7 368.3,330.7 369.3,345.9 370.3,333.8 371.3,334.7 372.3,333.7 373.2,334.7 374.2,334.7 375.2,310.6 376.2,315.4 377.2,332.0 378.2,310.5 379.2,331.7 380.2,305.3 381.1,330.5 382.1,326.9 383.1,302.2 384.1,309.7 385.1,335.9 386.1,333.4 387.1,334.9 388.1,334.4 389.0,306.5 390.0,306.5 391.0,318.3 392.0,320.1 393.0,323.6 394.0,331.8 395.0,310.6 396.0,305.4 396.9,308.2 397.9,331.8 398.9,305.2 399.9,330.5 400.9,334.1 401.9,326.7 402.9,330.7 403.9,305.4 404.8,308.2 405.8,333.8 406.8,334.1 407.8,335.0 408.8,340.8 409.8,336.2 410.8,336.1 411.8,335.0 412.7,336.2 413.7,335.8 414.7,333.8 415.7,334.4 416.7,335.0 417.7,334.8 418.7,334.9 419.7,334.6 420.6,331.8 421.6,334.5 422.6,335.0 423.6,329.1 424.6,330.7 425.6,325.8 426.6,325.3 427.6,308.2 428.5,333.5 429.5,308.4 430.5,310.3 431.5,330.5 432.5,319.6 433.5,308.3 434.5,334.6 435.5,318.7 436.4,335.8 437.4,335.0 438.4,297.6 439.4,305.3 440.4,325.3 441.4,325.7 442.4,318.9 443.4,310.3 444.3,334.9 445.3,321.4 446.3,334.2 447.3,331.5 448.3,329.7 449.3,309.6 450.3,308.4 451.3,298.7 452.2,302.7 453.2,305.5 454.2,309.0 455.2,331.8 456.2,334.0 457.2,329.6 458.2,334.7 459.2,333.8 460.1,335.0 461.1,334.0 462.1,334.0 463.1,325.3 464.1,334.9 465.1,334.5 466.1,334.6 467.1,334.7 468.0,334.7 469.0,334.7 470.0,334.6 471.0,334.1 472.0,326.9 473.0,326.6 474.0,305.4 475.0,343.0 475.9,335.3 476.9,344.0 477.9,335.0 478.9,329.1 479.9,301.0 480.9,334.2 481.9,334.1 482.9,315.6 483.8,335.0 484.8,334.1 485.8,334.6 486.8,333.6 487.8,330.5 488.8,330.4 489.8,333.8 490.8,335.0 491.7,335.0 492.7,333.2 493.7,334.4 494.7,310.5 495.7,332.0 496.7,310.1 497.7,332.7 498.7,305.4 499.6,309.8 500.6,310.6 501.6,330.0 502.6,333.8 503.6,332.4 504.6,335.3 505.6,318.3 506.6,334.7 507.5,336.2 508.5,331.4 509.5,325.8 510.5,334.6 511.5,331.3 512.5,331.8 513.5,334.7 514.5,334.5 515.4,333.8 516.4,330.7 517.4,334.9 518.4,334.8 519.4,331.8 520.4,333.2 521.4,310.7 522.4,330.5 523.3,308.2 524.3,308.4 525.3,305.4 526.3,330.4 527.3,326.9 528.3,330.4 529.3,334.9 530.3,331.5 531.2,335.0 532.2,334.6 533.2,334.1 534.2,334.9 535.2,334.7 536.2,335.0 537.2,333.8 538.2,335.0 539.1,333.3 540.1,334.6 541.1,335.0 542.1,332.7 543.1,283.6 544.1,333.8 545.1,335.0 546.1,319.3 547.0,331.1 548.0,329.7 549.0,331.8 550.0,334.1 551.0,334.6 552.0,334.9 553.0,334.7 554.0,334.6 554.9,334.8 555.9,335.0 556.9,334.9 557.9,335.0 558.9,334.9 559.9,334.7 560.9,334.9 561.9,335.0 562.8,334.7 563.8,334.1 564.8,335.7 565.8,334.1 566.8,334.4 567.8,305.3 568.8,319.6 569.8,309.3 570.7,300.7 571.7,310.4 572.7,330.5 573.7,310.6 574.7,330.5 575.7,333.0 576.7,334.7 577.7,333.8 578.6,334.1 579.6,330.9 580.6,334.7 581.6,334.9 582.6,334.9 583.6,305.4 584.6,334.4 585.6,331.0 586.5,335.0 587.5,333.8 588.5,335.0 589.5,333.8 590.5,334.9 591.5,310.6 592.5,334.3 593.5,306.4 594.4,308.4 595.4,333.8 596.4,330.9 597.4,334.1 598.4,329.7 599.4,334.3 600.4,305.3 601.4,330.7 602.3,328.8 603.3,333.8 604.3,295.8 605.3,334.6 606.3,310.6 607.3,310.6 608.3,333.8 609.3,318.4 610.2,318.5 611.2,334.2 612.2,334.9 613.2,334.1 614.2,334.1 615.2,330.4 616.2,308.2 617.2,308.2 618.1,310.2 619.1,333.8 620.1,310.6 621.1,310.4 622.1,327.3 623.1,332.0 624.1,335.0 625.1,334.6 626.0,334.0 627.0,334.6 628.0,334.5 629.0,330.7 630.0,333.5 631.0,331.5 632.0,334.6 633.0,334.1 633.9,333.8 634.9,330.7 635.9,334.7 636.9,334.9 637.9,332.0 638.9,307.0 639.9,326.1 640.9,305.4 641.8,306.4 642.8,309.0 643.8,306.4 644.8,334.6 645.8,327.0 646.8,333.8 647.8,333.2 648.8,334.1 649.7,335.0 650.7,334.6 651.7,333.9 652.7,333.8 653.7,334.7 654.7,330.7 655.7,331.8 656.7,334.9 657.6,334.1 658.6,334.6 659.6,334.9 660.6,327.5 661.6,335.0 662.6,333.6 663.6,319.7 664.6,302.9 665.5,310.1 666.5,327.5 667.5,326.8 668.5,323.6 669.5,298.7 670.5,310.6 671.5,331.1 672.5,330.7 673.4,334.6 674.4,324.6 675.4,323.8 676.4,330.4 677.4,333.8 678.4,330.7 679.4,334.6 680.4,323.9 681.3,333.2 682.3,334.1 683.3,325.7 684.3,309.1 685.3,315.6 686.3,333.8 687.3,308.5 688.3,306.5 689.2,308.2 690.2,310.2 691.2,312.5 692.2,331.0 693.2,331.9 694.2,317.9 695.2,334.6 696.2,335.0 697.1,335.0 698.1,335.0 699.1,334.6 700.1,333.8 701.1,334.9 702.1,330.4 703.1,334.3 704.1,334.6 705.0,334.2 706.0,333.8 707.0,335.0 708.0,330.7 709.0,333.8 710.0,315.5 711.0,330.7 712.0,305.4 712.9,324.4 713.9,306.5 714.9,331.8 715.9,308.9 716.9,333.8 717.9,333.8 718.9,331.2 719.9,310.7 720.8,333.8 721.8,330.0 722.8,327.2 723.8,323.8 724.8,330.0 725.8,305.0 726.8,312.5 727.8,333.8 728.7,332.0 729.7,329.7 730.7,333.8 731.7,322.8 732.7,308.3 733.7,310.4 734.7,305.2 735.7,305.4 736.6,308.2 737.6,310.7 738.6,310.1 739.6,319.6 740.6,325.7 741.6,330.8 742.6,330.9 743.6,305.4 744.5,305.2 745.5,333.8 746.5,331.0 747.5,305.4 748.5,334.7 749.5,308.3 750.5,334.1 751.5,334.7 752.4,332.8 753.4,332.9 754.4,308.2 755.4,335.0 756.4,330.4 757.4,310.4 758.4,330.0 759.4,326.8 760.3,305.9 761.3,306.4 762.3,323.8 763.3,296.7 764.3,334.1 765.3,335.0 766.3,335.0 767.3,331.5 768.2,334.7 769.2,335.0 770.2,304.3 771.2,308.2 772.2,335.0 773.2,331.8 774.2,334.5 775.2,331.2 776.1,334.7 777.1,331.8 778.1,321.5 779.1,334.9 780.1,331.9 781.1,310.4 782.1,308.3 783.1,305.4 784.0,305.9 785.0,305.7 786.0,324.6 787.0,330.7 788.0,334.5 789.0,331.6 790.0,335.0 791.0,335.0 791.9,335.0 792.9,322.4 793.9,334.9 794.9,331.1 795.9,335.0 796.9,344.0 797.9,344.0 798.9,344.0 799.8,334.6 800.8,335.0 801.8,335.0 802.8,334.4 803.8,311.6 804.8,308.9 805.8,308.2 806.8,308.1 807.7,330.4 808.7,308.6 809.7,337.4 810.7,335.0 811.7,335.0 812.7,335.0 813.7,331.8 814.7,332.0 815.6,334.1 816.6,330.5 817.6,334.6 818.6,335.0 819.6,334.9 820.6,312.5 821.6,333.8 822.6,332.0 823.5,333.8 824.5,331.7 825.5,331.0 826.5,310.7 827.5,308.6 828.5,314.0 829.5,327.1 830.5,304.8 831.4,340.8 832.4,341.6 833.4,335.0 834.4,334.6 835.4,334.6 836.4,324.6 837.4,317.8 838.4,346.0 839.3,334.6 840.3,334.9 841.3,317.9 842.3,344.0 843.3,334.0 844.3,321.8 845.3,332.8 846.3,325.5 847.2,333.8 848.2,313.7 849.2,334.6 850.2,328.5 851.2,331.2 852.2,305.4 853.2,331.0 854.2,310.0 855.1,331.4 856.1,330.2 857.1,290.8 858.1,335.0 859.1,347.8 860.1,350.1 861.1,349.5 862.1,346.1 863.0,349.4 864.0,341.0 865.0,346.4 866.0,349.3 867.0,344.7 868.0,345.1 869.0,349.2 870.0,349.4 870.9,343.5 871.9,350.0 872.9,350.1 873.9,347.6 874.9,344.9 875.9,349.2 876.9,345.2 877.9,344.1 878.8,344.7 879.8,345.7 880.8,346.1 881.8,345.7 882.8,349.5 883.8,345.1 884.8,349.4 885.8,348.7 886.7,346.1 887.7,345.8 888.7,351.6 889.7,348.3 890.7,345.7 891.7,349.9 892.7,344.7 893.7,346.4 894.6,345.2 895.6,343.4 896.6,345.2 897.6,346.1 898.6,342.1 899.6,343.4 900.6,343.5 901.6,345.2 902.5,345.2 903.5,344.0 904.5,345.2 905.5,345.4 906.5,345.3 907.5,344.8 908.5,345.8 909.5,346.1 910.4,344.8 911.4,345.0 912.4,344.3 913.4,345.2 914.4,347.2 915.4,347.4 916.4,350.1 917.4,346.4 918.3,348.8 919.3,348.0 920.3,344.7 921.3,344.0 922.3,345.4 923.3,342.7 924.3,345.8 925.3,344.1 926.2,346.0 927.2,349.5 928.2,344.0 929.2,345.9 930.2,347.6 931.2,344.8 932.2,343.6 933.2,343.6 934.1,344.9 935.1,343.6 936.1,342.0 937.1,343.9 938.1,342.7 939.1,343.4 940.1,341.6 941.1,343.4 942.0,341.5 943.0,342.3 944.0,342.7 945.0,341.5 946.0,340.8" fill="none" stroke="#059669" stroke-width="2.2" stroke-linejoin="round" stroke-linecap="round"/>
<polyline points="76.0,208.9 77.0,216.7 78.0,223.4 79.0,228.3 80.0,236.4 80.9,228.3 81.9,223.3 82.9,216.9 83.9,223.4 84.9,223.3 85.9,199.8 86.9,223.4 87.9,224.6 88.8,223.3 89.8,226.2 90.8,227.6 91.8,211.5 92.8,216.7 93.8,236.0 94.8,216.6 95.8,215.8 96.7,199.8 97.7,220.3 98.7,223.2 99.7,223.4 100.7,220.5 101.7,223.3 102.7,213.2 103.7,216.6 104.6,200.1 105.6,199.8 106.6,160.5 107.6,170.2 108.6,170.2 109.6,209.6 110.6,215.8 111.6,209.6 112.5,208.2 113.5,233.3 114.5,241.0 115.5,230.2 116.5,223.3 117.5,223.8 118.5,223.4 119.5,227.6 120.4,220.4 121.4,213.7 122.4,221.6 123.4,214.1 124.4,236.4 125.4,233.9 126.4,228.8 127.4,229.4 128.3,230.2 129.3,223.4 130.3,223.4 131.3,224.4 132.3,227.8 133.3,231.4 134.3,223.4 135.3,236.4 136.2,240.4 137.2,233.6 138.2,244.6 139.2,239.4 140.2,240.4 141.2,238.9 142.2,236.3 143.2,251.7 144.1,206.3 145.1,236.6 146.1,237.6 147.1,234.6 148.1,248.7 149.1,242.6 150.1,246.3 151.1,241.1 152.0,232.3 153.0,233.3 154.0,228.3 155.0,223.5 156.0,229.7 157.0,233.3 158.0,246.2 159.0,238.6 159.9,241.0 160.9,231.4 161.9,230.1 162.9,230.4 163.9,216.6 164.9,239.0 165.9,223.4 166.9,231.9 167.8,231.4 168.8,242.9 169.8,248.9 170.8,223.4 171.8,227.9 172.8,242.4 173.8,237.1 174.8,229.7 175.7,234.8 176.7,236.4 177.7,233.2 178.7,223.4 179.7,223.4 180.7,230.1 181.7,233.2 182.7,241.8 183.6,237.6 184.6,246.3 185.6,230.4 186.6,230.5 187.6,237.1 188.6,236.4 189.6,236.6 190.6,241.3 191.5,240.4 192.5,240.4 193.5,233.2 194.5,200.3 195.5,223.3 196.5,223.4 197.5,216.6 198.5,229.6 199.4,233.3 200.4,231.4 201.4,233.3 202.4,230.8 203.4,236.3 204.4,236.3 205.4,233.3 206.4,230.2 207.3,238.7 208.3,238.8 209.3,237.6 210.3,228.0 211.3,226.9 212.3,237.0 213.3,226.6 214.3,232.3 215.2,231.4 216.2,207.0 217.2,223.4 218.2,223.3 219.2,223.3 220.2,225.0 221.2,223.4 222.2,236.4 223.1,236.4 224.1,231.9 225.1,230.2 226.1,235.6 227.1,236.3 228.1,236.7 229.1,251.5 230.1,233.3 231.0,233.3 232.0,241.1 233.0,241.0 234.0,233.3 235.0,232.1 236.0,225.6 237.0,223.4 238.0,241.1 238.9,223.4 239.9,199.8 240.9,231.6 241.9,233.2 242.9,223.4 243.9,228.7 244.9,233.2 245.9,236.4 246.8,233.2 247.8,232.7 248.8,233.7 249.8,223.4 250.8,238.3 251.8,233.9 252.8,223.4 253.8,232.6 254.7,238.6 255.7,240.5 256.7,247.9 257.7,224.1 258.7,223.3 259.7,224.5 260.7,234.8 261.7,247.0 262.6,227.7 263.6,223.2 264.6,223.4 265.6,225.2 266.6,222.7 267.6,229.5 268.6,223.4 269.6,228.1 270.5,212.0 271.5,223.2 272.5,160.5 273.5,171.2 274.5,200.0 275.5,210.4 276.5,201.6 277.5,223.4 278.4,232.3 279.4,227.9 280.4,226.7 281.4,216.8 282.4,216.6 283.4,223.4 284.4,200.0 285.4,227.0 286.3,199.8 287.3,199.8 288.3,223.4 289.3,210.4 290.3,217.0 291.3,224.4 292.3,223.4 293.3,224.5 294.2,224.1 295.2,226.6 296.2,223.4 297.2,233.2 298.2,208.9 299.2,221.6 300.2,233.3 301.2,232.1 302.1,223.3 303.1,228.3 304.1,230.2 305.1,223.4 306.1,202.6 307.1,220.4 308.1,223.2 309.1,257.5 310.0,219.7 311.0,214.4 312.0,240.0 313.0,215.3 314.0,228.3 315.0,233.5 316.0,241.1 317.0,240.7 317.9,233.2 318.9,233.2 319.9,227.4 320.9,223.4 321.9,240.4 322.9,231.6 323.9,230.9 324.9,218.4 325.8,210.8 326.8,228.0 327.8,182.3 328.8,231.0 329.8,214.8 330.8,222.1 331.8,223.4 332.8,227.6 333.7,214.7 334.7,240.7 335.7,215.1 336.7,221.5 337.7,199.7 338.7,197.1 339.7,195.3 340.7,216.6 341.6,210.6 342.6,223.4 343.6,170.2 344.6,220.5 345.6,205.1 346.6,205.7 347.6,199.8 348.6,221.7 349.5,228.0 350.5,223.4 351.5,168.9 352.5,223.3 353.5,231.5 354.5,223.2 355.5,223.4 356.5,176.3 357.4,200.3 358.4,226.2 359.4,231.6 360.4,223.4 361.4,209.8 362.4,233.3 363.4,232.6 364.4,224.4 365.3,223.4 366.3,220.4 367.3,230.2 368.3,223.3 369.3,251.8 370.3,231.2 371.3,231.4 372.3,230.2 373.2,233.1 374.2,233.1 375.2,224.5 376.2,223.2 377.2,223.3 378.2,223.3 379.2,223.3 380.2,214.8 381.1,223.4 382.1,214.7 383.1,213.3 384.1,223.3 385.1,233.1 386.1,214.9 387.1,223.3 388.1,219.0 389.0,209.6 390.0,200.3 391.0,215.1 392.0,223.3 393.0,215.1 394.0,232.5 395.0,223.3 396.0,205.7 396.9,207.1 397.9,223.3 398.9,223.4 399.9,223.3 400.9,233.2 401.9,223.4 402.9,234.8 403.9,223.2 404.8,223.0 405.8,223.4 406.8,223.9 407.8,231.2 408.8,248.1 409.8,233.3 410.8,235.7 411.8,239.4 412.7,233.2 413.7,229.7 414.7,215.5 415.7,231.7 416.7,233.2 417.7,233.2 418.7,233.1 419.7,228.3 420.6,225.3 421.6,231.2 422.6,240.6 423.6,220.4 424.6,223.3 425.6,223.4 426.6,228.4 427.6,226.3 428.5,226.6 429.5,210.1 430.5,213.3 431.5,220.4 432.5,226.5 433.5,213.9 434.5,223.3 435.5,215.7 436.4,224.2 437.4,233.2 438.4,170.2 439.4,199.8 440.4,223.3 441.4,200.5 442.4,212.4 443.4,214.7 444.3,233.1 445.3,221.6 446.3,228.3 447.3,223.3 448.3,215.7 449.3,212.4 450.3,200.0 451.3,192.4 452.2,194.7 453.2,208.9 454.2,200.0 455.2,215.1 456.2,228.0 457.2,213.3 458.2,233.3 459.2,223.1 460.1,222.6 461.1,223.4 462.1,219.0 463.1,223.2 464.1,240.4 465.1,226.2 466.1,231.5 467.1,233.2 468.0,226.7 469.0,233.2 470.0,236.3 471.0,240.4 472.0,223.5 473.0,224.2 474.0,223.4 475.0,233.2 475.9,227.8 476.9,223.4 477.9,231.7 478.9,226.6 479.9,92.4 480.9,215.1 481.9,223.3 482.9,213.8 483.8,231.5 484.8,230.2 485.8,223.4 486.8,223.4 487.8,223.3 488.8,220.4 489.8,223.2 490.8,233.2 491.7,238.4 492.7,233.2 493.7,231.7 494.7,213.9 495.7,223.4 496.7,223.3 497.7,238.0 498.7,232.3 499.6,217.1 500.6,212.6 501.6,230.2 502.6,226.8 503.6,230.5 504.6,233.4 505.6,200.3 506.6,233.3 507.5,233.3 508.5,216.7 509.5,220.5 510.5,228.0 511.5,220.3 512.5,219.8 513.5,226.9 514.5,231.9 515.4,233.0 516.4,223.3 517.4,237.7 518.4,240.3 519.4,225.0 520.4,236.6 521.4,223.3 522.4,227.9 523.3,211.9 524.3,214.8 525.3,214.8 526.3,223.3 527.3,223.3 528.3,217.0 529.3,234.2 530.3,224.1 531.2,231.5 532.2,223.4 533.2,223.4 534.2,236.6 535.2,216.9 536.2,233.6 537.2,224.5 538.2,236.6 539.1,223.3 540.1,231.8 541.1,231.4 542.1,223.3 543.1,168.8 544.1,223.3 545.1,224.5 546.1,224.6 547.0,226.7 548.0,223.4 549.0,223.3 550.0,239.7 551.0,223.4 552.0,230.2 553.0,223.4 554.0,228.4 554.9,226.6 555.9,238.6 556.9,232.1 557.9,236.6 558.9,236.3 559.9,232.3 560.9,236.4 561.9,233.6 562.8,240.4 563.8,223.4 564.8,241.1 565.8,212.7 566.8,225.1 567.8,205.7 568.8,213.8 569.8,223.4 570.7,201.9 571.7,223.3 572.7,223.1 573.7,223.4 574.7,231.5 575.7,223.4 576.7,236.3 577.7,223.4 578.6,226.9 579.6,222.4 580.6,223.4 581.6,234.7 582.6,235.8 583.6,200.3 584.6,230.5 585.6,230.2 586.5,235.3 587.5,230.2 588.5,232.1 589.5,216.6 590.5,232.6 591.5,212.7 592.5,230.1 593.5,222.9 594.4,219.7 595.4,225.0 596.4,223.4 597.4,223.4 598.4,219.7 599.4,229.3 600.4,196.0 601.4,220.2 602.3,212.0 603.3,231.5 604.3,170.2 605.3,230.2 606.3,199.8 607.3,220.0 608.3,216.7 609.3,210.0 610.2,215.8 611.2,239.5 612.2,231.5 613.2,223.3 614.2,227.9 615.2,223.3 616.2,209.9 617.2,223.4 618.1,207.1 619.1,223.3 620.1,200.0 621.1,199.8 622.1,201.8 623.1,223.4 624.1,235.0 625.1,223.4 626.0,216.6 627.0,230.6 628.0,231.6 629.0,219.9 630.0,223.3 631.0,214.8 632.0,231.3 633.0,230.2 633.9,231.4 634.9,236.4 635.9,240.4 636.9,229.4 637.9,228.0 638.9,218.7 639.9,227.7 640.9,227.9 641.8,204.0 642.8,220.5 643.8,215.5 644.8,226.7 645.8,224.4 646.8,225.1 647.8,232.1 648.8,231.5 649.7,223.4 650.7,229.2 651.7,236.3 652.7,223.7 653.7,237.1 654.7,225.0 655.7,231.4 656.7,236.4 657.6,236.3 658.6,233.4 659.6,237.6 660.6,212.1 661.6,228.0 662.6,233.2 663.6,222.8 664.6,223.2 665.5,222.2 666.5,222.3 667.5,215.1 668.5,223.4 669.5,172.5 670.5,210.3 671.5,223.3 672.5,214.0 673.4,217.9 674.4,231.6 675.4,215.8 676.4,214.9 677.4,232.2 678.4,222.0 679.4,227.8 680.4,223.3 681.3,223.3 682.3,230.1 683.3,220.4 684.3,211.4 685.3,208.2 686.3,232.6 687.3,223.1 688.3,224.4 689.2,218.9 690.2,223.2 691.2,211.8 692.2,228.8 693.2,223.6 694.2,223.3 695.2,233.2 696.2,229.9 697.1,223.3 698.1,236.3 699.1,223.7 700.1,223.4 701.1,236.8 702.1,214.9 703.1,230.2 704.1,227.6 705.0,234.1 706.0,223.7 707.0,225.3 708.0,222.3 709.0,223.4 710.0,224.5 711.0,223.4 712.0,218.4 712.9,208.6 713.9,195.0 714.9,224.5 715.9,212.1 716.9,229.2 717.9,223.3 718.9,223.4 719.9,199.9 720.8,208.3 721.8,223.4 722.8,217.7 723.8,220.4 724.8,223.4 725.8,189.0 726.8,215.4 727.8,223.4 728.7,230.2 729.7,224.4 730.7,233.2 731.7,219.1 732.7,216.6 733.7,233.2 734.7,198.6 735.7,223.3 736.6,223.6 737.6,216.6 738.6,223.3 739.6,223.4 740.6,223.4 741.6,221.2 742.6,215.8 743.6,200.2 744.5,183.2 745.5,223.4 746.5,223.7 747.5,200.5 748.5,227.0 749.5,226.5 750.5,241.1 751.5,239.9 752.4,237.3 753.4,236.6 754.4,192.0 755.4,244.7 756.4,208.6 757.4,233.3 758.4,241.0 759.4,240.2 760.3,223.5 761.3,174.1 762.3,223.3 763.3,194.8 764.3,229.1 765.3,236.2 766.3,241.0 767.3,220.4 768.2,228.2 769.2,256.0 770.2,170.2 771.2,200.3 772.2,256.2 773.2,223.4 774.2,226.2 775.2,223.3 776.1,236.7 777.1,223.3 778.1,230.2 779.1,216.6 780.1,181.2 781.1,223.4 782.1,204.6 783.1,210.1 784.0,208.6 785.0,200.0 786.0,223.8 787.0,227.4 788.0,243.2 789.0,213.2 790.0,240.6 791.0,224.6 791.9,231.9 792.9,230.1 793.9,241.0 794.9,229.3 795.9,237.6 796.9,247.8 797.9,245.3 798.9,252.0 799.8,236.3 800.8,238.6 801.8,240.9 802.8,199.5 803.8,194.9 804.8,224.5 805.8,218.0 806.8,223.5 807.7,216.6 808.7,216.7 809.7,233.2 810.7,236.3 811.7,237.1 812.7,245.8 813.7,238.2 814.7,237.1 815.6,230.8 816.6,207.1 817.6,236.3 818.6,233.2 819.6,240.9 820.6,213.1 821.6,223.4 822.6,236.4 823.5,227.7 824.5,224.6 825.5,230.2 826.5,214.8 827.5,222.2 828.5,216.8 829.5,223.3 830.5,229.9 831.4,224.9 832.4,227.8 833.4,257.6 834.4,230.2 835.4,236.7 836.4,235.8 837.4,223.4 838.4,231.8 839.3,223.4 840.3,223.3 841.3,211.7 842.3,242.1 843.3,225.6 844.3,200.2 845.3,220.4 846.3,223.3 847.2,223.4 848.2,214.7 849.2,233.5 850.2,223.3 851.2,238.6 852.2,223.3 853.2,241.1 854.2,240.4 855.1,223.4 856.1,225.0 857.1,198.4 858.1,237.3 859.1,299.1 860.1,332.3 861.1,333.7 862.1,330.9 863.0,331.5 864.0,256.7 865.0,327.6 866.0,327.7 867.0,331.7 868.0,333.7 869.0,332.3 870.0,331.6 870.9,322.4 871.9,331.5 872.9,332.9 873.9,331.0 874.9,328.4 875.9,333.2 876.9,329.7 877.9,329.7 878.8,329.6 879.8,330.4 880.8,331.5 881.8,327.6 882.8,331.5 883.8,329.1 884.8,327.7 885.8,330.3 886.7,328.4 887.7,331.3 888.7,335.3 889.7,331.5 890.7,330.0 891.7,331.5 892.7,330.0 893.7,331.6 894.6,327.6 895.6,329.0 896.6,330.0 897.6,328.8 898.6,326.0 899.6,327.7 900.6,327.5 901.6,329.2 902.5,328.1 903.5,327.6 904.5,329.0 905.5,331.5 906.5,327.6 907.5,329.6 908.5,328.9 909.5,331.5 910.4,331.5 911.4,330.1 912.4,322.8 913.4,329.3 914.4,331.5 915.4,331.8 916.4,331.3 917.4,329.1 918.3,331.5 919.3,332.5 920.3,325.5 921.3,325.9 922.3,328.4 923.3,324.7 924.3,330.2 925.3,327.0 926.2,328.8 927.2,329.0 928.2,327.6 929.2,326.7 930.2,331.4 931.2,326.1 932.2,332.9 933.2,327.7 934.1,323.0 935.1,325.8 936.1,322.4 937.1,317.8 938.1,322.7 939.1,322.8 940.1,322.7 941.1,326.8 942.0,322.8 943.0,323.1 944.0,325.0 945.0,322.8 946.0,321.6" fill="none" stroke="#d97706" stroke-width="2.2" stroke-linejoin="round" stroke-linecap="round"/>
<line x1="76" y1="70" x2="94" y2="70" stroke="#2563eb" stroke-width="3"/>
<text x="100" y="74" font-family="Arial, sans-serif" font-size="11" fill="#0f172a">avg fee</text>
<line x1="179" y1="70" x2="197" y2="70" stroke="#059669" stroke-width="3"/>
<text x="203" y="74" font-family="Arial, sans-serif" font-size="11" fill="#0f172a">median fee</text>
<line x1="303" y1="70" x2="321" y2="70" stroke="#d97706" stroke-width="3"/>
<text x="327" y="74" font-family="Arial, sans-serif" font-size="11" fill="#0f172a">p90 fee</text>
<text x="28" y="404" font-family="Arial, sans-serif" font-size="11" fill="#64748b">Source: hourly_features.csv</text>
</svg>