<svg xmlns="http://www.w3.org/2000/svg" width="980" height="420" viewBox="0 0 980 420">
<rect width="100%" height="100%" fill="#ffffff"/>
<text x="28" y="34" font-family="Arial, sans-serif" font-size="20" font-weight="700" fill="#0f172a">Hourly fee trend</text>
<text x="28" y="56" font-family="Arial, sans-serif" font-size="12" fill="#64748b">Average, median, and p90 total fee by hour</text>
<line x1="76" y1="362.0" x2="946" y2="362.0" stroke="#e2e8f0" stroke-width="1"/>
<text x="68" y="366.0" font-family="Arial, sans-serif" font-size="10" text-anchor="end" fill="#64748b">-382K</text>
<line x1="76" y1="292.0" x2="946" y2="292.0" stroke="#e2e8f0" stroke-width="1"/>
<text x="68" y="296.0" font-family="Arial, sans-serif" font-size="10" text-anchor="end" fill="#64748b">2.6M</text>
<line x1="76" y1="222.0" x2="946" y2="222.0" stroke="#e2e8f0" stroke-width="1"/>
<text x="68" y="226.0" font-family="Arial, sans-serif" font-size="10" text-anchor="end" fill="#64748b">5.7M</text>
<line x1="76" y1="152.0" x2="946" y2="152.0" stroke="#e2e8f0" stroke-width="1"/>
<text x="68" y="156.0" font-family="Arial, sans-serif" font-size="10" text-anchor="end" fill="#64748b">8.7M</text>
<line x1="76" y1="82.0" x2="946" y2="82.0" stroke="#e2e8f0" stroke-width="1"/>
<text x="68" y="86.0" font-family="Arial, sans-serif" font-size="10" text-anchor="end" fill="#64748b">11.7M</text>
<line x1="76" y1="362" x2="946" y2="362" stroke="#334155" stroke-width="1"/>
<line x1="76" y1="82" x2="76" y2="362" stroke="#334155" stroke-width="1"/>
<text x="76" y="72" font-family="Arial, sans-serif" font-size="11" fill="#64748b">nanoton</text>
<line x1="76.0" y1="362" x2="76.0" y2="366" stroke="#334155" stroke-width="1"/>
<text x="76.0" y="380" font-family="Arial, sans-serif" font-size="10" text-anchor="middle" fill="#64748b">0</text>
<line x1="511.0" y1="362" x2="511.0" y2="366" stroke="#334155" stroke-width="1"/>
<text x="511.0" y="380" font-family="Arial, sans-serif" font-size="10" text-anchor="middle" fill="#64748b">444</text>
<line x1="946.0" y1="362" x2="946.0" y2="366" stroke="#334155" stroke-width="1"/>
<text x="946.0" y="380" font-family="Arial, sans-serif" font-size="10" text-anchor="middle" fill="#64748b">888</text>
<polyline points="76.0,290.8 77.0,294.6 78.0,296.0 78.9,298.1 79.9,304.8 80.9,297.2 81.9,298.2 82.9,294.6 83.8,299.0 84.8,298.7 85.8,287.8 86.8,299.5 87.8,299.7 88.7,297.4 89.7,300.3 90.7,300.5 91.7,292.5 92.7,292.5 93.6,301.3 94.6,291.1 95.6,289.2 96.6,287.3 97.6,293.8 98.5,294.2 99.5,296.1 100.5,292.1 101.5,297.7 102.5,290.6 103.4,293.2 104.4,288.3 105.4,289.0 106.4,273.1 107.4,284.7 108.3,285.3 109.3,294.6 110.3,299.9 111.3,292.9 112.2,294.9 113.2,304.7 114.2,307.5 115.2,302.1 116.2,297.0 117.1,298.7 118.1,297.9 119.1,304.4 120.1,297.4 121.1,294.5 122.0,296.5 123.0,298.7 124.0,303.1 125.0,303.1 126.0,301.9 126.9,300.3 127.9,303.3 128.9,302.2 129.9,299.4 130.9,299.1 131.8,302.8 132.8,299.1 133.8,301.3 134.8,306.8 135.8,308.7 136.7,306.4 137.7,307.1 138.7,309.1 139.7,305.9 140.7,305.5 141.6,302.0 142.6,308.5 143.6,290.7 144.6,306.4 145.6,306.4 146.5,306.3 147.5,311.2 148.5,307.1 149.5,310.3 150.5,309.1 151.4,305.5 152.4,305.4 153.4,303.2 154.4,303.5 155.4,301.3 156.3,305.1 157.3,307.4 158.3,306.9 159.3,308.1 160.3,305.0 161.2,302.9 162.2,302.7 163.2,298.6 164.2,304.9 165.2,297.0 166.1,299.3 167.1,300.3 168.1,303.9 169.1,311.6 170.1,300.1 171.0,300.5 172.0,308.9 173.0,307.5 174.0,300.3 175.0,304.2 175.9,305.1 176.9,302.6 177.9,300.5 178.9,297.4 179.9,298.7 180.8,301.9 181.8,308.1 182.8,307.4 183.8,307.4 184.8,303.1 185.7,301.9 186.7,304.1 187.7,303.9 188.7,304.0 189.6,308.3 190.6,308.9 191.6,307.3 192.6,301.1 193.6,286.9 194.5,301.6 195.5,298.8 196.5,296.1 197.5,299.6 198.5,305.5 199.4,301.5 200.4,304.9 201.4,302.2 202.4,304.9 203.4,306.8 204.3,304.9 205.3,300.8 206.3,304.8 207.3,308.0 208.3,302.4 209.2,301.7 210.2,303.1 211.2,303.4 212.2,298.9 213.2,298.5 214.1,298.0 215.1,289.4 216.1,296.9 217.1,296.4 218.1,295.5 219.0,299.6 220.0,299.0 221.0,304.6 222.0,304.0 223.0,303.8 223.9,299.2 224.9,301.2 225.9,305.7 226.9,304.5 227.9,312.1 228.8,305.7 229.8,304.3 230.8,307.0 231.8,306.9 232.8,301.9 233.7,303.8 234.7,300.8 235.7,301.6 236.7,300.2 237.7,298.7 238.6,290.6 239.6,296.1 240.6,300.6 241.6,296.6 242.6,302.7 243.5,302.6 244.5,303.0 245.5,302.7 246.5,302.8 247.5,303.7 248.4,300.1 249.4,305.6 250.4,303.0 251.4,299.2 252.4,302.8 253.3,306.7 254.3,306.1 255.3,306.7 256.3,298.5 257.2,301.6 258.2,297.8 259.2,303.8 260.2,300.2 261.2,299.5 262.1,295.6 263.1,298.2 264.1,298.4 265.1,293.8 266.1,299.9 267.0,297.9 268.0,298.6 269.0,294.2 270.0,297.8 271.0,278.0 271.9,284.2 272.9,295.2 273.9,295.7 274.9,294.4 275.9,300.7 276.8,304.3 277.8,302.4 278.8,302.1 279.8,297.9 280.8,295.3 281.7,296.5 282.7,291.4 283.7,292.0 284.7,290.6 285.7,290.0 286.6,299.7 287.6,291.9 288.6,296.8 289.6,299.8 290.6,303.8 291.5,302.5 292.5,302.1 293.5,302.3 294.5,300.8 295.5,303.5 296.4,295.9 297.4,297.8 298.4,304.4 299.4,304.2 300.4,299.5 301.3,303.9 302.3,303.5 303.3,299.0 304.3,288.7 305.3,293.7 306.2,294.2 307.2,303.7 308.2,295.6 309.2,297.0 310.2,305.6 311.1,294.8 312.1,300.5 313.1,305.1 314.1,308.5 315.1,305.5 316.0,304.0 317.0,300.7 318.0,303.8 319.0,299.3 320.0,303.0 320.9,305.0 321.9,303.0 322.9,299.3 323.9,294.4 324.9,299.9 325.8,286.2 326.8,302.1 327.8,293.9 328.8,297.9 329.8,299.5 330.7,297.4 331.7,294.4 332.7,310.4 333.7,291.6 334.6,295.6 335.6,281.6 336.6,294.6 337.6,293.2 338.6,295.0 339.5,291.0 340.5,301.0 341.5,279.9 342.5,297.2 343.5,291.8 344.4,291.5 345.4,283.3 346.4,298.3 347.4,300.4 348.4,298.6 349.3,288.4 350.3,299.0 351.3,304.4 352.3,297.7 353.3,295.5 354.2,279.8 355.2,284.2 356.2,300.5 357.2,299.9 358.2,298.1 359.1,293.4 360.1,303.1 361.1,303.0 362.1,298.6 363.1,296.8 364.0,297.4 365.0,301.3 366.0,298.1 367.0,311.4 368.0,299.4 368.9,303.5 369.9,301.2 370.9,302.9 371.9,304.3 372.9,297.8 373.8,294.4 374.8,299.3 375.8,295.1 376.8,301.8 377.8,292.6 378.7,297.6 379.7,293.9 380.7,290.0 381.7,295.1 382.7,304.6 383.6,291.1 384.6,300.3 385.6,295.9 386.6,293.1 387.6,291.6 388.5,296.8 389.5,297.1 390.5,297.9 391.5,299.5 392.5,292.8 393.4,286.2 394.4,290.1 395.4,300.0 396.4,294.5 397.4,300.9 398.3,303.0 399.3,299.1 400.3,302.5 401.3,295.1 402.2,297.0 403.2,302.8 404.2,301.7 405.2,303.0 406.2,308.6 407.1,306.8 408.1,306.1 409.1,306.5 410.1,304.3 411.1,304.5 412.0,298.3 413.0,301.1 414.0,303.1 415.0,303.3 416.0,304.2 416.9,302.4 417.9,299.4 418.9,304.5 419.9,307.1 420.9,297.3 421.8,298.9 422.8,298.1 423.8,299.7 424.8,297.8 425.8,301.0 426.7,287.2 427.7,294.3 428.7,294.8 429.7,298.6 430.7,291.3 431.6,298.4 432.6,294.6 433.6,298.7 434.6,304.2 435.6,282.2 436.5,289.8 437.5,298.8 438.5,295.1 439.5,293.4 440.5,294.7 441.4,304.3 442.4,296.9 443.4,301.7 444.4,296.7 445.4,295.6 446.3,292.9 447.3,291.6 448.3,286.7 449.3,287.8 450.3,294.2 451.2,292.6 452.2,297.5 453.2,303.1 454.2,296.8 455.2,304.1 456.1,298.7 457.1,297.8 458.1,299.3 459.1,297.1 460.1,296.6 461.0,305.5 462.0,301.9 463.0,304.5 464.0,302.9 465.0,303.4 465.9,302.7 466.9,304.5 467.9,301.7 468.9,300.0 469.9,297.3 470.8,295.0 471.8,305.0 472.8,302.7 473.8,303.7 474.8,302.8 475.7,298.5 476.7,257.0 477.7,291.0 478.7,298.5 479.6,296.3 480.6,301.0 481.6,301.6 482.6,299.9 483.6,299.3 484.5,299.6 485.5,296.0 486.5,299.4 487.5,305.6 488.5,306.5 489.4,300.9 490.4,302.7 491.4,295.0 492.4,302.2 493.4,296.9 494.3,304.8 495.3,299.1 496.3,295.6 497.3,295.1 498.3,300.9 499.2,301.0 500.2,300.7 501.2,304.5 502.2,292.6 503.2,303.5 504.1,306.0 505.1,295.5 506.1,297.4 507.1,302.8 508.1,295.8 509.0,299.5 510.0,304.0 511.0,301.7 512.0,303.8 513.0,300.8 513.9,306.1 514.9,305.6 515.9,300.8 516.9,303.2 517.9,297.1 518.8,300.2 519.8,292.3 520.8,292.0 521.8,292.1 522.8,299.3 523.7,298.5 524.7,298.8 525.7,301.5 526.7,299.6 527.7,305.3 528.6,300.2 529.6,300.6 530.6,304.7 531.6,299.2 532.6,304.4 533.5,299.7 534.5,306.4 535.5,299.1 536.5,304.5 537.5,303.3 538.4,298.0 539.4,263.7 540.4,302.9 541.4,304.6 542.4,301.3 543.3,300.8 544.3,298.3 545.3,299.9 546.3,302.7 547.2,298.6 548.2,304.0 549.2,302.8 550.2,303.0 551.2,301.1 552.1,308.3 553.1,304.5 554.1,309.0 555.1,304.5 556.1,303.7 557.0,304.9 558.0,303.6 559.0,305.3 560.0,299.5 561.0,305.2 561.9,297.1 562.9,302.2 563.9,288.1 564.9,294.6 565.9,299.7 566.8,287.4 567.8,299.0 568.8,298.4 569.8,296.8 570.8,301.1 571.7,299.5 572.7,302.6 573.7,299.3 574.7,303.0 575.7,298.0 576.6,301.6 577.6,305.3 578.6,304.5 579.6,290.4 580.6,303.1 581.5,299.6 582.5,302.4 583.5,303.1 584.5,304.7 585.5,296.3 586.4,301.7 587.4,292.9 588.4,298.2 589.4,294.8 590.4,293.5 591.3,299.4 592.3,297.4 593.3,300.4 594.3,295.6 595.3,301.5 596.2,282.6 597.2,297.4 598.2,291.2 599.2,300.8 600.2,281.3 601.1,303.6 602.1,292.1 603.1,296.5 604.1,300.9 605.1,293.9 606.0,295.3 607.0,305.2 608.0,304.7 609.0,300.3 610.0,302.0 610.9,297.5 611.9,295.0 612.9,296.6 613.9,292.7 614.9,298.7 615.8,291.1 616.8,289.9 617.8,292.8 618.8,302.6 619.8,303.5 620.7,301.6 621.7,297.5 622.7,303.0 623.7,302.5 624.6,299.3 625.6,300.0 626.6,295.7 627.6,300.6 628.6,302.5 629.5,302.2 630.5,300.7 631.5,305.4 632.5,305.1 633.5,301.0 634.4,294.2 635.4,301.0 636.4,298.9 637.4,290.4 638.4,295.9 639.3,294.1 640.3,301.3 641.3,298.2 642.3,299.2 643.3,302.6 644.2,300.9 645.2,299.2 646.2,302.7 647.2,303.6 648.2,299.5 649.1,304.4 650.1,298.2 651.1,302.7 652.1,304.9 653.1,303.3 654.0,303.8 655.0,305.7 656.0,294.6 657.0,306.7 658.0,303.7 658.9,295.1 659.9,294.1 660.9,293.7 661.9,295.9 662.9,295.9 663.8,298.1 664.8,284.7 665.8,294.9 666.8,298.6 667.8,296.3 668.7,294.2 669.7,300.6 670.7,294.3 671.7,295.9 672.7,303.8 673.6,295.8 674.6,302.6 675.6,297.7 676.6,300.0 677.6,300.7 678.5,298.3 679.5,294.8 680.5,295.8 681.5,303.0 682.5,295.6 683.4,296.0 684.4,295.2 685.4,295.3 686.4,295.0 687.4,299.9 688.3,299.0 689.3,295.9 690.3,303.3 691.3,302.9 692.2,298.2 693.2,305.5 694.2,300.9 695.2,300.4 696.2,305.2 697.1,295.8 698.1,301.8 699.1,303.2 700.1,304.6 701.1,299.1 702.0,301.0 703.0,298.0 704.0,298.8 705.0,297.3 706.0,300.8 706.9,296.0 707.9,293.0 708.9,284.2 709.9,298.8 710.9,293.9 711.8,298.9 712.8,298.8 713.8,298.0 714.8,291.0 715.8,292.3 716.7,298.2 717.7,297.5 718.7,297.5 719.7,298.5 720.7,288.2 721.6,296.5 722.6,297.3 723.6,301.7 724.6,301.0 725.6,305.4 726.5,295.8 727.5,295.1 728.5,299.8 729.5,289.6 730.5,296.7 731.4,295.1 732.4,295.1 733.4,294.8 734.4,297.5 735.4,299.5 736.3,295.8 737.3,297.0 738.3,291.7 739.3,285.1 740.3,299.7 741.2,301.0 742.2,293.6 743.2,302.3 744.2,297.5 745.2,307.7 746.1,292.5 747.1,304.9 748.1,304.1 749.1,291.9 750.1,305.2 751.0,297.8 752.0,298.1 753.0,307.4 754.0,305.4 755.0,294.0 755.9,284.5 756.9,295.7 757.9,281.6 758.9,295.8 759.9,307.1 760.8,303.5 761.8,299.2 762.8,301.5 763.8,309.0 764.8,287.8 765.7,293.3 766.7,314.3 767.7,300.8 768.7,304.2 769.6,299.2 770.6,305.4 771.6,297.5 772.6,303.5 773.6,297.3 774.5,286.2 775.5,295.6 776.5,293.4 777.5,295.3 778.5,292.6 779.4,295.0 780.4,297.5 781.4,303.2 782.4,307.8 783.4,295.2 784.3,306.6 785.3,305.0 786.3,305.4 787.3,303.1 788.3,297.4 789.2,293.5 790.2,305.0 791.2,310.4 792.2,306.6 793.2,309.4 794.1,304.0 795.1,307.8 796.1,308.2 797.1,299.0 798.1,288.2 799.0,297.1 800.0,298.1 801.0,298.6 802.0,298.7 803.0,295.2 803.9,305.8 804.9,307.8 805.9,304.4 806.9,309.3 807.9,306.7 808.8,303.2 809.8,303.6 810.8,296.5 811.8,304.1 812.8,305.5 813.7,308.2 814.7,291.8 815.7,301.9 816.7,305.3 817.7,302.2 818.6,300.9 819.6,302.7 820.6,295.0 821.6,295.0 822.6,295.3 823.5,299.1 824.5,299.0 825.5,300.9 826.5,304.6 827.5,307.3 828.4,303.1 829.4,300.9 830.4,303.0 831.4,290.9 832.4,301.1 833.3,301.9 834.3,302.0 835.3,295.6 836.3,306.6 837.2,304.1 838.2,288.8 839.2,297.4 840.2,295.3 841.2,295.7 842.1,296.1 843.1,306.3 844.1,300.3 845.1,304.9 846.1,295.7 847.0,303.6 848.0,305.1 849.0,302.6 850.0,301.6 851.0,285.2 851.9,304.3 852.9,334.7 853.9,343.7 854.9,343.8 855.9,343.5 856.8,344.0 857.8,319.0 858.8,342.3 859.8,343.1 860.8,342.6 861.7,343.4 862.7,343.4 863.7,343.4 864.7,338.9 865.7,343.5 866.6,344.5 867.6,342.7 868.6,342.0 869.6,343.8 870.6,343.0 871.5,343.2 872.5,340.3 873.5,342.7 874.5,343.4 875.5,342.2 876.4,343.9 877.4,341.8 878.4,341.2 879.4,342.8 880.4,342.4 881.3,343.3 882.3,344.8 883.3,343.7 884.3,343.3 885.3,344.0 886.2,342.7 887.2,343.5 888.2,341.8 889.2,340.1 890.2,342.3 891.1,342.4 892.1,339.6 893.1,341.5 894.1,340.5 895.1,343.1 896.0,341.6 897.0,340.5 898.0,342.3 899.0,342.5 900.0,342.2 900.9,343.0 901.9,342.6 902.9,342.9 903.9,343.5 904.9,342.4 905.8,340.9 906.8,341.4 907.8,342.5 908.8,343.3 909.8,343.5 910.7,343.3 911.7,343.2 912.7,342.6 913.7,341.1 914.6,340.9 915.6,341.6 916.6,340.6 917.6,341.3 918.6,341.0 919.5,342.8 920.5,341.5 921.5,342.2 922.5,341.5 923.5,342.8 924.4,341.0 925.4,340.5 926.4,341.9 927.4,341.5 928.4,341.0 929.3,338.4 930.3,325.0 931.3,339.0 932.3,340.0 933.3,339.6 934.2,341.0 935.2,338.3 936.2,339.7 937.2,338.7 938.2,339.5 939.1,333.1 940.1,340.3 941.1,337.2 942.1,337.3 943.1,338.6 944.0,339.3 945.0,338.5 946.0,338.9" fill="none" stroke="#2563eb" stroke-width="2.2" stroke-linejoin="round" stroke-linecap="round"/>
<polyline points="76.0,311.4 77.0,324.9 78.0,334.1 78.9,334.5 79.9,335.0 80.9,334.6 81.9,334.4 82.9,330.8 83.8,334.6 84.8,334.6 85.8,320.5 86.8,334.6 87.8,334.2 88.7,330.7 89.7,334.4 90.7,333.8 91.7,321.1 92.7,330.5 93.6,332.4 94.6,310.6 95.6,302.9 96.6,305.9 97.6,320.5 98.5,315.5 99.5,310.4 100.5,329.8 101.5,333.4 102.5,312.5 103.4,335.0 104.4,319.0 105.4,330.5 106.4,283.8 107.4,300.4 108.3,303.3 109.3,308.3 110.3,331.3 111.3,312.5 112.2,310.6 113.2,334.9 114.2,335.0 115.2,329.7 116.2,310.6 117.1,310.6 118.1,312.5 119.1,340.8 120.1,334.9 121.1,308.9 122.0,310.3 123.0,334.9 124.0,335.3 125.0,334.2 126.0,333.4 126.9,333.9 127.9,334.6 128.9,331.5 129.9,334.6 130.9,330.9 131.8,334.3 132.8,334.6 133.8,334.2 134.8,335.0 135.8,334.9 136.7,334.9 137.7,344.0 138.7,335.8 139.7,334.9 140.7,334.9 141.6,330.7 142.6,344.0 143.6,335.6 144.6,336.2 145.6,336.2 146.5,335.0 147.5,338.1 148.5,336.2 149.5,336.1 150.5,335.1 151.4,335.0 152.4,335.0 153.4,334.5 154.4,335.0 155.4,334.6 156.3,334.6 157.3,335.0 158.3,335.0 159.3,335.0 160.3,334.3 161.2,334.9 162.2,334.9 163.2,330.7 164.2,334.7 165.2,312.2 166.1,329.6 167.1,331.1 168.1,333.8 169.1,344.0 170.1,330.6 171.0,333.8 172.0,335.0 173.0,336.2 174.0,334.7 175.0,334.7 175.9,334.8 176.9,334.6 177.9,331.0 178.9,330.5 179.9,331.5 180.8,333.0 181.8,335.0 182.8,334.9 183.8,334.9 184.8,334.1 185.7,334.9 186.7,334.9 187.7,331.5 188.7,332.3 189.6,336.2 190.6,344.0 191.6,336.1 192.6,335.0 193.6,310.1 194.5,334.9 195.5,334.5 196.5,334.7 197.5,333.8 198.5,334.9 199.4,334.0 200.4,334.9 201.4,334.9 202.4,334.9 203.4,335.0 204.3,334.7 205.3,333.2 206.3,334.9 207.3,335.0 208.3,335.0 209.2,334.1 210.2,334.2 211.2,330.3 212.2,310.6 213.2,298.7 214.1,309.8 215.1,304.4 216.1,310.2 217.1,310.1 218.1,327.6 219.0,333.0 220.0,333.8 221.0,333.8 222.0,334.9 223.0,334.9 223.9,333.8 224.9,334.7 225.9,334.7 226.9,334.6 227.9,344.0 228.8,334.9 229.8,334.9 230.8,335.0 231.8,335.0 232.8,333.8 233.7,334.4 234.7,330.9 235.7,319.7 236.7,298.7 237.7,334.1 238.6,326.9 239.6,334.7 240.6,331.8 241.6,331.8 242.6,331.4 243.5,334.7 244.5,334.4 245.5,334.6 246.5,334.6 247.5,330.7 248.4,330.7 249.4,334.9 250.4,334.4 251.4,331.0 252.4,334.6 253.3,335.0 254.3,334.6 255.3,334.9 256.3,330.5 257.2,334.3 258.2,315.6 259.2,334.6 260.2,298.7 261.2,334.0 262.1,329.7 263.1,332.6 264.1,331.8 265.1,310.6 266.1,331.8 267.0,332.3 268.0,334.6 269.0,323.8 270.0,334.0 271.0,295.8 271.9,298.7 272.9,327.1 273.9,331.1 274.9,330.7 275.9,332.3 276.8,334.6 277.8,334.7 278.8,334.1 279.8,324.8 280.8,315.1 281.7,308.6 282.7,305.4 283.7,298.7 284.7,306.5 285.7,305.4 286.6,331.7 287.6,305.5 288.6,317.0 289.6,333.4 290.6,335.0 291.5,334.1 292.5,335.0 293.5,334.9 294.5,333.7 295.5,335.0 296.4,319.7 297.4,319.7 298.4,334.1 299.4,333.8 300.4,333.4 301.3,334.7 302.3,334.6 303.3,331.3 304.3,305.4 305.3,308.2 306.2,308.3 307.2,298.7 308.2,310.2 309.2,335.5 310.2,336.2 311.1,312.5 312.1,334.5 313.1,336.2 314.1,335.9 315.1,336.2 316.0,335.0 317.0,333.8 318.0,334.3 319.0,334.4 320.0,333.5 320.9,334.6 321.9,334.4 322.9,329.6 323.9,308.9 324.9,334.1 325.8,308.2 326.8,334.4 327.8,310.7 328.8,310.3 329.8,325.1 330.7,305.5 331.7,319.7 332.7,344.0 333.7,315.6 334.6,334.2 335.6,308.2 336.6,309.9 337.6,330.0 338.6,334.1 339.5,335.0 340.5,333.2 341.5,323.8 342.5,333.8 343.5,308.2 344.4,306.1 345.4,323.8 346.4,315.6 347.4,333.4 348.4,332.6 349.3,303.2 350.3,334.1 351.3,334.7 352.3,326.5 353.3,333.8 354.2,320.8 355.2,333.7 356.2,333.7 357.2,334.1 358.2,330.7 359.1,331.8 360.1,333.7 361.1,334.6 362.1,333.8 363.1,333.0 364.0,310.6 365.0,334.7 366.0,330.7 367.0,345.9 368.0,333.8 368.9,334.7 369.9,333.7 370.9,334.7 371.9,334.7 372.9,310.6 373.8,315.4 374.8,332.0 375.8,310.5 376.8,331.7 377.8,305.3 378.7,330.5 379.7,326.9 380.7,302.2 381.7,309.7 382.7,335.9 383.6,333.4 384.6,334.9 385.6,334.4 386.6,306.5 387.6,306.5 388.5,318.3 389.5,320.1 390.5,323.6 391.5,331.8 392.5,310.6 393.4,305.4 394.4,308.2 395.4,331.8 396.4,305.2 397.4,330.5 398.3,334.1 399.3,326.7 400.3,330.7 401.3,305.4 402.2,308.2 403.2,333.8 404.2,334.1 405.2,335.0 406.2,340.8 407.1,336.2 408.1,336.1 409.1,335.0 410.1,336.2 411.1,335.8 412.0,333.8 413.0,334.4 414.0,335.0 415.0,334.8 416.0,334.9 416.9,334.6 417.9,331.8 418.9,334.5 419.9,335.0 420.9,329.1 421.8,330.7 422.8,325.8 423.8,325.3 424.8,308.2 425.8,333.5 426.7,308.4 427.7,310.3 428.7,330.5 429.7,319.6 430.7,308.3 431.6,334.6 432.6,318.7 433.6,335.8 434.6,335.0 435.6,297.6 436.5,305.3 437.5,325.3 438.5,325.7 439.5,318.9 440.5,310.3 441.4,334.9 442.4,321.4 443.4,334.2 444.4,331.5 445.4,329.7 446.3,309.6 447.3,308.4 448.3,298.7 449.3,302.7 450.3,305.5 451.2,309.0 452.2,331.8 453.2,334.0 454.2,329.6 455.2,334.7 456.1,333.8 457.1,335.0 458.1,334.0 459.1,334.0 460.1,325.3 461.0,334.9 462.0,334.5 463.0,334.6 464.0,334.7 465.0,334.7 465.9,334.7 466.9,334.6 467.9,334.1 468.9,326.9 469.9,326.6 470.8,305.4 471.8,343.0 472.8,335.3 473.8,344.0 474.8,335.0 475.7,329.1 476.7,301.0 477.7,334.2 478.7,334.1 479.6,315.6 480.6,335.0 481.6,334.1 482.6,334.6 483.6,333.6 484.5,330.5 485.5,330.4 486.5,333.8 487.5,335.0 488.5,335.0 489.4,333.2 490.4,334.4 491.4,310.5 492.4,332.0 493.4,310.1 494.3,332.7 495.3,305.4 496.3,309.8 497.3,310.6 498.3,330.0 499.2,333.8 500.2,332.4 501.2,335.3 502.2,318.3 503.2,334.7 504.1,336.2 505.1,331.4 506.1,325.8 507.1,334.6 508.1,331.3 509.0,331.8 510.0,334.7 511.0,334.5 512.0,333.8 513.0,330.7 513.9,334.9 514.9,334.8 515.9,331.8 516.9,333.2 517.9,310.7 518.8,330.5 519.8,308.2 520.8,308.4 521.8,305.4 522.8,330.4 523.7,326.9 524.7,330.4 525.7,334.9 526.7,331.5 527.7,335.0 528.6,334.6 529.6,334.1 530.6,334.9 531.6,334.7 532.6,335.0 533.5,333.8 534.5,335.0 535.5,333.3 536.5,334.6 537.5,335.0 538.4,332.7 539.4,283.6 540.4,333.8 541.4,335.0 542.4,319.3 543.3,331.1 544.3,329.7 545.3,331.8 546.3,334.1 547.2,334.6 548.2,334.9 549.2,334.7 550.2,334.6 551.2,334.8 552.1,335.0 553.1,334.9 554.1,335.0 555.1,334.9 556.1,334.7 557.0,334.9 558.0,335.0 559.0,334.7 560.0,334.1 561.0,335.7 561.9,334.1 562.9,334.4 563.9,305.3 564.9,319.6 565.9,309.3 566.8,300.7 567.8,310.4 568.8,330.5 569.8,310.6 570.8,330.5 571.7,333.0 572.7,334.7 573.7,333.8 574.7,334.1 575.7,330.9 576.6,334.7 577.6,334.9 578.6,334.9 579.6,305.4 580.6,334.4 581.5,331.0 582.5,335.0 583.5,333.8 584.5,335.0 585.5,333.8 586.4,334.9 587.4,310.6 588.4,334.3 589.4,306.4 590.4,308.4 591.3,333.8 592.3,330.9 593.3,334.1 594.3,329.7 595.3,334.3 596.2,305.3 597.2,330.7 598.2,328.8 599.2,333.8 600.2,295.8 601.1,334.6 602.1,310.6 603.1,310.6 604.1,333.8 605.1,318.4 606.0,318.5 607.0,334.2 608.0,334.9 609.0,334.1 610.0,334.1 610.9,330.4 611.9,308.2 612.9,308.2 613.9,310.2 614.9,333.8 615.8,310.6 616.8,310.4 617.8,327.3 618.8,332.0 619.8,335.0 620.7,334.6 621.7,334.0 622.7,334.6 623.7,334.5 624.6,330.7 625.6,333.5 626.6,331.5 627.6,334.6 628.6,334.1 629.5,333.8 630.5,330.7 631.5,334.7 632.5,334.9 633.5,332.0 634.4,307.0 635.4,326.1 636.4,305.4 637.4,306.4 638.4,309.0 639.3,306.4 640.3,334.6 641.3,327.0 642.3,333.8 643.3,333.2 644.2,334.1 645.2,335.0 646.2,334.6 647.2,333.9 648.2,333.8 649.1,334.7 650.1,330.7 651.1,331.8 652.1,334.9 653.1,334.1 654.0,334.6 655.0,334.9 656.0,327.5 657.0,335.0 658.0,333.6 658.9,319.7 659.9,302.9 660.9,310.1 661.9,327.5 662.9,326.8 663.8,323.6 664.8,298.7 665.8,310.6 666.8,331.1 667.8,330.7 668.7,334.6 669.7,324.6 670.7,323.8 671.7,330.4 672.7,333.8 673.6,330.7 674.6,334.6 675.6,323.9 676.6,333.2 677.6,334.1 678.5,325.7 679.5,309.1 680.5,315.6 681.5,333.8 682.5,308.5 683.4,306.5 684.4,308.2 685.4,310.2 686.4,312.5 687.4,331.0 688.3,331.9 689.3,317.9 690.3,334.6 691.3,335.0 692.2,335.0 693.2,335.0 694.2,334.6 695.2,333.8 696.2,334.9 697.1,330.4 698.1,334.3 699.1,334.6 700.1,334.2 701.1,333.8 702.0,335.0 703.0,330.7 704.0,333.8 705.0,315.5 706.0,330.7 706.9,305.4 707.9,324.4 708.9,306.5 709.9,331.8 710.9,308.9 711.8,333.8 712.8,333.8 713.8,331.2 714.8,310.7 715.8,333.8 716.7,330.0 717.7,327.2 718.7,323.8 719.7,330.0 720.7,305.0 721.6,312.5 722.6,333.8 723.6,332.0 724.6,329.7 725.6,333.8 726.5,322.8 727.5,308.3 728.5,310.4 729.5,305.2 730.5,305.4 731.4,308.2 732.4,310.7 733.4,310.1 734.4,319.6 735.4,325.7 736.3,330.8 737.3,330.9 738.3,305.4 739.3,305.2 740.3,333.8 741.2,331.0 742.2,305.4 743.2,334.7 744.2,308.3 745.2,334.1 746.1,334.7 747.1,332.8 748.1,332.9 749.1,308.2 750.1,335.0 751.0,330.4 752.0,310.4 753.0,330.0 754.0,326.8 755.0,305.9 755.9,306.4 756.9,323.8 757.9,296.7 758.9,334.1 759.9,335.0 760.8,335.0 761.8,331.5 762.8,334.7 763.8,335.0 764.8,304.3 765.7,308.2 766.7,335.0 767.7,331.8 768.7,334.5 769.6,331.2 770.6,334.7 771.6,331.8 772.6,321.5 773.6,334.9 774.5,331.9 775.5,310.4 776.5,308.3 777.5,305.4 778.5,305.9 779.4,305.7 780.4,324.6 781.4,330.7 782.4,334.5 783.4,331.6 784.3,335.0 785.3,335.0 786.3,335.0 787.3,322.4 788.3,334.9 789.2,331.1 790.2,335.0 791.2,344.0 792.2,344.0 793.2,344.0 794.1,334.6 795.1,335.0 796.1,335.0 797.1,334.4 798.1,311.6 799.0,308.9 800.0,308.2 801.0,308.1 802.0,330.4 803.0,308.6 803.9,337.4 804.9,335.0 805.9,335.0 806.9,335.0 807.9,331.8 808.8,332.0 809.8,334.1 810.8,330.5 811.8,334.6 812.8,335.0 813.7,334.9 814.7,312.5 815.7,333.8 816.7,332.0 817.7,333.8 818.6,331.7 819.6,331.0 820.6,310.7 821.6,308.6 822.6,314.0 823.5,327.1 824.5,304.8 825.5,340.8 826.5,341.6 827.5,335.0 828.4,334.6 829.4,334.6 830.4,324.6 831.4,317.8 832.4,346.0 833.3,334.6 834.3,334.9 835.3,317.9 836.3,344.0 837.2,334.0 838.2,321.8 839.2,332.8 840.2,325.5 841.2,333.8 842.1,313.7 843.1,334.6 844.1,328.5 845.1,331.2 846.1,305.4 847.0,331.0 848.0,310.0 849.0,331.4 850.0,330.2 851.0,290.8 851.9,335.0 852.9,347.8 853.9,350.1 854.9,349.5 855.9,346.1 856.8,349.4 857.8,341.0 858.8,346.4 859.8,349.3 860.8,344.7 861.7,345.1 862.7,349.2 863.7,349.4 864.7,343.5 865.7,350.0 866.6,350.1 867.6,347.6 868.6,344.9 869.6,349.2 870.6,345.2 871.5,344.1 872.5,344.7 873.5,345.7 874.5,346.1 875.5,345.7 876.4,349.5 877.4,345.1 878.4,349.4 879.4,348.7 880.4,346.1 881.3,345.8 882.3,351.6 883.3,348.3 884.3,345.7 885.3,349.9 886.2,344.7 887.2,346.4 888.2,345.2 889.2,343.4 890.2,345.2 891.1,346.1 892.1,342.1 893.1,343.4 894.1,343.5 895.1,345.2 896.0,345.2 897.0,344.0 898.0,345.2 899.0,345.4 900.0,345.3 900.9,344.8 901.9,345.8 902.9,346.1 903.9,344.8 904.9,345.0 905.8,344.3 906.8,345.2 907.8,347.2 908.8,347.4 909.8,350.1 910.7,346.4 911.7,348.8 912.7,348.0 913.7,344.7 914.6,344.0 915.6,345.4 916.6,342.7 917.6,345.8 918.6,344.1 919.5,346.0 920.5,349.5 921.5,344.0 922.5,345.9 923.5,347.6 924.4,344.8 925.4,343.6 926.4,343.6 927.4,344.9 928.4,343.6 929.3,342.0 930.3,343.9 931.3,342.7 932.3,343.4 933.3,341.6 934.2,343.4 935.2,341.5 936.2,342.3 937.2,342.7 938.2,341.5 939.1,341.0 940.1,342.2 941.1,341.2 942.1,340.3 943.1,342.4 944.0,341.6 945.0,341.6 946.0,341.3" fill="none" stroke="#059669" stroke-width="2.2" stroke-linejoin="round" stroke-linecap="round"/>
<polyline points="76.0,208.9 77.0,216.7 78.0,223.4 78.9,228.3 79.9,236.4 80.9,228.3 81.9,223.3 82.9,216.9 83.8,223.4 84.8,223.3 85.8,199.8 86.8,223.4 87.8,224.6 88.7,223.3 89.7,226.2 90.7,227.6 91.7,211.5 92.7,216.7 93.6,236.0 94.6,216.6 95.6,215.8 96.6,199.8 97.6,220.3 98.5,223.2 99.5,223.4 100.5,220.5 101.5,223.3 102.5,213.2 103.4,216.6 104.4,200.1 105.4,199.8 106.4,160.5 107.4,170.2 108.3,170.2 109.3,209.6 110.3,215.8 111.3,209.6 112.2,208.2 113.2,233.3 114.2,241.0 115.2,230.2 116.2,223.3 117.1,223.8 118.1,223.4 119.1,227.6 120.1,220.4 121.1,213.7 122.0,221.6 123.0,214.1 124.0,236.4 125.0,233.9 126.0,228.8 126.9,229.4 127.9,230.2 128.9,223.4 129.9,223.4 130.9,224.4 131.8,227.8 132.8,231.4 133.8,223.4 134.8,236.4 135.8,240.4 136.7,233.6 137.7,244.6 138.7,239.4 139.7,240.4 140.7,238.9 141.6,236.3 142.6,251.7 143.6,206.3 144.6,236.6 145.6,237.6 146.5,234.6 147.5,248.7 148.5,242.6 149.5,246.3 150.5,241.1 151.4,232.3 152.4,233.3 153.4,228.3 154.4,223.5 155.4,229.7 156.3,233.3 157.3,246.2 158.3,238.6 159.3,241.0 160.3,231.4 161.2,230.1 162.2,230.4 163.2,216.6 164.2,239.0 165.2,223.4 166.1,231.9 167.1,231.4 168.1,242.9 169.1,248.9 170.1,223.4 171.0,227.9 172.0,242.4 173.0,237.1 174.0,229.7 175.0,234.8 175.9,236.4 176.9,233.2 177.9,223.4 178.9,223.4 179.9,230.1 180.8,233.2 181.8,241.8 182.8,237.6 183.8,246.3 184.8,230.4 185.7,230.5 186.7,237.1 187.7,236.4 188.7,236.6 189.6,241.3 190.6,240.4 191.6,240.4 192.6,233.2 193.6,200.3 194.5,223.3 195.5,223.4 196.5,216.6 197.5,229.6 198.5,233.3 199.4,231.4 200.4,233.3 201.4,230.8 202.4,236.3 203.4,236.3 204.3,233.3 205.3,230.2 206.3,238.7 207.3,238.8 208.3,237.6 209.2,228.0 210.2,226.9 211.2,237.0 212.2,226.6 213.2,232.3 214.1,231.4 215.1,207.0 216.1,223.4 217.1,223.3 218.1,223.3 219.0,225.0 220.0,223.4 221.0,236.4 222.0,236.4 223.0,231.9 223.9,230.2 224.9,235.6 225.9,236.3 226.9,236.7 227.9,251.5 228.8,233.3 229.8,233.3 230.8,241.1 231.8,241.0 232.8,233.3 233.7,232.1 234.7,225.6 235.7,223.4 236.7,241.1 237.7,223.4 238.6,199.8 239.6,231.6 240.6,233.2 241.6,223.4 242.6,228.7 243.5,233.2 244.5,236.4 245.5,233.2 246.5,232.7 247.5,233.7 248.4,223.4 249.4,238.3 250.4,233.9 251.4,223.4 252.4,232.6 253.3,238.6 254.3,240.5 255.3,247.9 256.3,224.1 257.2,223.3 258.2,224.5 259.2,234.8 260.2,247.0 261.2,227.7 262.1,223.2 263.1,223.4 264.1,225.2 265.1,222.7 266.1,229.5 267.0,223.4 268.0,228.1 269.0,212.0 270.0,223.2 271.0,160.5 271.9,171.2 272.9,200.0 273.9,210.4 274.9,201.6 275.9,223.4 276.8,232.3 277.8,227.9 278.8,226.7 279.8,216.8 280.8,216.6 281.7,223.4 282.7,200.0 283.7,227.0 284.7,199.8 285.7,199.8 286.6,223.4 287.6,210.4 288.6,217.0 289.6,224.4 290.6,223.4 291.5,224.5 292.5,224.1 293.5,226.6 294.5,223.4 295.5,233.2 296.4,208.9 297.4,221.6 298.4,233.3 299.4,232.1 300.4,223.3 301.3,228.3 302.3,230.2 303.3,223.4 304.3,202.6 305.3,220.4 306.2,223.2 307.2,257.5 308.2,219.7 309.2,214.4 310.2,240.0 311.1,215.3 312.1,228.3 313.1,233.5 314.1,241.1 315.1,240.7 316.0,233.2 317.0,233.2 318.0,227.4 319.0,223.4 320.0,240.4 320.9,231.6 321.9,230.9 322.9,218.4 323.9,210.8 324.9,228.0 325.8,182.3 326.8,231.0 327.8,214.8 328.8,222.1 329.8,223.4 330.7,227.6 331.7,214.7 332.7,240.7 333.7,215.1 334.6,221.5 335.6,199.7 336.6,197.1 337.6,195.3 338.6,216.6 339.5,210.6 340.5,223.4 341.5,170.2 342.5,220.5 343.5,205.1 344.4,205.7 345.4,199.8 346.4,221.7 347.4,228.0 348.4,223.4 349.3,168.9 350.3,223.3 351.3,231.5 352.3,223.2 353.3,223.4 354.2,176.3 355.2,200.3 356.2,226.2 357.2,231.6 358.2,223.4 359.1,209.8 360.1,233.3 361.1,232.6 362.1,224.4 363.1,223.4 364.0,220.4 365.0,230.2 366.0,223.3 367.0,251.8 368.0,231.2 368.9,231.4 369.9,230.2 370.9,233.1 371.9,233.1 372.9,224.5 373.8,223.2 374.8,223.3 375.8,223.3 376.8,223.3 377.8,214.8 378.7,223.4 379.7,214.7 380.7,213.3 381.7,223.3 382.7,233.1 383.6,214.9 384.6,223.3 385.6,219.0 386.6,209.6 387.6,200.3 388.5,215.1 389.5,223.3 390.5,215.1 391.5,232.5 392.5,223.3 393.4,205.7 394.4,207.1 395.4,223.3 396.4,223.4 397.4,223.3 398.3,233.2 399.3,223.4 400.3,234.8 401.3,223.2 402.2,223.0 403.2,223.4 404.2,223.9 405.2,231.2 406.2,248.1 407.1,233.3 408.1,235.7 409.1,239.4 410.1,233.2 411.1,229.7 412.0,215.5 413.0,231.7 414.0,233.2 415.0,233.2 416.0,233.1 416.9,228.3 417.9,225.3 418.9,231.2 419.9,240.6 420.9,220.4 421.8,223.3 422.8,223.4 423.8,228.4 424.8,226.3 425.8,226.6 426.7,210.1 427.7,213.3 428.7,220.4 429.7,226.5 430.7,213.9 431.6,223.3 432.6,215.7 433.6,224.2 434.6,233.2 435.6,170.2 436.5,199.8 437.5,223.3 438.5,200.5 439.5,212.4 440.5,214.7 441.4,233.1 442.4,221.6 443.4,228.3 444.4,223.3 445.4,215.7 446.3,212.4 447.3,200.0 448.3,192.4 449.3,194.7 450.3,208.9 451.2,200.0 452.2,215.1 453.2,228.0 454.2,213.3 455.2,233.3 456.1,223.1 457.1,222.6 458.1,223.4 459.1,219.0 460.1,223.2 461.0,240.4 462.0,226.2 463.0,231.5 464.0,233.2 465.0,226.7 465.9,233.2 466.9,236.3 467.9,240.4 468.9,223.5 469.9,224.2 470.8,223.4 471.8,233.2 472.8,227.8 473.8,223.4 474.8,231.7 475.7,226.6 476.7,92.4 477.7,215.1 478.7,223.3 479.6,213.8 480.6,231.5 481.6,230.2 482.6,223.4 483.6,223.4 484.5,223.3 485.5,220.4 486.5,223.2 487.5,233.2 488.5,238.4 489.4,233.2 490.4,231.7 491.4,213.9 492.4,223.4 493.4,223.3 494.3,238.0 495.3,232.3 496.3,217.1 497.3,212.6 498.3,230.2 499.2,226.8 500.2,230.5 501.2,233.4 502.2,200.3 503.2,233.3 504.1,233.3 505.1,216.7 506.1,220.5 507.1,228.0 508.1,220.3 509.0,219.8 510.0,226.9 511.0,231.9 512.0,233.0 513.0,223.3 513.9,237.7 514.9,240.3 515.9,225.0 516.9,236.6 517.9,223.3 518.8,227.9 519.8,211.9 520.8,214.8 521.8,214.8 522.8,223.3 523.7,223.3 524.7,217.0 525.7,234.2 526.7,224.1 527.7,231.5 528.6,223.4 529.6,223.4 530.6,236.6 531.6,216.9 532.6,233.6 533.5,224.5 534.5,236.6 535.5,223.3 536.5,231.8 537.5,231.4 538.4,223.3 539.4,168.8 540.4,223.3 541.4,224.5 542.4,224.6 543.3,226.7 544.3,223.4 545.3,223.3 546.3,239.7 547.2,223.4 548.2,230.2 549.2,223.4 550.2,228.4 551.2,226.6 552.1,238.6 553.1,232.1 554.1,236.6 555.1,236.3 556.1,232.3 557.0,236.4 558.0,233.6 559.0,240.4 560.0,223.4 561.0,241.1 561.9,212.7 562.9,225.1 563.9,205.7 564.9,213.8 565.9,223.4 566.8,201.9 567.8,223.3 568.8,223.1 569.8,223.4 570.8,231.5 571.7,223.4 572.7,236.3 573.7,223.4 574.7,226.9 575.7,222.4 576.6,223.4 577.6,234.7 578.6,235.8 579.6,200.3 580.6,230.5 581.5,230.2 582.5,235.3 583.5,230.2 584.5,232.1 585.5,216.6 586.4,232.6 587.4,212.7 588.4,230.1 589.4,222.9 590.4,219.7 591.3,225.0 592.3,223.4 593.3,223.4 594.3,219.7 595.3,229.3 596.2,196.0 597.2,220.2 598.2,212.0 599.2,231.5 600.2,170.2 601.1,230.2 602.1,199.8 603.1,220.0 604.1,216.7 605.1,210.0 606.0,215.8 607.0,239.5 608.0,231.5 609.0,223.3 610.0,227.9 610.9,223.3 611.9,209.9 612.9,223.4 613.9,207.1 614.9,223.3 615.8,200.0 616.8,199.8 617.8,201.8 618.8,223.4 619.8,235.0 620.7,223.4 621.7,216.6 622.7,230.6 623.7,231.6 624.6,219.9 625.6,223.3 626.6,214.8 627.6,231.3 628.6,230.2 629.5,231.4 630.5,236.4 631.5,240.4 632.5,229.4 633.5,228.0 634.4,218.7 635.4,227.7 636.4,227.9 637.4,204.0 638.4,220.5 639.3,215.5 640.3,226.7 641.3,224.4 642.3,225.1 643.3,232.1 644.2,231.5 645.2,223.4 646.2,229.2 647.2,236.3 648.2,223.7 649.1,237.1 650.1,225.0 651.1,231.4 652.1,236.4 653.1,236.3 654.0,233.4 655.0,237.6 656.0,212.1 657.0,228.0 658.0,233.2 658.9,222.8 659.9,223.2 660.9,222.2 661.9,222.3 662.9,215.1 663.8,223.4 664.8,172.5 665.8,210.3 666.8,223.3 667.8,214.0 668.7,217.9 669.7,231.6 670.7,215.8 671.7,214.9 672.7,232.2 673.6,222.0 674.6,227.8 675.6,223.3 676.6,223.3 677.6,230.1 678.5,220.4 679.5,211.4 680.5,208.2 681.5,232.6 682.5,223.1 683.4,224.4 684.4,218.9 685.4,223.2 686.4,211.8 687.4,228.8 688.3,223.6 689.3,223.3 690.3,233.2 691.3,229.9 692.2,223.3 693.2,236.3 694.2,223.7 695.2,223.4 696.2,236.8 697.1,214.9 698.1,230.2 699.1,227.6 700.1,234.1 701.1,223.7 702.0,225.3 703.0,222.3 704.0,223.4 705.0,224.5 706.0,223.4 706.9,218.4 707.9,208.6 708.9,195.0 709.9,224.5 710.9,212.1 711.8,229.2 712.8,223.3 713.8,223.4 714.8,199.9 715.8,208.3 716.7,223.4 717.7,217.7 718.7,220.4 719.7,223.4 720.7,189.0 721.6,215.4 722.6,223.4 723.6,230.2 724.6,224.4 725.6,233.2 726.5,219.1 727.5,216.6 728.5,233.2 729.5,198.6 730.5,223.3 731.4,223.6 732.4,216.6 733.4,223.3 734.4,223.4 735.4,223.4 736.3,221.2 737.3,215.8 738.3,200.2 739.3,183.2 740.3,223.4 741.2,223.7 742.2,200.5 743.2,227.0 744.2,226.5 745.2,241.1 746.1,239.9 747.1,237.3 748.1,236.6 749.1,192.0 750.1,244.7 751.0,208.6 752.0,233.3 753.0,241.0 754.0,240.2 755.0,223.5 755.9,174.1 756.9,223.3 757.9,194.8 758.9,229.1 759.9,236.2 760.8,241.0 761.8,220.4 762.8,228.2 763.8,256.0 764.8,170.2 765.7,200.3 766.7,256.2 767.7,223.4 768.7,226.2 769.6,223.3 770.6,236.7 771.6,223.3 772.6,230.2 773.6,216.6 774.5,181.2 775.5,223.4 776.5,204.6 777.5,210.1 778.5,208.6 779.4,200.0 780.4,223.8 781.4,227.4 782.4,243.2 783.4,213.2 784.3,240.6 785.3,224.6 786.3,231.9 787.3,230.1 788.3,241.0 789.2,229.3 790.2,237.6 791.2,247.8 792.2,245.3 793.2,252.0 794.1,236.3 795.1,238.6 796.1,240.9 797.1,199.5 798.1,194.9 799.0,224.5 800.0,218.0 801.0,223.5 802.0,216.6 803.0,216.7 803.9,233.2 804.9,236.3 805.9,237.1 806.9,245.8 807.9,238.2 808.8,237.1 809.8,230.8 810.8,207.1 811.8,236.3 812.8,233.2 813.7,240.9 814.7,213.1 815.7,223.4 816.7,236.4 817.7,227.7 818.6,224.6 819.6,230.2 820.6,214.8 821.6,222.2 822.6,216.8 823.5,223.3 824.5,229.9 825.5,224.9 826.5,227.8 827.5,257.6 828.4,230.2 829.4,236.7 830.4,235.8 831.4,223.4 832.4,231.8 833.3,223.4 834.3,223.3 835.3,211.7 836.3,242.1 837.2,225.6 838.2,200.2 839.2,220.4 840.2,223.3 841.2,223.4 842.1,214.7 843.1,233.5 844.1,223.3 845.1,238.6 846.1,223.3 847.0,241.1 848.0,240.4 849.0,223.4 850.0,225.0 851.0,198.4 851.9,237.3 852.9,299.1 853.9,332.3 854.9,333.7 855.9,330.9 856.8,331.5 857.8,256.7 858.8,327.6 859.8,327.7 860.8,331.7 861.7,333.7 862.7,332.3 863.7,331.6 864.7,322.4 865.7,331.5 866.6,332.9 867.6,331.0 868.6,328.4 869.6,333.2 870.6,329.7 871.5,329.7 872.5,329.6 873.5,330.4 874.5,331.5 875.5,327.6 876.4,331.5 877.4,329.1 878.4,327.7 879.4,330.3 880.4,328.4 881.3,331.3 882.3,335.3 883.3,331.5 884.3,330.0 885.3,331.5 886.2,330.0 887.2,331.6 888.2,327.6 889.2,329.0 890.2,330.0 891.1,328.8 892.1,326.0 893.1,327.7 894.1,327.5 895.1,329.2 896.0,328.1 897.0,327.6 898.0,329.0 899.0,331.5 900.0,327.6 900.9,329.6 901.9,328.9 902.9,331.5 903.9,331.5 904.9,330.1 905.8,322.8 906.8,329.3 907.8,331.5 908.8,331.8 909.8,331.3 910.7,329.1 911.7,331.5 912.7,332.5 913.7,325.5 914.6,325.9 915.6,328.4 916.6,324.7 917.6,330.2 918.6,327.0 919.5,328.8 920.5,329.0 921.5,327.6 922.5,326.7 923.5,331.4 924.4,326.1 925.4,332.9 926.4,327.7 927.4,323.0 928.4,325.8 929.3,322.4 930.3,317.8 931.3,322.7 932.3,322.8 933.3,322.7 934.2,326.8 935.2,322.8 936.2,323.1 937.2,325.0 938.2,322.8 939.1,322.0 940.1,325.5 941.1,322.4 942.1,322.0 943.1,322.8 944.0,322.6 945.0,322.4 946.0,322.6" fill="none" stroke="#d97706" stroke-width="2.2" stroke-linejoin="round" stroke-linecap="round"/>
<line x1="76" y1="70" x2="94" y2="70" stroke="#2563eb" stroke-width="3"/>
<text x="100" y="74" font-family="Arial, sans-serif" font-size="11" fill="#0f172a">avg fee</text>
<line x1="179" y1="70" x2="197" y2="70" stroke="#059669" stroke-width="3"/>
<text x="203" y="74" font-family="Arial, sans-serif" font-size="11" fill="#0f172a">median fee</text>
<line x1="303" y1="70" x2="321" y2="70" stroke="#d97706" stroke-width="3"/>
<text x="327" y="74" font-family="Arial, sans-serif" font-size="11" fill="#0f172a">p90 fee</text>
<text x="28" y="404" font-family="Arial, sans-serif" font-size="11" fill="#64748b">Source: hourly_features.csv</text>
</svg>