<svg xmlns="http://www.w3.org/2000/svg" width="980" height="420" viewBox="0 0 980 420">
<rect width="100%" height="100%" fill="#ffffff"/>
<text x="28" y="34" font-family="Arial, sans-serif" font-size="20" font-weight="700" fill="#0f172a">Hourly fee trend</text>
<text x="28" y="56" font-family="Arial, sans-serif" font-size="12" fill="#64748b">Average, median, and p90 total fee by hour</text>
<line x1="76" y1="362.0" x2="946" y2="362.0" stroke="#e2e8f0" stroke-width="1"/>
<text x="68" y="366.0" font-family="Arial, sans-serif" font-size="10" text-anchor="end" fill="#64748b">-124K</text>
<line x1="76" y1="292.0" x2="946" y2="292.0" stroke="#e2e8f0" stroke-width="1"/>
<text x="68" y="296.0" font-family="Arial, sans-serif" font-size="10" text-anchor="end" fill="#64748b">2.8M</text>
<line x1="76" y1="222.0" x2="946" y2="222.0" stroke="#e2e8f0" stroke-width="1"/>
<text x="68" y="226.0" font-family="Arial, sans-serif" font-size="10" text-anchor="end" fill="#64748b">5.8M</text>
<line x1="76" y1="152.0" x2="946" y2="152.0" stroke="#e2e8f0" stroke-width="1"/>
<text x="68" y="156.0" font-family="Arial, sans-serif" font-size="10" text-anchor="end" fill="#64748b">8.7M</text>
<line x1="76" y1="82.0" x2="946" y2="82.0" stroke="#e2e8f0" stroke-width="1"/>
<text x="68" y="86.0" font-family="Arial, sans-serif" font-size="10" text-anchor="end" fill="#64748b">11.7M</text>
<line x1="76" y1="362" x2="946" y2="362" stroke="#334155" stroke-width="1"/>
<line x1="76" y1="82" x2="76" y2="362" stroke="#334155" stroke-width="1"/>
<text x="76" y="72" font-family="Arial, sans-serif" font-size="11" fill="#64748b">nanoton</text>
<line x1="76.0" y1="362" x2="76.0" y2="366" stroke="#334155" stroke-width="1"/>
<text x="76.0" y="380" font-family="Arial, sans-serif" font-size="10" text-anchor="middle" fill="#64748b">0</text>
<line x1="511.6" y1="362" x2="511.6" y2="366" stroke="#334155" stroke-width="1"/>
<text x="511.6" y="380" font-family="Arial, sans-serif" font-size="10" text-anchor="middle" fill="#64748b">379</text>
<line x1="946.0" y1="362" x2="946.0" y2="366" stroke="#334155" stroke-width="1"/>
<text x="946.0" y="380" font-family="Arial, sans-serif" font-size="10" text-anchor="middle" fill="#64748b">757</text>
<polyline points="76.0,295.3 77.1,299.2 78.3,300.6 79.4,302.7 80.6,309.6 81.7,301.8 82.9,302.9 84.0,299.2 85.2,303.6 86.3,303.4 87.5,292.2 88.6,304.2 89.8,304.4 90.9,302.0 92.1,305.0 93.2,305.2 94.4,297.0 95.5,297.1 96.7,306.0 97.8,295.6 99.0,293.7 100.1,291.7 101.3,298.4 102.4,298.8 103.6,300.7 104.7,296.6 105.9,302.3 107.0,295.0 108.2,297.8 109.3,292.8 110.5,293.4 111.6,277.2 112.8,289.0 113.9,289.7 115.1,299.2 116.2,304.6 117.4,297.4 118.5,299.5 119.7,309.5 120.8,312.3 122.0,306.9 123.1,301.6 124.3,303.3 125.4,302.6 126.6,309.2 127.7,302.0 128.9,299.0 130.0,301.1 131.2,303.3 132.3,307.8 133.5,307.9 134.6,306.7 135.8,305.0 136.9,308.1 138.1,307.0 139.2,304.1 140.4,303.8 141.5,307.6 142.7,303.8 143.8,306.1 145.0,311.7 146.1,313.5 147.3,311.2 148.4,312.0 149.6,314.0 150.7,310.7 151.9,310.3 153.0,306.8 154.2,313.3 155.3,295.2 156.4,311.2 157.6,311.2 158.7,311.1 159.9,316.2 161.0,312.0 162.2,315.2 163.3,314.0 164.5,310.3 165.6,310.3 166.8,308.0 167.9,308.2 169.1,306.1 170.2,309.9 171.4,312.3 172.5,311.8 173.7,313.0 174.8,309.8 176.0,307.7 177.1,307.5 178.3,303.2 179.4,309.7 180.6,301.7 181.7,304.0 182.9,305.0 184.0,308.7 185.2,316.5 186.3,304.8 187.5,305.2 188.6,313.8 189.8,312.4 190.9,305.0 192.1,309.0 193.2,309.9 194.4,307.4 195.5,305.2 196.7,302.1 197.8,303.4 199.0,306.7 200.1,312.9 201.3,312.3 202.4,312.3 203.6,307.9 204.7,306.6 205.9,308.9 207.0,308.7 208.2,308.8 209.3,313.2 210.5,313.8 211.6,312.2 212.8,305.8 213.9,291.3 215.1,306.3 216.2,303.4 217.4,300.7 218.5,304.3 219.7,310.3 220.8,306.2 222.0,309.8 223.1,306.9 224.3,309.7 225.4,311.6 226.6,309.7 227.7,305.5 228.9,309.6 230.0,312.8 231.2,307.2 232.3,306.5 233.5,307.9 234.6,308.1 235.7,303.6 236.9,303.1 238.0,302.6 239.2,293.9 240.3,301.5 241.5,301.0 242.6,300.1 243.8,304.3 244.9,303.7 246.1,309.4 247.2,308.8 248.4,308.6 249.5,303.9 250.7,305.9 251.8,310.5 253.0,309.3 254.1,317.0 255.3,310.5 256.4,309.1 257.6,311.9 258.7,311.8 259.9,306.7 261.0,308.6 262.2,305.5 263.3,306.4 264.5,304.9 265.6,303.4 266.8,295.1 267.9,300.7 269.1,305.3 270.2,301.2 271.4,307.5 272.5,307.3 273.7,307.8 274.8,307.4 276.0,307.5 277.1,308.5 278.3,304.8 279.4,310.4 280.6,307.7 281.7,303.9 282.9,307.6 284.0,311.5 285.2,311.0 286.3,311.5 287.5,303.1 288.6,306.3 289.8,302.5 290.9,308.6 292.1,304.9 293.2,304.2 294.4,300.2 295.5,302.8 296.7,303.0 297.8,298.3 299.0,304.6 300.1,302.6 301.3,303.3 302.4,298.7 303.6,302.5 304.7,282.2 305.9,288.6 307.0,299.8 308.2,300.3 309.3,298.9 310.5,305.5 311.6,309.1 312.8,307.2 313.9,306.9 315.0,302.6 316.2,299.9 317.3,301.2 318.5,295.9 319.6,296.5 320.8,295.1 321.9,294.5 323.1,304.4 324.2,296.5 325.4,301.4 326.5,304.5 327.7,308.5 328.8,307.2 330.0,306.8 331.1,307.0 332.3,305.6 333.4,308.3 334.6,300.5 335.7,302.4 336.9,309.2 338.0,309.0 339.2,304.2 340.3,308.7 341.5,308.2 342.6,303.7 343.8,293.2 344.9,298.3 346.1,298.7 347.2,308.4 348.4,300.2 349.5,301.6 350.7,310.4 351.8,299.4 353.0,305.2 354.1,309.9 355.3,313.4 356.4,310.3 357.6,308.8 358.7,305.4 359.9,308.6 361.0,303.9 362.2,307.8 363.3,309.8 364.5,307.8 365.6,304.0 366.8,299.0 367.9,304.6 369.1,290.6 370.2,306.9 371.4,298.4 372.5,302.6 373.7,304.1 374.8,302.1 376.0,299.0 377.1,315.3 378.3,296.1 379.4,300.2 380.6,285.9 381.7,299.2 382.9,297.8 384.0,299.6 385.2,295.5 386.3,305.7 387.5,284.1 388.6,301.9 389.8,296.4 390.9,296.0 392.1,287.6 393.2,303.0 394.3,305.1 395.5,303.3 396.6,292.8 397.8,303.7 398.9,309.2 400.1,302.4 401.2,300.1 402.4,284.0 403.5,288.5 404.7,305.2 405.8,304.6 407.0,302.7 408.1,297.9 409.3,307.9 410.4,307.8 411.6,303.3 412.7,301.4 413.9,302.0 415.0,306.1 416.2,302.8 417.3,316.4 418.5,304.1 419.6,308.2 420.8,305.9 421.9,307.7 423.1,309.0 424.2,302.5 425.4,299.0 426.5,303.9 427.7,299.7 428.8,306.5 430.0,297.1 431.1,302.2 432.3,298.5 433.4,294.5 434.6,299.7 435.7,309.4 436.9,295.6 438.0,305.0 439.2,300.5 440.3,297.6 441.5,296.1 442.6,301.5 443.8,301.7 444.9,302.5 446.1,304.2 447.2,297.4 448.4,290.6 449.5,294.6 450.7,304.7 451.8,299.0 453.0,305.6 454.1,307.7 455.3,303.8 456.4,307.3 457.6,299.7 458.7,301.7 459.9,307.5 461.0,306.4 462.2,307.7 463.3,313.5 464.5,311.6 465.6,310.9 466.8,311.3 467.9,309.1 469.1,309.3 470.2,303.0 471.4,305.8 472.5,307.8 473.6,308.1 474.8,309.0 475.9,307.1 477.1,304.1 478.2,309.3 479.4,312.0 480.5,301.9 481.7,303.6 482.8,302.7 484.0,304.4 485.1,302.5 486.3,305.7 487.4,291.6 488.6,298.9 489.7,299.3 490.9,303.3 492.0,295.8 493.2,303.0 494.3,299.2 495.5,303.4 496.6,309.0 497.8,286.5 498.9,294.2 500.1,303.5 501.2,299.7 502.4,297.9 503.5,299.3 504.7,309.1 505.8,301.5 507.0,306.4 508.1,301.3 509.3,300.2 510.4,297.4 511.6,296.2 512.7,291.1 513.9,292.2 515.0,298.8 516.2,297.2 517.3,302.1 518.5,307.8 519.6,301.4 520.8,308.9 521.9,303.3 523.1,302.4 524.2,304.0 525.4,301.7 526.5,301.2 527.7,310.3 528.8,306.6 530.0,309.3 531.1,307.7 532.3,308.2 533.4,307.5 534.6,309.3 535.7,306.5 536.9,304.7 538.0,301.9 539.2,299.6 540.3,309.8 541.5,307.4 542.6,308.5 543.8,307.6 544.9,303.1 546.1,260.8 547.2,295.5 548.4,303.2 549.5,300.9 550.6,305.7 551.8,306.4 552.9,304.5 554.1,304.0 555.2,304.3 556.4,300.6 557.5,304.1 558.7,310.4 559.8,311.3 561.0,305.6 562.1,307.4 563.3,299.6 564.4,306.9 565.6,301.5 566.7,309.7 567.9,303.8 569.0,300.2 570.2,299.7 571.3,305.6 572.5,305.7 573.6,305.4 574.8,309.3 575.9,297.1 577.1,308.3 578.2,310.9 579.4,300.1 580.5,302.1 581.7,307.6 582.8,300.4 584.0,304.1 585.1,308.7 586.3,306.4 587.4,308.6 588.6,305.5 589.7,311.0 590.9,310.4 592.0,305.5 593.2,308.0 594.3,301.7 595.5,304.9 596.6,296.8 597.8,296.5 598.9,296.6 600.1,304.0 601.2,303.1 602.4,303.5 603.5,306.3 604.7,304.3 605.8,310.1 607.0,304.9 608.1,305.3 609.3,309.5 610.4,303.9 611.6,309.2 612.7,304.3 613.9,311.2 615.0,303.8 616.2,309.3 617.3,308.1 618.5,302.7 619.6,267.6 620.8,307.7 621.9,309.4 623.1,306.0 624.2,305.5 625.4,302.9 626.5,304.6 627.7,307.5 628.8,303.3 629.9,308.8 631.1,307.5 632.2,307.8 633.4,305.8 634.5,313.2 635.7,309.3 636.8,313.9 638.0,309.3 639.1,308.5 640.3,309.7 641.4,308.4 642.6,310.1 643.7,304.2 644.9,310.0 646.0,301.7 647.2,306.9 648.3,292.5 649.5,299.2 650.6,304.4 651.8,291.8 652.9,303.7 654.1,303.1 655.2,301.4 656.4,305.9 657.5,304.2 658.7,307.4 659.8,303.9 661.0,307.7 662.1,302.6 663.3,306.4 664.4,310.1 665.6,309.3 666.7,294.8 667.9,307.9 669.0,304.3 670.2,307.1 671.3,307.9 672.5,309.5 673.6,300.9 674.8,306.4 675.9,297.4 677.1,302.9 678.2,299.4 679.4,298.1 680.5,304.1 681.7,302.1 682.8,305.2 684.0,300.2 685.1,306.2 686.3,287.0 687.4,302.0 688.6,295.7 689.7,305.5 690.9,285.6 692.0,308.4 693.2,296.6 694.3,301.1 695.5,305.6 696.6,298.5 697.8,299.9 698.9,310.0 700.1,309.5 701.2,305.0 702.4,306.7 703.5,302.2 704.7,299.5 705.8,301.2 707.0,297.2 708.1,303.4 709.2,295.6 710.4,294.4 711.5,297.3 712.7,307.4 713.8,308.2 715.0,306.3 716.1,302.2 717.3,307.8 718.4,307.3 719.6,304.0 720.7,304.6 721.9,300.3 723.0,305.4 724.2,307.2 725.3,307.0 726.5,305.4 727.6,310.2 728.8,309.9 729.9,305.7 731.1,298.8 732.2,305.7 733.4,303.6 734.5,294.9 735.7,300.5 736.8,298.7 738.0,306.1 739.1,302.8 740.3,303.9 741.4,307.3 742.6,305.6 743.7,303.9 744.9,307.4 746.0,308.4 747.2,304.2 748.3,309.2 749.5,302.8 750.6,307.4 751.8,309.7 752.9,308.1 754.1,308.6 755.2,310.6 756.4,299.2 757.5,311.5 758.7,308.5 759.8,299.7 761.0,298.7 762.1,298.2 763.3,300.5 764.4,300.5 765.6,302.8 766.7,289.1 767.9,299.5 769.0,303.2 770.2,300.9 771.3,298.8 772.5,305.3 773.6,298.9 774.8,300.5 775.9,308.6 777.1,300.4 778.2,307.3 779.4,302.3 780.5,304.7 781.7,305.5 782.8,303.0 784.0,299.4 785.1,300.4 786.3,307.8 787.4,300.2 788.5,300.6 789.7,299.7 790.8,299.9 792.0,299.6 793.1,304.6 794.3,303.6 795.4,300.5 796.6,308.1 797.7,307.7 798.9,302.9 800.0,310.4 801.2,305.6 802.3,305.1 803.5,310.0 804.6,300.4 805.8,306.6 806.9,308.0 808.1,309.4 809.2,303.8 810.4,305.7 811.5,302.6 812.7,303.4 813.8,301.9 815.0,305.5 816.1,300.6 817.3,297.6 818.4,288.5 819.6,303.5 820.7,298.4 821.9,303.6 823.0,303.5 824.2,302.6 825.3,295.5 826.5,296.8 827.6,302.9 828.8,302.1 829.9,302.2 831.1,303.2 832.2,292.6 833.4,301.1 834.5,302.0 835.7,306.5 836.8,305.7 838.0,310.2 839.1,300.4 840.3,299.7 841.4,304.5 842.6,294.0 843.7,301.4 844.9,299.7 846.0,299.7 847.2,299.4 848.3,302.1 849.5,304.2 850.6,300.4 851.8,301.6 852.9,296.3 854.1,289.4 855.2,304.4 856.4,305.8 857.5,298.2 858.7,307.1 859.8,302.2 861.0,312.5 862.1,297.1 863.3,309.7 864.4,308.9 865.6,296.5 866.7,310.0 867.8,302.4 869.0,302.8 870.1,312.3 871.3,310.2 872.4,298.6 873.6,288.8 874.7,300.3 875.9,285.8 877.0,300.4 878.2,312.0 879.3,308.2 880.5,303.9 881.6,306.3 882.8,313.9 883.9,292.2 885.1,297.9 886.2,319.3 887.4,305.5 888.5,309.0 889.7,303.9 890.8,310.2 892.0,302.1 893.1,308.2 894.3,301.9 895.4,290.6 896.6,300.2 897.7,297.9 898.9,299.9 900.0,297.1 901.2,299.6 902.3,302.1 903.5,307.9 904.6,312.6 905.8,299.8 906.9,311.5 908.1,309.9 909.2,310.2 910.4,307.9 911.5,302.0 912.7,298.1 913.8,309.8 915.0,315.3 916.1,311.4 917.3,314.3 918.4,308.8 919.6,312.6 920.7,313.1 921.9,303.7 923.0,292.7 924.2,301.7 925.3,302.7 926.5,303.2 927.6,303.4 928.8,299.8 929.9,310.7 931.1,312.6 932.2,309.2 933.4,314.2 934.5,311.5 935.7,308.0 936.8,308.3 938.0,301.1 939.1,308.9 940.3,310.3 941.4,313.1 942.6,296.4 943.7,306.6 944.9,310.2 946.0,305.1" fill="none" stroke="#2563eb" stroke-width="2.2" stroke-linejoin="round" stroke-linecap="round"/>
<polyline points="76.0,316.4 77.1,330.2 78.3,339.5 79.4,340.0 80.6,340.5 81.7,340.1 82.9,339.8 84.0,336.2 85.2,340.1 86.3,340.1 87.5,325.6 88.6,340.1 89.8,339.7 90.9,336.1 92.1,339.9 93.2,339.3 94.4,326.3 95.5,335.8 96.7,337.8 97.8,315.5 99.0,307.7 100.1,310.8 101.3,325.6 102.4,320.5 103.6,315.4 104.7,335.2 105.9,338.9 107.0,317.5 108.2,340.5 109.3,324.1 110.5,335.9 111.6,288.2 112.8,305.1 113.9,308.1 115.1,313.2 116.2,336.7 117.4,317.5 118.5,315.6 119.7,340.3 120.8,340.5 122.0,335.1 123.1,315.5 124.3,315.5 125.4,317.5 126.6,346.4 127.7,340.4 128.9,313.8 130.0,315.2 131.2,340.4 132.3,340.8 133.5,339.6 134.6,338.9 135.8,339.4 136.9,340.1 138.1,336.9 139.2,340.1 140.4,336.3 141.5,339.8 142.7,340.1 143.8,339.6 145.0,340.5 146.1,340.3 147.3,340.4 148.4,349.7 149.6,341.3 150.7,340.4 151.9,340.4 153.0,336.1 154.2,349.7 155.3,341.1 156.4,341.7 157.6,341.7 158.7,340.5 159.9,343.7 161.0,341.7 162.2,341.6 163.3,340.6 164.5,340.5 165.6,340.5 166.8,340.0 167.9,340.5 169.1,340.1 170.2,340.1 171.4,340.5 172.5,340.5 173.7,340.5 174.8,339.8 176.0,340.4 177.1,340.3 178.3,336.1 179.4,340.2 180.6,317.1 181.7,335.0 182.9,336.5 184.0,339.3 185.2,349.7 186.3,336.0 187.5,339.3 188.6,340.5 189.8,341.7 190.9,340.2 192.1,340.2 193.2,340.3 194.4,340.0 195.5,336.4 196.7,335.9 197.8,336.9 199.0,338.5 200.1,340.4 201.3,340.4 202.4,340.4 203.6,339.5 204.7,340.4 205.9,340.4 207.0,336.9 208.2,337.8 209.3,341.7 210.5,349.7 211.6,341.6 212.8,340.5 213.9,315.0 215.1,340.4 216.2,340.0 217.4,340.2 218.5,339.3 219.7,340.4 220.8,339.5 222.0,340.4 223.1,340.3 224.3,340.4 225.4,340.5 226.6,340.2 227.7,338.6 228.9,340.4 230.0,340.5 231.2,340.5 232.3,339.6 233.5,339.7 234.6,335.7 235.7,315.5 236.9,303.4 238.0,314.7 239.2,309.2 240.3,315.1 241.5,315.1 242.6,333.0 243.8,338.4 244.9,339.3 246.1,339.3 247.2,340.4 248.4,340.4 249.5,339.3 250.7,340.2 251.8,340.2 253.0,340.1 254.1,349.7 255.3,340.4 256.4,340.3 257.6,340.5 258.7,340.5 259.9,339.3 261.0,339.9 262.2,336.3 263.3,324.9 264.5,303.4 265.6,339.5 266.8,332.2 267.9,340.1 269.1,337.2 270.2,337.2 271.4,336.8 272.5,340.2 273.7,339.9 274.8,340.1 276.0,340.1 277.1,336.1 278.3,336.1 279.4,340.4 280.6,339.8 281.7,336.4 282.9,340.1 284.0,340.5 285.2,340.1 286.3,340.4 287.5,335.8 288.6,339.8 289.8,320.6 290.9,340.1 292.1,303.4 293.2,339.5 294.4,335.1 295.5,338.0 296.7,337.2 297.8,315.5 299.0,337.2 300.1,337.7 301.3,340.1 302.4,329.1 303.6,339.4 304.7,300.4 305.9,303.3 307.0,332.4 308.2,336.5 309.3,336.1 310.5,337.7 311.6,340.1 312.8,340.2 313.9,339.6 315.0,330.1 316.2,320.1 317.3,313.5 318.5,310.2 319.6,303.4 320.8,311.4 321.9,310.2 323.1,337.2 324.2,310.3 325.4,322.1 326.5,338.9 327.7,340.5 328.8,339.6 330.0,340.5 331.1,340.4 332.3,339.2 333.4,340.5 334.6,324.9 335.7,324.9 336.9,339.5 338.0,339.3 339.2,338.9 340.3,340.2 341.5,340.1 342.6,336.7 343.8,310.2 344.9,313.1 346.1,313.2 347.2,303.4 348.4,315.1 349.5,341.0 350.7,341.7 351.8,317.5 353.0,340.0 354.1,341.7 355.3,341.4 356.4,341.7 357.6,340.5 358.7,339.3 359.9,339.8 361.0,339.9 362.2,339.0 363.3,340.1 364.5,339.9 365.6,334.9 366.8,313.8 367.9,339.5 369.1,313.1 370.2,339.9 371.4,315.6 372.5,315.2 373.7,330.4 374.8,310.3 376.0,324.9 377.1,349.7 378.3,320.6 379.4,339.6 380.6,313.1 381.7,314.8 382.9,335.4 384.0,339.5 385.2,340.5 386.3,338.7 387.5,329.1 388.6,339.3 389.8,313.1 390.9,311.0 392.1,329.1 393.2,320.6 394.3,338.9 395.5,338.0 396.6,308.0 397.8,339.5 398.9,340.1 400.1,331.8 401.2,339.3 402.4,326.0 403.5,339.1 404.7,339.2 405.8,339.5 407.0,336.1 408.1,337.2 409.3,339.2 410.4,340.1 411.6,339.3 412.7,338.5 413.9,315.5 415.0,340.2 416.2,336.1 417.3,351.6 418.5,339.3 419.6,340.2 420.8,339.2 421.9,340.2 423.1,340.2 424.2,315.6 425.4,320.4 426.5,337.4 427.7,315.5 428.8,337.1 430.0,310.1 431.1,335.9 432.3,332.2 433.4,307.0 434.6,314.6 435.7,341.4 436.9,338.9 438.0,340.4 439.2,339.9 440.3,311.4 441.5,311.4 442.6,323.4 443.8,325.3 444.9,328.8 446.1,337.2 447.2,315.6 448.4,310.2 449.5,313.0 450.7,337.2 451.8,310.0 453.0,335.9 454.1,339.5 455.3,332.0 456.4,336.1 457.6,310.2 458.7,313.1 459.9,339.3 461.0,339.5 462.2,340.5 463.3,346.4 464.5,341.7 465.6,341.6 466.8,340.5 467.9,341.7 469.1,341.3 470.2,339.3 471.4,339.9 472.5,340.4 473.6,340.3 474.8,340.4 475.9,340.1 477.1,337.2 478.2,339.9 479.4,340.5 480.5,334.5 481.7,336.1 482.8,331.1 484.0,330.6 485.1,313.1 486.3,339.0 487.4,313.3 488.6,315.2 489.7,335.9 490.9,324.8 492.0,313.2 493.2,340.1 494.3,323.8 495.5,341.3 496.6,340.5 497.8,302.2 498.9,310.1 500.1,330.6 501.2,331.0 502.4,324.0 503.5,315.2 504.7,340.4 505.8,326.5 507.0,339.6 508.1,336.9 509.3,335.1 510.4,314.5 511.6,313.3 512.7,303.4 513.9,307.4 515.0,310.3 516.2,313.9 517.3,337.2 518.5,339.5 519.6,335.0 520.8,340.2 521.9,339.3 523.1,340.5 524.2,339.5 525.4,339.5 526.5,330.6 527.7,340.4 528.8,340.0 530.0,340.1 531.1,340.2 532.3,340.2 533.4,340.2 534.6,340.1 535.7,339.5 536.9,332.2 538.0,331.9 539.2,310.3 540.3,348.7 541.5,340.8 542.6,349.7 543.8,340.5 544.9,334.4 546.1,305.8 547.2,339.7 548.4,339.6 549.5,320.7 550.6,340.5 551.8,339.6 552.9,340.1 554.1,339.0 555.2,335.9 556.4,335.8 557.5,339.3 558.7,340.5 559.8,340.4 561.0,338.6 562.1,339.8 563.3,315.4 564.4,337.4 565.6,315.0 566.7,338.1 567.9,310.3 569.0,314.7 570.2,315.6 571.3,335.4 572.5,339.3 573.6,337.9 574.8,340.8 575.9,323.4 577.1,340.2 578.2,341.7 579.4,336.8 580.5,331.0 581.7,340.1 582.8,336.7 584.0,337.2 585.1,340.2 586.3,339.9 587.4,339.3 588.6,336.1 589.7,340.4 590.9,340.3 592.0,337.2 593.2,338.7 594.3,315.6 595.5,335.9 596.6,313.1 597.8,313.3 598.9,310.2 600.1,335.8 601.2,332.2 602.4,335.8 603.5,340.4 604.7,336.9 605.8,340.5 607.0,340.1 608.1,339.5 609.3,340.4 610.4,340.2 611.6,340.5 612.7,339.3 613.9,340.5 615.0,338.7 616.2,340.1 617.3,340.5 618.5,338.1 619.6,287.9 620.8,339.3 621.9,340.5 623.1,324.5 624.2,336.5 625.4,335.1 626.5,337.2 627.7,339.5 628.8,340.1 629.9,340.4 631.1,340.2 632.2,340.1 633.4,340.3 634.5,340.5 635.7,340.4 636.8,340.5 638.0,340.4 639.1,340.2 640.3,340.4 641.4,340.5 642.6,340.2 643.7,339.5 644.9,341.2 646.0,339.5 647.2,339.9 648.3,310.1 649.5,324.8 650.6,314.2 651.8,305.4 652.9,315.3 654.1,335.9 655.2,315.6 656.4,335.9 657.5,338.5 658.7,340.2 659.8,339.2 661.0,339.5 662.1,336.3 663.3,340.2 664.4,340.4 665.6,340.4 666.7,310.2 667.9,339.9 669.0,336.4 670.2,340.5 671.3,339.3 672.5,340.5 673.6,339.3 674.8,340.4 675.9,315.5 677.1,339.8 678.2,311.3 679.4,313.3 680.5,339.3 681.7,336.3 682.8,339.5 684.0,335.1 685.1,339.8 686.3,310.1 687.4,336.1 688.6,334.2 689.7,339.3 690.9,300.4 692.0,340.1 693.2,315.5 694.3,315.6 695.5,339.3 696.6,323.5 697.8,323.6 698.9,339.6 700.1,340.4 701.2,339.5 702.4,339.5 703.5,335.8 704.7,313.1 705.8,313.1 707.0,315.1 708.1,339.3 709.2,315.5 710.4,315.3 711.5,332.6 712.7,337.4 713.8,340.5 715.0,340.1 716.1,339.4 717.3,340.1 718.4,340.0 719.6,336.1 720.7,339.0 721.9,336.9 723.0,340.1 724.2,339.5 725.3,339.3 726.5,336.1 727.6,340.2 728.8,340.4 729.9,337.4 731.1,311.9 732.2,331.4 733.4,310.2 734.5,311.2 735.7,313.9 736.8,311.3 738.0,340.1 739.1,332.3 740.3,339.3 741.4,338.6 742.6,339.6 743.7,340.5 744.9,340.1 746.0,339.4 747.2,339.3 748.3,340.2 749.5,336.1 750.6,337.2 751.8,340.4 752.9,339.5 754.1,340.1 755.2,340.4 756.4,332.8 757.5,340.5 758.7,339.1 759.8,324.9 761.0,307.7 762.1,315.1 763.3,332.8 764.4,332.1 765.6,328.8 766.7,303.3 767.9,315.6 769.0,336.6 770.2,336.1 771.3,340.1 772.5,329.8 773.6,329.1 774.8,335.8 775.9,339.3 777.1,336.1 778.2,340.1 779.4,329.2 780.5,338.6 781.7,339.5 782.8,330.9 784.0,314.0 785.1,320.6 786.3,339.3 787.4,313.3 788.5,311.4 789.7,313.1 790.8,315.1 792.0,317.5 793.1,336.4 794.3,337.3 795.4,323.0 796.6,340.1 797.7,340.4 798.9,340.5 800.0,340.5 801.2,340.1 802.3,339.3 803.5,340.3 804.6,335.8 805.8,339.8 806.9,340.1 808.1,339.7 809.2,339.3 810.4,340.5 811.5,336.1 812.7,339.3 813.8,320.6 815.0,336.1 816.1,310.2 817.3,329.6 818.4,311.4 819.6,337.2 820.7,313.8 821.9,339.3 823.0,339.3 824.2,336.6 825.3,315.6 826.5,339.3 827.6,335.4 828.8,332.5 829.9,329.1 831.1,335.4 832.2,309.8 833.4,317.5 834.5,339.3 835.7,337.4 836.8,335.0 838.0,339.3 839.1,328.1 840.3,313.2 841.4,315.3 842.6,310.0 843.7,310.2 844.9,313.1 846.0,315.6 847.2,315.1 848.3,324.8 849.5,330.9 850.6,336.2 851.8,336.3 852.9,310.2 854.1,310.0 855.2,339.3 856.4,336.4 857.5,310.2 858.7,340.2 859.8,313.2 861.0,339.5 862.1,340.2 863.3,338.3 864.4,338.4 865.6,313.1 866.7,340.5 867.8,335.8 869.0,315.3 870.1,335.4 871.3,332.1 872.4,310.8 873.6,311.3 874.7,329.1 875.9,301.3 877.0,339.6 878.2,340.5 879.3,340.5 880.5,337.0 881.6,340.2 882.8,340.5 883.9,309.1 885.1,313.1 886.2,340.5 887.4,337.2 888.5,339.9 889.7,336.6 890.8,340.2 892.0,337.2 893.1,326.7 894.3,340.4 895.4,337.3 896.6,315.4 897.7,313.2 898.9,310.2 900.0,310.8 901.2,310.5 902.3,329.9 903.5,336.1 904.6,340.0 905.8,337.0 906.9,340.5 908.1,340.5 909.2,340.5 910.4,327.7 911.5,340.3 912.7,336.5 913.8,340.5 915.0,349.7 916.1,349.7 917.3,349.7 918.4,340.1 919.6,340.5 920.7,340.5 921.9,339.8 923.0,316.5 924.2,313.8 925.3,313.1 926.5,313.0 927.6,335.7 928.8,313.5 929.9,343.0 931.1,340.5 932.2,340.5 933.4,340.5 934.5,337.2 935.7,337.4 936.8,339.5 938.0,335.9 939.1,340.1 940.3,340.4 941.4,340.4 942.6,317.5 943.7,339.3 944.9,337.4 946.0,339.3" fill="none" stroke="#059669" stroke-width="2.2" stroke-linejoin="round" stroke-linecap="round"/>
<polyline points="76.0,211.6 77.1,219.5 78.3,226.3 79.4,231.4 80.6,239.6 81.7,231.4 82.9,226.2 84.0,219.8 85.2,226.4 86.3,226.3 87.5,202.2 88.6,226.4 89.8,227.6 90.9,226.3 92.1,229.2 93.2,230.7 94.4,214.2 95.5,219.5 96.7,239.3 97.8,219.4 99.0,218.6 100.1,202.2 101.3,223.2 102.4,226.1 103.6,226.4 104.7,223.4 105.9,226.2 107.0,215.9 108.2,219.4 109.3,202.5 110.5,202.2 111.6,162.0 112.8,171.9 113.9,171.9 115.1,212.3 116.2,218.6 117.4,212.3 118.5,210.8 119.7,236.5 120.8,244.4 122.0,233.3 123.1,226.2 124.3,226.8 125.4,226.3 126.6,230.6 127.7,223.3 128.9,216.4 130.0,224.5 131.2,216.9 132.3,239.6 133.5,237.1 134.6,231.9 135.8,232.5 136.9,233.3 138.1,226.4 139.2,226.4 140.4,227.4 141.5,230.8 142.7,234.5 143.8,226.3 145.0,239.6 146.1,243.8 147.3,236.8 148.4,248.0 149.6,242.8 150.7,243.7 151.9,242.2 153.0,239.5 154.2,255.3 155.3,208.8 156.4,239.9 157.6,240.9 158.7,237.9 159.9,252.2 161.0,246.0 162.2,249.8 163.3,244.4 164.5,235.4 165.6,236.5 166.8,231.4 167.9,226.5 169.1,232.8 170.2,236.5 171.4,249.6 172.5,241.9 173.7,244.4 174.8,234.5 176.0,233.2 177.1,233.5 178.3,219.4 179.4,242.3 180.6,226.3 181.7,235.1 182.9,234.5 184.0,246.3 185.2,252.5 186.3,226.4 187.5,230.9 188.6,245.8 189.8,240.4 190.9,232.9 192.1,238.1 193.2,239.6 194.4,236.4 195.5,226.4 196.7,226.4 197.8,233.2 199.0,236.4 200.1,245.2 201.3,240.9 202.4,249.7 203.6,233.5 204.7,233.6 205.9,240.4 207.0,239.6 208.2,239.9 209.3,244.6 210.5,243.8 211.6,243.8 212.8,236.4 213.9,202.7 215.1,226.3 216.2,226.3 217.4,219.4 218.5,232.7 219.7,236.5 220.8,234.6 222.0,236.5 223.1,233.9 224.3,239.6 225.4,239.6 226.6,236.5 227.7,233.3 228.9,242.0 230.0,242.2 231.2,240.9 232.3,231.1 233.5,230.0 234.6,240.2 235.7,229.7 236.9,235.5 238.0,234.5 239.2,209.6 240.3,226.4 241.5,226.3 242.6,226.2 243.8,228.0 244.9,226.4 246.1,239.6 247.2,239.6 248.4,235.1 249.5,233.3 250.7,238.8 251.8,239.6 253.0,240.0 254.1,255.1 255.3,236.5 256.4,236.5 257.6,244.4 258.7,244.4 259.9,236.5 261.0,235.3 262.2,228.6 263.3,226.4 264.5,244.4 265.6,226.3 266.8,202.2 267.9,234.7 269.1,236.4 270.2,226.3 271.4,231.8 272.5,236.4 273.7,239.6 274.8,236.4 276.0,235.8 277.1,236.9 278.3,226.4 279.4,241.6 280.6,237.1 281.7,226.4 282.9,235.8 284.0,241.9 285.2,243.9 286.3,251.5 287.5,227.1 288.6,226.3 289.8,227.4 290.9,238.0 292.1,250.5 293.2,230.8 294.4,226.2 295.5,226.4 296.7,228.2 297.8,225.6 299.0,232.6 300.1,226.4 301.3,231.2 302.4,214.7 303.6,226.2 304.7,162.0 305.9,172.9 307.0,202.5 308.2,213.1 309.3,204.0 310.5,226.3 311.6,235.5 312.8,231.0 313.9,229.7 315.0,219.6 316.2,219.4 317.3,226.3 318.5,202.5 319.6,230.0 320.8,202.2 321.9,202.2 323.1,226.3 324.2,213.1 325.4,219.8 326.5,227.4 327.7,226.3 328.8,227.4 330.0,227.1 331.1,229.6 332.3,226.4 333.4,236.4 334.6,211.5 335.7,224.5 336.9,236.5 338.0,235.3 339.2,226.3 340.3,231.4 341.5,233.3 342.6,226.3 343.8,205.1 344.9,223.3 346.1,226.1 347.2,261.2 348.4,222.6 349.5,217.1 350.7,243.4 351.8,218.1 353.0,231.4 354.1,236.7 355.3,244.4 356.4,244.1 357.6,236.4 358.7,236.4 359.9,230.4 361.0,226.4 362.2,243.8 363.3,234.7 364.5,234.0 365.6,221.2 366.8,213.5 367.9,231.1 369.1,184.3 370.2,234.2 371.4,217.6 372.5,225.1 373.7,226.3 374.8,230.6 376.0,217.5 377.1,244.1 378.3,217.9 379.4,224.4 380.6,202.1 381.7,199.5 382.9,197.7 384.0,219.4 385.2,213.3 386.3,226.4 387.5,172.0 388.6,223.4 389.8,207.7 390.9,208.3 392.1,202.2 393.2,224.6 394.3,231.1 395.5,226.4 396.6,170.6 397.8,226.2 398.9,234.7 400.1,226.1 401.2,226.4 402.4,178.2 403.5,202.8 404.7,229.3 405.8,234.7 407.0,226.4 408.1,212.5 409.3,236.5 410.4,235.8 411.6,227.4 412.7,226.4 413.9,223.3 415.0,233.3 416.2,226.3 417.3,255.4 418.5,234.3 419.6,234.5 420.8,233.3 421.9,236.3 423.1,236.3 424.2,227.4 425.4,226.1 426.5,226.3 427.7,226.3 428.8,226.3 430.0,217.6 431.1,226.3 432.3,217.5 433.4,216.1 434.6,226.2 435.7,236.3 436.9,217.6 438.0,226.3 439.2,221.9 440.3,212.3 441.5,202.8 442.6,217.9 443.8,226.3 444.9,217.9 446.1,235.7 447.2,226.3 448.4,208.3 449.5,209.7 450.7,226.3 451.8,226.3 453.0,226.3 454.1,236.4 455.3,226.3 456.4,238.0 457.6,226.2 458.7,225.9 459.9,226.4 461.0,226.9 462.2,234.3 463.3,251.6 464.5,236.5 465.6,238.9 466.8,242.8 467.9,236.4 469.1,232.8 470.2,218.3 471.4,234.9 472.5,236.4 473.6,236.4 474.8,236.3 475.9,231.4 477.1,228.4 478.2,234.3 479.4,243.9 480.5,223.3 481.7,226.2 482.8,226.3 484.0,231.5 485.1,229.3 486.3,229.7 487.4,212.8 488.6,216.0 489.7,223.3 490.9,229.5 492.0,216.7 493.2,226.3 494.3,218.5 495.5,227.2 496.6,236.4 497.8,171.9 498.9,202.2 500.1,226.3 501.2,202.9 502.4,215.1 503.5,217.4 504.7,236.3 505.8,224.6 507.0,231.3 508.1,226.2 509.3,218.5 510.4,215.1 511.6,202.4 512.7,194.7 513.9,197.0 515.0,211.6 516.2,202.5 517.3,217.9 518.5,231.1 519.6,216.1 520.8,236.5 521.9,226.1 523.1,225.6 524.2,226.4 525.4,221.8 526.5,226.2 527.7,243.8 528.8,229.3 530.0,234.6 531.1,236.4 532.3,229.8 533.4,236.4 534.6,239.6 535.7,243.8 536.9,226.5 538.0,227.2 539.2,226.3 540.3,236.4 541.5,230.8 542.6,226.4 543.8,234.8 544.9,229.7 546.1,92.4 547.2,217.9 548.4,226.3 549.5,216.6 550.6,234.7 551.8,233.3 552.9,226.3 554.1,226.3 555.2,226.3 556.4,223.3 557.5,226.1 558.7,236.4 559.8,241.7 561.0,236.4 562.1,234.9 563.3,216.6 564.4,226.4 565.6,226.3 566.7,241.3 567.9,235.5 569.0,219.9 570.2,215.3 571.3,233.3 572.5,229.8 573.6,233.7 574.8,236.6 575.9,202.8 577.1,236.5 578.2,236.5 579.4,219.5 580.5,223.4 581.7,231.1 582.8,223.2 584.0,222.7 585.1,229.9 586.3,235.1 587.4,236.2 588.6,226.3 589.7,241.0 590.9,243.6 592.0,228.0 593.2,239.9 594.3,226.3 595.5,230.9 596.6,214.7 597.8,217.6 598.9,217.6 600.1,226.2 601.2,226.3 602.4,219.9 603.5,237.4 604.7,227.1 605.8,234.6 607.0,226.4 608.1,226.4 609.3,239.9 610.4,219.8 611.6,236.8 612.7,227.4 613.9,239.9 615.0,226.2 616.2,235.0 617.3,234.6 618.5,226.2 619.6,170.5 620.8,226.3 621.9,227.5 623.1,227.6 624.2,229.7 625.4,226.3 626.5,226.3 627.7,243.0 628.8,226.4 629.9,233.3 631.1,226.4 632.2,231.5 633.4,229.7 634.5,241.9 635.7,235.3 636.8,239.9 638.0,239.5 639.1,235.4 640.3,239.6 641.4,236.8 642.6,243.8 643.7,226.4 644.9,244.4 646.0,215.4 647.2,228.1 648.3,208.3 649.5,216.5 650.6,226.4 651.8,204.4 652.9,226.3 654.1,226.1 655.2,226.3 656.4,234.7 657.5,226.4 658.7,239.6 659.8,226.3 661.0,230.0 662.1,225.4 663.3,226.4 664.4,237.9 665.6,239.1 666.7,202.8 667.9,233.6 669.0,233.3 670.2,238.6 671.3,233.3 672.5,235.3 673.6,219.4 674.8,235.8 675.9,215.4 677.1,233.2 678.2,225.8 679.4,222.5 680.5,228.0 681.7,226.3 682.8,226.4 684.0,222.6 685.1,232.4 686.3,198.4 687.4,223.1 688.6,214.7 689.7,234.7 690.9,171.9 692.0,233.3 693.2,202.2 694.3,222.8 695.5,219.5 696.6,212.6 697.8,218.6 698.9,242.8 700.1,234.7 701.2,226.2 702.4,231.0 703.5,226.3 704.7,212.6 705.8,226.3 707.0,209.7 708.1,226.3 709.2,202.5 710.4,202.2 711.5,204.3 712.7,226.4 713.8,238.2 715.0,226.4 716.1,219.4 717.3,233.8 718.4,234.7 719.6,222.8 720.7,226.3 721.9,217.6 723.0,234.4 724.2,233.3 725.3,234.6 726.5,239.6 727.6,243.7 728.8,232.5 729.9,231.1 731.1,221.6 732.2,230.8 733.4,231.0 734.5,206.6 735.7,223.4 736.8,218.3 738.0,229.8 739.1,227.4 740.3,228.1 741.4,235.3 742.6,234.7 743.7,226.4 744.9,232.3 746.0,239.6 747.2,226.7 748.3,240.4 749.5,228.0 750.6,234.5 751.8,239.6 752.9,239.6 754.1,236.6 755.2,240.9 756.4,214.8 757.5,231.1 758.7,236.4 759.8,225.7 761.0,226.2 762.1,225.2 763.3,225.2 764.4,217.9 765.6,226.4 766.7,174.3 767.9,213.0 769.0,226.3 770.2,216.7 771.3,220.8 772.5,234.7 773.6,218.6 774.8,217.7 775.9,235.3 777.1,224.9 778.2,230.9 779.4,226.3 780.5,226.3 781.7,233.2 782.8,223.3 784.0,214.1 785.1,210.8 786.3,235.7 787.4,226.0 788.5,227.3 789.7,221.8 790.8,226.2 792.0,214.5 793.1,231.9 794.3,226.6 795.4,226.3 796.6,236.4 797.7,233.0 798.9,226.3 800.0,239.6 801.2,226.7 802.3,226.4 803.5,240.1 804.6,217.6 805.8,233.3 806.9,230.7 808.1,237.3 809.2,226.7 810.4,228.3 811.5,225.2 812.7,226.4 813.8,227.4 815.0,226.3 816.1,221.3 817.3,211.2 818.4,197.3 819.6,227.5 820.7,214.8 821.9,232.3 823.0,226.2 824.2,226.3 825.3,202.3 826.5,210.9 827.6,226.4 828.8,220.6 829.9,223.3 831.1,226.4 832.2,191.2 833.4,218.2 834.5,226.3 835.7,233.3 836.8,227.4 838.0,236.4 839.1,222.0 840.3,219.4 841.4,236.4 842.6,201.0 843.7,226.3 844.9,226.6 846.0,219.4 847.2,226.2 848.3,226.4 849.5,226.4 850.6,224.2 851.8,218.6 852.9,202.6 854.1,185.3 855.2,226.4 856.4,226.7 857.5,202.9 858.7,230.1 859.8,229.6 861.0,244.4 862.1,243.2 863.3,240.6 864.4,239.9 865.6,194.3 866.7,248.1 867.8,211.3 869.0,236.5 870.1,244.4 871.3,243.5 872.4,226.4 873.6,176.0 874.7,226.3 875.9,197.1 877.0,232.2 878.2,239.5 879.3,244.3 880.5,223.3 881.6,231.2 882.8,259.7 883.9,171.9 885.1,202.8 886.2,259.9 887.4,226.4 888.5,229.2 889.7,226.3 890.8,239.9 892.0,226.3 893.1,233.3 894.3,219.4 895.4,183.2 896.6,226.4 897.7,207.1 898.9,212.7 900.0,211.2 901.2,202.4 902.3,226.8 903.5,230.5 904.6,246.6 905.8,215.9 906.9,243.9 908.1,227.6 909.2,235.1 910.4,233.2 911.5,244.3 912.7,232.4 913.8,240.9 915.0,251.3 916.1,248.8 917.3,255.6 918.4,239.6 919.6,241.9 920.7,244.2 921.9,202.0 923.0,197.2 924.2,227.5 925.3,220.9 926.5,226.5 927.6,219.4 928.8,219.5 929.9,236.3 931.1,239.6 932.2,240.4 933.4,249.2 934.5,241.5 935.7,240.4 936.8,233.9 938.0,209.7 939.1,239.6 940.3,236.4 941.4,244.2 942.6,215.8 943.7,226.4 944.9,239.6 946.0,226.6" fill="none" stroke="#d97706" stroke-width="2.2" stroke-linejoin="round" stroke-linecap="round"/>
<line x1="76" y1="70" x2="94" y2="70" stroke="#2563eb" stroke-width="3"/>
<text x="100" y="74" font-family="Arial, sans-serif" font-size="11" fill="#0f172a">avg fee</text>
<line x1="179" y1="70" x2="197" y2="70" stroke="#059669" stroke-width="3"/>
<text x="203" y="74" font-family="Arial, sans-serif" font-size="11" fill="#0f172a">median fee</text>
<line x1="303" y1="70" x2="321" y2="70" stroke="#d97706" stroke-width="3"/>
<text x="327" y="74" font-family="Arial, sans-serif" font-size="11" fill="#0f172a">p90 fee</text>
<text x="28" y="404" font-family="Arial, sans-serif" font-size="11" fill="#64748b">Source: hourly_features.csv</text>
</svg>