<svg xmlns="http://www.w3.org/2000/svg" width="980" height="420" viewBox="0 0 980 420">
<rect width="100%" height="100%" fill="#ffffff"/>
<text x="28" y="34" font-family="Arial, sans-serif" font-size="20" font-weight="700" fill="#0f172a">Hourly fee trend</text>
<text x="28" y="56" font-family="Arial, sans-serif" font-size="12" fill="#64748b">Average, median, and p90 total fee by hour</text>
<line x1="76" y1="362.0" x2="946" y2="362.0" stroke="#e2e8f0" stroke-width="1"/>
<text x="68" y="366.0" font-family="Arial, sans-serif" font-size="10" text-anchor="end" fill="#64748b">-311K</text>
<line x1="76" y1="292.0" x2="946" y2="292.0" stroke="#e2e8f0" stroke-width="1"/>
<text x="68" y="296.0" font-family="Arial, sans-serif" font-size="10" text-anchor="end" fill="#64748b">2.7M</text>
<line x1="76" y1="222.0" x2="946" y2="222.0" stroke="#e2e8f0" stroke-width="1"/>
<text x="68" y="226.0" font-family="Arial, sans-serif" font-size="10" text-anchor="end" fill="#64748b">5.7M</text>
<line x1="76" y1="152.0" x2="946" y2="152.0" stroke="#e2e8f0" stroke-width="1"/>
<text x="68" y="156.0" font-family="Arial, sans-serif" font-size="10" text-anchor="end" fill="#64748b">8.7M</text>
<line x1="76" y1="82.0" x2="946" y2="82.0" stroke="#e2e8f0" stroke-width="1"/>
<text x="68" y="86.0" font-family="Arial, sans-serif" font-size="10" text-anchor="end" fill="#64748b">11.7M</text>
<line x1="76" y1="362" x2="946" y2="362" stroke="#334155" stroke-width="1"/>
<line x1="76" y1="82" x2="76" y2="362" stroke="#334155" stroke-width="1"/>
<text x="76" y="72" font-family="Arial, sans-serif" font-size="11" fill="#64748b">nanoton</text>
<line x1="76.0" y1="362" x2="76.0" y2="366" stroke="#334155" stroke-width="1"/>
<text x="76.0" y="380" font-family="Arial, sans-serif" font-size="10" text-anchor="middle" fill="#64748b">0</text>
<line x1="511.0" y1="362" x2="511.0" y2="366" stroke="#334155" stroke-width="1"/>
<text x="511.0" y="380" font-family="Arial, sans-serif" font-size="10" text-anchor="middle" fill="#64748b">400</text>
<line x1="946.0" y1="362" x2="946.0" y2="366" stroke="#334155" stroke-width="1"/>
<text x="946.0" y="380" font-family="Arial, sans-serif" font-size="10" text-anchor="middle" fill="#64748b">800</text>
<polyline points="76.0,292.0 77.1,295.8 78.2,297.2 79.3,299.3 80.3,306.1 81.4,298.4 82.5,299.4 83.6,295.8 84.7,300.2 85.8,300.0 86.9,288.9 88.0,300.8 89.0,300.9 90.1,298.6 91.2,301.5 92.3,301.7 93.4,293.7 94.5,293.7 95.6,302.6 96.7,292.3 97.8,290.4 98.8,288.5 99.9,295.1 101.0,295.4 102.1,297.3 103.2,293.3 104.3,298.9 105.4,291.8 106.5,294.5 107.5,289.5 108.6,290.2 109.7,274.2 110.8,285.8 111.9,286.5 113.0,295.8 114.1,301.2 115.2,294.1 116.2,296.1 117.3,305.9 118.4,308.8 119.5,303.4 120.6,298.2 121.7,299.9 122.8,299.2 123.8,305.7 124.9,298.6 126.0,295.7 127.1,297.7 128.2,299.9 129.3,304.4 130.4,304.4 131.5,303.2 132.6,301.6 133.6,304.6 134.7,303.5 135.8,300.7 136.9,300.4 138.0,304.1 139.1,300.4 140.2,302.6 141.2,308.1 142.3,310.0 143.4,307.7 144.5,308.4 145.6,310.4 146.7,307.2 147.8,306.8 148.9,303.3 149.9,309.8 151.0,291.9 152.1,307.7 153.2,307.7 154.3,307.6 155.4,312.6 156.5,308.4 157.6,311.6 158.7,310.4 159.7,306.8 160.8,306.7 161.9,304.5 163.0,304.7 164.1,302.6 165.2,306.4 166.3,308.7 167.3,308.2 168.4,309.4 169.5,306.3 170.6,304.2 171.7,304.0 172.8,299.8 173.9,306.2 175.0,298.3 176.1,300.5 177.1,301.6 178.2,305.2 179.3,312.9 180.4,301.4 181.5,301.8 182.6,310.2 183.7,308.8 184.8,301.5 185.8,305.5 186.9,306.4 188.0,303.9 189.1,301.7 190.2,298.7 191.3,299.9 192.4,303.2 193.4,309.4 194.5,308.7 195.6,308.7 196.7,304.4 197.8,303.2 198.9,305.4 200.0,305.2 201.1,305.3 202.2,309.6 203.2,310.2 204.3,308.6 205.4,302.3 206.5,288.0 207.6,302.9 208.7,300.0 209.8,297.3 210.8,300.8 211.9,306.8 213.0,302.8 214.1,306.2 215.2,303.4 216.3,306.2 217.4,308.1 218.5,306.2 219.6,302.0 220.6,306.1 221.7,309.3 222.8,303.7 223.9,303.0 225.0,304.4 226.1,304.6 227.2,300.2 228.2,299.7 229.3,299.2 230.4,290.6 231.5,298.1 232.6,297.6 233.7,296.7 234.8,300.9 235.9,300.3 236.9,305.9 238.0,305.3 239.1,305.1 240.2,300.4 241.3,302.5 242.4,307.0 243.5,305.8 244.6,313.4 245.7,307.0 246.7,305.6 247.8,308.3 248.9,308.2 250.0,303.2 251.1,305.1 252.2,302.0 253.3,302.9 254.3,301.5 255.4,300.0 256.5,291.8 257.6,297.3 258.7,301.8 259.8,297.8 260.9,304.0 262.0,303.8 263.1,304.3 264.1,303.9 265.2,304.1 266.3,305.0 267.4,301.4 268.5,306.9 269.6,304.2 270.7,300.5 271.8,304.1 272.8,308.0 273.9,307.4 275.0,308.0 276.1,299.7 277.2,302.9 278.3,299.1 279.4,305.1 280.4,301.5 281.5,300.7 282.6,296.9 283.7,299.4 284.8,299.6 285.9,295.0 287.0,301.2 288.1,299.1 289.1,299.9 290.2,295.4 291.3,299.1 292.4,279.1 293.5,285.4 294.6,296.4 295.7,297.0 296.8,295.6 297.9,302.0 298.9,305.5 300.0,303.7 301.1,303.4 302.2,299.1 303.3,296.5 304.4,297.8 305.5,292.6 306.6,293.2 307.6,291.8 308.7,291.2 309.8,300.9 310.9,293.2 312.0,298.0 313.1,301.0 314.2,305.0 315.2,303.7 316.3,303.3 317.4,303.5 318.5,302.1 319.6,304.8 320.7,297.1 321.8,299.0 322.9,305.7 323.9,305.5 325.0,300.8 326.1,305.2 327.2,304.7 328.3,300.2 329.4,289.9 330.5,294.9 331.6,295.4 332.6,304.9 333.7,296.8 334.8,298.2 335.9,306.9 337.0,296.1 338.1,301.7 339.2,306.4 340.3,309.8 341.4,306.7 342.4,305.3 343.5,301.9 344.6,305.1 345.7,300.5 346.8,304.3 347.9,306.3 349.0,304.3 350.1,300.6 351.1,295.6 352.2,301.2 353.3,287.4 354.4,303.4 355.5,295.1 356.6,299.2 357.7,300.7 358.8,298.7 359.8,295.7 360.9,311.7 362.0,292.8 363.1,296.8 364.2,282.8 365.3,295.8 366.4,294.5 367.4,296.2 368.5,292.2 369.6,302.3 370.7,281.0 371.8,298.5 372.9,293.1 374.0,292.7 375.1,284.4 376.1,299.5 377.2,301.6 378.3,299.9 379.4,289.6 380.5,300.3 381.6,305.6 382.7,299.0 383.8,296.8 384.9,280.9 385.9,285.3 387.0,301.8 388.1,301.1 389.2,299.3 390.3,294.6 391.4,304.4 392.5,304.3 393.6,299.9 394.6,298.0 395.7,298.6 396.8,302.6 397.9,299.4 399.0,312.8 400.1,300.7 401.2,304.8 402.2,302.4 403.3,304.2 404.4,305.5 405.5,299.1 406.6,295.6 407.7,300.5 408.8,296.3 409.9,303.1 410.9,293.8 412.0,298.8 413.1,295.1 414.2,291.2 415.3,296.3 416.4,305.8 417.5,292.3 418.6,301.6 419.6,297.1 420.7,294.3 421.8,292.8 422.9,298.1 424.0,298.4 425.1,299.1 426.2,300.8 427.3,294.1 428.4,287.4 429.4,291.3 430.5,301.2 431.6,295.7 432.7,302.2 433.8,304.3 434.9,300.4 436.0,303.8 437.1,296.4 438.1,298.3 439.2,304.0 440.3,302.9 441.4,304.2 442.5,310.0 443.6,308.1 444.7,307.4 445.8,307.8 446.8,305.6 447.9,305.7 449.0,299.6 450.1,302.4 451.2,304.4 452.3,304.6 453.4,305.5 454.4,303.6 455.5,300.6 456.6,305.8 457.7,308.4 458.8,298.5 459.9,300.2 461.0,299.3 462.1,300.9 463.1,299.1 464.2,302.3 465.3,288.4 466.4,295.5 467.5,296.0 468.6,299.9 469.7,292.5 470.8,299.6 471.9,295.8 472.9,300.0 474.0,305.5 475.1,283.3 476.2,291.0 477.3,300.1 478.4,296.4 479.5,294.6 480.6,295.9 481.6,305.6 482.7,298.1 483.8,303.0 484.9,298.0 486.0,296.8 487.1,294.1 488.2,292.9 489.2,287.9 490.3,288.9 491.4,295.4 492.5,293.8 493.6,298.7 494.7,304.4 495.8,298.0 496.9,305.4 497.9,299.9 499.0,299.0 500.1,300.6 501.2,298.4 502.3,297.8 503.4,306.8 504.5,303.2 505.6,305.8 506.6,304.2 507.7,304.7 508.8,304.0 509.9,305.8 511.0,303.0 512.1,301.3 513.2,298.5 514.3,296.2 515.4,306.3 516.4,304.0 517.5,305.0 518.6,304.1 519.7,299.7 520.8,258.0 521.9,292.2 523.0,299.7 524.0,297.5 525.1,302.3 526.2,302.9 527.3,301.1 528.4,300.6 529.5,300.9 530.6,297.2 531.7,300.7 532.8,306.9 533.8,307.8 534.9,302.1 536.0,304.0 537.1,296.3 538.2,303.5 539.3,298.1 540.4,306.1 541.5,300.3 542.5,296.8 543.6,296.4 544.7,302.2 545.8,302.2 546.9,301.9 548.0,305.8 549.1,293.8 550.1,304.8 551.2,307.3 552.3,296.7 553.4,298.7 554.5,304.1 555.6,297.1 556.7,300.7 557.8,305.2 558.9,303.0 559.9,305.1 561.0,302.0 562.1,307.4 563.2,306.9 564.3,302.1 565.4,304.5 566.5,298.3 567.5,301.4 568.6,293.5 569.7,293.2 570.8,293.3 571.9,300.5 573.0,299.7 574.1,300.1 575.2,302.8 576.2,300.9 577.3,306.6 578.4,301.5 579.5,301.8 580.6,306.0 581.7,300.4 582.8,305.7 583.9,300.9 585.0,307.7 586.0,300.4 587.1,305.7 588.2,304.6 589.3,299.3 590.4,264.7 591.5,304.2 592.6,305.8 593.6,302.6 594.7,302.1 595.8,299.5 596.9,301.2 598.0,304.0 599.1,299.9 600.2,305.3 601.3,304.0 602.4,304.3 603.4,302.4 604.5,309.7 605.6,305.7 606.7,310.4 607.8,305.8 608.9,305.0 610.0,306.2 611.0,304.9 612.1,306.6 613.2,300.8 614.3,306.5 615.4,298.3 616.5,303.5 617.6,289.3 618.7,295.8 619.8,301.0 620.8,288.5 621.9,300.3 623.0,299.7 624.1,298.1 625.2,302.4 626.3,300.8 627.4,303.9 628.5,300.5 629.5,304.3 630.6,299.2 631.7,302.9 632.8,306.6 633.9,305.8 635.0,291.6 636.1,304.4 637.1,300.9 638.2,303.6 639.3,304.4 640.4,305.9 641.5,297.5 642.6,302.9 643.7,294.1 644.8,299.5 645.9,296.0 646.9,294.7 648.0,300.6 649.1,298.7 650.2,301.7 651.3,296.9 652.4,302.8 653.5,283.8 654.5,298.6 655.6,292.4 656.7,302.1 657.8,282.5 658.9,304.9 660.0,293.3 661.1,297.7 662.2,302.2 663.2,295.1 664.3,296.5 665.4,306.5 666.5,305.9 667.6,301.6 668.7,303.2 669.8,298.8 670.9,296.2 672.0,297.8 673.0,293.9 674.1,299.9 675.2,292.3 676.3,291.1 677.4,294.0 678.5,303.9 679.6,304.7 680.6,302.9 681.7,298.8 682.8,304.3 683.9,303.8 685.0,300.6 686.1,301.2 687.2,296.9 688.3,301.9 689.4,303.8 690.4,303.5 691.5,302.0 692.6,306.7 693.7,306.4 694.8,302.3 695.9,295.5 697.0,302.3 698.0,300.2 699.1,291.6 700.2,297.1 701.3,295.3 702.4,302.6 703.5,299.4 704.6,300.4 705.7,303.9 706.8,302.2 707.8,300.4 708.9,303.9 710.0,304.9 711.1,300.8 712.2,305.7 713.3,299.4 714.4,303.9 715.5,306.2 716.5,304.6 717.6,305.1 718.7,307.0 719.8,295.8 720.9,308.0 722.0,305.0 723.1,296.4 724.1,295.3 725.2,294.9 726.3,297.1 727.4,297.2 728.5,299.4 729.6,285.9 730.7,296.1 731.8,299.8 732.9,297.5 733.9,295.4 735.0,301.9 736.1,295.5 737.2,297.2 738.3,305.1 739.4,297.0 740.5,303.8 741.5,298.9 742.6,301.3 743.7,302.0 744.8,299.6 745.9,296.0 747.0,297.1 748.1,304.3 749.2,296.8 750.2,297.2 751.3,296.4 752.4,296.6 753.5,296.2 754.6,301.2 755.7,300.2 756.8,297.1 757.9,304.6 759.0,304.2 760.0,299.4 761.1,306.8 762.2,302.1 763.3,301.7 764.4,306.5 765.5,297.1 766.6,303.1 767.6,304.5 768.7,305.9 769.8,300.4 770.9,302.2 772.0,299.2 773.1,300.0 774.2,298.5 775.3,302.1 776.4,297.2 777.4,294.2 778.5,285.4 779.6,300.0 780.7,295.1 781.8,300.2 782.9,300.1 784.0,299.2 785.0,292.2 786.1,293.5 787.2,299.5 788.3,298.7 789.4,298.8 790.5,299.8 791.6,289.4 792.7,297.7 793.8,298.6 794.8,303.0 795.9,302.2 797.0,306.7 798.1,297.0 799.2,296.3 800.3,301.1 801.4,290.8 802.5,298.0 803.5,296.4 804.6,296.4 805.7,296.0 806.8,298.7 807.9,300.8 809.0,297.0 810.1,298.2 811.1,293.0 812.2,286.3 813.3,301.0 814.4,302.3 815.5,294.8 816.6,303.6 817.7,298.8 818.8,309.0 819.9,293.8 820.9,306.2 822.0,305.4 823.1,293.2 824.2,306.4 825.3,299.0 826.4,299.4 827.5,308.7 828.5,306.7 829.6,295.2 830.7,285.7 831.8,296.9 832.9,282.7 834.0,297.0 835.1,308.4 836.2,304.8 837.2,300.5 838.3,302.8 839.4,310.3 840.5,289.0 841.6,294.6 842.7,315.6 843.8,302.1 844.9,305.5 846.0,300.4 847.0,306.7 848.1,298.7 849.2,304.7 850.3,298.5 851.4,287.4 852.5,296.8 853.6,294.6 854.6,296.5 855.7,293.8 856.8,296.3 857.9,298.7 859.0,304.4 860.1,309.1 861.2,296.4 862.3,307.9 863.4,306.3 864.4,306.7 865.5,304.4 866.6,298.6 867.7,294.8 868.8,306.3 869.9,311.7 871.0,307.9 872.0,310.7 873.1,305.3 874.2,309.1 875.3,309.5 876.4,300.3 877.5,289.4 878.6,298.3 879.7,299.3 880.8,299.8 881.8,300.0 882.9,296.4 884.0,307.1 885.1,309.1 886.2,305.7 887.3,310.6 888.4,308.0 889.5,304.5 890.5,304.8 891.6,297.7 892.7,305.4 893.8,306.8 894.9,309.5 896.0,293.1 897.1,303.1 898.1,306.6 899.2,303.5 900.3,302.1 901.4,304.0 902.5,296.2 903.6,296.3 904.7,296.5 905.8,300.4 906.9,300.3 907.9,302.2 909.0,305.8 910.1,308.6 911.2,304.4 912.3,302.1 913.4,304.3 914.5,292.1 915.5,302.4 916.6,303.2 917.7,303.3 918.8,296.9 919.9,307.9 921.0,305.4 922.1,290.0 923.2,298.7 924.2,296.5 925.3,296.9 926.4,297.3 927.5,307.6 928.6,301.5 929.7,306.2 930.8,296.9 931.9,304.9 933.0,306.4 934.0,303.9 935.1,302.9 936.2,286.4 937.3,305.6 938.4,336.2 939.5,345.2 940.6,345.3 941.6,345.0 942.7,345.5 943.8,320.4 944.9,343.8 946.0,343.5" fill="none" stroke="#2563eb" stroke-width="2.2" stroke-linejoin="round" stroke-linecap="round"/>
<polyline points="76.0,312.8 77.1,326.4 78.2,335.5 79.3,336.0 80.3,336.5 81.4,336.1 82.5,335.8 83.6,332.2 84.7,336.1 85.8,336.1 86.9,321.8 88.0,336.1 89.0,335.6 90.1,332.2 91.2,335.9 92.3,335.3 93.4,322.5 94.5,331.9 95.6,333.8 96.7,311.9 97.8,304.2 98.8,307.2 99.9,321.9 101.0,316.8 102.1,311.8 103.2,331.3 104.3,334.9 105.4,313.8 106.5,336.5 107.5,320.4 108.6,331.9 109.7,285.0 110.8,301.6 111.9,304.6 113.0,309.6 114.1,332.8 115.2,313.8 116.2,311.9 117.3,336.3 118.4,336.5 119.5,331.2 120.6,311.9 121.7,311.9 122.8,313.8 123.8,342.3 124.9,336.4 126.0,310.2 127.1,311.6 128.2,336.4 129.3,336.8 130.4,335.6 131.5,334.9 132.6,335.4 133.6,336.0 134.7,332.9 135.8,336.0 136.9,332.3 138.0,335.7 139.1,336.1 140.2,335.6 141.2,336.5 142.3,336.3 143.4,336.4 144.5,345.5 145.6,337.2 146.7,336.4 147.8,336.4 148.9,332.2 149.9,345.5 151.0,337.1 152.1,337.7 153.2,337.7 154.3,336.5 155.4,339.6 156.5,337.6 157.6,337.6 158.7,336.6 159.7,336.5 160.8,336.5 161.9,336.0 163.0,336.5 164.1,336.1 165.2,336.0 166.3,336.5 167.3,336.5 168.4,336.5 169.5,335.8 170.6,336.4 171.7,336.3 172.8,332.2 173.9,336.2 175.0,313.5 176.1,331.1 177.1,332.5 178.2,335.3 179.3,345.5 180.4,332.0 181.5,335.3 182.6,336.5 183.7,337.7 184.8,336.1 185.8,336.2 186.9,336.3 188.0,336.0 189.1,332.4 190.2,331.9 191.3,333.0 192.4,334.5 193.4,336.4 194.5,336.4 195.6,336.4 196.7,335.5 197.8,336.3 198.9,336.4 200.0,333.0 201.1,333.8 202.2,337.7 203.2,345.5 204.3,337.6 205.4,336.5 206.5,311.4 207.6,336.4 208.7,335.9 209.8,336.1 210.8,335.3 211.9,336.4 213.0,335.5 214.1,336.4 215.2,336.3 216.3,336.4 217.4,336.5 218.5,336.2 219.6,334.6 220.6,336.4 221.7,336.5 222.8,336.5 223.9,335.6 225.0,335.7 226.1,331.7 227.2,311.9 228.2,300.0 229.3,311.1 230.4,305.7 231.5,311.5 232.6,311.5 233.7,329.1 234.8,334.4 235.9,335.3 236.9,335.3 238.0,336.4 239.1,336.4 240.2,335.3 241.3,336.2 242.4,336.1 243.5,336.1 244.6,345.5 245.7,336.4 246.7,336.3 247.8,336.5 248.9,336.4 250.0,335.3 251.1,335.9 252.2,332.4 253.3,321.1 254.3,300.0 255.4,335.5 256.5,328.3 257.6,336.1 258.7,333.2 259.8,333.2 260.9,332.8 262.0,336.2 263.1,335.9 264.1,336.1 265.2,336.1 266.3,332.2 267.4,332.2 268.5,336.4 269.6,335.8 270.7,332.4 271.8,336.0 272.8,336.5 273.9,336.0 275.0,336.4 276.1,331.9 277.2,335.8 278.3,316.9 279.4,336.1 280.4,300.0 281.5,335.5 282.6,331.1 283.7,334.0 284.8,333.3 285.9,311.9 287.0,333.2 288.1,333.7 289.1,336.0 290.2,325.2 291.3,335.4 292.4,297.0 293.5,299.9 294.6,328.5 295.7,332.6 296.8,332.2 297.9,333.7 298.9,336.1 300.0,336.1 301.1,335.5 302.2,326.2 303.3,316.4 304.4,309.9 305.5,306.7 306.6,300.0 307.6,307.8 308.7,306.7 309.8,333.2 310.9,306.8 312.0,318.4 313.1,334.9 314.2,336.5 315.2,335.6 316.3,336.4 317.4,336.4 318.5,335.2 319.6,336.5 320.7,321.1 321.8,321.1 322.9,335.5 323.9,335.3 325.0,334.9 326.1,336.1 327.2,336.0 328.3,332.7 329.4,306.7 330.5,309.6 331.6,309.6 332.6,300.0 333.7,311.5 334.8,336.9 335.9,337.7 337.0,313.8 338.1,336.0 339.2,337.6 340.3,337.4 341.4,337.7 342.4,336.5 343.5,335.3 344.6,335.7 345.7,335.9 346.8,335.0 347.9,336.1 349.0,335.9 350.1,331.0 351.1,310.3 352.2,335.5 353.3,309.5 354.4,335.8 355.5,312.0 356.6,311.6 357.7,326.5 358.8,306.8 359.8,321.1 360.9,345.5 362.0,316.9 363.1,335.6 364.2,309.6 365.3,311.2 366.4,331.5 367.4,335.5 368.5,336.5 369.6,334.7 370.7,325.2 371.8,335.3 372.9,309.5 374.0,307.4 375.1,325.2 376.1,316.9 377.2,334.9 378.3,334.0 379.4,304.5 380.5,335.5 381.6,336.1 382.7,327.9 383.8,335.3 384.9,322.2 385.9,335.1 387.0,335.2 388.1,335.5 389.2,332.2 390.3,333.2 391.4,335.2 392.5,336.1 393.6,335.3 394.6,334.5 395.7,311.9 396.8,336.2 397.9,332.2 399.0,347.4 400.1,335.3 401.2,336.2 402.2,335.2 403.3,336.2 404.4,336.1 405.5,311.9 406.6,316.7 407.7,333.5 408.8,311.8 409.9,333.2 410.9,306.6 412.0,331.9 413.1,328.3 414.2,303.5 415.3,311.0 416.4,337.3 417.5,334.9 418.6,336.4 419.6,335.9 420.7,307.8 421.8,307.8 422.9,319.6 424.0,321.5 425.1,325.0 426.2,333.2 427.3,311.9 428.4,306.7 429.4,309.5 430.5,333.2 431.6,306.5 432.7,331.9 433.8,335.5 434.9,328.2 436.0,332.2 437.1,306.7 438.1,309.5 439.2,335.3 440.3,335.5 441.4,336.5 442.5,342.3 443.6,337.6 444.7,337.5 445.8,336.5 446.8,337.7 447.9,337.2 449.0,335.3 450.1,335.9 451.2,336.4 452.3,336.3 453.4,336.4 454.4,336.1 455.5,333.3 456.6,335.9 457.7,336.5 458.8,330.6 459.9,332.2 461.0,327.2 462.1,326.7 463.1,309.5 464.2,335.0 465.3,309.7 466.4,311.6 467.5,331.9 468.6,321.0 469.7,309.6 470.8,336.0 471.9,320.1 472.9,337.3 474.0,336.5 475.1,298.8 476.2,306.6 477.3,326.7 478.4,327.1 479.5,320.3 480.6,311.6 481.6,336.4 482.7,322.7 483.8,335.6 484.9,333.0 486.0,331.2 487.1,310.9 488.2,309.7 489.2,300.0 490.3,303.9 491.4,306.8 492.5,310.3 493.6,333.2 494.7,335.5 495.8,331.0 496.9,336.1 497.9,335.3 499.0,336.5 500.1,335.5 501.2,335.5 502.3,326.7 503.4,336.4 504.5,336.0 505.6,336.1 506.6,336.2 507.7,336.2 508.8,336.1 509.9,336.0 511.0,335.5 512.1,328.3 513.2,328.1 514.3,306.7 515.4,344.5 516.4,336.8 517.5,345.5 518.6,336.5 519.7,330.5 520.8,302.3 521.9,335.7 523.0,335.6 524.0,317.0 525.1,336.5 526.2,335.6 527.3,336.1 528.4,335.0 529.5,331.9 530.6,331.9 531.7,335.3 532.8,336.5 533.8,336.4 534.9,334.6 536.0,335.8 537.1,311.8 538.2,333.5 539.3,311.4 540.4,334.2 541.5,306.7 542.5,311.1 543.6,311.9 544.7,331.5 545.8,335.3 546.9,333.9 548.0,336.8 549.1,319.7 550.1,336.1 551.2,337.7 552.3,332.8 553.4,327.2 554.5,336.1 555.6,332.7 556.7,333.2 557.8,336.2 558.9,335.9 559.9,335.3 561.0,332.2 562.1,336.4 563.2,336.3 564.3,333.2 565.4,334.7 566.5,312.0 567.5,331.9 568.6,309.5 569.7,309.7 570.8,306.7 571.9,331.9 573.0,328.3 574.1,331.8 575.2,336.3 576.2,332.9 577.3,336.5 578.4,336.1 579.5,335.5 580.6,336.4 581.7,336.1 582.8,336.4 583.9,335.3 585.0,336.5 586.0,334.7 587.1,336.1 588.2,336.4 589.3,334.2 590.4,284.8 591.5,335.3 592.6,336.5 593.6,320.7 594.7,332.6 595.8,331.2 596.9,333.3 598.0,335.5 599.1,336.1 600.2,336.4 601.3,336.2 602.4,336.0 603.4,336.2 604.5,336.5 605.6,336.4 606.7,336.5 607.8,336.4 608.9,336.1 610.0,336.4 611.0,336.5 612.1,336.1 613.2,335.5 614.3,337.2 615.4,335.5 616.5,335.8 617.6,306.6 618.7,321.0 619.8,310.6 620.8,302.0 621.9,311.7 623.0,332.0 624.1,311.9 625.2,331.9 626.3,334.5 627.4,336.2 628.5,335.3 629.5,335.5 630.6,332.4 631.7,336.1 632.8,336.4 633.9,336.4 635.0,306.7 636.1,335.9 637.1,332.4 638.2,336.5 639.3,335.3 640.4,336.5 641.5,335.3 642.6,336.4 643.7,311.9 644.8,335.8 645.9,307.7 646.9,309.7 648.0,335.3 649.1,332.4 650.2,335.5 651.3,331.2 652.4,335.8 653.5,306.6 654.5,332.2 655.6,330.3 656.7,335.3 657.8,297.0 658.9,336.1 660.0,311.9 661.1,311.9 662.2,335.3 663.2,319.7 664.3,319.8 665.4,335.6 666.5,336.4 667.6,335.5 668.7,335.5 669.8,331.9 670.9,309.5 672.0,309.5 673.0,311.5 674.1,335.3 675.2,311.9 676.3,311.7 677.4,328.7 678.5,333.5 679.6,336.4 680.6,336.0 681.7,335.4 682.8,336.1 683.9,336.0 685.0,332.2 686.1,335.0 687.2,333.0 688.3,336.0 689.4,335.5 690.4,335.3 691.5,332.2 692.6,336.2 693.7,336.4 694.8,333.5 695.9,308.3 697.0,327.6 698.0,306.7 699.1,307.7 700.2,310.3 701.3,307.7 702.4,336.1 703.5,328.4 704.6,335.3 705.7,334.6 706.8,335.6 707.8,336.5 708.9,336.1 710.0,335.4 711.1,335.3 712.2,336.1 713.3,332.2 714.4,333.2 715.5,336.4 716.5,335.5 717.6,336.0 718.7,336.4 719.8,328.9 720.9,336.5 722.0,335.1 723.1,321.1 724.1,304.2 725.2,311.5 726.3,328.9 727.4,328.3 728.5,325.0 729.6,299.9 730.7,312.0 731.8,332.6 732.9,332.2 733.9,336.1 735.0,326.0 736.1,325.2 737.2,331.8 738.3,335.3 739.4,332.2 740.5,336.1 741.5,325.3 742.6,334.6 743.7,335.5 744.8,327.1 745.9,310.4 747.0,316.9 748.1,335.3 749.2,309.8 750.2,307.8 751.3,309.5 752.4,311.5 753.5,313.8 754.6,332.4 755.7,333.4 756.8,319.3 757.9,336.1 759.0,336.4 760.0,336.5 761.1,336.5 762.2,336.1 763.3,335.3 764.4,336.3 765.5,331.8 766.6,335.8 767.6,336.0 768.7,335.7 769.8,335.3 770.9,336.5 772.0,332.2 773.1,335.3 774.2,316.9 775.3,332.2 776.4,306.7 777.4,325.8 778.5,307.8 779.6,333.3 780.7,310.3 781.8,335.3 782.9,335.3 784.0,332.7 785.0,312.0 786.1,335.3 787.2,331.5 788.3,328.6 789.4,325.2 790.5,331.5 791.6,306.3 792.7,313.8 793.8,335.3 794.8,333.5 795.9,331.1 797.0,335.3 798.1,324.2 799.2,309.6 800.3,311.7 801.4,306.5 802.5,306.7 803.5,309.5 804.6,312.0 805.7,311.5 806.8,321.0 807.9,327.1 809.0,332.3 810.1,332.4 811.1,306.7 812.2,306.5 813.3,335.3 814.4,332.4 815.5,306.7 816.6,336.2 817.7,309.6 818.8,335.5 819.9,336.1 820.9,334.3 822.0,334.4 823.1,309.5 824.2,336.5 825.3,331.8 826.4,311.7 827.5,331.5 828.5,328.2 829.6,307.2 830.7,307.7 831.8,325.2 832.9,298.0 834.0,335.6 835.1,336.5 836.2,336.5 837.2,333.0 838.3,336.1 839.4,336.5 840.5,305.6 841.6,309.5 842.7,336.5 843.8,333.2 844.9,335.9 846.0,332.7 847.0,336.2 848.1,333.2 849.2,322.9 850.3,336.4 851.4,333.4 852.5,311.8 853.6,309.6 854.6,306.7 855.7,307.2 856.8,307.0 857.9,326.0 859.0,332.2 860.1,335.9 861.2,333.1 862.3,336.5 863.4,336.5 864.4,336.4 865.5,323.8 866.6,336.3 867.7,332.5 868.8,336.5 869.9,345.5 871.0,345.5 872.0,345.5 873.1,336.1 874.2,336.5 875.3,336.5 876.4,335.8 877.5,312.9 878.6,310.3 879.7,309.5 880.8,309.4 881.8,331.8 882.9,309.9 884.0,338.9 885.1,336.5 886.2,336.5 887.3,336.5 888.4,333.2 889.5,333.5 890.5,335.5 891.6,331.9 892.7,336.0 893.8,336.4 894.9,336.4 896.0,313.8 897.1,335.3 898.1,333.5 899.2,335.3 900.3,333.2 901.4,332.4 902.5,312.0 903.6,309.9 904.7,315.4 905.8,328.5 906.9,306.1 907.9,342.3 909.0,343.1 910.1,336.5 911.2,336.0 912.3,336.1 913.4,326.0 914.5,319.2 915.5,347.5 916.6,336.1 917.7,336.4 918.8,319.3 919.9,345.5 921.0,335.5 922.1,323.1 923.2,334.2 924.2,326.9 925.3,335.3 926.4,315.1 927.5,336.0 928.6,330.0 929.7,332.7 930.8,306.7 931.9,332.4 933.0,311.3 934.0,332.8 935.1,331.7 936.2,292.1 937.3,336.5 938.4,349.4 939.5,351.6 940.6,351.0 941.6,347.6 942.7,351.0 943.8,342.5 944.9,347.9 946.0,348.8" fill="none" stroke="#059669" stroke-width="2.2" stroke-linejoin="round" stroke-linecap="round"/>
<polyline points="76.0,209.6 77.1,217.4 78.2,224.1 79.3,229.2 80.3,237.2 81.4,229.1 82.5,224.0 83.6,217.7 84.7,224.2 85.8,224.1 86.9,200.5 88.0,224.2 89.0,225.4 90.1,224.1 91.2,227.0 92.3,228.4 93.4,212.2 94.5,217.4 95.6,236.9 96.7,217.3 97.8,216.5 98.8,200.5 99.9,221.1 101.0,223.9 102.1,224.2 103.2,221.2 104.3,224.0 105.4,213.9 106.5,217.4 107.5,200.7 108.6,200.5 109.7,160.9 110.8,170.6 111.9,170.6 113.0,210.3 114.1,216.6 115.2,210.3 116.2,208.9 117.3,234.1 118.4,241.9 119.5,231.0 120.6,224.0 121.7,224.6 122.8,224.2 123.8,228.4 124.9,221.1 126.0,214.4 127.1,222.3 128.2,214.9 129.3,237.2 130.4,234.7 131.5,229.6 132.6,230.3 133.6,231.0 134.7,224.2 135.8,224.2 136.9,225.2 138.0,228.6 139.1,232.2 140.2,224.2 141.2,237.2 142.3,241.3 143.4,234.4 144.5,245.5 145.6,240.3 146.7,241.3 147.8,239.8 148.9,237.2 149.9,252.7 151.0,207.0 152.1,237.5 153.2,238.5 154.3,235.5 155.4,249.6 156.5,243.5 157.6,247.2 158.7,242.0 159.7,233.1 160.8,234.1 161.9,229.1 163.0,224.3 164.1,230.5 165.2,234.2 166.3,247.1 167.3,239.5 168.4,241.9 169.5,232.2 170.6,231.0 171.7,231.2 172.8,217.4 173.9,239.9 175.0,224.2 176.1,232.7 177.1,232.2 178.2,243.8 179.3,249.9 180.4,224.2 181.5,228.7 182.6,243.3 183.7,238.0 184.8,230.6 185.8,235.7 186.9,237.3 188.0,234.1 189.1,224.2 190.2,224.2 191.3,231.0 192.4,234.1 193.4,242.7 194.5,238.5 195.6,247.2 196.7,231.2 197.8,231.3 198.9,238.0 200.0,237.3 201.1,237.5 202.2,242.2 203.2,241.3 204.3,241.3 205.4,234.1 206.5,200.9 207.6,224.1 208.7,224.2 209.8,217.4 210.8,230.4 211.9,234.1 213.0,232.3 214.1,234.1 215.2,231.6 216.3,237.2 217.4,237.2 218.5,234.1 219.6,231.0 220.6,239.6 221.7,239.7 222.8,238.5 223.9,228.8 225.0,227.7 226.1,237.8 227.2,227.4 228.2,233.1 229.3,232.2 230.4,207.7 231.5,224.2 232.6,224.1 233.7,224.1 234.8,225.8 235.9,224.2 236.9,237.2 238.0,237.2 239.1,232.7 240.2,231.0 241.3,236.4 242.4,237.2 243.5,237.6 244.6,252.5 245.7,234.1 246.7,234.1 247.8,242.0 248.9,241.9 250.0,234.1 251.1,233.0 252.2,226.4 253.3,224.2 254.3,242.0 255.4,224.2 256.5,200.4 257.6,232.4 258.7,234.1 259.8,224.2 260.9,229.5 262.0,234.1 263.1,237.2 264.1,234.1 265.2,233.5 266.3,234.6 267.4,224.2 268.5,239.2 269.6,234.7 270.7,224.2 271.8,233.4 272.8,239.5 273.9,241.4 275.0,248.9 276.1,224.9 277.2,224.1 278.3,225.3 279.4,235.6 280.4,247.9 281.5,228.6 282.6,224.0 283.7,224.2 284.8,226.0 285.9,223.4 287.0,230.3 288.1,224.2 289.1,229.0 290.2,212.7 291.3,224.0 292.4,160.9 293.5,171.6 294.6,200.7 295.7,211.1 296.8,202.2 297.9,224.2 298.9,233.2 300.0,228.7 301.1,227.5 302.2,217.6 303.3,217.4 304.4,224.2 305.5,200.7 306.6,227.8 307.6,200.5 308.7,200.5 309.8,224.2 310.9,211.1 312.0,217.8 313.1,225.2 314.2,224.2 315.2,225.3 316.3,224.9 317.4,227.4 318.5,224.2 319.6,234.1 320.7,209.6 321.8,222.4 322.9,234.1 323.9,233.0 325.0,224.1 326.1,229.1 327.2,231.0 328.3,224.1 329.4,203.3 330.5,221.2 331.6,224.0 332.6,258.5 333.7,220.5 334.8,215.1 335.9,240.9 337.0,216.0 338.1,229.1 339.2,234.3 340.3,242.0 341.4,241.6 342.4,234.1 343.5,234.1 344.6,228.2 345.7,224.2 346.8,241.3 347.9,232.4 349.0,231.7 350.1,219.1 351.1,211.5 352.2,228.8 353.3,182.8 354.4,231.9 355.5,215.5 356.6,222.9 357.7,224.2 358.8,228.4 359.8,215.5 360.9,241.6 362.0,215.8 363.1,222.3 364.2,200.4 365.3,197.8 366.4,196.0 367.4,217.4 368.5,211.3 369.6,224.2 370.7,170.7 371.8,221.2 372.9,205.8 374.0,206.4 375.1,200.5 376.1,222.5 377.2,228.8 378.3,224.2 379.4,169.3 380.5,224.0 381.6,232.4 382.7,224.0 383.8,224.2 384.9,176.8 385.9,201.0 387.0,227.0 388.1,232.4 389.2,224.2 390.3,210.5 391.4,234.1 392.5,233.5 393.6,225.2 394.6,224.2 395.7,221.2 396.8,231.0 397.9,224.1 399.0,252.7 400.1,232.0 401.2,232.2 402.2,231.0 403.3,233.9 404.4,234.0 405.5,225.3 406.6,224.0 407.7,224.1 408.8,224.1 409.9,224.1 410.9,215.6 412.0,224.1 413.1,215.5 414.2,214.1 415.3,224.1 416.4,234.0 417.5,215.6 418.6,224.1 419.6,219.8 420.7,210.3 421.8,201.0 422.9,215.9 424.0,224.1 425.1,215.9 426.2,233.4 427.3,224.1 428.4,206.4 429.4,207.8 430.5,224.1 431.6,224.2 432.7,224.1 433.8,234.1 434.9,224.2 436.0,235.6 437.1,224.0 438.1,223.8 439.2,224.2 440.3,224.7 441.4,232.0 442.5,249.0 443.6,234.1 444.7,236.5 445.8,240.3 446.8,234.1 447.9,230.5 449.0,216.3 450.1,232.6 451.2,234.0 452.3,234.1 453.4,234.0 454.4,229.1 455.5,226.1 456.6,232.0 457.7,241.5 458.8,221.2 459.9,224.1 461.0,224.1 462.1,229.3 463.1,227.1 464.2,227.4 465.3,210.8 466.4,214.0 467.5,221.2 468.6,227.3 469.7,214.7 470.8,224.1 471.9,216.4 472.9,225.0 474.0,234.1 475.1,170.6 476.2,200.5 477.3,224.1 478.4,201.1 479.5,213.1 480.6,215.4 481.6,233.9 482.7,222.4 483.8,229.1 484.9,224.1 486.0,216.5 487.1,213.2 488.2,200.6 489.2,193.0 490.3,195.4 491.4,209.6 492.5,200.7 493.6,215.9 494.7,228.8 495.8,214.1 496.9,234.1 497.9,223.9 499.0,223.4 500.1,224.2 501.2,219.7 502.3,224.0 503.4,241.3 504.5,227.1 505.6,232.3 506.6,234.1 507.7,227.5 508.8,234.1 509.9,237.2 511.0,241.3 512.1,224.3 513.2,225.0 514.3,224.2 515.4,234.1 516.4,228.6 517.5,224.2 518.6,232.5 519.7,227.4 520.8,92.4 521.9,215.9 523.0,224.1 524.0,214.6 525.1,232.4 526.2,231.0 527.3,224.2 528.4,224.2 529.5,224.1 530.6,221.1 531.7,224.0 532.8,234.1 533.8,239.3 534.9,234.1 536.0,232.6 537.1,214.6 538.2,224.2 539.3,224.1 540.4,238.9 541.5,233.2 542.5,217.9 543.6,213.3 544.7,231.0 545.8,227.6 546.9,231.4 548.0,234.3 549.1,201.0 550.1,234.1 551.2,234.1 552.3,217.4 553.4,221.2 554.5,228.9 555.6,221.1 556.7,220.6 557.8,227.7 558.9,232.8 559.9,233.9 561.0,224.1 562.1,238.6 563.2,241.2 564.3,225.8 565.4,237.5 566.5,224.1 567.5,228.7 568.6,212.7 569.7,215.6 570.8,215.6 571.9,224.1 573.0,224.1 574.1,217.8 575.2,235.1 576.2,224.9 577.3,232.3 578.4,224.2 579.5,224.2 580.6,237.5 581.7,217.7 582.8,234.4 583.9,225.3 585.0,237.5 586.0,224.1 587.1,232.6 588.2,232.3 589.3,224.0 590.4,169.3 591.5,224.1 592.6,225.3 593.6,225.4 594.7,227.5 595.8,224.2 596.9,224.1 598.0,240.6 599.1,224.2 600.2,231.0 601.3,224.2 602.4,229.2 603.4,227.5 604.5,239.5 605.6,232.9 606.7,237.5 607.8,237.2 608.9,233.1 610.0,237.2 611.0,234.5 612.1,241.3 613.2,224.2 614.3,242.0 615.4,213.5 616.5,225.9 617.6,206.4 618.7,214.5 619.8,224.2 620.8,202.6 621.9,224.1 623.0,223.9 624.1,224.2 625.2,232.3 626.3,224.2 627.4,237.2 628.5,224.1 629.5,227.8 630.6,223.2 631.7,224.2 632.8,235.5 633.9,236.7 635.0,201.0 636.1,231.3 637.1,231.0 638.2,236.2 639.3,231.0 640.4,232.9 641.5,217.4 642.6,233.5 643.7,213.5 644.8,231.0 645.9,223.7 646.9,220.4 648.0,225.8 649.1,224.2 650.2,224.2 651.3,220.5 652.4,230.1 653.5,196.6 654.5,220.9 655.6,212.7 656.7,232.4 657.8,170.6 658.9,231.0 660.0,200.5 661.1,220.7 662.2,217.4 663.2,210.7 664.3,216.5 665.4,240.4 666.5,232.4 667.6,224.0 668.7,228.7 669.8,224.1 670.9,210.7 672.0,224.1 673.0,207.8 674.1,224.1 675.2,200.7 676.3,200.5 677.4,202.5 678.5,224.2 679.6,235.8 680.6,224.2 681.7,217.4 682.8,231.5 683.9,232.4 685.0,220.6 686.1,224.1 687.2,215.6 688.3,232.1 689.4,231.0 690.4,232.3 691.5,237.2 692.6,241.3 693.7,230.3 694.8,228.8 695.9,219.5 697.0,228.5 698.0,228.7 699.1,204.7 700.2,221.2 701.3,216.3 702.4,227.5 703.5,225.2 704.6,225.9 705.7,232.9 706.8,232.4 707.8,224.2 708.9,230.1 710.0,237.2 711.1,224.5 712.2,238.0 713.3,225.8 714.4,232.2 715.5,237.2 716.5,237.2 717.6,234.2 718.7,238.5 719.8,212.8 720.9,228.8 722.0,234.1 723.1,223.6 724.1,224.0 725.2,223.0 726.3,223.1 727.4,215.9 728.5,224.2 729.6,173.0 730.7,211.0 731.8,224.1 732.9,214.7 733.9,218.7 735.0,232.4 736.1,216.5 737.2,215.7 738.3,233.0 739.4,222.8 740.5,228.6 741.5,224.1 742.6,224.1 743.7,231.0 744.8,221.1 745.9,212.2 747.0,208.9 748.1,233.4 749.2,223.9 750.2,225.2 751.3,219.7 752.4,224.0 753.5,212.6 754.6,229.6 755.7,224.4 756.8,224.1 757.9,234.1 759.0,230.7 760.0,224.1 761.1,237.2 762.2,224.5 763.3,224.2 764.4,237.7 765.5,215.6 766.6,231.0 767.6,228.4 768.7,234.9 769.8,224.5 770.9,226.1 772.0,223.0 773.1,224.2 774.2,225.3 775.3,224.2 776.4,219.2 777.4,209.3 778.5,195.6 779.6,225.4 780.7,212.8 781.8,230.1 782.9,224.0 784.0,224.1 785.0,200.5 786.1,209.0 787.2,224.2 788.3,218.5 789.4,221.2 790.5,224.2 791.6,189.6 792.7,216.2 793.8,224.1 794.8,231.0 795.9,225.2 797.0,234.1 798.1,219.9 799.2,217.4 800.3,234.1 801.4,199.2 802.5,224.1 803.5,224.4 804.6,217.4 805.7,224.1 806.8,224.2 807.9,224.2 809.0,222.0 810.1,216.5 811.1,200.8 812.2,183.8 813.3,224.2 814.4,224.5 815.5,201.1 816.6,227.9 817.7,227.3 818.8,242.0 819.9,240.8 820.9,238.2 822.0,237.5 823.1,192.6 824.2,245.6 825.3,209.3 826.4,234.1 827.5,241.9 828.5,241.1 829.6,224.3 830.7,174.6 831.8,224.1 832.9,195.4 834.0,229.9 835.1,237.1 836.2,241.9 837.2,221.2 838.3,229.0 839.4,257.0 840.5,170.6 841.6,201.0 842.7,257.2 843.8,224.2 844.9,227.0 846.0,224.1 847.0,237.5 848.1,224.1 849.2,231.0 850.3,217.4 851.4,181.7 852.5,224.2 853.6,205.2 854.6,210.8 855.7,209.3 856.8,200.6 857.9,224.6 859.0,228.3 860.1,244.1 861.2,213.9 862.3,241.5 863.4,225.4 864.4,232.8 865.5,231.0 866.6,241.9 867.7,230.2 868.8,238.5 869.9,248.7 871.0,246.2 872.0,252.9 873.1,237.2 874.2,239.5 875.3,241.8 876.4,200.2 877.5,195.5 878.6,225.3 879.7,218.8 880.8,224.3 881.8,217.4 882.9,217.4 884.0,234.0 885.1,237.2 886.2,238.0 887.3,246.7 888.4,239.1 889.5,238.0 890.5,231.6 891.6,207.8 892.7,237.2 893.8,234.1 894.9,241.8 896.0,213.8 897.1,224.2 898.1,237.2 899.2,228.5 900.3,225.4 901.4,231.0 902.5,215.6 903.6,223.0 904.7,217.6 905.8,224.1 906.9,230.8 907.9,225.7 909.0,228.6 910.1,258.6 911.2,231.0 912.3,237.6 913.4,236.7 914.5,224.2 915.5,232.7 916.6,224.2 917.7,224.1 918.8,212.4 919.9,243.0 921.0,226.4 922.1,200.9 923.2,221.2 924.2,224.1 925.3,224.2 926.4,215.5 927.5,234.4 928.6,224.1 929.7,239.5 930.8,224.1 931.9,242.0 933.0,241.3 934.0,224.2 935.1,225.8 936.2,199.1 937.3,238.2 938.4,300.4 939.5,333.7 940.6,335.1 941.6,332.4 942.7,333.0 943.8,257.7 944.9,329.0 946.0,326.6" fill="none" stroke="#d97706" stroke-width="2.2" stroke-linejoin="round" stroke-linecap="round"/>
<line x1="76" y1="70" x2="94" y2="70" stroke="#2563eb" stroke-width="3"/>
<text x="100" y="74" font-family="Arial, sans-serif" font-size="11" fill="#0f172a">avg fee</text>
<line x1="179" y1="70" x2="197" y2="70" stroke="#059669" stroke-width="3"/>
<text x="203" y="74" font-family="Arial, sans-serif" font-size="11" fill="#0f172a">median fee</text>
<line x1="303" y1="70" x2="321" y2="70" stroke="#d97706" stroke-width="3"/>
<text x="327" y="74" font-family="Arial, sans-serif" font-size="11" fill="#0f172a">p90 fee</text>
<text x="28" y="404" font-family="Arial, sans-serif" font-size="11" fill="#64748b">Source: hourly_features.csv</text>
</svg>