<svg xmlns="http://www.w3.org/2000/svg" width="980" height="420" viewBox="0 0 980 420">
<rect width="100%" height="100%" fill="#ffffff"/>
<text x="28" y="34" font-family="Arial, sans-serif" font-size="20" font-weight="700" fill="#0f172a">Hourly fee trend</text>
<text x="28" y="56" font-family="Arial, sans-serif" font-size="12" fill="#64748b">Average, median, and p90 total fee by hour</text>
<line x1="76" y1="362.0" x2="946" y2="362.0" stroke="#e2e8f0" stroke-width="1"/>
<text x="68" y="366.0" font-family="Arial, sans-serif" font-size="10" text-anchor="end" fill="#64748b">-124K</text>
<line x1="76" y1="292.0" x2="946" y2="292.0" stroke="#e2e8f0" stroke-width="1"/>
<text x="68" y="296.0" font-family="Arial, sans-serif" font-size="10" text-anchor="end" fill="#64748b">2.8M</text>
<line x1="76" y1="222.0" x2="946" y2="222.0" stroke="#e2e8f0" stroke-width="1"/>
<text x="68" y="226.0" font-family="Arial, sans-serif" font-size="10" text-anchor="end" fill="#64748b">5.8M</text>
<line x1="76" y1="152.0" x2="946" y2="152.0" stroke="#e2e8f0" stroke-width="1"/>
<text x="68" y="156.0" font-family="Arial, sans-serif" font-size="10" text-anchor="end" fill="#64748b">8.7M</text>
<line x1="76" y1="82.0" x2="946" y2="82.0" stroke="#e2e8f0" stroke-width="1"/>
<text x="68" y="86.0" font-family="Arial, sans-serif" font-size="10" text-anchor="end" fill="#64748b">11.7M</text>
<line x1="76" y1="362" x2="946" y2="362" stroke="#334155" stroke-width="1"/>
<line x1="76" y1="82" x2="76" y2="362" stroke="#334155" stroke-width="1"/>
<text x="76" y="72" font-family="Arial, sans-serif" font-size="11" fill="#64748b">nanoton</text>
<line x1="76.0" y1="362" x2="76.0" y2="366" stroke="#334155" stroke-width="1"/>
<text x="76.0" y="380" font-family="Arial, sans-serif" font-size="10" text-anchor="middle" fill="#64748b">0</text>
<line x1="511.6" y1="362" x2="511.6" y2="366" stroke="#334155" stroke-width="1"/>
<text x="511.6" y="380" font-family="Arial, sans-serif" font-size="10" text-anchor="middle" fill="#64748b">363</text>
<line x1="946.0" y1="362" x2="946.0" y2="366" stroke="#334155" stroke-width="1"/>
<text x="946.0" y="380" font-family="Arial, sans-serif" font-size="10" text-anchor="middle" fill="#64748b">725</text>
<polyline points="76.0,295.3 77.2,299.2 78.4,300.6 79.6,302.7 80.8,309.6 82.0,301.8 83.2,302.9 84.4,299.2 85.6,303.6 86.8,303.4 88.0,292.2 89.2,304.2 90.4,304.4 91.6,302.0 92.8,305.0 94.0,305.2 95.2,297.0 96.4,297.1 97.6,306.0 98.8,295.6 100.0,293.7 101.2,291.7 102.4,298.4 103.6,298.8 104.8,300.7 106.0,296.6 107.2,302.3 108.4,295.0 109.6,297.8 110.8,292.8 112.0,293.4 113.2,277.2 114.4,289.0 115.6,289.7 116.8,299.2 118.0,304.6 119.2,297.4 120.4,299.5 121.6,309.5 122.8,312.3 124.0,306.9 125.2,301.6 126.4,303.3 127.6,302.6 128.8,309.2 130.0,302.0 131.2,299.0 132.4,301.1 133.6,303.3 134.8,307.8 136.0,307.9 137.2,306.7 138.4,305.0 139.6,308.1 140.8,307.0 142.0,304.1 143.2,303.8 144.4,307.6 145.6,303.8 146.8,306.1 148.0,311.7 149.2,313.5 150.4,311.2 151.6,312.0 152.8,314.0 154.0,310.7 155.2,310.3 156.4,306.8 157.6,313.3 158.8,295.2 160.0,311.2 161.2,311.2 162.4,311.1 163.6,316.2 164.8,312.0 166.0,315.2 167.2,314.0 168.4,310.3 169.6,310.3 170.8,308.0 172.0,308.2 173.2,306.1 174.4,309.9 175.6,312.3 176.8,311.8 178.0,313.0 179.2,309.8 180.4,307.7 181.6,307.5 182.8,303.2 184.0,309.7 185.2,301.7 186.4,304.0 187.6,305.0 188.8,308.7 190.0,316.5 191.2,304.8 192.4,305.2 193.6,313.8 194.8,312.4 196.0,305.0 197.2,309.0 198.4,309.9 199.6,307.4 200.8,305.2 202.0,302.1 203.2,303.4 204.4,306.7 205.6,312.9 206.8,312.3 208.0,312.3 209.2,307.9 210.4,306.6 211.6,308.9 212.8,308.7 214.0,308.8 215.2,313.2 216.4,313.8 217.6,312.2 218.8,305.8 220.0,291.3 221.2,306.3 222.4,303.4 223.6,300.7 224.8,304.3 226.0,310.3 227.2,306.2 228.4,309.8 229.6,306.9 230.8,309.7 232.0,311.6 233.2,309.7 234.4,305.5 235.6,309.6 236.8,312.8 238.0,307.2 239.2,306.5 240.4,307.9 241.6,308.1 242.8,303.6 244.0,303.1 245.2,302.6 246.4,293.9 247.6,301.5 248.8,301.0 250.0,300.1 251.2,304.3 252.4,303.7 253.6,309.4 254.8,308.8 256.0,308.6 257.2,303.9 258.4,305.9 259.6,310.5 260.8,309.3 262.0,317.0 263.2,310.5 264.4,309.1 265.6,311.9 266.8,311.8 268.0,306.7 269.2,308.6 270.4,305.5 271.6,306.4 272.8,304.9 274.0,303.4 275.2,295.1 276.4,300.7 277.6,305.3 278.8,301.2 280.0,307.5 281.2,307.3 282.4,307.8 283.6,307.4 284.8,307.5 286.0,308.5 287.2,304.8 288.4,310.4 289.6,307.7 290.8,303.9 292.0,307.6 293.2,311.5 294.4,311.0 295.6,311.5 296.8,303.1 298.0,306.3 299.2,302.5 300.4,308.6 301.6,304.9 302.8,304.2 304.0,300.2 305.2,302.8 306.4,303.0 307.6,298.3 308.8,304.6 310.0,302.6 311.2,303.3 312.4,298.7 313.6,302.5 314.8,282.2 316.0,288.6 317.2,299.8 318.4,300.3 319.6,298.9 320.8,305.5 322.0,309.1 323.2,307.2 324.4,306.9 325.6,302.6 326.8,299.9 328.0,301.2 329.2,295.9 330.4,296.5 331.6,295.1 332.8,294.5 334.0,304.4 335.2,296.5 336.4,301.4 337.6,304.5 338.8,308.5 340.0,307.2 341.2,306.8 342.4,307.0 343.6,305.6 344.8,308.3 346.0,300.5 347.2,302.4 348.4,309.2 349.6,309.0 350.8,304.2 352.0,308.7 353.2,308.2 354.4,303.7 355.6,293.2 356.8,298.3 358.0,298.7 359.2,308.4 360.4,300.2 361.6,301.6 362.8,310.4 364.0,299.4 365.2,305.2 366.4,309.9 367.6,313.4 368.8,310.3 370.0,308.8 371.2,305.4 372.4,308.6 373.6,303.9 374.8,307.8 376.0,309.8 377.2,307.8 378.4,304.0 379.6,299.0 380.8,304.6 382.0,290.6 383.2,306.9 384.4,298.4 385.6,302.6 386.8,304.1 388.0,302.1 389.2,299.0 390.4,315.3 391.6,296.1 392.8,300.2 394.0,285.9 395.2,299.2 396.4,297.8 397.6,299.6 398.8,295.5 400.0,305.7 401.2,284.1 402.4,301.9 403.6,296.4 404.8,296.0 406.0,287.6 407.2,303.0 408.4,305.1 409.6,303.3 410.8,292.8 412.0,303.7 413.2,309.2 414.4,302.4 415.6,300.1 416.8,284.0 418.0,288.5 419.2,305.2 420.4,304.6 421.6,302.7 422.8,297.9 424.0,307.9 425.2,307.8 426.4,303.3 427.6,301.4 428.8,302.0 430.0,306.1 431.2,302.8 432.4,316.4 433.6,304.1 434.8,308.2 436.0,305.9 437.2,307.7 438.4,309.0 439.6,302.5 440.8,299.0 442.0,303.9 443.2,299.7 444.4,306.5 445.6,297.1 446.8,302.2 448.0,298.5 449.2,294.5 450.4,299.7 451.6,309.4 452.8,295.6 454.0,305.0 455.2,300.5 456.4,297.6 457.6,296.1 458.8,301.5 460.0,301.7 461.2,302.5 462.4,304.2 463.6,297.4 464.8,290.6 466.0,294.6 467.2,304.7 468.4,299.0 469.6,305.6 470.8,307.7 472.0,303.8 473.2,307.3 474.4,299.7 475.6,301.7 476.8,307.5 478.0,306.4 479.2,307.7 480.4,313.5 481.6,311.6 482.8,310.9 484.0,311.3 485.2,309.1 486.4,309.3 487.6,303.0 488.8,305.8 490.0,307.8 491.2,308.1 492.4,309.0 493.6,307.1 494.8,304.1 496.0,309.3 497.2,312.0 498.4,301.9 499.6,303.6 500.8,302.7 502.0,304.4 503.2,302.5 504.4,305.7 505.6,291.6 506.8,298.9 508.0,299.3 509.2,303.3 510.4,295.8 511.6,303.0 512.8,299.2 514.0,303.4 515.2,309.0 516.4,286.5 517.6,294.2 518.8,303.5 520.0,299.7 521.2,297.9 522.4,299.3 523.6,309.1 524.8,301.5 526.0,306.4 527.2,301.3 528.4,300.2 529.6,297.4 530.8,296.2 532.0,291.1 533.2,292.2 534.4,298.8 535.6,297.2 536.8,302.1 538.0,307.8 539.2,301.4 540.4,308.9 541.6,303.3 542.8,302.4 544.0,304.0 545.2,301.7 546.4,301.2 547.6,310.3 548.8,306.6 550.0,309.3 551.2,307.7 552.4,308.2 553.6,307.5 554.8,309.3 556.0,306.5 557.2,304.7 558.4,301.9 559.6,299.6 560.8,309.8 562.0,307.4 563.2,308.5 564.4,307.6 565.6,303.1 566.8,260.8 568.0,295.5 569.2,303.2 570.4,300.9 571.6,305.7 572.8,306.4 574.0,304.5 575.2,304.0 576.4,304.3 577.6,300.6 578.8,304.1 580.0,310.4 581.2,311.3 582.4,305.6 583.6,307.4 584.8,299.6 586.0,306.9 587.2,301.5 588.4,309.7 589.6,303.8 590.8,300.2 592.0,299.7 593.2,305.6 594.4,305.7 595.6,305.4 596.8,309.3 598.0,297.1 599.2,308.3 600.4,310.9 601.6,300.1 602.8,302.1 604.0,307.6 605.2,300.4 606.4,304.1 607.6,308.7 608.8,306.4 610.0,308.6 611.2,305.5 612.4,311.0 613.6,310.4 614.8,305.5 616.0,308.0 617.2,301.7 618.4,304.9 619.6,296.8 620.8,296.5 622.0,296.6 623.2,304.0 624.4,303.1 625.6,303.5 626.8,306.3 628.0,304.3 629.2,310.1 630.4,304.9 631.6,305.3 632.8,309.5 634.0,303.9 635.2,309.2 636.4,304.3 637.6,311.2 638.8,303.8 640.0,309.3 641.2,308.1 642.4,302.7 643.6,267.6 644.8,307.7 646.0,309.4 647.2,306.0 648.4,305.5 649.6,302.9 650.8,304.6 652.0,307.5 653.2,303.3 654.4,308.8 655.6,307.5 656.8,307.8 658.0,305.8 659.2,313.2 660.4,309.3 661.6,313.9 662.8,309.3 664.0,308.5 665.2,309.7 666.4,308.4 667.6,310.1 668.8,304.2 670.0,310.0 671.2,301.7 672.4,306.9 673.6,292.5 674.8,299.2 676.0,304.4 677.2,291.8 678.4,303.7 679.6,303.1 680.8,301.4 682.0,305.9 683.2,304.2 684.4,307.4 685.6,303.9 686.8,307.7 688.0,302.6 689.2,306.4 690.4,310.1 691.6,309.3 692.8,294.8 694.0,307.9 695.2,304.3 696.4,307.1 697.6,307.9 698.8,309.5 700.0,300.9 701.2,306.4 702.4,297.4 703.6,302.9 704.8,299.4 706.0,298.1 707.2,304.1 708.4,302.1 709.6,305.2 710.8,300.2 712.0,306.2 713.2,287.0 714.4,302.0 715.6,295.7 716.8,305.5 718.0,285.6 719.2,308.4 720.4,296.6 721.6,301.1 722.8,305.6 724.0,298.5 725.2,299.9 726.4,310.0 727.6,309.5 728.8,305.0 730.0,306.7 731.2,302.2 732.4,299.5 733.6,301.2 734.8,297.2 736.0,303.4 737.2,295.6 738.4,294.4 739.6,297.3 740.8,307.4 742.0,308.2 743.2,306.3 744.4,302.2 745.6,307.8 746.8,307.3 748.0,304.0 749.2,304.6 750.4,300.3 751.6,305.4 752.8,307.2 754.0,307.0 755.2,305.4 756.4,310.2 757.6,309.9 758.8,305.7 760.0,298.8 761.2,305.7 762.4,303.6 763.6,294.9 764.8,300.5 766.0,298.7 767.2,306.1 768.4,302.8 769.6,303.9 770.8,307.3 772.0,305.6 773.2,303.9 774.4,307.4 775.6,308.4 776.8,304.2 778.0,309.2 779.2,302.8 780.4,307.4 781.6,309.7 782.8,308.1 784.0,308.6 785.2,310.6 786.4,299.2 787.6,311.5 788.8,308.5 790.0,299.7 791.2,298.7 792.4,298.2 793.6,300.5 794.8,300.5 796.0,302.8 797.2,289.1 798.4,299.5 799.6,303.2 800.8,300.9 802.0,298.8 803.2,305.3 804.4,298.9 805.6,300.5 806.8,308.6 808.0,300.4 809.2,307.3 810.4,302.3 811.6,304.7 812.8,305.5 814.0,303.0 815.2,299.4 816.4,300.4 817.6,307.8 818.8,300.2 820.0,300.6 821.2,299.7 822.4,299.9 823.6,299.6 824.8,304.6 826.0,303.6 827.2,300.5 828.4,308.1 829.6,307.7 830.8,302.9 832.0,310.4 833.2,305.6 834.4,305.1 835.6,310.0 836.8,300.4 838.0,306.6 839.2,308.0 840.4,309.4 841.6,303.8 842.8,305.7 844.0,302.6 845.2,303.4 846.4,301.9 847.6,305.5 848.8,300.6 850.0,297.6 851.2,288.5 852.4,303.5 853.6,298.4 854.8,303.6 856.0,303.5 857.2,302.6 858.4,295.5 859.6,296.8 860.8,302.9 862.0,302.1 863.2,302.2 864.4,303.2 865.6,292.6 866.8,301.1 868.0,302.0 869.2,306.5 870.4,305.7 871.6,310.2 872.8,300.4 874.0,299.7 875.2,304.5 876.4,294.0 877.6,301.4 878.8,299.7 880.0,299.7 881.2,299.4 882.4,302.1 883.6,304.2 884.8,300.4 886.0,301.6 887.2,296.3 888.4,289.4 889.6,304.4 890.8,305.8 892.0,304.0 893.2,307.5 894.4,298.7 895.6,309.1 896.8,300.8 898.0,300.1 899.2,304.8 900.4,293.7 901.6,306.4 902.8,303.1 904.0,300.1 905.2,303.2 906.4,302.8 907.6,294.9 908.8,297.5 910.0,295.4 911.2,282.0 912.4,302.1 913.6,305.7 914.8,304.8 916.0,291.3 917.2,303.3 918.4,306.9 919.6,287.6 920.8,294.4 922.0,312.0 923.2,297.8 924.4,303.5 925.6,306.5 926.8,303.7 928.0,303.4 929.2,302.5 930.4,301.0 931.6,294.2 932.8,292.5 934.0,293.4 935.2,299.5 936.4,290.4 937.6,295.5 938.8,298.5 940.0,302.2 941.2,300.5 942.4,285.3 943.6,307.8 944.8,307.8 946.0,302.6" fill="none" stroke="#2563eb" stroke-width="2.2" stroke-linejoin="round" stroke-linecap="round"/>
<polyline points="76.0,316.4 77.2,330.2 78.4,339.5 79.6,340.0 80.8,340.5 82.0,340.1 83.2,339.8 84.4,336.2 85.6,340.1 86.8,340.1 88.0,325.6 89.2,340.1 90.4,339.7 91.6,336.1 92.8,339.9 94.0,339.3 95.2,326.3 96.4,335.8 97.6,337.8 98.8,315.5 100.0,307.7 101.2,310.8 102.4,325.6 103.6,320.5 104.8,315.4 106.0,335.2 107.2,338.9 108.4,317.5 109.6,340.5 110.8,324.1 112.0,335.9 113.2,288.2 114.4,305.1 115.6,308.1 116.8,313.2 118.0,336.7 119.2,317.5 120.4,315.6 121.6,340.3 122.8,340.5 124.0,335.1 125.2,315.5 126.4,315.5 127.6,317.5 128.8,346.4 130.0,340.4 131.2,313.8 132.4,315.2 133.6,340.4 134.8,340.8 136.0,339.6 137.2,338.9 138.4,339.4 139.6,340.1 140.8,336.9 142.0,340.1 143.2,336.3 144.4,339.8 145.6,340.1 146.8,339.6 148.0,340.5 149.2,340.3 150.4,340.4 151.6,349.7 152.8,341.3 154.0,340.4 155.2,340.4 156.4,336.1 157.6,349.7 158.8,341.1 160.0,341.7 161.2,341.7 162.4,340.5 163.6,343.7 164.8,341.7 166.0,341.6 167.2,340.6 168.4,340.5 169.6,340.5 170.8,340.0 172.0,340.5 173.2,340.1 174.4,340.1 175.6,340.5 176.8,340.5 178.0,340.5 179.2,339.8 180.4,340.4 181.6,340.3 182.8,336.1 184.0,340.2 185.2,317.1 186.4,335.0 187.6,336.5 188.8,339.3 190.0,349.7 191.2,336.0 192.4,339.3 193.6,340.5 194.8,341.7 196.0,340.2 197.2,340.2 198.4,340.3 199.6,340.0 200.8,336.4 202.0,335.9 203.2,336.9 204.4,338.5 205.6,340.4 206.8,340.4 208.0,340.4 209.2,339.5 210.4,340.4 211.6,340.4 212.8,336.9 214.0,337.8 215.2,341.7 216.4,349.7 217.6,341.6 218.8,340.5 220.0,315.0 221.2,340.4 222.4,340.0 223.6,340.2 224.8,339.3 226.0,340.4 227.2,339.5 228.4,340.4 229.6,340.3 230.8,340.4 232.0,340.5 233.2,340.2 234.4,338.6 235.6,340.4 236.8,340.5 238.0,340.5 239.2,339.6 240.4,339.7 241.6,335.7 242.8,315.5 244.0,303.4 245.2,314.7 246.4,309.2 247.6,315.1 248.8,315.1 250.0,333.0 251.2,338.4 252.4,339.3 253.6,339.3 254.8,340.4 256.0,340.4 257.2,339.3 258.4,340.2 259.6,340.2 260.8,340.1 262.0,349.7 263.2,340.4 264.4,340.3 265.6,340.5 266.8,340.5 268.0,339.3 269.2,339.9 270.4,336.3 271.6,324.9 272.8,303.4 274.0,339.5 275.2,332.2 276.4,340.1 277.6,337.2 278.8,337.2 280.0,336.8 281.2,340.2 282.4,339.9 283.6,340.1 284.8,340.1 286.0,336.1 287.2,336.1 288.4,340.4 289.6,339.8 290.8,336.4 292.0,340.1 293.2,340.5 294.4,340.1 295.6,340.4 296.8,335.8 298.0,339.8 299.2,320.6 300.4,340.1 301.6,303.4 302.8,339.5 304.0,335.1 305.2,338.0 306.4,337.2 307.6,315.5 308.8,337.2 310.0,337.7 311.2,340.1 312.4,329.1 313.6,339.4 314.8,300.4 316.0,303.3 317.2,332.4 318.4,336.5 319.6,336.1 320.8,337.7 322.0,340.1 323.2,340.2 324.4,339.6 325.6,330.1 326.8,320.1 328.0,313.5 329.2,310.2 330.4,303.4 331.6,311.4 332.8,310.2 334.0,337.2 335.2,310.3 336.4,322.1 337.6,338.9 338.8,340.5 340.0,339.6 341.2,340.5 342.4,340.4 343.6,339.2 344.8,340.5 346.0,324.9 347.2,324.9 348.4,339.5 349.6,339.3 350.8,338.9 352.0,340.2 353.2,340.1 354.4,336.7 355.6,310.2 356.8,313.1 358.0,313.2 359.2,303.4 360.4,315.1 361.6,341.0 362.8,341.7 364.0,317.5 365.2,340.0 366.4,341.7 367.6,341.4 368.8,341.7 370.0,340.5 371.2,339.3 372.4,339.8 373.6,339.9 374.8,339.0 376.0,340.1 377.2,339.9 378.4,334.9 379.6,313.8 380.8,339.5 382.0,313.1 383.2,339.9 384.4,315.6 385.6,315.2 386.8,330.4 388.0,310.3 389.2,324.9 390.4,349.7 391.6,320.6 392.8,339.6 394.0,313.1 395.2,314.8 396.4,335.4 397.6,339.5 398.8,340.5 400.0,338.7 401.2,329.1 402.4,339.3 403.6,313.1 404.8,311.0 406.0,329.1 407.2,320.6 408.4,338.9 409.6,338.0 410.8,308.0 412.0,339.5 413.2,340.1 414.4,331.8 415.6,339.3 416.8,326.0 418.0,339.1 419.2,339.2 420.4,339.5 421.6,336.1 422.8,337.2 424.0,339.2 425.2,340.1 426.4,339.3 427.6,338.5 428.8,315.5 430.0,340.2 431.2,336.1 432.4,351.6 433.6,339.3 434.8,340.2 436.0,339.2 437.2,340.2 438.4,340.2 439.6,315.6 440.8,320.4 442.0,337.4 443.2,315.5 444.4,337.1 445.6,310.1 446.8,335.9 448.0,332.2 449.2,307.0 450.4,314.6 451.6,341.4 452.8,338.9 454.0,340.4 455.2,339.9 456.4,311.4 457.6,311.4 458.8,323.4 460.0,325.3 461.2,328.8 462.4,337.2 463.6,315.6 464.8,310.2 466.0,313.0 467.2,337.2 468.4,310.0 469.6,335.9 470.8,339.5 472.0,332.0 473.2,336.1 474.4,310.2 475.6,313.1 476.8,339.3 478.0,339.5 479.2,340.5 480.4,346.4 481.6,341.7 482.8,341.6 484.0,340.5 485.2,341.7 486.4,341.3 487.6,339.3 488.8,339.9 490.0,340.4 491.2,340.3 492.4,340.4 493.6,340.1 494.8,337.2 496.0,339.9 497.2,340.5 498.4,334.5 499.6,336.1 500.8,331.1 502.0,330.6 503.2,313.1 504.4,339.0 505.6,313.3 506.8,315.2 508.0,335.9 509.2,324.8 510.4,313.2 511.6,340.1 512.8,323.8 514.0,341.3 515.2,340.5 516.4,302.2 517.6,310.1 518.8,330.6 520.0,331.0 521.2,324.0 522.4,315.2 523.6,340.4 524.8,326.5 526.0,339.6 527.2,336.9 528.4,335.1 529.6,314.5 530.8,313.3 532.0,303.4 533.2,307.4 534.4,310.3 535.6,313.9 536.8,337.2 538.0,339.5 539.2,335.0 540.4,340.2 541.6,339.3 542.8,340.5 544.0,339.5 545.2,339.5 546.4,330.6 547.6,340.4 548.8,340.0 550.0,340.1 551.2,340.2 552.4,340.2 553.6,340.2 554.8,340.1 556.0,339.5 557.2,332.2 558.4,331.9 559.6,310.3 560.8,348.7 562.0,340.8 563.2,349.7 564.4,340.5 565.6,334.4 566.8,305.8 568.0,339.7 569.2,339.6 570.4,320.7 571.6,340.5 572.8,339.6 574.0,340.1 575.2,339.0 576.4,335.9 577.6,335.8 578.8,339.3 580.0,340.5 581.2,340.4 582.4,338.6 583.6,339.8 584.8,315.4 586.0,337.4 587.2,315.0 588.4,338.1 589.6,310.3 590.8,314.7 592.0,315.6 593.2,335.4 594.4,339.3 595.6,337.9 596.8,340.8 598.0,323.4 599.2,340.2 600.4,341.7 601.6,336.8 602.8,331.0 604.0,340.1 605.2,336.7 606.4,337.2 607.6,340.2 608.8,339.9 610.0,339.3 611.2,336.1 612.4,340.4 613.6,340.3 614.8,337.2 616.0,338.7 617.2,315.6 618.4,335.9 619.6,313.1 620.8,313.3 622.0,310.2 623.2,335.8 624.4,332.2 625.6,335.8 626.8,340.4 628.0,336.9 629.2,340.5 630.4,340.1 631.6,339.5 632.8,340.4 634.0,340.2 635.2,340.5 636.4,339.3 637.6,340.5 638.8,338.7 640.0,340.1 641.2,340.5 642.4,338.1 643.6,287.9 644.8,339.3 646.0,340.5 647.2,324.5 648.4,336.5 649.6,335.1 650.8,337.2 652.0,339.5 653.2,340.1 654.4,340.4 655.6,340.2 656.8,340.1 658.0,340.3 659.2,340.5 660.4,340.4 661.6,340.5 662.8,340.4 664.0,340.2 665.2,340.4 666.4,340.5 667.6,340.2 668.8,339.5 670.0,341.2 671.2,339.5 672.4,339.9 673.6,310.1 674.8,324.8 676.0,314.2 677.2,305.4 678.4,315.3 679.6,335.9 680.8,315.6 682.0,335.9 683.2,338.5 684.4,340.2 685.6,339.2 686.8,339.5 688.0,336.3 689.2,340.2 690.4,340.4 691.6,340.4 692.8,310.2 694.0,339.9 695.2,336.4 696.4,340.5 697.6,339.3 698.8,340.5 700.0,339.3 701.2,340.4 702.4,315.5 703.6,339.8 704.8,311.3 706.0,313.3 707.2,339.3 708.4,336.3 709.6,339.5 710.8,335.1 712.0,339.8 713.2,310.1 714.4,336.1 715.6,334.2 716.8,339.3 718.0,300.4 719.2,340.1 720.4,315.5 721.6,315.6 722.8,339.3 724.0,323.5 725.2,323.6 726.4,339.6 727.6,340.4 728.8,339.5 730.0,339.5 731.2,335.8 732.4,313.1 733.6,313.1 734.8,315.1 736.0,339.3 737.2,315.5 738.4,315.3 739.6,332.6 740.8,337.4 742.0,340.5 743.2,340.1 744.4,339.4 745.6,340.1 746.8,340.0 748.0,336.1 749.2,339.0 750.4,336.9 751.6,340.1 752.8,339.5 754.0,339.3 755.2,336.1 756.4,340.2 757.6,340.4 758.8,337.4 760.0,311.9 761.2,331.4 762.4,310.2 763.6,311.2 764.8,313.9 766.0,311.3 767.2,340.1 768.4,332.3 769.6,339.3 770.8,338.6 772.0,339.6 773.2,340.5 774.4,340.1 775.6,339.4 776.8,339.3 778.0,340.2 779.2,336.1 780.4,337.2 781.6,340.4 782.8,339.5 784.0,340.1 785.2,340.4 786.4,332.8 787.6,340.5 788.8,339.1 790.0,324.9 791.2,307.7 792.4,315.1 793.6,332.8 794.8,332.1 796.0,328.8 797.2,303.3 798.4,315.6 799.6,336.6 800.8,336.1 802.0,340.1 803.2,329.8 804.4,329.1 805.6,335.8 806.8,339.3 808.0,336.1 809.2,340.1 810.4,329.2 811.6,338.6 812.8,339.5 814.0,330.9 815.2,314.0 816.4,320.6 817.6,339.3 818.8,313.3 820.0,311.4 821.2,313.1 822.4,315.1 823.6,317.5 824.8,336.4 826.0,337.3 827.2,323.0 828.4,340.1 829.6,340.4 830.8,340.5 832.0,340.5 833.2,340.1 834.4,339.3 835.6,340.3 836.8,335.8 838.0,339.8 839.2,340.1 840.4,339.7 841.6,339.3 842.8,340.5 844.0,336.1 845.2,339.3 846.4,320.6 847.6,336.1 848.8,310.2 850.0,329.6 851.2,311.4 852.4,337.2 853.6,313.8 854.8,339.3 856.0,339.3 857.2,336.6 858.4,315.6 859.6,339.3 860.8,335.4 862.0,332.5 863.2,329.1 864.4,335.4 865.6,309.8 866.8,317.5 868.0,339.3 869.2,337.4 870.4,335.0 871.6,339.3 872.8,328.1 874.0,313.2 875.2,315.3 876.4,310.0 877.6,310.2 878.8,313.1 880.0,315.6 881.2,315.1 882.4,324.8 883.6,330.9 884.8,336.2 886.0,336.3 887.2,310.2 888.4,310.0 889.6,339.3 890.8,336.4 892.0,336.0 893.2,339.3 894.4,315.6 895.6,340.1 896.8,336.2 898.0,324.2 899.2,333.2 900.4,313.2 901.6,337.4 902.8,340.5 904.0,315.5 905.2,315.5 906.4,310.4 907.6,310.2 908.8,312.5 910.0,313.9 911.2,289.7 912.4,331.6 913.6,336.7 914.8,339.3 916.0,313.1 917.2,339.3 918.4,340.2 919.6,301.7 920.8,310.1 922.0,340.2 923.2,313.2 924.4,339.2 925.6,339.5 926.8,337.4 928.0,337.2 929.2,335.9 930.4,339.3 931.6,334.9 932.8,310.1 934.0,310.0 935.2,308.2 936.4,307.8 937.6,310.2 938.8,313.9 940.0,324.1 941.2,337.0 942.4,310.8 943.6,340.5 944.8,346.4 946.0,324.9" fill="none" stroke="#059669" stroke-width="2.2" stroke-linejoin="round" stroke-linecap="round"/>
<polyline points="76.0,211.6 77.2,219.5 78.4,226.3 79.6,231.4 80.8,239.6 82.0,231.4 83.2,226.2 84.4,219.8 85.6,226.4 86.8,226.3 88.0,202.2 89.2,226.4 90.4,227.6 91.6,226.3 92.8,229.2 94.0,230.7 95.2,214.2 96.4,219.5 97.6,239.3 98.8,219.4 100.0,218.6 101.2,202.2 102.4,223.2 103.6,226.1 104.8,226.4 106.0,223.4 107.2,226.2 108.4,215.9 109.6,219.4 110.8,202.5 112.0,202.2 113.2,162.0 114.4,171.9 115.6,171.9 116.8,212.3 118.0,218.6 119.2,212.3 120.4,210.8 121.6,236.5 122.8,244.4 124.0,233.3 125.2,226.2 126.4,226.8 127.6,226.3 128.8,230.6 130.0,223.3 131.2,216.4 132.4,224.5 133.6,216.9 134.8,239.6 136.0,237.1 137.2,231.9 138.4,232.5 139.6,233.3 140.8,226.4 142.0,226.4 143.2,227.4 144.4,230.8 145.6,234.5 146.8,226.3 148.0,239.6 149.2,243.8 150.4,236.8 151.6,248.0 152.8,242.8 154.0,243.7 155.2,242.2 156.4,239.5 157.6,255.3 158.8,208.8 160.0,239.9 161.2,240.9 162.4,237.9 163.6,252.2 164.8,246.0 166.0,249.8 167.2,244.4 168.4,235.4 169.6,236.5 170.8,231.4 172.0,226.5 173.2,232.8 174.4,236.5 175.6,249.6 176.8,241.9 178.0,244.4 179.2,234.5 180.4,233.2 181.6,233.5 182.8,219.4 184.0,242.3 185.2,226.3 186.4,235.1 187.6,234.5 188.8,246.3 190.0,252.5 191.2,226.4 192.4,230.9 193.6,245.8 194.8,240.4 196.0,232.9 197.2,238.1 198.4,239.6 199.6,236.4 200.8,226.4 202.0,226.4 203.2,233.2 204.4,236.4 205.6,245.2 206.8,240.9 208.0,249.7 209.2,233.5 210.4,233.6 211.6,240.4 212.8,239.6 214.0,239.9 215.2,244.6 216.4,243.8 217.6,243.8 218.8,236.4 220.0,202.7 221.2,226.3 222.4,226.3 223.6,219.4 224.8,232.7 226.0,236.5 227.2,234.6 228.4,236.5 229.6,233.9 230.8,239.6 232.0,239.6 233.2,236.5 234.4,233.3 235.6,242.0 236.8,242.2 238.0,240.9 239.2,231.1 240.4,230.0 241.6,240.2 242.8,229.7 244.0,235.5 245.2,234.5 246.4,209.6 247.6,226.4 248.8,226.3 250.0,226.2 251.2,228.0 252.4,226.4 253.6,239.6 254.8,239.6 256.0,235.1 257.2,233.3 258.4,238.8 259.6,239.6 260.8,240.0 262.0,255.1 263.2,236.5 264.4,236.5 265.6,244.4 266.8,244.4 268.0,236.5 269.2,235.3 270.4,228.6 271.6,226.4 272.8,244.4 274.0,226.3 275.2,202.2 276.4,234.7 277.6,236.4 278.8,226.3 280.0,231.8 281.2,236.4 282.4,239.6 283.6,236.4 284.8,235.8 286.0,236.9 287.2,226.4 288.4,241.6 289.6,237.1 290.8,226.4 292.0,235.8 293.2,241.9 294.4,243.9 295.6,251.5 296.8,227.1 298.0,226.3 299.2,227.4 300.4,238.0 301.6,250.5 302.8,230.8 304.0,226.2 305.2,226.4 306.4,228.2 307.6,225.6 308.8,232.6 310.0,226.4 311.2,231.2 312.4,214.7 313.6,226.2 314.8,162.0 316.0,172.9 317.2,202.5 318.4,213.1 319.6,204.0 320.8,226.3 322.0,235.5 323.2,231.0 324.4,229.7 325.6,219.6 326.8,219.4 328.0,226.3 329.2,202.5 330.4,230.0 331.6,202.2 332.8,202.2 334.0,226.3 335.2,213.1 336.4,219.8 337.6,227.4 338.8,226.3 340.0,227.4 341.2,227.1 342.4,229.6 343.6,226.4 344.8,236.4 346.0,211.5 347.2,224.5 348.4,236.5 349.6,235.3 350.8,226.3 352.0,231.4 353.2,233.3 354.4,226.3 355.6,205.1 356.8,223.3 358.0,226.1 359.2,261.2 360.4,222.6 361.6,217.1 362.8,243.4 364.0,218.1 365.2,231.4 366.4,236.7 367.6,244.4 368.8,244.1 370.0,236.4 371.2,236.4 372.4,230.4 373.6,226.4 374.8,243.8 376.0,234.7 377.2,234.0 378.4,221.2 379.6,213.5 380.8,231.1 382.0,184.3 383.2,234.2 384.4,217.6 385.6,225.1 386.8,226.3 388.0,230.6 389.2,217.5 390.4,244.1 391.6,217.9 392.8,224.4 394.0,202.1 395.2,199.5 396.4,197.7 397.6,219.4 398.8,213.3 400.0,226.4 401.2,172.0 402.4,223.4 403.6,207.7 404.8,208.3 406.0,202.2 407.2,224.6 408.4,231.1 409.6,226.4 410.8,170.6 412.0,226.2 413.2,234.7 414.4,226.1 415.6,226.4 416.8,178.2 418.0,202.8 419.2,229.3 420.4,234.7 421.6,226.4 422.8,212.5 424.0,236.5 425.2,235.8 426.4,227.4 427.6,226.4 428.8,223.3 430.0,233.3 431.2,226.3 432.4,255.4 433.6,234.3 434.8,234.5 436.0,233.3 437.2,236.3 438.4,236.3 439.6,227.4 440.8,226.1 442.0,226.3 443.2,226.3 444.4,226.3 445.6,217.6 446.8,226.3 448.0,217.5 449.2,216.1 450.4,226.2 451.6,236.3 452.8,217.6 454.0,226.3 455.2,221.9 456.4,212.3 457.6,202.8 458.8,217.9 460.0,226.3 461.2,217.9 462.4,235.7 463.6,226.3 464.8,208.3 466.0,209.7 467.2,226.3 468.4,226.3 469.6,226.3 470.8,236.4 472.0,226.3 473.2,238.0 474.4,226.2 475.6,225.9 476.8,226.4 478.0,226.9 479.2,234.3 480.4,251.6 481.6,236.5 482.8,238.9 484.0,242.8 485.2,236.4 486.4,232.8 487.6,218.3 488.8,234.9 490.0,236.4 491.2,236.4 492.4,236.3 493.6,231.4 494.8,228.4 496.0,234.3 497.2,243.9 498.4,223.3 499.6,226.2 500.8,226.3 502.0,231.5 503.2,229.3 504.4,229.7 505.6,212.8 506.8,216.0 508.0,223.3 509.2,229.5 510.4,216.7 511.6,226.3 512.8,218.5 514.0,227.2 515.2,236.4 516.4,171.9 517.6,202.2 518.8,226.3 520.0,202.9 521.2,215.1 522.4,217.4 523.6,236.3 524.8,224.6 526.0,231.3 527.2,226.2 528.4,218.5 529.6,215.1 530.8,202.4 532.0,194.7 533.2,197.0 534.4,211.6 535.6,202.5 536.8,217.9 538.0,231.1 539.2,216.1 540.4,236.5 541.6,226.1 542.8,225.6 544.0,226.4 545.2,221.8 546.4,226.2 547.6,243.8 548.8,229.3 550.0,234.6 551.2,236.4 552.4,229.8 553.6,236.4 554.8,239.6 556.0,243.8 557.2,226.5 558.4,227.2 559.6,226.3 560.8,236.4 562.0,230.8 563.2,226.4 564.4,234.8 565.6,229.7 566.8,92.4 568.0,217.9 569.2,226.3 570.4,216.6 571.6,234.7 572.8,233.3 574.0,226.3 575.2,226.3 576.4,226.3 577.6,223.3 578.8,226.1 580.0,236.4 581.2,241.7 582.4,236.4 583.6,234.9 584.8,216.6 586.0,226.4 587.2,226.3 588.4,241.3 589.6,235.5 590.8,219.9 592.0,215.3 593.2,233.3 594.4,229.8 595.6,233.7 596.8,236.6 598.0,202.8 599.2,236.5 600.4,236.5 601.6,219.5 602.8,223.4 604.0,231.1 605.2,223.2 606.4,222.7 607.6,229.9 608.8,235.1 610.0,236.2 611.2,226.3 612.4,241.0 613.6,243.6 614.8,228.0 616.0,239.9 617.2,226.3 618.4,230.9 619.6,214.7 620.8,217.6 622.0,217.6 623.2,226.2 624.4,226.3 625.6,219.9 626.8,237.4 628.0,227.1 629.2,234.6 630.4,226.4 631.6,226.4 632.8,239.9 634.0,219.8 635.2,236.8 636.4,227.4 637.6,239.9 638.8,226.2 640.0,235.0 641.2,234.6 642.4,226.2 643.6,170.5 644.8,226.3 646.0,227.5 647.2,227.6 648.4,229.7 649.6,226.3 650.8,226.3 652.0,243.0 653.2,226.4 654.4,233.3 655.6,226.4 656.8,231.5 658.0,229.7 659.2,241.9 660.4,235.3 661.6,239.9 662.8,239.5 664.0,235.4 665.2,239.6 666.4,236.8 667.6,243.8 668.8,226.4 670.0,244.4 671.2,215.4 672.4,228.1 673.6,208.3 674.8,216.5 676.0,226.4 677.2,204.4 678.4,226.3 679.6,226.1 680.8,226.3 682.0,234.7 683.2,226.4 684.4,239.6 685.6,226.3 686.8,230.0 688.0,225.4 689.2,226.4 690.4,237.9 691.6,239.1 692.8,202.8 694.0,233.6 695.2,233.3 696.4,238.6 697.6,233.3 698.8,235.3 700.0,219.4 701.2,235.8 702.4,215.4 703.6,233.2 704.8,225.8 706.0,222.5 707.2,228.0 708.4,226.3 709.6,226.4 710.8,222.6 712.0,232.4 713.2,198.4 714.4,223.1 715.6,214.7 716.8,234.7 718.0,171.9 719.2,233.3 720.4,202.2 721.6,222.8 722.8,219.5 724.0,212.6 725.2,218.6 726.4,242.8 727.6,234.7 728.8,226.2 730.0,231.0 731.2,226.3 732.4,212.6 733.6,226.3 734.8,209.7 736.0,226.3 737.2,202.5 738.4,202.2 739.6,204.3 740.8,226.4 742.0,238.2 743.2,226.4 744.4,219.4 745.6,233.8 746.8,234.7 748.0,222.8 749.2,226.3 750.4,217.6 751.6,234.4 752.8,233.3 754.0,234.6 755.2,239.6 756.4,243.7 757.6,232.5 758.8,231.1 760.0,221.6 761.2,230.8 762.4,231.0 763.6,206.6 764.8,223.4 766.0,218.3 767.2,229.8 768.4,227.4 769.6,228.1 770.8,235.3 772.0,234.7 773.2,226.4 774.4,232.3 775.6,239.6 776.8,226.7 778.0,240.4 779.2,228.0 780.4,234.5 781.6,239.6 782.8,239.6 784.0,236.6 785.2,240.9 786.4,214.8 787.6,231.1 788.8,236.4 790.0,225.7 791.2,226.2 792.4,225.2 793.6,225.2 794.8,217.9 796.0,226.4 797.2,174.3 798.4,213.0 799.6,226.3 800.8,216.7 802.0,220.8 803.2,234.7 804.4,218.6 805.6,217.7 806.8,235.3 808.0,224.9 809.2,230.9 810.4,226.3 811.6,226.3 812.8,233.2 814.0,223.3 815.2,214.1 816.4,210.8 817.6,235.7 818.8,226.0 820.0,227.3 821.2,221.8 822.4,226.2 823.6,214.5 824.8,231.9 826.0,226.6 827.2,226.3 828.4,236.4 829.6,233.0 830.8,226.3 832.0,239.6 833.2,226.7 834.4,226.4 835.6,240.1 836.8,217.6 838.0,233.3 839.2,230.7 840.4,237.3 841.6,226.7 842.8,228.3 844.0,225.2 845.2,226.4 846.4,227.4 847.6,226.3 848.8,221.3 850.0,211.2 851.2,197.3 852.4,227.5 853.6,214.8 854.8,232.3 856.0,226.2 857.2,226.3 858.4,202.3 859.6,210.9 860.8,226.4 862.0,220.6 863.2,223.3 864.4,226.4 865.6,191.2 866.8,218.2 868.0,226.3 869.2,233.3 870.4,227.4 871.6,236.4 872.8,222.0 874.0,219.4 875.2,236.4 876.4,201.0 877.6,226.3 878.8,226.6 880.0,219.4 881.2,226.2 882.4,226.4 883.6,226.4 884.8,224.2 886.0,218.6 887.2,202.6 888.4,185.3 889.6,226.4 890.8,226.7 892.0,220.8 893.2,228.1 894.4,222.7 895.6,239.6 896.8,226.4 898.0,224.6 899.2,235.6 900.4,212.9 901.6,235.7 902.8,226.3 904.0,235.4 905.2,231.3 906.4,230.9 907.6,226.2 908.8,204.0 910.0,215.8 911.2,185.4 912.4,226.4 913.6,234.7 914.8,233.3 916.0,199.4 917.2,226.3 918.4,239.6 919.6,171.9 920.8,202.2 922.0,240.4 923.2,206.9 924.4,225.4 925.6,233.3 926.8,226.4 928.0,227.0 929.2,226.3 930.4,226.3 931.6,202.8 932.8,202.5 934.0,202.2 935.2,216.6 936.4,191.2 937.6,202.2 938.8,218.9 940.0,226.3 941.2,217.6 942.4,172.8 943.6,226.4 944.8,226.2 946.0,225.7" fill="none" stroke="#d97706" stroke-width="2.2" stroke-linejoin="round" stroke-linecap="round"/>
<line x1="76" y1="70" x2="94" y2="70" stroke="#2563eb" stroke-width="3"/>
<text x="100" y="74" font-family="Arial, sans-serif" font-size="11" fill="#0f172a">avg fee</text>
<line x1="179" y1="70" x2="197" y2="70" stroke="#059669" stroke-width="3"/>
<text x="203" y="74" font-family="Arial, sans-serif" font-size="11" fill="#0f172a">median fee</text>
<line x1="303" y1="70" x2="321" y2="70" stroke="#d97706" stroke-width="3"/>
<text x="327" y="74" font-family="Arial, sans-serif" font-size="11" fill="#0f172a">p90 fee</text>
<text x="28" y="404" font-family="Arial, sans-serif" font-size="11" fill="#64748b">Source: hourly_features.csv</text>
</svg>