<svg xmlns="http://www.w3.org/2000/svg" width="980" height="420" viewBox="0 0 980 420">
<rect width="100%" height="100%" fill="#ffffff"/>
<text x="28" y="34" font-family="Arial, sans-serif" font-size="20" font-weight="700" fill="#0f172a">Hourly fee trend</text>
<text x="28" y="56" font-family="Arial, sans-serif" font-size="12" fill="#64748b">Average, median, and p90 total fee by hour</text>
<line x1="76" y1="362.0" x2="946" y2="362.0" stroke="#e2e8f0" stroke-width="1"/>
<text x="68" y="366.0" font-family="Arial, sans-serif" font-size="10" text-anchor="end" fill="#64748b">-382K</text>
<line x1="76" y1="292.0" x2="946" y2="292.0" stroke="#e2e8f0" stroke-width="1"/>
<text x="68" y="296.0" font-family="Arial, sans-serif" font-size="10" text-anchor="end" fill="#64748b">2.6M</text>
<line x1="76" y1="222.0" x2="946" y2="222.0" stroke="#e2e8f0" stroke-width="1"/>
<text x="68" y="226.0" font-family="Arial, sans-serif" font-size="10" text-anchor="end" fill="#64748b">5.7M</text>
<line x1="76" y1="152.0" x2="946" y2="152.0" stroke="#e2e8f0" stroke-width="1"/>
<text x="68" y="156.0" font-family="Arial, sans-serif" font-size="10" text-anchor="end" fill="#64748b">8.7M</text>
<line x1="76" y1="82.0" x2="946" y2="82.0" stroke="#e2e8f0" stroke-width="1"/>
<text x="68" y="86.0" font-family="Arial, sans-serif" font-size="10" text-anchor="end" fill="#64748b">11.7M</text>
<line x1="76" y1="362" x2="946" y2="362" stroke="#334155" stroke-width="1"/>
<line x1="76" y1="82" x2="76" y2="362" stroke="#334155" stroke-width="1"/>
<text x="76" y="72" font-family="Arial, sans-serif" font-size="11" fill="#64748b">nanoton</text>
<line x1="76.0" y1="362" x2="76.0" y2="366" stroke="#334155" stroke-width="1"/>
<text x="76.0" y="380" font-family="Arial, sans-serif" font-size="10" text-anchor="middle" fill="#64748b">0</text>
<line x1="511.5" y1="362" x2="511.5" y2="366" stroke="#334155" stroke-width="1"/>
<text x="511.5" y="380" font-family="Arial, sans-serif" font-size="10" text-anchor="middle" fill="#64748b">445</text>
<line x1="946.0" y1="362" x2="946.0" y2="366" stroke="#334155" stroke-width="1"/>
<text x="946.0" y="380" font-family="Arial, sans-serif" font-size="10" text-anchor="middle" fill="#64748b">889</text>
<polyline points="76.0,290.8 77.0,294.6 78.0,296.0 78.9,298.1 79.9,304.8 80.9,297.2 81.9,298.2 82.9,294.6 83.8,299.0 84.8,298.7 85.8,287.8 86.8,299.5 87.7,299.7 88.7,297.4 89.7,300.3 90.7,300.5 91.7,292.5 92.6,292.5 93.6,301.3 94.6,291.1 95.6,289.2 96.6,287.3 97.5,293.8 98.5,294.2 99.5,296.1 100.5,292.1 101.4,297.7 102.4,290.6 103.4,293.2 104.4,288.3 105.4,289.0 106.3,273.1 107.3,284.7 108.3,285.3 109.3,294.6 110.3,299.9 111.2,292.9 112.2,294.9 113.2,304.7 114.2,307.5 115.1,302.1 116.1,297.0 117.1,298.7 118.1,297.9 119.1,304.4 120.0,297.4 121.0,294.5 122.0,296.5 123.0,298.7 124.0,303.1 124.9,303.1 125.9,301.9 126.9,300.3 127.9,303.3 128.8,302.2 129.8,299.4 130.8,299.1 131.8,302.8 132.8,299.1 133.7,301.3 134.7,306.8 135.7,308.7 136.7,306.4 137.7,307.1 138.6,309.1 139.6,305.9 140.6,305.5 141.6,302.0 142.5,308.5 143.5,290.7 144.5,306.4 145.5,306.4 146.5,306.3 147.4,311.2 148.4,307.1 149.4,310.3 150.4,309.1 151.4,305.5 152.3,305.4 153.3,303.2 154.3,303.5 155.3,301.3 156.2,305.1 157.2,307.4 158.2,306.9 159.2,308.1 160.2,305.0 161.1,302.9 162.1,302.7 163.1,298.6 164.1,304.9 165.1,297.0 166.0,299.3 167.0,300.3 168.0,303.9 169.0,311.6 169.9,300.1 170.9,300.5 171.9,308.9 172.9,307.5 173.9,300.3 174.8,304.2 175.8,305.1 176.8,302.6 177.8,300.5 178.8,297.4 179.7,298.7 180.7,301.9 181.7,308.1 182.7,307.4 183.6,307.4 184.6,303.1 185.6,301.9 186.6,304.1 187.6,303.9 188.5,304.0 189.5,308.3 190.5,308.9 191.5,307.3 192.5,301.1 193.4,286.9 194.4,301.6 195.4,298.8 196.4,296.1 197.3,299.6 198.3,305.5 199.3,301.5 200.3,304.9 201.3,302.2 202.2,304.9 203.2,306.8 204.2,304.9 205.2,300.8 206.2,304.8 207.1,308.0 208.1,302.4 209.1,301.7 210.1,303.1 211.1,303.4 212.0,298.9 213.0,298.5 214.0,298.0 215.0,289.4 215.9,296.9 216.9,296.4 217.9,295.5 218.9,299.6 219.9,299.0 220.8,304.6 221.8,304.0 222.8,303.8 223.8,299.2 224.8,301.2 225.7,305.7 226.7,304.5 227.7,312.1 228.7,305.7 229.6,304.3 230.6,307.0 231.6,306.9 232.6,301.9 233.6,303.8 234.5,300.8 235.5,301.6 236.5,300.2 237.5,298.7 238.5,290.6 239.4,296.1 240.4,300.6 241.4,296.6 242.4,302.7 243.3,302.6 244.3,303.0 245.3,302.7 246.3,302.8 247.3,303.7 248.2,300.1 249.2,305.6 250.2,303.0 251.2,299.2 252.2,302.8 253.1,306.7 254.1,306.1 255.1,306.7 256.1,298.5 257.0,301.6 258.0,297.8 259.0,303.8 260.0,300.2 261.0,299.5 261.9,295.6 262.9,298.2 263.9,298.4 264.9,293.8 265.9,299.9 266.8,297.9 267.8,298.6 268.8,294.2 269.8,297.8 270.7,278.0 271.7,284.2 272.7,295.2 273.7,295.7 274.7,294.4 275.6,300.7 276.6,304.3 277.6,302.4 278.6,302.1 279.6,297.9 280.5,295.3 281.5,296.5 282.5,291.4 283.5,292.0 284.4,290.6 285.4,290.0 286.4,299.7 287.4,291.9 288.4,296.8 289.3,299.8 290.3,303.8 291.3,302.5 292.3,302.1 293.3,302.3 294.2,300.8 295.2,303.5 296.2,295.9 297.2,297.8 298.1,304.4 299.1,304.2 300.1,299.5 301.1,303.9 302.1,303.5 303.0,299.0 304.0,288.7 305.0,293.7 306.0,294.2 307.0,303.7 307.9,295.6 308.9,297.0 309.9,305.6 310.9,294.8 311.8,300.5 312.8,305.1 313.8,308.5 314.8,305.5 315.8,304.0 316.7,300.7 317.7,303.8 318.7,299.3 319.7,303.0 320.7,305.0 321.6,303.0 322.6,299.3 323.6,294.4 324.6,299.9 325.6,286.2 326.5,302.1 327.5,293.9 328.5,297.9 329.5,299.5 330.4,297.4 331.4,294.4 332.4,310.4 333.4,291.6 334.4,295.6 335.3,281.6 336.3,294.6 337.3,293.2 338.3,295.0 339.3,291.0 340.2,301.0 341.2,279.9 342.2,297.2 343.2,291.8 344.1,291.5 345.1,283.3 346.1,298.3 347.1,300.4 348.1,298.6 349.0,288.4 350.0,299.0 351.0,304.4 352.0,297.7 353.0,295.5 353.9,279.8 354.9,284.2 355.9,300.5 356.9,299.9 357.8,298.1 358.8,293.4 359.8,303.1 360.8,303.0 361.8,298.6 362.7,296.8 363.7,297.4 364.7,301.3 365.7,298.1 366.7,311.4 367.6,299.4 368.6,303.5 369.6,301.2 370.6,302.9 371.5,304.3 372.5,297.8 373.5,294.4 374.5,299.3 375.5,295.1 376.4,301.8 377.4,292.6 378.4,297.6 379.4,293.9 380.4,290.0 381.3,295.1 382.3,304.6 383.3,291.1 384.3,300.3 385.2,295.9 386.2,293.1 387.2,291.6 388.2,296.8 389.2,297.1 390.1,297.9 391.1,299.5 392.1,292.8 393.1,286.2 394.1,290.1 395.0,300.0 396.0,294.5 397.0,300.9 398.0,303.0 398.9,299.1 399.9,302.5 400.9,295.1 401.9,297.0 402.9,302.8 403.8,301.7 404.8,303.0 405.8,308.6 406.8,306.8 407.8,306.1 408.7,306.5 409.7,304.3 410.7,304.5 411.7,298.3 412.6,301.1 413.6,303.1 414.6,303.3 415.6,304.2 416.6,302.4 417.5,299.4 418.5,304.5 419.5,307.1 420.5,297.3 421.5,298.9 422.4,298.1 423.4,299.7 424.4,297.8 425.4,301.0 426.3,287.2 427.3,294.3 428.3,294.8 429.3,298.6 430.3,291.3 431.2,298.4 432.2,294.6 433.2,298.7 434.2,304.2 435.2,282.2 436.1,289.8 437.1,298.8 438.1,295.1 439.1,293.4 440.0,294.7 441.0,304.3 442.0,296.9 443.0,301.7 444.0,296.7 444.9,295.6 445.9,292.9 446.9,291.6 447.9,286.7 448.9,287.8 449.8,294.2 450.8,292.6 451.8,297.5 452.8,303.1 453.8,296.8 454.7,304.1 455.7,298.7 456.7,297.8 457.7,299.3 458.6,297.1 459.6,296.6 460.6,305.5 461.6,301.9 462.6,304.5 463.5,302.9 464.5,303.4 465.5,302.7 466.5,304.5 467.5,301.7 468.4,300.0 469.4,297.3 470.4,295.0 471.4,305.0 472.3,302.7 473.3,303.7 474.3,302.8 475.3,298.5 476.3,257.0 477.2,291.0 478.2,298.5 479.2,296.3 480.2,301.0 481.2,301.6 482.1,299.9 483.1,299.3 484.1,299.6 485.1,296.0 486.0,299.4 487.0,305.6 488.0,306.5 489.0,300.9 490.0,302.7 490.9,295.0 491.9,302.2 492.9,296.9 493.9,304.8 494.9,299.1 495.8,295.6 496.8,295.1 497.8,300.9 498.8,301.0 499.7,300.7 500.7,304.5 501.7,292.6 502.7,303.5 503.7,306.0 504.6,295.5 505.6,297.4 506.6,302.8 507.6,295.8 508.6,299.5 509.5,304.0 510.5,301.7 511.5,303.8 512.5,300.8 513.4,306.1 514.4,305.6 515.4,300.8 516.4,303.2 517.4,297.1 518.3,300.2 519.3,292.3 520.3,292.0 521.3,292.1 522.3,299.3 523.2,298.5 524.2,298.8 525.2,301.5 526.2,299.6 527.1,305.3 528.1,300.2 529.1,300.6 530.1,304.7 531.1,299.2 532.0,304.4 533.0,299.7 534.0,306.4 535.0,299.1 536.0,304.5 536.9,303.3 537.9,298.0 538.9,263.7 539.9,302.9 540.8,304.6 541.8,301.3 542.8,300.8 543.8,298.3 544.8,299.9 545.7,302.7 546.7,298.6 547.7,304.0 548.7,302.8 549.7,303.0 550.6,301.1 551.6,308.3 552.6,304.5 553.6,309.0 554.5,304.5 555.5,303.7 556.5,304.9 557.5,303.6 558.5,305.3 559.4,299.5 560.4,305.2 561.4,297.1 562.4,302.2 563.4,288.1 564.3,294.6 565.3,299.7 566.3,287.4 567.3,299.0 568.2,298.4 569.2,296.8 570.2,301.1 571.2,299.5 572.2,302.6 573.1,299.3 574.1,303.0 575.1,298.0 576.1,301.6 577.1,305.3 578.0,304.5 579.0,290.4 580.0,303.1 581.0,299.6 582.0,302.4 582.9,303.1 583.9,304.7 584.9,296.3 585.9,301.7 586.8,292.9 587.8,298.2 588.8,294.8 589.8,293.5 590.8,299.4 591.7,297.4 592.7,300.4 593.7,295.6 594.7,301.5 595.7,282.6 596.6,297.4 597.6,291.2 598.6,300.8 599.6,281.3 600.5,303.6 601.5,292.1 602.5,296.5 603.5,300.9 604.5,293.9 605.4,295.3 606.4,305.2 607.4,304.7 608.4,300.3 609.4,302.0 610.3,297.5 611.3,295.0 612.3,296.6 613.3,292.7 614.2,298.7 615.2,291.1 616.2,289.9 617.2,292.8 618.2,302.6 619.1,303.5 620.1,301.6 621.1,297.5 622.1,303.0 623.1,302.5 624.0,299.3 625.0,300.0 626.0,295.7 627.0,300.6 627.9,302.5 628.9,302.2 629.9,300.7 630.9,305.4 631.9,305.1 632.8,301.0 633.8,294.2 634.8,301.0 635.8,298.9 636.8,290.4 637.7,295.9 638.7,294.1 639.7,301.3 640.7,298.2 641.6,299.2 642.6,302.6 643.6,300.9 644.6,299.2 645.6,302.7 646.5,303.6 647.5,299.5 648.5,304.4 649.5,298.2 650.5,302.7 651.4,304.9 652.4,303.3 653.4,303.8 654.4,305.7 655.3,294.6 656.3,306.7 657.3,303.7 658.3,295.1 659.3,294.1 660.2,293.7 661.2,295.9 662.2,295.9 663.2,298.1 664.2,284.7 665.1,294.9 666.1,298.6 667.1,296.3 668.1,294.2 669.0,300.6 670.0,294.3 671.0,295.9 672.0,303.8 673.0,295.8 673.9,302.6 674.9,297.7 675.9,300.0 676.9,300.7 677.9,298.3 678.8,294.8 679.8,295.8 680.8,303.0 681.8,295.6 682.7,296.0 683.7,295.2 684.7,295.3 685.7,295.0 686.7,299.9 687.6,299.0 688.6,295.9 689.6,303.3 690.6,302.9 691.6,298.2 692.5,305.5 693.5,300.9 694.5,300.4 695.5,305.2 696.4,295.8 697.4,301.8 698.4,303.2 699.4,304.6 700.4,299.1 701.3,301.0 702.3,298.0 703.3,298.8 704.3,297.3 705.3,300.8 706.2,296.0 707.2,293.0 708.2,284.2 709.2,298.8 710.2,293.9 711.1,298.9 712.1,298.8 713.1,298.0 714.1,291.0 715.0,292.3 716.0,298.2 717.0,297.5 718.0,297.5 719.0,298.5 719.9,288.2 720.9,296.5 721.9,297.3 722.9,301.7 723.9,301.0 724.8,305.4 725.8,295.8 726.8,295.1 727.8,299.8 728.7,289.6 729.7,296.7 730.7,295.1 731.7,295.1 732.7,294.8 733.6,297.5 734.6,299.5 735.6,295.8 736.6,297.0 737.6,291.7 738.5,285.1 739.5,299.7 740.5,301.0 741.5,293.6 742.4,302.3 743.4,297.5 744.4,307.7 745.4,292.5 746.4,304.9 747.3,304.1 748.3,291.9 749.3,305.2 750.3,297.8 751.3,298.1 752.2,307.4 753.2,305.4 754.2,294.0 755.2,284.5 756.1,295.7 757.1,281.6 758.1,295.8 759.1,307.1 760.1,303.5 761.0,299.2 762.0,301.5 763.0,309.0 764.0,287.8 765.0,293.3 765.9,314.3 766.9,300.8 767.9,304.2 768.9,299.2 769.8,305.4 770.8,297.5 771.8,303.5 772.8,297.3 773.8,286.2 774.7,295.6 775.7,293.4 776.7,295.3 777.7,292.6 778.7,295.0 779.6,297.5 780.6,303.2 781.6,307.8 782.6,295.2 783.5,306.6 784.5,305.0 785.5,305.4 786.5,303.1 787.5,297.4 788.4,293.5 789.4,305.0 790.4,310.4 791.4,306.6 792.4,309.4 793.3,304.0 794.3,307.8 795.3,308.2 796.3,299.0 797.2,288.2 798.2,297.1 799.2,298.1 800.2,298.6 801.2,298.7 802.1,295.2 803.1,305.8 804.1,307.8 805.1,304.4 806.1,309.3 807.0,306.7 808.0,303.2 809.0,303.6 810.0,296.5 810.9,304.1 811.9,305.5 812.9,308.2 813.9,291.8 814.9,301.9 815.8,305.3 816.8,302.2 817.8,300.9 818.8,302.7 819.8,295.0 820.7,295.0 821.7,295.3 822.7,299.1 823.7,299.0 824.7,300.9 825.6,304.6 826.6,307.3 827.6,303.1 828.6,300.9 829.5,303.0 830.5,290.9 831.5,301.1 832.5,301.9 833.5,302.0 834.4,295.6 835.4,306.6 836.4,304.1 837.4,288.8 838.4,297.4 839.3,295.3 840.3,295.7 841.3,296.1 842.3,306.3 843.2,300.3 844.2,304.9 845.2,295.7 846.2,303.6 847.2,305.1 848.1,302.6 849.1,301.6 850.1,285.2 851.1,304.3 852.1,334.7 853.0,343.7 854.0,343.8 855.0,343.5 856.0,344.0 856.9,319.0 857.9,342.3 858.9,343.1 859.9,342.6 860.9,343.4 861.8,343.4 862.8,343.4 863.8,338.9 864.8,343.5 865.8,344.5 866.7,342.7 867.7,342.0 868.7,343.8 869.7,343.0 870.6,343.2 871.6,340.3 872.6,342.7 873.6,343.4 874.6,342.2 875.5,343.9 876.5,341.8 877.5,341.2 878.5,342.8 879.5,342.4 880.4,343.3 881.4,344.8 882.4,343.7 883.4,343.3 884.3,344.0 885.3,342.7 886.3,343.5 887.3,341.8 888.3,340.1 889.2,342.3 890.2,342.4 891.2,339.6 892.2,341.5 893.2,340.5 894.1,343.1 895.1,341.6 896.1,340.5 897.1,342.3 898.0,342.5 899.0,342.2 900.0,343.0 901.0,342.6 902.0,342.9 902.9,343.5 903.9,342.4 904.9,340.9 905.9,341.4 906.9,342.5 907.8,343.3 908.8,343.5 909.8,343.3 910.8,343.2 911.7,342.6 912.7,341.1 913.7,340.9 914.7,341.6 915.7,340.6 916.6,341.3 917.6,341.0 918.6,342.8 919.6,341.5 920.6,342.2 921.5,341.5 922.5,342.8 923.5,341.0 924.5,340.5 925.4,341.9 926.4,341.5 927.4,341.0 928.4,338.4 929.4,325.0 930.3,339.0 931.3,340.0 932.3,339.6 933.3,341.0 934.3,338.3 935.2,339.7 936.2,338.7 937.2,339.5 938.2,333.1 939.1,340.3 940.1,337.2 941.1,337.3 942.1,338.6 943.1,339.3 944.0,338.5 945.0,337.9 946.0,338.2" fill="none" stroke="#2563eb" stroke-width="2.2" stroke-linejoin="round" stroke-linecap="round"/>
<polyline points="76.0,311.4 77.0,324.9 78.0,334.1 78.9,334.5 79.9,335.0 80.9,334.6 81.9,334.4 82.9,330.8 83.8,334.6 84.8,334.6 85.8,320.5 86.8,334.6 87.7,334.2 88.7,330.7 89.7,334.4 90.7,333.8 91.7,321.1 92.6,330.5 93.6,332.4 94.6,310.6 95.6,302.9 96.6,305.9 97.5,320.5 98.5,315.5 99.5,310.4 100.5,329.8 101.4,333.4 102.4,312.5 103.4,335.0 104.4,319.0 105.4,330.5 106.3,283.8 107.3,300.4 108.3,303.3 109.3,308.3 110.3,331.3 111.2,312.5 112.2,310.6 113.2,334.9 114.2,335.0 115.1,329.7 116.1,310.6 117.1,310.6 118.1,312.5 119.1,340.8 120.0,334.9 121.0,308.9 122.0,310.3 123.0,334.9 124.0,335.3 124.9,334.2 125.9,333.4 126.9,333.9 127.9,334.6 128.8,331.5 129.8,334.6 130.8,330.9 131.8,334.3 132.8,334.6 133.7,334.2 134.7,335.0 135.7,334.9 136.7,334.9 137.7,344.0 138.6,335.8 139.6,334.9 140.6,334.9 141.6,330.7 142.5,344.0 143.5,335.6 144.5,336.2 145.5,336.2 146.5,335.0 147.4,338.1 148.4,336.2 149.4,336.1 150.4,335.1 151.4,335.0 152.3,335.0 153.3,334.5 154.3,335.0 155.3,334.6 156.2,334.6 157.2,335.0 158.2,335.0 159.2,335.0 160.2,334.3 161.1,334.9 162.1,334.9 163.1,330.7 164.1,334.7 165.1,312.2 166.0,329.6 167.0,331.1 168.0,333.8 169.0,344.0 169.9,330.6 170.9,333.8 171.9,335.0 172.9,336.2 173.9,334.7 174.8,334.7 175.8,334.8 176.8,334.6 177.8,331.0 178.8,330.5 179.7,331.5 180.7,333.0 181.7,335.0 182.7,334.9 183.6,334.9 184.6,334.1 185.6,334.9 186.6,334.9 187.6,331.5 188.5,332.3 189.5,336.2 190.5,344.0 191.5,336.1 192.5,335.0 193.4,310.1 194.4,334.9 195.4,334.5 196.4,334.7 197.3,333.8 198.3,334.9 199.3,334.0 200.3,334.9 201.3,334.9 202.2,334.9 203.2,335.0 204.2,334.7 205.2,333.2 206.2,334.9 207.1,335.0 208.1,335.0 209.1,334.1 210.1,334.2 211.1,330.3 212.0,310.6 213.0,298.7 214.0,309.8 215.0,304.4 215.9,310.2 216.9,310.1 217.9,327.6 218.9,333.0 219.9,333.8 220.8,333.8 221.8,334.9 222.8,334.9 223.8,333.8 224.8,334.7 225.7,334.7 226.7,334.6 227.7,344.0 228.7,334.9 229.6,334.9 230.6,335.0 231.6,335.0 232.6,333.8 233.6,334.4 234.5,330.9 235.5,319.7 236.5,298.7 237.5,334.1 238.5,326.9 239.4,334.7 240.4,331.8 241.4,331.8 242.4,331.4 243.3,334.7 244.3,334.4 245.3,334.6 246.3,334.6 247.3,330.7 248.2,330.7 249.2,334.9 250.2,334.4 251.2,331.0 252.2,334.6 253.1,335.0 254.1,334.6 255.1,334.9 256.1,330.5 257.0,334.3 258.0,315.6 259.0,334.6 260.0,298.7 261.0,334.0 261.9,329.7 262.9,332.6 263.9,331.8 264.9,310.6 265.9,331.8 266.8,332.3 267.8,334.6 268.8,323.8 269.8,334.0 270.7,295.8 271.7,298.7 272.7,327.1 273.7,331.1 274.7,330.7 275.6,332.3 276.6,334.6 277.6,334.7 278.6,334.1 279.6,324.8 280.5,315.1 281.5,308.6 282.5,305.4 283.5,298.7 284.4,306.5 285.4,305.4 286.4,331.7 287.4,305.5 288.4,317.0 289.3,333.4 290.3,335.0 291.3,334.1 292.3,335.0 293.3,334.9 294.2,333.7 295.2,335.0 296.2,319.7 297.2,319.7 298.1,334.1 299.1,333.8 300.1,333.4 301.1,334.7 302.1,334.6 303.0,331.3 304.0,305.4 305.0,308.2 306.0,308.3 307.0,298.7 307.9,310.2 308.9,335.5 309.9,336.2 310.9,312.5 311.8,334.5 312.8,336.2 313.8,335.9 314.8,336.2 315.8,335.0 316.7,333.8 317.7,334.3 318.7,334.4 319.7,333.5 320.7,334.6 321.6,334.4 322.6,329.6 323.6,308.9 324.6,334.1 325.6,308.2 326.5,334.4 327.5,310.7 328.5,310.3 329.5,325.1 330.4,305.5 331.4,319.7 332.4,344.0 333.4,315.6 334.4,334.2 335.3,308.2 336.3,309.9 337.3,330.0 338.3,334.1 339.3,335.0 340.2,333.2 341.2,323.8 342.2,333.8 343.2,308.2 344.1,306.1 345.1,323.8 346.1,315.6 347.1,333.4 348.1,332.6 349.0,303.2 350.0,334.1 351.0,334.7 352.0,326.5 353.0,333.8 353.9,320.8 354.9,333.7 355.9,333.7 356.9,334.1 357.8,330.7 358.8,331.8 359.8,333.7 360.8,334.6 361.8,333.8 362.7,333.0 363.7,310.6 364.7,334.7 365.7,330.7 366.7,345.9 367.6,333.8 368.6,334.7 369.6,333.7 370.6,334.7 371.5,334.7 372.5,310.6 373.5,315.4 374.5,332.0 375.5,310.5 376.4,331.7 377.4,305.3 378.4,330.5 379.4,326.9 380.4,302.2 381.3,309.7 382.3,335.9 383.3,333.4 384.3,334.9 385.2,334.4 386.2,306.5 387.2,306.5 388.2,318.3 389.2,320.1 390.1,323.6 391.1,331.8 392.1,310.6 393.1,305.4 394.1,308.2 395.0,331.8 396.0,305.2 397.0,330.5 398.0,334.1 398.9,326.7 399.9,330.7 400.9,305.4 401.9,308.2 402.9,333.8 403.8,334.1 404.8,335.0 405.8,340.8 406.8,336.2 407.8,336.1 408.7,335.0 409.7,336.2 410.7,335.8 411.7,333.8 412.6,334.4 413.6,335.0 414.6,334.8 415.6,334.9 416.6,334.6 417.5,331.8 418.5,334.5 419.5,335.0 420.5,329.1 421.5,330.7 422.4,325.8 423.4,325.3 424.4,308.2 425.4,333.5 426.3,308.4 427.3,310.3 428.3,330.5 429.3,319.6 430.3,308.3 431.2,334.6 432.2,318.7 433.2,335.8 434.2,335.0 435.2,297.6 436.1,305.3 437.1,325.3 438.1,325.7 439.1,318.9 440.0,310.3 441.0,334.9 442.0,321.4 443.0,334.2 444.0,331.5 444.9,329.7 445.9,309.6 446.9,308.4 447.9,298.7 448.9,302.7 449.8,305.5 450.8,309.0 451.8,331.8 452.8,334.0 453.8,329.6 454.7,334.7 455.7,333.8 456.7,335.0 457.7,334.0 458.6,334.0 459.6,325.3 460.6,334.9 461.6,334.5 462.6,334.6 463.5,334.7 464.5,334.7 465.5,334.7 466.5,334.6 467.5,334.1 468.4,326.9 469.4,326.6 470.4,305.4 471.4,343.0 472.3,335.3 473.3,344.0 474.3,335.0 475.3,329.1 476.3,301.0 477.2,334.2 478.2,334.1 479.2,315.6 480.2,335.0 481.2,334.1 482.1,334.6 483.1,333.6 484.1,330.5 485.1,330.4 486.0,333.8 487.0,335.0 488.0,335.0 489.0,333.2 490.0,334.4 490.9,310.5 491.9,332.0 492.9,310.1 493.9,332.7 494.9,305.4 495.8,309.8 496.8,310.6 497.8,330.0 498.8,333.8 499.7,332.4 500.7,335.3 501.7,318.3 502.7,334.7 503.7,336.2 504.6,331.4 505.6,325.8 506.6,334.6 507.6,331.3 508.6,331.8 509.5,334.7 510.5,334.5 511.5,333.8 512.5,330.7 513.4,334.9 514.4,334.8 515.4,331.8 516.4,333.2 517.4,310.7 518.3,330.5 519.3,308.2 520.3,308.4 521.3,305.4 522.3,330.4 523.2,326.9 524.2,330.4 525.2,334.9 526.2,331.5 527.1,335.0 528.1,334.6 529.1,334.1 530.1,334.9 531.1,334.7 532.0,335.0 533.0,333.8 534.0,335.0 535.0,333.3 536.0,334.6 536.9,335.0 537.9,332.7 538.9,283.6 539.9,333.8 540.8,335.0 541.8,319.3 542.8,331.1 543.8,329.7 544.8,331.8 545.7,334.1 546.7,334.6 547.7,334.9 548.7,334.7 549.7,334.6 550.6,334.8 551.6,335.0 552.6,334.9 553.6,335.0 554.5,334.9 555.5,334.7 556.5,334.9 557.5,335.0 558.5,334.7 559.4,334.1 560.4,335.7 561.4,334.1 562.4,334.4 563.4,305.3 564.3,319.6 565.3,309.3 566.3,300.7 567.3,310.4 568.2,330.5 569.2,310.6 570.2,330.5 571.2,333.0 572.2,334.7 573.1,333.8 574.1,334.1 575.1,330.9 576.1,334.7 577.1,334.9 578.0,334.9 579.0,305.4 580.0,334.4 581.0,331.0 582.0,335.0 582.9,333.8 583.9,335.0 584.9,333.8 585.9,334.9 586.8,310.6 587.8,334.3 588.8,306.4 589.8,308.4 590.8,333.8 591.7,330.9 592.7,334.1 593.7,329.7 594.7,334.3 595.7,305.3 596.6,330.7 597.6,328.8 598.6,333.8 599.6,295.8 600.5,334.6 601.5,310.6 602.5,310.6 603.5,333.8 604.5,318.4 605.4,318.5 606.4,334.2 607.4,334.9 608.4,334.1 609.4,334.1 610.3,330.4 611.3,308.2 612.3,308.2 613.3,310.2 614.2,333.8 615.2,310.6 616.2,310.4 617.2,327.3 618.2,332.0 619.1,335.0 620.1,334.6 621.1,334.0 622.1,334.6 623.1,334.5 624.0,330.7 625.0,333.5 626.0,331.5 627.0,334.6 627.9,334.1 628.9,333.8 629.9,330.7 630.9,334.7 631.9,334.9 632.8,332.0 633.8,307.0 634.8,326.1 635.8,305.4 636.8,306.4 637.7,309.0 638.7,306.4 639.7,334.6 640.7,327.0 641.6,333.8 642.6,333.2 643.6,334.1 644.6,335.0 645.6,334.6 646.5,333.9 647.5,333.8 648.5,334.7 649.5,330.7 650.5,331.8 651.4,334.9 652.4,334.1 653.4,334.6 654.4,334.9 655.3,327.5 656.3,335.0 657.3,333.6 658.3,319.7 659.3,302.9 660.2,310.1 661.2,327.5 662.2,326.8 663.2,323.6 664.2,298.7 665.1,310.6 666.1,331.1 667.1,330.7 668.1,334.6 669.0,324.6 670.0,323.8 671.0,330.4 672.0,333.8 673.0,330.7 673.9,334.6 674.9,323.9 675.9,333.2 676.9,334.1 677.9,325.7 678.8,309.1 679.8,315.6 680.8,333.8 681.8,308.5 682.7,306.5 683.7,308.2 684.7,310.2 685.7,312.5 686.7,331.0 687.6,331.9 688.6,317.9 689.6,334.6 690.6,335.0 691.6,335.0 692.5,335.0 693.5,334.6 694.5,333.8 695.5,334.9 696.4,330.4 697.4,334.3 698.4,334.6 699.4,334.2 700.4,333.8 701.3,335.0 702.3,330.7 703.3,333.8 704.3,315.5 705.3,330.7 706.2,305.4 707.2,324.4 708.2,306.5 709.2,331.8 710.2,308.9 711.1,333.8 712.1,333.8 713.1,331.2 714.1,310.7 715.0,333.8 716.0,330.0 717.0,327.2 718.0,323.8 719.0,330.0 719.9,305.0 720.9,312.5 721.9,333.8 722.9,332.0 723.9,329.7 724.8,333.8 725.8,322.8 726.8,308.3 727.8,310.4 728.7,305.2 729.7,305.4 730.7,308.2 731.7,310.7 732.7,310.1 733.6,319.6 734.6,325.7 735.6,330.8 736.6,330.9 737.6,305.4 738.5,305.2 739.5,333.8 740.5,331.0 741.5,305.4 742.4,334.7 743.4,308.3 744.4,334.1 745.4,334.7 746.4,332.8 747.3,332.9 748.3,308.2 749.3,335.0 750.3,330.4 751.3,310.4 752.2,330.0 753.2,326.8 754.2,305.9 755.2,306.4 756.1,323.8 757.1,296.7 758.1,334.1 759.1,335.0 760.1,335.0 761.0,331.5 762.0,334.7 763.0,335.0 764.0,304.3 765.0,308.2 765.9,335.0 766.9,331.8 767.9,334.5 768.9,331.2 769.8,334.7 770.8,331.8 771.8,321.5 772.8,334.9 773.8,331.9 774.7,310.4 775.7,308.3 776.7,305.4 777.7,305.9 778.7,305.7 779.6,324.6 780.6,330.7 781.6,334.5 782.6,331.6 783.5,335.0 784.5,335.0 785.5,335.0 786.5,322.4 787.5,334.9 788.4,331.1 789.4,335.0 790.4,344.0 791.4,344.0 792.4,344.0 793.3,334.6 794.3,335.0 795.3,335.0 796.3,334.4 797.2,311.6 798.2,308.9 799.2,308.2 800.2,308.1 801.2,330.4 802.1,308.6 803.1,337.4 804.1,335.0 805.1,335.0 806.1,335.0 807.0,331.8 808.0,332.0 809.0,334.1 810.0,330.5 810.9,334.6 811.9,335.0 812.9,334.9 813.9,312.5 814.9,333.8 815.8,332.0 816.8,333.8 817.8,331.7 818.8,331.0 819.8,310.7 820.7,308.6 821.7,314.0 822.7,327.1 823.7,304.8 824.7,340.8 825.6,341.6 826.6,335.0 827.6,334.6 828.6,334.6 829.5,324.6 830.5,317.8 831.5,346.0 832.5,334.6 833.5,334.9 834.4,317.9 835.4,344.0 836.4,334.0 837.4,321.8 838.4,332.8 839.3,325.5 840.3,333.8 841.3,313.7 842.3,334.6 843.2,328.5 844.2,331.2 845.2,305.4 846.2,331.0 847.2,310.0 848.1,331.4 849.1,330.2 850.1,290.8 851.1,335.0 852.1,347.8 853.0,350.1 854.0,349.5 855.0,346.1 856.0,349.4 856.9,341.0 857.9,346.4 858.9,349.3 859.9,344.7 860.9,345.1 861.8,349.2 862.8,349.4 863.8,343.5 864.8,350.0 865.8,350.1 866.7,347.6 867.7,344.9 868.7,349.2 869.7,345.2 870.6,344.1 871.6,344.7 872.6,345.7 873.6,346.1 874.6,345.7 875.5,349.5 876.5,345.1 877.5,349.4 878.5,348.7 879.5,346.1 880.4,345.8 881.4,351.6 882.4,348.3 883.4,345.7 884.3,349.9 885.3,344.7 886.3,346.4 887.3,345.2 888.3,343.4 889.2,345.2 890.2,346.1 891.2,342.1 892.2,343.4 893.2,343.5 894.1,345.2 895.1,345.2 896.1,344.0 897.1,345.2 898.0,345.4 899.0,345.3 900.0,344.8 901.0,345.8 902.0,346.1 902.9,344.8 903.9,345.0 904.9,344.3 905.9,345.2 906.9,347.2 907.8,347.4 908.8,350.1 909.8,346.4 910.8,348.8 911.7,348.0 912.7,344.7 913.7,344.0 914.7,345.4 915.7,342.7 916.6,345.8 917.6,344.1 918.6,346.0 919.6,349.5 920.6,344.0 921.5,345.9 922.5,347.6 923.5,344.8 924.5,343.6 925.4,343.6 926.4,344.9 927.4,343.6 928.4,342.0 929.4,343.9 930.3,342.7 931.3,343.4 932.3,341.6 933.3,343.4 934.3,341.5 935.2,342.3 936.2,342.7 937.2,341.5 938.2,341.0 939.1,342.2 940.1,341.2 941.1,340.3 942.1,342.4 943.1,341.6 944.0,341.6 945.0,341.4 946.0,340.9" fill="none" stroke="#059669" stroke-width="2.2" stroke-linejoin="round" stroke-linecap="round"/>
<polyline points="76.0,208.9 77.0,216.7 78.0,223.4 78.9,228.3 79.9,236.4 80.9,228.3 81.9,223.3 82.9,216.9 83.8,223.4 84.8,223.3 85.8,199.8 86.8,223.4 87.7,224.6 88.7,223.3 89.7,226.2 90.7,227.6 91.7,211.5 92.6,216.7 93.6,236.0 94.6,216.6 95.6,215.8 96.6,199.8 97.5,220.3 98.5,223.2 99.5,223.4 100.5,220.5 101.4,223.3 102.4,213.2 103.4,216.6 104.4,200.1 105.4,199.8 106.3,160.5 107.3,170.2 108.3,170.2 109.3,209.6 110.3,215.8 111.2,209.6 112.2,208.2 113.2,233.3 114.2,241.0 115.1,230.2 116.1,223.3 117.1,223.8 118.1,223.4 119.1,227.6 120.0,220.4 121.0,213.7 122.0,221.6 123.0,214.1 124.0,236.4 124.9,233.9 125.9,228.8 126.9,229.4 127.9,230.2 128.8,223.4 129.8,223.4 130.8,224.4 131.8,227.8 132.8,231.4 133.7,223.4 134.7,236.4 135.7,240.4 136.7,233.6 137.7,244.6 138.6,239.4 139.6,240.4 140.6,238.9 141.6,236.3 142.5,251.7 143.5,206.3 144.5,236.6 145.5,237.6 146.5,234.6 147.4,248.7 148.4,242.6 149.4,246.3 150.4,241.1 151.4,232.3 152.3,233.3 153.3,228.3 154.3,223.5 155.3,229.7 156.2,233.3 157.2,246.2 158.2,238.6 159.2,241.0 160.2,231.4 161.1,230.1 162.1,230.4 163.1,216.6 164.1,239.0 165.1,223.4 166.0,231.9 167.0,231.4 168.0,242.9 169.0,248.9 169.9,223.4 170.9,227.9 171.9,242.4 172.9,237.1 173.9,229.7 174.8,234.8 175.8,236.4 176.8,233.2 177.8,223.4 178.8,223.4 179.7,230.1 180.7,233.2 181.7,241.8 182.7,237.6 183.6,246.3 184.6,230.4 185.6,230.5 186.6,237.1 187.6,236.4 188.5,236.6 189.5,241.3 190.5,240.4 191.5,240.4 192.5,233.2 193.4,200.3 194.4,223.3 195.4,223.4 196.4,216.6 197.3,229.6 198.3,233.3 199.3,231.4 200.3,233.3 201.3,230.8 202.2,236.3 203.2,236.3 204.2,233.3 205.2,230.2 206.2,238.7 207.1,238.8 208.1,237.6 209.1,228.0 210.1,226.9 211.1,237.0 212.0,226.6 213.0,232.3 214.0,231.4 215.0,207.0 215.9,223.4 216.9,223.3 217.9,223.3 218.9,225.0 219.9,223.4 220.8,236.4 221.8,236.4 222.8,231.9 223.8,230.2 224.8,235.6 225.7,236.3 226.7,236.7 227.7,251.5 228.7,233.3 229.6,233.3 230.6,241.1 231.6,241.0 232.6,233.3 233.6,232.1 234.5,225.6 235.5,223.4 236.5,241.1 237.5,223.4 238.5,199.8 239.4,231.6 240.4,233.2 241.4,223.4 242.4,228.7 243.3,233.2 244.3,236.4 245.3,233.2 246.3,232.7 247.3,233.7 248.2,223.4 249.2,238.3 250.2,233.9 251.2,223.4 252.2,232.6 253.1,238.6 254.1,240.5 255.1,247.9 256.1,224.1 257.0,223.3 258.0,224.5 259.0,234.8 260.0,247.0 261.0,227.7 261.9,223.2 262.9,223.4 263.9,225.2 264.9,222.7 265.9,229.5 266.8,223.4 267.8,228.1 268.8,212.0 269.8,223.2 270.7,160.5 271.7,171.2 272.7,200.0 273.7,210.4 274.7,201.6 275.6,223.4 276.6,232.3 277.6,227.9 278.6,226.7 279.6,216.8 280.5,216.6 281.5,223.4 282.5,200.0 283.5,227.0 284.4,199.8 285.4,199.8 286.4,223.4 287.4,210.4 288.4,217.0 289.3,224.4 290.3,223.4 291.3,224.5 292.3,224.1 293.3,226.6 294.2,223.4 295.2,233.2 296.2,208.9 297.2,221.6 298.1,233.3 299.1,232.1 300.1,223.3 301.1,228.3 302.1,230.2 303.0,223.4 304.0,202.6 305.0,220.4 306.0,223.2 307.0,257.5 307.9,219.7 308.9,214.4 309.9,240.0 310.9,215.3 311.8,228.3 312.8,233.5 313.8,241.1 314.8,240.7 315.8,233.2 316.7,233.2 317.7,227.4 318.7,223.4 319.7,240.4 320.7,231.6 321.6,230.9 322.6,218.4 323.6,210.8 324.6,228.0 325.6,182.3 326.5,231.0 327.5,214.8 328.5,222.1 329.5,223.4 330.4,227.6 331.4,214.7 332.4,240.7 333.4,215.1 334.4,221.5 335.3,199.7 336.3,197.1 337.3,195.3 338.3,216.6 339.3,210.6 340.2,223.4 341.2,170.2 342.2,220.5 343.2,205.1 344.1,205.7 345.1,199.8 346.1,221.7 347.1,228.0 348.1,223.4 349.0,168.9 350.0,223.3 351.0,231.5 352.0,223.2 353.0,223.4 353.9,176.3 354.9,200.3 355.9,226.2 356.9,231.6 357.8,223.4 358.8,209.8 359.8,233.3 360.8,232.6 361.8,224.4 362.7,223.4 363.7,220.4 364.7,230.2 365.7,223.3 366.7,251.8 367.6,231.2 368.6,231.4 369.6,230.2 370.6,233.1 371.5,233.1 372.5,224.5 373.5,223.2 374.5,223.3 375.5,223.3 376.4,223.3 377.4,214.8 378.4,223.4 379.4,214.7 380.4,213.3 381.3,223.3 382.3,233.1 383.3,214.9 384.3,223.3 385.2,219.0 386.2,209.6 387.2,200.3 388.2,215.1 389.2,223.3 390.1,215.1 391.1,232.5 392.1,223.3 393.1,205.7 394.1,207.1 395.0,223.3 396.0,223.4 397.0,223.3 398.0,233.2 398.9,223.4 399.9,234.8 400.9,223.2 401.9,223.0 402.9,223.4 403.8,223.9 404.8,231.2 405.8,248.1 406.8,233.3 407.8,235.7 408.7,239.4 409.7,233.2 410.7,229.7 411.7,215.5 412.6,231.7 413.6,233.2 414.6,233.2 415.6,233.1 416.6,228.3 417.5,225.3 418.5,231.2 419.5,240.6 420.5,220.4 421.5,223.3 422.4,223.4 423.4,228.4 424.4,226.3 425.4,226.6 426.3,210.1 427.3,213.3 428.3,220.4 429.3,226.5 430.3,213.9 431.2,223.3 432.2,215.7 433.2,224.2 434.2,233.2 435.2,170.2 436.1,199.8 437.1,223.3 438.1,200.5 439.1,212.4 440.0,214.7 441.0,233.1 442.0,221.6 443.0,228.3 444.0,223.3 444.9,215.7 445.9,212.4 446.9,200.0 447.9,192.4 448.9,194.7 449.8,208.9 450.8,200.0 451.8,215.1 452.8,228.0 453.8,213.3 454.7,233.3 455.7,223.1 456.7,222.6 457.7,223.4 458.6,219.0 459.6,223.2 460.6,240.4 461.6,226.2 462.6,231.5 463.5,233.2 464.5,226.7 465.5,233.2 466.5,236.3 467.5,240.4 468.4,223.5 469.4,224.2 470.4,223.4 471.4,233.2 472.3,227.8 473.3,223.4 474.3,231.7 475.3,226.6 476.3,92.4 477.2,215.1 478.2,223.3 479.2,213.8 480.2,231.5 481.2,230.2 482.1,223.4 483.1,223.4 484.1,223.3 485.1,220.4 486.0,223.2 487.0,233.2 488.0,238.4 489.0,233.2 490.0,231.7 490.9,213.9 491.9,223.4 492.9,223.3 493.9,238.0 494.9,232.3 495.8,217.1 496.8,212.6 497.8,230.2 498.8,226.8 499.7,230.5 500.7,233.4 501.7,200.3 502.7,233.3 503.7,233.3 504.6,216.7 505.6,220.5 506.6,228.0 507.6,220.3 508.6,219.8 509.5,226.9 510.5,231.9 511.5,233.0 512.5,223.3 513.4,237.7 514.4,240.3 515.4,225.0 516.4,236.6 517.4,223.3 518.3,227.9 519.3,211.9 520.3,214.8 521.3,214.8 522.3,223.3 523.2,223.3 524.2,217.0 525.2,234.2 526.2,224.1 527.1,231.5 528.1,223.4 529.1,223.4 530.1,236.6 531.1,216.9 532.0,233.6 533.0,224.5 534.0,236.6 535.0,223.3 536.0,231.8 536.9,231.4 537.9,223.3 538.9,168.8 539.9,223.3 540.8,224.5 541.8,224.6 542.8,226.7 543.8,223.4 544.8,223.3 545.7,239.7 546.7,223.4 547.7,230.2 548.7,223.4 549.7,228.4 550.6,226.6 551.6,238.6 552.6,232.1 553.6,236.6 554.5,236.3 555.5,232.3 556.5,236.4 557.5,233.6 558.5,240.4 559.4,223.4 560.4,241.1 561.4,212.7 562.4,225.1 563.4,205.7 564.3,213.8 565.3,223.4 566.3,201.9 567.3,223.3 568.2,223.1 569.2,223.4 570.2,231.5 571.2,223.4 572.2,236.3 573.1,223.4 574.1,226.9 575.1,222.4 576.1,223.4 577.1,234.7 578.0,235.8 579.0,200.3 580.0,230.5 581.0,230.2 582.0,235.3 582.9,230.2 583.9,232.1 584.9,216.6 585.9,232.6 586.8,212.7 587.8,230.1 588.8,222.9 589.8,219.7 590.8,225.0 591.7,223.4 592.7,223.4 593.7,219.7 594.7,229.3 595.7,196.0 596.6,220.2 597.6,212.0 598.6,231.5 599.6,170.2 600.5,230.2 601.5,199.8 602.5,220.0 603.5,216.7 604.5,210.0 605.4,215.8 606.4,239.5 607.4,231.5 608.4,223.3 609.4,227.9 610.3,223.3 611.3,209.9 612.3,223.4 613.3,207.1 614.2,223.3 615.2,200.0 616.2,199.8 617.2,201.8 618.2,223.4 619.1,235.0 620.1,223.4 621.1,216.6 622.1,230.6 623.1,231.6 624.0,219.9 625.0,223.3 626.0,214.8 627.0,231.3 627.9,230.2 628.9,231.4 629.9,236.4 630.9,240.4 631.9,229.4 632.8,228.0 633.8,218.7 634.8,227.7 635.8,227.9 636.8,204.0 637.7,220.5 638.7,215.5 639.7,226.7 640.7,224.4 641.6,225.1 642.6,232.1 643.6,231.5 644.6,223.4 645.6,229.2 646.5,236.3 647.5,223.7 648.5,237.1 649.5,225.0 650.5,231.4 651.4,236.4 652.4,236.3 653.4,233.4 654.4,237.6 655.3,212.1 656.3,228.0 657.3,233.2 658.3,222.8 659.3,223.2 660.2,222.2 661.2,222.3 662.2,215.1 663.2,223.4 664.2,172.5 665.1,210.3 666.1,223.3 667.1,214.0 668.1,217.9 669.0,231.6 670.0,215.8 671.0,214.9 672.0,232.2 673.0,222.0 673.9,227.8 674.9,223.3 675.9,223.3 676.9,230.1 677.9,220.4 678.8,211.4 679.8,208.2 680.8,232.6 681.8,223.1 682.7,224.4 683.7,218.9 684.7,223.2 685.7,211.8 686.7,228.8 687.6,223.6 688.6,223.3 689.6,233.2 690.6,229.9 691.6,223.3 692.5,236.3 693.5,223.7 694.5,223.4 695.5,236.8 696.4,214.9 697.4,230.2 698.4,227.6 699.4,234.1 700.4,223.7 701.3,225.3 702.3,222.3 703.3,223.4 704.3,224.5 705.3,223.4 706.2,218.4 707.2,208.6 708.2,195.0 709.2,224.5 710.2,212.1 711.1,229.2 712.1,223.3 713.1,223.4 714.1,199.9 715.0,208.3 716.0,223.4 717.0,217.7 718.0,220.4 719.0,223.4 719.9,189.0 720.9,215.4 721.9,223.4 722.9,230.2 723.9,224.4 724.8,233.2 725.8,219.1 726.8,216.6 727.8,233.2 728.7,198.6 729.7,223.3 730.7,223.6 731.7,216.6 732.7,223.3 733.6,223.4 734.6,223.4 735.6,221.2 736.6,215.8 737.6,200.2 738.5,183.2 739.5,223.4 740.5,223.7 741.5,200.5 742.4,227.0 743.4,226.5 744.4,241.1 745.4,239.9 746.4,237.3 747.3,236.6 748.3,192.0 749.3,244.7 750.3,208.6 751.3,233.3 752.2,241.0 753.2,240.2 754.2,223.5 755.2,174.1 756.1,223.3 757.1,194.8 758.1,229.1 759.1,236.2 760.1,241.0 761.0,220.4 762.0,228.2 763.0,256.0 764.0,170.2 765.0,200.3 765.9,256.2 766.9,223.4 767.9,226.2 768.9,223.3 769.8,236.7 770.8,223.3 771.8,230.2 772.8,216.6 773.8,181.2 774.7,223.4 775.7,204.6 776.7,210.1 777.7,208.6 778.7,200.0 779.6,223.8 780.6,227.4 781.6,243.2 782.6,213.2 783.5,240.6 784.5,224.6 785.5,231.9 786.5,230.1 787.5,241.0 788.4,229.3 789.4,237.6 790.4,247.8 791.4,245.3 792.4,252.0 793.3,236.3 794.3,238.6 795.3,240.9 796.3,199.5 797.2,194.9 798.2,224.5 799.2,218.0 800.2,223.5 801.2,216.6 802.1,216.7 803.1,233.2 804.1,236.3 805.1,237.1 806.1,245.8 807.0,238.2 808.0,237.1 809.0,230.8 810.0,207.1 810.9,236.3 811.9,233.2 812.9,240.9 813.9,213.1 814.9,223.4 815.8,236.4 816.8,227.7 817.8,224.6 818.8,230.2 819.8,214.8 820.7,222.2 821.7,216.8 822.7,223.3 823.7,229.9 824.7,224.9 825.6,227.8 826.6,257.6 827.6,230.2 828.6,236.7 829.5,235.8 830.5,223.4 831.5,231.8 832.5,223.4 833.5,223.3 834.4,211.7 835.4,242.1 836.4,225.6 837.4,200.2 838.4,220.4 839.3,223.3 840.3,223.4 841.3,214.7 842.3,233.5 843.2,223.3 844.2,238.6 845.2,223.3 846.2,241.1 847.2,240.4 848.1,223.4 849.1,225.0 850.1,198.4 851.1,237.3 852.1,299.1 853.0,332.3 854.0,333.7 855.0,330.9 856.0,331.5 856.9,256.7 857.9,327.6 858.9,327.7 859.9,331.7 860.9,333.7 861.8,332.3 862.8,331.6 863.8,322.4 864.8,331.5 865.8,332.9 866.7,331.0 867.7,328.4 868.7,333.2 869.7,329.7 870.6,329.7 871.6,329.6 872.6,330.4 873.6,331.5 874.6,327.6 875.5,331.5 876.5,329.1 877.5,327.7 878.5,330.3 879.5,328.4 880.4,331.3 881.4,335.3 882.4,331.5 883.4,330.0 884.3,331.5 885.3,330.0 886.3,331.6 887.3,327.6 888.3,329.0 889.2,330.0 890.2,328.8 891.2,326.0 892.2,327.7 893.2,327.5 894.1,329.2 895.1,328.1 896.1,327.6 897.1,329.0 898.0,331.5 899.0,327.6 900.0,329.6 901.0,328.9 902.0,331.5 902.9,331.5 903.9,330.1 904.9,322.8 905.9,329.3 906.9,331.5 907.8,331.8 908.8,331.3 909.8,329.1 910.8,331.5 911.7,332.5 912.7,325.5 913.7,325.9 914.7,328.4 915.7,324.7 916.6,330.2 917.6,327.0 918.6,328.8 919.6,329.0 920.6,327.6 921.5,326.7 922.5,331.4 923.5,326.1 924.5,332.9 925.4,327.7 926.4,323.0 927.4,325.8 928.4,322.4 929.4,317.8 930.3,322.7 931.3,322.8 932.3,322.7 933.3,326.8 934.3,322.8 935.2,323.1 936.2,325.0 937.2,322.8 938.2,322.0 939.1,325.5 940.1,322.4 941.1,322.0 942.1,322.8 943.1,322.6 944.0,322.4 945.0,322.4 946.0,322.0" fill="none" stroke="#d97706" stroke-width="2.2" stroke-linejoin="round" stroke-linecap="round"/>
<line x1="76" y1="70" x2="94" y2="70" stroke="#2563eb" stroke-width="3"/>
<text x="100" y="74" font-family="Arial, sans-serif" font-size="11" fill="#0f172a">avg fee</text>
<line x1="179" y1="70" x2="197" y2="70" stroke="#059669" stroke-width="3"/>
<text x="203" y="74" font-family="Arial, sans-serif" font-size="11" fill="#0f172a">median fee</text>
<line x1="303" y1="70" x2="321" y2="70" stroke="#d97706" stroke-width="3"/>
<text x="327" y="74" font-family="Arial, sans-serif" font-size="11" fill="#0f172a">p90 fee</text>
<text x="28" y="404" font-family="Arial, sans-serif" font-size="11" fill="#64748b">Source: hourly_features.csv</text>
</svg>