<svg xmlns="http://www.w3.org/2000/svg" width="980" height="420" viewBox="0 0 980 420">
<rect width="100%" height="100%" fill="#ffffff"/>
<text x="28" y="34" font-family="Arial, sans-serif" font-size="20" font-weight="700" fill="#0f172a">Hourly fee trend</text>
<text x="28" y="56" font-family="Arial, sans-serif" font-size="12" fill="#64748b">Average, median, and p90 total fee by hour</text>
<line x1="76" y1="362.0" x2="946" y2="362.0" stroke="#e2e8f0" stroke-width="1"/>
<text x="68" y="366.0" font-family="Arial, sans-serif" font-size="10" text-anchor="end" fill="#64748b">-382K</text>
<line x1="76" y1="292.0" x2="946" y2="292.0" stroke="#e2e8f0" stroke-width="1"/>
<text x="68" y="296.0" font-family="Arial, sans-serif" font-size="10" text-anchor="end" fill="#64748b">2.6M</text>
<line x1="76" y1="222.0" x2="946" y2="222.0" stroke="#e2e8f0" stroke-width="1"/>
<text x="68" y="226.0" font-family="Arial, sans-serif" font-size="10" text-anchor="end" fill="#64748b">5.7M</text>
<line x1="76" y1="152.0" x2="946" y2="152.0" stroke="#e2e8f0" stroke-width="1"/>
<text x="68" y="156.0" font-family="Arial, sans-serif" font-size="10" text-anchor="end" fill="#64748b">8.7M</text>
<line x1="76" y1="82.0" x2="946" y2="82.0" stroke="#e2e8f0" stroke-width="1"/>
<text x="68" y="86.0" font-family="Arial, sans-serif" font-size="10" text-anchor="end" fill="#64748b">11.7M</text>
<line x1="76" y1="362" x2="946" y2="362" stroke="#334155" stroke-width="1"/>
<line x1="76" y1="82" x2="76" y2="362" stroke="#334155" stroke-width="1"/>
<text x="76" y="72" font-family="Arial, sans-serif" font-size="11" fill="#64748b">nanoton</text>
<line x1="76.0" y1="362" x2="76.0" y2="366" stroke="#334155" stroke-width="1"/>
<text x="76.0" y="380" font-family="Arial, sans-serif" font-size="10" text-anchor="middle" fill="#64748b">0</text>
<line x1="511.5" y1="362" x2="511.5" y2="366" stroke="#334155" stroke-width="1"/>
<text x="511.5" y="380" font-family="Arial, sans-serif" font-size="10" text-anchor="middle" fill="#64748b">412</text>
<line x1="946.0" y1="362" x2="946.0" y2="366" stroke="#334155" stroke-width="1"/>
<text x="946.0" y="380" font-family="Arial, sans-serif" font-size="10" text-anchor="middle" fill="#64748b">823</text>
<polyline points="76.0,290.8 77.1,294.6 78.1,296.0 79.2,298.1 80.2,304.8 81.3,297.2 82.3,298.2 83.4,294.6 84.5,299.0 85.5,298.7 86.6,287.8 87.6,299.5 88.7,299.7 89.7,297.4 90.8,300.2 91.9,300.5 92.9,292.5 94.0,292.5 95.0,301.3 96.1,291.1 97.1,289.2 98.2,287.3 99.3,293.8 100.3,294.2 101.4,296.1 102.4,292.1 103.5,297.7 104.5,290.6 105.6,293.2 106.7,288.3 107.7,289.0 108.8,273.1 109.8,284.7 110.9,285.3 111.9,294.6 113.0,299.9 114.1,292.9 115.1,294.9 116.2,304.7 117.2,307.5 118.3,302.1 119.3,297.0 120.4,298.7 121.5,297.9 122.5,304.4 123.6,297.4 124.6,294.5 125.7,296.5 126.7,298.7 127.8,303.1 128.9,303.1 129.9,301.9 131.0,300.3 132.0,303.3 133.1,302.2 134.1,299.4 135.2,299.1 136.3,302.8 137.3,299.1 138.4,301.3 139.4,306.8 140.5,308.6 141.5,306.4 142.6,307.1 143.7,309.1 144.7,305.9 145.8,305.5 146.8,302.0 147.9,308.5 148.9,290.7 150.0,306.4 151.1,306.4 152.1,306.3 153.2,311.2 154.2,307.1 155.3,310.3 156.3,309.1 157.4,305.5 158.5,305.4 159.5,303.2 160.6,303.5 161.6,301.3 162.7,305.1 163.7,307.4 164.8,306.9 165.9,308.1 166.9,305.0 168.0,302.9 169.0,302.7 170.1,298.6 171.1,304.9 172.2,297.0 173.3,299.3 174.3,300.3 175.4,303.9 176.4,311.6 177.5,300.1 178.5,300.5 179.6,308.9 180.7,307.5 181.7,300.3 182.8,304.2 183.8,305.1 184.9,302.6 185.9,300.5 187.0,297.4 188.1,298.7 189.1,301.9 190.2,308.1 191.2,307.4 192.3,307.4 193.3,303.1 194.4,301.9 195.5,304.1 196.5,303.9 197.6,304.0 198.6,308.3 199.7,308.9 200.7,307.3 201.8,301.1 202.9,286.9 203.9,301.6 205.0,298.8 206.0,296.1 207.1,299.6 208.1,305.5 209.2,301.5 210.3,304.9 211.3,302.2 212.4,304.9 213.4,306.8 214.5,304.9 215.5,300.8 216.6,304.8 217.7,307.9 218.7,302.4 219.8,301.7 220.8,303.1 221.9,303.4 222.9,298.9 224.0,298.5 225.1,298.0 226.1,289.4 227.2,296.9 228.2,296.4 229.3,295.5 230.3,299.6 231.4,299.0 232.5,304.6 233.5,304.0 234.6,303.8 235.6,299.2 236.7,301.2 237.7,305.7 238.8,304.5 239.9,312.1 240.9,305.7 242.0,304.3 243.0,307.0 244.1,306.9 245.1,301.9 246.2,303.8 247.3,300.8 248.3,301.6 249.4,300.2 250.4,298.7 251.5,290.6 252.5,296.1 253.6,300.6 254.7,296.6 255.7,302.7 256.8,302.6 257.8,303.0 258.9,302.7 259.9,302.8 261.0,303.7 262.1,300.1 263.1,305.6 264.2,303.0 265.2,299.2 266.3,302.8 267.3,306.7 268.4,306.1 269.5,306.7 270.5,298.5 271.6,301.6 272.6,297.8 273.7,303.8 274.7,300.2 275.8,299.5 276.9,295.6 277.9,298.2 279.0,298.4 280.0,293.8 281.1,299.9 282.1,297.9 283.2,298.6 284.3,294.2 285.3,297.8 286.4,278.0 287.4,284.2 288.5,295.2 289.5,295.7 290.6,294.4 291.7,300.7 292.7,304.3 293.8,302.4 294.8,302.1 295.9,297.9 296.9,295.3 298.0,296.5 299.0,291.4 300.1,292.0 301.2,290.6 302.2,290.0 303.3,299.7 304.3,291.9 305.4,296.8 306.4,299.8 307.5,303.7 308.6,302.4 309.6,302.0 310.7,302.3 311.7,300.8 312.8,303.5 313.8,295.9 314.9,297.8 316.0,304.4 317.0,304.2 318.1,299.5 319.1,303.9 320.2,303.5 321.2,299.0 322.3,288.7 323.4,293.7 324.4,294.2 325.5,303.6 326.5,295.6 327.6,297.0 328.6,305.6 329.7,294.8 330.8,300.5 331.8,305.1 332.9,308.5 333.9,305.5 335.0,304.0 336.0,300.7 337.1,303.8 338.2,299.2 339.2,303.0 340.3,305.0 341.3,303.0 342.4,299.3 343.4,294.4 344.5,299.9 345.6,286.2 346.6,302.1 347.7,293.9 348.7,297.9 349.8,299.4 350.8,297.4 351.9,294.4 353.0,310.4 354.0,291.6 355.1,295.6 356.1,281.6 357.2,294.6 358.2,293.2 359.3,295.0 360.4,291.0 361.4,301.0 362.5,279.9 363.5,297.2 364.6,291.8 365.6,291.5 366.7,283.3 367.8,298.3 368.8,300.4 369.9,298.6 370.9,288.4 372.0,299.0 373.0,304.3 374.1,297.7 375.2,295.5 376.2,279.8 377.3,284.2 378.3,300.5 379.4,299.9 380.4,298.1 381.5,293.4 382.6,303.1 383.6,303.0 384.7,298.6 385.7,296.7 386.8,297.3 387.8,301.3 388.9,298.1 390.0,311.4 391.0,299.4 392.1,303.5 393.1,301.2 394.2,302.9 395.2,304.2 396.3,297.8 397.4,294.4 398.4,299.3 399.5,295.1 400.5,301.8 401.6,292.6 402.6,297.6 403.7,293.9 404.8,290.0 405.8,295.1 406.9,304.6 407.9,291.1 409.0,300.3 410.0,295.9 411.1,293.1 412.2,291.6 413.2,296.8 414.3,297.1 415.3,297.9 416.4,299.5 417.4,292.8 418.5,286.2 419.6,290.1 420.6,300.0 421.7,294.5 422.7,300.9 423.8,303.0 424.8,299.1 425.9,302.5 427.0,295.1 428.0,297.0 429.1,302.8 430.1,301.7 431.2,303.0 432.2,308.6 433.3,306.8 434.4,306.1 435.4,306.5 436.5,304.3 437.5,304.5 438.6,298.3 439.6,301.1 440.7,303.1 441.8,303.3 442.8,304.2 443.9,302.4 444.9,299.4 446.0,304.5 447.0,307.1 448.1,297.3 449.2,298.9 450.2,298.1 451.3,299.7 452.3,297.8 453.4,301.0 454.4,287.2 455.5,294.3 456.6,294.8 457.6,298.6 458.7,291.3 459.7,298.4 460.8,294.6 461.8,298.7 462.9,304.2 464.0,282.2 465.0,289.8 466.1,298.8 467.1,295.1 468.2,293.4 469.2,294.7 470.3,304.3 471.4,296.9 472.4,301.7 473.5,296.7 474.5,295.6 475.6,292.9 476.6,291.6 477.7,286.7 478.8,287.7 479.8,294.2 480.9,292.6 481.9,297.5 483.0,303.1 484.0,296.8 485.1,304.1 486.2,298.6 487.2,297.8 488.3,299.3 489.3,297.1 490.4,296.6 491.4,305.5 492.5,301.9 493.6,304.5 494.6,302.9 495.7,303.4 496.7,302.7 497.8,304.5 498.8,301.7 499.9,300.0 501.0,297.3 502.0,295.0 503.1,305.0 504.1,302.7 505.2,303.7 506.2,302.8 507.3,298.5 508.4,257.0 509.4,291.0 510.5,298.5 511.5,296.3 512.6,301.0 513.6,301.6 514.7,299.8 515.8,299.3 516.8,299.6 517.9,296.0 518.9,299.4 520.0,305.6 521.0,306.5 522.1,300.9 523.2,302.7 524.2,295.0 525.3,302.2 526.3,296.9 527.4,304.8 528.4,299.1 529.5,295.6 530.6,295.1 531.6,300.9 532.7,301.0 533.7,300.7 534.8,304.5 535.8,292.6 536.9,303.5 538.0,306.0 539.0,295.5 540.1,297.4 541.1,302.8 542.2,295.8 543.2,299.5 544.3,303.9 545.4,301.7 546.4,303.8 547.5,300.8 548.5,306.1 549.6,305.6 550.6,300.8 551.7,303.2 552.8,297.0 553.8,300.2 554.9,292.3 555.9,292.0 557.0,292.1 558.0,299.3 559.1,298.5 560.2,298.8 561.2,301.5 562.3,299.6 563.3,305.3 564.4,300.2 565.4,300.6 566.5,304.7 567.6,299.2 568.6,304.4 569.7,299.7 570.7,306.4 571.8,299.1 572.8,304.4 573.9,303.3 575.0,298.0 576.0,263.7 577.1,302.9 578.1,304.6 579.2,301.3 580.2,300.8 581.3,298.3 582.4,299.9 583.4,302.7 584.5,298.6 585.5,304.0 586.6,302.8 587.6,303.0 588.7,301.1 589.8,308.3 590.8,304.5 591.9,309.0 592.9,304.5 594.0,303.7 595.0,304.9 596.1,303.6 597.2,305.3 598.2,299.5 599.3,305.2 600.3,297.1 601.4,302.2 602.4,288.1 603.5,294.6 604.6,299.7 605.6,287.4 606.7,299.0 607.7,298.4 608.8,296.8 609.8,301.1 610.9,299.5 612.0,302.6 613.0,299.3 614.1,303.0 615.1,298.0 616.2,301.6 617.2,305.3 618.3,304.5 619.4,290.3 620.4,303.1 621.5,299.6 622.5,302.4 623.6,303.1 624.6,304.7 625.7,296.3 626.8,301.7 627.8,292.9 628.9,298.2 629.9,294.8 631.0,293.5 632.0,299.4 633.1,297.4 634.2,300.4 635.2,295.6 636.3,301.5 637.3,282.6 638.4,297.4 639.4,291.2 640.5,300.8 641.6,281.3 642.6,303.6 643.7,292.1 644.7,296.5 645.8,300.9 646.8,293.9 647.9,295.3 649.0,305.2 650.0,304.6 651.1,300.3 652.1,302.0 653.2,297.5 654.2,295.0 655.3,296.6 656.4,292.7 657.4,298.7 658.5,291.1 659.5,289.9 660.6,292.7 661.6,302.6 662.7,303.5 663.8,301.6 664.8,297.5 665.9,303.0 666.9,302.5 668.0,299.3 669.0,299.9 670.1,295.7 671.2,300.6 672.2,302.5 673.3,302.2 674.3,300.7 675.4,305.4 676.4,305.1 677.5,301.0 678.6,294.2 679.6,301.0 680.7,298.9 681.7,290.4 682.8,295.9 683.8,294.1 684.9,301.3 686.0,298.2 687.0,299.2 688.1,302.6 689.1,300.9 690.2,299.2 691.2,302.7 692.3,303.6 693.4,299.5 694.4,304.4 695.5,298.1 696.5,302.7 697.6,304.9 698.6,303.3 699.7,303.8 700.8,305.7 701.8,294.6 702.9,306.7 703.9,303.7 705.0,295.1 706.0,294.1 707.1,293.6 708.2,295.9 709.2,295.9 710.3,298.1 711.3,284.7 712.4,294.9 713.4,298.6 714.5,296.3 715.6,294.2 716.6,300.6 717.7,294.3 718.7,295.9 719.8,303.8 720.8,295.8 721.9,302.6 723.0,297.7 724.0,300.0 725.1,300.7 726.1,298.3 727.2,294.8 728.2,295.8 729.3,303.0 730.3,295.6 731.4,296.0 732.5,295.2 733.5,295.3 734.6,295.0 735.6,299.9 736.7,299.0 737.7,295.9 738.8,303.3 739.9,302.9 740.9,298.2 742.0,305.5 743.0,300.9 744.1,300.4 745.1,305.2 746.2,295.8 747.3,301.8 748.3,303.2 749.4,304.6 750.4,299.1 751.5,301.0 752.5,298.0 753.6,298.8 754.7,297.3 755.7,300.8 756.8,295.9 757.8,293.0 758.9,284.2 759.9,298.8 761.0,293.9 762.1,298.9 763.1,298.8 764.2,298.0 765.2,291.0 766.3,292.3 767.3,298.2 768.4,297.5 769.5,297.5 770.5,298.5 771.6,288.2 772.6,296.5 773.7,297.3 774.7,301.7 775.8,301.0 776.9,305.4 777.9,295.8 779.0,295.1 780.0,299.8 781.1,289.6 782.1,296.7 783.2,295.1 784.3,295.1 785.3,294.8 786.4,297.5 787.4,299.5 788.5,295.8 789.5,297.0 790.6,291.7 791.7,285.1 792.7,299.7 793.8,301.0 794.8,293.6 795.9,302.3 796.9,297.5 798.0,307.7 799.1,292.5 800.1,304.9 801.2,304.1 802.2,291.9 803.3,305.2 804.3,297.8 805.4,298.1 806.5,307.4 807.5,305.4 808.6,294.0 809.6,284.5 810.7,295.6 811.7,281.6 812.8,295.8 813.9,307.1 814.9,303.5 816.0,299.2 817.0,301.5 818.1,309.0 819.1,287.8 820.2,293.3 821.3,314.3 822.3,300.8 823.4,304.2 824.4,299.2 825.5,305.4 826.5,297.5 827.6,303.5 828.7,297.3 829.7,286.2 830.8,295.6 831.8,293.4 832.9,295.3 833.9,292.6 835.0,295.0 836.1,297.5 837.1,303.2 838.2,307.8 839.2,295.2 840.3,306.6 841.3,305.0 842.4,305.4 843.5,303.1 844.5,297.4 845.6,293.5 846.6,305.0 847.7,310.4 848.7,306.6 849.8,309.4 850.9,304.0 851.9,307.8 853.0,308.2 854.0,299.0 855.1,288.2 856.1,297.1 857.2,298.1 858.3,298.5 859.3,298.7 860.4,295.2 861.4,305.8 862.5,307.8 863.5,304.4 864.6,309.3 865.7,306.7 866.7,303.2 867.8,303.6 868.8,296.5 869.9,304.1 870.9,305.5 872.0,308.2 873.1,291.8 874.1,301.9 875.2,305.3 876.2,302.2 877.3,300.9 878.3,302.7 879.4,294.9 880.5,295.0 881.5,295.3 882.6,299.1 883.6,299.0 884.7,300.9 885.7,304.6 886.8,307.3 887.9,303.1 888.9,300.9 890.0,303.0 891.0,290.9 892.1,301.1 893.1,301.9 894.2,302.0 895.3,295.6 896.3,306.6 897.4,304.1 898.4,288.8 899.5,297.4 900.5,295.3 901.6,295.7 902.7,296.1 903.7,306.3 904.8,300.3 905.8,304.9 906.9,295.7 907.9,303.6 909.0,305.1 910.1,302.6 911.1,301.6 912.2,285.2 913.2,304.3 914.3,334.7 915.3,343.7 916.4,343.8 917.5,343.5 918.5,344.0 919.6,319.0 920.6,342.2 921.7,343.1 922.7,342.6 923.8,343.4 924.9,343.4 925.9,343.4 927.0,338.9 928.0,343.5 929.1,344.5 930.1,342.7 931.2,342.0 932.3,343.8 933.3,343.0 934.4,343.2 935.4,340.3 936.5,342.7 937.5,343.4 938.6,342.2 939.7,343.9 940.7,341.8 941.8,341.2 942.8,342.8 943.9,342.4 944.9,343.3 946.0,346.0" fill="none" stroke="#2563eb" stroke-width="2.2" stroke-linejoin="round" stroke-linecap="round"/>
<polyline points="76.0,311.4 77.1,324.9 78.1,334.1 79.2,334.5 80.2,335.0 81.3,334.6 82.3,334.3 83.4,330.8 84.5,334.6 85.5,334.6 86.6,320.5 87.6,334.6 88.7,334.2 89.7,330.7 90.8,334.4 91.9,333.8 92.9,321.1 94.0,330.5 95.0,332.4 96.1,310.6 97.1,302.9 98.2,305.9 99.3,320.5 100.3,315.5 101.4,310.4 102.4,329.8 103.5,333.4 104.5,312.5 105.6,335.0 106.7,319.0 107.7,330.5 108.8,283.8 109.8,300.4 110.9,303.3 111.9,308.3 113.0,331.3 114.1,312.5 115.1,310.6 116.2,334.9 117.2,335.0 118.3,329.7 119.3,310.6 120.4,310.6 121.5,312.5 122.5,340.8 123.6,334.9 124.6,308.9 125.7,310.3 126.7,334.9 127.8,335.3 128.9,334.1 129.9,333.4 131.0,333.9 132.0,334.6 133.1,331.5 134.1,334.6 135.2,330.9 136.3,334.3 137.3,334.6 138.4,334.2 139.4,335.0 140.5,334.9 141.5,334.9 142.6,344.0 143.7,335.7 144.7,334.9 145.8,334.9 146.8,330.7 147.9,344.0 148.9,335.6 150.0,336.2 151.1,336.2 152.1,335.0 153.2,338.1 154.2,336.2 155.3,336.1 156.3,335.1 157.4,335.0 158.5,335.0 159.5,334.5 160.6,335.0 161.6,334.6 162.7,334.6 163.7,335.0 164.8,335.0 165.9,335.0 166.9,334.3 168.0,334.9 169.0,334.8 170.1,330.7 171.1,334.7 172.2,312.2 173.3,329.6 174.3,331.1 175.4,333.8 176.4,344.0 177.5,330.6 178.5,333.8 179.6,335.0 180.7,336.2 181.7,334.7 182.8,334.7 183.8,334.8 184.9,334.5 185.9,331.0 187.0,330.5 188.1,331.5 189.1,333.0 190.2,335.0 191.2,334.9 192.3,334.9 193.3,334.1 194.4,334.9 195.5,334.9 196.5,331.5 197.6,332.3 198.6,336.2 199.7,344.0 200.7,336.1 201.8,335.0 202.9,310.1 203.9,334.9 205.0,334.5 206.0,334.7 207.1,333.8 208.1,334.9 209.2,334.0 210.3,334.9 211.3,334.9 212.4,334.9 213.4,335.0 214.5,334.7 215.5,333.1 216.6,334.9 217.7,335.0 218.7,335.0 219.8,334.1 220.8,334.2 221.9,330.3 222.9,310.6 224.0,298.7 225.1,309.8 226.1,304.4 227.2,310.2 228.2,310.1 229.3,327.6 230.3,333.0 231.4,333.8 232.5,333.8 233.5,334.9 234.6,334.9 235.6,333.8 236.7,334.7 237.7,334.7 238.8,334.6 239.9,344.0 240.9,334.9 242.0,334.9 243.0,335.0 244.1,335.0 245.1,333.8 246.2,334.4 247.3,330.9 248.3,319.7 249.4,298.7 250.4,334.1 251.5,326.9 252.5,334.7 253.6,331.7 254.7,331.8 255.7,331.4 256.8,334.7 257.8,334.4 258.9,334.6 259.9,334.6 261.0,330.7 262.1,330.7 263.1,334.9 264.2,334.4 265.2,331.0 266.3,334.6 267.3,335.0 268.4,334.6 269.5,334.9 270.5,330.5 271.6,334.3 272.6,315.6 273.7,334.6 274.7,298.7 275.8,334.0 276.9,329.7 277.9,332.5 279.0,331.8 280.0,310.6 281.1,331.8 282.1,332.3 283.2,334.6 284.3,323.8 285.3,334.0 286.4,295.8 287.4,298.7 288.5,327.1 289.5,331.1 290.6,330.7 291.7,332.3 292.7,334.6 293.8,334.7 294.8,334.1 295.9,324.8 296.9,315.1 298.0,308.6 299.0,305.4 300.1,298.7 301.2,306.5 302.2,305.4 303.3,331.7 304.3,305.5 305.4,317.0 306.4,333.4 307.5,335.0 308.6,334.1 309.6,335.0 310.7,334.9 311.7,333.7 312.8,335.0 313.8,319.7 314.9,319.7 316.0,334.1 317.0,333.8 318.1,333.4 319.1,334.7 320.2,334.6 321.2,331.3 322.3,305.4 323.4,308.2 324.4,308.3 325.5,298.7 326.5,310.2 327.6,335.5 328.6,336.2 329.7,312.5 330.8,334.5 331.8,336.2 332.9,335.9 333.9,336.2 335.0,335.0 336.0,333.8 337.1,334.3 338.2,334.4 339.2,333.5 340.3,334.6 341.3,334.4 342.4,329.6 343.4,308.9 344.5,334.1 345.6,308.2 346.6,334.4 347.7,310.7 348.7,310.3 349.8,325.1 350.8,305.5 351.9,319.7 353.0,344.0 354.0,315.6 355.1,334.2 356.1,308.2 357.2,309.9 358.2,330.0 359.3,334.1 360.4,335.0 361.4,333.2 362.5,323.8 363.5,333.8 364.6,308.2 365.6,306.1 366.7,323.8 367.8,315.6 368.8,333.4 369.9,332.6 370.9,303.2 372.0,334.1 373.0,334.7 374.1,326.5 375.2,333.8 376.2,320.8 377.3,333.7 378.3,333.7 379.4,334.1 380.4,330.7 381.5,331.7 382.6,333.7 383.6,334.6 384.7,333.8 385.7,333.0 386.8,310.6 387.8,334.7 388.9,330.7 390.0,345.9 391.0,333.8 392.1,334.7 393.1,333.7 394.2,334.7 395.2,334.7 396.3,310.6 397.4,315.4 398.4,332.0 399.5,310.5 400.5,331.7 401.6,305.3 402.6,330.5 403.7,326.9 404.8,302.2 405.8,309.7 406.9,335.8 407.9,333.4 409.0,334.9 410.0,334.4 411.1,306.5 412.2,306.5 413.2,318.3 414.3,320.1 415.3,323.6 416.4,331.7 417.4,310.6 418.5,305.4 419.6,308.2 420.6,331.8 421.7,305.2 422.7,330.5 423.8,334.1 424.8,326.7 425.9,330.7 427.0,305.4 428.0,308.2 429.1,333.8 430.1,334.1 431.2,335.0 432.2,340.8 433.3,336.1 434.4,336.1 435.4,335.0 436.5,336.2 437.5,335.8 438.6,333.8 439.6,334.4 440.7,334.9 441.8,334.8 442.8,334.9 443.9,334.6 444.9,331.8 446.0,334.5 447.0,335.0 448.1,329.1 449.2,330.7 450.2,325.8 451.3,325.3 452.3,308.2 453.4,333.5 454.4,308.4 455.5,310.3 456.6,330.5 457.6,319.6 458.7,308.3 459.7,334.6 460.8,318.7 461.8,335.8 462.9,335.0 464.0,297.6 465.0,305.3 466.1,325.3 467.1,325.7 468.2,318.9 469.2,310.3 470.3,334.9 471.4,321.3 472.4,334.2 473.5,331.5 474.5,329.7 475.6,309.6 476.6,308.4 477.7,298.7 478.8,302.7 479.8,305.5 480.9,309.0 481.9,331.7 483.0,334.0 484.0,329.6 485.1,334.7 486.2,333.8 487.2,335.0 488.3,334.0 489.3,334.0 490.4,325.3 491.4,334.9 492.5,334.5 493.6,334.6 494.6,334.7 495.7,334.7 496.7,334.7 497.8,334.6 498.8,334.1 499.9,326.9 501.0,326.6 502.0,305.4 503.1,343.0 504.1,335.3 505.2,344.0 506.2,335.0 507.3,329.1 508.4,301.0 509.4,334.2 510.5,334.1 511.5,315.6 512.6,335.0 513.6,334.1 514.7,334.6 515.8,333.6 516.8,330.5 517.9,330.4 518.9,333.8 520.0,335.0 521.0,334.9 522.1,333.1 523.2,334.4 524.2,310.5 525.3,332.0 526.3,310.1 527.4,332.7 528.4,305.4 529.5,309.8 530.6,310.6 531.6,330.0 532.7,333.8 533.7,332.4 534.8,335.3 535.8,318.3 536.9,334.7 538.0,336.2 539.0,331.3 540.1,325.7 541.1,334.6 542.2,331.3 543.2,331.8 544.3,334.7 545.4,334.5 546.4,333.8 547.5,330.7 548.5,334.9 549.6,334.8 550.6,331.7 551.7,333.2 552.8,310.7 553.8,330.5 554.9,308.2 555.9,308.4 557.0,305.4 558.0,330.4 559.1,326.9 560.2,330.4 561.2,334.9 562.3,331.5 563.3,335.0 564.4,334.6 565.4,334.1 566.5,334.9 567.6,334.7 568.6,335.0 569.7,333.8 570.7,335.0 571.8,333.3 572.8,334.6 573.9,335.0 575.0,332.7 576.0,283.6 577.1,333.8 578.1,335.0 579.2,319.3 580.2,331.1 581.3,329.7 582.4,331.8 583.4,334.1 584.5,334.6 585.5,334.9 586.6,334.7 587.6,334.6 588.7,334.8 589.8,335.0 590.8,334.9 591.9,335.0 592.9,334.9 594.0,334.7 595.0,334.9 596.1,335.0 597.2,334.7 598.2,334.1 599.3,335.7 600.3,334.1 601.4,334.4 602.4,305.3 603.5,319.6 604.6,309.3 605.6,300.7 606.7,310.4 607.7,330.5 608.8,310.6 609.8,330.5 610.9,333.0 612.0,334.7 613.0,333.8 614.1,334.1 615.1,330.9 616.2,334.7 617.2,334.9 618.3,334.9 619.4,305.4 620.4,334.4 621.5,331.0 622.5,335.0 623.6,333.8 624.6,335.0 625.7,333.8 626.8,334.9 627.8,310.6 628.9,334.3 629.9,306.4 631.0,308.4 632.0,333.8 633.1,330.9 634.2,334.1 635.2,329.7 636.3,334.3 637.3,305.3 638.4,330.7 639.4,328.8 640.5,333.8 641.6,295.8 642.6,334.6 643.7,310.6 644.7,310.6 645.8,333.8 646.8,318.4 647.9,318.5 649.0,334.1 650.0,334.9 651.1,334.1 652.1,334.1 653.2,330.4 654.2,308.2 655.3,308.2 656.4,310.2 657.4,333.8 658.5,310.6 659.5,310.4 660.6,327.3 661.6,332.0 662.7,335.0 663.8,334.6 664.8,334.0 665.9,334.6 666.9,334.5 668.0,330.7 669.0,333.5 670.1,331.5 671.2,334.6 672.2,334.1 673.3,333.8 674.3,330.7 675.4,334.7 676.4,334.9 677.5,332.0 678.6,307.0 679.6,326.1 680.7,305.4 681.7,306.4 682.8,309.0 683.8,306.4 684.9,334.6 686.0,327.0 687.0,333.8 688.1,333.1 689.1,334.1 690.2,335.0 691.2,334.6 692.3,333.9 693.4,333.8 694.4,334.7 695.5,330.7 696.5,331.8 697.6,334.9 698.6,334.1 699.7,334.6 700.8,334.9 701.8,327.5 702.9,335.0 703.9,333.6 705.0,319.7 706.0,302.9 707.1,310.1 708.2,327.5 709.2,326.8 710.3,323.6 711.3,298.7 712.4,310.6 713.4,331.1 714.5,330.7 715.6,334.6 716.6,324.5 717.7,323.8 718.7,330.4 719.8,333.8 720.8,330.7 721.9,334.6 723.0,323.9 724.0,333.1 725.1,334.1 726.1,325.7 727.2,309.1 728.2,315.6 729.3,333.8 730.3,308.5 731.4,306.5 732.5,308.2 733.5,310.2 734.6,312.5 735.6,331.0 736.7,331.9 737.7,317.9 738.8,334.6 739.9,335.0 740.9,335.0 742.0,335.0 743.0,334.6 744.1,333.8 745.1,334.9 746.2,330.4 747.3,334.3 748.3,334.6 749.4,334.2 750.4,333.8 751.5,335.0 752.5,330.7 753.6,333.8 754.7,315.5 755.7,330.7 756.8,305.4 757.8,324.4 758.9,306.5 759.9,331.8 761.0,308.9 762.1,333.8 763.1,333.8 764.2,331.2 765.2,310.7 766.3,333.8 767.3,330.0 768.4,327.2 769.5,323.8 770.5,330.0 771.6,305.0 772.6,312.5 773.7,333.8 774.7,332.0 775.8,329.7 776.9,333.8 777.9,322.8 779.0,308.3 780.0,310.4 781.1,305.2 782.1,305.4 783.2,308.2 784.3,310.7 785.3,310.1 786.4,319.6 787.4,325.7 788.5,330.8 789.5,330.9 790.6,305.4 791.7,305.2 792.7,333.8 793.8,331.0 794.8,305.4 795.9,334.7 796.9,308.3 798.0,334.1 799.1,334.7 800.1,332.8 801.2,332.9 802.2,308.2 803.3,335.0 804.3,330.4 805.4,310.4 806.5,330.0 807.5,326.8 808.6,305.9 809.6,306.4 810.7,323.8 811.7,296.7 812.8,334.1 813.9,335.0 814.9,335.0 816.0,331.5 817.0,334.7 818.1,335.0 819.1,304.3 820.2,308.2 821.3,335.0 822.3,331.7 823.4,334.4 824.4,331.2 825.5,334.7 826.5,331.7 827.6,321.5 828.7,334.9 829.7,331.9 830.8,310.4 831.8,308.3 832.9,305.4 833.9,305.9 835.0,305.7 836.1,324.6 837.1,330.7 838.2,334.5 839.2,331.6 840.3,335.0 841.3,335.0 842.4,335.0 843.5,322.4 844.5,334.9 845.6,331.1 846.6,335.0 847.7,344.0 848.7,344.0 849.8,344.0 850.9,334.6 851.9,335.0 853.0,335.0 854.0,334.4 855.1,311.6 856.1,308.9 857.2,308.2 858.3,308.1 859.3,330.3 860.4,308.6 861.4,337.4 862.5,335.0 863.5,335.0 864.6,335.0 865.7,331.8 866.7,332.0 867.8,334.1 868.8,330.5 869.9,334.6 870.9,335.0 872.0,334.9 873.1,312.5 874.1,333.8 875.2,332.0 876.2,333.8 877.3,331.7 878.3,331.0 879.4,310.7 880.5,308.6 881.5,314.0 882.6,327.1 883.6,304.8 884.7,340.8 885.7,341.6 886.8,335.0 887.9,334.6 888.9,334.6 890.0,324.6 891.0,317.8 892.1,346.0 893.1,334.6 894.2,334.9 895.3,317.9 896.3,344.0 897.4,334.0 898.4,321.7 899.5,332.8 900.5,325.5 901.6,333.8 902.7,313.7 903.7,334.6 904.8,328.5 905.8,331.2 906.9,305.4 907.9,331.0 909.0,310.0 910.1,331.4 911.1,330.2 912.2,290.8 913.2,335.0 914.3,347.8 915.3,350.1 916.4,349.4 917.5,346.1 918.5,349.4 919.6,341.0 920.6,346.4 921.7,349.3 922.7,344.7 923.8,345.1 924.9,349.2 925.9,349.4 927.0,343.5 928.0,350.0 929.1,350.1 930.1,347.6 931.2,344.8 932.3,349.2 933.3,345.2 934.4,344.1 935.4,344.7 936.5,345.7 937.5,346.1 938.6,345.7 939.7,349.5 940.7,345.1 941.8,349.3 942.8,348.7 943.9,346.1 944.9,345.8 946.0,351.6" fill="none" stroke="#059669" stroke-width="2.2" stroke-linejoin="round" stroke-linecap="round"/>
<polyline points="76.0,208.9 77.1,216.7 78.1,223.4 79.2,228.3 80.2,236.4 81.3,228.3 82.3,223.3 83.4,216.9 84.5,223.4 85.5,223.3 86.6,199.8 87.6,223.4 88.7,224.6 89.7,223.3 90.8,226.2 91.9,227.6 92.9,211.5 94.0,216.7 95.0,236.0 96.1,216.6 97.1,215.8 98.2,199.8 99.3,220.3 100.3,223.2 101.4,223.4 102.4,220.5 103.5,223.3 104.5,213.2 105.6,216.6 106.7,200.1 107.7,199.8 108.8,160.5 109.8,170.2 110.9,170.2 111.9,209.6 113.0,215.8 114.1,209.6 115.1,208.2 116.2,233.3 117.2,241.0 118.3,230.2 119.3,223.3 120.4,223.8 121.5,223.4 122.5,227.6 123.6,220.4 124.6,213.7 125.7,221.6 126.7,214.1 127.8,236.4 128.9,233.9 129.9,228.8 131.0,229.4 132.0,230.2 133.1,223.4 134.1,223.4 135.2,224.4 136.3,227.8 137.3,231.4 138.4,223.4 139.4,236.4 140.5,240.4 141.5,233.6 142.6,244.6 143.7,239.4 144.7,240.4 145.8,238.9 146.8,236.3 147.9,251.7 148.9,206.3 150.0,236.6 151.1,237.6 152.1,234.6 153.2,248.7 154.2,242.6 155.3,246.3 156.3,241.1 157.4,232.3 158.5,233.3 159.5,228.3 160.6,223.5 161.6,229.7 162.7,233.3 163.7,246.1 164.8,238.6 165.9,241.0 166.9,231.4 168.0,230.1 169.0,230.4 170.1,216.6 171.1,239.0 172.2,223.4 173.3,231.9 174.3,231.4 175.4,242.9 176.4,248.9 177.5,223.4 178.5,227.9 179.6,242.4 180.7,237.1 181.7,229.7 182.8,234.8 183.8,236.4 184.9,233.2 185.9,223.4 187.0,223.4 188.1,230.1 189.1,233.2 190.2,241.8 191.2,237.6 192.3,246.3 193.3,230.4 194.4,230.5 195.5,237.1 196.5,236.4 197.6,236.6 198.6,241.3 199.7,240.4 200.7,240.4 201.8,233.2 202.9,200.3 203.9,223.3 205.0,223.4 206.0,216.6 207.1,229.6 208.1,233.3 209.2,231.4 210.3,233.3 211.3,230.8 212.4,236.3 213.4,236.3 214.5,233.3 215.5,230.2 216.6,238.7 217.7,238.8 218.7,237.6 219.8,228.0 220.8,226.9 221.9,237.0 222.9,226.6 224.0,232.3 225.1,231.4 226.1,207.0 227.2,223.4 228.2,223.3 229.3,223.3 230.3,225.0 231.4,223.4 232.5,236.4 233.5,236.4 234.6,231.9 235.6,230.2 236.7,235.6 237.7,236.3 238.8,236.7 239.9,251.5 240.9,233.3 242.0,233.3 243.0,241.1 244.1,241.0 245.1,233.3 246.2,232.1 247.3,225.6 248.3,223.4 249.4,241.1 250.4,223.4 251.5,199.8 252.5,231.6 253.6,233.2 254.7,223.4 255.7,228.7 256.8,233.2 257.8,236.4 258.9,233.2 259.9,232.6 261.0,233.7 262.1,223.4 263.1,238.3 264.2,233.9 265.2,223.4 266.3,232.6 267.3,238.6 268.4,240.5 269.5,247.9 270.5,224.1 271.6,223.3 272.6,224.5 273.7,234.8 274.7,247.0 275.8,227.7 276.9,223.2 277.9,223.4 279.0,225.2 280.0,222.6 281.1,229.5 282.1,223.4 283.2,228.1 284.3,212.0 285.3,223.2 286.4,160.5 287.4,171.2 288.5,200.0 289.5,210.4 290.6,201.5 291.7,223.4 292.7,232.3 293.8,227.9 294.8,226.7 295.9,216.8 296.9,216.6 298.0,223.4 299.0,200.0 300.1,227.0 301.2,199.8 302.2,199.8 303.3,223.4 304.3,210.4 305.4,217.0 306.4,224.4 307.5,223.4 308.6,224.5 309.6,224.1 310.7,226.6 311.7,223.4 312.8,233.2 313.8,208.9 314.9,221.6 316.0,233.3 317.0,232.1 318.1,223.3 319.1,228.3 320.2,230.2 321.2,223.3 322.3,202.6 323.4,220.4 324.4,223.2 325.5,257.5 326.5,219.7 327.6,214.4 328.6,240.0 329.7,215.3 330.8,228.3 331.8,233.5 332.9,241.1 333.9,240.7 335.0,233.2 336.0,233.2 337.1,227.4 338.2,223.4 339.2,240.4 340.3,231.6 341.3,230.9 342.4,218.4 343.4,210.8 344.5,228.0 345.6,182.3 346.6,231.0 347.7,214.8 348.7,222.1 349.8,223.4 350.8,227.6 351.9,214.7 353.0,240.7 354.0,215.1 355.1,221.5 356.1,199.7 357.2,197.1 358.2,195.3 359.3,216.6 360.4,210.6 361.4,223.4 362.5,170.2 363.5,220.5 364.6,205.1 365.6,205.7 366.7,199.8 367.8,221.7 368.8,228.0 369.9,223.4 370.9,168.9 372.0,223.3 373.0,231.5 374.1,223.2 375.2,223.4 376.2,176.3 377.3,200.3 378.3,226.2 379.4,231.6 380.4,223.4 381.5,209.8 382.6,233.3 383.6,232.6 384.7,224.4 385.7,223.4 386.8,220.4 387.8,230.2 388.9,223.3 390.0,251.8 391.0,231.2 392.1,231.4 393.1,230.2 394.2,233.1 395.2,233.1 396.3,224.5 397.4,223.2 398.4,223.3 399.5,223.3 400.5,223.3 401.6,214.8 402.6,223.4 403.7,214.7 404.8,213.3 405.8,223.3 406.9,233.1 407.9,214.9 409.0,223.3 410.0,219.0 411.1,209.6 412.2,200.3 413.2,215.1 414.3,223.3 415.3,215.1 416.4,232.5 417.4,223.3 418.5,205.7 419.6,207.1 420.6,223.3 421.7,223.4 422.7,223.3 423.8,233.2 424.8,223.4 425.9,234.8 427.0,223.2 428.0,223.0 429.1,223.4 430.1,223.9 431.2,231.1 432.2,248.1 433.3,233.3 434.4,235.7 435.4,239.4 436.5,233.2 437.5,229.7 438.6,215.5 439.6,231.7 440.7,233.2 441.8,233.2 442.8,233.1 443.9,228.3 444.9,225.3 446.0,231.2 447.0,240.6 448.1,220.4 449.2,223.3 450.2,223.4 451.3,228.4 452.3,226.3 453.4,226.6 454.4,210.1 455.5,213.3 456.6,220.4 457.6,226.5 458.7,213.9 459.7,223.3 460.8,215.7 461.8,224.2 462.9,233.2 464.0,170.2 465.0,199.8 466.1,223.3 467.1,200.5 468.2,212.4 469.2,214.7 470.3,233.1 471.4,221.6 472.4,228.3 473.5,223.3 474.5,215.7 475.6,212.4 476.6,200.0 477.7,192.4 478.8,194.7 479.8,208.9 480.9,200.0 481.9,215.1 483.0,228.0 484.0,213.3 485.1,233.3 486.2,223.1 487.2,222.6 488.3,223.4 489.3,218.9 490.4,223.2 491.4,240.4 492.5,226.2 493.6,231.5 494.6,233.2 495.7,226.7 496.7,233.2 497.8,236.3 498.8,240.4 499.9,223.5 501.0,224.2 502.0,223.4 503.1,233.2 504.1,227.7 505.2,223.4 506.2,231.7 507.3,226.6 508.4,92.4 509.4,215.1 510.5,223.3 511.5,213.8 512.6,231.5 513.6,230.2 514.7,223.4 515.8,223.4 516.8,223.3 517.9,220.4 518.9,223.2 520.0,233.2 521.0,238.4 522.1,233.2 523.2,231.7 524.2,213.9 525.3,223.4 526.3,223.3 527.4,238.0 528.4,232.3 529.5,217.1 530.6,212.6 531.6,230.2 532.7,226.8 533.7,230.5 534.8,233.4 535.8,200.3 536.9,233.3 538.0,233.3 539.0,216.7 540.1,220.5 541.1,228.0 542.2,220.3 543.2,219.8 544.3,226.9 545.4,231.9 546.4,233.0 547.5,223.3 548.5,237.7 549.6,240.3 550.6,225.0 551.7,236.6 552.8,223.3 553.8,227.9 554.9,211.9 555.9,214.8 557.0,214.8 558.0,223.3 559.1,223.3 560.2,217.0 561.2,234.2 562.3,224.1 563.3,231.5 564.4,223.4 565.4,223.4 566.5,236.6 567.6,216.9 568.6,233.6 569.7,224.5 570.7,236.6 571.8,223.3 572.8,231.8 573.9,231.4 575.0,223.2 576.0,168.8 577.1,223.3 578.1,224.5 579.2,224.6 580.2,226.7 581.3,223.4 582.4,223.3 583.4,239.7 584.5,223.4 585.5,230.2 586.6,223.4 587.6,228.4 588.7,226.6 589.8,238.6 590.8,232.1 591.9,236.6 592.9,236.3 594.0,232.3 595.0,236.4 596.1,233.6 597.2,240.4 598.2,223.4 599.3,241.1 600.3,212.7 601.4,225.1 602.4,205.7 603.5,213.8 604.6,223.4 605.6,201.9 606.7,223.3 607.7,223.1 608.8,223.4 609.8,231.5 610.9,223.4 612.0,236.3 613.0,223.3 614.1,226.9 615.1,222.4 616.2,223.4 617.2,234.7 618.3,235.8 619.4,200.3 620.4,230.5 621.5,230.2 622.5,235.3 623.6,230.2 624.6,232.1 625.7,216.6 626.8,232.6 627.8,212.7 628.9,230.1 629.9,222.9 631.0,219.7 632.0,225.0 633.1,223.4 634.2,223.4 635.2,219.7 636.3,229.3 637.3,196.0 638.4,220.2 639.4,212.0 640.5,231.5 641.6,170.2 642.6,230.2 643.7,199.8 644.7,220.0 645.8,216.7 646.8,210.0 647.9,215.8 649.0,239.5 650.0,231.5 651.1,223.3 652.1,227.9 653.2,223.3 654.2,209.9 655.3,223.4 656.4,207.1 657.4,223.3 658.5,200.0 659.5,199.8 660.6,201.8 661.6,223.4 662.7,235.0 663.8,223.4 664.8,216.6 665.9,230.6 666.9,231.6 668.0,219.9 669.0,223.3 670.1,214.8 671.2,231.3 672.2,230.2 673.3,231.4 674.3,236.4 675.4,240.4 676.4,229.4 677.5,228.0 678.6,218.7 679.6,227.7 680.7,227.9 681.7,204.0 682.8,220.5 683.8,215.5 684.9,226.7 686.0,224.4 687.0,225.1 688.1,232.1 689.1,231.5 690.2,223.4 691.2,229.2 692.3,236.3 693.4,223.7 694.4,237.1 695.5,225.0 696.5,231.4 697.6,236.4 698.6,236.3 699.7,233.4 700.8,237.6 701.8,212.1 702.9,228.0 703.9,233.2 705.0,222.8 706.0,223.2 707.1,222.2 708.2,222.3 709.2,215.1 710.3,223.4 711.3,172.5 712.4,210.3 713.4,223.3 714.5,214.0 715.6,217.9 716.6,231.6 717.7,215.8 718.7,214.9 719.8,232.2 720.8,222.0 721.9,227.8 723.0,223.3 724.0,223.3 725.1,230.1 726.1,220.4 727.2,211.4 728.2,208.2 729.3,232.5 730.3,223.1 731.4,224.4 732.5,218.9 733.5,223.2 734.6,211.8 735.6,228.8 736.7,223.6 737.7,223.3 738.8,233.2 739.9,229.9 740.9,223.3 742.0,236.3 743.0,223.7 744.1,223.4 745.1,236.8 746.2,214.8 747.3,230.2 748.3,227.6 749.4,234.1 750.4,223.7 751.5,225.3 752.5,222.3 753.6,223.4 754.7,224.5 755.7,223.4 756.8,218.4 757.8,208.6 758.9,195.0 759.9,224.5 761.0,212.1 762.1,229.2 763.1,223.3 764.2,223.3 765.2,199.9 766.3,208.3 767.3,223.4 768.4,217.7 769.5,220.4 770.5,223.4 771.6,189.0 772.6,215.4 773.7,223.4 774.7,230.2 775.8,224.4 776.9,233.2 777.9,219.1 779.0,216.6 780.0,233.2 781.1,198.6 782.1,223.3 783.2,223.6 784.3,216.6 785.3,223.3 786.4,223.4 787.4,223.4 788.5,221.2 789.5,215.8 790.6,200.2 791.7,183.2 792.7,223.4 793.8,223.7 794.8,200.5 795.9,227.0 796.9,226.5 798.0,241.1 799.1,239.9 800.1,237.3 801.2,236.6 802.2,192.0 803.3,244.7 804.3,208.6 805.4,233.3 806.5,241.0 807.5,240.2 808.6,223.5 809.6,174.1 810.7,223.3 811.7,194.8 812.8,229.1 813.9,236.2 814.9,241.0 816.0,220.4 817.0,228.1 818.1,256.0 819.1,170.2 820.2,200.3 821.3,256.2 822.3,223.4 823.4,226.1 824.4,223.3 825.5,236.7 826.5,223.3 827.6,230.2 828.7,216.6 829.7,181.2 830.8,223.4 831.8,204.6 832.9,210.1 833.9,208.6 835.0,200.0 836.1,223.8 837.1,227.4 838.2,243.2 839.2,213.2 840.3,240.6 841.3,224.6 842.4,231.9 843.5,230.1 844.5,241.0 845.6,229.3 846.6,237.6 847.7,247.8 848.7,245.3 849.8,252.0 850.9,236.3 851.9,238.6 853.0,240.9 854.0,199.5 855.1,194.9 856.1,224.5 857.2,218.0 858.3,223.5 859.3,216.6 860.4,216.7 861.4,233.1 862.5,236.3 863.5,237.1 864.6,245.8 865.7,238.2 866.7,237.1 867.8,230.7 868.8,207.1 869.9,236.3 870.9,233.2 872.0,240.9 873.1,213.1 874.1,223.4 875.2,236.4 876.2,227.7 877.3,224.6 878.3,230.2 879.4,214.8 880.5,222.2 881.5,216.8 882.6,223.3 883.6,229.9 884.7,224.9 885.7,227.8 886.8,257.6 887.9,230.2 888.9,236.7 890.0,235.8 891.0,223.4 892.1,231.8 893.1,223.4 894.2,223.3 895.3,211.7 896.3,242.1 897.4,225.6 898.4,200.2 899.5,220.4 900.5,223.3 901.6,223.4 902.7,214.7 903.7,233.5 904.8,223.3 905.8,238.6 906.9,223.3 907.9,241.1 909.0,240.4 910.1,223.4 911.1,225.0 912.2,198.4 913.2,237.3 914.3,299.1 915.3,332.3 916.4,333.7 917.5,330.9 918.5,331.5 919.6,256.7 920.6,327.6 921.7,327.7 922.7,331.7 923.8,333.7 924.9,332.3 925.9,331.6 927.0,322.4 928.0,331.5 929.1,332.9 930.1,331.0 931.2,328.4 932.3,333.2 933.3,329.7 934.4,329.7 935.4,329.6 936.5,330.4 937.5,331.5 938.6,327.6 939.7,331.5 940.7,329.1 941.8,327.7 942.8,330.2 943.9,328.4 944.9,331.3 946.0,336.5" fill="none" stroke="#d97706" stroke-width="2.2" stroke-linejoin="round" stroke-linecap="round"/>
<line x1="76" y1="70" x2="94" y2="70" stroke="#2563eb" stroke-width="3"/>
<text x="100" y="74" font-family="Arial, sans-serif" font-size="11" fill="#0f172a">avg fee</text>
<line x1="179" y1="70" x2="197" y2="70" stroke="#059669" stroke-width="3"/>
<text x="203" y="74" font-family="Arial, sans-serif" font-size="11" fill="#0f172a">median fee</text>
<line x1="303" y1="70" x2="321" y2="70" stroke="#d97706" stroke-width="3"/>
<text x="327" y="74" font-family="Arial, sans-serif" font-size="11" fill="#0f172a">p90 fee</text>
<text x="28" y="404" font-family="Arial, sans-serif" font-size="11" fill="#64748b">Source: hourly_features.csv</text>
</svg>