<svg xmlns="http://www.w3.org/2000/svg" width="980" height="420" viewBox="0 0 980 420">
<rect width="100%" height="100%" fill="#ffffff"/>
<text x="28" y="34" font-family="Arial, sans-serif" font-size="20" font-weight="700" fill="#0f172a">Hourly fee trend</text>
<text x="28" y="56" font-family="Arial, sans-serif" font-size="12" fill="#64748b">Average, median, and p90 total fee by hour</text>
<line x1="76" y1="362.0" x2="946" y2="362.0" stroke="#e2e8f0" stroke-width="1"/>
<text x="68" y="366.0" font-family="Arial, sans-serif" font-size="10" text-anchor="end" fill="#64748b">-124K</text>
<line x1="76" y1="292.0" x2="946" y2="292.0" stroke="#e2e8f0" stroke-width="1"/>
<text x="68" y="296.0" font-family="Arial, sans-serif" font-size="10" text-anchor="end" fill="#64748b">2.8M</text>
<line x1="76" y1="222.0" x2="946" y2="222.0" stroke="#e2e8f0" stroke-width="1"/>
<text x="68" y="226.0" font-family="Arial, sans-serif" font-size="10" text-anchor="end" fill="#64748b">5.8M</text>
<line x1="76" y1="152.0" x2="946" y2="152.0" stroke="#e2e8f0" stroke-width="1"/>
<text x="68" y="156.0" font-family="Arial, sans-serif" font-size="10" text-anchor="end" fill="#64748b">8.7M</text>
<line x1="76" y1="82.0" x2="946" y2="82.0" stroke="#e2e8f0" stroke-width="1"/>
<text x="68" y="86.0" font-family="Arial, sans-serif" font-size="10" text-anchor="end" fill="#64748b">11.7M</text>
<line x1="76" y1="362" x2="946" y2="362" stroke="#334155" stroke-width="1"/>
<line x1="76" y1="82" x2="76" y2="362" stroke="#334155" stroke-width="1"/>
<text x="76" y="72" font-family="Arial, sans-serif" font-size="11" fill="#64748b">nanoton</text>
<line x1="76.0" y1="362" x2="76.0" y2="366" stroke="#334155" stroke-width="1"/>
<text x="76.0" y="380" font-family="Arial, sans-serif" font-size="10" text-anchor="middle" fill="#64748b">0</text>
<line x1="511.6" y1="362" x2="511.6" y2="366" stroke="#334155" stroke-width="1"/>
<text x="511.6" y="380" font-family="Arial, sans-serif" font-size="10" text-anchor="middle" fill="#64748b">385</text>
<line x1="946.0" y1="362" x2="946.0" y2="366" stroke="#334155" stroke-width="1"/>
<text x="946.0" y="380" font-family="Arial, sans-serif" font-size="10" text-anchor="middle" fill="#64748b">769</text>
<polyline points="76.0,295.3 77.1,299.2 78.3,300.6 79.4,302.7 80.5,309.6 81.7,301.8 82.8,302.9 83.9,299.2 85.1,303.6 86.2,303.4 87.3,292.2 88.4,304.2 89.6,304.4 90.7,302.0 91.8,305.0 93.0,305.2 94.1,297.0 95.2,297.1 96.4,306.0 97.5,295.6 98.6,293.7 99.8,291.7 100.9,298.4 102.0,298.8 103.2,300.7 104.3,296.6 105.4,302.3 106.5,295.0 107.7,297.8 108.8,292.8 109.9,293.4 111.1,277.2 112.2,289.0 113.3,289.7 114.5,299.2 115.6,304.6 116.7,297.4 117.9,299.5 119.0,309.5 120.1,312.3 121.3,306.9 122.4,301.6 123.5,303.3 124.6,302.6 125.8,309.2 126.9,302.0 128.0,299.0 129.2,301.1 130.3,303.3 131.4,307.8 132.6,307.9 133.7,306.7 134.8,305.0 136.0,308.1 137.1,307.0 138.2,304.1 139.4,303.8 140.5,307.6 141.6,303.8 142.7,306.1 143.9,311.7 145.0,313.5 146.1,311.2 147.3,312.0 148.4,314.0 149.5,310.7 150.7,310.3 151.8,306.8 152.9,313.3 154.1,295.2 155.2,311.2 156.3,311.2 157.5,311.1 158.6,316.2 159.7,312.0 160.9,315.2 162.0,314.0 163.1,310.3 164.2,310.3 165.4,308.0 166.5,308.2 167.6,306.1 168.8,309.9 169.9,312.3 171.0,311.8 172.2,313.0 173.3,309.8 174.4,307.7 175.6,307.5 176.7,303.2 177.8,309.7 179.0,301.7 180.1,304.0 181.2,305.0 182.3,308.7 183.5,316.5 184.6,304.8 185.7,305.2 186.9,313.8 188.0,312.4 189.1,305.0 190.3,309.0 191.4,309.9 192.5,307.4 193.7,305.2 194.8,302.1 195.9,303.4 197.1,306.7 198.2,312.9 199.3,312.3 200.4,312.3 201.6,307.9 202.7,306.6 203.8,308.9 205.0,308.7 206.1,308.8 207.2,313.2 208.4,313.8 209.5,312.2 210.6,305.8 211.8,291.3 212.9,306.3 214.0,303.4 215.2,300.7 216.3,304.3 217.4,310.3 218.5,306.2 219.7,309.8 220.8,306.9 221.9,309.7 223.1,311.6 224.2,309.7 225.3,305.5 226.5,309.6 227.6,312.8 228.7,307.2 229.9,306.5 231.0,307.9 232.1,308.1 233.3,303.6 234.4,303.1 235.5,302.6 236.7,293.9 237.8,301.5 238.9,301.0 240.0,300.1 241.2,304.3 242.3,303.7 243.4,309.4 244.6,308.8 245.7,308.6 246.8,303.9 248.0,305.9 249.1,310.5 250.2,309.3 251.4,317.0 252.5,310.5 253.6,309.1 254.8,311.9 255.9,311.8 257.0,306.7 258.1,308.6 259.3,305.5 260.4,306.4 261.5,304.9 262.7,303.4 263.8,295.1 264.9,300.7 266.1,305.3 267.2,301.2 268.3,307.5 269.5,307.3 270.6,307.8 271.7,307.4 272.9,307.5 274.0,308.5 275.1,304.8 276.2,310.4 277.4,307.7 278.5,303.9 279.6,307.6 280.8,311.5 281.9,311.0 283.0,311.5 284.2,303.1 285.3,306.3 286.4,302.5 287.6,308.6 288.7,304.9 289.8,304.2 291.0,300.2 292.1,302.8 293.2,303.0 294.3,298.3 295.5,304.6 296.6,302.6 297.7,303.3 298.9,298.7 300.0,302.5 301.1,282.2 302.3,288.6 303.4,299.8 304.5,300.3 305.7,298.9 306.8,305.5 307.9,309.1 309.1,307.2 310.2,306.9 311.3,302.6 312.4,299.9 313.6,301.2 314.7,295.9 315.8,296.5 317.0,295.1 318.1,294.5 319.2,304.4 320.4,296.5 321.5,301.4 322.6,304.5 323.8,308.5 324.9,307.2 326.0,306.8 327.2,307.0 328.3,305.6 329.4,308.3 330.6,300.5 331.7,302.4 332.8,309.2 333.9,309.0 335.1,304.2 336.2,308.7 337.3,308.2 338.5,303.7 339.6,293.2 340.7,298.3 341.9,298.7 343.0,308.4 344.1,300.2 345.3,301.6 346.4,310.4 347.5,299.4 348.7,305.2 349.8,309.9 350.9,313.4 352.0,310.3 353.2,308.8 354.3,305.4 355.4,308.6 356.6,303.9 357.7,307.8 358.8,309.8 360.0,307.8 361.1,304.0 362.2,299.0 363.4,304.6 364.5,290.6 365.6,306.9 366.8,298.4 367.9,302.6 369.0,304.1 370.1,302.1 371.3,299.0 372.4,315.3 373.5,296.1 374.7,300.2 375.8,285.9 376.9,299.2 378.1,297.8 379.2,299.6 380.3,295.5 381.5,305.7 382.6,284.1 383.7,301.9 384.9,296.4 386.0,296.0 387.1,287.6 388.2,303.0 389.4,305.1 390.5,303.3 391.6,292.8 392.8,303.7 393.9,309.2 395.0,302.4 396.2,300.1 397.3,284.0 398.4,288.5 399.6,305.2 400.7,304.6 401.8,302.7 403.0,297.9 404.1,307.9 405.2,307.8 406.4,303.3 407.5,301.4 408.6,302.0 409.7,306.1 410.9,302.8 412.0,316.4 413.1,304.1 414.3,308.2 415.4,305.9 416.5,307.7 417.7,309.0 418.8,302.5 419.9,299.0 421.1,303.9 422.2,299.7 423.3,306.5 424.5,297.1 425.6,302.2 426.7,298.5 427.8,294.5 429.0,299.7 430.1,309.4 431.2,295.6 432.4,305.0 433.5,300.5 434.6,297.6 435.8,296.1 436.9,301.5 438.0,301.7 439.2,302.5 440.3,304.2 441.4,297.4 442.6,290.6 443.7,294.6 444.8,304.7 445.9,299.0 447.1,305.6 448.2,307.7 449.3,303.8 450.5,307.3 451.6,299.7 452.7,301.7 453.9,307.5 455.0,306.4 456.1,307.7 457.3,313.5 458.4,311.6 459.5,310.9 460.7,311.3 461.8,309.1 462.9,309.3 464.0,303.0 465.2,305.8 466.3,307.8 467.4,308.1 468.6,309.0 469.7,307.1 470.8,304.1 472.0,309.3 473.1,312.0 474.2,301.9 475.4,303.6 476.5,302.7 477.6,304.4 478.8,302.5 479.9,305.7 481.0,291.6 482.2,298.9 483.3,299.3 484.4,303.3 485.5,295.8 486.7,303.0 487.8,299.2 488.9,303.4 490.1,309.0 491.2,286.5 492.3,294.2 493.5,303.5 494.6,299.7 495.7,297.9 496.9,299.3 498.0,309.1 499.1,301.5 500.3,306.4 501.4,301.3 502.5,300.2 503.6,297.4 504.8,296.2 505.9,291.1 507.0,292.2 508.2,298.8 509.3,297.2 510.4,302.1 511.6,307.8 512.7,301.4 513.8,308.9 515.0,303.3 516.1,302.4 517.2,304.0 518.4,301.7 519.5,301.2 520.6,310.3 521.7,306.6 522.9,309.3 524.0,307.7 525.1,308.2 526.3,307.5 527.4,309.3 528.5,306.5 529.7,304.7 530.8,301.9 531.9,299.6 533.1,309.8 534.2,307.4 535.3,308.5 536.5,307.6 537.6,303.1 538.7,260.8 539.8,295.5 541.0,303.2 542.1,300.9 543.2,305.7 544.4,306.4 545.5,304.5 546.6,304.0 547.8,304.3 548.9,300.6 550.0,304.1 551.2,310.4 552.3,311.3 553.4,305.6 554.6,307.4 555.7,299.6 556.8,306.9 558.0,301.5 559.1,309.7 560.2,303.8 561.3,300.2 562.5,299.7 563.6,305.6 564.7,305.7 565.9,305.4 567.0,309.3 568.1,297.1 569.3,308.3 570.4,310.9 571.5,300.1 572.7,302.1 573.8,307.6 574.9,300.4 576.1,304.1 577.2,308.7 578.3,306.4 579.4,308.6 580.6,305.5 581.7,311.0 582.8,310.4 584.0,305.5 585.1,308.0 586.2,301.7 587.4,304.9 588.5,296.8 589.6,296.5 590.8,296.6 591.9,304.0 593.0,303.1 594.2,303.5 595.3,306.3 596.4,304.3 597.5,310.1 598.7,304.9 599.8,305.3 600.9,309.5 602.1,303.9 603.2,309.2 604.3,304.3 605.5,311.2 606.6,303.8 607.7,309.3 608.9,308.1 610.0,302.7 611.1,267.6 612.3,307.7 613.4,309.4 614.5,306.0 615.6,305.5 616.8,302.9 617.9,304.6 619.0,307.5 620.2,303.3 621.3,308.8 622.4,307.5 623.6,307.8 624.7,305.8 625.8,313.2 627.0,309.3 628.1,313.9 629.2,309.3 630.4,308.5 631.5,309.7 632.6,308.4 633.8,310.1 634.9,304.2 636.0,310.0 637.1,301.7 638.3,306.9 639.4,292.5 640.5,299.2 641.7,304.4 642.8,291.8 643.9,303.7 645.1,303.1 646.2,301.4 647.3,305.9 648.5,304.2 649.6,307.4 650.7,303.9 651.9,307.7 653.0,302.6 654.1,306.4 655.2,310.1 656.4,309.3 657.5,294.8 658.6,307.9 659.8,304.3 660.9,307.1 662.0,307.9 663.2,309.5 664.3,300.9 665.4,306.4 666.6,297.4 667.7,302.9 668.8,299.4 670.0,298.1 671.1,304.1 672.2,302.1 673.3,305.2 674.5,300.2 675.6,306.2 676.7,287.0 677.9,302.0 679.0,295.7 680.1,305.5 681.3,285.6 682.4,308.4 683.5,296.6 684.7,301.1 685.8,305.6 686.9,298.5 688.1,299.9 689.2,310.0 690.3,309.5 691.4,305.0 692.6,306.7 693.7,302.2 694.8,299.5 696.0,301.2 697.1,297.2 698.2,303.4 699.4,295.6 700.5,294.4 701.6,297.3 702.8,307.4 703.9,308.2 705.0,306.3 706.2,302.2 707.3,307.8 708.4,307.3 709.6,304.0 710.7,304.6 711.8,300.3 712.9,305.4 714.1,307.2 715.2,307.0 716.3,305.4 717.5,310.2 718.6,309.9 719.7,305.7 720.9,298.8 722.0,305.7 723.1,303.6 724.3,294.9 725.4,300.5 726.5,298.7 727.7,306.1 728.8,302.8 729.9,303.9 731.0,307.3 732.2,305.6 733.3,303.9 734.4,307.4 735.6,308.4 736.7,304.2 737.8,309.2 739.0,302.8 740.1,307.4 741.2,309.7 742.4,308.1 743.5,308.6 744.6,310.6 745.8,299.2 746.9,311.5 748.0,308.5 749.1,299.7 750.3,298.7 751.4,298.2 752.5,300.5 753.7,300.5 754.8,302.8 755.9,289.1 757.1,299.5 758.2,303.2 759.3,300.9 760.5,298.8 761.6,305.3 762.7,298.9 763.9,300.5 765.0,308.6 766.1,300.4 767.2,307.3 768.4,302.3 769.5,304.7 770.6,305.5 771.8,303.0 772.9,299.4 774.0,300.4 775.2,307.8 776.3,300.2 777.4,300.6 778.6,299.7 779.7,299.9 780.8,299.6 782.0,304.6 783.1,303.6 784.2,300.5 785.3,308.1 786.5,307.7 787.6,302.9 788.7,310.4 789.9,305.6 791.0,305.1 792.1,310.0 793.3,300.4 794.4,306.6 795.5,308.0 796.7,309.4 797.8,303.8 798.9,305.7 800.1,302.6 801.2,303.4 802.3,301.9 803.5,305.5 804.6,300.6 805.7,297.6 806.8,288.5 808.0,303.5 809.1,298.4 810.2,303.6 811.4,303.5 812.5,302.6 813.6,295.5 814.8,296.8 815.9,302.9 817.0,302.1 818.2,302.2 819.3,303.2 820.4,292.6 821.6,301.1 822.7,302.0 823.8,306.5 824.9,305.7 826.1,310.2 827.2,300.4 828.3,299.7 829.5,304.5 830.6,294.0 831.7,301.4 832.9,299.7 834.0,299.7 835.1,299.4 836.3,302.1 837.4,304.2 838.5,300.4 839.7,301.6 840.8,296.3 841.9,289.4 843.0,304.4 844.2,305.8 845.3,298.2 846.4,307.1 847.6,302.2 848.7,312.5 849.8,297.1 851.0,309.7 852.1,308.9 853.2,296.5 854.4,310.0 855.5,302.4 856.6,302.8 857.8,312.3 858.9,310.2 860.0,298.6 861.1,288.8 862.3,300.3 863.4,285.8 864.5,300.4 865.7,312.0 866.8,308.2 867.9,303.9 869.1,306.3 870.2,313.9 871.3,292.2 872.5,297.9 873.6,319.3 874.7,305.5 875.9,309.0 877.0,303.9 878.1,310.2 879.3,302.1 880.4,308.2 881.5,301.9 882.6,290.6 883.8,300.2 884.9,297.9 886.0,299.9 887.2,297.1 888.3,299.6 889.4,302.1 890.6,307.9 891.7,312.6 892.8,299.8 894.0,311.5 895.1,309.9 896.2,310.2 897.4,307.9 898.5,302.0 899.6,298.1 900.7,309.8 901.9,315.3 903.0,311.4 904.1,314.3 905.3,308.8 906.4,312.6 907.5,313.1 908.7,303.7 909.8,292.7 910.9,301.7 912.1,302.7 913.2,303.2 914.3,303.4 915.5,299.8 916.6,310.7 917.7,312.6 918.8,309.2 920.0,314.2 921.1,311.5 922.2,308.0 923.4,308.3 924.5,301.1 925.6,308.9 926.8,310.3 927.9,313.1 929.0,296.4 930.2,306.6 931.3,310.2 932.4,307.0 933.6,305.6 934.7,307.5 935.8,299.5 936.9,299.6 938.1,299.9 939.2,303.8 940.3,303.7 941.5,305.7 942.6,309.4 943.7,312.2 944.9,307.9 946.0,300.0" fill="none" stroke="#2563eb" stroke-width="2.2" stroke-linejoin="round" stroke-linecap="round"/>
<polyline points="76.0,316.4 77.1,330.2 78.3,339.5 79.4,340.0 80.5,340.5 81.7,340.1 82.8,339.8 83.9,336.2 85.1,340.1 86.2,340.1 87.3,325.6 88.4,340.1 89.6,339.7 90.7,336.1 91.8,339.9 93.0,339.3 94.1,326.3 95.2,335.8 96.4,337.8 97.5,315.5 98.6,307.7 99.8,310.8 100.9,325.6 102.0,320.5 103.2,315.4 104.3,335.2 105.4,338.9 106.5,317.5 107.7,340.5 108.8,324.1 109.9,335.9 111.1,288.2 112.2,305.1 113.3,308.1 114.5,313.2 115.6,336.7 116.7,317.5 117.9,315.6 119.0,340.3 120.1,340.5 121.3,335.1 122.4,315.5 123.5,315.5 124.6,317.5 125.8,346.4 126.9,340.4 128.0,313.8 129.2,315.2 130.3,340.4 131.4,340.8 132.6,339.6 133.7,338.9 134.8,339.4 136.0,340.1 137.1,336.9 138.2,340.1 139.4,336.3 140.5,339.8 141.6,340.1 142.7,339.6 143.9,340.5 145.0,340.3 146.1,340.4 147.3,349.7 148.4,341.3 149.5,340.4 150.7,340.4 151.8,336.1 152.9,349.7 154.1,341.1 155.2,341.7 156.3,341.7 157.5,340.5 158.6,343.7 159.7,341.7 160.9,341.6 162.0,340.6 163.1,340.5 164.2,340.5 165.4,340.0 166.5,340.5 167.6,340.1 168.8,340.1 169.9,340.5 171.0,340.5 172.2,340.5 173.3,339.8 174.4,340.4 175.6,340.3 176.7,336.1 177.8,340.2 179.0,317.1 180.1,335.0 181.2,336.5 182.3,339.3 183.5,349.7 184.6,336.0 185.7,339.3 186.9,340.5 188.0,341.7 189.1,340.2 190.3,340.2 191.4,340.3 192.5,340.0 193.7,336.4 194.8,335.9 195.9,336.9 197.1,338.5 198.2,340.4 199.3,340.4 200.4,340.4 201.6,339.5 202.7,340.4 203.8,340.4 205.0,336.9 206.1,337.8 207.2,341.7 208.4,349.7 209.5,341.6 210.6,340.5 211.8,315.0 212.9,340.4 214.0,340.0 215.2,340.2 216.3,339.3 217.4,340.4 218.5,339.5 219.7,340.4 220.8,340.3 221.9,340.4 223.1,340.5 224.2,340.2 225.3,338.6 226.5,340.4 227.6,340.5 228.7,340.5 229.9,339.6 231.0,339.7 232.1,335.7 233.3,315.5 234.4,303.4 235.5,314.7 236.7,309.2 237.8,315.1 238.9,315.1 240.0,333.0 241.2,338.4 242.3,339.3 243.4,339.3 244.6,340.4 245.7,340.4 246.8,339.3 248.0,340.2 249.1,340.2 250.2,340.1 251.4,349.7 252.5,340.4 253.6,340.3 254.8,340.5 255.9,340.5 257.0,339.3 258.1,339.9 259.3,336.3 260.4,324.9 261.5,303.4 262.7,339.5 263.8,332.2 264.9,340.1 266.1,337.2 267.2,337.2 268.3,336.8 269.5,340.2 270.6,339.9 271.7,340.1 272.9,340.1 274.0,336.1 275.1,336.1 276.2,340.4 277.4,339.8 278.5,336.4 279.6,340.1 280.8,340.5 281.9,340.1 283.0,340.4 284.2,335.8 285.3,339.8 286.4,320.6 287.6,340.1 288.7,303.4 289.8,339.5 291.0,335.1 292.1,338.0 293.2,337.2 294.3,315.5 295.5,337.2 296.6,337.7 297.7,340.1 298.9,329.1 300.0,339.4 301.1,300.4 302.3,303.3 303.4,332.4 304.5,336.5 305.7,336.1 306.8,337.7 307.9,340.1 309.1,340.2 310.2,339.6 311.3,330.1 312.4,320.1 313.6,313.5 314.7,310.2 315.8,303.4 317.0,311.4 318.1,310.2 319.2,337.2 320.4,310.3 321.5,322.1 322.6,338.9 323.8,340.5 324.9,339.6 326.0,340.5 327.2,340.4 328.3,339.2 329.4,340.5 330.6,324.9 331.7,324.9 332.8,339.5 333.9,339.3 335.1,338.9 336.2,340.2 337.3,340.1 338.5,336.7 339.6,310.2 340.7,313.1 341.9,313.2 343.0,303.4 344.1,315.1 345.3,341.0 346.4,341.7 347.5,317.5 348.7,340.0 349.8,341.7 350.9,341.4 352.0,341.7 353.2,340.5 354.3,339.3 355.4,339.8 356.6,339.9 357.7,339.0 358.8,340.1 360.0,339.9 361.1,334.9 362.2,313.8 363.4,339.5 364.5,313.1 365.6,339.9 366.8,315.6 367.9,315.2 369.0,330.4 370.1,310.3 371.3,324.9 372.4,349.7 373.5,320.6 374.7,339.6 375.8,313.1 376.9,314.8 378.1,335.4 379.2,339.5 380.3,340.5 381.5,338.7 382.6,329.1 383.7,339.3 384.9,313.1 386.0,311.0 387.1,329.1 388.2,320.6 389.4,338.9 390.5,338.0 391.6,308.0 392.8,339.5 393.9,340.1 395.0,331.8 396.2,339.3 397.3,326.0 398.4,339.1 399.6,339.2 400.7,339.5 401.8,336.1 403.0,337.2 404.1,339.2 405.2,340.1 406.4,339.3 407.5,338.5 408.6,315.5 409.7,340.2 410.9,336.1 412.0,351.6 413.1,339.3 414.3,340.2 415.4,339.2 416.5,340.2 417.7,340.2 418.8,315.6 419.9,320.4 421.1,337.4 422.2,315.5 423.3,337.1 424.5,310.1 425.6,335.9 426.7,332.2 427.8,307.0 429.0,314.6 430.1,341.4 431.2,338.9 432.4,340.4 433.5,339.9 434.6,311.4 435.8,311.4 436.9,323.4 438.0,325.3 439.2,328.8 440.3,337.2 441.4,315.6 442.6,310.2 443.7,313.0 444.8,337.2 445.9,310.0 447.1,335.9 448.2,339.5 449.3,332.0 450.5,336.1 451.6,310.2 452.7,313.1 453.9,339.3 455.0,339.5 456.1,340.5 457.3,346.4 458.4,341.7 459.5,341.6 460.7,340.5 461.8,341.7 462.9,341.3 464.0,339.3 465.2,339.9 466.3,340.4 467.4,340.3 468.6,340.4 469.7,340.1 470.8,337.2 472.0,339.9 473.1,340.5 474.2,334.5 475.4,336.1 476.5,331.1 477.6,330.6 478.8,313.1 479.9,339.0 481.0,313.3 482.2,315.2 483.3,335.9 484.4,324.8 485.5,313.2 486.7,340.1 487.8,323.8 488.9,341.3 490.1,340.5 491.2,302.2 492.3,310.1 493.5,330.6 494.6,331.0 495.7,324.0 496.9,315.2 498.0,340.4 499.1,326.5 500.3,339.6 501.4,336.9 502.5,335.1 503.6,314.5 504.8,313.3 505.9,303.4 507.0,307.4 508.2,310.3 509.3,313.9 510.4,337.2 511.6,339.5 512.7,335.0 513.8,340.2 515.0,339.3 516.1,340.5 517.2,339.5 518.4,339.5 519.5,330.6 520.6,340.4 521.7,340.0 522.9,340.1 524.0,340.2 525.1,340.2 526.3,340.2 527.4,340.1 528.5,339.5 529.7,332.2 530.8,331.9 531.9,310.3 533.1,348.7 534.2,340.8 535.3,349.7 536.5,340.5 537.6,334.4 538.7,305.8 539.8,339.7 541.0,339.6 542.1,320.7 543.2,340.5 544.4,339.6 545.5,340.1 546.6,339.0 547.8,335.9 548.9,335.8 550.0,339.3 551.2,340.5 552.3,340.4 553.4,338.6 554.6,339.8 555.7,315.4 556.8,337.4 558.0,315.0 559.1,338.1 560.2,310.3 561.3,314.7 562.5,315.6 563.6,335.4 564.7,339.3 565.9,337.9 567.0,340.8 568.1,323.4 569.3,340.2 570.4,341.7 571.5,336.8 572.7,331.0 573.8,340.1 574.9,336.7 576.1,337.2 577.2,340.2 578.3,339.9 579.4,339.3 580.6,336.1 581.7,340.4 582.8,340.3 584.0,337.2 585.1,338.7 586.2,315.6 587.4,335.9 588.5,313.1 589.6,313.3 590.8,310.2 591.9,335.8 593.0,332.2 594.2,335.8 595.3,340.4 596.4,336.9 597.5,340.5 598.7,340.1 599.8,339.5 600.9,340.4 602.1,340.2 603.2,340.5 604.3,339.3 605.5,340.5 606.6,338.7 607.7,340.1 608.9,340.5 610.0,338.1 611.1,287.9 612.3,339.3 613.4,340.5 614.5,324.5 615.6,336.5 616.8,335.1 617.9,337.2 619.0,339.5 620.2,340.1 621.3,340.4 622.4,340.2 623.6,340.1 624.7,340.3 625.8,340.5 627.0,340.4 628.1,340.5 629.2,340.4 630.4,340.2 631.5,340.4 632.6,340.5 633.8,340.2 634.9,339.5 636.0,341.2 637.1,339.5 638.3,339.9 639.4,310.1 640.5,324.8 641.7,314.2 642.8,305.4 643.9,315.3 645.1,335.9 646.2,315.6 647.3,335.9 648.5,338.5 649.6,340.2 650.7,339.2 651.9,339.5 653.0,336.3 654.1,340.2 655.2,340.4 656.4,340.4 657.5,310.2 658.6,339.9 659.8,336.4 660.9,340.5 662.0,339.3 663.2,340.5 664.3,339.3 665.4,340.4 666.6,315.5 667.7,339.8 668.8,311.3 670.0,313.3 671.1,339.3 672.2,336.3 673.3,339.5 674.5,335.1 675.6,339.8 676.7,310.1 677.9,336.1 679.0,334.2 680.1,339.3 681.3,300.4 682.4,340.1 683.5,315.5 684.7,315.6 685.8,339.3 686.9,323.5 688.1,323.6 689.2,339.6 690.3,340.4 691.4,339.5 692.6,339.5 693.7,335.8 694.8,313.1 696.0,313.1 697.1,315.1 698.2,339.3 699.4,315.5 700.5,315.3 701.6,332.6 702.8,337.4 703.9,340.5 705.0,340.1 706.2,339.4 707.3,340.1 708.4,340.0 709.6,336.1 710.7,339.0 711.8,336.9 712.9,340.1 714.1,339.5 715.2,339.3 716.3,336.1 717.5,340.2 718.6,340.4 719.7,337.4 720.9,311.9 722.0,331.4 723.1,310.2 724.3,311.2 725.4,313.9 726.5,311.3 727.7,340.1 728.8,332.3 729.9,339.3 731.0,338.6 732.2,339.6 733.3,340.5 734.4,340.1 735.6,339.4 736.7,339.3 737.8,340.2 739.0,336.1 740.1,337.2 741.2,340.4 742.4,339.5 743.5,340.1 744.6,340.4 745.8,332.8 746.9,340.5 748.0,339.1 749.1,324.9 750.3,307.7 751.4,315.1 752.5,332.8 753.7,332.1 754.8,328.8 755.9,303.3 757.1,315.6 758.2,336.6 759.3,336.1 760.5,340.1 761.6,329.8 762.7,329.1 763.9,335.8 765.0,339.3 766.1,336.1 767.2,340.1 768.4,329.2 769.5,338.6 770.6,339.5 771.8,330.9 772.9,314.0 774.0,320.6 775.2,339.3 776.3,313.3 777.4,311.4 778.6,313.1 779.7,315.1 780.8,317.5 782.0,336.4 783.1,337.3 784.2,323.0 785.3,340.1 786.5,340.4 787.6,340.5 788.7,340.5 789.9,340.1 791.0,339.3 792.1,340.3 793.3,335.8 794.4,339.8 795.5,340.1 796.7,339.7 797.8,339.3 798.9,340.5 800.1,336.1 801.2,339.3 802.3,320.6 803.5,336.1 804.6,310.2 805.7,329.6 806.8,311.4 808.0,337.2 809.1,313.8 810.2,339.3 811.4,339.3 812.5,336.6 813.6,315.6 814.8,339.3 815.9,335.4 817.0,332.5 818.2,329.1 819.3,335.4 820.4,309.8 821.6,317.5 822.7,339.3 823.8,337.4 824.9,335.0 826.1,339.3 827.2,328.1 828.3,313.2 829.5,315.3 830.6,310.0 831.7,310.2 832.9,313.1 834.0,315.6 835.1,315.1 836.3,324.8 837.4,330.9 838.5,336.2 839.7,336.3 840.8,310.2 841.9,310.0 843.0,339.3 844.2,336.4 845.3,310.2 846.4,340.2 847.6,313.2 848.7,339.5 849.8,340.2 851.0,338.3 852.1,338.4 853.2,313.1 854.4,340.5 855.5,335.8 856.6,315.3 857.8,335.4 858.9,332.1 860.0,310.8 861.1,311.3 862.3,329.1 863.4,301.3 864.5,339.6 865.7,340.5 866.8,340.5 867.9,337.0 869.1,340.2 870.2,340.5 871.3,309.1 872.5,313.1 873.6,340.5 874.7,337.2 875.9,339.9 877.0,336.6 878.1,340.2 879.3,337.2 880.4,326.7 881.5,340.4 882.6,337.3 883.8,315.4 884.9,313.2 886.0,310.2 887.2,310.8 888.3,310.5 889.4,329.9 890.6,336.1 891.7,340.0 892.8,337.0 894.0,340.5 895.1,340.5 896.2,340.5 897.4,327.7 898.5,340.3 899.6,336.5 900.7,340.5 901.9,349.7 903.0,349.7 904.1,349.7 905.3,340.1 906.4,340.5 907.5,340.5 908.7,339.8 909.8,316.5 910.9,313.8 912.1,313.1 913.2,313.0 914.3,335.7 915.5,313.5 916.6,343.0 917.7,340.5 918.8,340.5 920.0,340.5 921.1,337.2 922.2,337.4 923.4,339.5 924.5,335.9 925.6,340.1 926.8,340.4 927.9,340.4 929.0,317.5 930.2,339.3 931.3,337.4 932.4,339.3 933.6,337.2 934.7,336.4 935.8,315.6 936.9,313.5 938.1,319.1 939.2,332.4 940.3,309.6 941.5,346.4 942.6,347.2 943.7,340.5 944.9,340.1 946.0,336.0" fill="none" stroke="#059669" stroke-width="2.2" stroke-linejoin="round" stroke-linecap="round"/>
<polyline points="76.0,211.6 77.1,219.5 78.3,226.3 79.4,231.4 80.5,239.6 81.7,231.4 82.8,226.2 83.9,219.8 85.1,226.4 86.2,226.3 87.3,202.2 88.4,226.4 89.6,227.6 90.7,226.3 91.8,229.2 93.0,230.7 94.1,214.2 95.2,219.5 96.4,239.3 97.5,219.4 98.6,218.6 99.8,202.2 100.9,223.2 102.0,226.1 103.2,226.4 104.3,223.4 105.4,226.2 106.5,215.9 107.7,219.4 108.8,202.5 109.9,202.2 111.1,162.0 112.2,171.9 113.3,171.9 114.5,212.3 115.6,218.6 116.7,212.3 117.9,210.8 119.0,236.5 120.1,244.4 121.3,233.3 122.4,226.2 123.5,226.8 124.6,226.3 125.8,230.6 126.9,223.3 128.0,216.4 129.2,224.5 130.3,216.9 131.4,239.6 132.6,237.1 133.7,231.9 134.8,232.5 136.0,233.3 137.1,226.4 138.2,226.4 139.4,227.4 140.5,230.8 141.6,234.5 142.7,226.3 143.9,239.6 145.0,243.8 146.1,236.8 147.3,248.0 148.4,242.8 149.5,243.7 150.7,242.2 151.8,239.5 152.9,255.3 154.1,208.8 155.2,239.9 156.3,240.9 157.5,237.9 158.6,252.2 159.7,246.0 160.9,249.8 162.0,244.4 163.1,235.4 164.2,236.5 165.4,231.4 166.5,226.5 167.6,232.8 168.8,236.5 169.9,249.6 171.0,241.9 172.2,244.4 173.3,234.5 174.4,233.2 175.6,233.5 176.7,219.4 177.8,242.3 179.0,226.3 180.1,235.1 181.2,234.5 182.3,246.3 183.5,252.5 184.6,226.4 185.7,230.9 186.9,245.8 188.0,240.4 189.1,232.9 190.3,238.1 191.4,239.6 192.5,236.4 193.7,226.4 194.8,226.4 195.9,233.2 197.1,236.4 198.2,245.2 199.3,240.9 200.4,249.7 201.6,233.5 202.7,233.6 203.8,240.4 205.0,239.6 206.1,239.9 207.2,244.6 208.4,243.8 209.5,243.8 210.6,236.4 211.8,202.7 212.9,226.3 214.0,226.3 215.2,219.4 216.3,232.7 217.4,236.5 218.5,234.6 219.7,236.5 220.8,233.9 221.9,239.6 223.1,239.6 224.2,236.5 225.3,233.3 226.5,242.0 227.6,242.2 228.7,240.9 229.9,231.1 231.0,230.0 232.1,240.2 233.3,229.7 234.4,235.5 235.5,234.5 236.7,209.6 237.8,226.4 238.9,226.3 240.0,226.2 241.2,228.0 242.3,226.4 243.4,239.6 244.6,239.6 245.7,235.1 246.8,233.3 248.0,238.8 249.1,239.6 250.2,240.0 251.4,255.1 252.5,236.5 253.6,236.5 254.8,244.4 255.9,244.4 257.0,236.5 258.1,235.3 259.3,228.6 260.4,226.4 261.5,244.4 262.7,226.3 263.8,202.2 264.9,234.7 266.1,236.4 267.2,226.3 268.3,231.8 269.5,236.4 270.6,239.6 271.7,236.4 272.9,235.8 274.0,236.9 275.1,226.4 276.2,241.6 277.4,237.1 278.5,226.4 279.6,235.8 280.8,241.9 281.9,243.9 283.0,251.5 284.2,227.1 285.3,226.3 286.4,227.4 287.6,238.0 288.7,250.5 289.8,230.8 291.0,226.2 292.1,226.4 293.2,228.2 294.3,225.6 295.5,232.6 296.6,226.4 297.7,231.2 298.9,214.7 300.0,226.2 301.1,162.0 302.3,172.9 303.4,202.5 304.5,213.1 305.7,204.0 306.8,226.3 307.9,235.5 309.1,231.0 310.2,229.7 311.3,219.6 312.4,219.4 313.6,226.3 314.7,202.5 315.8,230.0 317.0,202.2 318.1,202.2 319.2,226.3 320.4,213.1 321.5,219.8 322.6,227.4 323.8,226.3 324.9,227.4 326.0,227.1 327.2,229.6 328.3,226.4 329.4,236.4 330.6,211.5 331.7,224.5 332.8,236.5 333.9,235.3 335.1,226.3 336.2,231.4 337.3,233.3 338.5,226.3 339.6,205.1 340.7,223.3 341.9,226.1 343.0,261.2 344.1,222.6 345.3,217.1 346.4,243.4 347.5,218.1 348.7,231.4 349.8,236.7 350.9,244.4 352.0,244.1 353.2,236.4 354.3,236.4 355.4,230.4 356.6,226.4 357.7,243.8 358.8,234.7 360.0,234.0 361.1,221.2 362.2,213.5 363.4,231.1 364.5,184.3 365.6,234.2 366.8,217.6 367.9,225.1 369.0,226.3 370.1,230.6 371.3,217.5 372.4,244.1 373.5,217.9 374.7,224.4 375.8,202.1 376.9,199.5 378.1,197.7 379.2,219.4 380.3,213.3 381.5,226.4 382.6,172.0 383.7,223.4 384.9,207.7 386.0,208.3 387.1,202.2 388.2,224.6 389.4,231.1 390.5,226.4 391.6,170.6 392.8,226.2 393.9,234.7 395.0,226.1 396.2,226.4 397.3,178.2 398.4,202.8 399.6,229.3 400.7,234.7 401.8,226.4 403.0,212.5 404.1,236.5 405.2,235.8 406.4,227.4 407.5,226.4 408.6,223.3 409.7,233.3 410.9,226.3 412.0,255.4 413.1,234.3 414.3,234.5 415.4,233.3 416.5,236.3 417.7,236.3 418.8,227.4 419.9,226.1 421.1,226.3 422.2,226.3 423.3,226.3 424.5,217.6 425.6,226.3 426.7,217.5 427.8,216.1 429.0,226.2 430.1,236.3 431.2,217.6 432.4,226.3 433.5,221.9 434.6,212.3 435.8,202.8 436.9,217.9 438.0,226.3 439.2,217.9 440.3,235.7 441.4,226.3 442.6,208.3 443.7,209.7 444.8,226.3 445.9,226.3 447.1,226.3 448.2,236.4 449.3,226.3 450.5,238.0 451.6,226.2 452.7,225.9 453.9,226.4 455.0,226.9 456.1,234.3 457.3,251.6 458.4,236.5 459.5,238.9 460.7,242.8 461.8,236.4 462.9,232.8 464.0,218.3 465.2,234.9 466.3,236.4 467.4,236.4 468.6,236.3 469.7,231.4 470.8,228.4 472.0,234.3 473.1,243.9 474.2,223.3 475.4,226.2 476.5,226.3 477.6,231.5 478.8,229.3 479.9,229.7 481.0,212.8 482.2,216.0 483.3,223.3 484.4,229.5 485.5,216.7 486.7,226.3 487.8,218.5 488.9,227.2 490.1,236.4 491.2,171.9 492.3,202.2 493.5,226.3 494.6,202.9 495.7,215.1 496.9,217.4 498.0,236.3 499.1,224.6 500.3,231.3 501.4,226.2 502.5,218.5 503.6,215.1 504.8,202.4 505.9,194.7 507.0,197.0 508.2,211.6 509.3,202.5 510.4,217.9 511.6,231.1 512.7,216.1 513.8,236.5 515.0,226.1 516.1,225.6 517.2,226.4 518.4,221.8 519.5,226.2 520.6,243.8 521.7,229.3 522.9,234.6 524.0,236.4 525.1,229.8 526.3,236.4 527.4,239.6 528.5,243.8 529.7,226.5 530.8,227.2 531.9,226.3 533.1,236.4 534.2,230.8 535.3,226.4 536.5,234.8 537.6,229.7 538.7,92.4 539.8,217.9 541.0,226.3 542.1,216.6 543.2,234.7 544.4,233.3 545.5,226.3 546.6,226.3 547.8,226.3 548.9,223.3 550.0,226.1 551.2,236.4 552.3,241.7 553.4,236.4 554.6,234.9 555.7,216.6 556.8,226.4 558.0,226.3 559.1,241.3 560.2,235.5 561.3,219.9 562.5,215.3 563.6,233.3 564.7,229.8 565.9,233.7 567.0,236.6 568.1,202.8 569.3,236.5 570.4,236.5 571.5,219.5 572.7,223.4 573.8,231.1 574.9,223.2 576.1,222.7 577.2,229.9 578.3,235.1 579.4,236.2 580.6,226.3 581.7,241.0 582.8,243.6 584.0,228.0 585.1,239.9 586.2,226.3 587.4,230.9 588.5,214.7 589.6,217.6 590.8,217.6 591.9,226.2 593.0,226.3 594.2,219.9 595.3,237.4 596.4,227.1 597.5,234.6 598.7,226.4 599.8,226.4 600.9,239.9 602.1,219.8 603.2,236.8 604.3,227.4 605.5,239.9 606.6,226.2 607.7,235.0 608.9,234.6 610.0,226.2 611.1,170.5 612.3,226.3 613.4,227.5 614.5,227.6 615.6,229.7 616.8,226.3 617.9,226.3 619.0,243.0 620.2,226.4 621.3,233.3 622.4,226.4 623.6,231.5 624.7,229.7 625.8,241.9 627.0,235.3 628.1,239.9 629.2,239.5 630.4,235.4 631.5,239.6 632.6,236.8 633.8,243.8 634.9,226.4 636.0,244.4 637.1,215.4 638.3,228.1 639.4,208.3 640.5,216.5 641.7,226.4 642.8,204.4 643.9,226.3 645.1,226.1 646.2,226.3 647.3,234.7 648.5,226.4 649.6,239.6 650.7,226.3 651.9,230.0 653.0,225.4 654.1,226.4 655.2,237.9 656.4,239.1 657.5,202.8 658.6,233.6 659.8,233.3 660.9,238.6 662.0,233.3 663.2,235.3 664.3,219.4 665.4,235.8 666.6,215.4 667.7,233.2 668.8,225.8 670.0,222.5 671.1,228.0 672.2,226.3 673.3,226.4 674.5,222.6 675.6,232.4 676.7,198.4 677.9,223.1 679.0,214.7 680.1,234.7 681.3,171.9 682.4,233.3 683.5,202.2 684.7,222.8 685.8,219.5 686.9,212.6 688.1,218.6 689.2,242.8 690.3,234.7 691.4,226.2 692.6,231.0 693.7,226.3 694.8,212.6 696.0,226.3 697.1,209.7 698.2,226.3 699.4,202.5 700.5,202.2 701.6,204.3 702.8,226.4 703.9,238.2 705.0,226.4 706.2,219.4 707.3,233.8 708.4,234.7 709.6,222.8 710.7,226.3 711.8,217.6 712.9,234.4 714.1,233.3 715.2,234.6 716.3,239.6 717.5,243.7 718.6,232.5 719.7,231.1 720.9,221.6 722.0,230.8 723.1,231.0 724.3,206.6 725.4,223.4 726.5,218.3 727.7,229.8 728.8,227.4 729.9,228.1 731.0,235.3 732.2,234.7 733.3,226.4 734.4,232.3 735.6,239.6 736.7,226.7 737.8,240.4 739.0,228.0 740.1,234.5 741.2,239.6 742.4,239.6 743.5,236.6 744.6,240.9 745.8,214.8 746.9,231.1 748.0,236.4 749.1,225.7 750.3,226.2 751.4,225.2 752.5,225.2 753.7,217.9 754.8,226.4 755.9,174.3 757.1,213.0 758.2,226.3 759.3,216.7 760.5,220.8 761.6,234.7 762.7,218.6 763.9,217.7 765.0,235.3 766.1,224.9 767.2,230.9 768.4,226.3 769.5,226.3 770.6,233.2 771.8,223.3 772.9,214.1 774.0,210.8 775.2,235.7 776.3,226.0 777.4,227.3 778.6,221.8 779.7,226.2 780.8,214.5 782.0,231.9 783.1,226.6 784.2,226.3 785.3,236.4 786.5,233.0 787.6,226.3 788.7,239.6 789.9,226.7 791.0,226.4 792.1,240.1 793.3,217.6 794.4,233.3 795.5,230.7 796.7,237.3 797.8,226.7 798.9,228.3 800.1,225.2 801.2,226.4 802.3,227.4 803.5,226.3 804.6,221.3 805.7,211.2 806.8,197.3 808.0,227.5 809.1,214.8 810.2,232.3 811.4,226.2 812.5,226.3 813.6,202.3 814.8,210.9 815.9,226.4 817.0,220.6 818.2,223.3 819.3,226.4 820.4,191.2 821.6,218.2 822.7,226.3 823.8,233.3 824.9,227.4 826.1,236.4 827.2,222.0 828.3,219.4 829.5,236.4 830.6,201.0 831.7,226.3 832.9,226.6 834.0,219.4 835.1,226.2 836.3,226.4 837.4,226.4 838.5,224.2 839.7,218.6 840.8,202.6 841.9,185.3 843.0,226.4 844.2,226.7 845.3,202.9 846.4,230.1 847.6,229.6 848.7,244.4 849.8,243.2 851.0,240.6 852.1,239.9 853.2,194.3 854.4,248.1 855.5,211.3 856.6,236.5 857.8,244.4 858.9,243.5 860.0,226.4 861.1,176.0 862.3,226.3 863.4,197.1 864.5,232.2 865.7,239.5 866.8,244.3 867.9,223.3 869.1,231.2 870.2,259.7 871.3,171.9 872.5,202.8 873.6,259.9 874.7,226.4 875.9,229.2 877.0,226.3 878.1,239.9 879.3,226.3 880.4,233.3 881.5,219.4 882.6,183.2 883.8,226.4 884.9,207.1 886.0,212.7 887.2,211.2 888.3,202.4 889.4,226.8 890.6,230.5 891.7,246.6 892.8,215.9 894.0,243.9 895.1,227.6 896.2,235.1 897.4,233.2 898.5,244.3 899.6,232.4 900.7,240.9 901.9,251.3 903.0,248.8 904.1,255.6 905.3,239.6 906.4,241.9 907.5,244.2 908.7,202.0 909.8,197.2 910.9,227.5 912.1,220.9 913.2,226.5 914.3,219.4 915.5,219.5 916.6,236.3 917.7,239.6 918.8,240.4 920.0,249.2 921.1,241.5 922.2,240.4 923.4,233.9 924.5,209.7 925.6,239.6 926.8,236.4 927.9,244.2 929.0,215.8 930.2,226.4 931.3,239.6 932.4,230.7 933.6,227.6 934.7,233.3 935.8,217.6 936.9,225.2 938.1,219.7 939.2,226.3 940.3,233.0 941.5,227.9 942.6,230.9 943.7,261.3 944.9,233.3 946.0,231.3" fill="none" stroke="#d97706" stroke-width="2.2" stroke-linejoin="round" stroke-linecap="round"/>
<line x1="76" y1="70" x2="94" y2="70" stroke="#2563eb" stroke-width="3"/>
<text x="100" y="74" font-family="Arial, sans-serif" font-size="11" fill="#0f172a">avg fee</text>
<line x1="179" y1="70" x2="197" y2="70" stroke="#059669" stroke-width="3"/>
<text x="203" y="74" font-family="Arial, sans-serif" font-size="11" fill="#0f172a">median fee</text>
<line x1="303" y1="70" x2="321" y2="70" stroke="#d97706" stroke-width="3"/>
<text x="327" y="74" font-family="Arial, sans-serif" font-size="11" fill="#0f172a">p90 fee</text>
<text x="28" y="404" font-family="Arial, sans-serif" font-size="11" fill="#64748b">Source: hourly_features.csv</text>
</svg>