<svg xmlns="http://www.w3.org/2000/svg" width="980" height="420" viewBox="0 0 980 420">
<rect width="100%" height="100%" fill="#ffffff"/>
<text x="28" y="34" font-family="Arial, sans-serif" font-size="20" font-weight="700" fill="#0f172a">Hourly fee trend</text>
<text x="28" y="56" font-family="Arial, sans-serif" font-size="12" fill="#64748b">Average, median, and p90 total fee by hour</text>
<line x1="76" y1="362.0" x2="946" y2="362.0" stroke="#e2e8f0" stroke-width="1"/>
<text x="68" y="366.0" font-family="Arial, sans-serif" font-size="10" text-anchor="end" fill="#64748b">-382K</text>
<line x1="76" y1="292.0" x2="946" y2="292.0" stroke="#e2e8f0" stroke-width="1"/>
<text x="68" y="296.0" font-family="Arial, sans-serif" font-size="10" text-anchor="end" fill="#64748b">2.6M</text>
<line x1="76" y1="222.0" x2="946" y2="222.0" stroke="#e2e8f0" stroke-width="1"/>
<text x="68" y="226.0" font-family="Arial, sans-serif" font-size="10" text-anchor="end" fill="#64748b">5.7M</text>
<line x1="76" y1="152.0" x2="946" y2="152.0" stroke="#e2e8f0" stroke-width="1"/>
<text x="68" y="156.0" font-family="Arial, sans-serif" font-size="10" text-anchor="end" fill="#64748b">8.7M</text>
<line x1="76" y1="82.0" x2="946" y2="82.0" stroke="#e2e8f0" stroke-width="1"/>
<text x="68" y="86.0" font-family="Arial, sans-serif" font-size="10" text-anchor="end" fill="#64748b">11.7M</text>
<line x1="76" y1="362" x2="946" y2="362" stroke="#334155" stroke-width="1"/>
<line x1="76" y1="82" x2="76" y2="362" stroke="#334155" stroke-width="1"/>
<text x="76" y="72" font-family="Arial, sans-serif" font-size="11" fill="#64748b">nanoton</text>
<line x1="76.0" y1="362" x2="76.0" y2="366" stroke="#334155" stroke-width="1"/>
<text x="76.0" y="380" font-family="Arial, sans-serif" font-size="10" text-anchor="middle" fill="#64748b">0</text>
<line x1="511.5" y1="362" x2="511.5" y2="366" stroke="#334155" stroke-width="1"/>
<text x="511.5" y="380" font-family="Arial, sans-serif" font-size="10" text-anchor="middle" fill="#64748b">428</text>
<line x1="946.0" y1="362" x2="946.0" y2="366" stroke="#334155" stroke-width="1"/>
<text x="946.0" y="380" font-family="Arial, sans-serif" font-size="10" text-anchor="middle" fill="#64748b">855</text>
<polyline points="76.0,290.8 77.0,294.6 78.0,296.0 79.1,298.1 80.1,304.8 81.1,297.2 82.1,298.2 83.1,294.6 84.1,299.0 85.2,298.7 86.2,287.8 87.2,299.5 88.2,299.7 89.2,297.4 90.2,300.3 91.3,300.5 92.3,292.5 93.3,292.5 94.3,301.3 95.3,291.1 96.4,289.2 97.4,287.3 98.4,293.8 99.4,294.2 100.4,296.1 101.4,292.1 102.5,297.7 103.5,290.6 104.5,293.2 105.5,288.3 106.5,289.0 107.5,273.1 108.6,284.7 109.6,285.3 110.6,294.6 111.6,299.9 112.6,292.9 113.6,294.9 114.7,304.7 115.7,307.5 116.7,302.1 117.7,297.0 118.7,298.7 119.8,297.9 120.8,304.4 121.8,297.4 122.8,294.5 123.8,296.5 124.8,298.7 125.9,303.1 126.9,303.1 127.9,301.9 128.9,300.3 129.9,303.3 130.9,302.2 132.0,299.4 133.0,299.1 134.0,302.8 135.0,299.1 136.0,301.3 137.1,306.8 138.1,308.7 139.1,306.4 140.1,307.1 141.1,309.1 142.1,305.9 143.2,305.5 144.2,302.0 145.2,308.5 146.2,290.7 147.2,306.4 148.2,306.4 149.3,306.3 150.3,311.2 151.3,307.1 152.3,310.3 153.3,309.1 154.4,305.5 155.4,305.4 156.4,303.2 157.4,303.5 158.4,301.3 159.4,305.1 160.5,307.4 161.5,306.9 162.5,308.1 163.5,305.0 164.5,302.9 165.5,302.7 166.6,298.6 167.6,304.9 168.6,297.0 169.6,299.3 170.6,300.3 171.6,303.9 172.7,311.6 173.7,300.1 174.7,300.5 175.7,308.9 176.7,307.5 177.8,300.3 178.8,304.2 179.8,305.1 180.8,302.6 181.8,300.5 182.8,297.4 183.9,298.7 184.9,301.9 185.9,308.1 186.9,307.4 187.9,307.4 188.9,303.1 190.0,301.9 191.0,304.1 192.0,303.9 193.0,304.0 194.0,308.3 195.1,308.9 196.1,307.3 197.1,301.1 198.1,286.9 199.1,301.6 200.1,298.8 201.2,296.1 202.2,299.6 203.2,305.5 204.2,301.5 205.2,304.9 206.2,302.2 207.3,304.9 208.3,306.8 209.3,304.9 210.3,300.8 211.3,304.8 212.4,308.0 213.4,302.4 214.4,301.7 215.4,303.1 216.4,303.4 217.4,298.9 218.5,298.5 219.5,298.0 220.5,289.4 221.5,296.9 222.5,296.4 223.5,295.5 224.6,299.6 225.6,299.0 226.6,304.6 227.6,304.0 228.6,303.8 229.6,299.2 230.7,301.2 231.7,305.7 232.7,304.5 233.7,312.1 234.7,305.7 235.8,304.3 236.8,307.0 237.8,306.9 238.8,301.9 239.8,303.8 240.8,300.8 241.9,301.6 242.9,300.2 243.9,298.7 244.9,290.6 245.9,296.1 246.9,300.6 248.0,296.6 249.0,302.7 250.0,302.6 251.0,303.0 252.0,302.7 253.1,302.8 254.1,303.7 255.1,300.1 256.1,305.6 257.1,303.0 258.1,299.2 259.2,302.8 260.2,306.7 261.2,306.1 262.2,306.7 263.2,298.5 264.2,301.6 265.3,297.8 266.3,303.8 267.3,300.2 268.3,299.5 269.3,295.6 270.4,298.2 271.4,298.4 272.4,293.8 273.4,299.9 274.4,297.9 275.4,298.6 276.5,294.2 277.5,297.8 278.5,278.0 279.5,284.2 280.5,295.2 281.5,295.7 282.6,294.4 283.6,300.7 284.6,304.3 285.6,302.4 286.6,302.1 287.6,297.9 288.7,295.3 289.7,296.5 290.7,291.4 291.7,292.0 292.7,290.6 293.8,290.0 294.8,299.7 295.8,291.9 296.8,296.8 297.8,299.8 298.8,303.8 299.9,302.5 300.9,302.1 301.9,302.3 302.9,300.8 303.9,303.5 304.9,295.9 306.0,297.8 307.0,304.4 308.0,304.2 309.0,299.5 310.0,303.9 311.1,303.5 312.1,299.0 313.1,288.7 314.1,293.7 315.1,294.2 316.1,303.7 317.2,295.6 318.2,297.0 319.2,305.6 320.2,294.8 321.2,300.5 322.2,305.1 323.3,308.5 324.3,305.5 325.3,304.0 326.3,300.7 327.3,303.8 328.4,299.3 329.4,303.0 330.4,305.0 331.4,303.0 332.4,299.3 333.4,294.4 334.5,299.9 335.5,286.2 336.5,302.1 337.5,293.9 338.5,297.9 339.5,299.5 340.6,297.4 341.6,294.4 342.6,310.4 343.6,291.6 344.6,295.6 345.6,281.6 346.7,294.6 347.7,293.2 348.7,295.0 349.7,291.0 350.7,301.0 351.8,279.9 352.8,297.2 353.8,291.8 354.8,291.5 355.8,283.3 356.8,298.3 357.9,300.4 358.9,298.6 359.9,288.4 360.9,299.0 361.9,304.4 362.9,297.7 364.0,295.5 365.0,279.8 366.0,284.2 367.0,300.5 368.0,299.9 369.1,298.1 370.1,293.4 371.1,303.1 372.1,303.0 373.1,298.6 374.1,296.8 375.2,297.4 376.2,301.3 377.2,298.1 378.2,311.4 379.2,299.4 380.2,303.5 381.3,301.2 382.3,302.9 383.3,304.3 384.3,297.8 385.3,294.4 386.4,299.3 387.4,295.1 388.4,301.8 389.4,292.6 390.4,297.6 391.4,293.9 392.5,290.0 393.5,295.1 394.5,304.6 395.5,291.1 396.5,300.3 397.5,295.9 398.6,293.1 399.6,291.6 400.6,296.8 401.6,297.1 402.6,297.9 403.6,299.5 404.7,292.8 405.7,286.2 406.7,290.1 407.7,300.0 408.7,294.5 409.8,300.9 410.8,303.0 411.8,299.1 412.8,302.5 413.8,295.1 414.8,297.0 415.9,302.8 416.9,301.7 417.9,303.0 418.9,308.6 419.9,306.8 420.9,306.1 422.0,306.5 423.0,304.3 424.0,304.5 425.0,298.3 426.0,301.1 427.1,303.1 428.1,303.3 429.1,304.2 430.1,302.4 431.1,299.4 432.1,304.5 433.2,307.1 434.2,297.3 435.2,298.9 436.2,298.1 437.2,299.7 438.2,297.8 439.3,301.0 440.3,287.2 441.3,294.3 442.3,294.8 443.3,298.6 444.4,291.3 445.4,298.4 446.4,294.6 447.4,298.7 448.4,304.2 449.4,282.2 450.5,289.8 451.5,298.8 452.5,295.1 453.5,293.4 454.5,294.7 455.5,304.3 456.6,296.9 457.6,301.7 458.6,296.7 459.6,295.6 460.6,292.9 461.6,291.6 462.7,286.7 463.7,287.8 464.7,294.2 465.7,292.6 466.7,297.5 467.8,303.1 468.8,296.8 469.8,304.1 470.8,298.7 471.8,297.8 472.8,299.3 473.9,297.1 474.9,296.6 475.9,305.5 476.9,301.9 477.9,304.5 478.9,302.9 480.0,303.4 481.0,302.7 482.0,304.5 483.0,301.7 484.0,300.0 485.1,297.3 486.1,295.0 487.1,305.0 488.1,302.7 489.1,303.7 490.1,302.8 491.2,298.5 492.2,257.0 493.2,291.0 494.2,298.5 495.2,296.3 496.2,301.0 497.3,301.6 498.3,299.9 499.3,299.3 500.3,299.6 501.3,296.0 502.4,299.4 503.4,305.6 504.4,306.5 505.4,300.9 506.4,302.7 507.4,295.0 508.5,302.2 509.5,296.9 510.5,304.8 511.5,299.1 512.5,295.6 513.5,295.1 514.6,300.9 515.6,301.0 516.6,300.7 517.6,304.5 518.6,292.6 519.6,303.5 520.7,306.0 521.7,295.5 522.7,297.4 523.7,302.8 524.7,295.8 525.8,299.5 526.8,304.0 527.8,301.7 528.8,303.8 529.8,300.8 530.8,306.1 531.9,305.6 532.9,300.8 533.9,303.2 534.9,297.1 535.9,300.2 536.9,292.3 538.0,292.0 539.0,292.1 540.0,299.3 541.0,298.5 542.0,298.8 543.1,301.5 544.1,299.6 545.1,305.3 546.1,300.2 547.1,300.6 548.1,304.7 549.2,299.2 550.2,304.4 551.2,299.7 552.2,306.4 553.2,299.1 554.2,304.5 555.3,303.3 556.3,298.0 557.3,263.7 558.3,302.9 559.3,304.6 560.4,301.3 561.4,300.8 562.4,298.3 563.4,299.9 564.4,302.7 565.4,298.6 566.5,304.0 567.5,302.8 568.5,303.0 569.5,301.1 570.5,308.3 571.5,304.5 572.6,309.0 573.6,304.5 574.6,303.7 575.6,304.9 576.6,303.6 577.6,305.3 578.7,299.5 579.7,305.2 580.7,297.1 581.7,302.2 582.7,288.1 583.8,294.6 584.8,299.7 585.8,287.4 586.8,299.0 587.8,298.4 588.8,296.8 589.9,301.1 590.9,299.5 591.9,302.6 592.9,299.3 593.9,303.0 594.9,298.0 596.0,301.6 597.0,305.3 598.0,304.5 599.0,290.4 600.0,303.1 601.1,299.6 602.1,302.4 603.1,303.1 604.1,304.7 605.1,296.3 606.1,301.7 607.2,292.9 608.2,298.2 609.2,294.8 610.2,293.5 611.2,299.4 612.2,297.4 613.3,300.4 614.3,295.6 615.3,301.5 616.3,282.6 617.3,297.4 618.4,291.2 619.4,300.8 620.4,281.3 621.4,303.6 622.4,292.1 623.4,296.5 624.5,300.9 625.5,293.9 626.5,295.3 627.5,305.2 628.5,304.7 629.5,300.3 630.6,302.0 631.6,297.5 632.6,295.0 633.6,296.6 634.6,292.7 635.6,298.7 636.7,291.1 637.7,289.9 638.7,292.8 639.7,302.6 640.7,303.5 641.8,301.6 642.8,297.5 643.8,303.0 644.8,302.5 645.8,299.3 646.8,300.0 647.9,295.7 648.9,300.6 649.9,302.5 650.9,302.2 651.9,300.7 652.9,305.4 654.0,305.1 655.0,301.0 656.0,294.2 657.0,301.0 658.0,298.9 659.1,290.4 660.1,295.9 661.1,294.1 662.1,301.3 663.1,298.2 664.1,299.2 665.2,302.6 666.2,300.9 667.2,299.2 668.2,302.7 669.2,303.6 670.2,299.5 671.3,304.4 672.3,298.2 673.3,302.7 674.3,304.9 675.3,303.3 676.4,303.8 677.4,305.7 678.4,294.6 679.4,306.7 680.4,303.7 681.4,295.1 682.5,294.1 683.5,293.7 684.5,295.9 685.5,295.9 686.5,298.1 687.5,284.7 688.6,294.9 689.6,298.6 690.6,296.3 691.6,294.2 692.6,300.6 693.6,294.3 694.7,295.9 695.7,303.8 696.7,295.8 697.7,302.6 698.7,297.7 699.8,300.0 700.8,300.7 701.8,298.3 702.8,294.8 703.8,295.8 704.8,303.0 705.9,295.6 706.9,296.0 707.9,295.2 708.9,295.3 709.9,295.0 710.9,299.9 712.0,299.0 713.0,295.9 714.0,303.3 715.0,302.9 716.0,298.2 717.1,305.5 718.1,300.9 719.1,300.4 720.1,305.2 721.1,295.8 722.1,301.8 723.2,303.2 724.2,304.6 725.2,299.1 726.2,301.0 727.2,298.0 728.2,298.8 729.3,297.3 730.3,300.8 731.3,296.0 732.3,293.0 733.3,284.2 734.4,298.8 735.4,293.9 736.4,298.9 737.4,298.8 738.4,298.0 739.4,291.0 740.5,292.3 741.5,298.2 742.5,297.5 743.5,297.5 744.5,298.5 745.5,288.2 746.6,296.5 747.6,297.3 748.6,301.7 749.6,301.0 750.6,305.4 751.6,295.8 752.7,295.1 753.7,299.8 754.7,289.6 755.7,296.7 756.7,295.1 757.8,295.1 758.8,294.8 759.8,297.5 760.8,299.5 761.8,295.8 762.8,297.0 763.9,291.7 764.9,285.1 765.9,299.7 766.9,301.0 767.9,293.6 768.9,302.3 770.0,297.5 771.0,307.7 772.0,292.5 773.0,304.9 774.0,304.1 775.1,291.9 776.1,305.2 777.1,297.8 778.1,298.1 779.1,307.4 780.1,305.4 781.2,294.0 782.2,284.5 783.2,295.7 784.2,281.6 785.2,295.8 786.2,307.1 787.3,303.5 788.3,299.2 789.3,301.5 790.3,309.0 791.3,287.8 792.4,293.3 793.4,314.3 794.4,300.8 795.4,304.2 796.4,299.2 797.4,305.4 798.5,297.5 799.5,303.5 800.5,297.3 801.5,286.2 802.5,295.6 803.5,293.4 804.6,295.3 805.6,292.6 806.6,295.0 807.6,297.5 808.6,303.2 809.6,307.8 810.7,295.2 811.7,306.6 812.7,305.0 813.7,305.4 814.7,303.1 815.8,297.4 816.8,293.5 817.8,305.0 818.8,310.4 819.8,306.6 820.8,309.4 821.9,304.0 822.9,307.8 823.9,308.2 824.9,299.0 825.9,288.2 826.9,297.1 828.0,298.1 829.0,298.6 830.0,298.7 831.0,295.2 832.0,305.8 833.1,307.8 834.1,304.4 835.1,309.3 836.1,306.7 837.1,303.2 838.1,303.6 839.2,296.5 840.2,304.1 841.2,305.5 842.2,308.2 843.2,291.8 844.2,301.9 845.3,305.3 846.3,302.2 847.3,300.9 848.3,302.7 849.3,295.0 850.4,295.0 851.4,295.3 852.4,299.1 853.4,299.0 854.4,300.9 855.4,304.6 856.5,307.3 857.5,303.1 858.5,300.9 859.5,303.0 860.5,290.9 861.5,301.1 862.6,301.9 863.6,302.0 864.6,295.6 865.6,306.6 866.6,304.1 867.6,288.8 868.7,297.4 869.7,295.3 870.7,295.7 871.7,296.1 872.7,306.3 873.8,300.3 874.8,304.9 875.8,295.7 876.8,303.6 877.8,305.1 878.8,302.6 879.9,301.6 880.9,285.2 881.9,304.3 882.9,334.7 883.9,343.7 884.9,343.8 886.0,343.5 887.0,344.0 888.0,319.0 889.0,342.3 890.0,343.1 891.1,342.6 892.1,343.4 893.1,343.4 894.1,343.4 895.1,338.9 896.1,343.5 897.2,344.5 898.2,342.7 899.2,342.0 900.2,343.8 901.2,343.0 902.2,343.2 903.3,340.3 904.3,342.7 905.3,343.4 906.3,342.2 907.3,343.9 908.4,341.8 909.4,341.2 910.4,342.8 911.4,342.4 912.4,343.3 913.4,344.8 914.5,343.7 915.5,343.3 916.5,344.0 917.5,342.7 918.5,343.5 919.5,341.8 920.6,340.1 921.6,342.3 922.6,342.4 923.6,339.6 924.6,341.5 925.6,340.5 926.7,343.1 927.7,341.6 928.7,340.5 929.7,342.3 930.7,342.5 931.8,342.2 932.8,343.0 933.8,342.6 934.8,342.9 935.8,343.5 936.8,342.4 937.9,340.9 938.9,341.4 939.9,342.5 940.9,343.3 941.9,343.5 942.9,343.3 944.0,343.2 945.0,342.6 946.0,340.0" fill="none" stroke="#2563eb" stroke-width="2.2" stroke-linejoin="round" stroke-linecap="round"/>
<polyline points="76.0,311.4 77.0,324.9 78.0,334.1 79.1,334.5 80.1,335.0 81.1,334.6 82.1,334.4 83.1,330.8 84.1,334.6 85.2,334.6 86.2,320.5 87.2,334.6 88.2,334.2 89.2,330.7 90.2,334.4 91.3,333.8 92.3,321.1 93.3,330.5 94.3,332.4 95.3,310.6 96.4,302.9 97.4,305.9 98.4,320.5 99.4,315.5 100.4,310.4 101.4,329.8 102.5,333.4 103.5,312.5 104.5,335.0 105.5,319.0 106.5,330.5 107.5,283.8 108.6,300.4 109.6,303.3 110.6,308.3 111.6,331.3 112.6,312.5 113.6,310.6 114.7,334.9 115.7,335.0 116.7,329.7 117.7,310.6 118.7,310.6 119.8,312.5 120.8,340.8 121.8,334.9 122.8,308.9 123.8,310.3 124.8,334.9 125.9,335.3 126.9,334.2 127.9,333.4 128.9,333.9 129.9,334.6 130.9,331.5 132.0,334.6 133.0,330.9 134.0,334.3 135.0,334.6 136.0,334.2 137.1,335.0 138.1,334.9 139.1,334.9 140.1,344.0 141.1,335.8 142.1,334.9 143.2,334.9 144.2,330.7 145.2,344.0 146.2,335.6 147.2,336.2 148.2,336.2 149.3,335.0 150.3,338.1 151.3,336.2 152.3,336.1 153.3,335.1 154.4,335.0 155.4,335.0 156.4,334.5 157.4,335.0 158.4,334.6 159.4,334.6 160.5,335.0 161.5,335.0 162.5,335.0 163.5,334.3 164.5,334.9 165.5,334.9 166.6,330.7 167.6,334.7 168.6,312.2 169.6,329.6 170.6,331.1 171.6,333.8 172.7,344.0 173.7,330.6 174.7,333.8 175.7,335.0 176.7,336.2 177.8,334.7 178.8,334.7 179.8,334.8 180.8,334.6 181.8,331.0 182.8,330.5 183.9,331.5 184.9,333.0 185.9,335.0 186.9,334.9 187.9,334.9 188.9,334.1 190.0,334.9 191.0,334.9 192.0,331.5 193.0,332.3 194.0,336.2 195.1,344.0 196.1,336.1 197.1,335.0 198.1,310.1 199.1,334.9 200.1,334.5 201.2,334.7 202.2,333.8 203.2,334.9 204.2,334.0 205.2,334.9 206.2,334.9 207.3,334.9 208.3,335.0 209.3,334.7 210.3,333.2 211.3,334.9 212.4,335.0 213.4,335.0 214.4,334.1 215.4,334.2 216.4,330.3 217.4,310.6 218.5,298.7 219.5,309.8 220.5,304.4 221.5,310.2 222.5,310.1 223.5,327.6 224.6,333.0 225.6,333.8 226.6,333.8 227.6,334.9 228.6,334.9 229.6,333.8 230.7,334.7 231.7,334.7 232.7,334.6 233.7,344.0 234.7,334.9 235.8,334.9 236.8,335.0 237.8,335.0 238.8,333.8 239.8,334.4 240.8,330.9 241.9,319.7 242.9,298.7 243.9,334.1 244.9,326.9 245.9,334.7 246.9,331.8 248.0,331.8 249.0,331.4 250.0,334.7 251.0,334.4 252.0,334.6 253.1,334.6 254.1,330.7 255.1,330.7 256.1,334.9 257.1,334.4 258.1,331.0 259.2,334.6 260.2,335.0 261.2,334.6 262.2,334.9 263.2,330.5 264.2,334.3 265.3,315.6 266.3,334.6 267.3,298.7 268.3,334.0 269.3,329.7 270.4,332.6 271.4,331.8 272.4,310.6 273.4,331.8 274.4,332.3 275.4,334.6 276.5,323.8 277.5,334.0 278.5,295.8 279.5,298.7 280.5,327.1 281.5,331.1 282.6,330.7 283.6,332.3 284.6,334.6 285.6,334.7 286.6,334.1 287.6,324.8 288.7,315.1 289.7,308.6 290.7,305.4 291.7,298.7 292.7,306.5 293.8,305.4 294.8,331.7 295.8,305.5 296.8,317.0 297.8,333.4 298.8,335.0 299.9,334.1 300.9,335.0 301.9,334.9 302.9,333.7 303.9,335.0 304.9,319.7 306.0,319.7 307.0,334.1 308.0,333.8 309.0,333.4 310.0,334.7 311.1,334.6 312.1,331.3 313.1,305.4 314.1,308.2 315.1,308.3 316.1,298.7 317.2,310.2 318.2,335.5 319.2,336.2 320.2,312.5 321.2,334.5 322.2,336.2 323.3,335.9 324.3,336.2 325.3,335.0 326.3,333.8 327.3,334.3 328.4,334.4 329.4,333.5 330.4,334.6 331.4,334.4 332.4,329.6 333.4,308.9 334.5,334.1 335.5,308.2 336.5,334.4 337.5,310.7 338.5,310.3 339.5,325.1 340.6,305.5 341.6,319.7 342.6,344.0 343.6,315.6 344.6,334.2 345.6,308.2 346.7,309.9 347.7,330.0 348.7,334.1 349.7,335.0 350.7,333.2 351.8,323.8 352.8,333.8 353.8,308.2 354.8,306.1 355.8,323.8 356.8,315.6 357.9,333.4 358.9,332.6 359.9,303.2 360.9,334.1 361.9,334.7 362.9,326.5 364.0,333.8 365.0,320.8 366.0,333.7 367.0,333.7 368.0,334.1 369.1,330.7 370.1,331.8 371.1,333.7 372.1,334.6 373.1,333.8 374.1,333.0 375.2,310.6 376.2,334.7 377.2,330.7 378.2,345.9 379.2,333.8 380.2,334.7 381.3,333.7 382.3,334.7 383.3,334.7 384.3,310.6 385.3,315.4 386.4,332.0 387.4,310.5 388.4,331.7 389.4,305.3 390.4,330.5 391.4,326.9 392.5,302.2 393.5,309.7 394.5,335.9 395.5,333.4 396.5,334.9 397.5,334.4 398.6,306.5 399.6,306.5 400.6,318.3 401.6,320.1 402.6,323.6 403.6,331.8 404.7,310.6 405.7,305.4 406.7,308.2 407.7,331.8 408.7,305.2 409.8,330.5 410.8,334.1 411.8,326.7 412.8,330.7 413.8,305.4 414.8,308.2 415.9,333.8 416.9,334.1 417.9,335.0 418.9,340.8 419.9,336.2 420.9,336.1 422.0,335.0 423.0,336.2 424.0,335.8 425.0,333.8 426.0,334.4 427.1,335.0 428.1,334.8 429.1,334.9 430.1,334.6 431.1,331.8 432.1,334.5 433.2,335.0 434.2,329.1 435.2,330.7 436.2,325.8 437.2,325.3 438.2,308.2 439.3,333.5 440.3,308.4 441.3,310.3 442.3,330.5 443.3,319.6 444.4,308.3 445.4,334.6 446.4,318.7 447.4,335.8 448.4,335.0 449.4,297.6 450.5,305.3 451.5,325.3 452.5,325.7 453.5,318.9 454.5,310.3 455.5,334.9 456.6,321.4 457.6,334.2 458.6,331.5 459.6,329.7 460.6,309.6 461.6,308.4 462.7,298.7 463.7,302.7 464.7,305.5 465.7,309.0 466.7,331.8 467.8,334.0 468.8,329.6 469.8,334.7 470.8,333.8 471.8,335.0 472.8,334.0 473.9,334.0 474.9,325.3 475.9,334.9 476.9,334.5 477.9,334.6 478.9,334.7 480.0,334.7 481.0,334.7 482.0,334.6 483.0,334.1 484.0,326.9 485.1,326.6 486.1,305.4 487.1,343.0 488.1,335.3 489.1,344.0 490.1,335.0 491.2,329.1 492.2,301.0 493.2,334.2 494.2,334.1 495.2,315.6 496.2,335.0 497.3,334.1 498.3,334.6 499.3,333.6 500.3,330.5 501.3,330.4 502.4,333.8 503.4,335.0 504.4,335.0 505.4,333.2 506.4,334.4 507.4,310.5 508.5,332.0 509.5,310.1 510.5,332.7 511.5,305.4 512.5,309.8 513.5,310.6 514.6,330.0 515.6,333.8 516.6,332.4 517.6,335.3 518.6,318.3 519.6,334.7 520.7,336.2 521.7,331.4 522.7,325.8 523.7,334.6 524.7,331.3 525.8,331.8 526.8,334.7 527.8,334.5 528.8,333.8 529.8,330.7 530.8,334.9 531.9,334.8 532.9,331.8 533.9,333.2 534.9,310.7 535.9,330.5 536.9,308.2 538.0,308.4 539.0,305.4 540.0,330.4 541.0,326.9 542.0,330.4 543.1,334.9 544.1,331.5 545.1,335.0 546.1,334.6 547.1,334.1 548.1,334.9 549.2,334.7 550.2,335.0 551.2,333.8 552.2,335.0 553.2,333.3 554.2,334.6 555.3,335.0 556.3,332.7 557.3,283.6 558.3,333.8 559.3,335.0 560.4,319.3 561.4,331.1 562.4,329.7 563.4,331.8 564.4,334.1 565.4,334.6 566.5,334.9 567.5,334.7 568.5,334.6 569.5,334.8 570.5,335.0 571.5,334.9 572.6,335.0 573.6,334.9 574.6,334.7 575.6,334.9 576.6,335.0 577.6,334.7 578.7,334.1 579.7,335.7 580.7,334.1 581.7,334.4 582.7,305.3 583.8,319.6 584.8,309.3 585.8,300.7 586.8,310.4 587.8,330.5 588.8,310.6 589.9,330.5 590.9,333.0 591.9,334.7 592.9,333.8 593.9,334.1 594.9,330.9 596.0,334.7 597.0,334.9 598.0,334.9 599.0,305.4 600.0,334.4 601.1,331.0 602.1,335.0 603.1,333.8 604.1,335.0 605.1,333.8 606.1,334.9 607.2,310.6 608.2,334.3 609.2,306.4 610.2,308.4 611.2,333.8 612.2,330.9 613.3,334.1 614.3,329.7 615.3,334.3 616.3,305.3 617.3,330.7 618.4,328.8 619.4,333.8 620.4,295.8 621.4,334.6 622.4,310.6 623.4,310.6 624.5,333.8 625.5,318.4 626.5,318.5 627.5,334.2 628.5,334.9 629.5,334.1 630.6,334.1 631.6,330.4 632.6,308.2 633.6,308.2 634.6,310.2 635.6,333.8 636.7,310.6 637.7,310.4 638.7,327.3 639.7,332.0 640.7,335.0 641.8,334.6 642.8,334.0 643.8,334.6 644.8,334.5 645.8,330.7 646.8,333.5 647.9,331.5 648.9,334.6 649.9,334.1 650.9,333.8 651.9,330.7 652.9,334.7 654.0,334.9 655.0,332.0 656.0,307.0 657.0,326.1 658.0,305.4 659.1,306.4 660.1,309.0 661.1,306.4 662.1,334.6 663.1,327.0 664.1,333.8 665.2,333.2 666.2,334.1 667.2,335.0 668.2,334.6 669.2,333.9 670.2,333.8 671.3,334.7 672.3,330.7 673.3,331.8 674.3,334.9 675.3,334.1 676.4,334.6 677.4,334.9 678.4,327.5 679.4,335.0 680.4,333.6 681.4,319.7 682.5,302.9 683.5,310.1 684.5,327.5 685.5,326.8 686.5,323.6 687.5,298.7 688.6,310.6 689.6,331.1 690.6,330.7 691.6,334.6 692.6,324.6 693.6,323.8 694.7,330.4 695.7,333.8 696.7,330.7 697.7,334.6 698.7,323.9 699.8,333.2 700.8,334.1 701.8,325.7 702.8,309.1 703.8,315.6 704.8,333.8 705.9,308.5 706.9,306.5 707.9,308.2 708.9,310.2 709.9,312.5 710.9,331.0 712.0,331.9 713.0,317.9 714.0,334.6 715.0,335.0 716.0,335.0 717.1,335.0 718.1,334.6 719.1,333.8 720.1,334.9 721.1,330.4 722.1,334.3 723.2,334.6 724.2,334.2 725.2,333.8 726.2,335.0 727.2,330.7 728.2,333.8 729.3,315.5 730.3,330.7 731.3,305.4 732.3,324.4 733.3,306.5 734.4,331.8 735.4,308.9 736.4,333.8 737.4,333.8 738.4,331.2 739.4,310.7 740.5,333.8 741.5,330.0 742.5,327.2 743.5,323.8 744.5,330.0 745.5,305.0 746.6,312.5 747.6,333.8 748.6,332.0 749.6,329.7 750.6,333.8 751.6,322.8 752.7,308.3 753.7,310.4 754.7,305.2 755.7,305.4 756.7,308.2 757.8,310.7 758.8,310.1 759.8,319.6 760.8,325.7 761.8,330.8 762.8,330.9 763.9,305.4 764.9,305.2 765.9,333.8 766.9,331.0 767.9,305.4 768.9,334.7 770.0,308.3 771.0,334.1 772.0,334.7 773.0,332.8 774.0,332.9 775.1,308.2 776.1,335.0 777.1,330.4 778.1,310.4 779.1,330.0 780.1,326.8 781.2,305.9 782.2,306.4 783.2,323.8 784.2,296.7 785.2,334.1 786.2,335.0 787.3,335.0 788.3,331.5 789.3,334.7 790.3,335.0 791.3,304.3 792.4,308.2 793.4,335.0 794.4,331.8 795.4,334.5 796.4,331.2 797.4,334.7 798.5,331.8 799.5,321.5 800.5,334.9 801.5,331.9 802.5,310.4 803.5,308.3 804.6,305.4 805.6,305.9 806.6,305.7 807.6,324.6 808.6,330.7 809.6,334.5 810.7,331.6 811.7,335.0 812.7,335.0 813.7,335.0 814.7,322.4 815.8,334.9 816.8,331.1 817.8,335.0 818.8,344.0 819.8,344.0 820.8,344.0 821.9,334.6 822.9,335.0 823.9,335.0 824.9,334.4 825.9,311.6 826.9,308.9 828.0,308.2 829.0,308.1 830.0,330.4 831.0,308.6 832.0,337.4 833.1,335.0 834.1,335.0 835.1,335.0 836.1,331.8 837.1,332.0 838.1,334.1 839.2,330.5 840.2,334.6 841.2,335.0 842.2,334.9 843.2,312.5 844.2,333.8 845.3,332.0 846.3,333.8 847.3,331.7 848.3,331.0 849.3,310.7 850.4,308.6 851.4,314.0 852.4,327.1 853.4,304.8 854.4,340.8 855.4,341.6 856.5,335.0 857.5,334.6 858.5,334.6 859.5,324.6 860.5,317.8 861.5,346.0 862.6,334.6 863.6,334.9 864.6,317.9 865.6,344.0 866.6,334.0 867.6,321.8 868.7,332.8 869.7,325.5 870.7,333.8 871.7,313.7 872.7,334.6 873.8,328.5 874.8,331.2 875.8,305.4 876.8,331.0 877.8,310.0 878.8,331.4 879.9,330.2 880.9,290.8 881.9,335.0 882.9,347.8 883.9,350.1 884.9,349.5 886.0,346.1 887.0,349.4 888.0,341.0 889.0,346.4 890.0,349.3 891.1,344.7 892.1,345.1 893.1,349.2 894.1,349.4 895.1,343.5 896.1,350.0 897.2,350.1 898.2,347.6 899.2,344.9 900.2,349.2 901.2,345.2 902.2,344.1 903.3,344.7 904.3,345.7 905.3,346.1 906.3,345.7 907.3,349.5 908.4,345.1 909.4,349.4 910.4,348.7 911.4,346.1 912.4,345.8 913.4,351.6 914.5,348.3 915.5,345.7 916.5,349.9 917.5,344.7 918.5,346.4 919.5,345.2 920.6,343.4 921.6,345.2 922.6,346.1 923.6,342.1 924.6,343.4 925.6,343.5 926.7,345.2 927.7,345.2 928.7,344.0 929.7,345.2 930.7,345.4 931.8,345.3 932.8,344.8 933.8,345.8 934.8,346.1 935.8,344.8 936.8,345.0 937.9,344.3 938.9,345.2 939.9,347.2 940.9,347.4 941.9,350.1 942.9,346.4 944.0,348.8 945.0,348.0 946.0,343.6" fill="none" stroke="#059669" stroke-width="2.2" stroke-linejoin="round" stroke-linecap="round"/>
<polyline points="76.0,208.9 77.0,216.7 78.0,223.4 79.1,228.3 80.1,236.4 81.1,228.3 82.1,223.3 83.1,216.9 84.1,223.4 85.2,223.3 86.2,199.8 87.2,223.4 88.2,224.6 89.2,223.3 90.2,226.2 91.3,227.6 92.3,211.5 93.3,216.7 94.3,236.0 95.3,216.6 96.4,215.8 97.4,199.8 98.4,220.3 99.4,223.2 100.4,223.4 101.4,220.5 102.5,223.3 103.5,213.2 104.5,216.6 105.5,200.1 106.5,199.8 107.5,160.5 108.6,170.2 109.6,170.2 110.6,209.6 111.6,215.8 112.6,209.6 113.6,208.2 114.7,233.3 115.7,241.0 116.7,230.2 117.7,223.3 118.7,223.8 119.8,223.4 120.8,227.6 121.8,220.4 122.8,213.7 123.8,221.6 124.8,214.1 125.9,236.4 126.9,233.9 127.9,228.8 128.9,229.4 129.9,230.2 130.9,223.4 132.0,223.4 133.0,224.4 134.0,227.8 135.0,231.4 136.0,223.4 137.1,236.4 138.1,240.4 139.1,233.6 140.1,244.6 141.1,239.4 142.1,240.4 143.2,238.9 144.2,236.3 145.2,251.7 146.2,206.3 147.2,236.6 148.2,237.6 149.3,234.6 150.3,248.7 151.3,242.6 152.3,246.3 153.3,241.1 154.4,232.3 155.4,233.3 156.4,228.3 157.4,223.5 158.4,229.7 159.4,233.3 160.5,246.2 161.5,238.6 162.5,241.0 163.5,231.4 164.5,230.1 165.5,230.4 166.6,216.6 167.6,239.0 168.6,223.4 169.6,231.9 170.6,231.4 171.6,242.9 172.7,248.9 173.7,223.4 174.7,227.9 175.7,242.4 176.7,237.1 177.8,229.7 178.8,234.8 179.8,236.4 180.8,233.2 181.8,223.4 182.8,223.4 183.9,230.1 184.9,233.2 185.9,241.8 186.9,237.6 187.9,246.3 188.9,230.4 190.0,230.5 191.0,237.1 192.0,236.4 193.0,236.6 194.0,241.3 195.1,240.4 196.1,240.4 197.1,233.2 198.1,200.3 199.1,223.3 200.1,223.4 201.2,216.6 202.2,229.6 203.2,233.3 204.2,231.4 205.2,233.3 206.2,230.8 207.3,236.3 208.3,236.3 209.3,233.3 210.3,230.2 211.3,238.7 212.4,238.8 213.4,237.6 214.4,228.0 215.4,226.9 216.4,237.0 217.4,226.6 218.5,232.3 219.5,231.4 220.5,207.0 221.5,223.4 222.5,223.3 223.5,223.3 224.6,225.0 225.6,223.4 226.6,236.4 227.6,236.4 228.6,231.9 229.6,230.2 230.7,235.6 231.7,236.3 232.7,236.7 233.7,251.5 234.7,233.3 235.8,233.3 236.8,241.1 237.8,241.0 238.8,233.3 239.8,232.1 240.8,225.6 241.9,223.4 242.9,241.1 243.9,223.4 244.9,199.8 245.9,231.6 246.9,233.2 248.0,223.4 249.0,228.7 250.0,233.2 251.0,236.4 252.0,233.2 253.1,232.7 254.1,233.7 255.1,223.4 256.1,238.3 257.1,233.9 258.1,223.4 259.2,232.6 260.2,238.6 261.2,240.5 262.2,247.9 263.2,224.1 264.2,223.3 265.3,224.5 266.3,234.8 267.3,247.0 268.3,227.7 269.3,223.2 270.4,223.4 271.4,225.2 272.4,222.7 273.4,229.5 274.4,223.4 275.4,228.1 276.5,212.0 277.5,223.2 278.5,160.5 279.5,171.2 280.5,200.0 281.5,210.4 282.6,201.6 283.6,223.4 284.6,232.3 285.6,227.9 286.6,226.7 287.6,216.8 288.7,216.6 289.7,223.4 290.7,200.0 291.7,227.0 292.7,199.8 293.8,199.8 294.8,223.4 295.8,210.4 296.8,217.0 297.8,224.4 298.8,223.4 299.9,224.5 300.9,224.1 301.9,226.6 302.9,223.4 303.9,233.2 304.9,208.9 306.0,221.6 307.0,233.3 308.0,232.1 309.0,223.3 310.0,228.3 311.1,230.2 312.1,223.4 313.1,202.6 314.1,220.4 315.1,223.2 316.1,257.5 317.2,219.7 318.2,214.4 319.2,240.0 320.2,215.3 321.2,228.3 322.2,233.5 323.3,241.1 324.3,240.7 325.3,233.2 326.3,233.2 327.3,227.4 328.4,223.4 329.4,240.4 330.4,231.6 331.4,230.9 332.4,218.4 333.4,210.8 334.5,228.0 335.5,182.3 336.5,231.0 337.5,214.8 338.5,222.1 339.5,223.4 340.6,227.6 341.6,214.7 342.6,240.7 343.6,215.1 344.6,221.5 345.6,199.7 346.7,197.1 347.7,195.3 348.7,216.6 349.7,210.6 350.7,223.4 351.8,170.2 352.8,220.5 353.8,205.1 354.8,205.7 355.8,199.8 356.8,221.7 357.9,228.0 358.9,223.4 359.9,168.9 360.9,223.3 361.9,231.5 362.9,223.2 364.0,223.4 365.0,176.3 366.0,200.3 367.0,226.2 368.0,231.6 369.1,223.4 370.1,209.8 371.1,233.3 372.1,232.6 373.1,224.4 374.1,223.4 375.2,220.4 376.2,230.2 377.2,223.3 378.2,251.8 379.2,231.2 380.2,231.4 381.3,230.2 382.3,233.1 383.3,233.1 384.3,224.5 385.3,223.2 386.4,223.3 387.4,223.3 388.4,223.3 389.4,214.8 390.4,223.4 391.4,214.7 392.5,213.3 393.5,223.3 394.5,233.1 395.5,214.9 396.5,223.3 397.5,219.0 398.6,209.6 399.6,200.3 400.6,215.1 401.6,223.3 402.6,215.1 403.6,232.5 404.7,223.3 405.7,205.7 406.7,207.1 407.7,223.3 408.7,223.4 409.8,223.3 410.8,233.2 411.8,223.4 412.8,234.8 413.8,223.2 414.8,223.0 415.9,223.4 416.9,223.9 417.9,231.2 418.9,248.1 419.9,233.3 420.9,235.7 422.0,239.4 423.0,233.2 424.0,229.7 425.0,215.5 426.0,231.7 427.1,233.2 428.1,233.2 429.1,233.1 430.1,228.3 431.1,225.3 432.1,231.2 433.2,240.6 434.2,220.4 435.2,223.3 436.2,223.4 437.2,228.4 438.2,226.3 439.3,226.6 440.3,210.1 441.3,213.3 442.3,220.4 443.3,226.5 444.4,213.9 445.4,223.3 446.4,215.7 447.4,224.2 448.4,233.2 449.4,170.2 450.5,199.8 451.5,223.3 452.5,200.5 453.5,212.4 454.5,214.7 455.5,233.1 456.6,221.6 457.6,228.3 458.6,223.3 459.6,215.7 460.6,212.4 461.6,200.0 462.7,192.4 463.7,194.7 464.7,208.9 465.7,200.0 466.7,215.1 467.8,228.0 468.8,213.3 469.8,233.3 470.8,223.1 471.8,222.6 472.8,223.4 473.9,219.0 474.9,223.2 475.9,240.4 476.9,226.2 477.9,231.5 478.9,233.2 480.0,226.7 481.0,233.2 482.0,236.3 483.0,240.4 484.0,223.5 485.1,224.2 486.1,223.4 487.1,233.2 488.1,227.8 489.1,223.4 490.1,231.7 491.2,226.6 492.2,92.4 493.2,215.1 494.2,223.3 495.2,213.8 496.2,231.5 497.3,230.2 498.3,223.4 499.3,223.4 500.3,223.3 501.3,220.4 502.4,223.2 503.4,233.2 504.4,238.4 505.4,233.2 506.4,231.7 507.4,213.9 508.5,223.4 509.5,223.3 510.5,238.0 511.5,232.3 512.5,217.1 513.5,212.6 514.6,230.2 515.6,226.8 516.6,230.5 517.6,233.4 518.6,200.3 519.6,233.3 520.7,233.3 521.7,216.7 522.7,220.5 523.7,228.0 524.7,220.3 525.8,219.8 526.8,226.9 527.8,231.9 528.8,233.0 529.8,223.3 530.8,237.7 531.9,240.3 532.9,225.0 533.9,236.6 534.9,223.3 535.9,227.9 536.9,211.9 538.0,214.8 539.0,214.8 540.0,223.3 541.0,223.3 542.0,217.0 543.1,234.2 544.1,224.1 545.1,231.5 546.1,223.4 547.1,223.4 548.1,236.6 549.2,216.9 550.2,233.6 551.2,224.5 552.2,236.6 553.2,223.3 554.2,231.8 555.3,231.4 556.3,223.3 557.3,168.8 558.3,223.3 559.3,224.5 560.4,224.6 561.4,226.7 562.4,223.4 563.4,223.3 564.4,239.7 565.4,223.4 566.5,230.2 567.5,223.4 568.5,228.4 569.5,226.6 570.5,238.6 571.5,232.1 572.6,236.6 573.6,236.3 574.6,232.3 575.6,236.4 576.6,233.6 577.6,240.4 578.7,223.4 579.7,241.1 580.7,212.7 581.7,225.1 582.7,205.7 583.8,213.8 584.8,223.4 585.8,201.9 586.8,223.3 587.8,223.1 588.8,223.4 589.9,231.5 590.9,223.4 591.9,236.3 592.9,223.4 593.9,226.9 594.9,222.4 596.0,223.4 597.0,234.7 598.0,235.8 599.0,200.3 600.0,230.5 601.1,230.2 602.1,235.3 603.1,230.2 604.1,232.1 605.1,216.6 606.1,232.6 607.2,212.7 608.2,230.1 609.2,222.9 610.2,219.7 611.2,225.0 612.2,223.4 613.3,223.4 614.3,219.7 615.3,229.3 616.3,196.0 617.3,220.2 618.4,212.0 619.4,231.5 620.4,170.2 621.4,230.2 622.4,199.8 623.4,220.0 624.5,216.7 625.5,210.0 626.5,215.8 627.5,239.5 628.5,231.5 629.5,223.3 630.6,227.9 631.6,223.3 632.6,209.9 633.6,223.4 634.6,207.1 635.6,223.3 636.7,200.0 637.7,199.8 638.7,201.8 639.7,223.4 640.7,235.0 641.8,223.4 642.8,216.6 643.8,230.6 644.8,231.6 645.8,219.9 646.8,223.3 647.9,214.8 648.9,231.3 649.9,230.2 650.9,231.4 651.9,236.4 652.9,240.4 654.0,229.4 655.0,228.0 656.0,218.7 657.0,227.7 658.0,227.9 659.1,204.0 660.1,220.5 661.1,215.5 662.1,226.7 663.1,224.4 664.1,225.1 665.2,232.1 666.2,231.5 667.2,223.4 668.2,229.2 669.2,236.3 670.2,223.7 671.3,237.1 672.3,225.0 673.3,231.4 674.3,236.4 675.3,236.3 676.4,233.4 677.4,237.6 678.4,212.1 679.4,228.0 680.4,233.2 681.4,222.8 682.5,223.2 683.5,222.2 684.5,222.3 685.5,215.1 686.5,223.4 687.5,172.5 688.6,210.3 689.6,223.3 690.6,214.0 691.6,217.9 692.6,231.6 693.6,215.8 694.7,214.9 695.7,232.2 696.7,222.0 697.7,227.8 698.7,223.3 699.8,223.3 700.8,230.1 701.8,220.4 702.8,211.4 703.8,208.2 704.8,232.6 705.9,223.1 706.9,224.4 707.9,218.9 708.9,223.2 709.9,211.8 710.9,228.8 712.0,223.6 713.0,223.3 714.0,233.2 715.0,229.9 716.0,223.3 717.1,236.3 718.1,223.7 719.1,223.4 720.1,236.8 721.1,214.9 722.1,230.2 723.2,227.6 724.2,234.1 725.2,223.7 726.2,225.3 727.2,222.3 728.2,223.4 729.3,224.5 730.3,223.4 731.3,218.4 732.3,208.6 733.3,195.0 734.4,224.5 735.4,212.1 736.4,229.2 737.4,223.3 738.4,223.4 739.4,199.9 740.5,208.3 741.5,223.4 742.5,217.7 743.5,220.4 744.5,223.4 745.5,189.0 746.6,215.4 747.6,223.4 748.6,230.2 749.6,224.4 750.6,233.2 751.6,219.1 752.7,216.6 753.7,233.2 754.7,198.6 755.7,223.3 756.7,223.6 757.8,216.6 758.8,223.3 759.8,223.4 760.8,223.4 761.8,221.2 762.8,215.8 763.9,200.2 764.9,183.2 765.9,223.4 766.9,223.7 767.9,200.5 768.9,227.0 770.0,226.5 771.0,241.1 772.0,239.9 773.0,237.3 774.0,236.6 775.1,192.0 776.1,244.7 777.1,208.6 778.1,233.3 779.1,241.0 780.1,240.2 781.2,223.5 782.2,174.1 783.2,223.3 784.2,194.8 785.2,229.1 786.2,236.2 787.3,241.0 788.3,220.4 789.3,228.2 790.3,256.0 791.3,170.2 792.4,200.3 793.4,256.2 794.4,223.4 795.4,226.2 796.4,223.3 797.4,236.7 798.5,223.3 799.5,230.2 800.5,216.6 801.5,181.2 802.5,223.4 803.5,204.6 804.6,210.1 805.6,208.6 806.6,200.0 807.6,223.8 808.6,227.4 809.6,243.2 810.7,213.2 811.7,240.6 812.7,224.6 813.7,231.9 814.7,230.1 815.8,241.0 816.8,229.3 817.8,237.6 818.8,247.8 819.8,245.3 820.8,252.0 821.9,236.3 822.9,238.6 823.9,240.9 824.9,199.5 825.9,194.9 826.9,224.5 828.0,218.0 829.0,223.5 830.0,216.6 831.0,216.7 832.0,233.2 833.1,236.3 834.1,237.1 835.1,245.8 836.1,238.2 837.1,237.1 838.1,230.8 839.2,207.1 840.2,236.3 841.2,233.2 842.2,240.9 843.2,213.1 844.2,223.4 845.3,236.4 846.3,227.7 847.3,224.6 848.3,230.2 849.3,214.8 850.4,222.2 851.4,216.8 852.4,223.3 853.4,229.9 854.4,224.9 855.4,227.8 856.5,257.6 857.5,230.2 858.5,236.7 859.5,235.8 860.5,223.4 861.5,231.8 862.6,223.4 863.6,223.3 864.6,211.7 865.6,242.1 866.6,225.6 867.6,200.2 868.7,220.4 869.7,223.3 870.7,223.4 871.7,214.7 872.7,233.5 873.8,223.3 874.8,238.6 875.8,223.3 876.8,241.1 877.8,240.4 878.8,223.4 879.9,225.0 880.9,198.4 881.9,237.3 882.9,299.1 883.9,332.3 884.9,333.7 886.0,330.9 887.0,331.5 888.0,256.7 889.0,327.6 890.0,327.7 891.1,331.7 892.1,333.7 893.1,332.3 894.1,331.6 895.1,322.4 896.1,331.5 897.2,332.9 898.2,331.0 899.2,328.4 900.2,333.2 901.2,329.7 902.2,329.7 903.3,329.6 904.3,330.4 905.3,331.5 906.3,327.6 907.3,331.5 908.4,329.1 909.4,327.7 910.4,330.3 911.4,328.4 912.4,331.3 913.4,335.3 914.5,331.5 915.5,330.0 916.5,331.5 917.5,330.0 918.5,331.6 919.5,327.6 920.6,329.0 921.6,330.0 922.6,328.8 923.6,326.0 924.6,327.7 925.6,327.5 926.7,329.2 927.7,328.1 928.7,327.6 929.7,329.0 930.7,331.5 931.8,327.6 932.8,329.6 933.8,328.9 934.8,331.5 935.8,331.5 936.8,330.1 937.9,322.8 938.9,329.3 939.9,331.5 940.9,331.8 941.9,331.3 942.9,329.1 944.0,331.5 945.0,332.5 946.0,322.8" fill="none" stroke="#d97706" stroke-width="2.2" stroke-linejoin="round" stroke-linecap="round"/>
<line x1="76" y1="70" x2="94" y2="70" stroke="#2563eb" stroke-width="3"/>
<text x="100" y="74" font-family="Arial, sans-serif" font-size="11" fill="#0f172a">avg fee</text>
<line x1="179" y1="70" x2="197" y2="70" stroke="#059669" stroke-width="3"/>
<text x="203" y="74" font-family="Arial, sans-serif" font-size="11" fill="#0f172a">median fee</text>
<line x1="303" y1="70" x2="321" y2="70" stroke="#d97706" stroke-width="3"/>
<text x="327" y="74" font-family="Arial, sans-serif" font-size="11" fill="#0f172a">p90 fee</text>
<text x="28" y="404" font-family="Arial, sans-serif" font-size="11" fill="#64748b">Source: hourly_features.csv</text>
</svg>