<svg xmlns="http://www.w3.org/2000/svg" width="980" height="420" viewBox="0 0 980 420">
<rect width="100%" height="100%" fill="#ffffff"/>
<text x="28" y="34" font-family="Arial, sans-serif" font-size="20" font-weight="700" fill="#0f172a">Hourly fee trend</text>
<text x="28" y="56" font-family="Arial, sans-serif" font-size="12" fill="#64748b">Average, median, and p90 total fee by hour</text>
<line x1="76" y1="362.0" x2="946" y2="362.0" stroke="#e2e8f0" stroke-width="1"/>
<text x="68" y="366.0" font-family="Arial, sans-serif" font-size="10" text-anchor="end" fill="#64748b">-446K</text>
<line x1="76" y1="292.0" x2="946" y2="292.0" stroke="#e2e8f0" stroke-width="1"/>
<text x="68" y="296.0" font-family="Arial, sans-serif" font-size="10" text-anchor="end" fill="#64748b">2.6M</text>
<line x1="76" y1="222.0" x2="946" y2="222.0" stroke="#e2e8f0" stroke-width="1"/>
<text x="68" y="226.0" font-family="Arial, sans-serif" font-size="10" text-anchor="end" fill="#64748b">5.6M</text>
<line x1="76" y1="152.0" x2="946" y2="152.0" stroke="#e2e8f0" stroke-width="1"/>
<text x="68" y="156.0" font-family="Arial, sans-serif" font-size="10" text-anchor="end" fill="#64748b">8.7M</text>
<line x1="76" y1="82.0" x2="946" y2="82.0" stroke="#e2e8f0" stroke-width="1"/>
<text x="68" y="86.0" font-family="Arial, sans-serif" font-size="10" text-anchor="end" fill="#64748b">11.7M</text>
<line x1="76" y1="362" x2="946" y2="362" stroke="#334155" stroke-width="1"/>
<line x1="76" y1="82" x2="76" y2="362" stroke="#334155" stroke-width="1"/>
<text x="76" y="72" font-family="Arial, sans-serif" font-size="11" fill="#64748b">nanoton</text>
<line x1="76.0" y1="362" x2="76.0" y2="366" stroke="#334155" stroke-width="1"/>
<text x="76.0" y="380" font-family="Arial, sans-serif" font-size="10" text-anchor="middle" fill="#64748b">0</text>
<line x1="511.3" y1="362" x2="511.3" y2="366" stroke="#334155" stroke-width="1"/>
<text x="511.3" y="380" font-family="Arial, sans-serif" font-size="10" text-anchor="middle" fill="#64748b">766</text>
<line x1="946.0" y1="362" x2="946.0" y2="366" stroke="#334155" stroke-width="1"/>
<text x="946.0" y="380" font-family="Arial, sans-serif" font-size="10" text-anchor="middle" fill="#64748b">1531</text>
<polyline points="76.0,289.7 76.6,293.5 77.1,294.8 77.7,297.0 78.3,303.7 78.8,296.0 79.4,297.1 80.0,293.5 80.5,297.8 81.1,297.6 81.7,286.7 82.3,298.4 82.8,298.5 83.4,296.2 84.0,299.1 84.5,299.3 85.1,291.4 85.7,291.4 86.2,300.1 86.8,290.0 87.4,288.1 87.9,286.3 88.5,292.7 89.1,293.1 89.6,295.0 90.2,291.0 90.8,296.6 91.3,289.5 91.9,292.1 92.5,287.3 93.0,287.9 93.6,272.1 94.2,283.6 94.8,284.2 95.3,293.5 95.9,298.8 96.5,291.8 97.0,293.8 97.6,303.5 98.2,306.3 98.7,301.0 99.3,295.8 99.9,297.5 100.4,296.8 101.0,303.2 101.6,296.3 102.1,293.4 102.7,295.4 103.3,297.5 103.8,301.9 104.4,301.9 105.0,300.8 105.5,299.2 106.1,302.1 106.7,301.0 107.3,298.3 107.8,298.0 108.4,301.7 109.0,298.0 109.5,300.2 110.1,305.6 110.7,307.5 111.2,305.2 111.8,305.9 112.4,307.9 112.9,304.7 113.5,304.3 114.1,300.9 114.6,307.3 115.2,289.6 115.8,305.2 116.3,305.2 116.9,305.1 117.5,310.0 118.1,305.9 118.6,309.1 119.2,307.9 119.8,304.3 120.3,304.3 120.9,302.1 121.5,302.3 122.0,300.2 122.6,303.9 123.2,306.2 123.7,305.7 124.3,306.9 124.9,303.9 125.4,301.8 126.0,301.6 126.6,297.4 127.1,303.7 127.7,295.9 128.3,298.1 128.8,299.2 129.4,302.8 130.0,310.4 130.6,299.0 131.1,299.3 131.7,307.7 132.3,306.3 132.8,299.1 133.4,303.1 134.0,303.9 134.5,301.4 135.1,299.3 135.7,296.3 136.2,297.5 136.8,300.8 137.4,306.9 137.9,306.2 138.5,306.2 139.1,301.9 139.6,300.7 140.2,303.0 140.8,302.8 141.3,302.8 141.9,307.1 142.5,307.7 143.1,306.1 143.6,299.9 144.2,285.8 144.8,300.5 145.3,297.6 145.9,294.9 146.5,298.4 147.0,304.3 147.6,300.3 148.2,303.8 148.7,301.0 149.3,303.7 149.9,305.6 150.4,303.7 151.0,299.6 151.6,303.6 152.1,306.8 152.7,301.3 153.3,300.6 153.9,302.0 154.4,302.2 155.0,297.8 155.6,297.3 156.1,296.9 156.7,288.3 157.3,295.7 157.8,295.3 158.4,294.4 159.0,298.5 159.5,297.9 160.1,303.5 160.7,302.8 161.2,302.6 161.8,298.0 162.4,300.0 162.9,304.5 163.5,303.3 164.1,310.9 164.6,304.5 165.2,303.1 165.8,305.8 166.4,305.7 166.9,300.8 167.5,302.6 168.1,299.6 168.6,300.5 169.2,299.1 169.8,297.6 170.3,289.5 170.9,294.9 171.5,299.4 172.0,295.4 172.6,301.5 173.2,301.4 173.7,301.8 174.3,301.5 174.9,301.6 175.4,302.6 176.0,299.0 176.6,304.4 177.1,301.8 177.7,298.1 178.3,301.7 178.9,305.5 179.4,304.9 180.0,305.5 180.6,297.3 181.1,300.4 181.7,296.7 182.3,302.6 182.8,299.1 183.4,298.3 184.0,294.5 184.5,297.0 185.1,297.2 185.7,292.6 186.2,298.8 186.8,296.8 187.4,297.5 187.9,293.0 188.5,296.7 189.1,276.9 189.7,283.2 190.2,294.1 190.8,294.6 191.4,293.3 191.9,299.6 192.5,303.1 193.1,301.2 193.6,301.0 194.2,296.8 194.8,294.2 195.3,295.4 195.9,290.3 196.5,290.9 197.0,289.5 197.6,288.9 198.2,298.5 198.7,290.8 199.3,295.6 199.9,298.6 200.4,302.6 201.0,301.3 201.6,300.9 202.2,301.1 202.7,299.7 203.3,302.4 203.9,294.7 204.4,296.6 205.0,303.3 205.6,303.1 206.1,298.4 206.7,302.7 207.3,302.3 207.8,297.8 208.4,287.6 209.0,292.6 209.5,293.1 210.1,302.5 210.7,294.5 211.2,295.8 211.8,304.4 212.4,293.7 212.9,299.3 213.5,303.9 214.1,307.3 214.7,304.3 215.2,302.8 215.8,299.5 216.4,302.6 216.9,298.1 217.5,301.9 218.1,303.8 218.6,301.9 219.2,298.2 219.8,293.3 220.3,298.8 220.9,285.2 221.5,300.9 222.0,292.8 222.6,296.8 223.2,298.3 223.7,296.3 224.3,293.3 224.9,309.2 225.5,290.5 226.0,294.5 226.6,280.6 227.2,293.5 227.7,292.1 228.3,293.9 228.9,289.9 229.4,299.9 230.0,278.8 230.6,296.1 231.1,290.7 231.7,290.4 232.3,282.2 232.8,297.2 233.4,299.2 234.0,297.5 234.5,287.3 235.1,297.9 235.7,303.2 236.2,296.6 236.8,294.4 237.4,278.8 238.0,283.1 238.5,299.4 239.1,298.7 239.7,297.0 240.2,292.3 240.8,301.9 241.4,301.8 241.9,297.5 242.5,295.6 243.1,296.2 243.6,300.2 244.2,297.0 244.8,310.2 245.3,298.3 245.9,302.3 246.5,300.0 247.0,301.8 247.6,303.1 248.2,296.7 248.7,293.3 249.3,298.1 249.9,294.0 250.5,300.6 251.0,291.5 251.6,296.5 252.2,292.8 252.7,288.9 253.3,294.0 253.9,303.4 254.4,290.0 255.0,299.2 255.6,294.8 256.1,292.0 256.7,290.5 257.3,295.7 257.8,296.0 258.4,296.7 259.0,298.4 259.5,291.7 260.1,285.2 260.7,289.0 261.3,298.8 261.8,293.4 262.4,299.7 263.0,301.8 263.5,298.0 264.1,301.4 264.7,294.0 265.2,295.9 265.8,301.6 266.4,300.5 266.9,301.8 267.5,307.5 268.1,305.6 268.6,304.9 269.2,305.3 269.8,303.1 270.3,303.3 270.9,297.2 271.5,300.0 272.0,301.9 272.6,302.2 273.2,303.0 273.8,301.2 274.3,298.2 274.9,303.3 275.5,305.9 276.0,296.2 276.6,297.8 277.2,296.9 277.7,298.5 278.3,296.7 278.9,299.9 279.4,286.2 280.0,293.2 280.6,293.6 281.1,297.5 281.7,290.2 282.3,297.2 282.8,293.5 283.4,297.6 284.0,303.1 284.5,281.1 285.1,288.7 285.7,297.7 286.3,294.0 286.8,292.2 287.4,293.6 288.0,303.2 288.5,295.7 289.1,300.5 289.7,295.6 290.2,294.4 290.8,291.8 291.4,290.5 291.9,285.6 292.5,286.7 293.1,293.1 293.6,291.5 294.2,296.3 294.8,301.9 295.3,295.7 295.9,303.0 296.5,297.5 297.1,296.7 297.6,298.2 298.2,296.0 298.8,295.5 299.3,304.3 299.9,300.7 300.5,303.3 301.0,301.8 301.6,302.2 302.2,301.5 302.7,303.3 303.3,300.6 303.9,298.9 304.4,296.2 305.0,293.9 305.6,303.9 306.1,301.5 306.7,302.6 307.3,301.6 307.8,297.3 308.4,256.1 309.0,289.9 309.6,297.4 310.1,295.2 310.7,299.8 311.3,300.5 311.8,298.7 312.4,298.2 313.0,298.5 313.5,294.9 314.1,298.3 314.7,304.4 315.2,305.3 315.8,299.7 316.4,301.5 316.9,293.9 317.5,301.0 318.1,295.8 318.6,303.7 319.2,297.9 319.8,294.5 320.4,294.0 320.9,299.7 321.5,299.8 322.1,299.5 322.6,303.3 323.2,291.5 323.8,302.4 324.3,304.9 324.9,294.4 325.5,296.3 326.0,301.7 326.6,294.7 327.2,298.3 327.7,302.8 328.3,300.5 328.9,302.6 329.4,299.6 330.0,305.0 330.6,304.4 331.1,299.6 331.7,302.0 332.3,295.9 332.9,299.0 333.4,291.2 334.0,290.9 334.6,291.0 335.1,298.1 335.7,297.3 336.3,297.7 336.8,300.4 337.4,298.5 338.0,304.1 338.5,299.1 339.1,299.4 339.7,303.5 340.2,298.0 340.8,303.2 341.4,298.5 341.9,305.2 342.5,298.0 343.1,303.3 343.6,302.1 344.2,296.9 344.8,262.7 345.4,301.8 345.9,303.4 346.5,300.1 347.1,299.6 347.6,297.2 348.2,298.8 348.8,301.5 349.3,297.5 349.9,302.8 350.5,301.6 351.0,301.9 351.6,300.0 352.2,307.1 352.7,303.3 353.3,307.8 353.9,303.4 354.4,302.5 355.0,303.7 355.6,302.4 356.2,304.1 356.7,298.4 357.3,304.0 357.9,296.0 358.4,301.0 359.0,287.0 359.6,293.5 360.1,298.6 360.7,286.3 361.3,297.9 361.8,297.3 362.4,295.7 363.0,300.0 363.5,298.3 364.1,301.4 364.7,298.1 365.2,301.8 365.8,296.9 366.4,300.5 366.9,304.1 367.5,303.3 368.1,289.3 368.7,302.0 369.2,298.5 369.8,301.2 370.4,302.0 370.9,303.5 371.5,295.1 372.1,300.5 372.6,291.8 373.2,297.1 373.8,293.7 374.3,292.4 374.9,298.2 375.5,296.3 376.0,299.3 376.6,294.5 377.2,300.4 377.7,281.6 378.3,296.2 378.9,290.1 379.4,299.6 380.0,280.3 380.6,302.5 381.2,291.0 381.7,295.4 382.3,299.8 382.9,292.8 383.4,294.2 384.0,304.1 384.6,303.5 385.1,299.2 385.7,300.8 386.3,296.4 386.8,293.8 387.4,295.5 388.0,291.6 388.5,297.5 389.1,290.0 389.7,288.8 390.2,291.6 390.8,301.4 391.4,302.3 392.0,300.5 392.5,296.4 393.1,301.9 393.7,301.4 394.2,298.2 394.8,298.8 395.4,294.6 395.9,299.5 396.5,301.3 397.1,301.1 397.6,299.6 398.2,304.2 398.8,303.9 399.3,299.9 399.9,293.1 400.5,299.8 401.0,297.8 401.6,289.3 402.2,294.8 402.7,293.0 403.3,300.2 403.9,297.0 404.5,298.0 405.0,301.4 405.6,299.8 406.2,298.0 406.7,301.5 407.3,302.4 407.9,298.4 408.4,303.2 409.0,297.0 409.6,301.5 410.1,303.7 410.7,302.1 411.3,302.6 411.8,304.6 412.4,293.5 413.0,305.5 413.5,302.5 414.1,294.0 414.7,293.0 415.2,292.5 415.8,294.8 416.4,294.8 417.0,297.0 417.5,283.6 418.1,293.8 418.7,297.4 419.2,295.2 419.8,293.1 420.4,299.5 420.9,293.2 421.5,294.8 422.1,302.6 422.6,294.7 423.2,301.4 423.8,296.5 424.3,298.9 424.9,299.6 425.5,297.2 426.0,293.7 426.6,294.7 427.2,301.9 427.8,294.4 428.3,294.9 428.9,294.0 429.5,294.2 430.0,293.9 430.6,298.8 431.2,297.8 431.7,294.7 432.3,302.1 432.9,301.8 433.4,297.1 434.0,304.4 434.6,299.7 435.1,299.3 435.7,304.0 436.3,294.7 436.8,300.7 437.4,302.0 438.0,303.4 438.5,298.0 439.1,299.8 439.7,296.8 440.3,297.6 440.8,296.1 441.4,299.7 442.0,294.8 442.5,291.9 443.1,283.1 443.7,297.6 444.2,292.8 444.8,297.8 445.4,297.7 445.9,296.8 446.5,289.9 447.1,291.2 447.6,297.1 448.2,296.4 448.8,296.4 449.3,297.4 449.9,287.1 450.5,295.4 451.0,296.2 451.6,300.6 452.2,299.8 452.8,304.2 453.3,294.6 453.9,294.0 454.5,298.7 455.0,288.5 455.6,295.6 456.2,294.0 456.7,294.0 457.3,293.7 457.9,296.3 458.4,298.4 459.0,294.7 459.6,295.9 460.1,290.6 460.7,284.0 461.3,298.6 461.8,299.9 462.4,298.2 463.0,301.6 463.6,293.0 464.1,303.1 464.7,295.1 465.3,294.4 465.8,298.9 466.4,288.2 467.0,300.5 467.5,297.3 468.1,294.4 468.7,297.4 469.2,297.0 469.8,289.3 470.4,291.9 470.9,289.8 471.5,276.8 472.1,296.3 472.6,299.8 473.2,298.9 473.8,285.8 474.3,297.5 474.9,301.0 475.5,282.3 476.1,288.9 476.6,305.9 477.2,292.1 477.8,297.7 478.3,300.6 478.9,297.8 479.5,297.6 480.0,296.7 480.6,295.3 481.2,288.6 481.7,287.0 482.3,287.8 482.9,293.8 483.4,284.9 484.0,289.9 484.6,292.8 485.1,296.4 485.7,294.8 486.3,280.0 486.8,301.8 487.4,301.9 488.0,296.4 488.6,296.2 489.1,298.7 489.7,297.9 490.3,298.2 490.8,299.6 491.4,302.9 492.0,303.2 492.5,304.0 493.1,300.8 493.7,295.5 494.2,289.5 494.8,291.0 495.4,292.0 495.9,293.1 496.5,293.0 497.1,291.5 497.6,292.8 498.2,292.7 498.8,298.1 499.4,299.2 499.9,295.6 500.5,295.5 501.1,297.0 501.6,292.8 502.2,294.2 502.8,295.6 503.3,292.8 503.9,293.2 504.5,295.3 505.0,297.4 505.6,299.5 506.2,300.4 506.7,292.4 507.3,298.1 507.9,297.0 508.4,295.5 509.0,298.8 509.6,295.6 510.1,298.0 510.7,296.6 511.3,302.0 511.9,298.1 512.4,300.6 513.0,299.5 513.6,296.8 514.1,296.6 514.7,299.1 515.3,298.5 515.8,297.4 516.4,291.6 517.0,298.6 517.5,297.8 518.1,297.2 518.7,297.6 519.2,294.3 519.8,294.8 520.4,292.6 520.9,304.3 521.5,299.7 522.1,300.0 522.6,296.7 523.2,300.7 523.8,301.0 524.4,299.4 524.9,300.2 525.5,303.5 526.1,301.3 526.6,339.2 527.2,342.6 527.8,342.3 528.3,342.4 528.9,342.2 529.5,342.2 530.0,342.4 530.6,341.5 531.2,342.2 531.7,342.1 532.3,342.0 532.9,342.6 533.4,343.1 534.0,343.0 534.6,342.3 535.2,341.9 535.7,341.1 536.3,341.7 536.9,341.4 537.4,340.8 538.0,340.9 538.6,341.3 539.1,341.5 539.7,340.0 540.3,340.7 540.8,340.9 541.4,336.9 542.0,340.6 542.5,341.7 543.1,341.6 543.7,341.2 544.2,341.5 544.8,341.5 545.4,341.5 545.9,342.4 546.5,341.6 547.1,341.6 547.7,340.6 548.2,340.6 548.8,339.3 549.4,339.9 549.9,340.5 550.5,340.7 551.1,340.4 551.6,340.9 552.2,339.4 552.8,340.3 553.3,340.9 553.9,341.0 554.5,340.7 555.0,341.2 555.6,341.1 556.2,341.0 556.7,340.3 557.3,340.9 557.9,341.4 558.4,340.8 559.0,340.7 559.6,342.2 560.2,340.9 560.7,341.0 561.3,340.7 561.9,340.3 562.4,340.0 563.0,339.9 563.6,340.4 564.1,340.9 564.7,341.1 565.3,340.9 565.8,340.6 566.4,340.6 567.0,340.9 567.5,341.4 568.1,339.6 568.7,339.5 569.2,338.7 569.8,339.3 570.4,337.7 571.0,337.3 571.5,338.0 572.1,338.3 572.7,337.5 573.2,338.1 573.8,337.7 574.4,338.7 574.9,337.8 575.5,337.6 576.1,337.7 576.6,337.3 577.2,337.0 577.8,335.7 578.3,335.9 578.9,336.7 579.5,337.1 580.0,337.9 580.6,336.5 581.2,337.4 581.7,335.7 582.3,336.5 582.9,336.4 583.5,337.5 584.0,336.9 584.6,337.0 585.2,336.5 585.7,336.7 586.3,337.5 586.9,338.7 587.4,339.0 588.0,338.2 588.6,337.0 589.1,333.7 589.7,336.9 590.3,337.2 590.8,336.6 591.4,338.1 592.0,337.4 592.5,338.8 593.1,337.8 593.7,337.1 594.2,337.7 594.8,338.5 595.4,338.3 596.0,338.3 596.5,337.6 597.1,338.3 597.7,336.6 598.2,338.7 598.8,337.8 599.4,338.2 599.9,338.1 600.5,338.6 601.1,338.7 601.6,338.1 602.2,337.4 602.8,337.8 603.3,336.8 603.9,337.1 604.5,338.4 605.0,337.5 605.6,337.8 606.2,337.0 606.8,338.1 607.3,336.8 607.9,337.9 608.5,338.5 609.0,335.9 609.6,338.2 610.2,338.1 610.7,338.2 611.3,339.0 611.9,338.2 612.4,339.1 613.0,338.2 613.6,337.1 614.1,338.4 614.7,339.2 615.3,338.1 615.8,337.3 616.4,336.7 617.0,338.3 617.5,338.3 618.1,338.4 618.7,338.7 619.3,338.0 619.8,338.5 620.4,338.6 621.0,338.9 621.5,338.6 622.1,339.0 622.7,339.1 623.2,338.4 623.8,338.9 624.4,339.0 624.9,337.1 625.5,338.3 626.1,336.8 626.6,338.7 627.2,337.8 627.8,339.0 628.3,338.5 628.9,339.4 629.5,339.3 630.0,338.4 630.6,338.7 631.2,338.5 631.8,338.6 632.3,336.5 632.9,336.6 633.5,338.1 634.0,339.0 634.6,339.1 635.2,339.8 635.7,339.1 636.3,337.2 636.9,338.8 637.4,340.1 638.0,339.6 638.6,340.1 639.1,339.4 639.7,339.9 640.3,338.5 640.8,340.3 641.4,340.0 642.0,339.9 642.6,335.9 643.1,339.6 643.7,338.3 644.3,338.4 644.8,339.3 645.4,338.0 646.0,338.8 646.5,338.3 647.1,339.0 647.7,339.5 648.2,339.3 648.8,339.3 649.4,338.5 649.9,347.3 650.5,339.8 651.1,341.1 651.6,339.7 652.2,340.3 652.8,337.8 653.3,339.2 653.9,338.3 654.5,338.8 655.1,339.2 655.6,338.8 656.2,339.8 656.8,338.9 657.3,337.6 657.9,338.4 658.5,338.0 659.0,338.9 659.6,340.0 660.2,339.5 660.7,336.5 661.3,336.2 661.9,338.6 662.4,340.3 663.0,337.7 663.6,338.3 664.1,337.5 664.7,336.4 665.3,338.1 665.8,339.1 666.4,338.0 667.0,338.4 667.6,338.7 668.1,340.2 668.7,340.8 669.3,340.6 669.8,336.5 670.4,339.5 671.0,339.6 671.5,339.7 672.1,339.1 672.7,339.6 673.2,339.6 673.8,339.5 674.4,338.3 674.9,339.9 675.5,340.3 676.1,340.5 676.6,340.7 677.2,338.7 677.8,340.1 678.4,340.7 678.9,340.6 679.5,339.3 680.1,338.9 680.6,339.8 681.2,337.8 681.8,341.2 682.3,340.3 682.9,340.0 683.5,338.7 684.0,340.6 684.6,340.2 685.2,338.8 685.7,339.4 686.3,339.6 686.9,340.5 687.4,338.9 688.0,339.2 688.6,340.8 689.1,340.8 689.7,340.3 690.3,341.1 690.9,340.8 691.4,340.5 692.0,340.0 692.6,340.1 693.1,338.9 693.7,338.9 694.3,341.8 694.8,340.5 695.4,341.8 696.0,341.8 696.5,341.3 697.1,339.2 697.7,341.1 698.2,340.1 698.8,340.3 699.4,340.3 699.9,340.5 700.5,339.8 701.1,341.5 701.6,340.7 702.2,340.5 702.8,340.7 703.4,341.4 703.9,341.3 704.5,338.6 705.1,340.7 705.6,340.9 706.2,341.4 706.8,338.1 707.3,339.3 707.9,340.4 708.5,340.5 709.0,339.8 709.6,341.7 710.2,340.3 710.7,341.4 711.3,339.9 711.9,337.7 712.4,338.4 713.0,338.9 713.6,340.4 714.2,341.1 714.7,341.4 715.3,339.4 715.9,340.5 716.4,340.8 717.0,338.2 717.6,340.7 718.1,341.4 718.7,341.5 719.3,342.0 719.8,341.9 720.4,341.4 721.0,339.6 721.5,341.0 722.1,340.9 722.7,341.2 723.2,342.2 723.8,342.6 724.4,341.1 724.9,341.4 725.5,341.2 726.1,341.5 726.7,342.5 727.2,340.4 727.8,341.3 728.4,340.5 728.9,340.3 729.5,339.6 730.1,340.3 730.6,340.8 731.2,341.1 731.8,341.9 732.3,342.5 732.9,341.7 733.5,341.9 734.0,338.9 734.6,339.5 735.2,340.4 735.7,338.7 736.3,340.1 736.9,340.2 737.5,341.7 738.0,338.3 738.6,342.1 739.2,342.7 739.7,342.7 740.3,342.1 740.9,343.0 741.4,342.5 742.0,342.2 742.6,340.7 743.1,340.3 743.7,341.2 744.3,341.3 744.8,341.1 745.4,342.2 746.0,342.6 746.5,341.0 747.1,341.1 747.7,341.5 748.2,340.5 748.8,337.9 749.4,340.7 750.0,342.0 750.5,341.8 751.1,342.2 751.7,341.2 752.2,340.6 752.8,342.1 753.4,341.0 753.9,341.4 754.5,340.8 755.1,340.5 755.6,340.9 756.2,341.2 756.8,341.2 757.3,341.5 757.9,342.1 758.5,342.0 759.0,341.2 759.6,341.4 760.2,341.1 760.7,341.0 761.3,340.4 761.9,340.6 762.5,336.5 763.0,341.4 763.6,341.6 764.2,341.4 764.7,340.4 765.3,341.8 765.9,342.7 766.4,340.1 767.0,340.8 767.6,341.8 768.1,341.4 768.7,339.9 769.3,340.6 769.8,340.6 770.4,340.9 771.0,341.3 771.5,341.6 772.1,340.7 772.7,342.1 773.3,336.3 773.8,340.7 774.4,338.1 775.0,338.6 775.5,339.4 776.1,340.2 776.7,340.0 777.2,339.9 777.8,338.1 778.4,339.0 778.9,339.5 779.5,338.5 780.1,338.6 780.6,336.4 781.2,337.7 781.8,338.1 782.3,338.4 782.9,337.4 783.5,338.4 784.0,337.2 784.6,336.0 785.2,338.3 785.8,340.5 786.3,339.1 786.9,339.4 787.5,340.3 788.0,341.3 788.6,339.9 789.2,341.5 789.7,339.0 790.3,339.0 790.9,337.9 791.4,337.5 792.0,339.2 792.6,338.5 793.1,337.8 793.7,337.1 794.3,340.0 794.8,337.4 795.4,334.1 796.0,330.2 796.5,330.9 797.1,340.7 797.7,340.6 798.3,340.8 798.8,341.1 799.4,341.7 800.0,340.0 800.5,340.8 801.1,340.9 801.7,342.3 802.2,339.8 802.8,341.8 803.4,337.8 803.9,340.1 804.5,340.8 805.1,340.4 805.6,341.6 806.2,340.5 806.8,339.5 807.3,340.7 807.9,339.9 808.5,335.0 809.1,335.6 809.6,339.7 810.2,340.5 810.8,341.3 811.3,340.6 811.9,340.3 812.5,341.1 813.0,340.6 813.6,341.3 814.2,341.5 814.7,342.0 815.3,340.7 815.9,342.6 816.4,339.4 817.0,341.2 817.6,341.2 818.1,341.0 818.7,342.1 819.3,340.0 819.8,341.1 820.4,341.4 821.0,340.4 821.6,341.3 822.1,340.2 822.7,340.8 823.3,340.7 823.8,340.0 824.4,341.5 825.0,341.3 825.5,340.7 826.1,340.9 826.7,341.2 827.2,341.4 827.8,342.1 828.4,340.7 828.9,341.8 829.5,341.7 830.1,341.5 830.6,340.7 831.2,341.5 831.8,342.2 832.3,342.2 832.9,338.9 833.5,341.7 834.1,341.3 834.6,340.5 835.2,339.3 835.8,340.0 836.3,340.5 836.9,341.6 837.5,340.3 838.0,339.8 838.6,339.8 839.2,340.1 839.7,340.7 840.3,341.5 840.9,341.7 841.4,340.5 842.0,340.4 842.6,341.2 843.1,340.3 843.7,340.5 844.3,341.4 844.9,341.8 845.4,341.7 846.0,341.4 846.6,340.5 847.1,339.8 847.7,341.1 848.3,340.2 848.8,341.1 849.4,340.8 850.0,339.7 850.5,339.9 851.1,340.6 851.7,341.4 852.2,341.2 852.8,342.2 853.4,341.1 853.9,340.9 854.5,339.7 855.1,340.8 855.6,340.2 856.2,340.3 856.8,341.1 857.4,340.1 857.9,339.0 858.5,339.1 859.1,338.7 859.6,337.7 860.2,339.6 860.8,340.4 861.3,341.0 861.9,340.4 862.5,339.4 863.0,339.1 863.6,339.5 864.2,339.5 864.7,339.0 865.3,339.3 865.9,339.4 866.4,340.0 867.0,338.6 867.6,340.2 868.1,339.5 868.7,339.1 869.3,339.3 869.9,339.5 870.4,341.5 871.0,340.0 871.6,341.6 872.1,339.1 872.7,340.8 873.3,340.8 873.8,340.3 874.4,338.7 875.0,340.2 875.5,344.7 876.1,339.5 876.7,339.4 877.2,339.9 877.8,339.8 878.4,339.9 878.9,339.7 879.5,339.9 880.1,340.8 880.7,340.6 881.2,338.6 881.8,338.7 882.4,339.7 882.9,338.7 883.5,340.6 884.1,339.4 884.6,340.4 885.2,338.7 885.8,341.0 886.3,338.7 886.9,339.2 887.5,338.5 888.0,340.6 888.6,336.9 889.2,337.7 889.7,331.5 890.3,326.8 890.9,332.5 891.4,327.9 892.0,327.0 892.6,326.8 893.2,328.7 893.7,339.4 894.3,330.8 894.9,325.7 895.4,326.3 896.0,327.1 896.6,326.0 897.1,329.3 897.7,327.6 898.3,339.6 898.8,339.6 899.4,338.7 900.0,340.1 900.5,340.2 901.1,318.4 901.7,327.5 902.2,333.6 902.8,330.4 903.4,332.5 903.9,334.2 904.5,340.6 905.1,341.4 905.7,340.4 906.2,339.4 906.8,339.2 907.4,337.2 907.9,340.0 908.5,340.3 909.1,339.6 909.6,334.1 910.2,334.7 910.8,339.0 911.3,334.4 911.9,339.7 912.5,338.4 913.0,340.3 913.6,339.9 914.2,339.7 914.7,340.4 915.3,339.2 915.9,339.9 916.5,341.4 917.0,340.9 917.6,338.7 918.2,338.3 918.7,341.3 919.3,339.9 919.9,339.2 920.4,340.4 921.0,339.3 921.6,338.5 922.1,339.6 922.7,339.4 923.3,338.4 923.8,339.8 924.4,339.6 925.0,339.8 925.5,341.3 926.1,342.0 926.7,341.4 927.2,340.9 927.8,341.6 928.4,341.1 929.0,340.5 929.5,338.7 930.1,338.1 930.7,340.0 931.2,340.1 931.8,340.6 932.4,340.6 932.9,340.4 933.5,338.1 934.1,341.1 934.6,341.6 935.2,340.6 935.8,341.0 936.3,339.6 936.9,340.5 937.5,339.9 938.0,341.1 938.6,340.4 939.2,340.5 939.7,339.8 940.3,340.5 940.9,339.9 941.5,340.7 942.0,341.2 942.6,341.0 943.2,341.0 943.7,341.8 944.3,341.1 944.9,340.4 945.4,340.8 946.0,341.1" fill="none" stroke="#2563eb" stroke-width="2.2" stroke-linejoin="round" stroke-linecap="round"/>
<polyline points="76.0,310.2 76.6,323.7 77.1,332.7 77.7,333.2 78.3,333.7 78.8,333.3 79.4,333.0 80.0,329.4 80.5,333.3 81.1,333.3 81.7,319.2 82.3,333.3 82.8,332.8 83.4,329.4 84.0,333.1 84.5,332.5 85.1,319.8 85.7,329.1 86.2,331.1 86.8,309.4 87.4,301.8 87.9,304.7 88.5,319.2 89.1,314.2 89.6,309.2 90.2,328.5 90.8,332.1 91.3,311.3 91.9,333.6 92.5,317.8 93.0,329.2 93.6,282.8 94.2,299.2 94.8,302.1 95.3,307.1 95.9,330.0 96.5,311.3 97.0,309.4 97.6,333.5 98.2,333.7 98.7,328.4 99.3,309.4 99.9,309.3 100.4,311.3 101.0,339.4 101.6,333.5 102.1,307.7 102.7,309.1 103.3,333.6 103.8,334.0 104.4,332.8 105.0,332.1 105.5,332.6 106.1,333.2 106.7,330.1 107.3,333.2 107.8,329.6 108.4,332.9 109.0,333.3 109.5,332.8 110.1,333.6 110.7,333.5 111.2,333.6 111.8,342.6 112.4,334.4 112.9,333.6 113.5,333.6 114.1,329.4 114.6,342.6 115.2,334.2 115.8,334.8 116.3,334.8 116.9,333.7 117.5,336.7 118.1,334.8 118.6,334.8 119.2,333.8 119.8,333.6 120.3,333.6 120.9,333.2 121.5,333.6 122.0,333.3 122.6,333.2 123.2,333.6 123.7,333.7 124.3,333.7 124.9,333.0 125.4,333.6 126.0,333.5 126.6,329.4 127.1,333.4 127.7,311.0 128.3,328.3 128.8,329.8 129.4,332.5 130.0,342.6 130.6,329.3 131.1,332.5 131.7,333.6 132.3,334.8 132.8,333.3 133.4,333.4 134.0,333.5 134.5,333.2 135.1,329.7 135.7,329.2 136.2,330.2 136.8,331.7 137.4,333.6 137.9,333.5 138.5,333.6 139.1,332.7 139.6,333.5 140.2,333.5 140.8,330.2 141.3,331.0 141.9,334.9 142.5,342.6 143.1,334.8 143.6,333.7 144.2,308.9 144.8,333.6 145.3,333.1 145.9,333.3 146.5,332.5 147.0,333.6 147.6,332.7 148.2,333.6 148.7,333.5 149.3,333.6 149.9,333.6 150.4,333.4 151.0,331.8 151.6,333.5 152.1,333.6 152.7,333.6 153.3,332.8 153.9,332.9 154.4,329.0 155.0,309.4 155.6,297.6 156.1,308.6 156.7,303.2 157.3,309.0 157.8,308.9 158.4,326.3 159.0,331.6 159.5,332.5 160.1,332.5 160.7,333.5 161.2,333.6 161.8,332.5 162.4,333.4 162.9,333.3 163.5,333.3 164.1,342.6 164.6,333.6 165.2,333.5 165.8,333.6 166.4,333.6 166.9,332.5 167.5,333.1 168.1,329.6 168.6,318.5 169.2,297.6 169.8,332.7 170.3,325.6 170.9,333.3 171.5,330.4 172.0,330.5 172.6,330.0 173.2,333.4 173.7,333.1 174.3,333.3 174.9,333.3 175.4,329.4 176.0,329.4 176.6,333.6 177.1,333.0 177.7,329.7 178.3,333.2 178.9,333.6 179.4,333.2 180.0,333.6 180.6,329.1 181.1,333.0 181.7,314.3 182.3,333.3 182.8,297.6 183.4,332.7 184.0,328.4 184.5,331.2 185.1,330.5 185.7,309.3 186.2,330.5 186.8,331.0 187.4,333.2 187.9,322.5 188.5,332.6 189.1,294.6 189.7,297.5 190.2,325.8 190.8,329.8 191.4,329.4 191.9,330.9 192.5,333.3 193.1,333.3 193.6,332.7 194.2,323.5 194.8,313.9 195.3,307.4 195.9,304.2 196.5,297.6 197.0,305.3 197.6,304.2 198.2,330.4 198.7,304.3 199.3,315.8 199.9,332.1 200.4,333.6 201.0,332.8 201.6,333.6 202.2,333.6 202.7,332.4 203.3,333.6 203.9,318.5 204.4,318.5 205.0,332.7 205.6,332.5 206.1,332.1 206.7,333.3 207.3,333.2 207.8,329.9 208.4,304.2 209.0,307.1 209.5,307.1 210.1,297.6 210.7,309.0 211.2,334.1 211.8,334.8 212.4,311.3 212.9,333.2 213.5,334.8 214.1,334.6 214.7,334.8 215.2,333.6 215.8,332.5 216.4,332.9 216.9,333.1 217.5,332.2 218.1,333.3 218.6,333.1 219.2,328.3 219.8,307.8 220.3,332.7 220.9,307.0 221.5,333.0 222.0,309.5 222.6,309.1 223.2,323.8 223.7,304.3 224.3,318.5 224.9,342.6 225.5,314.3 226.0,332.8 226.6,307.1 227.2,308.7 227.7,328.7 228.3,332.7 228.9,333.7 229.4,331.9 230.0,322.6 230.6,332.5 231.1,307.0 231.7,305.0 232.3,322.6 232.8,314.3 233.4,332.1 234.0,331.2 234.5,302.0 235.1,332.7 235.7,333.3 236.2,325.2 236.8,332.5 237.4,319.5 238.0,332.3 238.5,332.4 239.1,332.7 239.7,329.4 240.2,330.4 240.8,332.4 241.4,333.3 241.9,332.5 242.5,331.7 243.1,309.4 243.6,333.4 244.2,329.4 244.8,344.5 245.3,332.5 245.9,333.4 246.5,332.4 247.0,333.4 247.6,333.3 248.2,309.4 248.7,314.1 249.3,330.7 249.9,309.3 250.5,330.4 251.0,304.1 251.6,329.2 252.2,325.6 252.7,301.1 253.3,308.5 253.9,334.5 254.4,332.1 255.0,333.6 255.6,333.1 256.1,305.3 256.7,305.3 257.3,317.0 257.8,318.9 258.4,322.3 259.0,330.4 259.5,309.4 260.1,304.2 260.7,307.0 261.3,330.5 261.8,304.0 262.4,329.2 263.0,332.7 263.5,325.4 264.1,329.4 264.7,304.2 265.2,307.0 265.8,332.5 266.4,332.7 266.9,333.7 267.5,339.4 268.1,334.8 268.6,334.7 269.2,333.6 269.8,334.8 270.3,334.4 270.9,332.5 271.5,333.1 272.0,333.6 272.6,333.5 273.2,333.6 273.8,333.3 274.3,330.5 274.9,333.1 275.5,333.6 276.0,327.8 276.6,329.4 277.2,324.5 277.7,324.0 278.3,307.0 278.9,332.2 279.4,307.2 280.0,309.1 280.6,329.2 281.1,318.4 281.7,307.1 282.3,333.2 282.8,317.4 283.4,334.5 284.0,333.6 284.5,296.4 285.1,304.1 285.7,324.0 286.3,324.4 286.8,317.7 287.4,309.1 288.0,333.6 288.5,320.1 289.1,332.8 289.7,330.2 290.2,328.4 290.8,308.4 291.4,307.2 291.9,297.6 292.5,301.5 293.1,304.3 293.6,307.8 294.2,330.4 294.8,332.7 295.3,328.3 295.9,333.3 296.5,332.5 297.1,333.6 297.6,332.7 298.2,332.7 298.8,324.0 299.3,333.6 299.9,333.2 300.5,333.3 301.0,333.4 301.6,333.4 302.2,333.3 302.7,333.2 303.3,332.7 303.9,325.6 304.4,325.4 305.0,304.3 305.6,341.6 306.1,333.9 306.7,342.6 307.3,333.7 307.8,327.8 308.4,299.9 309.0,332.9 309.6,332.8 310.1,314.4 310.7,333.7 311.3,332.8 311.8,333.3 312.4,332.2 313.0,329.2 313.5,329.1 314.1,332.5 314.7,333.6 315.2,333.6 315.8,331.8 316.4,333.0 316.9,309.3 317.5,330.7 318.1,308.9 318.6,331.4 319.2,304.3 319.8,308.6 320.4,309.4 320.9,328.7 321.5,332.5 322.1,331.1 322.6,333.9 323.2,317.1 323.8,333.3 324.3,334.8 324.9,330.0 325.5,324.5 326.0,333.3 326.6,330.0 327.2,330.4 327.7,333.4 328.3,333.1 328.9,332.5 329.4,329.4 330.0,333.6 330.6,333.5 331.1,330.4 331.7,331.9 332.3,309.5 332.9,329.2 333.4,307.0 334.0,307.2 334.6,304.2 335.1,329.1 335.7,325.6 336.3,329.1 336.8,333.5 337.4,330.2 338.0,333.6 338.5,333.3 339.1,332.7 339.7,333.5 340.2,333.3 340.8,333.6 341.4,332.5 341.9,333.6 342.5,331.9 343.1,333.3 343.6,333.6 344.2,331.4 344.8,282.5 345.4,332.5 345.9,333.7 346.5,318.1 347.1,329.8 347.6,328.4 348.2,330.5 348.8,332.7 349.3,333.2 349.9,333.6 350.5,333.4 351.0,333.2 351.6,333.4 352.2,333.7 352.7,333.5 353.3,333.7 353.9,333.6 354.4,333.3 355.0,333.6 355.6,333.6 356.2,333.3 356.7,332.7 357.3,334.4 357.9,332.7 358.4,333.0 359.0,304.1 359.6,318.4 360.1,308.1 360.7,299.6 361.3,309.2 361.8,329.2 362.4,309.4 363.0,329.2 363.5,331.7 364.1,333.4 364.7,332.5 365.2,332.7 365.8,329.6 366.4,333.3 366.9,333.5 367.5,333.5 368.1,304.2 368.7,333.1 369.2,329.7 369.8,333.7 370.4,332.5 370.9,333.6 371.5,332.5 372.1,333.5 372.6,309.3 373.2,333.0 373.8,305.2 374.3,307.2 374.9,332.5 375.5,329.6 376.0,332.7 376.6,328.4 377.2,333.0 377.7,304.1 378.3,329.4 378.9,327.5 379.4,332.5 380.0,294.7 380.6,333.3 381.2,309.3 381.7,309.4 382.3,332.5 382.9,317.1 383.4,317.2 384.0,332.8 384.6,333.6 385.1,332.7 385.7,332.7 386.3,329.1 386.8,307.0 387.4,307.0 388.0,309.0 388.5,332.5 389.1,309.4 389.7,309.2 390.2,326.0 390.8,330.7 391.4,333.6 392.0,333.2 392.5,332.6 393.1,333.3 393.7,333.2 394.2,329.4 394.8,332.2 395.4,330.2 395.9,333.2 396.5,332.7 397.1,332.5 397.6,329.4 398.2,333.3 398.8,333.6 399.3,330.7 399.9,305.8 400.5,324.8 401.0,304.2 401.6,305.2 402.2,307.8 402.7,305.2 403.3,333.3 403.9,325.7 404.5,332.5 405.0,331.8 405.6,332.8 406.2,333.6 406.7,333.2 407.3,332.6 407.9,332.5 408.4,333.3 409.0,329.4 409.6,330.4 410.1,333.5 410.7,332.7 411.3,333.2 411.8,333.6 412.4,326.2 413.0,333.6 413.5,332.3 414.1,318.5 414.7,301.8 415.2,308.9 415.8,326.2 416.4,325.5 417.0,322.3 417.5,297.5 418.1,309.4 418.7,329.8 419.2,329.4 419.8,333.3 420.4,323.3 420.9,322.6 421.5,329.1 422.1,332.5 422.6,329.4 423.2,333.3 423.8,322.6 424.3,331.8 424.9,332.7 425.5,324.4 426.0,307.9 426.6,314.3 427.2,332.5 427.8,307.3 428.3,305.3 428.9,307.0 429.5,309.0 430.0,311.3 430.6,329.7 431.2,330.6 431.7,316.7 432.3,333.3 432.9,333.6 433.4,333.6 434.0,333.6 434.6,333.3 435.1,332.5 435.7,333.5 436.3,329.1 436.8,333.0 437.4,333.2 438.0,332.9 438.5,332.5 439.1,333.6 439.7,329.4 440.3,332.5 440.8,314.3 441.4,329.4 442.0,304.2 442.5,323.1 443.1,305.4 443.7,330.5 444.2,307.8 444.8,332.5 445.4,332.5 445.9,329.9 446.5,309.5 447.1,332.5 447.6,328.7 448.2,325.9 448.8,322.6 449.3,328.7 449.9,303.9 450.5,311.3 451.0,332.5 451.6,330.7 452.2,328.4 452.8,332.5 453.3,321.6 453.9,307.1 454.5,309.2 455.0,304.0 455.6,304.2 456.2,307.0 456.7,309.5 457.3,308.9 457.9,318.4 458.4,324.4 459.0,329.5 459.6,329.6 460.1,304.2 460.7,304.0 461.3,332.5 461.8,329.6 462.4,329.2 463.0,332.5 463.6,309.4 464.1,333.2 464.7,329.5 465.3,317.8 465.8,326.6 466.4,307.1 467.0,330.7 467.5,333.6 468.1,309.3 468.7,309.4 469.2,304.4 469.8,304.2 470.4,306.5 470.9,307.8 471.5,284.3 472.1,325.0 472.6,330.0 473.2,332.5 473.8,307.0 474.3,332.5 474.9,333.3 475.5,295.9 476.1,304.1 476.6,333.4 477.2,307.1 477.8,332.4 478.3,332.7 478.9,330.7 479.5,330.4 480.0,329.2 480.6,332.5 481.2,328.2 481.7,304.1 482.3,304.0 482.9,302.2 483.4,301.9 484.0,304.2 484.6,307.8 485.1,317.8 485.7,330.3 486.3,304.8 486.8,333.6 487.4,339.4 488.0,333.2 488.6,333.3 489.1,333.7 489.7,333.5 490.3,333.6 490.8,333.6 491.4,335.7 492.0,334.4 492.5,333.7 493.1,330.6 493.7,332.7 494.2,322.7 494.8,307.0 495.4,308.7 495.9,309.1 496.5,307.8 497.1,322.3 497.6,324.0 498.2,325.8 498.8,333.6 499.4,330.5 499.9,330.7 500.5,317.4 501.1,329.2 501.6,322.6 502.2,318.5 502.8,329.3 503.3,318.5 503.9,318.4 504.5,326.3 505.0,328.3 505.6,332.5 506.2,332.5 506.7,309.3 507.3,327.8 507.9,311.3 508.4,324.6 509.0,322.2 509.6,308.2 510.1,325.6 510.7,333.7 511.3,334.2 511.9,329.4 512.4,331.9 513.0,329.6 513.6,332.8 514.1,331.0 514.7,332.7 515.3,332.5 515.8,332.1 516.4,311.2 517.0,332.7 517.5,329.4 518.1,329.8 518.7,325.9 519.2,328.1 519.8,309.4 520.4,328.9 520.9,334.4 521.5,330.3 522.1,329.2 522.6,323.1 523.2,326.3 523.8,327.6 524.4,330.4 524.9,330.4 525.5,333.6 526.1,332.1 526.6,347.5 527.2,348.5 527.8,348.2 528.3,348.5 528.9,348.5 529.5,348.5 530.0,348.0 530.6,348.2 531.2,348.4 531.7,348.2 532.3,347.5 532.9,348.5 533.4,348.6 534.0,348.5 534.6,347.7 535.2,345.9 535.7,344.5 536.3,344.7 536.9,344.1 537.4,343.7 538.0,344.0 538.6,344.3 539.1,344.6 539.7,343.8 540.3,343.8 540.8,345.8 541.4,342.7 542.0,344.6 542.5,348.2 543.1,347.9 543.7,346.1 544.2,344.7 544.8,345.9 545.4,346.0 545.9,348.0 546.5,346.2 547.1,344.7 547.7,343.3 548.2,343.8 548.8,342.0 549.4,342.9 549.9,343.7 550.5,343.8 551.1,342.7 551.6,343.8 552.2,343.7 552.8,343.6 553.3,343.8 553.9,343.8 554.5,344.5 555.0,344.6 555.6,344.5 556.2,344.1 556.7,343.7 557.3,344.7 557.9,346.3 558.4,347.2 559.0,343.7 559.6,348.0 560.2,344.0 560.7,344.4 561.3,344.3 561.9,343.7 562.4,343.4 563.0,342.3 563.6,343.8 564.1,344.3 564.7,344.4 565.3,344.3 565.8,344.3 566.4,344.6 567.0,346.2 567.5,348.2 568.1,342.7 568.7,343.4 569.2,342.2 569.8,343.4 570.4,340.5 571.0,340.2 571.5,340.7 572.1,341.3 572.7,340.6 573.2,340.1 573.8,340.6 574.4,340.8 574.9,340.7 575.5,340.5 576.1,340.2 576.6,340.1 577.2,339.3 577.8,338.1 578.3,338.5 578.9,339.2 579.5,340.2 580.0,340.2 580.6,340.2 581.2,340.2 581.7,339.5 582.3,340.2 582.9,340.2 583.5,340.7 584.0,340.1 584.6,340.2 585.2,340.1 585.7,340.1 586.3,340.5 586.9,341.5 587.4,342.1 588.0,340.8 588.6,340.2 589.1,340.2 589.7,340.2 590.3,340.2 590.8,340.2 591.4,340.8 592.0,340.2 592.5,340.6 593.1,340.8 593.7,340.9 594.2,340.7 594.8,341.3 595.4,341.3 596.0,340.5 596.5,340.2 597.1,341.4 597.7,340.7 598.2,342.0 598.8,341.0 599.4,341.3 599.9,341.0 600.5,341.1 601.1,341.8 601.6,340.8 602.2,340.2 602.8,340.9 603.3,341.0 603.9,339.2 604.5,341.5 605.0,340.2 605.6,340.6 606.2,340.2 606.8,341.3 607.3,339.4 607.9,342.1 608.5,341.3 609.0,340.2 609.6,340.8 610.2,341.3 610.7,340.9 611.3,342.2 611.9,342.0 612.4,342.6 613.0,341.3 613.6,340.2 614.1,341.3 614.7,342.2 615.3,341.5 615.8,340.2 616.4,340.1 617.0,342.0 617.5,342.2 618.1,341.4 618.7,342.0 619.3,340.7 619.8,340.8 620.4,342.0 621.0,341.8 621.5,342.0 622.1,342.0 622.7,342.0 623.2,341.1 623.8,341.4 624.4,342.2 624.9,340.2 625.5,342.5 626.1,340.2 626.6,341.4 627.2,340.7 627.8,342.1 628.3,340.7 628.9,342.2 629.5,342.0 630.0,340.7 630.6,341.3 631.2,340.8 631.8,341.0 632.3,340.1 632.9,340.2 633.5,340.7 634.0,342.1 634.6,342.0 635.2,342.7 635.7,342.1 636.3,340.9 636.9,344.3 637.4,343.7 638.0,342.6 638.6,343.3 639.1,342.7 639.7,343.3 640.3,341.0 640.8,343.5 641.4,343.3 642.0,342.6 642.6,343.8 643.1,342.6 643.7,340.8 644.3,340.6 644.8,342.0 645.4,340.2 646.0,342.0 646.5,342.0 647.1,342.0 647.7,342.2 648.2,342.1 648.8,342.3 649.4,341.3 649.9,351.5 650.5,342.9 651.1,344.3 651.6,343.3 652.2,343.3 652.8,340.5 653.3,342.3 653.9,342.0 654.5,341.5 655.1,342.0 655.6,342.2 656.2,343.1 656.8,342.0 657.3,340.5 657.9,341.3 658.5,341.0 659.0,341.7 659.6,343.0 660.2,342.6 660.7,340.4 661.3,342.9 661.9,343.7 662.4,343.4 663.0,343.7 663.6,343.3 664.1,341.0 664.7,341.5 665.3,342.2 665.8,342.1 666.4,341.5 667.0,342.1 667.6,342.0 668.1,343.8 668.7,344.3 669.3,345.0 669.8,340.5 670.4,342.2 671.0,342.2 671.5,342.2 672.1,341.0 672.7,343.0 673.2,342.3 673.8,342.1 674.4,340.9 674.9,342.5 675.5,343.5 676.1,343.3 676.6,343.8 677.2,343.2 677.8,343.8 678.4,343.8 678.9,343.5 679.5,342.1 680.1,341.7 680.6,342.2 681.2,340.8 681.8,344.2 682.3,343.3 682.9,343.6 683.5,340.9 684.0,342.6 684.6,342.2 685.2,341.6 685.7,342.2 686.3,341.8 686.9,343.7 687.4,342.1 688.0,343.4 688.6,343.8 689.1,343.8 689.7,343.8 690.3,344.6 690.9,344.7 691.4,343.8 692.0,343.8 692.6,343.8 693.1,340.8 693.7,343.4 694.3,344.6 694.8,343.5 695.4,348.7 696.0,348.3 696.5,344.7 697.1,341.6 697.7,344.2 698.2,343.3 698.8,343.8 699.4,344.2 699.9,343.7 700.5,343.4 701.1,344.6 701.6,343.8 702.2,343.6 702.8,344.3 703.4,344.7 703.9,344.3 704.5,344.4 705.1,344.7 705.6,344.0 706.2,348.0 706.8,340.6 707.3,342.8 707.9,344.3 708.5,344.4 709.0,343.6 709.6,348.0 710.2,344.3 710.7,344.7 711.3,344.7 711.9,342.7 712.4,343.8 713.0,348.7 713.6,343.4 714.2,344.3 714.7,344.3 715.3,343.7 715.9,344.3 716.4,344.6 717.0,344.6 717.6,344.3 718.1,345.0 718.7,346.7 719.3,348.5 719.8,346.2 720.4,344.7 721.0,342.2 721.5,344.7 722.1,344.4 722.7,346.5 723.2,348.4 723.8,348.5 724.4,344.3 724.9,346.5 725.5,344.7 726.1,344.4 726.7,348.6 727.2,342.5 727.8,344.1 728.4,344.0 728.9,343.8 729.5,343.5 730.1,343.8 730.6,344.7 731.2,344.4 731.8,347.9 732.3,348.5 732.9,347.2 733.5,348.7 734.0,344.2 734.6,341.3 735.2,344.3 735.7,342.7 736.3,343.8 736.9,344.1 737.5,346.4 738.0,348.6 738.6,345.5 739.2,345.0 739.7,346.2 740.3,344.6 740.9,348.6 741.4,344.3 742.0,344.1 742.6,343.8 743.1,343.8 743.7,344.6 744.3,343.5 744.8,344.7 745.4,345.5 746.0,348.2 746.5,343.7 747.1,344.7 747.7,344.3 748.2,346.7 748.8,340.4 749.4,343.6 750.0,348.7 750.5,344.7 751.1,347.9 751.7,344.7 752.2,342.1 752.8,344.1 753.4,342.7 753.9,343.4 754.5,343.8 755.1,343.7 755.6,344.6 756.2,344.3 756.8,344.6 757.3,344.7 757.9,346.1 758.5,348.2 759.0,344.7 759.6,345.7 760.2,344.7 760.7,347.1 761.3,343.6 761.9,343.8 762.5,339.2 763.0,344.3 763.6,347.7 764.2,344.4 764.7,345.3 765.3,344.7 765.9,348.6 766.4,343.4 767.0,344.3 767.6,344.3 768.1,344.3 768.7,342.3 769.3,343.7 769.8,343.5 770.4,344.0 771.0,344.7 771.5,344.3 772.1,343.8 772.7,347.4 773.3,346.4 773.8,343.6 774.4,345.9 775.0,346.2 775.5,344.1 776.1,344.7 776.7,344.4 777.2,343.7 777.8,340.4 778.4,342.1 778.9,343.8 779.5,343.5 780.1,343.4 780.6,343.8 781.2,342.5 781.8,343.7 782.3,343.8 782.9,343.7 783.5,343.8 784.0,343.8 784.6,342.6 785.2,343.8 785.8,344.4 786.3,344.3 786.9,343.5 787.5,344.7 788.0,344.7 788.6,343.7 789.2,344.7 789.7,342.1 790.3,342.7 790.9,343.4 791.4,343.3 792.0,343.6 792.6,343.0 793.1,342.2 793.7,340.6 794.3,343.8 794.8,342.1 795.4,343.1 796.0,342.7 796.5,343.6 797.1,343.8 797.7,343.2 798.3,344.3 798.8,344.3 799.4,345.6 800.0,345.9 800.5,344.3 801.1,344.7 801.7,348.3 802.2,343.8 802.8,347.4 803.4,340.4 803.9,343.8 804.5,343.8 805.1,344.6 805.6,344.4 806.2,343.8 806.8,343.7 807.3,342.9 807.9,343.6 808.5,343.8 809.1,342.1 809.6,342.3 810.2,343.8 810.8,344.3 811.3,343.9 811.9,343.8 812.5,344.3 813.0,344.4 813.6,344.7 814.2,348.5 814.7,348.5 815.3,344.7 815.9,348.7 816.4,344.3 817.0,348.5 817.6,344.3 818.1,343.4 818.7,348.0 819.3,342.2 819.8,344.4 820.4,344.7 821.0,343.4 821.6,344.3 822.1,343.0 822.7,342.7 823.3,343.7 823.8,343.8 824.4,344.0 825.0,344.1 825.5,344.3 826.1,344.3 826.7,345.6 827.2,345.9 827.8,344.7 828.4,344.4 828.9,346.2 829.5,348.0 830.1,344.6 830.6,344.3 831.2,347.4 831.8,347.9 832.3,348.4 832.9,346.2 833.5,344.3 834.1,345.0 834.6,343.8 835.2,342.2 835.8,343.8 836.3,344.3 836.9,344.3 837.5,344.5 838.0,343.6 838.6,343.4 839.2,344.6 839.7,344.7 840.3,346.2 840.9,344.8 841.4,344.3 842.0,347.6 842.6,347.3 843.1,343.8 843.7,344.3 844.3,344.7 844.9,347.6 845.4,346.4 846.0,345.8 846.6,345.0 847.1,343.0 847.7,344.6 848.3,343.3 848.8,344.7 849.4,344.3 850.0,343.4 850.5,342.6 851.1,344.3 851.7,344.3 852.2,344.6 852.8,348.7 853.4,345.5 853.9,348.4 854.5,344.3 855.1,344.7 855.6,347.6 856.2,344.4 856.8,348.5 857.4,343.8 857.9,342.2 858.5,342.7 859.1,342.2 859.6,341.0 860.2,343.7 860.8,344.3 861.3,344.7 861.9,343.8 862.5,343.6 863.0,343.3 863.6,342.7 864.2,342.1 864.7,342.1 865.3,342.5 865.9,343.3 866.4,342.2 867.0,342.5 867.6,344.3 868.1,343.5 868.7,343.8 869.3,343.7 869.9,343.1 870.4,347.4 871.0,343.3 871.6,347.7 872.1,342.9 872.7,343.6 873.3,344.3 873.8,344.7 874.4,342.7 875.0,344.3 875.5,351.6 876.1,343.0 876.7,342.7 877.2,343.1 877.8,343.1 878.4,342.8 878.9,343.8 879.5,343.8 880.1,344.4 880.7,345.2 881.2,346.9 881.8,343.6 882.4,343.7 882.9,342.8 883.5,344.7 884.1,343.8 884.6,344.3 885.2,341.2 885.8,344.7 886.3,342.1 886.9,343.8 887.5,342.7 888.0,343.3 888.6,344.3 889.2,342.7 889.7,342.2 890.3,340.6 890.9,341.9 891.4,342.6 892.0,344.3 892.6,343.3 893.2,343.6 893.7,343.0 894.3,344.3 894.9,344.3 895.4,344.4 896.0,344.4 896.6,343.7 897.1,344.3 897.7,345.5 898.3,343.7 898.8,343.7 899.4,342.3 900.0,343.0 900.5,343.4 901.1,348.6 901.7,342.7 902.2,340.9 902.8,344.0 903.4,344.5 903.9,344.4 904.5,343.7 905.1,344.3 905.7,343.7 906.2,343.8 906.8,343.7 907.4,342.7 907.9,343.9 908.5,346.0 909.1,343.8 909.6,344.0 910.2,344.7 910.8,344.6 911.3,344.7 911.9,344.4 912.5,342.2 913.0,344.3 913.6,343.8 914.2,343.8 914.7,343.8 915.3,344.3 915.9,342.8 916.5,344.7 917.0,344.6 917.6,343.3 918.2,342.2 918.7,344.6 919.3,343.8 919.9,343.8 920.4,348.0 921.0,344.3 921.6,344.0 922.1,344.4 922.7,344.4 923.3,343.8 923.8,345.0 924.4,344.3 925.0,344.0 925.5,346.9 926.1,348.4 926.7,347.6 927.2,344.7 927.8,345.0 928.4,344.7 929.0,343.8 929.5,343.4 930.1,344.3 930.7,343.8 931.2,344.3 931.8,344.3 932.4,343.8 932.9,343.9 933.5,343.8 934.1,346.9 934.6,348.2 935.2,348.2 935.8,345.0 936.3,345.5 936.9,344.4 937.5,344.3 938.0,348.2 938.6,344.3 939.2,344.4 939.7,343.8 940.3,347.0 940.9,344.4 941.5,344.7 942.0,348.7 942.6,344.7 943.2,344.7 943.7,348.5 944.3,346.5 944.9,345.0 945.4,344.3 946.0,345.5" fill="none" stroke="#059669" stroke-width="2.2" stroke-linejoin="round" stroke-linecap="round"/>
<polyline points="76.0,208.3 76.6,216.0 77.1,222.6 77.7,227.6 78.3,235.6 78.8,227.5 79.4,222.5 80.0,216.2 80.5,222.7 81.1,222.6 81.7,199.2 82.3,222.7 82.8,223.9 83.4,222.6 84.0,225.4 84.5,226.8 85.1,210.8 85.7,216.0 86.2,235.2 86.8,215.9 87.4,215.1 87.9,199.2 88.5,219.6 89.1,222.4 89.6,222.7 90.2,219.7 90.8,222.5 91.3,212.5 91.9,215.9 92.5,199.5 93.0,199.2 93.6,160.1 94.2,169.7 94.8,169.7 95.3,209.0 95.9,215.2 96.5,209.0 97.0,207.5 97.6,232.5 98.2,240.2 98.7,229.4 99.3,222.5 99.9,223.1 100.4,222.6 101.0,226.8 101.6,219.7 102.1,213.0 102.7,220.8 103.3,213.5 103.8,235.6 104.4,233.1 105.0,228.1 105.5,228.7 106.1,229.4 106.7,222.7 107.3,222.7 107.8,223.7 108.4,227.0 109.0,230.6 109.5,222.6 110.1,235.6 110.7,239.6 111.2,232.8 111.8,243.7 112.4,238.6 112.9,239.6 113.5,238.1 114.1,235.5 114.6,250.8 115.2,205.6 115.8,235.8 116.3,236.8 116.9,233.9 117.5,247.8 118.1,241.8 118.6,245.5 119.2,240.3 119.8,231.5 120.3,232.5 120.9,227.6 121.5,222.8 122.0,228.9 122.6,232.6 123.2,245.3 123.7,237.8 124.3,240.2 124.9,230.6 125.4,229.4 126.0,229.6 126.6,215.9 127.1,238.2 127.7,222.7 128.3,231.1 128.8,230.6 129.4,242.1 130.0,248.1 130.6,222.7 131.1,227.1 131.7,241.6 132.3,236.3 132.8,229.0 133.4,234.0 134.0,235.6 134.5,232.4 135.1,222.7 135.7,222.7 136.2,229.4 136.8,232.4 137.4,241.0 137.9,236.8 138.5,245.4 139.1,229.6 139.6,229.7 140.2,236.3 140.8,235.6 141.3,235.8 141.9,240.5 142.5,239.6 143.1,239.6 143.6,232.4 144.2,199.7 144.8,222.6 145.3,222.7 145.9,215.9 146.5,228.8 147.0,232.5 147.6,230.6 148.2,232.5 148.7,230.0 149.3,235.5 149.9,235.5 150.4,232.5 151.0,229.4 151.6,237.9 152.1,238.0 152.7,236.8 153.3,227.3 153.9,226.2 154.4,236.2 155.0,225.9 155.6,231.5 156.1,230.6 156.7,206.4 157.3,222.7 157.8,222.6 158.4,222.6 159.0,224.3 159.5,222.7 160.1,235.6 160.7,235.6 161.2,231.1 161.8,229.4 162.4,234.8 162.9,235.5 163.5,236.0 164.1,250.6 164.6,232.5 165.2,232.5 165.8,240.3 166.4,240.2 166.9,232.5 167.5,231.4 168.1,224.9 168.6,222.7 169.2,240.3 169.8,222.6 170.3,199.2 170.9,230.8 171.5,232.5 172.0,222.7 172.6,227.9 173.2,232.4 173.7,235.6 174.3,232.4 174.9,231.9 175.4,232.9 176.0,222.7 176.6,237.5 177.1,233.1 177.7,222.7 178.3,231.8 178.9,237.8 179.4,239.7 180.0,247.1 180.6,223.4 181.1,222.6 181.7,223.7 182.3,234.0 182.8,246.1 183.4,227.0 184.0,222.5 184.5,222.7 185.1,224.5 185.7,221.9 186.2,228.7 186.8,222.7 187.4,227.4 187.9,211.4 188.5,222.5 189.1,160.1 189.7,170.7 190.2,199.4 190.8,209.7 191.4,200.9 191.9,222.6 192.5,231.5 193.1,227.1 193.6,225.9 194.2,216.1 194.8,215.9 195.3,222.6 195.9,199.5 196.5,226.2 197.0,199.2 197.6,199.2 198.2,222.6 198.7,209.8 199.3,216.3 199.9,223.7 200.4,222.6 201.0,223.7 201.6,223.4 202.2,225.9 202.7,222.7 203.3,232.4 203.9,208.3 204.4,220.9 205.0,232.5 205.6,231.3 206.1,222.6 206.7,227.5 207.3,229.4 207.8,222.6 208.4,202.0 209.0,219.7 209.5,222.5 210.1,256.6 210.7,219.0 211.2,213.7 211.8,239.2 212.4,214.6 212.9,227.5 213.5,232.7 214.1,240.2 214.7,239.9 215.2,232.4 215.8,232.4 216.4,226.6 216.9,222.7 217.5,239.6 218.1,230.8 218.6,230.1 219.2,217.7 219.8,210.2 220.3,227.3 220.9,181.8 221.5,230.3 222.0,214.1 222.6,221.4 223.2,222.6 223.7,226.8 224.3,214.1 224.9,239.9 225.5,214.4 226.0,220.8 226.6,199.1 227.2,196.5 227.7,194.8 228.3,215.9 228.9,210.0 229.4,222.7 230.0,169.8 230.6,219.7 231.1,204.5 231.7,205.1 232.3,199.2 232.8,221.0 233.4,227.3 234.0,222.7 234.5,168.4 235.1,222.5 235.7,230.7 236.2,222.4 236.8,222.7 237.4,175.8 238.0,199.7 238.5,225.5 239.1,230.8 239.7,222.7 240.2,209.2 240.8,232.5 241.4,231.8 241.9,223.7 242.5,222.7 243.1,219.7 243.6,229.4 244.2,222.6 244.8,250.9 245.3,230.4 245.9,230.6 246.5,229.4 247.0,232.3 247.6,232.3 248.2,223.7 248.7,222.5 249.3,222.6 249.9,222.6 250.5,222.6 251.0,214.2 251.6,222.6 252.2,214.1 252.7,212.7 253.3,222.5 253.9,232.3 254.4,214.2 255.0,222.6 255.6,218.3 256.1,209.0 256.7,199.7 257.3,214.4 257.8,222.6 258.4,214.4 259.0,231.7 259.5,222.6 260.1,205.1 260.7,206.5 261.3,222.6 261.8,222.6 262.4,222.6 263.0,232.4 263.5,222.6 264.1,234.0 264.7,222.5 265.2,222.2 265.8,222.7 266.4,223.2 266.9,230.4 267.5,247.2 268.1,232.5 268.6,234.9 269.2,238.6 269.8,232.4 270.3,228.9 270.9,214.9 271.5,230.9 272.0,232.4 272.6,232.4 273.2,232.3 273.8,227.6 274.3,224.6 274.9,230.4 275.5,239.8 276.0,219.7 276.6,222.6 277.2,222.6 277.7,227.7 278.3,225.6 278.9,225.9 279.4,209.5 280.0,212.6 280.6,219.7 281.1,225.7 281.7,213.2 282.3,222.6 282.8,215.0 283.4,223.5 284.0,232.4 284.5,169.7 285.1,199.2 285.7,222.6 286.3,199.9 286.8,211.7 287.4,214.0 288.0,232.3 288.5,220.9 289.1,227.5 289.7,222.6 290.2,215.0 290.8,211.8 291.4,199.4 291.9,191.9 292.5,194.2 293.1,208.3 293.6,199.5 294.2,214.4 294.8,227.3 295.3,212.6 295.9,232.5 296.5,222.4 297.1,221.9 297.6,222.7 298.2,218.3 298.8,222.5 299.3,239.6 299.9,225.5 300.5,230.7 301.0,232.4 301.6,226.0 302.2,232.4 302.7,235.5 303.3,239.6 303.9,222.8 304.4,223.5 305.0,222.6 305.6,232.4 306.1,227.0 306.7,222.7 307.3,230.9 307.8,225.9 308.4,92.4 309.0,214.4 309.6,222.6 310.1,213.2 310.7,230.7 311.3,229.4 311.8,222.6 312.4,222.7 313.0,222.6 313.5,219.7 314.1,222.4 314.7,232.4 315.2,237.6 315.8,232.4 316.4,231.0 316.9,213.2 317.5,222.7 318.1,222.6 318.6,237.2 319.2,231.5 319.8,216.4 320.4,211.9 320.9,229.4 321.5,226.0 322.1,229.8 322.6,232.6 323.2,199.7 323.8,232.5 324.3,232.5 324.9,216.0 325.5,219.7 326.0,227.3 326.6,219.6 327.2,219.1 327.7,226.1 328.3,231.2 328.9,232.3 329.4,222.6 330.0,236.9 330.6,239.5 331.1,224.3 331.7,235.8 332.3,222.6 332.9,227.1 333.4,211.3 334.0,214.1 334.6,214.1 335.1,222.6 335.7,222.6 336.3,216.4 336.8,233.4 337.4,223.4 338.0,230.7 338.5,222.7 339.1,222.7 339.7,235.8 340.2,216.3 340.8,232.8 341.4,223.7 341.9,235.8 342.5,222.5 343.1,231.0 343.6,230.7 344.2,222.5 344.8,168.4 345.4,222.6 345.9,223.7 346.5,223.9 347.1,225.9 347.6,222.6 348.2,222.6 348.8,238.9 349.3,222.7 349.9,229.4 350.5,222.7 351.0,227.7 351.6,225.9 352.2,237.8 352.7,231.3 353.3,235.8 353.9,235.5 354.4,231.5 355.0,235.6 355.6,232.8 356.2,239.6 356.7,222.7 357.3,240.3 357.9,212.1 358.4,224.3 359.0,205.1 359.6,213.1 360.1,222.7 360.7,201.3 361.3,222.6 361.8,222.4 362.4,222.7 363.0,230.7 363.5,222.7 364.1,235.5 364.7,222.6 365.2,226.2 365.8,221.7 366.4,222.7 366.9,233.9 367.5,235.1 368.1,199.7 368.7,229.7 369.2,229.4 369.8,234.5 370.4,229.4 370.9,231.3 371.5,215.9 372.1,231.8 372.6,212.1 373.2,229.4 373.8,222.2 374.3,219.0 374.9,224.3 375.5,222.7 376.0,222.7 376.6,219.0 377.2,228.5 377.7,195.4 378.3,219.5 378.9,211.3 379.4,230.7 380.0,169.7 380.6,229.4 381.2,199.2 381.7,219.3 382.3,216.0 382.9,209.3 383.4,215.1 384.0,238.7 384.6,230.7 385.1,222.5 385.7,227.1 386.3,222.6 386.8,209.3 387.4,222.6 388.0,206.5 388.5,222.6 389.1,199.4 389.7,199.2 390.2,201.2 390.8,222.7 391.4,234.2 392.0,222.7 392.5,215.9 393.1,229.9 393.7,230.8 394.2,219.2 394.8,222.6 395.4,214.1 395.9,230.5 396.5,229.4 397.1,230.6 397.6,235.6 398.2,239.6 398.8,228.7 399.3,227.3 399.9,218.0 400.5,227.0 401.0,227.1 401.6,203.4 402.2,219.7 402.7,214.8 403.3,226.0 403.9,223.7 404.5,224.4 405.0,231.3 405.6,230.7 406.2,222.7 406.7,228.5 407.3,235.5 407.9,223.0 408.4,236.3 409.0,224.2 409.6,230.6 410.1,235.6 410.7,235.5 411.3,232.6 411.8,236.8 412.4,211.5 413.0,227.3 413.5,232.4 414.1,222.1 414.7,222.5 415.2,221.5 415.8,221.5 416.4,214.4 417.0,222.7 417.5,172.1 418.1,209.6 418.7,222.6 419.2,213.3 419.8,217.2 420.4,230.8 420.9,215.1 421.5,214.2 422.1,231.4 422.6,221.3 423.2,227.0 423.8,222.6 424.3,222.6 424.9,229.4 425.5,219.7 426.0,210.8 426.6,207.5 427.2,231.8 427.8,222.3 428.3,223.6 428.9,218.2 429.5,222.5 430.0,211.2 430.6,228.1 431.2,222.9 431.7,222.6 432.3,232.5 432.9,229.1 433.4,222.6 434.0,235.5 434.6,223.0 435.1,222.7 435.7,236.0 436.3,214.2 436.8,229.4 437.4,226.8 438.0,233.3 438.5,223.0 439.1,224.5 439.7,221.5 440.3,222.7 440.8,223.7 441.4,222.6 442.0,217.7 442.5,207.9 443.1,194.4 443.7,223.8 444.2,211.5 444.8,228.5 445.4,222.5 445.9,222.6 446.5,199.3 447.1,207.6 447.6,222.7 448.2,217.0 448.8,219.7 449.3,222.7 449.9,188.4 450.5,214.7 451.0,222.6 451.6,229.4 452.2,223.7 452.8,232.4 453.3,218.4 453.9,215.9 454.5,232.4 455.0,198.0 455.6,222.6 456.2,222.9 456.7,215.9 457.3,222.5 457.9,222.7 458.4,222.7 459.0,220.5 459.6,215.1 460.1,199.6 460.7,182.7 461.3,222.7 461.8,223.0 462.4,217.3 463.0,224.3 463.6,219.1 464.1,235.5 464.7,222.7 465.3,220.9 465.8,231.6 466.4,209.5 467.0,231.7 467.5,222.6 468.1,231.5 468.7,227.4 469.2,227.1 469.8,222.5 470.4,200.9 470.9,212.4 471.5,182.8 472.1,222.7 472.6,230.7 473.2,229.4 473.8,196.4 474.3,222.6 474.9,235.6 475.5,169.7 476.1,199.2 476.6,236.3 477.2,203.7 477.8,221.7 478.3,229.4 478.9,222.7 479.5,223.3 480.0,222.7 480.6,222.7 481.2,199.8 481.7,199.4 482.3,199.2 482.9,213.2 483.4,188.5 484.0,199.2 484.6,215.5 485.1,222.6 485.7,214.2 486.3,170.6 486.8,222.7 487.4,222.5 488.0,216.0 488.6,216.0 489.1,222.6 489.7,219.7 490.3,221.3 490.8,222.6 491.4,228.5 492.0,231.8 492.5,236.3 493.1,225.8 493.7,222.6 494.2,209.9 494.8,212.3 495.4,214.4 495.9,215.4 496.5,216.0 497.1,206.2 497.6,212.3 498.2,216.6 498.8,222.6 499.4,227.6 499.9,216.0 500.5,219.1 501.1,219.0 501.6,206.5 502.2,219.1 502.8,222.6 503.3,214.2 503.9,215.0 504.5,215.7 505.0,222.6 505.6,225.9 506.2,229.4 506.7,222.3 507.3,222.6 507.9,222.6 508.4,222.7 509.0,224.3 509.6,222.6 510.1,222.7 510.7,218.9 511.3,230.5 511.9,222.7 512.4,227.8 513.0,222.7 513.6,222.6 514.1,221.4 514.7,226.1 515.3,222.7 515.8,219.0 516.4,199.7 517.0,222.7 517.5,222.6 518.1,222.6 518.7,222.5 519.2,222.7 519.8,221.4 520.4,221.6 520.9,236.3 521.5,228.7 522.1,224.3 522.6,222.7 523.2,230.7 523.8,232.5 524.4,226.3 524.9,227.4 525.5,238.1 526.1,240.3 526.6,325.3 527.2,330.2 527.8,330.2 528.3,330.2 528.9,330.2 529.5,330.4 530.0,330.2 530.6,330.2 531.2,330.7 531.7,330.2 532.3,330.0 532.9,331.8 533.4,331.7 534.0,331.8 534.6,330.2 535.2,329.1 535.7,326.4 536.3,330.2 536.9,328.9 537.4,327.0 538.0,328.9 538.6,329.2 539.1,330.0 539.7,327.8 540.3,326.3 540.8,329.1 541.4,328.5 542.0,326.6 542.5,329.1 543.1,328.7 543.7,329.4 544.2,329.0 544.8,330.0 545.4,329.1 545.9,330.3 546.5,329.1 547.1,329.0 547.7,328.6 548.2,328.5 548.8,326.3 549.4,326.4 549.9,327.8 550.5,328.8 551.1,327.8 551.6,328.5 552.2,327.8 552.8,326.3 553.3,328.3 553.9,328.2 554.5,328.9 555.0,328.1 555.6,328.8 556.2,327.5 556.7,325.6 557.3,328.6 557.9,328.8 558.4,329.1 559.0,327.8 559.6,330.2 560.2,327.8 560.7,327.8 561.3,326.3 561.9,326.5 562.4,324.7 563.0,325.7 563.6,326.4 564.1,329.1 564.7,329.6 565.3,329.1 565.8,328.1 566.4,326.4 567.0,329.1 567.5,330.2 568.1,326.3 568.7,322.8 569.2,316.6 569.8,323.6 570.4,319.8 571.0,320.4 571.5,321.2 572.1,321.5 572.7,320.8 573.2,322.8 573.8,321.7 574.4,323.4 574.9,322.0 575.5,321.6 576.1,321.6 576.6,321.4 577.2,321.5 577.8,321.1 578.3,320.8 578.9,321.4 579.5,321.4 580.0,321.5 580.6,321.2 581.2,321.4 581.7,320.4 582.3,320.8 582.9,320.7 583.5,321.1 584.0,321.1 584.6,321.0 585.2,320.9 585.7,320.7 586.3,321.5 586.9,321.4 587.4,322.8 588.0,321.4 588.6,321.0 589.1,320.4 589.7,320.7 590.3,321.0 590.8,321.4 591.4,321.4 592.0,321.1 592.5,322.8 593.1,321.4 593.7,321.4 594.2,321.4 594.8,321.2 595.4,321.5 596.0,321.2 596.5,321.2 597.1,322.1 597.7,321.3 598.2,321.5 598.8,321.0 599.4,321.2 599.9,321.4 600.5,321.2 601.1,321.5 601.6,321.4 602.2,320.8 602.8,321.4 603.3,321.2 603.9,321.4 604.5,321.5 605.0,321.4 605.6,321.6 606.2,321.5 606.8,321.5 607.3,321.5 607.9,321.5 608.5,322.1 609.0,320.8 609.6,321.5 610.2,321.2 610.7,321.2 611.3,321.5 611.9,321.2 612.4,321.5 613.0,321.2 613.6,320.8 614.1,321.5 614.7,321.6 615.3,321.2 615.8,320.7 616.4,320.7 617.0,321.5 617.5,322.5 618.1,321.6 618.7,321.6 619.3,321.4 619.8,321.5 620.4,322.4 621.0,322.0 621.5,321.6 622.1,321.6 622.7,322.0 623.2,321.5 623.8,321.5 624.4,321.4 624.9,320.8 625.5,321.5 626.1,320.8 626.6,321.2 627.2,320.8 627.8,321.4 628.3,321.4 628.9,321.5 629.5,321.2 630.0,321.2 630.6,321.4 631.2,321.5 631.8,321.5 632.3,321.0 632.9,321.2 633.5,321.5 634.0,321.5 634.6,322.0 635.2,322.0 635.7,321.5 636.3,321.0 636.9,325.9 637.4,322.2 638.0,321.9 638.6,325.1 639.1,321.6 639.7,323.6 640.3,321.2 640.8,326.3 641.4,325.4 642.0,324.3 642.6,322.0 643.1,321.4 643.7,321.4 644.3,321.2 644.8,321.6 645.4,321.5 646.0,321.6 646.5,321.5 647.1,321.6 647.7,325.7 648.2,324.8 648.8,324.6 649.4,321.6 649.9,348.2 650.5,327.2 651.1,328.0 651.6,326.4 652.2,326.3 652.8,321.2 653.3,322.0 653.9,321.5 654.5,322.9 655.1,321.2 655.6,321.2 656.2,325.1 656.8,321.5 657.3,321.6 657.9,321.7 658.5,321.4 659.0,321.5 659.6,326.3 660.2,326.3 660.7,321.5 661.3,322.7 661.9,326.3 662.4,326.4 663.0,324.9 663.6,322.8 664.1,321.4 664.7,321.2 665.3,321.5 665.8,321.6 666.4,321.2 667.0,321.6 667.6,321.5 668.1,326.3 668.7,326.4 669.3,327.3 669.8,321.1 670.4,325.1 671.0,325.7 671.5,325.1 672.1,322.8 672.7,327.7 673.2,326.3 673.8,326.3 674.4,321.7 674.9,325.7 675.5,326.3 676.1,326.3 676.6,327.1 677.2,325.6 677.8,327.6 678.4,326.4 678.9,326.3 679.5,321.2 680.1,321.2 680.6,323.7 681.2,320.8 681.8,326.4 682.3,326.3 682.9,328.1 683.5,321.1 684.0,328.5 684.6,326.4 685.2,321.0 685.7,325.7 686.3,328.6 686.9,328.8 687.4,326.3 688.0,326.4 688.6,326.6 689.1,327.9 689.7,327.3 690.3,329.1 690.9,328.3 691.4,327.3 692.0,326.4 692.6,327.4 693.1,325.4 693.7,325.0 694.3,328.8 694.8,326.3 695.4,330.2 696.0,330.2 696.5,328.7 697.1,321.5 697.7,327.8 698.2,329.1 698.8,326.3 699.4,326.8 699.9,326.7 700.5,326.3 701.1,328.5 701.6,326.4 702.2,327.5 702.8,327.8 703.4,329.6 703.9,328.5 704.5,326.4 705.1,330.2 705.6,326.7 706.2,329.1 706.8,320.8 707.3,321.6 707.9,326.9 708.5,328.4 709.0,327.5 709.6,329.5 710.2,326.3 710.7,329.1 711.3,327.4 711.9,322.8 712.4,326.3 713.0,326.3 713.6,327.3 714.2,329.0 714.7,330.2 715.3,326.3 715.9,328.5 716.4,329.0 717.0,328.2 717.6,327.5 718.1,329.9 718.7,330.2 719.3,330.5 719.8,328.9 720.4,329.1 721.0,326.4 721.5,328.8 722.1,327.8 722.7,328.5 723.2,330.2 723.8,330.5 724.4,328.8 724.9,329.7 725.5,328.8 726.1,330.2 726.7,331.7 727.2,328.8 727.8,329.5 728.4,330.2 728.9,330.2 729.5,327.2 730.1,327.3 730.6,326.6 731.2,329.4 731.8,330.4 732.3,330.2 732.9,329.7 733.5,330.4 734.0,328.6 734.6,327.3 735.2,330.2 735.7,327.8 736.3,330.2 736.9,328.4 737.5,330.6 738.0,326.4 738.6,332.4 739.2,333.2 739.7,332.5 740.3,330.2 740.9,332.4 741.4,332.4 742.0,332.2 742.6,329.2 743.1,326.3 743.7,330.2 744.3,330.5 744.8,330.2 745.4,332.1 746.0,332.2 746.5,330.2 747.1,329.3 747.7,331.1 748.2,329.1 748.8,320.8 749.4,326.3 750.0,330.2 750.5,330.3 751.1,332.8 751.7,328.8 752.2,326.4 752.8,332.8 753.4,329.1 753.9,330.2 754.5,327.8 755.1,326.4 755.6,326.4 756.2,329.4 756.8,328.7 757.3,328.8 757.9,330.3 758.5,330.4 759.0,329.7 759.6,330.2 760.2,329.4 760.7,328.9 761.3,326.4 761.9,327.7 762.5,320.4 763.0,327.3 763.6,328.9 764.2,329.7 764.7,329.1 765.3,330.2 765.9,330.3 766.4,326.3 767.0,326.6 767.6,329.1 768.1,328.9 768.7,326.3 769.3,326.4 769.8,329.2 770.4,328.6 771.0,329.1 771.5,328.8 772.1,327.8 772.7,330.2 773.3,332.9 773.8,327.3 774.4,328.7 775.0,326.8 775.5,326.4 776.1,328.1 776.7,326.3 777.2,326.4 777.8,320.8 778.4,321.5 778.9,326.3 779.5,324.5 780.1,326.1 780.6,326.3 781.2,325.7 781.8,326.4 782.3,327.0 782.9,326.4 783.5,326.4 784.0,326.0 784.6,321.6 785.2,326.3 785.8,327.3 786.3,326.4 786.9,325.4 787.5,327.0 788.0,327.9 788.6,325.1 789.2,328.8 789.7,321.5 790.3,321.4 790.9,321.5 791.4,321.5 792.0,326.3 792.6,326.3 793.1,322.6 793.7,321.2 794.3,326.4 794.8,326.1 795.4,326.1 796.0,321.5 796.5,324.3 797.1,326.4 797.7,327.8 798.3,326.4 798.8,328.5 799.4,328.9 800.0,327.3 800.5,326.4 801.1,328.4 801.7,330.2 802.2,326.4 802.8,327.3 803.4,320.8 803.9,325.1 804.5,327.2 805.1,327.0 805.6,327.3 806.2,326.6 806.8,327.3 807.3,327.3 807.9,326.3 808.5,326.3 809.1,326.3 809.6,326.3 810.2,327.8 810.8,328.2 811.3,327.3 811.9,326.4 812.5,329.1 813.0,327.2 813.6,328.5 814.2,329.1 814.7,330.2 815.3,327.3 815.9,330.2 816.4,326.5 817.0,329.1 817.6,328.6 818.1,327.9 818.7,328.7 819.3,326.4 819.8,328.8 820.4,329.1 821.0,326.4 821.6,328.6 822.1,326.5 822.7,328.1 823.3,326.4 823.8,326.4 824.4,328.8 825.0,327.9 825.5,327.7 826.1,327.3 826.7,328.5 827.2,329.1 827.8,330.2 828.4,327.7 828.9,330.2 829.5,330.2 830.1,329.1 830.6,326.4 831.2,328.5 831.8,330.2 832.3,329.4 832.9,328.8 833.5,330.2 834.1,328.7 834.6,326.4 835.2,325.9 835.8,326.3 836.3,328.1 836.9,330.2 837.5,326.4 838.0,326.3 838.6,326.4 839.2,328.2 839.7,329.2 840.3,330.2 840.9,331.6 841.4,327.0 842.0,329.1 842.6,329.1 843.1,326.7 843.7,326.4 844.3,329.9 844.9,330.2 845.4,328.5 846.0,328.8 846.6,328.8 847.1,327.3 847.7,328.8 848.3,327.3 848.8,329.1 849.4,327.8 850.0,326.3 850.5,326.3 851.1,329.1 851.7,328.2 852.2,328.8 852.8,330.5 853.4,328.8 853.9,328.0 854.5,326.5 855.1,327.8 855.6,327.8 856.2,326.4 856.8,326.4 857.4,325.6 857.9,321.4 858.5,324.0 859.1,322.8 859.6,321.6 860.2,326.3 860.8,328.4 861.3,326.4 861.9,326.4 862.5,325.2 863.0,325.7 863.6,325.5 864.2,321.9 864.7,326.3 865.3,321.9 865.9,325.5 866.4,326.3 867.0,325.4 867.6,327.7 868.1,327.2 868.7,326.3 869.3,326.3 869.9,326.0 870.4,329.2 871.0,326.3 871.6,329.1 872.1,323.6 872.7,327.3 873.3,327.2 873.8,327.4 874.4,324.7 875.0,327.3 875.5,339.2 876.1,326.4 876.7,326.3 877.2,326.3 877.8,326.3 878.4,326.4 878.9,326.4 879.5,326.3 880.1,326.6 880.7,327.6 881.2,326.6 881.8,326.4 882.4,326.3 882.9,326.3 883.5,328.6 884.1,326.8 884.6,328.1 885.2,326.4 885.8,330.2 886.3,322.0 886.9,321.4 887.5,319.7 888.0,322.6 888.6,319.3 889.2,316.6 889.7,302.8 890.3,296.2 890.9,296.5 891.4,296.6 892.0,294.8 892.6,295.1 893.2,295.9 893.7,326.3 894.3,287.9 894.9,286.8 895.4,286.9 896.0,286.2 896.6,286.9 897.1,285.3 897.7,289.5 898.3,326.3 898.8,326.6 899.4,325.6 900.0,326.3 900.5,327.8 901.1,248.0 901.7,285.6 902.2,298.2 902.8,297.5 903.4,305.5 903.9,313.0 904.5,326.4 905.1,328.8 905.7,326.4 906.2,326.3 906.8,326.3 907.4,324.5 907.9,326.3 908.5,326.4 909.1,327.7 909.6,290.3 910.2,298.6 910.8,326.0 911.3,315.6 911.9,326.4 912.5,324.1 913.0,326.4 913.6,326.3 914.2,326.1 914.7,328.6 915.3,327.6 915.9,328.7 916.5,328.8 917.0,327.8 917.6,326.3 918.2,325.1 918.7,326.7 919.3,326.3 919.9,326.3 920.4,327.5 921.0,326.4 921.6,326.3 922.1,326.4 922.7,326.6 923.3,326.3 923.8,326.7 924.4,326.3 925.0,326.9 925.5,330.2 926.1,330.4 926.7,328.8 927.2,329.1 927.8,329.5 928.4,329.7 929.0,329.0 929.5,324.6 930.1,326.6 930.7,326.3 931.2,327.9 931.8,327.8 932.4,326.4 932.9,326.3 933.5,324.3 934.1,328.4 934.6,325.3 935.2,328.0 935.8,329.1 936.3,327.8 936.9,328.8 937.5,327.3 938.0,328.8 938.6,330.2 939.2,328.7 939.7,327.5 940.3,327.9 940.9,326.3 941.5,328.6 942.0,330.5 942.6,330.2 943.2,330.2 943.7,330.7 944.3,330.2 944.9,329.0 945.4,326.4 946.0,328.5" fill="none" stroke="#d97706" stroke-width="2.2" stroke-linejoin="round" stroke-linecap="round"/>
<line x1="76" y1="70" x2="94" y2="70" stroke="#2563eb" stroke-width="3"/>
<text x="100" y="74" font-family="Arial, sans-serif" font-size="11" fill="#0f172a">avg fee</text>
<line x1="179" y1="70" x2="197" y2="70" stroke="#059669" stroke-width="3"/>
<text x="203" y="74" font-family="Arial, sans-serif" font-size="11" fill="#0f172a">median fee</text>
<line x1="303" y1="70" x2="321" y2="70" stroke="#d97706" stroke-width="3"/>
<text x="327" y="74" font-family="Arial, sans-serif" font-size="11" fill="#0f172a">p90 fee</text>
<text x="28" y="404" font-family="Arial, sans-serif" font-size="11" fill="#64748b">Source: hourly_features.csv</text>
</svg>