<svg xmlns="http://www.w3.org/2000/svg" width="980" height="420" viewBox="0 0 980 420">
<rect width="100%" height="100%" fill="#ffffff"/>
<text x="28" y="34" font-family="Arial, sans-serif" font-size="20" font-weight="700" fill="#0f172a">Hourly fee trend</text>
<text x="28" y="56" font-family="Arial, sans-serif" font-size="12" fill="#64748b">Average, median, and p90 total fee by hour</text>
<line x1="76" y1="362.0" x2="946" y2="362.0" stroke="#e2e8f0" stroke-width="1"/>
<text x="68" y="366.0" font-family="Arial, sans-serif" font-size="10" text-anchor="end" fill="#64748b">-382K</text>
<line x1="76" y1="292.0" x2="946" y2="292.0" stroke="#e2e8f0" stroke-width="1"/>
<text x="68" y="296.0" font-family="Arial, sans-serif" font-size="10" text-anchor="end" fill="#64748b">2.6M</text>
<line x1="76" y1="222.0" x2="946" y2="222.0" stroke="#e2e8f0" stroke-width="1"/>
<text x="68" y="226.0" font-family="Arial, sans-serif" font-size="10" text-anchor="end" fill="#64748b">5.7M</text>
<line x1="76" y1="152.0" x2="946" y2="152.0" stroke="#e2e8f0" stroke-width="1"/>
<text x="68" y="156.0" font-family="Arial, sans-serif" font-size="10" text-anchor="end" fill="#64748b">8.7M</text>
<line x1="76" y1="82.0" x2="946" y2="82.0" stroke="#e2e8f0" stroke-width="1"/>
<text x="68" y="86.0" font-family="Arial, sans-serif" font-size="10" text-anchor="end" fill="#64748b">11.7M</text>
<line x1="76" y1="362" x2="946" y2="362" stroke="#334155" stroke-width="1"/>
<line x1="76" y1="82" x2="76" y2="362" stroke="#334155" stroke-width="1"/>
<text x="76" y="72" font-family="Arial, sans-serif" font-size="11" fill="#64748b">nanoton</text>
<line x1="76.0" y1="362" x2="76.0" y2="366" stroke="#334155" stroke-width="1"/>
<text x="76.0" y="380" font-family="Arial, sans-serif" font-size="10" text-anchor="middle" fill="#64748b">0</text>
<line x1="511.0" y1="362" x2="511.0" y2="366" stroke="#334155" stroke-width="1"/>
<text x="511.0" y="380" font-family="Arial, sans-serif" font-size="10" text-anchor="middle" fill="#64748b">425</text>
<line x1="946.0" y1="362" x2="946.0" y2="366" stroke="#334155" stroke-width="1"/>
<text x="946.0" y="380" font-family="Arial, sans-serif" font-size="10" text-anchor="middle" fill="#64748b">850</text>
<polyline points="76.0,290.8 77.0,294.6 78.0,296.0 79.1,298.1 80.1,304.8 81.1,297.2 82.1,298.2 83.2,294.6 84.2,299.0 85.2,298.7 86.2,287.8 87.3,299.5 88.3,299.7 89.3,297.4 90.3,300.3 91.4,300.5 92.4,292.5 93.4,292.5 94.4,301.3 95.4,291.1 96.5,289.2 97.5,287.3 98.5,293.8 99.5,294.2 100.6,296.1 101.6,292.1 102.6,297.7 103.6,290.6 104.7,293.2 105.7,288.3 106.7,289.0 107.7,273.1 108.8,284.7 109.8,285.3 110.8,294.6 111.8,299.9 112.8,292.9 113.9,294.9 114.9,304.7 115.9,307.5 116.9,302.1 118.0,297.0 119.0,298.7 120.0,297.9 121.0,304.4 122.1,297.4 123.1,294.5 124.1,296.5 125.1,298.7 126.2,303.1 127.2,303.1 128.2,301.9 129.2,300.3 130.2,303.3 131.3,302.2 132.3,299.4 133.3,299.1 134.3,302.8 135.4,299.1 136.4,301.3 137.4,306.8 138.4,308.7 139.5,306.4 140.5,307.1 141.5,309.1 142.5,305.9 143.6,305.5 144.6,302.0 145.6,308.5 146.6,290.7 147.6,306.4 148.7,306.4 149.7,306.3 150.7,311.2 151.7,307.1 152.8,310.3 153.8,309.1 154.8,305.5 155.8,305.4 156.9,303.2 157.9,303.5 158.9,301.3 159.9,305.1 161.0,307.4 162.0,306.9 163.0,308.1 164.0,305.0 165.0,302.9 166.1,302.7 167.1,298.6 168.1,304.9 169.1,297.0 170.2,299.3 171.2,300.3 172.2,303.9 173.2,311.6 174.3,300.1 175.3,300.5 176.3,308.9 177.3,307.5 178.4,300.3 179.4,304.2 180.4,305.1 181.4,302.6 182.4,300.5 183.5,297.4 184.5,298.7 185.5,301.9 186.5,308.1 187.6,307.4 188.6,307.4 189.6,303.1 190.6,301.9 191.7,304.1 192.7,303.9 193.7,304.0 194.7,308.3 195.8,308.9 196.8,307.3 197.8,301.1 198.8,286.9 199.8,301.6 200.9,298.8 201.9,296.1 202.9,299.6 203.9,305.5 205.0,301.5 206.0,304.9 207.0,302.2 208.0,304.9 209.1,306.8 210.1,304.9 211.1,300.8 212.1,304.8 213.2,308.0 214.2,302.4 215.2,301.7 216.2,303.1 217.2,303.4 218.3,298.9 219.3,298.5 220.3,298.0 221.3,289.4 222.4,296.9 223.4,296.4 224.4,295.5 225.4,299.6 226.5,299.0 227.5,304.6 228.5,304.0 229.5,303.8 230.6,299.2 231.6,301.2 232.6,305.7 233.6,304.5 234.6,312.1 235.7,305.7 236.7,304.3 237.7,307.0 238.7,306.9 239.8,301.9 240.8,303.8 241.8,300.8 242.8,301.6 243.9,300.2 244.9,298.7 245.9,290.6 246.9,296.1 248.0,300.6 249.0,296.6 250.0,302.7 251.0,302.6 252.0,303.0 253.1,302.7 254.1,302.8 255.1,303.7 256.1,300.1 257.2,305.6 258.2,303.0 259.2,299.2 260.2,302.8 261.3,306.7 262.3,306.1 263.3,306.7 264.3,298.5 265.4,301.6 266.4,297.8 267.4,303.8 268.4,300.2 269.4,299.5 270.5,295.6 271.5,298.2 272.5,298.4 273.5,293.8 274.6,299.9 275.6,297.9 276.6,298.6 277.6,294.2 278.7,297.8 279.7,278.0 280.7,284.2 281.7,295.2 282.8,295.7 283.8,294.4 284.8,300.7 285.8,304.3 286.8,302.4 287.9,302.1 288.9,297.9 289.9,295.3 290.9,296.5 292.0,291.4 293.0,292.0 294.0,290.6 295.0,290.0 296.1,299.7 297.1,291.9 298.1,296.8 299.1,299.8 300.2,303.8 301.2,302.5 302.2,302.1 303.2,302.3 304.2,300.8 305.3,303.5 306.3,295.9 307.3,297.8 308.3,304.4 309.4,304.2 310.4,299.5 311.4,303.9 312.4,303.5 313.5,299.0 314.5,288.7 315.5,293.7 316.5,294.2 317.6,303.7 318.6,295.6 319.6,297.0 320.6,305.6 321.6,294.8 322.7,300.5 323.7,305.1 324.7,308.5 325.7,305.5 326.8,304.0 327.8,300.7 328.8,303.8 329.8,299.3 330.9,303.0 331.9,305.0 332.9,303.0 333.9,299.3 335.0,294.4 336.0,299.9 337.0,286.2 338.0,302.1 339.0,293.9 340.1,297.9 341.1,299.5 342.1,297.4 343.1,294.4 344.2,310.4 345.2,291.6 346.2,295.6 347.2,281.6 348.3,294.6 349.3,293.2 350.3,295.0 351.3,291.0 352.4,301.0 353.4,279.9 354.4,297.2 355.4,291.8 356.4,291.5 357.5,283.3 358.5,298.3 359.5,300.4 360.5,298.6 361.6,288.4 362.6,299.0 363.6,304.4 364.6,297.7 365.7,295.5 366.7,279.8 367.7,284.2 368.7,300.5 369.8,299.9 370.8,298.1 371.8,293.4 372.8,303.1 373.8,303.0 374.9,298.6 375.9,296.8 376.9,297.4 377.9,301.3 379.0,298.1 380.0,311.4 381.0,299.4 382.0,303.5 383.1,301.2 384.1,302.9 385.1,304.3 386.1,297.8 387.2,294.4 388.2,299.3 389.2,295.1 390.2,301.8 391.2,292.6 392.3,297.6 393.3,293.9 394.3,290.0 395.3,295.1 396.4,304.6 397.4,291.1 398.4,300.3 399.4,295.9 400.5,293.1 401.5,291.6 402.5,296.8 403.5,297.1 404.6,297.9 405.6,299.5 406.6,292.8 407.6,286.2 408.6,290.1 409.7,300.0 410.7,294.5 411.7,300.9 412.7,303.0 413.8,299.1 414.8,302.5 415.8,295.1 416.8,297.0 417.9,302.8 418.9,301.7 419.9,303.0 420.9,308.6 422.0,306.8 423.0,306.1 424.0,306.5 425.0,304.3 426.0,304.5 427.1,298.3 428.1,301.1 429.1,303.1 430.1,303.3 431.2,304.2 432.2,302.4 433.2,299.4 434.2,304.5 435.3,307.1 436.3,297.3 437.3,298.9 438.3,298.1 439.4,299.7 440.4,297.8 441.4,301.0 442.4,287.2 443.4,294.3 444.5,294.8 445.5,298.6 446.5,291.3 447.5,298.4 448.6,294.6 449.6,298.7 450.6,304.2 451.6,282.2 452.7,289.8 453.7,298.8 454.7,295.1 455.7,293.4 456.8,294.7 457.8,304.3 458.8,296.9 459.8,301.7 460.8,296.7 461.9,295.6 462.9,292.9 463.9,291.6 464.9,286.7 466.0,287.8 467.0,294.2 468.0,292.6 469.0,297.5 470.1,303.1 471.1,296.8 472.1,304.1 473.1,298.7 474.2,297.8 475.2,299.3 476.2,297.1 477.2,296.6 478.2,305.5 479.3,301.9 480.3,304.5 481.3,302.9 482.3,303.4 483.4,302.7 484.4,304.5 485.4,301.7 486.4,300.0 487.5,297.3 488.5,295.0 489.5,305.0 490.5,302.7 491.6,303.7 492.6,302.8 493.6,298.5 494.6,257.0 495.6,291.0 496.7,298.5 497.7,296.3 498.7,301.0 499.7,301.6 500.8,299.9 501.8,299.3 502.8,299.6 503.8,296.0 504.9,299.4 505.9,305.6 506.9,306.5 507.9,300.9 509.0,302.7 510.0,295.0 511.0,302.2 512.0,296.9 513.0,304.8 514.1,299.1 515.1,295.6 516.1,295.1 517.1,300.9 518.2,301.0 519.2,300.7 520.2,304.5 521.2,292.6 522.3,303.5 523.3,306.0 524.3,295.5 525.3,297.4 526.4,302.8 527.4,295.8 528.4,299.5 529.4,304.0 530.4,301.7 531.5,303.8 532.5,300.8 533.5,306.1 534.5,305.6 535.6,300.8 536.6,303.2 537.6,297.1 538.6,300.2 539.7,292.3 540.7,292.0 541.7,292.1 542.7,299.3 543.8,298.5 544.8,298.8 545.8,301.5 546.8,299.6 547.8,305.3 548.9,300.2 549.9,300.6 550.9,304.7 551.9,299.2 553.0,304.4 554.0,299.7 555.0,306.4 556.0,299.1 557.1,304.5 558.1,303.3 559.1,298.0 560.1,263.7 561.2,302.9 562.2,304.6 563.2,301.3 564.2,300.8 565.2,298.3 566.3,299.9 567.3,302.7 568.3,298.6 569.3,304.0 570.4,302.8 571.4,303.0 572.4,301.1 573.4,308.3 574.5,304.5 575.5,309.0 576.5,304.5 577.5,303.7 578.6,304.9 579.6,303.6 580.6,305.3 581.6,299.5 582.6,305.2 583.7,297.1 584.7,302.2 585.7,288.1 586.7,294.6 587.8,299.7 588.8,287.4 589.8,299.0 590.8,298.4 591.9,296.8 592.9,301.1 593.9,299.5 594.9,302.6 596.0,299.3 597.0,303.0 598.0,298.0 599.0,301.6 600.0,305.3 601.1,304.5 602.1,290.4 603.1,303.1 604.1,299.6 605.2,302.4 606.2,303.1 607.2,304.7 608.2,296.3 609.3,301.7 610.3,292.9 611.3,298.2 612.3,294.8 613.4,293.5 614.4,299.4 615.4,297.4 616.4,300.4 617.4,295.6 618.5,301.5 619.5,282.6 620.5,297.4 621.5,291.2 622.6,300.8 623.6,281.3 624.6,303.6 625.6,292.1 626.7,296.5 627.7,300.9 628.7,293.9 629.7,295.3 630.8,305.2 631.8,304.7 632.8,300.3 633.8,302.0 634.8,297.5 635.9,295.0 636.9,296.6 637.9,292.7 638.9,298.7 640.0,291.1 641.0,289.9 642.0,292.8 643.0,302.6 644.1,303.5 645.1,301.6 646.1,297.5 647.1,303.0 648.2,302.5 649.2,299.3 650.2,300.0 651.2,295.7 652.2,300.6 653.3,302.5 654.3,302.2 655.3,300.7 656.3,305.4 657.4,305.1 658.4,301.0 659.4,294.2 660.4,301.0 661.5,298.9 662.5,290.4 663.5,295.9 664.5,294.1 665.6,301.3 666.6,298.2 667.6,299.2 668.6,302.6 669.6,300.9 670.7,299.2 671.7,302.7 672.7,303.6 673.7,299.5 674.8,304.4 675.8,298.2 676.8,302.7 677.8,304.9 678.9,303.3 679.9,303.8 680.9,305.7 681.9,294.6 683.0,306.7 684.0,303.7 685.0,295.1 686.0,294.1 687.0,293.7 688.1,295.9 689.1,295.9 690.1,298.1 691.1,284.7 692.2,294.9 693.2,298.6 694.2,296.3 695.2,294.2 696.3,300.6 697.3,294.3 698.3,295.9 699.3,303.8 700.4,295.8 701.4,302.6 702.4,297.7 703.4,300.0 704.4,300.7 705.5,298.3 706.5,294.8 707.5,295.8 708.5,303.0 709.6,295.6 710.6,296.0 711.6,295.2 712.6,295.3 713.7,295.0 714.7,299.9 715.7,299.0 716.7,295.9 717.8,303.3 718.8,302.9 719.8,298.2 720.8,305.5 721.8,300.9 722.9,300.4 723.9,305.2 724.9,295.8 725.9,301.8 727.0,303.2 728.0,304.6 729.0,299.1 730.0,301.0 731.1,298.0 732.1,298.8 733.1,297.3 734.1,300.8 735.2,296.0 736.2,293.0 737.2,284.2 738.2,298.8 739.2,293.9 740.3,298.9 741.3,298.8 742.3,298.0 743.3,291.0 744.4,292.3 745.4,298.2 746.4,297.5 747.4,297.5 748.5,298.5 749.5,288.2 750.5,296.5 751.5,297.3 752.6,301.7 753.6,301.0 754.6,305.4 755.6,295.8 756.6,295.1 757.7,299.8 758.7,289.6 759.7,296.7 760.7,295.1 761.8,295.1 762.8,294.8 763.8,297.5 764.8,299.5 765.9,295.8 766.9,297.0 767.9,291.7 768.9,285.1 770.0,299.7 771.0,301.0 772.0,293.6 773.0,302.3 774.0,297.5 775.1,307.7 776.1,292.5 777.1,304.9 778.1,304.1 779.2,291.9 780.2,305.2 781.2,297.8 782.2,298.1 783.3,307.4 784.3,305.4 785.3,294.0 786.3,284.5 787.4,295.7 788.4,281.6 789.4,295.8 790.4,307.1 791.4,303.5 792.5,299.2 793.5,301.5 794.5,309.0 795.5,287.8 796.6,293.3 797.6,314.3 798.6,300.8 799.6,304.2 800.7,299.2 801.7,305.4 802.7,297.5 803.7,303.5 804.8,297.3 805.8,286.2 806.8,295.6 807.8,293.4 808.8,295.3 809.9,292.6 810.9,295.0 811.9,297.5 812.9,303.2 814.0,307.8 815.0,295.2 816.0,306.6 817.0,305.0 818.1,305.4 819.1,303.1 820.1,297.4 821.1,293.5 822.2,305.0 823.2,310.4 824.2,306.6 825.2,309.4 826.2,304.0 827.3,307.8 828.3,308.2 829.3,299.0 830.3,288.2 831.4,297.1 832.4,298.1 833.4,298.6 834.4,298.7 835.5,295.2 836.5,305.8 837.5,307.8 838.5,304.4 839.6,309.3 840.6,306.7 841.6,303.2 842.6,303.6 843.6,296.5 844.7,304.1 845.7,305.5 846.7,308.2 847.7,291.8 848.8,301.9 849.8,305.3 850.8,302.2 851.8,300.9 852.9,302.7 853.9,295.0 854.9,295.0 855.9,295.3 857.0,299.1 858.0,299.0 859.0,300.9 860.0,304.6 861.0,307.3 862.1,303.1 863.1,300.9 864.1,303.0 865.1,290.9 866.2,301.1 867.2,301.9 868.2,302.0 869.2,295.6 870.3,306.6 871.3,304.1 872.3,288.8 873.3,297.4 874.4,295.3 875.4,295.7 876.4,296.1 877.4,306.3 878.4,300.3 879.5,304.9 880.5,295.7 881.5,303.6 882.5,305.1 883.6,302.6 884.6,301.6 885.6,285.2 886.6,304.3 887.7,334.7 888.7,343.7 889.7,343.8 890.7,343.5 891.8,344.0 892.8,319.0 893.8,342.3 894.8,343.1 895.8,342.6 896.9,343.4 897.9,343.4 898.9,343.4 899.9,338.9 901.0,343.5 902.0,344.5 903.0,342.7 904.0,342.0 905.1,343.8 906.1,343.0 907.1,343.2 908.1,340.3 909.2,342.7 910.2,343.4 911.2,342.2 912.2,343.9 913.2,341.8 914.3,341.2 915.3,342.8 916.3,342.4 917.3,343.3 918.4,344.8 919.4,343.7 920.4,343.3 921.4,344.0 922.5,342.7 923.5,343.5 924.5,341.8 925.5,340.1 926.6,342.3 927.6,342.4 928.6,339.6 929.6,341.5 930.6,340.5 931.7,343.1 932.7,341.6 933.7,340.5 934.7,342.3 935.8,342.5 936.8,342.2 937.8,343.0 938.8,342.6 939.9,342.9 940.9,343.5 941.9,342.4 942.9,340.9 944.0,341.4 945.0,342.5 946.0,343.0" fill="none" stroke="#2563eb" stroke-width="2.2" stroke-linejoin="round" stroke-linecap="round"/>
<polyline points="76.0,311.4 77.0,324.9 78.0,334.1 79.1,334.5 80.1,335.0 81.1,334.6 82.1,334.4 83.2,330.8 84.2,334.6 85.2,334.6 86.2,320.5 87.3,334.6 88.3,334.2 89.3,330.7 90.3,334.4 91.4,333.8 92.4,321.1 93.4,330.5 94.4,332.4 95.4,310.6 96.5,302.9 97.5,305.9 98.5,320.5 99.5,315.5 100.6,310.4 101.6,329.8 102.6,333.4 103.6,312.5 104.7,335.0 105.7,319.0 106.7,330.5 107.7,283.8 108.8,300.4 109.8,303.3 110.8,308.3 111.8,331.3 112.8,312.5 113.9,310.6 114.9,334.9 115.9,335.0 116.9,329.7 118.0,310.6 119.0,310.6 120.0,312.5 121.0,340.8 122.1,334.9 123.1,308.9 124.1,310.3 125.1,334.9 126.2,335.3 127.2,334.2 128.2,333.4 129.2,333.9 130.2,334.6 131.3,331.5 132.3,334.6 133.3,330.9 134.3,334.3 135.4,334.6 136.4,334.2 137.4,335.0 138.4,334.9 139.5,334.9 140.5,344.0 141.5,335.8 142.5,334.9 143.6,334.9 144.6,330.7 145.6,344.0 146.6,335.6 147.6,336.2 148.7,336.2 149.7,335.0 150.7,338.1 151.7,336.2 152.8,336.1 153.8,335.1 154.8,335.0 155.8,335.0 156.9,334.5 157.9,335.0 158.9,334.6 159.9,334.6 161.0,335.0 162.0,335.0 163.0,335.0 164.0,334.3 165.0,334.9 166.1,334.9 167.1,330.7 168.1,334.7 169.1,312.2 170.2,329.6 171.2,331.1 172.2,333.8 173.2,344.0 174.3,330.6 175.3,333.8 176.3,335.0 177.3,336.2 178.4,334.7 179.4,334.7 180.4,334.8 181.4,334.6 182.4,331.0 183.5,330.5 184.5,331.5 185.5,333.0 186.5,335.0 187.6,334.9 188.6,334.9 189.6,334.1 190.6,334.9 191.7,334.9 192.7,331.5 193.7,332.3 194.7,336.2 195.8,344.0 196.8,336.1 197.8,335.0 198.8,310.1 199.8,334.9 200.9,334.5 201.9,334.7 202.9,333.8 203.9,334.9 205.0,334.0 206.0,334.9 207.0,334.9 208.0,334.9 209.1,335.0 210.1,334.7 211.1,333.2 212.1,334.9 213.2,335.0 214.2,335.0 215.2,334.1 216.2,334.2 217.2,330.3 218.3,310.6 219.3,298.7 220.3,309.8 221.3,304.4 222.4,310.2 223.4,310.1 224.4,327.6 225.4,333.0 226.5,333.8 227.5,333.8 228.5,334.9 229.5,334.9 230.6,333.8 231.6,334.7 232.6,334.7 233.6,334.6 234.6,344.0 235.7,334.9 236.7,334.9 237.7,335.0 238.7,335.0 239.8,333.8 240.8,334.4 241.8,330.9 242.8,319.7 243.9,298.7 244.9,334.1 245.9,326.9 246.9,334.7 248.0,331.8 249.0,331.8 250.0,331.4 251.0,334.7 252.0,334.4 253.1,334.6 254.1,334.6 255.1,330.7 256.1,330.7 257.2,334.9 258.2,334.4 259.2,331.0 260.2,334.6 261.3,335.0 262.3,334.6 263.3,334.9 264.3,330.5 265.4,334.3 266.4,315.6 267.4,334.6 268.4,298.7 269.4,334.0 270.5,329.7 271.5,332.6 272.5,331.8 273.5,310.6 274.6,331.8 275.6,332.3 276.6,334.6 277.6,323.8 278.7,334.0 279.7,295.8 280.7,298.7 281.7,327.1 282.8,331.1 283.8,330.7 284.8,332.3 285.8,334.6 286.8,334.7 287.9,334.1 288.9,324.8 289.9,315.1 290.9,308.6 292.0,305.4 293.0,298.7 294.0,306.5 295.0,305.4 296.1,331.7 297.1,305.5 298.1,317.0 299.1,333.4 300.2,335.0 301.2,334.1 302.2,335.0 303.2,334.9 304.2,333.7 305.3,335.0 306.3,319.7 307.3,319.7 308.3,334.1 309.4,333.8 310.4,333.4 311.4,334.7 312.4,334.6 313.5,331.3 314.5,305.4 315.5,308.2 316.5,308.3 317.6,298.7 318.6,310.2 319.6,335.5 320.6,336.2 321.6,312.5 322.7,334.5 323.7,336.2 324.7,335.9 325.7,336.2 326.8,335.0 327.8,333.8 328.8,334.3 329.8,334.4 330.9,333.5 331.9,334.6 332.9,334.4 333.9,329.6 335.0,308.9 336.0,334.1 337.0,308.2 338.0,334.4 339.0,310.7 340.1,310.3 341.1,325.1 342.1,305.5 343.1,319.7 344.2,344.0 345.2,315.6 346.2,334.2 347.2,308.2 348.3,309.9 349.3,330.0 350.3,334.1 351.3,335.0 352.4,333.2 353.4,323.8 354.4,333.8 355.4,308.2 356.4,306.1 357.5,323.8 358.5,315.6 359.5,333.4 360.5,332.6 361.6,303.2 362.6,334.1 363.6,334.7 364.6,326.5 365.7,333.8 366.7,320.8 367.7,333.7 368.7,333.7 369.8,334.1 370.8,330.7 371.8,331.8 372.8,333.7 373.8,334.6 374.9,333.8 375.9,333.0 376.9,310.6 377.9,334.7 379.0,330.7 380.0,345.9 381.0,333.8 382.0,334.7 383.1,333.7 384.1,334.7 385.1,334.7 386.1,310.6 387.2,315.4 388.2,332.0 389.2,310.5 390.2,331.7 391.2,305.3 392.3,330.5 393.3,326.9 394.3,302.2 395.3,309.7 396.4,335.9 397.4,333.4 398.4,334.9 399.4,334.4 400.5,306.5 401.5,306.5 402.5,318.3 403.5,320.1 404.6,323.6 405.6,331.8 406.6,310.6 407.6,305.4 408.6,308.2 409.7,331.8 410.7,305.2 411.7,330.5 412.7,334.1 413.8,326.7 414.8,330.7 415.8,305.4 416.8,308.2 417.9,333.8 418.9,334.1 419.9,335.0 420.9,340.8 422.0,336.2 423.0,336.1 424.0,335.0 425.0,336.2 426.0,335.8 427.1,333.8 428.1,334.4 429.1,335.0 430.1,334.8 431.2,334.9 432.2,334.6 433.2,331.8 434.2,334.5 435.3,335.0 436.3,329.1 437.3,330.7 438.3,325.8 439.4,325.3 440.4,308.2 441.4,333.5 442.4,308.4 443.4,310.3 444.5,330.5 445.5,319.6 446.5,308.3 447.5,334.6 448.6,318.7 449.6,335.8 450.6,335.0 451.6,297.6 452.7,305.3 453.7,325.3 454.7,325.7 455.7,318.9 456.8,310.3 457.8,334.9 458.8,321.4 459.8,334.2 460.8,331.5 461.9,329.7 462.9,309.6 463.9,308.4 464.9,298.7 466.0,302.7 467.0,305.5 468.0,309.0 469.0,331.8 470.1,334.0 471.1,329.6 472.1,334.7 473.1,333.8 474.2,335.0 475.2,334.0 476.2,334.0 477.2,325.3 478.2,334.9 479.3,334.5 480.3,334.6 481.3,334.7 482.3,334.7 483.4,334.7 484.4,334.6 485.4,334.1 486.4,326.9 487.5,326.6 488.5,305.4 489.5,343.0 490.5,335.3 491.6,344.0 492.6,335.0 493.6,329.1 494.6,301.0 495.6,334.2 496.7,334.1 497.7,315.6 498.7,335.0 499.7,334.1 500.8,334.6 501.8,333.6 502.8,330.5 503.8,330.4 504.9,333.8 505.9,335.0 506.9,335.0 507.9,333.2 509.0,334.4 510.0,310.5 511.0,332.0 512.0,310.1 513.0,332.7 514.1,305.4 515.1,309.8 516.1,310.6 517.1,330.0 518.2,333.8 519.2,332.4 520.2,335.3 521.2,318.3 522.3,334.7 523.3,336.2 524.3,331.4 525.3,325.8 526.4,334.6 527.4,331.3 528.4,331.8 529.4,334.7 530.4,334.5 531.5,333.8 532.5,330.7 533.5,334.9 534.5,334.8 535.6,331.8 536.6,333.2 537.6,310.7 538.6,330.5 539.7,308.2 540.7,308.4 541.7,305.4 542.7,330.4 543.8,326.9 544.8,330.4 545.8,334.9 546.8,331.5 547.8,335.0 548.9,334.6 549.9,334.1 550.9,334.9 551.9,334.7 553.0,335.0 554.0,333.8 555.0,335.0 556.0,333.3 557.1,334.6 558.1,335.0 559.1,332.7 560.1,283.6 561.2,333.8 562.2,335.0 563.2,319.3 564.2,331.1 565.2,329.7 566.3,331.8 567.3,334.1 568.3,334.6 569.3,334.9 570.4,334.7 571.4,334.6 572.4,334.8 573.4,335.0 574.5,334.9 575.5,335.0 576.5,334.9 577.5,334.7 578.6,334.9 579.6,335.0 580.6,334.7 581.6,334.1 582.6,335.7 583.7,334.1 584.7,334.4 585.7,305.3 586.7,319.6 587.8,309.3 588.8,300.7 589.8,310.4 590.8,330.5 591.9,310.6 592.9,330.5 593.9,333.0 594.9,334.7 596.0,333.8 597.0,334.1 598.0,330.9 599.0,334.7 600.0,334.9 601.1,334.9 602.1,305.4 603.1,334.4 604.1,331.0 605.2,335.0 606.2,333.8 607.2,335.0 608.2,333.8 609.3,334.9 610.3,310.6 611.3,334.3 612.3,306.4 613.4,308.4 614.4,333.8 615.4,330.9 616.4,334.1 617.4,329.7 618.5,334.3 619.5,305.3 620.5,330.7 621.5,328.8 622.6,333.8 623.6,295.8 624.6,334.6 625.6,310.6 626.7,310.6 627.7,333.8 628.7,318.4 629.7,318.5 630.8,334.2 631.8,334.9 632.8,334.1 633.8,334.1 634.8,330.4 635.9,308.2 636.9,308.2 637.9,310.2 638.9,333.8 640.0,310.6 641.0,310.4 642.0,327.3 643.0,332.0 644.1,335.0 645.1,334.6 646.1,334.0 647.1,334.6 648.2,334.5 649.2,330.7 650.2,333.5 651.2,331.5 652.2,334.6 653.3,334.1 654.3,333.8 655.3,330.7 656.3,334.7 657.4,334.9 658.4,332.0 659.4,307.0 660.4,326.1 661.5,305.4 662.5,306.4 663.5,309.0 664.5,306.4 665.6,334.6 666.6,327.0 667.6,333.8 668.6,333.2 669.6,334.1 670.7,335.0 671.7,334.6 672.7,333.9 673.7,333.8 674.8,334.7 675.8,330.7 676.8,331.8 677.8,334.9 678.9,334.1 679.9,334.6 680.9,334.9 681.9,327.5 683.0,335.0 684.0,333.6 685.0,319.7 686.0,302.9 687.0,310.1 688.1,327.5 689.1,326.8 690.1,323.6 691.1,298.7 692.2,310.6 693.2,331.1 694.2,330.7 695.2,334.6 696.3,324.6 697.3,323.8 698.3,330.4 699.3,333.8 700.4,330.7 701.4,334.6 702.4,323.9 703.4,333.2 704.4,334.1 705.5,325.7 706.5,309.1 707.5,315.6 708.5,333.8 709.6,308.5 710.6,306.5 711.6,308.2 712.6,310.2 713.7,312.5 714.7,331.0 715.7,331.9 716.7,317.9 717.8,334.6 718.8,335.0 719.8,335.0 720.8,335.0 721.8,334.6 722.9,333.8 723.9,334.9 724.9,330.4 725.9,334.3 727.0,334.6 728.0,334.2 729.0,333.8 730.0,335.0 731.1,330.7 732.1,333.8 733.1,315.5 734.1,330.7 735.2,305.4 736.2,324.4 737.2,306.5 738.2,331.8 739.2,308.9 740.3,333.8 741.3,333.8 742.3,331.2 743.3,310.7 744.4,333.8 745.4,330.0 746.4,327.2 747.4,323.8 748.5,330.0 749.5,305.0 750.5,312.5 751.5,333.8 752.6,332.0 753.6,329.7 754.6,333.8 755.6,322.8 756.6,308.3 757.7,310.4 758.7,305.2 759.7,305.4 760.7,308.2 761.8,310.7 762.8,310.1 763.8,319.6 764.8,325.7 765.9,330.8 766.9,330.9 767.9,305.4 768.9,305.2 770.0,333.8 771.0,331.0 772.0,305.4 773.0,334.7 774.0,308.3 775.1,334.1 776.1,334.7 777.1,332.8 778.1,332.9 779.2,308.2 780.2,335.0 781.2,330.4 782.2,310.4 783.3,330.0 784.3,326.8 785.3,305.9 786.3,306.4 787.4,323.8 788.4,296.7 789.4,334.1 790.4,335.0 791.4,335.0 792.5,331.5 793.5,334.7 794.5,335.0 795.5,304.3 796.6,308.2 797.6,335.0 798.6,331.8 799.6,334.5 800.7,331.2 801.7,334.7 802.7,331.8 803.7,321.5 804.8,334.9 805.8,331.9 806.8,310.4 807.8,308.3 808.8,305.4 809.9,305.9 810.9,305.7 811.9,324.6 812.9,330.7 814.0,334.5 815.0,331.6 816.0,335.0 817.0,335.0 818.1,335.0 819.1,322.4 820.1,334.9 821.1,331.1 822.2,335.0 823.2,344.0 824.2,344.0 825.2,344.0 826.2,334.6 827.3,335.0 828.3,335.0 829.3,334.4 830.3,311.6 831.4,308.9 832.4,308.2 833.4,308.1 834.4,330.4 835.5,308.6 836.5,337.4 837.5,335.0 838.5,335.0 839.6,335.0 840.6,331.8 841.6,332.0 842.6,334.1 843.6,330.5 844.7,334.6 845.7,335.0 846.7,334.9 847.7,312.5 848.8,333.8 849.8,332.0 850.8,333.8 851.8,331.7 852.9,331.0 853.9,310.7 854.9,308.6 855.9,314.0 857.0,327.1 858.0,304.8 859.0,340.8 860.0,341.6 861.0,335.0 862.1,334.6 863.1,334.6 864.1,324.6 865.1,317.8 866.2,346.0 867.2,334.6 868.2,334.9 869.2,317.9 870.3,344.0 871.3,334.0 872.3,321.8 873.3,332.8 874.4,325.5 875.4,333.8 876.4,313.7 877.4,334.6 878.4,328.5 879.5,331.2 880.5,305.4 881.5,331.0 882.5,310.0 883.6,331.4 884.6,330.2 885.6,290.8 886.6,335.0 887.7,347.8 888.7,350.1 889.7,349.5 890.7,346.1 891.8,349.4 892.8,341.0 893.8,346.4 894.8,349.3 895.8,344.7 896.9,345.1 897.9,349.2 898.9,349.4 899.9,343.5 901.0,350.0 902.0,350.1 903.0,347.6 904.0,344.9 905.1,349.2 906.1,345.2 907.1,344.1 908.1,344.7 909.2,345.7 910.2,346.1 911.2,345.7 912.2,349.5 913.2,345.1 914.3,349.4 915.3,348.7 916.3,346.1 917.3,345.8 918.4,351.6 919.4,348.3 920.4,345.7 921.4,349.9 922.5,344.7 923.5,346.4 924.5,345.2 925.5,343.4 926.6,345.2 927.6,346.1 928.6,342.1 929.6,343.4 930.6,343.5 931.7,345.2 932.7,345.2 933.7,344.0 934.7,345.2 935.8,345.4 936.8,345.3 937.8,344.8 938.8,345.8 939.9,346.1 940.9,344.8 941.9,345.0 942.9,344.3 944.0,345.2 945.0,347.2 946.0,348.7" fill="none" stroke="#059669" stroke-width="2.2" stroke-linejoin="round" stroke-linecap="round"/>
<polyline points="76.0,208.9 77.0,216.7 78.0,223.4 79.1,228.3 80.1,236.4 81.1,228.3 82.1,223.3 83.2,216.9 84.2,223.4 85.2,223.3 86.2,199.8 87.3,223.4 88.3,224.6 89.3,223.3 90.3,226.2 91.4,227.6 92.4,211.5 93.4,216.7 94.4,236.0 95.4,216.6 96.5,215.8 97.5,199.8 98.5,220.3 99.5,223.2 100.6,223.4 101.6,220.5 102.6,223.3 103.6,213.2 104.7,216.6 105.7,200.1 106.7,199.8 107.7,160.5 108.8,170.2 109.8,170.2 110.8,209.6 111.8,215.8 112.8,209.6 113.9,208.2 114.9,233.3 115.9,241.0 116.9,230.2 118.0,223.3 119.0,223.8 120.0,223.4 121.0,227.6 122.1,220.4 123.1,213.7 124.1,221.6 125.1,214.1 126.2,236.4 127.2,233.9 128.2,228.8 129.2,229.4 130.2,230.2 131.3,223.4 132.3,223.4 133.3,224.4 134.3,227.8 135.4,231.4 136.4,223.4 137.4,236.4 138.4,240.4 139.5,233.6 140.5,244.6 141.5,239.4 142.5,240.4 143.6,238.9 144.6,236.3 145.6,251.7 146.6,206.3 147.6,236.6 148.7,237.6 149.7,234.6 150.7,248.7 151.7,242.6 152.8,246.3 153.8,241.1 154.8,232.3 155.8,233.3 156.9,228.3 157.9,223.5 158.9,229.7 159.9,233.3 161.0,246.2 162.0,238.6 163.0,241.0 164.0,231.4 165.0,230.1 166.1,230.4 167.1,216.6 168.1,239.0 169.1,223.4 170.2,231.9 171.2,231.4 172.2,242.9 173.2,248.9 174.3,223.4 175.3,227.9 176.3,242.4 177.3,237.1 178.4,229.7 179.4,234.8 180.4,236.4 181.4,233.2 182.4,223.4 183.5,223.4 184.5,230.1 185.5,233.2 186.5,241.8 187.6,237.6 188.6,246.3 189.6,230.4 190.6,230.5 191.7,237.1 192.7,236.4 193.7,236.6 194.7,241.3 195.8,240.4 196.8,240.4 197.8,233.2 198.8,200.3 199.8,223.3 200.9,223.4 201.9,216.6 202.9,229.6 203.9,233.3 205.0,231.4 206.0,233.3 207.0,230.8 208.0,236.3 209.1,236.3 210.1,233.3 211.1,230.2 212.1,238.7 213.2,238.8 214.2,237.6 215.2,228.0 216.2,226.9 217.2,237.0 218.3,226.6 219.3,232.3 220.3,231.4 221.3,207.0 222.4,223.4 223.4,223.3 224.4,223.3 225.4,225.0 226.5,223.4 227.5,236.4 228.5,236.4 229.5,231.9 230.6,230.2 231.6,235.6 232.6,236.3 233.6,236.7 234.6,251.5 235.7,233.3 236.7,233.3 237.7,241.1 238.7,241.0 239.8,233.3 240.8,232.1 241.8,225.6 242.8,223.4 243.9,241.1 244.9,223.4 245.9,199.8 246.9,231.6 248.0,233.2 249.0,223.4 250.0,228.7 251.0,233.2 252.0,236.4 253.1,233.2 254.1,232.7 255.1,233.7 256.1,223.4 257.2,238.3 258.2,233.9 259.2,223.4 260.2,232.6 261.3,238.6 262.3,240.5 263.3,247.9 264.3,224.1 265.4,223.3 266.4,224.5 267.4,234.8 268.4,247.0 269.4,227.7 270.5,223.2 271.5,223.4 272.5,225.2 273.5,222.7 274.6,229.5 275.6,223.4 276.6,228.1 277.6,212.0 278.7,223.2 279.7,160.5 280.7,171.2 281.7,200.0 282.8,210.4 283.8,201.6 284.8,223.4 285.8,232.3 286.8,227.9 287.9,226.7 288.9,216.8 289.9,216.6 290.9,223.4 292.0,200.0 293.0,227.0 294.0,199.8 295.0,199.8 296.1,223.4 297.1,210.4 298.1,217.0 299.1,224.4 300.2,223.4 301.2,224.5 302.2,224.1 303.2,226.6 304.2,223.4 305.3,233.2 306.3,208.9 307.3,221.6 308.3,233.3 309.4,232.1 310.4,223.3 311.4,228.3 312.4,230.2 313.5,223.4 314.5,202.6 315.5,220.4 316.5,223.2 317.6,257.5 318.6,219.7 319.6,214.4 320.6,240.0 321.6,215.3 322.7,228.3 323.7,233.5 324.7,241.1 325.7,240.7 326.8,233.2 327.8,233.2 328.8,227.4 329.8,223.4 330.9,240.4 331.9,231.6 332.9,230.9 333.9,218.4 335.0,210.8 336.0,228.0 337.0,182.3 338.0,231.0 339.0,214.8 340.1,222.1 341.1,223.4 342.1,227.6 343.1,214.7 344.2,240.7 345.2,215.1 346.2,221.5 347.2,199.7 348.3,197.1 349.3,195.3 350.3,216.6 351.3,210.6 352.4,223.4 353.4,170.2 354.4,220.5 355.4,205.1 356.4,205.7 357.5,199.8 358.5,221.7 359.5,228.0 360.5,223.4 361.6,168.9 362.6,223.3 363.6,231.5 364.6,223.2 365.7,223.4 366.7,176.3 367.7,200.3 368.7,226.2 369.8,231.6 370.8,223.4 371.8,209.8 372.8,233.3 373.8,232.6 374.9,224.4 375.9,223.4 376.9,220.4 377.9,230.2 379.0,223.3 380.0,251.8 381.0,231.2 382.0,231.4 383.1,230.2 384.1,233.1 385.1,233.1 386.1,224.5 387.2,223.2 388.2,223.3 389.2,223.3 390.2,223.3 391.2,214.8 392.3,223.4 393.3,214.7 394.3,213.3 395.3,223.3 396.4,233.1 397.4,214.9 398.4,223.3 399.4,219.0 400.5,209.6 401.5,200.3 402.5,215.1 403.5,223.3 404.6,215.1 405.6,232.5 406.6,223.3 407.6,205.7 408.6,207.1 409.7,223.3 410.7,223.4 411.7,223.3 412.7,233.2 413.8,223.4 414.8,234.8 415.8,223.2 416.8,223.0 417.9,223.4 418.9,223.9 419.9,231.2 420.9,248.1 422.0,233.3 423.0,235.7 424.0,239.4 425.0,233.2 426.0,229.7 427.1,215.5 428.1,231.7 429.1,233.2 430.1,233.2 431.2,233.1 432.2,228.3 433.2,225.3 434.2,231.2 435.3,240.6 436.3,220.4 437.3,223.3 438.3,223.4 439.4,228.4 440.4,226.3 441.4,226.6 442.4,210.1 443.4,213.3 444.5,220.4 445.5,226.5 446.5,213.9 447.5,223.3 448.6,215.7 449.6,224.2 450.6,233.2 451.6,170.2 452.7,199.8 453.7,223.3 454.7,200.5 455.7,212.4 456.8,214.7 457.8,233.1 458.8,221.6 459.8,228.3 460.8,223.3 461.9,215.7 462.9,212.4 463.9,200.0 464.9,192.4 466.0,194.7 467.0,208.9 468.0,200.0 469.0,215.1 470.1,228.0 471.1,213.3 472.1,233.3 473.1,223.1 474.2,222.6 475.2,223.4 476.2,219.0 477.2,223.2 478.2,240.4 479.3,226.2 480.3,231.5 481.3,233.2 482.3,226.7 483.4,233.2 484.4,236.3 485.4,240.4 486.4,223.5 487.5,224.2 488.5,223.4 489.5,233.2 490.5,227.8 491.6,223.4 492.6,231.7 493.6,226.6 494.6,92.4 495.6,215.1 496.7,223.3 497.7,213.8 498.7,231.5 499.7,230.2 500.8,223.4 501.8,223.4 502.8,223.3 503.8,220.4 504.9,223.2 505.9,233.2 506.9,238.4 507.9,233.2 509.0,231.7 510.0,213.9 511.0,223.4 512.0,223.3 513.0,238.0 514.1,232.3 515.1,217.1 516.1,212.6 517.1,230.2 518.2,226.8 519.2,230.5 520.2,233.4 521.2,200.3 522.3,233.3 523.3,233.3 524.3,216.7 525.3,220.5 526.4,228.0 527.4,220.3 528.4,219.8 529.4,226.9 530.4,231.9 531.5,233.0 532.5,223.3 533.5,237.7 534.5,240.3 535.6,225.0 536.6,236.6 537.6,223.3 538.6,227.9 539.7,211.9 540.7,214.8 541.7,214.8 542.7,223.3 543.8,223.3 544.8,217.0 545.8,234.2 546.8,224.1 547.8,231.5 548.9,223.4 549.9,223.4 550.9,236.6 551.9,216.9 553.0,233.6 554.0,224.5 555.0,236.6 556.0,223.3 557.1,231.8 558.1,231.4 559.1,223.3 560.1,168.8 561.2,223.3 562.2,224.5 563.2,224.6 564.2,226.7 565.2,223.4 566.3,223.3 567.3,239.7 568.3,223.4 569.3,230.2 570.4,223.4 571.4,228.4 572.4,226.6 573.4,238.6 574.5,232.1 575.5,236.6 576.5,236.3 577.5,232.3 578.6,236.4 579.6,233.6 580.6,240.4 581.6,223.4 582.6,241.1 583.7,212.7 584.7,225.1 585.7,205.7 586.7,213.8 587.8,223.4 588.8,201.9 589.8,223.3 590.8,223.1 591.9,223.4 592.9,231.5 593.9,223.4 594.9,236.3 596.0,223.4 597.0,226.9 598.0,222.4 599.0,223.4 600.0,234.7 601.1,235.8 602.1,200.3 603.1,230.5 604.1,230.2 605.2,235.3 606.2,230.2 607.2,232.1 608.2,216.6 609.3,232.6 610.3,212.7 611.3,230.1 612.3,222.9 613.4,219.7 614.4,225.0 615.4,223.4 616.4,223.4 617.4,219.7 618.5,229.3 619.5,196.0 620.5,220.2 621.5,212.0 622.6,231.5 623.6,170.2 624.6,230.2 625.6,199.8 626.7,220.0 627.7,216.7 628.7,210.0 629.7,215.8 630.8,239.5 631.8,231.5 632.8,223.3 633.8,227.9 634.8,223.3 635.9,209.9 636.9,223.4 637.9,207.1 638.9,223.3 640.0,200.0 641.0,199.8 642.0,201.8 643.0,223.4 644.1,235.0 645.1,223.4 646.1,216.6 647.1,230.6 648.2,231.6 649.2,219.9 650.2,223.3 651.2,214.8 652.2,231.3 653.3,230.2 654.3,231.4 655.3,236.4 656.3,240.4 657.4,229.4 658.4,228.0 659.4,218.7 660.4,227.7 661.5,227.9 662.5,204.0 663.5,220.5 664.5,215.5 665.6,226.7 666.6,224.4 667.6,225.1 668.6,232.1 669.6,231.5 670.7,223.4 671.7,229.2 672.7,236.3 673.7,223.7 674.8,237.1 675.8,225.0 676.8,231.4 677.8,236.4 678.9,236.3 679.9,233.4 680.9,237.6 681.9,212.1 683.0,228.0 684.0,233.2 685.0,222.8 686.0,223.2 687.0,222.2 688.1,222.3 689.1,215.1 690.1,223.4 691.1,172.5 692.2,210.3 693.2,223.3 694.2,214.0 695.2,217.9 696.3,231.6 697.3,215.8 698.3,214.9 699.3,232.2 700.4,222.0 701.4,227.8 702.4,223.3 703.4,223.3 704.4,230.1 705.5,220.4 706.5,211.4 707.5,208.2 708.5,232.6 709.6,223.1 710.6,224.4 711.6,218.9 712.6,223.2 713.7,211.8 714.7,228.8 715.7,223.6 716.7,223.3 717.8,233.2 718.8,229.9 719.8,223.3 720.8,236.3 721.8,223.7 722.9,223.4 723.9,236.8 724.9,214.9 725.9,230.2 727.0,227.6 728.0,234.1 729.0,223.7 730.0,225.3 731.1,222.3 732.1,223.4 733.1,224.5 734.1,223.4 735.2,218.4 736.2,208.6 737.2,195.0 738.2,224.5 739.2,212.1 740.3,229.2 741.3,223.3 742.3,223.4 743.3,199.9 744.4,208.3 745.4,223.4 746.4,217.7 747.4,220.4 748.5,223.4 749.5,189.0 750.5,215.4 751.5,223.4 752.6,230.2 753.6,224.4 754.6,233.2 755.6,219.1 756.6,216.6 757.7,233.2 758.7,198.6 759.7,223.3 760.7,223.6 761.8,216.6 762.8,223.3 763.8,223.4 764.8,223.4 765.9,221.2 766.9,215.8 767.9,200.2 768.9,183.2 770.0,223.4 771.0,223.7 772.0,200.5 773.0,227.0 774.0,226.5 775.1,241.1 776.1,239.9 777.1,237.3 778.1,236.6 779.2,192.0 780.2,244.7 781.2,208.6 782.2,233.3 783.3,241.0 784.3,240.2 785.3,223.5 786.3,174.1 787.4,223.3 788.4,194.8 789.4,229.1 790.4,236.2 791.4,241.0 792.5,220.4 793.5,228.2 794.5,256.0 795.5,170.2 796.6,200.3 797.6,256.2 798.6,223.4 799.6,226.2 800.7,223.3 801.7,236.7 802.7,223.3 803.7,230.2 804.8,216.6 805.8,181.2 806.8,223.4 807.8,204.6 808.8,210.1 809.9,208.6 810.9,200.0 811.9,223.8 812.9,227.4 814.0,243.2 815.0,213.2 816.0,240.6 817.0,224.6 818.1,231.9 819.1,230.1 820.1,241.0 821.1,229.3 822.2,237.6 823.2,247.8 824.2,245.3 825.2,252.0 826.2,236.3 827.3,238.6 828.3,240.9 829.3,199.5 830.3,194.9 831.4,224.5 832.4,218.0 833.4,223.5 834.4,216.6 835.5,216.7 836.5,233.2 837.5,236.3 838.5,237.1 839.6,245.8 840.6,238.2 841.6,237.1 842.6,230.8 843.6,207.1 844.7,236.3 845.7,233.2 846.7,240.9 847.7,213.1 848.8,223.4 849.8,236.4 850.8,227.7 851.8,224.6 852.9,230.2 853.9,214.8 854.9,222.2 855.9,216.8 857.0,223.3 858.0,229.9 859.0,224.9 860.0,227.8 861.0,257.6 862.1,230.2 863.1,236.7 864.1,235.8 865.1,223.4 866.2,231.8 867.2,223.4 868.2,223.3 869.2,211.7 870.3,242.1 871.3,225.6 872.3,200.2 873.3,220.4 874.4,223.3 875.4,223.4 876.4,214.7 877.4,233.5 878.4,223.3 879.5,238.6 880.5,223.3 881.5,241.1 882.5,240.4 883.6,223.4 884.6,225.0 885.6,198.4 886.6,237.3 887.7,299.1 888.7,332.3 889.7,333.7 890.7,330.9 891.8,331.5 892.8,256.7 893.8,327.6 894.8,327.7 895.8,331.7 896.9,333.7 897.9,332.3 898.9,331.6 899.9,322.4 901.0,331.5 902.0,332.9 903.0,331.0 904.0,328.4 905.1,333.2 906.1,329.7 907.1,329.7 908.1,329.6 909.2,330.4 910.2,331.5 911.2,327.6 912.2,331.5 913.2,329.1 914.3,327.7 915.3,330.3 916.3,328.4 917.3,331.3 918.4,335.3 919.4,331.5 920.4,330.0 921.4,331.5 922.5,330.0 923.5,331.6 924.5,327.6 925.5,329.0 926.6,330.0 927.6,328.8 928.6,326.0 929.6,327.7 930.6,327.5 931.7,329.2 932.7,328.1 933.7,327.6 934.7,329.0 935.8,331.5 936.8,327.6 937.8,329.6 938.8,328.9 939.9,331.5 940.9,331.5 941.9,330.1 942.9,322.8 944.0,329.3 945.0,331.5 946.0,331.5" fill="none" stroke="#d97706" stroke-width="2.2" stroke-linejoin="round" stroke-linecap="round"/>
<line x1="76" y1="70" x2="94" y2="70" stroke="#2563eb" stroke-width="3"/>
<text x="100" y="74" font-family="Arial, sans-serif" font-size="11" fill="#0f172a">avg fee</text>
<line x1="179" y1="70" x2="197" y2="70" stroke="#059669" stroke-width="3"/>
<text x="203" y="74" font-family="Arial, sans-serif" font-size="11" fill="#0f172a">median fee</text>
<line x1="303" y1="70" x2="321" y2="70" stroke="#d97706" stroke-width="3"/>
<text x="327" y="74" font-family="Arial, sans-serif" font-size="11" fill="#0f172a">p90 fee</text>
<text x="28" y="404" font-family="Arial, sans-serif" font-size="11" fill="#64748b">Source: hourly_features.csv</text>
</svg>