<svg xmlns="http://www.w3.org/2000/svg" width="980" height="420" viewBox="0 0 980 420">
<rect width="100%" height="100%" fill="#ffffff"/>
<text x="28" y="34" font-family="Arial, sans-serif" font-size="20" font-weight="700" fill="#0f172a">Hourly fee trend</text>
<text x="28" y="56" font-family="Arial, sans-serif" font-size="12" fill="#64748b">Average, median, and p90 total fee by hour</text>
<line x1="76" y1="362.0" x2="946" y2="362.0" stroke="#e2e8f0" stroke-width="1"/>
<text x="68" y="366.0" font-family="Arial, sans-serif" font-size="10" text-anchor="end" fill="#64748b">-382K</text>
<line x1="76" y1="292.0" x2="946" y2="292.0" stroke="#e2e8f0" stroke-width="1"/>
<text x="68" y="296.0" font-family="Arial, sans-serif" font-size="10" text-anchor="end" fill="#64748b">2.6M</text>
<line x1="76" y1="222.0" x2="946" y2="222.0" stroke="#e2e8f0" stroke-width="1"/>
<text x="68" y="226.0" font-family="Arial, sans-serif" font-size="10" text-anchor="end" fill="#64748b">5.7M</text>
<line x1="76" y1="152.0" x2="946" y2="152.0" stroke="#e2e8f0" stroke-width="1"/>
<text x="68" y="156.0" font-family="Arial, sans-serif" font-size="10" text-anchor="end" fill="#64748b">8.7M</text>
<line x1="76" y1="82.0" x2="946" y2="82.0" stroke="#e2e8f0" stroke-width="1"/>
<text x="68" y="86.0" font-family="Arial, sans-serif" font-size="10" text-anchor="end" fill="#64748b">11.7M</text>
<line x1="76" y1="362" x2="946" y2="362" stroke="#334155" stroke-width="1"/>
<line x1="76" y1="82" x2="76" y2="362" stroke="#334155" stroke-width="1"/>
<text x="76" y="72" font-family="Arial, sans-serif" font-size="11" fill="#64748b">nanoton</text>
<line x1="76.0" y1="362" x2="76.0" y2="366" stroke="#334155" stroke-width="1"/>
<text x="76.0" y="380" font-family="Arial, sans-serif" font-size="10" text-anchor="middle" fill="#64748b">0</text>
<line x1="511.5" y1="362" x2="511.5" y2="366" stroke="#334155" stroke-width="1"/>
<text x="511.5" y="380" font-family="Arial, sans-serif" font-size="10" text-anchor="middle" fill="#64748b">439</text>
<line x1="946.0" y1="362" x2="946.0" y2="366" stroke="#334155" stroke-width="1"/>
<text x="946.0" y="380" font-family="Arial, sans-serif" font-size="10" text-anchor="middle" fill="#64748b">877</text>
<polyline points="76.0,290.8 77.0,294.6 78.0,296.0 79.0,298.1 80.0,304.8 81.0,297.2 82.0,298.2 82.9,294.6 83.9,299.0 84.9,298.7 85.9,287.8 86.9,299.5 87.9,299.7 88.9,297.4 89.9,300.3 90.9,300.5 91.9,292.5 92.9,292.5 93.9,301.3 94.8,291.1 95.8,289.2 96.8,287.3 97.8,293.8 98.8,294.2 99.8,296.1 100.8,292.1 101.8,297.7 102.8,290.6 103.8,293.2 104.8,288.3 105.8,289.0 106.8,273.1 107.7,284.7 108.7,285.3 109.7,294.6 110.7,299.9 111.7,292.9 112.7,294.9 113.7,304.7 114.7,307.5 115.7,302.1 116.7,297.0 117.7,298.7 118.7,297.9 119.6,304.4 120.6,297.4 121.6,294.5 122.6,296.5 123.6,298.7 124.6,303.1 125.6,303.1 126.6,301.9 127.6,300.3 128.6,303.3 129.6,302.2 130.6,299.4 131.6,299.1 132.5,302.8 133.5,299.1 134.5,301.3 135.5,306.8 136.5,308.7 137.5,306.4 138.5,307.1 139.5,309.1 140.5,305.9 141.5,305.5 142.5,302.0 143.5,308.5 144.4,290.7 145.4,306.4 146.4,306.4 147.4,306.3 148.4,311.2 149.4,307.1 150.4,310.3 151.4,309.1 152.4,305.5 153.4,305.4 154.4,303.2 155.4,303.5 156.4,301.3 157.3,305.1 158.3,307.4 159.3,306.9 160.3,308.1 161.3,305.0 162.3,302.9 163.3,302.7 164.3,298.6 165.3,304.9 166.3,297.0 167.3,299.3 168.3,300.3 169.2,303.9 170.2,311.6 171.2,300.1 172.2,300.5 173.2,308.9 174.2,307.5 175.2,300.3 176.2,304.2 177.2,305.1 178.2,302.6 179.2,300.5 180.2,297.4 181.2,298.7 182.1,301.9 183.1,308.1 184.1,307.4 185.1,307.4 186.1,303.1 187.1,301.9 188.1,304.1 189.1,303.9 190.1,304.0 191.1,308.3 192.1,308.9 193.1,307.3 194.1,301.1 195.0,286.9 196.0,301.6 197.0,298.8 198.0,296.1 199.0,299.6 200.0,305.5 201.0,301.5 202.0,304.9 203.0,302.2 204.0,304.9 205.0,306.8 206.0,304.9 206.9,300.8 207.9,304.8 208.9,308.0 209.9,302.4 210.9,301.7 211.9,303.1 212.9,303.4 213.9,298.9 214.9,298.5 215.9,298.0 216.9,289.4 217.9,296.9 218.9,296.4 219.8,295.5 220.8,299.6 221.8,299.0 222.8,304.6 223.8,304.0 224.8,303.8 225.8,299.2 226.8,301.2 227.8,305.7 228.8,304.5 229.8,312.1 230.8,305.7 231.7,304.3 232.7,307.0 233.7,306.9 234.7,301.9 235.7,303.8 236.7,300.8 237.7,301.6 238.7,300.2 239.7,298.7 240.7,290.6 241.7,296.1 242.7,300.6 243.7,296.6 244.6,302.7 245.6,302.6 246.6,303.0 247.6,302.7 248.6,302.8 249.6,303.7 250.6,300.1 251.6,305.6 252.6,303.0 253.6,299.2 254.6,302.8 255.6,306.7 256.5,306.1 257.5,306.7 258.5,298.5 259.5,301.6 260.5,297.8 261.5,303.8 262.5,300.2 263.5,299.5 264.5,295.6 265.5,298.2 266.5,298.4 267.5,293.8 268.5,299.9 269.4,297.9 270.4,298.6 271.4,294.2 272.4,297.8 273.4,278.0 274.4,284.2 275.4,295.2 276.4,295.7 277.4,294.4 278.4,300.7 279.4,304.3 280.4,302.4 281.3,302.1 282.3,297.9 283.3,295.3 284.3,296.5 285.3,291.4 286.3,292.0 287.3,290.6 288.3,290.0 289.3,299.7 290.3,291.9 291.3,296.8 292.3,299.8 293.3,303.8 294.2,302.5 295.2,302.1 296.2,302.3 297.2,300.8 298.2,303.5 299.2,295.9 300.2,297.8 301.2,304.4 302.2,304.2 303.2,299.5 304.2,303.9 305.2,303.5 306.1,299.0 307.1,288.7 308.1,293.7 309.1,294.2 310.1,303.7 311.1,295.6 312.1,297.0 313.1,305.6 314.1,294.8 315.1,300.5 316.1,305.1 317.1,308.5 318.1,305.5 319.0,304.0 320.0,300.7 321.0,303.8 322.0,299.3 323.0,303.0 324.0,305.0 325.0,303.0 326.0,299.3 327.0,294.4 328.0,299.9 329.0,286.2 330.0,302.1 330.9,293.9 331.9,297.9 332.9,299.5 333.9,297.4 334.9,294.4 335.9,310.4 336.9,291.6 337.9,295.6 338.9,281.6 339.9,294.6 340.9,293.2 341.9,295.0 342.9,291.0 343.8,301.0 344.8,279.9 345.8,297.2 346.8,291.8 347.8,291.5 348.8,283.3 349.8,298.3 350.8,300.4 351.8,298.6 352.8,288.4 353.8,299.0 354.8,304.4 355.7,297.7 356.7,295.5 357.7,279.8 358.7,284.2 359.7,300.5 360.7,299.9 361.7,298.1 362.7,293.4 363.7,303.1 364.7,303.0 365.7,298.6 366.7,296.8 367.7,297.4 368.6,301.3 369.6,298.1 370.6,311.4 371.6,299.4 372.6,303.5 373.6,301.2 374.6,302.9 375.6,304.3 376.6,297.8 377.6,294.4 378.6,299.3 379.6,295.1 380.5,301.8 381.5,292.6 382.5,297.6 383.5,293.9 384.5,290.0 385.5,295.1 386.5,304.6 387.5,291.1 388.5,300.3 389.5,295.9 390.5,293.1 391.5,291.6 392.5,296.8 393.4,297.1 394.4,297.9 395.4,299.5 396.4,292.8 397.4,286.2 398.4,290.1 399.4,300.0 400.4,294.5 401.4,300.9 402.4,303.0 403.4,299.1 404.4,302.5 405.4,295.1 406.3,297.0 407.3,302.8 408.3,301.7 409.3,303.0 410.3,308.6 411.3,306.8 412.3,306.1 413.3,306.5 414.3,304.3 415.3,304.5 416.3,298.3 417.3,301.1 418.2,303.1 419.2,303.3 420.2,304.2 421.2,302.4 422.2,299.4 423.2,304.5 424.2,307.1 425.2,297.3 426.2,298.9 427.2,298.1 428.2,299.7 429.2,297.8 430.2,301.0 431.1,287.2 432.1,294.3 433.1,294.8 434.1,298.6 435.1,291.3 436.1,298.4 437.1,294.6 438.1,298.7 439.1,304.2 440.1,282.2 441.1,289.8 442.1,298.8 443.0,295.1 444.0,293.4 445.0,294.7 446.0,304.3 447.0,296.9 448.0,301.7 449.0,296.7 450.0,295.6 451.0,292.9 452.0,291.6 453.0,286.7 454.0,287.8 455.0,294.2 455.9,292.6 456.9,297.5 457.9,303.1 458.9,296.8 459.9,304.1 460.9,298.7 461.9,297.8 462.9,299.3 463.9,297.1 464.9,296.6 465.9,305.5 466.9,301.9 467.8,304.5 468.8,302.9 469.8,303.4 470.8,302.7 471.8,304.5 472.8,301.7 473.8,300.0 474.8,297.3 475.8,295.0 476.8,305.0 477.8,302.7 478.8,303.7 479.8,302.8 480.7,298.5 481.7,257.0 482.7,291.0 483.7,298.5 484.7,296.3 485.7,301.0 486.7,301.6 487.7,299.9 488.7,299.3 489.7,299.6 490.7,296.0 491.7,299.4 492.6,305.6 493.6,306.5 494.6,300.9 495.6,302.7 496.6,295.0 497.6,302.2 498.6,296.9 499.6,304.8 500.6,299.1 501.6,295.6 502.6,295.1 503.6,300.9 504.6,301.0 505.5,300.7 506.5,304.5 507.5,292.6 508.5,303.5 509.5,306.0 510.5,295.5 511.5,297.4 512.5,302.8 513.5,295.8 514.5,299.5 515.5,304.0 516.5,301.7 517.4,303.8 518.4,300.8 519.4,306.1 520.4,305.6 521.4,300.8 522.4,303.2 523.4,297.1 524.4,300.2 525.4,292.3 526.4,292.0 527.4,292.1 528.4,299.3 529.4,298.5 530.3,298.8 531.3,301.5 532.3,299.6 533.3,305.3 534.3,300.2 535.3,300.6 536.3,304.7 537.3,299.2 538.3,304.4 539.3,299.7 540.3,306.4 541.3,299.1 542.2,304.5 543.2,303.3 544.2,298.0 545.2,263.7 546.2,302.9 547.2,304.6 548.2,301.3 549.2,300.8 550.2,298.3 551.2,299.9 552.2,302.7 553.2,298.6 554.2,304.0 555.1,302.8 556.1,303.0 557.1,301.1 558.1,308.3 559.1,304.5 560.1,309.0 561.1,304.5 562.1,303.7 563.1,304.9 564.1,303.6 565.1,305.3 566.1,299.5 567.0,305.2 568.0,297.1 569.0,302.2 570.0,288.1 571.0,294.6 572.0,299.7 573.0,287.4 574.0,299.0 575.0,298.4 576.0,296.8 577.0,301.1 578.0,299.5 579.0,302.6 579.9,299.3 580.9,303.0 581.9,298.0 582.9,301.6 583.9,305.3 584.9,304.5 585.9,290.4 586.9,303.1 587.9,299.6 588.9,302.4 589.9,303.1 590.9,304.7 591.8,296.3 592.8,301.7 593.8,292.9 594.8,298.2 595.8,294.8 596.8,293.5 597.8,299.4 598.8,297.4 599.8,300.4 600.8,295.6 601.8,301.5 602.8,282.6 603.8,297.4 604.7,291.2 605.7,300.8 606.7,281.3 607.7,303.6 608.7,292.1 609.7,296.5 610.7,300.9 611.7,293.9 612.7,295.3 613.7,305.2 614.7,304.7 615.7,300.3 616.6,302.0 617.6,297.5 618.6,295.0 619.6,296.6 620.6,292.7 621.6,298.7 622.6,291.1 623.6,289.9 624.6,292.8 625.6,302.6 626.6,303.5 627.6,301.6 628.6,297.5 629.5,303.0 630.5,302.5 631.5,299.3 632.5,300.0 633.5,295.7 634.5,300.6 635.5,302.5 636.5,302.2 637.5,300.7 638.5,305.4 639.5,305.1 640.5,301.0 641.5,294.2 642.4,301.0 643.4,298.9 644.4,290.4 645.4,295.9 646.4,294.1 647.4,301.3 648.4,298.2 649.4,299.2 650.4,302.6 651.4,300.9 652.4,299.2 653.4,302.7 654.3,303.6 655.3,299.5 656.3,304.4 657.3,298.2 658.3,302.7 659.3,304.9 660.3,303.3 661.3,303.8 662.3,305.7 663.3,294.6 664.3,306.7 665.3,303.7 666.3,295.1 667.2,294.1 668.2,293.7 669.2,295.9 670.2,295.9 671.2,298.1 672.2,284.7 673.2,294.9 674.2,298.6 675.2,296.3 676.2,294.2 677.2,300.6 678.2,294.3 679.1,295.9 680.1,303.8 681.1,295.8 682.1,302.6 683.1,297.7 684.1,300.0 685.1,300.7 686.1,298.3 687.1,294.8 688.1,295.8 689.1,303.0 690.1,295.6 691.1,296.0 692.0,295.2 693.0,295.3 694.0,295.0 695.0,299.9 696.0,299.0 697.0,295.9 698.0,303.3 699.0,302.9 700.0,298.2 701.0,305.5 702.0,300.9 703.0,300.4 703.9,305.2 704.9,295.8 705.9,301.8 706.9,303.2 707.9,304.6 708.9,299.1 709.9,301.0 710.9,298.0 711.9,298.8 712.9,297.3 713.9,300.8 714.9,296.0 715.9,293.0 716.8,284.2 717.8,298.8 718.8,293.9 719.8,298.9 720.8,298.8 721.8,298.0 722.8,291.0 723.8,292.3 724.8,298.2 725.8,297.5 726.8,297.5 727.8,298.5 728.7,288.2 729.7,296.5 730.7,297.3 731.7,301.7 732.7,301.0 733.7,305.4 734.7,295.8 735.7,295.1 736.7,299.8 737.7,289.6 738.7,296.7 739.7,295.1 740.7,295.1 741.6,294.8 742.6,297.5 743.6,299.5 744.6,295.8 745.6,297.0 746.6,291.7 747.6,285.1 748.6,299.7 749.6,301.0 750.6,293.6 751.6,302.3 752.6,297.5 753.5,307.7 754.5,292.5 755.5,304.9 756.5,304.1 757.5,291.9 758.5,305.2 759.5,297.8 760.5,298.1 761.5,307.4 762.5,305.4 763.5,294.0 764.5,284.5 765.5,295.7 766.4,281.6 767.4,295.8 768.4,307.1 769.4,303.5 770.4,299.2 771.4,301.5 772.4,309.0 773.4,287.8 774.4,293.3 775.4,314.3 776.4,300.8 777.4,304.2 778.3,299.2 779.3,305.4 780.3,297.5 781.3,303.5 782.3,297.3 783.3,286.2 784.3,295.6 785.3,293.4 786.3,295.3 787.3,292.6 788.3,295.0 789.3,297.5 790.3,303.2 791.2,307.8 792.2,295.2 793.2,306.6 794.2,305.0 795.2,305.4 796.2,303.1 797.2,297.4 798.2,293.5 799.2,305.0 800.2,310.4 801.2,306.6 802.2,309.4 803.1,304.0 804.1,307.8 805.1,308.2 806.1,299.0 807.1,288.2 808.1,297.1 809.1,298.1 810.1,298.6 811.1,298.7 812.1,295.2 813.1,305.8 814.1,307.8 815.1,304.4 816.0,309.3 817.0,306.7 818.0,303.2 819.0,303.6 820.0,296.5 821.0,304.1 822.0,305.5 823.0,308.2 824.0,291.8 825.0,301.9 826.0,305.3 827.0,302.2 827.9,300.9 828.9,302.7 829.9,295.0 830.9,295.0 831.9,295.3 832.9,299.1 833.9,299.0 834.9,300.9 835.9,304.6 836.9,307.3 837.9,303.1 838.9,300.9 839.9,303.0 840.8,290.9 841.8,301.1 842.8,301.9 843.8,302.0 844.8,295.6 845.8,306.6 846.8,304.1 847.8,288.8 848.8,297.4 849.8,295.3 850.8,295.7 851.8,296.1 852.8,306.3 853.7,300.3 854.7,304.9 855.7,295.7 856.7,303.6 857.7,305.1 858.7,302.6 859.7,301.6 860.7,285.2 861.7,304.3 862.7,334.7 863.7,343.7 864.7,343.8 865.6,343.5 866.6,344.0 867.6,319.0 868.6,342.3 869.6,343.1 870.6,342.6 871.6,343.4 872.6,343.4 873.6,343.4 874.6,338.9 875.6,343.5 876.6,344.5 877.6,342.7 878.5,342.0 879.5,343.8 880.5,343.0 881.5,343.2 882.5,340.3 883.5,342.7 884.5,343.4 885.5,342.2 886.5,343.9 887.5,341.8 888.5,341.2 889.5,342.8 890.4,342.4 891.4,343.3 892.4,344.8 893.4,343.7 894.4,343.3 895.4,344.0 896.4,342.7 897.4,343.5 898.4,341.8 899.4,340.1 900.4,342.3 901.4,342.4 902.4,339.6 903.3,341.5 904.3,340.5 905.3,343.1 906.3,341.6 907.3,340.5 908.3,342.3 909.3,342.5 910.3,342.2 911.3,343.0 912.3,342.6 913.3,342.9 914.3,343.5 915.2,342.4 916.2,340.9 917.2,341.4 918.2,342.5 919.2,343.3 920.2,343.5 921.2,343.3 922.2,343.2 923.2,342.6 924.2,341.1 925.2,340.9 926.2,341.6 927.2,340.6 928.1,341.3 929.1,341.0 930.1,342.8 931.1,341.5 932.1,342.2 933.1,341.5 934.1,342.8 935.1,341.0 936.1,340.5 937.1,341.9 938.1,341.5 939.1,341.0 940.0,338.4 941.0,325.0 942.0,339.0 943.0,340.0 944.0,339.6 945.0,341.0 946.0,338.9" fill="none" stroke="#2563eb" stroke-width="2.2" stroke-linejoin="round" stroke-linecap="round"/>
<polyline points="76.0,311.4 77.0,324.9 78.0,334.1 79.0,334.5 80.0,335.0 81.0,334.6 82.0,334.4 82.9,330.8 83.9,334.6 84.9,334.6 85.9,320.5 86.9,334.6 87.9,334.2 88.9,330.7 89.9,334.4 90.9,333.8 91.9,321.1 92.9,330.5 93.9,332.4 94.8,310.6 95.8,302.9 96.8,305.9 97.8,320.5 98.8,315.5 99.8,310.4 100.8,329.8 101.8,333.4 102.8,312.5 103.8,335.0 104.8,319.0 105.8,330.5 106.8,283.8 107.7,300.4 108.7,303.3 109.7,308.3 110.7,331.3 111.7,312.5 112.7,310.6 113.7,334.9 114.7,335.0 115.7,329.7 116.7,310.6 117.7,310.6 118.7,312.5 119.6,340.8 120.6,334.9 121.6,308.9 122.6,310.3 123.6,334.9 124.6,335.3 125.6,334.2 126.6,333.4 127.6,333.9 128.6,334.6 129.6,331.5 130.6,334.6 131.6,330.9 132.5,334.3 133.5,334.6 134.5,334.2 135.5,335.0 136.5,334.9 137.5,334.9 138.5,344.0 139.5,335.8 140.5,334.9 141.5,334.9 142.5,330.7 143.5,344.0 144.4,335.6 145.4,336.2 146.4,336.2 147.4,335.0 148.4,338.1 149.4,336.2 150.4,336.1 151.4,335.1 152.4,335.0 153.4,335.0 154.4,334.5 155.4,335.0 156.4,334.6 157.3,334.6 158.3,335.0 159.3,335.0 160.3,335.0 161.3,334.3 162.3,334.9 163.3,334.9 164.3,330.7 165.3,334.7 166.3,312.2 167.3,329.6 168.3,331.1 169.2,333.8 170.2,344.0 171.2,330.6 172.2,333.8 173.2,335.0 174.2,336.2 175.2,334.7 176.2,334.7 177.2,334.8 178.2,334.6 179.2,331.0 180.2,330.5 181.2,331.5 182.1,333.0 183.1,335.0 184.1,334.9 185.1,334.9 186.1,334.1 187.1,334.9 188.1,334.9 189.1,331.5 190.1,332.3 191.1,336.2 192.1,344.0 193.1,336.1 194.1,335.0 195.0,310.1 196.0,334.9 197.0,334.5 198.0,334.7 199.0,333.8 200.0,334.9 201.0,334.0 202.0,334.9 203.0,334.9 204.0,334.9 205.0,335.0 206.0,334.7 206.9,333.2 207.9,334.9 208.9,335.0 209.9,335.0 210.9,334.1 211.9,334.2 212.9,330.3 213.9,310.6 214.9,298.7 215.9,309.8 216.9,304.4 217.9,310.2 218.9,310.1 219.8,327.6 220.8,333.0 221.8,333.8 222.8,333.8 223.8,334.9 224.8,334.9 225.8,333.8 226.8,334.7 227.8,334.7 228.8,334.6 229.8,344.0 230.8,334.9 231.7,334.9 232.7,335.0 233.7,335.0 234.7,333.8 235.7,334.4 236.7,330.9 237.7,319.7 238.7,298.7 239.7,334.1 240.7,326.9 241.7,334.7 242.7,331.8 243.7,331.8 244.6,331.4 245.6,334.7 246.6,334.4 247.6,334.6 248.6,334.6 249.6,330.7 250.6,330.7 251.6,334.9 252.6,334.4 253.6,331.0 254.6,334.6 255.6,335.0 256.5,334.6 257.5,334.9 258.5,330.5 259.5,334.3 260.5,315.6 261.5,334.6 262.5,298.7 263.5,334.0 264.5,329.7 265.5,332.6 266.5,331.8 267.5,310.6 268.5,331.8 269.4,332.3 270.4,334.6 271.4,323.8 272.4,334.0 273.4,295.8 274.4,298.7 275.4,327.1 276.4,331.1 277.4,330.7 278.4,332.3 279.4,334.6 280.4,334.7 281.3,334.1 282.3,324.8 283.3,315.1 284.3,308.6 285.3,305.4 286.3,298.7 287.3,306.5 288.3,305.4 289.3,331.7 290.3,305.5 291.3,317.0 292.3,333.4 293.3,335.0 294.2,334.1 295.2,335.0 296.2,334.9 297.2,333.7 298.2,335.0 299.2,319.7 300.2,319.7 301.2,334.1 302.2,333.8 303.2,333.4 304.2,334.7 305.2,334.6 306.1,331.3 307.1,305.4 308.1,308.2 309.1,308.3 310.1,298.7 311.1,310.2 312.1,335.5 313.1,336.2 314.1,312.5 315.1,334.5 316.1,336.2 317.1,335.9 318.1,336.2 319.0,335.0 320.0,333.8 321.0,334.3 322.0,334.4 323.0,333.5 324.0,334.6 325.0,334.4 326.0,329.6 327.0,308.9 328.0,334.1 329.0,308.2 330.0,334.4 330.9,310.7 331.9,310.3 332.9,325.1 333.9,305.5 334.9,319.7 335.9,344.0 336.9,315.6 337.9,334.2 338.9,308.2 339.9,309.9 340.9,330.0 341.9,334.1 342.9,335.0 343.8,333.2 344.8,323.8 345.8,333.8 346.8,308.2 347.8,306.1 348.8,323.8 349.8,315.6 350.8,333.4 351.8,332.6 352.8,303.2 353.8,334.1 354.8,334.7 355.7,326.5 356.7,333.8 357.7,320.8 358.7,333.7 359.7,333.7 360.7,334.1 361.7,330.7 362.7,331.8 363.7,333.7 364.7,334.6 365.7,333.8 366.7,333.0 367.7,310.6 368.6,334.7 369.6,330.7 370.6,345.9 371.6,333.8 372.6,334.7 373.6,333.7 374.6,334.7 375.6,334.7 376.6,310.6 377.6,315.4 378.6,332.0 379.6,310.5 380.5,331.7 381.5,305.3 382.5,330.5 383.5,326.9 384.5,302.2 385.5,309.7 386.5,335.9 387.5,333.4 388.5,334.9 389.5,334.4 390.5,306.5 391.5,306.5 392.5,318.3 393.4,320.1 394.4,323.6 395.4,331.8 396.4,310.6 397.4,305.4 398.4,308.2 399.4,331.8 400.4,305.2 401.4,330.5 402.4,334.1 403.4,326.7 404.4,330.7 405.4,305.4 406.3,308.2 407.3,333.8 408.3,334.1 409.3,335.0 410.3,340.8 411.3,336.2 412.3,336.1 413.3,335.0 414.3,336.2 415.3,335.8 416.3,333.8 417.3,334.4 418.2,335.0 419.2,334.8 420.2,334.9 421.2,334.6 422.2,331.8 423.2,334.5 424.2,335.0 425.2,329.1 426.2,330.7 427.2,325.8 428.2,325.3 429.2,308.2 430.2,333.5 431.1,308.4 432.1,310.3 433.1,330.5 434.1,319.6 435.1,308.3 436.1,334.6 437.1,318.7 438.1,335.8 439.1,335.0 440.1,297.6 441.1,305.3 442.1,325.3 443.0,325.7 444.0,318.9 445.0,310.3 446.0,334.9 447.0,321.4 448.0,334.2 449.0,331.5 450.0,329.7 451.0,309.6 452.0,308.4 453.0,298.7 454.0,302.7 455.0,305.5 455.9,309.0 456.9,331.8 457.9,334.0 458.9,329.6 459.9,334.7 460.9,333.8 461.9,335.0 462.9,334.0 463.9,334.0 464.9,325.3 465.9,334.9 466.9,334.5 467.8,334.6 468.8,334.7 469.8,334.7 470.8,334.7 471.8,334.6 472.8,334.1 473.8,326.9 474.8,326.6 475.8,305.4 476.8,343.0 477.8,335.3 478.8,344.0 479.8,335.0 480.7,329.1 481.7,301.0 482.7,334.2 483.7,334.1 484.7,315.6 485.7,335.0 486.7,334.1 487.7,334.6 488.7,333.6 489.7,330.5 490.7,330.4 491.7,333.8 492.6,335.0 493.6,335.0 494.6,333.2 495.6,334.4 496.6,310.5 497.6,332.0 498.6,310.1 499.6,332.7 500.6,305.4 501.6,309.8 502.6,310.6 503.6,330.0 504.6,333.8 505.5,332.4 506.5,335.3 507.5,318.3 508.5,334.7 509.5,336.2 510.5,331.4 511.5,325.8 512.5,334.6 513.5,331.3 514.5,331.8 515.5,334.7 516.5,334.5 517.4,333.8 518.4,330.7 519.4,334.9 520.4,334.8 521.4,331.8 522.4,333.2 523.4,310.7 524.4,330.5 525.4,308.2 526.4,308.4 527.4,305.4 528.4,330.4 529.4,326.9 530.3,330.4 531.3,334.9 532.3,331.5 533.3,335.0 534.3,334.6 535.3,334.1 536.3,334.9 537.3,334.7 538.3,335.0 539.3,333.8 540.3,335.0 541.3,333.3 542.2,334.6 543.2,335.0 544.2,332.7 545.2,283.6 546.2,333.8 547.2,335.0 548.2,319.3 549.2,331.1 550.2,329.7 551.2,331.8 552.2,334.1 553.2,334.6 554.2,334.9 555.1,334.7 556.1,334.6 557.1,334.8 558.1,335.0 559.1,334.9 560.1,335.0 561.1,334.9 562.1,334.7 563.1,334.9 564.1,335.0 565.1,334.7 566.1,334.1 567.0,335.7 568.0,334.1 569.0,334.4 570.0,305.3 571.0,319.6 572.0,309.3 573.0,300.7 574.0,310.4 575.0,330.5 576.0,310.6 577.0,330.5 578.0,333.0 579.0,334.7 579.9,333.8 580.9,334.1 581.9,330.9 582.9,334.7 583.9,334.9 584.9,334.9 585.9,305.4 586.9,334.4 587.9,331.0 588.9,335.0 589.9,333.8 590.9,335.0 591.8,333.8 592.8,334.9 593.8,310.6 594.8,334.3 595.8,306.4 596.8,308.4 597.8,333.8 598.8,330.9 599.8,334.1 600.8,329.7 601.8,334.3 602.8,305.3 603.8,330.7 604.7,328.8 605.7,333.8 606.7,295.8 607.7,334.6 608.7,310.6 609.7,310.6 610.7,333.8 611.7,318.4 612.7,318.5 613.7,334.2 614.7,334.9 615.7,334.1 616.6,334.1 617.6,330.4 618.6,308.2 619.6,308.2 620.6,310.2 621.6,333.8 622.6,310.6 623.6,310.4 624.6,327.3 625.6,332.0 626.6,335.0 627.6,334.6 628.6,334.0 629.5,334.6 630.5,334.5 631.5,330.7 632.5,333.5 633.5,331.5 634.5,334.6 635.5,334.1 636.5,333.8 637.5,330.7 638.5,334.7 639.5,334.9 640.5,332.0 641.5,307.0 642.4,326.1 643.4,305.4 644.4,306.4 645.4,309.0 646.4,306.4 647.4,334.6 648.4,327.0 649.4,333.8 650.4,333.2 651.4,334.1 652.4,335.0 653.4,334.6 654.3,333.9 655.3,333.8 656.3,334.7 657.3,330.7 658.3,331.8 659.3,334.9 660.3,334.1 661.3,334.6 662.3,334.9 663.3,327.5 664.3,335.0 665.3,333.6 666.3,319.7 667.2,302.9 668.2,310.1 669.2,327.5 670.2,326.8 671.2,323.6 672.2,298.7 673.2,310.6 674.2,331.1 675.2,330.7 676.2,334.6 677.2,324.6 678.2,323.8 679.1,330.4 680.1,333.8 681.1,330.7 682.1,334.6 683.1,323.9 684.1,333.2 685.1,334.1 686.1,325.7 687.1,309.1 688.1,315.6 689.1,333.8 690.1,308.5 691.1,306.5 692.0,308.2 693.0,310.2 694.0,312.5 695.0,331.0 696.0,331.9 697.0,317.9 698.0,334.6 699.0,335.0 700.0,335.0 701.0,335.0 702.0,334.6 703.0,333.8 703.9,334.9 704.9,330.4 705.9,334.3 706.9,334.6 707.9,334.2 708.9,333.8 709.9,335.0 710.9,330.7 711.9,333.8 712.9,315.5 713.9,330.7 714.9,305.4 715.9,324.4 716.8,306.5 717.8,331.8 718.8,308.9 719.8,333.8 720.8,333.8 721.8,331.2 722.8,310.7 723.8,333.8 724.8,330.0 725.8,327.2 726.8,323.8 727.8,330.0 728.7,305.0 729.7,312.5 730.7,333.8 731.7,332.0 732.7,329.7 733.7,333.8 734.7,322.8 735.7,308.3 736.7,310.4 737.7,305.2 738.7,305.4 739.7,308.2 740.7,310.7 741.6,310.1 742.6,319.6 743.6,325.7 744.6,330.8 745.6,330.9 746.6,305.4 747.6,305.2 748.6,333.8 749.6,331.0 750.6,305.4 751.6,334.7 752.6,308.3 753.5,334.1 754.5,334.7 755.5,332.8 756.5,332.9 757.5,308.2 758.5,335.0 759.5,330.4 760.5,310.4 761.5,330.0 762.5,326.8 763.5,305.9 764.5,306.4 765.5,323.8 766.4,296.7 767.4,334.1 768.4,335.0 769.4,335.0 770.4,331.5 771.4,334.7 772.4,335.0 773.4,304.3 774.4,308.2 775.4,335.0 776.4,331.8 777.4,334.5 778.3,331.2 779.3,334.7 780.3,331.8 781.3,321.5 782.3,334.9 783.3,331.9 784.3,310.4 785.3,308.3 786.3,305.4 787.3,305.9 788.3,305.7 789.3,324.6 790.3,330.7 791.2,334.5 792.2,331.6 793.2,335.0 794.2,335.0 795.2,335.0 796.2,322.4 797.2,334.9 798.2,331.1 799.2,335.0 800.2,344.0 801.2,344.0 802.2,344.0 803.1,334.6 804.1,335.0 805.1,335.0 806.1,334.4 807.1,311.6 808.1,308.9 809.1,308.2 810.1,308.1 811.1,330.4 812.1,308.6 813.1,337.4 814.1,335.0 815.1,335.0 816.0,335.0 817.0,331.8 818.0,332.0 819.0,334.1 820.0,330.5 821.0,334.6 822.0,335.0 823.0,334.9 824.0,312.5 825.0,333.8 826.0,332.0 827.0,333.8 827.9,331.7 828.9,331.0 829.9,310.7 830.9,308.6 831.9,314.0 832.9,327.1 833.9,304.8 834.9,340.8 835.9,341.6 836.9,335.0 837.9,334.6 838.9,334.6 839.9,324.6 840.8,317.8 841.8,346.0 842.8,334.6 843.8,334.9 844.8,317.9 845.8,344.0 846.8,334.0 847.8,321.8 848.8,332.8 849.8,325.5 850.8,333.8 851.8,313.7 852.8,334.6 853.7,328.5 854.7,331.2 855.7,305.4 856.7,331.0 857.7,310.0 858.7,331.4 859.7,330.2 860.7,290.8 861.7,335.0 862.7,347.8 863.7,350.1 864.7,349.5 865.6,346.1 866.6,349.4 867.6,341.0 868.6,346.4 869.6,349.3 870.6,344.7 871.6,345.1 872.6,349.2 873.6,349.4 874.6,343.5 875.6,350.0 876.6,350.1 877.6,347.6 878.5,344.9 879.5,349.2 880.5,345.2 881.5,344.1 882.5,344.7 883.5,345.7 884.5,346.1 885.5,345.7 886.5,349.5 887.5,345.1 888.5,349.4 889.5,348.7 890.4,346.1 891.4,345.8 892.4,351.6 893.4,348.3 894.4,345.7 895.4,349.9 896.4,344.7 897.4,346.4 898.4,345.2 899.4,343.4 900.4,345.2 901.4,346.1 902.4,342.1 903.3,343.4 904.3,343.5 905.3,345.2 906.3,345.2 907.3,344.0 908.3,345.2 909.3,345.4 910.3,345.3 911.3,344.8 912.3,345.8 913.3,346.1 914.3,344.8 915.2,345.0 916.2,344.3 917.2,345.2 918.2,347.2 919.2,347.4 920.2,350.1 921.2,346.4 922.2,348.8 923.2,348.0 924.2,344.7 925.2,344.0 926.2,345.4 927.2,342.7 928.1,345.8 929.1,344.1 930.1,346.0 931.1,349.5 932.1,344.0 933.1,345.9 934.1,347.6 935.1,344.8 936.1,343.6 937.1,343.6 938.1,344.9 939.1,343.6 940.0,342.0 941.0,343.9 942.0,342.7 943.0,343.4 944.0,341.6 945.0,343.4 946.0,341.5" fill="none" stroke="#059669" stroke-width="2.2" stroke-linejoin="round" stroke-linecap="round"/>
<polyline points="76.0,208.9 77.0,216.7 78.0,223.4 79.0,228.3 80.0,236.4 81.0,228.3 82.0,223.3 82.9,216.9 83.9,223.4 84.9,223.3 85.9,199.8 86.9,223.4 87.9,224.6 88.9,223.3 89.9,226.2 90.9,227.6 91.9,211.5 92.9,216.7 93.9,236.0 94.8,216.6 95.8,215.8 96.8,199.8 97.8,220.3 98.8,223.2 99.8,223.4 100.8,220.5 101.8,223.3 102.8,213.2 103.8,216.6 104.8,200.1 105.8,199.8 106.8,160.5 107.7,170.2 108.7,170.2 109.7,209.6 110.7,215.8 111.7,209.6 112.7,208.2 113.7,233.3 114.7,241.0 115.7,230.2 116.7,223.3 117.7,223.8 118.7,223.4 119.6,227.6 120.6,220.4 121.6,213.7 122.6,221.6 123.6,214.1 124.6,236.4 125.6,233.9 126.6,228.8 127.6,229.4 128.6,230.2 129.6,223.4 130.6,223.4 131.6,224.4 132.5,227.8 133.5,231.4 134.5,223.4 135.5,236.4 136.5,240.4 137.5,233.6 138.5,244.6 139.5,239.4 140.5,240.4 141.5,238.9 142.5,236.3 143.5,251.7 144.4,206.3 145.4,236.6 146.4,237.6 147.4,234.6 148.4,248.7 149.4,242.6 150.4,246.3 151.4,241.1 152.4,232.3 153.4,233.3 154.4,228.3 155.4,223.5 156.4,229.7 157.3,233.3 158.3,246.2 159.3,238.6 160.3,241.0 161.3,231.4 162.3,230.1 163.3,230.4 164.3,216.6 165.3,239.0 166.3,223.4 167.3,231.9 168.3,231.4 169.2,242.9 170.2,248.9 171.2,223.4 172.2,227.9 173.2,242.4 174.2,237.1 175.2,229.7 176.2,234.8 177.2,236.4 178.2,233.2 179.2,223.4 180.2,223.4 181.2,230.1 182.1,233.2 183.1,241.8 184.1,237.6 185.1,246.3 186.1,230.4 187.1,230.5 188.1,237.1 189.1,236.4 190.1,236.6 191.1,241.3 192.1,240.4 193.1,240.4 194.1,233.2 195.0,200.3 196.0,223.3 197.0,223.4 198.0,216.6 199.0,229.6 200.0,233.3 201.0,231.4 202.0,233.3 203.0,230.8 204.0,236.3 205.0,236.3 206.0,233.3 206.9,230.2 207.9,238.7 208.9,238.8 209.9,237.6 210.9,228.0 211.9,226.9 212.9,237.0 213.9,226.6 214.9,232.3 215.9,231.4 216.9,207.0 217.9,223.4 218.9,223.3 219.8,223.3 220.8,225.0 221.8,223.4 222.8,236.4 223.8,236.4 224.8,231.9 225.8,230.2 226.8,235.6 227.8,236.3 228.8,236.7 229.8,251.5 230.8,233.3 231.7,233.3 232.7,241.1 233.7,241.0 234.7,233.3 235.7,232.1 236.7,225.6 237.7,223.4 238.7,241.1 239.7,223.4 240.7,199.8 241.7,231.6 242.7,233.2 243.7,223.4 244.6,228.7 245.6,233.2 246.6,236.4 247.6,233.2 248.6,232.7 249.6,233.7 250.6,223.4 251.6,238.3 252.6,233.9 253.6,223.4 254.6,232.6 255.6,238.6 256.5,240.5 257.5,247.9 258.5,224.1 259.5,223.3 260.5,224.5 261.5,234.8 262.5,247.0 263.5,227.7 264.5,223.2 265.5,223.4 266.5,225.2 267.5,222.7 268.5,229.5 269.4,223.4 270.4,228.1 271.4,212.0 272.4,223.2 273.4,160.5 274.4,171.2 275.4,200.0 276.4,210.4 277.4,201.6 278.4,223.4 279.4,232.3 280.4,227.9 281.3,226.7 282.3,216.8 283.3,216.6 284.3,223.4 285.3,200.0 286.3,227.0 287.3,199.8 288.3,199.8 289.3,223.4 290.3,210.4 291.3,217.0 292.3,224.4 293.3,223.4 294.2,224.5 295.2,224.1 296.2,226.6 297.2,223.4 298.2,233.2 299.2,208.9 300.2,221.6 301.2,233.3 302.2,232.1 303.2,223.3 304.2,228.3 305.2,230.2 306.1,223.4 307.1,202.6 308.1,220.4 309.1,223.2 310.1,257.5 311.1,219.7 312.1,214.4 313.1,240.0 314.1,215.3 315.1,228.3 316.1,233.5 317.1,241.1 318.1,240.7 319.0,233.2 320.0,233.2 321.0,227.4 322.0,223.4 323.0,240.4 324.0,231.6 325.0,230.9 326.0,218.4 327.0,210.8 328.0,228.0 329.0,182.3 330.0,231.0 330.9,214.8 331.9,222.1 332.9,223.4 333.9,227.6 334.9,214.7 335.9,240.7 336.9,215.1 337.9,221.5 338.9,199.7 339.9,197.1 340.9,195.3 341.9,216.6 342.9,210.6 343.8,223.4 344.8,170.2 345.8,220.5 346.8,205.1 347.8,205.7 348.8,199.8 349.8,221.7 350.8,228.0 351.8,223.4 352.8,168.9 353.8,223.3 354.8,231.5 355.7,223.2 356.7,223.4 357.7,176.3 358.7,200.3 359.7,226.2 360.7,231.6 361.7,223.4 362.7,209.8 363.7,233.3 364.7,232.6 365.7,224.4 366.7,223.4 367.7,220.4 368.6,230.2 369.6,223.3 370.6,251.8 371.6,231.2 372.6,231.4 373.6,230.2 374.6,233.1 375.6,233.1 376.6,224.5 377.6,223.2 378.6,223.3 379.6,223.3 380.5,223.3 381.5,214.8 382.5,223.4 383.5,214.7 384.5,213.3 385.5,223.3 386.5,233.1 387.5,214.9 388.5,223.3 389.5,219.0 390.5,209.6 391.5,200.3 392.5,215.1 393.4,223.3 394.4,215.1 395.4,232.5 396.4,223.3 397.4,205.7 398.4,207.1 399.4,223.3 400.4,223.4 401.4,223.3 402.4,233.2 403.4,223.4 404.4,234.8 405.4,223.2 406.3,223.0 407.3,223.4 408.3,223.9 409.3,231.2 410.3,248.1 411.3,233.3 412.3,235.7 413.3,239.4 414.3,233.2 415.3,229.7 416.3,215.5 417.3,231.7 418.2,233.2 419.2,233.2 420.2,233.1 421.2,228.3 422.2,225.3 423.2,231.2 424.2,240.6 425.2,220.4 426.2,223.3 427.2,223.4 428.2,228.4 429.2,226.3 430.2,226.6 431.1,210.1 432.1,213.3 433.1,220.4 434.1,226.5 435.1,213.9 436.1,223.3 437.1,215.7 438.1,224.2 439.1,233.2 440.1,170.2 441.1,199.8 442.1,223.3 443.0,200.5 444.0,212.4 445.0,214.7 446.0,233.1 447.0,221.6 448.0,228.3 449.0,223.3 450.0,215.7 451.0,212.4 452.0,200.0 453.0,192.4 454.0,194.7 455.0,208.9 455.9,200.0 456.9,215.1 457.9,228.0 458.9,213.3 459.9,233.3 460.9,223.1 461.9,222.6 462.9,223.4 463.9,219.0 464.9,223.2 465.9,240.4 466.9,226.2 467.8,231.5 468.8,233.2 469.8,226.7 470.8,233.2 471.8,236.3 472.8,240.4 473.8,223.5 474.8,224.2 475.8,223.4 476.8,233.2 477.8,227.8 478.8,223.4 479.8,231.7 480.7,226.6 481.7,92.4 482.7,215.1 483.7,223.3 484.7,213.8 485.7,231.5 486.7,230.2 487.7,223.4 488.7,223.4 489.7,223.3 490.7,220.4 491.7,223.2 492.6,233.2 493.6,238.4 494.6,233.2 495.6,231.7 496.6,213.9 497.6,223.4 498.6,223.3 499.6,238.0 500.6,232.3 501.6,217.1 502.6,212.6 503.6,230.2 504.6,226.8 505.5,230.5 506.5,233.4 507.5,200.3 508.5,233.3 509.5,233.3 510.5,216.7 511.5,220.5 512.5,228.0 513.5,220.3 514.5,219.8 515.5,226.9 516.5,231.9 517.4,233.0 518.4,223.3 519.4,237.7 520.4,240.3 521.4,225.0 522.4,236.6 523.4,223.3 524.4,227.9 525.4,211.9 526.4,214.8 527.4,214.8 528.4,223.3 529.4,223.3 530.3,217.0 531.3,234.2 532.3,224.1 533.3,231.5 534.3,223.4 535.3,223.4 536.3,236.6 537.3,216.9 538.3,233.6 539.3,224.5 540.3,236.6 541.3,223.3 542.2,231.8 543.2,231.4 544.2,223.3 545.2,168.8 546.2,223.3 547.2,224.5 548.2,224.6 549.2,226.7 550.2,223.4 551.2,223.3 552.2,239.7 553.2,223.4 554.2,230.2 555.1,223.4 556.1,228.4 557.1,226.6 558.1,238.6 559.1,232.1 560.1,236.6 561.1,236.3 562.1,232.3 563.1,236.4 564.1,233.6 565.1,240.4 566.1,223.4 567.0,241.1 568.0,212.7 569.0,225.1 570.0,205.7 571.0,213.8 572.0,223.4 573.0,201.9 574.0,223.3 575.0,223.1 576.0,223.4 577.0,231.5 578.0,223.4 579.0,236.3 579.9,223.4 580.9,226.9 581.9,222.4 582.9,223.4 583.9,234.7 584.9,235.8 585.9,200.3 586.9,230.5 587.9,230.2 588.9,235.3 589.9,230.2 590.9,232.1 591.8,216.6 592.8,232.6 593.8,212.7 594.8,230.1 595.8,222.9 596.8,219.7 597.8,225.0 598.8,223.4 599.8,223.4 600.8,219.7 601.8,229.3 602.8,196.0 603.8,220.2 604.7,212.0 605.7,231.5 606.7,170.2 607.7,230.2 608.7,199.8 609.7,220.0 610.7,216.7 611.7,210.0 612.7,215.8 613.7,239.5 614.7,231.5 615.7,223.3 616.6,227.9 617.6,223.3 618.6,209.9 619.6,223.4 620.6,207.1 621.6,223.3 622.6,200.0 623.6,199.8 624.6,201.8 625.6,223.4 626.6,235.0 627.6,223.4 628.6,216.6 629.5,230.6 630.5,231.6 631.5,219.9 632.5,223.3 633.5,214.8 634.5,231.3 635.5,230.2 636.5,231.4 637.5,236.4 638.5,240.4 639.5,229.4 640.5,228.0 641.5,218.7 642.4,227.7 643.4,227.9 644.4,204.0 645.4,220.5 646.4,215.5 647.4,226.7 648.4,224.4 649.4,225.1 650.4,232.1 651.4,231.5 652.4,223.4 653.4,229.2 654.3,236.3 655.3,223.7 656.3,237.1 657.3,225.0 658.3,231.4 659.3,236.4 660.3,236.3 661.3,233.4 662.3,237.6 663.3,212.1 664.3,228.0 665.3,233.2 666.3,222.8 667.2,223.2 668.2,222.2 669.2,222.3 670.2,215.1 671.2,223.4 672.2,172.5 673.2,210.3 674.2,223.3 675.2,214.0 676.2,217.9 677.2,231.6 678.2,215.8 679.1,214.9 680.1,232.2 681.1,222.0 682.1,227.8 683.1,223.3 684.1,223.3 685.1,230.1 686.1,220.4 687.1,211.4 688.1,208.2 689.1,232.6 690.1,223.1 691.1,224.4 692.0,218.9 693.0,223.2 694.0,211.8 695.0,228.8 696.0,223.6 697.0,223.3 698.0,233.2 699.0,229.9 700.0,223.3 701.0,236.3 702.0,223.7 703.0,223.4 703.9,236.8 704.9,214.9 705.9,230.2 706.9,227.6 707.9,234.1 708.9,223.7 709.9,225.3 710.9,222.3 711.9,223.4 712.9,224.5 713.9,223.4 714.9,218.4 715.9,208.6 716.8,195.0 717.8,224.5 718.8,212.1 719.8,229.2 720.8,223.3 721.8,223.4 722.8,199.9 723.8,208.3 724.8,223.4 725.8,217.7 726.8,220.4 727.8,223.4 728.7,189.0 729.7,215.4 730.7,223.4 731.7,230.2 732.7,224.4 733.7,233.2 734.7,219.1 735.7,216.6 736.7,233.2 737.7,198.6 738.7,223.3 739.7,223.6 740.7,216.6 741.6,223.3 742.6,223.4 743.6,223.4 744.6,221.2 745.6,215.8 746.6,200.2 747.6,183.2 748.6,223.4 749.6,223.7 750.6,200.5 751.6,227.0 752.6,226.5 753.5,241.1 754.5,239.9 755.5,237.3 756.5,236.6 757.5,192.0 758.5,244.7 759.5,208.6 760.5,233.3 761.5,241.0 762.5,240.2 763.5,223.5 764.5,174.1 765.5,223.3 766.4,194.8 767.4,229.1 768.4,236.2 769.4,241.0 770.4,220.4 771.4,228.2 772.4,256.0 773.4,170.2 774.4,200.3 775.4,256.2 776.4,223.4 777.4,226.2 778.3,223.3 779.3,236.7 780.3,223.3 781.3,230.2 782.3,216.6 783.3,181.2 784.3,223.4 785.3,204.6 786.3,210.1 787.3,208.6 788.3,200.0 789.3,223.8 790.3,227.4 791.2,243.2 792.2,213.2 793.2,240.6 794.2,224.6 795.2,231.9 796.2,230.1 797.2,241.0 798.2,229.3 799.2,237.6 800.2,247.8 801.2,245.3 802.2,252.0 803.1,236.3 804.1,238.6 805.1,240.9 806.1,199.5 807.1,194.9 808.1,224.5 809.1,218.0 810.1,223.5 811.1,216.6 812.1,216.7 813.1,233.2 814.1,236.3 815.1,237.1 816.0,245.8 817.0,238.2 818.0,237.1 819.0,230.8 820.0,207.1 821.0,236.3 822.0,233.2 823.0,240.9 824.0,213.1 825.0,223.4 826.0,236.4 827.0,227.7 827.9,224.6 828.9,230.2 829.9,214.8 830.9,222.2 831.9,216.8 832.9,223.3 833.9,229.9 834.9,224.9 835.9,227.8 836.9,257.6 837.9,230.2 838.9,236.7 839.9,235.8 840.8,223.4 841.8,231.8 842.8,223.4 843.8,223.3 844.8,211.7 845.8,242.1 846.8,225.6 847.8,200.2 848.8,220.4 849.8,223.3 850.8,223.4 851.8,214.7 852.8,233.5 853.7,223.3 854.7,238.6 855.7,223.3 856.7,241.1 857.7,240.4 858.7,223.4 859.7,225.0 860.7,198.4 861.7,237.3 862.7,299.1 863.7,332.3 864.7,333.7 865.6,330.9 866.6,331.5 867.6,256.7 868.6,327.6 869.6,327.7 870.6,331.7 871.6,333.7 872.6,332.3 873.6,331.6 874.6,322.4 875.6,331.5 876.6,332.9 877.6,331.0 878.5,328.4 879.5,333.2 880.5,329.7 881.5,329.7 882.5,329.6 883.5,330.4 884.5,331.5 885.5,327.6 886.5,331.5 887.5,329.1 888.5,327.7 889.5,330.3 890.4,328.4 891.4,331.3 892.4,335.3 893.4,331.5 894.4,330.0 895.4,331.5 896.4,330.0 897.4,331.6 898.4,327.6 899.4,329.0 900.4,330.0 901.4,328.8 902.4,326.0 903.3,327.7 904.3,327.5 905.3,329.2 906.3,328.1 907.3,327.6 908.3,329.0 909.3,331.5 910.3,327.6 911.3,329.6 912.3,328.9 913.3,331.5 914.3,331.5 915.2,330.1 916.2,322.8 917.2,329.3 918.2,331.5 919.2,331.8 920.2,331.3 921.2,329.1 922.2,331.5 923.2,332.5 924.2,325.5 925.2,325.9 926.2,328.4 927.2,324.7 928.1,330.2 929.1,327.0 930.1,328.8 931.1,329.0 932.1,327.6 933.1,326.7 934.1,331.4 935.1,326.1 936.1,332.9 937.1,327.7 938.1,323.0 939.1,325.8 940.0,322.4 941.0,317.8 942.0,322.7 943.0,322.8 944.0,322.7 945.0,326.8 946.0,323.0" fill="none" stroke="#d97706" stroke-width="2.2" stroke-linejoin="round" stroke-linecap="round"/>
<line x1="76" y1="70" x2="94" y2="70" stroke="#2563eb" stroke-width="3"/>
<text x="100" y="74" font-family="Arial, sans-serif" font-size="11" fill="#0f172a">avg fee</text>
<line x1="179" y1="70" x2="197" y2="70" stroke="#059669" stroke-width="3"/>
<text x="203" y="74" font-family="Arial, sans-serif" font-size="11" fill="#0f172a">median fee</text>
<line x1="303" y1="70" x2="321" y2="70" stroke="#d97706" stroke-width="3"/>
<text x="327" y="74" font-family="Arial, sans-serif" font-size="11" fill="#0f172a">p90 fee</text>
<text x="28" y="404" font-family="Arial, sans-serif" font-size="11" fill="#64748b">Source: hourly_features.csv</text>
</svg>