<svg xmlns="http://www.w3.org/2000/svg" width="980" height="420" viewBox="0 0 980 420">
<rect width="100%" height="100%" fill="#ffffff"/>
<text x="28" y="34" font-family="Arial, sans-serif" font-size="20" font-weight="700" fill="#0f172a">Hourly fee trend</text>
<text x="28" y="56" font-family="Arial, sans-serif" font-size="12" fill="#64748b">Average, median, and p90 total fee by hour</text>
<line x1="76" y1="362.0" x2="946" y2="362.0" stroke="#e2e8f0" stroke-width="1"/>
<text x="68" y="366.0" font-family="Arial, sans-serif" font-size="10" text-anchor="end" fill="#64748b">-382K</text>
<line x1="76" y1="292.0" x2="946" y2="292.0" stroke="#e2e8f0" stroke-width="1"/>
<text x="68" y="296.0" font-family="Arial, sans-serif" font-size="10" text-anchor="end" fill="#64748b">2.6M</text>
<line x1="76" y1="222.0" x2="946" y2="222.0" stroke="#e2e8f0" stroke-width="1"/>
<text x="68" y="226.0" font-family="Arial, sans-serif" font-size="10" text-anchor="end" fill="#64748b">5.7M</text>
<line x1="76" y1="152.0" x2="946" y2="152.0" stroke="#e2e8f0" stroke-width="1"/>
<text x="68" y="156.0" font-family="Arial, sans-serif" font-size="10" text-anchor="end" fill="#64748b">8.7M</text>
<line x1="76" y1="82.0" x2="946" y2="82.0" stroke="#e2e8f0" stroke-width="1"/>
<text x="68" y="86.0" font-family="Arial, sans-serif" font-size="10" text-anchor="end" fill="#64748b">11.7M</text>
<line x1="76" y1="362" x2="946" y2="362" stroke="#334155" stroke-width="1"/>
<line x1="76" y1="82" x2="76" y2="362" stroke="#334155" stroke-width="1"/>
<text x="76" y="72" font-family="Arial, sans-serif" font-size="11" fill="#64748b">nanoton</text>
<line x1="76.0" y1="362" x2="76.0" y2="366" stroke="#334155" stroke-width="1"/>
<text x="76.0" y="380" font-family="Arial, sans-serif" font-size="10" text-anchor="middle" fill="#64748b">0</text>
<line x1="511.0" y1="362" x2="511.0" y2="366" stroke="#334155" stroke-width="1"/>
<text x="511.0" y="380" font-family="Arial, sans-serif" font-size="10" text-anchor="middle" fill="#64748b">433</text>
<line x1="946.0" y1="362" x2="946.0" y2="366" stroke="#334155" stroke-width="1"/>
<text x="946.0" y="380" font-family="Arial, sans-serif" font-size="10" text-anchor="middle" fill="#64748b">866</text>
<polyline points="76.0,290.8 77.0,294.6 78.0,296.0 79.0,298.1 80.0,304.8 81.0,297.2 82.0,298.2 83.0,294.6 84.0,299.0 85.0,298.7 86.0,287.8 87.1,299.5 88.1,299.7 89.1,297.4 90.1,300.3 91.1,300.5 92.1,292.5 93.1,292.5 94.1,301.3 95.1,291.1 96.1,289.2 97.1,287.3 98.1,293.8 99.1,294.2 100.1,296.1 101.1,292.1 102.1,297.7 103.1,290.6 104.1,293.2 105.1,288.3 106.1,289.0 107.1,273.1 108.1,284.7 109.2,285.3 110.2,294.6 111.2,299.9 112.2,292.9 113.2,294.9 114.2,304.7 115.2,307.5 116.2,302.1 117.2,297.0 118.2,298.7 119.2,297.9 120.2,304.4 121.2,297.4 122.2,294.5 123.2,296.5 124.2,298.7 125.2,303.1 126.2,303.1 127.2,301.9 128.2,300.3 129.2,303.3 130.2,302.2 131.3,299.4 132.3,299.1 133.3,302.8 134.3,299.1 135.3,301.3 136.3,306.8 137.3,308.7 138.3,306.4 139.3,307.1 140.3,309.1 141.3,305.9 142.3,305.5 143.3,302.0 144.3,308.5 145.3,290.7 146.3,306.4 147.3,306.4 148.3,306.3 149.3,311.2 150.3,307.1 151.3,310.3 152.4,309.1 153.4,305.5 154.4,305.4 155.4,303.2 156.4,303.5 157.4,301.3 158.4,305.1 159.4,307.4 160.4,306.9 161.4,308.1 162.4,305.0 163.4,302.9 164.4,302.7 165.4,298.6 166.4,304.9 167.4,297.0 168.4,299.3 169.4,300.3 170.4,303.9 171.4,311.6 172.4,300.1 173.4,300.5 174.5,308.9 175.5,307.5 176.5,300.3 177.5,304.2 178.5,305.1 179.5,302.6 180.5,300.5 181.5,297.4 182.5,298.7 183.5,301.9 184.5,308.1 185.5,307.4 186.5,307.4 187.5,303.1 188.5,301.9 189.5,304.1 190.5,303.9 191.5,304.0 192.5,308.3 193.5,308.9 194.5,307.3 195.5,301.1 196.6,286.9 197.6,301.6 198.6,298.8 199.6,296.1 200.6,299.6 201.6,305.5 202.6,301.5 203.6,304.9 204.6,302.2 205.6,304.9 206.6,306.8 207.6,304.9 208.6,300.8 209.6,304.8 210.6,308.0 211.6,302.4 212.6,301.7 213.6,303.1 214.6,303.4 215.6,298.9 216.6,298.5 217.7,298.0 218.7,289.4 219.7,296.9 220.7,296.4 221.7,295.5 222.7,299.6 223.7,299.0 224.7,304.6 225.7,304.0 226.7,303.8 227.7,299.2 228.7,301.2 229.7,305.7 230.7,304.5 231.7,312.1 232.7,305.7 233.7,304.3 234.7,307.0 235.7,306.9 236.7,301.9 237.7,303.8 238.7,300.8 239.8,301.6 240.8,300.2 241.8,298.7 242.8,290.6 243.8,296.1 244.8,300.6 245.8,296.6 246.8,302.7 247.8,302.6 248.8,303.0 249.8,302.7 250.8,302.8 251.8,303.7 252.8,300.1 253.8,305.6 254.8,303.0 255.8,299.2 256.8,302.8 257.8,306.7 258.8,306.1 259.8,306.7 260.8,298.5 261.9,301.6 262.9,297.8 263.9,303.8 264.9,300.2 265.9,299.5 266.9,295.6 267.9,298.2 268.9,298.4 269.9,293.8 270.9,299.9 271.9,297.9 272.9,298.6 273.9,294.2 274.9,297.8 275.9,278.0 276.9,284.2 277.9,295.2 278.9,295.7 279.9,294.4 280.9,300.7 281.9,304.3 283.0,302.4 284.0,302.1 285.0,297.9 286.0,295.3 287.0,296.5 288.0,291.4 289.0,292.0 290.0,290.6 291.0,290.0 292.0,299.7 293.0,291.9 294.0,296.8 295.0,299.8 296.0,303.8 297.0,302.5 298.0,302.1 299.0,302.3 300.0,300.8 301.0,303.5 302.0,295.9 303.0,297.8 304.0,304.4 305.1,304.2 306.1,299.5 307.1,303.9 308.1,303.5 309.1,299.0 310.1,288.7 311.1,293.7 312.1,294.2 313.1,303.7 314.1,295.6 315.1,297.0 316.1,305.6 317.1,294.8 318.1,300.5 319.1,305.1 320.1,308.5 321.1,305.5 322.1,304.0 323.1,300.7 324.1,303.8 325.1,299.3 326.2,303.0 327.2,305.0 328.2,303.0 329.2,299.3 330.2,294.4 331.2,299.9 332.2,286.2 333.2,302.1 334.2,293.9 335.2,297.9 336.2,299.5 337.2,297.4 338.2,294.4 339.2,310.4 340.2,291.6 341.2,295.6 342.2,281.6 343.2,294.6 344.2,293.2 345.2,295.0 346.2,291.0 347.2,301.0 348.3,279.9 349.3,297.2 350.3,291.8 351.3,291.5 352.3,283.3 353.3,298.3 354.3,300.4 355.3,298.6 356.3,288.4 357.3,299.0 358.3,304.4 359.3,297.7 360.3,295.5 361.3,279.8 362.3,284.2 363.3,300.5 364.3,299.9 365.3,298.1 366.3,293.4 367.3,303.1 368.3,303.0 369.3,298.6 370.4,296.8 371.4,297.4 372.4,301.3 373.4,298.1 374.4,311.4 375.4,299.4 376.4,303.5 377.4,301.2 378.4,302.9 379.4,304.3 380.4,297.8 381.4,294.4 382.4,299.3 383.4,295.1 384.4,301.8 385.4,292.6 386.4,297.6 387.4,293.9 388.4,290.0 389.4,295.1 390.4,304.6 391.5,291.1 392.5,300.3 393.5,295.9 394.5,293.1 395.5,291.6 396.5,296.8 397.5,297.1 398.5,297.9 399.5,299.5 400.5,292.8 401.5,286.2 402.5,290.1 403.5,300.0 404.5,294.5 405.5,300.9 406.5,303.0 407.5,299.1 408.5,302.5 409.5,295.1 410.5,297.0 411.5,302.8 412.5,301.7 413.6,303.0 414.6,308.6 415.6,306.8 416.6,306.1 417.6,306.5 418.6,304.3 419.6,304.5 420.6,298.3 421.6,301.1 422.6,303.1 423.6,303.3 424.6,304.2 425.6,302.4 426.6,299.4 427.6,304.5 428.6,307.1 429.6,297.3 430.6,298.9 431.6,298.1 432.6,299.7 433.6,297.8 434.6,301.0 435.7,287.2 436.7,294.3 437.7,294.8 438.7,298.6 439.7,291.3 440.7,298.4 441.7,294.6 442.7,298.7 443.7,304.2 444.7,282.2 445.7,289.8 446.7,298.8 447.7,295.1 448.7,293.4 449.7,294.7 450.7,304.3 451.7,296.9 452.7,301.7 453.7,296.7 454.7,295.6 455.7,292.9 456.8,291.6 457.8,286.7 458.8,287.8 459.8,294.2 460.8,292.6 461.8,297.5 462.8,303.1 463.8,296.8 464.8,304.1 465.8,298.7 466.8,297.8 467.8,299.3 468.8,297.1 469.8,296.6 470.8,305.5 471.8,301.9 472.8,304.5 473.8,302.9 474.8,303.4 475.8,302.7 476.8,304.5 477.8,301.7 478.9,300.0 479.9,297.3 480.9,295.0 481.9,305.0 482.9,302.7 483.9,303.7 484.9,302.8 485.9,298.5 486.9,257.0 487.9,291.0 488.9,298.5 489.9,296.3 490.9,301.0 491.9,301.6 492.9,299.9 493.9,299.3 494.9,299.6 495.9,296.0 496.9,299.4 497.9,305.6 498.9,306.5 499.9,300.9 501.0,302.7 502.0,295.0 503.0,302.2 504.0,296.9 505.0,304.8 506.0,299.1 507.0,295.6 508.0,295.1 509.0,300.9 510.0,301.0 511.0,300.7 512.0,304.5 513.0,292.6 514.0,303.5 515.0,306.0 516.0,295.5 517.0,297.4 518.0,302.8 519.0,295.8 520.0,299.5 521.0,304.0 522.1,301.7 523.1,303.8 524.1,300.8 525.1,306.1 526.1,305.6 527.1,300.8 528.1,303.2 529.1,297.1 530.1,300.2 531.1,292.3 532.1,292.0 533.1,292.1 534.1,299.3 535.1,298.5 536.1,298.8 537.1,301.5 538.1,299.6 539.1,305.3 540.1,300.2 541.1,300.6 542.1,304.7 543.1,299.2 544.2,304.4 545.2,299.7 546.2,306.4 547.2,299.1 548.2,304.5 549.2,303.3 550.2,298.0 551.2,263.7 552.2,302.9 553.2,304.6 554.2,301.3 555.2,300.8 556.2,298.3 557.2,299.9 558.2,302.7 559.2,298.6 560.2,304.0 561.2,302.8 562.2,303.0 563.2,301.1 564.2,308.3 565.2,304.5 566.3,309.0 567.3,304.5 568.3,303.7 569.3,304.9 570.3,303.6 571.3,305.3 572.3,299.5 573.3,305.2 574.3,297.1 575.3,302.2 576.3,288.1 577.3,294.6 578.3,299.7 579.3,287.4 580.3,299.0 581.3,298.4 582.3,296.8 583.3,301.1 584.3,299.5 585.3,302.6 586.3,299.3 587.4,303.0 588.4,298.0 589.4,301.6 590.4,305.3 591.4,304.5 592.4,290.4 593.4,303.1 594.4,299.6 595.4,302.4 596.4,303.1 597.4,304.7 598.4,296.3 599.4,301.7 600.4,292.9 601.4,298.2 602.4,294.8 603.4,293.5 604.4,299.4 605.4,297.4 606.4,300.4 607.4,295.6 608.4,301.5 609.5,282.6 610.5,297.4 611.5,291.2 612.5,300.8 613.5,281.3 614.5,303.6 615.5,292.1 616.5,296.5 617.5,300.9 618.5,293.9 619.5,295.3 620.5,305.2 621.5,304.7 622.5,300.3 623.5,302.0 624.5,297.5 625.5,295.0 626.5,296.6 627.5,292.7 628.5,298.7 629.5,291.1 630.5,289.9 631.6,292.8 632.6,302.6 633.6,303.5 634.6,301.6 635.6,297.5 636.6,303.0 637.6,302.5 638.6,299.3 639.6,300.0 640.6,295.7 641.6,300.6 642.6,302.5 643.6,302.2 644.6,300.7 645.6,305.4 646.6,305.1 647.6,301.0 648.6,294.2 649.6,301.0 650.6,298.9 651.6,290.4 652.7,295.9 653.7,294.1 654.7,301.3 655.7,298.2 656.7,299.2 657.7,302.6 658.7,300.9 659.7,299.2 660.7,302.7 661.7,303.6 662.7,299.5 663.7,304.4 664.7,298.2 665.7,302.7 666.7,304.9 667.7,303.3 668.7,303.8 669.7,305.7 670.7,294.6 671.7,306.7 672.7,303.7 673.7,295.1 674.8,294.1 675.8,293.7 676.8,295.9 677.8,295.9 678.8,298.1 679.8,284.7 680.8,294.9 681.8,298.6 682.8,296.3 683.8,294.2 684.8,300.6 685.8,294.3 686.8,295.9 687.8,303.8 688.8,295.8 689.8,302.6 690.8,297.7 691.8,300.0 692.8,300.7 693.8,298.3 694.8,294.8 695.8,295.8 696.9,303.0 697.9,295.6 698.9,296.0 699.9,295.2 700.9,295.3 701.9,295.0 702.9,299.9 703.9,299.0 704.9,295.9 705.9,303.3 706.9,302.9 707.9,298.2 708.9,305.5 709.9,300.9 710.9,300.4 711.9,305.2 712.9,295.8 713.9,301.8 714.9,303.2 715.9,304.6 716.9,299.1 718.0,301.0 719.0,298.0 720.0,298.8 721.0,297.3 722.0,300.8 723.0,296.0 724.0,293.0 725.0,284.2 726.0,298.8 727.0,293.9 728.0,298.9 729.0,298.8 730.0,298.0 731.0,291.0 732.0,292.3 733.0,298.2 734.0,297.5 735.0,297.5 736.0,298.5 737.0,288.2 738.0,296.5 739.0,297.3 740.1,301.7 741.1,301.0 742.1,305.4 743.1,295.8 744.1,295.1 745.1,299.8 746.1,289.6 747.1,296.7 748.1,295.1 749.1,295.1 750.1,294.8 751.1,297.5 752.1,299.5 753.1,295.8 754.1,297.0 755.1,291.7 756.1,285.1 757.1,299.7 758.1,301.0 759.1,293.6 760.1,302.3 761.2,297.5 762.2,307.7 763.2,292.5 764.2,304.9 765.2,304.1 766.2,291.9 767.2,305.2 768.2,297.8 769.2,298.1 770.2,307.4 771.2,305.4 772.2,294.0 773.2,284.5 774.2,295.7 775.2,281.6 776.2,295.8 777.2,307.1 778.2,303.5 779.2,299.2 780.2,301.5 781.2,309.0 782.2,287.8 783.3,293.3 784.3,314.3 785.3,300.8 786.3,304.2 787.3,299.2 788.3,305.4 789.3,297.5 790.3,303.5 791.3,297.3 792.3,286.2 793.3,295.6 794.3,293.4 795.3,295.3 796.3,292.6 797.3,295.0 798.3,297.5 799.3,303.2 800.3,307.8 801.3,295.2 802.3,306.6 803.3,305.0 804.3,305.4 805.4,303.1 806.4,297.4 807.4,293.5 808.4,305.0 809.4,310.4 810.4,306.6 811.4,309.4 812.4,304.0 813.4,307.8 814.4,308.2 815.4,299.0 816.4,288.2 817.4,297.1 818.4,298.1 819.4,298.6 820.4,298.7 821.4,295.2 822.4,305.8 823.4,307.8 824.4,304.4 825.4,309.3 826.5,306.7 827.5,303.2 828.5,303.6 829.5,296.5 830.5,304.1 831.5,305.5 832.5,308.2 833.5,291.8 834.5,301.9 835.5,305.3 836.5,302.2 837.5,300.9 838.5,302.7 839.5,295.0 840.5,295.0 841.5,295.3 842.5,299.1 843.5,299.0 844.5,300.9 845.5,304.6 846.5,307.3 847.5,303.1 848.6,300.9 849.6,303.0 850.6,290.9 851.6,301.1 852.6,301.9 853.6,302.0 854.6,295.6 855.6,306.6 856.6,304.1 857.6,288.8 858.6,297.4 859.6,295.3 860.6,295.7 861.6,296.1 862.6,306.3 863.6,300.3 864.6,304.9 865.6,295.7 866.6,303.6 867.6,305.1 868.6,302.6 869.6,301.6 870.7,285.2 871.7,304.3 872.7,334.7 873.7,343.7 874.7,343.8 875.7,343.5 876.7,344.0 877.7,319.0 878.7,342.3 879.7,343.1 880.7,342.6 881.7,343.4 882.7,343.4 883.7,343.4 884.7,338.9 885.7,343.5 886.7,344.5 887.7,342.7 888.7,342.0 889.7,343.8 890.7,343.0 891.8,343.2 892.8,340.3 893.8,342.7 894.8,343.4 895.8,342.2 896.8,343.9 897.8,341.8 898.8,341.2 899.8,342.8 900.8,342.4 901.8,343.3 902.8,344.8 903.8,343.7 904.8,343.3 905.8,344.0 906.8,342.7 907.8,343.5 908.8,341.8 909.8,340.1 910.8,342.3 911.8,342.4 912.8,339.6 913.9,341.5 914.9,340.5 915.9,343.1 916.9,341.6 917.9,340.5 918.9,342.3 919.9,342.5 920.9,342.2 921.9,343.0 922.9,342.6 923.9,342.9 924.9,343.5 925.9,342.4 926.9,340.9 927.9,341.4 928.9,342.5 929.9,343.3 930.9,343.5 931.9,343.3 932.9,343.2 933.9,342.6 934.9,341.1 936.0,340.9 937.0,341.6 938.0,340.6 939.0,341.3 940.0,341.0 941.0,342.8 942.0,341.5 943.0,342.2 944.0,341.5 945.0,342.8 946.0,340.4" fill="none" stroke="#2563eb" stroke-width="2.2" stroke-linejoin="round" stroke-linecap="round"/>
<polyline points="76.0,311.4 77.0,324.9 78.0,334.1 79.0,334.5 80.0,335.0 81.0,334.6 82.0,334.4 83.0,330.8 84.0,334.6 85.0,334.6 86.0,320.5 87.1,334.6 88.1,334.2 89.1,330.7 90.1,334.4 91.1,333.8 92.1,321.1 93.1,330.5 94.1,332.4 95.1,310.6 96.1,302.9 97.1,305.9 98.1,320.5 99.1,315.5 100.1,310.4 101.1,329.8 102.1,333.4 103.1,312.5 104.1,335.0 105.1,319.0 106.1,330.5 107.1,283.8 108.1,300.4 109.2,303.3 110.2,308.3 111.2,331.3 112.2,312.5 113.2,310.6 114.2,334.9 115.2,335.0 116.2,329.7 117.2,310.6 118.2,310.6 119.2,312.5 120.2,340.8 121.2,334.9 122.2,308.9 123.2,310.3 124.2,334.9 125.2,335.3 126.2,334.2 127.2,333.4 128.2,333.9 129.2,334.6 130.2,331.5 131.3,334.6 132.3,330.9 133.3,334.3 134.3,334.6 135.3,334.2 136.3,335.0 137.3,334.9 138.3,334.9 139.3,344.0 140.3,335.8 141.3,334.9 142.3,334.9 143.3,330.7 144.3,344.0 145.3,335.6 146.3,336.2 147.3,336.2 148.3,335.0 149.3,338.1 150.3,336.2 151.3,336.1 152.4,335.1 153.4,335.0 154.4,335.0 155.4,334.5 156.4,335.0 157.4,334.6 158.4,334.6 159.4,335.0 160.4,335.0 161.4,335.0 162.4,334.3 163.4,334.9 164.4,334.9 165.4,330.7 166.4,334.7 167.4,312.2 168.4,329.6 169.4,331.1 170.4,333.8 171.4,344.0 172.4,330.6 173.4,333.8 174.5,335.0 175.5,336.2 176.5,334.7 177.5,334.7 178.5,334.8 179.5,334.6 180.5,331.0 181.5,330.5 182.5,331.5 183.5,333.0 184.5,335.0 185.5,334.9 186.5,334.9 187.5,334.1 188.5,334.9 189.5,334.9 190.5,331.5 191.5,332.3 192.5,336.2 193.5,344.0 194.5,336.1 195.5,335.0 196.6,310.1 197.6,334.9 198.6,334.5 199.6,334.7 200.6,333.8 201.6,334.9 202.6,334.0 203.6,334.9 204.6,334.9 205.6,334.9 206.6,335.0 207.6,334.7 208.6,333.2 209.6,334.9 210.6,335.0 211.6,335.0 212.6,334.1 213.6,334.2 214.6,330.3 215.6,310.6 216.6,298.7 217.7,309.8 218.7,304.4 219.7,310.2 220.7,310.1 221.7,327.6 222.7,333.0 223.7,333.8 224.7,333.8 225.7,334.9 226.7,334.9 227.7,333.8 228.7,334.7 229.7,334.7 230.7,334.6 231.7,344.0 232.7,334.9 233.7,334.9 234.7,335.0 235.7,335.0 236.7,333.8 237.7,334.4 238.7,330.9 239.8,319.7 240.8,298.7 241.8,334.1 242.8,326.9 243.8,334.7 244.8,331.8 245.8,331.8 246.8,331.4 247.8,334.7 248.8,334.4 249.8,334.6 250.8,334.6 251.8,330.7 252.8,330.7 253.8,334.9 254.8,334.4 255.8,331.0 256.8,334.6 257.8,335.0 258.8,334.6 259.8,334.9 260.8,330.5 261.9,334.3 262.9,315.6 263.9,334.6 264.9,298.7 265.9,334.0 266.9,329.7 267.9,332.6 268.9,331.8 269.9,310.6 270.9,331.8 271.9,332.3 272.9,334.6 273.9,323.8 274.9,334.0 275.9,295.8 276.9,298.7 277.9,327.1 278.9,331.1 279.9,330.7 280.9,332.3 281.9,334.6 283.0,334.7 284.0,334.1 285.0,324.8 286.0,315.1 287.0,308.6 288.0,305.4 289.0,298.7 290.0,306.5 291.0,305.4 292.0,331.7 293.0,305.5 294.0,317.0 295.0,333.4 296.0,335.0 297.0,334.1 298.0,335.0 299.0,334.9 300.0,333.7 301.0,335.0 302.0,319.7 303.0,319.7 304.0,334.1 305.1,333.8 306.1,333.4 307.1,334.7 308.1,334.6 309.1,331.3 310.1,305.4 311.1,308.2 312.1,308.3 313.1,298.7 314.1,310.2 315.1,335.5 316.1,336.2 317.1,312.5 318.1,334.5 319.1,336.2 320.1,335.9 321.1,336.2 322.1,335.0 323.1,333.8 324.1,334.3 325.1,334.4 326.2,333.5 327.2,334.6 328.2,334.4 329.2,329.6 330.2,308.9 331.2,334.1 332.2,308.2 333.2,334.4 334.2,310.7 335.2,310.3 336.2,325.1 337.2,305.5 338.2,319.7 339.2,344.0 340.2,315.6 341.2,334.2 342.2,308.2 343.2,309.9 344.2,330.0 345.2,334.1 346.2,335.0 347.2,333.2 348.3,323.8 349.3,333.8 350.3,308.2 351.3,306.1 352.3,323.8 353.3,315.6 354.3,333.4 355.3,332.6 356.3,303.2 357.3,334.1 358.3,334.7 359.3,326.5 360.3,333.8 361.3,320.8 362.3,333.7 363.3,333.7 364.3,334.1 365.3,330.7 366.3,331.8 367.3,333.7 368.3,334.6 369.3,333.8 370.4,333.0 371.4,310.6 372.4,334.7 373.4,330.7 374.4,345.9 375.4,333.8 376.4,334.7 377.4,333.7 378.4,334.7 379.4,334.7 380.4,310.6 381.4,315.4 382.4,332.0 383.4,310.5 384.4,331.7 385.4,305.3 386.4,330.5 387.4,326.9 388.4,302.2 389.4,309.7 390.4,335.9 391.5,333.4 392.5,334.9 393.5,334.4 394.5,306.5 395.5,306.5 396.5,318.3 397.5,320.1 398.5,323.6 399.5,331.8 400.5,310.6 401.5,305.4 402.5,308.2 403.5,331.8 404.5,305.2 405.5,330.5 406.5,334.1 407.5,326.7 408.5,330.7 409.5,305.4 410.5,308.2 411.5,333.8 412.5,334.1 413.6,335.0 414.6,340.8 415.6,336.2 416.6,336.1 417.6,335.0 418.6,336.2 419.6,335.8 420.6,333.8 421.6,334.4 422.6,335.0 423.6,334.8 424.6,334.9 425.6,334.6 426.6,331.8 427.6,334.5 428.6,335.0 429.6,329.1 430.6,330.7 431.6,325.8 432.6,325.3 433.6,308.2 434.6,333.5 435.7,308.4 436.7,310.3 437.7,330.5 438.7,319.6 439.7,308.3 440.7,334.6 441.7,318.7 442.7,335.8 443.7,335.0 444.7,297.6 445.7,305.3 446.7,325.3 447.7,325.7 448.7,318.9 449.7,310.3 450.7,334.9 451.7,321.4 452.7,334.2 453.7,331.5 454.7,329.7 455.7,309.6 456.8,308.4 457.8,298.7 458.8,302.7 459.8,305.5 460.8,309.0 461.8,331.8 462.8,334.0 463.8,329.6 464.8,334.7 465.8,333.8 466.8,335.0 467.8,334.0 468.8,334.0 469.8,325.3 470.8,334.9 471.8,334.5 472.8,334.6 473.8,334.7 474.8,334.7 475.8,334.7 476.8,334.6 477.8,334.1 478.9,326.9 479.9,326.6 480.9,305.4 481.9,343.0 482.9,335.3 483.9,344.0 484.9,335.0 485.9,329.1 486.9,301.0 487.9,334.2 488.9,334.1 489.9,315.6 490.9,335.0 491.9,334.1 492.9,334.6 493.9,333.6 494.9,330.5 495.9,330.4 496.9,333.8 497.9,335.0 498.9,335.0 499.9,333.2 501.0,334.4 502.0,310.5 503.0,332.0 504.0,310.1 505.0,332.7 506.0,305.4 507.0,309.8 508.0,310.6 509.0,330.0 510.0,333.8 511.0,332.4 512.0,335.3 513.0,318.3 514.0,334.7 515.0,336.2 516.0,331.4 517.0,325.8 518.0,334.6 519.0,331.3 520.0,331.8 521.0,334.7 522.1,334.5 523.1,333.8 524.1,330.7 525.1,334.9 526.1,334.8 527.1,331.8 528.1,333.2 529.1,310.7 530.1,330.5 531.1,308.2 532.1,308.4 533.1,305.4 534.1,330.4 535.1,326.9 536.1,330.4 537.1,334.9 538.1,331.5 539.1,335.0 540.1,334.6 541.1,334.1 542.1,334.9 543.1,334.7 544.2,335.0 545.2,333.8 546.2,335.0 547.2,333.3 548.2,334.6 549.2,335.0 550.2,332.7 551.2,283.6 552.2,333.8 553.2,335.0 554.2,319.3 555.2,331.1 556.2,329.7 557.2,331.8 558.2,334.1 559.2,334.6 560.2,334.9 561.2,334.7 562.2,334.6 563.2,334.8 564.2,335.0 565.2,334.9 566.3,335.0 567.3,334.9 568.3,334.7 569.3,334.9 570.3,335.0 571.3,334.7 572.3,334.1 573.3,335.7 574.3,334.1 575.3,334.4 576.3,305.3 577.3,319.6 578.3,309.3 579.3,300.7 580.3,310.4 581.3,330.5 582.3,310.6 583.3,330.5 584.3,333.0 585.3,334.7 586.3,333.8 587.4,334.1 588.4,330.9 589.4,334.7 590.4,334.9 591.4,334.9 592.4,305.4 593.4,334.4 594.4,331.0 595.4,335.0 596.4,333.8 597.4,335.0 598.4,333.8 599.4,334.9 600.4,310.6 601.4,334.3 602.4,306.4 603.4,308.4 604.4,333.8 605.4,330.9 606.4,334.1 607.4,329.7 608.4,334.3 609.5,305.3 610.5,330.7 611.5,328.8 612.5,333.8 613.5,295.8 614.5,334.6 615.5,310.6 616.5,310.6 617.5,333.8 618.5,318.4 619.5,318.5 620.5,334.2 621.5,334.9 622.5,334.1 623.5,334.1 624.5,330.4 625.5,308.2 626.5,308.2 627.5,310.2 628.5,333.8 629.5,310.6 630.5,310.4 631.6,327.3 632.6,332.0 633.6,335.0 634.6,334.6 635.6,334.0 636.6,334.6 637.6,334.5 638.6,330.7 639.6,333.5 640.6,331.5 641.6,334.6 642.6,334.1 643.6,333.8 644.6,330.7 645.6,334.7 646.6,334.9 647.6,332.0 648.6,307.0 649.6,326.1 650.6,305.4 651.6,306.4 652.7,309.0 653.7,306.4 654.7,334.6 655.7,327.0 656.7,333.8 657.7,333.2 658.7,334.1 659.7,335.0 660.7,334.6 661.7,333.9 662.7,333.8 663.7,334.7 664.7,330.7 665.7,331.8 666.7,334.9 667.7,334.1 668.7,334.6 669.7,334.9 670.7,327.5 671.7,335.0 672.7,333.6 673.7,319.7 674.8,302.9 675.8,310.1 676.8,327.5 677.8,326.8 678.8,323.6 679.8,298.7 680.8,310.6 681.8,331.1 682.8,330.7 683.8,334.6 684.8,324.6 685.8,323.8 686.8,330.4 687.8,333.8 688.8,330.7 689.8,334.6 690.8,323.9 691.8,333.2 692.8,334.1 693.8,325.7 694.8,309.1 695.8,315.6 696.9,333.8 697.9,308.5 698.9,306.5 699.9,308.2 700.9,310.2 701.9,312.5 702.9,331.0 703.9,331.9 704.9,317.9 705.9,334.6 706.9,335.0 707.9,335.0 708.9,335.0 709.9,334.6 710.9,333.8 711.9,334.9 712.9,330.4 713.9,334.3 714.9,334.6 715.9,334.2 716.9,333.8 718.0,335.0 719.0,330.7 720.0,333.8 721.0,315.5 722.0,330.7 723.0,305.4 724.0,324.4 725.0,306.5 726.0,331.8 727.0,308.9 728.0,333.8 729.0,333.8 730.0,331.2 731.0,310.7 732.0,333.8 733.0,330.0 734.0,327.2 735.0,323.8 736.0,330.0 737.0,305.0 738.0,312.5 739.0,333.8 740.1,332.0 741.1,329.7 742.1,333.8 743.1,322.8 744.1,308.3 745.1,310.4 746.1,305.2 747.1,305.4 748.1,308.2 749.1,310.7 750.1,310.1 751.1,319.6 752.1,325.7 753.1,330.8 754.1,330.9 755.1,305.4 756.1,305.2 757.1,333.8 758.1,331.0 759.1,305.4 760.1,334.7 761.2,308.3 762.2,334.1 763.2,334.7 764.2,332.8 765.2,332.9 766.2,308.2 767.2,335.0 768.2,330.4 769.2,310.4 770.2,330.0 771.2,326.8 772.2,305.9 773.2,306.4 774.2,323.8 775.2,296.7 776.2,334.1 777.2,335.0 778.2,335.0 779.2,331.5 780.2,334.7 781.2,335.0 782.2,304.3 783.3,308.2 784.3,335.0 785.3,331.8 786.3,334.5 787.3,331.2 788.3,334.7 789.3,331.8 790.3,321.5 791.3,334.9 792.3,331.9 793.3,310.4 794.3,308.3 795.3,305.4 796.3,305.9 797.3,305.7 798.3,324.6 799.3,330.7 800.3,334.5 801.3,331.6 802.3,335.0 803.3,335.0 804.3,335.0 805.4,322.4 806.4,334.9 807.4,331.1 808.4,335.0 809.4,344.0 810.4,344.0 811.4,344.0 812.4,334.6 813.4,335.0 814.4,335.0 815.4,334.4 816.4,311.6 817.4,308.9 818.4,308.2 819.4,308.1 820.4,330.4 821.4,308.6 822.4,337.4 823.4,335.0 824.4,335.0 825.4,335.0 826.5,331.8 827.5,332.0 828.5,334.1 829.5,330.5 830.5,334.6 831.5,335.0 832.5,334.9 833.5,312.5 834.5,333.8 835.5,332.0 836.5,333.8 837.5,331.7 838.5,331.0 839.5,310.7 840.5,308.6 841.5,314.0 842.5,327.1 843.5,304.8 844.5,340.8 845.5,341.6 846.5,335.0 847.5,334.6 848.6,334.6 849.6,324.6 850.6,317.8 851.6,346.0 852.6,334.6 853.6,334.9 854.6,317.9 855.6,344.0 856.6,334.0 857.6,321.8 858.6,332.8 859.6,325.5 860.6,333.8 861.6,313.7 862.6,334.6 863.6,328.5 864.6,331.2 865.6,305.4 866.6,331.0 867.6,310.0 868.6,331.4 869.6,330.2 870.7,290.8 871.7,335.0 872.7,347.8 873.7,350.1 874.7,349.5 875.7,346.1 876.7,349.4 877.7,341.0 878.7,346.4 879.7,349.3 880.7,344.7 881.7,345.1 882.7,349.2 883.7,349.4 884.7,343.5 885.7,350.0 886.7,350.1 887.7,347.6 888.7,344.9 889.7,349.2 890.7,345.2 891.8,344.1 892.8,344.7 893.8,345.7 894.8,346.1 895.8,345.7 896.8,349.5 897.8,345.1 898.8,349.4 899.8,348.7 900.8,346.1 901.8,345.8 902.8,351.6 903.8,348.3 904.8,345.7 905.8,349.9 906.8,344.7 907.8,346.4 908.8,345.2 909.8,343.4 910.8,345.2 911.8,346.1 912.8,342.1 913.9,343.4 914.9,343.5 915.9,345.2 916.9,345.2 917.9,344.0 918.9,345.2 919.9,345.4 920.9,345.3 921.9,344.8 922.9,345.8 923.9,346.1 924.9,344.8 925.9,345.0 926.9,344.3 927.9,345.2 928.9,347.2 929.9,347.4 930.9,350.1 931.9,346.4 932.9,348.8 933.9,348.0 934.9,344.7 936.0,344.0 937.0,345.4 938.0,342.7 939.0,345.8 940.0,344.1 941.0,346.0 942.0,349.5 943.0,344.0 944.0,345.9 945.0,347.6 946.0,344.9" fill="none" stroke="#059669" stroke-width="2.2" stroke-linejoin="round" stroke-linecap="round"/>
<polyline points="76.0,208.9 77.0,216.7 78.0,223.4 79.0,228.3 80.0,236.4 81.0,228.3 82.0,223.3 83.0,216.9 84.0,223.4 85.0,223.3 86.0,199.8 87.1,223.4 88.1,224.6 89.1,223.3 90.1,226.2 91.1,227.6 92.1,211.5 93.1,216.7 94.1,236.0 95.1,216.6 96.1,215.8 97.1,199.8 98.1,220.3 99.1,223.2 100.1,223.4 101.1,220.5 102.1,223.3 103.1,213.2 104.1,216.6 105.1,200.1 106.1,199.8 107.1,160.5 108.1,170.2 109.2,170.2 110.2,209.6 111.2,215.8 112.2,209.6 113.2,208.2 114.2,233.3 115.2,241.0 116.2,230.2 117.2,223.3 118.2,223.8 119.2,223.4 120.2,227.6 121.2,220.4 122.2,213.7 123.2,221.6 124.2,214.1 125.2,236.4 126.2,233.9 127.2,228.8 128.2,229.4 129.2,230.2 130.2,223.4 131.3,223.4 132.3,224.4 133.3,227.8 134.3,231.4 135.3,223.4 136.3,236.4 137.3,240.4 138.3,233.6 139.3,244.6 140.3,239.4 141.3,240.4 142.3,238.9 143.3,236.3 144.3,251.7 145.3,206.3 146.3,236.6 147.3,237.6 148.3,234.6 149.3,248.7 150.3,242.6 151.3,246.3 152.4,241.1 153.4,232.3 154.4,233.3 155.4,228.3 156.4,223.5 157.4,229.7 158.4,233.3 159.4,246.2 160.4,238.6 161.4,241.0 162.4,231.4 163.4,230.1 164.4,230.4 165.4,216.6 166.4,239.0 167.4,223.4 168.4,231.9 169.4,231.4 170.4,242.9 171.4,248.9 172.4,223.4 173.4,227.9 174.5,242.4 175.5,237.1 176.5,229.7 177.5,234.8 178.5,236.4 179.5,233.2 180.5,223.4 181.5,223.4 182.5,230.1 183.5,233.2 184.5,241.8 185.5,237.6 186.5,246.3 187.5,230.4 188.5,230.5 189.5,237.1 190.5,236.4 191.5,236.6 192.5,241.3 193.5,240.4 194.5,240.4 195.5,233.2 196.6,200.3 197.6,223.3 198.6,223.4 199.6,216.6 200.6,229.6 201.6,233.3 202.6,231.4 203.6,233.3 204.6,230.8 205.6,236.3 206.6,236.3 207.6,233.3 208.6,230.2 209.6,238.7 210.6,238.8 211.6,237.6 212.6,228.0 213.6,226.9 214.6,237.0 215.6,226.6 216.6,232.3 217.7,231.4 218.7,207.0 219.7,223.4 220.7,223.3 221.7,223.3 222.7,225.0 223.7,223.4 224.7,236.4 225.7,236.4 226.7,231.9 227.7,230.2 228.7,235.6 229.7,236.3 230.7,236.7 231.7,251.5 232.7,233.3 233.7,233.3 234.7,241.1 235.7,241.0 236.7,233.3 237.7,232.1 238.7,225.6 239.8,223.4 240.8,241.1 241.8,223.4 242.8,199.8 243.8,231.6 244.8,233.2 245.8,223.4 246.8,228.7 247.8,233.2 248.8,236.4 249.8,233.2 250.8,232.7 251.8,233.7 252.8,223.4 253.8,238.3 254.8,233.9 255.8,223.4 256.8,232.6 257.8,238.6 258.8,240.5 259.8,247.9 260.8,224.1 261.9,223.3 262.9,224.5 263.9,234.8 264.9,247.0 265.9,227.7 266.9,223.2 267.9,223.4 268.9,225.2 269.9,222.7 270.9,229.5 271.9,223.4 272.9,228.1 273.9,212.0 274.9,223.2 275.9,160.5 276.9,171.2 277.9,200.0 278.9,210.4 279.9,201.6 280.9,223.4 281.9,232.3 283.0,227.9 284.0,226.7 285.0,216.8 286.0,216.6 287.0,223.4 288.0,200.0 289.0,227.0 290.0,199.8 291.0,199.8 292.0,223.4 293.0,210.4 294.0,217.0 295.0,224.4 296.0,223.4 297.0,224.5 298.0,224.1 299.0,226.6 300.0,223.4 301.0,233.2 302.0,208.9 303.0,221.6 304.0,233.3 305.1,232.1 306.1,223.3 307.1,228.3 308.1,230.2 309.1,223.4 310.1,202.6 311.1,220.4 312.1,223.2 313.1,257.5 314.1,219.7 315.1,214.4 316.1,240.0 317.1,215.3 318.1,228.3 319.1,233.5 320.1,241.1 321.1,240.7 322.1,233.2 323.1,233.2 324.1,227.4 325.1,223.4 326.2,240.4 327.2,231.6 328.2,230.9 329.2,218.4 330.2,210.8 331.2,228.0 332.2,182.3 333.2,231.0 334.2,214.8 335.2,222.1 336.2,223.4 337.2,227.6 338.2,214.7 339.2,240.7 340.2,215.1 341.2,221.5 342.2,199.7 343.2,197.1 344.2,195.3 345.2,216.6 346.2,210.6 347.2,223.4 348.3,170.2 349.3,220.5 350.3,205.1 351.3,205.7 352.3,199.8 353.3,221.7 354.3,228.0 355.3,223.4 356.3,168.9 357.3,223.3 358.3,231.5 359.3,223.2 360.3,223.4 361.3,176.3 362.3,200.3 363.3,226.2 364.3,231.6 365.3,223.4 366.3,209.8 367.3,233.3 368.3,232.6 369.3,224.4 370.4,223.4 371.4,220.4 372.4,230.2 373.4,223.3 374.4,251.8 375.4,231.2 376.4,231.4 377.4,230.2 378.4,233.1 379.4,233.1 380.4,224.5 381.4,223.2 382.4,223.3 383.4,223.3 384.4,223.3 385.4,214.8 386.4,223.4 387.4,214.7 388.4,213.3 389.4,223.3 390.4,233.1 391.5,214.9 392.5,223.3 393.5,219.0 394.5,209.6 395.5,200.3 396.5,215.1 397.5,223.3 398.5,215.1 399.5,232.5 400.5,223.3 401.5,205.7 402.5,207.1 403.5,223.3 404.5,223.4 405.5,223.3 406.5,233.2 407.5,223.4 408.5,234.8 409.5,223.2 410.5,223.0 411.5,223.4 412.5,223.9 413.6,231.2 414.6,248.1 415.6,233.3 416.6,235.7 417.6,239.4 418.6,233.2 419.6,229.7 420.6,215.5 421.6,231.7 422.6,233.2 423.6,233.2 424.6,233.1 425.6,228.3 426.6,225.3 427.6,231.2 428.6,240.6 429.6,220.4 430.6,223.3 431.6,223.4 432.6,228.4 433.6,226.3 434.6,226.6 435.7,210.1 436.7,213.3 437.7,220.4 438.7,226.5 439.7,213.9 440.7,223.3 441.7,215.7 442.7,224.2 443.7,233.2 444.7,170.2 445.7,199.8 446.7,223.3 447.7,200.5 448.7,212.4 449.7,214.7 450.7,233.1 451.7,221.6 452.7,228.3 453.7,223.3 454.7,215.7 455.7,212.4 456.8,200.0 457.8,192.4 458.8,194.7 459.8,208.9 460.8,200.0 461.8,215.1 462.8,228.0 463.8,213.3 464.8,233.3 465.8,223.1 466.8,222.6 467.8,223.4 468.8,219.0 469.8,223.2 470.8,240.4 471.8,226.2 472.8,231.5 473.8,233.2 474.8,226.7 475.8,233.2 476.8,236.3 477.8,240.4 478.9,223.5 479.9,224.2 480.9,223.4 481.9,233.2 482.9,227.8 483.9,223.4 484.9,231.7 485.9,226.6 486.9,92.4 487.9,215.1 488.9,223.3 489.9,213.8 490.9,231.5 491.9,230.2 492.9,223.4 493.9,223.4 494.9,223.3 495.9,220.4 496.9,223.2 497.9,233.2 498.9,238.4 499.9,233.2 501.0,231.7 502.0,213.9 503.0,223.4 504.0,223.3 505.0,238.0 506.0,232.3 507.0,217.1 508.0,212.6 509.0,230.2 510.0,226.8 511.0,230.5 512.0,233.4 513.0,200.3 514.0,233.3 515.0,233.3 516.0,216.7 517.0,220.5 518.0,228.0 519.0,220.3 520.0,219.8 521.0,226.9 522.1,231.9 523.1,233.0 524.1,223.3 525.1,237.7 526.1,240.3 527.1,225.0 528.1,236.6 529.1,223.3 530.1,227.9 531.1,211.9 532.1,214.8 533.1,214.8 534.1,223.3 535.1,223.3 536.1,217.0 537.1,234.2 538.1,224.1 539.1,231.5 540.1,223.4 541.1,223.4 542.1,236.6 543.1,216.9 544.2,233.6 545.2,224.5 546.2,236.6 547.2,223.3 548.2,231.8 549.2,231.4 550.2,223.3 551.2,168.8 552.2,223.3 553.2,224.5 554.2,224.6 555.2,226.7 556.2,223.4 557.2,223.3 558.2,239.7 559.2,223.4 560.2,230.2 561.2,223.4 562.2,228.4 563.2,226.6 564.2,238.6 565.2,232.1 566.3,236.6 567.3,236.3 568.3,232.3 569.3,236.4 570.3,233.6 571.3,240.4 572.3,223.4 573.3,241.1 574.3,212.7 575.3,225.1 576.3,205.7 577.3,213.8 578.3,223.4 579.3,201.9 580.3,223.3 581.3,223.1 582.3,223.4 583.3,231.5 584.3,223.4 585.3,236.3 586.3,223.4 587.4,226.9 588.4,222.4 589.4,223.4 590.4,234.7 591.4,235.8 592.4,200.3 593.4,230.5 594.4,230.2 595.4,235.3 596.4,230.2 597.4,232.1 598.4,216.6 599.4,232.6 600.4,212.7 601.4,230.1 602.4,222.9 603.4,219.7 604.4,225.0 605.4,223.4 606.4,223.4 607.4,219.7 608.4,229.3 609.5,196.0 610.5,220.2 611.5,212.0 612.5,231.5 613.5,170.2 614.5,230.2 615.5,199.8 616.5,220.0 617.5,216.7 618.5,210.0 619.5,215.8 620.5,239.5 621.5,231.5 622.5,223.3 623.5,227.9 624.5,223.3 625.5,209.9 626.5,223.4 627.5,207.1 628.5,223.3 629.5,200.0 630.5,199.8 631.6,201.8 632.6,223.4 633.6,235.0 634.6,223.4 635.6,216.6 636.6,230.6 637.6,231.6 638.6,219.9 639.6,223.3 640.6,214.8 641.6,231.3 642.6,230.2 643.6,231.4 644.6,236.4 645.6,240.4 646.6,229.4 647.6,228.0 648.6,218.7 649.6,227.7 650.6,227.9 651.6,204.0 652.7,220.5 653.7,215.5 654.7,226.7 655.7,224.4 656.7,225.1 657.7,232.1 658.7,231.5 659.7,223.4 660.7,229.2 661.7,236.3 662.7,223.7 663.7,237.1 664.7,225.0 665.7,231.4 666.7,236.4 667.7,236.3 668.7,233.4 669.7,237.6 670.7,212.1 671.7,228.0 672.7,233.2 673.7,222.8 674.8,223.2 675.8,222.2 676.8,222.3 677.8,215.1 678.8,223.4 679.8,172.5 680.8,210.3 681.8,223.3 682.8,214.0 683.8,217.9 684.8,231.6 685.8,215.8 686.8,214.9 687.8,232.2 688.8,222.0 689.8,227.8 690.8,223.3 691.8,223.3 692.8,230.1 693.8,220.4 694.8,211.4 695.8,208.2 696.9,232.6 697.9,223.1 698.9,224.4 699.9,218.9 700.9,223.2 701.9,211.8 702.9,228.8 703.9,223.6 704.9,223.3 705.9,233.2 706.9,229.9 707.9,223.3 708.9,236.3 709.9,223.7 710.9,223.4 711.9,236.8 712.9,214.9 713.9,230.2 714.9,227.6 715.9,234.1 716.9,223.7 718.0,225.3 719.0,222.3 720.0,223.4 721.0,224.5 722.0,223.4 723.0,218.4 724.0,208.6 725.0,195.0 726.0,224.5 727.0,212.1 728.0,229.2 729.0,223.3 730.0,223.4 731.0,199.9 732.0,208.3 733.0,223.4 734.0,217.7 735.0,220.4 736.0,223.4 737.0,189.0 738.0,215.4 739.0,223.4 740.1,230.2 741.1,224.4 742.1,233.2 743.1,219.1 744.1,216.6 745.1,233.2 746.1,198.6 747.1,223.3 748.1,223.6 749.1,216.6 750.1,223.3 751.1,223.4 752.1,223.4 753.1,221.2 754.1,215.8 755.1,200.2 756.1,183.2 757.1,223.4 758.1,223.7 759.1,200.5 760.1,227.0 761.2,226.5 762.2,241.1 763.2,239.9 764.2,237.3 765.2,236.6 766.2,192.0 767.2,244.7 768.2,208.6 769.2,233.3 770.2,241.0 771.2,240.2 772.2,223.5 773.2,174.1 774.2,223.3 775.2,194.8 776.2,229.1 777.2,236.2 778.2,241.0 779.2,220.4 780.2,228.2 781.2,256.0 782.2,170.2 783.3,200.3 784.3,256.2 785.3,223.4 786.3,226.2 787.3,223.3 788.3,236.7 789.3,223.3 790.3,230.2 791.3,216.6 792.3,181.2 793.3,223.4 794.3,204.6 795.3,210.1 796.3,208.6 797.3,200.0 798.3,223.8 799.3,227.4 800.3,243.2 801.3,213.2 802.3,240.6 803.3,224.6 804.3,231.9 805.4,230.1 806.4,241.0 807.4,229.3 808.4,237.6 809.4,247.8 810.4,245.3 811.4,252.0 812.4,236.3 813.4,238.6 814.4,240.9 815.4,199.5 816.4,194.9 817.4,224.5 818.4,218.0 819.4,223.5 820.4,216.6 821.4,216.7 822.4,233.2 823.4,236.3 824.4,237.1 825.4,245.8 826.5,238.2 827.5,237.1 828.5,230.8 829.5,207.1 830.5,236.3 831.5,233.2 832.5,240.9 833.5,213.1 834.5,223.4 835.5,236.4 836.5,227.7 837.5,224.6 838.5,230.2 839.5,214.8 840.5,222.2 841.5,216.8 842.5,223.3 843.5,229.9 844.5,224.9 845.5,227.8 846.5,257.6 847.5,230.2 848.6,236.7 849.6,235.8 850.6,223.4 851.6,231.8 852.6,223.4 853.6,223.3 854.6,211.7 855.6,242.1 856.6,225.6 857.6,200.2 858.6,220.4 859.6,223.3 860.6,223.4 861.6,214.7 862.6,233.5 863.6,223.3 864.6,238.6 865.6,223.3 866.6,241.1 867.6,240.4 868.6,223.4 869.6,225.0 870.7,198.4 871.7,237.3 872.7,299.1 873.7,332.3 874.7,333.7 875.7,330.9 876.7,331.5 877.7,256.7 878.7,327.6 879.7,327.7 880.7,331.7 881.7,333.7 882.7,332.3 883.7,331.6 884.7,322.4 885.7,331.5 886.7,332.9 887.7,331.0 888.7,328.4 889.7,333.2 890.7,329.7 891.8,329.7 892.8,329.6 893.8,330.4 894.8,331.5 895.8,327.6 896.8,331.5 897.8,329.1 898.8,327.7 899.8,330.3 900.8,328.4 901.8,331.3 902.8,335.3 903.8,331.5 904.8,330.0 905.8,331.5 906.8,330.0 907.8,331.6 908.8,327.6 909.8,329.0 910.8,330.0 911.8,328.8 912.8,326.0 913.9,327.7 914.9,327.5 915.9,329.2 916.9,328.1 917.9,327.6 918.9,329.0 919.9,331.5 920.9,327.6 921.9,329.6 922.9,328.9 923.9,331.5 924.9,331.5 925.9,330.1 926.9,322.8 927.9,329.3 928.9,331.5 929.9,331.8 930.9,331.3 931.9,329.1 932.9,331.5 933.9,332.5 934.9,325.5 936.0,325.9 937.0,328.4 938.0,324.7 939.0,330.2 940.0,327.0 941.0,328.8 942.0,329.0 943.0,327.6 944.0,326.7 945.0,331.4 946.0,326.6" fill="none" stroke="#d97706" stroke-width="2.2" stroke-linejoin="round" stroke-linecap="round"/>
<line x1="76" y1="70" x2="94" y2="70" stroke="#2563eb" stroke-width="3"/>
<text x="100" y="74" font-family="Arial, sans-serif" font-size="11" fill="#0f172a">avg fee</text>
<line x1="179" y1="70" x2="197" y2="70" stroke="#059669" stroke-width="3"/>
<text x="203" y="74" font-family="Arial, sans-serif" font-size="11" fill="#0f172a">median fee</text>
<line x1="303" y1="70" x2="321" y2="70" stroke="#d97706" stroke-width="3"/>
<text x="327" y="74" font-family="Arial, sans-serif" font-size="11" fill="#0f172a">p90 fee</text>
<text x="28" y="404" font-family="Arial, sans-serif" font-size="11" fill="#64748b">Source: hourly_features.csv</text>
</svg>