<svg xmlns="http://www.w3.org/2000/svg" width="980" height="420" viewBox="0 0 980 420">
<rect width="100%" height="100%" fill="#ffffff"/>
<text x="28" y="34" font-family="Arial, sans-serif" font-size="20" font-weight="700" fill="#0f172a">Hourly fee trend</text>
<text x="28" y="56" font-family="Arial, sans-serif" font-size="12" fill="#64748b">Average, median, and p90 total fee by hour</text>
<line x1="76" y1="362.0" x2="946" y2="362.0" stroke="#e2e8f0" stroke-width="1"/>
<text x="68" y="366.0" font-family="Arial, sans-serif" font-size="10" text-anchor="end" fill="#64748b">-382K</text>
<line x1="76" y1="292.0" x2="946" y2="292.0" stroke="#e2e8f0" stroke-width="1"/>
<text x="68" y="296.0" font-family="Arial, sans-serif" font-size="10" text-anchor="end" fill="#64748b">2.6M</text>
<line x1="76" y1="222.0" x2="946" y2="222.0" stroke="#e2e8f0" stroke-width="1"/>
<text x="68" y="226.0" font-family="Arial, sans-serif" font-size="10" text-anchor="end" fill="#64748b">5.7M</text>
<line x1="76" y1="152.0" x2="946" y2="152.0" stroke="#e2e8f0" stroke-width="1"/>
<text x="68" y="156.0" font-family="Arial, sans-serif" font-size="10" text-anchor="end" fill="#64748b">8.7M</text>
<line x1="76" y1="82.0" x2="946" y2="82.0" stroke="#e2e8f0" stroke-width="1"/>
<text x="68" y="86.0" font-family="Arial, sans-serif" font-size="10" text-anchor="end" fill="#64748b">11.7M</text>
<line x1="76" y1="362" x2="946" y2="362" stroke="#334155" stroke-width="1"/>
<line x1="76" y1="82" x2="76" y2="362" stroke="#334155" stroke-width="1"/>
<text x="76" y="72" font-family="Arial, sans-serif" font-size="11" fill="#64748b">nanoton</text>
<line x1="76.0" y1="362" x2="76.0" y2="366" stroke="#334155" stroke-width="1"/>
<text x="76.0" y="380" font-family="Arial, sans-serif" font-size="10" text-anchor="middle" fill="#64748b">0</text>
<line x1="511.5" y1="362" x2="511.5" y2="366" stroke="#334155" stroke-width="1"/>
<text x="511.5" y="380" font-family="Arial, sans-serif" font-size="10" text-anchor="middle" fill="#64748b">447</text>
<line x1="946.0" y1="362" x2="946.0" y2="366" stroke="#334155" stroke-width="1"/>
<text x="946.0" y="380" font-family="Arial, sans-serif" font-size="10" text-anchor="middle" fill="#64748b">893</text>
<polyline points="76.0,290.8 77.0,294.6 77.9,296.0 78.9,298.1 79.9,304.8 80.9,297.2 81.8,298.2 82.8,294.6 83.8,299.0 84.8,298.7 85.7,287.8 86.7,299.5 87.7,299.7 88.7,297.4 89.6,300.3 90.6,300.5 91.6,292.5 92.6,292.5 93.5,301.3 94.5,291.1 95.5,289.2 96.5,287.3 97.4,293.8 98.4,294.2 99.4,296.1 100.4,292.1 101.3,297.7 102.3,290.6 103.3,293.2 104.3,288.3 105.2,289.0 106.2,273.1 107.2,284.7 108.2,285.3 109.1,294.6 110.1,299.9 111.1,292.9 112.0,294.9 113.0,304.7 114.0,307.5 115.0,302.1 115.9,297.0 116.9,298.7 117.9,297.9 118.9,304.4 119.8,297.4 120.8,294.5 121.8,296.5 122.8,298.7 123.7,303.1 124.7,303.1 125.7,301.9 126.7,300.3 127.6,303.3 128.6,302.2 129.6,299.4 130.6,299.1 131.5,302.8 132.5,299.1 133.5,301.3 134.5,306.8 135.4,308.7 136.4,306.4 137.4,307.1 138.4,309.1 139.3,305.9 140.3,305.5 141.3,302.0 142.2,308.5 143.2,290.7 144.2,306.4 145.2,306.4 146.1,306.3 147.1,311.2 148.1,307.1 149.1,310.3 150.0,309.1 151.0,305.5 152.0,305.4 153.0,303.2 153.9,303.5 154.9,301.3 155.9,305.1 156.9,307.4 157.8,306.9 158.8,308.1 159.8,305.0 160.8,302.9 161.7,302.7 162.7,298.6 163.7,304.9 164.7,297.0 165.6,299.3 166.6,300.3 167.6,303.9 168.6,311.6 169.5,300.1 170.5,300.5 171.5,308.9 172.5,307.5 173.4,300.3 174.4,304.2 175.4,305.1 176.3,302.6 177.3,300.5 178.3,297.4 179.3,298.7 180.2,301.9 181.2,308.1 182.2,307.4 183.2,307.4 184.1,303.1 185.1,301.9 186.1,304.1 187.1,303.9 188.0,304.0 189.0,308.3 190.0,308.9 191.0,307.3 191.9,301.1 192.9,286.9 193.9,301.6 194.9,298.8 195.8,296.1 196.8,299.6 197.8,305.5 198.8,301.5 199.7,304.9 200.7,302.2 201.7,304.9 202.7,306.8 203.6,304.9 204.6,300.8 205.6,304.8 206.5,308.0 207.5,302.4 208.5,301.7 209.5,303.1 210.4,303.4 211.4,298.9 212.4,298.5 213.4,298.0 214.3,289.4 215.3,296.9 216.3,296.4 217.3,295.5 218.2,299.6 219.2,299.0 220.2,304.6 221.2,304.0 222.1,303.8 223.1,299.2 224.1,301.2 225.1,305.7 226.0,304.5 227.0,312.1 228.0,305.7 229.0,304.3 229.9,307.0 230.9,306.9 231.9,301.9 232.9,303.8 233.8,300.8 234.8,301.6 235.8,300.2 236.8,298.7 237.7,290.6 238.7,296.1 239.7,300.6 240.6,296.6 241.6,302.7 242.6,302.6 243.6,303.0 244.5,302.7 245.5,302.8 246.5,303.7 247.5,300.1 248.4,305.6 249.4,303.0 250.4,299.2 251.4,302.8 252.3,306.7 253.3,306.1 254.3,306.7 255.3,298.5 256.2,301.6 257.2,297.8 258.2,303.8 259.2,300.2 260.1,299.5 261.1,295.6 262.1,298.2 263.1,298.4 264.0,293.8 265.0,299.9 266.0,297.9 267.0,298.6 267.9,294.2 268.9,297.8 269.9,278.0 270.8,284.2 271.8,295.2 272.8,295.7 273.8,294.4 274.7,300.7 275.7,304.3 276.7,302.4 277.7,302.1 278.6,297.9 279.6,295.3 280.6,296.5 281.6,291.4 282.5,292.0 283.5,290.6 284.5,290.0 285.5,299.7 286.4,291.9 287.4,296.8 288.4,299.8 289.4,303.8 290.3,302.5 291.3,302.1 292.3,302.3 293.3,300.8 294.2,303.5 295.2,295.9 296.2,297.8 297.2,304.4 298.1,304.2 299.1,299.5 300.1,303.9 301.1,303.5 302.0,299.0 303.0,288.7 304.0,293.7 304.9,294.2 305.9,303.7 306.9,295.6 307.9,297.0 308.8,305.6 309.8,294.8 310.8,300.5 311.8,305.1 312.7,308.5 313.7,305.5 314.7,304.0 315.7,300.7 316.6,303.8 317.6,299.3 318.6,303.0 319.6,305.0 320.5,303.0 321.5,299.3 322.5,294.4 323.5,299.9 324.4,286.2 325.4,302.1 326.4,293.9 327.4,297.9 328.3,299.5 329.3,297.4 330.3,294.4 331.3,310.4 332.2,291.6 333.2,295.6 334.2,281.6 335.1,294.6 336.1,293.2 337.1,295.0 338.1,291.0 339.0,301.0 340.0,279.9 341.0,297.2 342.0,291.8 342.9,291.5 343.9,283.3 344.9,298.3 345.9,300.4 346.8,298.6 347.8,288.4 348.8,299.0 349.8,304.4 350.7,297.7 351.7,295.5 352.7,279.8 353.7,284.2 354.6,300.5 355.6,299.9 356.6,298.1 357.6,293.4 358.5,303.1 359.5,303.0 360.5,298.6 361.5,296.8 362.4,297.4 363.4,301.3 364.4,298.1 365.4,311.4 366.3,299.4 367.3,303.5 368.3,301.2 369.2,302.9 370.2,304.3 371.2,297.8 372.2,294.4 373.1,299.3 374.1,295.1 375.1,301.8 376.1,292.6 377.0,297.6 378.0,293.9 379.0,290.0 380.0,295.1 380.9,304.6 381.9,291.1 382.9,300.3 383.9,295.9 384.8,293.1 385.8,291.6 386.8,296.8 387.8,297.1 388.7,297.9 389.7,299.5 390.7,292.8 391.7,286.2 392.6,290.1 393.6,300.0 394.6,294.5 395.6,300.9 396.5,303.0 397.5,299.1 398.5,302.5 399.4,295.1 400.4,297.0 401.4,302.8 402.4,301.7 403.3,303.0 404.3,308.6 405.3,306.8 406.3,306.1 407.2,306.5 408.2,304.3 409.2,304.5 410.2,298.3 411.1,301.1 412.1,303.1 413.1,303.3 414.1,304.2 415.0,302.4 416.0,299.4 417.0,304.5 418.0,307.1 418.9,297.3 419.9,298.9 420.9,298.1 421.9,299.7 422.8,297.8 423.8,301.0 424.8,287.2 425.8,294.3 426.7,294.8 427.7,298.6 428.7,291.3 429.7,298.4 430.6,294.6 431.6,298.7 432.6,304.2 433.5,282.2 434.5,289.8 435.5,298.8 436.5,295.1 437.4,293.4 438.4,294.7 439.4,304.3 440.4,296.9 441.3,301.7 442.3,296.7 443.3,295.6 444.3,292.9 445.2,291.6 446.2,286.7 447.2,287.8 448.2,294.2 449.1,292.6 450.1,297.5 451.1,303.1 452.1,296.8 453.0,304.1 454.0,298.7 455.0,297.8 456.0,299.3 456.9,297.1 457.9,296.6 458.9,305.5 459.9,301.9 460.8,304.5 461.8,302.9 462.8,303.4 463.7,302.7 464.7,304.5 465.7,301.7 466.7,300.0 467.6,297.3 468.6,295.0 469.6,305.0 470.6,302.7 471.5,303.7 472.5,302.8 473.5,298.5 474.5,257.0 475.4,291.0 476.4,298.5 477.4,296.3 478.4,301.0 479.3,301.6 480.3,299.9 481.3,299.3 482.3,299.6 483.2,296.0 484.2,299.4 485.2,305.6 486.2,306.5 487.1,300.9 488.1,302.7 489.1,295.0 490.1,302.2 491.0,296.9 492.0,304.8 493.0,299.1 494.0,295.6 494.9,295.1 495.9,300.9 496.9,301.0 497.8,300.7 498.8,304.5 499.8,292.6 500.8,303.5 501.7,306.0 502.7,295.5 503.7,297.4 504.7,302.8 505.6,295.8 506.6,299.5 507.6,304.0 508.6,301.7 509.5,303.8 510.5,300.8 511.5,306.1 512.5,305.6 513.4,300.8 514.4,303.2 515.4,297.1 516.4,300.2 517.3,292.3 518.3,292.0 519.3,292.1 520.3,299.3 521.2,298.5 522.2,298.8 523.2,301.5 524.2,299.6 525.1,305.3 526.1,300.2 527.1,300.6 528.0,304.7 529.0,299.2 530.0,304.4 531.0,299.7 531.9,306.4 532.9,299.1 533.9,304.5 534.9,303.3 535.8,298.0 536.8,263.7 537.8,302.9 538.8,304.6 539.7,301.3 540.7,300.8 541.7,298.3 542.7,299.9 543.6,302.7 544.6,298.6 545.6,304.0 546.6,302.8 547.5,303.0 548.5,301.1 549.5,308.3 550.5,304.5 551.4,309.0 552.4,304.5 553.4,303.7 554.4,304.9 555.3,303.6 556.3,305.3 557.3,299.5 558.3,305.2 559.2,297.1 560.2,302.2 561.2,288.1 562.1,294.6 563.1,299.7 564.1,287.4 565.1,299.0 566.0,298.4 567.0,296.8 568.0,301.1 569.0,299.5 569.9,302.6 570.9,299.3 571.9,303.0 572.9,298.0 573.8,301.6 574.8,305.3 575.8,304.5 576.8,290.4 577.7,303.1 578.7,299.6 579.7,302.4 580.7,303.1 581.6,304.7 582.6,296.3 583.6,301.7 584.6,292.9 585.5,298.2 586.5,294.8 587.5,293.5 588.5,299.4 589.4,297.4 590.4,300.4 591.4,295.6 592.3,301.5 593.3,282.6 594.3,297.4 595.3,291.2 596.2,300.8 597.2,281.3 598.2,303.6 599.2,292.1 600.1,296.5 601.1,300.9 602.1,293.9 603.1,295.3 604.0,305.2 605.0,304.7 606.0,300.3 607.0,302.0 607.9,297.5 608.9,295.0 609.9,296.6 610.9,292.7 611.8,298.7 612.8,291.1 613.8,289.9 614.8,292.8 615.7,302.6 616.7,303.5 617.7,301.6 618.7,297.5 619.6,303.0 620.6,302.5 621.6,299.3 622.6,300.0 623.5,295.7 624.5,300.6 625.5,302.5 626.4,302.2 627.4,300.7 628.4,305.4 629.4,305.1 630.3,301.0 631.3,294.2 632.3,301.0 633.3,298.9 634.2,290.4 635.2,295.9 636.2,294.1 637.2,301.3 638.1,298.2 639.1,299.2 640.1,302.6 641.1,300.9 642.0,299.2 643.0,302.7 644.0,303.6 645.0,299.5 645.9,304.4 646.9,298.2 647.9,302.7 648.9,304.9 649.8,303.3 650.8,303.8 651.8,305.7 652.8,294.6 653.7,306.7 654.7,303.7 655.7,295.1 656.6,294.1 657.6,293.7 658.6,295.9 659.6,295.9 660.5,298.1 661.5,284.7 662.5,294.9 663.5,298.6 664.4,296.3 665.4,294.2 666.4,300.6 667.4,294.3 668.3,295.9 669.3,303.8 670.3,295.8 671.3,302.6 672.2,297.7 673.2,300.0 674.2,300.7 675.2,298.3 676.1,294.8 677.1,295.8 678.1,303.0 679.1,295.6 680.0,296.0 681.0,295.2 682.0,295.3 683.0,295.0 683.9,299.9 684.9,299.0 685.9,295.9 686.9,303.3 687.8,302.9 688.8,298.2 689.8,305.5 690.7,300.9 691.7,300.4 692.7,305.2 693.7,295.8 694.6,301.8 695.6,303.2 696.6,304.6 697.6,299.1 698.5,301.0 699.5,298.0 700.5,298.8 701.5,297.3 702.4,300.8 703.4,296.0 704.4,293.0 705.4,284.2 706.3,298.8 707.3,293.9 708.3,298.9 709.3,298.8 710.2,298.0 711.2,291.0 712.2,292.3 713.2,298.2 714.1,297.5 715.1,297.5 716.1,298.5 717.1,288.2 718.0,296.5 719.0,297.3 720.0,301.7 720.9,301.0 721.9,305.4 722.9,295.8 723.9,295.1 724.8,299.8 725.8,289.6 726.8,296.7 727.8,295.1 728.7,295.1 729.7,294.8 730.7,297.5 731.7,299.5 732.6,295.8 733.6,297.0 734.6,291.7 735.6,285.1 736.5,299.7 737.5,301.0 738.5,293.6 739.5,302.3 740.4,297.5 741.4,307.7 742.4,292.5 743.4,304.9 744.3,304.1 745.3,291.9 746.3,305.2 747.3,297.8 748.2,298.1 749.2,307.4 750.2,305.4 751.2,294.0 752.1,284.5 753.1,295.7 754.1,281.6 755.0,295.8 756.0,307.1 757.0,303.5 758.0,299.2 758.9,301.5 759.9,309.0 760.9,287.8 761.9,293.3 762.8,314.3 763.8,300.8 764.8,304.2 765.8,299.2 766.7,305.4 767.7,297.5 768.7,303.5 769.7,297.3 770.6,286.2 771.6,295.6 772.6,293.4 773.6,295.3 774.5,292.6 775.5,295.0 776.5,297.5 777.5,303.2 778.4,307.8 779.4,295.2 780.4,306.6 781.4,305.0 782.3,305.4 783.3,303.1 784.3,297.4 785.2,293.5 786.2,305.0 787.2,310.4 788.2,306.6 789.1,309.4 790.1,304.0 791.1,307.8 792.1,308.2 793.0,299.0 794.0,288.2 795.0,297.1 796.0,298.1 796.9,298.6 797.9,298.7 798.9,295.2 799.9,305.8 800.8,307.8 801.8,304.4 802.8,309.3 803.8,306.7 804.7,303.2 805.7,303.6 806.7,296.5 807.7,304.1 808.6,305.5 809.6,308.2 810.6,291.8 811.6,301.9 812.5,305.3 813.5,302.2 814.5,300.9 815.5,302.7 816.4,295.0 817.4,295.0 818.4,295.3 819.3,299.1 820.3,299.0 821.3,300.9 822.3,304.6 823.2,307.3 824.2,303.1 825.2,300.9 826.2,303.0 827.1,290.9 828.1,301.1 829.1,301.9 830.1,302.0 831.0,295.6 832.0,306.6 833.0,304.1 834.0,288.8 834.9,297.4 835.9,295.3 836.9,295.7 837.9,296.1 838.8,306.3 839.8,300.3 840.8,304.9 841.8,295.7 842.7,303.6 843.7,305.1 844.7,302.6 845.7,301.6 846.6,285.2 847.6,304.3 848.6,334.7 849.5,343.7 850.5,343.8 851.5,343.5 852.5,344.0 853.4,319.0 854.4,342.3 855.4,343.1 856.4,342.6 857.3,343.4 858.3,343.4 859.3,343.4 860.3,338.9 861.2,343.5 862.2,344.5 863.2,342.7 864.2,342.0 865.1,343.8 866.1,343.0 867.1,343.2 868.1,340.3 869.0,342.7 870.0,343.4 871.0,342.2 872.0,343.9 872.9,341.8 873.9,341.2 874.9,342.8 875.9,342.4 876.8,343.3 877.8,344.8 878.8,343.7 879.8,343.3 880.7,344.0 881.7,342.7 882.7,343.5 883.6,341.8 884.6,340.1 885.6,342.3 886.6,342.4 887.5,339.6 888.5,341.5 889.5,340.5 890.5,343.1 891.4,341.6 892.4,340.5 893.4,342.3 894.4,342.5 895.3,342.2 896.3,343.0 897.3,342.6 898.3,342.9 899.2,343.5 900.2,342.4 901.2,340.9 902.2,341.4 903.1,342.5 904.1,343.3 905.1,343.5 906.1,343.3 907.0,343.2 908.0,342.6 909.0,341.1 910.0,340.9 910.9,341.6 911.9,340.6 912.9,341.3 913.8,341.0 914.8,342.8 915.8,341.5 916.8,342.2 917.7,341.5 918.7,342.8 919.7,341.0 920.7,340.5 921.6,341.9 922.6,341.5 923.6,341.0 924.6,338.4 925.5,325.0 926.5,339.0 927.5,340.0 928.5,339.6 929.4,341.0 930.4,338.3 931.4,339.7 932.4,338.7 933.3,339.5 934.3,333.1 935.3,340.3 936.3,337.2 937.2,337.3 938.2,338.6 939.2,339.3 940.2,338.5 941.1,337.9 942.1,338.6 943.1,339.5 944.1,339.1 945.0,339.5 946.0,339.4" fill="none" stroke="#2563eb" stroke-width="2.2" stroke-linejoin="round" stroke-linecap="round"/>
<polyline points="76.0,311.4 77.0,324.9 77.9,334.1 78.9,334.5 79.9,335.0 80.9,334.6 81.8,334.4 82.8,330.8 83.8,334.6 84.8,334.6 85.7,320.5 86.7,334.6 87.7,334.2 88.7,330.7 89.6,334.4 90.6,333.8 91.6,321.1 92.6,330.5 93.5,332.4 94.5,310.6 95.5,302.9 96.5,305.9 97.4,320.5 98.4,315.5 99.4,310.4 100.4,329.8 101.3,333.4 102.3,312.5 103.3,335.0 104.3,319.0 105.2,330.5 106.2,283.8 107.2,300.4 108.2,303.3 109.1,308.3 110.1,331.3 111.1,312.5 112.0,310.6 113.0,334.9 114.0,335.0 115.0,329.7 115.9,310.6 116.9,310.6 117.9,312.5 118.9,340.8 119.8,334.9 120.8,308.9 121.8,310.3 122.8,334.9 123.7,335.3 124.7,334.2 125.7,333.4 126.7,333.9 127.6,334.6 128.6,331.5 129.6,334.6 130.6,330.9 131.5,334.3 132.5,334.6 133.5,334.2 134.5,335.0 135.4,334.9 136.4,334.9 137.4,344.0 138.4,335.8 139.3,334.9 140.3,334.9 141.3,330.7 142.2,344.0 143.2,335.6 144.2,336.2 145.2,336.2 146.1,335.0 147.1,338.1 148.1,336.2 149.1,336.1 150.0,335.1 151.0,335.0 152.0,335.0 153.0,334.5 153.9,335.0 154.9,334.6 155.9,334.6 156.9,335.0 157.8,335.0 158.8,335.0 159.8,334.3 160.8,334.9 161.7,334.9 162.7,330.7 163.7,334.7 164.7,312.2 165.6,329.6 166.6,331.1 167.6,333.8 168.6,344.0 169.5,330.6 170.5,333.8 171.5,335.0 172.5,336.2 173.4,334.7 174.4,334.7 175.4,334.8 176.3,334.6 177.3,331.0 178.3,330.5 179.3,331.5 180.2,333.0 181.2,335.0 182.2,334.9 183.2,334.9 184.1,334.1 185.1,334.9 186.1,334.9 187.1,331.5 188.0,332.3 189.0,336.2 190.0,344.0 191.0,336.1 191.9,335.0 192.9,310.1 193.9,334.9 194.9,334.5 195.8,334.7 196.8,333.8 197.8,334.9 198.8,334.0 199.7,334.9 200.7,334.9 201.7,334.9 202.7,335.0 203.6,334.7 204.6,333.2 205.6,334.9 206.5,335.0 207.5,335.0 208.5,334.1 209.5,334.2 210.4,330.3 211.4,310.6 212.4,298.7 213.4,309.8 214.3,304.4 215.3,310.2 216.3,310.1 217.3,327.6 218.2,333.0 219.2,333.8 220.2,333.8 221.2,334.9 222.1,334.9 223.1,333.8 224.1,334.7 225.1,334.7 226.0,334.6 227.0,344.0 228.0,334.9 229.0,334.9 229.9,335.0 230.9,335.0 231.9,333.8 232.9,334.4 233.8,330.9 234.8,319.7 235.8,298.7 236.8,334.1 237.7,326.9 238.7,334.7 239.7,331.8 240.6,331.8 241.6,331.4 242.6,334.7 243.6,334.4 244.5,334.6 245.5,334.6 246.5,330.7 247.5,330.7 248.4,334.9 249.4,334.4 250.4,331.0 251.4,334.6 252.3,335.0 253.3,334.6 254.3,334.9 255.3,330.5 256.2,334.3 257.2,315.6 258.2,334.6 259.2,298.7 260.1,334.0 261.1,329.7 262.1,332.6 263.1,331.8 264.0,310.6 265.0,331.8 266.0,332.3 267.0,334.6 267.9,323.8 268.9,334.0 269.9,295.8 270.8,298.7 271.8,327.1 272.8,331.1 273.8,330.7 274.7,332.3 275.7,334.6 276.7,334.7 277.7,334.1 278.6,324.8 279.6,315.1 280.6,308.6 281.6,305.4 282.5,298.7 283.5,306.5 284.5,305.4 285.5,331.7 286.4,305.5 287.4,317.0 288.4,333.4 289.4,335.0 290.3,334.1 291.3,335.0 292.3,334.9 293.3,333.7 294.2,335.0 295.2,319.7 296.2,319.7 297.2,334.1 298.1,333.8 299.1,333.4 300.1,334.7 301.1,334.6 302.0,331.3 303.0,305.4 304.0,308.2 304.9,308.3 305.9,298.7 306.9,310.2 307.9,335.5 308.8,336.2 309.8,312.5 310.8,334.5 311.8,336.2 312.7,335.9 313.7,336.2 314.7,335.0 315.7,333.8 316.6,334.3 317.6,334.4 318.6,333.5 319.6,334.6 320.5,334.4 321.5,329.6 322.5,308.9 323.5,334.1 324.4,308.2 325.4,334.4 326.4,310.7 327.4,310.3 328.3,325.1 329.3,305.5 330.3,319.7 331.3,344.0 332.2,315.6 333.2,334.2 334.2,308.2 335.1,309.9 336.1,330.0 337.1,334.1 338.1,335.0 339.0,333.2 340.0,323.8 341.0,333.8 342.0,308.2 342.9,306.1 343.9,323.8 344.9,315.6 345.9,333.4 346.8,332.6 347.8,303.2 348.8,334.1 349.8,334.7 350.7,326.5 351.7,333.8 352.7,320.8 353.7,333.7 354.6,333.7 355.6,334.1 356.6,330.7 357.6,331.8 358.5,333.7 359.5,334.6 360.5,333.8 361.5,333.0 362.4,310.6 363.4,334.7 364.4,330.7 365.4,345.9 366.3,333.8 367.3,334.7 368.3,333.7 369.2,334.7 370.2,334.7 371.2,310.6 372.2,315.4 373.1,332.0 374.1,310.5 375.1,331.7 376.1,305.3 377.0,330.5 378.0,326.9 379.0,302.2 380.0,309.7 380.9,335.9 381.9,333.4 382.9,334.9 383.9,334.4 384.8,306.5 385.8,306.5 386.8,318.3 387.8,320.1 388.7,323.6 389.7,331.8 390.7,310.6 391.7,305.4 392.6,308.2 393.6,331.8 394.6,305.2 395.6,330.5 396.5,334.1 397.5,326.7 398.5,330.7 399.4,305.4 400.4,308.2 401.4,333.8 402.4,334.1 403.3,335.0 404.3,340.8 405.3,336.2 406.3,336.1 407.2,335.0 408.2,336.2 409.2,335.8 410.2,333.8 411.1,334.4 412.1,335.0 413.1,334.8 414.1,334.9 415.0,334.6 416.0,331.8 417.0,334.5 418.0,335.0 418.9,329.1 419.9,330.7 420.9,325.8 421.9,325.3 422.8,308.2 423.8,333.5 424.8,308.4 425.8,310.3 426.7,330.5 427.7,319.6 428.7,308.3 429.7,334.6 430.6,318.7 431.6,335.8 432.6,335.0 433.5,297.6 434.5,305.3 435.5,325.3 436.5,325.7 437.4,318.9 438.4,310.3 439.4,334.9 440.4,321.4 441.3,334.2 442.3,331.5 443.3,329.7 444.3,309.6 445.2,308.4 446.2,298.7 447.2,302.7 448.2,305.5 449.1,309.0 450.1,331.8 451.1,334.0 452.1,329.6 453.0,334.7 454.0,333.8 455.0,335.0 456.0,334.0 456.9,334.0 457.9,325.3 458.9,334.9 459.9,334.5 460.8,334.6 461.8,334.7 462.8,334.7 463.7,334.7 464.7,334.6 465.7,334.1 466.7,326.9 467.6,326.6 468.6,305.4 469.6,343.0 470.6,335.3 471.5,344.0 472.5,335.0 473.5,329.1 474.5,301.0 475.4,334.2 476.4,334.1 477.4,315.6 478.4,335.0 479.3,334.1 480.3,334.6 481.3,333.6 482.3,330.5 483.2,330.4 484.2,333.8 485.2,335.0 486.2,335.0 487.1,333.2 488.1,334.4 489.1,310.5 490.1,332.0 491.0,310.1 492.0,332.7 493.0,305.4 494.0,309.8 494.9,310.6 495.9,330.0 496.9,333.8 497.8,332.4 498.8,335.3 499.8,318.3 500.8,334.7 501.7,336.2 502.7,331.4 503.7,325.8 504.7,334.6 505.6,331.3 506.6,331.8 507.6,334.7 508.6,334.5 509.5,333.8 510.5,330.7 511.5,334.9 512.5,334.8 513.4,331.8 514.4,333.2 515.4,310.7 516.4,330.5 517.3,308.2 518.3,308.4 519.3,305.4 520.3,330.4 521.2,326.9 522.2,330.4 523.2,334.9 524.2,331.5 525.1,335.0 526.1,334.6 527.1,334.1 528.0,334.9 529.0,334.7 530.0,335.0 531.0,333.8 531.9,335.0 532.9,333.3 533.9,334.6 534.9,335.0 535.8,332.7 536.8,283.6 537.8,333.8 538.8,335.0 539.7,319.3 540.7,331.1 541.7,329.7 542.7,331.8 543.6,334.1 544.6,334.6 545.6,334.9 546.6,334.7 547.5,334.6 548.5,334.8 549.5,335.0 550.5,334.9 551.4,335.0 552.4,334.9 553.4,334.7 554.4,334.9 555.3,335.0 556.3,334.7 557.3,334.1 558.3,335.7 559.2,334.1 560.2,334.4 561.2,305.3 562.1,319.6 563.1,309.3 564.1,300.7 565.1,310.4 566.0,330.5 567.0,310.6 568.0,330.5 569.0,333.0 569.9,334.7 570.9,333.8 571.9,334.1 572.9,330.9 573.8,334.7 574.8,334.9 575.8,334.9 576.8,305.4 577.7,334.4 578.7,331.0 579.7,335.0 580.7,333.8 581.6,335.0 582.6,333.8 583.6,334.9 584.6,310.6 585.5,334.3 586.5,306.4 587.5,308.4 588.5,333.8 589.4,330.9 590.4,334.1 591.4,329.7 592.3,334.3 593.3,305.3 594.3,330.7 595.3,328.8 596.2,333.8 597.2,295.8 598.2,334.6 599.2,310.6 600.1,310.6 601.1,333.8 602.1,318.4 603.1,318.5 604.0,334.2 605.0,334.9 606.0,334.1 607.0,334.1 607.9,330.4 608.9,308.2 609.9,308.2 610.9,310.2 611.8,333.8 612.8,310.6 613.8,310.4 614.8,327.3 615.7,332.0 616.7,335.0 617.7,334.6 618.7,334.0 619.6,334.6 620.6,334.5 621.6,330.7 622.6,333.5 623.5,331.5 624.5,334.6 625.5,334.1 626.4,333.8 627.4,330.7 628.4,334.7 629.4,334.9 630.3,332.0 631.3,307.0 632.3,326.1 633.3,305.4 634.2,306.4 635.2,309.0 636.2,306.4 637.2,334.6 638.1,327.0 639.1,333.8 640.1,333.2 641.1,334.1 642.0,335.0 643.0,334.6 644.0,333.9 645.0,333.8 645.9,334.7 646.9,330.7 647.9,331.8 648.9,334.9 649.8,334.1 650.8,334.6 651.8,334.9 652.8,327.5 653.7,335.0 654.7,333.6 655.7,319.7 656.6,302.9 657.6,310.1 658.6,327.5 659.6,326.8 660.5,323.6 661.5,298.7 662.5,310.6 663.5,331.1 664.4,330.7 665.4,334.6 666.4,324.6 667.4,323.8 668.3,330.4 669.3,333.8 670.3,330.7 671.3,334.6 672.2,323.9 673.2,333.2 674.2,334.1 675.2,325.7 676.1,309.1 677.1,315.6 678.1,333.8 679.1,308.5 680.0,306.5 681.0,308.2 682.0,310.2 683.0,312.5 683.9,331.0 684.9,331.9 685.9,317.9 686.9,334.6 687.8,335.0 688.8,335.0 689.8,335.0 690.7,334.6 691.7,333.8 692.7,334.9 693.7,330.4 694.6,334.3 695.6,334.6 696.6,334.2 697.6,333.8 698.5,335.0 699.5,330.7 700.5,333.8 701.5,315.5 702.4,330.7 703.4,305.4 704.4,324.4 705.4,306.5 706.3,331.8 707.3,308.9 708.3,333.8 709.3,333.8 710.2,331.2 711.2,310.7 712.2,333.8 713.2,330.0 714.1,327.2 715.1,323.8 716.1,330.0 717.1,305.0 718.0,312.5 719.0,333.8 720.0,332.0 720.9,329.7 721.9,333.8 722.9,322.8 723.9,308.3 724.8,310.4 725.8,305.2 726.8,305.4 727.8,308.2 728.7,310.7 729.7,310.1 730.7,319.6 731.7,325.7 732.6,330.8 733.6,330.9 734.6,305.4 735.6,305.2 736.5,333.8 737.5,331.0 738.5,305.4 739.5,334.7 740.4,308.3 741.4,334.1 742.4,334.7 743.4,332.8 744.3,332.9 745.3,308.2 746.3,335.0 747.3,330.4 748.2,310.4 749.2,330.0 750.2,326.8 751.2,305.9 752.1,306.4 753.1,323.8 754.1,296.7 755.0,334.1 756.0,335.0 757.0,335.0 758.0,331.5 758.9,334.7 759.9,335.0 760.9,304.3 761.9,308.2 762.8,335.0 763.8,331.8 764.8,334.5 765.8,331.2 766.7,334.7 767.7,331.8 768.7,321.5 769.7,334.9 770.6,331.9 771.6,310.4 772.6,308.3 773.6,305.4 774.5,305.9 775.5,305.7 776.5,324.6 777.5,330.7 778.4,334.5 779.4,331.6 780.4,335.0 781.4,335.0 782.3,335.0 783.3,322.4 784.3,334.9 785.2,331.1 786.2,335.0 787.2,344.0 788.2,344.0 789.1,344.0 790.1,334.6 791.1,335.0 792.1,335.0 793.0,334.4 794.0,311.6 795.0,308.9 796.0,308.2 796.9,308.1 797.9,330.4 798.9,308.6 799.9,337.4 800.8,335.0 801.8,335.0 802.8,335.0 803.8,331.8 804.7,332.0 805.7,334.1 806.7,330.5 807.7,334.6 808.6,335.0 809.6,334.9 810.6,312.5 811.6,333.8 812.5,332.0 813.5,333.8 814.5,331.7 815.5,331.0 816.4,310.7 817.4,308.6 818.4,314.0 819.3,327.1 820.3,304.8 821.3,340.8 822.3,341.6 823.2,335.0 824.2,334.6 825.2,334.6 826.2,324.6 827.1,317.8 828.1,346.0 829.1,334.6 830.1,334.9 831.0,317.9 832.0,344.0 833.0,334.0 834.0,321.8 834.9,332.8 835.9,325.5 836.9,333.8 837.9,313.7 838.8,334.6 839.8,328.5 840.8,331.2 841.8,305.4 842.7,331.0 843.7,310.0 844.7,331.4 845.7,330.2 846.6,290.8 847.6,335.0 848.6,347.8 849.5,350.1 850.5,349.5 851.5,346.1 852.5,349.4 853.4,341.0 854.4,346.4 855.4,349.3 856.4,344.7 857.3,345.1 858.3,349.2 859.3,349.4 860.3,343.5 861.2,350.0 862.2,350.1 863.2,347.6 864.2,344.9 865.1,349.2 866.1,345.2 867.1,344.1 868.1,344.7 869.0,345.7 870.0,346.1 871.0,345.7 872.0,349.5 872.9,345.1 873.9,349.4 874.9,348.7 875.9,346.1 876.8,345.8 877.8,351.6 878.8,348.3 879.8,345.7 880.7,349.9 881.7,344.7 882.7,346.4 883.6,345.2 884.6,343.4 885.6,345.2 886.6,346.1 887.5,342.1 888.5,343.4 889.5,343.5 890.5,345.2 891.4,345.2 892.4,344.0 893.4,345.2 894.4,345.4 895.3,345.3 896.3,344.8 897.3,345.8 898.3,346.1 899.2,344.8 900.2,345.0 901.2,344.3 902.2,345.2 903.1,347.2 904.1,347.4 905.1,350.1 906.1,346.4 907.0,348.8 908.0,348.0 909.0,344.7 910.0,344.0 910.9,345.4 911.9,342.7 912.9,345.8 913.8,344.1 914.8,346.0 915.8,349.5 916.8,344.0 917.7,345.9 918.7,347.6 919.7,344.8 920.7,343.6 921.6,343.6 922.6,344.9 923.6,343.6 924.6,342.0 925.5,343.9 926.5,342.7 927.5,343.4 928.5,341.6 929.4,343.4 930.4,341.5 931.4,342.3 932.4,342.7 933.3,341.5 934.3,341.0 935.3,342.2 936.3,341.2 937.2,340.3 938.2,342.4 939.2,341.6 940.2,341.6 941.1,341.4 942.1,341.5 943.1,341.6 944.1,342.3 945.0,342.2 946.0,342.1" fill="none" stroke="#059669" stroke-width="2.2" stroke-linejoin="round" stroke-linecap="round"/>
<polyline points="76.0,208.9 77.0,216.7 77.9,223.4 78.9,228.3 79.9,236.4 80.9,228.3 81.8,223.3 82.8,216.9 83.8,223.4 84.8,223.3 85.7,199.8 86.7,223.4 87.7,224.6 88.7,223.3 89.6,226.2 90.6,227.6 91.6,211.5 92.6,216.7 93.5,236.0 94.5,216.6 95.5,215.8 96.5,199.8 97.4,220.3 98.4,223.2 99.4,223.4 100.4,220.5 101.3,223.3 102.3,213.2 103.3,216.6 104.3,200.1 105.2,199.8 106.2,160.5 107.2,170.2 108.2,170.2 109.1,209.6 110.1,215.8 111.1,209.6 112.0,208.2 113.0,233.3 114.0,241.0 115.0,230.2 115.9,223.3 116.9,223.8 117.9,223.4 118.9,227.6 119.8,220.4 120.8,213.7 121.8,221.6 122.8,214.1 123.7,236.4 124.7,233.9 125.7,228.8 126.7,229.4 127.6,230.2 128.6,223.4 129.6,223.4 130.6,224.4 131.5,227.8 132.5,231.4 133.5,223.4 134.5,236.4 135.4,240.4 136.4,233.6 137.4,244.6 138.4,239.4 139.3,240.4 140.3,238.9 141.3,236.3 142.2,251.7 143.2,206.3 144.2,236.6 145.2,237.6 146.1,234.6 147.1,248.7 148.1,242.6 149.1,246.3 150.0,241.1 151.0,232.3 152.0,233.3 153.0,228.3 153.9,223.5 154.9,229.7 155.9,233.3 156.9,246.2 157.8,238.6 158.8,241.0 159.8,231.4 160.8,230.1 161.7,230.4 162.7,216.6 163.7,239.0 164.7,223.4 165.6,231.9 166.6,231.4 167.6,242.9 168.6,248.9 169.5,223.4 170.5,227.9 171.5,242.4 172.5,237.1 173.4,229.7 174.4,234.8 175.4,236.4 176.3,233.2 177.3,223.4 178.3,223.4 179.3,230.1 180.2,233.2 181.2,241.8 182.2,237.6 183.2,246.3 184.1,230.4 185.1,230.5 186.1,237.1 187.1,236.4 188.0,236.6 189.0,241.3 190.0,240.4 191.0,240.4 191.9,233.2 192.9,200.3 193.9,223.3 194.9,223.4 195.8,216.6 196.8,229.6 197.8,233.3 198.8,231.4 199.7,233.3 200.7,230.8 201.7,236.3 202.7,236.3 203.6,233.3 204.6,230.2 205.6,238.7 206.5,238.8 207.5,237.6 208.5,228.0 209.5,226.9 210.4,237.0 211.4,226.6 212.4,232.3 213.4,231.4 214.3,207.0 215.3,223.4 216.3,223.3 217.3,223.3 218.2,225.0 219.2,223.4 220.2,236.4 221.2,236.4 222.1,231.9 223.1,230.2 224.1,235.6 225.1,236.3 226.0,236.7 227.0,251.5 228.0,233.3 229.0,233.3 229.9,241.1 230.9,241.0 231.9,233.3 232.9,232.1 233.8,225.6 234.8,223.4 235.8,241.1 236.8,223.4 237.7,199.8 238.7,231.6 239.7,233.2 240.6,223.4 241.6,228.7 242.6,233.2 243.6,236.4 244.5,233.2 245.5,232.7 246.5,233.7 247.5,223.4 248.4,238.3 249.4,233.9 250.4,223.4 251.4,232.6 252.3,238.6 253.3,240.5 254.3,247.9 255.3,224.1 256.2,223.3 257.2,224.5 258.2,234.8 259.2,247.0 260.1,227.7 261.1,223.2 262.1,223.4 263.1,225.2 264.0,222.7 265.0,229.5 266.0,223.4 267.0,228.1 267.9,212.0 268.9,223.2 269.9,160.5 270.8,171.2 271.8,200.0 272.8,210.4 273.8,201.6 274.7,223.4 275.7,232.3 276.7,227.9 277.7,226.7 278.6,216.8 279.6,216.6 280.6,223.4 281.6,200.0 282.5,227.0 283.5,199.8 284.5,199.8 285.5,223.4 286.4,210.4 287.4,217.0 288.4,224.4 289.4,223.4 290.3,224.5 291.3,224.1 292.3,226.6 293.3,223.4 294.2,233.2 295.2,208.9 296.2,221.6 297.2,233.3 298.1,232.1 299.1,223.3 300.1,228.3 301.1,230.2 302.0,223.4 303.0,202.6 304.0,220.4 304.9,223.2 305.9,257.5 306.9,219.7 307.9,214.4 308.8,240.0 309.8,215.3 310.8,228.3 311.8,233.5 312.7,241.1 313.7,240.7 314.7,233.2 315.7,233.2 316.6,227.4 317.6,223.4 318.6,240.4 319.6,231.6 320.5,230.9 321.5,218.4 322.5,210.8 323.5,228.0 324.4,182.3 325.4,231.0 326.4,214.8 327.4,222.1 328.3,223.4 329.3,227.6 330.3,214.7 331.3,240.7 332.2,215.1 333.2,221.5 334.2,199.7 335.1,197.1 336.1,195.3 337.1,216.6 338.1,210.6 339.0,223.4 340.0,170.2 341.0,220.5 342.0,205.1 342.9,205.7 343.9,199.8 344.9,221.7 345.9,228.0 346.8,223.4 347.8,168.9 348.8,223.3 349.8,231.5 350.7,223.2 351.7,223.4 352.7,176.3 353.7,200.3 354.6,226.2 355.6,231.6 356.6,223.4 357.6,209.8 358.5,233.3 359.5,232.6 360.5,224.4 361.5,223.4 362.4,220.4 363.4,230.2 364.4,223.3 365.4,251.8 366.3,231.2 367.3,231.4 368.3,230.2 369.2,233.1 370.2,233.1 371.2,224.5 372.2,223.2 373.1,223.3 374.1,223.3 375.1,223.3 376.1,214.8 377.0,223.4 378.0,214.7 379.0,213.3 380.0,223.3 380.9,233.1 381.9,214.9 382.9,223.3 383.9,219.0 384.8,209.6 385.8,200.3 386.8,215.1 387.8,223.3 388.7,215.1 389.7,232.5 390.7,223.3 391.7,205.7 392.6,207.1 393.6,223.3 394.6,223.4 395.6,223.3 396.5,233.2 397.5,223.4 398.5,234.8 399.4,223.2 400.4,223.0 401.4,223.4 402.4,223.9 403.3,231.2 404.3,248.1 405.3,233.3 406.3,235.7 407.2,239.4 408.2,233.2 409.2,229.7 410.2,215.5 411.1,231.7 412.1,233.2 413.1,233.2 414.1,233.1 415.0,228.3 416.0,225.3 417.0,231.2 418.0,240.6 418.9,220.4 419.9,223.3 420.9,223.4 421.9,228.4 422.8,226.3 423.8,226.6 424.8,210.1 425.8,213.3 426.7,220.4 427.7,226.5 428.7,213.9 429.7,223.3 430.6,215.7 431.6,224.2 432.6,233.2 433.5,170.2 434.5,199.8 435.5,223.3 436.5,200.5 437.4,212.4 438.4,214.7 439.4,233.1 440.4,221.6 441.3,228.3 442.3,223.3 443.3,215.7 444.3,212.4 445.2,200.0 446.2,192.4 447.2,194.7 448.2,208.9 449.1,200.0 450.1,215.1 451.1,228.0 452.1,213.3 453.0,233.3 454.0,223.1 455.0,222.6 456.0,223.4 456.9,219.0 457.9,223.2 458.9,240.4 459.9,226.2 460.8,231.5 461.8,233.2 462.8,226.7 463.7,233.2 464.7,236.3 465.7,240.4 466.7,223.5 467.6,224.2 468.6,223.4 469.6,233.2 470.6,227.8 471.5,223.4 472.5,231.7 473.5,226.6 474.5,92.4 475.4,215.1 476.4,223.3 477.4,213.8 478.4,231.5 479.3,230.2 480.3,223.4 481.3,223.4 482.3,223.3 483.2,220.4 484.2,223.2 485.2,233.2 486.2,238.4 487.1,233.2 488.1,231.7 489.1,213.9 490.1,223.4 491.0,223.3 492.0,238.0 493.0,232.3 494.0,217.1 494.9,212.6 495.9,230.2 496.9,226.8 497.8,230.5 498.8,233.4 499.8,200.3 500.8,233.3 501.7,233.3 502.7,216.7 503.7,220.5 504.7,228.0 505.6,220.3 506.6,219.8 507.6,226.9 508.6,231.9 509.5,233.0 510.5,223.3 511.5,237.7 512.5,240.3 513.4,225.0 514.4,236.6 515.4,223.3 516.4,227.9 517.3,211.9 518.3,214.8 519.3,214.8 520.3,223.3 521.2,223.3 522.2,217.0 523.2,234.2 524.2,224.1 525.1,231.5 526.1,223.4 527.1,223.4 528.0,236.6 529.0,216.9 530.0,233.6 531.0,224.5 531.9,236.6 532.9,223.3 533.9,231.8 534.9,231.4 535.8,223.3 536.8,168.8 537.8,223.3 538.8,224.5 539.7,224.6 540.7,226.7 541.7,223.4 542.7,223.3 543.6,239.7 544.6,223.4 545.6,230.2 546.6,223.4 547.5,228.4 548.5,226.6 549.5,238.6 550.5,232.1 551.4,236.6 552.4,236.3 553.4,232.3 554.4,236.4 555.3,233.6 556.3,240.4 557.3,223.4 558.3,241.1 559.2,212.7 560.2,225.1 561.2,205.7 562.1,213.8 563.1,223.4 564.1,201.9 565.1,223.3 566.0,223.1 567.0,223.4 568.0,231.5 569.0,223.4 569.9,236.3 570.9,223.4 571.9,226.9 572.9,222.4 573.8,223.4 574.8,234.7 575.8,235.8 576.8,200.3 577.7,230.5 578.7,230.2 579.7,235.3 580.7,230.2 581.6,232.1 582.6,216.6 583.6,232.6 584.6,212.7 585.5,230.1 586.5,222.9 587.5,219.7 588.5,225.0 589.4,223.4 590.4,223.4 591.4,219.7 592.3,229.3 593.3,196.0 594.3,220.2 595.3,212.0 596.2,231.5 597.2,170.2 598.2,230.2 599.2,199.8 600.1,220.0 601.1,216.7 602.1,210.0 603.1,215.8 604.0,239.5 605.0,231.5 606.0,223.3 607.0,227.9 607.9,223.3 608.9,209.9 609.9,223.4 610.9,207.1 611.8,223.3 612.8,200.0 613.8,199.8 614.8,201.8 615.7,223.4 616.7,235.0 617.7,223.4 618.7,216.6 619.6,230.6 620.6,231.6 621.6,219.9 622.6,223.3 623.5,214.8 624.5,231.3 625.5,230.2 626.4,231.4 627.4,236.4 628.4,240.4 629.4,229.4 630.3,228.0 631.3,218.7 632.3,227.7 633.3,227.9 634.2,204.0 635.2,220.5 636.2,215.5 637.2,226.7 638.1,224.4 639.1,225.1 640.1,232.1 641.1,231.5 642.0,223.4 643.0,229.2 644.0,236.3 645.0,223.7 645.9,237.1 646.9,225.0 647.9,231.4 648.9,236.4 649.8,236.3 650.8,233.4 651.8,237.6 652.8,212.1 653.7,228.0 654.7,233.2 655.7,222.8 656.6,223.2 657.6,222.2 658.6,222.3 659.6,215.1 660.5,223.4 661.5,172.5 662.5,210.3 663.5,223.3 664.4,214.0 665.4,217.9 666.4,231.6 667.4,215.8 668.3,214.9 669.3,232.2 670.3,222.0 671.3,227.8 672.2,223.3 673.2,223.3 674.2,230.1 675.2,220.4 676.1,211.4 677.1,208.2 678.1,232.6 679.1,223.1 680.0,224.4 681.0,218.9 682.0,223.2 683.0,211.8 683.9,228.8 684.9,223.6 685.9,223.3 686.9,233.2 687.8,229.9 688.8,223.3 689.8,236.3 690.7,223.7 691.7,223.4 692.7,236.8 693.7,214.9 694.6,230.2 695.6,227.6 696.6,234.1 697.6,223.7 698.5,225.3 699.5,222.3 700.5,223.4 701.5,224.5 702.4,223.4 703.4,218.4 704.4,208.6 705.4,195.0 706.3,224.5 707.3,212.1 708.3,229.2 709.3,223.3 710.2,223.4 711.2,199.9 712.2,208.3 713.2,223.4 714.1,217.7 715.1,220.4 716.1,223.4 717.1,189.0 718.0,215.4 719.0,223.4 720.0,230.2 720.9,224.4 721.9,233.2 722.9,219.1 723.9,216.6 724.8,233.2 725.8,198.6 726.8,223.3 727.8,223.6 728.7,216.6 729.7,223.3 730.7,223.4 731.7,223.4 732.6,221.2 733.6,215.8 734.6,200.2 735.6,183.2 736.5,223.4 737.5,223.7 738.5,200.5 739.5,227.0 740.4,226.5 741.4,241.1 742.4,239.9 743.4,237.3 744.3,236.6 745.3,192.0 746.3,244.7 747.3,208.6 748.2,233.3 749.2,241.0 750.2,240.2 751.2,223.5 752.1,174.1 753.1,223.3 754.1,194.8 755.0,229.1 756.0,236.2 757.0,241.0 758.0,220.4 758.9,228.2 759.9,256.0 760.9,170.2 761.9,200.3 762.8,256.2 763.8,223.4 764.8,226.2 765.8,223.3 766.7,236.7 767.7,223.3 768.7,230.2 769.7,216.6 770.6,181.2 771.6,223.4 772.6,204.6 773.6,210.1 774.5,208.6 775.5,200.0 776.5,223.8 777.5,227.4 778.4,243.2 779.4,213.2 780.4,240.6 781.4,224.6 782.3,231.9 783.3,230.1 784.3,241.0 785.2,229.3 786.2,237.6 787.2,247.8 788.2,245.3 789.1,252.0 790.1,236.3 791.1,238.6 792.1,240.9 793.0,199.5 794.0,194.9 795.0,224.5 796.0,218.0 796.9,223.5 797.9,216.6 798.9,216.7 799.9,233.2 800.8,236.3 801.8,237.1 802.8,245.8 803.8,238.2 804.7,237.1 805.7,230.8 806.7,207.1 807.7,236.3 808.6,233.2 809.6,240.9 810.6,213.1 811.6,223.4 812.5,236.4 813.5,227.7 814.5,224.6 815.5,230.2 816.4,214.8 817.4,222.2 818.4,216.8 819.3,223.3 820.3,229.9 821.3,224.9 822.3,227.8 823.2,257.6 824.2,230.2 825.2,236.7 826.2,235.8 827.1,223.4 828.1,231.8 829.1,223.4 830.1,223.3 831.0,211.7 832.0,242.1 833.0,225.6 834.0,200.2 834.9,220.4 835.9,223.3 836.9,223.4 837.9,214.7 838.8,233.5 839.8,223.3 840.8,238.6 841.8,223.3 842.7,241.1 843.7,240.4 844.7,223.4 845.7,225.0 846.6,198.4 847.6,237.3 848.6,299.1 849.5,332.3 850.5,333.7 851.5,330.9 852.5,331.5 853.4,256.7 854.4,327.6 855.4,327.7 856.4,331.7 857.3,333.7 858.3,332.3 859.3,331.6 860.3,322.4 861.2,331.5 862.2,332.9 863.2,331.0 864.2,328.4 865.1,333.2 866.1,329.7 867.1,329.7 868.1,329.6 869.0,330.4 870.0,331.5 871.0,327.6 872.0,331.5 872.9,329.1 873.9,327.7 874.9,330.3 875.9,328.4 876.8,331.3 877.8,335.3 878.8,331.5 879.8,330.0 880.7,331.5 881.7,330.0 882.7,331.6 883.6,327.6 884.6,329.0 885.6,330.0 886.6,328.8 887.5,326.0 888.5,327.7 889.5,327.5 890.5,329.2 891.4,328.1 892.4,327.6 893.4,329.0 894.4,331.5 895.3,327.6 896.3,329.6 897.3,328.9 898.3,331.5 899.2,331.5 900.2,330.1 901.2,322.8 902.2,329.3 903.1,331.5 904.1,331.8 905.1,331.3 906.1,329.1 907.0,331.5 908.0,332.5 909.0,325.5 910.0,325.9 910.9,328.4 911.9,324.7 912.9,330.2 913.8,327.0 914.8,328.8 915.8,329.0 916.8,327.6 917.7,326.7 918.7,331.4 919.7,326.1 920.7,332.9 921.6,327.7 922.6,323.0 923.6,325.8 924.6,322.4 925.5,317.8 926.5,322.7 927.5,322.8 928.5,322.7 929.4,326.8 930.4,322.8 931.4,323.1 932.4,325.0 933.3,322.8 934.3,322.0 935.3,325.5 936.3,322.4 937.2,322.0 938.2,322.8 939.2,322.6 940.2,322.4 941.1,322.4 942.1,322.4 943.1,322.4 944.1,322.7 945.0,322.7 946.0,322.7" fill="none" stroke="#d97706" stroke-width="2.2" stroke-linejoin="round" stroke-linecap="round"/>
<line x1="76" y1="70" x2="94" y2="70" stroke="#2563eb" stroke-width="3"/>
<text x="100" y="74" font-family="Arial, sans-serif" font-size="11" fill="#0f172a">avg fee</text>
<line x1="179" y1="70" x2="197" y2="70" stroke="#059669" stroke-width="3"/>
<text x="203" y="74" font-family="Arial, sans-serif" font-size="11" fill="#0f172a">median fee</text>
<line x1="303" y1="70" x2="321" y2="70" stroke="#d97706" stroke-width="3"/>
<text x="327" y="74" font-family="Arial, sans-serif" font-size="11" fill="#0f172a">p90 fee</text>
<text x="28" y="404" font-family="Arial, sans-serif" font-size="11" fill="#64748b">Source: hourly_features.csv</text>
</svg>