<svg xmlns="http://www.w3.org/2000/svg" width="980" height="420" viewBox="0 0 980 420">
<rect width="100%" height="100%" fill="#ffffff"/>
<text x="28" y="34" font-family="Arial, sans-serif" font-size="20" font-weight="700" fill="#0f172a">Hourly fee trend</text>
<text x="28" y="56" font-family="Arial, sans-serif" font-size="12" fill="#64748b">Average, median, and p90 total fee by hour</text>
<line x1="76" y1="362.0" x2="946" y2="362.0" stroke="#e2e8f0" stroke-width="1"/>
<text x="68" y="366.0" font-family="Arial, sans-serif" font-size="10" text-anchor="end" fill="#64748b">-128K</text>
<line x1="76" y1="292.0" x2="946" y2="292.0" stroke="#e2e8f0" stroke-width="1"/>
<text x="68" y="296.0" font-family="Arial, sans-serif" font-size="10" text-anchor="end" fill="#64748b">2.8M</text>
<line x1="76" y1="222.0" x2="946" y2="222.0" stroke="#e2e8f0" stroke-width="1"/>
<text x="68" y="226.0" font-family="Arial, sans-serif" font-size="10" text-anchor="end" fill="#64748b">5.8M</text>
<line x1="76" y1="152.0" x2="946" y2="152.0" stroke="#e2e8f0" stroke-width="1"/>
<text x="68" y="156.0" font-family="Arial, sans-serif" font-size="10" text-anchor="end" fill="#64748b">8.7M</text>
<line x1="76" y1="82.0" x2="946" y2="82.0" stroke="#e2e8f0" stroke-width="1"/>
<text x="68" y="86.0" font-family="Arial, sans-serif" font-size="10" text-anchor="end" fill="#64748b">11.7M</text>
<line x1="76" y1="362" x2="946" y2="362" stroke="#334155" stroke-width="1"/>
<line x1="76" y1="82" x2="76" y2="362" stroke="#334155" stroke-width="1"/>
<text x="76" y="72" font-family="Arial, sans-serif" font-size="11" fill="#64748b">nanoton</text>
<line x1="76.0" y1="362" x2="76.0" y2="366" stroke="#334155" stroke-width="1"/>
<text x="76.0" y="380" font-family="Arial, sans-serif" font-size="10" text-anchor="middle" fill="#64748b">0</text>
<line x1="511.0" y1="362" x2="511.0" y2="366" stroke="#334155" stroke-width="1"/>
<text x="511.0" y="380" font-family="Arial, sans-serif" font-size="10" text-anchor="middle" fill="#64748b">396</text>
<line x1="946.0" y1="362" x2="946.0" y2="366" stroke="#334155" stroke-width="1"/>
<text x="946.0" y="380" font-family="Arial, sans-serif" font-size="10" text-anchor="middle" fill="#64748b">792</text>
<polyline points="76.0,295.2 77.1,299.1 78.2,300.5 79.3,302.7 80.4,309.6 81.5,301.7 82.6,302.8 83.7,299.1 84.8,303.6 85.9,303.3 87.0,292.1 88.1,304.1 89.2,304.3 90.3,301.9 91.4,304.9 92.5,305.1 93.6,296.9 94.7,297.0 95.8,306.0 96.9,295.6 98.0,293.6 99.1,291.7 100.2,298.3 101.3,298.7 102.4,300.6 103.5,296.5 104.6,302.3 105.7,295.0 106.8,297.7 107.9,292.7 109.0,293.4 110.1,277.2 111.2,288.9 112.2,289.6 113.3,299.1 114.4,304.5 115.5,297.4 116.6,299.4 117.7,309.4 118.8,312.2 119.9,306.8 121.0,301.5 122.1,303.2 123.2,302.5 124.3,309.1 125.4,302.0 126.5,299.0 127.6,301.0 128.7,303.3 129.8,307.8 130.9,307.8 132.0,306.6 133.1,304.9 134.2,308.0 135.3,306.9 136.4,304.0 137.5,303.7 138.6,307.5 139.7,303.7 140.8,306.0 141.9,311.6 143.0,313.5 144.1,311.2 145.2,311.9 146.3,313.9 147.4,310.7 148.5,310.3 149.6,306.7 150.7,313.3 151.8,295.1 152.9,311.2 154.0,311.1 155.1,311.1 156.2,316.1 157.3,311.9 158.4,315.1 159.5,313.9 160.6,310.2 161.7,310.2 162.8,307.9 163.9,308.2 165.0,306.0 166.1,309.9 167.2,312.2 168.3,311.7 169.4,312.9 170.5,309.8 171.6,307.6 172.7,307.4 173.8,303.1 174.9,309.6 176.0,301.6 177.1,303.9 178.2,304.9 179.3,308.6 180.4,316.5 181.5,304.7 182.6,305.1 183.7,313.8 184.8,312.3 185.8,304.9 186.9,309.0 188.0,309.8 189.1,307.3 190.2,305.1 191.3,302.0 192.4,303.3 193.5,306.6 194.6,312.9 195.7,312.2 196.8,312.2 197.9,307.8 199.0,306.6 200.1,308.9 201.2,308.6 202.3,308.7 203.4,313.1 204.5,313.8 205.6,312.1 206.7,305.7 207.8,291.2 208.9,306.3 210.0,303.4 211.1,300.6 212.2,304.2 213.3,310.2 214.4,306.2 215.5,309.7 216.6,306.8 217.7,309.6 218.8,311.5 219.9,309.6 221.0,305.4 222.1,309.5 223.2,312.7 224.3,307.1 225.4,306.4 226.5,307.8 227.6,308.1 228.7,303.5 229.8,303.0 230.9,302.6 232.0,293.8 233.1,301.4 234.2,300.9 235.3,300.0 236.4,304.2 237.5,303.6 238.6,309.4 239.7,308.7 240.8,308.5 241.9,303.8 243.0,305.8 244.1,310.4 245.2,309.2 246.3,317.0 247.4,310.5 248.5,309.0 249.6,311.8 250.7,311.7 251.8,306.6 252.9,308.5 254.0,305.4 255.1,306.3 256.2,304.8 257.2,303.3 258.3,295.0 259.4,300.6 260.5,305.2 261.6,301.1 262.7,307.4 263.8,307.2 264.9,307.7 266.0,307.3 267.1,307.5 268.2,308.4 269.3,304.7 270.4,310.3 271.5,307.6 272.6,303.8 273.7,307.5 274.8,311.5 275.9,310.9 277.0,311.5 278.1,303.0 279.2,306.3 280.3,302.4 281.4,308.5 282.5,304.8 283.6,304.1 284.7,300.2 285.8,302.8 286.9,303.0 288.0,298.2 289.1,304.5 290.2,302.5 291.3,303.2 292.4,298.6 293.5,302.4 294.6,282.1 295.7,288.5 296.8,299.7 297.9,300.2 299.0,298.9 300.1,305.4 301.2,309.0 302.3,307.1 303.4,306.8 304.5,302.5 305.6,299.8 306.7,301.1 307.8,295.8 308.9,296.4 310.0,295.0 311.1,294.4 312.2,304.3 313.3,296.4 314.4,301.3 315.5,304.4 316.6,308.5 317.7,307.1 318.8,306.7 319.9,306.9 321.0,305.5 322.1,308.2 323.2,300.4 324.3,302.3 325.4,309.2 326.5,309.0 327.6,304.1 328.7,308.6 329.8,308.2 330.8,303.6 331.9,293.1 333.0,298.2 334.1,298.7 335.2,308.4 336.3,300.1 337.4,301.5 338.5,310.3 339.6,299.3 340.7,305.1 341.8,309.9 342.9,313.3 344.0,310.2 345.1,308.7 346.2,305.3 347.3,308.5 348.4,303.9 349.5,307.7 350.6,309.7 351.7,307.7 352.8,303.9 353.9,298.9 355.0,304.6 356.1,290.6 357.2,306.8 358.3,298.4 359.4,302.5 360.5,304.1 361.6,302.0 362.7,298.9 363.8,315.2 364.9,296.0 366.0,300.1 367.1,285.8 368.2,299.1 369.3,297.7 370.4,299.5 371.5,295.4 372.6,305.7 373.7,284.1 374.8,301.8 375.9,296.3 377.0,295.9 378.1,287.5 379.2,302.9 380.3,305.0 381.4,303.2 382.5,292.7 383.6,303.6 384.7,309.1 385.8,302.3 386.9,300.0 388.0,284.0 389.1,288.4 390.2,305.1 391.3,304.5 392.4,302.7 393.5,297.8 394.6,307.8 395.7,307.7 396.8,303.2 397.9,301.3 399.0,301.9 400.1,306.0 401.2,302.7 402.2,316.3 403.3,304.0 404.4,308.2 405.5,305.8 406.6,307.6 407.7,309.0 408.8,302.4 409.9,298.9 411.0,303.9 412.1,299.6 413.2,306.4 414.3,297.0 415.4,302.2 416.5,298.4 417.6,294.4 418.7,299.6 419.8,309.3 420.9,295.5 422.0,305.0 423.1,300.4 424.2,297.5 425.3,296.0 426.4,301.4 427.5,301.7 428.6,302.5 429.7,304.1 430.8,297.3 431.9,290.6 433.0,294.5 434.1,304.6 435.2,299.0 436.3,305.5 437.4,307.7 438.5,303.7 439.6,307.2 440.7,299.7 441.8,301.6 442.9,307.4 444.0,306.3 445.1,307.6 446.2,313.5 447.3,311.5 448.4,310.8 449.5,311.3 450.6,309.0 451.7,309.2 452.8,302.9 453.9,305.8 455.0,307.8 456.1,308.0 457.2,308.9 458.3,307.0 459.4,304.0 460.5,309.2 461.6,311.9 462.7,301.9 463.8,303.5 464.9,302.6 466.0,304.3 467.1,302.4 468.2,305.6 469.3,291.6 470.4,298.8 471.5,299.3 472.6,303.2 473.7,295.8 474.8,303.0 475.8,299.1 476.9,303.3 478.0,308.9 479.1,286.4 480.2,294.2 481.3,303.4 482.4,299.7 483.5,297.8 484.6,299.2 485.7,309.1 486.8,301.4 487.9,306.3 489.0,301.3 490.1,300.1 491.2,297.4 492.3,296.1 493.4,291.0 494.5,292.1 495.6,298.7 496.7,297.1 497.8,302.0 498.9,307.8 500.0,301.3 501.1,308.8 502.2,303.2 503.3,302.4 504.4,304.0 505.5,301.7 506.6,301.1 507.7,310.3 508.8,306.6 509.9,309.2 511.0,307.6 512.1,308.1 513.2,307.4 514.3,309.2 515.4,306.4 516.5,304.6 517.6,301.8 518.7,299.5 519.8,309.8 520.9,307.4 522.0,308.4 523.1,307.5 524.2,303.1 525.3,260.7 526.4,295.4 527.5,303.1 528.6,300.8 529.7,305.6 530.8,306.3 531.9,304.5 533.0,303.9 534.1,304.2 535.2,300.5 536.3,304.0 537.4,310.3 538.5,311.2 539.6,305.5 540.7,307.4 541.8,299.5 542.9,306.9 544.0,301.4 545.1,309.6 546.2,303.7 547.2,300.1 548.3,299.6 549.4,305.5 550.5,305.6 551.6,305.3 552.7,309.2 553.8,297.0 554.9,308.2 556.0,310.8 557.1,300.0 558.2,302.0 559.3,307.5 560.4,300.4 561.5,304.1 562.6,308.7 563.7,306.3 564.8,308.5 565.9,305.4 567.0,310.9 568.1,310.4 569.2,305.4 570.3,307.9 571.4,301.6 572.5,304.8 573.6,296.8 574.7,296.4 575.8,296.5 576.9,303.9 578.0,303.0 579.1,303.4 580.2,306.2 581.3,304.2 582.4,310.0 583.5,304.9 584.6,305.2 585.7,309.4 586.8,303.8 587.9,309.1 589.0,304.3 590.1,311.2 591.2,303.7 592.3,309.2 593.4,308.0 594.5,302.6 595.6,267.5 596.7,307.6 597.8,309.3 598.9,306.0 600.0,305.4 601.1,302.9 602.2,304.6 603.3,307.4 604.4,303.2 605.5,308.7 606.6,307.4 607.7,307.7 608.8,305.8 609.9,313.1 611.0,309.2 612.1,313.9 613.2,309.3 614.3,308.4 615.4,309.6 616.5,308.3 617.6,310.1 618.7,304.1 619.8,310.0 620.8,301.6 621.9,306.9 623.0,292.4 624.1,299.1 625.2,304.3 626.3,291.7 627.4,303.6 628.5,303.0 629.6,301.4 630.7,305.8 631.8,304.1 632.9,307.3 634.0,303.9 635.1,307.7 636.2,302.6 637.3,306.3 638.4,310.1 639.5,309.2 640.6,294.8 641.7,307.8 642.8,304.2 643.9,307.0 645.0,307.8 646.1,309.4 647.2,300.8 648.3,306.3 649.4,297.3 650.5,302.8 651.6,299.3 652.7,298.0 653.8,304.0 654.9,302.0 656.0,305.1 657.1,300.2 658.2,306.2 659.3,286.9 660.4,301.9 661.5,295.6 662.6,305.4 663.7,285.5 664.8,308.3 665.9,296.5 667.0,301.1 668.1,305.6 669.2,298.4 670.3,299.8 671.4,310.0 672.5,309.4 673.6,304.9 674.7,306.6 675.8,302.1 676.9,299.5 678.0,301.1 679.1,297.1 680.2,303.3 681.3,295.5 682.4,294.3 683.5,297.2 684.6,307.3 685.7,308.2 686.8,306.3 687.9,302.1 689.0,307.7 690.1,307.2 691.2,303.9 692.2,304.6 693.3,300.2 694.4,305.3 695.5,307.2 696.6,306.9 697.7,305.4 698.8,310.1 699.9,309.8 701.0,305.7 702.1,298.7 703.2,305.6 704.3,303.5 705.4,294.8 706.5,300.4 707.6,298.6 708.7,306.0 709.8,302.8 710.9,303.8 712.0,307.3 713.1,305.6 714.2,303.8 715.3,307.3 716.4,308.3 717.5,304.2 718.6,309.1 719.7,302.7 720.8,307.3 721.9,309.6 723.0,308.0 724.1,308.5 725.2,310.5 726.3,299.1 727.4,311.5 728.5,308.4 729.6,299.7 730.7,298.6 731.8,298.1 732.9,300.4 734.0,300.5 735.1,302.7 736.2,289.0 737.3,299.4 738.4,303.2 739.5,300.8 740.6,298.7 741.7,305.3 742.8,298.8 743.9,300.5 745.0,308.5 746.1,300.3 747.2,307.2 748.3,302.2 749.4,304.7 750.5,305.4 751.6,302.9 752.7,299.3 753.8,300.4 754.9,307.7 756.0,300.1 757.1,300.5 758.2,299.7 759.3,299.8 760.4,299.5 761.5,304.6 762.6,303.6 763.7,300.4 764.8,308.0 765.8,307.6 766.9,302.8 768.0,310.3 769.1,305.5 770.2,305.1 771.3,310.0 772.4,300.4 773.5,306.5 774.6,307.9 775.7,309.3 776.8,303.7 777.9,305.6 779.0,302.5 780.1,303.3 781.2,301.8 782.3,305.4 783.4,300.5 784.5,297.5 785.6,288.5 786.7,303.4 787.8,298.4 788.9,303.5 790.0,303.4 791.1,302.5 792.2,295.5 793.3,296.8 794.4,302.8 795.5,302.1 796.6,302.1 797.7,303.1 798.8,292.6 799.9,301.0 801.0,301.9 802.1,306.4 803.2,305.6 804.3,310.1 805.4,300.3 806.5,299.6 807.6,304.4 808.7,294.0 809.8,301.3 810.9,299.7 812.0,299.7 813.1,299.3 814.2,302.0 815.3,304.1 816.4,300.3 817.5,301.6 818.6,296.2 819.7,289.4 820.8,304.3 821.9,305.7 823.0,298.1 824.1,307.0 825.2,302.1 826.3,312.4 827.4,297.0 828.5,309.6 829.6,308.8 830.7,296.4 831.8,309.9 832.9,302.3 834.0,302.7 835.1,312.2 836.2,310.1 837.2,298.5 838.3,288.8 839.4,300.2 840.5,285.8 841.6,300.3 842.7,311.9 843.8,308.2 844.9,303.8 846.0,306.2 847.1,313.8 848.2,292.1 849.3,297.8 850.4,319.2 851.5,305.4 852.6,308.9 853.7,303.8 854.8,310.1 855.9,302.0 857.0,308.2 858.1,301.8 859.2,290.5 860.3,300.1 861.4,297.8 862.5,299.8 863.6,297.1 864.7,299.5 865.8,302.1 866.9,307.9 868.0,312.6 869.1,299.7 870.2,311.4 871.3,309.8 872.4,310.1 873.5,307.8 874.6,302.0 875.7,298.0 876.8,309.7 877.9,315.3 879.0,311.3 880.1,314.3 881.2,308.7 882.3,312.6 883.4,313.0 884.5,303.6 885.6,292.6 886.7,301.7 887.8,302.7 888.9,303.1 890.0,303.3 891.1,299.7 892.2,310.6 893.3,312.6 894.4,309.1 895.5,314.2 896.6,311.5 897.7,307.9 898.8,308.3 899.9,301.0 901.0,308.8 902.1,310.2 903.2,313.0 904.3,296.3 905.4,306.5 906.5,310.1 907.6,306.9 908.7,305.5 909.8,307.4 910.8,299.5 911.9,299.5 913.0,299.8 914.1,303.7 915.2,303.6 916.3,305.6 917.4,309.3 918.5,312.1 919.6,307.8 920.7,305.5 921.8,307.7 922.9,295.3 924.0,305.8 925.1,306.6 926.2,306.7 927.3,300.2 928.4,311.3 929.5,308.8 930.6,293.2 931.7,302.0 932.8,299.8 933.9,300.2 935.0,300.6 936.1,311.1 937.2,304.9 938.3,309.7 939.4,300.2 940.5,308.3 941.6,309.9 942.7,307.3 943.8,306.3 944.9,289.5 946.0,309.8" fill="none" stroke="#2563eb" stroke-width="2.2" stroke-linejoin="round" stroke-linecap="round"/>
<polyline points="76.0,316.3 77.1,330.1 78.2,339.5 79.3,339.9 80.4,340.4 81.5,340.0 82.6,339.7 83.7,336.1 84.8,340.0 85.9,340.0 87.0,325.5 88.1,340.0 89.2,339.6 90.3,336.0 91.4,339.8 92.5,339.2 93.6,326.2 94.7,335.8 95.8,337.7 96.9,315.5 98.0,307.6 99.1,310.7 100.2,325.5 101.3,320.4 102.4,315.3 103.5,335.1 104.6,338.8 105.7,317.4 106.8,340.4 107.9,324.1 109.0,335.8 110.1,288.1 111.2,305.0 112.2,308.0 113.3,313.1 114.4,336.6 115.5,317.4 116.6,315.5 117.7,340.3 118.8,340.4 119.9,335.0 121.0,315.4 122.1,315.4 123.2,317.4 124.3,346.3 125.4,340.3 126.5,313.7 127.6,315.1 128.7,340.3 129.8,340.7 130.9,339.5 132.0,338.8 133.1,339.3 134.2,340.0 135.3,336.8 136.4,340.0 137.5,336.2 138.6,339.7 139.7,340.0 140.8,339.5 141.9,340.4 143.0,340.3 144.1,340.3 145.2,349.6 146.3,341.2 147.4,340.3 148.5,340.3 149.6,336.0 150.7,349.6 151.8,341.0 152.9,341.6 154.0,341.6 155.1,340.4 156.2,343.6 157.3,341.6 158.4,341.5 159.5,340.5 160.6,340.4 161.7,340.4 162.8,339.9 163.9,340.4 165.0,340.0 166.1,340.0 167.2,340.4 168.3,340.4 169.4,340.4 170.5,339.7 171.6,340.3 172.7,340.2 173.8,336.0 174.9,340.1 176.0,317.1 177.1,334.9 178.2,336.4 179.3,339.2 180.4,349.6 181.5,335.9 182.6,339.2 183.7,340.4 184.8,341.6 185.8,340.1 186.9,340.1 188.0,340.2 189.1,339.9 190.2,336.3 191.3,335.8 192.4,336.8 193.5,338.4 194.6,340.4 195.7,340.3 196.8,340.3 197.9,339.5 199.0,340.3 200.1,340.3 201.2,336.8 202.3,337.7 203.4,341.6 204.5,349.6 205.6,341.5 206.7,340.4 207.8,314.9 208.9,340.3 210.0,339.9 211.1,340.1 212.2,339.2 213.3,340.3 214.4,339.4 215.5,340.3 216.6,340.3 217.7,340.3 218.8,340.4 219.9,340.1 221.0,338.5 222.1,340.3 223.2,340.4 224.3,340.4 225.4,339.5 226.5,339.6 227.6,335.6 228.7,315.4 229.8,303.3 230.9,314.6 232.0,309.1 233.1,315.0 234.2,315.0 235.3,332.9 236.4,338.3 237.5,339.2 238.6,339.2 239.7,340.3 240.8,340.3 241.9,339.2 243.0,340.1 244.1,340.1 245.2,340.0 246.3,349.6 247.4,340.3 248.5,340.3 249.6,340.4 250.7,340.4 251.8,339.2 252.9,339.8 254.0,336.2 255.1,324.8 256.2,303.3 257.2,339.4 258.3,332.1 259.4,340.1 260.5,337.1 261.6,337.1 262.7,336.7 263.8,340.1 264.9,339.8 266.0,340.0 267.1,340.0 268.2,336.0 269.3,336.0 270.4,340.3 271.5,339.7 272.6,336.3 273.7,340.0 274.8,340.4 275.9,340.0 277.0,340.3 278.1,335.8 279.2,339.7 280.3,320.5 281.4,340.0 282.5,303.3 283.6,339.4 284.7,335.0 285.8,337.9 286.9,337.1 288.0,315.4 289.1,337.1 290.2,337.6 291.3,340.0 292.4,329.0 293.5,339.3 294.6,300.3 295.7,303.3 296.8,332.3 297.9,336.4 299.0,336.0 300.1,337.6 301.2,340.0 302.3,340.1 303.4,339.5 304.5,330.0 305.6,320.0 306.7,313.4 307.8,310.1 308.9,303.3 310.0,311.3 311.1,310.1 312.2,337.1 313.3,310.2 314.4,322.0 315.5,338.8 316.6,340.4 317.7,339.5 318.8,340.4 319.9,340.3 321.0,339.1 322.1,340.4 323.2,324.8 324.3,324.8 325.4,339.5 326.5,339.2 327.6,338.8 328.7,340.1 329.8,340.0 330.8,336.6 331.9,310.1 333.0,313.0 334.1,313.1 335.2,303.3 336.3,315.0 337.4,340.9 338.5,341.6 339.6,317.4 340.7,339.9 341.8,341.6 342.9,341.3 344.0,341.6 345.1,340.4 346.2,339.2 347.3,339.7 348.4,339.8 349.5,338.9 350.6,340.0 351.7,339.8 352.8,334.9 353.9,313.8 355.0,339.5 356.1,313.0 357.2,339.8 358.3,315.5 359.4,315.1 360.5,330.3 361.6,310.2 362.7,324.8 363.8,349.6 364.9,320.5 366.0,339.5 367.1,313.0 368.2,314.7 369.3,335.3 370.4,339.5 371.5,340.4 372.6,338.6 373.7,329.0 374.8,339.2 375.9,313.0 377.0,310.9 378.1,329.0 379.2,320.5 380.3,338.8 381.4,337.9 382.5,307.9 383.6,339.5 384.7,340.0 385.8,331.7 386.9,339.2 388.0,325.9 389.1,339.0 390.2,339.1 391.3,339.4 392.4,336.0 393.5,337.1 394.6,339.1 395.7,340.0 396.8,339.2 397.9,338.4 399.0,315.5 400.1,340.1 401.2,336.0 402.2,351.5 403.3,339.2 404.4,340.1 405.5,339.1 406.6,340.1 407.7,340.1 408.8,315.5 409.9,320.3 411.0,337.3 412.1,315.4 413.2,337.0 414.3,310.1 415.4,335.8 416.5,332.1 417.6,306.9 418.7,314.5 419.8,341.3 420.9,338.8 422.0,340.3 423.1,339.8 424.2,311.3 425.3,311.3 426.4,323.3 427.5,325.2 428.6,328.7 429.7,337.1 430.8,315.5 431.9,310.1 433.0,313.0 434.1,337.1 435.2,309.9 436.3,335.8 437.4,339.4 438.5,332.0 439.6,336.0 440.7,310.1 441.8,313.0 442.9,339.2 444.0,339.4 445.1,340.4 446.2,346.3 447.3,341.6 448.4,341.5 449.5,340.4 450.6,341.6 451.7,341.2 452.8,339.2 453.9,339.8 455.0,340.3 456.1,340.2 457.2,340.3 458.3,340.0 459.4,337.1 460.5,339.8 461.6,340.4 462.7,334.4 463.8,336.0 464.9,331.0 466.0,330.5 467.1,313.0 468.2,338.9 469.3,313.2 470.4,315.1 471.5,335.8 472.6,324.7 473.7,313.1 474.8,340.0 475.8,323.7 476.9,341.2 478.0,340.4 479.1,302.1 480.2,310.1 481.3,330.5 482.4,330.9 483.5,324.0 484.6,315.1 485.7,340.3 486.8,326.4 487.9,339.5 489.0,336.8 490.1,335.0 491.2,314.4 492.3,313.2 493.4,303.3 494.5,307.3 495.6,310.2 496.7,313.8 497.8,337.1 498.9,339.4 500.0,334.9 501.1,340.1 502.2,339.2 503.3,340.4 504.4,339.4 505.5,339.4 506.6,330.5 507.7,340.3 508.8,339.9 509.9,340.0 511.0,340.1 512.1,340.1 513.2,340.1 514.3,340.0 515.4,339.4 516.5,332.1 517.6,331.9 518.7,310.2 519.8,348.6 520.9,340.7 522.0,349.6 523.1,340.4 524.2,334.3 525.3,305.7 526.4,339.6 527.5,339.5 528.6,320.6 529.7,340.4 530.8,339.5 531.9,340.0 533.0,338.9 534.1,335.8 535.2,335.7 536.3,339.2 537.4,340.4 538.5,340.4 539.6,338.5 540.7,339.7 541.8,315.3 542.9,337.3 544.0,315.0 545.1,338.0 546.2,310.2 547.2,314.6 548.3,315.5 549.4,335.3 550.5,339.2 551.6,337.8 552.7,340.7 553.8,323.3 554.9,340.1 556.0,341.6 557.1,336.7 558.2,330.9 559.3,340.0 560.4,336.6 561.5,337.1 562.6,340.1 563.7,339.9 564.8,339.2 565.9,336.0 567.0,340.3 568.1,340.2 569.2,337.1 570.3,338.6 571.4,315.5 572.5,335.8 573.6,313.0 574.7,313.2 575.8,310.1 576.9,335.7 578.0,332.1 579.1,335.7 580.2,340.3 581.3,336.8 582.4,340.4 583.5,340.0 584.6,339.5 585.7,340.3 586.8,340.1 587.9,340.4 589.0,339.2 590.1,340.4 591.2,338.6 592.3,340.0 593.4,340.4 594.5,338.1 595.6,287.9 596.7,339.2 597.8,340.4 598.9,324.4 600.0,336.4 601.1,335.0 602.2,337.1 603.3,339.5 604.4,340.0 605.5,340.3 606.6,340.1 607.7,340.0 608.8,340.2 609.9,340.4 611.0,340.3 612.1,340.4 613.2,340.3 614.3,340.1 615.4,340.3 616.5,340.4 617.6,340.1 618.7,339.5 619.8,341.1 620.8,339.5 621.9,339.8 623.0,310.1 624.1,324.7 625.2,314.2 626.3,305.3 627.4,315.2 628.5,335.8 629.6,315.5 630.7,335.8 631.8,338.4 632.9,340.1 634.0,339.2 635.1,339.5 636.2,336.2 637.3,340.1 638.4,340.3 639.5,340.3 640.6,310.1 641.7,339.8 642.8,336.3 643.9,340.4 645.0,339.2 646.1,340.4 647.2,339.2 648.3,340.3 649.4,315.4 650.5,339.7 651.6,311.2 652.7,313.2 653.8,339.2 654.9,336.2 656.0,339.5 657.1,335.0 658.2,339.7 659.3,310.1 660.4,336.0 661.5,334.1 662.6,339.2 663.7,300.3 664.8,340.0 665.9,315.4 667.0,315.5 668.1,339.2 669.2,323.4 670.3,323.5 671.4,339.5 672.5,340.3 673.6,339.5 674.7,339.5 675.8,335.7 676.9,313.0 678.0,313.0 679.1,315.0 680.2,339.2 681.3,315.5 682.4,315.2 683.5,332.5 684.6,337.3 685.7,340.4 686.8,340.0 687.9,339.4 689.0,340.0 690.1,339.9 691.2,336.0 692.2,338.9 693.3,336.9 694.4,340.0 695.5,339.5 696.6,339.2 697.7,336.0 698.8,340.1 699.9,340.3 701.0,337.3 702.1,311.8 703.2,331.3 704.3,310.1 705.4,311.2 706.5,313.8 707.6,311.2 708.7,340.0 709.8,332.2 710.9,339.2 712.0,338.5 713.1,339.5 714.2,340.4 715.3,340.0 716.4,339.3 717.5,339.2 718.6,340.1 719.7,336.0 720.8,337.1 721.9,340.3 723.0,339.5 724.1,340.0 725.2,340.3 726.3,332.7 727.4,340.4 728.5,339.0 729.6,324.8 730.7,307.6 731.8,315.0 732.9,332.7 734.0,332.0 735.1,328.7 736.2,303.3 737.3,315.5 738.4,336.5 739.5,336.0 740.6,340.0 741.7,329.7 742.8,329.0 743.9,335.7 745.0,339.2 746.1,336.0 747.2,340.0 748.3,329.1 749.4,338.5 750.5,339.5 751.6,330.9 752.7,313.9 753.8,320.5 754.9,339.2 756.0,313.3 757.1,311.3 758.2,313.0 759.3,315.0 760.4,317.4 761.5,336.3 762.6,337.3 763.7,323.0 764.8,340.0 765.8,340.4 766.9,340.4 768.0,340.4 769.1,340.0 770.2,339.2 771.3,340.3 772.4,335.7 773.5,339.7 774.6,340.0 775.7,339.6 776.8,339.2 777.9,340.4 779.0,336.0 780.1,339.2 781.2,320.5 782.3,336.0 783.4,310.1 784.5,329.6 785.6,311.3 786.7,337.1 787.8,313.8 788.9,339.2 790.0,339.2 791.1,336.5 792.2,315.5 793.3,339.2 794.4,335.3 795.5,332.4 796.6,329.0 797.7,335.3 798.8,309.8 799.9,317.4 801.0,339.2 802.1,337.3 803.2,334.9 804.3,339.2 805.4,328.0 806.5,313.1 807.6,315.2 808.7,309.9 809.8,310.1 810.9,313.0 812.0,315.5 813.1,315.0 814.2,324.7 815.3,330.9 816.4,336.1 817.5,336.2 818.6,310.1 819.7,310.0 820.8,339.2 821.9,336.3 823.0,310.1 824.1,340.1 825.2,313.1 826.3,339.4 827.4,340.1 828.5,338.2 829.6,338.3 830.7,313.0 831.8,340.4 832.9,335.7 834.0,315.2 835.1,335.3 836.2,332.0 837.2,310.7 838.3,311.2 839.4,329.0 840.5,301.3 841.6,339.5 842.7,340.4 843.8,340.4 844.9,336.9 846.0,340.1 847.1,340.4 848.2,309.0 849.3,313.0 850.4,340.4 851.5,337.1 852.6,339.8 853.7,336.6 854.8,340.1 855.9,337.1 857.0,326.6 858.1,340.3 859.2,337.2 860.3,315.3 861.4,313.1 862.5,310.1 863.6,310.7 864.7,310.4 865.8,329.8 866.9,336.0 868.0,339.9 869.1,337.0 870.2,340.4 871.3,340.4 872.4,340.4 873.5,327.6 874.6,340.3 875.7,336.4 876.8,340.4 877.9,349.6 879.0,349.6 880.1,349.6 881.2,340.0 882.3,340.4 883.4,340.4 884.5,339.7 885.6,316.5 886.7,313.8 887.8,313.0 888.9,312.9 890.0,335.6 891.1,313.4 892.2,342.9 893.3,340.4 894.4,340.4 895.5,340.4 896.6,337.1 897.7,337.3 898.8,339.5 899.9,335.8 901.0,340.0 902.1,340.4 903.2,340.3 904.3,317.4 905.4,339.2 906.5,337.3 907.6,339.2 908.7,337.1 909.8,336.3 910.8,315.5 911.9,313.4 913.0,319.0 914.1,332.3 915.2,309.5 916.3,346.3 917.4,347.1 918.5,340.4 919.6,340.0 920.7,340.0 921.8,329.7 922.9,322.9 924.0,351.6 925.1,340.0 926.2,340.3 927.3,323.0 928.4,349.6 929.5,339.4 930.6,326.9 931.7,338.1 932.8,330.7 933.9,339.2 935.0,318.7 936.1,340.0 937.2,333.8 938.3,336.6 939.4,310.1 940.5,336.3 941.6,314.8 942.7,336.7 943.8,335.5 944.9,295.3 946.0,340.7" fill="none" stroke="#059669" stroke-width="2.2" stroke-linejoin="round" stroke-linecap="round"/>
<polyline points="76.0,211.5 77.1,219.5 78.2,226.3 79.3,231.4 80.4,239.6 81.5,231.3 82.6,226.2 83.7,219.7 84.8,226.3 85.9,226.2 87.0,202.2 88.1,226.4 89.2,227.6 90.3,226.2 91.4,229.2 92.5,230.6 93.6,214.1 94.7,219.5 95.8,239.2 96.9,219.3 98.0,218.5 99.1,202.2 100.2,223.2 101.3,226.1 102.4,226.3 103.5,223.3 104.6,226.2 105.7,215.9 106.8,219.4 107.9,202.5 109.0,202.2 110.1,162.0 111.2,171.9 112.2,171.9 113.3,212.2 114.4,218.6 115.5,212.2 116.6,210.7 117.7,236.4 118.8,244.3 119.9,233.2 121.0,226.2 122.1,226.7 123.2,226.3 124.3,230.6 125.4,223.2 126.5,216.4 127.6,224.4 128.7,216.8 129.8,239.6 130.9,237.0 132.0,231.9 133.1,232.5 134.2,233.2 135.3,226.3 136.4,226.3 137.5,227.4 138.6,230.8 139.7,234.5 140.8,226.3 141.9,239.6 143.0,243.7 144.1,236.7 145.2,248.0 146.3,242.7 147.4,243.7 148.5,242.1 149.6,239.5 150.7,255.2 151.8,208.8 152.9,239.9 154.0,240.9 155.1,237.8 156.2,252.1 157.3,246.0 158.4,249.7 159.5,244.4 160.6,235.4 161.7,236.4 162.8,231.3 163.9,226.4 165.0,232.7 166.1,236.5 167.2,249.6 168.3,241.8 169.4,244.4 170.5,234.5 171.6,233.2 172.7,233.5 173.8,219.4 174.9,242.2 176.0,226.3 177.1,235.0 178.2,234.5 179.3,246.3 180.4,252.4 181.5,226.3 182.6,230.9 183.7,245.7 184.8,240.3 185.8,232.8 186.9,238.0 188.0,239.6 189.1,236.3 190.2,226.3 191.3,226.4 192.4,233.2 193.5,236.3 194.6,245.1 195.7,240.8 196.8,249.7 197.9,233.5 199.0,233.6 200.1,240.4 201.2,239.6 202.3,239.8 203.4,244.6 204.5,243.7 205.6,243.7 206.7,236.4 207.8,202.7 208.9,226.3 210.0,226.3 211.1,219.4 212.2,232.6 213.3,236.4 214.4,234.5 215.5,236.4 216.6,233.8 217.7,239.5 218.8,239.5 219.9,236.4 221.0,233.2 222.1,241.9 223.2,242.1 224.3,240.8 225.4,231.0 226.5,229.9 227.6,240.2 228.7,229.6 229.8,235.4 230.9,234.5 232.0,209.6 233.1,226.3 234.2,226.2 235.3,226.2 236.4,228.0 237.5,226.3 238.6,239.6 239.7,239.6 240.8,235.0 241.9,233.2 243.0,238.8 244.1,239.5 245.2,240.0 246.3,255.1 247.4,236.4 248.5,236.4 249.6,244.4 250.7,244.3 251.8,236.4 252.9,235.3 254.0,228.6 255.1,226.3 256.2,244.4 257.2,226.3 258.3,202.1 259.4,234.7 260.5,236.4 261.6,226.3 262.7,231.7 263.8,236.3 264.9,239.6 266.0,236.3 267.1,235.8 268.2,236.9 269.3,226.3 270.4,241.6 271.5,237.0 272.6,226.3 273.7,235.7 274.8,241.8 275.9,243.8 277.0,251.4 278.1,227.0 279.2,226.2 280.3,227.4 281.4,237.9 282.5,250.4 283.6,230.8 284.7,226.1 285.8,226.3 286.9,228.1 288.0,225.5 289.1,232.5 290.2,226.3 291.3,231.2 292.4,214.7 293.5,226.2 294.6,162.0 295.7,172.9 296.8,202.4 297.9,213.0 299.0,204.0 300.1,226.3 301.2,235.4 302.3,230.9 303.4,229.6 304.5,219.6 305.6,219.4 306.7,226.3 307.8,202.4 308.9,230.0 310.0,202.2 311.1,202.2 312.2,226.3 313.3,213.1 314.4,219.8 315.5,227.4 316.6,226.3 317.7,227.4 318.8,227.1 319.9,229.6 321.0,226.3 322.1,236.4 323.2,211.5 324.3,224.5 325.4,236.4 326.5,235.2 327.6,226.2 328.7,231.3 329.8,233.2 330.8,226.3 331.9,205.1 333.0,223.3 334.1,226.1 335.2,261.2 336.3,222.6 337.4,217.1 338.5,243.3 339.6,218.0 340.7,231.3 341.8,236.6 342.9,244.4 344.0,244.0 345.1,236.3 346.2,236.3 347.3,230.4 348.4,226.3 349.5,243.7 350.6,234.7 351.7,234.0 352.8,221.2 353.9,213.5 355.0,231.0 356.1,184.3 357.2,234.1 358.3,217.5 359.4,225.0 360.5,226.3 361.6,230.6 362.7,217.5 363.8,244.0 364.9,217.8 366.0,224.4 367.1,202.1 368.2,199.5 369.3,197.6 370.4,219.4 371.5,213.2 372.6,226.3 373.7,172.0 374.8,223.3 375.9,207.7 377.0,208.2 378.1,202.2 379.2,224.6 380.3,231.0 381.4,226.3 382.5,170.6 383.6,226.2 384.7,234.6 385.8,226.1 386.9,226.3 388.0,178.2 389.1,202.7 390.2,229.2 391.3,234.7 392.4,226.3 393.5,212.4 394.6,236.4 395.7,235.7 396.8,227.3 397.9,226.3 399.0,223.2 400.1,233.2 401.2,226.2 402.2,255.3 403.3,234.3 404.4,234.5 405.5,233.2 406.6,236.2 407.7,236.2 408.8,227.4 409.9,226.1 411.0,226.2 412.1,226.2 413.2,226.2 414.3,217.6 415.4,226.3 416.5,217.5 417.6,216.0 418.7,226.2 419.8,236.2 420.9,217.6 422.0,226.2 423.1,221.8 424.2,212.2 425.3,202.7 426.4,217.8 427.5,226.2 428.6,217.8 429.7,235.6 430.8,226.2 431.9,208.3 433.0,209.7 434.1,226.2 435.2,226.3 436.3,226.2 437.4,236.4 438.5,226.3 439.6,237.9 440.7,226.1 441.8,225.9 442.9,226.3 444.0,226.9 445.1,234.2 446.2,251.6 447.3,236.4 448.4,238.9 449.5,242.7 450.6,236.3 451.7,232.8 452.8,218.3 453.9,234.8 455.0,236.3 456.1,236.3 457.2,236.2 458.3,231.3 459.4,228.3 460.5,234.3 461.6,243.9 462.7,223.2 463.8,226.2 464.9,226.3 466.0,231.5 467.1,229.3 468.2,229.6 469.3,212.8 470.4,216.0 471.5,223.3 472.6,229.4 473.7,216.6 474.8,226.2 475.8,218.4 476.9,227.1 478.0,236.3 479.1,171.9 480.2,202.2 481.3,226.2 482.4,202.9 483.5,215.1 484.6,217.4 485.7,236.2 486.8,224.5 487.9,231.3 489.0,226.2 490.1,218.5 491.2,215.1 492.3,202.4 493.4,194.7 494.5,197.0 495.6,211.5 496.7,202.4 497.8,217.8 498.9,231.0 500.0,216.0 501.1,236.4 502.2,226.0 503.3,225.5 504.4,226.3 505.5,221.8 506.6,226.1 507.7,243.7 508.8,229.2 509.9,234.6 511.0,236.3 512.1,229.7 513.2,236.3 514.3,239.5 515.4,243.7 516.5,226.4 517.6,227.1 518.7,226.3 519.8,236.3 520.9,230.8 522.0,226.3 523.1,234.8 524.2,229.6 525.3,92.4 526.4,217.8 527.5,226.2 528.6,216.6 529.7,234.6 530.8,233.2 531.9,226.3 533.0,226.3 534.1,226.2 535.2,223.2 536.3,226.1 537.4,236.3 538.5,241.6 539.6,236.3 540.7,234.8 541.8,216.6 542.9,226.3 544.0,226.2 545.1,241.2 546.2,235.4 547.2,219.9 548.3,215.3 549.4,233.2 550.5,229.7 551.6,233.6 552.7,236.5 553.8,202.7 554.9,236.4 556.0,236.4 557.1,219.5 558.2,223.3 559.3,231.0 560.4,223.2 561.5,222.6 562.6,229.9 563.7,235.0 564.8,236.2 565.9,226.2 567.0,240.9 568.1,243.6 569.2,228.0 570.3,239.8 571.4,226.2 572.5,230.9 573.6,214.6 574.7,217.5 575.8,217.5 576.9,226.2 578.0,226.2 579.1,219.8 580.2,237.3 581.3,227.1 582.4,234.6 583.5,226.3 584.6,226.3 585.7,239.8 586.8,219.7 587.9,236.7 589.0,227.4 590.1,239.8 591.2,226.2 592.3,234.9 593.4,234.5 594.5,226.2 595.6,170.5 596.7,226.2 597.8,227.4 598.9,227.6 600.0,229.6 601.1,226.3 602.2,226.2 603.3,242.9 604.4,226.3 605.5,233.2 606.6,226.3 607.7,231.4 608.8,229.6 609.9,241.9 611.0,235.2 612.1,239.8 613.2,239.5 614.3,235.4 615.4,239.6 616.5,236.7 617.6,243.7 618.7,226.3 619.8,244.4 620.8,215.4 621.9,228.0 623.0,208.2 624.1,216.5 625.2,226.3 626.3,204.4 627.4,226.2 628.5,226.0 629.6,226.3 630.7,234.6 631.8,226.3 632.9,239.5 634.0,226.3 635.1,229.9 636.2,225.3 637.3,226.3 638.4,237.8 639.5,239.0 640.6,202.7 641.7,233.5 642.8,233.2 643.9,238.5 645.0,233.2 646.1,235.2 647.2,219.4 648.3,235.7 649.4,215.4 650.5,233.2 651.6,225.8 652.7,222.5 653.8,228.0 654.9,226.3 656.0,226.3 657.1,222.5 658.2,232.3 659.3,198.3 660.4,223.0 661.5,214.6 662.6,234.6 663.7,171.9 664.8,233.2 665.9,202.2 667.0,222.8 668.1,219.5 669.2,212.6 670.3,218.5 671.4,242.7 672.5,234.6 673.6,226.2 674.7,230.9 675.8,226.2 676.9,212.6 678.0,226.3 679.1,209.7 680.2,226.2 681.3,202.4 682.4,202.2 683.5,204.2 684.6,226.3 685.7,238.1 686.8,226.3 687.9,219.4 689.0,233.7 690.1,234.7 691.2,222.7 692.2,226.2 693.3,217.5 694.4,234.4 695.5,233.2 696.6,234.5 697.7,239.6 698.8,243.7 699.9,232.5 701.0,231.0 702.1,221.5 703.2,230.7 704.3,230.9 705.4,206.5 706.5,223.3 707.6,218.3 708.7,229.7 709.8,227.4 710.9,228.1 712.0,235.2 713.1,234.6 714.2,226.3 715.3,232.3 716.4,239.5 717.5,226.6 718.6,240.3 719.7,227.9 720.8,234.5 721.9,239.6 723.0,239.5 724.1,236.5 725.2,240.8 726.3,214.8 727.4,231.0 728.5,236.3 729.6,225.7 730.7,226.2 731.8,225.1 732.9,225.2 734.0,217.8 735.1,226.3 736.2,174.3 737.3,212.9 738.4,226.2 739.5,216.7 740.6,220.7 741.7,234.7 742.8,218.5 743.9,217.6 745.0,235.3 746.1,224.9 747.2,230.8 748.3,226.2 749.4,226.2 750.5,233.2 751.6,223.2 752.7,214.1 753.8,210.8 754.9,235.7 756.0,226.0 757.1,227.3 758.2,221.7 759.3,226.1 760.4,214.5 761.5,231.9 762.6,226.5 763.7,226.2 764.8,236.4 765.8,233.0 766.9,226.2 768.0,239.5 769.1,226.7 770.2,226.3 771.3,240.1 772.4,217.6 773.5,233.2 774.6,230.6 775.7,237.2 776.8,226.7 777.9,228.2 779.0,225.1 780.1,226.3 781.2,227.4 782.3,226.3 783.4,221.2 784.5,211.2 785.6,197.3 786.7,227.5 787.8,214.8 788.9,232.3 790.0,226.2 791.1,226.3 792.2,202.3 793.3,210.9 794.4,226.3 795.5,220.5 796.6,223.3 797.7,226.3 798.8,191.1 799.9,218.2 801.0,226.3 802.1,233.2 803.2,227.4 804.3,236.4 805.4,221.9 806.5,219.4 807.6,236.3 808.7,200.9 809.8,226.2 810.9,226.5 812.0,219.4 813.1,226.2 814.2,226.3 815.3,226.3 816.4,224.1 817.5,218.5 818.6,202.6 819.7,185.2 820.8,226.3 821.9,226.7 823.0,202.9 824.1,230.0 825.2,229.5 826.3,244.4 827.4,243.2 828.5,240.5 829.6,239.9 830.7,194.2 831.8,248.1 832.9,211.2 834.0,236.4 835.1,244.3 836.2,243.5 837.2,226.4 838.3,176.0 839.4,226.2 840.5,197.1 841.6,232.1 842.7,239.4 843.8,244.3 844.9,223.3 846.0,231.2 847.1,259.7 848.2,171.9 849.3,202.7 850.4,259.8 851.5,226.3 852.6,229.1 853.7,226.2 854.8,239.9 855.9,226.2 857.0,233.2 858.1,219.4 859.2,183.1 860.3,226.3 861.4,207.1 862.5,212.7 863.6,211.2 864.7,202.4 865.8,226.7 866.9,230.4 868.0,246.6 869.1,215.9 870.2,243.9 871.3,227.6 872.4,235.0 873.5,233.2 874.6,244.3 875.7,232.4 876.8,240.8 877.9,251.3 879.0,248.7 880.1,255.5 881.2,239.5 882.3,241.8 883.4,244.2 884.5,201.9 885.6,197.1 886.7,227.4 887.8,220.8 888.9,226.4 890.0,219.4 891.1,219.5 892.2,236.3 893.3,239.5 894.4,240.3 895.5,249.2 896.6,241.5 897.7,240.3 898.8,233.8 899.9,209.7 901.0,239.5 902.1,236.3 903.2,244.2 904.3,215.8 905.4,226.3 906.5,239.6 907.6,230.7 908.7,227.6 909.8,233.2 910.8,217.6 911.9,225.1 913.0,219.6 914.1,226.2 915.2,233.0 916.3,227.8 917.4,230.8 918.5,261.2 919.6,233.2 920.7,239.9 921.8,239.0 922.9,226.3 924.0,234.9 925.1,226.3 926.2,226.3 927.3,214.4 928.4,245.4 929.5,228.6 930.6,202.6 931.7,223.3 932.8,226.2 933.9,226.3 935.0,217.4 936.1,236.7 937.2,226.2 938.3,241.9 939.4,226.2 940.5,244.4 941.6,243.7 942.7,226.3 943.8,227.9 944.9,200.8 946.0,238.9" fill="none" stroke="#d97706" stroke-width="2.2" stroke-linejoin="round" stroke-linecap="round"/>
<line x1="76" y1="70" x2="94" y2="70" stroke="#2563eb" stroke-width="3"/>
<text x="100" y="74" font-family="Arial, sans-serif" font-size="11" fill="#0f172a">avg fee</text>
<line x1="179" y1="70" x2="197" y2="70" stroke="#059669" stroke-width="3"/>
<text x="203" y="74" font-family="Arial, sans-serif" font-size="11" fill="#0f172a">median fee</text>
<line x1="303" y1="70" x2="321" y2="70" stroke="#d97706" stroke-width="3"/>
<text x="327" y="74" font-family="Arial, sans-serif" font-size="11" fill="#0f172a">p90 fee</text>
<text x="28" y="404" font-family="Arial, sans-serif" font-size="11" fill="#64748b">Source: hourly_features.csv</text>
</svg>