<svg xmlns="http://www.w3.org/2000/svg" width="980" height="420" viewBox="0 0 980 420">
<rect width="100%" height="100%" fill="#ffffff"/>
<text x="28" y="34" font-family="Arial, sans-serif" font-size="20" font-weight="700" fill="#0f172a">Hourly fee trend</text>
<text x="28" y="56" font-family="Arial, sans-serif" font-size="12" fill="#64748b">Average, median, and p90 total fee by hour</text>
<line x1="76" y1="362.0" x2="946" y2="362.0" stroke="#e2e8f0" stroke-width="1"/>
<text x="68" y="366.0" font-family="Arial, sans-serif" font-size="10" text-anchor="end" fill="#64748b">-382K</text>
<line x1="76" y1="292.0" x2="946" y2="292.0" stroke="#e2e8f0" stroke-width="1"/>
<text x="68" y="296.0" font-family="Arial, sans-serif" font-size="10" text-anchor="end" fill="#64748b">2.6M</text>
<line x1="76" y1="222.0" x2="946" y2="222.0" stroke="#e2e8f0" stroke-width="1"/>
<text x="68" y="226.0" font-family="Arial, sans-serif" font-size="10" text-anchor="end" fill="#64748b">5.7M</text>
<line x1="76" y1="152.0" x2="946" y2="152.0" stroke="#e2e8f0" stroke-width="1"/>
<text x="68" y="156.0" font-family="Arial, sans-serif" font-size="10" text-anchor="end" fill="#64748b">8.7M</text>
<line x1="76" y1="82.0" x2="946" y2="82.0" stroke="#e2e8f0" stroke-width="1"/>
<text x="68" y="86.0" font-family="Arial, sans-serif" font-size="10" text-anchor="end" fill="#64748b">11.7M</text>
<line x1="76" y1="362" x2="946" y2="362" stroke="#334155" stroke-width="1"/>
<line x1="76" y1="82" x2="76" y2="362" stroke="#334155" stroke-width="1"/>
<text x="76" y="72" font-family="Arial, sans-serif" font-size="11" fill="#64748b">nanoton</text>
<line x1="76.0" y1="362" x2="76.0" y2="366" stroke="#334155" stroke-width="1"/>
<text x="76.0" y="380" font-family="Arial, sans-serif" font-size="10" text-anchor="middle" fill="#64748b">0</text>
<line x1="511.0" y1="362" x2="511.0" y2="366" stroke="#334155" stroke-width="1"/>
<text x="511.0" y="380" font-family="Arial, sans-serif" font-size="10" text-anchor="middle" fill="#64748b">460</text>
<line x1="946.0" y1="362" x2="946.0" y2="366" stroke="#334155" stroke-width="1"/>
<text x="946.0" y="380" font-family="Arial, sans-serif" font-size="10" text-anchor="middle" fill="#64748b">920</text>
<polyline points="76.0,290.8 76.9,294.6 77.9,296.0 78.8,298.1 79.8,304.8 80.7,297.2 81.7,298.2 82.6,294.6 83.6,299.0 84.5,298.7 85.5,287.8 86.4,299.5 87.3,299.7 88.3,297.4 89.2,300.3 90.2,300.5 91.1,292.5 92.1,292.5 93.0,301.3 94.0,291.1 94.9,289.2 95.9,287.3 96.8,293.8 97.8,294.2 98.7,296.1 99.6,292.1 100.6,297.7 101.5,290.6 102.5,293.2 103.4,288.3 104.4,289.0 105.3,273.1 106.3,284.7 107.2,285.3 108.2,294.6 109.1,299.9 110.0,292.9 111.0,294.9 111.9,304.7 112.9,307.5 113.8,302.1 114.8,297.0 115.7,298.7 116.7,297.9 117.6,304.4 118.6,297.4 119.5,294.5 120.4,296.5 121.4,298.7 122.3,303.1 123.3,303.1 124.2,301.9 125.2,300.3 126.1,303.3 127.1,302.2 128.0,299.4 129.0,299.1 129.9,302.8 130.8,299.1 131.8,301.3 132.7,306.8 133.7,308.7 134.6,306.4 135.6,307.1 136.5,309.1 137.5,305.9 138.4,305.5 139.4,302.0 140.3,308.5 141.2,290.7 142.2,306.4 143.1,306.4 144.1,306.3 145.0,311.2 146.0,307.1 146.9,310.3 147.9,309.1 148.8,305.5 149.8,305.4 150.7,303.2 151.7,303.5 152.6,301.3 153.5,305.1 154.5,307.4 155.4,306.9 156.4,308.1 157.3,305.0 158.3,302.9 159.2,302.7 160.2,298.6 161.1,304.9 162.1,297.0 163.0,299.3 163.9,300.3 164.9,303.9 165.8,311.6 166.8,300.1 167.7,300.5 168.7,308.9 169.6,307.5 170.6,300.3 171.5,304.2 172.5,305.1 173.4,302.6 174.3,300.5 175.3,297.4 176.2,298.7 177.2,301.9 178.1,308.1 179.1,307.4 180.0,307.4 181.0,303.1 181.9,301.9 182.9,304.1 183.8,303.9 184.8,304.0 185.7,308.3 186.6,308.9 187.6,307.3 188.5,301.1 189.5,286.9 190.4,301.6 191.4,298.8 192.3,296.1 193.3,299.6 194.2,305.5 195.2,301.5 196.1,304.9 197.0,302.2 198.0,304.9 198.9,306.8 199.9,304.9 200.8,300.8 201.8,304.8 202.7,308.0 203.7,302.4 204.6,301.7 205.6,303.1 206.5,303.4 207.4,298.9 208.4,298.5 209.3,298.0 210.3,289.4 211.2,296.9 212.2,296.4 213.1,295.5 214.1,299.6 215.0,299.0 216.0,304.6 216.9,304.0 217.8,303.8 218.8,299.2 219.7,301.2 220.7,305.7 221.6,304.5 222.6,312.1 223.5,305.7 224.5,304.3 225.4,307.0 226.4,306.9 227.3,301.9 228.2,303.8 229.2,300.8 230.1,301.6 231.1,300.2 232.0,298.7 233.0,290.6 233.9,296.1 234.9,300.6 235.8,296.6 236.8,302.7 237.7,302.6 238.7,303.0 239.6,302.7 240.5,302.8 241.5,303.7 242.4,300.1 243.4,305.6 244.3,303.0 245.3,299.2 246.2,302.8 247.2,306.7 248.1,306.1 249.1,306.7 250.0,298.5 250.9,301.6 251.9,297.8 252.8,303.8 253.8,300.2 254.7,299.5 255.7,295.6 256.6,298.2 257.6,298.4 258.5,293.8 259.5,299.9 260.4,297.9 261.3,298.6 262.3,294.2 263.2,297.8 264.2,278.0 265.1,284.2 266.1,295.2 267.0,295.7 268.0,294.4 268.9,300.7 269.9,304.3 270.8,302.4 271.8,302.1 272.7,297.9 273.6,295.3 274.6,296.5 275.5,291.4 276.5,292.0 277.4,290.6 278.4,290.0 279.3,299.7 280.3,291.9 281.2,296.8 282.2,299.8 283.1,303.8 284.0,302.5 285.0,302.1 285.9,302.3 286.9,300.8 287.8,303.5 288.8,295.9 289.7,297.8 290.7,304.4 291.6,304.2 292.6,299.5 293.5,303.9 294.4,303.5 295.4,299.0 296.3,288.7 297.3,293.7 298.2,294.2 299.2,303.7 300.1,295.6 301.1,297.0 302.0,305.6 303.0,294.8 303.9,300.5 304.8,305.1 305.8,308.5 306.7,305.5 307.7,304.0 308.6,300.7 309.6,303.8 310.5,299.3 311.5,303.0 312.4,305.0 313.4,303.0 314.3,299.3 315.2,294.4 316.2,299.9 317.1,286.2 318.1,302.1 319.0,293.9 320.0,297.9 320.9,299.5 321.9,297.4 322.8,294.4 323.8,310.4 324.7,291.6 325.7,295.6 326.6,281.6 327.5,294.6 328.5,293.2 329.4,295.0 330.4,291.0 331.3,301.0 332.3,279.9 333.2,297.2 334.2,291.8 335.1,291.5 336.1,283.3 337.0,298.3 337.9,300.4 338.9,298.6 339.8,288.4 340.8,299.0 341.7,304.4 342.7,297.7 343.6,295.5 344.6,279.8 345.5,284.2 346.5,300.5 347.4,299.9 348.3,298.1 349.3,293.4 350.2,303.1 351.2,303.0 352.1,298.6 353.1,296.8 354.0,297.4 355.0,301.3 355.9,298.1 356.9,311.4 357.8,299.4 358.8,303.5 359.7,301.2 360.6,302.9 361.6,304.3 362.5,297.8 363.5,294.4 364.4,299.3 365.4,295.1 366.3,301.8 367.3,292.6 368.2,297.6 369.2,293.9 370.1,290.0 371.0,295.1 372.0,304.6 372.9,291.1 373.9,300.3 374.8,295.9 375.8,293.1 376.7,291.6 377.7,296.8 378.6,297.1 379.6,297.9 380.5,299.5 381.4,292.8 382.4,286.2 383.3,290.1 384.3,300.0 385.2,294.5 386.2,300.9 387.1,303.0 388.1,299.1 389.0,302.5 390.0,295.1 390.9,297.0 391.8,302.8 392.8,301.7 393.7,303.0 394.7,308.6 395.6,306.8 396.6,306.1 397.5,306.5 398.5,304.3 399.4,304.5 400.4,298.3 401.3,301.1 402.2,303.1 403.2,303.3 404.1,304.2 405.1,302.4 406.0,299.4 407.0,304.5 407.9,307.1 408.9,297.3 409.8,298.9 410.8,298.1 411.7,299.7 412.7,297.8 413.6,301.0 414.5,287.2 415.5,294.3 416.4,294.8 417.4,298.6 418.3,291.3 419.3,298.4 420.2,294.6 421.2,298.7 422.1,304.2 423.1,282.2 424.0,289.8 424.9,298.8 425.9,295.1 426.8,293.4 427.8,294.7 428.7,304.3 429.7,296.9 430.6,301.7 431.6,296.7 432.5,295.6 433.5,292.9 434.4,291.6 435.3,286.7 436.3,287.8 437.2,294.2 438.2,292.6 439.1,297.5 440.1,303.1 441.0,296.8 442.0,304.1 442.9,298.7 443.9,297.8 444.8,299.3 445.8,297.1 446.7,296.6 447.6,305.5 448.6,301.9 449.5,304.5 450.5,302.9 451.4,303.4 452.4,302.7 453.3,304.5 454.3,301.7 455.2,300.0 456.2,297.3 457.1,295.0 458.0,305.0 459.0,302.7 459.9,303.7 460.9,302.8 461.8,298.5 462.8,257.0 463.7,291.0 464.7,298.5 465.6,296.3 466.6,301.0 467.5,301.6 468.4,299.9 469.4,299.3 470.3,299.6 471.3,296.0 472.2,299.4 473.2,305.6 474.1,306.5 475.1,300.9 476.0,302.7 477.0,295.0 477.9,302.2 478.8,296.9 479.8,304.8 480.7,299.1 481.7,295.6 482.6,295.1 483.6,300.9 484.5,301.0 485.5,300.7 486.4,304.5 487.4,292.6 488.3,303.5 489.2,306.0 490.2,295.5 491.1,297.4 492.1,302.8 493.0,295.8 494.0,299.5 494.9,304.0 495.9,301.7 496.8,303.8 497.8,300.8 498.7,306.1 499.7,305.6 500.6,300.8 501.5,303.2 502.5,297.1 503.4,300.2 504.4,292.3 505.3,292.0 506.3,292.1 507.2,299.3 508.2,298.5 509.1,298.8 510.1,301.5 511.0,299.6 511.9,305.3 512.9,300.2 513.8,300.6 514.8,304.7 515.7,299.2 516.7,304.4 517.6,299.7 518.6,306.4 519.5,299.1 520.5,304.5 521.4,303.3 522.3,298.0 523.3,263.7 524.2,302.9 525.2,304.6 526.1,301.3 527.1,300.8 528.0,298.3 529.0,299.9 529.9,302.7 530.9,298.6 531.8,304.0 532.8,302.8 533.7,303.0 534.6,301.1 535.6,308.3 536.5,304.5 537.5,309.0 538.4,304.5 539.4,303.7 540.3,304.9 541.3,303.6 542.2,305.3 543.2,299.5 544.1,305.2 545.0,297.1 546.0,302.2 546.9,288.1 547.9,294.6 548.8,299.7 549.8,287.4 550.7,299.0 551.7,298.4 552.6,296.8 553.6,301.1 554.5,299.5 555.4,302.6 556.4,299.3 557.3,303.0 558.3,298.0 559.2,301.6 560.2,305.3 561.1,304.5 562.1,290.4 563.0,303.1 564.0,299.6 564.9,302.4 565.8,303.1 566.8,304.7 567.7,296.3 568.7,301.7 569.6,292.9 570.6,298.2 571.5,294.8 572.5,293.5 573.4,299.4 574.4,297.4 575.3,300.4 576.2,295.6 577.2,301.5 578.1,282.6 579.1,297.4 580.0,291.2 581.0,300.8 581.9,281.3 582.9,303.6 583.8,292.1 584.8,296.5 585.7,300.9 586.7,293.9 587.6,295.3 588.5,305.2 589.5,304.7 590.4,300.3 591.4,302.0 592.3,297.5 593.3,295.0 594.2,296.6 595.2,292.7 596.1,298.7 597.1,291.1 598.0,289.9 598.9,292.8 599.9,302.6 600.8,303.5 601.8,301.6 602.7,297.5 603.7,303.0 604.6,302.5 605.6,299.3 606.5,300.0 607.5,295.7 608.4,300.6 609.3,302.5 610.3,302.2 611.2,300.7 612.2,305.4 613.1,305.1 614.1,301.0 615.0,294.2 616.0,301.0 616.9,298.9 617.9,290.4 618.8,295.9 619.8,294.1 620.7,301.3 621.6,298.2 622.6,299.2 623.5,302.6 624.5,300.9 625.4,299.2 626.4,302.7 627.3,303.6 628.3,299.5 629.2,304.4 630.2,298.2 631.1,302.7 632.0,304.9 633.0,303.3 633.9,303.8 634.9,305.7 635.8,294.6 636.8,306.7 637.7,303.7 638.7,295.1 639.6,294.1 640.6,293.7 641.5,295.9 642.4,295.9 643.4,298.1 644.3,284.7 645.3,294.9 646.2,298.6 647.2,296.3 648.1,294.2 649.1,300.6 650.0,294.3 651.0,295.9 651.9,303.8 652.8,295.8 653.8,302.6 654.7,297.7 655.7,300.0 656.6,300.7 657.6,298.3 658.5,294.8 659.5,295.8 660.4,303.0 661.4,295.6 662.3,296.0 663.2,295.2 664.2,295.3 665.1,295.0 666.1,299.9 667.0,299.0 668.0,295.9 668.9,303.3 669.9,302.9 670.8,298.2 671.8,305.5 672.7,300.9 673.7,300.4 674.6,305.2 675.5,295.8 676.5,301.8 677.4,303.2 678.4,304.6 679.3,299.1 680.3,301.0 681.2,298.0 682.2,298.8 683.1,297.3 684.1,300.8 685.0,296.0 685.9,293.0 686.9,284.2 687.8,298.8 688.8,293.9 689.7,298.9 690.7,298.8 691.6,298.0 692.6,291.0 693.5,292.3 694.5,298.2 695.4,297.5 696.3,297.5 697.3,298.5 698.2,288.2 699.2,296.5 700.1,297.3 701.1,301.7 702.0,301.0 703.0,305.4 703.9,295.8 704.9,295.1 705.8,299.8 706.8,289.6 707.7,296.7 708.6,295.1 709.6,295.1 710.5,294.8 711.5,297.5 712.4,299.5 713.4,295.8 714.3,297.0 715.3,291.7 716.2,285.1 717.2,299.7 718.1,301.0 719.0,293.6 720.0,302.3 720.9,297.5 721.9,307.7 722.8,292.5 723.8,304.9 724.7,304.1 725.7,291.9 726.6,305.2 727.6,297.8 728.5,298.1 729.4,307.4 730.4,305.4 731.3,294.0 732.3,284.5 733.2,295.7 734.2,281.6 735.1,295.8 736.1,307.1 737.0,303.5 738.0,299.2 738.9,301.5 739.8,309.0 740.8,287.8 741.7,293.3 742.7,314.3 743.6,300.8 744.6,304.2 745.5,299.2 746.5,305.4 747.4,297.5 748.4,303.5 749.3,297.3 750.2,286.2 751.2,295.6 752.1,293.4 753.1,295.3 754.0,292.6 755.0,295.0 755.9,297.5 756.9,303.2 757.8,307.8 758.8,295.2 759.7,306.6 760.7,305.0 761.6,305.4 762.5,303.1 763.5,297.4 764.4,293.5 765.4,305.0 766.3,310.4 767.3,306.6 768.2,309.4 769.2,304.0 770.1,307.8 771.1,308.2 772.0,299.0 772.9,288.2 773.9,297.1 774.8,298.1 775.8,298.6 776.7,298.7 777.7,295.2 778.6,305.8 779.6,307.8 780.5,304.4 781.5,309.3 782.4,306.7 783.3,303.2 784.3,303.6 785.2,296.5 786.2,304.1 787.1,305.5 788.1,308.2 789.0,291.8 790.0,301.9 790.9,305.3 791.9,302.2 792.8,300.9 793.8,302.7 794.7,295.0 795.6,295.0 796.6,295.3 797.5,299.1 798.5,299.0 799.4,300.9 800.4,304.6 801.3,307.3 802.3,303.1 803.2,300.9 804.2,303.0 805.1,290.9 806.0,301.1 807.0,301.9 807.9,302.0 808.9,295.6 809.8,306.6 810.8,304.1 811.7,288.8 812.7,297.4 813.6,295.3 814.6,295.7 815.5,296.1 816.4,306.3 817.4,300.3 818.3,304.9 819.3,295.7 820.2,303.6 821.2,305.1 822.1,302.6 823.1,301.6 824.0,285.2 825.0,304.3 825.9,334.7 826.8,343.7 827.8,343.8 828.7,343.5 829.7,344.0 830.6,319.0 831.6,342.3 832.5,343.1 833.5,342.6 834.4,343.4 835.4,343.4 836.3,343.4 837.2,338.9 838.2,343.5 839.1,344.5 840.1,342.7 841.0,342.0 842.0,343.8 842.9,343.0 843.9,343.2 844.8,340.3 845.8,342.7 846.7,343.4 847.7,342.2 848.6,343.9 849.5,341.8 850.5,341.2 851.4,342.8 852.4,342.4 853.3,343.3 854.3,344.8 855.2,343.7 856.2,343.3 857.1,344.0 858.1,342.7 859.0,343.5 859.9,341.8 860.9,340.1 861.8,342.3 862.8,342.4 863.7,339.6 864.7,341.5 865.6,340.5 866.6,343.1 867.5,341.6 868.5,340.5 869.4,342.3 870.3,342.5 871.3,342.2 872.2,343.0 873.2,342.6 874.1,342.9 875.1,343.5 876.0,342.4 877.0,340.9 877.9,341.4 878.9,342.5 879.8,343.3 880.8,343.5 881.7,343.3 882.6,343.2 883.6,342.6 884.5,341.1 885.5,340.9 886.4,341.6 887.4,340.6 888.3,341.3 889.3,341.0 890.2,342.8 891.2,341.5 892.1,342.2 893.0,341.5 894.0,342.8 894.9,341.0 895.9,340.5 896.8,341.9 897.8,341.5 898.7,341.0 899.7,338.4 900.6,325.0 901.6,339.0 902.5,340.0 903.4,339.6 904.4,341.0 905.3,338.3 906.3,339.7 907.2,338.7 908.2,339.5 909.1,333.1 910.1,340.3 911.0,337.2 912.0,337.3 912.9,338.6 913.8,339.3 914.8,338.5 915.7,337.9 916.7,338.6 917.6,339.5 918.6,339.1 919.5,339.5 920.5,339.7 921.4,337.8 922.4,338.7 923.3,338.4 924.2,336.7 925.2,338.9 926.1,340.0 927.1,340.5 928.0,342.3 929.0,337.0 929.9,340.5 930.9,338.6 931.8,338.7 932.8,337.1 933.7,336.9 934.7,340.4 935.6,339.1 936.5,339.0 937.5,338.7 938.4,339.6 939.4,340.2 940.3,340.9 941.3,339.1 942.2,338.5 943.2,340.0 944.1,341.2 945.1,339.9 946.0,338.0" fill="none" stroke="#2563eb" stroke-width="2.2" stroke-linejoin="round" stroke-linecap="round"/>
<polyline points="76.0,311.4 76.9,324.9 77.9,334.1 78.8,334.5 79.8,335.0 80.7,334.6 81.7,334.4 82.6,330.8 83.6,334.6 84.5,334.6 85.5,320.5 86.4,334.6 87.3,334.2 88.3,330.7 89.2,334.4 90.2,333.8 91.1,321.1 92.1,330.5 93.0,332.4 94.0,310.6 94.9,302.9 95.9,305.9 96.8,320.5 97.8,315.5 98.7,310.4 99.6,329.8 100.6,333.4 101.5,312.5 102.5,335.0 103.4,319.0 104.4,330.5 105.3,283.8 106.3,300.4 107.2,303.3 108.2,308.3 109.1,331.3 110.0,312.5 111.0,310.6 111.9,334.9 112.9,335.0 113.8,329.7 114.8,310.6 115.7,310.6 116.7,312.5 117.6,340.8 118.6,334.9 119.5,308.9 120.4,310.3 121.4,334.9 122.3,335.3 123.3,334.2 124.2,333.4 125.2,333.9 126.1,334.6 127.1,331.5 128.0,334.6 129.0,330.9 129.9,334.3 130.8,334.6 131.8,334.2 132.7,335.0 133.7,334.9 134.6,334.9 135.6,344.0 136.5,335.8 137.5,334.9 138.4,334.9 139.4,330.7 140.3,344.0 141.2,335.6 142.2,336.2 143.1,336.2 144.1,335.0 145.0,338.1 146.0,336.2 146.9,336.1 147.9,335.1 148.8,335.0 149.8,335.0 150.7,334.5 151.7,335.0 152.6,334.6 153.5,334.6 154.5,335.0 155.4,335.0 156.4,335.0 157.3,334.3 158.3,334.9 159.2,334.9 160.2,330.7 161.1,334.7 162.1,312.2 163.0,329.6 163.9,331.1 164.9,333.8 165.8,344.0 166.8,330.6 167.7,333.8 168.7,335.0 169.6,336.2 170.6,334.7 171.5,334.7 172.5,334.8 173.4,334.6 174.3,331.0 175.3,330.5 176.2,331.5 177.2,333.0 178.1,335.0 179.1,334.9 180.0,334.9 181.0,334.1 181.9,334.9 182.9,334.9 183.8,331.5 184.8,332.3 185.7,336.2 186.6,344.0 187.6,336.1 188.5,335.0 189.5,310.1 190.4,334.9 191.4,334.5 192.3,334.7 193.3,333.8 194.2,334.9 195.2,334.0 196.1,334.9 197.0,334.9 198.0,334.9 198.9,335.0 199.9,334.7 200.8,333.2 201.8,334.9 202.7,335.0 203.7,335.0 204.6,334.1 205.6,334.2 206.5,330.3 207.4,310.6 208.4,298.7 209.3,309.8 210.3,304.4 211.2,310.2 212.2,310.1 213.1,327.6 214.1,333.0 215.0,333.8 216.0,333.8 216.9,334.9 217.8,334.9 218.8,333.8 219.7,334.7 220.7,334.7 221.6,334.6 222.6,344.0 223.5,334.9 224.5,334.9 225.4,335.0 226.4,335.0 227.3,333.8 228.2,334.4 229.2,330.9 230.1,319.7 231.1,298.7 232.0,334.1 233.0,326.9 233.9,334.7 234.9,331.8 235.8,331.8 236.8,331.4 237.7,334.7 238.7,334.4 239.6,334.6 240.5,334.6 241.5,330.7 242.4,330.7 243.4,334.9 244.3,334.4 245.3,331.0 246.2,334.6 247.2,335.0 248.1,334.6 249.1,334.9 250.0,330.5 250.9,334.3 251.9,315.6 252.8,334.6 253.8,298.7 254.7,334.0 255.7,329.7 256.6,332.6 257.6,331.8 258.5,310.6 259.5,331.8 260.4,332.3 261.3,334.6 262.3,323.8 263.2,334.0 264.2,295.8 265.1,298.7 266.1,327.1 267.0,331.1 268.0,330.7 268.9,332.3 269.9,334.6 270.8,334.7 271.8,334.1 272.7,324.8 273.6,315.1 274.6,308.6 275.5,305.4 276.5,298.7 277.4,306.5 278.4,305.4 279.3,331.7 280.3,305.5 281.2,317.0 282.2,333.4 283.1,335.0 284.0,334.1 285.0,335.0 285.9,334.9 286.9,333.7 287.8,335.0 288.8,319.7 289.7,319.7 290.7,334.1 291.6,333.8 292.6,333.4 293.5,334.7 294.4,334.6 295.4,331.3 296.3,305.4 297.3,308.2 298.2,308.3 299.2,298.7 300.1,310.2 301.1,335.5 302.0,336.2 303.0,312.5 303.9,334.5 304.8,336.2 305.8,335.9 306.7,336.2 307.7,335.0 308.6,333.8 309.6,334.3 310.5,334.4 311.5,333.5 312.4,334.6 313.4,334.4 314.3,329.6 315.2,308.9 316.2,334.1 317.1,308.2 318.1,334.4 319.0,310.7 320.0,310.3 320.9,325.1 321.9,305.5 322.8,319.7 323.8,344.0 324.7,315.6 325.7,334.2 326.6,308.2 327.5,309.9 328.5,330.0 329.4,334.1 330.4,335.0 331.3,333.2 332.3,323.8 333.2,333.8 334.2,308.2 335.1,306.1 336.1,323.8 337.0,315.6 337.9,333.4 338.9,332.6 339.8,303.2 340.8,334.1 341.7,334.7 342.7,326.5 343.6,333.8 344.6,320.8 345.5,333.7 346.5,333.7 347.4,334.1 348.3,330.7 349.3,331.8 350.2,333.7 351.2,334.6 352.1,333.8 353.1,333.0 354.0,310.6 355.0,334.7 355.9,330.7 356.9,345.9 357.8,333.8 358.8,334.7 359.7,333.7 360.6,334.7 361.6,334.7 362.5,310.6 363.5,315.4 364.4,332.0 365.4,310.5 366.3,331.7 367.3,305.3 368.2,330.5 369.2,326.9 370.1,302.2 371.0,309.7 372.0,335.9 372.9,333.4 373.9,334.9 374.8,334.4 375.8,306.5 376.7,306.5 377.7,318.3 378.6,320.1 379.6,323.6 380.5,331.8 381.4,310.6 382.4,305.4 383.3,308.2 384.3,331.8 385.2,305.2 386.2,330.5 387.1,334.1 388.1,326.7 389.0,330.7 390.0,305.4 390.9,308.2 391.8,333.8 392.8,334.1 393.7,335.0 394.7,340.8 395.6,336.2 396.6,336.1 397.5,335.0 398.5,336.2 399.4,335.8 400.4,333.8 401.3,334.4 402.2,335.0 403.2,334.8 404.1,334.9 405.1,334.6 406.0,331.8 407.0,334.5 407.9,335.0 408.9,329.1 409.8,330.7 410.8,325.8 411.7,325.3 412.7,308.2 413.6,333.5 414.5,308.4 415.5,310.3 416.4,330.5 417.4,319.6 418.3,308.3 419.3,334.6 420.2,318.7 421.2,335.8 422.1,335.0 423.1,297.6 424.0,305.3 424.9,325.3 425.9,325.7 426.8,318.9 427.8,310.3 428.7,334.9 429.7,321.4 430.6,334.2 431.6,331.5 432.5,329.7 433.5,309.6 434.4,308.4 435.3,298.7 436.3,302.7 437.2,305.5 438.2,309.0 439.1,331.8 440.1,334.0 441.0,329.6 442.0,334.7 442.9,333.8 443.9,335.0 444.8,334.0 445.8,334.0 446.7,325.3 447.6,334.9 448.6,334.5 449.5,334.6 450.5,334.7 451.4,334.7 452.4,334.7 453.3,334.6 454.3,334.1 455.2,326.9 456.2,326.6 457.1,305.4 458.0,343.0 459.0,335.3 459.9,344.0 460.9,335.0 461.8,329.1 462.8,301.0 463.7,334.2 464.7,334.1 465.6,315.6 466.6,335.0 467.5,334.1 468.4,334.6 469.4,333.6 470.3,330.5 471.3,330.4 472.2,333.8 473.2,335.0 474.1,335.0 475.1,333.2 476.0,334.4 477.0,310.5 477.9,332.0 478.8,310.1 479.8,332.7 480.7,305.4 481.7,309.8 482.6,310.6 483.6,330.0 484.5,333.8 485.5,332.4 486.4,335.3 487.4,318.3 488.3,334.7 489.2,336.2 490.2,331.4 491.1,325.8 492.1,334.6 493.0,331.3 494.0,331.8 494.9,334.7 495.9,334.5 496.8,333.8 497.8,330.7 498.7,334.9 499.7,334.8 500.6,331.8 501.5,333.2 502.5,310.7 503.4,330.5 504.4,308.2 505.3,308.4 506.3,305.4 507.2,330.4 508.2,326.9 509.1,330.4 510.1,334.9 511.0,331.5 511.9,335.0 512.9,334.6 513.8,334.1 514.8,334.9 515.7,334.7 516.7,335.0 517.6,333.8 518.6,335.0 519.5,333.3 520.5,334.6 521.4,335.0 522.3,332.7 523.3,283.6 524.2,333.8 525.2,335.0 526.1,319.3 527.1,331.1 528.0,329.7 529.0,331.8 529.9,334.1 530.9,334.6 531.8,334.9 532.8,334.7 533.7,334.6 534.6,334.8 535.6,335.0 536.5,334.9 537.5,335.0 538.4,334.9 539.4,334.7 540.3,334.9 541.3,335.0 542.2,334.7 543.2,334.1 544.1,335.7 545.0,334.1 546.0,334.4 546.9,305.3 547.9,319.6 548.8,309.3 549.8,300.7 550.7,310.4 551.7,330.5 552.6,310.6 553.6,330.5 554.5,333.0 555.4,334.7 556.4,333.8 557.3,334.1 558.3,330.9 559.2,334.7 560.2,334.9 561.1,334.9 562.1,305.4 563.0,334.4 564.0,331.0 564.9,335.0 565.8,333.8 566.8,335.0 567.7,333.8 568.7,334.9 569.6,310.6 570.6,334.3 571.5,306.4 572.5,308.4 573.4,333.8 574.4,330.9 575.3,334.1 576.2,329.7 577.2,334.3 578.1,305.3 579.1,330.7 580.0,328.8 581.0,333.8 581.9,295.8 582.9,334.6 583.8,310.6 584.8,310.6 585.7,333.8 586.7,318.4 587.6,318.5 588.5,334.2 589.5,334.9 590.4,334.1 591.4,334.1 592.3,330.4 593.3,308.2 594.2,308.2 595.2,310.2 596.1,333.8 597.1,310.6 598.0,310.4 598.9,327.3 599.9,332.0 600.8,335.0 601.8,334.6 602.7,334.0 603.7,334.6 604.6,334.5 605.6,330.7 606.5,333.5 607.5,331.5 608.4,334.6 609.3,334.1 610.3,333.8 611.2,330.7 612.2,334.7 613.1,334.9 614.1,332.0 615.0,307.0 616.0,326.1 616.9,305.4 617.9,306.4 618.8,309.0 619.8,306.4 620.7,334.6 621.6,327.0 622.6,333.8 623.5,333.2 624.5,334.1 625.4,335.0 626.4,334.6 627.3,333.9 628.3,333.8 629.2,334.7 630.2,330.7 631.1,331.8 632.0,334.9 633.0,334.1 633.9,334.6 634.9,334.9 635.8,327.5 636.8,335.0 637.7,333.6 638.7,319.7 639.6,302.9 640.6,310.1 641.5,327.5 642.4,326.8 643.4,323.6 644.3,298.7 645.3,310.6 646.2,331.1 647.2,330.7 648.1,334.6 649.1,324.6 650.0,323.8 651.0,330.4 651.9,333.8 652.8,330.7 653.8,334.6 654.7,323.9 655.7,333.2 656.6,334.1 657.6,325.7 658.5,309.1 659.5,315.6 660.4,333.8 661.4,308.5 662.3,306.5 663.2,308.2 664.2,310.2 665.1,312.5 666.1,331.0 667.0,331.9 668.0,317.9 668.9,334.6 669.9,335.0 670.8,335.0 671.8,335.0 672.7,334.6 673.7,333.8 674.6,334.9 675.5,330.4 676.5,334.3 677.4,334.6 678.4,334.2 679.3,333.8 680.3,335.0 681.2,330.7 682.2,333.8 683.1,315.5 684.1,330.7 685.0,305.4 685.9,324.4 686.9,306.5 687.8,331.8 688.8,308.9 689.7,333.8 690.7,333.8 691.6,331.2 692.6,310.7 693.5,333.8 694.5,330.0 695.4,327.2 696.3,323.8 697.3,330.0 698.2,305.0 699.2,312.5 700.1,333.8 701.1,332.0 702.0,329.7 703.0,333.8 703.9,322.8 704.9,308.3 705.8,310.4 706.8,305.2 707.7,305.4 708.6,308.2 709.6,310.7 710.5,310.1 711.5,319.6 712.4,325.7 713.4,330.8 714.3,330.9 715.3,305.4 716.2,305.2 717.2,333.8 718.1,331.0 719.0,305.4 720.0,334.7 720.9,308.3 721.9,334.1 722.8,334.7 723.8,332.8 724.7,332.9 725.7,308.2 726.6,335.0 727.6,330.4 728.5,310.4 729.4,330.0 730.4,326.8 731.3,305.9 732.3,306.4 733.2,323.8 734.2,296.7 735.1,334.1 736.1,335.0 737.0,335.0 738.0,331.5 738.9,334.7 739.8,335.0 740.8,304.3 741.7,308.2 742.7,335.0 743.6,331.8 744.6,334.5 745.5,331.2 746.5,334.7 747.4,331.8 748.4,321.5 749.3,334.9 750.2,331.9 751.2,310.4 752.1,308.3 753.1,305.4 754.0,305.9 755.0,305.7 755.9,324.6 756.9,330.7 757.8,334.5 758.8,331.6 759.7,335.0 760.7,335.0 761.6,335.0 762.5,322.4 763.5,334.9 764.4,331.1 765.4,335.0 766.3,344.0 767.3,344.0 768.2,344.0 769.2,334.6 770.1,335.0 771.1,335.0 772.0,334.4 772.9,311.6 773.9,308.9 774.8,308.2 775.8,308.1 776.7,330.4 777.7,308.6 778.6,337.4 779.6,335.0 780.5,335.0 781.5,335.0 782.4,331.8 783.3,332.0 784.3,334.1 785.2,330.5 786.2,334.6 787.1,335.0 788.1,334.9 789.0,312.5 790.0,333.8 790.9,332.0 791.9,333.8 792.8,331.7 793.8,331.0 794.7,310.7 795.6,308.6 796.6,314.0 797.5,327.1 798.5,304.8 799.4,340.8 800.4,341.6 801.3,335.0 802.3,334.6 803.2,334.6 804.2,324.6 805.1,317.8 806.0,346.0 807.0,334.6 807.9,334.9 808.9,317.9 809.8,344.0 810.8,334.0 811.7,321.8 812.7,332.8 813.6,325.5 814.6,333.8 815.5,313.7 816.4,334.6 817.4,328.5 818.3,331.2 819.3,305.4 820.2,331.0 821.2,310.0 822.1,331.4 823.1,330.2 824.0,290.8 825.0,335.0 825.9,347.8 826.8,350.1 827.8,349.5 828.7,346.1 829.7,349.4 830.6,341.0 831.6,346.4 832.5,349.3 833.5,344.7 834.4,345.1 835.4,349.2 836.3,349.4 837.2,343.5 838.2,350.0 839.1,350.1 840.1,347.6 841.0,344.9 842.0,349.2 842.9,345.2 843.9,344.1 844.8,344.7 845.8,345.7 846.7,346.1 847.7,345.7 848.6,349.5 849.5,345.1 850.5,349.4 851.4,348.7 852.4,346.1 853.3,345.8 854.3,351.6 855.2,348.3 856.2,345.7 857.1,349.9 858.1,344.7 859.0,346.4 859.9,345.2 860.9,343.4 861.8,345.2 862.8,346.1 863.7,342.1 864.7,343.4 865.6,343.5 866.6,345.2 867.5,345.2 868.5,344.0 869.4,345.2 870.3,345.4 871.3,345.3 872.2,344.8 873.2,345.8 874.1,346.1 875.1,344.8 876.0,345.0 877.0,344.3 877.9,345.2 878.9,347.2 879.8,347.4 880.8,350.1 881.7,346.4 882.6,348.8 883.6,348.0 884.5,344.7 885.5,344.0 886.4,345.4 887.4,342.7 888.3,345.8 889.3,344.1 890.2,346.0 891.2,349.5 892.1,344.0 893.0,345.9 894.0,347.6 894.9,344.8 895.9,343.6 896.8,343.6 897.8,344.9 898.7,343.6 899.7,342.0 900.6,343.9 901.6,342.7 902.5,343.4 903.4,341.6 904.4,343.4 905.3,341.5 906.3,342.3 907.2,342.7 908.2,341.5 909.1,341.0 910.1,342.2 911.0,341.2 912.0,340.3 912.9,342.4 913.8,341.6 914.8,341.6 915.7,341.4 916.7,341.5 917.6,341.6 918.6,342.3 919.5,342.2 920.5,341.8 921.4,340.9 922.4,342.0 923.3,341.6 924.2,341.8 925.2,342.0 926.1,343.4 927.1,341.9 928.0,345.8 929.0,341.6 929.9,343.4 930.9,341.6 931.8,341.6 932.8,338.9 933.7,339.8 934.7,342.4 935.6,341.6 936.5,342.1 937.5,342.6 938.4,341.8 939.4,343.4 940.3,343.5 941.3,341.6 942.2,342.3 943.2,344.2 944.1,342.3 945.1,343.2 946.0,341.8" fill="none" stroke="#059669" stroke-width="2.2" stroke-linejoin="round" stroke-linecap="round"/>
<polyline points="76.0,208.9 76.9,216.7 77.9,223.4 78.8,228.3 79.8,236.4 80.7,228.3 81.7,223.3 82.6,216.9 83.6,223.4 84.5,223.3 85.5,199.8 86.4,223.4 87.3,224.6 88.3,223.3 89.2,226.2 90.2,227.6 91.1,211.5 92.1,216.7 93.0,236.0 94.0,216.6 94.9,215.8 95.9,199.8 96.8,220.3 97.8,223.2 98.7,223.4 99.6,220.5 100.6,223.3 101.5,213.2 102.5,216.6 103.4,200.1 104.4,199.8 105.3,160.5 106.3,170.2 107.2,170.2 108.2,209.6 109.1,215.8 110.0,209.6 111.0,208.2 111.9,233.3 112.9,241.0 113.8,230.2 114.8,223.3 115.7,223.8 116.7,223.4 117.6,227.6 118.6,220.4 119.5,213.7 120.4,221.6 121.4,214.1 122.3,236.4 123.3,233.9 124.2,228.8 125.2,229.4 126.1,230.2 127.1,223.4 128.0,223.4 129.0,224.4 129.9,227.8 130.8,231.4 131.8,223.4 132.7,236.4 133.7,240.4 134.6,233.6 135.6,244.6 136.5,239.4 137.5,240.4 138.4,238.9 139.4,236.3 140.3,251.7 141.2,206.3 142.2,236.6 143.1,237.6 144.1,234.6 145.0,248.7 146.0,242.6 146.9,246.3 147.9,241.1 148.8,232.3 149.8,233.3 150.7,228.3 151.7,223.5 152.6,229.7 153.5,233.3 154.5,246.2 155.4,238.6 156.4,241.0 157.3,231.4 158.3,230.1 159.2,230.4 160.2,216.6 161.1,239.0 162.1,223.4 163.0,231.9 163.9,231.4 164.9,242.9 165.8,248.9 166.8,223.4 167.7,227.9 168.7,242.4 169.6,237.1 170.6,229.7 171.5,234.8 172.5,236.4 173.4,233.2 174.3,223.4 175.3,223.4 176.2,230.1 177.2,233.2 178.1,241.8 179.1,237.6 180.0,246.3 181.0,230.4 181.9,230.5 182.9,237.1 183.8,236.4 184.8,236.6 185.7,241.3 186.6,240.4 187.6,240.4 188.5,233.2 189.5,200.3 190.4,223.3 191.4,223.4 192.3,216.6 193.3,229.6 194.2,233.3 195.2,231.4 196.1,233.3 197.0,230.8 198.0,236.3 198.9,236.3 199.9,233.3 200.8,230.2 201.8,238.7 202.7,238.8 203.7,237.6 204.6,228.0 205.6,226.9 206.5,237.0 207.4,226.6 208.4,232.3 209.3,231.4 210.3,207.0 211.2,223.4 212.2,223.3 213.1,223.3 214.1,225.0 215.0,223.4 216.0,236.4 216.9,236.4 217.8,231.9 218.8,230.2 219.7,235.6 220.7,236.3 221.6,236.7 222.6,251.5 223.5,233.3 224.5,233.3 225.4,241.1 226.4,241.0 227.3,233.3 228.2,232.1 229.2,225.6 230.1,223.4 231.1,241.1 232.0,223.4 233.0,199.8 233.9,231.6 234.9,233.2 235.8,223.4 236.8,228.7 237.7,233.2 238.7,236.4 239.6,233.2 240.5,232.7 241.5,233.7 242.4,223.4 243.4,238.3 244.3,233.9 245.3,223.4 246.2,232.6 247.2,238.6 248.1,240.5 249.1,247.9 250.0,224.1 250.9,223.3 251.9,224.5 252.8,234.8 253.8,247.0 254.7,227.7 255.7,223.2 256.6,223.4 257.6,225.2 258.5,222.7 259.5,229.5 260.4,223.4 261.3,228.1 262.3,212.0 263.2,223.2 264.2,160.5 265.1,171.2 266.1,200.0 267.0,210.4 268.0,201.6 268.9,223.4 269.9,232.3 270.8,227.9 271.8,226.7 272.7,216.8 273.6,216.6 274.6,223.4 275.5,200.0 276.5,227.0 277.4,199.8 278.4,199.8 279.3,223.4 280.3,210.4 281.2,217.0 282.2,224.4 283.1,223.4 284.0,224.5 285.0,224.1 285.9,226.6 286.9,223.4 287.8,233.2 288.8,208.9 289.7,221.6 290.7,233.3 291.6,232.1 292.6,223.3 293.5,228.3 294.4,230.2 295.4,223.4 296.3,202.6 297.3,220.4 298.2,223.2 299.2,257.5 300.1,219.7 301.1,214.4 302.0,240.0 303.0,215.3 303.9,228.3 304.8,233.5 305.8,241.1 306.7,240.7 307.7,233.2 308.6,233.2 309.6,227.4 310.5,223.4 311.5,240.4 312.4,231.6 313.4,230.9 314.3,218.4 315.2,210.8 316.2,228.0 317.1,182.3 318.1,231.0 319.0,214.8 320.0,222.1 320.9,223.4 321.9,227.6 322.8,214.7 323.8,240.7 324.7,215.1 325.7,221.5 326.6,199.7 327.5,197.1 328.5,195.3 329.4,216.6 330.4,210.6 331.3,223.4 332.3,170.2 333.2,220.5 334.2,205.1 335.1,205.7 336.1,199.8 337.0,221.7 337.9,228.0 338.9,223.4 339.8,168.9 340.8,223.3 341.7,231.5 342.7,223.2 343.6,223.4 344.6,176.3 345.5,200.3 346.5,226.2 347.4,231.6 348.3,223.4 349.3,209.8 350.2,233.3 351.2,232.6 352.1,224.4 353.1,223.4 354.0,220.4 355.0,230.2 355.9,223.3 356.9,251.8 357.8,231.2 358.8,231.4 359.7,230.2 360.6,233.1 361.6,233.1 362.5,224.5 363.5,223.2 364.4,223.3 365.4,223.3 366.3,223.3 367.3,214.8 368.2,223.4 369.2,214.7 370.1,213.3 371.0,223.3 372.0,233.1 372.9,214.9 373.9,223.3 374.8,219.0 375.8,209.6 376.7,200.3 377.7,215.1 378.6,223.3 379.6,215.1 380.5,232.5 381.4,223.3 382.4,205.7 383.3,207.1 384.3,223.3 385.2,223.4 386.2,223.3 387.1,233.2 388.1,223.4 389.0,234.8 390.0,223.2 390.9,223.0 391.8,223.4 392.8,223.9 393.7,231.2 394.7,248.1 395.6,233.3 396.6,235.7 397.5,239.4 398.5,233.2 399.4,229.7 400.4,215.5 401.3,231.7 402.2,233.2 403.2,233.2 404.1,233.1 405.1,228.3 406.0,225.3 407.0,231.2 407.9,240.6 408.9,220.4 409.8,223.3 410.8,223.4 411.7,228.4 412.7,226.3 413.6,226.6 414.5,210.1 415.5,213.3 416.4,220.4 417.4,226.5 418.3,213.9 419.3,223.3 420.2,215.7 421.2,224.2 422.1,233.2 423.1,170.2 424.0,199.8 424.9,223.3 425.9,200.5 426.8,212.4 427.8,214.7 428.7,233.1 429.7,221.6 430.6,228.3 431.6,223.3 432.5,215.7 433.5,212.4 434.4,200.0 435.3,192.4 436.3,194.7 437.2,208.9 438.2,200.0 439.1,215.1 440.1,228.0 441.0,213.3 442.0,233.3 442.9,223.1 443.9,222.6 444.8,223.4 445.8,219.0 446.7,223.2 447.6,240.4 448.6,226.2 449.5,231.5 450.5,233.2 451.4,226.7 452.4,233.2 453.3,236.3 454.3,240.4 455.2,223.5 456.2,224.2 457.1,223.4 458.0,233.2 459.0,227.8 459.9,223.4 460.9,231.7 461.8,226.6 462.8,92.4 463.7,215.1 464.7,223.3 465.6,213.8 466.6,231.5 467.5,230.2 468.4,223.4 469.4,223.4 470.3,223.3 471.3,220.4 472.2,223.2 473.2,233.2 474.1,238.4 475.1,233.2 476.0,231.7 477.0,213.9 477.9,223.4 478.8,223.3 479.8,238.0 480.7,232.3 481.7,217.1 482.6,212.6 483.6,230.2 484.5,226.8 485.5,230.5 486.4,233.4 487.4,200.3 488.3,233.3 489.2,233.3 490.2,216.7 491.1,220.5 492.1,228.0 493.0,220.3 494.0,219.8 494.9,226.9 495.9,231.9 496.8,233.0 497.8,223.3 498.7,237.7 499.7,240.3 500.6,225.0 501.5,236.6 502.5,223.3 503.4,227.9 504.4,211.9 505.3,214.8 506.3,214.8 507.2,223.3 508.2,223.3 509.1,217.0 510.1,234.2 511.0,224.1 511.9,231.5 512.9,223.4 513.8,223.4 514.8,236.6 515.7,216.9 516.7,233.6 517.6,224.5 518.6,236.6 519.5,223.3 520.5,231.8 521.4,231.4 522.3,223.3 523.3,168.8 524.2,223.3 525.2,224.5 526.1,224.6 527.1,226.7 528.0,223.4 529.0,223.3 529.9,239.7 530.9,223.4 531.8,230.2 532.8,223.4 533.7,228.4 534.6,226.6 535.6,238.6 536.5,232.1 537.5,236.6 538.4,236.3 539.4,232.3 540.3,236.4 541.3,233.6 542.2,240.4 543.2,223.4 544.1,241.1 545.0,212.7 546.0,225.1 546.9,205.7 547.9,213.8 548.8,223.4 549.8,201.9 550.7,223.3 551.7,223.1 552.6,223.4 553.6,231.5 554.5,223.4 555.4,236.3 556.4,223.4 557.3,226.9 558.3,222.4 559.2,223.4 560.2,234.7 561.1,235.8 562.1,200.3 563.0,230.5 564.0,230.2 564.9,235.3 565.8,230.2 566.8,232.1 567.7,216.6 568.7,232.6 569.6,212.7 570.6,230.1 571.5,222.9 572.5,219.7 573.4,225.0 574.4,223.4 575.3,223.4 576.2,219.7 577.2,229.3 578.1,196.0 579.1,220.2 580.0,212.0 581.0,231.5 581.9,170.2 582.9,230.2 583.8,199.8 584.8,220.0 585.7,216.7 586.7,210.0 587.6,215.8 588.5,239.5 589.5,231.5 590.4,223.3 591.4,227.9 592.3,223.3 593.3,209.9 594.2,223.4 595.2,207.1 596.1,223.3 597.1,200.0 598.0,199.8 598.9,201.8 599.9,223.4 600.8,235.0 601.8,223.4 602.7,216.6 603.7,230.6 604.6,231.6 605.6,219.9 606.5,223.3 607.5,214.8 608.4,231.3 609.3,230.2 610.3,231.4 611.2,236.4 612.2,240.4 613.1,229.4 614.1,228.0 615.0,218.7 616.0,227.7 616.9,227.9 617.9,204.0 618.8,220.5 619.8,215.5 620.7,226.7 621.6,224.4 622.6,225.1 623.5,232.1 624.5,231.5 625.4,223.4 626.4,229.2 627.3,236.3 628.3,223.7 629.2,237.1 630.2,225.0 631.1,231.4 632.0,236.4 633.0,236.3 633.9,233.4 634.9,237.6 635.8,212.1 636.8,228.0 637.7,233.2 638.7,222.8 639.6,223.2 640.6,222.2 641.5,222.3 642.4,215.1 643.4,223.4 644.3,172.5 645.3,210.3 646.2,223.3 647.2,214.0 648.1,217.9 649.1,231.6 650.0,215.8 651.0,214.9 651.9,232.2 652.8,222.0 653.8,227.8 654.7,223.3 655.7,223.3 656.6,230.1 657.6,220.4 658.5,211.4 659.5,208.2 660.4,232.6 661.4,223.1 662.3,224.4 663.2,218.9 664.2,223.2 665.1,211.8 666.1,228.8 667.0,223.6 668.0,223.3 668.9,233.2 669.9,229.9 670.8,223.3 671.8,236.3 672.7,223.7 673.7,223.4 674.6,236.8 675.5,214.9 676.5,230.2 677.4,227.6 678.4,234.1 679.3,223.7 680.3,225.3 681.2,222.3 682.2,223.4 683.1,224.5 684.1,223.4 685.0,218.4 685.9,208.6 686.9,195.0 687.8,224.5 688.8,212.1 689.7,229.2 690.7,223.3 691.6,223.4 692.6,199.9 693.5,208.3 694.5,223.4 695.4,217.7 696.3,220.4 697.3,223.4 698.2,189.0 699.2,215.4 700.1,223.4 701.1,230.2 702.0,224.4 703.0,233.2 703.9,219.1 704.9,216.6 705.8,233.2 706.8,198.6 707.7,223.3 708.6,223.6 709.6,216.6 710.5,223.3 711.5,223.4 712.4,223.4 713.4,221.2 714.3,215.8 715.3,200.2 716.2,183.2 717.2,223.4 718.1,223.7 719.0,200.5 720.0,227.0 720.9,226.5 721.9,241.1 722.8,239.9 723.8,237.3 724.7,236.6 725.7,192.0 726.6,244.7 727.6,208.6 728.5,233.3 729.4,241.0 730.4,240.2 731.3,223.5 732.3,174.1 733.2,223.3 734.2,194.8 735.1,229.1 736.1,236.2 737.0,241.0 738.0,220.4 738.9,228.2 739.8,256.0 740.8,170.2 741.7,200.3 742.7,256.2 743.6,223.4 744.6,226.2 745.5,223.3 746.5,236.7 747.4,223.3 748.4,230.2 749.3,216.6 750.2,181.2 751.2,223.4 752.1,204.6 753.1,210.1 754.0,208.6 755.0,200.0 755.9,223.8 756.9,227.4 757.8,243.2 758.8,213.2 759.7,240.6 760.7,224.6 761.6,231.9 762.5,230.1 763.5,241.0 764.4,229.3 765.4,237.6 766.3,247.8 767.3,245.3 768.2,252.0 769.2,236.3 770.1,238.6 771.1,240.9 772.0,199.5 772.9,194.9 773.9,224.5 774.8,218.0 775.8,223.5 776.7,216.6 777.7,216.7 778.6,233.2 779.6,236.3 780.5,237.1 781.5,245.8 782.4,238.2 783.3,237.1 784.3,230.8 785.2,207.1 786.2,236.3 787.1,233.2 788.1,240.9 789.0,213.1 790.0,223.4 790.9,236.4 791.9,227.7 792.8,224.6 793.8,230.2 794.7,214.8 795.6,222.2 796.6,216.8 797.5,223.3 798.5,229.9 799.4,224.9 800.4,227.8 801.3,257.6 802.3,230.2 803.2,236.7 804.2,235.8 805.1,223.4 806.0,231.8 807.0,223.4 807.9,223.3 808.9,211.7 809.8,242.1 810.8,225.6 811.7,200.2 812.7,220.4 813.6,223.3 814.6,223.4 815.5,214.7 816.4,233.5 817.4,223.3 818.3,238.6 819.3,223.3 820.2,241.1 821.2,240.4 822.1,223.4 823.1,225.0 824.0,198.4 825.0,237.3 825.9,299.1 826.8,332.3 827.8,333.7 828.7,330.9 829.7,331.5 830.6,256.7 831.6,327.6 832.5,327.7 833.5,331.7 834.4,333.7 835.4,332.3 836.3,331.6 837.2,322.4 838.2,331.5 839.1,332.9 840.1,331.0 841.0,328.4 842.0,333.2 842.9,329.7 843.9,329.7 844.8,329.6 845.8,330.4 846.7,331.5 847.7,327.6 848.6,331.5 849.5,329.1 850.5,327.7 851.4,330.3 852.4,328.4 853.3,331.3 854.3,335.3 855.2,331.5 856.2,330.0 857.1,331.5 858.1,330.0 859.0,331.6 859.9,327.6 860.9,329.0 861.8,330.0 862.8,328.8 863.7,326.0 864.7,327.7 865.6,327.5 866.6,329.2 867.5,328.1 868.5,327.6 869.4,329.0 870.3,331.5 871.3,327.6 872.2,329.6 873.2,328.9 874.1,331.5 875.1,331.5 876.0,330.1 877.0,322.8 877.9,329.3 878.9,331.5 879.8,331.8 880.8,331.3 881.7,329.1 882.6,331.5 883.6,332.5 884.5,325.5 885.5,325.9 886.4,328.4 887.4,324.7 888.3,330.2 889.3,327.0 890.2,328.8 891.2,329.0 892.1,327.6 893.0,326.7 894.0,331.4 894.9,326.1 895.9,332.9 896.8,327.7 897.8,323.0 898.7,325.8 899.7,322.4 900.6,317.8 901.6,322.7 902.5,322.8 903.4,322.7 904.4,326.8 905.3,322.8 906.3,323.1 907.2,325.0 908.2,322.8 909.1,322.0 910.1,325.5 911.0,322.4 912.0,322.0 912.9,322.8 913.8,322.6 914.8,322.4 915.7,322.4 916.7,322.4 917.6,322.4 918.6,322.7 919.5,322.7 920.5,322.8 921.4,321.8 922.4,322.0 923.3,322.4 924.2,322.0 925.2,322.4 926.1,322.7 927.1,322.4 928.0,327.6 929.0,322.0 929.9,322.8 930.9,322.0 931.8,322.0 932.8,322.4 933.7,321.0 934.7,322.8 935.6,322.8 936.5,322.8 937.5,322.4 938.4,322.8 939.4,322.0 940.3,322.8 941.3,322.6 942.2,322.4 943.2,328.8 944.1,323.2 945.1,322.8 946.0,322.4" fill="none" stroke="#d97706" stroke-width="2.2" stroke-linejoin="round" stroke-linecap="round"/>
<line x1="76" y1="70" x2="94" y2="70" stroke="#2563eb" stroke-width="3"/>
<text x="100" y="74" font-family="Arial, sans-serif" font-size="11" fill="#0f172a">avg fee</text>
<line x1="179" y1="70" x2="197" y2="70" stroke="#059669" stroke-width="3"/>
<text x="203" y="74" font-family="Arial, sans-serif" font-size="11" fill="#0f172a">median fee</text>
<line x1="303" y1="70" x2="321" y2="70" stroke="#d97706" stroke-width="3"/>
<text x="327" y="74" font-family="Arial, sans-serif" font-size="11" fill="#0f172a">p90 fee</text>
<text x="28" y="404" font-family="Arial, sans-serif" font-size="11" fill="#64748b">Source: hourly_features.csv</text>
</svg>