<svg xmlns="http://www.w3.org/2000/svg" width="980" height="420" viewBox="0 0 980 420">
<rect width="100%" height="100%" fill="#ffffff"/>
<text x="28" y="34" font-family="Arial, sans-serif" font-size="20" font-weight="700" fill="#0f172a">Hourly fee trend</text>
<text x="28" y="56" font-family="Arial, sans-serif" font-size="12" fill="#64748b">Average, median, and p90 total fee by hour</text>
<line x1="76" y1="362.0" x2="946" y2="362.0" stroke="#e2e8f0" stroke-width="1"/>
<text x="68" y="366.0" font-family="Arial, sans-serif" font-size="10" text-anchor="end" fill="#64748b">-311K</text>
<line x1="76" y1="292.0" x2="946" y2="292.0" stroke="#e2e8f0" stroke-width="1"/>
<text x="68" y="296.0" font-family="Arial, sans-serif" font-size="10" text-anchor="end" fill="#64748b">2.7M</text>
<line x1="76" y1="222.0" x2="946" y2="222.0" stroke="#e2e8f0" stroke-width="1"/>
<text x="68" y="226.0" font-family="Arial, sans-serif" font-size="10" text-anchor="end" fill="#64748b">5.7M</text>
<line x1="76" y1="152.0" x2="946" y2="152.0" stroke="#e2e8f0" stroke-width="1"/>
<text x="68" y="156.0" font-family="Arial, sans-serif" font-size="10" text-anchor="end" fill="#64748b">8.7M</text>
<line x1="76" y1="82.0" x2="946" y2="82.0" stroke="#e2e8f0" stroke-width="1"/>
<text x="68" y="86.0" font-family="Arial, sans-serif" font-size="10" text-anchor="end" fill="#64748b">11.7M</text>
<line x1="76" y1="362" x2="946" y2="362" stroke="#334155" stroke-width="1"/>
<line x1="76" y1="82" x2="76" y2="362" stroke="#334155" stroke-width="1"/>
<text x="76" y="72" font-family="Arial, sans-serif" font-size="11" fill="#64748b">nanoton</text>
<line x1="76.0" y1="362" x2="76.0" y2="366" stroke="#334155" stroke-width="1"/>
<text x="76.0" y="380" font-family="Arial, sans-serif" font-size="10" text-anchor="middle" fill="#64748b">0</text>
<line x1="511.0" y1="362" x2="511.0" y2="366" stroke="#334155" stroke-width="1"/>
<text x="511.0" y="380" font-family="Arial, sans-serif" font-size="10" text-anchor="middle" fill="#64748b">398</text>
<line x1="946.0" y1="362" x2="946.0" y2="366" stroke="#334155" stroke-width="1"/>
<text x="946.0" y="380" font-family="Arial, sans-serif" font-size="10" text-anchor="middle" fill="#64748b">796</text>
<polyline points="76.0,292.0 77.1,295.8 78.2,297.2 79.3,299.3 80.4,306.1 81.5,298.4 82.6,299.4 83.7,295.8 84.7,300.2 85.8,300.0 86.9,288.9 88.0,300.8 89.1,300.9 90.2,298.6 91.3,301.5 92.4,301.7 93.5,293.7 94.6,293.7 95.7,302.6 96.8,292.3 97.9,290.4 99.0,288.5 100.0,295.1 101.1,295.4 102.2,297.3 103.3,293.3 104.4,298.9 105.5,291.8 106.6,294.5 107.7,289.5 108.8,290.2 109.9,274.2 111.0,285.8 112.1,286.5 113.2,295.8 114.3,301.2 115.3,294.1 116.4,296.1 117.5,305.9 118.6,308.8 119.7,303.4 120.8,298.2 121.9,299.9 123.0,299.2 124.1,305.7 125.2,298.6 126.3,295.7 127.4,297.7 128.5,299.9 129.6,304.4 130.6,304.4 131.7,303.2 132.8,301.6 133.9,304.6 135.0,303.5 136.1,300.7 137.2,300.4 138.3,304.1 139.4,300.4 140.5,302.6 141.6,308.1 142.7,310.0 143.8,307.7 144.9,308.4 145.9,310.4 147.0,307.2 148.1,306.8 149.2,303.3 150.3,309.8 151.4,291.9 152.5,307.7 153.6,307.7 154.7,307.6 155.8,312.6 156.9,308.4 158.0,311.6 159.1,310.4 160.2,306.8 161.3,306.7 162.3,304.5 163.4,304.7 164.5,302.6 165.6,306.4 166.7,308.7 167.8,308.2 168.9,309.4 170.0,306.3 171.1,304.2 172.2,304.0 173.3,299.8 174.4,306.2 175.5,298.3 176.6,300.5 177.6,301.6 178.7,305.2 179.8,312.9 180.9,301.4 182.0,301.8 183.1,310.2 184.2,308.8 185.3,301.5 186.4,305.5 187.5,306.4 188.6,303.9 189.7,301.7 190.8,298.7 191.9,299.9 192.9,303.2 194.0,309.4 195.1,308.7 196.2,308.7 197.3,304.4 198.4,303.2 199.5,305.4 200.6,305.2 201.7,305.3 202.8,309.6 203.9,310.2 205.0,308.6 206.1,302.3 207.2,288.0 208.2,302.9 209.3,300.0 210.4,297.3 211.5,300.8 212.6,306.8 213.7,302.8 214.8,306.2 215.9,303.4 217.0,306.2 218.1,308.1 219.2,306.2 220.3,302.0 221.4,306.1 222.5,309.3 223.6,303.7 224.6,303.0 225.7,304.4 226.8,304.6 227.9,300.2 229.0,299.7 230.1,299.2 231.2,290.6 232.3,298.1 233.4,297.6 234.5,296.7 235.6,300.9 236.7,300.3 237.8,305.9 238.9,305.3 239.9,305.1 241.0,300.4 242.1,302.5 243.2,307.0 244.3,305.8 245.4,313.4 246.5,307.0 247.6,305.6 248.7,308.3 249.8,308.2 250.9,303.2 252.0,305.1 253.1,302.0 254.2,302.9 255.2,301.5 256.3,300.0 257.4,291.8 258.5,297.3 259.6,301.8 260.7,297.8 261.8,304.0 262.9,303.8 264.0,304.3 265.1,303.9 266.2,304.1 267.3,305.0 268.4,301.4 269.5,306.9 270.5,304.2 271.6,300.5 272.7,304.1 273.8,308.0 274.9,307.4 276.0,308.0 277.1,299.7 278.2,302.9 279.3,299.1 280.4,305.1 281.5,301.5 282.6,300.7 283.7,296.9 284.8,299.4 285.8,299.6 286.9,295.0 288.0,301.2 289.1,299.1 290.2,299.9 291.3,295.4 292.4,299.1 293.5,279.1 294.6,285.4 295.7,296.4 296.8,297.0 297.9,295.6 299.0,302.0 300.1,305.5 301.2,303.7 302.2,303.4 303.3,299.1 304.4,296.5 305.5,297.8 306.6,292.6 307.7,293.2 308.8,291.8 309.9,291.2 311.0,300.9 312.1,293.2 313.2,298.0 314.3,301.0 315.4,305.0 316.5,303.7 317.5,303.3 318.6,303.5 319.7,302.1 320.8,304.8 321.9,297.1 323.0,299.0 324.1,305.7 325.2,305.5 326.3,300.8 327.4,305.2 328.5,304.7 329.6,300.2 330.7,289.9 331.8,294.9 332.8,295.4 333.9,304.9 335.0,296.8 336.1,298.2 337.2,306.9 338.3,296.1 339.4,301.7 340.5,306.4 341.6,309.8 342.7,306.7 343.8,305.3 344.9,301.9 346.0,305.1 347.1,300.5 348.1,304.3 349.2,306.3 350.3,304.3 351.4,300.6 352.5,295.6 353.6,301.2 354.7,287.4 355.8,303.4 356.9,295.1 358.0,299.2 359.1,300.7 360.2,298.7 361.3,295.7 362.4,311.7 363.4,292.8 364.5,296.8 365.6,282.8 366.7,295.8 367.8,294.5 368.9,296.2 370.0,292.2 371.1,302.3 372.2,281.0 373.3,298.5 374.4,293.1 375.5,292.7 376.6,284.4 377.7,299.5 378.8,301.6 379.8,299.9 380.9,289.6 382.0,300.3 383.1,305.6 384.2,299.0 385.3,296.8 386.4,280.9 387.5,285.3 388.6,301.8 389.7,301.1 390.8,299.3 391.9,294.6 393.0,304.4 394.1,304.3 395.1,299.9 396.2,298.0 397.3,298.6 398.4,302.6 399.5,299.4 400.6,312.8 401.7,300.7 402.8,304.8 403.9,302.4 405.0,304.2 406.1,305.5 407.2,299.1 408.3,295.6 409.4,300.5 410.4,296.3 411.5,303.1 412.6,293.8 413.7,298.8 414.8,295.1 415.9,291.2 417.0,296.3 418.1,305.8 419.2,292.3 420.3,301.6 421.4,297.1 422.5,294.3 423.6,292.8 424.7,298.1 425.7,298.4 426.8,299.1 427.9,300.8 429.0,294.1 430.1,287.4 431.2,291.3 432.3,301.2 433.4,295.7 434.5,302.2 435.6,304.3 436.7,300.4 437.8,303.8 438.9,296.4 440.0,298.3 441.1,304.0 442.1,302.9 443.2,304.2 444.3,310.0 445.4,308.1 446.5,307.4 447.6,307.8 448.7,305.6 449.8,305.7 450.9,299.6 452.0,302.4 453.1,304.4 454.2,304.6 455.3,305.5 456.4,303.6 457.4,300.6 458.5,305.8 459.6,308.4 460.7,298.5 461.8,300.2 462.9,299.3 464.0,300.9 465.1,299.1 466.2,302.3 467.3,288.4 468.4,295.5 469.5,296.0 470.6,299.9 471.7,292.5 472.7,299.6 473.8,295.8 474.9,300.0 476.0,305.5 477.1,283.3 478.2,291.0 479.3,300.1 480.4,296.4 481.5,294.6 482.6,295.9 483.7,305.6 484.8,298.1 485.9,303.0 487.0,298.0 488.0,296.8 489.1,294.1 490.2,292.9 491.3,287.9 492.4,288.9 493.5,295.4 494.6,293.8 495.7,298.7 496.8,304.4 497.9,298.0 499.0,305.4 500.1,299.9 501.2,299.0 502.3,300.6 503.3,298.4 504.4,297.8 505.5,306.8 506.6,303.2 507.7,305.8 508.8,304.2 509.9,304.7 511.0,304.0 512.1,305.8 513.2,303.0 514.3,301.3 515.4,298.5 516.5,296.2 517.6,306.3 518.7,304.0 519.7,305.0 520.8,304.1 521.9,299.7 523.0,258.0 524.1,292.2 525.2,299.7 526.3,297.5 527.4,302.3 528.5,302.9 529.6,301.1 530.7,300.6 531.8,300.9 532.9,297.2 534.0,300.7 535.0,306.9 536.1,307.8 537.2,302.1 538.3,304.0 539.4,296.3 540.5,303.5 541.6,298.1 542.7,306.1 543.8,300.3 544.9,296.8 546.0,296.4 547.1,302.2 548.2,302.2 549.3,301.9 550.3,305.8 551.4,293.8 552.5,304.8 553.6,307.3 554.7,296.7 555.8,298.7 556.9,304.1 558.0,297.1 559.1,300.7 560.2,305.2 561.3,303.0 562.4,305.1 563.5,302.0 564.6,307.4 565.6,306.9 566.7,302.1 567.8,304.5 568.9,298.3 570.0,301.4 571.1,293.5 572.2,293.2 573.3,293.3 574.4,300.5 575.5,299.7 576.6,300.1 577.7,302.8 578.8,300.9 579.9,306.6 580.9,301.5 582.0,301.8 583.1,306.0 584.2,300.4 585.3,305.7 586.4,300.9 587.5,307.7 588.6,300.4 589.7,305.7 590.8,304.6 591.9,299.3 593.0,264.7 594.1,304.2 595.2,305.8 596.3,302.6 597.3,302.1 598.4,299.5 599.5,301.2 600.6,304.0 601.7,299.9 602.8,305.3 603.9,304.0 605.0,304.3 606.1,302.4 607.2,309.7 608.3,305.7 609.4,310.4 610.5,305.8 611.6,305.0 612.6,306.2 613.7,304.9 614.8,306.6 615.9,300.8 617.0,306.5 618.1,298.3 619.2,303.5 620.3,289.3 621.4,295.8 622.5,301.0 623.6,288.5 624.7,300.3 625.8,299.7 626.9,298.1 627.9,302.4 629.0,300.8 630.1,303.9 631.2,300.5 632.3,304.3 633.4,299.2 634.5,302.9 635.6,306.6 636.7,305.8 637.8,291.6 638.9,304.4 640.0,300.9 641.1,303.6 642.2,304.4 643.2,305.9 644.3,297.5 645.4,302.9 646.5,294.1 647.6,299.5 648.7,296.0 649.8,294.7 650.9,300.6 652.0,298.7 653.1,301.7 654.2,296.9 655.3,302.8 656.4,283.8 657.5,298.6 658.6,292.4 659.6,302.1 660.7,282.5 661.8,304.9 662.9,293.3 664.0,297.7 665.1,302.2 666.2,295.1 667.3,296.5 668.4,306.5 669.5,305.9 670.6,301.6 671.7,303.2 672.8,298.8 673.9,296.2 674.9,297.8 676.0,293.9 677.1,299.9 678.2,292.3 679.3,291.1 680.4,294.0 681.5,303.9 682.6,304.7 683.7,302.9 684.8,298.8 685.9,304.3 687.0,303.8 688.1,300.6 689.2,301.2 690.2,296.9 691.3,301.9 692.4,303.8 693.5,303.5 694.6,302.0 695.7,306.7 696.8,306.4 697.9,302.3 699.0,295.5 700.1,302.3 701.2,300.2 702.3,291.6 703.4,297.1 704.5,295.3 705.5,302.6 706.6,299.4 707.7,300.4 708.8,303.9 709.9,302.2 711.0,300.4 712.1,303.9 713.2,304.9 714.3,300.8 715.4,305.7 716.5,299.4 717.6,303.9 718.7,306.2 719.8,304.6 720.8,305.1 721.9,307.0 723.0,295.8 724.1,308.0 725.2,305.0 726.3,296.4 727.4,295.3 728.5,294.9 729.6,297.1 730.7,297.2 731.8,299.4 732.9,285.9 734.0,296.1 735.1,299.8 736.2,297.5 737.2,295.4 738.3,301.9 739.4,295.5 740.5,297.2 741.6,305.1 742.7,297.0 743.8,303.8 744.9,298.9 746.0,301.3 747.1,302.0 748.2,299.6 749.3,296.0 750.4,297.1 751.5,304.3 752.5,296.8 753.6,297.2 754.7,296.4 755.8,296.6 756.9,296.2 758.0,301.2 759.1,300.2 760.2,297.1 761.3,304.6 762.4,304.2 763.5,299.4 764.6,306.8 765.7,302.1 766.8,301.7 767.8,306.5 768.9,297.1 770.0,303.1 771.1,304.5 772.2,305.9 773.3,300.4 774.4,302.2 775.5,299.2 776.6,300.0 777.7,298.5 778.8,302.1 779.9,297.2 781.0,294.2 782.1,285.4 783.1,300.0 784.2,295.1 785.3,300.2 786.4,300.1 787.5,299.2 788.6,292.2 789.7,293.5 790.8,299.5 791.9,298.7 793.0,298.8 794.1,299.8 795.2,289.4 796.3,297.7 797.4,298.6 798.4,303.0 799.5,302.2 800.6,306.7 801.7,297.0 802.8,296.3 803.9,301.1 805.0,290.8 806.1,298.0 807.2,296.4 808.3,296.4 809.4,296.0 810.5,298.7 811.6,300.8 812.7,297.0 813.8,298.2 814.8,293.0 815.9,286.3 817.0,301.0 818.1,302.3 819.2,294.8 820.3,303.6 821.4,298.8 822.5,309.0 823.6,293.8 824.7,306.2 825.8,305.4 826.9,293.2 828.0,306.4 829.1,299.0 830.1,299.4 831.2,308.7 832.3,306.7 833.4,295.2 834.5,285.7 835.6,296.9 836.7,282.7 837.8,297.0 838.9,308.4 840.0,304.8 841.1,300.5 842.2,302.8 843.3,310.3 844.4,289.0 845.4,294.6 846.5,315.6 847.6,302.1 848.7,305.5 849.8,300.4 850.9,306.7 852.0,298.7 853.1,304.7 854.2,298.5 855.3,287.4 856.4,296.8 857.5,294.6 858.6,296.5 859.7,293.8 860.7,296.3 861.8,298.7 862.9,304.4 864.0,309.1 865.1,296.4 866.2,307.9 867.3,306.3 868.4,306.7 869.5,304.4 870.6,298.6 871.7,294.8 872.8,306.3 873.9,311.7 875.0,307.9 876.1,310.7 877.1,305.3 878.2,309.1 879.3,309.5 880.4,300.3 881.5,289.4 882.6,298.3 883.7,299.3 884.8,299.8 885.9,300.0 887.0,296.4 888.1,307.1 889.2,309.1 890.3,305.7 891.4,310.6 892.4,308.0 893.5,304.5 894.6,304.8 895.7,297.7 896.8,305.4 897.9,306.8 899.0,309.5 900.1,293.1 901.2,303.1 902.3,306.6 903.4,303.5 904.5,302.1 905.6,304.0 906.7,296.2 907.7,296.3 908.8,296.5 909.9,300.4 911.0,300.3 912.1,302.2 913.2,305.8 914.3,308.6 915.4,304.4 916.5,302.1 917.6,304.3 918.7,292.1 919.8,302.4 920.9,303.2 922.0,303.3 923.0,296.9 924.1,307.9 925.2,305.4 926.3,290.0 927.4,298.7 928.5,296.5 929.6,296.9 930.7,297.3 931.8,307.6 932.9,301.5 934.0,306.2 935.1,296.9 936.2,304.9 937.3,306.4 938.3,303.9 939.4,302.9 940.5,286.4 941.6,305.6 942.7,336.2 943.8,345.2 944.9,345.3 946.0,345.2" fill="none" stroke="#2563eb" stroke-width="2.2" stroke-linejoin="round" stroke-linecap="round"/>
<polyline points="76.0,312.8 77.1,326.4 78.2,335.5 79.3,336.0 80.4,336.5 81.5,336.1 82.6,335.8 83.7,332.2 84.7,336.1 85.8,336.1 86.9,321.8 88.0,336.1 89.1,335.6 90.2,332.2 91.3,335.9 92.4,335.3 93.5,322.5 94.6,331.9 95.7,333.8 96.8,311.9 97.9,304.2 99.0,307.2 100.0,321.9 101.1,316.8 102.2,311.8 103.3,331.3 104.4,334.9 105.5,313.8 106.6,336.5 107.7,320.4 108.8,331.9 109.9,285.0 111.0,301.6 112.1,304.6 113.2,309.6 114.3,332.8 115.3,313.8 116.4,311.9 117.5,336.3 118.6,336.5 119.7,331.2 120.8,311.9 121.9,311.9 123.0,313.8 124.1,342.3 125.2,336.4 126.3,310.2 127.4,311.6 128.5,336.4 129.6,336.8 130.6,335.6 131.7,334.9 132.8,335.4 133.9,336.0 135.0,332.9 136.1,336.0 137.2,332.3 138.3,335.7 139.4,336.1 140.5,335.6 141.6,336.5 142.7,336.3 143.8,336.4 144.9,345.5 145.9,337.2 147.0,336.4 148.1,336.4 149.2,332.2 150.3,345.5 151.4,337.1 152.5,337.7 153.6,337.7 154.7,336.5 155.8,339.6 156.9,337.6 158.0,337.6 159.1,336.6 160.2,336.5 161.3,336.5 162.3,336.0 163.4,336.5 164.5,336.1 165.6,336.0 166.7,336.5 167.8,336.5 168.9,336.5 170.0,335.8 171.1,336.4 172.2,336.3 173.3,332.2 174.4,336.2 175.5,313.5 176.6,331.1 177.6,332.5 178.7,335.3 179.8,345.5 180.9,332.0 182.0,335.3 183.1,336.5 184.2,337.7 185.3,336.1 186.4,336.2 187.5,336.3 188.6,336.0 189.7,332.4 190.8,331.9 191.9,333.0 192.9,334.5 194.0,336.4 195.1,336.4 196.2,336.4 197.3,335.5 198.4,336.3 199.5,336.4 200.6,333.0 201.7,333.8 202.8,337.7 203.9,345.5 205.0,337.6 206.1,336.5 207.2,311.4 208.2,336.4 209.3,335.9 210.4,336.1 211.5,335.3 212.6,336.4 213.7,335.5 214.8,336.4 215.9,336.3 217.0,336.4 218.1,336.5 219.2,336.2 220.3,334.6 221.4,336.4 222.5,336.5 223.6,336.5 224.6,335.6 225.7,335.7 226.8,331.7 227.9,311.9 229.0,300.0 230.1,311.1 231.2,305.7 232.3,311.5 233.4,311.5 234.5,329.1 235.6,334.4 236.7,335.3 237.8,335.3 238.9,336.4 239.9,336.4 241.0,335.3 242.1,336.2 243.2,336.1 244.3,336.1 245.4,345.5 246.5,336.4 247.6,336.3 248.7,336.5 249.8,336.4 250.9,335.3 252.0,335.9 253.1,332.4 254.2,321.1 255.2,300.0 256.3,335.5 257.4,328.3 258.5,336.1 259.6,333.2 260.7,333.2 261.8,332.8 262.9,336.2 264.0,335.9 265.1,336.1 266.2,336.1 267.3,332.2 268.4,332.2 269.5,336.4 270.5,335.8 271.6,332.4 272.7,336.0 273.8,336.5 274.9,336.0 276.0,336.4 277.1,331.9 278.2,335.8 279.3,316.9 280.4,336.1 281.5,300.0 282.6,335.5 283.7,331.1 284.8,334.0 285.8,333.3 286.9,311.9 288.0,333.2 289.1,333.7 290.2,336.0 291.3,325.2 292.4,335.4 293.5,297.0 294.6,299.9 295.7,328.5 296.8,332.6 297.9,332.2 299.0,333.7 300.1,336.1 301.2,336.1 302.2,335.5 303.3,326.2 304.4,316.4 305.5,309.9 306.6,306.7 307.7,300.0 308.8,307.8 309.9,306.7 311.0,333.2 312.1,306.8 313.2,318.4 314.3,334.9 315.4,336.5 316.5,335.6 317.5,336.4 318.6,336.4 319.7,335.2 320.8,336.5 321.9,321.1 323.0,321.1 324.1,335.5 325.2,335.3 326.3,334.9 327.4,336.1 328.5,336.0 329.6,332.7 330.7,306.7 331.8,309.6 332.8,309.6 333.9,300.0 335.0,311.5 336.1,336.9 337.2,337.7 338.3,313.8 339.4,336.0 340.5,337.6 341.6,337.4 342.7,337.7 343.8,336.5 344.9,335.3 346.0,335.7 347.1,335.9 348.1,335.0 349.2,336.1 350.3,335.9 351.4,331.0 352.5,310.3 353.6,335.5 354.7,309.5 355.8,335.8 356.9,312.0 358.0,311.6 359.1,326.5 360.2,306.8 361.3,321.1 362.4,345.5 363.4,316.9 364.5,335.6 365.6,309.6 366.7,311.2 367.8,331.5 368.9,335.5 370.0,336.5 371.1,334.7 372.2,325.2 373.3,335.3 374.4,309.5 375.5,307.4 376.6,325.2 377.7,316.9 378.8,334.9 379.8,334.0 380.9,304.5 382.0,335.5 383.1,336.1 384.2,327.9 385.3,335.3 386.4,322.2 387.5,335.1 388.6,335.2 389.7,335.5 390.8,332.2 391.9,333.2 393.0,335.2 394.1,336.1 395.1,335.3 396.2,334.5 397.3,311.9 398.4,336.2 399.5,332.2 400.6,347.4 401.7,335.3 402.8,336.2 403.9,335.2 405.0,336.2 406.1,336.1 407.2,311.9 408.3,316.7 409.4,333.5 410.4,311.8 411.5,333.2 412.6,306.6 413.7,331.9 414.8,328.3 415.9,303.5 417.0,311.0 418.1,337.3 419.2,334.9 420.3,336.4 421.4,335.9 422.5,307.8 423.6,307.8 424.7,319.6 425.7,321.5 426.8,325.0 427.9,333.2 429.0,311.9 430.1,306.7 431.2,309.5 432.3,333.2 433.4,306.5 434.5,331.9 435.6,335.5 436.7,328.2 437.8,332.2 438.9,306.7 440.0,309.5 441.1,335.3 442.1,335.5 443.2,336.5 444.3,342.3 445.4,337.6 446.5,337.5 447.6,336.5 448.7,337.7 449.8,337.2 450.9,335.3 452.0,335.9 453.1,336.4 454.2,336.3 455.3,336.4 456.4,336.1 457.4,333.3 458.5,335.9 459.6,336.5 460.7,330.6 461.8,332.2 462.9,327.2 464.0,326.7 465.1,309.5 466.2,335.0 467.3,309.7 468.4,311.6 469.5,331.9 470.6,321.0 471.7,309.6 472.7,336.0 473.8,320.1 474.9,337.3 476.0,336.5 477.1,298.8 478.2,306.6 479.3,326.7 480.4,327.1 481.5,320.3 482.6,311.6 483.7,336.4 484.8,322.7 485.9,335.6 487.0,333.0 488.0,331.2 489.1,310.9 490.2,309.7 491.3,300.0 492.4,303.9 493.5,306.8 494.6,310.3 495.7,333.2 496.8,335.5 497.9,331.0 499.0,336.1 500.1,335.3 501.2,336.5 502.3,335.5 503.3,335.5 504.4,326.7 505.5,336.4 506.6,336.0 507.7,336.1 508.8,336.2 509.9,336.2 511.0,336.1 512.1,336.0 513.2,335.5 514.3,328.3 515.4,328.1 516.5,306.7 517.6,344.5 518.7,336.8 519.7,345.5 520.8,336.5 521.9,330.5 523.0,302.3 524.1,335.7 525.2,335.6 526.3,317.0 527.4,336.5 528.5,335.6 529.6,336.1 530.7,335.0 531.8,331.9 532.9,331.9 534.0,335.3 535.0,336.5 536.1,336.4 537.2,334.6 538.3,335.8 539.4,311.8 540.5,333.5 541.6,311.4 542.7,334.2 543.8,306.7 544.9,311.1 546.0,311.9 547.1,331.5 548.2,335.3 549.3,333.9 550.3,336.8 551.4,319.7 552.5,336.1 553.6,337.7 554.7,332.8 555.8,327.2 556.9,336.1 558.0,332.7 559.1,333.2 560.2,336.2 561.3,335.9 562.4,335.3 563.5,332.2 564.6,336.4 565.6,336.3 566.7,333.2 567.8,334.7 568.9,312.0 570.0,331.9 571.1,309.5 572.2,309.7 573.3,306.7 574.4,331.9 575.5,328.3 576.6,331.8 577.7,336.3 578.8,332.9 579.9,336.5 580.9,336.1 582.0,335.5 583.1,336.4 584.2,336.1 585.3,336.4 586.4,335.3 587.5,336.5 588.6,334.7 589.7,336.1 590.8,336.4 591.9,334.2 593.0,284.8 594.1,335.3 595.2,336.5 596.3,320.7 597.3,332.6 598.4,331.2 599.5,333.3 600.6,335.5 601.7,336.1 602.8,336.4 603.9,336.2 605.0,336.0 606.1,336.2 607.2,336.5 608.3,336.4 609.4,336.5 610.5,336.4 611.6,336.1 612.6,336.4 613.7,336.5 614.8,336.1 615.9,335.5 617.0,337.2 618.1,335.5 619.2,335.8 620.3,306.6 621.4,321.0 622.5,310.6 623.6,302.0 624.7,311.7 625.8,332.0 626.9,311.9 627.9,331.9 629.0,334.5 630.1,336.2 631.2,335.3 632.3,335.5 633.4,332.4 634.5,336.1 635.6,336.4 636.7,336.4 637.8,306.7 638.9,335.9 640.0,332.4 641.1,336.5 642.2,335.3 643.2,336.5 644.3,335.3 645.4,336.4 646.5,311.9 647.6,335.8 648.7,307.7 649.8,309.7 650.9,335.3 652.0,332.4 653.1,335.5 654.2,331.2 655.3,335.8 656.4,306.6 657.5,332.2 658.6,330.3 659.6,335.3 660.7,297.0 661.8,336.1 662.9,311.9 664.0,311.9 665.1,335.3 666.2,319.7 667.3,319.8 668.4,335.6 669.5,336.4 670.6,335.5 671.7,335.5 672.8,331.9 673.9,309.5 674.9,309.5 676.0,311.5 677.1,335.3 678.2,311.9 679.3,311.7 680.4,328.7 681.5,333.5 682.6,336.4 683.7,336.0 684.8,335.4 685.9,336.1 687.0,336.0 688.1,332.2 689.2,335.0 690.2,333.0 691.3,336.0 692.4,335.5 693.5,335.3 694.6,332.2 695.7,336.2 696.8,336.4 697.9,333.5 699.0,308.3 700.1,327.6 701.2,306.7 702.3,307.7 703.4,310.3 704.5,307.7 705.5,336.1 706.6,328.4 707.7,335.3 708.8,334.6 709.9,335.6 711.0,336.5 712.1,336.1 713.2,335.4 714.3,335.3 715.4,336.1 716.5,332.2 717.6,333.2 718.7,336.4 719.8,335.5 720.8,336.0 721.9,336.4 723.0,328.9 724.1,336.5 725.2,335.1 726.3,321.1 727.4,304.2 728.5,311.5 729.6,328.9 730.7,328.3 731.8,325.0 732.9,299.9 734.0,312.0 735.1,332.6 736.2,332.2 737.2,336.1 738.3,326.0 739.4,325.2 740.5,331.8 741.6,335.3 742.7,332.2 743.8,336.1 744.9,325.3 746.0,334.6 747.1,335.5 748.2,327.1 749.3,310.4 750.4,316.9 751.5,335.3 752.5,309.8 753.6,307.8 754.7,309.5 755.8,311.5 756.9,313.8 758.0,332.4 759.1,333.4 760.2,319.3 761.3,336.1 762.4,336.4 763.5,336.5 764.6,336.5 765.7,336.1 766.8,335.3 767.8,336.3 768.9,331.8 770.0,335.8 771.1,336.0 772.2,335.7 773.3,335.3 774.4,336.5 775.5,332.2 776.6,335.3 777.7,316.9 778.8,332.2 779.9,306.7 781.0,325.8 782.1,307.8 783.1,333.3 784.2,310.3 785.3,335.3 786.4,335.3 787.5,332.7 788.6,312.0 789.7,335.3 790.8,331.5 791.9,328.6 793.0,325.2 794.1,331.5 795.2,306.3 796.3,313.8 797.4,335.3 798.4,333.5 799.5,331.1 800.6,335.3 801.7,324.2 802.8,309.6 803.9,311.7 805.0,306.5 806.1,306.7 807.2,309.5 808.3,312.0 809.4,311.5 810.5,321.0 811.6,327.1 812.7,332.3 813.8,332.4 814.8,306.7 815.9,306.5 817.0,335.3 818.1,332.4 819.2,306.7 820.3,336.2 821.4,309.6 822.5,335.5 823.6,336.1 824.7,334.3 825.8,334.4 826.9,309.5 828.0,336.5 829.1,331.8 830.1,311.7 831.2,331.5 832.3,328.2 833.4,307.2 834.5,307.7 835.6,325.2 836.7,298.0 837.8,335.6 838.9,336.5 840.0,336.5 841.1,333.0 842.2,336.1 843.3,336.5 844.4,305.6 845.4,309.5 846.5,336.5 847.6,333.2 848.7,335.9 849.8,332.7 850.9,336.2 852.0,333.2 853.1,322.9 854.2,336.4 855.3,333.4 856.4,311.8 857.5,309.6 858.6,306.7 859.7,307.2 860.7,307.0 861.8,326.0 862.9,332.2 864.0,335.9 865.1,333.1 866.2,336.5 867.3,336.5 868.4,336.4 869.5,323.8 870.6,336.3 871.7,332.5 872.8,336.5 873.9,345.5 875.0,345.5 876.1,345.5 877.1,336.1 878.2,336.5 879.3,336.5 880.4,335.8 881.5,312.9 882.6,310.3 883.7,309.5 884.8,309.4 885.9,331.8 887.0,309.9 888.1,338.9 889.2,336.5 890.3,336.5 891.4,336.5 892.4,333.2 893.5,333.5 894.6,335.5 895.7,331.9 896.8,336.0 897.9,336.4 899.0,336.4 900.1,313.8 901.2,335.3 902.3,333.5 903.4,335.3 904.5,333.2 905.6,332.4 906.7,312.0 907.7,309.9 908.8,315.4 909.9,328.5 911.0,306.1 912.1,342.3 913.2,343.1 914.3,336.5 915.4,336.0 916.5,336.1 917.6,326.0 918.7,319.2 919.8,347.5 920.9,336.1 922.0,336.4 923.0,319.3 924.1,345.5 925.2,335.5 926.3,323.1 927.4,334.2 928.5,326.9 929.6,335.3 930.7,315.1 931.8,336.0 932.9,330.0 934.0,332.7 935.1,306.7 936.2,332.4 937.3,311.3 938.3,332.8 939.4,331.7 940.5,292.1 941.6,336.5 942.7,349.4 943.8,351.6 944.9,351.0 946.0,350.5" fill="none" stroke="#059669" stroke-width="2.2" stroke-linejoin="round" stroke-linecap="round"/>
<polyline points="76.0,209.6 77.1,217.4 78.2,224.1 79.3,229.2 80.4,237.2 81.5,229.1 82.6,224.0 83.7,217.7 84.7,224.2 85.8,224.1 86.9,200.5 88.0,224.2 89.1,225.4 90.2,224.1 91.3,227.0 92.4,228.4 93.5,212.2 94.6,217.4 95.7,236.9 96.8,217.3 97.9,216.5 99.0,200.5 100.0,221.1 101.1,223.9 102.2,224.2 103.3,221.2 104.4,224.0 105.5,213.9 106.6,217.4 107.7,200.7 108.8,200.5 109.9,160.9 111.0,170.6 112.1,170.6 113.2,210.3 114.3,216.6 115.3,210.3 116.4,208.9 117.5,234.1 118.6,241.9 119.7,231.0 120.8,224.0 121.9,224.6 123.0,224.2 124.1,228.4 125.2,221.1 126.3,214.4 127.4,222.3 128.5,214.9 129.6,237.2 130.6,234.7 131.7,229.6 132.8,230.3 133.9,231.0 135.0,224.2 136.1,224.2 137.2,225.2 138.3,228.6 139.4,232.2 140.5,224.2 141.6,237.2 142.7,241.3 143.8,234.4 144.9,245.5 145.9,240.3 147.0,241.3 148.1,239.8 149.2,237.2 150.3,252.7 151.4,207.0 152.5,237.5 153.6,238.5 154.7,235.5 155.8,249.6 156.9,243.5 158.0,247.2 159.1,242.0 160.2,233.1 161.3,234.1 162.3,229.1 163.4,224.3 164.5,230.5 165.6,234.2 166.7,247.1 167.8,239.5 168.9,241.9 170.0,232.2 171.1,231.0 172.2,231.2 173.3,217.4 174.4,239.9 175.5,224.2 176.6,232.7 177.6,232.2 178.7,243.8 179.8,249.9 180.9,224.2 182.0,228.7 183.1,243.3 184.2,238.0 185.3,230.6 186.4,235.7 187.5,237.3 188.6,234.1 189.7,224.2 190.8,224.2 191.9,231.0 192.9,234.1 194.0,242.7 195.1,238.5 196.2,247.2 197.3,231.2 198.4,231.3 199.5,238.0 200.6,237.3 201.7,237.5 202.8,242.2 203.9,241.3 205.0,241.3 206.1,234.1 207.2,200.9 208.2,224.1 209.3,224.2 210.4,217.4 211.5,230.4 212.6,234.1 213.7,232.3 214.8,234.1 215.9,231.6 217.0,237.2 218.1,237.2 219.2,234.1 220.3,231.0 221.4,239.6 222.5,239.7 223.6,238.5 224.6,228.8 225.7,227.7 226.8,237.8 227.9,227.4 229.0,233.1 230.1,232.2 231.2,207.7 232.3,224.2 233.4,224.1 234.5,224.1 235.6,225.8 236.7,224.2 237.8,237.2 238.9,237.2 239.9,232.7 241.0,231.0 242.1,236.4 243.2,237.2 244.3,237.6 245.4,252.5 246.5,234.1 247.6,234.1 248.7,242.0 249.8,241.9 250.9,234.1 252.0,233.0 253.1,226.4 254.2,224.2 255.2,242.0 256.3,224.2 257.4,200.4 258.5,232.4 259.6,234.1 260.7,224.2 261.8,229.5 262.9,234.1 264.0,237.2 265.1,234.1 266.2,233.5 267.3,234.6 268.4,224.2 269.5,239.2 270.5,234.7 271.6,224.2 272.7,233.4 273.8,239.5 274.9,241.4 276.0,248.9 277.1,224.9 278.2,224.1 279.3,225.3 280.4,235.6 281.5,247.9 282.6,228.6 283.7,224.0 284.8,224.2 285.8,226.0 286.9,223.4 288.0,230.3 289.1,224.2 290.2,229.0 291.3,212.7 292.4,224.0 293.5,160.9 294.6,171.6 295.7,200.7 296.8,211.1 297.9,202.2 299.0,224.2 300.1,233.2 301.2,228.7 302.2,227.5 303.3,217.6 304.4,217.4 305.5,224.2 306.6,200.7 307.7,227.8 308.8,200.5 309.9,200.5 311.0,224.2 312.1,211.1 313.2,217.8 314.3,225.2 315.4,224.2 316.5,225.3 317.5,224.9 318.6,227.4 319.7,224.2 320.8,234.1 321.9,209.6 323.0,222.4 324.1,234.1 325.2,233.0 326.3,224.1 327.4,229.1 328.5,231.0 329.6,224.1 330.7,203.3 331.8,221.2 332.8,224.0 333.9,258.5 335.0,220.5 336.1,215.1 337.2,240.9 338.3,216.0 339.4,229.1 340.5,234.3 341.6,242.0 342.7,241.6 343.8,234.1 344.9,234.1 346.0,228.2 347.1,224.2 348.1,241.3 349.2,232.4 350.3,231.7 351.4,219.1 352.5,211.5 353.6,228.8 354.7,182.8 355.8,231.9 356.9,215.5 358.0,222.9 359.1,224.2 360.2,228.4 361.3,215.5 362.4,241.6 363.4,215.8 364.5,222.3 365.6,200.4 366.7,197.8 367.8,196.0 368.9,217.4 370.0,211.3 371.1,224.2 372.2,170.7 373.3,221.2 374.4,205.8 375.5,206.4 376.6,200.5 377.7,222.5 378.8,228.8 379.8,224.2 380.9,169.3 382.0,224.0 383.1,232.4 384.2,224.0 385.3,224.2 386.4,176.8 387.5,201.0 388.6,227.0 389.7,232.4 390.8,224.2 391.9,210.5 393.0,234.1 394.1,233.5 395.1,225.2 396.2,224.2 397.3,221.2 398.4,231.0 399.5,224.1 400.6,252.7 401.7,232.0 402.8,232.2 403.9,231.0 405.0,233.9 406.1,234.0 407.2,225.3 408.3,224.0 409.4,224.1 410.4,224.1 411.5,224.1 412.6,215.6 413.7,224.1 414.8,215.5 415.9,214.1 417.0,224.1 418.1,234.0 419.2,215.6 420.3,224.1 421.4,219.8 422.5,210.3 423.6,201.0 424.7,215.9 425.7,224.1 426.8,215.9 427.9,233.4 429.0,224.1 430.1,206.4 431.2,207.8 432.3,224.1 433.4,224.2 434.5,224.1 435.6,234.1 436.7,224.2 437.8,235.6 438.9,224.0 440.0,223.8 441.1,224.2 442.1,224.7 443.2,232.0 444.3,249.0 445.4,234.1 446.5,236.5 447.6,240.3 448.7,234.1 449.8,230.5 450.9,216.3 452.0,232.6 453.1,234.0 454.2,234.1 455.3,234.0 456.4,229.1 457.4,226.1 458.5,232.0 459.6,241.5 460.7,221.2 461.8,224.1 462.9,224.1 464.0,229.3 465.1,227.1 466.2,227.4 467.3,210.8 468.4,214.0 469.5,221.2 470.6,227.3 471.7,214.7 472.7,224.1 473.8,216.4 474.9,225.0 476.0,234.1 477.1,170.6 478.2,200.5 479.3,224.1 480.4,201.1 481.5,213.1 482.6,215.4 483.7,233.9 484.8,222.4 485.9,229.1 487.0,224.1 488.0,216.5 489.1,213.2 490.2,200.6 491.3,193.0 492.4,195.4 493.5,209.6 494.6,200.7 495.7,215.9 496.8,228.8 497.9,214.1 499.0,234.1 500.1,223.9 501.2,223.4 502.3,224.2 503.3,219.7 504.4,224.0 505.5,241.3 506.6,227.1 507.7,232.3 508.8,234.1 509.9,227.5 511.0,234.1 512.1,237.2 513.2,241.3 514.3,224.3 515.4,225.0 516.5,224.2 517.6,234.1 518.7,228.6 519.7,224.2 520.8,232.5 521.9,227.4 523.0,92.4 524.1,215.9 525.2,224.1 526.3,214.6 527.4,232.4 528.5,231.0 529.6,224.2 530.7,224.2 531.8,224.1 532.9,221.1 534.0,224.0 535.0,234.1 536.1,239.3 537.2,234.1 538.3,232.6 539.4,214.6 540.5,224.2 541.6,224.1 542.7,238.9 543.8,233.2 544.9,217.9 546.0,213.3 547.1,231.0 548.2,227.6 549.3,231.4 550.3,234.3 551.4,201.0 552.5,234.1 553.6,234.1 554.7,217.4 555.8,221.2 556.9,228.9 558.0,221.1 559.1,220.6 560.2,227.7 561.3,232.8 562.4,233.9 563.5,224.1 564.6,238.6 565.6,241.2 566.7,225.8 567.8,237.5 568.9,224.1 570.0,228.7 571.1,212.7 572.2,215.6 573.3,215.6 574.4,224.1 575.5,224.1 576.6,217.8 577.7,235.1 578.8,224.9 579.9,232.3 580.9,224.2 582.0,224.2 583.1,237.5 584.2,217.7 585.3,234.4 586.4,225.3 587.5,237.5 588.6,224.1 589.7,232.6 590.8,232.3 591.9,224.0 593.0,169.3 594.1,224.1 595.2,225.3 596.3,225.4 597.3,227.5 598.4,224.2 599.5,224.1 600.6,240.6 601.7,224.2 602.8,231.0 603.9,224.2 605.0,229.2 606.1,227.5 607.2,239.5 608.3,232.9 609.4,237.5 610.5,237.2 611.6,233.1 612.6,237.2 613.7,234.5 614.8,241.3 615.9,224.2 617.0,242.0 618.1,213.5 619.2,225.9 620.3,206.4 621.4,214.5 622.5,224.2 623.6,202.6 624.7,224.1 625.8,223.9 626.9,224.2 627.9,232.3 629.0,224.2 630.1,237.2 631.2,224.1 632.3,227.8 633.4,223.2 634.5,224.2 635.6,235.5 636.7,236.7 637.8,201.0 638.9,231.3 640.0,231.0 641.1,236.2 642.2,231.0 643.2,232.9 644.3,217.4 645.4,233.5 646.5,213.5 647.6,231.0 648.7,223.7 649.8,220.4 650.9,225.8 652.0,224.2 653.1,224.2 654.2,220.5 655.3,230.1 656.4,196.6 657.5,220.9 658.6,212.7 659.6,232.4 660.7,170.6 661.8,231.0 662.9,200.5 664.0,220.7 665.1,217.4 666.2,210.7 667.3,216.5 668.4,240.4 669.5,232.4 670.6,224.0 671.7,228.7 672.8,224.1 673.9,210.7 674.9,224.1 676.0,207.8 677.1,224.1 678.2,200.7 679.3,200.5 680.4,202.5 681.5,224.2 682.6,235.8 683.7,224.2 684.8,217.4 685.9,231.5 687.0,232.4 688.1,220.6 689.2,224.1 690.2,215.6 691.3,232.1 692.4,231.0 693.5,232.3 694.6,237.2 695.7,241.3 696.8,230.3 697.9,228.8 699.0,219.5 700.1,228.5 701.2,228.7 702.3,204.7 703.4,221.2 704.5,216.3 705.5,227.5 706.6,225.2 707.7,225.9 708.8,232.9 709.9,232.4 711.0,224.2 712.1,230.1 713.2,237.2 714.3,224.5 715.4,238.0 716.5,225.8 717.6,232.2 718.7,237.2 719.8,237.2 720.8,234.2 721.9,238.5 723.0,212.8 724.1,228.8 725.2,234.1 726.3,223.6 727.4,224.0 728.5,223.0 729.6,223.1 730.7,215.9 731.8,224.2 732.9,173.0 734.0,211.0 735.1,224.1 736.2,214.7 737.2,218.7 738.3,232.4 739.4,216.5 740.5,215.7 741.6,233.0 742.7,222.8 743.8,228.6 744.9,224.1 746.0,224.1 747.1,231.0 748.2,221.1 749.3,212.2 750.4,208.9 751.5,233.4 752.5,223.9 753.6,225.2 754.7,219.7 755.8,224.0 756.9,212.6 758.0,229.6 759.1,224.4 760.2,224.1 761.3,234.1 762.4,230.7 763.5,224.1 764.6,237.2 765.7,224.5 766.8,224.2 767.8,237.7 768.9,215.6 770.0,231.0 771.1,228.4 772.2,234.9 773.3,224.5 774.4,226.1 775.5,223.0 776.6,224.2 777.7,225.3 778.8,224.2 779.9,219.2 781.0,209.3 782.1,195.6 783.1,225.4 784.2,212.8 785.3,230.1 786.4,224.0 787.5,224.1 788.6,200.5 789.7,209.0 790.8,224.2 791.9,218.5 793.0,221.2 794.1,224.2 795.2,189.6 796.3,216.2 797.4,224.1 798.4,231.0 799.5,225.2 800.6,234.1 801.7,219.9 802.8,217.4 803.9,234.1 805.0,199.2 806.1,224.1 807.2,224.4 808.3,217.4 809.4,224.1 810.5,224.2 811.6,224.2 812.7,222.0 813.8,216.5 814.8,200.8 815.9,183.8 817.0,224.2 818.1,224.5 819.2,201.1 820.3,227.9 821.4,227.3 822.5,242.0 823.6,240.8 824.7,238.2 825.8,237.5 826.9,192.6 828.0,245.6 829.1,209.3 830.1,234.1 831.2,241.9 832.3,241.1 833.4,224.3 834.5,174.6 835.6,224.1 836.7,195.4 837.8,229.9 838.9,237.1 840.0,241.9 841.1,221.2 842.2,229.0 843.3,257.0 844.4,170.6 845.4,201.0 846.5,257.2 847.6,224.2 848.7,227.0 849.8,224.1 850.9,237.5 852.0,224.1 853.1,231.0 854.2,217.4 855.3,181.7 856.4,224.2 857.5,205.2 858.6,210.8 859.7,209.3 860.7,200.6 861.8,224.6 862.9,228.3 864.0,244.1 865.1,213.9 866.2,241.5 867.3,225.4 868.4,232.8 869.5,231.0 870.6,241.9 871.7,230.2 872.8,238.5 873.9,248.7 875.0,246.2 876.1,252.9 877.1,237.2 878.2,239.5 879.3,241.8 880.4,200.2 881.5,195.5 882.6,225.3 883.7,218.8 884.8,224.3 885.9,217.4 887.0,217.4 888.1,234.0 889.2,237.2 890.3,238.0 891.4,246.7 892.4,239.1 893.5,238.0 894.6,231.6 895.7,207.8 896.8,237.2 897.9,234.1 899.0,241.8 900.1,213.8 901.2,224.2 902.3,237.2 903.4,228.5 904.5,225.4 905.6,231.0 906.7,215.6 907.7,223.0 908.8,217.6 909.9,224.1 911.0,230.8 912.1,225.7 913.2,228.6 914.3,258.6 915.4,231.0 916.5,237.6 917.6,236.7 918.7,224.2 919.8,232.7 920.9,224.2 922.0,224.1 923.0,212.4 924.1,243.0 925.2,226.4 926.3,200.9 927.4,221.2 928.5,224.1 929.6,224.2 930.7,215.5 931.8,234.4 932.9,224.1 934.0,239.5 935.1,224.1 936.2,242.0 937.3,241.3 938.3,224.2 939.4,225.8 940.5,199.1 941.6,238.2 942.7,300.4 943.8,333.7 944.9,335.1 946.0,332.6" fill="none" stroke="#d97706" stroke-width="2.2" stroke-linejoin="round" stroke-linecap="round"/>
<line x1="76" y1="70" x2="94" y2="70" stroke="#2563eb" stroke-width="3"/>
<text x="100" y="74" font-family="Arial, sans-serif" font-size="11" fill="#0f172a">avg fee</text>
<line x1="179" y1="70" x2="197" y2="70" stroke="#059669" stroke-width="3"/>
<text x="203" y="74" font-family="Arial, sans-serif" font-size="11" fill="#0f172a">median fee</text>
<line x1="303" y1="70" x2="321" y2="70" stroke="#d97706" stroke-width="3"/>
<text x="327" y="74" font-family="Arial, sans-serif" font-size="11" fill="#0f172a">p90 fee</text>
<text x="28" y="404" font-family="Arial, sans-serif" font-size="11" fill="#64748b">Source: hourly_features.csv</text>
</svg>