<svg xmlns="http://www.w3.org/2000/svg" width="980" height="420" viewBox="0 0 980 420">
<rect width="100%" height="100%" fill="#ffffff"/>
<text x="28" y="34" font-family="Arial, sans-serif" font-size="20" font-weight="700" fill="#0f172a">Hourly fee trend</text>
<text x="28" y="56" font-family="Arial, sans-serif" font-size="12" fill="#64748b">Average, median, and p90 total fee by hour</text>
<line x1="76" y1="362.0" x2="946" y2="362.0" stroke="#e2e8f0" stroke-width="1"/>
<text x="68" y="366.0" font-family="Arial, sans-serif" font-size="10" text-anchor="end" fill="#64748b">-128K</text>
<line x1="76" y1="292.0" x2="946" y2="292.0" stroke="#e2e8f0" stroke-width="1"/>
<text x="68" y="296.0" font-family="Arial, sans-serif" font-size="10" text-anchor="end" fill="#64748b">2.8M</text>
<line x1="76" y1="222.0" x2="946" y2="222.0" stroke="#e2e8f0" stroke-width="1"/>
<text x="68" y="226.0" font-family="Arial, sans-serif" font-size="10" text-anchor="end" fill="#64748b">5.8M</text>
<line x1="76" y1="152.0" x2="946" y2="152.0" stroke="#e2e8f0" stroke-width="1"/>
<text x="68" y="156.0" font-family="Arial, sans-serif" font-size="10" text-anchor="end" fill="#64748b">8.7M</text>
<line x1="76" y1="82.0" x2="946" y2="82.0" stroke="#e2e8f0" stroke-width="1"/>
<text x="68" y="86.0" font-family="Arial, sans-serif" font-size="10" text-anchor="end" fill="#64748b">11.7M</text>
<line x1="76" y1="362" x2="946" y2="362" stroke="#334155" stroke-width="1"/>
<line x1="76" y1="82" x2="76" y2="362" stroke="#334155" stroke-width="1"/>
<text x="76" y="72" font-family="Arial, sans-serif" font-size="11" fill="#64748b">nanoton</text>
<line x1="76.0" y1="362" x2="76.0" y2="366" stroke="#334155" stroke-width="1"/>
<text x="76.0" y="380" font-family="Arial, sans-serif" font-size="10" text-anchor="middle" fill="#64748b">0</text>
<line x1="511.6" y1="362" x2="511.6" y2="366" stroke="#334155" stroke-width="1"/>
<text x="511.6" y="380" font-family="Arial, sans-serif" font-size="10" text-anchor="middle" fill="#64748b">390</text>
<line x1="946.0" y1="362" x2="946.0" y2="366" stroke="#334155" stroke-width="1"/>
<text x="946.0" y="380" font-family="Arial, sans-serif" font-size="10" text-anchor="middle" fill="#64748b">779</text>
<polyline points="76.0,295.2 77.1,299.1 78.2,300.5 79.4,302.7 80.5,309.6 81.6,301.7 82.7,302.8 83.8,299.1 84.9,303.6 86.1,303.3 87.2,292.1 88.3,304.1 89.4,304.3 90.5,301.9 91.6,304.9 92.8,305.1 93.9,296.9 95.0,297.0 96.1,306.0 97.2,295.6 98.3,293.6 99.5,291.7 100.6,298.3 101.7,298.7 102.8,300.6 103.9,296.5 105.0,302.3 106.2,295.0 107.3,297.7 108.4,292.7 109.5,293.4 110.6,277.2 111.7,288.9 112.9,289.6 114.0,299.1 115.1,304.5 116.2,297.4 117.3,299.4 118.4,309.4 119.6,312.2 120.7,306.8 121.8,301.5 122.9,303.2 124.0,302.5 125.1,309.1 126.3,302.0 127.4,299.0 128.5,301.0 129.6,303.3 130.7,307.8 131.8,307.8 133.0,306.6 134.1,304.9 135.2,308.0 136.3,306.9 137.4,304.0 138.5,303.7 139.7,307.5 140.8,303.7 141.9,306.0 143.0,311.6 144.1,313.5 145.2,311.2 146.4,311.9 147.5,313.9 148.6,310.7 149.7,310.3 150.8,306.7 151.9,313.3 153.1,295.1 154.2,311.2 155.3,311.1 156.4,311.1 157.5,316.1 158.6,311.9 159.8,315.1 160.9,313.9 162.0,310.2 163.1,310.2 164.2,307.9 165.3,308.2 166.5,306.0 167.6,309.9 168.7,312.2 169.8,311.7 170.9,312.9 172.0,309.8 173.2,307.6 174.3,307.4 175.4,303.1 176.5,309.6 177.6,301.6 178.7,303.9 179.9,304.9 181.0,308.6 182.1,316.5 183.2,304.7 184.3,305.1 185.4,313.8 186.6,312.3 187.7,304.9 188.8,309.0 189.9,309.8 191.0,307.3 192.1,305.1 193.3,302.0 194.4,303.3 195.5,306.6 196.6,312.9 197.7,312.2 198.8,312.2 200.0,307.8 201.1,306.6 202.2,308.9 203.3,308.6 204.4,308.7 205.6,313.1 206.7,313.8 207.8,312.1 208.9,305.7 210.0,291.2 211.1,306.3 212.3,303.4 213.4,300.6 214.5,304.2 215.6,310.2 216.7,306.2 217.8,309.7 219.0,306.8 220.1,309.6 221.2,311.5 222.3,309.6 223.4,305.4 224.5,309.5 225.7,312.7 226.8,307.1 227.9,306.4 229.0,307.8 230.1,308.1 231.2,303.5 232.4,303.0 233.5,302.6 234.6,293.8 235.7,301.4 236.8,300.9 237.9,300.0 239.1,304.2 240.2,303.6 241.3,309.4 242.4,308.7 243.5,308.5 244.6,303.8 245.8,305.8 246.9,310.4 248.0,309.2 249.1,317.0 250.2,310.5 251.3,309.0 252.5,311.8 253.6,311.7 254.7,306.6 255.8,308.5 256.9,305.4 258.0,306.3 259.2,304.8 260.3,303.3 261.4,295.0 262.5,300.6 263.6,305.2 264.7,301.1 265.9,307.4 267.0,307.2 268.1,307.7 269.2,307.3 270.3,307.5 271.4,308.4 272.6,304.7 273.7,310.3 274.8,307.6 275.9,303.8 277.0,307.5 278.1,311.5 279.3,310.9 280.4,311.5 281.5,303.0 282.6,306.3 283.7,302.4 284.8,308.5 286.0,304.8 287.1,304.1 288.2,300.2 289.3,302.8 290.4,303.0 291.5,298.2 292.7,304.5 293.8,302.5 294.9,303.2 296.0,298.6 297.1,302.4 298.2,282.1 299.4,288.5 300.5,299.7 301.6,300.2 302.7,298.9 303.8,305.4 304.9,309.0 306.1,307.1 307.2,306.8 308.3,302.5 309.4,299.8 310.5,301.1 311.6,295.8 312.8,296.4 313.9,295.0 315.0,294.4 316.1,304.3 317.2,296.4 318.3,301.3 319.5,304.4 320.6,308.5 321.7,307.1 322.8,306.7 323.9,306.9 325.1,305.5 326.2,308.2 327.3,300.4 328.4,302.3 329.5,309.2 330.6,309.0 331.8,304.1 332.9,308.6 334.0,308.2 335.1,303.6 336.2,293.1 337.3,298.2 338.5,298.7 339.6,308.4 340.7,300.1 341.8,301.5 342.9,310.3 344.0,299.3 345.2,305.1 346.3,309.9 347.4,313.3 348.5,310.2 349.6,308.7 350.7,305.3 351.9,308.5 353.0,303.9 354.1,307.7 355.2,309.7 356.3,307.7 357.4,303.9 358.6,298.9 359.7,304.6 360.8,290.6 361.9,306.8 363.0,298.4 364.1,302.5 365.3,304.1 366.4,302.0 367.5,298.9 368.6,315.2 369.7,296.0 370.8,300.1 372.0,285.8 373.1,299.1 374.2,297.7 375.3,299.5 376.4,295.4 377.5,305.7 378.7,284.1 379.8,301.8 380.9,296.3 382.0,295.9 383.1,287.5 384.2,302.9 385.4,305.0 386.5,303.2 387.6,292.7 388.7,303.6 389.8,309.1 390.9,302.3 392.1,300.0 393.2,284.0 394.3,288.4 395.4,305.1 396.5,304.5 397.6,302.7 398.8,297.8 399.9,307.8 401.0,307.7 402.1,303.2 403.2,301.3 404.3,301.9 405.5,306.0 406.6,302.7 407.7,316.3 408.8,304.0 409.9,308.2 411.0,305.8 412.2,307.6 413.3,309.0 414.4,302.4 415.5,298.9 416.6,303.9 417.7,299.6 418.9,306.4 420.0,297.0 421.1,302.2 422.2,298.4 423.3,294.4 424.4,299.6 425.6,309.3 426.7,295.5 427.8,305.0 428.9,300.4 430.0,297.5 431.1,296.0 432.3,301.4 433.4,301.7 434.5,302.5 435.6,304.1 436.7,297.3 437.8,290.6 439.0,294.5 440.1,304.6 441.2,299.0 442.3,305.5 443.4,307.7 444.5,303.7 445.7,307.2 446.8,299.7 447.9,301.6 449.0,307.4 450.1,306.3 451.3,307.6 452.4,313.5 453.5,311.5 454.6,310.8 455.7,311.3 456.8,309.0 458.0,309.2 459.1,302.9 460.2,305.8 461.3,307.8 462.4,308.0 463.5,308.9 464.7,307.0 465.8,304.0 466.9,309.2 468.0,311.9 469.1,301.9 470.2,303.5 471.4,302.6 472.5,304.3 473.6,302.4 474.7,305.6 475.8,291.6 476.9,298.8 478.1,299.3 479.2,303.2 480.3,295.8 481.4,303.0 482.5,299.1 483.6,303.3 484.8,308.9 485.9,286.4 487.0,294.2 488.1,303.4 489.2,299.7 490.3,297.8 491.5,299.2 492.6,309.1 493.7,301.4 494.8,306.3 495.9,301.3 497.0,300.1 498.2,297.4 499.3,296.1 500.4,291.0 501.5,292.1 502.6,298.7 503.7,297.1 504.9,302.0 506.0,307.8 507.1,301.3 508.2,308.8 509.3,303.2 510.4,302.4 511.6,304.0 512.7,301.7 513.8,301.1 514.9,310.3 516.0,306.6 517.1,309.2 518.3,307.6 519.4,308.1 520.5,307.4 521.6,309.2 522.7,306.4 523.8,304.6 525.0,301.8 526.1,299.5 527.2,309.8 528.3,307.4 529.4,308.4 530.5,307.5 531.7,303.1 532.8,260.7 533.9,295.4 535.0,303.1 536.1,300.8 537.2,305.6 538.4,306.3 539.5,304.5 540.6,303.9 541.7,304.2 542.8,300.5 543.9,304.0 545.1,310.3 546.2,311.2 547.3,305.5 548.4,307.4 549.5,299.5 550.6,306.9 551.8,301.4 552.9,309.6 554.0,303.7 555.1,300.1 556.2,299.6 557.3,305.5 558.5,305.6 559.6,305.3 560.7,309.2 561.8,297.0 562.9,308.2 564.0,310.8 565.2,300.0 566.3,302.0 567.4,307.5 568.5,300.4 569.6,304.1 570.7,308.7 571.9,306.3 573.0,308.5 574.1,305.4 575.2,310.9 576.3,310.4 577.5,305.4 578.6,307.9 579.7,301.6 580.8,304.8 581.9,296.8 583.0,296.4 584.2,296.5 585.3,303.9 586.4,303.0 587.5,303.4 588.6,306.2 589.7,304.2 590.9,310.0 592.0,304.9 593.1,305.2 594.2,309.4 595.3,303.8 596.4,309.1 597.6,304.3 598.7,311.2 599.8,303.7 600.9,309.2 602.0,308.0 603.1,302.6 604.3,267.5 605.4,307.6 606.5,309.3 607.6,306.0 608.7,305.4 609.8,302.9 611.0,304.6 612.1,307.4 613.2,303.2 614.3,308.7 615.4,307.4 616.5,307.7 617.7,305.8 618.8,313.1 619.9,309.2 621.0,313.9 622.1,309.3 623.2,308.4 624.4,309.6 625.5,308.3 626.6,310.1 627.7,304.1 628.8,310.0 629.9,301.6 631.1,306.9 632.2,292.4 633.3,299.1 634.4,304.3 635.5,291.7 636.6,303.6 637.8,303.0 638.9,301.4 640.0,305.8 641.1,304.1 642.2,307.3 643.3,303.9 644.5,307.7 645.6,302.6 646.7,306.3 647.8,310.1 648.9,309.2 650.0,294.8 651.2,307.8 652.3,304.2 653.4,307.0 654.5,307.8 655.6,309.4 656.7,300.8 657.9,306.3 659.0,297.3 660.1,302.8 661.2,299.3 662.3,298.0 663.4,304.0 664.6,302.0 665.7,305.1 666.8,300.2 667.9,306.2 669.0,286.9 670.1,301.9 671.3,295.6 672.4,305.4 673.5,285.5 674.6,308.3 675.7,296.5 676.8,301.1 678.0,305.6 679.1,298.4 680.2,299.8 681.3,310.0 682.4,309.4 683.5,304.9 684.7,306.6 685.8,302.1 686.9,299.5 688.0,301.1 689.1,297.1 690.2,303.3 691.4,295.5 692.5,294.3 693.6,297.2 694.7,307.3 695.8,308.2 696.9,306.3 698.1,302.1 699.2,307.7 700.3,307.2 701.4,303.9 702.5,304.6 703.7,300.2 704.8,305.3 705.9,307.2 707.0,306.9 708.1,305.4 709.2,310.1 710.4,309.8 711.5,305.7 712.6,298.7 713.7,305.6 714.8,303.5 715.9,294.8 717.1,300.4 718.2,298.6 719.3,306.0 720.4,302.8 721.5,303.8 722.6,307.3 723.8,305.6 724.9,303.8 726.0,307.3 727.1,308.3 728.2,304.2 729.3,309.1 730.5,302.7 731.6,307.3 732.7,309.6 733.8,308.0 734.9,308.5 736.0,310.5 737.2,299.1 738.3,311.5 739.4,308.4 740.5,299.7 741.6,298.6 742.7,298.1 743.9,300.4 745.0,300.5 746.1,302.7 747.2,289.0 748.3,299.4 749.4,303.2 750.6,300.8 751.7,298.7 752.8,305.3 753.9,298.8 755.0,300.5 756.1,308.5 757.3,300.3 758.4,307.2 759.5,302.2 760.6,304.7 761.7,305.4 762.8,302.9 764.0,299.3 765.1,300.4 766.2,307.7 767.3,300.1 768.4,300.5 769.5,299.7 770.7,299.8 771.8,299.5 772.9,304.6 774.0,303.6 775.1,300.4 776.2,308.0 777.4,307.6 778.5,302.8 779.6,310.3 780.7,305.5 781.8,305.1 782.9,310.0 784.1,300.4 785.2,306.5 786.3,307.9 787.4,309.3 788.5,303.7 789.6,305.6 790.8,302.5 791.9,303.3 793.0,301.8 794.1,305.4 795.2,300.5 796.3,297.5 797.5,288.5 798.6,303.4 799.7,298.4 800.8,303.5 801.9,303.4 803.0,302.5 804.2,295.5 805.3,296.8 806.4,302.8 807.5,302.1 808.6,302.1 809.7,303.1 810.9,292.6 812.0,301.0 813.1,301.9 814.2,306.4 815.3,305.6 816.4,310.1 817.6,300.3 818.7,299.6 819.8,304.4 820.9,294.0 822.0,301.3 823.2,299.7 824.3,299.7 825.4,299.3 826.5,302.0 827.6,304.1 828.7,300.3 829.9,301.6 831.0,296.2 832.1,289.4 833.2,304.3 834.3,305.7 835.4,298.1 836.6,307.0 837.7,302.1 838.8,312.4 839.9,297.0 841.0,309.6 842.1,308.8 843.3,296.4 844.4,309.9 845.5,302.3 846.6,302.7 847.7,312.2 848.8,310.1 850.0,298.5 851.1,288.8 852.2,300.2 853.3,285.8 854.4,300.3 855.5,311.9 856.7,308.2 857.8,303.8 858.9,306.2 860.0,313.8 861.1,292.1 862.2,297.8 863.4,319.2 864.5,305.4 865.6,308.9 866.7,303.8 867.8,310.1 868.9,302.0 870.1,308.2 871.2,301.8 872.3,290.5 873.4,300.1 874.5,297.8 875.6,299.8 876.8,297.1 877.9,299.5 879.0,302.1 880.1,307.9 881.2,312.6 882.3,299.7 883.5,311.4 884.6,309.8 885.7,310.1 886.8,307.8 887.9,302.0 889.0,298.0 890.2,309.7 891.3,315.3 892.4,311.3 893.5,314.3 894.6,308.7 895.7,312.6 896.9,313.0 898.0,303.6 899.1,292.6 900.2,301.7 901.3,302.7 902.4,303.1 903.6,303.3 904.7,299.7 905.8,310.6 906.9,312.6 908.0,309.1 909.1,314.2 910.3,311.5 911.4,307.9 912.5,308.3 913.6,301.0 914.7,308.8 915.8,310.2 917.0,313.0 918.1,296.3 919.2,306.5 920.3,310.1 921.4,306.9 922.5,305.5 923.7,307.4 924.8,299.5 925.9,299.5 927.0,299.8 928.1,303.7 929.2,303.6 930.4,305.6 931.5,309.3 932.6,312.1 933.7,307.8 934.8,305.5 935.9,307.7 937.1,295.3 938.2,305.8 939.3,306.6 940.4,306.7 941.5,300.2 942.6,311.3 943.8,308.8 944.9,293.2 946.0,299.3" fill="none" stroke="#2563eb" stroke-width="2.2" stroke-linejoin="round" stroke-linecap="round"/>
<polyline points="76.0,316.3 77.1,330.1 78.2,339.5 79.4,339.9 80.5,340.4 81.6,340.0 82.7,339.7 83.8,336.1 84.9,340.0 86.1,340.0 87.2,325.5 88.3,340.0 89.4,339.6 90.5,336.0 91.6,339.8 92.8,339.2 93.9,326.2 95.0,335.8 96.1,337.7 97.2,315.5 98.3,307.6 99.5,310.7 100.6,325.5 101.7,320.4 102.8,315.3 103.9,335.1 105.0,338.8 106.2,317.4 107.3,340.4 108.4,324.1 109.5,335.8 110.6,288.1 111.7,305.0 112.9,308.0 114.0,313.1 115.1,336.6 116.2,317.4 117.3,315.5 118.4,340.3 119.6,340.4 120.7,335.0 121.8,315.4 122.9,315.4 124.0,317.4 125.1,346.3 126.3,340.3 127.4,313.7 128.5,315.1 129.6,340.3 130.7,340.7 131.8,339.5 133.0,338.8 134.1,339.3 135.2,340.0 136.3,336.8 137.4,340.0 138.5,336.2 139.7,339.7 140.8,340.0 141.9,339.5 143.0,340.4 144.1,340.3 145.2,340.3 146.4,349.6 147.5,341.2 148.6,340.3 149.7,340.3 150.8,336.0 151.9,349.6 153.1,341.0 154.2,341.6 155.3,341.6 156.4,340.4 157.5,343.6 158.6,341.6 159.8,341.5 160.9,340.5 162.0,340.4 163.1,340.4 164.2,339.9 165.3,340.4 166.5,340.0 167.6,340.0 168.7,340.4 169.8,340.4 170.9,340.4 172.0,339.7 173.2,340.3 174.3,340.2 175.4,336.0 176.5,340.1 177.6,317.1 178.7,334.9 179.9,336.4 181.0,339.2 182.1,349.6 183.2,335.9 184.3,339.2 185.4,340.4 186.6,341.6 187.7,340.1 188.8,340.1 189.9,340.2 191.0,339.9 192.1,336.3 193.3,335.8 194.4,336.8 195.5,338.4 196.6,340.4 197.7,340.3 198.8,340.3 200.0,339.5 201.1,340.3 202.2,340.3 203.3,336.8 204.4,337.7 205.6,341.6 206.7,349.6 207.8,341.5 208.9,340.4 210.0,314.9 211.1,340.3 212.3,339.9 213.4,340.1 214.5,339.2 215.6,340.3 216.7,339.4 217.8,340.3 219.0,340.3 220.1,340.3 221.2,340.4 222.3,340.1 223.4,338.5 224.5,340.3 225.7,340.4 226.8,340.4 227.9,339.5 229.0,339.6 230.1,335.6 231.2,315.4 232.4,303.3 233.5,314.6 234.6,309.1 235.7,315.0 236.8,315.0 237.9,332.9 239.1,338.3 240.2,339.2 241.3,339.2 242.4,340.3 243.5,340.3 244.6,339.2 245.8,340.1 246.9,340.1 248.0,340.0 249.1,349.6 250.2,340.3 251.3,340.3 252.5,340.4 253.6,340.4 254.7,339.2 255.8,339.8 256.9,336.2 258.0,324.8 259.2,303.3 260.3,339.4 261.4,332.1 262.5,340.1 263.6,337.1 264.7,337.1 265.9,336.7 267.0,340.1 268.1,339.8 269.2,340.0 270.3,340.0 271.4,336.0 272.6,336.0 273.7,340.3 274.8,339.7 275.9,336.3 277.0,340.0 278.1,340.4 279.3,340.0 280.4,340.3 281.5,335.8 282.6,339.7 283.7,320.5 284.8,340.0 286.0,303.3 287.1,339.4 288.2,335.0 289.3,337.9 290.4,337.1 291.5,315.4 292.7,337.1 293.8,337.6 294.9,340.0 296.0,329.0 297.1,339.3 298.2,300.3 299.4,303.3 300.5,332.3 301.6,336.4 302.7,336.0 303.8,337.6 304.9,340.0 306.1,340.1 307.2,339.5 308.3,330.0 309.4,320.0 310.5,313.4 311.6,310.1 312.8,303.3 313.9,311.3 315.0,310.1 316.1,337.1 317.2,310.2 318.3,322.0 319.5,338.8 320.6,340.4 321.7,339.5 322.8,340.4 323.9,340.3 325.1,339.1 326.2,340.4 327.3,324.8 328.4,324.8 329.5,339.5 330.6,339.2 331.8,338.8 332.9,340.1 334.0,340.0 335.1,336.6 336.2,310.1 337.3,313.0 338.5,313.1 339.6,303.3 340.7,315.0 341.8,340.9 342.9,341.6 344.0,317.4 345.2,339.9 346.3,341.6 347.4,341.3 348.5,341.6 349.6,340.4 350.7,339.2 351.9,339.7 353.0,339.8 354.1,338.9 355.2,340.0 356.3,339.8 357.4,334.9 358.6,313.8 359.7,339.5 360.8,313.0 361.9,339.8 363.0,315.5 364.1,315.1 365.3,330.3 366.4,310.2 367.5,324.8 368.6,349.6 369.7,320.5 370.8,339.5 372.0,313.0 373.1,314.7 374.2,335.3 375.3,339.5 376.4,340.4 377.5,338.6 378.7,329.0 379.8,339.2 380.9,313.0 382.0,310.9 383.1,329.0 384.2,320.5 385.4,338.8 386.5,337.9 387.6,307.9 388.7,339.5 389.8,340.0 390.9,331.7 392.1,339.2 393.2,325.9 394.3,339.0 395.4,339.1 396.5,339.4 397.6,336.0 398.8,337.1 399.9,339.1 401.0,340.0 402.1,339.2 403.2,338.4 404.3,315.5 405.5,340.1 406.6,336.0 407.7,351.5 408.8,339.2 409.9,340.1 411.0,339.1 412.2,340.1 413.3,340.1 414.4,315.5 415.5,320.3 416.6,337.3 417.7,315.4 418.9,337.0 420.0,310.1 421.1,335.8 422.2,332.1 423.3,306.9 424.4,314.5 425.6,341.3 426.7,338.8 427.8,340.3 428.9,339.8 430.0,311.3 431.1,311.3 432.3,323.3 433.4,325.2 434.5,328.7 435.6,337.1 436.7,315.5 437.8,310.1 439.0,313.0 440.1,337.1 441.2,309.9 442.3,335.8 443.4,339.4 444.5,332.0 445.7,336.0 446.8,310.1 447.9,313.0 449.0,339.2 450.1,339.4 451.3,340.4 452.4,346.3 453.5,341.6 454.6,341.5 455.7,340.4 456.8,341.6 458.0,341.2 459.1,339.2 460.2,339.8 461.3,340.3 462.4,340.2 463.5,340.3 464.7,340.0 465.8,337.1 466.9,339.8 468.0,340.4 469.1,334.4 470.2,336.0 471.4,331.0 472.5,330.5 473.6,313.0 474.7,338.9 475.8,313.2 476.9,315.1 478.1,335.8 479.2,324.7 480.3,313.1 481.4,340.0 482.5,323.7 483.6,341.2 484.8,340.4 485.9,302.1 487.0,310.1 488.1,330.5 489.2,330.9 490.3,324.0 491.5,315.1 492.6,340.3 493.7,326.4 494.8,339.5 495.9,336.8 497.0,335.0 498.2,314.4 499.3,313.2 500.4,303.3 501.5,307.3 502.6,310.2 503.7,313.8 504.9,337.1 506.0,339.4 507.1,334.9 508.2,340.1 509.3,339.2 510.4,340.4 511.6,339.4 512.7,339.4 513.8,330.5 514.9,340.3 516.0,339.9 517.1,340.0 518.3,340.1 519.4,340.1 520.5,340.1 521.6,340.0 522.7,339.4 523.8,332.1 525.0,331.9 526.1,310.2 527.2,348.6 528.3,340.7 529.4,349.6 530.5,340.4 531.7,334.3 532.8,305.7 533.9,339.6 535.0,339.5 536.1,320.6 537.2,340.4 538.4,339.5 539.5,340.0 540.6,338.9 541.7,335.8 542.8,335.7 543.9,339.2 545.1,340.4 546.2,340.4 547.3,338.5 548.4,339.7 549.5,315.3 550.6,337.3 551.8,315.0 552.9,338.0 554.0,310.2 555.1,314.6 556.2,315.5 557.3,335.3 558.5,339.2 559.6,337.8 560.7,340.7 561.8,323.3 562.9,340.1 564.0,341.6 565.2,336.7 566.3,330.9 567.4,340.0 568.5,336.6 569.6,337.1 570.7,340.1 571.9,339.9 573.0,339.2 574.1,336.0 575.2,340.3 576.3,340.2 577.5,337.1 578.6,338.6 579.7,315.5 580.8,335.8 581.9,313.0 583.0,313.2 584.2,310.1 585.3,335.7 586.4,332.1 587.5,335.7 588.6,340.3 589.7,336.8 590.9,340.4 592.0,340.0 593.1,339.5 594.2,340.3 595.3,340.1 596.4,340.4 597.6,339.2 598.7,340.4 599.8,338.6 600.9,340.0 602.0,340.4 603.1,338.1 604.3,287.9 605.4,339.2 606.5,340.4 607.6,324.4 608.7,336.4 609.8,335.0 611.0,337.1 612.1,339.5 613.2,340.0 614.3,340.3 615.4,340.1 616.5,340.0 617.7,340.2 618.8,340.4 619.9,340.3 621.0,340.4 622.1,340.3 623.2,340.1 624.4,340.3 625.5,340.4 626.6,340.1 627.7,339.5 628.8,341.1 629.9,339.5 631.1,339.8 632.2,310.1 633.3,324.7 634.4,314.2 635.5,305.3 636.6,315.2 637.8,335.8 638.9,315.5 640.0,335.8 641.1,338.4 642.2,340.1 643.3,339.2 644.5,339.5 645.6,336.2 646.7,340.1 647.8,340.3 648.9,340.3 650.0,310.1 651.2,339.8 652.3,336.3 653.4,340.4 654.5,339.2 655.6,340.4 656.7,339.2 657.9,340.3 659.0,315.4 660.1,339.7 661.2,311.2 662.3,313.2 663.4,339.2 664.6,336.2 665.7,339.5 666.8,335.0 667.9,339.7 669.0,310.1 670.1,336.0 671.3,334.1 672.4,339.2 673.5,300.3 674.6,340.0 675.7,315.4 676.8,315.5 678.0,339.2 679.1,323.4 680.2,323.5 681.3,339.5 682.4,340.3 683.5,339.5 684.7,339.5 685.8,335.7 686.9,313.0 688.0,313.0 689.1,315.0 690.2,339.2 691.4,315.5 692.5,315.2 693.6,332.5 694.7,337.3 695.8,340.4 696.9,340.0 698.1,339.4 699.2,340.0 700.3,339.9 701.4,336.0 702.5,338.9 703.7,336.9 704.8,340.0 705.9,339.5 707.0,339.2 708.1,336.0 709.2,340.1 710.4,340.3 711.5,337.3 712.6,311.8 713.7,331.3 714.8,310.1 715.9,311.2 717.1,313.8 718.2,311.2 719.3,340.0 720.4,332.2 721.5,339.2 722.6,338.5 723.8,339.5 724.9,340.4 726.0,340.0 727.1,339.3 728.2,339.2 729.3,340.1 730.5,336.0 731.6,337.1 732.7,340.3 733.8,339.5 734.9,340.0 736.0,340.3 737.2,332.7 738.3,340.4 739.4,339.0 740.5,324.8 741.6,307.6 742.7,315.0 743.9,332.7 745.0,332.0 746.1,328.7 747.2,303.3 748.3,315.5 749.4,336.5 750.6,336.0 751.7,340.0 752.8,329.7 753.9,329.0 755.0,335.7 756.1,339.2 757.3,336.0 758.4,340.0 759.5,329.1 760.6,338.5 761.7,339.5 762.8,330.9 764.0,313.9 765.1,320.5 766.2,339.2 767.3,313.3 768.4,311.3 769.5,313.0 770.7,315.0 771.8,317.4 772.9,336.3 774.0,337.3 775.1,323.0 776.2,340.0 777.4,340.4 778.5,340.4 779.6,340.4 780.7,340.0 781.8,339.2 782.9,340.3 784.1,335.7 785.2,339.7 786.3,340.0 787.4,339.6 788.5,339.2 789.6,340.4 790.8,336.0 791.9,339.2 793.0,320.5 794.1,336.0 795.2,310.1 796.3,329.6 797.5,311.3 798.6,337.1 799.7,313.8 800.8,339.2 801.9,339.2 803.0,336.5 804.2,315.5 805.3,339.2 806.4,335.3 807.5,332.4 808.6,329.0 809.7,335.3 810.9,309.8 812.0,317.4 813.1,339.2 814.2,337.3 815.3,334.9 816.4,339.2 817.6,328.0 818.7,313.1 819.8,315.2 820.9,309.9 822.0,310.1 823.2,313.0 824.3,315.5 825.4,315.0 826.5,324.7 827.6,330.9 828.7,336.1 829.9,336.2 831.0,310.1 832.1,310.0 833.2,339.2 834.3,336.3 835.4,310.1 836.6,340.1 837.7,313.1 838.8,339.4 839.9,340.1 841.0,338.2 842.1,338.3 843.3,313.0 844.4,340.4 845.5,335.7 846.6,315.2 847.7,335.3 848.8,332.0 850.0,310.7 851.1,311.2 852.2,329.0 853.3,301.3 854.4,339.5 855.5,340.4 856.7,340.4 857.8,336.9 858.9,340.1 860.0,340.4 861.1,309.0 862.2,313.0 863.4,340.4 864.5,337.1 865.6,339.8 866.7,336.6 867.8,340.1 868.9,337.1 870.1,326.6 871.2,340.3 872.3,337.2 873.4,315.3 874.5,313.1 875.6,310.1 876.8,310.7 877.9,310.4 879.0,329.8 880.1,336.0 881.2,339.9 882.3,337.0 883.5,340.4 884.6,340.4 885.7,340.4 886.8,327.6 887.9,340.3 889.0,336.4 890.2,340.4 891.3,349.6 892.4,349.6 893.5,349.6 894.6,340.0 895.7,340.4 896.9,340.4 898.0,339.7 899.1,316.5 900.2,313.8 901.3,313.0 902.4,312.9 903.6,335.6 904.7,313.4 905.8,342.9 906.9,340.4 908.0,340.4 909.1,340.4 910.3,337.1 911.4,337.3 912.5,339.5 913.6,335.8 914.7,340.0 915.8,340.4 917.0,340.3 918.1,317.4 919.2,339.2 920.3,337.3 921.4,339.2 922.5,337.1 923.7,336.3 924.8,315.5 925.9,313.4 927.0,319.0 928.1,332.3 929.2,309.5 930.4,346.3 931.5,347.1 932.6,340.4 933.7,340.0 934.8,340.0 935.9,329.7 937.1,322.9 938.2,351.6 939.3,340.0 940.4,340.3 941.5,323.0 942.6,349.6 943.8,339.4 944.9,326.9 946.0,337.0" fill="none" stroke="#059669" stroke-width="2.2" stroke-linejoin="round" stroke-linecap="round"/>
<polyline points="76.0,211.5 77.1,219.5 78.2,226.3 79.4,231.4 80.5,239.6 81.6,231.3 82.7,226.2 83.8,219.7 84.9,226.3 86.1,226.2 87.2,202.2 88.3,226.4 89.4,227.6 90.5,226.2 91.6,229.2 92.8,230.6 93.9,214.1 95.0,219.5 96.1,239.2 97.2,219.3 98.3,218.5 99.5,202.2 100.6,223.2 101.7,226.1 102.8,226.3 103.9,223.3 105.0,226.2 106.2,215.9 107.3,219.4 108.4,202.5 109.5,202.2 110.6,162.0 111.7,171.9 112.9,171.9 114.0,212.2 115.1,218.6 116.2,212.2 117.3,210.7 118.4,236.4 119.6,244.3 120.7,233.2 121.8,226.2 122.9,226.7 124.0,226.3 125.1,230.6 126.3,223.2 127.4,216.4 128.5,224.4 129.6,216.8 130.7,239.6 131.8,237.0 133.0,231.9 134.1,232.5 135.2,233.2 136.3,226.3 137.4,226.3 138.5,227.4 139.7,230.8 140.8,234.5 141.9,226.3 143.0,239.6 144.1,243.7 145.2,236.7 146.4,248.0 147.5,242.7 148.6,243.7 149.7,242.1 150.8,239.5 151.9,255.2 153.1,208.8 154.2,239.9 155.3,240.9 156.4,237.8 157.5,252.1 158.6,246.0 159.8,249.7 160.9,244.4 162.0,235.4 163.1,236.4 164.2,231.3 165.3,226.4 166.5,232.7 167.6,236.5 168.7,249.6 169.8,241.8 170.9,244.4 172.0,234.5 173.2,233.2 174.3,233.5 175.4,219.4 176.5,242.2 177.6,226.3 178.7,235.0 179.9,234.5 181.0,246.3 182.1,252.4 183.2,226.3 184.3,230.9 185.4,245.7 186.6,240.3 187.7,232.8 188.8,238.0 189.9,239.6 191.0,236.3 192.1,226.3 193.3,226.4 194.4,233.2 195.5,236.3 196.6,245.1 197.7,240.8 198.8,249.7 200.0,233.5 201.1,233.6 202.2,240.4 203.3,239.6 204.4,239.8 205.6,244.6 206.7,243.7 207.8,243.7 208.9,236.4 210.0,202.7 211.1,226.3 212.3,226.3 213.4,219.4 214.5,232.6 215.6,236.4 216.7,234.5 217.8,236.4 219.0,233.8 220.1,239.5 221.2,239.5 222.3,236.4 223.4,233.2 224.5,241.9 225.7,242.1 226.8,240.8 227.9,231.0 229.0,229.9 230.1,240.2 231.2,229.6 232.4,235.4 233.5,234.5 234.6,209.6 235.7,226.3 236.8,226.2 237.9,226.2 239.1,228.0 240.2,226.3 241.3,239.6 242.4,239.6 243.5,235.0 244.6,233.2 245.8,238.8 246.9,239.5 248.0,240.0 249.1,255.1 250.2,236.4 251.3,236.4 252.5,244.4 253.6,244.3 254.7,236.4 255.8,235.3 256.9,228.6 258.0,226.3 259.2,244.4 260.3,226.3 261.4,202.1 262.5,234.7 263.6,236.4 264.7,226.3 265.9,231.7 267.0,236.3 268.1,239.6 269.2,236.3 270.3,235.8 271.4,236.9 272.6,226.3 273.7,241.6 274.8,237.0 275.9,226.3 277.0,235.7 278.1,241.8 279.3,243.8 280.4,251.4 281.5,227.0 282.6,226.2 283.7,227.4 284.8,237.9 286.0,250.4 287.1,230.8 288.2,226.1 289.3,226.3 290.4,228.1 291.5,225.5 292.7,232.5 293.8,226.3 294.9,231.2 296.0,214.7 297.1,226.2 298.2,162.0 299.4,172.9 300.5,202.4 301.6,213.0 302.7,204.0 303.8,226.3 304.9,235.4 306.1,230.9 307.2,229.6 308.3,219.6 309.4,219.4 310.5,226.3 311.6,202.4 312.8,230.0 313.9,202.2 315.0,202.2 316.1,226.3 317.2,213.1 318.3,219.8 319.5,227.4 320.6,226.3 321.7,227.4 322.8,227.1 323.9,229.6 325.1,226.3 326.2,236.4 327.3,211.5 328.4,224.5 329.5,236.4 330.6,235.2 331.8,226.2 332.9,231.3 334.0,233.2 335.1,226.3 336.2,205.1 337.3,223.3 338.5,226.1 339.6,261.2 340.7,222.6 341.8,217.1 342.9,243.3 344.0,218.0 345.2,231.3 346.3,236.6 347.4,244.4 348.5,244.0 349.6,236.3 350.7,236.3 351.9,230.4 353.0,226.3 354.1,243.7 355.2,234.7 356.3,234.0 357.4,221.2 358.6,213.5 359.7,231.0 360.8,184.3 361.9,234.1 363.0,217.5 364.1,225.0 365.3,226.3 366.4,230.6 367.5,217.5 368.6,244.0 369.7,217.8 370.8,224.4 372.0,202.1 373.1,199.5 374.2,197.6 375.3,219.4 376.4,213.2 377.5,226.3 378.7,172.0 379.8,223.3 380.9,207.7 382.0,208.2 383.1,202.2 384.2,224.6 385.4,231.0 386.5,226.3 387.6,170.6 388.7,226.2 389.8,234.6 390.9,226.1 392.1,226.3 393.2,178.2 394.3,202.7 395.4,229.2 396.5,234.7 397.6,226.3 398.8,212.4 399.9,236.4 401.0,235.7 402.1,227.3 403.2,226.3 404.3,223.2 405.5,233.2 406.6,226.2 407.7,255.3 408.8,234.3 409.9,234.5 411.0,233.2 412.2,236.2 413.3,236.2 414.4,227.4 415.5,226.1 416.6,226.2 417.7,226.2 418.9,226.2 420.0,217.6 421.1,226.3 422.2,217.5 423.3,216.0 424.4,226.2 425.6,236.2 426.7,217.6 427.8,226.2 428.9,221.8 430.0,212.2 431.1,202.7 432.3,217.8 433.4,226.2 434.5,217.8 435.6,235.6 436.7,226.2 437.8,208.3 439.0,209.7 440.1,226.2 441.2,226.3 442.3,226.2 443.4,236.4 444.5,226.3 445.7,237.9 446.8,226.1 447.9,225.9 449.0,226.3 450.1,226.9 451.3,234.2 452.4,251.6 453.5,236.4 454.6,238.9 455.7,242.7 456.8,236.3 458.0,232.8 459.1,218.3 460.2,234.8 461.3,236.3 462.4,236.3 463.5,236.2 464.7,231.3 465.8,228.3 466.9,234.3 468.0,243.9 469.1,223.2 470.2,226.2 471.4,226.3 472.5,231.5 473.6,229.3 474.7,229.6 475.8,212.8 476.9,216.0 478.1,223.3 479.2,229.4 480.3,216.6 481.4,226.2 482.5,218.4 483.6,227.1 484.8,236.3 485.9,171.9 487.0,202.2 488.1,226.2 489.2,202.9 490.3,215.1 491.5,217.4 492.6,236.2 493.7,224.5 494.8,231.3 495.9,226.2 497.0,218.5 498.2,215.1 499.3,202.4 500.4,194.7 501.5,197.0 502.6,211.5 503.7,202.4 504.9,217.8 506.0,231.0 507.1,216.0 508.2,236.4 509.3,226.0 510.4,225.5 511.6,226.3 512.7,221.8 513.8,226.1 514.9,243.7 516.0,229.2 517.1,234.6 518.3,236.3 519.4,229.7 520.5,236.3 521.6,239.5 522.7,243.7 523.8,226.4 525.0,227.1 526.1,226.3 527.2,236.3 528.3,230.8 529.4,226.3 530.5,234.8 531.7,229.6 532.8,92.4 533.9,217.8 535.0,226.2 536.1,216.6 537.2,234.6 538.4,233.2 539.5,226.3 540.6,226.3 541.7,226.2 542.8,223.2 543.9,226.1 545.1,236.3 546.2,241.6 547.3,236.3 548.4,234.8 549.5,216.6 550.6,226.3 551.8,226.2 552.9,241.2 554.0,235.4 555.1,219.9 556.2,215.3 557.3,233.2 558.5,229.7 559.6,233.6 560.7,236.5 561.8,202.7 562.9,236.4 564.0,236.4 565.2,219.5 566.3,223.3 567.4,231.0 568.5,223.2 569.6,222.6 570.7,229.9 571.9,235.0 573.0,236.2 574.1,226.2 575.2,240.9 576.3,243.6 577.5,228.0 578.6,239.8 579.7,226.2 580.8,230.9 581.9,214.6 583.0,217.5 584.2,217.5 585.3,226.2 586.4,226.2 587.5,219.8 588.6,237.3 589.7,227.1 590.9,234.6 592.0,226.3 593.1,226.3 594.2,239.8 595.3,219.7 596.4,236.7 597.6,227.4 598.7,239.8 599.8,226.2 600.9,234.9 602.0,234.5 603.1,226.2 604.3,170.5 605.4,226.2 606.5,227.4 607.6,227.6 608.7,229.6 609.8,226.3 611.0,226.2 612.1,242.9 613.2,226.3 614.3,233.2 615.4,226.3 616.5,231.4 617.7,229.6 618.8,241.9 619.9,235.2 621.0,239.8 622.1,239.5 623.2,235.4 624.4,239.6 625.5,236.7 626.6,243.7 627.7,226.3 628.8,244.4 629.9,215.4 631.1,228.0 632.2,208.2 633.3,216.5 634.4,226.3 635.5,204.4 636.6,226.2 637.8,226.0 638.9,226.3 640.0,234.6 641.1,226.3 642.2,239.5 643.3,226.3 644.5,229.9 645.6,225.3 646.7,226.3 647.8,237.8 648.9,239.0 650.0,202.7 651.2,233.5 652.3,233.2 653.4,238.5 654.5,233.2 655.6,235.2 656.7,219.4 657.9,235.7 659.0,215.4 660.1,233.2 661.2,225.8 662.3,222.5 663.4,228.0 664.6,226.3 665.7,226.3 666.8,222.5 667.9,232.3 669.0,198.3 670.1,223.0 671.3,214.6 672.4,234.6 673.5,171.9 674.6,233.2 675.7,202.2 676.8,222.8 678.0,219.5 679.1,212.6 680.2,218.5 681.3,242.7 682.4,234.6 683.5,226.2 684.7,230.9 685.8,226.2 686.9,212.6 688.0,226.3 689.1,209.7 690.2,226.2 691.4,202.4 692.5,202.2 693.6,204.2 694.7,226.3 695.8,238.1 696.9,226.3 698.1,219.4 699.2,233.7 700.3,234.7 701.4,222.7 702.5,226.2 703.7,217.5 704.8,234.4 705.9,233.2 707.0,234.5 708.1,239.6 709.2,243.7 710.4,232.5 711.5,231.0 712.6,221.5 713.7,230.7 714.8,230.9 715.9,206.5 717.1,223.3 718.2,218.3 719.3,229.7 720.4,227.4 721.5,228.1 722.6,235.2 723.8,234.6 724.9,226.3 726.0,232.3 727.1,239.5 728.2,226.6 729.3,240.3 730.5,227.9 731.6,234.5 732.7,239.6 733.8,239.5 734.9,236.5 736.0,240.8 737.2,214.8 738.3,231.0 739.4,236.3 740.5,225.7 741.6,226.2 742.7,225.1 743.9,225.2 745.0,217.8 746.1,226.3 747.2,174.3 748.3,212.9 749.4,226.2 750.6,216.7 751.7,220.7 752.8,234.7 753.9,218.5 755.0,217.6 756.1,235.3 757.3,224.9 758.4,230.8 759.5,226.2 760.6,226.2 761.7,233.2 762.8,223.2 764.0,214.1 765.1,210.8 766.2,235.7 767.3,226.0 768.4,227.3 769.5,221.7 770.7,226.1 771.8,214.5 772.9,231.9 774.0,226.5 775.1,226.2 776.2,236.4 777.4,233.0 778.5,226.2 779.6,239.5 780.7,226.7 781.8,226.3 782.9,240.1 784.1,217.6 785.2,233.2 786.3,230.6 787.4,237.2 788.5,226.7 789.6,228.2 790.8,225.1 791.9,226.3 793.0,227.4 794.1,226.3 795.2,221.2 796.3,211.2 797.5,197.3 798.6,227.5 799.7,214.8 800.8,232.3 801.9,226.2 803.0,226.3 804.2,202.3 805.3,210.9 806.4,226.3 807.5,220.5 808.6,223.3 809.7,226.3 810.9,191.1 812.0,218.2 813.1,226.3 814.2,233.2 815.3,227.4 816.4,236.4 817.6,221.9 818.7,219.4 819.8,236.3 820.9,200.9 822.0,226.2 823.2,226.5 824.3,219.4 825.4,226.2 826.5,226.3 827.6,226.3 828.7,224.1 829.9,218.5 831.0,202.6 832.1,185.2 833.2,226.3 834.3,226.7 835.4,202.9 836.6,230.0 837.7,229.5 838.8,244.4 839.9,243.2 841.0,240.5 842.1,239.9 843.3,194.2 844.4,248.1 845.5,211.2 846.6,236.4 847.7,244.3 848.8,243.5 850.0,226.4 851.1,176.0 852.2,226.2 853.3,197.1 854.4,232.1 855.5,239.4 856.7,244.3 857.8,223.3 858.9,231.2 860.0,259.7 861.1,171.9 862.2,202.7 863.4,259.8 864.5,226.3 865.6,229.1 866.7,226.2 867.8,239.9 868.9,226.2 870.1,233.2 871.2,219.4 872.3,183.1 873.4,226.3 874.5,207.1 875.6,212.7 876.8,211.2 877.9,202.4 879.0,226.7 880.1,230.4 881.2,246.6 882.3,215.9 883.5,243.9 884.6,227.6 885.7,235.0 886.8,233.2 887.9,244.3 889.0,232.4 890.2,240.8 891.3,251.3 892.4,248.7 893.5,255.5 894.6,239.5 895.7,241.8 896.9,244.2 898.0,201.9 899.1,197.1 900.2,227.4 901.3,220.8 902.4,226.4 903.6,219.4 904.7,219.5 905.8,236.3 906.9,239.5 908.0,240.3 909.1,249.2 910.3,241.5 911.4,240.3 912.5,233.8 913.6,209.7 914.7,239.5 915.8,236.3 917.0,244.2 918.1,215.8 919.2,226.3 920.3,239.6 921.4,230.7 922.5,227.6 923.7,233.2 924.8,217.6 925.9,225.1 927.0,219.6 928.1,226.2 929.2,233.0 930.4,227.8 931.5,230.8 932.6,261.2 933.7,233.2 934.8,239.9 935.9,239.0 937.1,226.3 938.2,234.9 939.3,226.3 940.4,226.3 941.5,214.4 942.6,245.4 943.8,228.6 944.9,202.6 946.0,218.4" fill="none" stroke="#d97706" stroke-width="2.2" stroke-linejoin="round" stroke-linecap="round"/>
<line x1="76" y1="70" x2="94" y2="70" stroke="#2563eb" stroke-width="3"/>
<text x="100" y="74" font-family="Arial, sans-serif" font-size="11" fill="#0f172a">avg fee</text>
<line x1="179" y1="70" x2="197" y2="70" stroke="#059669" stroke-width="3"/>
<text x="203" y="74" font-family="Arial, sans-serif" font-size="11" fill="#0f172a">median fee</text>
<line x1="303" y1="70" x2="321" y2="70" stroke="#d97706" stroke-width="3"/>
<text x="327" y="74" font-family="Arial, sans-serif" font-size="11" fill="#0f172a">p90 fee</text>
<text x="28" y="404" font-family="Arial, sans-serif" font-size="11" fill="#64748b">Source: hourly_features.csv</text>
</svg>