<svg xmlns="http://www.w3.org/2000/svg" width="980" height="420" viewBox="0 0 980 420">
<rect width="100%" height="100%" fill="#ffffff"/>
<text x="28" y="34" font-family="Arial, sans-serif" font-size="20" font-weight="700" fill="#0f172a">Hourly fee trend</text>
<text x="28" y="56" font-family="Arial, sans-serif" font-size="12" fill="#64748b">Average, median, and p90 total fee by hour</text>
<line x1="76" y1="362.0" x2="946" y2="362.0" stroke="#e2e8f0" stroke-width="1"/>
<text x="68" y="366.0" font-family="Arial, sans-serif" font-size="10" text-anchor="end" fill="#64748b">-124K</text>
<line x1="76" y1="292.0" x2="946" y2="292.0" stroke="#e2e8f0" stroke-width="1"/>
<text x="68" y="296.0" font-family="Arial, sans-serif" font-size="10" text-anchor="end" fill="#64748b">2.8M</text>
<line x1="76" y1="222.0" x2="946" y2="222.0" stroke="#e2e8f0" stroke-width="1"/>
<text x="68" y="226.0" font-family="Arial, sans-serif" font-size="10" text-anchor="end" fill="#64748b">5.8M</text>
<line x1="76" y1="152.0" x2="946" y2="152.0" stroke="#e2e8f0" stroke-width="1"/>
<text x="68" y="156.0" font-family="Arial, sans-serif" font-size="10" text-anchor="end" fill="#64748b">8.7M</text>
<line x1="76" y1="82.0" x2="946" y2="82.0" stroke="#e2e8f0" stroke-width="1"/>
<text x="68" y="86.0" font-family="Arial, sans-serif" font-size="10" text-anchor="end" fill="#64748b">11.7M</text>
<line x1="76" y1="362" x2="946" y2="362" stroke="#334155" stroke-width="1"/>
<line x1="76" y1="82" x2="76" y2="362" stroke="#334155" stroke-width="1"/>
<text x="76" y="72" font-family="Arial, sans-serif" font-size="11" fill="#64748b">nanoton</text>
<line x1="76.0" y1="362" x2="76.0" y2="366" stroke="#334155" stroke-width="1"/>
<text x="76.0" y="380" font-family="Arial, sans-serif" font-size="10" text-anchor="middle" fill="#64748b">0</text>
<line x1="511.0" y1="362" x2="511.0" y2="366" stroke="#334155" stroke-width="1"/>
<text x="511.0" y="380" font-family="Arial, sans-serif" font-size="10" text-anchor="middle" fill="#64748b">380</text>
<line x1="946.0" y1="362" x2="946.0" y2="366" stroke="#334155" stroke-width="1"/>
<text x="946.0" y="380" font-family="Arial, sans-serif" font-size="10" text-anchor="middle" fill="#64748b">760</text>
<polyline points="76.0,295.3 77.1,299.2 78.3,300.6 79.4,302.7 80.6,309.6 81.7,301.8 82.9,302.9 84.0,299.2 85.2,303.6 86.3,303.4 87.4,292.2 88.6,304.2 89.7,304.4 90.9,302.0 92.0,305.0 93.2,305.2 94.3,297.0 95.5,297.1 96.6,306.0 97.8,295.6 98.9,293.7 100.0,291.7 101.2,298.4 102.3,298.8 103.5,300.7 104.6,296.6 105.8,302.3 106.9,295.0 108.1,297.8 109.2,292.8 110.3,293.4 111.5,277.2 112.6,289.0 113.8,289.7 114.9,299.2 116.1,304.6 117.2,297.4 118.4,299.5 119.5,309.5 120.6,312.3 121.8,306.9 122.9,301.6 124.1,303.3 125.2,302.6 126.4,309.2 127.5,302.0 128.7,299.0 129.8,301.1 130.9,303.3 132.1,307.8 133.2,307.9 134.4,306.7 135.5,305.0 136.7,308.1 137.8,307.0 139.0,304.1 140.1,303.8 141.2,307.6 142.4,303.8 143.5,306.1 144.7,311.7 145.8,313.5 147.0,311.2 148.1,312.0 149.3,314.0 150.4,310.7 151.6,310.3 152.7,306.8 153.8,313.3 155.0,295.2 156.1,311.2 157.3,311.2 158.4,311.1 159.6,316.2 160.7,312.0 161.9,315.2 163.0,314.0 164.1,310.3 165.3,310.3 166.4,308.0 167.6,308.2 168.7,306.1 169.9,309.9 171.0,312.3 172.2,311.8 173.3,313.0 174.4,309.8 175.6,307.7 176.7,307.5 177.9,303.2 179.0,309.7 180.2,301.7 181.3,304.0 182.5,305.0 183.6,308.7 184.8,316.5 185.9,304.8 187.0,305.2 188.2,313.8 189.3,312.4 190.5,305.0 191.6,309.0 192.8,309.9 193.9,307.4 195.1,305.2 196.2,302.1 197.3,303.4 198.5,306.7 199.6,312.9 200.8,312.3 201.9,312.3 203.1,307.9 204.2,306.6 205.4,308.9 206.5,308.7 207.6,308.8 208.8,313.2 209.9,313.8 211.1,312.2 212.2,305.8 213.4,291.3 214.5,306.3 215.7,303.4 216.8,300.7 217.9,304.3 219.1,310.3 220.2,306.2 221.4,309.8 222.5,306.9 223.7,309.7 224.8,311.6 226.0,309.7 227.1,305.5 228.2,309.6 229.4,312.8 230.5,307.2 231.7,306.5 232.8,307.9 234.0,308.1 235.1,303.6 236.3,303.1 237.4,302.6 238.6,293.9 239.7,301.5 240.8,301.0 242.0,300.1 243.1,304.3 244.3,303.7 245.4,309.4 246.6,308.8 247.7,308.6 248.9,303.9 250.0,305.9 251.1,310.5 252.3,309.3 253.4,317.0 254.6,310.5 255.7,309.1 256.9,311.9 258.0,311.8 259.2,306.7 260.3,308.6 261.4,305.5 262.6,306.4 263.7,304.9 264.9,303.4 266.0,295.1 267.2,300.7 268.3,305.3 269.5,301.2 270.6,307.5 271.8,307.3 272.9,307.8 274.0,307.4 275.2,307.5 276.3,308.5 277.5,304.8 278.6,310.4 279.8,307.7 280.9,303.9 282.1,307.6 283.2,311.5 284.3,311.0 285.5,311.5 286.6,303.1 287.8,306.3 288.9,302.5 290.1,308.6 291.2,304.9 292.4,304.2 293.5,300.2 294.6,302.8 295.8,303.0 296.9,298.3 298.1,304.6 299.2,302.6 300.4,303.3 301.5,298.7 302.7,302.5 303.8,282.2 304.9,288.6 306.1,299.8 307.2,300.3 308.4,298.9 309.5,305.5 310.7,309.1 311.8,307.2 313.0,306.9 314.1,302.6 315.2,299.9 316.4,301.2 317.5,295.9 318.7,296.5 319.8,295.1 321.0,294.5 322.1,304.4 323.3,296.5 324.4,301.4 325.6,304.5 326.7,308.5 327.8,307.2 329.0,306.8 330.1,307.0 331.3,305.6 332.4,308.3 333.6,300.5 334.7,302.4 335.9,309.2 337.0,309.0 338.1,304.2 339.3,308.7 340.4,308.2 341.6,303.7 342.7,293.2 343.9,298.3 345.0,298.7 346.2,308.4 347.3,300.2 348.4,301.6 349.6,310.4 350.7,299.4 351.9,305.2 353.0,309.9 354.2,313.4 355.3,310.3 356.5,308.8 357.6,305.4 358.8,308.6 359.9,303.9 361.0,307.8 362.2,309.8 363.3,307.8 364.5,304.0 365.6,299.0 366.8,304.6 367.9,290.6 369.1,306.9 370.2,298.4 371.3,302.6 372.5,304.1 373.6,302.1 374.8,299.0 375.9,315.3 377.1,296.1 378.2,300.2 379.4,285.9 380.5,299.2 381.6,297.8 382.8,299.6 383.9,295.5 385.1,305.7 386.2,284.1 387.4,301.9 388.5,296.4 389.7,296.0 390.8,287.6 391.9,303.0 393.1,305.1 394.2,303.3 395.4,292.8 396.5,303.7 397.7,309.2 398.8,302.4 400.0,300.1 401.1,284.0 402.2,288.5 403.4,305.2 404.5,304.6 405.7,302.7 406.8,297.9 408.0,307.9 409.1,307.8 410.3,303.3 411.4,301.4 412.6,302.0 413.7,306.1 414.8,302.8 416.0,316.4 417.1,304.1 418.3,308.2 419.4,305.9 420.6,307.7 421.7,309.0 422.9,302.5 424.0,299.0 425.1,303.9 426.3,299.7 427.4,306.5 428.6,297.1 429.7,302.2 430.9,298.5 432.0,294.5 433.2,299.7 434.3,309.4 435.4,295.6 436.6,305.0 437.7,300.5 438.9,297.6 440.0,296.1 441.2,301.5 442.3,301.7 443.5,302.5 444.6,304.2 445.8,297.4 446.9,290.6 448.0,294.6 449.2,304.7 450.3,299.0 451.5,305.6 452.6,307.7 453.8,303.8 454.9,307.3 456.1,299.7 457.2,301.7 458.3,307.5 459.5,306.4 460.6,307.7 461.8,313.5 462.9,311.6 464.1,310.9 465.2,311.3 466.4,309.1 467.5,309.3 468.6,303.0 469.8,305.8 470.9,307.8 472.1,308.1 473.2,309.0 474.4,307.1 475.5,304.1 476.7,309.3 477.8,312.0 478.9,301.9 480.1,303.6 481.2,302.7 482.4,304.4 483.5,302.5 484.7,305.7 485.8,291.6 487.0,298.9 488.1,299.3 489.2,303.3 490.4,295.8 491.5,303.0 492.7,299.2 493.8,303.4 495.0,309.0 496.1,286.5 497.3,294.2 498.4,303.5 499.6,299.7 500.7,297.9 501.8,299.3 503.0,309.1 504.1,301.5 505.3,306.4 506.4,301.3 507.6,300.2 508.7,297.4 509.9,296.2 511.0,291.1 512.1,292.2 513.3,298.8 514.4,297.2 515.6,302.1 516.7,307.8 517.9,301.4 519.0,308.9 520.2,303.3 521.3,302.4 522.4,304.0 523.6,301.7 524.7,301.2 525.9,310.3 527.0,306.6 528.2,309.3 529.3,307.7 530.5,308.2 531.6,307.5 532.8,309.3 533.9,306.5 535.0,304.7 536.2,301.9 537.3,299.6 538.5,309.8 539.6,307.4 540.8,308.5 541.9,307.6 543.1,303.1 544.2,260.8 545.3,295.5 546.5,303.2 547.6,300.9 548.8,305.7 549.9,306.4 551.1,304.5 552.2,304.0 553.4,304.3 554.5,300.6 555.6,304.1 556.8,310.4 557.9,311.3 559.1,305.6 560.2,307.4 561.4,299.6 562.5,306.9 563.7,301.5 564.8,309.7 565.9,303.8 567.1,300.2 568.2,299.7 569.4,305.6 570.5,305.7 571.7,305.4 572.8,309.3 574.0,297.1 575.1,308.3 576.2,310.9 577.4,300.1 578.5,302.1 579.7,307.6 580.8,300.4 582.0,304.1 583.1,308.7 584.3,306.4 585.4,308.6 586.6,305.5 587.7,311.0 588.8,310.4 590.0,305.5 591.1,308.0 592.3,301.7 593.4,304.9 594.6,296.8 595.7,296.5 596.9,296.6 598.0,304.0 599.1,303.1 600.3,303.5 601.4,306.3 602.6,304.3 603.7,310.1 604.9,304.9 606.0,305.3 607.2,309.5 608.3,303.9 609.4,309.2 610.6,304.3 611.7,311.2 612.9,303.8 614.0,309.3 615.2,308.1 616.3,302.7 617.5,267.6 618.6,307.7 619.8,309.4 620.9,306.0 622.0,305.5 623.2,302.9 624.3,304.6 625.5,307.5 626.6,303.3 627.8,308.8 628.9,307.5 630.1,307.8 631.2,305.8 632.3,313.2 633.5,309.3 634.6,313.9 635.8,309.3 636.9,308.5 638.1,309.7 639.2,308.4 640.4,310.1 641.5,304.2 642.6,310.0 643.8,301.7 644.9,306.9 646.1,292.5 647.2,299.2 648.4,304.4 649.5,291.8 650.7,303.7 651.8,303.1 652.9,301.4 654.1,305.9 655.2,304.2 656.4,307.4 657.5,303.9 658.7,307.7 659.8,302.6 661.0,306.4 662.1,310.1 663.2,309.3 664.4,294.8 665.5,307.9 666.7,304.3 667.8,307.1 669.0,307.9 670.1,309.5 671.3,300.9 672.4,306.4 673.6,297.4 674.7,302.9 675.8,299.4 677.0,298.1 678.1,304.1 679.3,302.1 680.4,305.2 681.6,300.2 682.7,306.2 683.9,287.0 685.0,302.0 686.1,295.7 687.3,305.5 688.4,285.6 689.6,308.4 690.7,296.6 691.9,301.1 693.0,305.6 694.2,298.5 695.3,299.9 696.4,310.0 697.6,309.5 698.7,305.0 699.9,306.7 701.0,302.2 702.2,299.5 703.3,301.2 704.5,297.2 705.6,303.4 706.8,295.6 707.9,294.4 709.0,297.3 710.2,307.4 711.3,308.2 712.5,306.3 713.6,302.2 714.8,307.8 715.9,307.3 717.1,304.0 718.2,304.6 719.3,300.3 720.5,305.4 721.6,307.2 722.8,307.0 723.9,305.4 725.1,310.2 726.2,309.9 727.4,305.7 728.5,298.8 729.6,305.7 730.8,303.6 731.9,294.9 733.1,300.5 734.2,298.7 735.4,306.1 736.5,302.8 737.7,303.9 738.8,307.3 739.9,305.6 741.1,303.9 742.2,307.4 743.4,308.4 744.5,304.2 745.7,309.2 746.8,302.8 748.0,307.4 749.1,309.7 750.2,308.1 751.4,308.6 752.5,310.6 753.7,299.2 754.8,311.5 756.0,308.5 757.1,299.7 758.3,298.7 759.4,298.2 760.6,300.5 761.7,300.5 762.8,302.8 764.0,289.1 765.1,299.5 766.3,303.2 767.4,300.9 768.6,298.8 769.7,305.3 770.9,298.9 772.0,300.5 773.1,308.6 774.3,300.4 775.4,307.3 776.6,302.3 777.7,304.7 778.9,305.5 780.0,303.0 781.2,299.4 782.3,300.4 783.4,307.8 784.6,300.2 785.7,300.6 786.9,299.7 788.0,299.9 789.2,299.6 790.3,304.6 791.5,303.6 792.6,300.5 793.8,308.1 794.9,307.7 796.0,302.9 797.2,310.4 798.3,305.6 799.5,305.1 800.6,310.0 801.8,300.4 802.9,306.6 804.1,308.0 805.2,309.4 806.3,303.8 807.5,305.7 808.6,302.6 809.8,303.4 810.9,301.9 812.1,305.5 813.2,300.6 814.4,297.6 815.5,288.5 816.6,303.5 817.8,298.4 818.9,303.6 820.1,303.5 821.2,302.6 822.4,295.5 823.5,296.8 824.7,302.9 825.8,302.1 826.9,302.2 828.1,303.2 829.2,292.6 830.4,301.1 831.5,302.0 832.7,306.5 833.8,305.7 835.0,310.2 836.1,300.4 837.2,299.7 838.4,304.5 839.5,294.0 840.7,301.4 841.8,299.7 843.0,299.7 844.1,299.4 845.3,302.1 846.4,304.2 847.6,300.4 848.7,301.6 849.8,296.3 851.0,289.4 852.1,304.4 853.3,305.8 854.4,298.2 855.6,307.1 856.7,302.2 857.9,312.5 859.0,297.1 860.1,309.7 861.3,308.9 862.4,296.5 863.6,310.0 864.7,302.4 865.9,302.8 867.0,312.3 868.2,310.2 869.3,298.6 870.4,288.8 871.6,300.3 872.7,285.8 873.9,300.4 875.0,312.0 876.2,308.2 877.3,303.9 878.5,306.3 879.6,313.9 880.8,292.2 881.9,297.9 883.0,319.3 884.2,305.5 885.3,309.0 886.5,303.9 887.6,310.2 888.8,302.1 889.9,308.2 891.1,301.9 892.2,290.6 893.3,300.2 894.5,297.9 895.6,299.9 896.8,297.1 897.9,299.6 899.1,302.1 900.2,307.9 901.4,312.6 902.5,299.8 903.6,311.5 904.8,309.9 905.9,310.2 907.1,307.9 908.2,302.0 909.4,298.1 910.5,309.8 911.7,315.3 912.8,311.4 913.9,314.3 915.1,308.8 916.2,312.6 917.4,313.1 918.5,303.7 919.7,292.7 920.8,301.7 922.0,302.7 923.1,303.2 924.2,303.4 925.4,299.8 926.5,310.7 927.7,312.6 928.8,309.2 930.0,314.2 931.1,311.5 932.3,308.0 933.4,308.3 934.6,301.1 935.7,308.9 936.8,310.3 938.0,313.1 939.1,296.4 940.3,306.6 941.4,310.2 942.6,307.0 943.7,305.6 944.9,307.5 946.0,299.2" fill="none" stroke="#2563eb" stroke-width="2.2" stroke-linejoin="round" stroke-linecap="round"/>
<polyline points="76.0,316.4 77.1,330.2 78.3,339.5 79.4,340.0 80.6,340.5 81.7,340.1 82.9,339.8 84.0,336.2 85.2,340.1 86.3,340.1 87.4,325.6 88.6,340.1 89.7,339.7 90.9,336.1 92.0,339.9 93.2,339.3 94.3,326.3 95.5,335.8 96.6,337.8 97.8,315.5 98.9,307.7 100.0,310.8 101.2,325.6 102.3,320.5 103.5,315.4 104.6,335.2 105.8,338.9 106.9,317.5 108.1,340.5 109.2,324.1 110.3,335.9 111.5,288.2 112.6,305.1 113.8,308.1 114.9,313.2 116.1,336.7 117.2,317.5 118.4,315.6 119.5,340.3 120.6,340.5 121.8,335.1 122.9,315.5 124.1,315.5 125.2,317.5 126.4,346.4 127.5,340.4 128.7,313.8 129.8,315.2 130.9,340.4 132.1,340.8 133.2,339.6 134.4,338.9 135.5,339.4 136.7,340.1 137.8,336.9 139.0,340.1 140.1,336.3 141.2,339.8 142.4,340.1 143.5,339.6 144.7,340.5 145.8,340.3 147.0,340.4 148.1,349.7 149.3,341.3 150.4,340.4 151.6,340.4 152.7,336.1 153.8,349.7 155.0,341.1 156.1,341.7 157.3,341.7 158.4,340.5 159.6,343.7 160.7,341.7 161.9,341.6 163.0,340.6 164.1,340.5 165.3,340.5 166.4,340.0 167.6,340.5 168.7,340.1 169.9,340.1 171.0,340.5 172.2,340.5 173.3,340.5 174.4,339.8 175.6,340.4 176.7,340.3 177.9,336.1 179.0,340.2 180.2,317.1 181.3,335.0 182.5,336.5 183.6,339.3 184.8,349.7 185.9,336.0 187.0,339.3 188.2,340.5 189.3,341.7 190.5,340.2 191.6,340.2 192.8,340.3 193.9,340.0 195.1,336.4 196.2,335.9 197.3,336.9 198.5,338.5 199.6,340.4 200.8,340.4 201.9,340.4 203.1,339.5 204.2,340.4 205.4,340.4 206.5,336.9 207.6,337.8 208.8,341.7 209.9,349.7 211.1,341.6 212.2,340.5 213.4,315.0 214.5,340.4 215.7,340.0 216.8,340.2 217.9,339.3 219.1,340.4 220.2,339.5 221.4,340.4 222.5,340.3 223.7,340.4 224.8,340.5 226.0,340.2 227.1,338.6 228.2,340.4 229.4,340.5 230.5,340.5 231.7,339.6 232.8,339.7 234.0,335.7 235.1,315.5 236.3,303.4 237.4,314.7 238.6,309.2 239.7,315.1 240.8,315.1 242.0,333.0 243.1,338.4 244.3,339.3 245.4,339.3 246.6,340.4 247.7,340.4 248.9,339.3 250.0,340.2 251.1,340.2 252.3,340.1 253.4,349.7 254.6,340.4 255.7,340.3 256.9,340.5 258.0,340.5 259.2,339.3 260.3,339.9 261.4,336.3 262.6,324.9 263.7,303.4 264.9,339.5 266.0,332.2 267.2,340.1 268.3,337.2 269.5,337.2 270.6,336.8 271.8,340.2 272.9,339.9 274.0,340.1 275.2,340.1 276.3,336.1 277.5,336.1 278.6,340.4 279.8,339.8 280.9,336.4 282.1,340.1 283.2,340.5 284.3,340.1 285.5,340.4 286.6,335.8 287.8,339.8 288.9,320.6 290.1,340.1 291.2,303.4 292.4,339.5 293.5,335.1 294.6,338.0 295.8,337.2 296.9,315.5 298.1,337.2 299.2,337.7 300.4,340.1 301.5,329.1 302.7,339.4 303.8,300.4 304.9,303.3 306.1,332.4 307.2,336.5 308.4,336.1 309.5,337.7 310.7,340.1 311.8,340.2 313.0,339.6 314.1,330.1 315.2,320.1 316.4,313.5 317.5,310.2 318.7,303.4 319.8,311.4 321.0,310.2 322.1,337.2 323.3,310.3 324.4,322.1 325.6,338.9 326.7,340.5 327.8,339.6 329.0,340.5 330.1,340.4 331.3,339.2 332.4,340.5 333.6,324.9 334.7,324.9 335.9,339.5 337.0,339.3 338.1,338.9 339.3,340.2 340.4,340.1 341.6,336.7 342.7,310.2 343.9,313.1 345.0,313.2 346.2,303.4 347.3,315.1 348.4,341.0 349.6,341.7 350.7,317.5 351.9,340.0 353.0,341.7 354.2,341.4 355.3,341.7 356.5,340.5 357.6,339.3 358.8,339.8 359.9,339.9 361.0,339.0 362.2,340.1 363.3,339.9 364.5,334.9 365.6,313.8 366.8,339.5 367.9,313.1 369.1,339.9 370.2,315.6 371.3,315.2 372.5,330.4 373.6,310.3 374.8,324.9 375.9,349.7 377.1,320.6 378.2,339.6 379.4,313.1 380.5,314.8 381.6,335.4 382.8,339.5 383.9,340.5 385.1,338.7 386.2,329.1 387.4,339.3 388.5,313.1 389.7,311.0 390.8,329.1 391.9,320.6 393.1,338.9 394.2,338.0 395.4,308.0 396.5,339.5 397.7,340.1 398.8,331.8 400.0,339.3 401.1,326.0 402.2,339.1 403.4,339.2 404.5,339.5 405.7,336.1 406.8,337.2 408.0,339.2 409.1,340.1 410.3,339.3 411.4,338.5 412.6,315.5 413.7,340.2 414.8,336.1 416.0,351.6 417.1,339.3 418.3,340.2 419.4,339.2 420.6,340.2 421.7,340.2 422.9,315.6 424.0,320.4 425.1,337.4 426.3,315.5 427.4,337.1 428.6,310.1 429.7,335.9 430.9,332.2 432.0,307.0 433.2,314.6 434.3,341.4 435.4,338.9 436.6,340.4 437.7,339.9 438.9,311.4 440.0,311.4 441.2,323.4 442.3,325.3 443.5,328.8 444.6,337.2 445.8,315.6 446.9,310.2 448.0,313.0 449.2,337.2 450.3,310.0 451.5,335.9 452.6,339.5 453.8,332.0 454.9,336.1 456.1,310.2 457.2,313.1 458.3,339.3 459.5,339.5 460.6,340.5 461.8,346.4 462.9,341.7 464.1,341.6 465.2,340.5 466.4,341.7 467.5,341.3 468.6,339.3 469.8,339.9 470.9,340.4 472.1,340.3 473.2,340.4 474.4,340.1 475.5,337.2 476.7,339.9 477.8,340.5 478.9,334.5 480.1,336.1 481.2,331.1 482.4,330.6 483.5,313.1 484.7,339.0 485.8,313.3 487.0,315.2 488.1,335.9 489.2,324.8 490.4,313.2 491.5,340.1 492.7,323.8 493.8,341.3 495.0,340.5 496.1,302.2 497.3,310.1 498.4,330.6 499.6,331.0 500.7,324.0 501.8,315.2 503.0,340.4 504.1,326.5 505.3,339.6 506.4,336.9 507.6,335.1 508.7,314.5 509.9,313.3 511.0,303.4 512.1,307.4 513.3,310.3 514.4,313.9 515.6,337.2 516.7,339.5 517.9,335.0 519.0,340.2 520.2,339.3 521.3,340.5 522.4,339.5 523.6,339.5 524.7,330.6 525.9,340.4 527.0,340.0 528.2,340.1 529.3,340.2 530.5,340.2 531.6,340.2 532.8,340.1 533.9,339.5 535.0,332.2 536.2,331.9 537.3,310.3 538.5,348.7 539.6,340.8 540.8,349.7 541.9,340.5 543.1,334.4 544.2,305.8 545.3,339.7 546.5,339.6 547.6,320.7 548.8,340.5 549.9,339.6 551.1,340.1 552.2,339.0 553.4,335.9 554.5,335.8 555.6,339.3 556.8,340.5 557.9,340.4 559.1,338.6 560.2,339.8 561.4,315.4 562.5,337.4 563.7,315.0 564.8,338.1 565.9,310.3 567.1,314.7 568.2,315.6 569.4,335.4 570.5,339.3 571.7,337.9 572.8,340.8 574.0,323.4 575.1,340.2 576.2,341.7 577.4,336.8 578.5,331.0 579.7,340.1 580.8,336.7 582.0,337.2 583.1,340.2 584.3,339.9 585.4,339.3 586.6,336.1 587.7,340.4 588.8,340.3 590.0,337.2 591.1,338.7 592.3,315.6 593.4,335.9 594.6,313.1 595.7,313.3 596.9,310.2 598.0,335.8 599.1,332.2 600.3,335.8 601.4,340.4 602.6,336.9 603.7,340.5 604.9,340.1 606.0,339.5 607.2,340.4 608.3,340.2 609.4,340.5 610.6,339.3 611.7,340.5 612.9,338.7 614.0,340.1 615.2,340.5 616.3,338.1 617.5,287.9 618.6,339.3 619.8,340.5 620.9,324.5 622.0,336.5 623.2,335.1 624.3,337.2 625.5,339.5 626.6,340.1 627.8,340.4 628.9,340.2 630.1,340.1 631.2,340.3 632.3,340.5 633.5,340.4 634.6,340.5 635.8,340.4 636.9,340.2 638.1,340.4 639.2,340.5 640.4,340.2 641.5,339.5 642.6,341.2 643.8,339.5 644.9,339.9 646.1,310.1 647.2,324.8 648.4,314.2 649.5,305.4 650.7,315.3 651.8,335.9 652.9,315.6 654.1,335.9 655.2,338.5 656.4,340.2 657.5,339.2 658.7,339.5 659.8,336.3 661.0,340.2 662.1,340.4 663.2,340.4 664.4,310.2 665.5,339.9 666.7,336.4 667.8,340.5 669.0,339.3 670.1,340.5 671.3,339.3 672.4,340.4 673.6,315.5 674.7,339.8 675.8,311.3 677.0,313.3 678.1,339.3 679.3,336.3 680.4,339.5 681.6,335.1 682.7,339.8 683.9,310.1 685.0,336.1 686.1,334.2 687.3,339.3 688.4,300.4 689.6,340.1 690.7,315.5 691.9,315.6 693.0,339.3 694.2,323.5 695.3,323.6 696.4,339.6 697.6,340.4 698.7,339.5 699.9,339.5 701.0,335.8 702.2,313.1 703.3,313.1 704.5,315.1 705.6,339.3 706.8,315.5 707.9,315.3 709.0,332.6 710.2,337.4 711.3,340.5 712.5,340.1 713.6,339.4 714.8,340.1 715.9,340.0 717.1,336.1 718.2,339.0 719.3,336.9 720.5,340.1 721.6,339.5 722.8,339.3 723.9,336.1 725.1,340.2 726.2,340.4 727.4,337.4 728.5,311.9 729.6,331.4 730.8,310.2 731.9,311.2 733.1,313.9 734.2,311.3 735.4,340.1 736.5,332.3 737.7,339.3 738.8,338.6 739.9,339.6 741.1,340.5 742.2,340.1 743.4,339.4 744.5,339.3 745.7,340.2 746.8,336.1 748.0,337.2 749.1,340.4 750.2,339.5 751.4,340.1 752.5,340.4 753.7,332.8 754.8,340.5 756.0,339.1 757.1,324.9 758.3,307.7 759.4,315.1 760.6,332.8 761.7,332.1 762.8,328.8 764.0,303.3 765.1,315.6 766.3,336.6 767.4,336.1 768.6,340.1 769.7,329.8 770.9,329.1 772.0,335.8 773.1,339.3 774.3,336.1 775.4,340.1 776.6,329.2 777.7,338.6 778.9,339.5 780.0,330.9 781.2,314.0 782.3,320.6 783.4,339.3 784.6,313.3 785.7,311.4 786.9,313.1 788.0,315.1 789.2,317.5 790.3,336.4 791.5,337.3 792.6,323.0 793.8,340.1 794.9,340.4 796.0,340.5 797.2,340.5 798.3,340.1 799.5,339.3 800.6,340.3 801.8,335.8 802.9,339.8 804.1,340.1 805.2,339.7 806.3,339.3 807.5,340.5 808.6,336.1 809.8,339.3 810.9,320.6 812.1,336.1 813.2,310.2 814.4,329.6 815.5,311.4 816.6,337.2 817.8,313.8 818.9,339.3 820.1,339.3 821.2,336.6 822.4,315.6 823.5,339.3 824.7,335.4 825.8,332.5 826.9,329.1 828.1,335.4 829.2,309.8 830.4,317.5 831.5,339.3 832.7,337.4 833.8,335.0 835.0,339.3 836.1,328.1 837.2,313.2 838.4,315.3 839.5,310.0 840.7,310.2 841.8,313.1 843.0,315.6 844.1,315.1 845.3,324.8 846.4,330.9 847.6,336.2 848.7,336.3 849.8,310.2 851.0,310.0 852.1,339.3 853.3,336.4 854.4,310.2 855.6,340.2 856.7,313.2 857.9,339.5 859.0,340.2 860.1,338.3 861.3,338.4 862.4,313.1 863.6,340.5 864.7,335.8 865.9,315.3 867.0,335.4 868.2,332.1 869.3,310.8 870.4,311.3 871.6,329.1 872.7,301.3 873.9,339.6 875.0,340.5 876.2,340.5 877.3,337.0 878.5,340.2 879.6,340.5 880.8,309.1 881.9,313.1 883.0,340.5 884.2,337.2 885.3,339.9 886.5,336.6 887.6,340.2 888.8,337.2 889.9,326.7 891.1,340.4 892.2,337.3 893.3,315.4 894.5,313.2 895.6,310.2 896.8,310.8 897.9,310.5 899.1,329.9 900.2,336.1 901.4,340.0 902.5,337.0 903.6,340.5 904.8,340.5 905.9,340.5 907.1,327.7 908.2,340.3 909.4,336.5 910.5,340.5 911.7,349.7 912.8,349.7 913.9,349.7 915.1,340.1 916.2,340.5 917.4,340.5 918.5,339.8 919.7,316.5 920.8,313.8 922.0,313.1 923.1,313.0 924.2,335.7 925.4,313.5 926.5,343.0 927.7,340.5 928.8,340.5 930.0,340.5 931.1,337.2 932.3,337.4 933.4,339.5 934.6,335.9 935.7,340.1 936.8,340.4 938.0,340.4 939.1,317.5 940.3,339.3 941.4,337.4 942.6,339.3 943.7,337.2 944.9,336.4 946.0,317.5" fill="none" stroke="#059669" stroke-width="2.2" stroke-linejoin="round" stroke-linecap="round"/>
<polyline points="76.0,211.6 77.1,219.5 78.3,226.3 79.4,231.4 80.6,239.6 81.7,231.4 82.9,226.2 84.0,219.8 85.2,226.4 86.3,226.3 87.4,202.2 88.6,226.4 89.7,227.6 90.9,226.3 92.0,229.2 93.2,230.7 94.3,214.2 95.5,219.5 96.6,239.3 97.8,219.4 98.9,218.6 100.0,202.2 101.2,223.2 102.3,226.1 103.5,226.4 104.6,223.4 105.8,226.2 106.9,215.9 108.1,219.4 109.2,202.5 110.3,202.2 111.5,162.0 112.6,171.9 113.8,171.9 114.9,212.3 116.1,218.6 117.2,212.3 118.4,210.8 119.5,236.5 120.6,244.4 121.8,233.3 122.9,226.2 124.1,226.8 125.2,226.3 126.4,230.6 127.5,223.3 128.7,216.4 129.8,224.5 130.9,216.9 132.1,239.6 133.2,237.1 134.4,231.9 135.5,232.5 136.7,233.3 137.8,226.4 139.0,226.4 140.1,227.4 141.2,230.8 142.4,234.5 143.5,226.3 144.7,239.6 145.8,243.8 147.0,236.8 148.1,248.0 149.3,242.8 150.4,243.7 151.6,242.2 152.7,239.5 153.8,255.3 155.0,208.8 156.1,239.9 157.3,240.9 158.4,237.9 159.6,252.2 160.7,246.0 161.9,249.8 163.0,244.4 164.1,235.4 165.3,236.5 166.4,231.4 167.6,226.5 168.7,232.8 169.9,236.5 171.0,249.6 172.2,241.9 173.3,244.4 174.4,234.5 175.6,233.2 176.7,233.5 177.9,219.4 179.0,242.3 180.2,226.3 181.3,235.1 182.5,234.5 183.6,246.3 184.8,252.5 185.9,226.4 187.0,230.9 188.2,245.8 189.3,240.4 190.5,232.9 191.6,238.1 192.8,239.6 193.9,236.4 195.1,226.4 196.2,226.4 197.3,233.2 198.5,236.4 199.6,245.2 200.8,240.9 201.9,249.7 203.1,233.5 204.2,233.6 205.4,240.4 206.5,239.6 207.6,239.9 208.8,244.6 209.9,243.8 211.1,243.8 212.2,236.4 213.4,202.7 214.5,226.3 215.7,226.3 216.8,219.4 217.9,232.7 219.1,236.5 220.2,234.6 221.4,236.5 222.5,233.9 223.7,239.6 224.8,239.6 226.0,236.5 227.1,233.3 228.2,242.0 229.4,242.2 230.5,240.9 231.7,231.1 232.8,230.0 234.0,240.2 235.1,229.7 236.3,235.5 237.4,234.5 238.6,209.6 239.7,226.4 240.8,226.3 242.0,226.2 243.1,228.0 244.3,226.4 245.4,239.6 246.6,239.6 247.7,235.1 248.9,233.3 250.0,238.8 251.1,239.6 252.3,240.0 253.4,255.1 254.6,236.5 255.7,236.5 256.9,244.4 258.0,244.4 259.2,236.5 260.3,235.3 261.4,228.6 262.6,226.4 263.7,244.4 264.9,226.3 266.0,202.2 267.2,234.7 268.3,236.4 269.5,226.3 270.6,231.8 271.8,236.4 272.9,239.6 274.0,236.4 275.2,235.8 276.3,236.9 277.5,226.4 278.6,241.6 279.8,237.1 280.9,226.4 282.1,235.8 283.2,241.9 284.3,243.9 285.5,251.5 286.6,227.1 287.8,226.3 288.9,227.4 290.1,238.0 291.2,250.5 292.4,230.8 293.5,226.2 294.6,226.4 295.8,228.2 296.9,225.6 298.1,232.6 299.2,226.4 300.4,231.2 301.5,214.7 302.7,226.2 303.8,162.0 304.9,172.9 306.1,202.5 307.2,213.1 308.4,204.0 309.5,226.3 310.7,235.5 311.8,231.0 313.0,229.7 314.1,219.6 315.2,219.4 316.4,226.3 317.5,202.5 318.7,230.0 319.8,202.2 321.0,202.2 322.1,226.3 323.3,213.1 324.4,219.8 325.6,227.4 326.7,226.3 327.8,227.4 329.0,227.1 330.1,229.6 331.3,226.4 332.4,236.4 333.6,211.5 334.7,224.5 335.9,236.5 337.0,235.3 338.1,226.3 339.3,231.4 340.4,233.3 341.6,226.3 342.7,205.1 343.9,223.3 345.0,226.1 346.2,261.2 347.3,222.6 348.4,217.1 349.6,243.4 350.7,218.1 351.9,231.4 353.0,236.7 354.2,244.4 355.3,244.1 356.5,236.4 357.6,236.4 358.8,230.4 359.9,226.4 361.0,243.8 362.2,234.7 363.3,234.0 364.5,221.2 365.6,213.5 366.8,231.1 367.9,184.3 369.1,234.2 370.2,217.6 371.3,225.1 372.5,226.3 373.6,230.6 374.8,217.5 375.9,244.1 377.1,217.9 378.2,224.4 379.4,202.1 380.5,199.5 381.6,197.7 382.8,219.4 383.9,213.3 385.1,226.4 386.2,172.0 387.4,223.4 388.5,207.7 389.7,208.3 390.8,202.2 391.9,224.6 393.1,231.1 394.2,226.4 395.4,170.6 396.5,226.2 397.7,234.7 398.8,226.1 400.0,226.4 401.1,178.2 402.2,202.8 403.4,229.3 404.5,234.7 405.7,226.4 406.8,212.5 408.0,236.5 409.1,235.8 410.3,227.4 411.4,226.4 412.6,223.3 413.7,233.3 414.8,226.3 416.0,255.4 417.1,234.3 418.3,234.5 419.4,233.3 420.6,236.3 421.7,236.3 422.9,227.4 424.0,226.1 425.1,226.3 426.3,226.3 427.4,226.3 428.6,217.6 429.7,226.3 430.9,217.5 432.0,216.1 433.2,226.2 434.3,236.3 435.4,217.6 436.6,226.3 437.7,221.9 438.9,212.3 440.0,202.8 441.2,217.9 442.3,226.3 443.5,217.9 444.6,235.7 445.8,226.3 446.9,208.3 448.0,209.7 449.2,226.3 450.3,226.3 451.5,226.3 452.6,236.4 453.8,226.3 454.9,238.0 456.1,226.2 457.2,225.9 458.3,226.4 459.5,226.9 460.6,234.3 461.8,251.6 462.9,236.5 464.1,238.9 465.2,242.8 466.4,236.4 467.5,232.8 468.6,218.3 469.8,234.9 470.9,236.4 472.1,236.4 473.2,236.3 474.4,231.4 475.5,228.4 476.7,234.3 477.8,243.9 478.9,223.3 480.1,226.2 481.2,226.3 482.4,231.5 483.5,229.3 484.7,229.7 485.8,212.8 487.0,216.0 488.1,223.3 489.2,229.5 490.4,216.7 491.5,226.3 492.7,218.5 493.8,227.2 495.0,236.4 496.1,171.9 497.3,202.2 498.4,226.3 499.6,202.9 500.7,215.1 501.8,217.4 503.0,236.3 504.1,224.6 505.3,231.3 506.4,226.2 507.6,218.5 508.7,215.1 509.9,202.4 511.0,194.7 512.1,197.0 513.3,211.6 514.4,202.5 515.6,217.9 516.7,231.1 517.9,216.1 519.0,236.5 520.2,226.1 521.3,225.6 522.4,226.4 523.6,221.8 524.7,226.2 525.9,243.8 527.0,229.3 528.2,234.6 529.3,236.4 530.5,229.8 531.6,236.4 532.8,239.6 533.9,243.8 535.0,226.5 536.2,227.2 537.3,226.3 538.5,236.4 539.6,230.8 540.8,226.4 541.9,234.8 543.1,229.7 544.2,92.4 545.3,217.9 546.5,226.3 547.6,216.6 548.8,234.7 549.9,233.3 551.1,226.3 552.2,226.3 553.4,226.3 554.5,223.3 555.6,226.1 556.8,236.4 557.9,241.7 559.1,236.4 560.2,234.9 561.4,216.6 562.5,226.4 563.7,226.3 564.8,241.3 565.9,235.5 567.1,219.9 568.2,215.3 569.4,233.3 570.5,229.8 571.7,233.7 572.8,236.6 574.0,202.8 575.1,236.5 576.2,236.5 577.4,219.5 578.5,223.4 579.7,231.1 580.8,223.2 582.0,222.7 583.1,229.9 584.3,235.1 585.4,236.2 586.6,226.3 587.7,241.0 588.8,243.6 590.0,228.0 591.1,239.9 592.3,226.3 593.4,230.9 594.6,214.7 595.7,217.6 596.9,217.6 598.0,226.2 599.1,226.3 600.3,219.9 601.4,237.4 602.6,227.1 603.7,234.6 604.9,226.4 606.0,226.4 607.2,239.9 608.3,219.8 609.4,236.8 610.6,227.4 611.7,239.9 612.9,226.2 614.0,235.0 615.2,234.6 616.3,226.2 617.5,170.5 618.6,226.3 619.8,227.5 620.9,227.6 622.0,229.7 623.2,226.3 624.3,226.3 625.5,243.0 626.6,226.4 627.8,233.3 628.9,226.4 630.1,231.5 631.2,229.7 632.3,241.9 633.5,235.3 634.6,239.9 635.8,239.5 636.9,235.4 638.1,239.6 639.2,236.8 640.4,243.8 641.5,226.4 642.6,244.4 643.8,215.4 644.9,228.1 646.1,208.3 647.2,216.5 648.4,226.4 649.5,204.4 650.7,226.3 651.8,226.1 652.9,226.3 654.1,234.7 655.2,226.4 656.4,239.6 657.5,226.3 658.7,230.0 659.8,225.4 661.0,226.4 662.1,237.9 663.2,239.1 664.4,202.8 665.5,233.6 666.7,233.3 667.8,238.6 669.0,233.3 670.1,235.3 671.3,219.4 672.4,235.8 673.6,215.4 674.7,233.2 675.8,225.8 677.0,222.5 678.1,228.0 679.3,226.3 680.4,226.4 681.6,222.6 682.7,232.4 683.9,198.4 685.0,223.1 686.1,214.7 687.3,234.7 688.4,171.9 689.6,233.3 690.7,202.2 691.9,222.8 693.0,219.5 694.2,212.6 695.3,218.6 696.4,242.8 697.6,234.7 698.7,226.2 699.9,231.0 701.0,226.3 702.2,212.6 703.3,226.3 704.5,209.7 705.6,226.3 706.8,202.5 707.9,202.2 709.0,204.3 710.2,226.4 711.3,238.2 712.5,226.4 713.6,219.4 714.8,233.8 715.9,234.7 717.1,222.8 718.2,226.3 719.3,217.6 720.5,234.4 721.6,233.3 722.8,234.6 723.9,239.6 725.1,243.7 726.2,232.5 727.4,231.1 728.5,221.6 729.6,230.8 730.8,231.0 731.9,206.6 733.1,223.4 734.2,218.3 735.4,229.8 736.5,227.4 737.7,228.1 738.8,235.3 739.9,234.7 741.1,226.4 742.2,232.3 743.4,239.6 744.5,226.7 745.7,240.4 746.8,228.0 748.0,234.5 749.1,239.6 750.2,239.6 751.4,236.6 752.5,240.9 753.7,214.8 754.8,231.1 756.0,236.4 757.1,225.7 758.3,226.2 759.4,225.2 760.6,225.2 761.7,217.9 762.8,226.4 764.0,174.3 765.1,213.0 766.3,226.3 767.4,216.7 768.6,220.8 769.7,234.7 770.9,218.6 772.0,217.7 773.1,235.3 774.3,224.9 775.4,230.9 776.6,226.3 777.7,226.3 778.9,233.2 780.0,223.3 781.2,214.1 782.3,210.8 783.4,235.7 784.6,226.0 785.7,227.3 786.9,221.8 788.0,226.2 789.2,214.5 790.3,231.9 791.5,226.6 792.6,226.3 793.8,236.4 794.9,233.0 796.0,226.3 797.2,239.6 798.3,226.7 799.5,226.4 800.6,240.1 801.8,217.6 802.9,233.3 804.1,230.7 805.2,237.3 806.3,226.7 807.5,228.3 808.6,225.2 809.8,226.4 810.9,227.4 812.1,226.3 813.2,221.3 814.4,211.2 815.5,197.3 816.6,227.5 817.8,214.8 818.9,232.3 820.1,226.2 821.2,226.3 822.4,202.3 823.5,210.9 824.7,226.4 825.8,220.6 826.9,223.3 828.1,226.4 829.2,191.2 830.4,218.2 831.5,226.3 832.7,233.3 833.8,227.4 835.0,236.4 836.1,222.0 837.2,219.4 838.4,236.4 839.5,201.0 840.7,226.3 841.8,226.6 843.0,219.4 844.1,226.2 845.3,226.4 846.4,226.4 847.6,224.2 848.7,218.6 849.8,202.6 851.0,185.3 852.1,226.4 853.3,226.7 854.4,202.9 855.6,230.1 856.7,229.6 857.9,244.4 859.0,243.2 860.1,240.6 861.3,239.9 862.4,194.3 863.6,248.1 864.7,211.3 865.9,236.5 867.0,244.4 868.2,243.5 869.3,226.4 870.4,176.0 871.6,226.3 872.7,197.1 873.9,232.2 875.0,239.5 876.2,244.3 877.3,223.3 878.5,231.2 879.6,259.7 880.8,171.9 881.9,202.8 883.0,259.9 884.2,226.4 885.3,229.2 886.5,226.3 887.6,239.9 888.8,226.3 889.9,233.3 891.1,219.4 892.2,183.2 893.3,226.4 894.5,207.1 895.6,212.7 896.8,211.2 897.9,202.4 899.1,226.8 900.2,230.5 901.4,246.6 902.5,215.9 903.6,243.9 904.8,227.6 905.9,235.1 907.1,233.2 908.2,244.3 909.4,232.4 910.5,240.9 911.7,251.3 912.8,248.8 913.9,255.6 915.1,239.6 916.2,241.9 917.4,244.2 918.5,202.0 919.7,197.2 920.8,227.5 922.0,220.9 923.1,226.5 924.2,219.4 925.4,219.5 926.5,236.3 927.7,239.6 928.8,240.4 930.0,249.2 931.1,241.5 932.3,240.4 933.4,233.9 934.6,209.7 935.7,239.6 936.8,236.4 938.0,244.2 939.1,215.8 940.3,226.4 941.4,239.6 942.6,230.7 943.7,227.6 944.9,233.3 946.0,215.0" fill="none" stroke="#d97706" stroke-width="2.2" stroke-linejoin="round" stroke-linecap="round"/>
<line x1="76" y1="70" x2="94" y2="70" stroke="#2563eb" stroke-width="3"/>
<text x="100" y="74" font-family="Arial, sans-serif" font-size="11" fill="#0f172a">avg fee</text>
<line x1="179" y1="70" x2="197" y2="70" stroke="#059669" stroke-width="3"/>
<text x="203" y="74" font-family="Arial, sans-serif" font-size="11" fill="#0f172a">median fee</text>
<line x1="303" y1="70" x2="321" y2="70" stroke="#d97706" stroke-width="3"/>
<text x="327" y="74" font-family="Arial, sans-serif" font-size="11" fill="#0f172a">p90 fee</text>
<text x="28" y="404" font-family="Arial, sans-serif" font-size="11" fill="#64748b">Source: hourly_features.csv</text>
</svg>