<svg xmlns="http://www.w3.org/2000/svg" width="980" height="420" viewBox="0 0 980 420">
<rect width="100%" height="100%" fill="#ffffff"/>
<text x="28" y="34" font-family="Arial, sans-serif" font-size="20" font-weight="700" fill="#0f172a">Hourly fee trend</text>
<text x="28" y="56" font-family="Arial, sans-serif" font-size="12" fill="#64748b">Average, median, and p90 total fee by hour</text>
<line x1="76" y1="362.0" x2="946" y2="362.0" stroke="#e2e8f0" stroke-width="1"/>
<text x="68" y="366.0" font-family="Arial, sans-serif" font-size="10" text-anchor="end" fill="#64748b">-382K</text>
<line x1="76" y1="292.0" x2="946" y2="292.0" stroke="#e2e8f0" stroke-width="1"/>
<text x="68" y="296.0" font-family="Arial, sans-serif" font-size="10" text-anchor="end" fill="#64748b">2.6M</text>
<line x1="76" y1="222.0" x2="946" y2="222.0" stroke="#e2e8f0" stroke-width="1"/>
<text x="68" y="226.0" font-family="Arial, sans-serif" font-size="10" text-anchor="end" fill="#64748b">5.7M</text>
<line x1="76" y1="152.0" x2="946" y2="152.0" stroke="#e2e8f0" stroke-width="1"/>
<text x="68" y="156.0" font-family="Arial, sans-serif" font-size="10" text-anchor="end" fill="#64748b">8.7M</text>
<line x1="76" y1="82.0" x2="946" y2="82.0" stroke="#e2e8f0" stroke-width="1"/>
<text x="68" y="86.0" font-family="Arial, sans-serif" font-size="10" text-anchor="end" fill="#64748b">11.7M</text>
<line x1="76" y1="362" x2="946" y2="362" stroke="#334155" stroke-width="1"/>
<line x1="76" y1="82" x2="76" y2="362" stroke="#334155" stroke-width="1"/>
<text x="76" y="72" font-family="Arial, sans-serif" font-size="11" fill="#64748b">nanoton</text>
<line x1="76.0" y1="362" x2="76.0" y2="366" stroke="#334155" stroke-width="1"/>
<text x="76.0" y="380" font-family="Arial, sans-serif" font-size="10" text-anchor="middle" fill="#64748b">0</text>
<line x1="511.5" y1="362" x2="511.5" y2="366" stroke="#334155" stroke-width="1"/>
<text x="511.5" y="380" font-family="Arial, sans-serif" font-size="10" text-anchor="middle" fill="#64748b">416</text>
<line x1="946.0" y1="362" x2="946.0" y2="366" stroke="#334155" stroke-width="1"/>
<text x="946.0" y="380" font-family="Arial, sans-serif" font-size="10" text-anchor="middle" fill="#64748b">831</text>
<polyline points="76.0,290.8 77.0,294.6 78.1,296.0 79.1,298.1 80.2,304.8 81.2,297.2 82.3,298.2 83.3,294.6 84.4,299.0 85.4,298.7 86.5,287.8 87.5,299.5 88.6,299.7 89.6,297.4 90.7,300.3 91.7,300.5 92.8,292.5 93.8,292.5 94.8,301.3 95.9,291.1 96.9,289.2 98.0,287.3 99.0,293.8 100.1,294.2 101.1,296.1 102.2,292.1 103.2,297.7 104.3,290.6 105.3,293.2 106.4,288.3 107.4,289.0 108.5,273.1 109.5,284.7 110.5,285.3 111.6,294.6 112.6,299.9 113.7,292.9 114.7,294.9 115.8,304.7 116.8,307.5 117.9,302.1 118.9,297.0 120.0,298.7 121.0,297.9 122.1,304.4 123.1,297.4 124.2,294.5 125.2,296.5 126.3,298.7 127.3,303.1 128.3,303.1 129.4,301.9 130.4,300.3 131.5,303.3 132.5,302.2 133.6,299.4 134.6,299.1 135.7,302.8 136.7,299.1 137.8,301.3 138.8,306.8 139.9,308.7 140.9,306.4 142.0,307.1 143.0,309.1 144.1,305.9 145.1,305.5 146.1,302.0 147.2,308.5 148.2,290.7 149.3,306.4 150.3,306.4 151.4,306.3 152.4,311.2 153.5,307.1 154.5,310.3 155.6,309.1 156.6,305.5 157.7,305.4 158.7,303.2 159.8,303.5 160.8,301.3 161.8,305.1 162.9,307.4 163.9,306.9 165.0,308.1 166.0,305.0 167.1,302.9 168.1,302.7 169.2,298.6 170.2,304.9 171.3,297.0 172.3,299.3 173.4,300.3 174.4,303.9 175.5,311.6 176.5,300.1 177.6,300.5 178.6,308.9 179.6,307.5 180.7,300.3 181.7,304.2 182.8,305.1 183.8,302.6 184.9,300.5 185.9,297.4 187.0,298.7 188.0,301.9 189.1,308.1 190.1,307.4 191.2,307.4 192.2,303.1 193.3,301.9 194.3,304.1 195.4,303.9 196.4,304.0 197.4,308.3 198.5,308.9 199.5,307.3 200.6,301.1 201.6,286.9 202.7,301.6 203.7,298.8 204.8,296.1 205.8,299.6 206.9,305.5 207.9,301.5 209.0,304.9 210.0,302.2 211.1,304.9 212.1,306.8 213.1,304.9 214.2,300.8 215.2,304.8 216.3,308.0 217.3,302.4 218.4,301.7 219.4,303.1 220.5,303.4 221.5,298.9 222.6,298.5 223.6,298.0 224.7,289.4 225.7,296.9 226.8,296.4 227.8,295.5 228.9,299.6 229.9,299.0 230.9,304.6 232.0,304.0 233.0,303.8 234.1,299.2 235.1,301.2 236.2,305.7 237.2,304.5 238.3,312.1 239.3,305.7 240.4,304.3 241.4,307.0 242.5,306.9 243.5,301.9 244.6,303.8 245.6,300.8 246.6,301.6 247.7,300.2 248.7,298.7 249.8,290.6 250.8,296.1 251.9,300.6 252.9,296.6 254.0,302.7 255.0,302.6 256.1,303.0 257.1,302.7 258.2,302.8 259.2,303.7 260.3,300.1 261.3,305.6 262.4,303.0 263.4,299.2 264.4,302.8 265.5,306.7 266.5,306.1 267.6,306.7 268.6,298.5 269.7,301.6 270.7,297.8 271.8,303.8 272.8,300.2 273.9,299.5 274.9,295.6 276.0,298.2 277.0,298.4 278.1,293.8 279.1,299.9 280.2,297.9 281.2,298.6 282.2,294.2 283.3,297.8 284.3,278.0 285.4,284.2 286.4,295.2 287.5,295.7 288.5,294.4 289.6,300.7 290.6,304.3 291.7,302.4 292.7,302.1 293.8,297.9 294.8,295.3 295.9,296.5 296.9,291.4 297.9,292.0 299.0,290.6 300.0,290.0 301.1,299.7 302.1,291.9 303.2,296.8 304.2,299.8 305.3,303.8 306.3,302.5 307.4,302.1 308.4,302.3 309.5,300.8 310.5,303.5 311.6,295.9 312.6,297.8 313.7,304.4 314.7,304.2 315.7,299.5 316.8,303.9 317.8,303.5 318.9,299.0 319.9,288.7 321.0,293.7 322.0,294.2 323.1,303.7 324.1,295.6 325.2,297.0 326.2,305.6 327.3,294.8 328.3,300.5 329.4,305.1 330.4,308.5 331.5,305.5 332.5,304.0 333.5,300.7 334.6,303.8 335.6,299.3 336.7,303.0 337.7,305.0 338.8,303.0 339.8,299.3 340.9,294.4 341.9,299.9 343.0,286.2 344.0,302.1 345.1,293.9 346.1,297.9 347.2,299.5 348.2,297.4 349.2,294.4 350.3,310.4 351.3,291.6 352.4,295.6 353.4,281.6 354.5,294.6 355.5,293.2 356.6,295.0 357.6,291.0 358.7,301.0 359.7,279.9 360.8,297.2 361.8,291.8 362.9,291.5 363.9,283.3 365.0,298.3 366.0,300.4 367.0,298.6 368.1,288.4 369.1,299.0 370.2,304.4 371.2,297.7 372.3,295.5 373.3,279.8 374.4,284.2 375.4,300.5 376.5,299.9 377.5,298.1 378.6,293.4 379.6,303.1 380.7,303.0 381.7,298.6 382.8,296.8 383.8,297.4 384.8,301.3 385.9,298.1 386.9,311.4 388.0,299.4 389.0,303.5 390.1,301.2 391.1,302.9 392.2,304.3 393.2,297.8 394.3,294.4 395.3,299.3 396.4,295.1 397.4,301.8 398.5,292.6 399.5,297.6 400.5,293.9 401.6,290.0 402.6,295.1 403.7,304.6 404.7,291.1 405.8,300.3 406.8,295.9 407.9,293.1 408.9,291.6 410.0,296.8 411.0,297.1 412.1,297.9 413.1,299.5 414.2,292.8 415.2,286.2 416.3,290.1 417.3,300.0 418.3,294.5 419.4,300.9 420.4,303.0 421.5,299.1 422.5,302.5 423.6,295.1 424.6,297.0 425.7,302.8 426.7,301.7 427.8,303.0 428.8,308.6 429.9,306.8 430.9,306.1 432.0,306.5 433.0,304.3 434.1,304.5 435.1,298.3 436.1,301.1 437.2,303.1 438.2,303.3 439.3,304.2 440.3,302.4 441.4,299.4 442.4,304.5 443.5,307.1 444.5,297.3 445.6,298.9 446.6,298.1 447.7,299.7 448.7,297.8 449.8,301.0 450.8,287.2 451.8,294.3 452.9,294.8 453.9,298.6 455.0,291.3 456.0,298.4 457.1,294.6 458.1,298.7 459.2,304.2 460.2,282.2 461.3,289.8 462.3,298.8 463.4,295.1 464.4,293.4 465.5,294.7 466.5,304.3 467.6,296.9 468.6,301.7 469.6,296.7 470.7,295.6 471.7,292.9 472.8,291.6 473.8,286.7 474.9,287.8 475.9,294.2 477.0,292.6 478.0,297.5 479.1,303.1 480.1,296.8 481.2,304.1 482.2,298.7 483.3,297.8 484.3,299.3 485.4,297.1 486.4,296.6 487.4,305.5 488.5,301.9 489.5,304.5 490.6,302.9 491.6,303.4 492.7,302.7 493.7,304.5 494.8,301.7 495.8,300.0 496.9,297.3 497.9,295.0 499.0,305.0 500.0,302.7 501.1,303.7 502.1,302.8 503.1,298.5 504.2,257.0 505.2,291.0 506.3,298.5 507.3,296.3 508.4,301.0 509.4,301.6 510.5,299.9 511.5,299.3 512.6,299.6 513.6,296.0 514.7,299.4 515.7,305.6 516.8,306.5 517.8,300.9 518.9,302.7 519.9,295.0 520.9,302.2 522.0,296.9 523.0,304.8 524.1,299.1 525.1,295.6 526.2,295.1 527.2,300.9 528.3,301.0 529.3,300.7 530.4,304.5 531.4,292.6 532.5,303.5 533.5,306.0 534.6,295.5 535.6,297.4 536.6,302.8 537.7,295.8 538.7,299.5 539.8,304.0 540.8,301.7 541.9,303.8 542.9,300.8 544.0,306.1 545.0,305.6 546.1,300.8 547.1,303.2 548.2,297.1 549.2,300.2 550.3,292.3 551.3,292.0 552.4,292.1 553.4,299.3 554.4,298.5 555.5,298.8 556.5,301.5 557.6,299.6 558.6,305.3 559.7,300.2 560.7,300.6 561.8,304.7 562.8,299.2 563.9,304.4 564.9,299.7 566.0,306.4 567.0,299.1 568.1,304.5 569.1,303.3 570.2,298.0 571.2,263.7 572.2,302.9 573.3,304.6 574.3,301.3 575.4,300.8 576.4,298.3 577.5,299.9 578.5,302.7 579.6,298.6 580.6,304.0 581.7,302.8 582.7,303.0 583.8,301.1 584.8,308.3 585.9,304.5 586.9,309.0 587.9,304.5 589.0,303.7 590.0,304.9 591.1,303.6 592.1,305.3 593.2,299.5 594.2,305.2 595.3,297.1 596.3,302.2 597.4,288.1 598.4,294.6 599.5,299.7 600.5,287.4 601.6,299.0 602.6,298.4 603.7,296.8 604.7,301.1 605.7,299.5 606.8,302.6 607.8,299.3 608.9,303.0 609.9,298.0 611.0,301.6 612.0,305.3 613.1,304.5 614.1,290.4 615.2,303.1 616.2,299.6 617.3,302.4 618.3,303.1 619.4,304.7 620.4,296.3 621.5,301.7 622.5,292.9 623.5,298.2 624.6,294.8 625.6,293.5 626.7,299.4 627.7,297.4 628.8,300.4 629.8,295.6 630.9,301.5 631.9,282.6 633.0,297.4 634.0,291.2 635.1,300.8 636.1,281.3 637.2,303.6 638.2,292.1 639.2,296.5 640.3,300.9 641.3,293.9 642.4,295.3 643.4,305.2 644.5,304.7 645.5,300.3 646.6,302.0 647.6,297.5 648.7,295.0 649.7,296.6 650.8,292.7 651.8,298.7 652.9,291.1 653.9,289.9 655.0,292.8 656.0,302.6 657.0,303.5 658.1,301.6 659.1,297.5 660.2,303.0 661.2,302.5 662.3,299.3 663.3,300.0 664.4,295.7 665.4,300.6 666.5,302.5 667.5,302.2 668.6,300.7 669.6,305.4 670.7,305.1 671.7,301.0 672.8,294.2 673.8,301.0 674.8,298.9 675.9,290.4 676.9,295.9 678.0,294.1 679.0,301.3 680.1,298.2 681.1,299.2 682.2,302.6 683.2,300.9 684.3,299.2 685.3,302.7 686.4,303.6 687.4,299.5 688.5,304.4 689.5,298.2 690.5,302.7 691.6,304.9 692.6,303.3 693.7,303.8 694.7,305.7 695.8,294.6 696.8,306.7 697.9,303.7 698.9,295.1 700.0,294.1 701.0,293.7 702.1,295.9 703.1,295.9 704.2,298.1 705.2,284.7 706.3,294.9 707.3,298.6 708.3,296.3 709.4,294.2 710.4,300.6 711.5,294.3 712.5,295.9 713.6,303.8 714.6,295.8 715.7,302.6 716.7,297.7 717.8,300.0 718.8,300.7 719.9,298.3 720.9,294.8 722.0,295.8 723.0,303.0 724.1,295.6 725.1,296.0 726.1,295.2 727.2,295.3 728.2,295.0 729.3,299.9 730.3,299.0 731.4,295.9 732.4,303.3 733.5,302.9 734.5,298.2 735.6,305.5 736.6,300.9 737.7,300.4 738.7,305.2 739.8,295.8 740.8,301.8 741.8,303.2 742.9,304.6 743.9,299.1 745.0,301.0 746.0,298.0 747.1,298.8 748.1,297.3 749.2,300.8 750.2,296.0 751.3,293.0 752.3,284.2 753.4,298.8 754.4,293.9 755.5,298.9 756.5,298.8 757.6,298.0 758.6,291.0 759.6,292.3 760.7,298.2 761.7,297.5 762.8,297.5 763.8,298.5 764.9,288.2 765.9,296.5 767.0,297.3 768.0,301.7 769.1,301.0 770.1,305.4 771.2,295.8 772.2,295.1 773.3,299.8 774.3,289.6 775.4,296.7 776.4,295.1 777.4,295.1 778.5,294.8 779.5,297.5 780.6,299.5 781.6,295.8 782.7,297.0 783.7,291.7 784.8,285.1 785.8,299.7 786.9,301.0 787.9,293.6 789.0,302.3 790.0,297.5 791.1,307.7 792.1,292.5 793.1,304.9 794.2,304.1 795.2,291.9 796.3,305.2 797.3,297.8 798.4,298.1 799.4,307.4 800.5,305.4 801.5,294.0 802.6,284.5 803.6,295.7 804.7,281.6 805.7,295.8 806.8,307.1 807.8,303.5 808.9,299.2 809.9,301.5 810.9,309.0 812.0,287.8 813.0,293.3 814.1,314.3 815.1,300.8 816.2,304.2 817.2,299.2 818.3,305.4 819.3,297.5 820.4,303.5 821.4,297.3 822.5,286.2 823.5,295.6 824.6,293.4 825.6,295.3 826.6,292.6 827.7,295.0 828.7,297.5 829.8,303.2 830.8,307.8 831.9,295.2 832.9,306.6 834.0,305.0 835.0,305.4 836.1,303.1 837.1,297.4 838.2,293.5 839.2,305.0 840.3,310.4 841.3,306.6 842.4,309.4 843.4,304.0 844.4,307.8 845.5,308.2 846.5,299.0 847.6,288.2 848.6,297.1 849.7,298.1 850.7,298.6 851.8,298.7 852.8,295.2 853.9,305.8 854.9,307.8 856.0,304.4 857.0,309.3 858.1,306.7 859.1,303.2 860.2,303.6 861.2,296.5 862.2,304.1 863.3,305.5 864.3,308.2 865.4,291.8 866.4,301.9 867.5,305.3 868.5,302.2 869.6,300.9 870.6,302.7 871.7,295.0 872.7,295.0 873.8,295.3 874.8,299.1 875.9,299.0 876.9,300.9 877.9,304.6 879.0,307.3 880.0,303.1 881.1,300.9 882.1,303.0 883.2,290.9 884.2,301.1 885.3,301.9 886.3,302.0 887.4,295.6 888.4,306.6 889.5,304.1 890.5,288.8 891.6,297.4 892.6,295.3 893.7,295.7 894.7,296.1 895.7,306.3 896.8,300.3 897.8,304.9 898.9,295.7 899.9,303.6 901.0,305.1 902.0,302.6 903.1,301.6 904.1,285.2 905.2,304.3 906.2,334.7 907.3,343.7 908.3,343.8 909.4,343.5 910.4,344.0 911.5,319.0 912.5,342.3 913.5,343.1 914.6,342.6 915.6,343.4 916.7,343.4 917.7,343.4 918.8,338.9 919.8,343.5 920.9,344.5 921.9,342.7 923.0,342.0 924.0,343.8 925.1,343.0 926.1,343.2 927.2,340.3 928.2,342.7 929.2,343.4 930.3,342.2 931.3,343.9 932.4,341.8 933.4,341.2 934.5,342.8 935.5,342.4 936.6,343.3 937.6,344.8 938.7,343.7 939.7,343.3 940.8,344.0 941.8,342.7 942.9,343.5 943.9,341.8 945.0,340.1 946.0,342.8" fill="none" stroke="#2563eb" stroke-width="2.2" stroke-linejoin="round" stroke-linecap="round"/>
<polyline points="76.0,311.4 77.0,324.9 78.1,334.1 79.1,334.5 80.2,335.0 81.2,334.6 82.3,334.4 83.3,330.8 84.4,334.6 85.4,334.6 86.5,320.5 87.5,334.6 88.6,334.2 89.6,330.7 90.7,334.4 91.7,333.8 92.8,321.1 93.8,330.5 94.8,332.4 95.9,310.6 96.9,302.9 98.0,305.9 99.0,320.5 100.1,315.5 101.1,310.4 102.2,329.8 103.2,333.4 104.3,312.5 105.3,335.0 106.4,319.0 107.4,330.5 108.5,283.8 109.5,300.4 110.5,303.3 111.6,308.3 112.6,331.3 113.7,312.5 114.7,310.6 115.8,334.9 116.8,335.0 117.9,329.7 118.9,310.6 120.0,310.6 121.0,312.5 122.1,340.8 123.1,334.9 124.2,308.9 125.2,310.3 126.3,334.9 127.3,335.3 128.3,334.2 129.4,333.4 130.4,333.9 131.5,334.6 132.5,331.5 133.6,334.6 134.6,330.9 135.7,334.3 136.7,334.6 137.8,334.2 138.8,335.0 139.9,334.9 140.9,334.9 142.0,344.0 143.0,335.8 144.1,334.9 145.1,334.9 146.1,330.7 147.2,344.0 148.2,335.6 149.3,336.2 150.3,336.2 151.4,335.0 152.4,338.1 153.5,336.2 154.5,336.1 155.6,335.1 156.6,335.0 157.7,335.0 158.7,334.5 159.8,335.0 160.8,334.6 161.8,334.6 162.9,335.0 163.9,335.0 165.0,335.0 166.0,334.3 167.1,334.9 168.1,334.9 169.2,330.7 170.2,334.7 171.3,312.2 172.3,329.6 173.4,331.1 174.4,333.8 175.5,344.0 176.5,330.6 177.6,333.8 178.6,335.0 179.6,336.2 180.7,334.7 181.7,334.7 182.8,334.8 183.8,334.6 184.9,331.0 185.9,330.5 187.0,331.5 188.0,333.0 189.1,335.0 190.1,334.9 191.2,334.9 192.2,334.1 193.3,334.9 194.3,334.9 195.4,331.5 196.4,332.3 197.4,336.2 198.5,344.0 199.5,336.1 200.6,335.0 201.6,310.1 202.7,334.9 203.7,334.5 204.8,334.7 205.8,333.8 206.9,334.9 207.9,334.0 209.0,334.9 210.0,334.9 211.1,334.9 212.1,335.0 213.1,334.7 214.2,333.2 215.2,334.9 216.3,335.0 217.3,335.0 218.4,334.1 219.4,334.2 220.5,330.3 221.5,310.6 222.6,298.7 223.6,309.8 224.7,304.4 225.7,310.2 226.8,310.1 227.8,327.6 228.9,333.0 229.9,333.8 230.9,333.8 232.0,334.9 233.0,334.9 234.1,333.8 235.1,334.7 236.2,334.7 237.2,334.6 238.3,344.0 239.3,334.9 240.4,334.9 241.4,335.0 242.5,335.0 243.5,333.8 244.6,334.4 245.6,330.9 246.6,319.7 247.7,298.7 248.7,334.1 249.8,326.9 250.8,334.7 251.9,331.8 252.9,331.8 254.0,331.4 255.0,334.7 256.1,334.4 257.1,334.6 258.2,334.6 259.2,330.7 260.3,330.7 261.3,334.9 262.4,334.4 263.4,331.0 264.4,334.6 265.5,335.0 266.5,334.6 267.6,334.9 268.6,330.5 269.7,334.3 270.7,315.6 271.8,334.6 272.8,298.7 273.9,334.0 274.9,329.7 276.0,332.6 277.0,331.8 278.1,310.6 279.1,331.8 280.2,332.3 281.2,334.6 282.2,323.8 283.3,334.0 284.3,295.8 285.4,298.7 286.4,327.1 287.5,331.1 288.5,330.7 289.6,332.3 290.6,334.6 291.7,334.7 292.7,334.1 293.8,324.8 294.8,315.1 295.9,308.6 296.9,305.4 297.9,298.7 299.0,306.5 300.0,305.4 301.1,331.7 302.1,305.5 303.2,317.0 304.2,333.4 305.3,335.0 306.3,334.1 307.4,335.0 308.4,334.9 309.5,333.7 310.5,335.0 311.6,319.7 312.6,319.7 313.7,334.1 314.7,333.8 315.7,333.4 316.8,334.7 317.8,334.6 318.9,331.3 319.9,305.4 321.0,308.2 322.0,308.3 323.1,298.7 324.1,310.2 325.2,335.5 326.2,336.2 327.3,312.5 328.3,334.5 329.4,336.2 330.4,335.9 331.5,336.2 332.5,335.0 333.5,333.8 334.6,334.3 335.6,334.4 336.7,333.5 337.7,334.6 338.8,334.4 339.8,329.6 340.9,308.9 341.9,334.1 343.0,308.2 344.0,334.4 345.1,310.7 346.1,310.3 347.2,325.1 348.2,305.5 349.2,319.7 350.3,344.0 351.3,315.6 352.4,334.2 353.4,308.2 354.5,309.9 355.5,330.0 356.6,334.1 357.6,335.0 358.7,333.2 359.7,323.8 360.8,333.8 361.8,308.2 362.9,306.1 363.9,323.8 365.0,315.6 366.0,333.4 367.0,332.6 368.1,303.2 369.1,334.1 370.2,334.7 371.2,326.5 372.3,333.8 373.3,320.8 374.4,333.7 375.4,333.7 376.5,334.1 377.5,330.7 378.6,331.8 379.6,333.7 380.7,334.6 381.7,333.8 382.8,333.0 383.8,310.6 384.8,334.7 385.9,330.7 386.9,345.9 388.0,333.8 389.0,334.7 390.1,333.7 391.1,334.7 392.2,334.7 393.2,310.6 394.3,315.4 395.3,332.0 396.4,310.5 397.4,331.7 398.5,305.3 399.5,330.5 400.5,326.9 401.6,302.2 402.6,309.7 403.7,335.9 404.7,333.4 405.8,334.9 406.8,334.4 407.9,306.5 408.9,306.5 410.0,318.3 411.0,320.1 412.1,323.6 413.1,331.8 414.2,310.6 415.2,305.4 416.3,308.2 417.3,331.8 418.3,305.2 419.4,330.5 420.4,334.1 421.5,326.7 422.5,330.7 423.6,305.4 424.6,308.2 425.7,333.8 426.7,334.1 427.8,335.0 428.8,340.8 429.9,336.2 430.9,336.1 432.0,335.0 433.0,336.2 434.1,335.8 435.1,333.8 436.1,334.4 437.2,335.0 438.2,334.8 439.3,334.9 440.3,334.6 441.4,331.8 442.4,334.5 443.5,335.0 444.5,329.1 445.6,330.7 446.6,325.8 447.7,325.3 448.7,308.2 449.8,333.5 450.8,308.4 451.8,310.3 452.9,330.5 453.9,319.6 455.0,308.3 456.0,334.6 457.1,318.7 458.1,335.8 459.2,335.0 460.2,297.6 461.3,305.3 462.3,325.3 463.4,325.7 464.4,318.9 465.5,310.3 466.5,334.9 467.6,321.4 468.6,334.2 469.6,331.5 470.7,329.7 471.7,309.6 472.8,308.4 473.8,298.7 474.9,302.7 475.9,305.5 477.0,309.0 478.0,331.8 479.1,334.0 480.1,329.6 481.2,334.7 482.2,333.8 483.3,335.0 484.3,334.0 485.4,334.0 486.4,325.3 487.4,334.9 488.5,334.5 489.5,334.6 490.6,334.7 491.6,334.7 492.7,334.7 493.7,334.6 494.8,334.1 495.8,326.9 496.9,326.6 497.9,305.4 499.0,343.0 500.0,335.3 501.1,344.0 502.1,335.0 503.1,329.1 504.2,301.0 505.2,334.2 506.3,334.1 507.3,315.6 508.4,335.0 509.4,334.1 510.5,334.6 511.5,333.6 512.6,330.5 513.6,330.4 514.7,333.8 515.7,335.0 516.8,335.0 517.8,333.2 518.9,334.4 519.9,310.5 520.9,332.0 522.0,310.1 523.0,332.7 524.1,305.4 525.1,309.8 526.2,310.6 527.2,330.0 528.3,333.8 529.3,332.4 530.4,335.3 531.4,318.3 532.5,334.7 533.5,336.2 534.6,331.4 535.6,325.8 536.6,334.6 537.7,331.3 538.7,331.8 539.8,334.7 540.8,334.5 541.9,333.8 542.9,330.7 544.0,334.9 545.0,334.8 546.1,331.8 547.1,333.2 548.2,310.7 549.2,330.5 550.3,308.2 551.3,308.4 552.4,305.4 553.4,330.4 554.4,326.9 555.5,330.4 556.5,334.9 557.6,331.5 558.6,335.0 559.7,334.6 560.7,334.1 561.8,334.9 562.8,334.7 563.9,335.0 564.9,333.8 566.0,335.0 567.0,333.3 568.1,334.6 569.1,335.0 570.2,332.7 571.2,283.6 572.2,333.8 573.3,335.0 574.3,319.3 575.4,331.1 576.4,329.7 577.5,331.8 578.5,334.1 579.6,334.6 580.6,334.9 581.7,334.7 582.7,334.6 583.8,334.8 584.8,335.0 585.9,334.9 586.9,335.0 587.9,334.9 589.0,334.7 590.0,334.9 591.1,335.0 592.1,334.7 593.2,334.1 594.2,335.7 595.3,334.1 596.3,334.4 597.4,305.3 598.4,319.6 599.5,309.3 600.5,300.7 601.6,310.4 602.6,330.5 603.7,310.6 604.7,330.5 605.7,333.0 606.8,334.7 607.8,333.8 608.9,334.1 609.9,330.9 611.0,334.7 612.0,334.9 613.1,334.9 614.1,305.4 615.2,334.4 616.2,331.0 617.3,335.0 618.3,333.8 619.4,335.0 620.4,333.8 621.5,334.9 622.5,310.6 623.5,334.3 624.6,306.4 625.6,308.4 626.7,333.8 627.7,330.9 628.8,334.1 629.8,329.7 630.9,334.3 631.9,305.3 633.0,330.7 634.0,328.8 635.1,333.8 636.1,295.8 637.2,334.6 638.2,310.6 639.2,310.6 640.3,333.8 641.3,318.4 642.4,318.5 643.4,334.2 644.5,334.9 645.5,334.1 646.6,334.1 647.6,330.4 648.7,308.2 649.7,308.2 650.8,310.2 651.8,333.8 652.9,310.6 653.9,310.4 655.0,327.3 656.0,332.0 657.0,335.0 658.1,334.6 659.1,334.0 660.2,334.6 661.2,334.5 662.3,330.7 663.3,333.5 664.4,331.5 665.4,334.6 666.5,334.1 667.5,333.8 668.6,330.7 669.6,334.7 670.7,334.9 671.7,332.0 672.8,307.0 673.8,326.1 674.8,305.4 675.9,306.4 676.9,309.0 678.0,306.4 679.0,334.6 680.1,327.0 681.1,333.8 682.2,333.2 683.2,334.1 684.3,335.0 685.3,334.6 686.4,333.9 687.4,333.8 688.5,334.7 689.5,330.7 690.5,331.8 691.6,334.9 692.6,334.1 693.7,334.6 694.7,334.9 695.8,327.5 696.8,335.0 697.9,333.6 698.9,319.7 700.0,302.9 701.0,310.1 702.1,327.5 703.1,326.8 704.2,323.6 705.2,298.7 706.3,310.6 707.3,331.1 708.3,330.7 709.4,334.6 710.4,324.6 711.5,323.8 712.5,330.4 713.6,333.8 714.6,330.7 715.7,334.6 716.7,323.9 717.8,333.2 718.8,334.1 719.9,325.7 720.9,309.1 722.0,315.6 723.0,333.8 724.1,308.5 725.1,306.5 726.1,308.2 727.2,310.2 728.2,312.5 729.3,331.0 730.3,331.9 731.4,317.9 732.4,334.6 733.5,335.0 734.5,335.0 735.6,335.0 736.6,334.6 737.7,333.8 738.7,334.9 739.8,330.4 740.8,334.3 741.8,334.6 742.9,334.2 743.9,333.8 745.0,335.0 746.0,330.7 747.1,333.8 748.1,315.5 749.2,330.7 750.2,305.4 751.3,324.4 752.3,306.5 753.4,331.8 754.4,308.9 755.5,333.8 756.5,333.8 757.6,331.2 758.6,310.7 759.6,333.8 760.7,330.0 761.7,327.2 762.8,323.8 763.8,330.0 764.9,305.0 765.9,312.5 767.0,333.8 768.0,332.0 769.1,329.7 770.1,333.8 771.2,322.8 772.2,308.3 773.3,310.4 774.3,305.2 775.4,305.4 776.4,308.2 777.4,310.7 778.5,310.1 779.5,319.6 780.6,325.7 781.6,330.8 782.7,330.9 783.7,305.4 784.8,305.2 785.8,333.8 786.9,331.0 787.9,305.4 789.0,334.7 790.0,308.3 791.1,334.1 792.1,334.7 793.1,332.8 794.2,332.9 795.2,308.2 796.3,335.0 797.3,330.4 798.4,310.4 799.4,330.0 800.5,326.8 801.5,305.9 802.6,306.4 803.6,323.8 804.7,296.7 805.7,334.1 806.8,335.0 807.8,335.0 808.9,331.5 809.9,334.7 810.9,335.0 812.0,304.3 813.0,308.2 814.1,335.0 815.1,331.8 816.2,334.5 817.2,331.2 818.3,334.7 819.3,331.8 820.4,321.5 821.4,334.9 822.5,331.9 823.5,310.4 824.6,308.3 825.6,305.4 826.6,305.9 827.7,305.7 828.7,324.6 829.8,330.7 830.8,334.5 831.9,331.6 832.9,335.0 834.0,335.0 835.0,335.0 836.1,322.4 837.1,334.9 838.2,331.1 839.2,335.0 840.3,344.0 841.3,344.0 842.4,344.0 843.4,334.6 844.4,335.0 845.5,335.0 846.5,334.4 847.6,311.6 848.6,308.9 849.7,308.2 850.7,308.1 851.8,330.4 852.8,308.6 853.9,337.4 854.9,335.0 856.0,335.0 857.0,335.0 858.1,331.8 859.1,332.0 860.2,334.1 861.2,330.5 862.2,334.6 863.3,335.0 864.3,334.9 865.4,312.5 866.4,333.8 867.5,332.0 868.5,333.8 869.6,331.7 870.6,331.0 871.7,310.7 872.7,308.6 873.8,314.0 874.8,327.1 875.9,304.8 876.9,340.8 877.9,341.6 879.0,335.0 880.0,334.6 881.1,334.6 882.1,324.6 883.2,317.8 884.2,346.0 885.3,334.6 886.3,334.9 887.4,317.9 888.4,344.0 889.5,334.0 890.5,321.8 891.6,332.8 892.6,325.5 893.7,333.8 894.7,313.7 895.7,334.6 896.8,328.5 897.8,331.2 898.9,305.4 899.9,331.0 901.0,310.0 902.0,331.4 903.1,330.2 904.1,290.8 905.2,335.0 906.2,347.8 907.3,350.1 908.3,349.5 909.4,346.1 910.4,349.4 911.5,341.0 912.5,346.4 913.5,349.3 914.6,344.7 915.6,345.1 916.7,349.2 917.7,349.4 918.8,343.5 919.8,350.0 920.9,350.1 921.9,347.6 923.0,344.9 924.0,349.2 925.1,345.2 926.1,344.1 927.2,344.7 928.2,345.7 929.2,346.1 930.3,345.7 931.3,349.5 932.4,345.1 933.4,349.4 934.5,348.7 935.5,346.1 936.6,345.8 937.6,351.6 938.7,348.3 939.7,345.7 940.8,349.9 941.8,344.7 942.9,346.4 943.9,345.2 945.0,343.4 946.0,345.8" fill="none" stroke="#059669" stroke-width="2.2" stroke-linejoin="round" stroke-linecap="round"/>
<polyline points="76.0,208.9 77.0,216.7 78.1,223.4 79.1,228.3 80.2,236.4 81.2,228.3 82.3,223.3 83.3,216.9 84.4,223.4 85.4,223.3 86.5,199.8 87.5,223.4 88.6,224.6 89.6,223.3 90.7,226.2 91.7,227.6 92.8,211.5 93.8,216.7 94.8,236.0 95.9,216.6 96.9,215.8 98.0,199.8 99.0,220.3 100.1,223.2 101.1,223.4 102.2,220.5 103.2,223.3 104.3,213.2 105.3,216.6 106.4,200.1 107.4,199.8 108.5,160.5 109.5,170.2 110.5,170.2 111.6,209.6 112.6,215.8 113.7,209.6 114.7,208.2 115.8,233.3 116.8,241.0 117.9,230.2 118.9,223.3 120.0,223.8 121.0,223.4 122.1,227.6 123.1,220.4 124.2,213.7 125.2,221.6 126.3,214.1 127.3,236.4 128.3,233.9 129.4,228.8 130.4,229.4 131.5,230.2 132.5,223.4 133.6,223.4 134.6,224.4 135.7,227.8 136.7,231.4 137.8,223.4 138.8,236.4 139.9,240.4 140.9,233.6 142.0,244.6 143.0,239.4 144.1,240.4 145.1,238.9 146.1,236.3 147.2,251.7 148.2,206.3 149.3,236.6 150.3,237.6 151.4,234.6 152.4,248.7 153.5,242.6 154.5,246.3 155.6,241.1 156.6,232.3 157.7,233.3 158.7,228.3 159.8,223.5 160.8,229.7 161.8,233.3 162.9,246.2 163.9,238.6 165.0,241.0 166.0,231.4 167.1,230.1 168.1,230.4 169.2,216.6 170.2,239.0 171.3,223.4 172.3,231.9 173.4,231.4 174.4,242.9 175.5,248.9 176.5,223.4 177.6,227.9 178.6,242.4 179.6,237.1 180.7,229.7 181.7,234.8 182.8,236.4 183.8,233.2 184.9,223.4 185.9,223.4 187.0,230.1 188.0,233.2 189.1,241.8 190.1,237.6 191.2,246.3 192.2,230.4 193.3,230.5 194.3,237.1 195.4,236.4 196.4,236.6 197.4,241.3 198.5,240.4 199.5,240.4 200.6,233.2 201.6,200.3 202.7,223.3 203.7,223.4 204.8,216.6 205.8,229.6 206.9,233.3 207.9,231.4 209.0,233.3 210.0,230.8 211.1,236.3 212.1,236.3 213.1,233.3 214.2,230.2 215.2,238.7 216.3,238.8 217.3,237.6 218.4,228.0 219.4,226.9 220.5,237.0 221.5,226.6 222.6,232.3 223.6,231.4 224.7,207.0 225.7,223.4 226.8,223.3 227.8,223.3 228.9,225.0 229.9,223.4 230.9,236.4 232.0,236.4 233.0,231.9 234.1,230.2 235.1,235.6 236.2,236.3 237.2,236.7 238.3,251.5 239.3,233.3 240.4,233.3 241.4,241.1 242.5,241.0 243.5,233.3 244.6,232.1 245.6,225.6 246.6,223.4 247.7,241.1 248.7,223.4 249.8,199.8 250.8,231.6 251.9,233.2 252.9,223.4 254.0,228.7 255.0,233.2 256.1,236.4 257.1,233.2 258.2,232.7 259.2,233.7 260.3,223.4 261.3,238.3 262.4,233.9 263.4,223.4 264.4,232.6 265.5,238.6 266.5,240.5 267.6,247.9 268.6,224.1 269.7,223.3 270.7,224.5 271.8,234.8 272.8,247.0 273.9,227.7 274.9,223.2 276.0,223.4 277.0,225.2 278.1,222.7 279.1,229.5 280.2,223.4 281.2,228.1 282.2,212.0 283.3,223.2 284.3,160.5 285.4,171.2 286.4,200.0 287.5,210.4 288.5,201.6 289.6,223.4 290.6,232.3 291.7,227.9 292.7,226.7 293.8,216.8 294.8,216.6 295.9,223.4 296.9,200.0 297.9,227.0 299.0,199.8 300.0,199.8 301.1,223.4 302.1,210.4 303.2,217.0 304.2,224.4 305.3,223.4 306.3,224.5 307.4,224.1 308.4,226.6 309.5,223.4 310.5,233.2 311.6,208.9 312.6,221.6 313.7,233.3 314.7,232.1 315.7,223.3 316.8,228.3 317.8,230.2 318.9,223.4 319.9,202.6 321.0,220.4 322.0,223.2 323.1,257.5 324.1,219.7 325.2,214.4 326.2,240.0 327.3,215.3 328.3,228.3 329.4,233.5 330.4,241.1 331.5,240.7 332.5,233.2 333.5,233.2 334.6,227.4 335.6,223.4 336.7,240.4 337.7,231.6 338.8,230.9 339.8,218.4 340.9,210.8 341.9,228.0 343.0,182.3 344.0,231.0 345.1,214.8 346.1,222.1 347.2,223.4 348.2,227.6 349.2,214.7 350.3,240.7 351.3,215.1 352.4,221.5 353.4,199.7 354.5,197.1 355.5,195.3 356.6,216.6 357.6,210.6 358.7,223.4 359.7,170.2 360.8,220.5 361.8,205.1 362.9,205.7 363.9,199.8 365.0,221.7 366.0,228.0 367.0,223.4 368.1,168.9 369.1,223.3 370.2,231.5 371.2,223.2 372.3,223.4 373.3,176.3 374.4,200.3 375.4,226.2 376.5,231.6 377.5,223.4 378.6,209.8 379.6,233.3 380.7,232.6 381.7,224.4 382.8,223.4 383.8,220.4 384.8,230.2 385.9,223.3 386.9,251.8 388.0,231.2 389.0,231.4 390.1,230.2 391.1,233.1 392.2,233.1 393.2,224.5 394.3,223.2 395.3,223.3 396.4,223.3 397.4,223.3 398.5,214.8 399.5,223.4 400.5,214.7 401.6,213.3 402.6,223.3 403.7,233.1 404.7,214.9 405.8,223.3 406.8,219.0 407.9,209.6 408.9,200.3 410.0,215.1 411.0,223.3 412.1,215.1 413.1,232.5 414.2,223.3 415.2,205.7 416.3,207.1 417.3,223.3 418.3,223.4 419.4,223.3 420.4,233.2 421.5,223.4 422.5,234.8 423.6,223.2 424.6,223.0 425.7,223.4 426.7,223.9 427.8,231.2 428.8,248.1 429.9,233.3 430.9,235.7 432.0,239.4 433.0,233.2 434.1,229.7 435.1,215.5 436.1,231.7 437.2,233.2 438.2,233.2 439.3,233.1 440.3,228.3 441.4,225.3 442.4,231.2 443.5,240.6 444.5,220.4 445.6,223.3 446.6,223.4 447.7,228.4 448.7,226.3 449.8,226.6 450.8,210.1 451.8,213.3 452.9,220.4 453.9,226.5 455.0,213.9 456.0,223.3 457.1,215.7 458.1,224.2 459.2,233.2 460.2,170.2 461.3,199.8 462.3,223.3 463.4,200.5 464.4,212.4 465.5,214.7 466.5,233.1 467.6,221.6 468.6,228.3 469.6,223.3 470.7,215.7 471.7,212.4 472.8,200.0 473.8,192.4 474.9,194.7 475.9,208.9 477.0,200.0 478.0,215.1 479.1,228.0 480.1,213.3 481.2,233.3 482.2,223.1 483.3,222.6 484.3,223.4 485.4,219.0 486.4,223.2 487.4,240.4 488.5,226.2 489.5,231.5 490.6,233.2 491.6,226.7 492.7,233.2 493.7,236.3 494.8,240.4 495.8,223.5 496.9,224.2 497.9,223.4 499.0,233.2 500.0,227.8 501.1,223.4 502.1,231.7 503.1,226.6 504.2,92.4 505.2,215.1 506.3,223.3 507.3,213.8 508.4,231.5 509.4,230.2 510.5,223.4 511.5,223.4 512.6,223.3 513.6,220.4 514.7,223.2 515.7,233.2 516.8,238.4 517.8,233.2 518.9,231.7 519.9,213.9 520.9,223.4 522.0,223.3 523.0,238.0 524.1,232.3 525.1,217.1 526.2,212.6 527.2,230.2 528.3,226.8 529.3,230.5 530.4,233.4 531.4,200.3 532.5,233.3 533.5,233.3 534.6,216.7 535.6,220.5 536.6,228.0 537.7,220.3 538.7,219.8 539.8,226.9 540.8,231.9 541.9,233.0 542.9,223.3 544.0,237.7 545.0,240.3 546.1,225.0 547.1,236.6 548.2,223.3 549.2,227.9 550.3,211.9 551.3,214.8 552.4,214.8 553.4,223.3 554.4,223.3 555.5,217.0 556.5,234.2 557.6,224.1 558.6,231.5 559.7,223.4 560.7,223.4 561.8,236.6 562.8,216.9 563.9,233.6 564.9,224.5 566.0,236.6 567.0,223.3 568.1,231.8 569.1,231.4 570.2,223.3 571.2,168.8 572.2,223.3 573.3,224.5 574.3,224.6 575.4,226.7 576.4,223.4 577.5,223.3 578.5,239.7 579.6,223.4 580.6,230.2 581.7,223.4 582.7,228.4 583.8,226.6 584.8,238.6 585.9,232.1 586.9,236.6 587.9,236.3 589.0,232.3 590.0,236.4 591.1,233.6 592.1,240.4 593.2,223.4 594.2,241.1 595.3,212.7 596.3,225.1 597.4,205.7 598.4,213.8 599.5,223.4 600.5,201.9 601.6,223.3 602.6,223.1 603.7,223.4 604.7,231.5 605.7,223.4 606.8,236.3 607.8,223.4 608.9,226.9 609.9,222.4 611.0,223.4 612.0,234.7 613.1,235.8 614.1,200.3 615.2,230.5 616.2,230.2 617.3,235.3 618.3,230.2 619.4,232.1 620.4,216.6 621.5,232.6 622.5,212.7 623.5,230.1 624.6,222.9 625.6,219.7 626.7,225.0 627.7,223.4 628.8,223.4 629.8,219.7 630.9,229.3 631.9,196.0 633.0,220.2 634.0,212.0 635.1,231.5 636.1,170.2 637.2,230.2 638.2,199.8 639.2,220.0 640.3,216.7 641.3,210.0 642.4,215.8 643.4,239.5 644.5,231.5 645.5,223.3 646.6,227.9 647.6,223.3 648.7,209.9 649.7,223.4 650.8,207.1 651.8,223.3 652.9,200.0 653.9,199.8 655.0,201.8 656.0,223.4 657.0,235.0 658.1,223.4 659.1,216.6 660.2,230.6 661.2,231.6 662.3,219.9 663.3,223.3 664.4,214.8 665.4,231.3 666.5,230.2 667.5,231.4 668.6,236.4 669.6,240.4 670.7,229.4 671.7,228.0 672.8,218.7 673.8,227.7 674.8,227.9 675.9,204.0 676.9,220.5 678.0,215.5 679.0,226.7 680.1,224.4 681.1,225.1 682.2,232.1 683.2,231.5 684.3,223.4 685.3,229.2 686.4,236.3 687.4,223.7 688.5,237.1 689.5,225.0 690.5,231.4 691.6,236.4 692.6,236.3 693.7,233.4 694.7,237.6 695.8,212.1 696.8,228.0 697.9,233.2 698.9,222.8 700.0,223.2 701.0,222.2 702.1,222.3 703.1,215.1 704.2,223.4 705.2,172.5 706.3,210.3 707.3,223.3 708.3,214.0 709.4,217.9 710.4,231.6 711.5,215.8 712.5,214.9 713.6,232.2 714.6,222.0 715.7,227.8 716.7,223.3 717.8,223.3 718.8,230.1 719.9,220.4 720.9,211.4 722.0,208.2 723.0,232.6 724.1,223.1 725.1,224.4 726.1,218.9 727.2,223.2 728.2,211.8 729.3,228.8 730.3,223.6 731.4,223.3 732.4,233.2 733.5,229.9 734.5,223.3 735.6,236.3 736.6,223.7 737.7,223.4 738.7,236.8 739.8,214.9 740.8,230.2 741.8,227.6 742.9,234.1 743.9,223.7 745.0,225.3 746.0,222.3 747.1,223.4 748.1,224.5 749.2,223.4 750.2,218.4 751.3,208.6 752.3,195.0 753.4,224.5 754.4,212.1 755.5,229.2 756.5,223.3 757.6,223.4 758.6,199.9 759.6,208.3 760.7,223.4 761.7,217.7 762.8,220.4 763.8,223.4 764.9,189.0 765.9,215.4 767.0,223.4 768.0,230.2 769.1,224.4 770.1,233.2 771.2,219.1 772.2,216.6 773.3,233.2 774.3,198.6 775.4,223.3 776.4,223.6 777.4,216.6 778.5,223.3 779.5,223.4 780.6,223.4 781.6,221.2 782.7,215.8 783.7,200.2 784.8,183.2 785.8,223.4 786.9,223.7 787.9,200.5 789.0,227.0 790.0,226.5 791.1,241.1 792.1,239.9 793.1,237.3 794.2,236.6 795.2,192.0 796.3,244.7 797.3,208.6 798.4,233.3 799.4,241.0 800.5,240.2 801.5,223.5 802.6,174.1 803.6,223.3 804.7,194.8 805.7,229.1 806.8,236.2 807.8,241.0 808.9,220.4 809.9,228.2 810.9,256.0 812.0,170.2 813.0,200.3 814.1,256.2 815.1,223.4 816.2,226.2 817.2,223.3 818.3,236.7 819.3,223.3 820.4,230.2 821.4,216.6 822.5,181.2 823.5,223.4 824.6,204.6 825.6,210.1 826.6,208.6 827.7,200.0 828.7,223.8 829.8,227.4 830.8,243.2 831.9,213.2 832.9,240.6 834.0,224.6 835.0,231.9 836.1,230.1 837.1,241.0 838.2,229.3 839.2,237.6 840.3,247.8 841.3,245.3 842.4,252.0 843.4,236.3 844.4,238.6 845.5,240.9 846.5,199.5 847.6,194.9 848.6,224.5 849.7,218.0 850.7,223.5 851.8,216.6 852.8,216.7 853.9,233.2 854.9,236.3 856.0,237.1 857.0,245.8 858.1,238.2 859.1,237.1 860.2,230.8 861.2,207.1 862.2,236.3 863.3,233.2 864.3,240.9 865.4,213.1 866.4,223.4 867.5,236.4 868.5,227.7 869.6,224.6 870.6,230.2 871.7,214.8 872.7,222.2 873.8,216.8 874.8,223.3 875.9,229.9 876.9,224.9 877.9,227.8 879.0,257.6 880.0,230.2 881.1,236.7 882.1,235.8 883.2,223.4 884.2,231.8 885.3,223.4 886.3,223.3 887.4,211.7 888.4,242.1 889.5,225.6 890.5,200.2 891.6,220.4 892.6,223.3 893.7,223.4 894.7,214.7 895.7,233.5 896.8,223.3 897.8,238.6 898.9,223.3 899.9,241.1 901.0,240.4 902.0,223.4 903.1,225.0 904.1,198.4 905.2,237.3 906.2,299.1 907.3,332.3 908.3,333.7 909.4,330.9 910.4,331.5 911.5,256.7 912.5,327.6 913.5,327.7 914.6,331.7 915.6,333.7 916.7,332.3 917.7,331.6 918.8,322.4 919.8,331.5 920.9,332.9 921.9,331.0 923.0,328.4 924.0,333.2 925.1,329.7 926.1,329.7 927.2,329.6 928.2,330.4 929.2,331.5 930.3,327.6 931.3,331.5 932.4,329.1 933.4,327.7 934.5,330.3 935.5,328.4 936.6,331.3 937.6,335.3 938.7,331.5 939.7,330.0 940.8,331.5 941.8,330.0 942.9,331.6 943.9,327.6 945.0,329.0 946.0,329.1" fill="none" stroke="#d97706" stroke-width="2.2" stroke-linejoin="round" stroke-linecap="round"/>
<line x1="76" y1="70" x2="94" y2="70" stroke="#2563eb" stroke-width="3"/>
<text x="100" y="74" font-family="Arial, sans-serif" font-size="11" fill="#0f172a">avg fee</text>
<line x1="179" y1="70" x2="197" y2="70" stroke="#059669" stroke-width="3"/>
<text x="203" y="74" font-family="Arial, sans-serif" font-size="11" fill="#0f172a">median fee</text>
<line x1="303" y1="70" x2="321" y2="70" stroke="#d97706" stroke-width="3"/>
<text x="327" y="74" font-family="Arial, sans-serif" font-size="11" fill="#0f172a">p90 fee</text>
<text x="28" y="404" font-family="Arial, sans-serif" font-size="11" fill="#64748b">Source: hourly_features.csv</text>
</svg>