<svg xmlns="http://www.w3.org/2000/svg" width="980" height="420" viewBox="0 0 980 420">
<rect width="100%" height="100%" fill="#ffffff"/>
<text x="28" y="34" font-family="Arial, sans-serif" font-size="20" font-weight="700" fill="#0f172a">Hourly fee trend</text>
<text x="28" y="56" font-family="Arial, sans-serif" font-size="12" fill="#64748b">Average, median, and p90 total fee by hour</text>
<line x1="76" y1="362.0" x2="946" y2="362.0" stroke="#e2e8f0" stroke-width="1"/>
<text x="68" y="366.0" font-family="Arial, sans-serif" font-size="10" text-anchor="end" fill="#64748b">-446K</text>
<line x1="76" y1="292.0" x2="946" y2="292.0" stroke="#e2e8f0" stroke-width="1"/>
<text x="68" y="296.0" font-family="Arial, sans-serif" font-size="10" text-anchor="end" fill="#64748b">2.6M</text>
<line x1="76" y1="222.0" x2="946" y2="222.0" stroke="#e2e8f0" stroke-width="1"/>
<text x="68" y="226.0" font-family="Arial, sans-serif" font-size="10" text-anchor="end" fill="#64748b">5.6M</text>
<line x1="76" y1="152.0" x2="946" y2="152.0" stroke="#e2e8f0" stroke-width="1"/>
<text x="68" y="156.0" font-family="Arial, sans-serif" font-size="10" text-anchor="end" fill="#64748b">8.7M</text>
<line x1="76" y1="82.0" x2="946" y2="82.0" stroke="#e2e8f0" stroke-width="1"/>
<text x="68" y="86.0" font-family="Arial, sans-serif" font-size="10" text-anchor="end" fill="#64748b">11.7M</text>
<line x1="76" y1="362" x2="946" y2="362" stroke="#334155" stroke-width="1"/>
<line x1="76" y1="82" x2="76" y2="362" stroke="#334155" stroke-width="1"/>
<text x="76" y="72" font-family="Arial, sans-serif" font-size="11" fill="#64748b">nanoton</text>
<line x1="76.0" y1="362" x2="76.0" y2="366" stroke="#334155" stroke-width="1"/>
<text x="76.0" y="380" font-family="Arial, sans-serif" font-size="10" text-anchor="middle" fill="#64748b">0</text>
<line x1="511.3" y1="362" x2="511.3" y2="366" stroke="#334155" stroke-width="1"/>
<text x="511.3" y="380" font-family="Arial, sans-serif" font-size="10" text-anchor="middle" fill="#64748b">756</text>
<line x1="946.0" y1="362" x2="946.0" y2="366" stroke="#334155" stroke-width="1"/>
<text x="946.0" y="380" font-family="Arial, sans-serif" font-size="10" text-anchor="middle" fill="#64748b">1511</text>
<polyline points="76.0,289.7 76.6,293.5 77.2,294.8 77.7,297.0 78.3,303.7 78.9,296.0 79.5,297.1 80.0,293.5 80.6,297.8 81.2,297.6 81.8,286.7 82.3,298.4 82.9,298.5 83.5,296.2 84.1,299.1 84.6,299.3 85.2,291.4 85.8,291.4 86.4,300.1 86.9,290.0 87.5,288.1 88.1,286.3 88.7,292.7 89.2,293.1 89.8,295.0 90.4,291.0 91.0,296.6 91.5,289.5 92.1,292.1 92.7,287.3 93.3,287.9 93.8,272.1 94.4,283.6 95.0,284.2 95.6,293.5 96.2,298.8 96.7,291.8 97.3,293.8 97.9,303.5 98.5,306.3 99.0,301.0 99.6,295.8 100.2,297.5 100.8,296.8 101.3,303.2 101.9,296.3 102.5,293.4 103.1,295.4 103.6,297.5 104.2,301.9 104.8,301.9 105.4,300.8 105.9,299.2 106.5,302.1 107.1,301.0 107.7,298.3 108.2,298.0 108.8,301.7 109.4,298.0 110.0,300.2 110.5,305.6 111.1,307.5 111.7,305.2 112.3,305.9 112.8,307.9 113.4,304.7 114.0,304.3 114.6,300.9 115.2,307.3 115.7,289.6 116.3,305.2 116.9,305.2 117.5,305.1 118.0,310.0 118.6,305.9 119.2,309.1 119.8,307.9 120.3,304.3 120.9,304.3 121.5,302.1 122.1,302.3 122.6,300.2 123.2,303.9 123.8,306.2 124.4,305.7 124.9,306.9 125.5,303.9 126.1,301.8 126.7,301.6 127.2,297.4 127.8,303.7 128.4,295.9 129.0,298.1 129.5,299.2 130.1,302.8 130.7,310.4 131.3,299.0 131.9,299.3 132.4,307.7 133.0,306.3 133.6,299.1 134.2,303.1 134.7,303.9 135.3,301.4 135.9,299.3 136.5,296.3 137.0,297.5 137.6,300.8 138.2,306.9 138.8,306.2 139.3,306.2 139.9,301.9 140.5,300.7 141.1,303.0 141.6,302.8 142.2,302.8 142.8,307.1 143.4,307.7 143.9,306.1 144.5,299.9 145.1,285.8 145.7,300.5 146.2,297.6 146.8,294.9 147.4,298.4 148.0,304.3 148.5,300.3 149.1,303.8 149.7,301.0 150.3,303.7 150.9,305.6 151.4,303.7 152.0,299.6 152.6,303.6 153.2,306.8 153.7,301.3 154.3,300.6 154.9,302.0 155.5,302.2 156.0,297.8 156.6,297.3 157.2,296.9 157.8,288.3 158.3,295.7 158.9,295.3 159.5,294.4 160.1,298.5 160.6,297.9 161.2,303.5 161.8,302.8 162.4,302.6 162.9,298.0 163.5,300.0 164.1,304.5 164.7,303.3 165.2,310.9 165.8,304.5 166.4,303.1 167.0,305.8 167.5,305.7 168.1,300.8 168.7,302.6 169.3,299.6 169.9,300.5 170.4,299.1 171.0,297.6 171.6,289.5 172.2,294.9 172.7,299.4 173.3,295.4 173.9,301.5 174.5,301.4 175.0,301.8 175.6,301.5 176.2,301.6 176.8,302.6 177.3,299.0 177.9,304.4 178.5,301.8 179.1,298.1 179.6,301.7 180.2,305.5 180.8,304.9 181.4,305.5 181.9,297.3 182.5,300.4 183.1,296.7 183.7,302.6 184.2,299.1 184.8,298.3 185.4,294.5 186.0,297.0 186.5,297.2 187.1,292.6 187.7,298.8 188.3,296.8 188.9,297.5 189.4,293.0 190.0,296.7 190.6,276.9 191.2,283.2 191.7,294.1 192.3,294.6 192.9,293.3 193.5,299.6 194.0,303.1 194.6,301.2 195.2,301.0 195.8,296.8 196.3,294.2 196.9,295.4 197.5,290.3 198.1,290.9 198.6,289.5 199.2,288.9 199.8,298.5 200.4,290.8 200.9,295.6 201.5,298.6 202.1,302.6 202.7,301.3 203.2,300.9 203.8,301.1 204.4,299.7 205.0,302.4 205.5,294.7 206.1,296.6 206.7,303.3 207.3,303.1 207.9,298.4 208.4,302.7 209.0,302.3 209.6,297.8 210.2,287.6 210.7,292.6 211.3,293.1 211.9,302.5 212.5,294.5 213.0,295.8 213.6,304.4 214.2,293.7 214.8,299.3 215.3,303.9 215.9,307.3 216.5,304.3 217.1,302.8 217.6,299.5 218.2,302.6 218.8,298.1 219.4,301.9 219.9,303.8 220.5,301.9 221.1,298.2 221.7,293.3 222.2,298.8 222.8,285.2 223.4,300.9 224.0,292.8 224.6,296.8 225.1,298.3 225.7,296.3 226.3,293.3 226.9,309.2 227.4,290.5 228.0,294.5 228.6,280.6 229.2,293.5 229.7,292.1 230.3,293.9 230.9,289.9 231.5,299.9 232.0,278.8 232.6,296.1 233.2,290.7 233.8,290.4 234.3,282.2 234.9,297.2 235.5,299.2 236.1,297.5 236.6,287.3 237.2,297.9 237.8,303.2 238.4,296.6 238.9,294.4 239.5,278.8 240.1,283.1 240.7,299.4 241.2,298.7 241.8,297.0 242.4,292.3 243.0,301.9 243.6,301.8 244.1,297.5 244.7,295.6 245.3,296.2 245.9,300.2 246.4,297.0 247.0,310.2 247.6,298.3 248.2,302.3 248.7,300.0 249.3,301.8 249.9,303.1 250.5,296.7 251.0,293.3 251.6,298.1 252.2,294.0 252.8,300.6 253.3,291.5 253.9,296.5 254.5,292.8 255.1,288.9 255.6,294.0 256.2,303.4 256.8,290.0 257.4,299.2 257.9,294.8 258.5,292.0 259.1,290.5 259.7,295.7 260.2,296.0 260.8,296.7 261.4,298.4 262.0,291.7 262.6,285.2 263.1,289.0 263.7,298.8 264.3,293.4 264.9,299.7 265.4,301.8 266.0,298.0 266.6,301.4 267.2,294.0 267.7,295.9 268.3,301.6 268.9,300.5 269.5,301.8 270.0,307.5 270.6,305.6 271.2,304.9 271.8,305.3 272.3,303.1 272.9,303.3 273.5,297.2 274.1,300.0 274.6,301.9 275.2,302.2 275.8,303.0 276.4,301.2 276.9,298.2 277.5,303.3 278.1,305.9 278.7,296.2 279.2,297.8 279.8,296.9 280.4,298.5 281.0,296.7 281.6,299.9 282.1,286.2 282.7,293.2 283.3,293.6 283.9,297.5 284.4,290.2 285.0,297.2 285.6,293.5 286.2,297.6 286.7,303.1 287.3,281.1 287.9,288.7 288.5,297.7 289.0,294.0 289.6,292.2 290.2,293.6 290.8,303.2 291.3,295.7 291.9,300.5 292.5,295.6 293.1,294.4 293.6,291.8 294.2,290.5 294.8,285.6 295.4,286.7 295.9,293.1 296.5,291.5 297.1,296.3 297.7,301.9 298.3,295.7 298.8,303.0 299.4,297.5 300.0,296.7 300.6,298.2 301.1,296.0 301.7,295.5 302.3,304.3 302.9,300.7 303.4,303.3 304.0,301.8 304.6,302.2 305.2,301.5 305.7,303.3 306.3,300.6 306.9,298.9 307.5,296.2 308.0,293.9 308.6,303.9 309.2,301.5 309.8,302.6 310.3,301.6 310.9,297.3 311.5,256.1 312.1,289.9 312.6,297.4 313.2,295.2 313.8,299.8 314.4,300.5 314.9,298.7 315.5,298.2 316.1,298.5 316.7,294.9 317.3,298.3 317.8,304.4 318.4,305.3 319.0,299.7 319.6,301.5 320.1,293.9 320.7,301.0 321.3,295.8 321.9,303.7 322.4,297.9 323.0,294.5 323.6,294.0 324.2,299.7 324.7,299.8 325.3,299.5 325.9,303.3 326.5,291.5 327.0,302.4 327.6,304.9 328.2,294.4 328.8,296.3 329.3,301.7 329.9,294.7 330.5,298.3 331.1,302.8 331.6,300.5 332.2,302.6 332.8,299.6 333.4,305.0 333.9,304.4 334.5,299.6 335.1,302.0 335.7,295.9 336.3,299.0 336.8,291.2 337.4,290.9 338.0,291.0 338.6,298.1 339.1,297.3 339.7,297.7 340.3,300.4 340.9,298.5 341.4,304.1 342.0,299.1 342.6,299.4 343.2,303.5 343.7,298.0 344.3,303.2 344.9,298.5 345.5,305.2 346.0,298.0 346.6,303.3 347.2,302.1 347.8,296.9 348.3,262.7 348.9,301.8 349.5,303.4 350.1,300.1 350.6,299.6 351.2,297.2 351.8,298.8 352.4,301.5 352.9,297.5 353.5,302.8 354.1,301.6 354.7,301.9 355.3,300.0 355.8,307.1 356.4,303.3 357.0,307.8 357.6,303.4 358.1,302.5 358.7,303.7 359.3,302.4 359.9,304.1 360.4,298.4 361.0,304.0 361.6,296.0 362.2,301.0 362.7,287.0 363.3,293.5 363.9,298.6 364.5,286.3 365.0,297.9 365.6,297.3 366.2,295.7 366.8,300.0 367.3,298.3 367.9,301.4 368.5,298.1 369.1,301.8 369.6,296.9 370.2,300.5 370.8,304.1 371.4,303.3 371.9,289.3 372.5,302.0 373.1,298.5 373.7,301.2 374.3,302.0 374.8,303.5 375.4,295.1 376.0,300.5 376.6,291.8 377.1,297.1 377.7,293.7 378.3,292.4 378.9,298.2 379.4,296.3 380.0,299.3 380.6,294.5 381.2,300.4 381.7,281.6 382.3,296.2 382.9,290.1 383.5,299.6 384.0,280.3 384.6,302.5 385.2,291.0 385.8,295.4 386.3,299.8 386.9,292.8 387.5,294.2 388.1,304.1 388.6,303.5 389.2,299.2 389.8,300.8 390.4,296.4 391.0,293.8 391.5,295.5 392.1,291.6 392.7,297.5 393.3,290.0 393.8,288.8 394.4,291.6 395.0,301.4 395.6,302.3 396.1,300.5 396.7,296.4 397.3,301.9 397.9,301.4 398.4,298.2 399.0,298.8 399.6,294.6 400.2,299.5 400.7,301.3 401.3,301.1 401.9,299.6 402.5,304.2 403.0,303.9 403.6,299.9 404.2,293.1 404.8,299.8 405.3,297.8 405.9,289.3 406.5,294.8 407.1,293.0 407.6,300.2 408.2,297.0 408.8,298.0 409.4,301.4 410.0,299.8 410.5,298.0 411.1,301.5 411.7,302.4 412.3,298.4 412.8,303.2 413.4,297.0 414.0,301.5 414.6,303.7 415.1,302.1 415.7,302.6 416.3,304.6 416.9,293.5 417.4,305.5 418.0,302.5 418.6,294.0 419.2,293.0 419.7,292.5 420.3,294.8 420.9,294.8 421.5,297.0 422.0,283.6 422.6,293.8 423.2,297.4 423.8,295.2 424.3,293.1 424.9,299.5 425.5,293.2 426.1,294.8 426.6,302.6 427.2,294.7 427.8,301.4 428.4,296.5 429.0,298.9 429.5,299.6 430.1,297.2 430.7,293.7 431.3,294.7 431.8,301.9 432.4,294.4 433.0,294.9 433.6,294.0 434.1,294.2 434.7,293.9 435.3,298.8 435.9,297.8 436.4,294.7 437.0,302.1 437.6,301.8 438.2,297.1 438.7,304.4 439.3,299.7 439.9,299.3 440.5,304.0 441.0,294.7 441.6,300.7 442.2,302.0 442.8,303.4 443.3,298.0 443.9,299.8 444.5,296.8 445.1,297.6 445.6,296.1 446.2,299.7 446.8,294.8 447.4,291.9 448.0,283.1 448.5,297.6 449.1,292.8 449.7,297.8 450.3,297.7 450.8,296.8 451.4,289.9 452.0,291.2 452.6,297.1 453.1,296.4 453.7,296.4 454.3,297.4 454.9,287.1 455.4,295.4 456.0,296.2 456.6,300.6 457.2,299.8 457.7,304.2 458.3,294.6 458.9,294.0 459.5,298.7 460.0,288.5 460.6,295.6 461.2,294.0 461.8,294.0 462.3,293.7 462.9,296.3 463.5,298.4 464.1,294.7 464.6,295.9 465.2,290.6 465.8,284.0 466.4,298.6 467.0,299.9 467.5,298.2 468.1,301.6 468.7,293.0 469.3,303.1 469.8,295.1 470.4,294.4 471.0,298.9 471.6,288.2 472.1,300.5 472.7,297.3 473.3,294.4 473.9,297.4 474.4,297.0 475.0,289.3 475.6,291.9 476.2,289.8 476.7,276.8 477.3,296.3 477.9,299.8 478.5,298.9 479.0,285.8 479.6,297.5 480.2,301.0 480.8,282.3 481.3,288.9 481.9,305.9 482.5,292.1 483.1,297.7 483.7,300.6 484.2,297.8 484.8,297.6 485.4,296.7 486.0,295.3 486.5,288.6 487.1,287.0 487.7,287.8 488.3,293.8 488.8,284.9 489.4,289.9 490.0,292.8 490.6,296.4 491.1,294.8 491.7,280.0 492.3,301.8 492.9,301.9 493.4,296.4 494.0,296.2 494.6,298.7 495.2,297.9 495.7,298.2 496.3,299.6 496.9,302.9 497.5,303.2 498.0,304.0 498.6,300.8 499.2,295.5 499.8,289.5 500.3,291.0 500.9,292.0 501.5,293.1 502.1,293.0 502.7,291.5 503.2,292.8 503.8,292.7 504.4,298.1 505.0,299.2 505.5,295.6 506.1,295.5 506.7,297.0 507.3,292.8 507.8,294.2 508.4,295.6 509.0,292.8 509.6,293.2 510.1,295.3 510.7,297.4 511.3,299.5 511.9,300.4 512.4,292.4 513.0,298.1 513.6,297.0 514.2,295.5 514.7,298.8 515.3,295.6 515.9,298.0 516.5,296.6 517.0,302.0 517.6,298.1 518.2,300.6 518.8,299.5 519.3,296.8 519.9,296.6 520.5,299.1 521.1,298.5 521.7,297.4 522.2,291.6 522.8,298.6 523.4,297.8 524.0,297.2 524.5,297.6 525.1,294.3 525.7,294.8 526.3,292.6 526.8,304.3 527.4,299.7 528.0,300.0 528.6,296.7 529.1,300.7 529.7,301.0 530.3,299.4 530.9,300.2 531.4,303.5 532.0,301.3 532.6,339.2 533.2,342.6 533.7,342.3 534.3,342.4 534.9,342.2 535.5,342.2 536.0,342.4 536.6,341.5 537.2,342.2 537.8,342.1 538.3,342.0 538.9,342.6 539.5,343.1 540.1,343.0 540.7,342.3 541.2,341.9 541.8,341.1 542.4,341.7 543.0,341.4 543.5,340.8 544.1,340.9 544.7,341.3 545.3,341.5 545.8,340.0 546.4,340.7 547.0,340.9 547.6,336.9 548.1,340.6 548.7,341.7 549.3,341.6 549.9,341.2 550.4,341.5 551.0,341.5 551.6,341.5 552.2,342.4 552.7,341.6 553.3,341.6 553.9,340.6 554.5,340.6 555.0,339.3 555.6,339.9 556.2,340.5 556.8,340.7 557.4,340.4 557.9,340.9 558.5,339.4 559.1,340.3 559.7,340.9 560.2,341.0 560.8,340.7 561.4,341.2 562.0,341.1 562.5,341.0 563.1,340.3 563.7,340.9 564.3,341.4 564.8,340.8 565.4,340.7 566.0,342.2 566.6,340.9 567.1,341.0 567.7,340.7 568.3,340.3 568.9,340.0 569.4,339.9 570.0,340.4 570.6,340.9 571.2,341.1 571.7,340.9 572.3,340.6 572.9,340.6 573.5,340.9 574.0,341.4 574.6,339.6 575.2,339.5 575.8,338.7 576.4,339.3 576.9,337.7 577.5,337.3 578.1,338.0 578.7,338.3 579.2,337.5 579.8,338.1 580.4,337.7 581.0,338.7 581.5,337.8 582.1,337.6 582.7,337.7 583.3,337.3 583.8,337.0 584.4,335.7 585.0,335.9 585.6,336.7 586.1,337.1 586.7,337.9 587.3,336.5 587.9,337.4 588.4,335.7 589.0,336.5 589.6,336.4 590.2,337.5 590.7,336.9 591.3,337.0 591.9,336.5 592.5,336.7 593.0,337.5 593.6,338.7 594.2,339.0 594.8,338.2 595.4,337.0 595.9,333.7 596.5,336.9 597.1,337.2 597.7,336.6 598.2,338.1 598.8,337.4 599.4,338.8 600.0,337.8 600.5,337.1 601.1,337.7 601.7,338.5 602.3,338.3 602.8,338.3 603.4,337.6 604.0,338.3 604.6,336.6 605.1,338.7 605.7,337.8 606.3,338.2 606.9,338.1 607.4,338.6 608.0,338.7 608.6,338.1 609.2,337.4 609.7,337.8 610.3,336.8 610.9,337.1 611.5,338.4 612.0,337.5 612.6,337.8 613.2,337.0 613.8,338.1 614.4,336.8 614.9,337.9 615.5,338.5 616.1,335.9 616.7,338.2 617.2,338.1 617.8,338.2 618.4,339.0 619.0,338.2 619.5,339.1 620.1,338.2 620.7,337.1 621.3,338.4 621.8,339.2 622.4,338.1 623.0,337.3 623.6,336.7 624.1,338.3 624.7,338.3 625.3,338.4 625.9,338.7 626.4,338.0 627.0,338.5 627.6,338.6 628.2,338.9 628.7,338.6 629.3,339.0 629.9,339.1 630.5,338.4 631.0,338.9 631.6,339.0 632.2,337.1 632.8,338.3 633.4,336.8 633.9,338.7 634.5,337.8 635.1,339.0 635.7,338.5 636.2,339.4 636.8,339.3 637.4,338.4 638.0,338.7 638.5,338.5 639.1,338.6 639.7,336.5 640.3,336.6 640.8,338.1 641.4,339.0 642.0,339.1 642.6,339.8 643.1,339.1 643.7,337.2 644.3,338.8 644.9,340.1 645.4,339.6 646.0,340.1 646.6,339.4 647.2,339.9 647.7,338.5 648.3,340.3 648.9,340.0 649.5,339.9 650.1,335.9 650.6,339.6 651.2,338.3 651.8,338.4 652.4,339.3 652.9,338.0 653.5,338.8 654.1,338.3 654.7,339.0 655.2,339.5 655.8,339.3 656.4,339.3 657.0,338.5 657.5,347.3 658.1,339.8 658.7,341.1 659.3,339.7 659.8,340.3 660.4,337.8 661.0,339.2 661.6,338.3 662.1,338.8 662.7,339.2 663.3,338.8 663.9,339.8 664.4,338.9 665.0,337.6 665.6,338.4 666.2,338.0 666.7,338.9 667.3,340.0 667.9,339.5 668.5,336.5 669.1,336.2 669.6,338.6 670.2,340.3 670.8,337.7 671.4,338.3 671.9,337.5 672.5,336.4 673.1,338.1 673.7,339.1 674.2,338.0 674.8,338.4 675.4,338.7 676.0,340.2 676.5,340.8 677.1,340.6 677.7,336.5 678.3,339.5 678.8,339.6 679.4,339.7 680.0,339.1 680.6,339.6 681.1,339.6 681.7,339.5 682.3,338.3 682.9,339.9 683.4,340.3 684.0,340.5 684.6,340.7 685.2,338.7 685.7,340.1 686.3,340.7 686.9,340.6 687.5,339.3 688.1,338.9 688.6,339.8 689.2,337.8 689.8,341.2 690.4,340.3 690.9,340.0 691.5,338.7 692.1,340.6 692.7,340.2 693.2,338.8 693.8,339.4 694.4,339.6 695.0,340.5 695.5,338.9 696.1,339.2 696.7,340.8 697.3,340.8 697.8,340.3 698.4,341.1 699.0,340.8 699.6,340.5 700.1,340.0 700.7,340.1 701.3,338.9 701.9,338.9 702.4,341.8 703.0,340.5 703.6,341.8 704.2,341.8 704.7,341.3 705.3,339.2 705.9,341.1 706.5,340.1 707.1,340.3 707.6,340.3 708.2,340.5 708.8,339.8 709.4,341.5 709.9,340.7 710.5,340.5 711.1,340.7 711.7,341.4 712.2,341.3 712.8,338.6 713.4,340.7 714.0,340.9 714.5,341.4 715.1,338.1 715.7,339.3 716.3,340.4 716.8,340.5 717.4,339.8 718.0,341.7 718.6,340.3 719.1,341.4 719.7,339.9 720.3,337.7 720.9,338.4 721.4,338.9 722.0,340.4 722.6,341.1 723.2,341.4 723.7,339.4 724.3,340.5 724.9,340.8 725.5,338.2 726.1,340.7 726.6,341.4 727.2,341.5 727.8,342.0 728.4,341.9 728.9,341.4 729.5,339.6 730.1,341.0 730.7,340.9 731.2,341.2 731.8,342.2 732.4,342.6 733.0,341.1 733.5,341.4 734.1,341.2 734.7,341.5 735.3,342.5 735.8,340.4 736.4,341.3 737.0,340.5 737.6,340.3 738.1,339.6 738.7,340.3 739.3,340.8 739.9,341.1 740.4,341.9 741.0,342.5 741.6,341.7 742.2,341.9 742.8,338.9 743.3,339.5 743.9,340.4 744.5,338.7 745.1,340.1 745.6,340.2 746.2,341.7 746.8,338.3 747.4,342.1 747.9,342.7 748.5,342.7 749.1,342.1 749.7,343.0 750.2,342.5 750.8,342.2 751.4,340.7 752.0,340.3 752.5,341.2 753.1,341.3 753.7,341.1 754.3,342.2 754.8,342.6 755.4,341.0 756.0,341.1 756.6,341.5 757.1,340.5 757.7,337.9 758.3,340.7 758.9,342.0 759.4,341.8 760.0,342.2 760.6,341.2 761.2,340.6 761.8,342.1 762.3,341.0 762.9,341.4 763.5,340.8 764.1,340.5 764.6,340.9 765.2,341.2 765.8,341.2 766.4,341.5 766.9,342.1 767.5,342.0 768.1,341.2 768.7,341.4 769.2,341.1 769.8,341.0 770.4,340.4 771.0,340.6 771.5,336.5 772.1,341.4 772.7,341.6 773.3,341.4 773.8,340.4 774.4,341.8 775.0,342.7 775.6,340.1 776.1,340.8 776.7,341.8 777.3,341.4 777.9,339.9 778.4,340.6 779.0,340.6 779.6,340.9 780.2,341.3 780.8,341.6 781.3,340.7 781.9,342.1 782.5,336.3 783.1,340.7 783.6,338.1 784.2,338.6 784.8,339.4 785.4,340.2 785.9,340.0 786.5,339.9 787.1,338.1 787.7,339.0 788.2,339.5 788.8,338.5 789.4,338.6 790.0,336.4 790.5,337.7 791.1,338.1 791.7,338.4 792.3,337.4 792.8,338.4 793.4,337.2 794.0,336.0 794.6,338.3 795.1,340.5 795.7,339.1 796.3,339.4 796.9,340.3 797.4,341.3 798.0,339.9 798.6,341.5 799.2,339.0 799.8,339.0 800.3,337.9 800.9,337.5 801.5,339.2 802.1,338.5 802.6,337.8 803.2,337.1 803.8,340.0 804.4,337.4 804.9,334.1 805.5,330.2 806.1,330.9 806.7,340.7 807.2,340.6 807.8,340.8 808.4,341.1 809.0,341.7 809.5,340.0 810.1,340.8 810.7,340.9 811.3,342.3 811.8,339.8 812.4,341.8 813.0,337.8 813.6,340.1 814.1,340.8 814.7,340.4 815.3,341.6 815.9,340.5 816.5,339.5 817.0,340.7 817.6,339.9 818.2,335.0 818.8,335.6 819.3,339.7 819.9,340.5 820.5,341.3 821.1,340.6 821.6,340.3 822.2,341.1 822.8,340.6 823.4,341.3 823.9,341.5 824.5,342.0 825.1,340.7 825.7,342.6 826.2,339.4 826.8,341.2 827.4,341.2 828.0,341.0 828.5,342.1 829.1,340.0 829.7,341.1 830.3,341.4 830.8,340.4 831.4,341.3 832.0,340.2 832.6,340.8 833.1,340.7 833.7,340.0 834.3,341.5 834.9,341.3 835.5,340.7 836.0,340.9 836.6,341.2 837.2,341.4 837.8,342.1 838.3,340.7 838.9,341.8 839.5,341.7 840.1,341.5 840.6,340.7 841.2,341.5 841.8,342.2 842.4,342.2 842.9,338.9 843.5,341.7 844.1,341.3 844.7,340.5 845.2,339.3 845.8,340.0 846.4,340.5 847.0,341.6 847.5,340.3 848.1,339.8 848.7,339.8 849.3,340.1 849.8,340.7 850.4,341.5 851.0,341.7 851.6,340.5 852.1,340.4 852.7,341.2 853.3,340.3 853.9,340.5 854.5,341.4 855.0,341.8 855.6,341.7 856.2,341.4 856.8,340.5 857.3,339.8 857.9,341.1 858.5,340.2 859.1,341.1 859.6,340.8 860.2,339.7 860.8,339.9 861.4,340.6 861.9,341.4 862.5,341.2 863.1,342.2 863.7,341.1 864.2,340.9 864.8,339.7 865.4,340.8 866.0,340.2 866.5,340.3 867.1,341.1 867.7,340.1 868.3,339.0 868.8,339.1 869.4,338.7 870.0,337.7 870.6,339.6 871.1,340.4 871.7,341.0 872.3,340.4 872.9,339.4 873.5,339.1 874.0,339.5 874.6,339.5 875.2,339.0 875.8,339.3 876.3,339.4 876.9,340.0 877.5,338.6 878.1,340.2 878.6,339.5 879.2,339.1 879.8,339.3 880.4,339.5 880.9,341.5 881.5,340.0 882.1,341.6 882.7,339.1 883.2,340.8 883.8,340.8 884.4,340.3 885.0,338.7 885.5,340.2 886.1,344.7 886.7,339.5 887.3,339.4 887.8,339.9 888.4,339.8 889.0,339.9 889.6,339.7 890.1,339.9 890.7,340.8 891.3,340.6 891.9,338.6 892.5,338.7 893.0,339.7 893.6,338.7 894.2,340.6 894.8,339.4 895.3,340.4 895.9,338.7 896.5,341.0 897.1,338.7 897.6,339.2 898.2,338.5 898.8,340.6 899.4,336.9 899.9,337.7 900.5,331.5 901.1,326.8 901.7,332.5 902.2,327.9 902.8,327.0 903.4,326.8 904.0,328.7 904.5,339.4 905.1,330.8 905.7,325.7 906.3,326.3 906.8,327.1 907.4,326.0 908.0,329.3 908.6,327.6 909.2,339.6 909.7,339.6 910.3,338.7 910.9,340.1 911.5,340.2 912.0,318.4 912.6,327.5 913.2,333.6 913.8,330.4 914.3,332.5 914.9,334.2 915.5,340.6 916.1,341.4 916.6,340.4 917.2,339.4 917.8,339.2 918.4,337.2 918.9,340.0 919.5,340.3 920.1,339.6 920.7,334.1 921.2,334.7 921.8,339.0 922.4,334.4 923.0,339.7 923.5,338.4 924.1,340.3 924.7,339.9 925.3,339.7 925.8,340.4 926.4,339.2 927.0,339.9 927.6,341.4 928.2,340.9 928.7,338.7 929.3,338.3 929.9,341.3 930.5,339.9 931.0,339.2 931.6,340.4 932.2,339.3 932.8,338.5 933.3,339.6 933.9,339.4 934.5,338.4 935.1,339.8 935.6,339.6 936.2,339.8 936.8,341.3 937.4,342.0 937.9,341.4 938.5,340.9 939.1,341.6 939.7,341.1 940.2,340.5 940.8,338.7 941.4,338.1 942.0,340.0 942.5,340.1 943.1,340.6 943.7,340.6 944.3,340.4 944.8,338.1 945.4,341.1 946.0,341.6" fill="none" stroke="#2563eb" stroke-width="2.2" stroke-linejoin="round" stroke-linecap="round"/>
<polyline points="76.0,310.2 76.6,323.7 77.2,332.7 77.7,333.2 78.3,333.7 78.9,333.3 79.5,333.0 80.0,329.4 80.6,333.3 81.2,333.3 81.8,319.2 82.3,333.3 82.9,332.8 83.5,329.4 84.1,333.1 84.6,332.5 85.2,319.8 85.8,329.1 86.4,331.1 86.9,309.4 87.5,301.8 88.1,304.7 88.7,319.2 89.2,314.2 89.8,309.2 90.4,328.5 91.0,332.1 91.5,311.3 92.1,333.6 92.7,317.8 93.3,329.2 93.8,282.8 94.4,299.2 95.0,302.1 95.6,307.1 96.2,330.0 96.7,311.3 97.3,309.4 97.9,333.5 98.5,333.7 99.0,328.4 99.6,309.4 100.2,309.3 100.8,311.3 101.3,339.4 101.9,333.5 102.5,307.7 103.1,309.1 103.6,333.6 104.2,334.0 104.8,332.8 105.4,332.1 105.9,332.6 106.5,333.2 107.1,330.1 107.7,333.2 108.2,329.6 108.8,332.9 109.4,333.3 110.0,332.8 110.5,333.6 111.1,333.5 111.7,333.6 112.3,342.6 112.8,334.4 113.4,333.6 114.0,333.6 114.6,329.4 115.2,342.6 115.7,334.2 116.3,334.8 116.9,334.8 117.5,333.7 118.0,336.7 118.6,334.8 119.2,334.8 119.8,333.8 120.3,333.6 120.9,333.6 121.5,333.2 122.1,333.6 122.6,333.3 123.2,333.2 123.8,333.6 124.4,333.7 124.9,333.7 125.5,333.0 126.1,333.6 126.7,333.5 127.2,329.4 127.8,333.4 128.4,311.0 129.0,328.3 129.5,329.8 130.1,332.5 130.7,342.6 131.3,329.3 131.9,332.5 132.4,333.6 133.0,334.8 133.6,333.3 134.2,333.4 134.7,333.5 135.3,333.2 135.9,329.7 136.5,329.2 137.0,330.2 137.6,331.7 138.2,333.6 138.8,333.5 139.3,333.6 139.9,332.7 140.5,333.5 141.1,333.5 141.6,330.2 142.2,331.0 142.8,334.9 143.4,342.6 143.9,334.8 144.5,333.7 145.1,308.9 145.7,333.6 146.2,333.1 146.8,333.3 147.4,332.5 148.0,333.6 148.5,332.7 149.1,333.6 149.7,333.5 150.3,333.6 150.9,333.6 151.4,333.4 152.0,331.8 152.6,333.5 153.2,333.6 153.7,333.6 154.3,332.8 154.9,332.9 155.5,329.0 156.0,309.4 156.6,297.6 157.2,308.6 157.8,303.2 158.3,309.0 158.9,308.9 159.5,326.3 160.1,331.6 160.6,332.5 161.2,332.5 161.8,333.5 162.4,333.6 162.9,332.5 163.5,333.4 164.1,333.3 164.7,333.3 165.2,342.6 165.8,333.6 166.4,333.5 167.0,333.6 167.5,333.6 168.1,332.5 168.7,333.1 169.3,329.6 169.9,318.5 170.4,297.6 171.0,332.7 171.6,325.6 172.2,333.3 172.7,330.4 173.3,330.5 173.9,330.0 174.5,333.4 175.0,333.1 175.6,333.3 176.2,333.3 176.8,329.4 177.3,329.4 177.9,333.6 178.5,333.0 179.1,329.7 179.6,333.2 180.2,333.6 180.8,333.2 181.4,333.6 181.9,329.1 182.5,333.0 183.1,314.3 183.7,333.3 184.2,297.6 184.8,332.7 185.4,328.4 186.0,331.2 186.5,330.5 187.1,309.3 187.7,330.5 188.3,331.0 188.9,333.2 189.4,322.5 190.0,332.6 190.6,294.6 191.2,297.5 191.7,325.8 192.3,329.8 192.9,329.4 193.5,330.9 194.0,333.3 194.6,333.3 195.2,332.7 195.8,323.5 196.3,313.9 196.9,307.4 197.5,304.2 198.1,297.6 198.6,305.3 199.2,304.2 199.8,330.4 200.4,304.3 200.9,315.8 201.5,332.1 202.1,333.6 202.7,332.8 203.2,333.6 203.8,333.6 204.4,332.4 205.0,333.6 205.5,318.5 206.1,318.5 206.7,332.7 207.3,332.5 207.9,332.1 208.4,333.3 209.0,333.2 209.6,329.9 210.2,304.2 210.7,307.1 211.3,307.1 211.9,297.6 212.5,309.0 213.0,334.1 213.6,334.8 214.2,311.3 214.8,333.2 215.3,334.8 215.9,334.6 216.5,334.8 217.1,333.6 217.6,332.5 218.2,332.9 218.8,333.1 219.4,332.2 219.9,333.3 220.5,333.1 221.1,328.3 221.7,307.8 222.2,332.7 222.8,307.0 223.4,333.0 224.0,309.5 224.6,309.1 225.1,323.8 225.7,304.3 226.3,318.5 226.9,342.6 227.4,314.3 228.0,332.8 228.6,307.1 229.2,308.7 229.7,328.7 230.3,332.7 230.9,333.7 231.5,331.9 232.0,322.6 232.6,332.5 233.2,307.0 233.8,305.0 234.3,322.6 234.9,314.3 235.5,332.1 236.1,331.2 236.6,302.0 237.2,332.7 237.8,333.3 238.4,325.2 238.9,332.5 239.5,319.5 240.1,332.3 240.7,332.4 241.2,332.7 241.8,329.4 242.4,330.4 243.0,332.4 243.6,333.3 244.1,332.5 244.7,331.7 245.3,309.4 245.9,333.4 246.4,329.4 247.0,344.5 247.6,332.5 248.2,333.4 248.7,332.4 249.3,333.4 249.9,333.3 250.5,309.4 251.0,314.1 251.6,330.7 252.2,309.3 252.8,330.4 253.3,304.1 253.9,329.2 254.5,325.6 255.1,301.1 255.6,308.5 256.2,334.5 256.8,332.1 257.4,333.6 257.9,333.1 258.5,305.3 259.1,305.3 259.7,317.0 260.2,318.9 260.8,322.3 261.4,330.4 262.0,309.4 262.6,304.2 263.1,307.0 263.7,330.5 264.3,304.0 264.9,329.2 265.4,332.7 266.0,325.4 266.6,329.4 267.2,304.2 267.7,307.0 268.3,332.5 268.9,332.7 269.5,333.7 270.0,339.4 270.6,334.8 271.2,334.7 271.8,333.6 272.3,334.8 272.9,334.4 273.5,332.5 274.1,333.1 274.6,333.6 275.2,333.5 275.8,333.6 276.4,333.3 276.9,330.5 277.5,333.1 278.1,333.6 278.7,327.8 279.2,329.4 279.8,324.5 280.4,324.0 281.0,307.0 281.6,332.2 282.1,307.2 282.7,309.1 283.3,329.2 283.9,318.4 284.4,307.1 285.0,333.2 285.6,317.4 286.2,334.5 286.7,333.6 287.3,296.4 287.9,304.1 288.5,324.0 289.0,324.4 289.6,317.7 290.2,309.1 290.8,333.6 291.3,320.1 291.9,332.8 292.5,330.2 293.1,328.4 293.6,308.4 294.2,307.2 294.8,297.6 295.4,301.5 295.9,304.3 296.5,307.8 297.1,330.4 297.7,332.7 298.3,328.3 298.8,333.3 299.4,332.5 300.0,333.6 300.6,332.7 301.1,332.7 301.7,324.0 302.3,333.6 302.9,333.2 303.4,333.3 304.0,333.4 304.6,333.4 305.2,333.3 305.7,333.2 306.3,332.7 306.9,325.6 307.5,325.4 308.0,304.3 308.6,341.6 309.2,333.9 309.8,342.6 310.3,333.7 310.9,327.8 311.5,299.9 312.1,332.9 312.6,332.8 313.2,314.4 313.8,333.7 314.4,332.8 314.9,333.3 315.5,332.2 316.1,329.2 316.7,329.1 317.3,332.5 317.8,333.6 318.4,333.6 319.0,331.8 319.6,333.0 320.1,309.3 320.7,330.7 321.3,308.9 321.9,331.4 322.4,304.3 323.0,308.6 323.6,309.4 324.2,328.7 324.7,332.5 325.3,331.1 325.9,333.9 326.5,317.1 327.0,333.3 327.6,334.8 328.2,330.0 328.8,324.5 329.3,333.3 329.9,330.0 330.5,330.4 331.1,333.4 331.6,333.1 332.2,332.5 332.8,329.4 333.4,333.6 333.9,333.5 334.5,330.4 335.1,331.9 335.7,309.5 336.3,329.2 336.8,307.0 337.4,307.2 338.0,304.2 338.6,329.1 339.1,325.6 339.7,329.1 340.3,333.5 340.9,330.2 341.4,333.6 342.0,333.3 342.6,332.7 343.2,333.5 343.7,333.3 344.3,333.6 344.9,332.5 345.5,333.6 346.0,331.9 346.6,333.3 347.2,333.6 347.8,331.4 348.3,282.5 348.9,332.5 349.5,333.7 350.1,318.1 350.6,329.8 351.2,328.4 351.8,330.5 352.4,332.7 352.9,333.2 353.5,333.6 354.1,333.4 354.7,333.2 355.3,333.4 355.8,333.7 356.4,333.5 357.0,333.7 357.6,333.6 358.1,333.3 358.7,333.6 359.3,333.6 359.9,333.3 360.4,332.7 361.0,334.4 361.6,332.7 362.2,333.0 362.7,304.1 363.3,318.4 363.9,308.1 364.5,299.6 365.0,309.2 365.6,329.2 366.2,309.4 366.8,329.2 367.3,331.7 367.9,333.4 368.5,332.5 369.1,332.7 369.6,329.6 370.2,333.3 370.8,333.5 371.4,333.5 371.9,304.2 372.5,333.1 373.1,329.7 373.7,333.7 374.3,332.5 374.8,333.6 375.4,332.5 376.0,333.5 376.6,309.3 377.1,333.0 377.7,305.2 378.3,307.2 378.9,332.5 379.4,329.6 380.0,332.7 380.6,328.4 381.2,333.0 381.7,304.1 382.3,329.4 382.9,327.5 383.5,332.5 384.0,294.7 384.6,333.3 385.2,309.3 385.8,309.4 386.3,332.5 386.9,317.1 387.5,317.2 388.1,332.8 388.6,333.6 389.2,332.7 389.8,332.7 390.4,329.1 391.0,307.0 391.5,307.0 392.1,309.0 392.7,332.5 393.3,309.4 393.8,309.2 394.4,326.0 395.0,330.7 395.6,333.6 396.1,333.2 396.7,332.6 397.3,333.3 397.9,333.2 398.4,329.4 399.0,332.2 399.6,330.2 400.2,333.2 400.7,332.7 401.3,332.5 401.9,329.4 402.5,333.3 403.0,333.6 403.6,330.7 404.2,305.8 404.8,324.8 405.3,304.2 405.9,305.2 406.5,307.8 407.1,305.2 407.6,333.3 408.2,325.7 408.8,332.5 409.4,331.8 410.0,332.8 410.5,333.6 411.1,333.2 411.7,332.6 412.3,332.5 412.8,333.3 413.4,329.4 414.0,330.4 414.6,333.5 415.1,332.7 415.7,333.2 416.3,333.6 416.9,326.2 417.4,333.6 418.0,332.3 418.6,318.5 419.2,301.8 419.7,308.9 420.3,326.2 420.9,325.5 421.5,322.3 422.0,297.5 422.6,309.4 423.2,329.8 423.8,329.4 424.3,333.3 424.9,323.3 425.5,322.6 426.1,329.1 426.6,332.5 427.2,329.4 427.8,333.3 428.4,322.6 429.0,331.8 429.5,332.7 430.1,324.4 430.7,307.9 431.3,314.3 431.8,332.5 432.4,307.3 433.0,305.3 433.6,307.0 434.1,309.0 434.7,311.3 435.3,329.7 435.9,330.6 436.4,316.7 437.0,333.3 437.6,333.6 438.2,333.6 438.7,333.6 439.3,333.3 439.9,332.5 440.5,333.5 441.0,329.1 441.6,333.0 442.2,333.2 442.8,332.9 443.3,332.5 443.9,333.6 444.5,329.4 445.1,332.5 445.6,314.3 446.2,329.4 446.8,304.2 447.4,323.1 448.0,305.4 448.5,330.5 449.1,307.8 449.7,332.5 450.3,332.5 450.8,329.9 451.4,309.5 452.0,332.5 452.6,328.7 453.1,325.9 453.7,322.6 454.3,328.7 454.9,303.9 455.4,311.3 456.0,332.5 456.6,330.7 457.2,328.4 457.7,332.5 458.3,321.6 458.9,307.1 459.5,309.2 460.0,304.0 460.6,304.2 461.2,307.0 461.8,309.5 462.3,308.9 462.9,318.4 463.5,324.4 464.1,329.5 464.6,329.6 465.2,304.2 465.8,304.0 466.4,332.5 467.0,329.6 467.5,329.2 468.1,332.5 468.7,309.4 469.3,333.2 469.8,329.5 470.4,317.8 471.0,326.6 471.6,307.1 472.1,330.7 472.7,333.6 473.3,309.3 473.9,309.4 474.4,304.4 475.0,304.2 475.6,306.5 476.2,307.8 476.7,284.3 477.3,325.0 477.9,330.0 478.5,332.5 479.0,307.0 479.6,332.5 480.2,333.3 480.8,295.9 481.3,304.1 481.9,333.4 482.5,307.1 483.1,332.4 483.7,332.7 484.2,330.7 484.8,330.4 485.4,329.2 486.0,332.5 486.5,328.2 487.1,304.1 487.7,304.0 488.3,302.2 488.8,301.9 489.4,304.2 490.0,307.8 490.6,317.8 491.1,330.3 491.7,304.8 492.3,333.6 492.9,339.4 493.4,333.2 494.0,333.3 494.6,333.7 495.2,333.5 495.7,333.6 496.3,333.6 496.9,335.7 497.5,334.4 498.0,333.7 498.6,330.6 499.2,332.7 499.8,322.7 500.3,307.0 500.9,308.7 501.5,309.1 502.1,307.8 502.7,322.3 503.2,324.0 503.8,325.8 504.4,333.6 505.0,330.5 505.5,330.7 506.1,317.4 506.7,329.2 507.3,322.6 507.8,318.5 508.4,329.3 509.0,318.5 509.6,318.4 510.1,326.3 510.7,328.3 511.3,332.5 511.9,332.5 512.4,309.3 513.0,327.8 513.6,311.3 514.2,324.6 514.7,322.2 515.3,308.2 515.9,325.6 516.5,333.7 517.0,334.2 517.6,329.4 518.2,331.9 518.8,329.6 519.3,332.8 519.9,331.0 520.5,332.7 521.1,332.5 521.7,332.1 522.2,311.2 522.8,332.7 523.4,329.4 524.0,329.8 524.5,325.9 525.1,328.1 525.7,309.4 526.3,328.9 526.8,334.4 527.4,330.3 528.0,329.2 528.6,323.1 529.1,326.3 529.7,327.6 530.3,330.4 530.9,330.4 531.4,333.6 532.0,332.1 532.6,347.5 533.2,348.5 533.7,348.2 534.3,348.5 534.9,348.5 535.5,348.5 536.0,348.0 536.6,348.2 537.2,348.4 537.8,348.2 538.3,347.5 538.9,348.5 539.5,348.6 540.1,348.5 540.7,347.7 541.2,345.9 541.8,344.5 542.4,344.7 543.0,344.1 543.5,343.7 544.1,344.0 544.7,344.3 545.3,344.6 545.8,343.8 546.4,343.8 547.0,345.8 547.6,342.7 548.1,344.6 548.7,348.2 549.3,347.9 549.9,346.1 550.4,344.7 551.0,345.9 551.6,346.0 552.2,348.0 552.7,346.2 553.3,344.7 553.9,343.3 554.5,343.8 555.0,342.0 555.6,342.9 556.2,343.7 556.8,343.8 557.4,342.7 557.9,343.8 558.5,343.7 559.1,343.6 559.7,343.8 560.2,343.8 560.8,344.5 561.4,344.6 562.0,344.5 562.5,344.1 563.1,343.7 563.7,344.7 564.3,346.3 564.8,347.2 565.4,343.7 566.0,348.0 566.6,344.0 567.1,344.4 567.7,344.3 568.3,343.7 568.9,343.4 569.4,342.3 570.0,343.8 570.6,344.3 571.2,344.4 571.7,344.3 572.3,344.3 572.9,344.6 573.5,346.2 574.0,348.2 574.6,342.7 575.2,343.4 575.8,342.2 576.4,343.4 576.9,340.5 577.5,340.2 578.1,340.7 578.7,341.3 579.2,340.6 579.8,340.1 580.4,340.6 581.0,340.8 581.5,340.7 582.1,340.5 582.7,340.2 583.3,340.1 583.8,339.3 584.4,338.1 585.0,338.5 585.6,339.2 586.1,340.2 586.7,340.2 587.3,340.2 587.9,340.2 588.4,339.5 589.0,340.2 589.6,340.2 590.2,340.7 590.7,340.1 591.3,340.2 591.9,340.1 592.5,340.1 593.0,340.5 593.6,341.5 594.2,342.1 594.8,340.8 595.4,340.2 595.9,340.2 596.5,340.2 597.1,340.2 597.7,340.2 598.2,340.8 598.8,340.2 599.4,340.6 600.0,340.8 600.5,340.9 601.1,340.7 601.7,341.3 602.3,341.3 602.8,340.5 603.4,340.2 604.0,341.4 604.6,340.7 605.1,342.0 605.7,341.0 606.3,341.3 606.9,341.0 607.4,341.1 608.0,341.8 608.6,340.8 609.2,340.2 609.7,340.9 610.3,341.0 610.9,339.2 611.5,341.5 612.0,340.2 612.6,340.6 613.2,340.2 613.8,341.3 614.4,339.4 614.9,342.1 615.5,341.3 616.1,340.2 616.7,340.8 617.2,341.3 617.8,340.9 618.4,342.2 619.0,342.0 619.5,342.6 620.1,341.3 620.7,340.2 621.3,341.3 621.8,342.2 622.4,341.5 623.0,340.2 623.6,340.1 624.1,342.0 624.7,342.2 625.3,341.4 625.9,342.0 626.4,340.7 627.0,340.8 627.6,342.0 628.2,341.8 628.7,342.0 629.3,342.0 629.9,342.0 630.5,341.1 631.0,341.4 631.6,342.2 632.2,340.2 632.8,342.5 633.4,340.2 633.9,341.4 634.5,340.7 635.1,342.1 635.7,340.7 636.2,342.2 636.8,342.0 637.4,340.7 638.0,341.3 638.5,340.8 639.1,341.0 639.7,340.1 640.3,340.2 640.8,340.7 641.4,342.1 642.0,342.0 642.6,342.7 643.1,342.1 643.7,340.9 644.3,344.3 644.9,343.7 645.4,342.6 646.0,343.3 646.6,342.7 647.2,343.3 647.7,341.0 648.3,343.5 648.9,343.3 649.5,342.6 650.1,343.8 650.6,342.6 651.2,340.8 651.8,340.6 652.4,342.0 652.9,340.2 653.5,342.0 654.1,342.0 654.7,342.0 655.2,342.2 655.8,342.1 656.4,342.3 657.0,341.3 657.5,351.5 658.1,342.9 658.7,344.3 659.3,343.3 659.8,343.3 660.4,340.5 661.0,342.3 661.6,342.0 662.1,341.5 662.7,342.0 663.3,342.2 663.9,343.1 664.4,342.0 665.0,340.5 665.6,341.3 666.2,341.0 666.7,341.7 667.3,343.0 667.9,342.6 668.5,340.4 669.1,342.9 669.6,343.7 670.2,343.4 670.8,343.7 671.4,343.3 671.9,341.0 672.5,341.5 673.1,342.2 673.7,342.1 674.2,341.5 674.8,342.1 675.4,342.0 676.0,343.8 676.5,344.3 677.1,345.0 677.7,340.5 678.3,342.2 678.8,342.2 679.4,342.2 680.0,341.0 680.6,343.0 681.1,342.3 681.7,342.1 682.3,340.9 682.9,342.5 683.4,343.5 684.0,343.3 684.6,343.8 685.2,343.2 685.7,343.8 686.3,343.8 686.9,343.5 687.5,342.1 688.1,341.7 688.6,342.2 689.2,340.8 689.8,344.2 690.4,343.3 690.9,343.6 691.5,340.9 692.1,342.6 692.7,342.2 693.2,341.6 693.8,342.2 694.4,341.8 695.0,343.7 695.5,342.1 696.1,343.4 696.7,343.8 697.3,343.8 697.8,343.8 698.4,344.6 699.0,344.7 699.6,343.8 700.1,343.8 700.7,343.8 701.3,340.8 701.9,343.4 702.4,344.6 703.0,343.5 703.6,348.7 704.2,348.3 704.7,344.7 705.3,341.6 705.9,344.2 706.5,343.3 707.1,343.8 707.6,344.2 708.2,343.7 708.8,343.4 709.4,344.6 709.9,343.8 710.5,343.6 711.1,344.3 711.7,344.7 712.2,344.3 712.8,344.4 713.4,344.7 714.0,344.0 714.5,348.0 715.1,340.6 715.7,342.8 716.3,344.3 716.8,344.4 717.4,343.6 718.0,348.0 718.6,344.3 719.1,344.7 719.7,344.7 720.3,342.7 720.9,343.8 721.4,348.7 722.0,343.4 722.6,344.3 723.2,344.3 723.7,343.7 724.3,344.3 724.9,344.6 725.5,344.6 726.1,344.3 726.6,345.0 727.2,346.7 727.8,348.5 728.4,346.2 728.9,344.7 729.5,342.2 730.1,344.7 730.7,344.4 731.2,346.5 731.8,348.4 732.4,348.5 733.0,344.3 733.5,346.5 734.1,344.7 734.7,344.4 735.3,348.6 735.8,342.5 736.4,344.1 737.0,344.0 737.6,343.8 738.1,343.5 738.7,343.8 739.3,344.7 739.9,344.4 740.4,347.9 741.0,348.5 741.6,347.2 742.2,348.7 742.8,344.2 743.3,341.3 743.9,344.3 744.5,342.7 745.1,343.8 745.6,344.1 746.2,346.4 746.8,348.6 747.4,345.5 747.9,345.0 748.5,346.2 749.1,344.6 749.7,348.6 750.2,344.3 750.8,344.1 751.4,343.8 752.0,343.8 752.5,344.6 753.1,343.5 753.7,344.7 754.3,345.5 754.8,348.2 755.4,343.7 756.0,344.7 756.6,344.3 757.1,346.7 757.7,340.4 758.3,343.6 758.9,348.7 759.4,344.7 760.0,347.9 760.6,344.7 761.2,342.1 761.8,344.1 762.3,342.7 762.9,343.4 763.5,343.8 764.1,343.7 764.6,344.6 765.2,344.3 765.8,344.6 766.4,344.7 766.9,346.1 767.5,348.2 768.1,344.7 768.7,345.7 769.2,344.7 769.8,347.1 770.4,343.6 771.0,343.8 771.5,339.2 772.1,344.3 772.7,347.7 773.3,344.4 773.8,345.3 774.4,344.7 775.0,348.6 775.6,343.4 776.1,344.3 776.7,344.3 777.3,344.3 777.9,342.3 778.4,343.7 779.0,343.5 779.6,344.0 780.2,344.7 780.8,344.3 781.3,343.8 781.9,347.4 782.5,346.4 783.1,343.6 783.6,345.9 784.2,346.2 784.8,344.1 785.4,344.7 785.9,344.4 786.5,343.7 787.1,340.4 787.7,342.1 788.2,343.8 788.8,343.5 789.4,343.4 790.0,343.8 790.5,342.5 791.1,343.7 791.7,343.8 792.3,343.7 792.8,343.8 793.4,343.8 794.0,342.6 794.6,343.8 795.1,344.4 795.7,344.3 796.3,343.5 796.9,344.7 797.4,344.7 798.0,343.7 798.6,344.7 799.2,342.1 799.8,342.7 800.3,343.4 800.9,343.3 801.5,343.6 802.1,343.0 802.6,342.2 803.2,340.6 803.8,343.8 804.4,342.1 804.9,343.1 805.5,342.7 806.1,343.6 806.7,343.8 807.2,343.2 807.8,344.3 808.4,344.3 809.0,345.6 809.5,345.9 810.1,344.3 810.7,344.7 811.3,348.3 811.8,343.8 812.4,347.4 813.0,340.4 813.6,343.8 814.1,343.8 814.7,344.6 815.3,344.4 815.9,343.8 816.5,343.7 817.0,342.9 817.6,343.6 818.2,343.8 818.8,342.1 819.3,342.3 819.9,343.8 820.5,344.3 821.1,343.9 821.6,343.8 822.2,344.3 822.8,344.4 823.4,344.7 823.9,348.5 824.5,348.5 825.1,344.7 825.7,348.7 826.2,344.3 826.8,348.5 827.4,344.3 828.0,343.4 828.5,348.0 829.1,342.2 829.7,344.4 830.3,344.7 830.8,343.4 831.4,344.3 832.0,343.0 832.6,342.7 833.1,343.7 833.7,343.8 834.3,344.0 834.9,344.1 835.5,344.3 836.0,344.3 836.6,345.6 837.2,345.9 837.8,344.7 838.3,344.4 838.9,346.2 839.5,348.0 840.1,344.6 840.6,344.3 841.2,347.4 841.8,347.9 842.4,348.4 842.9,346.2 843.5,344.3 844.1,345.0 844.7,343.8 845.2,342.2 845.8,343.8 846.4,344.3 847.0,344.3 847.5,344.5 848.1,343.6 848.7,343.4 849.3,344.6 849.8,344.7 850.4,346.2 851.0,344.8 851.6,344.3 852.1,347.6 852.7,347.3 853.3,343.8 853.9,344.3 854.5,344.7 855.0,347.6 855.6,346.4 856.2,345.8 856.8,345.0 857.3,343.0 857.9,344.6 858.5,343.3 859.1,344.7 859.6,344.3 860.2,343.4 860.8,342.6 861.4,344.3 861.9,344.3 862.5,344.6 863.1,348.7 863.7,345.5 864.2,348.4 864.8,344.3 865.4,344.7 866.0,347.6 866.5,344.4 867.1,348.5 867.7,343.8 868.3,342.2 868.8,342.7 869.4,342.2 870.0,341.0 870.6,343.7 871.1,344.3 871.7,344.7 872.3,343.8 872.9,343.6 873.5,343.3 874.0,342.7 874.6,342.1 875.2,342.1 875.8,342.5 876.3,343.3 876.9,342.2 877.5,342.5 878.1,344.3 878.6,343.5 879.2,343.8 879.8,343.7 880.4,343.1 880.9,347.4 881.5,343.3 882.1,347.7 882.7,342.9 883.2,343.6 883.8,344.3 884.4,344.7 885.0,342.7 885.5,344.3 886.1,351.6 886.7,343.0 887.3,342.7 887.8,343.1 888.4,343.1 889.0,342.8 889.6,343.8 890.1,343.8 890.7,344.4 891.3,345.2 891.9,346.9 892.5,343.6 893.0,343.7 893.6,342.8 894.2,344.7 894.8,343.8 895.3,344.3 895.9,341.2 896.5,344.7 897.1,342.1 897.6,343.8 898.2,342.7 898.8,343.3 899.4,344.3 899.9,342.7 900.5,342.2 901.1,340.6 901.7,341.9 902.2,342.6 902.8,344.3 903.4,343.3 904.0,343.6 904.5,343.0 905.1,344.3 905.7,344.3 906.3,344.4 906.8,344.4 907.4,343.7 908.0,344.3 908.6,345.5 909.2,343.7 909.7,343.7 910.3,342.3 910.9,343.0 911.5,343.4 912.0,348.6 912.6,342.7 913.2,340.9 913.8,344.0 914.3,344.5 914.9,344.4 915.5,343.7 916.1,344.3 916.6,343.7 917.2,343.8 917.8,343.7 918.4,342.7 918.9,343.9 919.5,346.0 920.1,343.8 920.7,344.0 921.2,344.7 921.8,344.6 922.4,344.7 923.0,344.4 923.5,342.2 924.1,344.3 924.7,343.8 925.3,343.8 925.8,343.8 926.4,344.3 927.0,342.8 927.6,344.7 928.2,344.6 928.7,343.3 929.3,342.2 929.9,344.6 930.5,343.8 931.0,343.8 931.6,348.0 932.2,344.3 932.8,344.0 933.3,344.4 933.9,344.4 934.5,343.8 935.1,345.0 935.6,344.3 936.2,344.0 936.8,346.9 937.4,348.4 937.9,347.6 938.5,344.7 939.1,345.0 939.7,344.7 940.2,343.8 940.8,343.4 941.4,344.3 942.0,343.8 942.5,344.3 943.1,344.3 943.7,343.8 944.3,343.9 944.8,343.8 945.4,346.9 946.0,348.2" fill="none" stroke="#059669" stroke-width="2.2" stroke-linejoin="round" stroke-linecap="round"/>
<polyline points="76.0,208.3 76.6,216.0 77.2,222.6 77.7,227.6 78.3,235.6 78.9,227.5 79.5,222.5 80.0,216.2 80.6,222.7 81.2,222.6 81.8,199.2 82.3,222.7 82.9,223.9 83.5,222.6 84.1,225.4 84.6,226.8 85.2,210.8 85.8,216.0 86.4,235.2 86.9,215.9 87.5,215.1 88.1,199.2 88.7,219.6 89.2,222.4 89.8,222.7 90.4,219.7 91.0,222.5 91.5,212.5 92.1,215.9 92.7,199.5 93.3,199.2 93.8,160.1 94.4,169.7 95.0,169.7 95.6,209.0 96.2,215.2 96.7,209.0 97.3,207.5 97.9,232.5 98.5,240.2 99.0,229.4 99.6,222.5 100.2,223.1 100.8,222.6 101.3,226.8 101.9,219.7 102.5,213.0 103.1,220.8 103.6,213.5 104.2,235.6 104.8,233.1 105.4,228.1 105.9,228.7 106.5,229.4 107.1,222.7 107.7,222.7 108.2,223.7 108.8,227.0 109.4,230.6 110.0,222.6 110.5,235.6 111.1,239.6 111.7,232.8 112.3,243.7 112.8,238.6 113.4,239.6 114.0,238.1 114.6,235.5 115.2,250.8 115.7,205.6 116.3,235.8 116.9,236.8 117.5,233.9 118.0,247.8 118.6,241.8 119.2,245.5 119.8,240.3 120.3,231.5 120.9,232.5 121.5,227.6 122.1,222.8 122.6,228.9 123.2,232.6 123.8,245.3 124.4,237.8 124.9,240.2 125.5,230.6 126.1,229.4 126.7,229.6 127.2,215.9 127.8,238.2 128.4,222.7 129.0,231.1 129.5,230.6 130.1,242.1 130.7,248.1 131.3,222.7 131.9,227.1 132.4,241.6 133.0,236.3 133.6,229.0 134.2,234.0 134.7,235.6 135.3,232.4 135.9,222.7 136.5,222.7 137.0,229.4 137.6,232.4 138.2,241.0 138.8,236.8 139.3,245.4 139.9,229.6 140.5,229.7 141.1,236.3 141.6,235.6 142.2,235.8 142.8,240.5 143.4,239.6 143.9,239.6 144.5,232.4 145.1,199.7 145.7,222.6 146.2,222.7 146.8,215.9 147.4,228.8 148.0,232.5 148.5,230.6 149.1,232.5 149.7,230.0 150.3,235.5 150.9,235.5 151.4,232.5 152.0,229.4 152.6,237.9 153.2,238.0 153.7,236.8 154.3,227.3 154.9,226.2 155.5,236.2 156.0,225.9 156.6,231.5 157.2,230.6 157.8,206.4 158.3,222.7 158.9,222.6 159.5,222.6 160.1,224.3 160.6,222.7 161.2,235.6 161.8,235.6 162.4,231.1 162.9,229.4 163.5,234.8 164.1,235.5 164.7,236.0 165.2,250.6 165.8,232.5 166.4,232.5 167.0,240.3 167.5,240.2 168.1,232.5 168.7,231.4 169.3,224.9 169.9,222.7 170.4,240.3 171.0,222.6 171.6,199.2 172.2,230.8 172.7,232.5 173.3,222.7 173.9,227.9 174.5,232.4 175.0,235.6 175.6,232.4 176.2,231.9 176.8,232.9 177.3,222.7 177.9,237.5 178.5,233.1 179.1,222.7 179.6,231.8 180.2,237.8 180.8,239.7 181.4,247.1 181.9,223.4 182.5,222.6 183.1,223.7 183.7,234.0 184.2,246.1 184.8,227.0 185.4,222.5 186.0,222.7 186.5,224.5 187.1,221.9 187.7,228.7 188.3,222.7 188.9,227.4 189.4,211.4 190.0,222.5 190.6,160.1 191.2,170.7 191.7,199.4 192.3,209.7 192.9,200.9 193.5,222.6 194.0,231.5 194.6,227.1 195.2,225.9 195.8,216.1 196.3,215.9 196.9,222.6 197.5,199.5 198.1,226.2 198.6,199.2 199.2,199.2 199.8,222.6 200.4,209.8 200.9,216.3 201.5,223.7 202.1,222.6 202.7,223.7 203.2,223.4 203.8,225.9 204.4,222.7 205.0,232.4 205.5,208.3 206.1,220.9 206.7,232.5 207.3,231.3 207.9,222.6 208.4,227.5 209.0,229.4 209.6,222.6 210.2,202.0 210.7,219.7 211.3,222.5 211.9,256.6 212.5,219.0 213.0,213.7 213.6,239.2 214.2,214.6 214.8,227.5 215.3,232.7 215.9,240.2 216.5,239.9 217.1,232.4 217.6,232.4 218.2,226.6 218.8,222.7 219.4,239.6 219.9,230.8 220.5,230.1 221.1,217.7 221.7,210.2 222.2,227.3 222.8,181.8 223.4,230.3 224.0,214.1 224.6,221.4 225.1,222.6 225.7,226.8 226.3,214.1 226.9,239.9 227.4,214.4 228.0,220.8 228.6,199.1 229.2,196.5 229.7,194.8 230.3,215.9 230.9,210.0 231.5,222.7 232.0,169.8 232.6,219.7 233.2,204.5 233.8,205.1 234.3,199.2 234.9,221.0 235.5,227.3 236.1,222.7 236.6,168.4 237.2,222.5 237.8,230.7 238.4,222.4 238.9,222.7 239.5,175.8 240.1,199.7 240.7,225.5 241.2,230.8 241.8,222.7 242.4,209.2 243.0,232.5 243.6,231.8 244.1,223.7 244.7,222.7 245.3,219.7 245.9,229.4 246.4,222.6 247.0,250.9 247.6,230.4 248.2,230.6 248.7,229.4 249.3,232.3 249.9,232.3 250.5,223.7 251.0,222.5 251.6,222.6 252.2,222.6 252.8,222.6 253.3,214.2 253.9,222.6 254.5,214.1 255.1,212.7 255.6,222.5 256.2,232.3 256.8,214.2 257.4,222.6 257.9,218.3 258.5,209.0 259.1,199.7 259.7,214.4 260.2,222.6 260.8,214.4 261.4,231.7 262.0,222.6 262.6,205.1 263.1,206.5 263.7,222.6 264.3,222.6 264.9,222.6 265.4,232.4 266.0,222.6 266.6,234.0 267.2,222.5 267.7,222.2 268.3,222.7 268.9,223.2 269.5,230.4 270.0,247.2 270.6,232.5 271.2,234.9 271.8,238.6 272.3,232.4 272.9,228.9 273.5,214.9 274.1,230.9 274.6,232.4 275.2,232.4 275.8,232.3 276.4,227.6 276.9,224.6 277.5,230.4 278.1,239.8 278.7,219.7 279.2,222.6 279.8,222.6 280.4,227.7 281.0,225.6 281.6,225.9 282.1,209.5 282.7,212.6 283.3,219.7 283.9,225.7 284.4,213.2 285.0,222.6 285.6,215.0 286.2,223.5 286.7,232.4 287.3,169.7 287.9,199.2 288.5,222.6 289.0,199.9 289.6,211.7 290.2,214.0 290.8,232.3 291.3,220.9 291.9,227.5 292.5,222.6 293.1,215.0 293.6,211.8 294.2,199.4 294.8,191.9 295.4,194.2 295.9,208.3 296.5,199.5 297.1,214.4 297.7,227.3 298.3,212.6 298.8,232.5 299.4,222.4 300.0,221.9 300.6,222.7 301.1,218.3 301.7,222.5 302.3,239.6 302.9,225.5 303.4,230.7 304.0,232.4 304.6,226.0 305.2,232.4 305.7,235.5 306.3,239.6 306.9,222.8 307.5,223.5 308.0,222.6 308.6,232.4 309.2,227.0 309.8,222.7 310.3,230.9 310.9,225.9 311.5,92.4 312.1,214.4 312.6,222.6 313.2,213.2 313.8,230.7 314.4,229.4 314.9,222.6 315.5,222.7 316.1,222.6 316.7,219.7 317.3,222.4 317.8,232.4 318.4,237.6 319.0,232.4 319.6,231.0 320.1,213.2 320.7,222.7 321.3,222.6 321.9,237.2 322.4,231.5 323.0,216.4 323.6,211.9 324.2,229.4 324.7,226.0 325.3,229.8 325.9,232.6 326.5,199.7 327.0,232.5 327.6,232.5 328.2,216.0 328.8,219.7 329.3,227.3 329.9,219.6 330.5,219.1 331.1,226.1 331.6,231.2 332.2,232.3 332.8,222.6 333.4,236.9 333.9,239.5 334.5,224.3 335.1,235.8 335.7,222.6 336.3,227.1 336.8,211.3 337.4,214.1 338.0,214.1 338.6,222.6 339.1,222.6 339.7,216.4 340.3,233.4 340.9,223.4 341.4,230.7 342.0,222.7 342.6,222.7 343.2,235.8 343.7,216.3 344.3,232.8 344.9,223.7 345.5,235.8 346.0,222.5 346.6,231.0 347.2,230.7 347.8,222.5 348.3,168.4 348.9,222.6 349.5,223.7 350.1,223.9 350.6,225.9 351.2,222.6 351.8,222.6 352.4,238.9 352.9,222.7 353.5,229.4 354.1,222.7 354.7,227.7 355.3,225.9 355.8,237.8 356.4,231.3 357.0,235.8 357.6,235.5 358.1,231.5 358.7,235.6 359.3,232.8 359.9,239.6 360.4,222.7 361.0,240.3 361.6,212.1 362.2,224.3 362.7,205.1 363.3,213.1 363.9,222.7 364.5,201.3 365.0,222.6 365.6,222.4 366.2,222.7 366.8,230.7 367.3,222.7 367.9,235.5 368.5,222.6 369.1,226.2 369.6,221.7 370.2,222.7 370.8,233.9 371.4,235.1 371.9,199.7 372.5,229.7 373.1,229.4 373.7,234.5 374.3,229.4 374.8,231.3 375.4,215.9 376.0,231.8 376.6,212.1 377.1,229.4 377.7,222.2 378.3,219.0 378.9,224.3 379.4,222.7 380.0,222.7 380.6,219.0 381.2,228.5 381.7,195.4 382.3,219.5 382.9,211.3 383.5,230.7 384.0,169.7 384.6,229.4 385.2,199.2 385.8,219.3 386.3,216.0 386.9,209.3 387.5,215.1 388.1,238.7 388.6,230.7 389.2,222.5 389.8,227.1 390.4,222.6 391.0,209.3 391.5,222.6 392.1,206.5 392.7,222.6 393.3,199.4 393.8,199.2 394.4,201.2 395.0,222.7 395.6,234.2 396.1,222.7 396.7,215.9 397.3,229.9 397.9,230.8 398.4,219.2 399.0,222.6 399.6,214.1 400.2,230.5 400.7,229.4 401.3,230.6 401.9,235.6 402.5,239.6 403.0,228.7 403.6,227.3 404.2,218.0 404.8,227.0 405.3,227.1 405.9,203.4 406.5,219.7 407.1,214.8 407.6,226.0 408.2,223.7 408.8,224.4 409.4,231.3 410.0,230.7 410.5,222.7 411.1,228.5 411.7,235.5 412.3,223.0 412.8,236.3 413.4,224.2 414.0,230.6 414.6,235.6 415.1,235.5 415.7,232.6 416.3,236.8 416.9,211.5 417.4,227.3 418.0,232.4 418.6,222.1 419.2,222.5 419.7,221.5 420.3,221.5 420.9,214.4 421.5,222.7 422.0,172.1 422.6,209.6 423.2,222.6 423.8,213.3 424.3,217.2 424.9,230.8 425.5,215.1 426.1,214.2 426.6,231.4 427.2,221.3 427.8,227.0 428.4,222.6 429.0,222.6 429.5,229.4 430.1,219.7 430.7,210.8 431.3,207.5 431.8,231.8 432.4,222.3 433.0,223.6 433.6,218.2 434.1,222.5 434.7,211.2 435.3,228.1 435.9,222.9 436.4,222.6 437.0,232.5 437.6,229.1 438.2,222.6 438.7,235.5 439.3,223.0 439.9,222.7 440.5,236.0 441.0,214.2 441.6,229.4 442.2,226.8 442.8,233.3 443.3,223.0 443.9,224.5 444.5,221.5 445.1,222.7 445.6,223.7 446.2,222.6 446.8,217.7 447.4,207.9 448.0,194.4 448.5,223.8 449.1,211.5 449.7,228.5 450.3,222.5 450.8,222.6 451.4,199.3 452.0,207.6 452.6,222.7 453.1,217.0 453.7,219.7 454.3,222.7 454.9,188.4 455.4,214.7 456.0,222.6 456.6,229.4 457.2,223.7 457.7,232.4 458.3,218.4 458.9,215.9 459.5,232.4 460.0,198.0 460.6,222.6 461.2,222.9 461.8,215.9 462.3,222.5 462.9,222.7 463.5,222.7 464.1,220.5 464.6,215.1 465.2,199.6 465.8,182.7 466.4,222.7 467.0,223.0 467.5,217.3 468.1,224.3 468.7,219.1 469.3,235.5 469.8,222.7 470.4,220.9 471.0,231.6 471.6,209.5 472.1,231.7 472.7,222.6 473.3,231.5 473.9,227.4 474.4,227.1 475.0,222.5 475.6,200.9 476.2,212.4 476.7,182.8 477.3,222.7 477.9,230.7 478.5,229.4 479.0,196.4 479.6,222.6 480.2,235.6 480.8,169.7 481.3,199.2 481.9,236.3 482.5,203.7 483.1,221.7 483.7,229.4 484.2,222.7 484.8,223.3 485.4,222.7 486.0,222.7 486.5,199.8 487.1,199.4 487.7,199.2 488.3,213.2 488.8,188.5 489.4,199.2 490.0,215.5 490.6,222.6 491.1,214.2 491.7,170.6 492.3,222.7 492.9,222.5 493.4,216.0 494.0,216.0 494.6,222.6 495.2,219.7 495.7,221.3 496.3,222.6 496.9,228.5 497.5,231.8 498.0,236.3 498.6,225.8 499.2,222.6 499.8,209.9 500.3,212.3 500.9,214.4 501.5,215.4 502.1,216.0 502.7,206.2 503.2,212.3 503.8,216.6 504.4,222.6 505.0,227.6 505.5,216.0 506.1,219.1 506.7,219.0 507.3,206.5 507.8,219.1 508.4,222.6 509.0,214.2 509.6,215.0 510.1,215.7 510.7,222.6 511.3,225.9 511.9,229.4 512.4,222.3 513.0,222.6 513.6,222.6 514.2,222.7 514.7,224.3 515.3,222.6 515.9,222.7 516.5,218.9 517.0,230.5 517.6,222.7 518.2,227.8 518.8,222.7 519.3,222.6 519.9,221.4 520.5,226.1 521.1,222.7 521.7,219.0 522.2,199.7 522.8,222.7 523.4,222.6 524.0,222.6 524.5,222.5 525.1,222.7 525.7,221.4 526.3,221.6 526.8,236.3 527.4,228.7 528.0,224.3 528.6,222.7 529.1,230.7 529.7,232.5 530.3,226.3 530.9,227.4 531.4,238.1 532.0,240.3 532.6,325.3 533.2,330.2 533.7,330.2 534.3,330.2 534.9,330.2 535.5,330.4 536.0,330.2 536.6,330.2 537.2,330.7 537.8,330.2 538.3,330.0 538.9,331.8 539.5,331.7 540.1,331.8 540.7,330.2 541.2,329.1 541.8,326.4 542.4,330.2 543.0,328.9 543.5,327.0 544.1,328.9 544.7,329.2 545.3,330.0 545.8,327.8 546.4,326.3 547.0,329.1 547.6,328.5 548.1,326.6 548.7,329.1 549.3,328.7 549.9,329.4 550.4,329.0 551.0,330.0 551.6,329.1 552.2,330.3 552.7,329.1 553.3,329.0 553.9,328.6 554.5,328.5 555.0,326.3 555.6,326.4 556.2,327.8 556.8,328.8 557.4,327.8 557.9,328.5 558.5,327.8 559.1,326.3 559.7,328.3 560.2,328.2 560.8,328.9 561.4,328.1 562.0,328.8 562.5,327.5 563.1,325.6 563.7,328.6 564.3,328.8 564.8,329.1 565.4,327.8 566.0,330.2 566.6,327.8 567.1,327.8 567.7,326.3 568.3,326.5 568.9,324.7 569.4,325.7 570.0,326.4 570.6,329.1 571.2,329.6 571.7,329.1 572.3,328.1 572.9,326.4 573.5,329.1 574.0,330.2 574.6,326.3 575.2,322.8 575.8,316.6 576.4,323.6 576.9,319.8 577.5,320.4 578.1,321.2 578.7,321.5 579.2,320.8 579.8,322.8 580.4,321.7 581.0,323.4 581.5,322.0 582.1,321.6 582.7,321.6 583.3,321.4 583.8,321.5 584.4,321.1 585.0,320.8 585.6,321.4 586.1,321.4 586.7,321.5 587.3,321.2 587.9,321.4 588.4,320.4 589.0,320.8 589.6,320.7 590.2,321.1 590.7,321.1 591.3,321.0 591.9,320.9 592.5,320.7 593.0,321.5 593.6,321.4 594.2,322.8 594.8,321.4 595.4,321.0 595.9,320.4 596.5,320.7 597.1,321.0 597.7,321.4 598.2,321.4 598.8,321.1 599.4,322.8 600.0,321.4 600.5,321.4 601.1,321.4 601.7,321.2 602.3,321.5 602.8,321.2 603.4,321.2 604.0,322.1 604.6,321.3 605.1,321.5 605.7,321.0 606.3,321.2 606.9,321.4 607.4,321.2 608.0,321.5 608.6,321.4 609.2,320.8 609.7,321.4 610.3,321.2 610.9,321.4 611.5,321.5 612.0,321.4 612.6,321.6 613.2,321.5 613.8,321.5 614.4,321.5 614.9,321.5 615.5,322.1 616.1,320.8 616.7,321.5 617.2,321.2 617.8,321.2 618.4,321.5 619.0,321.2 619.5,321.5 620.1,321.2 620.7,320.8 621.3,321.5 621.8,321.6 622.4,321.2 623.0,320.7 623.6,320.7 624.1,321.5 624.7,322.5 625.3,321.6 625.9,321.6 626.4,321.4 627.0,321.5 627.6,322.4 628.2,322.0 628.7,321.6 629.3,321.6 629.9,322.0 630.5,321.5 631.0,321.5 631.6,321.4 632.2,320.8 632.8,321.5 633.4,320.8 633.9,321.2 634.5,320.8 635.1,321.4 635.7,321.4 636.2,321.5 636.8,321.2 637.4,321.2 638.0,321.4 638.5,321.5 639.1,321.5 639.7,321.0 640.3,321.2 640.8,321.5 641.4,321.5 642.0,322.0 642.6,322.0 643.1,321.5 643.7,321.0 644.3,325.9 644.9,322.2 645.4,321.9 646.0,325.1 646.6,321.6 647.2,323.6 647.7,321.2 648.3,326.3 648.9,325.4 649.5,324.3 650.1,322.0 650.6,321.4 651.2,321.4 651.8,321.2 652.4,321.6 652.9,321.5 653.5,321.6 654.1,321.5 654.7,321.6 655.2,325.7 655.8,324.8 656.4,324.6 657.0,321.6 657.5,348.2 658.1,327.2 658.7,328.0 659.3,326.4 659.8,326.3 660.4,321.2 661.0,322.0 661.6,321.5 662.1,322.9 662.7,321.2 663.3,321.2 663.9,325.1 664.4,321.5 665.0,321.6 665.6,321.7 666.2,321.4 666.7,321.5 667.3,326.3 667.9,326.3 668.5,321.5 669.1,322.7 669.6,326.3 670.2,326.4 670.8,324.9 671.4,322.8 671.9,321.4 672.5,321.2 673.1,321.5 673.7,321.6 674.2,321.2 674.8,321.6 675.4,321.5 676.0,326.3 676.5,326.4 677.1,327.3 677.7,321.1 678.3,325.1 678.8,325.7 679.4,325.1 680.0,322.8 680.6,327.7 681.1,326.3 681.7,326.3 682.3,321.7 682.9,325.7 683.4,326.3 684.0,326.3 684.6,327.1 685.2,325.6 685.7,327.6 686.3,326.4 686.9,326.3 687.5,321.2 688.1,321.2 688.6,323.7 689.2,320.8 689.8,326.4 690.4,326.3 690.9,328.1 691.5,321.1 692.1,328.5 692.7,326.4 693.2,321.0 693.8,325.7 694.4,328.6 695.0,328.8 695.5,326.3 696.1,326.4 696.7,326.6 697.3,327.9 697.8,327.3 698.4,329.1 699.0,328.3 699.6,327.3 700.1,326.4 700.7,327.4 701.3,325.4 701.9,325.0 702.4,328.8 703.0,326.3 703.6,330.2 704.2,330.2 704.7,328.7 705.3,321.5 705.9,327.8 706.5,329.1 707.1,326.3 707.6,326.8 708.2,326.7 708.8,326.3 709.4,328.5 709.9,326.4 710.5,327.5 711.1,327.8 711.7,329.6 712.2,328.5 712.8,326.4 713.4,330.2 714.0,326.7 714.5,329.1 715.1,320.8 715.7,321.6 716.3,326.9 716.8,328.4 717.4,327.5 718.0,329.5 718.6,326.3 719.1,329.1 719.7,327.4 720.3,322.8 720.9,326.3 721.4,326.3 722.0,327.3 722.6,329.0 723.2,330.2 723.7,326.3 724.3,328.5 724.9,329.0 725.5,328.2 726.1,327.5 726.6,329.9 727.2,330.2 727.8,330.5 728.4,328.9 728.9,329.1 729.5,326.4 730.1,328.8 730.7,327.8 731.2,328.5 731.8,330.2 732.4,330.5 733.0,328.8 733.5,329.7 734.1,328.8 734.7,330.2 735.3,331.7 735.8,328.8 736.4,329.5 737.0,330.2 737.6,330.2 738.1,327.2 738.7,327.3 739.3,326.6 739.9,329.4 740.4,330.4 741.0,330.2 741.6,329.7 742.2,330.4 742.8,328.6 743.3,327.3 743.9,330.2 744.5,327.8 745.1,330.2 745.6,328.4 746.2,330.6 746.8,326.4 747.4,332.4 747.9,333.2 748.5,332.5 749.1,330.2 749.7,332.4 750.2,332.4 750.8,332.2 751.4,329.2 752.0,326.3 752.5,330.2 753.1,330.5 753.7,330.2 754.3,332.1 754.8,332.2 755.4,330.2 756.0,329.3 756.6,331.1 757.1,329.1 757.7,320.8 758.3,326.3 758.9,330.2 759.4,330.3 760.0,332.8 760.6,328.8 761.2,326.4 761.8,332.8 762.3,329.1 762.9,330.2 763.5,327.8 764.1,326.4 764.6,326.4 765.2,329.4 765.8,328.7 766.4,328.8 766.9,330.3 767.5,330.4 768.1,329.7 768.7,330.2 769.2,329.4 769.8,328.9 770.4,326.4 771.0,327.7 771.5,320.4 772.1,327.3 772.7,328.9 773.3,329.7 773.8,329.1 774.4,330.2 775.0,330.3 775.6,326.3 776.1,326.6 776.7,329.1 777.3,328.9 777.9,326.3 778.4,326.4 779.0,329.2 779.6,328.6 780.2,329.1 780.8,328.8 781.3,327.8 781.9,330.2 782.5,332.9 783.1,327.3 783.6,328.7 784.2,326.8 784.8,326.4 785.4,328.1 785.9,326.3 786.5,326.4 787.1,320.8 787.7,321.5 788.2,326.3 788.8,324.5 789.4,326.1 790.0,326.3 790.5,325.7 791.1,326.4 791.7,327.0 792.3,326.4 792.8,326.4 793.4,326.0 794.0,321.6 794.6,326.3 795.1,327.3 795.7,326.4 796.3,325.4 796.9,327.0 797.4,327.9 798.0,325.1 798.6,328.8 799.2,321.5 799.8,321.4 800.3,321.5 800.9,321.5 801.5,326.3 802.1,326.3 802.6,322.6 803.2,321.2 803.8,326.4 804.4,326.1 804.9,326.1 805.5,321.5 806.1,324.3 806.7,326.4 807.2,327.8 807.8,326.4 808.4,328.5 809.0,328.9 809.5,327.3 810.1,326.4 810.7,328.4 811.3,330.2 811.8,326.4 812.4,327.3 813.0,320.8 813.6,325.1 814.1,327.2 814.7,327.0 815.3,327.3 815.9,326.6 816.5,327.3 817.0,327.3 817.6,326.3 818.2,326.3 818.8,326.3 819.3,326.3 819.9,327.8 820.5,328.2 821.1,327.3 821.6,326.4 822.2,329.1 822.8,327.2 823.4,328.5 823.9,329.1 824.5,330.2 825.1,327.3 825.7,330.2 826.2,326.5 826.8,329.1 827.4,328.6 828.0,327.9 828.5,328.7 829.1,326.4 829.7,328.8 830.3,329.1 830.8,326.4 831.4,328.6 832.0,326.5 832.6,328.1 833.1,326.4 833.7,326.4 834.3,328.8 834.9,327.9 835.5,327.7 836.0,327.3 836.6,328.5 837.2,329.1 837.8,330.2 838.3,327.7 838.9,330.2 839.5,330.2 840.1,329.1 840.6,326.4 841.2,328.5 841.8,330.2 842.4,329.4 842.9,328.8 843.5,330.2 844.1,328.7 844.7,326.4 845.2,325.9 845.8,326.3 846.4,328.1 847.0,330.2 847.5,326.4 848.1,326.3 848.7,326.4 849.3,328.2 849.8,329.2 850.4,330.2 851.0,331.6 851.6,327.0 852.1,329.1 852.7,329.1 853.3,326.7 853.9,326.4 854.5,329.9 855.0,330.2 855.6,328.5 856.2,328.8 856.8,328.8 857.3,327.3 857.9,328.8 858.5,327.3 859.1,329.1 859.6,327.8 860.2,326.3 860.8,326.3 861.4,329.1 861.9,328.2 862.5,328.8 863.1,330.5 863.7,328.8 864.2,328.0 864.8,326.5 865.4,327.8 866.0,327.8 866.5,326.4 867.1,326.4 867.7,325.6 868.3,321.4 868.8,324.0 869.4,322.8 870.0,321.6 870.6,326.3 871.1,328.4 871.7,326.4 872.3,326.4 872.9,325.2 873.5,325.7 874.0,325.5 874.6,321.9 875.2,326.3 875.8,321.9 876.3,325.5 876.9,326.3 877.5,325.4 878.1,327.7 878.6,327.2 879.2,326.3 879.8,326.3 880.4,326.0 880.9,329.2 881.5,326.3 882.1,329.1 882.7,323.6 883.2,327.3 883.8,327.2 884.4,327.4 885.0,324.7 885.5,327.3 886.1,339.2 886.7,326.4 887.3,326.3 887.8,326.3 888.4,326.3 889.0,326.4 889.6,326.4 890.1,326.3 890.7,326.6 891.3,327.6 891.9,326.6 892.5,326.4 893.0,326.3 893.6,326.3 894.2,328.6 894.8,326.8 895.3,328.1 895.9,326.4 896.5,330.2 897.1,322.0 897.6,321.4 898.2,319.7 898.8,322.6 899.4,319.3 899.9,316.6 900.5,302.8 901.1,296.2 901.7,296.5 902.2,296.6 902.8,294.8 903.4,295.1 904.0,295.9 904.5,326.3 905.1,287.9 905.7,286.8 906.3,286.9 906.8,286.2 907.4,286.9 908.0,285.3 908.6,289.5 909.2,326.3 909.7,326.6 910.3,325.6 910.9,326.3 911.5,327.8 912.0,248.0 912.6,285.6 913.2,298.2 913.8,297.5 914.3,305.5 914.9,313.0 915.5,326.4 916.1,328.8 916.6,326.4 917.2,326.3 917.8,326.3 918.4,324.5 918.9,326.3 919.5,326.4 920.1,327.7 920.7,290.3 921.2,298.6 921.8,326.0 922.4,315.6 923.0,326.4 923.5,324.1 924.1,326.4 924.7,326.3 925.3,326.1 925.8,328.6 926.4,327.6 927.0,328.7 927.6,328.8 928.2,327.8 928.7,326.3 929.3,325.1 929.9,326.7 930.5,326.3 931.0,326.3 931.6,327.5 932.2,326.4 932.8,326.3 933.3,326.4 933.9,326.6 934.5,326.3 935.1,326.7 935.6,326.3 936.2,326.9 936.8,330.2 937.4,330.4 937.9,328.8 938.5,329.1 939.1,329.5 939.7,329.7 940.2,329.0 940.8,324.6 941.4,326.6 942.0,326.3 942.5,327.9 943.1,327.8 943.7,326.4 944.3,326.3 944.8,324.3 945.4,328.4 946.0,325.3" fill="none" stroke="#d97706" stroke-width="2.2" stroke-linejoin="round" stroke-linecap="round"/>
<line x1="76" y1="70" x2="94" y2="70" stroke="#2563eb" stroke-width="3"/>
<text x="100" y="74" font-family="Arial, sans-serif" font-size="11" fill="#0f172a">avg fee</text>
<line x1="179" y1="70" x2="197" y2="70" stroke="#059669" stroke-width="3"/>
<text x="203" y="74" font-family="Arial, sans-serif" font-size="11" fill="#0f172a">median fee</text>
<line x1="303" y1="70" x2="321" y2="70" stroke="#d97706" stroke-width="3"/>
<text x="327" y="74" font-family="Arial, sans-serif" font-size="11" fill="#0f172a">p90 fee</text>
<text x="28" y="404" font-family="Arial, sans-serif" font-size="11" fill="#64748b">Source: hourly_features.csv</text>
</svg>