<svg xmlns="http://www.w3.org/2000/svg" width="980" height="420" viewBox="0 0 980 420">
<rect width="100%" height="100%" fill="#ffffff"/>
<text x="28" y="34" font-family="Arial, sans-serif" font-size="20" font-weight="700" fill="#0f172a">Hourly fee trend</text>
<text x="28" y="56" font-family="Arial, sans-serif" font-size="12" fill="#64748b">Average, median, and p90 total fee by hour</text>
<line x1="76" y1="362.0" x2="946" y2="362.0" stroke="#e2e8f0" stroke-width="1"/>
<text x="68" y="366.0" font-family="Arial, sans-serif" font-size="10" text-anchor="end" fill="#64748b">-382K</text>
<line x1="76" y1="292.0" x2="946" y2="292.0" stroke="#e2e8f0" stroke-width="1"/>
<text x="68" y="296.0" font-family="Arial, sans-serif" font-size="10" text-anchor="end" fill="#64748b">2.6M</text>
<line x1="76" y1="222.0" x2="946" y2="222.0" stroke="#e2e8f0" stroke-width="1"/>
<text x="68" y="226.0" font-family="Arial, sans-serif" font-size="10" text-anchor="end" fill="#64748b">5.7M</text>
<line x1="76" y1="152.0" x2="946" y2="152.0" stroke="#e2e8f0" stroke-width="1"/>
<text x="68" y="156.0" font-family="Arial, sans-serif" font-size="10" text-anchor="end" fill="#64748b">8.7M</text>
<line x1="76" y1="82.0" x2="946" y2="82.0" stroke="#e2e8f0" stroke-width="1"/>
<text x="68" y="86.0" font-family="Arial, sans-serif" font-size="10" text-anchor="end" fill="#64748b">11.7M</text>
<line x1="76" y1="362" x2="946" y2="362" stroke="#334155" stroke-width="1"/>
<line x1="76" y1="82" x2="76" y2="362" stroke="#334155" stroke-width="1"/>
<text x="76" y="72" font-family="Arial, sans-serif" font-size="11" fill="#64748b">nanoton</text>
<line x1="76.0" y1="362" x2="76.0" y2="366" stroke="#334155" stroke-width="1"/>
<text x="76.0" y="380" font-family="Arial, sans-serif" font-size="10" text-anchor="middle" fill="#64748b">0</text>
<line x1="511.5" y1="362" x2="511.5" y2="366" stroke="#334155" stroke-width="1"/>
<text x="511.5" y="380" font-family="Arial, sans-serif" font-size="10" text-anchor="middle" fill="#64748b">437</text>
<line x1="946.0" y1="362" x2="946.0" y2="366" stroke="#334155" stroke-width="1"/>
<text x="946.0" y="380" font-family="Arial, sans-serif" font-size="10" text-anchor="middle" fill="#64748b">873</text>
<polyline points="76.0,290.8 77.0,294.6 78.0,296.0 79.0,298.1 80.0,304.8 81.0,297.2 82.0,298.2 83.0,294.6 84.0,299.0 85.0,298.7 86.0,287.8 87.0,299.5 88.0,299.7 89.0,297.4 90.0,300.3 90.9,300.5 91.9,292.5 92.9,292.5 93.9,301.3 94.9,291.1 95.9,289.2 96.9,287.3 97.9,293.8 98.9,294.2 99.9,296.1 100.9,292.1 101.9,297.7 102.9,290.6 103.9,293.2 104.9,288.3 105.9,289.0 106.9,273.1 107.9,284.7 108.9,285.3 109.9,294.6 110.9,299.9 111.9,292.9 112.9,294.9 113.9,304.7 114.9,307.5 115.9,302.1 116.9,297.0 117.9,298.7 118.9,297.9 119.8,304.4 120.8,297.4 121.8,294.5 122.8,296.5 123.8,298.7 124.8,303.1 125.8,303.1 126.8,301.9 127.8,300.3 128.8,303.3 129.8,302.2 130.8,299.4 131.8,299.1 132.8,302.8 133.8,299.1 134.8,301.3 135.8,306.8 136.8,308.7 137.8,306.4 138.8,307.1 139.8,309.1 140.8,305.9 141.8,305.5 142.8,302.0 143.8,308.5 144.8,290.7 145.8,306.4 146.8,306.4 147.8,306.3 148.7,311.2 149.7,307.1 150.7,310.3 151.7,309.1 152.7,305.5 153.7,305.4 154.7,303.2 155.7,303.5 156.7,301.3 157.7,305.1 158.7,307.4 159.7,306.9 160.7,308.1 161.7,305.0 162.7,302.9 163.7,302.7 164.7,298.6 165.7,304.9 166.7,297.0 167.7,299.3 168.7,300.3 169.7,303.9 170.7,311.6 171.7,300.1 172.7,300.5 173.7,308.9 174.7,307.5 175.7,300.3 176.7,304.2 177.6,305.1 178.6,302.6 179.6,300.5 180.6,297.4 181.6,298.7 182.6,301.9 183.6,308.1 184.6,307.4 185.6,307.4 186.6,303.1 187.6,301.9 188.6,304.1 189.6,303.9 190.6,304.0 191.6,308.3 192.6,308.9 193.6,307.3 194.6,301.1 195.6,286.9 196.6,301.6 197.6,298.8 198.6,296.1 199.6,299.6 200.6,305.5 201.6,301.5 202.6,304.9 203.6,302.2 204.6,304.9 205.6,306.8 206.5,304.9 207.5,300.8 208.5,304.8 209.5,308.0 210.5,302.4 211.5,301.7 212.5,303.1 213.5,303.4 214.5,298.9 215.5,298.5 216.5,298.0 217.5,289.4 218.5,296.9 219.5,296.4 220.5,295.5 221.5,299.6 222.5,299.0 223.5,304.6 224.5,304.0 225.5,303.8 226.5,299.2 227.5,301.2 228.5,305.7 229.5,304.5 230.5,312.1 231.5,305.7 232.5,304.3 233.5,307.0 234.5,306.9 235.5,301.9 236.4,303.8 237.4,300.8 238.4,301.6 239.4,300.2 240.4,298.7 241.4,290.6 242.4,296.1 243.4,300.6 244.4,296.6 245.4,302.7 246.4,302.6 247.4,303.0 248.4,302.7 249.4,302.8 250.4,303.7 251.4,300.1 252.4,305.6 253.4,303.0 254.4,299.2 255.4,302.8 256.4,306.7 257.4,306.1 258.4,306.7 259.4,298.5 260.4,301.6 261.4,297.8 262.4,303.8 263.4,300.2 264.4,299.5 265.3,295.6 266.3,298.2 267.3,298.4 268.3,293.8 269.3,299.9 270.3,297.9 271.3,298.6 272.3,294.2 273.3,297.8 274.3,278.0 275.3,284.2 276.3,295.2 277.3,295.7 278.3,294.4 279.3,300.7 280.3,304.3 281.3,302.4 282.3,302.1 283.3,297.9 284.3,295.3 285.3,296.5 286.3,291.4 287.3,292.0 288.3,290.6 289.3,290.0 290.3,299.7 291.3,291.9 292.3,296.8 293.3,299.8 294.2,303.8 295.2,302.5 296.2,302.1 297.2,302.3 298.2,300.8 299.2,303.5 300.2,295.9 301.2,297.8 302.2,304.4 303.2,304.2 304.2,299.5 305.2,303.9 306.2,303.5 307.2,299.0 308.2,288.7 309.2,293.7 310.2,294.2 311.2,303.7 312.2,295.6 313.2,297.0 314.2,305.6 315.2,294.8 316.2,300.5 317.2,305.1 318.2,308.5 319.2,305.5 320.2,304.0 321.2,300.7 322.2,303.8 323.1,299.3 324.1,303.0 325.1,305.0 326.1,303.0 327.1,299.3 328.1,294.4 329.1,299.9 330.1,286.2 331.1,302.1 332.1,293.9 333.1,297.9 334.1,299.5 335.1,297.4 336.1,294.4 337.1,310.4 338.1,291.6 339.1,295.6 340.1,281.6 341.1,294.6 342.1,293.2 343.1,295.0 344.1,291.0 345.1,301.0 346.1,279.9 347.1,297.2 348.1,291.8 349.1,291.5 350.1,283.3 351.1,298.3 352.0,300.4 353.0,298.6 354.0,288.4 355.0,299.0 356.0,304.4 357.0,297.7 358.0,295.5 359.0,279.8 360.0,284.2 361.0,300.5 362.0,299.9 363.0,298.1 364.0,293.4 365.0,303.1 366.0,303.0 367.0,298.6 368.0,296.8 369.0,297.4 370.0,301.3 371.0,298.1 372.0,311.4 373.0,299.4 374.0,303.5 375.0,301.2 376.0,302.9 377.0,304.3 378.0,297.8 379.0,294.4 380.0,299.3 380.9,295.1 381.9,301.8 382.9,292.6 383.9,297.6 384.9,293.9 385.9,290.0 386.9,295.1 387.9,304.6 388.9,291.1 389.9,300.3 390.9,295.9 391.9,293.1 392.9,291.6 393.9,296.8 394.9,297.1 395.9,297.9 396.9,299.5 397.9,292.8 398.9,286.2 399.9,290.1 400.9,300.0 401.9,294.5 402.9,300.9 403.9,303.0 404.9,299.1 405.9,302.5 406.9,295.1 407.9,297.0 408.9,302.8 409.8,301.7 410.8,303.0 411.8,308.6 412.8,306.8 413.8,306.1 414.8,306.5 415.8,304.3 416.8,304.5 417.8,298.3 418.8,301.1 419.8,303.1 420.8,303.3 421.8,304.2 422.8,302.4 423.8,299.4 424.8,304.5 425.8,307.1 426.8,297.3 427.8,298.9 428.8,298.1 429.8,299.7 430.8,297.8 431.8,301.0 432.8,287.2 433.8,294.3 434.8,294.8 435.8,298.6 436.8,291.3 437.8,298.4 438.7,294.6 439.7,298.7 440.7,304.2 441.7,282.2 442.7,289.8 443.7,298.8 444.7,295.1 445.7,293.4 446.7,294.7 447.7,304.3 448.7,296.9 449.7,301.7 450.7,296.7 451.7,295.6 452.7,292.9 453.7,291.6 454.7,286.7 455.7,287.8 456.7,294.2 457.7,292.6 458.7,297.5 459.7,303.1 460.7,296.8 461.7,304.1 462.7,298.7 463.7,297.8 464.7,299.3 465.7,297.1 466.7,296.6 467.6,305.5 468.6,301.9 469.6,304.5 470.6,302.9 471.6,303.4 472.6,302.7 473.6,304.5 474.6,301.7 475.6,300.0 476.6,297.3 477.6,295.0 478.6,305.0 479.6,302.7 480.6,303.7 481.6,302.8 482.6,298.5 483.6,257.0 484.6,291.0 485.6,298.5 486.6,296.3 487.6,301.0 488.6,301.6 489.6,299.9 490.6,299.3 491.6,299.6 492.6,296.0 493.6,299.4 494.6,305.6 495.6,306.5 496.5,300.9 497.5,302.7 498.5,295.0 499.5,302.2 500.5,296.9 501.5,304.8 502.5,299.1 503.5,295.6 504.5,295.1 505.5,300.9 506.5,301.0 507.5,300.7 508.5,304.5 509.5,292.6 510.5,303.5 511.5,306.0 512.5,295.5 513.5,297.4 514.5,302.8 515.5,295.8 516.5,299.5 517.5,304.0 518.5,301.7 519.5,303.8 520.5,300.8 521.5,306.1 522.5,305.6 523.5,300.8 524.5,303.2 525.5,297.1 526.4,300.2 527.4,292.3 528.4,292.0 529.4,292.1 530.4,299.3 531.4,298.5 532.4,298.8 533.4,301.5 534.4,299.6 535.4,305.3 536.4,300.2 537.4,300.6 538.4,304.7 539.4,299.2 540.4,304.4 541.4,299.7 542.4,306.4 543.4,299.1 544.4,304.5 545.4,303.3 546.4,298.0 547.4,263.7 548.4,302.9 549.4,304.6 550.4,301.3 551.4,300.8 552.4,298.3 553.4,299.9 554.4,302.7 555.3,298.6 556.3,304.0 557.3,302.8 558.3,303.0 559.3,301.1 560.3,308.3 561.3,304.5 562.3,309.0 563.3,304.5 564.3,303.7 565.3,304.9 566.3,303.6 567.3,305.3 568.3,299.5 569.3,305.2 570.3,297.1 571.3,302.2 572.3,288.1 573.3,294.6 574.3,299.7 575.3,287.4 576.3,299.0 577.3,298.4 578.3,296.8 579.3,301.1 580.3,299.5 581.3,302.6 582.3,299.3 583.3,303.0 584.2,298.0 585.2,301.6 586.2,305.3 587.2,304.5 588.2,290.4 589.2,303.1 590.2,299.6 591.2,302.4 592.2,303.1 593.2,304.7 594.2,296.3 595.2,301.7 596.2,292.9 597.2,298.2 598.2,294.8 599.2,293.5 600.2,299.4 601.2,297.4 602.2,300.4 603.2,295.6 604.2,301.5 605.2,282.6 606.2,297.4 607.2,291.2 608.2,300.8 609.2,281.3 610.2,303.6 611.2,292.1 612.2,296.5 613.1,300.9 614.1,293.9 615.1,295.3 616.1,305.2 617.1,304.7 618.1,300.3 619.1,302.0 620.1,297.5 621.1,295.0 622.1,296.6 623.1,292.7 624.1,298.7 625.1,291.1 626.1,289.9 627.1,292.8 628.1,302.6 629.1,303.5 630.1,301.6 631.1,297.5 632.1,303.0 633.1,302.5 634.1,299.3 635.1,300.0 636.1,295.7 637.1,300.6 638.1,302.5 639.1,302.2 640.1,300.7 641.1,305.4 642.0,305.1 643.0,301.0 644.0,294.2 645.0,301.0 646.0,298.9 647.0,290.4 648.0,295.9 649.0,294.1 650.0,301.3 651.0,298.2 652.0,299.2 653.0,302.6 654.0,300.9 655.0,299.2 656.0,302.7 657.0,303.6 658.0,299.5 659.0,304.4 660.0,298.2 661.0,302.7 662.0,304.9 663.0,303.3 664.0,303.8 665.0,305.7 666.0,294.6 667.0,306.7 668.0,303.7 669.0,295.1 670.0,294.1 670.9,293.7 671.9,295.9 672.9,295.9 673.9,298.1 674.9,284.7 675.9,294.9 676.9,298.6 677.9,296.3 678.9,294.2 679.9,300.6 680.9,294.3 681.9,295.9 682.9,303.8 683.9,295.8 684.9,302.6 685.9,297.7 686.9,300.0 687.9,300.7 688.9,298.3 689.9,294.8 690.9,295.8 691.9,303.0 692.9,295.6 693.9,296.0 694.9,295.2 695.9,295.3 696.9,295.0 697.9,299.9 698.9,299.0 699.8,295.9 700.8,303.3 701.8,302.9 702.8,298.2 703.8,305.5 704.8,300.9 705.8,300.4 706.8,305.2 707.8,295.8 708.8,301.8 709.8,303.2 710.8,304.6 711.8,299.1 712.8,301.0 713.8,298.0 714.8,298.8 715.8,297.3 716.8,300.8 717.8,296.0 718.8,293.0 719.8,284.2 720.8,298.8 721.8,293.9 722.8,298.9 723.8,298.8 724.8,298.0 725.8,291.0 726.8,292.3 727.8,298.2 728.7,297.5 729.7,297.5 730.7,298.5 731.7,288.2 732.7,296.5 733.7,297.3 734.7,301.7 735.7,301.0 736.7,305.4 737.7,295.8 738.7,295.1 739.7,299.8 740.7,289.6 741.7,296.7 742.7,295.1 743.7,295.1 744.7,294.8 745.7,297.5 746.7,299.5 747.7,295.8 748.7,297.0 749.7,291.7 750.7,285.1 751.7,299.7 752.7,301.0 753.7,293.6 754.7,302.3 755.7,297.5 756.7,307.7 757.6,292.5 758.6,304.9 759.6,304.1 760.6,291.9 761.6,305.2 762.6,297.8 763.6,298.1 764.6,307.4 765.6,305.4 766.6,294.0 767.6,284.5 768.6,295.7 769.6,281.6 770.6,295.8 771.6,307.1 772.6,303.5 773.6,299.2 774.6,301.5 775.6,309.0 776.6,287.8 777.6,293.3 778.6,314.3 779.6,300.8 780.6,304.2 781.6,299.2 782.6,305.4 783.6,297.5 784.6,303.5 785.6,297.3 786.5,286.2 787.5,295.6 788.5,293.4 789.5,295.3 790.5,292.6 791.5,295.0 792.5,297.5 793.5,303.2 794.5,307.8 795.5,295.2 796.5,306.6 797.5,305.0 798.5,305.4 799.5,303.1 800.5,297.4 801.5,293.5 802.5,305.0 803.5,310.4 804.5,306.6 805.5,309.4 806.5,304.0 807.5,307.8 808.5,308.2 809.5,299.0 810.5,288.2 811.5,297.1 812.5,298.1 813.5,298.6 814.5,298.7 815.5,295.2 816.4,305.8 817.4,307.8 818.4,304.4 819.4,309.3 820.4,306.7 821.4,303.2 822.4,303.6 823.4,296.5 824.4,304.1 825.4,305.5 826.4,308.2 827.4,291.8 828.4,301.9 829.4,305.3 830.4,302.2 831.4,300.9 832.4,302.7 833.4,295.0 834.4,295.0 835.4,295.3 836.4,299.1 837.4,299.0 838.4,300.9 839.4,304.6 840.4,307.3 841.4,303.1 842.4,300.9 843.4,303.0 844.4,290.9 845.3,301.1 846.3,301.9 847.3,302.0 848.3,295.6 849.3,306.6 850.3,304.1 851.3,288.8 852.3,297.4 853.3,295.3 854.3,295.7 855.3,296.1 856.3,306.3 857.3,300.3 858.3,304.9 859.3,295.7 860.3,303.6 861.3,305.1 862.3,302.6 863.3,301.6 864.3,285.2 865.3,304.3 866.3,334.7 867.3,343.7 868.3,343.8 869.3,343.5 870.3,344.0 871.3,319.0 872.3,342.3 873.3,343.1 874.2,342.6 875.2,343.4 876.2,343.4 877.2,343.4 878.2,338.9 879.2,343.5 880.2,344.5 881.2,342.7 882.2,342.0 883.2,343.8 884.2,343.0 885.2,343.2 886.2,340.3 887.2,342.7 888.2,343.4 889.2,342.2 890.2,343.9 891.2,341.8 892.2,341.2 893.2,342.8 894.2,342.4 895.2,343.3 896.2,344.8 897.2,343.7 898.2,343.3 899.2,344.0 900.2,342.7 901.2,343.5 902.2,341.8 903.1,340.1 904.1,342.3 905.1,342.4 906.1,339.6 907.1,341.5 908.1,340.5 909.1,343.1 910.1,341.6 911.1,340.5 912.1,342.3 913.1,342.5 914.1,342.2 915.1,343.0 916.1,342.6 917.1,342.9 918.1,343.5 919.1,342.4 920.1,340.9 921.1,341.4 922.1,342.5 923.1,343.3 924.1,343.5 925.1,343.3 926.1,343.2 927.1,342.6 928.1,341.1 929.1,340.9 930.1,341.6 931.1,340.6 932.0,341.3 933.0,341.0 934.0,342.8 935.0,341.5 936.0,342.2 937.0,341.5 938.0,342.8 939.0,341.0 940.0,340.5 941.0,341.9 942.0,341.5 943.0,341.0 944.0,338.4 945.0,325.0 946.0,338.0" fill="none" stroke="#2563eb" stroke-width="2.2" stroke-linejoin="round" stroke-linecap="round"/>
<polyline points="76.0,311.4 77.0,324.9 78.0,334.1 79.0,334.5 80.0,335.0 81.0,334.6 82.0,334.4 83.0,330.8 84.0,334.6 85.0,334.6 86.0,320.5 87.0,334.6 88.0,334.2 89.0,330.7 90.0,334.4 90.9,333.8 91.9,321.1 92.9,330.5 93.9,332.4 94.9,310.6 95.9,302.9 96.9,305.9 97.9,320.5 98.9,315.5 99.9,310.4 100.9,329.8 101.9,333.4 102.9,312.5 103.9,335.0 104.9,319.0 105.9,330.5 106.9,283.8 107.9,300.4 108.9,303.3 109.9,308.3 110.9,331.3 111.9,312.5 112.9,310.6 113.9,334.9 114.9,335.0 115.9,329.7 116.9,310.6 117.9,310.6 118.9,312.5 119.8,340.8 120.8,334.9 121.8,308.9 122.8,310.3 123.8,334.9 124.8,335.3 125.8,334.2 126.8,333.4 127.8,333.9 128.8,334.6 129.8,331.5 130.8,334.6 131.8,330.9 132.8,334.3 133.8,334.6 134.8,334.2 135.8,335.0 136.8,334.9 137.8,334.9 138.8,344.0 139.8,335.8 140.8,334.9 141.8,334.9 142.8,330.7 143.8,344.0 144.8,335.6 145.8,336.2 146.8,336.2 147.8,335.0 148.7,338.1 149.7,336.2 150.7,336.1 151.7,335.1 152.7,335.0 153.7,335.0 154.7,334.5 155.7,335.0 156.7,334.6 157.7,334.6 158.7,335.0 159.7,335.0 160.7,335.0 161.7,334.3 162.7,334.9 163.7,334.9 164.7,330.7 165.7,334.7 166.7,312.2 167.7,329.6 168.7,331.1 169.7,333.8 170.7,344.0 171.7,330.6 172.7,333.8 173.7,335.0 174.7,336.2 175.7,334.7 176.7,334.7 177.6,334.8 178.6,334.6 179.6,331.0 180.6,330.5 181.6,331.5 182.6,333.0 183.6,335.0 184.6,334.9 185.6,334.9 186.6,334.1 187.6,334.9 188.6,334.9 189.6,331.5 190.6,332.3 191.6,336.2 192.6,344.0 193.6,336.1 194.6,335.0 195.6,310.1 196.6,334.9 197.6,334.5 198.6,334.7 199.6,333.8 200.6,334.9 201.6,334.0 202.6,334.9 203.6,334.9 204.6,334.9 205.6,335.0 206.5,334.7 207.5,333.2 208.5,334.9 209.5,335.0 210.5,335.0 211.5,334.1 212.5,334.2 213.5,330.3 214.5,310.6 215.5,298.7 216.5,309.8 217.5,304.4 218.5,310.2 219.5,310.1 220.5,327.6 221.5,333.0 222.5,333.8 223.5,333.8 224.5,334.9 225.5,334.9 226.5,333.8 227.5,334.7 228.5,334.7 229.5,334.6 230.5,344.0 231.5,334.9 232.5,334.9 233.5,335.0 234.5,335.0 235.5,333.8 236.4,334.4 237.4,330.9 238.4,319.7 239.4,298.7 240.4,334.1 241.4,326.9 242.4,334.7 243.4,331.8 244.4,331.8 245.4,331.4 246.4,334.7 247.4,334.4 248.4,334.6 249.4,334.6 250.4,330.7 251.4,330.7 252.4,334.9 253.4,334.4 254.4,331.0 255.4,334.6 256.4,335.0 257.4,334.6 258.4,334.9 259.4,330.5 260.4,334.3 261.4,315.6 262.4,334.6 263.4,298.7 264.4,334.0 265.3,329.7 266.3,332.6 267.3,331.8 268.3,310.6 269.3,331.8 270.3,332.3 271.3,334.6 272.3,323.8 273.3,334.0 274.3,295.8 275.3,298.7 276.3,327.1 277.3,331.1 278.3,330.7 279.3,332.3 280.3,334.6 281.3,334.7 282.3,334.1 283.3,324.8 284.3,315.1 285.3,308.6 286.3,305.4 287.3,298.7 288.3,306.5 289.3,305.4 290.3,331.7 291.3,305.5 292.3,317.0 293.3,333.4 294.2,335.0 295.2,334.1 296.2,335.0 297.2,334.9 298.2,333.7 299.2,335.0 300.2,319.7 301.2,319.7 302.2,334.1 303.2,333.8 304.2,333.4 305.2,334.7 306.2,334.6 307.2,331.3 308.2,305.4 309.2,308.2 310.2,308.3 311.2,298.7 312.2,310.2 313.2,335.5 314.2,336.2 315.2,312.5 316.2,334.5 317.2,336.2 318.2,335.9 319.2,336.2 320.2,335.0 321.2,333.8 322.2,334.3 323.1,334.4 324.1,333.5 325.1,334.6 326.1,334.4 327.1,329.6 328.1,308.9 329.1,334.1 330.1,308.2 331.1,334.4 332.1,310.7 333.1,310.3 334.1,325.1 335.1,305.5 336.1,319.7 337.1,344.0 338.1,315.6 339.1,334.2 340.1,308.2 341.1,309.9 342.1,330.0 343.1,334.1 344.1,335.0 345.1,333.2 346.1,323.8 347.1,333.8 348.1,308.2 349.1,306.1 350.1,323.8 351.1,315.6 352.0,333.4 353.0,332.6 354.0,303.2 355.0,334.1 356.0,334.7 357.0,326.5 358.0,333.8 359.0,320.8 360.0,333.7 361.0,333.7 362.0,334.1 363.0,330.7 364.0,331.8 365.0,333.7 366.0,334.6 367.0,333.8 368.0,333.0 369.0,310.6 370.0,334.7 371.0,330.7 372.0,345.9 373.0,333.8 374.0,334.7 375.0,333.7 376.0,334.7 377.0,334.7 378.0,310.6 379.0,315.4 380.0,332.0 380.9,310.5 381.9,331.7 382.9,305.3 383.9,330.5 384.9,326.9 385.9,302.2 386.9,309.7 387.9,335.9 388.9,333.4 389.9,334.9 390.9,334.4 391.9,306.5 392.9,306.5 393.9,318.3 394.9,320.1 395.9,323.6 396.9,331.8 397.9,310.6 398.9,305.4 399.9,308.2 400.9,331.8 401.9,305.2 402.9,330.5 403.9,334.1 404.9,326.7 405.9,330.7 406.9,305.4 407.9,308.2 408.9,333.8 409.8,334.1 410.8,335.0 411.8,340.8 412.8,336.2 413.8,336.1 414.8,335.0 415.8,336.2 416.8,335.8 417.8,333.8 418.8,334.4 419.8,335.0 420.8,334.8 421.8,334.9 422.8,334.6 423.8,331.8 424.8,334.5 425.8,335.0 426.8,329.1 427.8,330.7 428.8,325.8 429.8,325.3 430.8,308.2 431.8,333.5 432.8,308.4 433.8,310.3 434.8,330.5 435.8,319.6 436.8,308.3 437.8,334.6 438.7,318.7 439.7,335.8 440.7,335.0 441.7,297.6 442.7,305.3 443.7,325.3 444.7,325.7 445.7,318.9 446.7,310.3 447.7,334.9 448.7,321.4 449.7,334.2 450.7,331.5 451.7,329.7 452.7,309.6 453.7,308.4 454.7,298.7 455.7,302.7 456.7,305.5 457.7,309.0 458.7,331.8 459.7,334.0 460.7,329.6 461.7,334.7 462.7,333.8 463.7,335.0 464.7,334.0 465.7,334.0 466.7,325.3 467.6,334.9 468.6,334.5 469.6,334.6 470.6,334.7 471.6,334.7 472.6,334.7 473.6,334.6 474.6,334.1 475.6,326.9 476.6,326.6 477.6,305.4 478.6,343.0 479.6,335.3 480.6,344.0 481.6,335.0 482.6,329.1 483.6,301.0 484.6,334.2 485.6,334.1 486.6,315.6 487.6,335.0 488.6,334.1 489.6,334.6 490.6,333.6 491.6,330.5 492.6,330.4 493.6,333.8 494.6,335.0 495.6,335.0 496.5,333.2 497.5,334.4 498.5,310.5 499.5,332.0 500.5,310.1 501.5,332.7 502.5,305.4 503.5,309.8 504.5,310.6 505.5,330.0 506.5,333.8 507.5,332.4 508.5,335.3 509.5,318.3 510.5,334.7 511.5,336.2 512.5,331.4 513.5,325.8 514.5,334.6 515.5,331.3 516.5,331.8 517.5,334.7 518.5,334.5 519.5,333.8 520.5,330.7 521.5,334.9 522.5,334.8 523.5,331.8 524.5,333.2 525.5,310.7 526.4,330.5 527.4,308.2 528.4,308.4 529.4,305.4 530.4,330.4 531.4,326.9 532.4,330.4 533.4,334.9 534.4,331.5 535.4,335.0 536.4,334.6 537.4,334.1 538.4,334.9 539.4,334.7 540.4,335.0 541.4,333.8 542.4,335.0 543.4,333.3 544.4,334.6 545.4,335.0 546.4,332.7 547.4,283.6 548.4,333.8 549.4,335.0 550.4,319.3 551.4,331.1 552.4,329.7 553.4,331.8 554.4,334.1 555.3,334.6 556.3,334.9 557.3,334.7 558.3,334.6 559.3,334.8 560.3,335.0 561.3,334.9 562.3,335.0 563.3,334.9 564.3,334.7 565.3,334.9 566.3,335.0 567.3,334.7 568.3,334.1 569.3,335.7 570.3,334.1 571.3,334.4 572.3,305.3 573.3,319.6 574.3,309.3 575.3,300.7 576.3,310.4 577.3,330.5 578.3,310.6 579.3,330.5 580.3,333.0 581.3,334.7 582.3,333.8 583.3,334.1 584.2,330.9 585.2,334.7 586.2,334.9 587.2,334.9 588.2,305.4 589.2,334.4 590.2,331.0 591.2,335.0 592.2,333.8 593.2,335.0 594.2,333.8 595.2,334.9 596.2,310.6 597.2,334.3 598.2,306.4 599.2,308.4 600.2,333.8 601.2,330.9 602.2,334.1 603.2,329.7 604.2,334.3 605.2,305.3 606.2,330.7 607.2,328.8 608.2,333.8 609.2,295.8 610.2,334.6 611.2,310.6 612.2,310.6 613.1,333.8 614.1,318.4 615.1,318.5 616.1,334.2 617.1,334.9 618.1,334.1 619.1,334.1 620.1,330.4 621.1,308.2 622.1,308.2 623.1,310.2 624.1,333.8 625.1,310.6 626.1,310.4 627.1,327.3 628.1,332.0 629.1,335.0 630.1,334.6 631.1,334.0 632.1,334.6 633.1,334.5 634.1,330.7 635.1,333.5 636.1,331.5 637.1,334.6 638.1,334.1 639.1,333.8 640.1,330.7 641.1,334.7 642.0,334.9 643.0,332.0 644.0,307.0 645.0,326.1 646.0,305.4 647.0,306.4 648.0,309.0 649.0,306.4 650.0,334.6 651.0,327.0 652.0,333.8 653.0,333.2 654.0,334.1 655.0,335.0 656.0,334.6 657.0,333.9 658.0,333.8 659.0,334.7 660.0,330.7 661.0,331.8 662.0,334.9 663.0,334.1 664.0,334.6 665.0,334.9 666.0,327.5 667.0,335.0 668.0,333.6 669.0,319.7 670.0,302.9 670.9,310.1 671.9,327.5 672.9,326.8 673.9,323.6 674.9,298.7 675.9,310.6 676.9,331.1 677.9,330.7 678.9,334.6 679.9,324.6 680.9,323.8 681.9,330.4 682.9,333.8 683.9,330.7 684.9,334.6 685.9,323.9 686.9,333.2 687.9,334.1 688.9,325.7 689.9,309.1 690.9,315.6 691.9,333.8 692.9,308.5 693.9,306.5 694.9,308.2 695.9,310.2 696.9,312.5 697.9,331.0 698.9,331.9 699.8,317.9 700.8,334.6 701.8,335.0 702.8,335.0 703.8,335.0 704.8,334.6 705.8,333.8 706.8,334.9 707.8,330.4 708.8,334.3 709.8,334.6 710.8,334.2 711.8,333.8 712.8,335.0 713.8,330.7 714.8,333.8 715.8,315.5 716.8,330.7 717.8,305.4 718.8,324.4 719.8,306.5 720.8,331.8 721.8,308.9 722.8,333.8 723.8,333.8 724.8,331.2 725.8,310.7 726.8,333.8 727.8,330.0 728.7,327.2 729.7,323.8 730.7,330.0 731.7,305.0 732.7,312.5 733.7,333.8 734.7,332.0 735.7,329.7 736.7,333.8 737.7,322.8 738.7,308.3 739.7,310.4 740.7,305.2 741.7,305.4 742.7,308.2 743.7,310.7 744.7,310.1 745.7,319.6 746.7,325.7 747.7,330.8 748.7,330.9 749.7,305.4 750.7,305.2 751.7,333.8 752.7,331.0 753.7,305.4 754.7,334.7 755.7,308.3 756.7,334.1 757.6,334.7 758.6,332.8 759.6,332.9 760.6,308.2 761.6,335.0 762.6,330.4 763.6,310.4 764.6,330.0 765.6,326.8 766.6,305.9 767.6,306.4 768.6,323.8 769.6,296.7 770.6,334.1 771.6,335.0 772.6,335.0 773.6,331.5 774.6,334.7 775.6,335.0 776.6,304.3 777.6,308.2 778.6,335.0 779.6,331.8 780.6,334.5 781.6,331.2 782.6,334.7 783.6,331.8 784.6,321.5 785.6,334.9 786.5,331.9 787.5,310.4 788.5,308.3 789.5,305.4 790.5,305.9 791.5,305.7 792.5,324.6 793.5,330.7 794.5,334.5 795.5,331.6 796.5,335.0 797.5,335.0 798.5,335.0 799.5,322.4 800.5,334.9 801.5,331.1 802.5,335.0 803.5,344.0 804.5,344.0 805.5,344.0 806.5,334.6 807.5,335.0 808.5,335.0 809.5,334.4 810.5,311.6 811.5,308.9 812.5,308.2 813.5,308.1 814.5,330.4 815.5,308.6 816.4,337.4 817.4,335.0 818.4,335.0 819.4,335.0 820.4,331.8 821.4,332.0 822.4,334.1 823.4,330.5 824.4,334.6 825.4,335.0 826.4,334.9 827.4,312.5 828.4,333.8 829.4,332.0 830.4,333.8 831.4,331.7 832.4,331.0 833.4,310.7 834.4,308.6 835.4,314.0 836.4,327.1 837.4,304.8 838.4,340.8 839.4,341.6 840.4,335.0 841.4,334.6 842.4,334.6 843.4,324.6 844.4,317.8 845.3,346.0 846.3,334.6 847.3,334.9 848.3,317.9 849.3,344.0 850.3,334.0 851.3,321.8 852.3,332.8 853.3,325.5 854.3,333.8 855.3,313.7 856.3,334.6 857.3,328.5 858.3,331.2 859.3,305.4 860.3,331.0 861.3,310.0 862.3,331.4 863.3,330.2 864.3,290.8 865.3,335.0 866.3,347.8 867.3,350.1 868.3,349.5 869.3,346.1 870.3,349.4 871.3,341.0 872.3,346.4 873.3,349.3 874.2,344.7 875.2,345.1 876.2,349.2 877.2,349.4 878.2,343.5 879.2,350.0 880.2,350.1 881.2,347.6 882.2,344.9 883.2,349.2 884.2,345.2 885.2,344.1 886.2,344.7 887.2,345.7 888.2,346.1 889.2,345.7 890.2,349.5 891.2,345.1 892.2,349.4 893.2,348.7 894.2,346.1 895.2,345.8 896.2,351.6 897.2,348.3 898.2,345.7 899.2,349.9 900.2,344.7 901.2,346.4 902.2,345.2 903.1,343.4 904.1,345.2 905.1,346.1 906.1,342.1 907.1,343.4 908.1,343.5 909.1,345.2 910.1,345.2 911.1,344.0 912.1,345.2 913.1,345.4 914.1,345.3 915.1,344.8 916.1,345.8 917.1,346.1 918.1,344.8 919.1,345.0 920.1,344.3 921.1,345.2 922.1,347.2 923.1,347.4 924.1,350.1 925.1,346.4 926.1,348.8 927.1,348.0 928.1,344.7 929.1,344.0 930.1,345.4 931.1,342.7 932.0,345.8 933.0,344.1 934.0,346.0 935.0,349.5 936.0,344.0 937.0,345.9 938.0,347.6 939.0,344.8 940.0,343.6 941.0,343.6 942.0,344.9 943.0,343.6 944.0,342.0 945.0,343.9 946.0,343.3" fill="none" stroke="#059669" stroke-width="2.2" stroke-linejoin="round" stroke-linecap="round"/>
<polyline points="76.0,208.9 77.0,216.7 78.0,223.4 79.0,228.3 80.0,236.4 81.0,228.3 82.0,223.3 83.0,216.9 84.0,223.4 85.0,223.3 86.0,199.8 87.0,223.4 88.0,224.6 89.0,223.3 90.0,226.2 90.9,227.6 91.9,211.5 92.9,216.7 93.9,236.0 94.9,216.6 95.9,215.8 96.9,199.8 97.9,220.3 98.9,223.2 99.9,223.4 100.9,220.5 101.9,223.3 102.9,213.2 103.9,216.6 104.9,200.1 105.9,199.8 106.9,160.5 107.9,170.2 108.9,170.2 109.9,209.6 110.9,215.8 111.9,209.6 112.9,208.2 113.9,233.3 114.9,241.0 115.9,230.2 116.9,223.3 117.9,223.8 118.9,223.4 119.8,227.6 120.8,220.4 121.8,213.7 122.8,221.6 123.8,214.1 124.8,236.4 125.8,233.9 126.8,228.8 127.8,229.4 128.8,230.2 129.8,223.4 130.8,223.4 131.8,224.4 132.8,227.8 133.8,231.4 134.8,223.4 135.8,236.4 136.8,240.4 137.8,233.6 138.8,244.6 139.8,239.4 140.8,240.4 141.8,238.9 142.8,236.3 143.8,251.7 144.8,206.3 145.8,236.6 146.8,237.6 147.8,234.6 148.7,248.7 149.7,242.6 150.7,246.3 151.7,241.1 152.7,232.3 153.7,233.3 154.7,228.3 155.7,223.5 156.7,229.7 157.7,233.3 158.7,246.2 159.7,238.6 160.7,241.0 161.7,231.4 162.7,230.1 163.7,230.4 164.7,216.6 165.7,239.0 166.7,223.4 167.7,231.9 168.7,231.4 169.7,242.9 170.7,248.9 171.7,223.4 172.7,227.9 173.7,242.4 174.7,237.1 175.7,229.7 176.7,234.8 177.6,236.4 178.6,233.2 179.6,223.4 180.6,223.4 181.6,230.1 182.6,233.2 183.6,241.8 184.6,237.6 185.6,246.3 186.6,230.4 187.6,230.5 188.6,237.1 189.6,236.4 190.6,236.6 191.6,241.3 192.6,240.4 193.6,240.4 194.6,233.2 195.6,200.3 196.6,223.3 197.6,223.4 198.6,216.6 199.6,229.6 200.6,233.3 201.6,231.4 202.6,233.3 203.6,230.8 204.6,236.3 205.6,236.3 206.5,233.3 207.5,230.2 208.5,238.7 209.5,238.8 210.5,237.6 211.5,228.0 212.5,226.9 213.5,237.0 214.5,226.6 215.5,232.3 216.5,231.4 217.5,207.0 218.5,223.4 219.5,223.3 220.5,223.3 221.5,225.0 222.5,223.4 223.5,236.4 224.5,236.4 225.5,231.9 226.5,230.2 227.5,235.6 228.5,236.3 229.5,236.7 230.5,251.5 231.5,233.3 232.5,233.3 233.5,241.1 234.5,241.0 235.5,233.3 236.4,232.1 237.4,225.6 238.4,223.4 239.4,241.1 240.4,223.4 241.4,199.8 242.4,231.6 243.4,233.2 244.4,223.4 245.4,228.7 246.4,233.2 247.4,236.4 248.4,233.2 249.4,232.7 250.4,233.7 251.4,223.4 252.4,238.3 253.4,233.9 254.4,223.4 255.4,232.6 256.4,238.6 257.4,240.5 258.4,247.9 259.4,224.1 260.4,223.3 261.4,224.5 262.4,234.8 263.4,247.0 264.4,227.7 265.3,223.2 266.3,223.4 267.3,225.2 268.3,222.7 269.3,229.5 270.3,223.4 271.3,228.1 272.3,212.0 273.3,223.2 274.3,160.5 275.3,171.2 276.3,200.0 277.3,210.4 278.3,201.6 279.3,223.4 280.3,232.3 281.3,227.9 282.3,226.7 283.3,216.8 284.3,216.6 285.3,223.4 286.3,200.0 287.3,227.0 288.3,199.8 289.3,199.8 290.3,223.4 291.3,210.4 292.3,217.0 293.3,224.4 294.2,223.4 295.2,224.5 296.2,224.1 297.2,226.6 298.2,223.4 299.2,233.2 300.2,208.9 301.2,221.6 302.2,233.3 303.2,232.1 304.2,223.3 305.2,228.3 306.2,230.2 307.2,223.4 308.2,202.6 309.2,220.4 310.2,223.2 311.2,257.5 312.2,219.7 313.2,214.4 314.2,240.0 315.2,215.3 316.2,228.3 317.2,233.5 318.2,241.1 319.2,240.7 320.2,233.2 321.2,233.2 322.2,227.4 323.1,223.4 324.1,240.4 325.1,231.6 326.1,230.9 327.1,218.4 328.1,210.8 329.1,228.0 330.1,182.3 331.1,231.0 332.1,214.8 333.1,222.1 334.1,223.4 335.1,227.6 336.1,214.7 337.1,240.7 338.1,215.1 339.1,221.5 340.1,199.7 341.1,197.1 342.1,195.3 343.1,216.6 344.1,210.6 345.1,223.4 346.1,170.2 347.1,220.5 348.1,205.1 349.1,205.7 350.1,199.8 351.1,221.7 352.0,228.0 353.0,223.4 354.0,168.9 355.0,223.3 356.0,231.5 357.0,223.2 358.0,223.4 359.0,176.3 360.0,200.3 361.0,226.2 362.0,231.6 363.0,223.4 364.0,209.8 365.0,233.3 366.0,232.6 367.0,224.4 368.0,223.4 369.0,220.4 370.0,230.2 371.0,223.3 372.0,251.8 373.0,231.2 374.0,231.4 375.0,230.2 376.0,233.1 377.0,233.1 378.0,224.5 379.0,223.2 380.0,223.3 380.9,223.3 381.9,223.3 382.9,214.8 383.9,223.4 384.9,214.7 385.9,213.3 386.9,223.3 387.9,233.1 388.9,214.9 389.9,223.3 390.9,219.0 391.9,209.6 392.9,200.3 393.9,215.1 394.9,223.3 395.9,215.1 396.9,232.5 397.9,223.3 398.9,205.7 399.9,207.1 400.9,223.3 401.9,223.4 402.9,223.3 403.9,233.2 404.9,223.4 405.9,234.8 406.9,223.2 407.9,223.0 408.9,223.4 409.8,223.9 410.8,231.2 411.8,248.1 412.8,233.3 413.8,235.7 414.8,239.4 415.8,233.2 416.8,229.7 417.8,215.5 418.8,231.7 419.8,233.2 420.8,233.2 421.8,233.1 422.8,228.3 423.8,225.3 424.8,231.2 425.8,240.6 426.8,220.4 427.8,223.3 428.8,223.4 429.8,228.4 430.8,226.3 431.8,226.6 432.8,210.1 433.8,213.3 434.8,220.4 435.8,226.5 436.8,213.9 437.8,223.3 438.7,215.7 439.7,224.2 440.7,233.2 441.7,170.2 442.7,199.8 443.7,223.3 444.7,200.5 445.7,212.4 446.7,214.7 447.7,233.1 448.7,221.6 449.7,228.3 450.7,223.3 451.7,215.7 452.7,212.4 453.7,200.0 454.7,192.4 455.7,194.7 456.7,208.9 457.7,200.0 458.7,215.1 459.7,228.0 460.7,213.3 461.7,233.3 462.7,223.1 463.7,222.6 464.7,223.4 465.7,219.0 466.7,223.2 467.6,240.4 468.6,226.2 469.6,231.5 470.6,233.2 471.6,226.7 472.6,233.2 473.6,236.3 474.6,240.4 475.6,223.5 476.6,224.2 477.6,223.4 478.6,233.2 479.6,227.8 480.6,223.4 481.6,231.7 482.6,226.6 483.6,92.4 484.6,215.1 485.6,223.3 486.6,213.8 487.6,231.5 488.6,230.2 489.6,223.4 490.6,223.4 491.6,223.3 492.6,220.4 493.6,223.2 494.6,233.2 495.6,238.4 496.5,233.2 497.5,231.7 498.5,213.9 499.5,223.4 500.5,223.3 501.5,238.0 502.5,232.3 503.5,217.1 504.5,212.6 505.5,230.2 506.5,226.8 507.5,230.5 508.5,233.4 509.5,200.3 510.5,233.3 511.5,233.3 512.5,216.7 513.5,220.5 514.5,228.0 515.5,220.3 516.5,219.8 517.5,226.9 518.5,231.9 519.5,233.0 520.5,223.3 521.5,237.7 522.5,240.3 523.5,225.0 524.5,236.6 525.5,223.3 526.4,227.9 527.4,211.9 528.4,214.8 529.4,214.8 530.4,223.3 531.4,223.3 532.4,217.0 533.4,234.2 534.4,224.1 535.4,231.5 536.4,223.4 537.4,223.4 538.4,236.6 539.4,216.9 540.4,233.6 541.4,224.5 542.4,236.6 543.4,223.3 544.4,231.8 545.4,231.4 546.4,223.3 547.4,168.8 548.4,223.3 549.4,224.5 550.4,224.6 551.4,226.7 552.4,223.4 553.4,223.3 554.4,239.7 555.3,223.4 556.3,230.2 557.3,223.4 558.3,228.4 559.3,226.6 560.3,238.6 561.3,232.1 562.3,236.6 563.3,236.3 564.3,232.3 565.3,236.4 566.3,233.6 567.3,240.4 568.3,223.4 569.3,241.1 570.3,212.7 571.3,225.1 572.3,205.7 573.3,213.8 574.3,223.4 575.3,201.9 576.3,223.3 577.3,223.1 578.3,223.4 579.3,231.5 580.3,223.4 581.3,236.3 582.3,223.4 583.3,226.9 584.2,222.4 585.2,223.4 586.2,234.7 587.2,235.8 588.2,200.3 589.2,230.5 590.2,230.2 591.2,235.3 592.2,230.2 593.2,232.1 594.2,216.6 595.2,232.6 596.2,212.7 597.2,230.1 598.2,222.9 599.2,219.7 600.2,225.0 601.2,223.4 602.2,223.4 603.2,219.7 604.2,229.3 605.2,196.0 606.2,220.2 607.2,212.0 608.2,231.5 609.2,170.2 610.2,230.2 611.2,199.8 612.2,220.0 613.1,216.7 614.1,210.0 615.1,215.8 616.1,239.5 617.1,231.5 618.1,223.3 619.1,227.9 620.1,223.3 621.1,209.9 622.1,223.4 623.1,207.1 624.1,223.3 625.1,200.0 626.1,199.8 627.1,201.8 628.1,223.4 629.1,235.0 630.1,223.4 631.1,216.6 632.1,230.6 633.1,231.6 634.1,219.9 635.1,223.3 636.1,214.8 637.1,231.3 638.1,230.2 639.1,231.4 640.1,236.4 641.1,240.4 642.0,229.4 643.0,228.0 644.0,218.7 645.0,227.7 646.0,227.9 647.0,204.0 648.0,220.5 649.0,215.5 650.0,226.7 651.0,224.4 652.0,225.1 653.0,232.1 654.0,231.5 655.0,223.4 656.0,229.2 657.0,236.3 658.0,223.7 659.0,237.1 660.0,225.0 661.0,231.4 662.0,236.4 663.0,236.3 664.0,233.4 665.0,237.6 666.0,212.1 667.0,228.0 668.0,233.2 669.0,222.8 670.0,223.2 670.9,222.2 671.9,222.3 672.9,215.1 673.9,223.4 674.9,172.5 675.9,210.3 676.9,223.3 677.9,214.0 678.9,217.9 679.9,231.6 680.9,215.8 681.9,214.9 682.9,232.2 683.9,222.0 684.9,227.8 685.9,223.3 686.9,223.3 687.9,230.1 688.9,220.4 689.9,211.4 690.9,208.2 691.9,232.6 692.9,223.1 693.9,224.4 694.9,218.9 695.9,223.2 696.9,211.8 697.9,228.8 698.9,223.6 699.8,223.3 700.8,233.2 701.8,229.9 702.8,223.3 703.8,236.3 704.8,223.7 705.8,223.4 706.8,236.8 707.8,214.9 708.8,230.2 709.8,227.6 710.8,234.1 711.8,223.7 712.8,225.3 713.8,222.3 714.8,223.4 715.8,224.5 716.8,223.4 717.8,218.4 718.8,208.6 719.8,195.0 720.8,224.5 721.8,212.1 722.8,229.2 723.8,223.3 724.8,223.4 725.8,199.9 726.8,208.3 727.8,223.4 728.7,217.7 729.7,220.4 730.7,223.4 731.7,189.0 732.7,215.4 733.7,223.4 734.7,230.2 735.7,224.4 736.7,233.2 737.7,219.1 738.7,216.6 739.7,233.2 740.7,198.6 741.7,223.3 742.7,223.6 743.7,216.6 744.7,223.3 745.7,223.4 746.7,223.4 747.7,221.2 748.7,215.8 749.7,200.2 750.7,183.2 751.7,223.4 752.7,223.7 753.7,200.5 754.7,227.0 755.7,226.5 756.7,241.1 757.6,239.9 758.6,237.3 759.6,236.6 760.6,192.0 761.6,244.7 762.6,208.6 763.6,233.3 764.6,241.0 765.6,240.2 766.6,223.5 767.6,174.1 768.6,223.3 769.6,194.8 770.6,229.1 771.6,236.2 772.6,241.0 773.6,220.4 774.6,228.2 775.6,256.0 776.6,170.2 777.6,200.3 778.6,256.2 779.6,223.4 780.6,226.2 781.6,223.3 782.6,236.7 783.6,223.3 784.6,230.2 785.6,216.6 786.5,181.2 787.5,223.4 788.5,204.6 789.5,210.1 790.5,208.6 791.5,200.0 792.5,223.8 793.5,227.4 794.5,243.2 795.5,213.2 796.5,240.6 797.5,224.6 798.5,231.9 799.5,230.1 800.5,241.0 801.5,229.3 802.5,237.6 803.5,247.8 804.5,245.3 805.5,252.0 806.5,236.3 807.5,238.6 808.5,240.9 809.5,199.5 810.5,194.9 811.5,224.5 812.5,218.0 813.5,223.5 814.5,216.6 815.5,216.7 816.4,233.2 817.4,236.3 818.4,237.1 819.4,245.8 820.4,238.2 821.4,237.1 822.4,230.8 823.4,207.1 824.4,236.3 825.4,233.2 826.4,240.9 827.4,213.1 828.4,223.4 829.4,236.4 830.4,227.7 831.4,224.6 832.4,230.2 833.4,214.8 834.4,222.2 835.4,216.8 836.4,223.3 837.4,229.9 838.4,224.9 839.4,227.8 840.4,257.6 841.4,230.2 842.4,236.7 843.4,235.8 844.4,223.4 845.3,231.8 846.3,223.4 847.3,223.3 848.3,211.7 849.3,242.1 850.3,225.6 851.3,200.2 852.3,220.4 853.3,223.3 854.3,223.4 855.3,214.7 856.3,233.5 857.3,223.3 858.3,238.6 859.3,223.3 860.3,241.1 861.3,240.4 862.3,223.4 863.3,225.0 864.3,198.4 865.3,237.3 866.3,299.1 867.3,332.3 868.3,333.7 869.3,330.9 870.3,331.5 871.3,256.7 872.3,327.6 873.3,327.7 874.2,331.7 875.2,333.7 876.2,332.3 877.2,331.6 878.2,322.4 879.2,331.5 880.2,332.9 881.2,331.0 882.2,328.4 883.2,333.2 884.2,329.7 885.2,329.7 886.2,329.6 887.2,330.4 888.2,331.5 889.2,327.6 890.2,331.5 891.2,329.1 892.2,327.7 893.2,330.3 894.2,328.4 895.2,331.3 896.2,335.3 897.2,331.5 898.2,330.0 899.2,331.5 900.2,330.0 901.2,331.6 902.2,327.6 903.1,329.0 904.1,330.0 905.1,328.8 906.1,326.0 907.1,327.7 908.1,327.5 909.1,329.2 910.1,328.1 911.1,327.6 912.1,329.0 913.1,331.5 914.1,327.6 915.1,329.6 916.1,328.9 917.1,331.5 918.1,331.5 919.1,330.1 920.1,322.8 921.1,329.3 922.1,331.5 923.1,331.8 924.1,331.3 925.1,329.1 926.1,331.5 927.1,332.5 928.1,325.5 929.1,325.9 930.1,328.4 931.1,324.7 932.0,330.2 933.0,327.0 934.0,328.8 935.0,329.0 936.0,327.6 937.0,326.7 938.0,331.4 939.0,326.1 940.0,332.9 941.0,327.7 942.0,323.0 943.0,325.8 944.0,322.4 945.0,317.8 946.0,322.6" fill="none" stroke="#d97706" stroke-width="2.2" stroke-linejoin="round" stroke-linecap="round"/>
<line x1="76" y1="70" x2="94" y2="70" stroke="#2563eb" stroke-width="3"/>
<text x="100" y="74" font-family="Arial, sans-serif" font-size="11" fill="#0f172a">avg fee</text>
<line x1="179" y1="70" x2="197" y2="70" stroke="#059669" stroke-width="3"/>
<text x="203" y="74" font-family="Arial, sans-serif" font-size="11" fill="#0f172a">median fee</text>
<line x1="303" y1="70" x2="321" y2="70" stroke="#d97706" stroke-width="3"/>
<text x="327" y="74" font-family="Arial, sans-serif" font-size="11" fill="#0f172a">p90 fee</text>
<text x="28" y="404" font-family="Arial, sans-serif" font-size="11" fill="#64748b">Source: hourly_features.csv</text>
</svg>