<svg xmlns="http://www.w3.org/2000/svg" width="980" height="420" viewBox="0 0 980 420">
<rect width="100%" height="100%" fill="#ffffff"/>
<text x="28" y="34" font-family="Arial, sans-serif" font-size="20" font-weight="700" fill="#0f172a">Hourly fee trend</text>
<text x="28" y="56" font-family="Arial, sans-serif" font-size="12" fill="#64748b">Average, median, and p90 total fee by hour</text>
<line x1="76" y1="362.0" x2="946" y2="362.0" stroke="#e2e8f0" stroke-width="1"/>
<text x="68" y="366.0" font-family="Arial, sans-serif" font-size="10" text-anchor="end" fill="#64748b">-382K</text>
<line x1="76" y1="292.0" x2="946" y2="292.0" stroke="#e2e8f0" stroke-width="1"/>
<text x="68" y="296.0" font-family="Arial, sans-serif" font-size="10" text-anchor="end" fill="#64748b">2.6M</text>
<line x1="76" y1="222.0" x2="946" y2="222.0" stroke="#e2e8f0" stroke-width="1"/>
<text x="68" y="226.0" font-family="Arial, sans-serif" font-size="10" text-anchor="end" fill="#64748b">5.7M</text>
<line x1="76" y1="152.0" x2="946" y2="152.0" stroke="#e2e8f0" stroke-width="1"/>
<text x="68" y="156.0" font-family="Arial, sans-serif" font-size="10" text-anchor="end" fill="#64748b">8.7M</text>
<line x1="76" y1="82.0" x2="946" y2="82.0" stroke="#e2e8f0" stroke-width="1"/>
<text x="68" y="86.0" font-family="Arial, sans-serif" font-size="10" text-anchor="end" fill="#64748b">11.7M</text>
<line x1="76" y1="362" x2="946" y2="362" stroke="#334155" stroke-width="1"/>
<line x1="76" y1="82" x2="76" y2="362" stroke="#334155" stroke-width="1"/>
<text x="76" y="72" font-family="Arial, sans-serif" font-size="11" fill="#64748b">nanoton</text>
<line x1="76.0" y1="362" x2="76.0" y2="366" stroke="#334155" stroke-width="1"/>
<text x="76.0" y="380" font-family="Arial, sans-serif" font-size="10" text-anchor="middle" fill="#64748b">0</text>
<line x1="511.0" y1="362" x2="511.0" y2="366" stroke="#334155" stroke-width="1"/>
<text x="511.0" y="380" font-family="Arial, sans-serif" font-size="10" text-anchor="middle" fill="#64748b">457</text>
<line x1="946.0" y1="362" x2="946.0" y2="366" stroke="#334155" stroke-width="1"/>
<text x="946.0" y="380" font-family="Arial, sans-serif" font-size="10" text-anchor="middle" fill="#64748b">914</text>
<polyline points="76.0,290.8 77.0,294.6 77.9,296.0 78.9,298.1 79.8,304.8 80.8,297.2 81.7,298.2 82.7,294.6 83.6,299.0 84.6,298.7 85.5,287.8 86.5,299.5 87.4,299.7 88.4,297.4 89.3,300.3 90.3,300.5 91.2,292.5 92.2,292.5 93.1,301.3 94.1,291.1 95.0,289.2 96.0,287.3 96.9,293.8 97.9,294.2 98.8,296.1 99.8,292.1 100.7,297.7 101.7,290.6 102.7,293.2 103.6,288.3 104.6,289.0 105.5,273.1 106.5,284.7 107.4,285.3 108.4,294.6 109.3,299.9 110.3,292.9 111.2,294.9 112.2,304.7 113.1,307.5 114.1,302.1 115.0,297.0 116.0,298.7 116.9,297.9 117.9,304.4 118.8,297.4 119.8,294.5 120.7,296.5 121.7,298.7 122.6,303.1 123.6,303.1 124.5,301.9 125.5,300.3 126.4,303.3 127.4,302.2 128.4,299.4 129.3,299.1 130.3,302.8 131.2,299.1 132.2,301.3 133.1,306.8 134.1,308.7 135.0,306.4 136.0,307.1 136.9,309.1 137.9,305.9 138.8,305.5 139.8,302.0 140.7,308.5 141.7,290.7 142.6,306.4 143.6,306.4 144.5,306.3 145.5,311.2 146.4,307.1 147.4,310.3 148.3,309.1 149.3,305.5 150.2,305.4 151.2,303.2 152.1,303.5 153.1,301.3 154.1,305.1 155.0,307.4 156.0,306.9 156.9,308.1 157.9,305.0 158.8,302.9 159.8,302.7 160.7,298.6 161.7,304.9 162.6,297.0 163.6,299.3 164.5,300.3 165.5,303.9 166.4,311.6 167.4,300.1 168.3,300.5 169.3,308.9 170.2,307.5 171.2,300.3 172.1,304.2 173.1,305.1 174.0,302.6 175.0,300.5 175.9,297.4 176.9,298.7 177.8,301.9 178.8,308.1 179.8,307.4 180.7,307.4 181.7,303.1 182.6,301.9 183.6,304.1 184.5,303.9 185.5,304.0 186.4,308.3 187.4,308.9 188.3,307.3 189.3,301.1 190.2,286.9 191.2,301.6 192.1,298.8 193.1,296.1 194.0,299.6 195.0,305.5 195.9,301.5 196.9,304.9 197.8,302.2 198.8,304.9 199.7,306.8 200.7,304.9 201.6,300.8 202.6,304.8 203.5,308.0 204.5,302.4 205.5,301.7 206.4,303.1 207.4,303.4 208.3,298.9 209.3,298.5 210.2,298.0 211.2,289.4 212.1,296.9 213.1,296.4 214.0,295.5 215.0,299.6 215.9,299.0 216.9,304.6 217.8,304.0 218.8,303.8 219.7,299.2 220.7,301.2 221.6,305.7 222.6,304.5 223.5,312.1 224.5,305.7 225.4,304.3 226.4,307.0 227.3,306.9 228.3,301.9 229.2,303.8 230.2,300.8 231.2,301.6 232.1,300.2 233.1,298.7 234.0,290.6 235.0,296.1 235.9,300.6 236.9,296.6 237.8,302.7 238.8,302.6 239.7,303.0 240.7,302.7 241.6,302.8 242.6,303.7 243.5,300.1 244.5,305.6 245.4,303.0 246.4,299.2 247.3,302.8 248.3,306.7 249.2,306.1 250.2,306.7 251.1,298.5 252.1,301.6 253.0,297.8 254.0,303.8 254.9,300.2 255.9,299.5 256.9,295.6 257.8,298.2 258.8,298.4 259.7,293.8 260.7,299.9 261.6,297.9 262.6,298.6 263.5,294.2 264.5,297.8 265.4,278.0 266.4,284.2 267.3,295.2 268.3,295.7 269.2,294.4 270.2,300.7 271.1,304.3 272.1,302.4 273.0,302.1 274.0,297.9 274.9,295.3 275.9,296.5 276.8,291.4 277.8,292.0 278.7,290.6 279.7,290.0 280.6,299.7 281.6,291.9 282.6,296.8 283.5,299.8 284.5,303.8 285.4,302.5 286.4,302.1 287.3,302.3 288.3,300.8 289.2,303.5 290.2,295.9 291.1,297.8 292.1,304.4 293.0,304.2 294.0,299.5 294.9,303.9 295.9,303.5 296.8,299.0 297.8,288.7 298.7,293.7 299.7,294.2 300.6,303.7 301.6,295.6 302.5,297.0 303.5,305.6 304.4,294.8 305.4,300.5 306.4,305.1 307.3,308.5 308.3,305.5 309.2,304.0 310.2,300.7 311.1,303.8 312.1,299.3 313.0,303.0 314.0,305.0 314.9,303.0 315.9,299.3 316.8,294.4 317.8,299.9 318.7,286.2 319.7,302.1 320.6,293.9 321.6,297.9 322.5,299.5 323.5,297.4 324.4,294.4 325.4,310.4 326.3,291.6 327.3,295.6 328.2,281.6 329.2,294.6 330.1,293.2 331.1,295.0 332.1,291.0 333.0,301.0 334.0,279.9 334.9,297.2 335.9,291.8 336.8,291.5 337.8,283.3 338.7,298.3 339.7,300.4 340.6,298.6 341.6,288.4 342.5,299.0 343.5,304.4 344.4,297.7 345.4,295.5 346.3,279.8 347.3,284.2 348.2,300.5 349.2,299.9 350.1,298.1 351.1,293.4 352.0,303.1 353.0,303.0 353.9,298.6 354.9,296.8 355.8,297.4 356.8,301.3 357.8,298.1 358.7,311.4 359.7,299.4 360.6,303.5 361.6,301.2 362.5,302.9 363.5,304.3 364.4,297.8 365.4,294.4 366.3,299.3 367.3,295.1 368.2,301.8 369.2,292.6 370.1,297.6 371.1,293.9 372.0,290.0 373.0,295.1 373.9,304.6 374.9,291.1 375.8,300.3 376.8,295.9 377.7,293.1 378.7,291.6 379.6,296.8 380.6,297.1 381.5,297.9 382.5,299.5 383.5,292.8 384.4,286.2 385.4,290.1 386.3,300.0 387.3,294.5 388.2,300.9 389.2,303.0 390.1,299.1 391.1,302.5 392.0,295.1 393.0,297.0 393.9,302.8 394.9,301.7 395.8,303.0 396.8,308.6 397.7,306.8 398.7,306.1 399.6,306.5 400.6,304.3 401.5,304.5 402.5,298.3 403.4,301.1 404.4,303.1 405.3,303.3 406.3,304.2 407.2,302.4 408.2,299.4 409.2,304.5 410.1,307.1 411.1,297.3 412.0,298.9 413.0,298.1 413.9,299.7 414.9,297.8 415.8,301.0 416.8,287.2 417.7,294.3 418.7,294.8 419.6,298.6 420.6,291.3 421.5,298.4 422.5,294.6 423.4,298.7 424.4,304.2 425.3,282.2 426.3,289.8 427.2,298.8 428.2,295.1 429.1,293.4 430.1,294.7 431.0,304.3 432.0,296.9 432.9,301.7 433.9,296.7 434.9,295.6 435.8,292.9 436.8,291.6 437.7,286.7 438.7,287.8 439.6,294.2 440.6,292.6 441.5,297.5 442.5,303.1 443.4,296.8 444.4,304.1 445.3,298.7 446.3,297.8 447.2,299.3 448.2,297.1 449.1,296.6 450.1,305.5 451.0,301.9 452.0,304.5 452.9,302.9 453.9,303.4 454.8,302.7 455.8,304.5 456.7,301.7 457.7,300.0 458.6,297.3 459.6,295.0 460.6,305.0 461.5,302.7 462.5,303.7 463.4,302.8 464.4,298.5 465.3,257.0 466.3,291.0 467.2,298.5 468.2,296.3 469.1,301.0 470.1,301.6 471.0,299.9 472.0,299.3 472.9,299.6 473.9,296.0 474.8,299.4 475.8,305.6 476.7,306.5 477.7,300.9 478.6,302.7 479.6,295.0 480.5,302.2 481.5,296.9 482.4,304.8 483.4,299.1 484.3,295.6 485.3,295.1 486.3,300.9 487.2,301.0 488.2,300.7 489.1,304.5 490.1,292.6 491.0,303.5 492.0,306.0 492.9,295.5 493.9,297.4 494.8,302.8 495.8,295.8 496.7,299.5 497.7,304.0 498.6,301.7 499.6,303.8 500.5,300.8 501.5,306.1 502.4,305.6 503.4,300.8 504.3,303.2 505.3,297.1 506.2,300.2 507.2,292.3 508.1,292.0 509.1,292.1 510.0,299.3 511.0,298.5 512.0,298.8 512.9,301.5 513.9,299.6 514.8,305.3 515.8,300.2 516.7,300.6 517.7,304.7 518.6,299.2 519.6,304.4 520.5,299.7 521.5,306.4 522.4,299.1 523.4,304.5 524.3,303.3 525.3,298.0 526.2,263.7 527.2,302.9 528.1,304.6 529.1,301.3 530.0,300.8 531.0,298.3 531.9,299.9 532.9,302.7 533.8,298.6 534.8,304.0 535.7,302.8 536.7,303.0 537.7,301.1 538.6,308.3 539.6,304.5 540.5,309.0 541.5,304.5 542.4,303.7 543.4,304.9 544.3,303.6 545.3,305.3 546.2,299.5 547.2,305.2 548.1,297.1 549.1,302.2 550.0,288.1 551.0,294.6 551.9,299.7 552.9,287.4 553.8,299.0 554.8,298.4 555.7,296.8 556.7,301.1 557.6,299.5 558.6,302.6 559.5,299.3 560.5,303.0 561.4,298.0 562.4,301.6 563.4,305.3 564.3,304.5 565.3,290.4 566.2,303.1 567.2,299.6 568.1,302.4 569.1,303.1 570.0,304.7 571.0,296.3 571.9,301.7 572.9,292.9 573.8,298.2 574.8,294.8 575.7,293.5 576.7,299.4 577.6,297.4 578.6,300.4 579.5,295.6 580.5,301.5 581.4,282.6 582.4,297.4 583.3,291.2 584.3,300.8 585.2,281.3 586.2,303.6 587.1,292.1 588.1,296.5 589.1,300.9 590.0,293.9 591.0,295.3 591.9,305.2 592.9,304.7 593.8,300.3 594.8,302.0 595.7,297.5 596.7,295.0 597.6,296.6 598.6,292.7 599.5,298.7 600.5,291.1 601.4,289.9 602.4,292.8 603.3,302.6 604.3,303.5 605.2,301.6 606.2,297.5 607.1,303.0 608.1,302.5 609.0,299.3 610.0,300.0 610.9,295.7 611.9,300.6 612.8,302.5 613.8,302.2 614.8,300.7 615.7,305.4 616.7,305.1 617.6,301.0 618.6,294.2 619.5,301.0 620.5,298.9 621.4,290.4 622.4,295.9 623.3,294.1 624.3,301.3 625.2,298.2 626.2,299.2 627.1,302.6 628.1,300.9 629.0,299.2 630.0,302.7 630.9,303.6 631.9,299.5 632.8,304.4 633.8,298.2 634.7,302.7 635.7,304.9 636.6,303.3 637.6,303.8 638.5,305.7 639.5,294.6 640.5,306.7 641.4,303.7 642.4,295.1 643.3,294.1 644.3,293.7 645.2,295.9 646.2,295.9 647.1,298.1 648.1,284.7 649.0,294.9 650.0,298.6 650.9,296.3 651.9,294.2 652.8,300.6 653.8,294.3 654.7,295.9 655.7,303.8 656.6,295.8 657.6,302.6 658.5,297.7 659.5,300.0 660.4,300.7 661.4,298.3 662.3,294.8 663.3,295.8 664.2,303.0 665.2,295.6 666.2,296.0 667.1,295.2 668.1,295.3 669.0,295.0 670.0,299.9 670.9,299.0 671.9,295.9 672.8,303.3 673.8,302.9 674.7,298.2 675.7,305.5 676.6,300.9 677.6,300.4 678.5,305.2 679.5,295.8 680.4,301.8 681.4,303.2 682.3,304.6 683.3,299.1 684.2,301.0 685.2,298.0 686.1,298.8 687.1,297.3 688.0,300.8 689.0,296.0 689.9,293.0 690.9,284.2 691.9,298.8 692.8,293.9 693.8,298.9 694.7,298.8 695.7,298.0 696.6,291.0 697.6,292.3 698.5,298.2 699.5,297.5 700.4,297.5 701.4,298.5 702.3,288.2 703.3,296.5 704.2,297.3 705.2,301.7 706.1,301.0 707.1,305.4 708.0,295.8 709.0,295.1 709.9,299.8 710.9,289.6 711.8,296.7 712.8,295.1 713.7,295.1 714.7,294.8 715.6,297.5 716.6,299.5 717.6,295.8 718.5,297.0 719.5,291.7 720.4,285.1 721.4,299.7 722.3,301.0 723.3,293.6 724.2,302.3 725.2,297.5 726.1,307.7 727.1,292.5 728.0,304.9 729.0,304.1 729.9,291.9 730.9,305.2 731.8,297.8 732.8,298.1 733.7,307.4 734.7,305.4 735.6,294.0 736.6,284.5 737.5,295.7 738.5,281.6 739.4,295.8 740.4,307.1 741.4,303.5 742.3,299.2 743.3,301.5 744.2,309.0 745.2,287.8 746.1,293.3 747.1,314.3 748.0,300.8 749.0,304.2 749.9,299.2 750.9,305.4 751.8,297.5 752.8,303.5 753.7,297.3 754.7,286.2 755.6,295.6 756.6,293.4 757.5,295.3 758.5,292.6 759.4,295.0 760.4,297.5 761.3,303.2 762.3,307.8 763.2,295.2 764.2,306.6 765.1,305.0 766.1,305.4 767.1,303.1 768.0,297.4 769.0,293.5 769.9,305.0 770.9,310.4 771.8,306.6 772.8,309.4 773.7,304.0 774.7,307.8 775.6,308.2 776.6,299.0 777.5,288.2 778.5,297.1 779.4,298.1 780.4,298.6 781.3,298.7 782.3,295.2 783.2,305.8 784.2,307.8 785.1,304.4 786.1,309.3 787.0,306.7 788.0,303.2 788.9,303.6 789.9,296.5 790.8,304.1 791.8,305.5 792.8,308.2 793.7,291.8 794.7,301.9 795.6,305.3 796.6,302.2 797.5,300.9 798.5,302.7 799.4,295.0 800.4,295.0 801.3,295.3 802.3,299.1 803.2,299.0 804.2,300.9 805.1,304.6 806.1,307.3 807.0,303.1 808.0,300.9 808.9,303.0 809.9,290.9 810.8,301.1 811.8,301.9 812.7,302.0 813.7,295.6 814.6,306.6 815.6,304.1 816.5,288.8 817.5,297.4 818.5,295.3 819.4,295.7 820.4,296.1 821.3,306.3 822.3,300.3 823.2,304.9 824.2,295.7 825.1,303.6 826.1,305.1 827.0,302.6 828.0,301.6 828.9,285.2 829.9,304.3 830.8,334.7 831.8,343.7 832.7,343.8 833.7,343.5 834.6,344.0 835.6,319.0 836.5,342.3 837.5,343.1 838.4,342.6 839.4,343.4 840.3,343.4 841.3,343.4 842.2,338.9 843.2,343.5 844.2,344.5 845.1,342.7 846.1,342.0 847.0,343.8 848.0,343.0 848.9,343.2 849.9,340.3 850.8,342.7 851.8,343.4 852.7,342.2 853.7,343.9 854.6,341.8 855.6,341.2 856.5,342.8 857.5,342.4 858.4,343.3 859.4,344.8 860.3,343.7 861.3,343.3 862.2,344.0 863.2,342.7 864.1,343.5 865.1,341.8 866.0,340.1 867.0,342.3 867.9,342.4 868.9,339.6 869.9,341.5 870.8,340.5 871.8,343.1 872.7,341.6 873.7,340.5 874.6,342.3 875.6,342.5 876.5,342.2 877.5,343.0 878.4,342.6 879.4,342.9 880.3,343.5 881.3,342.4 882.2,340.9 883.2,341.4 884.1,342.5 885.1,343.3 886.0,343.5 887.0,343.3 887.9,343.2 888.9,342.6 889.8,341.1 890.8,340.9 891.7,341.6 892.7,340.6 893.6,341.3 894.6,341.0 895.6,342.8 896.5,341.5 897.5,342.2 898.4,341.5 899.4,342.8 900.3,341.0 901.3,340.5 902.2,341.9 903.2,341.5 904.1,341.0 905.1,338.4 906.0,325.0 907.0,339.0 907.9,340.0 908.9,339.6 909.8,341.0 910.8,338.3 911.7,339.7 912.7,338.7 913.6,339.5 914.6,333.1 915.5,340.3 916.5,337.2 917.4,337.3 918.4,338.6 919.3,339.3 920.3,338.5 921.3,337.9 922.2,338.6 923.2,339.5 924.1,339.1 925.1,339.5 926.0,339.7 927.0,337.8 927.9,338.7 928.9,338.4 929.8,336.7 930.8,338.9 931.7,340.0 932.7,340.5 933.6,342.3 934.6,337.0 935.5,340.5 936.5,338.6 937.4,338.7 938.4,337.1 939.3,336.9 940.3,340.4 941.2,339.1 942.2,339.0 943.1,338.7 944.1,339.6 945.0,340.2 946.0,342.7" fill="none" stroke="#2563eb" stroke-width="2.2" stroke-linejoin="round" stroke-linecap="round"/>
<polyline points="76.0,311.4 77.0,324.9 77.9,334.1 78.9,334.5 79.8,335.0 80.8,334.6 81.7,334.4 82.7,330.8 83.6,334.6 84.6,334.6 85.5,320.5 86.5,334.6 87.4,334.2 88.4,330.7 89.3,334.4 90.3,333.8 91.2,321.1 92.2,330.5 93.1,332.4 94.1,310.6 95.0,302.9 96.0,305.9 96.9,320.5 97.9,315.5 98.8,310.4 99.8,329.8 100.7,333.4 101.7,312.5 102.7,335.0 103.6,319.0 104.6,330.5 105.5,283.8 106.5,300.4 107.4,303.3 108.4,308.3 109.3,331.3 110.3,312.5 111.2,310.6 112.2,334.9 113.1,335.0 114.1,329.7 115.0,310.6 116.0,310.6 116.9,312.5 117.9,340.8 118.8,334.9 119.8,308.9 120.7,310.3 121.7,334.9 122.6,335.3 123.6,334.2 124.5,333.4 125.5,333.9 126.4,334.6 127.4,331.5 128.4,334.6 129.3,330.9 130.3,334.3 131.2,334.6 132.2,334.2 133.1,335.0 134.1,334.9 135.0,334.9 136.0,344.0 136.9,335.8 137.9,334.9 138.8,334.9 139.8,330.7 140.7,344.0 141.7,335.6 142.6,336.2 143.6,336.2 144.5,335.0 145.5,338.1 146.4,336.2 147.4,336.1 148.3,335.1 149.3,335.0 150.2,335.0 151.2,334.5 152.1,335.0 153.1,334.6 154.1,334.6 155.0,335.0 156.0,335.0 156.9,335.0 157.9,334.3 158.8,334.9 159.8,334.9 160.7,330.7 161.7,334.7 162.6,312.2 163.6,329.6 164.5,331.1 165.5,333.8 166.4,344.0 167.4,330.6 168.3,333.8 169.3,335.0 170.2,336.2 171.2,334.7 172.1,334.7 173.1,334.8 174.0,334.6 175.0,331.0 175.9,330.5 176.9,331.5 177.8,333.0 178.8,335.0 179.8,334.9 180.7,334.9 181.7,334.1 182.6,334.9 183.6,334.9 184.5,331.5 185.5,332.3 186.4,336.2 187.4,344.0 188.3,336.1 189.3,335.0 190.2,310.1 191.2,334.9 192.1,334.5 193.1,334.7 194.0,333.8 195.0,334.9 195.9,334.0 196.9,334.9 197.8,334.9 198.8,334.9 199.7,335.0 200.7,334.7 201.6,333.2 202.6,334.9 203.5,335.0 204.5,335.0 205.5,334.1 206.4,334.2 207.4,330.3 208.3,310.6 209.3,298.7 210.2,309.8 211.2,304.4 212.1,310.2 213.1,310.1 214.0,327.6 215.0,333.0 215.9,333.8 216.9,333.8 217.8,334.9 218.8,334.9 219.7,333.8 220.7,334.7 221.6,334.7 222.6,334.6 223.5,344.0 224.5,334.9 225.4,334.9 226.4,335.0 227.3,335.0 228.3,333.8 229.2,334.4 230.2,330.9 231.2,319.7 232.1,298.7 233.1,334.1 234.0,326.9 235.0,334.7 235.9,331.8 236.9,331.8 237.8,331.4 238.8,334.7 239.7,334.4 240.7,334.6 241.6,334.6 242.6,330.7 243.5,330.7 244.5,334.9 245.4,334.4 246.4,331.0 247.3,334.6 248.3,335.0 249.2,334.6 250.2,334.9 251.1,330.5 252.1,334.3 253.0,315.6 254.0,334.6 254.9,298.7 255.9,334.0 256.9,329.7 257.8,332.6 258.8,331.8 259.7,310.6 260.7,331.8 261.6,332.3 262.6,334.6 263.5,323.8 264.5,334.0 265.4,295.8 266.4,298.7 267.3,327.1 268.3,331.1 269.2,330.7 270.2,332.3 271.1,334.6 272.1,334.7 273.0,334.1 274.0,324.8 274.9,315.1 275.9,308.6 276.8,305.4 277.8,298.7 278.7,306.5 279.7,305.4 280.6,331.7 281.6,305.5 282.6,317.0 283.5,333.4 284.5,335.0 285.4,334.1 286.4,335.0 287.3,334.9 288.3,333.7 289.2,335.0 290.2,319.7 291.1,319.7 292.1,334.1 293.0,333.8 294.0,333.4 294.9,334.7 295.9,334.6 296.8,331.3 297.8,305.4 298.7,308.2 299.7,308.3 300.6,298.7 301.6,310.2 302.5,335.5 303.5,336.2 304.4,312.5 305.4,334.5 306.4,336.2 307.3,335.9 308.3,336.2 309.2,335.0 310.2,333.8 311.1,334.3 312.1,334.4 313.0,333.5 314.0,334.6 314.9,334.4 315.9,329.6 316.8,308.9 317.8,334.1 318.7,308.2 319.7,334.4 320.6,310.7 321.6,310.3 322.5,325.1 323.5,305.5 324.4,319.7 325.4,344.0 326.3,315.6 327.3,334.2 328.2,308.2 329.2,309.9 330.1,330.0 331.1,334.1 332.1,335.0 333.0,333.2 334.0,323.8 334.9,333.8 335.9,308.2 336.8,306.1 337.8,323.8 338.7,315.6 339.7,333.4 340.6,332.6 341.6,303.2 342.5,334.1 343.5,334.7 344.4,326.5 345.4,333.8 346.3,320.8 347.3,333.7 348.2,333.7 349.2,334.1 350.1,330.7 351.1,331.8 352.0,333.7 353.0,334.6 353.9,333.8 354.9,333.0 355.8,310.6 356.8,334.7 357.8,330.7 358.7,345.9 359.7,333.8 360.6,334.7 361.6,333.7 362.5,334.7 363.5,334.7 364.4,310.6 365.4,315.4 366.3,332.0 367.3,310.5 368.2,331.7 369.2,305.3 370.1,330.5 371.1,326.9 372.0,302.2 373.0,309.7 373.9,335.9 374.9,333.4 375.8,334.9 376.8,334.4 377.7,306.5 378.7,306.5 379.6,318.3 380.6,320.1 381.5,323.6 382.5,331.8 383.5,310.6 384.4,305.4 385.4,308.2 386.3,331.8 387.3,305.2 388.2,330.5 389.2,334.1 390.1,326.7 391.1,330.7 392.0,305.4 393.0,308.2 393.9,333.8 394.9,334.1 395.8,335.0 396.8,340.8 397.7,336.2 398.7,336.1 399.6,335.0 400.6,336.2 401.5,335.8 402.5,333.8 403.4,334.4 404.4,335.0 405.3,334.8 406.3,334.9 407.2,334.6 408.2,331.8 409.2,334.5 410.1,335.0 411.1,329.1 412.0,330.7 413.0,325.8 413.9,325.3 414.9,308.2 415.8,333.5 416.8,308.4 417.7,310.3 418.7,330.5 419.6,319.6 420.6,308.3 421.5,334.6 422.5,318.7 423.4,335.8 424.4,335.0 425.3,297.6 426.3,305.3 427.2,325.3 428.2,325.7 429.1,318.9 430.1,310.3 431.0,334.9 432.0,321.4 432.9,334.2 433.9,331.5 434.9,329.7 435.8,309.6 436.8,308.4 437.7,298.7 438.7,302.7 439.6,305.5 440.6,309.0 441.5,331.8 442.5,334.0 443.4,329.6 444.4,334.7 445.3,333.8 446.3,335.0 447.2,334.0 448.2,334.0 449.1,325.3 450.1,334.9 451.0,334.5 452.0,334.6 452.9,334.7 453.9,334.7 454.8,334.7 455.8,334.6 456.7,334.1 457.7,326.9 458.6,326.6 459.6,305.4 460.6,343.0 461.5,335.3 462.5,344.0 463.4,335.0 464.4,329.1 465.3,301.0 466.3,334.2 467.2,334.1 468.2,315.6 469.1,335.0 470.1,334.1 471.0,334.6 472.0,333.6 472.9,330.5 473.9,330.4 474.8,333.8 475.8,335.0 476.7,335.0 477.7,333.2 478.6,334.4 479.6,310.5 480.5,332.0 481.5,310.1 482.4,332.7 483.4,305.4 484.3,309.8 485.3,310.6 486.3,330.0 487.2,333.8 488.2,332.4 489.1,335.3 490.1,318.3 491.0,334.7 492.0,336.2 492.9,331.4 493.9,325.8 494.8,334.6 495.8,331.3 496.7,331.8 497.7,334.7 498.6,334.5 499.6,333.8 500.5,330.7 501.5,334.9 502.4,334.8 503.4,331.8 504.3,333.2 505.3,310.7 506.2,330.5 507.2,308.2 508.1,308.4 509.1,305.4 510.0,330.4 511.0,326.9 512.0,330.4 512.9,334.9 513.9,331.5 514.8,335.0 515.8,334.6 516.7,334.1 517.7,334.9 518.6,334.7 519.6,335.0 520.5,333.8 521.5,335.0 522.4,333.3 523.4,334.6 524.3,335.0 525.3,332.7 526.2,283.6 527.2,333.8 528.1,335.0 529.1,319.3 530.0,331.1 531.0,329.7 531.9,331.8 532.9,334.1 533.8,334.6 534.8,334.9 535.7,334.7 536.7,334.6 537.7,334.8 538.6,335.0 539.6,334.9 540.5,335.0 541.5,334.9 542.4,334.7 543.4,334.9 544.3,335.0 545.3,334.7 546.2,334.1 547.2,335.7 548.1,334.1 549.1,334.4 550.0,305.3 551.0,319.6 551.9,309.3 552.9,300.7 553.8,310.4 554.8,330.5 555.7,310.6 556.7,330.5 557.6,333.0 558.6,334.7 559.5,333.8 560.5,334.1 561.4,330.9 562.4,334.7 563.4,334.9 564.3,334.9 565.3,305.4 566.2,334.4 567.2,331.0 568.1,335.0 569.1,333.8 570.0,335.0 571.0,333.8 571.9,334.9 572.9,310.6 573.8,334.3 574.8,306.4 575.7,308.4 576.7,333.8 577.6,330.9 578.6,334.1 579.5,329.7 580.5,334.3 581.4,305.3 582.4,330.7 583.3,328.8 584.3,333.8 585.2,295.8 586.2,334.6 587.1,310.6 588.1,310.6 589.1,333.8 590.0,318.4 591.0,318.5 591.9,334.2 592.9,334.9 593.8,334.1 594.8,334.1 595.7,330.4 596.7,308.2 597.6,308.2 598.6,310.2 599.5,333.8 600.5,310.6 601.4,310.4 602.4,327.3 603.3,332.0 604.3,335.0 605.2,334.6 606.2,334.0 607.1,334.6 608.1,334.5 609.0,330.7 610.0,333.5 610.9,331.5 611.9,334.6 612.8,334.1 613.8,333.8 614.8,330.7 615.7,334.7 616.7,334.9 617.6,332.0 618.6,307.0 619.5,326.1 620.5,305.4 621.4,306.4 622.4,309.0 623.3,306.4 624.3,334.6 625.2,327.0 626.2,333.8 627.1,333.2 628.1,334.1 629.0,335.0 630.0,334.6 630.9,333.9 631.9,333.8 632.8,334.7 633.8,330.7 634.7,331.8 635.7,334.9 636.6,334.1 637.6,334.6 638.5,334.9 639.5,327.5 640.5,335.0 641.4,333.6 642.4,319.7 643.3,302.9 644.3,310.1 645.2,327.5 646.2,326.8 647.1,323.6 648.1,298.7 649.0,310.6 650.0,331.1 650.9,330.7 651.9,334.6 652.8,324.6 653.8,323.8 654.7,330.4 655.7,333.8 656.6,330.7 657.6,334.6 658.5,323.9 659.5,333.2 660.4,334.1 661.4,325.7 662.3,309.1 663.3,315.6 664.2,333.8 665.2,308.5 666.2,306.5 667.1,308.2 668.1,310.2 669.0,312.5 670.0,331.0 670.9,331.9 671.9,317.9 672.8,334.6 673.8,335.0 674.7,335.0 675.7,335.0 676.6,334.6 677.6,333.8 678.5,334.9 679.5,330.4 680.4,334.3 681.4,334.6 682.3,334.2 683.3,333.8 684.2,335.0 685.2,330.7 686.1,333.8 687.1,315.5 688.0,330.7 689.0,305.4 689.9,324.4 690.9,306.5 691.9,331.8 692.8,308.9 693.8,333.8 694.7,333.8 695.7,331.2 696.6,310.7 697.6,333.8 698.5,330.0 699.5,327.2 700.4,323.8 701.4,330.0 702.3,305.0 703.3,312.5 704.2,333.8 705.2,332.0 706.1,329.7 707.1,333.8 708.0,322.8 709.0,308.3 709.9,310.4 710.9,305.2 711.8,305.4 712.8,308.2 713.7,310.7 714.7,310.1 715.6,319.6 716.6,325.7 717.6,330.8 718.5,330.9 719.5,305.4 720.4,305.2 721.4,333.8 722.3,331.0 723.3,305.4 724.2,334.7 725.2,308.3 726.1,334.1 727.1,334.7 728.0,332.8 729.0,332.9 729.9,308.2 730.9,335.0 731.8,330.4 732.8,310.4 733.7,330.0 734.7,326.8 735.6,305.9 736.6,306.4 737.5,323.8 738.5,296.7 739.4,334.1 740.4,335.0 741.4,335.0 742.3,331.5 743.3,334.7 744.2,335.0 745.2,304.3 746.1,308.2 747.1,335.0 748.0,331.8 749.0,334.5 749.9,331.2 750.9,334.7 751.8,331.8 752.8,321.5 753.7,334.9 754.7,331.9 755.6,310.4 756.6,308.3 757.5,305.4 758.5,305.9 759.4,305.7 760.4,324.6 761.3,330.7 762.3,334.5 763.2,331.6 764.2,335.0 765.1,335.0 766.1,335.0 767.1,322.4 768.0,334.9 769.0,331.1 769.9,335.0 770.9,344.0 771.8,344.0 772.8,344.0 773.7,334.6 774.7,335.0 775.6,335.0 776.6,334.4 777.5,311.6 778.5,308.9 779.4,308.2 780.4,308.1 781.3,330.4 782.3,308.6 783.2,337.4 784.2,335.0 785.1,335.0 786.1,335.0 787.0,331.8 788.0,332.0 788.9,334.1 789.9,330.5 790.8,334.6 791.8,335.0 792.8,334.9 793.7,312.5 794.7,333.8 795.6,332.0 796.6,333.8 797.5,331.7 798.5,331.0 799.4,310.7 800.4,308.6 801.3,314.0 802.3,327.1 803.2,304.8 804.2,340.8 805.1,341.6 806.1,335.0 807.0,334.6 808.0,334.6 808.9,324.6 809.9,317.8 810.8,346.0 811.8,334.6 812.7,334.9 813.7,317.9 814.6,344.0 815.6,334.0 816.5,321.8 817.5,332.8 818.5,325.5 819.4,333.8 820.4,313.7 821.3,334.6 822.3,328.5 823.2,331.2 824.2,305.4 825.1,331.0 826.1,310.0 827.0,331.4 828.0,330.2 828.9,290.8 829.9,335.0 830.8,347.8 831.8,350.1 832.7,349.5 833.7,346.1 834.6,349.4 835.6,341.0 836.5,346.4 837.5,349.3 838.4,344.7 839.4,345.1 840.3,349.2 841.3,349.4 842.2,343.5 843.2,350.0 844.2,350.1 845.1,347.6 846.1,344.9 847.0,349.2 848.0,345.2 848.9,344.1 849.9,344.7 850.8,345.7 851.8,346.1 852.7,345.7 853.7,349.5 854.6,345.1 855.6,349.4 856.5,348.7 857.5,346.1 858.4,345.8 859.4,351.6 860.3,348.3 861.3,345.7 862.2,349.9 863.2,344.7 864.1,346.4 865.1,345.2 866.0,343.4 867.0,345.2 867.9,346.1 868.9,342.1 869.9,343.4 870.8,343.5 871.8,345.2 872.7,345.2 873.7,344.0 874.6,345.2 875.6,345.4 876.5,345.3 877.5,344.8 878.4,345.8 879.4,346.1 880.3,344.8 881.3,345.0 882.2,344.3 883.2,345.2 884.1,347.2 885.1,347.4 886.0,350.1 887.0,346.4 887.9,348.8 888.9,348.0 889.8,344.7 890.8,344.0 891.7,345.4 892.7,342.7 893.6,345.8 894.6,344.1 895.6,346.0 896.5,349.5 897.5,344.0 898.4,345.9 899.4,347.6 900.3,344.8 901.3,343.6 902.2,343.6 903.2,344.9 904.1,343.6 905.1,342.0 906.0,343.9 907.0,342.7 907.9,343.4 908.9,341.6 909.8,343.4 910.8,341.5 911.7,342.3 912.7,342.7 913.6,341.5 914.6,341.0 915.5,342.2 916.5,341.2 917.4,340.3 918.4,342.4 919.3,341.6 920.3,341.6 921.3,341.4 922.2,341.5 923.2,341.6 924.1,342.3 925.1,342.2 926.0,341.8 927.0,340.9 927.9,342.0 928.9,341.6 929.8,341.8 930.8,342.0 931.7,343.4 932.7,341.9 933.6,345.8 934.6,341.6 935.5,343.4 936.5,341.6 937.4,341.6 938.4,338.9 939.3,339.8 940.3,342.4 941.2,341.6 942.2,342.1 943.1,342.6 944.1,341.8 945.0,343.4 946.0,349.4" fill="none" stroke="#059669" stroke-width="2.2" stroke-linejoin="round" stroke-linecap="round"/>
<polyline points="76.0,208.9 77.0,216.7 77.9,223.4 78.9,228.3 79.8,236.4 80.8,228.3 81.7,223.3 82.7,216.9 83.6,223.4 84.6,223.3 85.5,199.8 86.5,223.4 87.4,224.6 88.4,223.3 89.3,226.2 90.3,227.6 91.2,211.5 92.2,216.7 93.1,236.0 94.1,216.6 95.0,215.8 96.0,199.8 96.9,220.3 97.9,223.2 98.8,223.4 99.8,220.5 100.7,223.3 101.7,213.2 102.7,216.6 103.6,200.1 104.6,199.8 105.5,160.5 106.5,170.2 107.4,170.2 108.4,209.6 109.3,215.8 110.3,209.6 111.2,208.2 112.2,233.3 113.1,241.0 114.1,230.2 115.0,223.3 116.0,223.8 116.9,223.4 117.9,227.6 118.8,220.4 119.8,213.7 120.7,221.6 121.7,214.1 122.6,236.4 123.6,233.9 124.5,228.8 125.5,229.4 126.4,230.2 127.4,223.4 128.4,223.4 129.3,224.4 130.3,227.8 131.2,231.4 132.2,223.4 133.1,236.4 134.1,240.4 135.0,233.6 136.0,244.6 136.9,239.4 137.9,240.4 138.8,238.9 139.8,236.3 140.7,251.7 141.7,206.3 142.6,236.6 143.6,237.6 144.5,234.6 145.5,248.7 146.4,242.6 147.4,246.3 148.3,241.1 149.3,232.3 150.2,233.3 151.2,228.3 152.1,223.5 153.1,229.7 154.1,233.3 155.0,246.2 156.0,238.6 156.9,241.0 157.9,231.4 158.8,230.1 159.8,230.4 160.7,216.6 161.7,239.0 162.6,223.4 163.6,231.9 164.5,231.4 165.5,242.9 166.4,248.9 167.4,223.4 168.3,227.9 169.3,242.4 170.2,237.1 171.2,229.7 172.1,234.8 173.1,236.4 174.0,233.2 175.0,223.4 175.9,223.4 176.9,230.1 177.8,233.2 178.8,241.8 179.8,237.6 180.7,246.3 181.7,230.4 182.6,230.5 183.6,237.1 184.5,236.4 185.5,236.6 186.4,241.3 187.4,240.4 188.3,240.4 189.3,233.2 190.2,200.3 191.2,223.3 192.1,223.4 193.1,216.6 194.0,229.6 195.0,233.3 195.9,231.4 196.9,233.3 197.8,230.8 198.8,236.3 199.7,236.3 200.7,233.3 201.6,230.2 202.6,238.7 203.5,238.8 204.5,237.6 205.5,228.0 206.4,226.9 207.4,237.0 208.3,226.6 209.3,232.3 210.2,231.4 211.2,207.0 212.1,223.4 213.1,223.3 214.0,223.3 215.0,225.0 215.9,223.4 216.9,236.4 217.8,236.4 218.8,231.9 219.7,230.2 220.7,235.6 221.6,236.3 222.6,236.7 223.5,251.5 224.5,233.3 225.4,233.3 226.4,241.1 227.3,241.0 228.3,233.3 229.2,232.1 230.2,225.6 231.2,223.4 232.1,241.1 233.1,223.4 234.0,199.8 235.0,231.6 235.9,233.2 236.9,223.4 237.8,228.7 238.8,233.2 239.7,236.4 240.7,233.2 241.6,232.7 242.6,233.7 243.5,223.4 244.5,238.3 245.4,233.9 246.4,223.4 247.3,232.6 248.3,238.6 249.2,240.5 250.2,247.9 251.1,224.1 252.1,223.3 253.0,224.5 254.0,234.8 254.9,247.0 255.9,227.7 256.9,223.2 257.8,223.4 258.8,225.2 259.7,222.7 260.7,229.5 261.6,223.4 262.6,228.1 263.5,212.0 264.5,223.2 265.4,160.5 266.4,171.2 267.3,200.0 268.3,210.4 269.2,201.6 270.2,223.4 271.1,232.3 272.1,227.9 273.0,226.7 274.0,216.8 274.9,216.6 275.9,223.4 276.8,200.0 277.8,227.0 278.7,199.8 279.7,199.8 280.6,223.4 281.6,210.4 282.6,217.0 283.5,224.4 284.5,223.4 285.4,224.5 286.4,224.1 287.3,226.6 288.3,223.4 289.2,233.2 290.2,208.9 291.1,221.6 292.1,233.3 293.0,232.1 294.0,223.3 294.9,228.3 295.9,230.2 296.8,223.4 297.8,202.6 298.7,220.4 299.7,223.2 300.6,257.5 301.6,219.7 302.5,214.4 303.5,240.0 304.4,215.3 305.4,228.3 306.4,233.5 307.3,241.1 308.3,240.7 309.2,233.2 310.2,233.2 311.1,227.4 312.1,223.4 313.0,240.4 314.0,231.6 314.9,230.9 315.9,218.4 316.8,210.8 317.8,228.0 318.7,182.3 319.7,231.0 320.6,214.8 321.6,222.1 322.5,223.4 323.5,227.6 324.4,214.7 325.4,240.7 326.3,215.1 327.3,221.5 328.2,199.7 329.2,197.1 330.1,195.3 331.1,216.6 332.1,210.6 333.0,223.4 334.0,170.2 334.9,220.5 335.9,205.1 336.8,205.7 337.8,199.8 338.7,221.7 339.7,228.0 340.6,223.4 341.6,168.9 342.5,223.3 343.5,231.5 344.4,223.2 345.4,223.4 346.3,176.3 347.3,200.3 348.2,226.2 349.2,231.6 350.1,223.4 351.1,209.8 352.0,233.3 353.0,232.6 353.9,224.4 354.9,223.4 355.8,220.4 356.8,230.2 357.8,223.3 358.7,251.8 359.7,231.2 360.6,231.4 361.6,230.2 362.5,233.1 363.5,233.1 364.4,224.5 365.4,223.2 366.3,223.3 367.3,223.3 368.2,223.3 369.2,214.8 370.1,223.4 371.1,214.7 372.0,213.3 373.0,223.3 373.9,233.1 374.9,214.9 375.8,223.3 376.8,219.0 377.7,209.6 378.7,200.3 379.6,215.1 380.6,223.3 381.5,215.1 382.5,232.5 383.5,223.3 384.4,205.7 385.4,207.1 386.3,223.3 387.3,223.4 388.2,223.3 389.2,233.2 390.1,223.4 391.1,234.8 392.0,223.2 393.0,223.0 393.9,223.4 394.9,223.9 395.8,231.2 396.8,248.1 397.7,233.3 398.7,235.7 399.6,239.4 400.6,233.2 401.5,229.7 402.5,215.5 403.4,231.7 404.4,233.2 405.3,233.2 406.3,233.1 407.2,228.3 408.2,225.3 409.2,231.2 410.1,240.6 411.1,220.4 412.0,223.3 413.0,223.4 413.9,228.4 414.9,226.3 415.8,226.6 416.8,210.1 417.7,213.3 418.7,220.4 419.6,226.5 420.6,213.9 421.5,223.3 422.5,215.7 423.4,224.2 424.4,233.2 425.3,170.2 426.3,199.8 427.2,223.3 428.2,200.5 429.1,212.4 430.1,214.7 431.0,233.1 432.0,221.6 432.9,228.3 433.9,223.3 434.9,215.7 435.8,212.4 436.8,200.0 437.7,192.4 438.7,194.7 439.6,208.9 440.6,200.0 441.5,215.1 442.5,228.0 443.4,213.3 444.4,233.3 445.3,223.1 446.3,222.6 447.2,223.4 448.2,219.0 449.1,223.2 450.1,240.4 451.0,226.2 452.0,231.5 452.9,233.2 453.9,226.7 454.8,233.2 455.8,236.3 456.7,240.4 457.7,223.5 458.6,224.2 459.6,223.4 460.6,233.2 461.5,227.8 462.5,223.4 463.4,231.7 464.4,226.6 465.3,92.4 466.3,215.1 467.2,223.3 468.2,213.8 469.1,231.5 470.1,230.2 471.0,223.4 472.0,223.4 472.9,223.3 473.9,220.4 474.8,223.2 475.8,233.2 476.7,238.4 477.7,233.2 478.6,231.7 479.6,213.9 480.5,223.4 481.5,223.3 482.4,238.0 483.4,232.3 484.3,217.1 485.3,212.6 486.3,230.2 487.2,226.8 488.2,230.5 489.1,233.4 490.1,200.3 491.0,233.3 492.0,233.3 492.9,216.7 493.9,220.5 494.8,228.0 495.8,220.3 496.7,219.8 497.7,226.9 498.6,231.9 499.6,233.0 500.5,223.3 501.5,237.7 502.4,240.3 503.4,225.0 504.3,236.6 505.3,223.3 506.2,227.9 507.2,211.9 508.1,214.8 509.1,214.8 510.0,223.3 511.0,223.3 512.0,217.0 512.9,234.2 513.9,224.1 514.8,231.5 515.8,223.4 516.7,223.4 517.7,236.6 518.6,216.9 519.6,233.6 520.5,224.5 521.5,236.6 522.4,223.3 523.4,231.8 524.3,231.4 525.3,223.3 526.2,168.8 527.2,223.3 528.1,224.5 529.1,224.6 530.0,226.7 531.0,223.4 531.9,223.3 532.9,239.7 533.8,223.4 534.8,230.2 535.7,223.4 536.7,228.4 537.7,226.6 538.6,238.6 539.6,232.1 540.5,236.6 541.5,236.3 542.4,232.3 543.4,236.4 544.3,233.6 545.3,240.4 546.2,223.4 547.2,241.1 548.1,212.7 549.1,225.1 550.0,205.7 551.0,213.8 551.9,223.4 552.9,201.9 553.8,223.3 554.8,223.1 555.7,223.4 556.7,231.5 557.6,223.4 558.6,236.3 559.5,223.4 560.5,226.9 561.4,222.4 562.4,223.4 563.4,234.7 564.3,235.8 565.3,200.3 566.2,230.5 567.2,230.2 568.1,235.3 569.1,230.2 570.0,232.1 571.0,216.6 571.9,232.6 572.9,212.7 573.8,230.1 574.8,222.9 575.7,219.7 576.7,225.0 577.6,223.4 578.6,223.4 579.5,219.7 580.5,229.3 581.4,196.0 582.4,220.2 583.3,212.0 584.3,231.5 585.2,170.2 586.2,230.2 587.1,199.8 588.1,220.0 589.1,216.7 590.0,210.0 591.0,215.8 591.9,239.5 592.9,231.5 593.8,223.3 594.8,227.9 595.7,223.3 596.7,209.9 597.6,223.4 598.6,207.1 599.5,223.3 600.5,200.0 601.4,199.8 602.4,201.8 603.3,223.4 604.3,235.0 605.2,223.4 606.2,216.6 607.1,230.6 608.1,231.6 609.0,219.9 610.0,223.3 610.9,214.8 611.9,231.3 612.8,230.2 613.8,231.4 614.8,236.4 615.7,240.4 616.7,229.4 617.6,228.0 618.6,218.7 619.5,227.7 620.5,227.9 621.4,204.0 622.4,220.5 623.3,215.5 624.3,226.7 625.2,224.4 626.2,225.1 627.1,232.1 628.1,231.5 629.0,223.4 630.0,229.2 630.9,236.3 631.9,223.7 632.8,237.1 633.8,225.0 634.7,231.4 635.7,236.4 636.6,236.3 637.6,233.4 638.5,237.6 639.5,212.1 640.5,228.0 641.4,233.2 642.4,222.8 643.3,223.2 644.3,222.2 645.2,222.3 646.2,215.1 647.1,223.4 648.1,172.5 649.0,210.3 650.0,223.3 650.9,214.0 651.9,217.9 652.8,231.6 653.8,215.8 654.7,214.9 655.7,232.2 656.6,222.0 657.6,227.8 658.5,223.3 659.5,223.3 660.4,230.1 661.4,220.4 662.3,211.4 663.3,208.2 664.2,232.6 665.2,223.1 666.2,224.4 667.1,218.9 668.1,223.2 669.0,211.8 670.0,228.8 670.9,223.6 671.9,223.3 672.8,233.2 673.8,229.9 674.7,223.3 675.7,236.3 676.6,223.7 677.6,223.4 678.5,236.8 679.5,214.9 680.4,230.2 681.4,227.6 682.3,234.1 683.3,223.7 684.2,225.3 685.2,222.3 686.1,223.4 687.1,224.5 688.0,223.4 689.0,218.4 689.9,208.6 690.9,195.0 691.9,224.5 692.8,212.1 693.8,229.2 694.7,223.3 695.7,223.4 696.6,199.9 697.6,208.3 698.5,223.4 699.5,217.7 700.4,220.4 701.4,223.4 702.3,189.0 703.3,215.4 704.2,223.4 705.2,230.2 706.1,224.4 707.1,233.2 708.0,219.1 709.0,216.6 709.9,233.2 710.9,198.6 711.8,223.3 712.8,223.6 713.7,216.6 714.7,223.3 715.6,223.4 716.6,223.4 717.6,221.2 718.5,215.8 719.5,200.2 720.4,183.2 721.4,223.4 722.3,223.7 723.3,200.5 724.2,227.0 725.2,226.5 726.1,241.1 727.1,239.9 728.0,237.3 729.0,236.6 729.9,192.0 730.9,244.7 731.8,208.6 732.8,233.3 733.7,241.0 734.7,240.2 735.6,223.5 736.6,174.1 737.5,223.3 738.5,194.8 739.4,229.1 740.4,236.2 741.4,241.0 742.3,220.4 743.3,228.2 744.2,256.0 745.2,170.2 746.1,200.3 747.1,256.2 748.0,223.4 749.0,226.2 749.9,223.3 750.9,236.7 751.8,223.3 752.8,230.2 753.7,216.6 754.7,181.2 755.6,223.4 756.6,204.6 757.5,210.1 758.5,208.6 759.4,200.0 760.4,223.8 761.3,227.4 762.3,243.2 763.2,213.2 764.2,240.6 765.1,224.6 766.1,231.9 767.1,230.1 768.0,241.0 769.0,229.3 769.9,237.6 770.9,247.8 771.8,245.3 772.8,252.0 773.7,236.3 774.7,238.6 775.6,240.9 776.6,199.5 777.5,194.9 778.5,224.5 779.4,218.0 780.4,223.5 781.3,216.6 782.3,216.7 783.2,233.2 784.2,236.3 785.1,237.1 786.1,245.8 787.0,238.2 788.0,237.1 788.9,230.8 789.9,207.1 790.8,236.3 791.8,233.2 792.8,240.9 793.7,213.1 794.7,223.4 795.6,236.4 796.6,227.7 797.5,224.6 798.5,230.2 799.4,214.8 800.4,222.2 801.3,216.8 802.3,223.3 803.2,229.9 804.2,224.9 805.1,227.8 806.1,257.6 807.0,230.2 808.0,236.7 808.9,235.8 809.9,223.4 810.8,231.8 811.8,223.4 812.7,223.3 813.7,211.7 814.6,242.1 815.6,225.6 816.5,200.2 817.5,220.4 818.5,223.3 819.4,223.4 820.4,214.7 821.3,233.5 822.3,223.3 823.2,238.6 824.2,223.3 825.1,241.1 826.1,240.4 827.0,223.4 828.0,225.0 828.9,198.4 829.9,237.3 830.8,299.1 831.8,332.3 832.7,333.7 833.7,330.9 834.6,331.5 835.6,256.7 836.5,327.6 837.5,327.7 838.4,331.7 839.4,333.7 840.3,332.3 841.3,331.6 842.2,322.4 843.2,331.5 844.2,332.9 845.1,331.0 846.1,328.4 847.0,333.2 848.0,329.7 848.9,329.7 849.9,329.6 850.8,330.4 851.8,331.5 852.7,327.6 853.7,331.5 854.6,329.1 855.6,327.7 856.5,330.3 857.5,328.4 858.4,331.3 859.4,335.3 860.3,331.5 861.3,330.0 862.2,331.5 863.2,330.0 864.1,331.6 865.1,327.6 866.0,329.0 867.0,330.0 867.9,328.8 868.9,326.0 869.9,327.7 870.8,327.5 871.8,329.2 872.7,328.1 873.7,327.6 874.6,329.0 875.6,331.5 876.5,327.6 877.5,329.6 878.4,328.9 879.4,331.5 880.3,331.5 881.3,330.1 882.2,322.8 883.2,329.3 884.1,331.5 885.1,331.8 886.0,331.3 887.0,329.1 887.9,331.5 888.9,332.5 889.8,325.5 890.8,325.9 891.7,328.4 892.7,324.7 893.6,330.2 894.6,327.0 895.6,328.8 896.5,329.0 897.5,327.6 898.4,326.7 899.4,331.4 900.3,326.1 901.3,332.9 902.2,327.7 903.2,323.0 904.1,325.8 905.1,322.4 906.0,317.8 907.0,322.7 907.9,322.8 908.9,322.7 909.8,326.8 910.8,322.8 911.7,323.1 912.7,325.0 913.6,322.8 914.6,322.0 915.5,325.5 916.5,322.4 917.4,322.0 918.4,322.8 919.3,322.6 920.3,322.4 921.3,322.4 922.2,322.4 923.2,322.4 924.1,322.7 925.1,322.7 926.0,322.8 927.0,321.8 927.9,322.0 928.9,322.4 929.8,322.0 930.8,322.4 931.7,322.7 932.7,322.4 933.6,327.6 934.6,322.0 935.5,322.8 936.5,322.0 937.4,322.0 938.4,322.4 939.3,321.0 940.3,322.8 941.2,322.8 942.2,322.8 943.1,322.4 944.1,322.8 945.0,322.0 946.0,328.6" fill="none" stroke="#d97706" stroke-width="2.2" stroke-linejoin="round" stroke-linecap="round"/>
<line x1="76" y1="70" x2="94" y2="70" stroke="#2563eb" stroke-width="3"/>
<text x="100" y="74" font-family="Arial, sans-serif" font-size="11" fill="#0f172a">avg fee</text>
<line x1="179" y1="70" x2="197" y2="70" stroke="#059669" stroke-width="3"/>
<text x="203" y="74" font-family="Arial, sans-serif" font-size="11" fill="#0f172a">median fee</text>
<line x1="303" y1="70" x2="321" y2="70" stroke="#d97706" stroke-width="3"/>
<text x="327" y="74" font-family="Arial, sans-serif" font-size="11" fill="#0f172a">p90 fee</text>
<text x="28" y="404" font-family="Arial, sans-serif" font-size="11" fill="#64748b">Source: hourly_features.csv</text>
</svg>