<svg xmlns="http://www.w3.org/2000/svg" width="980" height="420" viewBox="0 0 980 420">
<rect width="100%" height="100%" fill="#ffffff"/>
<text x="28" y="34" font-family="Arial, sans-serif" font-size="20" font-weight="700" fill="#0f172a">Hourly fee trend</text>
<text x="28" y="56" font-family="Arial, sans-serif" font-size="12" fill="#64748b">Average, median, and p90 total fee by hour</text>
<line x1="76" y1="362.0" x2="946" y2="362.0" stroke="#e2e8f0" stroke-width="1"/>
<text x="68" y="366.0" font-family="Arial, sans-serif" font-size="10" text-anchor="end" fill="#64748b">-382K</text>
<line x1="76" y1="292.0" x2="946" y2="292.0" stroke="#e2e8f0" stroke-width="1"/>
<text x="68" y="296.0" font-family="Arial, sans-serif" font-size="10" text-anchor="end" fill="#64748b">2.6M</text>
<line x1="76" y1="222.0" x2="946" y2="222.0" stroke="#e2e8f0" stroke-width="1"/>
<text x="68" y="226.0" font-family="Arial, sans-serif" font-size="10" text-anchor="end" fill="#64748b">5.7M</text>
<line x1="76" y1="152.0" x2="946" y2="152.0" stroke="#e2e8f0" stroke-width="1"/>
<text x="68" y="156.0" font-family="Arial, sans-serif" font-size="10" text-anchor="end" fill="#64748b">8.7M</text>
<line x1="76" y1="82.0" x2="946" y2="82.0" stroke="#e2e8f0" stroke-width="1"/>
<text x="68" y="86.0" font-family="Arial, sans-serif" font-size="10" text-anchor="end" fill="#64748b">11.7M</text>
<line x1="76" y1="362" x2="946" y2="362" stroke="#334155" stroke-width="1"/>
<line x1="76" y1="82" x2="76" y2="362" stroke="#334155" stroke-width="1"/>
<text x="76" y="72" font-family="Arial, sans-serif" font-size="11" fill="#64748b">nanoton</text>
<line x1="76.0" y1="362" x2="76.0" y2="366" stroke="#334155" stroke-width="1"/>
<text x="76.0" y="380" font-family="Arial, sans-serif" font-size="10" text-anchor="middle" fill="#64748b">0</text>
<line x1="511.5" y1="362" x2="511.5" y2="366" stroke="#334155" stroke-width="1"/>
<text x="511.5" y="380" font-family="Arial, sans-serif" font-size="10" text-anchor="middle" fill="#64748b">415</text>
<line x1="946.0" y1="362" x2="946.0" y2="366" stroke="#334155" stroke-width="1"/>
<text x="946.0" y="380" font-family="Arial, sans-serif" font-size="10" text-anchor="middle" fill="#64748b">829</text>
<polyline points="76.0,290.8 77.0,294.6 78.1,296.0 79.1,298.1 80.2,304.8 81.2,297.2 82.3,298.2 83.3,294.6 84.4,299.0 85.4,298.7 86.5,287.8 87.5,299.5 88.6,299.7 89.6,297.4 90.7,300.3 91.7,300.5 92.8,292.5 93.8,292.5 94.9,301.3 95.9,291.1 97.0,289.2 98.0,287.3 99.1,293.8 100.1,294.2 101.2,296.1 102.2,292.1 103.3,297.7 104.3,290.6 105.4,293.2 106.4,288.3 107.5,289.0 108.5,273.1 109.6,284.7 110.6,285.3 111.7,294.6 112.7,299.9 113.8,292.9 114.8,294.9 115.9,304.7 116.9,307.5 118.0,302.1 119.0,297.0 120.1,298.7 121.1,297.9 122.2,304.4 123.2,297.4 124.3,294.5 125.3,296.5 126.4,298.7 127.4,303.1 128.5,303.1 129.5,301.9 130.6,300.3 131.6,303.3 132.7,302.2 133.7,299.4 134.8,299.1 135.8,302.8 136.9,299.1 137.9,301.3 139.0,306.8 140.0,308.7 141.1,306.4 142.1,307.1 143.2,309.1 144.2,305.9 145.3,305.5 146.3,302.0 147.4,308.5 148.4,290.7 149.5,306.4 150.5,306.4 151.6,306.3 152.6,311.2 153.7,307.1 154.7,310.3 155.8,309.1 156.8,305.5 157.9,305.4 158.9,303.2 160.0,303.5 161.0,301.3 162.1,305.1 163.1,307.4 164.2,306.9 165.2,308.1 166.3,305.0 167.3,302.9 168.4,302.7 169.4,298.6 170.5,304.9 171.5,297.0 172.6,299.3 173.6,300.3 174.6,303.9 175.7,311.6 176.7,300.1 177.8,300.5 178.8,308.9 179.9,307.5 180.9,300.3 182.0,304.2 183.0,305.1 184.1,302.6 185.1,300.5 186.2,297.4 187.2,298.7 188.3,301.9 189.3,308.1 190.4,307.4 191.4,307.4 192.5,303.1 193.5,301.9 194.6,304.1 195.6,303.9 196.7,304.0 197.7,308.3 198.8,308.9 199.8,307.3 200.9,301.1 201.9,286.9 203.0,301.6 204.0,298.8 205.1,296.1 206.1,299.6 207.2,305.5 208.2,301.5 209.3,304.9 210.3,302.2 211.4,304.9 212.4,306.8 213.5,304.9 214.5,300.8 215.6,304.8 216.6,308.0 217.7,302.4 218.7,301.7 219.8,303.1 220.8,303.4 221.9,298.9 222.9,298.5 224.0,298.0 225.0,289.4 226.1,296.9 227.1,296.4 228.2,295.5 229.2,299.6 230.3,299.0 231.3,304.6 232.4,304.0 233.4,303.8 234.5,299.2 235.5,301.2 236.6,305.7 237.6,304.5 238.7,312.1 239.7,305.7 240.8,304.3 241.8,307.0 242.9,306.9 243.9,301.9 245.0,303.8 246.0,300.8 247.1,301.6 248.1,300.2 249.2,298.7 250.2,290.6 251.3,296.1 252.3,300.6 253.4,296.6 254.4,302.7 255.5,302.6 256.5,303.0 257.6,302.7 258.6,302.8 259.7,303.7 260.7,300.1 261.8,305.6 262.8,303.0 263.9,299.2 264.9,302.8 266.0,306.7 267.0,306.1 268.1,306.7 269.1,298.5 270.1,301.6 271.2,297.8 272.2,303.8 273.3,300.2 274.3,299.5 275.4,295.6 276.4,298.2 277.5,298.4 278.5,293.8 279.6,299.9 280.6,297.9 281.7,298.6 282.7,294.2 283.8,297.8 284.8,278.0 285.9,284.2 286.9,295.2 288.0,295.7 289.0,294.4 290.1,300.7 291.1,304.3 292.2,302.4 293.2,302.1 294.3,297.9 295.3,295.3 296.4,296.5 297.4,291.4 298.5,292.0 299.5,290.6 300.6,290.0 301.6,299.7 302.7,291.9 303.7,296.8 304.8,299.8 305.8,303.8 306.9,302.5 307.9,302.1 309.0,302.3 310.0,300.8 311.1,303.5 312.1,295.9 313.2,297.8 314.2,304.4 315.3,304.2 316.3,299.5 317.4,303.9 318.4,303.5 319.5,299.0 320.5,288.7 321.6,293.7 322.6,294.2 323.7,303.7 324.7,295.6 325.8,297.0 326.8,305.6 327.9,294.8 328.9,300.5 330.0,305.1 331.0,308.5 332.1,305.5 333.1,304.0 334.2,300.7 335.2,303.8 336.3,299.3 337.3,303.0 338.4,305.0 339.4,303.0 340.5,299.3 341.5,294.4 342.6,299.9 343.6,286.2 344.7,302.1 345.7,293.9 346.8,297.9 347.8,299.5 348.9,297.4 349.9,294.4 351.0,310.4 352.0,291.6 353.1,295.6 354.1,281.6 355.2,294.6 356.2,293.2 357.3,295.0 358.3,291.0 359.4,301.0 360.4,279.9 361.5,297.2 362.5,291.8 363.6,291.5 364.6,283.3 365.7,298.3 366.7,300.4 367.7,298.6 368.8,288.4 369.8,299.0 370.9,304.4 371.9,297.7 373.0,295.5 374.0,279.8 375.1,284.2 376.1,300.5 377.2,299.9 378.2,298.1 379.3,293.4 380.3,303.1 381.4,303.0 382.4,298.6 383.5,296.8 384.5,297.4 385.6,301.3 386.6,298.1 387.7,311.4 388.7,299.4 389.8,303.5 390.8,301.2 391.9,302.9 392.9,304.3 394.0,297.8 395.0,294.4 396.1,299.3 397.1,295.1 398.2,301.8 399.2,292.6 400.3,297.6 401.3,293.9 402.4,290.0 403.4,295.1 404.5,304.6 405.5,291.1 406.6,300.3 407.6,295.9 408.7,293.1 409.7,291.6 410.8,296.8 411.8,297.1 412.9,297.9 413.9,299.5 415.0,292.8 416.0,286.2 417.1,290.1 418.1,300.0 419.2,294.5 420.2,300.9 421.3,303.0 422.3,299.1 423.4,302.5 424.4,295.1 425.5,297.0 426.5,302.8 427.6,301.7 428.6,303.0 429.7,308.6 430.7,306.8 431.8,306.1 432.8,306.5 433.9,304.3 434.9,304.5 436.0,298.3 437.0,301.1 438.1,303.1 439.1,303.3 440.2,304.2 441.2,302.4 442.3,299.4 443.3,304.5 444.4,307.1 445.4,297.3 446.5,298.9 447.5,298.1 448.6,299.7 449.6,297.8 450.7,301.0 451.7,287.2 452.8,294.3 453.8,294.8 454.9,298.6 455.9,291.3 457.0,298.4 458.0,294.6 459.1,298.7 460.1,304.2 461.2,282.2 462.2,289.8 463.2,298.8 464.3,295.1 465.3,293.4 466.4,294.7 467.4,304.3 468.5,296.9 469.5,301.7 470.6,296.7 471.6,295.6 472.7,292.9 473.7,291.6 474.8,286.7 475.8,287.8 476.9,294.2 477.9,292.6 479.0,297.5 480.0,303.1 481.1,296.8 482.1,304.1 483.2,298.7 484.2,297.8 485.3,299.3 486.3,297.1 487.4,296.6 488.4,305.5 489.5,301.9 490.5,304.5 491.6,302.9 492.6,303.4 493.7,302.7 494.7,304.5 495.8,301.7 496.8,300.0 497.9,297.3 498.9,295.0 500.0,305.0 501.0,302.7 502.1,303.7 503.1,302.8 504.2,298.5 505.2,257.0 506.3,291.0 507.3,298.5 508.4,296.3 509.4,301.0 510.5,301.6 511.5,299.9 512.6,299.3 513.6,299.6 514.7,296.0 515.7,299.4 516.8,305.6 517.8,306.5 518.9,300.9 519.9,302.7 521.0,295.0 522.0,302.2 523.1,296.9 524.1,304.8 525.2,299.1 526.2,295.6 527.3,295.1 528.3,300.9 529.4,301.0 530.4,300.7 531.5,304.5 532.5,292.6 533.6,303.5 534.6,306.0 535.7,295.5 536.7,297.4 537.8,302.8 538.8,295.8 539.9,299.5 540.9,304.0 542.0,301.7 543.0,303.8 544.1,300.8 545.1,306.1 546.2,305.6 547.2,300.8 548.3,303.2 549.3,297.1 550.4,300.2 551.4,292.3 552.5,292.0 553.5,292.1 554.6,299.3 555.6,298.5 556.7,298.8 557.7,301.5 558.8,299.6 559.8,305.3 560.8,300.2 561.9,300.6 562.9,304.7 564.0,299.2 565.0,304.4 566.1,299.7 567.1,306.4 568.2,299.1 569.2,304.5 570.3,303.3 571.3,298.0 572.4,263.7 573.4,302.9 574.5,304.6 575.5,301.3 576.6,300.8 577.6,298.3 578.7,299.9 579.7,302.7 580.8,298.6 581.8,304.0 582.9,302.8 583.9,303.0 585.0,301.1 586.0,308.3 587.1,304.5 588.1,309.0 589.2,304.5 590.2,303.7 591.3,304.9 592.3,303.6 593.4,305.3 594.4,299.5 595.5,305.2 596.5,297.1 597.6,302.2 598.6,288.1 599.7,294.6 600.7,299.7 601.8,287.4 602.8,299.0 603.9,298.4 604.9,296.8 606.0,301.1 607.0,299.5 608.1,302.6 609.1,299.3 610.2,303.0 611.2,298.0 612.3,301.6 613.3,305.3 614.4,304.5 615.4,290.4 616.5,303.1 617.5,299.6 618.6,302.4 619.6,303.1 620.7,304.7 621.7,296.3 622.8,301.7 623.8,292.9 624.9,298.2 625.9,294.8 627.0,293.5 628.0,299.4 629.1,297.4 630.1,300.4 631.2,295.6 632.2,301.5 633.3,282.6 634.3,297.4 635.4,291.2 636.4,300.8 637.5,281.3 638.5,303.6 639.6,292.1 640.6,296.5 641.7,300.9 642.7,293.9 643.8,295.3 644.8,305.2 645.9,304.7 646.9,300.3 648.0,302.0 649.0,297.5 650.1,295.0 651.1,296.6 652.2,292.7 653.2,298.7 654.3,291.1 655.3,289.9 656.3,292.8 657.4,302.6 658.4,303.5 659.5,301.6 660.5,297.5 661.6,303.0 662.6,302.5 663.7,299.3 664.7,300.0 665.8,295.7 666.8,300.6 667.9,302.5 668.9,302.2 670.0,300.7 671.0,305.4 672.1,305.1 673.1,301.0 674.2,294.2 675.2,301.0 676.3,298.9 677.3,290.4 678.4,295.9 679.4,294.1 680.5,301.3 681.5,298.2 682.6,299.2 683.6,302.6 684.7,300.9 685.7,299.2 686.8,302.7 687.8,303.6 688.9,299.5 689.9,304.4 691.0,298.2 692.0,302.7 693.1,304.9 694.1,303.3 695.2,303.8 696.2,305.7 697.3,294.6 698.3,306.7 699.4,303.7 700.4,295.1 701.5,294.1 702.5,293.7 703.6,295.9 704.6,295.9 705.7,298.1 706.7,284.7 707.8,294.9 708.8,298.6 709.9,296.3 710.9,294.2 712.0,300.6 713.0,294.3 714.1,295.9 715.1,303.8 716.2,295.8 717.2,302.6 718.3,297.7 719.3,300.0 720.4,300.7 721.4,298.3 722.5,294.8 723.5,295.8 724.6,303.0 725.6,295.6 726.7,296.0 727.7,295.2 728.8,295.3 729.8,295.0 730.9,299.9 731.9,299.0 733.0,295.9 734.0,303.3 735.1,302.9 736.1,298.2 737.2,305.5 738.2,300.9 739.3,300.4 740.3,305.2 741.4,295.8 742.4,301.8 743.5,303.2 744.5,304.6 745.6,299.1 746.6,301.0 747.7,298.0 748.7,298.8 749.8,297.3 750.8,300.8 751.9,296.0 752.9,293.0 753.9,284.2 755.0,298.8 756.0,293.9 757.1,298.9 758.1,298.8 759.2,298.0 760.2,291.0 761.3,292.3 762.3,298.2 763.4,297.5 764.4,297.5 765.5,298.5 766.5,288.2 767.6,296.5 768.6,297.3 769.7,301.7 770.7,301.0 771.8,305.4 772.8,295.8 773.9,295.1 774.9,299.8 776.0,289.6 777.0,296.7 778.1,295.1 779.1,295.1 780.2,294.8 781.2,297.5 782.3,299.5 783.3,295.8 784.4,297.0 785.4,291.7 786.5,285.1 787.5,299.7 788.6,301.0 789.6,293.6 790.7,302.3 791.7,297.5 792.8,307.7 793.8,292.5 794.9,304.9 795.9,304.1 797.0,291.9 798.0,305.2 799.1,297.8 800.1,298.1 801.2,307.4 802.2,305.4 803.3,294.0 804.3,284.5 805.4,295.7 806.4,281.6 807.5,295.8 808.5,307.1 809.6,303.5 810.6,299.2 811.7,301.5 812.7,309.0 813.8,287.8 814.8,293.3 815.9,314.3 816.9,300.8 818.0,304.2 819.0,299.2 820.1,305.4 821.1,297.5 822.2,303.5 823.2,297.3 824.3,286.2 825.3,295.6 826.4,293.4 827.4,295.3 828.5,292.6 829.5,295.0 830.6,297.5 831.6,303.2 832.7,307.8 833.7,295.2 834.8,306.6 835.8,305.0 836.9,305.4 837.9,303.1 839.0,297.4 840.0,293.5 841.1,305.0 842.1,310.4 843.2,306.6 844.2,309.4 845.3,304.0 846.3,307.8 847.4,308.2 848.4,299.0 849.4,288.2 850.5,297.1 851.5,298.1 852.6,298.6 853.6,298.7 854.7,295.2 855.7,305.8 856.8,307.8 857.8,304.4 858.9,309.3 859.9,306.7 861.0,303.2 862.0,303.6 863.1,296.5 864.1,304.1 865.2,305.5 866.2,308.2 867.3,291.8 868.3,301.9 869.4,305.3 870.4,302.2 871.5,300.9 872.5,302.7 873.6,295.0 874.6,295.0 875.7,295.3 876.7,299.1 877.8,299.0 878.8,300.9 879.9,304.6 880.9,307.3 882.0,303.1 883.0,300.9 884.1,303.0 885.1,290.9 886.2,301.1 887.2,301.9 888.3,302.0 889.3,295.6 890.4,306.6 891.4,304.1 892.5,288.8 893.5,297.4 894.6,295.3 895.6,295.7 896.7,296.1 897.7,306.3 898.8,300.3 899.8,304.9 900.9,295.7 901.9,303.6 903.0,305.1 904.0,302.6 905.1,301.6 906.1,285.2 907.2,304.3 908.2,334.7 909.3,343.7 910.3,343.8 911.4,343.5 912.4,344.0 913.5,319.0 914.5,342.3 915.6,343.1 916.6,342.6 917.7,343.4 918.7,343.4 919.8,343.4 920.8,338.9 921.9,343.5 922.9,344.5 924.0,342.7 925.0,342.0 926.1,343.8 927.1,343.0 928.2,343.2 929.2,340.3 930.3,342.7 931.3,343.4 932.4,342.2 933.4,343.9 934.5,341.8 935.5,341.2 936.6,342.8 937.6,342.4 938.7,343.3 939.7,344.8 940.8,343.7 941.8,343.3 942.9,344.0 943.9,342.7 945.0,343.5 946.0,341.5" fill="none" stroke="#2563eb" stroke-width="2.2" stroke-linejoin="round" stroke-linecap="round"/>
<polyline points="76.0,311.4 77.0,324.9 78.1,334.1 79.1,334.5 80.2,335.0 81.2,334.6 82.3,334.4 83.3,330.8 84.4,334.6 85.4,334.6 86.5,320.5 87.5,334.6 88.6,334.2 89.6,330.7 90.7,334.4 91.7,333.8 92.8,321.1 93.8,330.5 94.9,332.4 95.9,310.6 97.0,302.9 98.0,305.9 99.1,320.5 100.1,315.5 101.2,310.4 102.2,329.8 103.3,333.4 104.3,312.5 105.4,335.0 106.4,319.0 107.5,330.5 108.5,283.8 109.6,300.4 110.6,303.3 111.7,308.3 112.7,331.3 113.8,312.5 114.8,310.6 115.9,334.9 116.9,335.0 118.0,329.7 119.0,310.6 120.1,310.6 121.1,312.5 122.2,340.8 123.2,334.9 124.3,308.9 125.3,310.3 126.4,334.9 127.4,335.3 128.5,334.2 129.5,333.4 130.6,333.9 131.6,334.6 132.7,331.5 133.7,334.6 134.8,330.9 135.8,334.3 136.9,334.6 137.9,334.2 139.0,335.0 140.0,334.9 141.1,334.9 142.1,344.0 143.2,335.8 144.2,334.9 145.3,334.9 146.3,330.7 147.4,344.0 148.4,335.6 149.5,336.2 150.5,336.2 151.6,335.0 152.6,338.1 153.7,336.2 154.7,336.1 155.8,335.1 156.8,335.0 157.9,335.0 158.9,334.5 160.0,335.0 161.0,334.6 162.1,334.6 163.1,335.0 164.2,335.0 165.2,335.0 166.3,334.3 167.3,334.9 168.4,334.9 169.4,330.7 170.5,334.7 171.5,312.2 172.6,329.6 173.6,331.1 174.6,333.8 175.7,344.0 176.7,330.6 177.8,333.8 178.8,335.0 179.9,336.2 180.9,334.7 182.0,334.7 183.0,334.8 184.1,334.6 185.1,331.0 186.2,330.5 187.2,331.5 188.3,333.0 189.3,335.0 190.4,334.9 191.4,334.9 192.5,334.1 193.5,334.9 194.6,334.9 195.6,331.5 196.7,332.3 197.7,336.2 198.8,344.0 199.8,336.1 200.9,335.0 201.9,310.1 203.0,334.9 204.0,334.5 205.1,334.7 206.1,333.8 207.2,334.9 208.2,334.0 209.3,334.9 210.3,334.9 211.4,334.9 212.4,335.0 213.5,334.7 214.5,333.2 215.6,334.9 216.6,335.0 217.7,335.0 218.7,334.1 219.8,334.2 220.8,330.3 221.9,310.6 222.9,298.7 224.0,309.8 225.0,304.4 226.1,310.2 227.1,310.1 228.2,327.6 229.2,333.0 230.3,333.8 231.3,333.8 232.4,334.9 233.4,334.9 234.5,333.8 235.5,334.7 236.6,334.7 237.6,334.6 238.7,344.0 239.7,334.9 240.8,334.9 241.8,335.0 242.9,335.0 243.9,333.8 245.0,334.4 246.0,330.9 247.1,319.7 248.1,298.7 249.2,334.1 250.2,326.9 251.3,334.7 252.3,331.8 253.4,331.8 254.4,331.4 255.5,334.7 256.5,334.4 257.6,334.6 258.6,334.6 259.7,330.7 260.7,330.7 261.8,334.9 262.8,334.4 263.9,331.0 264.9,334.6 266.0,335.0 267.0,334.6 268.1,334.9 269.1,330.5 270.1,334.3 271.2,315.6 272.2,334.6 273.3,298.7 274.3,334.0 275.4,329.7 276.4,332.6 277.5,331.8 278.5,310.6 279.6,331.8 280.6,332.3 281.7,334.6 282.7,323.8 283.8,334.0 284.8,295.8 285.9,298.7 286.9,327.1 288.0,331.1 289.0,330.7 290.1,332.3 291.1,334.6 292.2,334.7 293.2,334.1 294.3,324.8 295.3,315.1 296.4,308.6 297.4,305.4 298.5,298.7 299.5,306.5 300.6,305.4 301.6,331.7 302.7,305.5 303.7,317.0 304.8,333.4 305.8,335.0 306.9,334.1 307.9,335.0 309.0,334.9 310.0,333.7 311.1,335.0 312.1,319.7 313.2,319.7 314.2,334.1 315.3,333.8 316.3,333.4 317.4,334.7 318.4,334.6 319.5,331.3 320.5,305.4 321.6,308.2 322.6,308.3 323.7,298.7 324.7,310.2 325.8,335.5 326.8,336.2 327.9,312.5 328.9,334.5 330.0,336.2 331.0,335.9 332.1,336.2 333.1,335.0 334.2,333.8 335.2,334.3 336.3,334.4 337.3,333.5 338.4,334.6 339.4,334.4 340.5,329.6 341.5,308.9 342.6,334.1 343.6,308.2 344.7,334.4 345.7,310.7 346.8,310.3 347.8,325.1 348.9,305.5 349.9,319.7 351.0,344.0 352.0,315.6 353.1,334.2 354.1,308.2 355.2,309.9 356.2,330.0 357.3,334.1 358.3,335.0 359.4,333.2 360.4,323.8 361.5,333.8 362.5,308.2 363.6,306.1 364.6,323.8 365.7,315.6 366.7,333.4 367.7,332.6 368.8,303.2 369.8,334.1 370.9,334.7 371.9,326.5 373.0,333.8 374.0,320.8 375.1,333.7 376.1,333.7 377.2,334.1 378.2,330.7 379.3,331.8 380.3,333.7 381.4,334.6 382.4,333.8 383.5,333.0 384.5,310.6 385.6,334.7 386.6,330.7 387.7,345.9 388.7,333.8 389.8,334.7 390.8,333.7 391.9,334.7 392.9,334.7 394.0,310.6 395.0,315.4 396.1,332.0 397.1,310.5 398.2,331.7 399.2,305.3 400.3,330.5 401.3,326.9 402.4,302.2 403.4,309.7 404.5,335.9 405.5,333.4 406.6,334.9 407.6,334.4 408.7,306.5 409.7,306.5 410.8,318.3 411.8,320.1 412.9,323.6 413.9,331.8 415.0,310.6 416.0,305.4 417.1,308.2 418.1,331.8 419.2,305.2 420.2,330.5 421.3,334.1 422.3,326.7 423.4,330.7 424.4,305.4 425.5,308.2 426.5,333.8 427.6,334.1 428.6,335.0 429.7,340.8 430.7,336.2 431.8,336.1 432.8,335.0 433.9,336.2 434.9,335.8 436.0,333.8 437.0,334.4 438.1,335.0 439.1,334.8 440.2,334.9 441.2,334.6 442.3,331.8 443.3,334.5 444.4,335.0 445.4,329.1 446.5,330.7 447.5,325.8 448.6,325.3 449.6,308.2 450.7,333.5 451.7,308.4 452.8,310.3 453.8,330.5 454.9,319.6 455.9,308.3 457.0,334.6 458.0,318.7 459.1,335.8 460.1,335.0 461.2,297.6 462.2,305.3 463.2,325.3 464.3,325.7 465.3,318.9 466.4,310.3 467.4,334.9 468.5,321.4 469.5,334.2 470.6,331.5 471.6,329.7 472.7,309.6 473.7,308.4 474.8,298.7 475.8,302.7 476.9,305.5 477.9,309.0 479.0,331.8 480.0,334.0 481.1,329.6 482.1,334.7 483.2,333.8 484.2,335.0 485.3,334.0 486.3,334.0 487.4,325.3 488.4,334.9 489.5,334.5 490.5,334.6 491.6,334.7 492.6,334.7 493.7,334.7 494.7,334.6 495.8,334.1 496.8,326.9 497.9,326.6 498.9,305.4 500.0,343.0 501.0,335.3 502.1,344.0 503.1,335.0 504.2,329.1 505.2,301.0 506.3,334.2 507.3,334.1 508.4,315.6 509.4,335.0 510.5,334.1 511.5,334.6 512.6,333.6 513.6,330.5 514.7,330.4 515.7,333.8 516.8,335.0 517.8,335.0 518.9,333.2 519.9,334.4 521.0,310.5 522.0,332.0 523.1,310.1 524.1,332.7 525.2,305.4 526.2,309.8 527.3,310.6 528.3,330.0 529.4,333.8 530.4,332.4 531.5,335.3 532.5,318.3 533.6,334.7 534.6,336.2 535.7,331.4 536.7,325.8 537.8,334.6 538.8,331.3 539.9,331.8 540.9,334.7 542.0,334.5 543.0,333.8 544.1,330.7 545.1,334.9 546.2,334.8 547.2,331.8 548.3,333.2 549.3,310.7 550.4,330.5 551.4,308.2 552.5,308.4 553.5,305.4 554.6,330.4 555.6,326.9 556.7,330.4 557.7,334.9 558.8,331.5 559.8,335.0 560.8,334.6 561.9,334.1 562.9,334.9 564.0,334.7 565.0,335.0 566.1,333.8 567.1,335.0 568.2,333.3 569.2,334.6 570.3,335.0 571.3,332.7 572.4,283.6 573.4,333.8 574.5,335.0 575.5,319.3 576.6,331.1 577.6,329.7 578.7,331.8 579.7,334.1 580.8,334.6 581.8,334.9 582.9,334.7 583.9,334.6 585.0,334.8 586.0,335.0 587.1,334.9 588.1,335.0 589.2,334.9 590.2,334.7 591.3,334.9 592.3,335.0 593.4,334.7 594.4,334.1 595.5,335.7 596.5,334.1 597.6,334.4 598.6,305.3 599.7,319.6 600.7,309.3 601.8,300.7 602.8,310.4 603.9,330.5 604.9,310.6 606.0,330.5 607.0,333.0 608.1,334.7 609.1,333.8 610.2,334.1 611.2,330.9 612.3,334.7 613.3,334.9 614.4,334.9 615.4,305.4 616.5,334.4 617.5,331.0 618.6,335.0 619.6,333.8 620.7,335.0 621.7,333.8 622.8,334.9 623.8,310.6 624.9,334.3 625.9,306.4 627.0,308.4 628.0,333.8 629.1,330.9 630.1,334.1 631.2,329.7 632.2,334.3 633.3,305.3 634.3,330.7 635.4,328.8 636.4,333.8 637.5,295.8 638.5,334.6 639.6,310.6 640.6,310.6 641.7,333.8 642.7,318.4 643.8,318.5 644.8,334.2 645.9,334.9 646.9,334.1 648.0,334.1 649.0,330.4 650.1,308.2 651.1,308.2 652.2,310.2 653.2,333.8 654.3,310.6 655.3,310.4 656.3,327.3 657.4,332.0 658.4,335.0 659.5,334.6 660.5,334.0 661.6,334.6 662.6,334.5 663.7,330.7 664.7,333.5 665.8,331.5 666.8,334.6 667.9,334.1 668.9,333.8 670.0,330.7 671.0,334.7 672.1,334.9 673.1,332.0 674.2,307.0 675.2,326.1 676.3,305.4 677.3,306.4 678.4,309.0 679.4,306.4 680.5,334.6 681.5,327.0 682.6,333.8 683.6,333.2 684.7,334.1 685.7,335.0 686.8,334.6 687.8,333.9 688.9,333.8 689.9,334.7 691.0,330.7 692.0,331.8 693.1,334.9 694.1,334.1 695.2,334.6 696.2,334.9 697.3,327.5 698.3,335.0 699.4,333.6 700.4,319.7 701.5,302.9 702.5,310.1 703.6,327.5 704.6,326.8 705.7,323.6 706.7,298.7 707.8,310.6 708.8,331.1 709.9,330.7 710.9,334.6 712.0,324.6 713.0,323.8 714.1,330.4 715.1,333.8 716.2,330.7 717.2,334.6 718.3,323.9 719.3,333.2 720.4,334.1 721.4,325.7 722.5,309.1 723.5,315.6 724.6,333.8 725.6,308.5 726.7,306.5 727.7,308.2 728.8,310.2 729.8,312.5 730.9,331.0 731.9,331.9 733.0,317.9 734.0,334.6 735.1,335.0 736.1,335.0 737.2,335.0 738.2,334.6 739.3,333.8 740.3,334.9 741.4,330.4 742.4,334.3 743.5,334.6 744.5,334.2 745.6,333.8 746.6,335.0 747.7,330.7 748.7,333.8 749.8,315.5 750.8,330.7 751.9,305.4 752.9,324.4 753.9,306.5 755.0,331.8 756.0,308.9 757.1,333.8 758.1,333.8 759.2,331.2 760.2,310.7 761.3,333.8 762.3,330.0 763.4,327.2 764.4,323.8 765.5,330.0 766.5,305.0 767.6,312.5 768.6,333.8 769.7,332.0 770.7,329.7 771.8,333.8 772.8,322.8 773.9,308.3 774.9,310.4 776.0,305.2 777.0,305.4 778.1,308.2 779.1,310.7 780.2,310.1 781.2,319.6 782.3,325.7 783.3,330.8 784.4,330.9 785.4,305.4 786.5,305.2 787.5,333.8 788.6,331.0 789.6,305.4 790.7,334.7 791.7,308.3 792.8,334.1 793.8,334.7 794.9,332.8 795.9,332.9 797.0,308.2 798.0,335.0 799.1,330.4 800.1,310.4 801.2,330.0 802.2,326.8 803.3,305.9 804.3,306.4 805.4,323.8 806.4,296.7 807.5,334.1 808.5,335.0 809.6,335.0 810.6,331.5 811.7,334.7 812.7,335.0 813.8,304.3 814.8,308.2 815.9,335.0 816.9,331.8 818.0,334.5 819.0,331.2 820.1,334.7 821.1,331.8 822.2,321.5 823.2,334.9 824.3,331.9 825.3,310.4 826.4,308.3 827.4,305.4 828.5,305.9 829.5,305.7 830.6,324.6 831.6,330.7 832.7,334.5 833.7,331.6 834.8,335.0 835.8,335.0 836.9,335.0 837.9,322.4 839.0,334.9 840.0,331.1 841.1,335.0 842.1,344.0 843.2,344.0 844.2,344.0 845.3,334.6 846.3,335.0 847.4,335.0 848.4,334.4 849.4,311.6 850.5,308.9 851.5,308.2 852.6,308.1 853.6,330.4 854.7,308.6 855.7,337.4 856.8,335.0 857.8,335.0 858.9,335.0 859.9,331.8 861.0,332.0 862.0,334.1 863.1,330.5 864.1,334.6 865.2,335.0 866.2,334.9 867.3,312.5 868.3,333.8 869.4,332.0 870.4,333.8 871.5,331.7 872.5,331.0 873.6,310.7 874.6,308.6 875.7,314.0 876.7,327.1 877.8,304.8 878.8,340.8 879.9,341.6 880.9,335.0 882.0,334.6 883.0,334.6 884.1,324.6 885.1,317.8 886.2,346.0 887.2,334.6 888.3,334.9 889.3,317.9 890.4,344.0 891.4,334.0 892.5,321.8 893.5,332.8 894.6,325.5 895.6,333.8 896.7,313.7 897.7,334.6 898.8,328.5 899.8,331.2 900.9,305.4 901.9,331.0 903.0,310.0 904.0,331.4 905.1,330.2 906.1,290.8 907.2,335.0 908.2,347.8 909.3,350.1 910.3,349.5 911.4,346.1 912.4,349.4 913.5,341.0 914.5,346.4 915.6,349.3 916.6,344.7 917.7,345.1 918.7,349.2 919.8,349.4 920.8,343.5 921.9,350.0 922.9,350.1 924.0,347.6 925.0,344.9 926.1,349.2 927.1,345.2 928.2,344.1 929.2,344.7 930.3,345.7 931.3,346.1 932.4,345.7 933.4,349.5 934.5,345.1 935.5,349.4 936.6,348.7 937.6,346.1 938.7,345.8 939.7,351.6 940.8,348.3 941.8,345.7 942.9,349.9 943.9,344.7 945.0,346.4 946.0,343.6" fill="none" stroke="#059669" stroke-width="2.2" stroke-linejoin="round" stroke-linecap="round"/>
<polyline points="76.0,208.9 77.0,216.7 78.1,223.4 79.1,228.3 80.2,236.4 81.2,228.3 82.3,223.3 83.3,216.9 84.4,223.4 85.4,223.3 86.5,199.8 87.5,223.4 88.6,224.6 89.6,223.3 90.7,226.2 91.7,227.6 92.8,211.5 93.8,216.7 94.9,236.0 95.9,216.6 97.0,215.8 98.0,199.8 99.1,220.3 100.1,223.2 101.2,223.4 102.2,220.5 103.3,223.3 104.3,213.2 105.4,216.6 106.4,200.1 107.5,199.8 108.5,160.5 109.6,170.2 110.6,170.2 111.7,209.6 112.7,215.8 113.8,209.6 114.8,208.2 115.9,233.3 116.9,241.0 118.0,230.2 119.0,223.3 120.1,223.8 121.1,223.4 122.2,227.6 123.2,220.4 124.3,213.7 125.3,221.6 126.4,214.1 127.4,236.4 128.5,233.9 129.5,228.8 130.6,229.4 131.6,230.2 132.7,223.4 133.7,223.4 134.8,224.4 135.8,227.8 136.9,231.4 137.9,223.4 139.0,236.4 140.0,240.4 141.1,233.6 142.1,244.6 143.2,239.4 144.2,240.4 145.3,238.9 146.3,236.3 147.4,251.7 148.4,206.3 149.5,236.6 150.5,237.6 151.6,234.6 152.6,248.7 153.7,242.6 154.7,246.3 155.8,241.1 156.8,232.3 157.9,233.3 158.9,228.3 160.0,223.5 161.0,229.7 162.1,233.3 163.1,246.2 164.2,238.6 165.2,241.0 166.3,231.4 167.3,230.1 168.4,230.4 169.4,216.6 170.5,239.0 171.5,223.4 172.6,231.9 173.6,231.4 174.6,242.9 175.7,248.9 176.7,223.4 177.8,227.9 178.8,242.4 179.9,237.1 180.9,229.7 182.0,234.8 183.0,236.4 184.1,233.2 185.1,223.4 186.2,223.4 187.2,230.1 188.3,233.2 189.3,241.8 190.4,237.6 191.4,246.3 192.5,230.4 193.5,230.5 194.6,237.1 195.6,236.4 196.7,236.6 197.7,241.3 198.8,240.4 199.8,240.4 200.9,233.2 201.9,200.3 203.0,223.3 204.0,223.4 205.1,216.6 206.1,229.6 207.2,233.3 208.2,231.4 209.3,233.3 210.3,230.8 211.4,236.3 212.4,236.3 213.5,233.3 214.5,230.2 215.6,238.7 216.6,238.8 217.7,237.6 218.7,228.0 219.8,226.9 220.8,237.0 221.9,226.6 222.9,232.3 224.0,231.4 225.0,207.0 226.1,223.4 227.1,223.3 228.2,223.3 229.2,225.0 230.3,223.4 231.3,236.4 232.4,236.4 233.4,231.9 234.5,230.2 235.5,235.6 236.6,236.3 237.6,236.7 238.7,251.5 239.7,233.3 240.8,233.3 241.8,241.1 242.9,241.0 243.9,233.3 245.0,232.1 246.0,225.6 247.1,223.4 248.1,241.1 249.2,223.4 250.2,199.8 251.3,231.6 252.3,233.2 253.4,223.4 254.4,228.7 255.5,233.2 256.5,236.4 257.6,233.2 258.6,232.7 259.7,233.7 260.7,223.4 261.8,238.3 262.8,233.9 263.9,223.4 264.9,232.6 266.0,238.6 267.0,240.5 268.1,247.9 269.1,224.1 270.1,223.3 271.2,224.5 272.2,234.8 273.3,247.0 274.3,227.7 275.4,223.2 276.4,223.4 277.5,225.2 278.5,222.7 279.6,229.5 280.6,223.4 281.7,228.1 282.7,212.0 283.8,223.2 284.8,160.5 285.9,171.2 286.9,200.0 288.0,210.4 289.0,201.6 290.1,223.4 291.1,232.3 292.2,227.9 293.2,226.7 294.3,216.8 295.3,216.6 296.4,223.4 297.4,200.0 298.5,227.0 299.5,199.8 300.6,199.8 301.6,223.4 302.7,210.4 303.7,217.0 304.8,224.4 305.8,223.4 306.9,224.5 307.9,224.1 309.0,226.6 310.0,223.4 311.1,233.2 312.1,208.9 313.2,221.6 314.2,233.3 315.3,232.1 316.3,223.3 317.4,228.3 318.4,230.2 319.5,223.4 320.5,202.6 321.6,220.4 322.6,223.2 323.7,257.5 324.7,219.7 325.8,214.4 326.8,240.0 327.9,215.3 328.9,228.3 330.0,233.5 331.0,241.1 332.1,240.7 333.1,233.2 334.2,233.2 335.2,227.4 336.3,223.4 337.3,240.4 338.4,231.6 339.4,230.9 340.5,218.4 341.5,210.8 342.6,228.0 343.6,182.3 344.7,231.0 345.7,214.8 346.8,222.1 347.8,223.4 348.9,227.6 349.9,214.7 351.0,240.7 352.0,215.1 353.1,221.5 354.1,199.7 355.2,197.1 356.2,195.3 357.3,216.6 358.3,210.6 359.4,223.4 360.4,170.2 361.5,220.5 362.5,205.1 363.6,205.7 364.6,199.8 365.7,221.7 366.7,228.0 367.7,223.4 368.8,168.9 369.8,223.3 370.9,231.5 371.9,223.2 373.0,223.4 374.0,176.3 375.1,200.3 376.1,226.2 377.2,231.6 378.2,223.4 379.3,209.8 380.3,233.3 381.4,232.6 382.4,224.4 383.5,223.4 384.5,220.4 385.6,230.2 386.6,223.3 387.7,251.8 388.7,231.2 389.8,231.4 390.8,230.2 391.9,233.1 392.9,233.1 394.0,224.5 395.0,223.2 396.1,223.3 397.1,223.3 398.2,223.3 399.2,214.8 400.3,223.4 401.3,214.7 402.4,213.3 403.4,223.3 404.5,233.1 405.5,214.9 406.6,223.3 407.6,219.0 408.7,209.6 409.7,200.3 410.8,215.1 411.8,223.3 412.9,215.1 413.9,232.5 415.0,223.3 416.0,205.7 417.1,207.1 418.1,223.3 419.2,223.4 420.2,223.3 421.3,233.2 422.3,223.4 423.4,234.8 424.4,223.2 425.5,223.0 426.5,223.4 427.6,223.9 428.6,231.2 429.7,248.1 430.7,233.3 431.8,235.7 432.8,239.4 433.9,233.2 434.9,229.7 436.0,215.5 437.0,231.7 438.1,233.2 439.1,233.2 440.2,233.1 441.2,228.3 442.3,225.3 443.3,231.2 444.4,240.6 445.4,220.4 446.5,223.3 447.5,223.4 448.6,228.4 449.6,226.3 450.7,226.6 451.7,210.1 452.8,213.3 453.8,220.4 454.9,226.5 455.9,213.9 457.0,223.3 458.0,215.7 459.1,224.2 460.1,233.2 461.2,170.2 462.2,199.8 463.2,223.3 464.3,200.5 465.3,212.4 466.4,214.7 467.4,233.1 468.5,221.6 469.5,228.3 470.6,223.3 471.6,215.7 472.7,212.4 473.7,200.0 474.8,192.4 475.8,194.7 476.9,208.9 477.9,200.0 479.0,215.1 480.0,228.0 481.1,213.3 482.1,233.3 483.2,223.1 484.2,222.6 485.3,223.4 486.3,219.0 487.4,223.2 488.4,240.4 489.5,226.2 490.5,231.5 491.6,233.2 492.6,226.7 493.7,233.2 494.7,236.3 495.8,240.4 496.8,223.5 497.9,224.2 498.9,223.4 500.0,233.2 501.0,227.8 502.1,223.4 503.1,231.7 504.2,226.6 505.2,92.4 506.3,215.1 507.3,223.3 508.4,213.8 509.4,231.5 510.5,230.2 511.5,223.4 512.6,223.4 513.6,223.3 514.7,220.4 515.7,223.2 516.8,233.2 517.8,238.4 518.9,233.2 519.9,231.7 521.0,213.9 522.0,223.4 523.1,223.3 524.1,238.0 525.2,232.3 526.2,217.1 527.3,212.6 528.3,230.2 529.4,226.8 530.4,230.5 531.5,233.4 532.5,200.3 533.6,233.3 534.6,233.3 535.7,216.7 536.7,220.5 537.8,228.0 538.8,220.3 539.9,219.8 540.9,226.9 542.0,231.9 543.0,233.0 544.1,223.3 545.1,237.7 546.2,240.3 547.2,225.0 548.3,236.6 549.3,223.3 550.4,227.9 551.4,211.9 552.5,214.8 553.5,214.8 554.6,223.3 555.6,223.3 556.7,217.0 557.7,234.2 558.8,224.1 559.8,231.5 560.8,223.4 561.9,223.4 562.9,236.6 564.0,216.9 565.0,233.6 566.1,224.5 567.1,236.6 568.2,223.3 569.2,231.8 570.3,231.4 571.3,223.3 572.4,168.8 573.4,223.3 574.5,224.5 575.5,224.6 576.6,226.7 577.6,223.4 578.7,223.3 579.7,239.7 580.8,223.4 581.8,230.2 582.9,223.4 583.9,228.4 585.0,226.6 586.0,238.6 587.1,232.1 588.1,236.6 589.2,236.3 590.2,232.3 591.3,236.4 592.3,233.6 593.4,240.4 594.4,223.4 595.5,241.1 596.5,212.7 597.6,225.1 598.6,205.7 599.7,213.8 600.7,223.4 601.8,201.9 602.8,223.3 603.9,223.1 604.9,223.4 606.0,231.5 607.0,223.4 608.1,236.3 609.1,223.4 610.2,226.9 611.2,222.4 612.3,223.4 613.3,234.7 614.4,235.8 615.4,200.3 616.5,230.5 617.5,230.2 618.6,235.3 619.6,230.2 620.7,232.1 621.7,216.6 622.8,232.6 623.8,212.7 624.9,230.1 625.9,222.9 627.0,219.7 628.0,225.0 629.1,223.4 630.1,223.4 631.2,219.7 632.2,229.3 633.3,196.0 634.3,220.2 635.4,212.0 636.4,231.5 637.5,170.2 638.5,230.2 639.6,199.8 640.6,220.0 641.7,216.7 642.7,210.0 643.8,215.8 644.8,239.5 645.9,231.5 646.9,223.3 648.0,227.9 649.0,223.3 650.1,209.9 651.1,223.4 652.2,207.1 653.2,223.3 654.3,200.0 655.3,199.8 656.3,201.8 657.4,223.4 658.4,235.0 659.5,223.4 660.5,216.6 661.6,230.6 662.6,231.6 663.7,219.9 664.7,223.3 665.8,214.8 666.8,231.3 667.9,230.2 668.9,231.4 670.0,236.4 671.0,240.4 672.1,229.4 673.1,228.0 674.2,218.7 675.2,227.7 676.3,227.9 677.3,204.0 678.4,220.5 679.4,215.5 680.5,226.7 681.5,224.4 682.6,225.1 683.6,232.1 684.7,231.5 685.7,223.4 686.8,229.2 687.8,236.3 688.9,223.7 689.9,237.1 691.0,225.0 692.0,231.4 693.1,236.4 694.1,236.3 695.2,233.4 696.2,237.6 697.3,212.1 698.3,228.0 699.4,233.2 700.4,222.8 701.5,223.2 702.5,222.2 703.6,222.3 704.6,215.1 705.7,223.4 706.7,172.5 707.8,210.3 708.8,223.3 709.9,214.0 710.9,217.9 712.0,231.6 713.0,215.8 714.1,214.9 715.1,232.2 716.2,222.0 717.2,227.8 718.3,223.3 719.3,223.3 720.4,230.1 721.4,220.4 722.5,211.4 723.5,208.2 724.6,232.6 725.6,223.1 726.7,224.4 727.7,218.9 728.8,223.2 729.8,211.8 730.9,228.8 731.9,223.6 733.0,223.3 734.0,233.2 735.1,229.9 736.1,223.3 737.2,236.3 738.2,223.7 739.3,223.4 740.3,236.8 741.4,214.9 742.4,230.2 743.5,227.6 744.5,234.1 745.6,223.7 746.6,225.3 747.7,222.3 748.7,223.4 749.8,224.5 750.8,223.4 751.9,218.4 752.9,208.6 753.9,195.0 755.0,224.5 756.0,212.1 757.1,229.2 758.1,223.3 759.2,223.4 760.2,199.9 761.3,208.3 762.3,223.4 763.4,217.7 764.4,220.4 765.5,223.4 766.5,189.0 767.6,215.4 768.6,223.4 769.7,230.2 770.7,224.4 771.8,233.2 772.8,219.1 773.9,216.6 774.9,233.2 776.0,198.6 777.0,223.3 778.1,223.6 779.1,216.6 780.2,223.3 781.2,223.4 782.3,223.4 783.3,221.2 784.4,215.8 785.4,200.2 786.5,183.2 787.5,223.4 788.6,223.7 789.6,200.5 790.7,227.0 791.7,226.5 792.8,241.1 793.8,239.9 794.9,237.3 795.9,236.6 797.0,192.0 798.0,244.7 799.1,208.6 800.1,233.3 801.2,241.0 802.2,240.2 803.3,223.5 804.3,174.1 805.4,223.3 806.4,194.8 807.5,229.1 808.5,236.2 809.6,241.0 810.6,220.4 811.7,228.2 812.7,256.0 813.8,170.2 814.8,200.3 815.9,256.2 816.9,223.4 818.0,226.2 819.0,223.3 820.1,236.7 821.1,223.3 822.2,230.2 823.2,216.6 824.3,181.2 825.3,223.4 826.4,204.6 827.4,210.1 828.5,208.6 829.5,200.0 830.6,223.8 831.6,227.4 832.7,243.2 833.7,213.2 834.8,240.6 835.8,224.6 836.9,231.9 837.9,230.1 839.0,241.0 840.0,229.3 841.1,237.6 842.1,247.8 843.2,245.3 844.2,252.0 845.3,236.3 846.3,238.6 847.4,240.9 848.4,199.5 849.4,194.9 850.5,224.5 851.5,218.0 852.6,223.5 853.6,216.6 854.7,216.7 855.7,233.2 856.8,236.3 857.8,237.1 858.9,245.8 859.9,238.2 861.0,237.1 862.0,230.8 863.1,207.1 864.1,236.3 865.2,233.2 866.2,240.9 867.3,213.1 868.3,223.4 869.4,236.4 870.4,227.7 871.5,224.6 872.5,230.2 873.6,214.8 874.6,222.2 875.7,216.8 876.7,223.3 877.8,229.9 878.8,224.9 879.9,227.8 880.9,257.6 882.0,230.2 883.0,236.7 884.1,235.8 885.1,223.4 886.2,231.8 887.2,223.4 888.3,223.3 889.3,211.7 890.4,242.1 891.4,225.6 892.5,200.2 893.5,220.4 894.6,223.3 895.6,223.4 896.7,214.7 897.7,233.5 898.8,223.3 899.8,238.6 900.9,223.3 901.9,241.1 903.0,240.4 904.0,223.4 905.1,225.0 906.1,198.4 907.2,237.3 908.2,299.1 909.3,332.3 910.3,333.7 911.4,330.9 912.4,331.5 913.5,256.7 914.5,327.6 915.6,327.7 916.6,331.7 917.7,333.7 918.7,332.3 919.8,331.6 920.8,322.4 921.9,331.5 922.9,332.9 924.0,331.0 925.0,328.4 926.1,333.2 927.1,329.7 928.2,329.7 929.2,329.6 930.3,330.4 931.3,331.5 932.4,327.6 933.4,331.5 934.5,329.1 935.5,327.7 936.6,330.3 937.6,328.4 938.7,331.3 939.7,335.3 940.8,331.5 941.8,330.0 942.9,331.5 943.9,330.0 945.0,331.6 946.0,324.9" fill="none" stroke="#d97706" stroke-width="2.2" stroke-linejoin="round" stroke-linecap="round"/>
<line x1="76" y1="70" x2="94" y2="70" stroke="#2563eb" stroke-width="3"/>
<text x="100" y="74" font-family="Arial, sans-serif" font-size="11" fill="#0f172a">avg fee</text>
<line x1="179" y1="70" x2="197" y2="70" stroke="#059669" stroke-width="3"/>
<text x="203" y="74" font-family="Arial, sans-serif" font-size="11" fill="#0f172a">median fee</text>
<line x1="303" y1="70" x2="321" y2="70" stroke="#d97706" stroke-width="3"/>
<text x="327" y="74" font-family="Arial, sans-serif" font-size="11" fill="#0f172a">p90 fee</text>
<text x="28" y="404" font-family="Arial, sans-serif" font-size="11" fill="#64748b">Source: hourly_features.csv</text>
</svg>