<svg xmlns="http://www.w3.org/2000/svg" width="980" height="420" viewBox="0 0 980 420">
<rect width="100%" height="100%" fill="#ffffff"/>
<text x="28" y="34" font-family="Arial, sans-serif" font-size="20" font-weight="700" fill="#0f172a">Hourly fee trend</text>
<text x="28" y="56" font-family="Arial, sans-serif" font-size="12" fill="#64748b">Average, median, and p90 total fee by hour</text>
<line x1="76" y1="362.0" x2="946" y2="362.0" stroke="#e2e8f0" stroke-width="1"/>
<text x="68" y="366.0" font-family="Arial, sans-serif" font-size="10" text-anchor="end" fill="#64748b">-382K</text>
<line x1="76" y1="292.0" x2="946" y2="292.0" stroke="#e2e8f0" stroke-width="1"/>
<text x="68" y="296.0" font-family="Arial, sans-serif" font-size="10" text-anchor="end" fill="#64748b">2.6M</text>
<line x1="76" y1="222.0" x2="946" y2="222.0" stroke="#e2e8f0" stroke-width="1"/>
<text x="68" y="226.0" font-family="Arial, sans-serif" font-size="10" text-anchor="end" fill="#64748b">5.7M</text>
<line x1="76" y1="152.0" x2="946" y2="152.0" stroke="#e2e8f0" stroke-width="1"/>
<text x="68" y="156.0" font-family="Arial, sans-serif" font-size="10" text-anchor="end" fill="#64748b">8.7M</text>
<line x1="76" y1="82.0" x2="946" y2="82.0" stroke="#e2e8f0" stroke-width="1"/>
<text x="68" y="86.0" font-family="Arial, sans-serif" font-size="10" text-anchor="end" fill="#64748b">11.7M</text>
<line x1="76" y1="362" x2="946" y2="362" stroke="#334155" stroke-width="1"/>
<line x1="76" y1="82" x2="76" y2="362" stroke="#334155" stroke-width="1"/>
<text x="76" y="72" font-family="Arial, sans-serif" font-size="11" fill="#64748b">nanoton</text>
<line x1="76.0" y1="362" x2="76.0" y2="366" stroke="#334155" stroke-width="1"/>
<text x="76.0" y="380" font-family="Arial, sans-serif" font-size="10" text-anchor="middle" fill="#64748b">0</text>
<line x1="511.5" y1="362" x2="511.5" y2="366" stroke="#334155" stroke-width="1"/>
<text x="511.5" y="380" font-family="Arial, sans-serif" font-size="10" text-anchor="middle" fill="#64748b">427</text>
<line x1="946.0" y1="362" x2="946.0" y2="366" stroke="#334155" stroke-width="1"/>
<text x="946.0" y="380" font-family="Arial, sans-serif" font-size="10" text-anchor="middle" fill="#64748b">853</text>
<polyline points="76.0,290.8 77.0,294.6 78.0,296.0 79.1,298.1 80.1,304.8 81.1,297.2 82.1,298.2 83.1,294.6 84.2,299.0 85.2,298.7 86.2,287.8 87.2,299.5 88.2,299.7 89.3,297.4 90.3,300.3 91.3,300.5 92.3,292.5 93.3,292.5 94.4,301.3 95.4,291.1 96.4,289.2 97.4,287.3 98.4,293.8 99.5,294.2 100.5,296.1 101.5,292.1 102.5,297.7 103.5,290.6 104.6,293.2 105.6,288.3 106.6,289.0 107.6,273.1 108.6,284.7 109.7,285.3 110.7,294.6 111.7,299.9 112.7,292.9 113.7,294.9 114.8,304.7 115.8,307.5 116.8,302.1 117.8,297.0 118.8,298.7 119.9,297.9 120.9,304.4 121.9,297.4 122.9,294.5 123.9,296.5 125.0,298.7 126.0,303.1 127.0,303.1 128.0,301.9 129.0,300.3 130.1,303.3 131.1,302.2 132.1,299.4 133.1,299.1 134.1,302.8 135.2,299.1 136.2,301.3 137.2,306.8 138.2,308.7 139.2,306.4 140.3,307.1 141.3,309.1 142.3,305.9 143.3,305.5 144.3,302.0 145.4,308.5 146.4,290.7 147.4,306.4 148.4,306.4 149.4,306.3 150.5,311.2 151.5,307.1 152.5,310.3 153.5,309.1 154.5,305.5 155.6,305.4 156.6,303.2 157.6,303.5 158.6,301.3 159.6,305.1 160.7,307.4 161.7,306.9 162.7,308.1 163.7,305.0 164.7,302.9 165.8,302.7 166.8,298.6 167.8,304.9 168.8,297.0 169.8,299.3 170.9,300.3 171.9,303.9 172.9,311.6 173.9,300.1 174.9,300.5 176.0,308.9 177.0,307.5 178.0,300.3 179.0,304.2 180.0,305.1 181.1,302.6 182.1,300.5 183.1,297.4 184.1,298.7 185.1,301.9 186.2,308.1 187.2,307.4 188.2,307.4 189.2,303.1 190.2,301.9 191.3,304.1 192.3,303.9 193.3,304.0 194.3,308.3 195.3,308.9 196.4,307.3 197.4,301.1 198.4,286.9 199.4,301.6 200.4,298.8 201.5,296.1 202.5,299.6 203.5,305.5 204.5,301.5 205.5,304.9 206.6,302.2 207.6,304.9 208.6,306.8 209.6,304.9 210.6,300.8 211.7,304.8 212.7,308.0 213.7,302.4 214.7,301.7 215.7,303.1 216.8,303.4 217.8,298.9 218.8,298.5 219.8,298.0 220.8,289.4 221.8,296.9 222.9,296.4 223.9,295.5 224.9,299.6 225.9,299.0 226.9,304.6 228.0,304.0 229.0,303.8 230.0,299.2 231.0,301.2 232.0,305.7 233.1,304.5 234.1,312.1 235.1,305.7 236.1,304.3 237.1,307.0 238.2,306.9 239.2,301.9 240.2,303.8 241.2,300.8 242.2,301.6 243.3,300.2 244.3,298.7 245.3,290.6 246.3,296.1 247.3,300.6 248.4,296.6 249.4,302.7 250.4,302.6 251.4,303.0 252.4,302.7 253.5,302.8 254.5,303.7 255.5,300.1 256.5,305.6 257.5,303.0 258.6,299.2 259.6,302.8 260.6,306.7 261.6,306.1 262.6,306.7 263.7,298.5 264.7,301.6 265.7,297.8 266.7,303.8 267.7,300.2 268.8,299.5 269.8,295.6 270.8,298.2 271.8,298.4 272.8,293.8 273.9,299.9 274.9,297.9 275.9,298.6 276.9,294.2 277.9,297.8 279.0,278.0 280.0,284.2 281.0,295.2 282.0,295.7 283.0,294.4 284.1,300.7 285.1,304.3 286.1,302.4 287.1,302.1 288.1,297.9 289.2,295.3 290.2,296.5 291.2,291.4 292.2,292.0 293.2,290.6 294.3,290.0 295.3,299.7 296.3,291.9 297.3,296.8 298.3,299.8 299.4,303.8 300.4,302.5 301.4,302.1 302.4,302.3 303.4,300.8 304.5,303.5 305.5,295.9 306.5,297.8 307.5,304.4 308.5,304.2 309.6,299.5 310.6,303.9 311.6,303.5 312.6,299.0 313.6,288.7 314.7,293.7 315.7,294.2 316.7,303.7 317.7,295.6 318.7,297.0 319.8,305.6 320.8,294.8 321.8,300.5 322.8,305.1 323.8,308.5 324.9,305.5 325.9,304.0 326.9,300.7 327.9,303.8 328.9,299.3 330.0,303.0 331.0,305.0 332.0,303.0 333.0,299.3 334.0,294.4 335.1,299.9 336.1,286.2 337.1,302.1 338.1,293.9 339.1,297.9 340.2,299.5 341.2,297.4 342.2,294.4 343.2,310.4 344.2,291.6 345.3,295.6 346.3,281.6 347.3,294.6 348.3,293.2 349.3,295.0 350.4,291.0 351.4,301.0 352.4,279.9 353.4,297.2 354.4,291.8 355.5,291.5 356.5,283.3 357.5,298.3 358.5,300.4 359.5,298.6 360.6,288.4 361.6,299.0 362.6,304.4 363.6,297.7 364.6,295.5 365.7,279.8 366.7,284.2 367.7,300.5 368.7,299.9 369.7,298.1 370.8,293.4 371.8,303.1 372.8,303.0 373.8,298.6 374.8,296.8 375.9,297.4 376.9,301.3 377.9,298.1 378.9,311.4 379.9,299.4 381.0,303.5 382.0,301.2 383.0,302.9 384.0,304.3 385.0,297.8 386.1,294.4 387.1,299.3 388.1,295.1 389.1,301.8 390.1,292.6 391.2,297.6 392.2,293.9 393.2,290.0 394.2,295.1 395.2,304.6 396.3,291.1 397.3,300.3 398.3,295.9 399.3,293.1 400.3,291.6 401.4,296.8 402.4,297.1 403.4,297.9 404.4,299.5 405.4,292.8 406.5,286.2 407.5,290.1 408.5,300.0 409.5,294.5 410.5,300.9 411.6,303.0 412.6,299.1 413.6,302.5 414.6,295.1 415.6,297.0 416.7,302.8 417.7,301.7 418.7,303.0 419.7,308.6 420.7,306.8 421.8,306.1 422.8,306.5 423.8,304.3 424.8,304.5 425.8,298.3 426.9,301.1 427.9,303.1 428.9,303.3 429.9,304.2 430.9,302.4 432.0,299.4 433.0,304.5 434.0,307.1 435.0,297.3 436.0,298.9 437.1,298.1 438.1,299.7 439.1,297.8 440.1,301.0 441.1,287.2 442.2,294.3 443.2,294.8 444.2,298.6 445.2,291.3 446.2,298.4 447.3,294.6 448.3,298.7 449.3,304.2 450.3,282.2 451.3,289.8 452.4,298.8 453.4,295.1 454.4,293.4 455.4,294.7 456.4,304.3 457.5,296.9 458.5,301.7 459.5,296.7 460.5,295.6 461.5,292.9 462.6,291.6 463.6,286.7 464.6,287.8 465.6,294.2 466.6,292.6 467.7,297.5 468.7,303.1 469.7,296.8 470.7,304.1 471.7,298.7 472.8,297.8 473.8,299.3 474.8,297.1 475.8,296.6 476.8,305.5 477.9,301.9 478.9,304.5 479.9,302.9 480.9,303.4 481.9,302.7 483.0,304.5 484.0,301.7 485.0,300.0 486.0,297.3 487.0,295.0 488.1,305.0 489.1,302.7 490.1,303.7 491.1,302.8 492.1,298.5 493.2,257.0 494.2,291.0 495.2,298.5 496.2,296.3 497.2,301.0 498.3,301.6 499.3,299.9 500.3,299.3 501.3,299.6 502.3,296.0 503.4,299.4 504.4,305.6 505.4,306.5 506.4,300.9 507.4,302.7 508.5,295.0 509.5,302.2 510.5,296.9 511.5,304.8 512.5,299.1 513.5,295.6 514.6,295.1 515.6,300.9 516.6,301.0 517.6,300.7 518.6,304.5 519.7,292.6 520.7,303.5 521.7,306.0 522.7,295.5 523.7,297.4 524.8,302.8 525.8,295.8 526.8,299.5 527.8,304.0 528.8,301.7 529.9,303.8 530.9,300.8 531.9,306.1 532.9,305.6 533.9,300.8 535.0,303.2 536.0,297.1 537.0,300.2 538.0,292.3 539.0,292.0 540.1,292.1 541.1,299.3 542.1,298.5 543.1,298.8 544.1,301.5 545.2,299.6 546.2,305.3 547.2,300.2 548.2,300.6 549.2,304.7 550.3,299.2 551.3,304.4 552.3,299.7 553.3,306.4 554.3,299.1 555.4,304.5 556.4,303.3 557.4,298.0 558.4,263.7 559.4,302.9 560.5,304.6 561.5,301.3 562.5,300.8 563.5,298.3 564.5,299.9 565.6,302.7 566.6,298.6 567.6,304.0 568.6,302.8 569.6,303.0 570.7,301.1 571.7,308.3 572.7,304.5 573.7,309.0 574.7,304.5 575.8,303.7 576.8,304.9 577.8,303.6 578.8,305.3 579.8,299.5 580.9,305.2 581.9,297.1 582.9,302.2 583.9,288.1 584.9,294.6 586.0,299.7 587.0,287.4 588.0,299.0 589.0,298.4 590.0,296.8 591.1,301.1 592.1,299.5 593.1,302.6 594.1,299.3 595.1,303.0 596.2,298.0 597.2,301.6 598.2,305.3 599.2,304.5 600.2,290.4 601.3,303.1 602.3,299.6 603.3,302.4 604.3,303.1 605.3,304.7 606.4,296.3 607.4,301.7 608.4,292.9 609.4,298.2 610.4,294.8 611.5,293.5 612.5,299.4 613.5,297.4 614.5,300.4 615.5,295.6 616.6,301.5 617.6,282.6 618.6,297.4 619.6,291.2 620.6,300.8 621.7,281.3 622.7,303.6 623.7,292.1 624.7,296.5 625.7,300.9 626.8,293.9 627.8,295.3 628.8,305.2 629.8,304.7 630.8,300.3 631.9,302.0 632.9,297.5 633.9,295.0 634.9,296.6 635.9,292.7 637.0,298.7 638.0,291.1 639.0,289.9 640.0,292.8 641.0,302.6 642.1,303.5 643.1,301.6 644.1,297.5 645.1,303.0 646.1,302.5 647.2,299.3 648.2,300.0 649.2,295.7 650.2,300.6 651.2,302.5 652.3,302.2 653.3,300.7 654.3,305.4 655.3,305.1 656.3,301.0 657.4,294.2 658.4,301.0 659.4,298.9 660.4,290.4 661.4,295.9 662.5,294.1 663.5,301.3 664.5,298.2 665.5,299.2 666.5,302.6 667.6,300.9 668.6,299.2 669.6,302.7 670.6,303.6 671.6,299.5 672.7,304.4 673.7,298.2 674.7,302.7 675.7,304.9 676.7,303.3 677.8,303.8 678.8,305.7 679.8,294.6 680.8,306.7 681.8,303.7 682.9,295.1 683.9,294.1 684.9,293.7 685.9,295.9 686.9,295.9 688.0,298.1 689.0,284.7 690.0,294.9 691.0,298.6 692.0,296.3 693.1,294.2 694.1,300.6 695.1,294.3 696.1,295.9 697.1,303.8 698.2,295.8 699.2,302.6 700.2,297.7 701.2,300.0 702.2,300.7 703.3,298.3 704.3,294.8 705.3,295.8 706.3,303.0 707.3,295.6 708.4,296.0 709.4,295.2 710.4,295.3 711.4,295.0 712.4,299.9 713.5,299.0 714.5,295.9 715.5,303.3 716.5,302.9 717.5,298.2 718.6,305.5 719.6,300.9 720.6,300.4 721.6,305.2 722.6,295.8 723.7,301.8 724.7,303.2 725.7,304.6 726.7,299.1 727.7,301.0 728.8,298.0 729.8,298.8 730.8,297.3 731.8,300.8 732.8,296.0 733.9,293.0 734.9,284.2 735.9,298.8 736.9,293.9 737.9,298.9 739.0,298.8 740.0,298.0 741.0,291.0 742.0,292.3 743.0,298.2 744.1,297.5 745.1,297.5 746.1,298.5 747.1,288.2 748.1,296.5 749.2,297.3 750.2,301.7 751.2,301.0 752.2,305.4 753.2,295.8 754.3,295.1 755.3,299.8 756.3,289.6 757.3,296.7 758.3,295.1 759.4,295.1 760.4,294.8 761.4,297.5 762.4,299.5 763.4,295.8 764.5,297.0 765.5,291.7 766.5,285.1 767.5,299.7 768.5,301.0 769.6,293.6 770.6,302.3 771.6,297.5 772.6,307.7 773.6,292.5 774.7,304.9 775.7,304.1 776.7,291.9 777.7,305.2 778.7,297.8 779.8,298.1 780.8,307.4 781.8,305.4 782.8,294.0 783.8,284.5 784.9,295.7 785.9,281.6 786.9,295.8 787.9,307.1 788.9,303.5 790.0,299.2 791.0,301.5 792.0,309.0 793.0,287.8 794.0,293.3 795.1,314.3 796.1,300.8 797.1,304.2 798.1,299.2 799.1,305.4 800.2,297.5 801.2,303.5 802.2,297.3 803.2,286.2 804.2,295.6 805.2,293.4 806.3,295.3 807.3,292.6 808.3,295.0 809.3,297.5 810.3,303.2 811.4,307.8 812.4,295.2 813.4,306.6 814.4,305.0 815.4,305.4 816.5,303.1 817.5,297.4 818.5,293.5 819.5,305.0 820.5,310.4 821.6,306.6 822.6,309.4 823.6,304.0 824.6,307.8 825.6,308.2 826.7,299.0 827.7,288.2 828.7,297.1 829.7,298.1 830.7,298.6 831.8,298.7 832.8,295.2 833.8,305.8 834.8,307.8 835.8,304.4 836.9,309.3 837.9,306.7 838.9,303.2 839.9,303.6 840.9,296.5 842.0,304.1 843.0,305.5 844.0,308.2 845.0,291.8 846.0,301.9 847.1,305.3 848.1,302.2 849.1,300.9 850.1,302.7 851.1,295.0 852.2,295.0 853.2,295.3 854.2,299.1 855.2,299.0 856.2,300.9 857.3,304.6 858.3,307.3 859.3,303.1 860.3,300.9 861.3,303.0 862.4,290.9 863.4,301.1 864.4,301.9 865.4,302.0 866.4,295.6 867.5,306.6 868.5,304.1 869.5,288.8 870.5,297.4 871.5,295.3 872.6,295.7 873.6,296.1 874.6,306.3 875.6,300.3 876.6,304.9 877.7,295.7 878.7,303.6 879.7,305.1 880.7,302.6 881.7,301.6 882.8,285.2 883.8,304.3 884.8,334.7 885.8,343.7 886.8,343.8 887.9,343.5 888.9,344.0 889.9,319.0 890.9,342.3 891.9,343.1 893.0,342.6 894.0,343.4 895.0,343.4 896.0,343.4 897.0,338.9 898.1,343.5 899.1,344.5 900.1,342.7 901.1,342.0 902.1,343.8 903.2,343.0 904.2,343.2 905.2,340.3 906.2,342.7 907.2,343.4 908.3,342.2 909.3,343.9 910.3,341.8 911.3,341.2 912.3,342.8 913.4,342.4 914.4,343.3 915.4,344.8 916.4,343.7 917.4,343.3 918.5,344.0 919.5,342.7 920.5,343.5 921.5,341.8 922.5,340.1 923.6,342.3 924.6,342.4 925.6,339.6 926.6,341.5 927.6,340.5 928.7,343.1 929.7,341.6 930.7,340.5 931.7,342.3 932.7,342.5 933.8,342.2 934.8,343.0 935.8,342.6 936.8,342.9 937.8,343.5 938.9,342.4 939.9,340.9 940.9,341.4 941.9,342.5 942.9,343.3 944.0,343.5 945.0,343.3 946.0,342.9" fill="none" stroke="#2563eb" stroke-width="2.2" stroke-linejoin="round" stroke-linecap="round"/>
<polyline points="76.0,311.4 77.0,324.9 78.0,334.1 79.1,334.5 80.1,335.0 81.1,334.6 82.1,334.4 83.1,330.8 84.2,334.6 85.2,334.6 86.2,320.5 87.2,334.6 88.2,334.2 89.3,330.7 90.3,334.4 91.3,333.8 92.3,321.1 93.3,330.5 94.4,332.4 95.4,310.6 96.4,302.9 97.4,305.9 98.4,320.5 99.5,315.5 100.5,310.4 101.5,329.8 102.5,333.4 103.5,312.5 104.6,335.0 105.6,319.0 106.6,330.5 107.6,283.8 108.6,300.4 109.7,303.3 110.7,308.3 111.7,331.3 112.7,312.5 113.7,310.6 114.8,334.9 115.8,335.0 116.8,329.7 117.8,310.6 118.8,310.6 119.9,312.5 120.9,340.8 121.9,334.9 122.9,308.9 123.9,310.3 125.0,334.9 126.0,335.3 127.0,334.2 128.0,333.4 129.0,333.9 130.1,334.6 131.1,331.5 132.1,334.6 133.1,330.9 134.1,334.3 135.2,334.6 136.2,334.2 137.2,335.0 138.2,334.9 139.2,334.9 140.3,344.0 141.3,335.8 142.3,334.9 143.3,334.9 144.3,330.7 145.4,344.0 146.4,335.6 147.4,336.2 148.4,336.2 149.4,335.0 150.5,338.1 151.5,336.2 152.5,336.1 153.5,335.1 154.5,335.0 155.6,335.0 156.6,334.5 157.6,335.0 158.6,334.6 159.6,334.6 160.7,335.0 161.7,335.0 162.7,335.0 163.7,334.3 164.7,334.9 165.8,334.9 166.8,330.7 167.8,334.7 168.8,312.2 169.8,329.6 170.9,331.1 171.9,333.8 172.9,344.0 173.9,330.6 174.9,333.8 176.0,335.0 177.0,336.2 178.0,334.7 179.0,334.7 180.0,334.8 181.1,334.6 182.1,331.0 183.1,330.5 184.1,331.5 185.1,333.0 186.2,335.0 187.2,334.9 188.2,334.9 189.2,334.1 190.2,334.9 191.3,334.9 192.3,331.5 193.3,332.3 194.3,336.2 195.3,344.0 196.4,336.1 197.4,335.0 198.4,310.1 199.4,334.9 200.4,334.5 201.5,334.7 202.5,333.8 203.5,334.9 204.5,334.0 205.5,334.9 206.6,334.9 207.6,334.9 208.6,335.0 209.6,334.7 210.6,333.2 211.7,334.9 212.7,335.0 213.7,335.0 214.7,334.1 215.7,334.2 216.8,330.3 217.8,310.6 218.8,298.7 219.8,309.8 220.8,304.4 221.8,310.2 222.9,310.1 223.9,327.6 224.9,333.0 225.9,333.8 226.9,333.8 228.0,334.9 229.0,334.9 230.0,333.8 231.0,334.7 232.0,334.7 233.1,334.6 234.1,344.0 235.1,334.9 236.1,334.9 237.1,335.0 238.2,335.0 239.2,333.8 240.2,334.4 241.2,330.9 242.2,319.7 243.3,298.7 244.3,334.1 245.3,326.9 246.3,334.7 247.3,331.8 248.4,331.8 249.4,331.4 250.4,334.7 251.4,334.4 252.4,334.6 253.5,334.6 254.5,330.7 255.5,330.7 256.5,334.9 257.5,334.4 258.6,331.0 259.6,334.6 260.6,335.0 261.6,334.6 262.6,334.9 263.7,330.5 264.7,334.3 265.7,315.6 266.7,334.6 267.7,298.7 268.8,334.0 269.8,329.7 270.8,332.6 271.8,331.8 272.8,310.6 273.9,331.8 274.9,332.3 275.9,334.6 276.9,323.8 277.9,334.0 279.0,295.8 280.0,298.7 281.0,327.1 282.0,331.1 283.0,330.7 284.1,332.3 285.1,334.6 286.1,334.7 287.1,334.1 288.1,324.8 289.2,315.1 290.2,308.6 291.2,305.4 292.2,298.7 293.2,306.5 294.3,305.4 295.3,331.7 296.3,305.5 297.3,317.0 298.3,333.4 299.4,335.0 300.4,334.1 301.4,335.0 302.4,334.9 303.4,333.7 304.5,335.0 305.5,319.7 306.5,319.7 307.5,334.1 308.5,333.8 309.6,333.4 310.6,334.7 311.6,334.6 312.6,331.3 313.6,305.4 314.7,308.2 315.7,308.3 316.7,298.7 317.7,310.2 318.7,335.5 319.8,336.2 320.8,312.5 321.8,334.5 322.8,336.2 323.8,335.9 324.9,336.2 325.9,335.0 326.9,333.8 327.9,334.3 328.9,334.4 330.0,333.5 331.0,334.6 332.0,334.4 333.0,329.6 334.0,308.9 335.1,334.1 336.1,308.2 337.1,334.4 338.1,310.7 339.1,310.3 340.2,325.1 341.2,305.5 342.2,319.7 343.2,344.0 344.2,315.6 345.3,334.2 346.3,308.2 347.3,309.9 348.3,330.0 349.3,334.1 350.4,335.0 351.4,333.2 352.4,323.8 353.4,333.8 354.4,308.2 355.5,306.1 356.5,323.8 357.5,315.6 358.5,333.4 359.5,332.6 360.6,303.2 361.6,334.1 362.6,334.7 363.6,326.5 364.6,333.8 365.7,320.8 366.7,333.7 367.7,333.7 368.7,334.1 369.7,330.7 370.8,331.8 371.8,333.7 372.8,334.6 373.8,333.8 374.8,333.0 375.9,310.6 376.9,334.7 377.9,330.7 378.9,345.9 379.9,333.8 381.0,334.7 382.0,333.7 383.0,334.7 384.0,334.7 385.0,310.6 386.1,315.4 387.1,332.0 388.1,310.5 389.1,331.7 390.1,305.3 391.2,330.5 392.2,326.9 393.2,302.2 394.2,309.7 395.2,335.9 396.3,333.4 397.3,334.9 398.3,334.4 399.3,306.5 400.3,306.5 401.4,318.3 402.4,320.1 403.4,323.6 404.4,331.8 405.4,310.6 406.5,305.4 407.5,308.2 408.5,331.8 409.5,305.2 410.5,330.5 411.6,334.1 412.6,326.7 413.6,330.7 414.6,305.4 415.6,308.2 416.7,333.8 417.7,334.1 418.7,335.0 419.7,340.8 420.7,336.2 421.8,336.1 422.8,335.0 423.8,336.2 424.8,335.8 425.8,333.8 426.9,334.4 427.9,335.0 428.9,334.8 429.9,334.9 430.9,334.6 432.0,331.8 433.0,334.5 434.0,335.0 435.0,329.1 436.0,330.7 437.1,325.8 438.1,325.3 439.1,308.2 440.1,333.5 441.1,308.4 442.2,310.3 443.2,330.5 444.2,319.6 445.2,308.3 446.2,334.6 447.3,318.7 448.3,335.8 449.3,335.0 450.3,297.6 451.3,305.3 452.4,325.3 453.4,325.7 454.4,318.9 455.4,310.3 456.4,334.9 457.5,321.4 458.5,334.2 459.5,331.5 460.5,329.7 461.5,309.6 462.6,308.4 463.6,298.7 464.6,302.7 465.6,305.5 466.6,309.0 467.7,331.8 468.7,334.0 469.7,329.6 470.7,334.7 471.7,333.8 472.8,335.0 473.8,334.0 474.8,334.0 475.8,325.3 476.8,334.9 477.9,334.5 478.9,334.6 479.9,334.7 480.9,334.7 481.9,334.7 483.0,334.6 484.0,334.1 485.0,326.9 486.0,326.6 487.0,305.4 488.1,343.0 489.1,335.3 490.1,344.0 491.1,335.0 492.1,329.1 493.2,301.0 494.2,334.2 495.2,334.1 496.2,315.6 497.2,335.0 498.3,334.1 499.3,334.6 500.3,333.6 501.3,330.5 502.3,330.4 503.4,333.8 504.4,335.0 505.4,335.0 506.4,333.2 507.4,334.4 508.5,310.5 509.5,332.0 510.5,310.1 511.5,332.7 512.5,305.4 513.5,309.8 514.6,310.6 515.6,330.0 516.6,333.8 517.6,332.4 518.6,335.3 519.7,318.3 520.7,334.7 521.7,336.2 522.7,331.4 523.7,325.8 524.8,334.6 525.8,331.3 526.8,331.8 527.8,334.7 528.8,334.5 529.9,333.8 530.9,330.7 531.9,334.9 532.9,334.8 533.9,331.8 535.0,333.2 536.0,310.7 537.0,330.5 538.0,308.2 539.0,308.4 540.1,305.4 541.1,330.4 542.1,326.9 543.1,330.4 544.1,334.9 545.2,331.5 546.2,335.0 547.2,334.6 548.2,334.1 549.2,334.9 550.3,334.7 551.3,335.0 552.3,333.8 553.3,335.0 554.3,333.3 555.4,334.6 556.4,335.0 557.4,332.7 558.4,283.6 559.4,333.8 560.5,335.0 561.5,319.3 562.5,331.1 563.5,329.7 564.5,331.8 565.6,334.1 566.6,334.6 567.6,334.9 568.6,334.7 569.6,334.6 570.7,334.8 571.7,335.0 572.7,334.9 573.7,335.0 574.7,334.9 575.8,334.7 576.8,334.9 577.8,335.0 578.8,334.7 579.8,334.1 580.9,335.7 581.9,334.1 582.9,334.4 583.9,305.3 584.9,319.6 586.0,309.3 587.0,300.7 588.0,310.4 589.0,330.5 590.0,310.6 591.1,330.5 592.1,333.0 593.1,334.7 594.1,333.8 595.1,334.1 596.2,330.9 597.2,334.7 598.2,334.9 599.2,334.9 600.2,305.4 601.3,334.4 602.3,331.0 603.3,335.0 604.3,333.8 605.3,335.0 606.4,333.8 607.4,334.9 608.4,310.6 609.4,334.3 610.4,306.4 611.5,308.4 612.5,333.8 613.5,330.9 614.5,334.1 615.5,329.7 616.6,334.3 617.6,305.3 618.6,330.7 619.6,328.8 620.6,333.8 621.7,295.8 622.7,334.6 623.7,310.6 624.7,310.6 625.7,333.8 626.8,318.4 627.8,318.5 628.8,334.2 629.8,334.9 630.8,334.1 631.9,334.1 632.9,330.4 633.9,308.2 634.9,308.2 635.9,310.2 637.0,333.8 638.0,310.6 639.0,310.4 640.0,327.3 641.0,332.0 642.1,335.0 643.1,334.6 644.1,334.0 645.1,334.6 646.1,334.5 647.2,330.7 648.2,333.5 649.2,331.5 650.2,334.6 651.2,334.1 652.3,333.8 653.3,330.7 654.3,334.7 655.3,334.9 656.3,332.0 657.4,307.0 658.4,326.1 659.4,305.4 660.4,306.4 661.4,309.0 662.5,306.4 663.5,334.6 664.5,327.0 665.5,333.8 666.5,333.2 667.6,334.1 668.6,335.0 669.6,334.6 670.6,333.9 671.6,333.8 672.7,334.7 673.7,330.7 674.7,331.8 675.7,334.9 676.7,334.1 677.8,334.6 678.8,334.9 679.8,327.5 680.8,335.0 681.8,333.6 682.9,319.7 683.9,302.9 684.9,310.1 685.9,327.5 686.9,326.8 688.0,323.6 689.0,298.7 690.0,310.6 691.0,331.1 692.0,330.7 693.1,334.6 694.1,324.6 695.1,323.8 696.1,330.4 697.1,333.8 698.2,330.7 699.2,334.6 700.2,323.9 701.2,333.2 702.2,334.1 703.3,325.7 704.3,309.1 705.3,315.6 706.3,333.8 707.3,308.5 708.4,306.5 709.4,308.2 710.4,310.2 711.4,312.5 712.4,331.0 713.5,331.9 714.5,317.9 715.5,334.6 716.5,335.0 717.5,335.0 718.6,335.0 719.6,334.6 720.6,333.8 721.6,334.9 722.6,330.4 723.7,334.3 724.7,334.6 725.7,334.2 726.7,333.8 727.7,335.0 728.8,330.7 729.8,333.8 730.8,315.5 731.8,330.7 732.8,305.4 733.9,324.4 734.9,306.5 735.9,331.8 736.9,308.9 737.9,333.8 739.0,333.8 740.0,331.2 741.0,310.7 742.0,333.8 743.0,330.0 744.1,327.2 745.1,323.8 746.1,330.0 747.1,305.0 748.1,312.5 749.2,333.8 750.2,332.0 751.2,329.7 752.2,333.8 753.2,322.8 754.3,308.3 755.3,310.4 756.3,305.2 757.3,305.4 758.3,308.2 759.4,310.7 760.4,310.1 761.4,319.6 762.4,325.7 763.4,330.8 764.5,330.9 765.5,305.4 766.5,305.2 767.5,333.8 768.5,331.0 769.6,305.4 770.6,334.7 771.6,308.3 772.6,334.1 773.6,334.7 774.7,332.8 775.7,332.9 776.7,308.2 777.7,335.0 778.7,330.4 779.8,310.4 780.8,330.0 781.8,326.8 782.8,305.9 783.8,306.4 784.9,323.8 785.9,296.7 786.9,334.1 787.9,335.0 788.9,335.0 790.0,331.5 791.0,334.7 792.0,335.0 793.0,304.3 794.0,308.2 795.1,335.0 796.1,331.8 797.1,334.5 798.1,331.2 799.1,334.7 800.2,331.8 801.2,321.5 802.2,334.9 803.2,331.9 804.2,310.4 805.2,308.3 806.3,305.4 807.3,305.9 808.3,305.7 809.3,324.6 810.3,330.7 811.4,334.5 812.4,331.6 813.4,335.0 814.4,335.0 815.4,335.0 816.5,322.4 817.5,334.9 818.5,331.1 819.5,335.0 820.5,344.0 821.6,344.0 822.6,344.0 823.6,334.6 824.6,335.0 825.6,335.0 826.7,334.4 827.7,311.6 828.7,308.9 829.7,308.2 830.7,308.1 831.8,330.4 832.8,308.6 833.8,337.4 834.8,335.0 835.8,335.0 836.9,335.0 837.9,331.8 838.9,332.0 839.9,334.1 840.9,330.5 842.0,334.6 843.0,335.0 844.0,334.9 845.0,312.5 846.0,333.8 847.1,332.0 848.1,333.8 849.1,331.7 850.1,331.0 851.1,310.7 852.2,308.6 853.2,314.0 854.2,327.1 855.2,304.8 856.2,340.8 857.3,341.6 858.3,335.0 859.3,334.6 860.3,334.6 861.3,324.6 862.4,317.8 863.4,346.0 864.4,334.6 865.4,334.9 866.4,317.9 867.5,344.0 868.5,334.0 869.5,321.8 870.5,332.8 871.5,325.5 872.6,333.8 873.6,313.7 874.6,334.6 875.6,328.5 876.6,331.2 877.7,305.4 878.7,331.0 879.7,310.0 880.7,331.4 881.7,330.2 882.8,290.8 883.8,335.0 884.8,347.8 885.8,350.1 886.8,349.5 887.9,346.1 888.9,349.4 889.9,341.0 890.9,346.4 891.9,349.3 893.0,344.7 894.0,345.1 895.0,349.2 896.0,349.4 897.0,343.5 898.1,350.0 899.1,350.1 900.1,347.6 901.1,344.9 902.1,349.2 903.2,345.2 904.2,344.1 905.2,344.7 906.2,345.7 907.2,346.1 908.3,345.7 909.3,349.5 910.3,345.1 911.3,349.4 912.3,348.7 913.4,346.1 914.4,345.8 915.4,351.6 916.4,348.3 917.4,345.7 918.5,349.9 919.5,344.7 920.5,346.4 921.5,345.2 922.5,343.4 923.6,345.2 924.6,346.1 925.6,342.1 926.6,343.4 927.6,343.5 928.7,345.2 929.7,345.2 930.7,344.0 931.7,345.2 932.7,345.4 933.8,345.3 934.8,344.8 935.8,345.8 936.8,346.1 937.8,344.8 938.9,345.0 939.9,344.3 940.9,345.2 941.9,347.2 942.9,347.4 944.0,350.1 945.0,346.4 946.0,348.9" fill="none" stroke="#059669" stroke-width="2.2" stroke-linejoin="round" stroke-linecap="round"/>
<polyline points="76.0,208.9 77.0,216.7 78.0,223.4 79.1,228.3 80.1,236.4 81.1,228.3 82.1,223.3 83.1,216.9 84.2,223.4 85.2,223.3 86.2,199.8 87.2,223.4 88.2,224.6 89.3,223.3 90.3,226.2 91.3,227.6 92.3,211.5 93.3,216.7 94.4,236.0 95.4,216.6 96.4,215.8 97.4,199.8 98.4,220.3 99.5,223.2 100.5,223.4 101.5,220.5 102.5,223.3 103.5,213.2 104.6,216.6 105.6,200.1 106.6,199.8 107.6,160.5 108.6,170.2 109.7,170.2 110.7,209.6 111.7,215.8 112.7,209.6 113.7,208.2 114.8,233.3 115.8,241.0 116.8,230.2 117.8,223.3 118.8,223.8 119.9,223.4 120.9,227.6 121.9,220.4 122.9,213.7 123.9,221.6 125.0,214.1 126.0,236.4 127.0,233.9 128.0,228.8 129.0,229.4 130.1,230.2 131.1,223.4 132.1,223.4 133.1,224.4 134.1,227.8 135.2,231.4 136.2,223.4 137.2,236.4 138.2,240.4 139.2,233.6 140.3,244.6 141.3,239.4 142.3,240.4 143.3,238.9 144.3,236.3 145.4,251.7 146.4,206.3 147.4,236.6 148.4,237.6 149.4,234.6 150.5,248.7 151.5,242.6 152.5,246.3 153.5,241.1 154.5,232.3 155.6,233.3 156.6,228.3 157.6,223.5 158.6,229.7 159.6,233.3 160.7,246.2 161.7,238.6 162.7,241.0 163.7,231.4 164.7,230.1 165.8,230.4 166.8,216.6 167.8,239.0 168.8,223.4 169.8,231.9 170.9,231.4 171.9,242.9 172.9,248.9 173.9,223.4 174.9,227.9 176.0,242.4 177.0,237.1 178.0,229.7 179.0,234.8 180.0,236.4 181.1,233.2 182.1,223.4 183.1,223.4 184.1,230.1 185.1,233.2 186.2,241.8 187.2,237.6 188.2,246.3 189.2,230.4 190.2,230.5 191.3,237.1 192.3,236.4 193.3,236.6 194.3,241.3 195.3,240.4 196.4,240.4 197.4,233.2 198.4,200.3 199.4,223.3 200.4,223.4 201.5,216.6 202.5,229.6 203.5,233.3 204.5,231.4 205.5,233.3 206.6,230.8 207.6,236.3 208.6,236.3 209.6,233.3 210.6,230.2 211.7,238.7 212.7,238.8 213.7,237.6 214.7,228.0 215.7,226.9 216.8,237.0 217.8,226.6 218.8,232.3 219.8,231.4 220.8,207.0 221.8,223.4 222.9,223.3 223.9,223.3 224.9,225.0 225.9,223.4 226.9,236.4 228.0,236.4 229.0,231.9 230.0,230.2 231.0,235.6 232.0,236.3 233.1,236.7 234.1,251.5 235.1,233.3 236.1,233.3 237.1,241.1 238.2,241.0 239.2,233.3 240.2,232.1 241.2,225.6 242.2,223.4 243.3,241.1 244.3,223.4 245.3,199.8 246.3,231.6 247.3,233.2 248.4,223.4 249.4,228.7 250.4,233.2 251.4,236.4 252.4,233.2 253.5,232.7 254.5,233.7 255.5,223.4 256.5,238.3 257.5,233.9 258.6,223.4 259.6,232.6 260.6,238.6 261.6,240.5 262.6,247.9 263.7,224.1 264.7,223.3 265.7,224.5 266.7,234.8 267.7,247.0 268.8,227.7 269.8,223.2 270.8,223.4 271.8,225.2 272.8,222.7 273.9,229.5 274.9,223.4 275.9,228.1 276.9,212.0 277.9,223.2 279.0,160.5 280.0,171.2 281.0,200.0 282.0,210.4 283.0,201.6 284.1,223.4 285.1,232.3 286.1,227.9 287.1,226.7 288.1,216.8 289.2,216.6 290.2,223.4 291.2,200.0 292.2,227.0 293.2,199.8 294.3,199.8 295.3,223.4 296.3,210.4 297.3,217.0 298.3,224.4 299.4,223.4 300.4,224.5 301.4,224.1 302.4,226.6 303.4,223.4 304.5,233.2 305.5,208.9 306.5,221.6 307.5,233.3 308.5,232.1 309.6,223.3 310.6,228.3 311.6,230.2 312.6,223.4 313.6,202.6 314.7,220.4 315.7,223.2 316.7,257.5 317.7,219.7 318.7,214.4 319.8,240.0 320.8,215.3 321.8,228.3 322.8,233.5 323.8,241.1 324.9,240.7 325.9,233.2 326.9,233.2 327.9,227.4 328.9,223.4 330.0,240.4 331.0,231.6 332.0,230.9 333.0,218.4 334.0,210.8 335.1,228.0 336.1,182.3 337.1,231.0 338.1,214.8 339.1,222.1 340.2,223.4 341.2,227.6 342.2,214.7 343.2,240.7 344.2,215.1 345.3,221.5 346.3,199.7 347.3,197.1 348.3,195.3 349.3,216.6 350.4,210.6 351.4,223.4 352.4,170.2 353.4,220.5 354.4,205.1 355.5,205.7 356.5,199.8 357.5,221.7 358.5,228.0 359.5,223.4 360.6,168.9 361.6,223.3 362.6,231.5 363.6,223.2 364.6,223.4 365.7,176.3 366.7,200.3 367.7,226.2 368.7,231.6 369.7,223.4 370.8,209.8 371.8,233.3 372.8,232.6 373.8,224.4 374.8,223.4 375.9,220.4 376.9,230.2 377.9,223.3 378.9,251.8 379.9,231.2 381.0,231.4 382.0,230.2 383.0,233.1 384.0,233.1 385.0,224.5 386.1,223.2 387.1,223.3 388.1,223.3 389.1,223.3 390.1,214.8 391.2,223.4 392.2,214.7 393.2,213.3 394.2,223.3 395.2,233.1 396.3,214.9 397.3,223.3 398.3,219.0 399.3,209.6 400.3,200.3 401.4,215.1 402.4,223.3 403.4,215.1 404.4,232.5 405.4,223.3 406.5,205.7 407.5,207.1 408.5,223.3 409.5,223.4 410.5,223.3 411.6,233.2 412.6,223.4 413.6,234.8 414.6,223.2 415.6,223.0 416.7,223.4 417.7,223.9 418.7,231.2 419.7,248.1 420.7,233.3 421.8,235.7 422.8,239.4 423.8,233.2 424.8,229.7 425.8,215.5 426.9,231.7 427.9,233.2 428.9,233.2 429.9,233.1 430.9,228.3 432.0,225.3 433.0,231.2 434.0,240.6 435.0,220.4 436.0,223.3 437.1,223.4 438.1,228.4 439.1,226.3 440.1,226.6 441.1,210.1 442.2,213.3 443.2,220.4 444.2,226.5 445.2,213.9 446.2,223.3 447.3,215.7 448.3,224.2 449.3,233.2 450.3,170.2 451.3,199.8 452.4,223.3 453.4,200.5 454.4,212.4 455.4,214.7 456.4,233.1 457.5,221.6 458.5,228.3 459.5,223.3 460.5,215.7 461.5,212.4 462.6,200.0 463.6,192.4 464.6,194.7 465.6,208.9 466.6,200.0 467.7,215.1 468.7,228.0 469.7,213.3 470.7,233.3 471.7,223.1 472.8,222.6 473.8,223.4 474.8,219.0 475.8,223.2 476.8,240.4 477.9,226.2 478.9,231.5 479.9,233.2 480.9,226.7 481.9,233.2 483.0,236.3 484.0,240.4 485.0,223.5 486.0,224.2 487.0,223.4 488.1,233.2 489.1,227.8 490.1,223.4 491.1,231.7 492.1,226.6 493.2,92.4 494.2,215.1 495.2,223.3 496.2,213.8 497.2,231.5 498.3,230.2 499.3,223.4 500.3,223.4 501.3,223.3 502.3,220.4 503.4,223.2 504.4,233.2 505.4,238.4 506.4,233.2 507.4,231.7 508.5,213.9 509.5,223.4 510.5,223.3 511.5,238.0 512.5,232.3 513.5,217.1 514.6,212.6 515.6,230.2 516.6,226.8 517.6,230.5 518.6,233.4 519.7,200.3 520.7,233.3 521.7,233.3 522.7,216.7 523.7,220.5 524.8,228.0 525.8,220.3 526.8,219.8 527.8,226.9 528.8,231.9 529.9,233.0 530.9,223.3 531.9,237.7 532.9,240.3 533.9,225.0 535.0,236.6 536.0,223.3 537.0,227.9 538.0,211.9 539.0,214.8 540.1,214.8 541.1,223.3 542.1,223.3 543.1,217.0 544.1,234.2 545.2,224.1 546.2,231.5 547.2,223.4 548.2,223.4 549.2,236.6 550.3,216.9 551.3,233.6 552.3,224.5 553.3,236.6 554.3,223.3 555.4,231.8 556.4,231.4 557.4,223.3 558.4,168.8 559.4,223.3 560.5,224.5 561.5,224.6 562.5,226.7 563.5,223.4 564.5,223.3 565.6,239.7 566.6,223.4 567.6,230.2 568.6,223.4 569.6,228.4 570.7,226.6 571.7,238.6 572.7,232.1 573.7,236.6 574.7,236.3 575.8,232.3 576.8,236.4 577.8,233.6 578.8,240.4 579.8,223.4 580.9,241.1 581.9,212.7 582.9,225.1 583.9,205.7 584.9,213.8 586.0,223.4 587.0,201.9 588.0,223.3 589.0,223.1 590.0,223.4 591.1,231.5 592.1,223.4 593.1,236.3 594.1,223.4 595.1,226.9 596.2,222.4 597.2,223.4 598.2,234.7 599.2,235.8 600.2,200.3 601.3,230.5 602.3,230.2 603.3,235.3 604.3,230.2 605.3,232.1 606.4,216.6 607.4,232.6 608.4,212.7 609.4,230.1 610.4,222.9 611.5,219.7 612.5,225.0 613.5,223.4 614.5,223.4 615.5,219.7 616.6,229.3 617.6,196.0 618.6,220.2 619.6,212.0 620.6,231.5 621.7,170.2 622.7,230.2 623.7,199.8 624.7,220.0 625.7,216.7 626.8,210.0 627.8,215.8 628.8,239.5 629.8,231.5 630.8,223.3 631.9,227.9 632.9,223.3 633.9,209.9 634.9,223.4 635.9,207.1 637.0,223.3 638.0,200.0 639.0,199.8 640.0,201.8 641.0,223.4 642.1,235.0 643.1,223.4 644.1,216.6 645.1,230.6 646.1,231.6 647.2,219.9 648.2,223.3 649.2,214.8 650.2,231.3 651.2,230.2 652.3,231.4 653.3,236.4 654.3,240.4 655.3,229.4 656.3,228.0 657.4,218.7 658.4,227.7 659.4,227.9 660.4,204.0 661.4,220.5 662.5,215.5 663.5,226.7 664.5,224.4 665.5,225.1 666.5,232.1 667.6,231.5 668.6,223.4 669.6,229.2 670.6,236.3 671.6,223.7 672.7,237.1 673.7,225.0 674.7,231.4 675.7,236.4 676.7,236.3 677.8,233.4 678.8,237.6 679.8,212.1 680.8,228.0 681.8,233.2 682.9,222.8 683.9,223.2 684.9,222.2 685.9,222.3 686.9,215.1 688.0,223.4 689.0,172.5 690.0,210.3 691.0,223.3 692.0,214.0 693.1,217.9 694.1,231.6 695.1,215.8 696.1,214.9 697.1,232.2 698.2,222.0 699.2,227.8 700.2,223.3 701.2,223.3 702.2,230.1 703.3,220.4 704.3,211.4 705.3,208.2 706.3,232.6 707.3,223.1 708.4,224.4 709.4,218.9 710.4,223.2 711.4,211.8 712.4,228.8 713.5,223.6 714.5,223.3 715.5,233.2 716.5,229.9 717.5,223.3 718.6,236.3 719.6,223.7 720.6,223.4 721.6,236.8 722.6,214.9 723.7,230.2 724.7,227.6 725.7,234.1 726.7,223.7 727.7,225.3 728.8,222.3 729.8,223.4 730.8,224.5 731.8,223.4 732.8,218.4 733.9,208.6 734.9,195.0 735.9,224.5 736.9,212.1 737.9,229.2 739.0,223.3 740.0,223.4 741.0,199.9 742.0,208.3 743.0,223.4 744.1,217.7 745.1,220.4 746.1,223.4 747.1,189.0 748.1,215.4 749.2,223.4 750.2,230.2 751.2,224.4 752.2,233.2 753.2,219.1 754.3,216.6 755.3,233.2 756.3,198.6 757.3,223.3 758.3,223.6 759.4,216.6 760.4,223.3 761.4,223.4 762.4,223.4 763.4,221.2 764.5,215.8 765.5,200.2 766.5,183.2 767.5,223.4 768.5,223.7 769.6,200.5 770.6,227.0 771.6,226.5 772.6,241.1 773.6,239.9 774.7,237.3 775.7,236.6 776.7,192.0 777.7,244.7 778.7,208.6 779.8,233.3 780.8,241.0 781.8,240.2 782.8,223.5 783.8,174.1 784.9,223.3 785.9,194.8 786.9,229.1 787.9,236.2 788.9,241.0 790.0,220.4 791.0,228.2 792.0,256.0 793.0,170.2 794.0,200.3 795.1,256.2 796.1,223.4 797.1,226.2 798.1,223.3 799.1,236.7 800.2,223.3 801.2,230.2 802.2,216.6 803.2,181.2 804.2,223.4 805.2,204.6 806.3,210.1 807.3,208.6 808.3,200.0 809.3,223.8 810.3,227.4 811.4,243.2 812.4,213.2 813.4,240.6 814.4,224.6 815.4,231.9 816.5,230.1 817.5,241.0 818.5,229.3 819.5,237.6 820.5,247.8 821.6,245.3 822.6,252.0 823.6,236.3 824.6,238.6 825.6,240.9 826.7,199.5 827.7,194.9 828.7,224.5 829.7,218.0 830.7,223.5 831.8,216.6 832.8,216.7 833.8,233.2 834.8,236.3 835.8,237.1 836.9,245.8 837.9,238.2 838.9,237.1 839.9,230.8 840.9,207.1 842.0,236.3 843.0,233.2 844.0,240.9 845.0,213.1 846.0,223.4 847.1,236.4 848.1,227.7 849.1,224.6 850.1,230.2 851.1,214.8 852.2,222.2 853.2,216.8 854.2,223.3 855.2,229.9 856.2,224.9 857.3,227.8 858.3,257.6 859.3,230.2 860.3,236.7 861.3,235.8 862.4,223.4 863.4,231.8 864.4,223.4 865.4,223.3 866.4,211.7 867.5,242.1 868.5,225.6 869.5,200.2 870.5,220.4 871.5,223.3 872.6,223.4 873.6,214.7 874.6,233.5 875.6,223.3 876.6,238.6 877.7,223.3 878.7,241.1 879.7,240.4 880.7,223.4 881.7,225.0 882.8,198.4 883.8,237.3 884.8,299.1 885.8,332.3 886.8,333.7 887.9,330.9 888.9,331.5 889.9,256.7 890.9,327.6 891.9,327.7 893.0,331.7 894.0,333.7 895.0,332.3 896.0,331.6 897.0,322.4 898.1,331.5 899.1,332.9 900.1,331.0 901.1,328.4 902.1,333.2 903.2,329.7 904.2,329.7 905.2,329.6 906.2,330.4 907.2,331.5 908.3,327.6 909.3,331.5 910.3,329.1 911.3,327.7 912.3,330.3 913.4,328.4 914.4,331.3 915.4,335.3 916.4,331.5 917.4,330.0 918.5,331.5 919.5,330.0 920.5,331.6 921.5,327.6 922.5,329.0 923.6,330.0 924.6,328.8 925.6,326.0 926.6,327.7 927.6,327.5 928.7,329.2 929.7,328.1 930.7,327.6 931.7,329.0 932.7,331.5 933.8,327.6 934.8,329.6 935.8,328.9 936.8,331.5 937.8,331.5 938.9,330.1 939.9,322.8 940.9,329.3 941.9,331.5 942.9,331.8 944.0,331.3 945.0,329.1 946.0,331.5" fill="none" stroke="#d97706" stroke-width="2.2" stroke-linejoin="round" stroke-linecap="round"/>
<line x1="76" y1="70" x2="94" y2="70" stroke="#2563eb" stroke-width="3"/>
<text x="100" y="74" font-family="Arial, sans-serif" font-size="11" fill="#0f172a">avg fee</text>
<line x1="179" y1="70" x2="197" y2="70" stroke="#059669" stroke-width="3"/>
<text x="203" y="74" font-family="Arial, sans-serif" font-size="11" fill="#0f172a">median fee</text>
<line x1="303" y1="70" x2="321" y2="70" stroke="#d97706" stroke-width="3"/>
<text x="327" y="74" font-family="Arial, sans-serif" font-size="11" fill="#0f172a">p90 fee</text>
<text x="28" y="404" font-family="Arial, sans-serif" font-size="11" fill="#64748b">Source: hourly_features.csv</text>
</svg>