<svg xmlns="http://www.w3.org/2000/svg" width="980" height="420" viewBox="0 0 980 420">
<rect width="100%" height="100%" fill="#ffffff"/>
<text x="28" y="34" font-family="Arial, sans-serif" font-size="20" font-weight="700" fill="#0f172a">Hourly fee trend</text>
<text x="28" y="56" font-family="Arial, sans-serif" font-size="12" fill="#64748b">Average, median, and p90 total fee by hour</text>
<line x1="76" y1="362.0" x2="946" y2="362.0" stroke="#e2e8f0" stroke-width="1"/>
<text x="68" y="366.0" font-family="Arial, sans-serif" font-size="10" text-anchor="end" fill="#64748b">-312K</text>
<line x1="76" y1="292.0" x2="946" y2="292.0" stroke="#e2e8f0" stroke-width="1"/>
<text x="68" y="296.0" font-family="Arial, sans-serif" font-size="10" text-anchor="end" fill="#64748b">2.7M</text>
<line x1="76" y1="222.0" x2="946" y2="222.0" stroke="#e2e8f0" stroke-width="1"/>
<text x="68" y="226.0" font-family="Arial, sans-serif" font-size="10" text-anchor="end" fill="#64748b">5.7M</text>
<line x1="76" y1="152.0" x2="946" y2="152.0" stroke="#e2e8f0" stroke-width="1"/>
<text x="68" y="156.0" font-family="Arial, sans-serif" font-size="10" text-anchor="end" fill="#64748b">8.7M</text>
<line x1="76" y1="82.0" x2="946" y2="82.0" stroke="#e2e8f0" stroke-width="1"/>
<text x="68" y="86.0" font-family="Arial, sans-serif" font-size="10" text-anchor="end" fill="#64748b">11.7M</text>
<line x1="76" y1="362" x2="946" y2="362" stroke="#334155" stroke-width="1"/>
<line x1="76" y1="82" x2="76" y2="362" stroke="#334155" stroke-width="1"/>
<text x="76" y="72" font-family="Arial, sans-serif" font-size="11" fill="#64748b">nanoton</text>
<line x1="76.0" y1="362" x2="76.0" y2="366" stroke="#334155" stroke-width="1"/>
<text x="76.0" y="380" font-family="Arial, sans-serif" font-size="10" text-anchor="middle" fill="#64748b">0</text>
<line x1="511.5" y1="362" x2="511.5" y2="366" stroke="#334155" stroke-width="1"/>
<text x="511.5" y="380" font-family="Arial, sans-serif" font-size="10" text-anchor="middle" fill="#64748b">408</text>
<line x1="946.0" y1="362" x2="946.0" y2="366" stroke="#334155" stroke-width="1"/>
<text x="946.0" y="380" font-family="Arial, sans-serif" font-size="10" text-anchor="middle" fill="#64748b">815</text>
<polyline points="76.0,292.0 77.1,295.8 78.1,297.2 79.2,299.3 80.3,306.1 81.3,298.4 82.4,299.4 83.5,295.8 84.5,300.2 85.6,300.0 86.7,288.9 87.7,300.8 88.8,300.9 89.9,298.6 90.9,301.5 92.0,301.7 93.1,293.7 94.1,293.7 95.2,302.6 96.3,292.3 97.3,290.4 98.4,288.5 99.5,295.1 100.6,295.4 101.6,297.3 102.7,293.3 103.8,298.9 104.8,291.8 105.9,294.5 107.0,289.5 108.0,290.2 109.1,274.2 110.2,285.8 111.2,286.5 112.3,295.8 113.4,301.2 114.4,294.1 115.5,296.1 116.6,305.9 117.6,308.8 118.7,303.4 119.8,298.2 120.8,299.9 121.9,299.2 123.0,305.7 124.0,298.6 125.1,295.7 126.2,297.7 127.2,299.9 128.3,304.3 129.4,304.4 130.4,303.2 131.5,301.6 132.6,304.6 133.6,303.5 134.7,300.7 135.8,300.4 136.8,304.1 137.9,300.4 139.0,302.6 140.0,308.1 141.1,310.0 142.2,307.7 143.3,308.4 144.3,310.4 145.4,307.2 146.5,306.8 147.5,303.3 148.6,309.8 149.7,291.9 150.7,307.7 151.8,307.6 152.9,307.6 153.9,312.6 155.0,308.4 156.1,311.6 157.1,310.4 158.2,306.8 159.3,306.7 160.3,304.5 161.4,304.7 162.5,302.6 163.5,306.4 164.6,308.7 165.7,308.2 166.7,309.4 167.8,306.3 168.9,304.2 169.9,304.0 171.0,299.8 172.1,306.2 173.1,298.3 174.2,300.5 175.3,301.6 176.3,305.2 177.4,312.9 178.5,301.4 179.5,301.8 180.6,310.2 181.7,308.8 182.7,301.5 183.8,305.5 184.9,306.4 186.0,303.9 187.0,301.7 188.1,298.7 189.2,299.9 190.2,303.2 191.3,309.4 192.4,308.7 193.4,308.7 194.5,304.4 195.6,303.2 196.6,305.4 197.7,305.2 198.8,305.3 199.8,309.6 200.9,310.2 202.0,308.6 203.0,302.3 204.1,288.0 205.2,302.9 206.2,300.0 207.3,297.3 208.4,300.8 209.4,306.8 210.5,302.8 211.6,306.2 212.6,303.4 213.7,306.2 214.8,308.1 215.8,306.2 216.9,302.0 218.0,306.1 219.0,309.3 220.1,303.7 221.2,303.0 222.2,304.4 223.3,304.6 224.4,300.1 225.4,299.7 226.5,299.2 227.6,290.6 228.7,298.1 229.7,297.6 230.8,296.7 231.9,300.9 232.9,300.3 234.0,305.9 235.1,305.3 236.1,305.1 237.2,300.4 238.3,302.4 239.3,307.0 240.4,305.8 241.5,313.4 242.5,307.0 243.6,305.6 244.7,308.3 245.7,308.2 246.8,303.2 247.9,305.1 248.9,302.0 250.0,302.9 251.1,301.5 252.1,300.0 253.2,291.8 254.3,297.3 255.3,301.8 256.4,297.8 257.5,304.0 258.5,303.8 259.6,304.3 260.7,303.9 261.7,304.1 262.8,305.0 263.9,301.4 264.9,306.9 266.0,304.2 267.1,300.5 268.1,304.1 269.2,308.0 270.3,307.4 271.3,308.0 272.4,299.7 273.5,302.9 274.6,299.1 275.6,305.1 276.7,301.5 277.8,300.7 278.8,296.9 279.9,299.4 281.0,299.6 282.0,295.0 283.1,301.2 284.2,299.1 285.2,299.9 286.3,295.4 287.4,299.1 288.4,279.1 289.5,285.4 290.6,296.4 291.6,296.9 292.7,295.6 293.8,302.0 294.8,305.5 295.9,303.7 297.0,303.4 298.0,299.1 299.1,296.5 300.2,297.8 301.2,292.6 302.3,293.2 303.4,291.8 304.4,291.2 305.5,300.9 306.6,293.2 307.6,298.0 308.7,301.0 309.8,305.0 310.8,303.7 311.9,303.3 313.0,303.5 314.0,302.1 315.1,304.8 316.2,297.1 317.3,299.0 318.3,305.7 319.4,305.5 320.5,300.8 321.5,305.1 322.6,304.7 323.7,300.2 324.7,289.9 325.8,294.9 326.9,295.4 327.9,304.9 329.0,296.8 330.1,298.2 331.1,306.9 332.2,296.1 333.3,301.7 334.3,306.4 335.4,309.8 336.5,306.7 337.5,305.3 338.6,301.9 339.7,305.1 340.7,300.5 341.8,304.3 342.9,306.3 343.9,304.3 345.0,300.6 346.1,295.6 347.1,301.2 348.2,287.4 349.3,303.4 350.3,295.1 351.4,299.2 352.5,300.7 353.5,298.7 354.6,295.7 355.7,311.7 356.7,292.8 357.8,296.8 358.9,282.8 360.0,295.8 361.0,294.5 362.1,296.2 363.2,292.2 364.2,302.3 365.3,281.0 366.4,298.5 367.4,293.0 368.5,292.7 369.6,284.4 370.6,299.5 371.7,301.6 372.8,299.9 373.8,289.6 374.9,300.3 376.0,305.6 377.0,299.0 378.1,296.8 379.2,280.9 380.2,285.3 381.3,301.8 382.4,301.1 383.4,299.3 384.5,294.6 385.6,304.4 386.6,304.3 387.7,299.9 388.8,298.0 389.8,298.6 390.9,302.6 392.0,299.4 393.0,312.8 394.1,300.7 395.2,304.7 396.2,302.4 397.3,304.2 398.4,305.5 399.4,299.0 400.5,295.6 401.6,300.5 402.7,296.3 403.7,303.0 404.8,293.8 405.9,298.8 406.9,295.1 408.0,291.2 409.1,296.3 410.1,305.8 411.2,292.3 412.3,301.6 413.3,297.1 414.4,294.3 415.5,292.8 416.5,298.1 417.6,298.3 418.7,299.1 419.7,300.8 420.8,294.1 421.9,287.4 422.9,291.3 424.0,301.2 425.1,295.7 426.1,302.2 427.2,304.3 428.3,300.4 429.3,303.8 430.4,296.4 431.5,298.3 432.5,304.0 433.6,302.9 434.7,304.2 435.7,310.0 436.8,308.1 437.9,307.4 438.9,307.8 440.0,305.6 441.1,305.7 442.1,299.6 443.2,302.4 444.3,304.3 445.3,304.6 446.4,305.5 447.5,303.6 448.6,300.6 449.6,305.7 450.7,308.4 451.8,298.5 452.8,300.2 453.9,299.3 455.0,300.9 456.0,299.1 457.1,302.3 458.2,288.4 459.2,295.5 460.3,296.0 461.4,299.9 462.4,292.5 463.5,299.6 464.6,295.8 465.6,300.0 466.7,305.5 467.8,283.3 468.8,291.0 469.9,300.1 471.0,296.4 472.0,294.6 473.1,295.9 474.2,305.6 475.2,298.1 476.3,303.0 477.4,298.0 478.4,296.8 479.5,294.1 480.6,292.9 481.6,287.9 482.7,288.9 483.8,295.4 484.8,293.8 485.9,298.7 487.0,304.3 488.0,298.0 489.1,305.4 490.2,299.9 491.3,299.0 492.3,300.6 493.4,298.4 494.5,297.8 495.5,306.8 496.6,303.2 497.7,305.8 498.7,304.2 499.8,304.7 500.9,304.0 501.9,305.8 503.0,303.0 504.1,301.3 505.1,298.5 506.2,296.2 507.3,306.3 508.3,304.0 509.4,305.0 510.5,304.1 511.5,299.7 512.6,258.0 513.7,292.2 514.7,299.7 515.8,297.5 516.9,302.3 517.9,302.9 519.0,301.1 520.1,300.6 521.1,300.9 522.2,297.2 523.3,300.7 524.3,306.9 525.4,307.8 526.5,302.1 527.5,304.0 528.6,296.3 529.7,303.5 530.7,298.1 531.8,306.1 532.9,300.3 534.0,296.8 535.0,296.3 536.1,302.2 537.2,302.2 538.2,301.9 539.3,305.8 540.4,293.8 541.4,304.8 542.5,307.3 543.6,296.7 544.6,298.7 545.7,304.1 546.8,297.1 547.8,300.7 548.9,305.2 550.0,302.9 551.0,305.1 552.1,302.0 553.2,307.4 554.2,306.9 555.3,302.1 556.4,304.5 557.4,298.3 558.5,301.4 559.6,293.5 560.6,293.2 561.7,293.3 562.8,300.5 563.8,299.7 564.9,300.1 566.0,302.8 567.0,300.9 568.1,306.6 569.2,301.5 570.2,301.8 571.3,306.0 572.4,300.4 573.4,305.7 574.5,300.9 575.6,307.7 576.7,300.4 577.7,305.7 578.8,304.6 579.9,299.3 580.9,264.7 582.0,304.2 583.1,305.8 584.1,302.6 585.2,302.1 586.3,299.5 587.3,301.2 588.4,304.0 589.5,299.9 590.5,305.3 591.6,304.0 592.7,304.3 593.7,302.4 594.8,309.6 595.9,305.7 596.9,310.4 598.0,305.8 599.1,305.0 600.1,306.2 601.2,304.9 602.3,306.6 603.3,300.8 604.4,306.5 605.5,298.3 606.5,303.5 607.6,289.3 608.7,295.8 609.7,301.0 610.8,288.5 611.9,300.3 612.9,299.7 614.0,298.1 615.1,302.4 616.1,300.7 617.2,303.9 618.3,300.5 619.3,304.3 620.4,299.2 621.5,302.9 622.6,306.6 623.6,305.8 624.7,291.5 625.8,304.4 626.8,300.9 627.9,303.6 629.0,304.4 630.0,305.9 631.1,297.5 632.2,302.9 633.2,294.1 634.3,299.5 635.4,296.0 636.4,294.7 637.5,300.6 638.6,298.7 639.6,301.7 640.7,296.9 641.8,302.8 642.8,283.8 643.9,298.6 645.0,292.4 646.0,302.1 647.1,282.5 648.2,304.9 649.2,293.3 650.3,297.7 651.4,302.2 652.4,295.1 653.5,296.5 654.6,306.5 655.6,305.9 656.7,301.6 657.8,303.2 658.8,298.8 659.9,296.2 661.0,297.8 662.0,293.9 663.1,299.9 664.2,292.3 665.3,291.1 666.3,294.0 667.4,303.9 668.5,304.7 669.5,302.9 670.6,298.8 671.7,304.3 672.7,303.8 673.8,300.6 674.9,301.2 675.9,296.9 677.0,301.9 678.1,303.8 679.1,303.5 680.2,302.0 681.3,306.7 682.3,306.4 683.4,302.3 684.5,295.5 685.5,302.3 686.6,300.2 687.7,291.6 688.7,297.1 689.8,295.3 690.9,302.6 691.9,299.4 693.0,300.4 694.1,303.9 695.1,302.2 696.2,300.4 697.3,303.9 698.3,304.9 699.4,300.8 700.5,305.7 701.5,299.4 702.6,303.9 703.7,306.2 704.7,304.6 705.8,305.1 706.9,307.0 708.0,295.8 709.0,308.0 710.1,305.0 711.2,296.4 712.2,295.3 713.3,294.9 714.4,297.1 715.4,297.2 716.5,299.4 717.6,285.9 718.6,296.1 719.7,299.8 720.8,297.5 721.8,295.4 722.9,301.9 724.0,295.5 725.0,297.2 726.1,305.1 727.2,297.0 728.2,303.8 729.3,298.9 730.4,301.3 731.4,302.0 732.5,299.6 733.6,296.0 734.6,297.1 735.7,304.3 736.8,296.8 737.8,297.2 738.9,296.4 740.0,296.6 741.0,296.2 742.1,301.2 743.2,300.2 744.2,297.1 745.3,304.6 746.4,304.2 747.4,299.4 748.5,306.8 749.6,302.1 750.7,301.7 751.7,306.5 752.8,297.1 753.9,303.1 754.9,304.5 756.0,305.9 757.1,300.4 758.1,302.2 759.2,299.2 760.3,300.0 761.3,298.5 762.4,302.1 763.5,297.2 764.5,294.2 765.6,285.3 766.7,300.0 767.7,295.1 768.8,300.2 769.9,300.1 770.9,299.2 772.0,292.2 773.1,293.5 774.1,299.5 775.2,298.7 776.3,298.8 777.3,299.8 778.4,289.4 779.5,297.7 780.5,298.6 781.6,303.0 782.7,302.2 783.7,306.7 784.8,297.0 785.9,296.3 786.9,301.1 788.0,290.8 789.1,298.0 790.1,296.4 791.2,296.4 792.3,296.0 793.3,298.7 794.4,300.8 795.5,297.0 796.6,298.2 797.6,292.9 798.7,286.2 799.8,301.0 800.8,302.3 801.9,294.8 803.0,303.6 804.0,298.8 805.1,309.0 806.2,293.8 807.2,306.2 808.3,305.4 809.4,293.2 810.4,306.4 811.5,299.0 812.6,299.4 813.6,308.7 814.7,306.7 815.8,295.2 816.8,285.7 817.9,296.9 819.0,282.7 820.0,297.0 821.1,308.4 822.2,304.7 823.2,300.5 824.3,302.8 825.4,310.3 826.4,289.0 827.5,294.6 828.6,315.6 829.6,302.1 830.7,305.5 831.8,300.4 832.8,306.7 833.9,298.7 835.0,304.7 836.0,298.5 837.1,287.4 838.2,296.8 839.3,294.6 840.3,296.5 841.4,293.8 842.5,296.3 843.5,298.7 844.6,304.4 845.7,309.1 846.7,296.4 847.8,307.9 848.9,306.3 849.9,306.7 851.0,304.4 852.1,298.6 853.1,294.8 854.2,306.3 855.3,311.7 856.3,307.9 857.4,310.7 858.5,305.3 859.5,309.1 860.6,309.5 861.7,300.3 862.7,289.4 863.8,298.3 864.9,299.3 865.9,299.8 867.0,300.0 868.1,296.4 869.1,307.1 870.2,309.1 871.3,305.7 872.3,310.6 873.4,308.0 874.5,304.5 875.5,304.8 876.6,297.7 877.7,305.4 878.7,306.8 879.8,309.5 880.9,293.0 882.0,303.1 883.0,306.6 884.1,303.5 885.2,302.1 886.2,304.0 887.3,296.2 888.4,296.3 889.4,296.5 890.5,300.4 891.6,300.3 892.6,302.2 893.7,305.8 894.8,308.6 895.8,304.4 896.9,302.1 898.0,304.3 899.0,292.1 900.1,302.4 901.2,303.2 902.2,303.3 903.3,296.9 904.4,307.9 905.4,305.4 906.5,290.0 907.6,298.7 908.6,296.5 909.7,296.9 910.8,297.3 911.8,307.6 912.9,301.5 914.0,306.2 915.0,296.9 916.1,304.9 917.2,306.4 918.2,303.9 919.3,302.9 920.4,286.4 921.4,305.6 922.5,336.2 923.6,345.2 924.7,345.3 925.7,345.0 926.8,345.5 927.9,320.4 928.9,343.8 930.0,344.7 931.1,344.1 932.1,344.9 933.2,344.9 934.3,344.9 935.3,340.4 936.4,345.0 937.5,346.1 938.5,344.2 939.6,343.5 940.7,345.3 941.7,344.6 942.8,344.7 943.9,341.8 944.9,344.2 946.0,344.8" fill="none" stroke="#2563eb" stroke-width="2.2" stroke-linejoin="round" stroke-linecap="round"/>
<polyline points="76.0,312.8 77.1,326.4 78.1,335.5 79.2,336.0 80.3,336.5 81.3,336.1 82.4,335.8 83.5,332.2 84.5,336.1 85.6,336.1 86.7,321.8 87.7,336.1 88.8,335.6 89.9,332.2 90.9,335.9 92.0,335.3 93.1,322.5 94.1,331.9 95.2,333.8 96.3,311.9 97.3,304.2 98.4,307.2 99.5,321.9 100.6,316.8 101.6,311.8 102.7,331.3 103.8,334.9 104.8,313.8 105.9,336.4 107.0,320.4 108.0,331.9 109.1,285.0 110.2,301.6 111.2,304.6 112.3,309.6 113.4,332.8 114.4,313.8 115.5,311.9 116.6,336.3 117.6,336.5 118.7,331.2 119.8,311.9 120.8,311.9 121.9,313.8 123.0,342.3 124.0,336.3 125.1,310.2 126.2,311.6 127.2,336.4 128.3,336.8 129.4,335.6 130.4,334.9 131.5,335.4 132.6,336.0 133.6,332.9 134.7,336.0 135.8,332.3 136.8,335.7 137.9,336.1 139.0,335.6 140.0,336.4 141.1,336.3 142.2,336.4 143.3,345.5 144.3,337.2 145.4,336.4 146.5,336.4 147.5,332.2 148.6,345.5 149.7,337.1 150.7,337.7 151.8,337.7 152.9,336.5 153.9,339.6 155.0,337.6 156.1,337.6 157.1,336.6 158.2,336.4 159.3,336.4 160.3,336.0 161.4,336.4 162.5,336.1 163.5,336.0 164.6,336.4 165.7,336.5 166.7,336.5 167.8,335.8 168.9,336.4 169.9,336.3 171.0,332.2 172.1,336.2 173.1,313.5 174.2,331.1 175.3,332.5 176.3,335.3 177.4,345.5 178.5,332.0 179.5,335.3 180.6,336.4 181.7,337.7 182.7,336.1 183.8,336.2 184.9,336.3 186.0,336.0 187.0,332.4 188.1,331.9 189.2,333.0 190.2,334.5 191.3,336.4 192.4,336.3 193.4,336.4 194.5,335.5 195.6,336.3 196.6,336.3 197.7,333.0 198.8,333.8 199.8,337.7 200.9,345.5 202.0,337.6 203.0,336.5 204.1,311.4 205.2,336.4 206.2,335.9 207.3,336.1 208.4,335.3 209.4,336.4 210.5,335.5 211.6,336.4 212.6,336.3 213.7,336.4 214.8,336.4 215.8,336.2 216.9,334.6 218.0,336.3 219.0,336.4 220.1,336.4 221.2,335.6 222.2,335.7 223.3,331.7 224.4,311.9 225.4,300.0 226.5,311.1 227.6,305.7 228.7,311.5 229.7,311.5 230.8,329.1 231.9,334.4 232.9,335.3 234.0,335.3 235.1,336.3 236.1,336.4 237.2,335.3 238.3,336.2 239.3,336.1 240.4,336.1 241.5,345.5 242.5,336.4 243.6,336.3 244.7,336.4 245.7,336.4 246.8,335.3 247.9,335.9 248.9,332.4 250.0,321.1 251.1,300.0 252.1,335.5 253.2,328.3 254.3,336.1 255.3,333.2 256.4,333.2 257.5,332.8 258.5,336.2 259.6,335.9 260.7,336.1 261.7,336.1 262.8,332.2 263.9,332.2 264.9,336.4 266.0,335.8 267.1,332.4 268.1,336.0 269.2,336.4 270.3,336.0 271.3,336.4 272.4,331.9 273.5,335.8 274.6,316.9 275.6,336.1 276.7,300.0 277.8,335.5 278.8,331.1 279.9,334.0 281.0,333.3 282.0,311.9 283.1,333.2 284.2,333.7 285.2,336.0 286.3,325.2 287.4,335.4 288.4,297.0 289.5,299.9 290.6,328.5 291.6,332.6 292.7,332.2 293.8,333.7 294.8,336.1 295.9,336.1 297.0,335.5 298.0,326.2 299.1,316.4 300.2,309.9 301.2,306.7 302.3,300.0 303.4,307.8 304.4,306.7 305.5,333.2 306.6,306.8 307.6,318.4 308.7,334.9 309.8,336.4 310.8,335.6 311.9,336.4 313.0,336.4 314.0,335.2 315.1,336.4 316.2,321.1 317.3,321.1 318.3,335.5 319.4,335.3 320.5,334.9 321.5,336.1 322.6,336.0 323.7,332.7 324.7,306.7 325.8,309.6 326.9,309.6 327.9,300.0 329.0,311.5 330.1,336.9 331.1,337.7 332.2,313.8 333.3,336.0 334.3,337.6 335.4,337.4 336.5,337.7 337.5,336.4 338.6,335.3 339.7,335.7 340.7,335.9 341.8,335.0 342.9,336.1 343.9,335.9 345.0,331.0 346.1,310.3 347.1,335.5 348.2,309.5 349.3,335.8 350.3,312.0 351.4,311.6 352.5,326.5 353.5,306.8 354.6,321.1 355.7,345.5 356.7,316.9 357.8,335.6 358.9,309.6 360.0,311.2 361.0,331.5 362.1,335.5 363.2,336.5 364.2,334.7 365.3,325.2 366.4,335.3 367.4,309.5 368.5,307.4 369.6,325.2 370.6,316.9 371.7,334.9 372.8,334.0 373.8,304.5 374.9,335.5 376.0,336.1 377.0,327.9 378.1,335.3 379.2,322.2 380.2,335.1 381.3,335.2 382.4,335.5 383.4,332.2 384.5,333.2 385.6,335.2 386.6,336.1 387.7,335.3 388.8,334.5 389.8,311.9 390.9,336.2 392.0,332.2 393.0,347.4 394.1,335.3 395.2,336.2 396.2,335.2 397.3,336.2 398.4,336.1 399.4,311.9 400.5,316.7 401.6,333.5 402.7,311.8 403.7,333.2 404.8,306.6 405.9,331.9 406.9,328.3 408.0,303.5 409.1,311.0 410.1,337.3 411.2,334.9 412.3,336.4 413.3,335.9 414.4,307.8 415.5,307.8 416.5,319.6 417.6,321.5 418.7,325.0 419.7,333.2 420.8,311.9 421.9,306.7 422.9,309.5 424.0,333.2 425.1,306.5 426.1,331.9 427.2,335.5 428.3,328.2 429.3,332.2 430.4,306.7 431.5,309.5 432.5,335.3 433.6,335.5 434.7,336.5 435.7,342.3 436.8,337.6 437.9,337.5 438.9,336.4 440.0,337.7 441.1,337.2 442.1,335.3 443.2,335.9 444.3,336.4 445.3,336.3 446.4,336.4 447.5,336.1 448.6,333.3 449.6,335.9 450.7,336.4 451.8,330.6 452.8,332.2 453.9,327.2 455.0,326.7 456.0,309.5 457.1,335.0 458.2,309.7 459.2,311.6 460.3,331.9 461.4,321.0 462.4,309.6 463.5,336.0 464.6,320.1 465.6,337.3 466.7,336.4 467.8,298.8 468.8,306.6 469.9,326.7 471.0,327.1 472.0,320.3 473.1,311.6 474.2,336.4 475.2,322.7 476.3,335.6 477.4,333.0 478.4,331.2 479.5,310.9 480.6,309.7 481.6,300.0 482.7,303.9 483.8,306.8 484.8,310.3 485.9,333.2 487.0,335.5 488.0,331.0 489.1,336.1 490.2,335.3 491.3,336.4 492.3,335.5 493.4,335.5 494.5,326.7 495.5,336.4 496.6,336.0 497.7,336.1 498.7,336.2 499.8,336.2 500.9,336.1 501.9,336.0 503.0,335.5 504.1,328.3 505.1,328.1 506.2,306.7 507.3,344.5 508.3,336.8 509.4,345.5 510.5,336.5 511.5,330.5 512.6,302.3 513.7,335.7 514.7,335.6 515.8,317.0 516.9,336.5 517.9,335.6 519.0,336.1 520.1,335.0 521.1,331.9 522.2,331.9 523.3,335.3 524.3,336.4 525.4,336.4 526.5,334.6 527.5,335.8 528.6,311.8 529.7,333.5 530.7,311.4 531.8,334.2 532.9,306.7 534.0,311.1 535.0,311.9 536.1,331.5 537.2,335.3 538.2,333.9 539.3,336.8 540.4,319.7 541.4,336.1 542.5,337.7 543.6,332.8 544.6,327.2 545.7,336.1 546.8,332.7 547.8,333.2 548.9,336.2 550.0,335.9 551.0,335.3 552.1,332.2 553.2,336.4 554.2,336.3 555.3,333.2 556.4,334.7 557.4,312.0 558.5,331.9 559.6,309.5 560.6,309.7 561.7,306.7 562.8,331.9 563.8,328.3 564.9,331.8 566.0,336.3 567.0,332.9 568.1,336.4 569.2,336.1 570.2,335.5 571.3,336.4 572.4,336.1 573.4,336.4 574.5,335.3 575.6,336.4 576.7,334.7 577.7,336.1 578.8,336.4 579.9,334.2 580.9,284.8 582.0,335.3 583.1,336.5 584.1,320.7 585.2,332.6 586.3,331.2 587.3,333.3 588.4,335.5 589.5,336.0 590.5,336.4 591.6,336.2 592.7,336.0 593.7,336.2 594.8,336.5 595.9,336.3 596.9,336.5 598.0,336.4 599.1,336.1 600.1,336.4 601.2,336.4 602.3,336.1 603.3,335.5 604.4,337.2 605.5,335.5 606.5,335.8 607.6,306.6 608.7,321.0 609.7,310.6 610.8,302.0 611.9,311.7 612.9,332.0 614.0,311.9 615.1,331.9 616.1,334.5 617.2,336.2 618.3,335.2 619.3,335.5 620.4,332.4 621.5,336.1 622.6,336.3 623.6,336.3 624.7,306.7 625.8,335.9 626.8,332.4 627.9,336.5 629.0,335.3 630.0,336.4 631.1,335.3 632.2,336.3 633.2,311.9 634.3,335.8 635.4,307.7 636.4,309.7 637.5,335.3 638.6,332.4 639.6,335.5 640.7,331.2 641.8,335.8 642.8,306.6 643.9,332.2 645.0,330.3 646.0,335.3 647.1,297.0 648.2,336.1 649.2,311.9 650.3,311.9 651.4,335.3 652.4,319.7 653.5,319.8 654.6,335.6 655.6,336.4 656.7,335.5 657.8,335.5 658.8,331.9 659.9,309.5 661.0,309.5 662.0,311.5 663.1,335.3 664.2,311.9 665.3,311.7 666.3,328.7 667.4,333.5 668.5,336.4 669.5,336.0 670.6,335.4 671.7,336.1 672.7,336.0 673.8,332.2 674.9,335.0 675.9,333.0 677.0,336.0 678.1,335.5 679.1,335.3 680.2,332.2 681.3,336.2 682.3,336.4 683.4,333.5 684.5,308.3 685.5,327.5 686.6,306.7 687.7,307.7 688.7,310.3 689.8,307.7 690.9,336.1 691.9,328.4 693.0,335.3 694.1,334.6 695.1,335.6 696.2,336.4 697.3,336.1 698.3,335.4 699.4,335.3 700.5,336.1 701.5,332.2 702.6,333.2 703.7,336.4 704.7,335.5 705.8,336.0 706.9,336.4 708.0,328.9 709.0,336.4 710.1,335.1 711.2,321.1 712.2,304.2 713.3,311.5 714.4,328.9 715.4,328.2 716.5,325.0 717.6,299.9 718.6,312.0 719.7,332.6 720.8,332.2 721.8,336.1 722.9,326.0 724.0,325.2 725.0,331.8 726.1,335.3 727.2,332.2 728.2,336.1 729.3,325.3 730.4,334.6 731.4,335.5 732.5,327.1 733.6,310.4 734.6,316.9 735.7,335.3 736.8,309.8 737.8,307.8 738.9,309.5 740.0,311.5 741.0,313.8 742.1,332.4 743.2,333.4 744.2,319.3 745.3,336.1 746.4,336.4 747.4,336.4 748.5,336.4 749.6,336.1 750.7,335.3 751.7,336.3 752.8,331.8 753.9,335.8 754.9,336.0 756.0,335.7 757.1,335.3 758.1,336.4 759.2,332.2 760.3,335.3 761.3,316.9 762.4,332.2 763.5,306.7 764.5,325.8 765.6,307.8 766.7,333.3 767.7,310.3 768.8,335.3 769.9,335.3 770.9,332.7 772.0,312.0 773.1,335.3 774.1,331.5 775.2,328.6 776.3,325.2 777.3,331.5 778.4,306.3 779.5,313.8 780.5,335.3 781.6,333.5 782.7,331.1 783.7,335.3 784.8,324.2 785.9,309.6 786.9,311.7 788.0,306.5 789.1,306.7 790.1,309.5 791.2,312.0 792.3,311.5 793.3,321.0 794.4,327.1 795.5,332.3 796.6,332.4 797.6,306.7 798.7,306.5 799.8,335.3 800.8,332.4 801.9,306.7 803.0,336.2 804.0,309.6 805.1,335.5 806.2,336.1 807.2,334.3 808.3,334.4 809.4,309.5 810.4,336.4 811.5,331.8 812.6,311.7 813.6,331.5 814.7,328.2 815.8,307.2 816.8,307.7 817.9,325.2 819.0,297.9 820.0,335.6 821.1,336.4 822.2,336.4 823.2,333.0 824.3,336.1 825.4,336.5 826.4,305.6 827.5,309.5 828.6,336.4 829.6,333.2 830.7,335.9 831.8,332.7 832.8,336.1 833.9,333.2 835.0,322.9 836.0,336.4 837.1,333.4 838.2,311.8 839.3,309.6 840.3,306.7 841.4,307.2 842.5,307.0 843.5,326.0 844.6,332.2 845.7,335.9 846.7,333.1 847.8,336.4 848.9,336.4 849.9,336.4 851.0,323.8 852.1,336.3 853.1,332.5 854.2,336.4 855.3,345.5 856.3,345.5 857.4,345.5 858.5,336.1 859.5,336.4 860.6,336.4 861.7,335.8 862.7,312.9 863.8,310.3 864.9,309.5 865.9,309.4 867.0,331.8 868.1,309.9 869.1,338.9 870.2,336.4 871.3,336.4 872.3,336.4 873.4,333.2 874.5,333.5 875.5,335.5 876.6,331.9 877.7,336.0 878.7,336.4 879.8,336.4 880.9,313.8 882.0,335.3 883.0,333.5 884.1,335.3 885.2,333.2 886.2,332.4 887.3,312.0 888.4,309.9 889.4,315.4 890.5,328.5 891.6,306.1 892.6,342.3 893.7,343.1 894.8,336.4 895.8,336.0 896.9,336.1 898.0,326.0 899.0,319.2 900.1,347.5 901.2,336.1 902.2,336.3 903.3,319.3 904.4,345.5 905.4,335.5 906.5,323.1 907.6,334.2 908.6,326.9 909.7,335.3 910.8,315.1 911.8,336.0 912.9,330.0 914.0,332.7 915.0,306.7 916.1,332.4 917.2,311.3 918.2,332.8 919.3,331.7 920.4,292.0 921.4,336.4 922.5,349.4 923.6,351.6 924.7,351.0 925.7,347.6 926.8,351.0 927.9,342.5 928.9,347.9 930.0,350.9 931.1,346.3 932.1,346.6 933.2,350.8 934.3,351.0 935.3,345.0 936.4,351.6 937.5,351.6 938.5,349.1 939.6,346.4 940.7,350.8 941.7,346.7 942.8,345.6 943.9,346.3 944.9,347.2 946.0,347.4" fill="none" stroke="#059669" stroke-width="2.2" stroke-linejoin="round" stroke-linecap="round"/>
<polyline points="76.0,209.6 77.1,217.4 78.1,224.1 79.2,229.2 80.3,237.2 81.3,229.1 82.4,224.0 83.5,217.7 84.5,224.2 85.6,224.1 86.7,200.5 87.7,224.2 88.8,225.4 89.9,224.1 90.9,227.0 92.0,228.4 93.1,212.2 94.1,217.4 95.2,236.9 96.3,217.3 97.3,216.5 98.4,200.5 99.5,221.1 100.6,223.9 101.6,224.2 102.7,221.2 103.8,224.0 104.8,213.9 105.9,217.4 107.0,200.7 108.0,200.5 109.1,160.9 110.2,170.6 111.2,170.6 112.3,210.3 113.4,216.6 114.4,210.3 115.5,208.9 116.6,234.1 117.6,241.9 118.7,231.0 119.8,224.0 120.8,224.6 121.9,224.1 123.0,228.4 124.0,221.1 125.1,214.4 126.2,222.3 127.2,214.9 128.3,237.2 129.4,234.7 130.4,229.6 131.5,230.3 132.6,231.0 133.6,224.2 134.7,224.2 135.8,225.2 136.8,228.6 137.9,232.2 139.0,224.1 140.0,237.2 141.1,241.3 142.2,234.4 143.3,245.5 144.3,240.3 145.4,241.3 146.5,239.8 147.5,237.2 148.6,252.6 149.7,207.0 150.7,237.5 151.8,238.5 152.9,235.5 153.9,249.6 155.0,243.5 156.1,247.2 157.1,242.0 158.2,233.1 159.3,234.1 160.3,229.1 161.4,224.3 162.5,230.5 163.5,234.2 164.6,247.1 165.7,239.5 166.7,241.9 167.8,232.2 168.9,231.0 169.9,231.2 171.0,217.4 172.1,239.9 173.1,224.2 174.2,232.7 175.3,232.2 176.3,243.8 177.4,249.9 178.5,224.2 179.5,228.7 180.6,243.3 181.7,238.0 182.7,230.6 183.8,235.7 184.9,237.2 186.0,234.1 187.0,224.2 188.1,224.2 189.2,231.0 190.2,234.1 191.3,242.7 192.4,238.5 193.4,247.2 194.5,231.2 195.6,231.3 196.6,238.0 197.7,237.3 198.8,237.5 199.8,242.2 200.9,241.3 202.0,241.3 203.0,234.1 204.1,200.9 205.2,224.1 206.2,224.2 207.3,217.4 208.4,230.4 209.4,234.1 210.5,232.3 211.6,234.1 212.6,231.6 213.7,237.2 214.8,237.2 215.8,234.1 216.9,231.0 218.0,239.6 219.0,239.7 220.1,238.5 221.2,228.8 222.2,227.7 223.3,237.8 224.4,227.4 225.4,233.1 226.5,232.2 227.6,207.7 228.7,224.2 229.7,224.1 230.8,224.1 231.9,225.8 232.9,224.2 234.0,237.2 235.1,237.2 236.1,232.7 237.2,231.0 238.3,236.4 239.3,237.2 240.4,237.6 241.5,252.5 242.5,234.1 243.6,234.1 244.7,242.0 245.7,241.9 246.8,234.1 247.9,233.0 248.9,226.4 250.0,224.2 251.1,242.0 252.1,224.1 253.2,200.4 254.3,232.4 255.3,234.1 256.4,224.2 257.5,229.5 258.5,234.1 259.6,237.2 260.7,234.1 261.7,233.5 262.8,234.6 263.9,224.2 264.9,239.2 266.0,234.7 267.1,224.2 268.1,233.4 269.2,239.5 270.3,241.4 271.3,248.9 272.4,224.9 273.5,224.1 274.6,225.3 275.6,235.6 276.7,247.9 277.8,228.6 278.8,224.0 279.9,224.2 281.0,226.0 282.0,223.4 283.1,230.3 284.2,224.2 285.2,229.0 286.3,212.7 287.4,224.0 288.4,160.9 289.5,171.6 290.6,200.7 291.6,211.1 292.7,202.2 293.8,224.1 294.8,233.2 295.9,228.7 297.0,227.5 298.0,217.6 299.1,217.4 300.2,224.1 301.2,200.7 302.3,227.8 303.4,200.5 304.4,200.5 305.5,224.1 306.6,211.1 307.6,217.8 308.7,225.2 309.8,224.1 310.8,225.3 311.9,224.9 313.0,227.4 314.0,224.2 315.1,234.1 316.2,209.6 317.3,222.4 318.3,234.1 319.4,233.0 320.5,224.1 321.5,229.1 322.6,231.0 323.7,224.1 324.7,203.3 325.8,221.2 326.9,224.0 327.9,258.5 329.0,220.5 330.1,215.1 331.1,240.9 332.2,216.0 333.3,229.1 334.3,234.3 335.4,242.0 336.5,241.6 337.5,234.1 338.6,234.1 339.7,228.2 340.7,224.2 341.8,241.3 342.9,232.4 343.9,231.7 345.0,219.1 346.1,211.5 347.1,228.8 348.2,182.8 349.3,231.9 350.3,215.5 351.4,222.9 352.5,224.1 353.5,228.4 354.6,215.5 355.7,241.6 356.7,215.8 357.8,222.3 358.9,200.4 360.0,197.8 361.0,196.0 362.1,217.4 363.2,211.3 364.2,224.2 365.3,170.7 366.4,221.2 367.4,205.8 368.5,206.4 369.6,200.5 370.6,222.5 371.7,228.8 372.8,224.2 373.8,169.3 374.9,224.0 376.0,232.4 377.0,224.0 378.1,224.2 379.2,176.8 380.2,201.0 381.3,227.0 382.4,232.4 383.4,224.2 384.5,210.5 385.6,234.1 386.6,233.5 387.7,225.2 388.8,224.2 389.8,221.2 390.9,231.0 392.0,224.1 393.0,252.7 394.1,232.0 395.2,232.2 396.2,231.0 397.3,233.9 398.4,234.0 399.4,225.3 400.5,224.0 401.6,224.1 402.7,224.1 403.7,224.1 404.8,215.6 405.9,224.1 406.9,215.5 408.0,214.1 409.1,224.1 410.1,234.0 411.2,215.6 412.3,224.1 413.3,219.8 414.4,210.3 415.5,201.0 416.5,215.8 417.6,224.1 418.7,215.9 419.7,233.4 420.8,224.1 421.9,206.4 422.9,207.8 424.0,224.1 425.1,224.2 426.1,224.1 427.2,234.1 428.3,224.2 429.3,235.6 430.4,224.0 431.5,223.8 432.5,224.2 433.6,224.7 434.7,232.0 435.7,249.0 436.8,234.1 437.9,236.5 438.9,240.3 440.0,234.1 441.1,230.5 442.1,216.3 443.2,232.6 444.3,234.0 445.3,234.1 446.4,234.0 447.5,229.1 448.6,226.1 449.6,232.0 450.7,241.5 451.8,221.2 452.8,224.1 453.9,224.1 455.0,229.3 456.0,227.1 457.1,227.4 458.2,210.8 459.2,214.0 460.3,221.2 461.4,227.3 462.4,214.6 463.5,224.1 464.6,216.4 465.6,225.0 466.7,234.1 467.8,170.6 468.8,200.5 469.9,224.1 471.0,201.1 472.0,213.1 473.1,215.4 474.2,233.9 475.2,222.4 476.3,229.1 477.4,224.1 478.4,216.5 479.5,213.2 480.6,200.6 481.6,193.0 482.7,195.4 483.8,209.6 484.8,200.7 485.9,215.9 487.0,228.8 488.0,214.0 489.1,234.1 490.2,223.9 491.3,223.4 492.3,224.2 493.4,219.7 494.5,224.0 495.5,241.3 496.6,227.0 497.7,232.3 498.7,234.1 499.8,227.5 500.9,234.1 501.9,237.2 503.0,241.3 504.1,224.3 505.1,225.0 506.2,224.1 507.3,234.1 508.3,228.6 509.4,224.2 510.5,232.5 511.5,227.4 512.6,92.4 513.7,215.9 514.7,224.1 515.8,214.6 516.9,232.4 517.9,231.0 519.0,224.1 520.1,224.2 521.1,224.1 522.2,221.1 523.3,224.0 524.3,234.1 525.4,239.3 526.5,234.1 527.5,232.6 528.6,214.6 529.7,224.2 530.7,224.1 531.8,238.9 532.9,233.2 534.0,217.9 535.0,213.3 536.1,231.0 537.2,227.6 538.2,231.4 539.3,234.3 540.4,201.0 541.4,234.1 542.5,234.1 543.6,217.4 544.6,221.2 545.7,228.8 546.8,221.1 547.8,220.6 548.9,227.7 550.0,232.8 551.0,233.9 552.1,224.1 553.2,238.5 554.2,241.2 555.3,225.8 556.4,237.5 557.4,224.1 558.5,228.7 559.6,212.7 560.6,215.6 561.7,215.6 562.8,224.1 563.8,224.1 564.9,217.8 566.0,235.0 567.0,224.9 568.1,232.3 569.2,224.2 570.2,224.2 571.3,237.5 572.4,217.7 573.4,234.4 574.5,225.3 575.6,237.5 576.7,224.0 577.7,232.6 578.8,232.3 579.9,224.0 580.9,169.3 582.0,224.1 583.1,225.3 584.1,225.4 585.2,227.5 586.3,224.1 587.3,224.1 588.4,240.6 589.5,224.2 590.5,231.0 591.6,224.2 592.7,229.2 593.7,227.5 594.8,239.5 595.9,232.9 596.9,237.5 598.0,237.2 599.1,233.1 600.1,237.2 601.2,234.5 602.3,241.3 603.3,224.2 604.4,242.0 605.5,213.4 606.5,225.9 607.6,206.4 608.7,214.5 609.7,224.2 610.8,202.6 611.9,224.1 612.9,223.9 614.0,224.2 615.1,232.3 616.1,224.2 617.2,237.2 618.3,224.1 619.3,227.8 620.4,223.2 621.5,224.2 622.6,235.5 623.6,236.7 624.7,201.0 625.8,231.3 626.8,231.0 627.9,236.2 629.0,231.0 630.0,232.9 631.1,217.4 632.2,233.5 633.2,213.4 634.3,231.0 635.4,223.7 636.4,220.4 637.5,225.8 638.6,224.2 639.6,224.2 640.7,220.5 641.8,230.1 642.8,196.6 643.9,220.9 645.0,212.7 646.0,232.4 647.1,170.6 648.2,231.0 649.2,200.5 650.3,220.7 651.4,217.4 652.4,210.7 653.5,216.5 654.6,240.4 655.6,232.4 656.7,224.0 657.8,228.7 658.8,224.1 659.9,210.7 661.0,224.1 662.0,207.8 663.1,224.1 664.2,200.7 665.3,200.5 666.3,202.5 667.4,224.2 668.5,235.8 669.5,224.2 670.6,217.4 671.7,231.5 672.7,232.4 673.8,220.6 674.9,224.1 675.9,215.6 677.0,232.1 678.1,231.0 679.1,232.3 680.2,237.2 681.3,241.3 682.3,230.3 683.4,228.8 684.5,219.5 685.5,228.5 686.6,228.7 687.7,204.7 688.7,221.2 689.8,216.3 690.9,227.5 691.9,225.2 693.0,225.9 694.1,232.9 695.1,232.4 696.2,224.2 697.3,230.1 698.3,237.2 699.4,224.5 700.5,238.0 701.5,225.8 702.6,232.2 703.7,237.2 704.7,237.2 705.8,234.2 706.9,238.5 708.0,212.8 709.0,228.8 710.1,234.1 711.2,223.6 712.2,224.0 713.3,223.0 714.4,223.1 715.4,215.9 716.5,224.2 717.6,173.0 718.6,211.0 719.7,224.1 720.8,214.7 721.8,218.7 722.9,232.4 724.0,216.5 725.0,215.7 726.1,233.0 727.2,222.8 728.2,228.6 729.3,224.1 730.4,224.1 731.4,231.0 732.5,221.1 733.6,212.2 734.6,208.9 735.7,233.4 736.8,223.9 737.8,225.2 738.9,219.7 740.0,224.0 741.0,212.6 742.1,229.6 743.2,224.4 744.2,224.1 745.3,234.1 746.4,230.7 747.4,224.1 748.5,237.2 749.6,224.5 750.7,224.2 751.7,237.7 752.8,215.6 753.9,231.0 754.9,228.4 756.0,234.9 757.1,224.5 758.1,226.1 759.2,223.0 760.3,224.2 761.3,225.3 762.4,224.1 763.5,219.2 764.5,209.3 765.6,195.6 766.7,225.3 767.7,212.8 768.8,230.1 769.9,224.0 770.9,224.1 772.0,200.5 773.1,209.0 774.1,224.2 775.2,218.5 776.3,221.2 777.3,224.2 778.4,189.6 779.5,216.2 780.5,224.1 781.6,231.0 782.7,225.2 783.7,234.1 784.8,219.9 785.9,217.4 786.9,234.1 788.0,199.2 789.1,224.1 790.1,224.4 791.2,217.4 792.3,224.0 793.3,224.2 794.4,224.2 795.5,222.0 796.6,216.5 797.6,200.8 798.7,183.8 799.8,224.2 800.8,224.5 801.9,201.1 803.0,227.9 804.0,227.3 805.1,242.0 806.2,240.8 807.2,238.2 808.3,237.5 809.4,192.6 810.4,245.6 811.5,209.3 812.6,234.1 813.6,241.9 814.7,241.1 815.8,224.3 816.8,174.6 817.9,224.1 819.0,195.4 820.0,229.9 821.1,237.1 822.2,241.9 823.2,221.2 824.3,229.0 825.4,257.0 826.4,170.6 827.5,201.0 828.6,257.2 829.6,224.2 830.7,227.0 831.8,224.1 832.8,237.5 833.9,224.1 835.0,231.0 836.0,217.4 837.1,181.7 838.2,224.2 839.3,205.2 840.3,210.8 841.4,209.3 842.5,200.6 843.5,224.6 844.6,228.3 845.7,244.1 846.7,213.9 847.8,241.5 848.9,225.4 849.9,232.8 851.0,231.0 852.1,241.9 853.1,230.2 854.2,238.5 855.3,248.7 856.3,246.2 857.4,252.9 858.5,237.2 859.5,239.5 860.6,241.8 861.7,200.2 862.7,195.5 863.8,225.3 864.9,218.8 865.9,224.3 867.0,217.4 868.1,217.4 869.1,234.0 870.2,237.2 871.3,238.0 872.3,246.7 873.4,239.1 874.5,238.0 875.5,231.6 876.6,207.8 877.7,237.2 878.7,234.1 879.8,241.8 880.9,213.8 882.0,224.2 883.0,237.2 884.1,228.5 885.2,225.4 886.2,231.0 887.3,215.6 888.4,223.0 889.4,217.6 890.5,224.1 891.6,230.8 892.6,225.7 893.7,228.6 894.8,258.6 895.8,231.0 896.9,237.6 898.0,236.7 899.0,224.2 900.1,232.7 901.2,224.1 902.2,224.1 903.3,212.4 904.4,243.0 905.4,226.4 906.5,200.9 907.6,221.2 908.6,224.1 909.7,224.2 910.8,215.5 911.8,234.4 912.9,224.1 914.0,239.5 915.0,224.1 916.1,242.0 917.2,241.3 918.2,224.2 919.3,225.8 920.4,199.1 921.4,238.2 922.5,300.4 923.6,333.7 924.7,335.1 925.7,332.4 926.8,333.0 927.9,257.7 928.9,329.0 930.0,329.1 931.1,333.2 932.1,335.2 933.2,333.8 934.3,333.1 935.3,323.8 936.4,333.0 937.5,334.4 938.5,332.4 939.6,329.8 940.7,334.7 941.7,331.1 942.8,331.1 943.9,331.1 944.9,331.9 946.0,331.9" fill="none" stroke="#d97706" stroke-width="2.2" stroke-linejoin="round" stroke-linecap="round"/>
<line x1="76" y1="70" x2="94" y2="70" stroke="#2563eb" stroke-width="3"/>
<text x="100" y="74" font-family="Arial, sans-serif" font-size="11" fill="#0f172a">avg fee</text>
<line x1="179" y1="70" x2="197" y2="70" stroke="#059669" stroke-width="3"/>
<text x="203" y="74" font-family="Arial, sans-serif" font-size="11" fill="#0f172a">median fee</text>
<line x1="303" y1="70" x2="321" y2="70" stroke="#d97706" stroke-width="3"/>
<text x="327" y="74" font-family="Arial, sans-serif" font-size="11" fill="#0f172a">p90 fee</text>
<text x="28" y="404" font-family="Arial, sans-serif" font-size="11" fill="#64748b">Source: hourly_features.csv</text>
</svg>