<svg xmlns="http://www.w3.org/2000/svg" width="980" height="420" viewBox="0 0 980 420">
<rect width="100%" height="100%" fill="#ffffff"/>
<text x="28" y="34" font-family="Arial, sans-serif" font-size="20" font-weight="700" fill="#0f172a">Hourly fee trend</text>
<text x="28" y="56" font-family="Arial, sans-serif" font-size="12" fill="#64748b">Average, median, and p90 total fee by hour</text>
<line x1="76" y1="362.0" x2="946" y2="362.0" stroke="#e2e8f0" stroke-width="1"/>
<text x="68" y="366.0" font-family="Arial, sans-serif" font-size="10" text-anchor="end" fill="#64748b">-382K</text>
<line x1="76" y1="292.0" x2="946" y2="292.0" stroke="#e2e8f0" stroke-width="1"/>
<text x="68" y="296.0" font-family="Arial, sans-serif" font-size="10" text-anchor="end" fill="#64748b">2.6M</text>
<line x1="76" y1="222.0" x2="946" y2="222.0" stroke="#e2e8f0" stroke-width="1"/>
<text x="68" y="226.0" font-family="Arial, sans-serif" font-size="10" text-anchor="end" fill="#64748b">5.7M</text>
<line x1="76" y1="152.0" x2="946" y2="152.0" stroke="#e2e8f0" stroke-width="1"/>
<text x="68" y="156.0" font-family="Arial, sans-serif" font-size="10" text-anchor="end" fill="#64748b">8.7M</text>
<line x1="76" y1="82.0" x2="946" y2="82.0" stroke="#e2e8f0" stroke-width="1"/>
<text x="68" y="86.0" font-family="Arial, sans-serif" font-size="10" text-anchor="end" fill="#64748b">11.7M</text>
<line x1="76" y1="362" x2="946" y2="362" stroke="#334155" stroke-width="1"/>
<line x1="76" y1="82" x2="76" y2="362" stroke="#334155" stroke-width="1"/>
<text x="76" y="72" font-family="Arial, sans-serif" font-size="11" fill="#64748b">nanoton</text>
<line x1="76.0" y1="362" x2="76.0" y2="366" stroke="#334155" stroke-width="1"/>
<text x="76.0" y="380" font-family="Arial, sans-serif" font-size="10" text-anchor="middle" fill="#64748b">0</text>
<line x1="511.0" y1="362" x2="511.0" y2="366" stroke="#334155" stroke-width="1"/>
<text x="511.0" y="380" font-family="Arial, sans-serif" font-size="10" text-anchor="middle" fill="#64748b">469</text>
<line x1="946.0" y1="362" x2="946.0" y2="366" stroke="#334155" stroke-width="1"/>
<text x="946.0" y="380" font-family="Arial, sans-serif" font-size="10" text-anchor="middle" fill="#64748b">938</text>
<polyline points="76.0,290.8 76.9,294.6 77.9,296.0 78.8,298.1 79.7,304.8 80.6,297.2 81.6,298.2 82.5,294.6 83.4,299.0 84.3,298.7 85.3,287.8 86.2,299.5 87.1,299.7 88.1,297.4 89.0,300.3 89.9,300.5 90.8,292.5 91.8,292.5 92.7,301.3 93.6,291.1 94.6,289.2 95.5,287.3 96.4,293.8 97.3,294.2 98.3,296.1 99.2,292.1 100.1,297.7 101.0,290.6 102.0,293.2 102.9,288.3 103.8,289.0 104.8,273.1 105.7,284.7 106.6,285.3 107.5,294.6 108.5,299.9 109.4,292.9 110.3,294.9 111.2,304.7 112.2,307.5 113.1,302.1 114.0,297.0 115.0,298.7 115.9,297.9 116.8,304.4 117.7,297.4 118.7,294.5 119.6,296.5 120.5,298.7 121.4,303.1 122.4,303.1 123.3,301.9 124.2,300.3 125.2,303.3 126.1,302.2 127.0,299.4 127.9,299.1 128.9,302.8 129.8,299.1 130.7,301.3 131.7,306.8 132.6,308.7 133.5,306.4 134.4,307.1 135.4,309.1 136.3,305.9 137.2,305.5 138.1,302.0 139.1,308.5 140.0,290.7 140.9,306.4 141.9,306.4 142.8,306.3 143.7,311.2 144.6,307.1 145.6,310.3 146.5,309.1 147.4,305.5 148.3,305.4 149.3,303.2 150.2,303.5 151.1,301.3 152.1,305.1 153.0,307.4 153.9,306.9 154.8,308.1 155.8,305.0 156.7,302.9 157.6,302.7 158.5,298.6 159.5,304.9 160.4,297.0 161.3,299.3 162.3,300.3 163.2,303.9 164.1,311.6 165.0,300.1 166.0,300.5 166.9,308.9 167.8,307.5 168.8,300.3 169.7,304.2 170.6,305.1 171.5,302.6 172.5,300.5 173.4,297.4 174.3,298.7 175.2,301.9 176.2,308.1 177.1,307.4 178.0,307.4 179.0,303.1 179.9,301.9 180.8,304.1 181.7,303.9 182.7,304.0 183.6,308.3 184.5,308.9 185.4,307.3 186.4,301.1 187.3,286.9 188.2,301.6 189.2,298.8 190.1,296.1 191.0,299.6 191.9,305.5 192.9,301.5 193.8,304.9 194.7,302.2 195.6,304.9 196.6,306.8 197.5,304.9 198.4,300.8 199.4,304.8 200.3,308.0 201.2,302.4 202.1,301.7 203.1,303.1 204.0,303.4 204.9,298.9 205.9,298.5 206.8,298.0 207.7,289.4 208.6,296.9 209.6,296.4 210.5,295.5 211.4,299.6 212.3,299.0 213.3,304.6 214.2,304.0 215.1,303.8 216.1,299.2 217.0,301.2 217.9,305.7 218.8,304.5 219.8,312.1 220.7,305.7 221.6,304.3 222.5,307.0 223.5,306.9 224.4,301.9 225.3,303.8 226.3,300.8 227.2,301.6 228.1,300.2 229.0,298.7 230.0,290.6 230.9,296.1 231.8,300.6 232.7,296.6 233.7,302.7 234.6,302.6 235.5,303.0 236.5,302.7 237.4,302.8 238.3,303.7 239.2,300.1 240.2,305.6 241.1,303.0 242.0,299.2 243.0,302.8 243.9,306.7 244.8,306.1 245.7,306.7 246.7,298.5 247.6,301.6 248.5,297.8 249.4,303.8 250.4,300.2 251.3,299.5 252.2,295.6 253.2,298.2 254.1,298.4 255.0,293.8 255.9,299.9 256.9,297.9 257.8,298.6 258.7,294.2 259.6,297.8 260.6,278.0 261.5,284.2 262.4,295.2 263.4,295.7 264.3,294.4 265.2,300.7 266.1,304.3 267.1,302.4 268.0,302.1 268.9,297.9 269.8,295.3 270.8,296.5 271.7,291.4 272.6,292.0 273.6,290.6 274.5,290.0 275.4,299.7 276.3,291.9 277.3,296.8 278.2,299.8 279.1,303.8 280.1,302.5 281.0,302.1 281.9,302.3 282.8,300.8 283.8,303.5 284.7,295.9 285.6,297.8 286.5,304.4 287.5,304.2 288.4,299.5 289.3,303.9 290.3,303.5 291.2,299.0 292.1,288.7 293.0,293.7 294.0,294.2 294.9,303.7 295.8,295.6 296.7,297.0 297.7,305.6 298.6,294.8 299.5,300.5 300.5,305.1 301.4,308.5 302.3,305.5 303.2,304.0 304.2,300.7 305.1,303.8 306.0,299.3 306.9,303.0 307.9,305.0 308.8,303.0 309.7,299.3 310.7,294.4 311.6,299.9 312.5,286.2 313.4,302.1 314.4,293.9 315.3,297.9 316.2,299.5 317.2,297.4 318.1,294.4 319.0,310.4 319.9,291.6 320.9,295.6 321.8,281.6 322.7,294.6 323.6,293.2 324.6,295.0 325.5,291.0 326.4,301.0 327.4,279.9 328.3,297.2 329.2,291.8 330.1,291.5 331.1,283.3 332.0,298.3 332.9,300.4 333.8,298.6 334.8,288.4 335.7,299.0 336.6,304.4 337.6,297.7 338.5,295.5 339.4,279.8 340.3,284.2 341.3,300.5 342.2,299.9 343.1,298.1 344.0,293.4 345.0,303.1 345.9,303.0 346.8,298.6 347.8,296.8 348.7,297.4 349.6,301.3 350.5,298.1 351.5,311.4 352.4,299.4 353.3,303.5 354.3,301.2 355.2,302.9 356.1,304.3 357.0,297.8 358.0,294.4 358.9,299.3 359.8,295.1 360.7,301.8 361.7,292.6 362.6,297.6 363.5,293.9 364.5,290.0 365.4,295.1 366.3,304.6 367.2,291.1 368.2,300.3 369.1,295.9 370.0,293.1 370.9,291.6 371.9,296.8 372.8,297.1 373.7,297.9 374.7,299.5 375.6,292.8 376.5,286.2 377.4,290.1 378.4,300.0 379.3,294.5 380.2,300.9 381.1,303.0 382.1,299.1 383.0,302.5 383.9,295.1 384.9,297.0 385.8,302.8 386.7,301.7 387.6,303.0 388.6,308.6 389.5,306.8 390.4,306.1 391.4,306.5 392.3,304.3 393.2,304.5 394.1,298.3 395.1,301.1 396.0,303.1 396.9,303.3 397.8,304.2 398.8,302.4 399.7,299.4 400.6,304.5 401.6,307.1 402.5,297.3 403.4,298.9 404.3,298.1 405.3,299.7 406.2,297.8 407.1,301.0 408.0,287.2 409.0,294.3 409.9,294.8 410.8,298.6 411.8,291.3 412.7,298.4 413.6,294.6 414.5,298.7 415.5,304.2 416.4,282.2 417.3,289.8 418.2,298.8 419.2,295.1 420.1,293.4 421.0,294.7 422.0,304.3 422.9,296.9 423.8,301.7 424.7,296.7 425.7,295.6 426.6,292.9 427.5,291.6 428.5,286.7 429.4,287.8 430.3,294.2 431.2,292.6 432.2,297.5 433.1,303.1 434.0,296.8 434.9,304.1 435.9,298.7 436.8,297.8 437.7,299.3 438.7,297.1 439.6,296.6 440.5,305.5 441.4,301.9 442.4,304.5 443.3,302.9 444.2,303.4 445.1,302.7 446.1,304.5 447.0,301.7 447.9,300.0 448.9,297.3 449.8,295.0 450.7,305.0 451.6,302.7 452.6,303.7 453.5,302.8 454.4,298.5 455.3,257.0 456.3,291.0 457.2,298.5 458.1,296.3 459.1,301.0 460.0,301.6 460.9,299.9 461.8,299.3 462.8,299.6 463.7,296.0 464.6,299.4 465.6,305.6 466.5,306.5 467.4,300.9 468.3,302.7 469.3,295.0 470.2,302.2 471.1,296.9 472.0,304.8 473.0,299.1 473.9,295.6 474.8,295.1 475.8,300.9 476.7,301.0 477.6,300.7 478.5,304.5 479.5,292.6 480.4,303.5 481.3,306.0 482.2,295.5 483.2,297.4 484.1,302.8 485.0,295.8 486.0,299.5 486.9,304.0 487.8,301.7 488.7,303.8 489.7,300.8 490.6,306.1 491.5,305.6 492.4,300.8 493.4,303.2 494.3,297.1 495.2,300.2 496.2,292.3 497.1,292.0 498.0,292.1 498.9,299.3 499.9,298.5 500.8,298.8 501.7,301.5 502.7,299.6 503.6,305.3 504.5,300.2 505.4,300.6 506.4,304.7 507.3,299.2 508.2,304.4 509.1,299.7 510.1,306.4 511.0,299.1 511.9,304.5 512.9,303.3 513.8,298.0 514.7,263.7 515.6,302.9 516.6,304.6 517.5,301.3 518.4,300.8 519.3,298.3 520.3,299.9 521.2,302.7 522.1,298.6 523.1,304.0 524.0,302.8 524.9,303.0 525.8,301.1 526.8,308.3 527.7,304.5 528.6,309.0 529.6,304.5 530.5,303.7 531.4,304.9 532.3,303.6 533.3,305.3 534.2,299.5 535.1,305.2 536.0,297.1 537.0,302.2 537.9,288.1 538.8,294.6 539.8,299.7 540.7,287.4 541.6,299.0 542.5,298.4 543.5,296.8 544.4,301.1 545.3,299.5 546.2,302.6 547.2,299.3 548.1,303.0 549.0,298.0 550.0,301.6 550.9,305.3 551.8,304.5 552.7,290.4 553.7,303.1 554.6,299.6 555.5,302.4 556.4,303.1 557.4,304.7 558.3,296.3 559.2,301.7 560.2,292.9 561.1,298.2 562.0,294.8 562.9,293.5 563.9,299.4 564.8,297.4 565.7,300.4 566.7,295.6 567.6,301.5 568.5,282.6 569.4,297.4 570.4,291.2 571.3,300.8 572.2,281.3 573.1,303.6 574.1,292.1 575.0,296.5 575.9,300.9 576.9,293.9 577.8,295.3 578.7,305.2 579.6,304.7 580.6,300.3 581.5,302.0 582.4,297.5 583.3,295.0 584.3,296.6 585.2,292.7 586.1,298.7 587.1,291.1 588.0,289.9 588.9,292.8 589.8,302.6 590.8,303.5 591.7,301.6 592.6,297.5 593.5,303.0 594.5,302.5 595.4,299.3 596.3,300.0 597.3,295.7 598.2,300.6 599.1,302.5 600.0,302.2 601.0,300.7 601.9,305.4 602.8,305.1 603.8,301.0 604.7,294.2 605.6,301.0 606.5,298.9 607.5,290.4 608.4,295.9 609.3,294.1 610.2,301.3 611.2,298.2 612.1,299.2 613.0,302.6 614.0,300.9 614.9,299.2 615.8,302.7 616.7,303.6 617.7,299.5 618.6,304.4 619.5,298.2 620.4,302.7 621.4,304.9 622.3,303.3 623.2,303.8 624.2,305.7 625.1,294.6 626.0,306.7 626.9,303.7 627.9,295.1 628.8,294.1 629.7,293.7 630.6,295.9 631.6,295.9 632.5,298.1 633.4,284.7 634.4,294.9 635.3,298.6 636.2,296.3 637.1,294.2 638.1,300.6 639.0,294.3 639.9,295.9 640.9,303.8 641.8,295.8 642.7,302.6 643.6,297.7 644.6,300.0 645.5,300.7 646.4,298.3 647.3,294.8 648.3,295.8 649.2,303.0 650.1,295.6 651.1,296.0 652.0,295.2 652.9,295.3 653.8,295.0 654.8,299.9 655.7,299.0 656.6,295.9 657.5,303.3 658.5,302.9 659.4,298.2 660.3,305.5 661.3,300.9 662.2,300.4 663.1,305.2 664.0,295.8 665.0,301.8 665.9,303.2 666.8,304.6 667.7,299.1 668.7,301.0 669.6,298.0 670.5,298.8 671.5,297.3 672.4,300.8 673.3,296.0 674.2,293.0 675.2,284.2 676.1,298.8 677.0,293.9 678.0,298.9 678.9,298.8 679.8,298.0 680.7,291.0 681.7,292.3 682.6,298.2 683.5,297.5 684.4,297.5 685.4,298.5 686.3,288.2 687.2,296.5 688.2,297.3 689.1,301.7 690.0,301.0 690.9,305.4 691.9,295.8 692.8,295.1 693.7,299.8 694.6,289.6 695.6,296.7 696.5,295.1 697.4,295.1 698.4,294.8 699.3,297.5 700.2,299.5 701.1,295.8 702.1,297.0 703.0,291.7 703.9,285.1 704.8,299.7 705.8,301.0 706.7,293.6 707.6,302.3 708.6,297.5 709.5,307.7 710.4,292.5 711.3,304.9 712.3,304.1 713.2,291.9 714.1,305.2 715.1,297.8 716.0,298.1 716.9,307.4 717.8,305.4 718.8,294.0 719.7,284.5 720.6,295.7 721.5,281.6 722.5,295.8 723.4,307.1 724.3,303.5 725.3,299.2 726.2,301.5 727.1,309.0 728.0,287.8 729.0,293.3 729.9,314.3 730.8,300.8 731.7,304.2 732.7,299.2 733.6,305.4 734.5,297.5 735.5,303.5 736.4,297.3 737.3,286.2 738.2,295.6 739.2,293.4 740.1,295.3 741.0,292.6 741.9,295.0 742.9,297.5 743.8,303.2 744.7,307.8 745.7,295.2 746.6,306.6 747.5,305.0 748.4,305.4 749.4,303.1 750.3,297.4 751.2,293.5 752.2,305.0 753.1,310.4 754.0,306.6 754.9,309.4 755.9,304.0 756.8,307.8 757.7,308.2 758.6,299.0 759.6,288.2 760.5,297.1 761.4,298.1 762.4,298.6 763.3,298.7 764.2,295.2 765.1,305.8 766.1,307.8 767.0,304.4 767.9,309.3 768.8,306.7 769.8,303.2 770.7,303.6 771.6,296.5 772.6,304.1 773.5,305.5 774.4,308.2 775.3,291.8 776.3,301.9 777.2,305.3 778.1,302.2 779.0,300.9 780.0,302.7 780.9,295.0 781.8,295.0 782.8,295.3 783.7,299.1 784.6,299.0 785.5,300.9 786.5,304.6 787.4,307.3 788.3,303.1 789.3,300.9 790.2,303.0 791.1,290.9 792.0,301.1 793.0,301.9 793.9,302.0 794.8,295.6 795.7,306.6 796.7,304.1 797.6,288.8 798.5,297.4 799.5,295.3 800.4,295.7 801.3,296.1 802.2,306.3 803.2,300.3 804.1,304.9 805.0,295.7 805.9,303.6 806.9,305.1 807.8,302.6 808.7,301.6 809.7,285.2 810.6,304.3 811.5,334.7 812.4,343.7 813.4,343.8 814.3,343.5 815.2,344.0 816.1,319.0 817.1,342.3 818.0,343.1 818.9,342.6 819.9,343.4 820.8,343.4 821.7,343.4 822.6,338.9 823.6,343.5 824.5,344.5 825.4,342.7 826.4,342.0 827.3,343.8 828.2,343.0 829.1,343.2 830.1,340.3 831.0,342.7 831.9,343.4 832.8,342.2 833.8,343.9 834.7,341.8 835.6,341.2 836.6,342.8 837.5,342.4 838.4,343.3 839.3,344.8 840.3,343.7 841.2,343.3 842.1,344.0 843.0,342.7 844.0,343.5 844.9,341.8 845.8,340.1 846.8,342.3 847.7,342.4 848.6,339.6 849.5,341.5 850.5,340.5 851.4,343.1 852.3,341.6 853.2,340.5 854.2,342.3 855.1,342.5 856.0,342.2 857.0,343.0 857.9,342.6 858.8,342.9 859.7,343.5 860.7,342.4 861.6,340.9 862.5,341.4 863.5,342.5 864.4,343.3 865.3,343.5 866.2,343.3 867.2,343.2 868.1,342.6 869.0,341.1 869.9,340.9 870.9,341.6 871.8,340.6 872.7,341.3 873.7,341.0 874.6,342.8 875.5,341.5 876.4,342.2 877.4,341.5 878.3,342.8 879.2,341.0 880.1,340.5 881.1,341.9 882.0,341.5 882.9,341.0 883.9,338.4 884.8,325.0 885.7,339.0 886.6,340.0 887.6,339.6 888.5,341.0 889.4,338.3 890.3,339.7 891.3,338.7 892.2,339.5 893.1,333.1 894.1,340.3 895.0,337.2 895.9,337.3 896.8,338.6 897.8,339.3 898.7,338.5 899.6,337.9 900.6,338.6 901.5,339.5 902.4,339.1 903.3,339.5 904.3,339.7 905.2,337.8 906.1,338.7 907.0,338.4 908.0,336.7 908.9,338.9 909.8,340.0 910.8,340.5 911.7,342.3 912.6,337.0 913.5,340.5 914.5,338.6 915.4,338.7 916.3,337.1 917.2,336.9 918.2,340.4 919.1,339.1 920.0,339.0 921.0,338.7 921.9,339.6 922.8,340.2 923.7,340.9 924.7,339.1 925.6,338.5 926.5,340.0 927.4,341.2 928.4,339.9 929.3,338.0 930.2,337.5 931.2,342.7 932.1,340.5 933.0,339.7 933.9,340.2 934.9,337.2 935.8,339.4 936.7,339.1 937.7,338.7 938.6,338.7 939.5,342.6 940.4,338.1 941.4,336.6 942.3,340.6 943.2,339.0 944.1,340.1 945.1,339.1 946.0,337.0" fill="none" stroke="#2563eb" stroke-width="2.2" stroke-linejoin="round" stroke-linecap="round"/>
<polyline points="76.0,311.4 76.9,324.9 77.9,334.1 78.8,334.5 79.7,335.0 80.6,334.6 81.6,334.4 82.5,330.8 83.4,334.6 84.3,334.6 85.3,320.5 86.2,334.6 87.1,334.2 88.1,330.7 89.0,334.4 89.9,333.8 90.8,321.1 91.8,330.5 92.7,332.4 93.6,310.6 94.6,302.9 95.5,305.9 96.4,320.5 97.3,315.5 98.3,310.4 99.2,329.8 100.1,333.4 101.0,312.5 102.0,335.0 102.9,319.0 103.8,330.5 104.8,283.8 105.7,300.4 106.6,303.3 107.5,308.3 108.5,331.3 109.4,312.5 110.3,310.6 111.2,334.9 112.2,335.0 113.1,329.7 114.0,310.6 115.0,310.6 115.9,312.5 116.8,340.8 117.7,334.9 118.7,308.9 119.6,310.3 120.5,334.9 121.4,335.3 122.4,334.2 123.3,333.4 124.2,333.9 125.2,334.6 126.1,331.5 127.0,334.6 127.9,330.9 128.9,334.3 129.8,334.6 130.7,334.2 131.7,335.0 132.6,334.9 133.5,334.9 134.4,344.0 135.4,335.8 136.3,334.9 137.2,334.9 138.1,330.7 139.1,344.0 140.0,335.6 140.9,336.2 141.9,336.2 142.8,335.0 143.7,338.1 144.6,336.2 145.6,336.1 146.5,335.1 147.4,335.0 148.3,335.0 149.3,334.5 150.2,335.0 151.1,334.6 152.1,334.6 153.0,335.0 153.9,335.0 154.8,335.0 155.8,334.3 156.7,334.9 157.6,334.9 158.5,330.7 159.5,334.7 160.4,312.2 161.3,329.6 162.3,331.1 163.2,333.8 164.1,344.0 165.0,330.6 166.0,333.8 166.9,335.0 167.8,336.2 168.8,334.7 169.7,334.7 170.6,334.8 171.5,334.6 172.5,331.0 173.4,330.5 174.3,331.5 175.2,333.0 176.2,335.0 177.1,334.9 178.0,334.9 179.0,334.1 179.9,334.9 180.8,334.9 181.7,331.5 182.7,332.3 183.6,336.2 184.5,344.0 185.4,336.1 186.4,335.0 187.3,310.1 188.2,334.9 189.2,334.5 190.1,334.7 191.0,333.8 191.9,334.9 192.9,334.0 193.8,334.9 194.7,334.9 195.6,334.9 196.6,335.0 197.5,334.7 198.4,333.2 199.4,334.9 200.3,335.0 201.2,335.0 202.1,334.1 203.1,334.2 204.0,330.3 204.9,310.6 205.9,298.7 206.8,309.8 207.7,304.4 208.6,310.2 209.6,310.1 210.5,327.6 211.4,333.0 212.3,333.8 213.3,333.8 214.2,334.9 215.1,334.9 216.1,333.8 217.0,334.7 217.9,334.7 218.8,334.6 219.8,344.0 220.7,334.9 221.6,334.9 222.5,335.0 223.5,335.0 224.4,333.8 225.3,334.4 226.3,330.9 227.2,319.7 228.1,298.7 229.0,334.1 230.0,326.9 230.9,334.7 231.8,331.8 232.7,331.8 233.7,331.4 234.6,334.7 235.5,334.4 236.5,334.6 237.4,334.6 238.3,330.7 239.2,330.7 240.2,334.9 241.1,334.4 242.0,331.0 243.0,334.6 243.9,335.0 244.8,334.6 245.7,334.9 246.7,330.5 247.6,334.3 248.5,315.6 249.4,334.6 250.4,298.7 251.3,334.0 252.2,329.7 253.2,332.6 254.1,331.8 255.0,310.6 255.9,331.8 256.9,332.3 257.8,334.6 258.7,323.8 259.6,334.0 260.6,295.8 261.5,298.7 262.4,327.1 263.4,331.1 264.3,330.7 265.2,332.3 266.1,334.6 267.1,334.7 268.0,334.1 268.9,324.8 269.8,315.1 270.8,308.6 271.7,305.4 272.6,298.7 273.6,306.5 274.5,305.4 275.4,331.7 276.3,305.5 277.3,317.0 278.2,333.4 279.1,335.0 280.1,334.1 281.0,335.0 281.9,334.9 282.8,333.7 283.8,335.0 284.7,319.7 285.6,319.7 286.5,334.1 287.5,333.8 288.4,333.4 289.3,334.7 290.3,334.6 291.2,331.3 292.1,305.4 293.0,308.2 294.0,308.3 294.9,298.7 295.8,310.2 296.7,335.5 297.7,336.2 298.6,312.5 299.5,334.5 300.5,336.2 301.4,335.9 302.3,336.2 303.2,335.0 304.2,333.8 305.1,334.3 306.0,334.4 306.9,333.5 307.9,334.6 308.8,334.4 309.7,329.6 310.7,308.9 311.6,334.1 312.5,308.2 313.4,334.4 314.4,310.7 315.3,310.3 316.2,325.1 317.2,305.5 318.1,319.7 319.0,344.0 319.9,315.6 320.9,334.2 321.8,308.2 322.7,309.9 323.6,330.0 324.6,334.1 325.5,335.0 326.4,333.2 327.4,323.8 328.3,333.8 329.2,308.2 330.1,306.1 331.1,323.8 332.0,315.6 332.9,333.4 333.8,332.6 334.8,303.2 335.7,334.1 336.6,334.7 337.6,326.5 338.5,333.8 339.4,320.8 340.3,333.7 341.3,333.7 342.2,334.1 343.1,330.7 344.0,331.8 345.0,333.7 345.9,334.6 346.8,333.8 347.8,333.0 348.7,310.6 349.6,334.7 350.5,330.7 351.5,345.9 352.4,333.8 353.3,334.7 354.3,333.7 355.2,334.7 356.1,334.7 357.0,310.6 358.0,315.4 358.9,332.0 359.8,310.5 360.7,331.7 361.7,305.3 362.6,330.5 363.5,326.9 364.5,302.2 365.4,309.7 366.3,335.9 367.2,333.4 368.2,334.9 369.1,334.4 370.0,306.5 370.9,306.5 371.9,318.3 372.8,320.1 373.7,323.6 374.7,331.8 375.6,310.6 376.5,305.4 377.4,308.2 378.4,331.8 379.3,305.2 380.2,330.5 381.1,334.1 382.1,326.7 383.0,330.7 383.9,305.4 384.9,308.2 385.8,333.8 386.7,334.1 387.6,335.0 388.6,340.8 389.5,336.2 390.4,336.1 391.4,335.0 392.3,336.2 393.2,335.8 394.1,333.8 395.1,334.4 396.0,335.0 396.9,334.8 397.8,334.9 398.8,334.6 399.7,331.8 400.6,334.5 401.6,335.0 402.5,329.1 403.4,330.7 404.3,325.8 405.3,325.3 406.2,308.2 407.1,333.5 408.0,308.4 409.0,310.3 409.9,330.5 410.8,319.6 411.8,308.3 412.7,334.6 413.6,318.7 414.5,335.8 415.5,335.0 416.4,297.6 417.3,305.3 418.2,325.3 419.2,325.7 420.1,318.9 421.0,310.3 422.0,334.9 422.9,321.4 423.8,334.2 424.7,331.5 425.7,329.7 426.6,309.6 427.5,308.4 428.5,298.7 429.4,302.7 430.3,305.5 431.2,309.0 432.2,331.8 433.1,334.0 434.0,329.6 434.9,334.7 435.9,333.8 436.8,335.0 437.7,334.0 438.7,334.0 439.6,325.3 440.5,334.9 441.4,334.5 442.4,334.6 443.3,334.7 444.2,334.7 445.1,334.7 446.1,334.6 447.0,334.1 447.9,326.9 448.9,326.6 449.8,305.4 450.7,343.0 451.6,335.3 452.6,344.0 453.5,335.0 454.4,329.1 455.3,301.0 456.3,334.2 457.2,334.1 458.1,315.6 459.1,335.0 460.0,334.1 460.9,334.6 461.8,333.6 462.8,330.5 463.7,330.4 464.6,333.8 465.6,335.0 466.5,335.0 467.4,333.2 468.3,334.4 469.3,310.5 470.2,332.0 471.1,310.1 472.0,332.7 473.0,305.4 473.9,309.8 474.8,310.6 475.8,330.0 476.7,333.8 477.6,332.4 478.5,335.3 479.5,318.3 480.4,334.7 481.3,336.2 482.2,331.4 483.2,325.8 484.1,334.6 485.0,331.3 486.0,331.8 486.9,334.7 487.8,334.5 488.7,333.8 489.7,330.7 490.6,334.9 491.5,334.8 492.4,331.8 493.4,333.2 494.3,310.7 495.2,330.5 496.2,308.2 497.1,308.4 498.0,305.4 498.9,330.4 499.9,326.9 500.8,330.4 501.7,334.9 502.7,331.5 503.6,335.0 504.5,334.6 505.4,334.1 506.4,334.9 507.3,334.7 508.2,335.0 509.1,333.8 510.1,335.0 511.0,333.3 511.9,334.6 512.9,335.0 513.8,332.7 514.7,283.6 515.6,333.8 516.6,335.0 517.5,319.3 518.4,331.1 519.3,329.7 520.3,331.8 521.2,334.1 522.1,334.6 523.1,334.9 524.0,334.7 524.9,334.6 525.8,334.8 526.8,335.0 527.7,334.9 528.6,335.0 529.6,334.9 530.5,334.7 531.4,334.9 532.3,335.0 533.3,334.7 534.2,334.1 535.1,335.7 536.0,334.1 537.0,334.4 537.9,305.3 538.8,319.6 539.8,309.3 540.7,300.7 541.6,310.4 542.5,330.5 543.5,310.6 544.4,330.5 545.3,333.0 546.2,334.7 547.2,333.8 548.1,334.1 549.0,330.9 550.0,334.7 550.9,334.9 551.8,334.9 552.7,305.4 553.7,334.4 554.6,331.0 555.5,335.0 556.4,333.8 557.4,335.0 558.3,333.8 559.2,334.9 560.2,310.6 561.1,334.3 562.0,306.4 562.9,308.4 563.9,333.8 564.8,330.9 565.7,334.1 566.7,329.7 567.6,334.3 568.5,305.3 569.4,330.7 570.4,328.8 571.3,333.8 572.2,295.8 573.1,334.6 574.1,310.6 575.0,310.6 575.9,333.8 576.9,318.4 577.8,318.5 578.7,334.2 579.6,334.9 580.6,334.1 581.5,334.1 582.4,330.4 583.3,308.2 584.3,308.2 585.2,310.2 586.1,333.8 587.1,310.6 588.0,310.4 588.9,327.3 589.8,332.0 590.8,335.0 591.7,334.6 592.6,334.0 593.5,334.6 594.5,334.5 595.4,330.7 596.3,333.5 597.3,331.5 598.2,334.6 599.1,334.1 600.0,333.8 601.0,330.7 601.9,334.7 602.8,334.9 603.8,332.0 604.7,307.0 605.6,326.1 606.5,305.4 607.5,306.4 608.4,309.0 609.3,306.4 610.2,334.6 611.2,327.0 612.1,333.8 613.0,333.2 614.0,334.1 614.9,335.0 615.8,334.6 616.7,333.9 617.7,333.8 618.6,334.7 619.5,330.7 620.4,331.8 621.4,334.9 622.3,334.1 623.2,334.6 624.2,334.9 625.1,327.5 626.0,335.0 626.9,333.6 627.9,319.7 628.8,302.9 629.7,310.1 630.6,327.5 631.6,326.8 632.5,323.6 633.4,298.7 634.4,310.6 635.3,331.1 636.2,330.7 637.1,334.6 638.1,324.6 639.0,323.8 639.9,330.4 640.9,333.8 641.8,330.7 642.7,334.6 643.6,323.9 644.6,333.2 645.5,334.1 646.4,325.7 647.3,309.1 648.3,315.6 649.2,333.8 650.1,308.5 651.1,306.5 652.0,308.2 652.9,310.2 653.8,312.5 654.8,331.0 655.7,331.9 656.6,317.9 657.5,334.6 658.5,335.0 659.4,335.0 660.3,335.0 661.3,334.6 662.2,333.8 663.1,334.9 664.0,330.4 665.0,334.3 665.9,334.6 666.8,334.2 667.7,333.8 668.7,335.0 669.6,330.7 670.5,333.8 671.5,315.5 672.4,330.7 673.3,305.4 674.2,324.4 675.2,306.5 676.1,331.8 677.0,308.9 678.0,333.8 678.9,333.8 679.8,331.2 680.7,310.7 681.7,333.8 682.6,330.0 683.5,327.2 684.4,323.8 685.4,330.0 686.3,305.0 687.2,312.5 688.2,333.8 689.1,332.0 690.0,329.7 690.9,333.8 691.9,322.8 692.8,308.3 693.7,310.4 694.6,305.2 695.6,305.4 696.5,308.2 697.4,310.7 698.4,310.1 699.3,319.6 700.2,325.7 701.1,330.8 702.1,330.9 703.0,305.4 703.9,305.2 704.8,333.8 705.8,331.0 706.7,305.4 707.6,334.7 708.6,308.3 709.5,334.1 710.4,334.7 711.3,332.8 712.3,332.9 713.2,308.2 714.1,335.0 715.1,330.4 716.0,310.4 716.9,330.0 717.8,326.8 718.8,305.9 719.7,306.4 720.6,323.8 721.5,296.7 722.5,334.1 723.4,335.0 724.3,335.0 725.3,331.5 726.2,334.7 727.1,335.0 728.0,304.3 729.0,308.2 729.9,335.0 730.8,331.8 731.7,334.5 732.7,331.2 733.6,334.7 734.5,331.8 735.5,321.5 736.4,334.9 737.3,331.9 738.2,310.4 739.2,308.3 740.1,305.4 741.0,305.9 741.9,305.7 742.9,324.6 743.8,330.7 744.7,334.5 745.7,331.6 746.6,335.0 747.5,335.0 748.4,335.0 749.4,322.4 750.3,334.9 751.2,331.1 752.2,335.0 753.1,344.0 754.0,344.0 754.9,344.0 755.9,334.6 756.8,335.0 757.7,335.0 758.6,334.4 759.6,311.6 760.5,308.9 761.4,308.2 762.4,308.1 763.3,330.4 764.2,308.6 765.1,337.4 766.1,335.0 767.0,335.0 767.9,335.0 768.8,331.8 769.8,332.0 770.7,334.1 771.6,330.5 772.6,334.6 773.5,335.0 774.4,334.9 775.3,312.5 776.3,333.8 777.2,332.0 778.1,333.8 779.0,331.7 780.0,331.0 780.9,310.7 781.8,308.6 782.8,314.0 783.7,327.1 784.6,304.8 785.5,340.8 786.5,341.6 787.4,335.0 788.3,334.6 789.3,334.6 790.2,324.6 791.1,317.8 792.0,346.0 793.0,334.6 793.9,334.9 794.8,317.9 795.7,344.0 796.7,334.0 797.6,321.8 798.5,332.8 799.5,325.5 800.4,333.8 801.3,313.7 802.2,334.6 803.2,328.5 804.1,331.2 805.0,305.4 805.9,331.0 806.9,310.0 807.8,331.4 808.7,330.2 809.7,290.8 810.6,335.0 811.5,347.8 812.4,350.1 813.4,349.5 814.3,346.1 815.2,349.4 816.1,341.0 817.1,346.4 818.0,349.3 818.9,344.7 819.9,345.1 820.8,349.2 821.7,349.4 822.6,343.5 823.6,350.0 824.5,350.1 825.4,347.6 826.4,344.9 827.3,349.2 828.2,345.2 829.1,344.1 830.1,344.7 831.0,345.7 831.9,346.1 832.8,345.7 833.8,349.5 834.7,345.1 835.6,349.4 836.6,348.7 837.5,346.1 838.4,345.8 839.3,351.6 840.3,348.3 841.2,345.7 842.1,349.9 843.0,344.7 844.0,346.4 844.9,345.2 845.8,343.4 846.8,345.2 847.7,346.1 848.6,342.1 849.5,343.4 850.5,343.5 851.4,345.2 852.3,345.2 853.2,344.0 854.2,345.2 855.1,345.4 856.0,345.3 857.0,344.8 857.9,345.8 858.8,346.1 859.7,344.8 860.7,345.0 861.6,344.3 862.5,345.2 863.5,347.2 864.4,347.4 865.3,350.1 866.2,346.4 867.2,348.8 868.1,348.0 869.0,344.7 869.9,344.0 870.9,345.4 871.8,342.7 872.7,345.8 873.7,344.1 874.6,346.0 875.5,349.5 876.4,344.0 877.4,345.9 878.3,347.6 879.2,344.8 880.1,343.6 881.1,343.6 882.0,344.9 882.9,343.6 883.9,342.0 884.8,343.9 885.7,342.7 886.6,343.4 887.6,341.6 888.5,343.4 889.4,341.5 890.3,342.3 891.3,342.7 892.2,341.5 893.1,341.0 894.1,342.2 895.0,341.2 895.9,340.3 896.8,342.4 897.8,341.6 898.7,341.6 899.6,341.4 900.6,341.5 901.5,341.6 902.4,342.3 903.3,342.2 904.3,341.8 905.2,340.9 906.1,342.0 907.0,341.6 908.0,341.8 908.9,342.0 909.8,343.4 910.8,341.9 911.7,345.8 912.6,341.6 913.5,343.4 914.5,341.6 915.4,341.6 916.3,338.9 917.2,339.8 918.2,342.4 919.1,341.6 920.0,342.1 921.0,342.6 921.9,341.8 922.8,343.4 923.7,343.5 924.7,341.6 925.6,342.3 926.5,344.2 927.4,342.3 928.4,343.2 929.3,341.6 930.2,339.8 931.2,349.4 932.1,343.6 933.0,342.0 933.9,343.5 934.9,340.5 935.8,341.5 936.7,342.2 937.7,341.6 938.6,341.2 939.5,349.4 940.4,340.6 941.4,341.5 942.3,343.3 943.2,341.6 944.1,343.5 945.1,342.7 946.0,341.6" fill="none" stroke="#059669" stroke-width="2.2" stroke-linejoin="round" stroke-linecap="round"/>
<polyline points="76.0,208.9 76.9,216.7 77.9,223.4 78.8,228.3 79.7,236.4 80.6,228.3 81.6,223.3 82.5,216.9 83.4,223.4 84.3,223.3 85.3,199.8 86.2,223.4 87.1,224.6 88.1,223.3 89.0,226.2 89.9,227.6 90.8,211.5 91.8,216.7 92.7,236.0 93.6,216.6 94.6,215.8 95.5,199.8 96.4,220.3 97.3,223.2 98.3,223.4 99.2,220.5 100.1,223.3 101.0,213.2 102.0,216.6 102.9,200.1 103.8,199.8 104.8,160.5 105.7,170.2 106.6,170.2 107.5,209.6 108.5,215.8 109.4,209.6 110.3,208.2 111.2,233.3 112.2,241.0 113.1,230.2 114.0,223.3 115.0,223.8 115.9,223.4 116.8,227.6 117.7,220.4 118.7,213.7 119.6,221.6 120.5,214.1 121.4,236.4 122.4,233.9 123.3,228.8 124.2,229.4 125.2,230.2 126.1,223.4 127.0,223.4 127.9,224.4 128.9,227.8 129.8,231.4 130.7,223.4 131.7,236.4 132.6,240.4 133.5,233.6 134.4,244.6 135.4,239.4 136.3,240.4 137.2,238.9 138.1,236.3 139.1,251.7 140.0,206.3 140.9,236.6 141.9,237.6 142.8,234.6 143.7,248.7 144.6,242.6 145.6,246.3 146.5,241.1 147.4,232.3 148.3,233.3 149.3,228.3 150.2,223.5 151.1,229.7 152.1,233.3 153.0,246.2 153.9,238.6 154.8,241.0 155.8,231.4 156.7,230.1 157.6,230.4 158.5,216.6 159.5,239.0 160.4,223.4 161.3,231.9 162.3,231.4 163.2,242.9 164.1,248.9 165.0,223.4 166.0,227.9 166.9,242.4 167.8,237.1 168.8,229.7 169.7,234.8 170.6,236.4 171.5,233.2 172.5,223.4 173.4,223.4 174.3,230.1 175.2,233.2 176.2,241.8 177.1,237.6 178.0,246.3 179.0,230.4 179.9,230.5 180.8,237.1 181.7,236.4 182.7,236.6 183.6,241.3 184.5,240.4 185.4,240.4 186.4,233.2 187.3,200.3 188.2,223.3 189.2,223.4 190.1,216.6 191.0,229.6 191.9,233.3 192.9,231.4 193.8,233.3 194.7,230.8 195.6,236.3 196.6,236.3 197.5,233.3 198.4,230.2 199.4,238.7 200.3,238.8 201.2,237.6 202.1,228.0 203.1,226.9 204.0,237.0 204.9,226.6 205.9,232.3 206.8,231.4 207.7,207.0 208.6,223.4 209.6,223.3 210.5,223.3 211.4,225.0 212.3,223.4 213.3,236.4 214.2,236.4 215.1,231.9 216.1,230.2 217.0,235.6 217.9,236.3 218.8,236.7 219.8,251.5 220.7,233.3 221.6,233.3 222.5,241.1 223.5,241.0 224.4,233.3 225.3,232.1 226.3,225.6 227.2,223.4 228.1,241.1 229.0,223.4 230.0,199.8 230.9,231.6 231.8,233.2 232.7,223.4 233.7,228.7 234.6,233.2 235.5,236.4 236.5,233.2 237.4,232.7 238.3,233.7 239.2,223.4 240.2,238.3 241.1,233.9 242.0,223.4 243.0,232.6 243.9,238.6 244.8,240.5 245.7,247.9 246.7,224.1 247.6,223.3 248.5,224.5 249.4,234.8 250.4,247.0 251.3,227.7 252.2,223.2 253.2,223.4 254.1,225.2 255.0,222.7 255.9,229.5 256.9,223.4 257.8,228.1 258.7,212.0 259.6,223.2 260.6,160.5 261.5,171.2 262.4,200.0 263.4,210.4 264.3,201.6 265.2,223.4 266.1,232.3 267.1,227.9 268.0,226.7 268.9,216.8 269.8,216.6 270.8,223.4 271.7,200.0 272.6,227.0 273.6,199.8 274.5,199.8 275.4,223.4 276.3,210.4 277.3,217.0 278.2,224.4 279.1,223.4 280.1,224.5 281.0,224.1 281.9,226.6 282.8,223.4 283.8,233.2 284.7,208.9 285.6,221.6 286.5,233.3 287.5,232.1 288.4,223.3 289.3,228.3 290.3,230.2 291.2,223.4 292.1,202.6 293.0,220.4 294.0,223.2 294.9,257.5 295.8,219.7 296.7,214.4 297.7,240.0 298.6,215.3 299.5,228.3 300.5,233.5 301.4,241.1 302.3,240.7 303.2,233.2 304.2,233.2 305.1,227.4 306.0,223.4 306.9,240.4 307.9,231.6 308.8,230.9 309.7,218.4 310.7,210.8 311.6,228.0 312.5,182.3 313.4,231.0 314.4,214.8 315.3,222.1 316.2,223.4 317.2,227.6 318.1,214.7 319.0,240.7 319.9,215.1 320.9,221.5 321.8,199.7 322.7,197.1 323.6,195.3 324.6,216.6 325.5,210.6 326.4,223.4 327.4,170.2 328.3,220.5 329.2,205.1 330.1,205.7 331.1,199.8 332.0,221.7 332.9,228.0 333.8,223.4 334.8,168.9 335.7,223.3 336.6,231.5 337.6,223.2 338.5,223.4 339.4,176.3 340.3,200.3 341.3,226.2 342.2,231.6 343.1,223.4 344.0,209.8 345.0,233.3 345.9,232.6 346.8,224.4 347.8,223.4 348.7,220.4 349.6,230.2 350.5,223.3 351.5,251.8 352.4,231.2 353.3,231.4 354.3,230.2 355.2,233.1 356.1,233.1 357.0,224.5 358.0,223.2 358.9,223.3 359.8,223.3 360.7,223.3 361.7,214.8 362.6,223.4 363.5,214.7 364.5,213.3 365.4,223.3 366.3,233.1 367.2,214.9 368.2,223.3 369.1,219.0 370.0,209.6 370.9,200.3 371.9,215.1 372.8,223.3 373.7,215.1 374.7,232.5 375.6,223.3 376.5,205.7 377.4,207.1 378.4,223.3 379.3,223.4 380.2,223.3 381.1,233.2 382.1,223.4 383.0,234.8 383.9,223.2 384.9,223.0 385.8,223.4 386.7,223.9 387.6,231.2 388.6,248.1 389.5,233.3 390.4,235.7 391.4,239.4 392.3,233.2 393.2,229.7 394.1,215.5 395.1,231.7 396.0,233.2 396.9,233.2 397.8,233.1 398.8,228.3 399.7,225.3 400.6,231.2 401.6,240.6 402.5,220.4 403.4,223.3 404.3,223.4 405.3,228.4 406.2,226.3 407.1,226.6 408.0,210.1 409.0,213.3 409.9,220.4 410.8,226.5 411.8,213.9 412.7,223.3 413.6,215.7 414.5,224.2 415.5,233.2 416.4,170.2 417.3,199.8 418.2,223.3 419.2,200.5 420.1,212.4 421.0,214.7 422.0,233.1 422.9,221.6 423.8,228.3 424.7,223.3 425.7,215.7 426.6,212.4 427.5,200.0 428.5,192.4 429.4,194.7 430.3,208.9 431.2,200.0 432.2,215.1 433.1,228.0 434.0,213.3 434.9,233.3 435.9,223.1 436.8,222.6 437.7,223.4 438.7,219.0 439.6,223.2 440.5,240.4 441.4,226.2 442.4,231.5 443.3,233.2 444.2,226.7 445.1,233.2 446.1,236.3 447.0,240.4 447.9,223.5 448.9,224.2 449.8,223.4 450.7,233.2 451.6,227.8 452.6,223.4 453.5,231.7 454.4,226.6 455.3,92.4 456.3,215.1 457.2,223.3 458.1,213.8 459.1,231.5 460.0,230.2 460.9,223.4 461.8,223.4 462.8,223.3 463.7,220.4 464.6,223.2 465.6,233.2 466.5,238.4 467.4,233.2 468.3,231.7 469.3,213.9 470.2,223.4 471.1,223.3 472.0,238.0 473.0,232.3 473.9,217.1 474.8,212.6 475.8,230.2 476.7,226.8 477.6,230.5 478.5,233.4 479.5,200.3 480.4,233.3 481.3,233.3 482.2,216.7 483.2,220.5 484.1,228.0 485.0,220.3 486.0,219.8 486.9,226.9 487.8,231.9 488.7,233.0 489.7,223.3 490.6,237.7 491.5,240.3 492.4,225.0 493.4,236.6 494.3,223.3 495.2,227.9 496.2,211.9 497.1,214.8 498.0,214.8 498.9,223.3 499.9,223.3 500.8,217.0 501.7,234.2 502.7,224.1 503.6,231.5 504.5,223.4 505.4,223.4 506.4,236.6 507.3,216.9 508.2,233.6 509.1,224.5 510.1,236.6 511.0,223.3 511.9,231.8 512.9,231.4 513.8,223.3 514.7,168.8 515.6,223.3 516.6,224.5 517.5,224.6 518.4,226.7 519.3,223.4 520.3,223.3 521.2,239.7 522.1,223.4 523.1,230.2 524.0,223.4 524.9,228.4 525.8,226.6 526.8,238.6 527.7,232.1 528.6,236.6 529.6,236.3 530.5,232.3 531.4,236.4 532.3,233.6 533.3,240.4 534.2,223.4 535.1,241.1 536.0,212.7 537.0,225.1 537.9,205.7 538.8,213.8 539.8,223.4 540.7,201.9 541.6,223.3 542.5,223.1 543.5,223.4 544.4,231.5 545.3,223.4 546.2,236.3 547.2,223.4 548.1,226.9 549.0,222.4 550.0,223.4 550.9,234.7 551.8,235.8 552.7,200.3 553.7,230.5 554.6,230.2 555.5,235.3 556.4,230.2 557.4,232.1 558.3,216.6 559.2,232.6 560.2,212.7 561.1,230.1 562.0,222.9 562.9,219.7 563.9,225.0 564.8,223.4 565.7,223.4 566.7,219.7 567.6,229.3 568.5,196.0 569.4,220.2 570.4,212.0 571.3,231.5 572.2,170.2 573.1,230.2 574.1,199.8 575.0,220.0 575.9,216.7 576.9,210.0 577.8,215.8 578.7,239.5 579.6,231.5 580.6,223.3 581.5,227.9 582.4,223.3 583.3,209.9 584.3,223.4 585.2,207.1 586.1,223.3 587.1,200.0 588.0,199.8 588.9,201.8 589.8,223.4 590.8,235.0 591.7,223.4 592.6,216.6 593.5,230.6 594.5,231.6 595.4,219.9 596.3,223.3 597.3,214.8 598.2,231.3 599.1,230.2 600.0,231.4 601.0,236.4 601.9,240.4 602.8,229.4 603.8,228.0 604.7,218.7 605.6,227.7 606.5,227.9 607.5,204.0 608.4,220.5 609.3,215.5 610.2,226.7 611.2,224.4 612.1,225.1 613.0,232.1 614.0,231.5 614.9,223.4 615.8,229.2 616.7,236.3 617.7,223.7 618.6,237.1 619.5,225.0 620.4,231.4 621.4,236.4 622.3,236.3 623.2,233.4 624.2,237.6 625.1,212.1 626.0,228.0 626.9,233.2 627.9,222.8 628.8,223.2 629.7,222.2 630.6,222.3 631.6,215.1 632.5,223.4 633.4,172.5 634.4,210.3 635.3,223.3 636.2,214.0 637.1,217.9 638.1,231.6 639.0,215.8 639.9,214.9 640.9,232.2 641.8,222.0 642.7,227.8 643.6,223.3 644.6,223.3 645.5,230.1 646.4,220.4 647.3,211.4 648.3,208.2 649.2,232.6 650.1,223.1 651.1,224.4 652.0,218.9 652.9,223.2 653.8,211.8 654.8,228.8 655.7,223.6 656.6,223.3 657.5,233.2 658.5,229.9 659.4,223.3 660.3,236.3 661.3,223.7 662.2,223.4 663.1,236.8 664.0,214.9 665.0,230.2 665.9,227.6 666.8,234.1 667.7,223.7 668.7,225.3 669.6,222.3 670.5,223.4 671.5,224.5 672.4,223.4 673.3,218.4 674.2,208.6 675.2,195.0 676.1,224.5 677.0,212.1 678.0,229.2 678.9,223.3 679.8,223.4 680.7,199.9 681.7,208.3 682.6,223.4 683.5,217.7 684.4,220.4 685.4,223.4 686.3,189.0 687.2,215.4 688.2,223.4 689.1,230.2 690.0,224.4 690.9,233.2 691.9,219.1 692.8,216.6 693.7,233.2 694.6,198.6 695.6,223.3 696.5,223.6 697.4,216.6 698.4,223.3 699.3,223.4 700.2,223.4 701.1,221.2 702.1,215.8 703.0,200.2 703.9,183.2 704.8,223.4 705.8,223.7 706.7,200.5 707.6,227.0 708.6,226.5 709.5,241.1 710.4,239.9 711.3,237.3 712.3,236.6 713.2,192.0 714.1,244.7 715.1,208.6 716.0,233.3 716.9,241.0 717.8,240.2 718.8,223.5 719.7,174.1 720.6,223.3 721.5,194.8 722.5,229.1 723.4,236.2 724.3,241.0 725.3,220.4 726.2,228.2 727.1,256.0 728.0,170.2 729.0,200.3 729.9,256.2 730.8,223.4 731.7,226.2 732.7,223.3 733.6,236.7 734.5,223.3 735.5,230.2 736.4,216.6 737.3,181.2 738.2,223.4 739.2,204.6 740.1,210.1 741.0,208.6 741.9,200.0 742.9,223.8 743.8,227.4 744.7,243.2 745.7,213.2 746.6,240.6 747.5,224.6 748.4,231.9 749.4,230.1 750.3,241.0 751.2,229.3 752.2,237.6 753.1,247.8 754.0,245.3 754.9,252.0 755.9,236.3 756.8,238.6 757.7,240.9 758.6,199.5 759.6,194.9 760.5,224.5 761.4,218.0 762.4,223.5 763.3,216.6 764.2,216.7 765.1,233.2 766.1,236.3 767.0,237.1 767.9,245.8 768.8,238.2 769.8,237.1 770.7,230.8 771.6,207.1 772.6,236.3 773.5,233.2 774.4,240.9 775.3,213.1 776.3,223.4 777.2,236.4 778.1,227.7 779.0,224.6 780.0,230.2 780.9,214.8 781.8,222.2 782.8,216.8 783.7,223.3 784.6,229.9 785.5,224.9 786.5,227.8 787.4,257.6 788.3,230.2 789.3,236.7 790.2,235.8 791.1,223.4 792.0,231.8 793.0,223.4 793.9,223.3 794.8,211.7 795.7,242.1 796.7,225.6 797.6,200.2 798.5,220.4 799.5,223.3 800.4,223.4 801.3,214.7 802.2,233.5 803.2,223.3 804.1,238.6 805.0,223.3 805.9,241.1 806.9,240.4 807.8,223.4 808.7,225.0 809.7,198.4 810.6,237.3 811.5,299.1 812.4,332.3 813.4,333.7 814.3,330.9 815.2,331.5 816.1,256.7 817.1,327.6 818.0,327.7 818.9,331.7 819.9,333.7 820.8,332.3 821.7,331.6 822.6,322.4 823.6,331.5 824.5,332.9 825.4,331.0 826.4,328.4 827.3,333.2 828.2,329.7 829.1,329.7 830.1,329.6 831.0,330.4 831.9,331.5 832.8,327.6 833.8,331.5 834.7,329.1 835.6,327.7 836.6,330.3 837.5,328.4 838.4,331.3 839.3,335.3 840.3,331.5 841.2,330.0 842.1,331.5 843.0,330.0 844.0,331.6 844.9,327.6 845.8,329.0 846.8,330.0 847.7,328.8 848.6,326.0 849.5,327.7 850.5,327.5 851.4,329.2 852.3,328.1 853.2,327.6 854.2,329.0 855.1,331.5 856.0,327.6 857.0,329.6 857.9,328.9 858.8,331.5 859.7,331.5 860.7,330.1 861.6,322.8 862.5,329.3 863.5,331.5 864.4,331.8 865.3,331.3 866.2,329.1 867.2,331.5 868.1,332.5 869.0,325.5 869.9,325.9 870.9,328.4 871.8,324.7 872.7,330.2 873.7,327.0 874.6,328.8 875.5,329.0 876.4,327.6 877.4,326.7 878.3,331.4 879.2,326.1 880.1,332.9 881.1,327.7 882.0,323.0 882.9,325.8 883.9,322.4 884.8,317.8 885.7,322.7 886.6,322.8 887.6,322.7 888.5,326.8 889.4,322.8 890.3,323.1 891.3,325.0 892.2,322.8 893.1,322.0 894.1,325.5 895.0,322.4 895.9,322.0 896.8,322.8 897.8,322.6 898.7,322.4 899.6,322.4 900.6,322.4 901.5,322.4 902.4,322.7 903.3,322.7 904.3,322.8 905.2,321.8 906.1,322.0 907.0,322.4 908.0,322.0 908.9,322.4 909.8,322.7 910.8,322.4 911.7,327.6 912.6,322.0 913.5,322.8 914.5,322.0 915.4,322.0 916.3,322.4 917.2,321.0 918.2,322.8 919.1,322.8 920.0,322.8 921.0,322.4 921.9,322.8 922.8,322.0 923.7,322.8 924.7,322.6 925.6,322.4 926.5,328.8 927.4,323.2 928.4,322.8 929.3,322.3 930.2,322.7 931.2,327.6 932.1,323.0 933.0,322.7 933.9,327.7 934.9,317.8 935.8,322.8 936.7,322.4 937.7,322.0 938.6,322.4 939.5,326.9 940.4,322.8 941.4,322.4 942.3,322.9 943.2,321.7 944.1,322.6 945.1,322.9 946.0,321.4" fill="none" stroke="#d97706" stroke-width="2.2" stroke-linejoin="round" stroke-linecap="round"/>
<line x1="76" y1="70" x2="94" y2="70" stroke="#2563eb" stroke-width="3"/>
<text x="100" y="74" font-family="Arial, sans-serif" font-size="11" fill="#0f172a">avg fee</text>
<line x1="179" y1="70" x2="197" y2="70" stroke="#059669" stroke-width="3"/>
<text x="203" y="74" font-family="Arial, sans-serif" font-size="11" fill="#0f172a">median fee</text>
<line x1="303" y1="70" x2="321" y2="70" stroke="#d97706" stroke-width="3"/>
<text x="327" y="74" font-family="Arial, sans-serif" font-size="11" fill="#0f172a">p90 fee</text>
<text x="28" y="404" font-family="Arial, sans-serif" font-size="11" fill="#64748b">Source: hourly_features.csv</text>
</svg>