<svg xmlns="http://www.w3.org/2000/svg" width="980" height="420" viewBox="0 0 980 420">
<rect width="100%" height="100%" fill="#ffffff"/>
<text x="28" y="34" font-family="Arial, sans-serif" font-size="20" font-weight="700" fill="#0f172a">Hourly fee trend</text>
<text x="28" y="56" font-family="Arial, sans-serif" font-size="12" fill="#64748b">Average, median, and p90 total fee by hour</text>
<line x1="76" y1="362.0" x2="946" y2="362.0" stroke="#e2e8f0" stroke-width="1"/>
<text x="68" y="366.0" font-family="Arial, sans-serif" font-size="10" text-anchor="end" fill="#64748b">-382K</text>
<line x1="76" y1="292.0" x2="946" y2="292.0" stroke="#e2e8f0" stroke-width="1"/>
<text x="68" y="296.0" font-family="Arial, sans-serif" font-size="10" text-anchor="end" fill="#64748b">2.6M</text>
<line x1="76" y1="222.0" x2="946" y2="222.0" stroke="#e2e8f0" stroke-width="1"/>
<text x="68" y="226.0" font-family="Arial, sans-serif" font-size="10" text-anchor="end" fill="#64748b">5.7M</text>
<line x1="76" y1="152.0" x2="946" y2="152.0" stroke="#e2e8f0" stroke-width="1"/>
<text x="68" y="156.0" font-family="Arial, sans-serif" font-size="10" text-anchor="end" fill="#64748b">8.7M</text>
<line x1="76" y1="82.0" x2="946" y2="82.0" stroke="#e2e8f0" stroke-width="1"/>
<text x="68" y="86.0" font-family="Arial, sans-serif" font-size="10" text-anchor="end" fill="#64748b">11.7M</text>
<line x1="76" y1="362" x2="946" y2="362" stroke="#334155" stroke-width="1"/>
<line x1="76" y1="82" x2="76" y2="362" stroke="#334155" stroke-width="1"/>
<text x="76" y="72" font-family="Arial, sans-serif" font-size="11" fill="#64748b">nanoton</text>
<line x1="76.0" y1="362" x2="76.0" y2="366" stroke="#334155" stroke-width="1"/>
<text x="76.0" y="380" font-family="Arial, sans-serif" font-size="10" text-anchor="middle" fill="#64748b">0</text>
<line x1="511.0" y1="362" x2="511.0" y2="366" stroke="#334155" stroke-width="1"/>
<text x="511.0" y="380" font-family="Arial, sans-serif" font-size="10" text-anchor="middle" fill="#64748b">422</text>
<line x1="946.0" y1="362" x2="946.0" y2="366" stroke="#334155" stroke-width="1"/>
<text x="946.0" y="380" font-family="Arial, sans-serif" font-size="10" text-anchor="middle" fill="#64748b">844</text>
<polyline points="76.0,290.8 77.0,294.6 78.1,296.0 79.1,298.1 80.1,304.8 81.2,297.2 82.2,298.2 83.2,294.6 84.2,299.0 85.3,298.7 86.3,287.8 87.3,299.5 88.4,299.7 89.4,297.4 90.4,300.3 91.5,300.5 92.5,292.5 93.5,292.5 94.6,301.3 95.6,291.1 96.6,289.2 97.6,287.3 98.7,293.8 99.7,294.2 100.7,296.1 101.8,292.1 102.8,297.7 103.8,290.6 104.9,293.2 105.9,288.3 106.9,289.0 108.0,273.1 109.0,284.7 110.0,285.3 111.0,294.6 112.1,299.9 113.1,292.9 114.1,294.9 115.2,304.7 116.2,307.5 117.2,302.1 118.3,297.0 119.3,298.7 120.3,297.9 121.4,304.4 122.4,297.4 123.4,294.5 124.4,296.5 125.5,298.7 126.5,303.1 127.5,303.1 128.6,301.9 129.6,300.3 130.6,303.3 131.7,302.2 132.7,299.4 133.7,299.1 134.8,302.8 135.8,299.1 136.8,301.3 137.8,306.8 138.9,308.7 139.9,306.4 140.9,307.1 142.0,309.1 143.0,305.9 144.0,305.5 145.1,302.0 146.1,308.5 147.1,290.7 148.2,306.4 149.2,306.4 150.2,306.3 151.2,311.2 152.3,307.1 153.3,310.3 154.3,309.1 155.4,305.5 156.4,305.4 157.4,303.2 158.5,303.5 159.5,301.3 160.5,305.1 161.6,307.4 162.6,306.9 163.6,308.1 164.6,305.0 165.7,302.9 166.7,302.7 167.7,298.6 168.8,304.9 169.8,297.0 170.8,299.3 171.9,300.3 172.9,303.9 173.9,311.6 175.0,300.1 176.0,300.5 177.0,308.9 178.0,307.5 179.1,300.3 180.1,304.2 181.1,305.1 182.2,302.6 183.2,300.5 184.2,297.4 185.3,298.7 186.3,301.9 187.3,308.1 188.4,307.4 189.4,307.4 190.4,303.1 191.5,301.9 192.5,304.1 193.5,303.9 194.5,304.0 195.6,308.3 196.6,308.9 197.6,307.3 198.7,301.1 199.7,286.9 200.7,301.6 201.8,298.8 202.8,296.1 203.8,299.6 204.9,305.5 205.9,301.5 206.9,304.9 207.9,302.2 209.0,304.9 210.0,306.8 211.0,304.9 212.1,300.8 213.1,304.8 214.1,308.0 215.2,302.4 216.2,301.7 217.2,303.1 218.3,303.4 219.3,298.9 220.3,298.5 221.3,298.0 222.4,289.4 223.4,296.9 224.4,296.4 225.5,295.5 226.5,299.6 227.5,299.0 228.6,304.6 229.6,304.0 230.6,303.8 231.7,299.2 232.7,301.2 233.7,305.7 234.7,304.5 235.8,312.1 236.8,305.7 237.8,304.3 238.9,307.0 239.9,306.9 240.9,301.9 242.0,303.8 243.0,300.8 244.0,301.6 245.1,300.2 246.1,298.7 247.1,290.6 248.1,296.1 249.2,300.6 250.2,296.6 251.2,302.7 252.3,302.6 253.3,303.0 254.3,302.7 255.4,302.8 256.4,303.7 257.4,300.1 258.5,305.6 259.5,303.0 260.5,299.2 261.5,302.8 262.6,306.7 263.6,306.1 264.6,306.7 265.7,298.5 266.7,301.6 267.7,297.8 268.8,303.8 269.8,300.2 270.8,299.5 271.9,295.6 272.9,298.2 273.9,298.4 274.9,293.8 276.0,299.9 277.0,297.9 278.0,298.6 279.1,294.2 280.1,297.8 281.1,278.0 282.2,284.2 283.2,295.2 284.2,295.7 285.3,294.4 286.3,300.7 287.3,304.3 288.3,302.4 289.4,302.1 290.4,297.9 291.4,295.3 292.5,296.5 293.5,291.4 294.5,292.0 295.6,290.6 296.6,290.0 297.6,299.7 298.7,291.9 299.7,296.8 300.7,299.8 301.7,303.8 302.8,302.5 303.8,302.1 304.8,302.3 305.9,300.8 306.9,303.5 307.9,295.9 309.0,297.8 310.0,304.4 311.0,304.2 312.1,299.5 313.1,303.9 314.1,303.5 315.1,299.0 316.2,288.7 317.2,293.7 318.2,294.2 319.3,303.7 320.3,295.6 321.3,297.0 322.4,305.6 323.4,294.8 324.4,300.5 325.5,305.1 326.5,308.5 327.5,305.5 328.5,304.0 329.6,300.7 330.6,303.8 331.6,299.3 332.7,303.0 333.7,305.0 334.7,303.0 335.8,299.3 336.8,294.4 337.8,299.9 338.9,286.2 339.9,302.1 340.9,293.9 341.9,297.9 343.0,299.5 344.0,297.4 345.0,294.4 346.1,310.4 347.1,291.6 348.1,295.6 349.2,281.6 350.2,294.6 351.2,293.2 352.3,295.0 353.3,291.0 354.3,301.0 355.3,279.9 356.4,297.2 357.4,291.8 358.4,291.5 359.5,283.3 360.5,298.3 361.5,300.4 362.6,298.6 363.6,288.4 364.6,299.0 365.7,304.4 366.7,297.7 367.7,295.5 368.7,279.8 369.8,284.2 370.8,300.5 371.8,299.9 372.9,298.1 373.9,293.4 374.9,303.1 376.0,303.0 377.0,298.6 378.0,296.8 379.1,297.4 380.1,301.3 381.1,298.1 382.1,311.4 383.2,299.4 384.2,303.5 385.2,301.2 386.3,302.9 387.3,304.3 388.3,297.8 389.4,294.4 390.4,299.3 391.4,295.1 392.5,301.8 393.5,292.6 394.5,297.6 395.5,293.9 396.6,290.0 397.6,295.1 398.6,304.6 399.7,291.1 400.7,300.3 401.7,295.9 402.8,293.1 403.8,291.6 404.8,296.8 405.9,297.1 406.9,297.9 407.9,299.5 409.0,292.8 410.0,286.2 411.0,290.1 412.0,300.0 413.1,294.5 414.1,300.9 415.1,303.0 416.2,299.1 417.2,302.5 418.2,295.1 419.3,297.0 420.3,302.8 421.3,301.7 422.4,303.0 423.4,308.6 424.4,306.8 425.4,306.1 426.5,306.5 427.5,304.3 428.5,304.5 429.6,298.3 430.6,301.1 431.6,303.1 432.7,303.3 433.7,304.2 434.7,302.4 435.8,299.4 436.8,304.5 437.8,307.1 438.8,297.3 439.9,298.9 440.9,298.1 441.9,299.7 443.0,297.8 444.0,301.0 445.0,287.2 446.1,294.3 447.1,294.8 448.1,298.6 449.2,291.3 450.2,298.4 451.2,294.6 452.2,298.7 453.3,304.2 454.3,282.2 455.3,289.8 456.4,298.8 457.4,295.1 458.4,293.4 459.5,294.7 460.5,304.3 461.5,296.9 462.6,301.7 463.6,296.7 464.6,295.6 465.6,292.9 466.7,291.6 467.7,286.7 468.7,287.8 469.8,294.2 470.8,292.6 471.8,297.5 472.9,303.1 473.9,296.8 474.9,304.1 476.0,298.7 477.0,297.8 478.0,299.3 479.0,297.1 480.1,296.6 481.1,305.5 482.1,301.9 483.2,304.5 484.2,302.9 485.2,303.4 486.3,302.7 487.3,304.5 488.3,301.7 489.4,300.0 490.4,297.3 491.4,295.0 492.4,305.0 493.5,302.7 494.5,303.7 495.5,302.8 496.6,298.5 497.6,257.0 498.6,291.0 499.7,298.5 500.7,296.3 501.7,301.0 502.8,301.6 503.8,299.9 504.8,299.3 505.8,299.6 506.9,296.0 507.9,299.4 508.9,305.6 510.0,306.5 511.0,300.9 512.0,302.7 513.1,295.0 514.1,302.2 515.1,296.9 516.2,304.8 517.2,299.1 518.2,295.6 519.2,295.1 520.3,300.9 521.3,301.0 522.3,300.7 523.4,304.5 524.4,292.6 525.4,303.5 526.5,306.0 527.5,295.5 528.5,297.4 529.6,302.8 530.6,295.8 531.6,299.5 532.6,304.0 533.7,301.7 534.7,303.8 535.7,300.8 536.8,306.1 537.8,305.6 538.8,300.8 539.9,303.2 540.9,297.1 541.9,300.2 543.0,292.3 544.0,292.0 545.0,292.1 546.0,299.3 547.1,298.5 548.1,298.8 549.1,301.5 550.2,299.6 551.2,305.3 552.2,300.2 553.3,300.6 554.3,304.7 555.3,299.2 556.4,304.4 557.4,299.7 558.4,306.4 559.4,299.1 560.5,304.5 561.5,303.3 562.5,298.0 563.6,263.7 564.6,302.9 565.6,304.6 566.7,301.3 567.7,300.8 568.7,298.3 569.8,299.9 570.8,302.7 571.8,298.6 572.8,304.0 573.9,302.8 574.9,303.0 575.9,301.1 577.0,308.3 578.0,304.5 579.0,309.0 580.1,304.5 581.1,303.7 582.1,304.9 583.2,303.6 584.2,305.3 585.2,299.5 586.2,305.2 587.3,297.1 588.3,302.2 589.3,288.1 590.4,294.6 591.4,299.7 592.4,287.4 593.5,299.0 594.5,298.4 595.5,296.8 596.6,301.1 597.6,299.5 598.6,302.6 599.6,299.3 600.7,303.0 601.7,298.0 602.7,301.6 603.8,305.3 604.8,304.5 605.8,290.4 606.9,303.1 607.9,299.6 608.9,302.4 610.0,303.1 611.0,304.7 612.0,296.3 613.0,301.7 614.1,292.9 615.1,298.2 616.1,294.8 617.2,293.5 618.2,299.4 619.2,297.4 620.3,300.4 621.3,295.6 622.3,301.5 623.4,282.6 624.4,297.4 625.4,291.2 626.5,300.8 627.5,281.3 628.5,303.6 629.5,292.1 630.6,296.5 631.6,300.9 632.6,293.9 633.7,295.3 634.7,305.2 635.7,304.7 636.8,300.3 637.8,302.0 638.8,297.5 639.9,295.0 640.9,296.6 641.9,292.7 642.9,298.7 644.0,291.1 645.0,289.9 646.0,292.8 647.1,302.6 648.1,303.5 649.1,301.6 650.2,297.5 651.2,303.0 652.2,302.5 653.3,299.3 654.3,300.0 655.3,295.7 656.3,300.6 657.4,302.5 658.4,302.2 659.4,300.7 660.5,305.4 661.5,305.1 662.5,301.0 663.6,294.2 664.6,301.0 665.6,298.9 666.7,290.4 667.7,295.9 668.7,294.1 669.7,301.3 670.8,298.2 671.8,299.2 672.8,302.6 673.9,300.9 674.9,299.2 675.9,302.7 677.0,303.6 678.0,299.5 679.0,304.4 680.1,298.2 681.1,302.7 682.1,304.9 683.1,303.3 684.2,303.8 685.2,305.7 686.2,294.6 687.3,306.7 688.3,303.7 689.3,295.1 690.4,294.1 691.4,293.7 692.4,295.9 693.5,295.9 694.5,298.1 695.5,284.7 696.5,294.9 697.6,298.6 698.6,296.3 699.6,294.2 700.7,300.6 701.7,294.3 702.7,295.9 703.8,303.8 704.8,295.8 705.8,302.6 706.9,297.7 707.9,300.0 708.9,300.7 709.9,298.3 711.0,294.8 712.0,295.8 713.0,303.0 714.1,295.6 715.1,296.0 716.1,295.2 717.2,295.3 718.2,295.0 719.2,299.9 720.3,299.0 721.3,295.9 722.3,303.3 723.3,302.9 724.4,298.2 725.4,305.5 726.4,300.9 727.5,300.4 728.5,305.2 729.5,295.8 730.6,301.8 731.6,303.2 732.6,304.6 733.7,299.1 734.7,301.0 735.7,298.0 736.7,298.8 737.8,297.3 738.8,300.8 739.8,296.0 740.9,293.0 741.9,284.2 742.9,298.8 744.0,293.9 745.0,298.9 746.0,298.8 747.1,298.0 748.1,291.0 749.1,292.3 750.1,298.2 751.2,297.5 752.2,297.5 753.2,298.5 754.3,288.2 755.3,296.5 756.3,297.3 757.4,301.7 758.4,301.0 759.4,305.4 760.5,295.8 761.5,295.1 762.5,299.8 763.5,289.6 764.6,296.7 765.6,295.1 766.6,295.1 767.7,294.8 768.7,297.5 769.7,299.5 770.8,295.8 771.8,297.0 772.8,291.7 773.9,285.1 774.9,299.7 775.9,301.0 776.9,293.6 778.0,302.3 779.0,297.5 780.0,307.7 781.1,292.5 782.1,304.9 783.1,304.1 784.2,291.9 785.2,305.2 786.2,297.8 787.3,298.1 788.3,307.4 789.3,305.4 790.3,294.0 791.4,284.5 792.4,295.7 793.4,281.6 794.5,295.8 795.5,307.1 796.5,303.5 797.6,299.2 798.6,301.5 799.6,309.0 800.7,287.8 801.7,293.3 802.7,314.3 803.7,300.8 804.8,304.2 805.8,299.2 806.8,305.4 807.9,297.5 808.9,303.5 809.9,297.3 811.0,286.2 812.0,295.6 813.0,293.4 814.1,295.3 815.1,292.6 816.1,295.0 817.1,297.5 818.2,303.2 819.2,307.8 820.2,295.2 821.3,306.6 822.3,305.0 823.3,305.4 824.4,303.1 825.4,297.4 826.4,293.5 827.5,305.0 828.5,310.4 829.5,306.6 830.5,309.4 831.6,304.0 832.6,307.8 833.6,308.2 834.7,299.0 835.7,288.2 836.7,297.1 837.8,298.1 838.8,298.6 839.8,298.7 840.9,295.2 841.9,305.8 842.9,307.8 844.0,304.4 845.0,309.3 846.0,306.7 847.0,303.2 848.1,303.6 849.1,296.5 850.1,304.1 851.2,305.5 852.2,308.2 853.2,291.8 854.3,301.9 855.3,305.3 856.3,302.2 857.4,300.9 858.4,302.7 859.4,295.0 860.4,295.0 861.5,295.3 862.5,299.1 863.5,299.0 864.6,300.9 865.6,304.6 866.6,307.3 867.7,303.1 868.7,300.9 869.7,303.0 870.8,290.9 871.8,301.1 872.8,301.9 873.8,302.0 874.9,295.6 875.9,306.6 876.9,304.1 878.0,288.8 879.0,297.4 880.0,295.3 881.1,295.7 882.1,296.1 883.1,306.3 884.2,300.3 885.2,304.9 886.2,295.7 887.2,303.6 888.3,305.1 889.3,302.6 890.3,301.6 891.4,285.2 892.4,304.3 893.4,334.7 894.5,343.7 895.5,343.8 896.5,343.5 897.6,344.0 898.6,319.0 899.6,342.3 900.6,343.1 901.7,342.6 902.7,343.4 903.7,343.4 904.8,343.4 905.8,338.9 906.8,343.5 907.9,344.5 908.9,342.7 909.9,342.0 911.0,343.8 912.0,343.0 913.0,343.2 914.0,340.3 915.1,342.7 916.1,343.4 917.1,342.2 918.2,343.9 919.2,341.8 920.2,341.2 921.3,342.8 922.3,342.4 923.3,343.3 924.4,344.8 925.4,343.7 926.4,343.3 927.4,344.0 928.5,342.7 929.5,343.5 930.5,341.8 931.6,340.1 932.6,342.3 933.6,342.4 934.7,339.6 935.7,341.5 936.7,340.5 937.8,343.1 938.8,341.6 939.8,340.5 940.8,342.3 941.9,342.5 942.9,342.2 943.9,343.0 945.0,342.6 946.0,344.4" fill="none" stroke="#2563eb" stroke-width="2.2" stroke-linejoin="round" stroke-linecap="round"/>
<polyline points="76.0,311.4 77.0,324.9 78.1,334.1 79.1,334.5 80.1,335.0 81.2,334.6 82.2,334.4 83.2,330.8 84.2,334.6 85.3,334.6 86.3,320.5 87.3,334.6 88.4,334.2 89.4,330.7 90.4,334.4 91.5,333.8 92.5,321.1 93.5,330.5 94.6,332.4 95.6,310.6 96.6,302.9 97.6,305.9 98.7,320.5 99.7,315.5 100.7,310.4 101.8,329.8 102.8,333.4 103.8,312.5 104.9,335.0 105.9,319.0 106.9,330.5 108.0,283.8 109.0,300.4 110.0,303.3 111.0,308.3 112.1,331.3 113.1,312.5 114.1,310.6 115.2,334.9 116.2,335.0 117.2,329.7 118.3,310.6 119.3,310.6 120.3,312.5 121.4,340.8 122.4,334.9 123.4,308.9 124.4,310.3 125.5,334.9 126.5,335.3 127.5,334.2 128.6,333.4 129.6,333.9 130.6,334.6 131.7,331.5 132.7,334.6 133.7,330.9 134.8,334.3 135.8,334.6 136.8,334.2 137.8,335.0 138.9,334.9 139.9,334.9 140.9,344.0 142.0,335.8 143.0,334.9 144.0,334.9 145.1,330.7 146.1,344.0 147.1,335.6 148.2,336.2 149.2,336.2 150.2,335.0 151.2,338.1 152.3,336.2 153.3,336.1 154.3,335.1 155.4,335.0 156.4,335.0 157.4,334.5 158.5,335.0 159.5,334.6 160.5,334.6 161.6,335.0 162.6,335.0 163.6,335.0 164.6,334.3 165.7,334.9 166.7,334.9 167.7,330.7 168.8,334.7 169.8,312.2 170.8,329.6 171.9,331.1 172.9,333.8 173.9,344.0 175.0,330.6 176.0,333.8 177.0,335.0 178.0,336.2 179.1,334.7 180.1,334.7 181.1,334.8 182.2,334.6 183.2,331.0 184.2,330.5 185.3,331.5 186.3,333.0 187.3,335.0 188.4,334.9 189.4,334.9 190.4,334.1 191.5,334.9 192.5,334.9 193.5,331.5 194.5,332.3 195.6,336.2 196.6,344.0 197.6,336.1 198.7,335.0 199.7,310.1 200.7,334.9 201.8,334.5 202.8,334.7 203.8,333.8 204.9,334.9 205.9,334.0 206.9,334.9 207.9,334.9 209.0,334.9 210.0,335.0 211.0,334.7 212.1,333.2 213.1,334.9 214.1,335.0 215.2,335.0 216.2,334.1 217.2,334.2 218.3,330.3 219.3,310.6 220.3,298.7 221.3,309.8 222.4,304.4 223.4,310.2 224.4,310.1 225.5,327.6 226.5,333.0 227.5,333.8 228.6,333.8 229.6,334.9 230.6,334.9 231.7,333.8 232.7,334.7 233.7,334.7 234.7,334.6 235.8,344.0 236.8,334.9 237.8,334.9 238.9,335.0 239.9,335.0 240.9,333.8 242.0,334.4 243.0,330.9 244.0,319.7 245.1,298.7 246.1,334.1 247.1,326.9 248.1,334.7 249.2,331.8 250.2,331.8 251.2,331.4 252.3,334.7 253.3,334.4 254.3,334.6 255.4,334.6 256.4,330.7 257.4,330.7 258.5,334.9 259.5,334.4 260.5,331.0 261.5,334.6 262.6,335.0 263.6,334.6 264.6,334.9 265.7,330.5 266.7,334.3 267.7,315.6 268.8,334.6 269.8,298.7 270.8,334.0 271.9,329.7 272.9,332.6 273.9,331.8 274.9,310.6 276.0,331.8 277.0,332.3 278.0,334.6 279.1,323.8 280.1,334.0 281.1,295.8 282.2,298.7 283.2,327.1 284.2,331.1 285.3,330.7 286.3,332.3 287.3,334.6 288.3,334.7 289.4,334.1 290.4,324.8 291.4,315.1 292.5,308.6 293.5,305.4 294.5,298.7 295.6,306.5 296.6,305.4 297.6,331.7 298.7,305.5 299.7,317.0 300.7,333.4 301.7,335.0 302.8,334.1 303.8,335.0 304.8,334.9 305.9,333.7 306.9,335.0 307.9,319.7 309.0,319.7 310.0,334.1 311.0,333.8 312.1,333.4 313.1,334.7 314.1,334.6 315.1,331.3 316.2,305.4 317.2,308.2 318.2,308.3 319.3,298.7 320.3,310.2 321.3,335.5 322.4,336.2 323.4,312.5 324.4,334.5 325.5,336.2 326.5,335.9 327.5,336.2 328.5,335.0 329.6,333.8 330.6,334.3 331.6,334.4 332.7,333.5 333.7,334.6 334.7,334.4 335.8,329.6 336.8,308.9 337.8,334.1 338.9,308.2 339.9,334.4 340.9,310.7 341.9,310.3 343.0,325.1 344.0,305.5 345.0,319.7 346.1,344.0 347.1,315.6 348.1,334.2 349.2,308.2 350.2,309.9 351.2,330.0 352.3,334.1 353.3,335.0 354.3,333.2 355.3,323.8 356.4,333.8 357.4,308.2 358.4,306.1 359.5,323.8 360.5,315.6 361.5,333.4 362.6,332.6 363.6,303.2 364.6,334.1 365.7,334.7 366.7,326.5 367.7,333.8 368.7,320.8 369.8,333.7 370.8,333.7 371.8,334.1 372.9,330.7 373.9,331.8 374.9,333.7 376.0,334.6 377.0,333.8 378.0,333.0 379.1,310.6 380.1,334.7 381.1,330.7 382.1,345.9 383.2,333.8 384.2,334.7 385.2,333.7 386.3,334.7 387.3,334.7 388.3,310.6 389.4,315.4 390.4,332.0 391.4,310.5 392.5,331.7 393.5,305.3 394.5,330.5 395.5,326.9 396.6,302.2 397.6,309.7 398.6,335.9 399.7,333.4 400.7,334.9 401.7,334.4 402.8,306.5 403.8,306.5 404.8,318.3 405.9,320.1 406.9,323.6 407.9,331.8 409.0,310.6 410.0,305.4 411.0,308.2 412.0,331.8 413.1,305.2 414.1,330.5 415.1,334.1 416.2,326.7 417.2,330.7 418.2,305.4 419.3,308.2 420.3,333.8 421.3,334.1 422.4,335.0 423.4,340.8 424.4,336.2 425.4,336.1 426.5,335.0 427.5,336.2 428.5,335.8 429.6,333.8 430.6,334.4 431.6,335.0 432.7,334.8 433.7,334.9 434.7,334.6 435.8,331.8 436.8,334.5 437.8,335.0 438.8,329.1 439.9,330.7 440.9,325.8 441.9,325.3 443.0,308.2 444.0,333.5 445.0,308.4 446.1,310.3 447.1,330.5 448.1,319.6 449.2,308.3 450.2,334.6 451.2,318.7 452.2,335.8 453.3,335.0 454.3,297.6 455.3,305.3 456.4,325.3 457.4,325.7 458.4,318.9 459.5,310.3 460.5,334.9 461.5,321.4 462.6,334.2 463.6,331.5 464.6,329.7 465.6,309.6 466.7,308.4 467.7,298.7 468.7,302.7 469.8,305.5 470.8,309.0 471.8,331.8 472.9,334.0 473.9,329.6 474.9,334.7 476.0,333.8 477.0,335.0 478.0,334.0 479.0,334.0 480.1,325.3 481.1,334.9 482.1,334.5 483.2,334.6 484.2,334.7 485.2,334.7 486.3,334.7 487.3,334.6 488.3,334.1 489.4,326.9 490.4,326.6 491.4,305.4 492.4,343.0 493.5,335.3 494.5,344.0 495.5,335.0 496.6,329.1 497.6,301.0 498.6,334.2 499.7,334.1 500.7,315.6 501.7,335.0 502.8,334.1 503.8,334.6 504.8,333.6 505.8,330.5 506.9,330.4 507.9,333.8 508.9,335.0 510.0,335.0 511.0,333.2 512.0,334.4 513.1,310.5 514.1,332.0 515.1,310.1 516.2,332.7 517.2,305.4 518.2,309.8 519.2,310.6 520.3,330.0 521.3,333.8 522.3,332.4 523.4,335.3 524.4,318.3 525.4,334.7 526.5,336.2 527.5,331.4 528.5,325.8 529.6,334.6 530.6,331.3 531.6,331.8 532.6,334.7 533.7,334.5 534.7,333.8 535.7,330.7 536.8,334.9 537.8,334.8 538.8,331.8 539.9,333.2 540.9,310.7 541.9,330.5 543.0,308.2 544.0,308.4 545.0,305.4 546.0,330.4 547.1,326.9 548.1,330.4 549.1,334.9 550.2,331.5 551.2,335.0 552.2,334.6 553.3,334.1 554.3,334.9 555.3,334.7 556.4,335.0 557.4,333.8 558.4,335.0 559.4,333.3 560.5,334.6 561.5,335.0 562.5,332.7 563.6,283.6 564.6,333.8 565.6,335.0 566.7,319.3 567.7,331.1 568.7,329.7 569.8,331.8 570.8,334.1 571.8,334.6 572.8,334.9 573.9,334.7 574.9,334.6 575.9,334.8 577.0,335.0 578.0,334.9 579.0,335.0 580.1,334.9 581.1,334.7 582.1,334.9 583.2,335.0 584.2,334.7 585.2,334.1 586.2,335.7 587.3,334.1 588.3,334.4 589.3,305.3 590.4,319.6 591.4,309.3 592.4,300.7 593.5,310.4 594.5,330.5 595.5,310.6 596.6,330.5 597.6,333.0 598.6,334.7 599.6,333.8 600.7,334.1 601.7,330.9 602.7,334.7 603.8,334.9 604.8,334.9 605.8,305.4 606.9,334.4 607.9,331.0 608.9,335.0 610.0,333.8 611.0,335.0 612.0,333.8 613.0,334.9 614.1,310.6 615.1,334.3 616.1,306.4 617.2,308.4 618.2,333.8 619.2,330.9 620.3,334.1 621.3,329.7 622.3,334.3 623.4,305.3 624.4,330.7 625.4,328.8 626.5,333.8 627.5,295.8 628.5,334.6 629.5,310.6 630.6,310.6 631.6,333.8 632.6,318.4 633.7,318.5 634.7,334.2 635.7,334.9 636.8,334.1 637.8,334.1 638.8,330.4 639.9,308.2 640.9,308.2 641.9,310.2 642.9,333.8 644.0,310.6 645.0,310.4 646.0,327.3 647.1,332.0 648.1,335.0 649.1,334.6 650.2,334.0 651.2,334.6 652.2,334.5 653.3,330.7 654.3,333.5 655.3,331.5 656.3,334.6 657.4,334.1 658.4,333.8 659.4,330.7 660.5,334.7 661.5,334.9 662.5,332.0 663.6,307.0 664.6,326.1 665.6,305.4 666.7,306.4 667.7,309.0 668.7,306.4 669.7,334.6 670.8,327.0 671.8,333.8 672.8,333.2 673.9,334.1 674.9,335.0 675.9,334.6 677.0,333.9 678.0,333.8 679.0,334.7 680.1,330.7 681.1,331.8 682.1,334.9 683.1,334.1 684.2,334.6 685.2,334.9 686.2,327.5 687.3,335.0 688.3,333.6 689.3,319.7 690.4,302.9 691.4,310.1 692.4,327.5 693.5,326.8 694.5,323.6 695.5,298.7 696.5,310.6 697.6,331.1 698.6,330.7 699.6,334.6 700.7,324.6 701.7,323.8 702.7,330.4 703.8,333.8 704.8,330.7 705.8,334.6 706.9,323.9 707.9,333.2 708.9,334.1 709.9,325.7 711.0,309.1 712.0,315.6 713.0,333.8 714.1,308.5 715.1,306.5 716.1,308.2 717.2,310.2 718.2,312.5 719.2,331.0 720.3,331.9 721.3,317.9 722.3,334.6 723.3,335.0 724.4,335.0 725.4,335.0 726.4,334.6 727.5,333.8 728.5,334.9 729.5,330.4 730.6,334.3 731.6,334.6 732.6,334.2 733.7,333.8 734.7,335.0 735.7,330.7 736.7,333.8 737.8,315.5 738.8,330.7 739.8,305.4 740.9,324.4 741.9,306.5 742.9,331.8 744.0,308.9 745.0,333.8 746.0,333.8 747.1,331.2 748.1,310.7 749.1,333.8 750.1,330.0 751.2,327.2 752.2,323.8 753.2,330.0 754.3,305.0 755.3,312.5 756.3,333.8 757.4,332.0 758.4,329.7 759.4,333.8 760.5,322.8 761.5,308.3 762.5,310.4 763.5,305.2 764.6,305.4 765.6,308.2 766.6,310.7 767.7,310.1 768.7,319.6 769.7,325.7 770.8,330.8 771.8,330.9 772.8,305.4 773.9,305.2 774.9,333.8 775.9,331.0 776.9,305.4 778.0,334.7 779.0,308.3 780.0,334.1 781.1,334.7 782.1,332.8 783.1,332.9 784.2,308.2 785.2,335.0 786.2,330.4 787.3,310.4 788.3,330.0 789.3,326.8 790.3,305.9 791.4,306.4 792.4,323.8 793.4,296.7 794.5,334.1 795.5,335.0 796.5,335.0 797.6,331.5 798.6,334.7 799.6,335.0 800.7,304.3 801.7,308.2 802.7,335.0 803.7,331.8 804.8,334.5 805.8,331.2 806.8,334.7 807.9,331.8 808.9,321.5 809.9,334.9 811.0,331.9 812.0,310.4 813.0,308.3 814.1,305.4 815.1,305.9 816.1,305.7 817.1,324.6 818.2,330.7 819.2,334.5 820.2,331.6 821.3,335.0 822.3,335.0 823.3,335.0 824.4,322.4 825.4,334.9 826.4,331.1 827.5,335.0 828.5,344.0 829.5,344.0 830.5,344.0 831.6,334.6 832.6,335.0 833.6,335.0 834.7,334.4 835.7,311.6 836.7,308.9 837.8,308.2 838.8,308.1 839.8,330.4 840.9,308.6 841.9,337.4 842.9,335.0 844.0,335.0 845.0,335.0 846.0,331.8 847.0,332.0 848.1,334.1 849.1,330.5 850.1,334.6 851.2,335.0 852.2,334.9 853.2,312.5 854.3,333.8 855.3,332.0 856.3,333.8 857.4,331.7 858.4,331.0 859.4,310.7 860.4,308.6 861.5,314.0 862.5,327.1 863.5,304.8 864.6,340.8 865.6,341.6 866.6,335.0 867.7,334.6 868.7,334.6 869.7,324.6 870.8,317.8 871.8,346.0 872.8,334.6 873.8,334.9 874.9,317.9 875.9,344.0 876.9,334.0 878.0,321.8 879.0,332.8 880.0,325.5 881.1,333.8 882.1,313.7 883.1,334.6 884.2,328.5 885.2,331.2 886.2,305.4 887.2,331.0 888.3,310.0 889.3,331.4 890.3,330.2 891.4,290.8 892.4,335.0 893.4,347.8 894.5,350.1 895.5,349.5 896.5,346.1 897.6,349.4 898.6,341.0 899.6,346.4 900.6,349.3 901.7,344.7 902.7,345.1 903.7,349.2 904.8,349.4 905.8,343.5 906.8,350.0 907.9,350.1 908.9,347.6 909.9,344.9 911.0,349.2 912.0,345.2 913.0,344.1 914.0,344.7 915.1,345.7 916.1,346.1 917.1,345.7 918.2,349.5 919.2,345.1 920.2,349.4 921.3,348.7 922.3,346.1 923.3,345.8 924.4,351.6 925.4,348.3 926.4,345.7 927.4,349.9 928.5,344.7 929.5,346.4 930.5,345.2 931.6,343.4 932.6,345.2 933.6,346.1 934.7,342.1 935.7,343.4 936.7,343.5 937.8,345.2 938.8,345.2 939.8,344.0 940.8,345.2 941.9,345.4 942.9,345.3 943.9,344.8 945.0,345.8 946.0,350.1" fill="none" stroke="#059669" stroke-width="2.2" stroke-linejoin="round" stroke-linecap="round"/>
<polyline points="76.0,208.9 77.0,216.7 78.1,223.4 79.1,228.3 80.1,236.4 81.2,228.3 82.2,223.3 83.2,216.9 84.2,223.4 85.3,223.3 86.3,199.8 87.3,223.4 88.4,224.6 89.4,223.3 90.4,226.2 91.5,227.6 92.5,211.5 93.5,216.7 94.6,236.0 95.6,216.6 96.6,215.8 97.6,199.8 98.7,220.3 99.7,223.2 100.7,223.4 101.8,220.5 102.8,223.3 103.8,213.2 104.9,216.6 105.9,200.1 106.9,199.8 108.0,160.5 109.0,170.2 110.0,170.2 111.0,209.6 112.1,215.8 113.1,209.6 114.1,208.2 115.2,233.3 116.2,241.0 117.2,230.2 118.3,223.3 119.3,223.8 120.3,223.4 121.4,227.6 122.4,220.4 123.4,213.7 124.4,221.6 125.5,214.1 126.5,236.4 127.5,233.9 128.6,228.8 129.6,229.4 130.6,230.2 131.7,223.4 132.7,223.4 133.7,224.4 134.8,227.8 135.8,231.4 136.8,223.4 137.8,236.4 138.9,240.4 139.9,233.6 140.9,244.6 142.0,239.4 143.0,240.4 144.0,238.9 145.1,236.3 146.1,251.7 147.1,206.3 148.2,236.6 149.2,237.6 150.2,234.6 151.2,248.7 152.3,242.6 153.3,246.3 154.3,241.1 155.4,232.3 156.4,233.3 157.4,228.3 158.5,223.5 159.5,229.7 160.5,233.3 161.6,246.2 162.6,238.6 163.6,241.0 164.6,231.4 165.7,230.1 166.7,230.4 167.7,216.6 168.8,239.0 169.8,223.4 170.8,231.9 171.9,231.4 172.9,242.9 173.9,248.9 175.0,223.4 176.0,227.9 177.0,242.4 178.0,237.1 179.1,229.7 180.1,234.8 181.1,236.4 182.2,233.2 183.2,223.4 184.2,223.4 185.3,230.1 186.3,233.2 187.3,241.8 188.4,237.6 189.4,246.3 190.4,230.4 191.5,230.5 192.5,237.1 193.5,236.4 194.5,236.6 195.6,241.3 196.6,240.4 197.6,240.4 198.7,233.2 199.7,200.3 200.7,223.3 201.8,223.4 202.8,216.6 203.8,229.6 204.9,233.3 205.9,231.4 206.9,233.3 207.9,230.8 209.0,236.3 210.0,236.3 211.0,233.3 212.1,230.2 213.1,238.7 214.1,238.8 215.2,237.6 216.2,228.0 217.2,226.9 218.3,237.0 219.3,226.6 220.3,232.3 221.3,231.4 222.4,207.0 223.4,223.4 224.4,223.3 225.5,223.3 226.5,225.0 227.5,223.4 228.6,236.4 229.6,236.4 230.6,231.9 231.7,230.2 232.7,235.6 233.7,236.3 234.7,236.7 235.8,251.5 236.8,233.3 237.8,233.3 238.9,241.1 239.9,241.0 240.9,233.3 242.0,232.1 243.0,225.6 244.0,223.4 245.1,241.1 246.1,223.4 247.1,199.8 248.1,231.6 249.2,233.2 250.2,223.4 251.2,228.7 252.3,233.2 253.3,236.4 254.3,233.2 255.4,232.7 256.4,233.7 257.4,223.4 258.5,238.3 259.5,233.9 260.5,223.4 261.5,232.6 262.6,238.6 263.6,240.5 264.6,247.9 265.7,224.1 266.7,223.3 267.7,224.5 268.8,234.8 269.8,247.0 270.8,227.7 271.9,223.2 272.9,223.4 273.9,225.2 274.9,222.7 276.0,229.5 277.0,223.4 278.0,228.1 279.1,212.0 280.1,223.2 281.1,160.5 282.2,171.2 283.2,200.0 284.2,210.4 285.3,201.6 286.3,223.4 287.3,232.3 288.3,227.9 289.4,226.7 290.4,216.8 291.4,216.6 292.5,223.4 293.5,200.0 294.5,227.0 295.6,199.8 296.6,199.8 297.6,223.4 298.7,210.4 299.7,217.0 300.7,224.4 301.7,223.4 302.8,224.5 303.8,224.1 304.8,226.6 305.9,223.4 306.9,233.2 307.9,208.9 309.0,221.6 310.0,233.3 311.0,232.1 312.1,223.3 313.1,228.3 314.1,230.2 315.1,223.4 316.2,202.6 317.2,220.4 318.2,223.2 319.3,257.5 320.3,219.7 321.3,214.4 322.4,240.0 323.4,215.3 324.4,228.3 325.5,233.5 326.5,241.1 327.5,240.7 328.5,233.2 329.6,233.2 330.6,227.4 331.6,223.4 332.7,240.4 333.7,231.6 334.7,230.9 335.8,218.4 336.8,210.8 337.8,228.0 338.9,182.3 339.9,231.0 340.9,214.8 341.9,222.1 343.0,223.4 344.0,227.6 345.0,214.7 346.1,240.7 347.1,215.1 348.1,221.5 349.2,199.7 350.2,197.1 351.2,195.3 352.3,216.6 353.3,210.6 354.3,223.4 355.3,170.2 356.4,220.5 357.4,205.1 358.4,205.7 359.5,199.8 360.5,221.7 361.5,228.0 362.6,223.4 363.6,168.9 364.6,223.3 365.7,231.5 366.7,223.2 367.7,223.4 368.7,176.3 369.8,200.3 370.8,226.2 371.8,231.6 372.9,223.4 373.9,209.8 374.9,233.3 376.0,232.6 377.0,224.4 378.0,223.4 379.1,220.4 380.1,230.2 381.1,223.3 382.1,251.8 383.2,231.2 384.2,231.4 385.2,230.2 386.3,233.1 387.3,233.1 388.3,224.5 389.4,223.2 390.4,223.3 391.4,223.3 392.5,223.3 393.5,214.8 394.5,223.4 395.5,214.7 396.6,213.3 397.6,223.3 398.6,233.1 399.7,214.9 400.7,223.3 401.7,219.0 402.8,209.6 403.8,200.3 404.8,215.1 405.9,223.3 406.9,215.1 407.9,232.5 409.0,223.3 410.0,205.7 411.0,207.1 412.0,223.3 413.1,223.4 414.1,223.3 415.1,233.2 416.2,223.4 417.2,234.8 418.2,223.2 419.3,223.0 420.3,223.4 421.3,223.9 422.4,231.2 423.4,248.1 424.4,233.3 425.4,235.7 426.5,239.4 427.5,233.2 428.5,229.7 429.6,215.5 430.6,231.7 431.6,233.2 432.7,233.2 433.7,233.1 434.7,228.3 435.8,225.3 436.8,231.2 437.8,240.6 438.8,220.4 439.9,223.3 440.9,223.4 441.9,228.4 443.0,226.3 444.0,226.6 445.0,210.1 446.1,213.3 447.1,220.4 448.1,226.5 449.2,213.9 450.2,223.3 451.2,215.7 452.2,224.2 453.3,233.2 454.3,170.2 455.3,199.8 456.4,223.3 457.4,200.5 458.4,212.4 459.5,214.7 460.5,233.1 461.5,221.6 462.6,228.3 463.6,223.3 464.6,215.7 465.6,212.4 466.7,200.0 467.7,192.4 468.7,194.7 469.8,208.9 470.8,200.0 471.8,215.1 472.9,228.0 473.9,213.3 474.9,233.3 476.0,223.1 477.0,222.6 478.0,223.4 479.0,219.0 480.1,223.2 481.1,240.4 482.1,226.2 483.2,231.5 484.2,233.2 485.2,226.7 486.3,233.2 487.3,236.3 488.3,240.4 489.4,223.5 490.4,224.2 491.4,223.4 492.4,233.2 493.5,227.8 494.5,223.4 495.5,231.7 496.6,226.6 497.6,92.4 498.6,215.1 499.7,223.3 500.7,213.8 501.7,231.5 502.8,230.2 503.8,223.4 504.8,223.4 505.8,223.3 506.9,220.4 507.9,223.2 508.9,233.2 510.0,238.4 511.0,233.2 512.0,231.7 513.1,213.9 514.1,223.4 515.1,223.3 516.2,238.0 517.2,232.3 518.2,217.1 519.2,212.6 520.3,230.2 521.3,226.8 522.3,230.5 523.4,233.4 524.4,200.3 525.4,233.3 526.5,233.3 527.5,216.7 528.5,220.5 529.6,228.0 530.6,220.3 531.6,219.8 532.6,226.9 533.7,231.9 534.7,233.0 535.7,223.3 536.8,237.7 537.8,240.3 538.8,225.0 539.9,236.6 540.9,223.3 541.9,227.9 543.0,211.9 544.0,214.8 545.0,214.8 546.0,223.3 547.1,223.3 548.1,217.0 549.1,234.2 550.2,224.1 551.2,231.5 552.2,223.4 553.3,223.4 554.3,236.6 555.3,216.9 556.4,233.6 557.4,224.5 558.4,236.6 559.4,223.3 560.5,231.8 561.5,231.4 562.5,223.3 563.6,168.8 564.6,223.3 565.6,224.5 566.7,224.6 567.7,226.7 568.7,223.4 569.8,223.3 570.8,239.7 571.8,223.4 572.8,230.2 573.9,223.4 574.9,228.4 575.9,226.6 577.0,238.6 578.0,232.1 579.0,236.6 580.1,236.3 581.1,232.3 582.1,236.4 583.2,233.6 584.2,240.4 585.2,223.4 586.2,241.1 587.3,212.7 588.3,225.1 589.3,205.7 590.4,213.8 591.4,223.4 592.4,201.9 593.5,223.3 594.5,223.1 595.5,223.4 596.6,231.5 597.6,223.4 598.6,236.3 599.6,223.4 600.7,226.9 601.7,222.4 602.7,223.4 603.8,234.7 604.8,235.8 605.8,200.3 606.9,230.5 607.9,230.2 608.9,235.3 610.0,230.2 611.0,232.1 612.0,216.6 613.0,232.6 614.1,212.7 615.1,230.1 616.1,222.9 617.2,219.7 618.2,225.0 619.2,223.4 620.3,223.4 621.3,219.7 622.3,229.3 623.4,196.0 624.4,220.2 625.4,212.0 626.5,231.5 627.5,170.2 628.5,230.2 629.5,199.8 630.6,220.0 631.6,216.7 632.6,210.0 633.7,215.8 634.7,239.5 635.7,231.5 636.8,223.3 637.8,227.9 638.8,223.3 639.9,209.9 640.9,223.4 641.9,207.1 642.9,223.3 644.0,200.0 645.0,199.8 646.0,201.8 647.1,223.4 648.1,235.0 649.1,223.4 650.2,216.6 651.2,230.6 652.2,231.6 653.3,219.9 654.3,223.3 655.3,214.8 656.3,231.3 657.4,230.2 658.4,231.4 659.4,236.4 660.5,240.4 661.5,229.4 662.5,228.0 663.6,218.7 664.6,227.7 665.6,227.9 666.7,204.0 667.7,220.5 668.7,215.5 669.7,226.7 670.8,224.4 671.8,225.1 672.8,232.1 673.9,231.5 674.9,223.4 675.9,229.2 677.0,236.3 678.0,223.7 679.0,237.1 680.1,225.0 681.1,231.4 682.1,236.4 683.1,236.3 684.2,233.4 685.2,237.6 686.2,212.1 687.3,228.0 688.3,233.2 689.3,222.8 690.4,223.2 691.4,222.2 692.4,222.3 693.5,215.1 694.5,223.4 695.5,172.5 696.5,210.3 697.6,223.3 698.6,214.0 699.6,217.9 700.7,231.6 701.7,215.8 702.7,214.9 703.8,232.2 704.8,222.0 705.8,227.8 706.9,223.3 707.9,223.3 708.9,230.1 709.9,220.4 711.0,211.4 712.0,208.2 713.0,232.6 714.1,223.1 715.1,224.4 716.1,218.9 717.2,223.2 718.2,211.8 719.2,228.8 720.3,223.6 721.3,223.3 722.3,233.2 723.3,229.9 724.4,223.3 725.4,236.3 726.4,223.7 727.5,223.4 728.5,236.8 729.5,214.9 730.6,230.2 731.6,227.6 732.6,234.1 733.7,223.7 734.7,225.3 735.7,222.3 736.7,223.4 737.8,224.5 738.8,223.4 739.8,218.4 740.9,208.6 741.9,195.0 742.9,224.5 744.0,212.1 745.0,229.2 746.0,223.3 747.1,223.4 748.1,199.9 749.1,208.3 750.1,223.4 751.2,217.7 752.2,220.4 753.2,223.4 754.3,189.0 755.3,215.4 756.3,223.4 757.4,230.2 758.4,224.4 759.4,233.2 760.5,219.1 761.5,216.6 762.5,233.2 763.5,198.6 764.6,223.3 765.6,223.6 766.6,216.6 767.7,223.3 768.7,223.4 769.7,223.4 770.8,221.2 771.8,215.8 772.8,200.2 773.9,183.2 774.9,223.4 775.9,223.7 776.9,200.5 778.0,227.0 779.0,226.5 780.0,241.1 781.1,239.9 782.1,237.3 783.1,236.6 784.2,192.0 785.2,244.7 786.2,208.6 787.3,233.3 788.3,241.0 789.3,240.2 790.3,223.5 791.4,174.1 792.4,223.3 793.4,194.8 794.5,229.1 795.5,236.2 796.5,241.0 797.6,220.4 798.6,228.2 799.6,256.0 800.7,170.2 801.7,200.3 802.7,256.2 803.7,223.4 804.8,226.2 805.8,223.3 806.8,236.7 807.9,223.3 808.9,230.2 809.9,216.6 811.0,181.2 812.0,223.4 813.0,204.6 814.1,210.1 815.1,208.6 816.1,200.0 817.1,223.8 818.2,227.4 819.2,243.2 820.2,213.2 821.3,240.6 822.3,224.6 823.3,231.9 824.4,230.1 825.4,241.0 826.4,229.3 827.5,237.6 828.5,247.8 829.5,245.3 830.5,252.0 831.6,236.3 832.6,238.6 833.6,240.9 834.7,199.5 835.7,194.9 836.7,224.5 837.8,218.0 838.8,223.5 839.8,216.6 840.9,216.7 841.9,233.2 842.9,236.3 844.0,237.1 845.0,245.8 846.0,238.2 847.0,237.1 848.1,230.8 849.1,207.1 850.1,236.3 851.2,233.2 852.2,240.9 853.2,213.1 854.3,223.4 855.3,236.4 856.3,227.7 857.4,224.6 858.4,230.2 859.4,214.8 860.4,222.2 861.5,216.8 862.5,223.3 863.5,229.9 864.6,224.9 865.6,227.8 866.6,257.6 867.7,230.2 868.7,236.7 869.7,235.8 870.8,223.4 871.8,231.8 872.8,223.4 873.8,223.3 874.9,211.7 875.9,242.1 876.9,225.6 878.0,200.2 879.0,220.4 880.0,223.3 881.1,223.4 882.1,214.7 883.1,233.5 884.2,223.3 885.2,238.6 886.2,223.3 887.2,241.1 888.3,240.4 889.3,223.4 890.3,225.0 891.4,198.4 892.4,237.3 893.4,299.1 894.5,332.3 895.5,333.7 896.5,330.9 897.6,331.5 898.6,256.7 899.6,327.6 900.6,327.7 901.7,331.7 902.7,333.7 903.7,332.3 904.8,331.6 905.8,322.4 906.8,331.5 907.9,332.9 908.9,331.0 909.9,328.4 911.0,333.2 912.0,329.7 913.0,329.7 914.0,329.6 915.1,330.4 916.1,331.5 917.1,327.6 918.2,331.5 919.2,329.1 920.2,327.7 921.3,330.3 922.3,328.4 923.3,331.3 924.4,335.3 925.4,331.5 926.4,330.0 927.4,331.5 928.5,330.0 929.5,331.6 930.5,327.6 931.6,329.0 932.6,330.0 933.6,328.8 934.7,326.0 935.7,327.7 936.7,327.5 937.8,329.2 938.8,328.1 939.8,327.6 940.8,329.0 941.9,331.5 942.9,327.6 943.9,329.6 945.0,328.9 946.0,334.5" fill="none" stroke="#d97706" stroke-width="2.2" stroke-linejoin="round" stroke-linecap="round"/>
<line x1="76" y1="70" x2="94" y2="70" stroke="#2563eb" stroke-width="3"/>
<text x="100" y="74" font-family="Arial, sans-serif" font-size="11" fill="#0f172a">avg fee</text>
<line x1="179" y1="70" x2="197" y2="70" stroke="#059669" stroke-width="3"/>
<text x="203" y="74" font-family="Arial, sans-serif" font-size="11" fill="#0f172a">median fee</text>
<line x1="303" y1="70" x2="321" y2="70" stroke="#d97706" stroke-width="3"/>
<text x="327" y="74" font-family="Arial, sans-serif" font-size="11" fill="#0f172a">p90 fee</text>
<text x="28" y="404" font-family="Arial, sans-serif" font-size="11" fill="#64748b">Source: hourly_features.csv</text>
</svg>