<svg xmlns="http://www.w3.org/2000/svg" width="980" height="420" viewBox="0 0 980 420">
<rect width="100%" height="100%" fill="#ffffff"/>
<text x="28" y="34" font-family="Arial, sans-serif" font-size="20" font-weight="700" fill="#0f172a">Hourly fee trend</text>
<text x="28" y="56" font-family="Arial, sans-serif" font-size="12" fill="#64748b">Average, median, and p90 total fee by hour</text>
<line x1="76" y1="362.0" x2="946" y2="362.0" stroke="#e2e8f0" stroke-width="1"/>
<text x="68" y="366.0" font-family="Arial, sans-serif" font-size="10" text-anchor="end" fill="#64748b">-382K</text>
<line x1="76" y1="292.0" x2="946" y2="292.0" stroke="#e2e8f0" stroke-width="1"/>
<text x="68" y="296.0" font-family="Arial, sans-serif" font-size="10" text-anchor="end" fill="#64748b">2.6M</text>
<line x1="76" y1="222.0" x2="946" y2="222.0" stroke="#e2e8f0" stroke-width="1"/>
<text x="68" y="226.0" font-family="Arial, sans-serif" font-size="10" text-anchor="end" fill="#64748b">5.7M</text>
<line x1="76" y1="152.0" x2="946" y2="152.0" stroke="#e2e8f0" stroke-width="1"/>
<text x="68" y="156.0" font-family="Arial, sans-serif" font-size="10" text-anchor="end" fill="#64748b">8.7M</text>
<line x1="76" y1="82.0" x2="946" y2="82.0" stroke="#e2e8f0" stroke-width="1"/>
<text x="68" y="86.0" font-family="Arial, sans-serif" font-size="10" text-anchor="end" fill="#64748b">11.7M</text>
<line x1="76" y1="362" x2="946" y2="362" stroke="#334155" stroke-width="1"/>
<line x1="76" y1="82" x2="76" y2="362" stroke="#334155" stroke-width="1"/>
<text x="76" y="72" font-family="Arial, sans-serif" font-size="11" fill="#64748b">nanoton</text>
<line x1="76.0" y1="362" x2="76.0" y2="366" stroke="#334155" stroke-width="1"/>
<text x="76.0" y="380" font-family="Arial, sans-serif" font-size="10" text-anchor="middle" fill="#64748b">0</text>
<line x1="511.0" y1="362" x2="511.0" y2="366" stroke="#334155" stroke-width="1"/>
<text x="511.0" y="380" font-family="Arial, sans-serif" font-size="10" text-anchor="middle" fill="#64748b">424</text>
<line x1="946.0" y1="362" x2="946.0" y2="366" stroke="#334155" stroke-width="1"/>
<text x="946.0" y="380" font-family="Arial, sans-serif" font-size="10" text-anchor="middle" fill="#64748b">848</text>
<polyline points="76.0,290.8 77.0,294.6 78.1,296.0 79.1,298.1 80.1,304.8 81.1,297.2 82.2,298.2 83.2,294.6 84.2,299.0 85.2,298.7 86.3,287.8 87.3,299.5 88.3,299.7 89.3,297.4 90.4,300.3 91.4,300.5 92.4,292.5 93.4,292.5 94.5,301.3 95.5,291.1 96.5,289.2 97.5,287.3 98.6,293.8 99.6,294.2 100.6,296.1 101.6,292.1 102.7,297.7 103.7,290.6 104.7,293.2 105.8,288.3 106.8,289.0 107.8,273.1 108.8,284.7 109.9,285.3 110.9,294.6 111.9,299.9 112.9,292.9 114.0,294.9 115.0,304.7 116.0,307.5 117.0,302.1 118.1,297.0 119.1,298.7 120.1,297.9 121.1,304.4 122.2,297.4 123.2,294.5 124.2,296.5 125.2,298.7 126.3,303.1 127.3,303.1 128.3,301.9 129.3,300.3 130.4,303.3 131.4,302.2 132.4,299.4 133.5,299.1 134.5,302.8 135.5,299.1 136.5,301.3 137.6,306.8 138.6,308.7 139.6,306.4 140.6,307.1 141.7,309.1 142.7,305.9 143.7,305.5 144.7,302.0 145.8,308.5 146.8,290.7 147.8,306.4 148.8,306.4 149.9,306.3 150.9,311.2 151.9,307.1 152.9,310.3 154.0,309.1 155.0,305.5 156.0,305.4 157.0,303.2 158.1,303.5 159.1,301.3 160.1,305.1 161.2,307.4 162.2,306.9 163.2,308.1 164.2,305.0 165.3,302.9 166.3,302.7 167.3,298.6 168.3,304.9 169.4,297.0 170.4,299.3 171.4,300.3 172.4,303.9 173.5,311.6 174.5,300.1 175.5,300.5 176.5,308.9 177.6,307.5 178.6,300.3 179.6,304.2 180.6,305.1 181.7,302.6 182.7,300.5 183.7,297.4 184.8,298.7 185.8,301.9 186.8,308.1 187.8,307.4 188.9,307.4 189.9,303.1 190.9,301.9 191.9,304.1 193.0,303.9 194.0,304.0 195.0,308.3 196.0,308.9 197.1,307.3 198.1,301.1 199.1,286.9 200.1,301.6 201.2,298.8 202.2,296.1 203.2,299.6 204.2,305.5 205.3,301.5 206.3,304.9 207.3,302.2 208.3,304.9 209.4,306.8 210.4,304.9 211.4,300.8 212.5,304.8 213.5,308.0 214.5,302.4 215.5,301.7 216.6,303.1 217.6,303.4 218.6,298.9 219.6,298.5 220.7,298.0 221.7,289.4 222.7,296.9 223.7,296.4 224.8,295.5 225.8,299.6 226.8,299.0 227.8,304.6 228.9,304.0 229.9,303.8 230.9,299.2 231.9,301.2 233.0,305.7 234.0,304.5 235.0,312.1 236.0,305.7 237.1,304.3 238.1,307.0 239.1,306.9 240.2,301.9 241.2,303.8 242.2,300.8 243.2,301.6 244.3,300.2 245.3,298.7 246.3,290.6 247.3,296.1 248.4,300.6 249.4,296.6 250.4,302.7 251.4,302.6 252.5,303.0 253.5,302.7 254.5,302.8 255.5,303.7 256.6,300.1 257.6,305.6 258.6,303.0 259.6,299.2 260.7,302.8 261.7,306.7 262.7,306.1 263.7,306.7 264.8,298.5 265.8,301.6 266.8,297.8 267.9,303.8 268.9,300.2 269.9,299.5 270.9,295.6 272.0,298.2 273.0,298.4 274.0,293.8 275.0,299.9 276.1,297.9 277.1,298.6 278.1,294.2 279.1,297.8 280.2,278.0 281.2,284.2 282.2,295.2 283.2,295.7 284.3,294.4 285.3,300.7 286.3,304.3 287.3,302.4 288.4,302.1 289.4,297.9 290.4,295.3 291.4,296.5 292.5,291.4 293.5,292.0 294.5,290.6 295.6,290.0 296.6,299.7 297.6,291.9 298.6,296.8 299.7,299.8 300.7,303.8 301.7,302.5 302.7,302.1 303.8,302.3 304.8,300.8 305.8,303.5 306.8,295.9 307.9,297.8 308.9,304.4 309.9,304.2 310.9,299.5 312.0,303.9 313.0,303.5 314.0,299.0 315.0,288.7 316.1,293.7 317.1,294.2 318.1,303.7 319.1,295.6 320.2,297.0 321.2,305.6 322.2,294.8 323.3,300.5 324.3,305.1 325.3,308.5 326.3,305.5 327.4,304.0 328.4,300.7 329.4,303.8 330.4,299.3 331.5,303.0 332.5,305.0 333.5,303.0 334.5,299.3 335.6,294.4 336.6,299.9 337.6,286.2 338.6,302.1 339.7,293.9 340.7,297.9 341.7,299.5 342.7,297.4 343.8,294.4 344.8,310.4 345.8,291.6 346.8,295.6 347.9,281.6 348.9,294.6 349.9,293.2 351.0,295.0 352.0,291.0 353.0,301.0 354.0,279.9 355.1,297.2 356.1,291.8 357.1,291.5 358.1,283.3 359.2,298.3 360.2,300.4 361.2,298.6 362.2,288.4 363.3,299.0 364.3,304.4 365.3,297.7 366.3,295.5 367.4,279.8 368.4,284.2 369.4,300.5 370.4,299.9 371.5,298.1 372.5,293.4 373.5,303.1 374.5,303.0 375.6,298.6 376.6,296.8 377.6,297.4 378.7,301.3 379.7,298.1 380.7,311.4 381.7,299.4 382.8,303.5 383.8,301.2 384.8,302.9 385.8,304.3 386.9,297.8 387.9,294.4 388.9,299.3 389.9,295.1 391.0,301.8 392.0,292.6 393.0,297.6 394.0,293.9 395.1,290.0 396.1,295.1 397.1,304.6 398.1,291.1 399.2,300.3 400.2,295.9 401.2,293.1 402.2,291.6 403.3,296.8 404.3,297.1 405.3,297.9 406.4,299.5 407.4,292.8 408.4,286.2 409.4,290.1 410.5,300.0 411.5,294.5 412.5,300.9 413.5,303.0 414.6,299.1 415.6,302.5 416.6,295.1 417.6,297.0 418.7,302.8 419.7,301.7 420.7,303.0 421.7,308.6 422.8,306.8 423.8,306.1 424.8,306.5 425.8,304.3 426.9,304.5 427.9,298.3 428.9,301.1 430.0,303.1 431.0,303.3 432.0,304.2 433.0,302.4 434.1,299.4 435.1,304.5 436.1,307.1 437.1,297.3 438.2,298.9 439.2,298.1 440.2,299.7 441.2,297.8 442.3,301.0 443.3,287.2 444.3,294.3 445.3,294.8 446.4,298.6 447.4,291.3 448.4,298.4 449.4,294.6 450.5,298.7 451.5,304.2 452.5,282.2 453.5,289.8 454.6,298.8 455.6,295.1 456.6,293.4 457.7,294.7 458.7,304.3 459.7,296.9 460.7,301.7 461.8,296.7 462.8,295.6 463.8,292.9 464.8,291.6 465.9,286.7 466.9,287.8 467.9,294.2 468.9,292.6 470.0,297.5 471.0,303.1 472.0,296.8 473.0,304.1 474.1,298.7 475.1,297.8 476.1,299.3 477.1,297.1 478.2,296.6 479.2,305.5 480.2,301.9 481.2,304.5 482.3,302.9 483.3,303.4 484.3,302.7 485.4,304.5 486.4,301.7 487.4,300.0 488.4,297.3 489.5,295.0 490.5,305.0 491.5,302.7 492.5,303.7 493.6,302.8 494.6,298.5 495.6,257.0 496.6,291.0 497.7,298.5 498.7,296.3 499.7,301.0 500.7,301.6 501.8,299.9 502.8,299.3 503.8,299.6 504.8,296.0 505.9,299.4 506.9,305.6 507.9,306.5 508.9,300.9 510.0,302.7 511.0,295.0 512.0,302.2 513.1,296.9 514.1,304.8 515.1,299.1 516.1,295.6 517.2,295.1 518.2,300.9 519.2,301.0 520.2,300.7 521.3,304.5 522.3,292.6 523.3,303.5 524.3,306.0 525.4,295.5 526.4,297.4 527.4,302.8 528.4,295.8 529.5,299.5 530.5,304.0 531.5,301.7 532.5,303.8 533.6,300.8 534.6,306.1 535.6,305.6 536.6,300.8 537.7,303.2 538.7,297.1 539.7,300.2 540.8,292.3 541.8,292.0 542.8,292.1 543.8,299.3 544.9,298.5 545.9,298.8 546.9,301.5 547.9,299.6 549.0,305.3 550.0,300.2 551.0,300.6 552.0,304.7 553.1,299.2 554.1,304.4 555.1,299.7 556.1,306.4 557.2,299.1 558.2,304.5 559.2,303.3 560.2,298.0 561.3,263.7 562.3,302.9 563.3,304.6 564.3,301.3 565.4,300.8 566.4,298.3 567.4,299.9 568.5,302.7 569.5,298.6 570.5,304.0 571.5,302.8 572.6,303.0 573.6,301.1 574.6,308.3 575.6,304.5 576.7,309.0 577.7,304.5 578.7,303.7 579.7,304.9 580.8,303.6 581.8,305.3 582.8,299.5 583.8,305.2 584.9,297.1 585.9,302.2 586.9,288.1 587.9,294.6 589.0,299.7 590.0,287.4 591.0,299.0 592.0,298.4 593.1,296.8 594.1,301.1 595.1,299.5 596.2,302.6 597.2,299.3 598.2,303.0 599.2,298.0 600.3,301.6 601.3,305.3 602.3,304.5 603.3,290.4 604.4,303.1 605.4,299.6 606.4,302.4 607.4,303.1 608.5,304.7 609.5,296.3 610.5,301.7 611.5,292.9 612.6,298.2 613.6,294.8 614.6,293.5 615.6,299.4 616.7,297.4 617.7,300.4 618.7,295.6 619.8,301.5 620.8,282.6 621.8,297.4 622.8,291.2 623.9,300.8 624.9,281.3 625.9,303.6 626.9,292.1 628.0,296.5 629.0,300.9 630.0,293.9 631.0,295.3 632.1,305.2 633.1,304.7 634.1,300.3 635.1,302.0 636.2,297.5 637.2,295.0 638.2,296.6 639.2,292.7 640.3,298.7 641.3,291.1 642.3,289.9 643.3,292.8 644.4,302.6 645.4,303.5 646.4,301.6 647.5,297.5 648.5,303.0 649.5,302.5 650.5,299.3 651.6,300.0 652.6,295.7 653.6,300.6 654.6,302.5 655.7,302.2 656.7,300.7 657.7,305.4 658.7,305.1 659.8,301.0 660.8,294.2 661.8,301.0 662.8,298.9 663.9,290.4 664.9,295.9 665.9,294.1 666.9,301.3 668.0,298.2 669.0,299.2 670.0,302.6 671.0,300.9 672.1,299.2 673.1,302.7 674.1,303.6 675.2,299.5 676.2,304.4 677.2,298.2 678.2,302.7 679.3,304.9 680.3,303.3 681.3,303.8 682.3,305.7 683.4,294.6 684.4,306.7 685.4,303.7 686.4,295.1 687.5,294.1 688.5,293.7 689.5,295.9 690.5,295.9 691.6,298.1 692.6,284.7 693.6,294.9 694.6,298.6 695.7,296.3 696.7,294.2 697.7,300.6 698.7,294.3 699.8,295.9 700.8,303.8 701.8,295.8 702.9,302.6 703.9,297.7 704.9,300.0 705.9,300.7 707.0,298.3 708.0,294.8 709.0,295.8 710.0,303.0 711.1,295.6 712.1,296.0 713.1,295.2 714.1,295.3 715.2,295.0 716.2,299.9 717.2,299.0 718.2,295.9 719.3,303.3 720.3,302.9 721.3,298.2 722.3,305.5 723.4,300.9 724.4,300.4 725.4,305.2 726.4,295.8 727.5,301.8 728.5,303.2 729.5,304.6 730.6,299.1 731.6,301.0 732.6,298.0 733.6,298.8 734.7,297.3 735.7,300.8 736.7,296.0 737.7,293.0 738.8,284.2 739.8,298.8 740.8,293.9 741.8,298.9 742.9,298.8 743.9,298.0 744.9,291.0 745.9,292.3 747.0,298.2 748.0,297.5 749.0,297.5 750.0,298.5 751.1,288.2 752.1,296.5 753.1,297.3 754.1,301.7 755.2,301.0 756.2,305.4 757.2,295.8 758.3,295.1 759.3,299.8 760.3,289.6 761.3,296.7 762.4,295.1 763.4,295.1 764.4,294.8 765.4,297.5 766.5,299.5 767.5,295.8 768.5,297.0 769.5,291.7 770.6,285.1 771.6,299.7 772.6,301.0 773.6,293.6 774.7,302.3 775.7,297.5 776.7,307.7 777.7,292.5 778.8,304.9 779.8,304.1 780.8,291.9 781.8,305.2 782.9,297.8 783.9,298.1 784.9,307.4 786.0,305.4 787.0,294.0 788.0,284.5 789.0,295.7 790.1,281.6 791.1,295.8 792.1,307.1 793.1,303.5 794.2,299.2 795.2,301.5 796.2,309.0 797.2,287.8 798.3,293.3 799.3,314.3 800.3,300.8 801.3,304.2 802.4,299.2 803.4,305.4 804.4,297.5 805.4,303.5 806.5,297.3 807.5,286.2 808.5,295.6 809.5,293.4 810.6,295.3 811.6,292.6 812.6,295.0 813.7,297.5 814.7,303.2 815.7,307.8 816.7,295.2 817.8,306.6 818.8,305.0 819.8,305.4 820.8,303.1 821.9,297.4 822.9,293.5 823.9,305.0 824.9,310.4 826.0,306.6 827.0,309.4 828.0,304.0 829.0,307.8 830.1,308.2 831.1,299.0 832.1,288.2 833.1,297.1 834.2,298.1 835.2,298.6 836.2,298.7 837.2,295.2 838.3,305.8 839.3,307.8 840.3,304.4 841.4,309.3 842.4,306.7 843.4,303.2 844.4,303.6 845.5,296.5 846.5,304.1 847.5,305.5 848.5,308.2 849.6,291.8 850.6,301.9 851.6,305.3 852.6,302.2 853.7,300.9 854.7,302.7 855.7,295.0 856.7,295.0 857.8,295.3 858.8,299.1 859.8,299.0 860.8,300.9 861.9,304.6 862.9,307.3 863.9,303.1 865.0,300.9 866.0,303.0 867.0,290.9 868.0,301.1 869.1,301.9 870.1,302.0 871.1,295.6 872.1,306.6 873.2,304.1 874.2,288.8 875.2,297.4 876.2,295.3 877.3,295.7 878.3,296.1 879.3,306.3 880.3,300.3 881.4,304.9 882.4,295.7 883.4,303.6 884.4,305.1 885.5,302.6 886.5,301.6 887.5,285.2 888.5,304.3 889.6,334.7 890.6,343.7 891.6,343.8 892.7,343.5 893.7,344.0 894.7,319.0 895.7,342.3 896.8,343.1 897.8,342.6 898.8,343.4 899.8,343.4 900.9,343.4 901.9,338.9 902.9,343.5 903.9,344.5 905.0,342.7 906.0,342.0 907.0,343.8 908.0,343.0 909.1,343.2 910.1,340.3 911.1,342.7 912.1,343.4 913.2,342.2 914.2,343.9 915.2,341.8 916.2,341.2 917.3,342.8 918.3,342.4 919.3,343.3 920.4,344.8 921.4,343.7 922.4,343.3 923.4,344.0 924.5,342.7 925.5,343.5 926.5,341.8 927.5,340.1 928.6,342.3 929.6,342.4 930.6,339.6 931.6,341.5 932.7,340.5 933.7,343.1 934.7,341.6 935.7,340.5 936.8,342.3 937.8,342.5 938.8,342.2 939.8,343.0 940.9,342.6 941.9,342.9 942.9,343.5 943.9,342.4 945.0,340.9 946.0,342.1" fill="none" stroke="#2563eb" stroke-width="2.2" stroke-linejoin="round" stroke-linecap="round"/>
<polyline points="76.0,311.4 77.0,324.9 78.1,334.1 79.1,334.5 80.1,335.0 81.1,334.6 82.2,334.4 83.2,330.8 84.2,334.6 85.2,334.6 86.3,320.5 87.3,334.6 88.3,334.2 89.3,330.7 90.4,334.4 91.4,333.8 92.4,321.1 93.4,330.5 94.5,332.4 95.5,310.6 96.5,302.9 97.5,305.9 98.6,320.5 99.6,315.5 100.6,310.4 101.6,329.8 102.7,333.4 103.7,312.5 104.7,335.0 105.8,319.0 106.8,330.5 107.8,283.8 108.8,300.4 109.9,303.3 110.9,308.3 111.9,331.3 112.9,312.5 114.0,310.6 115.0,334.9 116.0,335.0 117.0,329.7 118.1,310.6 119.1,310.6 120.1,312.5 121.1,340.8 122.2,334.9 123.2,308.9 124.2,310.3 125.2,334.9 126.3,335.3 127.3,334.2 128.3,333.4 129.3,333.9 130.4,334.6 131.4,331.5 132.4,334.6 133.5,330.9 134.5,334.3 135.5,334.6 136.5,334.2 137.6,335.0 138.6,334.9 139.6,334.9 140.6,344.0 141.7,335.8 142.7,334.9 143.7,334.9 144.7,330.7 145.8,344.0 146.8,335.6 147.8,336.2 148.8,336.2 149.9,335.0 150.9,338.1 151.9,336.2 152.9,336.1 154.0,335.1 155.0,335.0 156.0,335.0 157.0,334.5 158.1,335.0 159.1,334.6 160.1,334.6 161.2,335.0 162.2,335.0 163.2,335.0 164.2,334.3 165.3,334.9 166.3,334.9 167.3,330.7 168.3,334.7 169.4,312.2 170.4,329.6 171.4,331.1 172.4,333.8 173.5,344.0 174.5,330.6 175.5,333.8 176.5,335.0 177.6,336.2 178.6,334.7 179.6,334.7 180.6,334.8 181.7,334.6 182.7,331.0 183.7,330.5 184.8,331.5 185.8,333.0 186.8,335.0 187.8,334.9 188.9,334.9 189.9,334.1 190.9,334.9 191.9,334.9 193.0,331.5 194.0,332.3 195.0,336.2 196.0,344.0 197.1,336.1 198.1,335.0 199.1,310.1 200.1,334.9 201.2,334.5 202.2,334.7 203.2,333.8 204.2,334.9 205.3,334.0 206.3,334.9 207.3,334.9 208.3,334.9 209.4,335.0 210.4,334.7 211.4,333.2 212.5,334.9 213.5,335.0 214.5,335.0 215.5,334.1 216.6,334.2 217.6,330.3 218.6,310.6 219.6,298.7 220.7,309.8 221.7,304.4 222.7,310.2 223.7,310.1 224.8,327.6 225.8,333.0 226.8,333.8 227.8,333.8 228.9,334.9 229.9,334.9 230.9,333.8 231.9,334.7 233.0,334.7 234.0,334.6 235.0,344.0 236.0,334.9 237.1,334.9 238.1,335.0 239.1,335.0 240.2,333.8 241.2,334.4 242.2,330.9 243.2,319.7 244.3,298.7 245.3,334.1 246.3,326.9 247.3,334.7 248.4,331.8 249.4,331.8 250.4,331.4 251.4,334.7 252.5,334.4 253.5,334.6 254.5,334.6 255.5,330.7 256.6,330.7 257.6,334.9 258.6,334.4 259.6,331.0 260.7,334.6 261.7,335.0 262.7,334.6 263.7,334.9 264.8,330.5 265.8,334.3 266.8,315.6 267.9,334.6 268.9,298.7 269.9,334.0 270.9,329.7 272.0,332.6 273.0,331.8 274.0,310.6 275.0,331.8 276.1,332.3 277.1,334.6 278.1,323.8 279.1,334.0 280.2,295.8 281.2,298.7 282.2,327.1 283.2,331.1 284.3,330.7 285.3,332.3 286.3,334.6 287.3,334.7 288.4,334.1 289.4,324.8 290.4,315.1 291.4,308.6 292.5,305.4 293.5,298.7 294.5,306.5 295.6,305.4 296.6,331.7 297.6,305.5 298.6,317.0 299.7,333.4 300.7,335.0 301.7,334.1 302.7,335.0 303.8,334.9 304.8,333.7 305.8,335.0 306.8,319.7 307.9,319.7 308.9,334.1 309.9,333.8 310.9,333.4 312.0,334.7 313.0,334.6 314.0,331.3 315.0,305.4 316.1,308.2 317.1,308.3 318.1,298.7 319.1,310.2 320.2,335.5 321.2,336.2 322.2,312.5 323.3,334.5 324.3,336.2 325.3,335.9 326.3,336.2 327.4,335.0 328.4,333.8 329.4,334.3 330.4,334.4 331.5,333.5 332.5,334.6 333.5,334.4 334.5,329.6 335.6,308.9 336.6,334.1 337.6,308.2 338.6,334.4 339.7,310.7 340.7,310.3 341.7,325.1 342.7,305.5 343.8,319.7 344.8,344.0 345.8,315.6 346.8,334.2 347.9,308.2 348.9,309.9 349.9,330.0 351.0,334.1 352.0,335.0 353.0,333.2 354.0,323.8 355.1,333.8 356.1,308.2 357.1,306.1 358.1,323.8 359.2,315.6 360.2,333.4 361.2,332.6 362.2,303.2 363.3,334.1 364.3,334.7 365.3,326.5 366.3,333.8 367.4,320.8 368.4,333.7 369.4,333.7 370.4,334.1 371.5,330.7 372.5,331.8 373.5,333.7 374.5,334.6 375.6,333.8 376.6,333.0 377.6,310.6 378.7,334.7 379.7,330.7 380.7,345.9 381.7,333.8 382.8,334.7 383.8,333.7 384.8,334.7 385.8,334.7 386.9,310.6 387.9,315.4 388.9,332.0 389.9,310.5 391.0,331.7 392.0,305.3 393.0,330.5 394.0,326.9 395.1,302.2 396.1,309.7 397.1,335.9 398.1,333.4 399.2,334.9 400.2,334.4 401.2,306.5 402.2,306.5 403.3,318.3 404.3,320.1 405.3,323.6 406.4,331.8 407.4,310.6 408.4,305.4 409.4,308.2 410.5,331.8 411.5,305.2 412.5,330.5 413.5,334.1 414.6,326.7 415.6,330.7 416.6,305.4 417.6,308.2 418.7,333.8 419.7,334.1 420.7,335.0 421.7,340.8 422.8,336.2 423.8,336.1 424.8,335.0 425.8,336.2 426.9,335.8 427.9,333.8 428.9,334.4 430.0,335.0 431.0,334.8 432.0,334.9 433.0,334.6 434.1,331.8 435.1,334.5 436.1,335.0 437.1,329.1 438.2,330.7 439.2,325.8 440.2,325.3 441.2,308.2 442.3,333.5 443.3,308.4 444.3,310.3 445.3,330.5 446.4,319.6 447.4,308.3 448.4,334.6 449.4,318.7 450.5,335.8 451.5,335.0 452.5,297.6 453.5,305.3 454.6,325.3 455.6,325.7 456.6,318.9 457.7,310.3 458.7,334.9 459.7,321.4 460.7,334.2 461.8,331.5 462.8,329.7 463.8,309.6 464.8,308.4 465.9,298.7 466.9,302.7 467.9,305.5 468.9,309.0 470.0,331.8 471.0,334.0 472.0,329.6 473.0,334.7 474.1,333.8 475.1,335.0 476.1,334.0 477.1,334.0 478.2,325.3 479.2,334.9 480.2,334.5 481.2,334.6 482.3,334.7 483.3,334.7 484.3,334.7 485.4,334.6 486.4,334.1 487.4,326.9 488.4,326.6 489.5,305.4 490.5,343.0 491.5,335.3 492.5,344.0 493.6,335.0 494.6,329.1 495.6,301.0 496.6,334.2 497.7,334.1 498.7,315.6 499.7,335.0 500.7,334.1 501.8,334.6 502.8,333.6 503.8,330.5 504.8,330.4 505.9,333.8 506.9,335.0 507.9,335.0 508.9,333.2 510.0,334.4 511.0,310.5 512.0,332.0 513.1,310.1 514.1,332.7 515.1,305.4 516.1,309.8 517.2,310.6 518.2,330.0 519.2,333.8 520.2,332.4 521.3,335.3 522.3,318.3 523.3,334.7 524.3,336.2 525.4,331.4 526.4,325.8 527.4,334.6 528.4,331.3 529.5,331.8 530.5,334.7 531.5,334.5 532.5,333.8 533.6,330.7 534.6,334.9 535.6,334.8 536.6,331.8 537.7,333.2 538.7,310.7 539.7,330.5 540.8,308.2 541.8,308.4 542.8,305.4 543.8,330.4 544.9,326.9 545.9,330.4 546.9,334.9 547.9,331.5 549.0,335.0 550.0,334.6 551.0,334.1 552.0,334.9 553.1,334.7 554.1,335.0 555.1,333.8 556.1,335.0 557.2,333.3 558.2,334.6 559.2,335.0 560.2,332.7 561.3,283.6 562.3,333.8 563.3,335.0 564.3,319.3 565.4,331.1 566.4,329.7 567.4,331.8 568.5,334.1 569.5,334.6 570.5,334.9 571.5,334.7 572.6,334.6 573.6,334.8 574.6,335.0 575.6,334.9 576.7,335.0 577.7,334.9 578.7,334.7 579.7,334.9 580.8,335.0 581.8,334.7 582.8,334.1 583.8,335.7 584.9,334.1 585.9,334.4 586.9,305.3 587.9,319.6 589.0,309.3 590.0,300.7 591.0,310.4 592.0,330.5 593.1,310.6 594.1,330.5 595.1,333.0 596.2,334.7 597.2,333.8 598.2,334.1 599.2,330.9 600.3,334.7 601.3,334.9 602.3,334.9 603.3,305.4 604.4,334.4 605.4,331.0 606.4,335.0 607.4,333.8 608.5,335.0 609.5,333.8 610.5,334.9 611.5,310.6 612.6,334.3 613.6,306.4 614.6,308.4 615.6,333.8 616.7,330.9 617.7,334.1 618.7,329.7 619.8,334.3 620.8,305.3 621.8,330.7 622.8,328.8 623.9,333.8 624.9,295.8 625.9,334.6 626.9,310.6 628.0,310.6 629.0,333.8 630.0,318.4 631.0,318.5 632.1,334.2 633.1,334.9 634.1,334.1 635.1,334.1 636.2,330.4 637.2,308.2 638.2,308.2 639.2,310.2 640.3,333.8 641.3,310.6 642.3,310.4 643.3,327.3 644.4,332.0 645.4,335.0 646.4,334.6 647.5,334.0 648.5,334.6 649.5,334.5 650.5,330.7 651.6,333.5 652.6,331.5 653.6,334.6 654.6,334.1 655.7,333.8 656.7,330.7 657.7,334.7 658.7,334.9 659.8,332.0 660.8,307.0 661.8,326.1 662.8,305.4 663.9,306.4 664.9,309.0 665.9,306.4 666.9,334.6 668.0,327.0 669.0,333.8 670.0,333.2 671.0,334.1 672.1,335.0 673.1,334.6 674.1,333.9 675.2,333.8 676.2,334.7 677.2,330.7 678.2,331.8 679.3,334.9 680.3,334.1 681.3,334.6 682.3,334.9 683.4,327.5 684.4,335.0 685.4,333.6 686.4,319.7 687.5,302.9 688.5,310.1 689.5,327.5 690.5,326.8 691.6,323.6 692.6,298.7 693.6,310.6 694.6,331.1 695.7,330.7 696.7,334.6 697.7,324.6 698.7,323.8 699.8,330.4 700.8,333.8 701.8,330.7 702.9,334.6 703.9,323.9 704.9,333.2 705.9,334.1 707.0,325.7 708.0,309.1 709.0,315.6 710.0,333.8 711.1,308.5 712.1,306.5 713.1,308.2 714.1,310.2 715.2,312.5 716.2,331.0 717.2,331.9 718.2,317.9 719.3,334.6 720.3,335.0 721.3,335.0 722.3,335.0 723.4,334.6 724.4,333.8 725.4,334.9 726.4,330.4 727.5,334.3 728.5,334.6 729.5,334.2 730.6,333.8 731.6,335.0 732.6,330.7 733.6,333.8 734.7,315.5 735.7,330.7 736.7,305.4 737.7,324.4 738.8,306.5 739.8,331.8 740.8,308.9 741.8,333.8 742.9,333.8 743.9,331.2 744.9,310.7 745.9,333.8 747.0,330.0 748.0,327.2 749.0,323.8 750.0,330.0 751.1,305.0 752.1,312.5 753.1,333.8 754.1,332.0 755.2,329.7 756.2,333.8 757.2,322.8 758.3,308.3 759.3,310.4 760.3,305.2 761.3,305.4 762.4,308.2 763.4,310.7 764.4,310.1 765.4,319.6 766.5,325.7 767.5,330.8 768.5,330.9 769.5,305.4 770.6,305.2 771.6,333.8 772.6,331.0 773.6,305.4 774.7,334.7 775.7,308.3 776.7,334.1 777.7,334.7 778.8,332.8 779.8,332.9 780.8,308.2 781.8,335.0 782.9,330.4 783.9,310.4 784.9,330.0 786.0,326.8 787.0,305.9 788.0,306.4 789.0,323.8 790.1,296.7 791.1,334.1 792.1,335.0 793.1,335.0 794.2,331.5 795.2,334.7 796.2,335.0 797.2,304.3 798.3,308.2 799.3,335.0 800.3,331.8 801.3,334.5 802.4,331.2 803.4,334.7 804.4,331.8 805.4,321.5 806.5,334.9 807.5,331.9 808.5,310.4 809.5,308.3 810.6,305.4 811.6,305.9 812.6,305.7 813.7,324.6 814.7,330.7 815.7,334.5 816.7,331.6 817.8,335.0 818.8,335.0 819.8,335.0 820.8,322.4 821.9,334.9 822.9,331.1 823.9,335.0 824.9,344.0 826.0,344.0 827.0,344.0 828.0,334.6 829.0,335.0 830.1,335.0 831.1,334.4 832.1,311.6 833.1,308.9 834.2,308.2 835.2,308.1 836.2,330.4 837.2,308.6 838.3,337.4 839.3,335.0 840.3,335.0 841.4,335.0 842.4,331.8 843.4,332.0 844.4,334.1 845.5,330.5 846.5,334.6 847.5,335.0 848.5,334.9 849.6,312.5 850.6,333.8 851.6,332.0 852.6,333.8 853.7,331.7 854.7,331.0 855.7,310.7 856.7,308.6 857.8,314.0 858.8,327.1 859.8,304.8 860.8,340.8 861.9,341.6 862.9,335.0 863.9,334.6 865.0,334.6 866.0,324.6 867.0,317.8 868.0,346.0 869.1,334.6 870.1,334.9 871.1,317.9 872.1,344.0 873.2,334.0 874.2,321.8 875.2,332.8 876.2,325.5 877.3,333.8 878.3,313.7 879.3,334.6 880.3,328.5 881.4,331.2 882.4,305.4 883.4,331.0 884.4,310.0 885.5,331.4 886.5,330.2 887.5,290.8 888.5,335.0 889.6,347.8 890.6,350.1 891.6,349.5 892.7,346.1 893.7,349.4 894.7,341.0 895.7,346.4 896.8,349.3 897.8,344.7 898.8,345.1 899.8,349.2 900.9,349.4 901.9,343.5 902.9,350.0 903.9,350.1 905.0,347.6 906.0,344.9 907.0,349.2 908.0,345.2 909.1,344.1 910.1,344.7 911.1,345.7 912.1,346.1 913.2,345.7 914.2,349.5 915.2,345.1 916.2,349.4 917.3,348.7 918.3,346.1 919.3,345.8 920.4,351.6 921.4,348.3 922.4,345.7 923.4,349.9 924.5,344.7 925.5,346.4 926.5,345.2 927.5,343.4 928.6,345.2 929.6,346.1 930.6,342.1 931.6,343.4 932.7,343.5 933.7,345.2 934.7,345.2 935.7,344.0 936.8,345.2 937.8,345.4 938.8,345.3 939.8,344.8 940.9,345.8 941.9,346.1 942.9,344.8 943.9,345.0 945.0,344.3 946.0,345.2" fill="none" stroke="#059669" stroke-width="2.2" stroke-linejoin="round" stroke-linecap="round"/>
<polyline points="76.0,208.9 77.0,216.7 78.1,223.4 79.1,228.3 80.1,236.4 81.1,228.3 82.2,223.3 83.2,216.9 84.2,223.4 85.2,223.3 86.3,199.8 87.3,223.4 88.3,224.6 89.3,223.3 90.4,226.2 91.4,227.6 92.4,211.5 93.4,216.7 94.5,236.0 95.5,216.6 96.5,215.8 97.5,199.8 98.6,220.3 99.6,223.2 100.6,223.4 101.6,220.5 102.7,223.3 103.7,213.2 104.7,216.6 105.8,200.1 106.8,199.8 107.8,160.5 108.8,170.2 109.9,170.2 110.9,209.6 111.9,215.8 112.9,209.6 114.0,208.2 115.0,233.3 116.0,241.0 117.0,230.2 118.1,223.3 119.1,223.8 120.1,223.4 121.1,227.6 122.2,220.4 123.2,213.7 124.2,221.6 125.2,214.1 126.3,236.4 127.3,233.9 128.3,228.8 129.3,229.4 130.4,230.2 131.4,223.4 132.4,223.4 133.5,224.4 134.5,227.8 135.5,231.4 136.5,223.4 137.6,236.4 138.6,240.4 139.6,233.6 140.6,244.6 141.7,239.4 142.7,240.4 143.7,238.9 144.7,236.3 145.8,251.7 146.8,206.3 147.8,236.6 148.8,237.6 149.9,234.6 150.9,248.7 151.9,242.6 152.9,246.3 154.0,241.1 155.0,232.3 156.0,233.3 157.0,228.3 158.1,223.5 159.1,229.7 160.1,233.3 161.2,246.2 162.2,238.6 163.2,241.0 164.2,231.4 165.3,230.1 166.3,230.4 167.3,216.6 168.3,239.0 169.4,223.4 170.4,231.9 171.4,231.4 172.4,242.9 173.5,248.9 174.5,223.4 175.5,227.9 176.5,242.4 177.6,237.1 178.6,229.7 179.6,234.8 180.6,236.4 181.7,233.2 182.7,223.4 183.7,223.4 184.8,230.1 185.8,233.2 186.8,241.8 187.8,237.6 188.9,246.3 189.9,230.4 190.9,230.5 191.9,237.1 193.0,236.4 194.0,236.6 195.0,241.3 196.0,240.4 197.1,240.4 198.1,233.2 199.1,200.3 200.1,223.3 201.2,223.4 202.2,216.6 203.2,229.6 204.2,233.3 205.3,231.4 206.3,233.3 207.3,230.8 208.3,236.3 209.4,236.3 210.4,233.3 211.4,230.2 212.5,238.7 213.5,238.8 214.5,237.6 215.5,228.0 216.6,226.9 217.6,237.0 218.6,226.6 219.6,232.3 220.7,231.4 221.7,207.0 222.7,223.4 223.7,223.3 224.8,223.3 225.8,225.0 226.8,223.4 227.8,236.4 228.9,236.4 229.9,231.9 230.9,230.2 231.9,235.6 233.0,236.3 234.0,236.7 235.0,251.5 236.0,233.3 237.1,233.3 238.1,241.1 239.1,241.0 240.2,233.3 241.2,232.1 242.2,225.6 243.2,223.4 244.3,241.1 245.3,223.4 246.3,199.8 247.3,231.6 248.4,233.2 249.4,223.4 250.4,228.7 251.4,233.2 252.5,236.4 253.5,233.2 254.5,232.7 255.5,233.7 256.6,223.4 257.6,238.3 258.6,233.9 259.6,223.4 260.7,232.6 261.7,238.6 262.7,240.5 263.7,247.9 264.8,224.1 265.8,223.3 266.8,224.5 267.9,234.8 268.9,247.0 269.9,227.7 270.9,223.2 272.0,223.4 273.0,225.2 274.0,222.7 275.0,229.5 276.1,223.4 277.1,228.1 278.1,212.0 279.1,223.2 280.2,160.5 281.2,171.2 282.2,200.0 283.2,210.4 284.3,201.6 285.3,223.4 286.3,232.3 287.3,227.9 288.4,226.7 289.4,216.8 290.4,216.6 291.4,223.4 292.5,200.0 293.5,227.0 294.5,199.8 295.6,199.8 296.6,223.4 297.6,210.4 298.6,217.0 299.7,224.4 300.7,223.4 301.7,224.5 302.7,224.1 303.8,226.6 304.8,223.4 305.8,233.2 306.8,208.9 307.9,221.6 308.9,233.3 309.9,232.1 310.9,223.3 312.0,228.3 313.0,230.2 314.0,223.4 315.0,202.6 316.1,220.4 317.1,223.2 318.1,257.5 319.1,219.7 320.2,214.4 321.2,240.0 322.2,215.3 323.3,228.3 324.3,233.5 325.3,241.1 326.3,240.7 327.4,233.2 328.4,233.2 329.4,227.4 330.4,223.4 331.5,240.4 332.5,231.6 333.5,230.9 334.5,218.4 335.6,210.8 336.6,228.0 337.6,182.3 338.6,231.0 339.7,214.8 340.7,222.1 341.7,223.4 342.7,227.6 343.8,214.7 344.8,240.7 345.8,215.1 346.8,221.5 347.9,199.7 348.9,197.1 349.9,195.3 351.0,216.6 352.0,210.6 353.0,223.4 354.0,170.2 355.1,220.5 356.1,205.1 357.1,205.7 358.1,199.8 359.2,221.7 360.2,228.0 361.2,223.4 362.2,168.9 363.3,223.3 364.3,231.5 365.3,223.2 366.3,223.4 367.4,176.3 368.4,200.3 369.4,226.2 370.4,231.6 371.5,223.4 372.5,209.8 373.5,233.3 374.5,232.6 375.6,224.4 376.6,223.4 377.6,220.4 378.7,230.2 379.7,223.3 380.7,251.8 381.7,231.2 382.8,231.4 383.8,230.2 384.8,233.1 385.8,233.1 386.9,224.5 387.9,223.2 388.9,223.3 389.9,223.3 391.0,223.3 392.0,214.8 393.0,223.4 394.0,214.7 395.1,213.3 396.1,223.3 397.1,233.1 398.1,214.9 399.2,223.3 400.2,219.0 401.2,209.6 402.2,200.3 403.3,215.1 404.3,223.3 405.3,215.1 406.4,232.5 407.4,223.3 408.4,205.7 409.4,207.1 410.5,223.3 411.5,223.4 412.5,223.3 413.5,233.2 414.6,223.4 415.6,234.8 416.6,223.2 417.6,223.0 418.7,223.4 419.7,223.9 420.7,231.2 421.7,248.1 422.8,233.3 423.8,235.7 424.8,239.4 425.8,233.2 426.9,229.7 427.9,215.5 428.9,231.7 430.0,233.2 431.0,233.2 432.0,233.1 433.0,228.3 434.1,225.3 435.1,231.2 436.1,240.6 437.1,220.4 438.2,223.3 439.2,223.4 440.2,228.4 441.2,226.3 442.3,226.6 443.3,210.1 444.3,213.3 445.3,220.4 446.4,226.5 447.4,213.9 448.4,223.3 449.4,215.7 450.5,224.2 451.5,233.2 452.5,170.2 453.5,199.8 454.6,223.3 455.6,200.5 456.6,212.4 457.7,214.7 458.7,233.1 459.7,221.6 460.7,228.3 461.8,223.3 462.8,215.7 463.8,212.4 464.8,200.0 465.9,192.4 466.9,194.7 467.9,208.9 468.9,200.0 470.0,215.1 471.0,228.0 472.0,213.3 473.0,233.3 474.1,223.1 475.1,222.6 476.1,223.4 477.1,219.0 478.2,223.2 479.2,240.4 480.2,226.2 481.2,231.5 482.3,233.2 483.3,226.7 484.3,233.2 485.4,236.3 486.4,240.4 487.4,223.5 488.4,224.2 489.5,223.4 490.5,233.2 491.5,227.8 492.5,223.4 493.6,231.7 494.6,226.6 495.6,92.4 496.6,215.1 497.7,223.3 498.7,213.8 499.7,231.5 500.7,230.2 501.8,223.4 502.8,223.4 503.8,223.3 504.8,220.4 505.9,223.2 506.9,233.2 507.9,238.4 508.9,233.2 510.0,231.7 511.0,213.9 512.0,223.4 513.1,223.3 514.1,238.0 515.1,232.3 516.1,217.1 517.2,212.6 518.2,230.2 519.2,226.8 520.2,230.5 521.3,233.4 522.3,200.3 523.3,233.3 524.3,233.3 525.4,216.7 526.4,220.5 527.4,228.0 528.4,220.3 529.5,219.8 530.5,226.9 531.5,231.9 532.5,233.0 533.6,223.3 534.6,237.7 535.6,240.3 536.6,225.0 537.7,236.6 538.7,223.3 539.7,227.9 540.8,211.9 541.8,214.8 542.8,214.8 543.8,223.3 544.9,223.3 545.9,217.0 546.9,234.2 547.9,224.1 549.0,231.5 550.0,223.4 551.0,223.4 552.0,236.6 553.1,216.9 554.1,233.6 555.1,224.5 556.1,236.6 557.2,223.3 558.2,231.8 559.2,231.4 560.2,223.3 561.3,168.8 562.3,223.3 563.3,224.5 564.3,224.6 565.4,226.7 566.4,223.4 567.4,223.3 568.5,239.7 569.5,223.4 570.5,230.2 571.5,223.4 572.6,228.4 573.6,226.6 574.6,238.6 575.6,232.1 576.7,236.6 577.7,236.3 578.7,232.3 579.7,236.4 580.8,233.6 581.8,240.4 582.8,223.4 583.8,241.1 584.9,212.7 585.9,225.1 586.9,205.7 587.9,213.8 589.0,223.4 590.0,201.9 591.0,223.3 592.0,223.1 593.1,223.4 594.1,231.5 595.1,223.4 596.2,236.3 597.2,223.4 598.2,226.9 599.2,222.4 600.3,223.4 601.3,234.7 602.3,235.8 603.3,200.3 604.4,230.5 605.4,230.2 606.4,235.3 607.4,230.2 608.5,232.1 609.5,216.6 610.5,232.6 611.5,212.7 612.6,230.1 613.6,222.9 614.6,219.7 615.6,225.0 616.7,223.4 617.7,223.4 618.7,219.7 619.8,229.3 620.8,196.0 621.8,220.2 622.8,212.0 623.9,231.5 624.9,170.2 625.9,230.2 626.9,199.8 628.0,220.0 629.0,216.7 630.0,210.0 631.0,215.8 632.1,239.5 633.1,231.5 634.1,223.3 635.1,227.9 636.2,223.3 637.2,209.9 638.2,223.4 639.2,207.1 640.3,223.3 641.3,200.0 642.3,199.8 643.3,201.8 644.4,223.4 645.4,235.0 646.4,223.4 647.5,216.6 648.5,230.6 649.5,231.6 650.5,219.9 651.6,223.3 652.6,214.8 653.6,231.3 654.6,230.2 655.7,231.4 656.7,236.4 657.7,240.4 658.7,229.4 659.8,228.0 660.8,218.7 661.8,227.7 662.8,227.9 663.9,204.0 664.9,220.5 665.9,215.5 666.9,226.7 668.0,224.4 669.0,225.1 670.0,232.1 671.0,231.5 672.1,223.4 673.1,229.2 674.1,236.3 675.2,223.7 676.2,237.1 677.2,225.0 678.2,231.4 679.3,236.4 680.3,236.3 681.3,233.4 682.3,237.6 683.4,212.1 684.4,228.0 685.4,233.2 686.4,222.8 687.5,223.2 688.5,222.2 689.5,222.3 690.5,215.1 691.6,223.4 692.6,172.5 693.6,210.3 694.6,223.3 695.7,214.0 696.7,217.9 697.7,231.6 698.7,215.8 699.8,214.9 700.8,232.2 701.8,222.0 702.9,227.8 703.9,223.3 704.9,223.3 705.9,230.1 707.0,220.4 708.0,211.4 709.0,208.2 710.0,232.6 711.1,223.1 712.1,224.4 713.1,218.9 714.1,223.2 715.2,211.8 716.2,228.8 717.2,223.6 718.2,223.3 719.3,233.2 720.3,229.9 721.3,223.3 722.3,236.3 723.4,223.7 724.4,223.4 725.4,236.8 726.4,214.9 727.5,230.2 728.5,227.6 729.5,234.1 730.6,223.7 731.6,225.3 732.6,222.3 733.6,223.4 734.7,224.5 735.7,223.4 736.7,218.4 737.7,208.6 738.8,195.0 739.8,224.5 740.8,212.1 741.8,229.2 742.9,223.3 743.9,223.4 744.9,199.9 745.9,208.3 747.0,223.4 748.0,217.7 749.0,220.4 750.0,223.4 751.1,189.0 752.1,215.4 753.1,223.4 754.1,230.2 755.2,224.4 756.2,233.2 757.2,219.1 758.3,216.6 759.3,233.2 760.3,198.6 761.3,223.3 762.4,223.6 763.4,216.6 764.4,223.3 765.4,223.4 766.5,223.4 767.5,221.2 768.5,215.8 769.5,200.2 770.6,183.2 771.6,223.4 772.6,223.7 773.6,200.5 774.7,227.0 775.7,226.5 776.7,241.1 777.7,239.9 778.8,237.3 779.8,236.6 780.8,192.0 781.8,244.7 782.9,208.6 783.9,233.3 784.9,241.0 786.0,240.2 787.0,223.5 788.0,174.1 789.0,223.3 790.1,194.8 791.1,229.1 792.1,236.2 793.1,241.0 794.2,220.4 795.2,228.2 796.2,256.0 797.2,170.2 798.3,200.3 799.3,256.2 800.3,223.4 801.3,226.2 802.4,223.3 803.4,236.7 804.4,223.3 805.4,230.2 806.5,216.6 807.5,181.2 808.5,223.4 809.5,204.6 810.6,210.1 811.6,208.6 812.6,200.0 813.7,223.8 814.7,227.4 815.7,243.2 816.7,213.2 817.8,240.6 818.8,224.6 819.8,231.9 820.8,230.1 821.9,241.0 822.9,229.3 823.9,237.6 824.9,247.8 826.0,245.3 827.0,252.0 828.0,236.3 829.0,238.6 830.1,240.9 831.1,199.5 832.1,194.9 833.1,224.5 834.2,218.0 835.2,223.5 836.2,216.6 837.2,216.7 838.3,233.2 839.3,236.3 840.3,237.1 841.4,245.8 842.4,238.2 843.4,237.1 844.4,230.8 845.5,207.1 846.5,236.3 847.5,233.2 848.5,240.9 849.6,213.1 850.6,223.4 851.6,236.4 852.6,227.7 853.7,224.6 854.7,230.2 855.7,214.8 856.7,222.2 857.8,216.8 858.8,223.3 859.8,229.9 860.8,224.9 861.9,227.8 862.9,257.6 863.9,230.2 865.0,236.7 866.0,235.8 867.0,223.4 868.0,231.8 869.1,223.4 870.1,223.3 871.1,211.7 872.1,242.1 873.2,225.6 874.2,200.2 875.2,220.4 876.2,223.3 877.3,223.4 878.3,214.7 879.3,233.5 880.3,223.3 881.4,238.6 882.4,223.3 883.4,241.1 884.4,240.4 885.5,223.4 886.5,225.0 887.5,198.4 888.5,237.3 889.6,299.1 890.6,332.3 891.6,333.7 892.7,330.9 893.7,331.5 894.7,256.7 895.7,327.6 896.8,327.7 897.8,331.7 898.8,333.7 899.8,332.3 900.9,331.6 901.9,322.4 902.9,331.5 903.9,332.9 905.0,331.0 906.0,328.4 907.0,333.2 908.0,329.7 909.1,329.7 910.1,329.6 911.1,330.4 912.1,331.5 913.2,327.6 914.2,331.5 915.2,329.1 916.2,327.7 917.3,330.3 918.3,328.4 919.3,331.3 920.4,335.3 921.4,331.5 922.4,330.0 923.4,331.5 924.5,330.0 925.5,331.6 926.5,327.6 927.5,329.0 928.6,330.0 929.6,328.8 930.6,326.0 931.6,327.7 932.7,327.5 933.7,329.2 934.7,328.1 935.7,327.6 936.8,329.0 937.8,331.5 938.8,327.6 939.8,329.6 940.9,328.9 941.9,331.5 942.9,331.5 943.9,330.1 945.0,322.8 946.0,330.1" fill="none" stroke="#d97706" stroke-width="2.2" stroke-linejoin="round" stroke-linecap="round"/>
<line x1="76" y1="70" x2="94" y2="70" stroke="#2563eb" stroke-width="3"/>
<text x="100" y="74" font-family="Arial, sans-serif" font-size="11" fill="#0f172a">avg fee</text>
<line x1="179" y1="70" x2="197" y2="70" stroke="#059669" stroke-width="3"/>
<text x="203" y="74" font-family="Arial, sans-serif" font-size="11" fill="#0f172a">median fee</text>
<line x1="303" y1="70" x2="321" y2="70" stroke="#d97706" stroke-width="3"/>
<text x="327" y="74" font-family="Arial, sans-serif" font-size="11" fill="#0f172a">p90 fee</text>
<text x="28" y="404" font-family="Arial, sans-serif" font-size="11" fill="#64748b">Source: hourly_features.csv</text>
</svg>