<svg xmlns="http://www.w3.org/2000/svg" width="980" height="420" viewBox="0 0 980 420">
<rect width="100%" height="100%" fill="#ffffff"/>
<text x="28" y="34" font-family="Arial, sans-serif" font-size="20" font-weight="700" fill="#0f172a">Hourly fee trend</text>
<text x="28" y="56" font-family="Arial, sans-serif" font-size="12" fill="#64748b">Average, median, and p90 total fee by hour</text>
<line x1="76" y1="362.0" x2="946" y2="362.0" stroke="#e2e8f0" stroke-width="1"/>
<text x="68" y="366.0" font-family="Arial, sans-serif" font-size="10" text-anchor="end" fill="#64748b">-124K</text>
<line x1="76" y1="292.0" x2="946" y2="292.0" stroke="#e2e8f0" stroke-width="1"/>
<text x="68" y="296.0" font-family="Arial, sans-serif" font-size="10" text-anchor="end" fill="#64748b">2.8M</text>
<line x1="76" y1="222.0" x2="946" y2="222.0" stroke="#e2e8f0" stroke-width="1"/>
<text x="68" y="226.0" font-family="Arial, sans-serif" font-size="10" text-anchor="end" fill="#64748b">5.8M</text>
<line x1="76" y1="152.0" x2="946" y2="152.0" stroke="#e2e8f0" stroke-width="1"/>
<text x="68" y="156.0" font-family="Arial, sans-serif" font-size="10" text-anchor="end" fill="#64748b">8.7M</text>
<line x1="76" y1="82.0" x2="946" y2="82.0" stroke="#e2e8f0" stroke-width="1"/>
<text x="68" y="86.0" font-family="Arial, sans-serif" font-size="10" text-anchor="end" fill="#64748b">11.7M</text>
<line x1="76" y1="362" x2="946" y2="362" stroke="#334155" stroke-width="1"/>
<line x1="76" y1="82" x2="76" y2="362" stroke="#334155" stroke-width="1"/>
<text x="76" y="72" font-family="Arial, sans-serif" font-size="11" fill="#64748b">nanoton</text>
<line x1="76.0" y1="362" x2="76.0" y2="366" stroke="#334155" stroke-width="1"/>
<text x="76.0" y="380" font-family="Arial, sans-serif" font-size="10" text-anchor="middle" fill="#64748b">0</text>
<line x1="511.0" y1="362" x2="511.0" y2="366" stroke="#334155" stroke-width="1"/>
<text x="511.0" y="380" font-family="Arial, sans-serif" font-size="10" text-anchor="middle" fill="#64748b">384</text>
<line x1="946.0" y1="362" x2="946.0" y2="366" stroke="#334155" stroke-width="1"/>
<text x="946.0" y="380" font-family="Arial, sans-serif" font-size="10" text-anchor="middle" fill="#64748b">768</text>
<polyline points="76.0,295.3 77.1,299.2 78.3,300.6 79.4,302.7 80.5,309.6 81.7,301.8 82.8,302.9 83.9,299.2 85.1,303.6 86.2,303.4 87.3,292.2 88.5,304.2 89.6,304.4 90.7,302.0 91.9,305.0 93.0,305.2 94.1,297.0 95.3,297.1 96.4,306.0 97.5,295.6 98.7,293.7 99.8,291.7 100.9,298.4 102.1,298.8 103.2,300.7 104.3,296.6 105.5,302.3 106.6,295.0 107.7,297.8 108.9,292.8 110.0,293.4 111.1,277.2 112.2,289.0 113.4,289.7 114.5,299.2 115.6,304.6 116.8,297.4 117.9,299.5 119.0,309.5 120.2,312.3 121.3,306.9 122.4,301.6 123.6,303.3 124.7,302.6 125.8,309.2 127.0,302.0 128.1,299.0 129.2,301.1 130.4,303.3 131.5,307.8 132.6,307.9 133.8,306.7 134.9,305.0 136.0,308.1 137.2,307.0 138.3,304.1 139.4,303.8 140.6,307.6 141.7,303.8 142.8,306.1 144.0,311.7 145.1,313.5 146.2,311.2 147.4,312.0 148.5,314.0 149.6,310.7 150.8,310.3 151.9,306.8 153.0,313.3 154.2,295.2 155.3,311.2 156.4,311.2 157.6,311.1 158.7,316.2 159.8,312.0 161.0,315.2 162.1,314.0 163.2,310.3 164.4,310.3 165.5,308.0 166.6,308.2 167.8,306.1 168.9,309.9 170.0,312.3 171.2,311.8 172.3,313.0 173.4,309.8 174.6,307.7 175.7,307.5 176.8,303.2 178.0,309.7 179.1,301.7 180.2,304.0 181.4,305.0 182.5,308.7 183.6,316.5 184.8,304.8 185.9,305.2 187.0,313.8 188.1,312.4 189.3,305.0 190.4,309.0 191.5,309.9 192.7,307.4 193.8,305.2 194.9,302.1 196.1,303.4 197.2,306.7 198.3,312.9 199.5,312.3 200.6,312.3 201.7,307.9 202.9,306.6 204.0,308.9 205.1,308.7 206.3,308.8 207.4,313.2 208.5,313.8 209.7,312.2 210.8,305.8 211.9,291.3 213.1,306.3 214.2,303.4 215.3,300.7 216.5,304.3 217.6,310.3 218.7,306.2 219.9,309.8 221.0,306.9 222.1,309.7 223.3,311.6 224.4,309.7 225.5,305.5 226.7,309.6 227.8,312.8 228.9,307.2 230.1,306.5 231.2,307.9 232.3,308.1 233.5,303.6 234.6,303.1 235.7,302.6 236.9,293.9 238.0,301.5 239.1,301.0 240.3,300.1 241.4,304.3 242.5,303.7 243.7,309.4 244.8,308.8 245.9,308.6 247.1,303.9 248.2,305.9 249.3,310.5 250.5,309.3 251.6,317.0 252.7,310.5 253.9,309.1 255.0,311.9 256.1,311.8 257.2,306.7 258.4,308.6 259.5,305.5 260.6,306.4 261.8,304.9 262.9,303.4 264.0,295.1 265.2,300.7 266.3,305.3 267.4,301.2 268.6,307.5 269.7,307.3 270.8,307.8 272.0,307.4 273.1,307.5 274.2,308.5 275.4,304.8 276.5,310.4 277.6,307.7 278.8,303.9 279.9,307.6 281.0,311.5 282.2,311.0 283.3,311.5 284.4,303.1 285.6,306.3 286.7,302.5 287.8,308.6 289.0,304.9 290.1,304.2 291.2,300.2 292.4,302.8 293.5,303.0 294.6,298.3 295.8,304.6 296.9,302.6 298.0,303.3 299.2,298.7 300.3,302.5 301.4,282.2 302.6,288.6 303.7,299.8 304.8,300.3 306.0,298.9 307.1,305.5 308.2,309.1 309.4,307.2 310.5,306.9 311.6,302.6 312.8,299.9 313.9,301.2 315.0,295.9 316.2,296.5 317.3,295.1 318.4,294.5 319.6,304.4 320.7,296.5 321.8,301.4 323.0,304.5 324.1,308.5 325.2,307.2 326.4,306.8 327.5,307.0 328.6,305.6 329.8,308.3 330.9,300.5 332.0,302.4 333.1,309.2 334.3,309.0 335.4,304.2 336.5,308.7 337.7,308.2 338.8,303.7 339.9,293.2 341.1,298.3 342.2,298.7 343.3,308.4 344.5,300.2 345.6,301.6 346.7,310.4 347.9,299.4 349.0,305.2 350.1,309.9 351.3,313.4 352.4,310.3 353.5,308.8 354.7,305.4 355.8,308.6 356.9,303.9 358.1,307.8 359.2,309.8 360.3,307.8 361.5,304.0 362.6,299.0 363.7,304.6 364.9,290.6 366.0,306.9 367.1,298.4 368.3,302.6 369.4,304.1 370.5,302.1 371.7,299.0 372.8,315.3 373.9,296.1 375.1,300.2 376.2,285.9 377.3,299.2 378.5,297.8 379.6,299.6 380.7,295.5 381.9,305.7 383.0,284.1 384.1,301.9 385.3,296.4 386.4,296.0 387.5,287.6 388.7,303.0 389.8,305.1 390.9,303.3 392.1,292.8 393.2,303.7 394.3,309.2 395.5,302.4 396.6,300.1 397.7,284.0 398.9,288.5 400.0,305.2 401.1,304.6 402.2,302.7 403.4,297.9 404.5,307.9 405.6,307.8 406.8,303.3 407.9,301.4 409.0,302.0 410.2,306.1 411.3,302.8 412.4,316.4 413.6,304.1 414.7,308.2 415.8,305.9 417.0,307.7 418.1,309.0 419.2,302.5 420.4,299.0 421.5,303.9 422.6,299.7 423.8,306.5 424.9,297.1 426.0,302.2 427.2,298.5 428.3,294.5 429.4,299.7 430.6,309.4 431.7,295.6 432.8,305.0 434.0,300.5 435.1,297.6 436.2,296.1 437.4,301.5 438.5,301.7 439.6,302.5 440.8,304.2 441.9,297.4 443.0,290.6 444.2,294.6 445.3,304.7 446.4,299.0 447.6,305.6 448.7,307.7 449.8,303.8 451.0,307.3 452.1,299.7 453.2,301.7 454.4,307.5 455.5,306.4 456.6,307.7 457.8,313.5 458.9,311.6 460.0,310.9 461.2,311.3 462.3,309.1 463.4,309.3 464.6,303.0 465.7,305.8 466.8,307.8 468.0,308.1 469.1,309.0 470.2,307.1 471.4,304.1 472.5,309.3 473.6,312.0 474.8,301.9 475.9,303.6 477.0,302.7 478.1,304.4 479.3,302.5 480.4,305.7 481.5,291.6 482.7,298.9 483.8,299.3 484.9,303.3 486.1,295.8 487.2,303.0 488.3,299.2 489.5,303.4 490.6,309.0 491.7,286.5 492.9,294.2 494.0,303.5 495.1,299.7 496.3,297.9 497.4,299.3 498.5,309.1 499.7,301.5 500.8,306.4 501.9,301.3 503.1,300.2 504.2,297.4 505.3,296.2 506.5,291.1 507.6,292.2 508.7,298.8 509.9,297.2 511.0,302.1 512.1,307.8 513.3,301.4 514.4,308.9 515.5,303.3 516.7,302.4 517.8,304.0 518.9,301.7 520.1,301.2 521.2,310.3 522.3,306.6 523.5,309.3 524.6,307.7 525.7,308.2 526.9,307.5 528.0,309.3 529.1,306.5 530.3,304.7 531.4,301.9 532.5,299.6 533.7,309.8 534.8,307.4 535.9,308.5 537.1,307.6 538.2,303.1 539.3,260.8 540.5,295.5 541.6,303.2 542.7,300.9 543.9,305.7 545.0,306.4 546.1,304.5 547.2,304.0 548.4,304.3 549.5,300.6 550.6,304.1 551.8,310.4 552.9,311.3 554.0,305.6 555.2,307.4 556.3,299.6 557.4,306.9 558.6,301.5 559.7,309.7 560.8,303.8 562.0,300.2 563.1,299.7 564.2,305.6 565.4,305.7 566.5,305.4 567.6,309.3 568.8,297.1 569.9,308.3 571.0,310.9 572.2,300.1 573.3,302.1 574.4,307.6 575.6,300.4 576.7,304.1 577.8,308.7 579.0,306.4 580.1,308.6 581.2,305.5 582.4,311.0 583.5,310.4 584.6,305.5 585.8,308.0 586.9,301.7 588.0,304.9 589.2,296.8 590.3,296.5 591.4,296.6 592.6,304.0 593.7,303.1 594.8,303.5 596.0,306.3 597.1,304.3 598.2,310.1 599.4,304.9 600.5,305.3 601.6,309.5 602.8,303.9 603.9,309.2 605.0,304.3 606.2,311.2 607.3,303.8 608.4,309.3 609.6,308.1 610.7,302.7 611.8,267.6 613.0,307.7 614.1,309.4 615.2,306.0 616.4,305.5 617.5,302.9 618.6,304.6 619.8,307.5 620.9,303.3 622.0,308.8 623.1,307.5 624.3,307.8 625.4,305.8 626.5,313.2 627.7,309.3 628.8,313.9 629.9,309.3 631.1,308.5 632.2,309.7 633.3,308.4 634.5,310.1 635.6,304.2 636.7,310.0 637.9,301.7 639.0,306.9 640.1,292.5 641.3,299.2 642.4,304.4 643.5,291.8 644.7,303.7 645.8,303.1 646.9,301.4 648.1,305.9 649.2,304.2 650.3,307.4 651.5,303.9 652.6,307.7 653.7,302.6 654.9,306.4 656.0,310.1 657.1,309.3 658.3,294.8 659.4,307.9 660.5,304.3 661.7,307.1 662.8,307.9 663.9,309.5 665.1,300.9 666.2,306.4 667.3,297.4 668.5,302.9 669.6,299.4 670.7,298.1 671.9,304.1 673.0,302.1 674.1,305.2 675.3,300.2 676.4,306.2 677.5,287.0 678.7,302.0 679.8,295.7 680.9,305.5 682.1,285.6 683.2,308.4 684.3,296.6 685.5,301.1 686.6,305.6 687.7,298.5 688.9,299.9 690.0,310.0 691.1,309.5 692.2,305.0 693.4,306.7 694.5,302.2 695.6,299.5 696.8,301.2 697.9,297.2 699.0,303.4 700.2,295.6 701.3,294.4 702.4,297.3 703.6,307.4 704.7,308.2 705.8,306.3 707.0,302.2 708.1,307.8 709.2,307.3 710.4,304.0 711.5,304.6 712.6,300.3 713.8,305.4 714.9,307.2 716.0,307.0 717.2,305.4 718.3,310.2 719.4,309.9 720.6,305.7 721.7,298.8 722.8,305.7 724.0,303.6 725.1,294.9 726.2,300.5 727.4,298.7 728.5,306.1 729.6,302.8 730.8,303.9 731.9,307.3 733.0,305.6 734.2,303.9 735.3,307.4 736.4,308.4 737.6,304.2 738.7,309.2 739.8,302.8 741.0,307.4 742.1,309.7 743.2,308.1 744.4,308.6 745.5,310.6 746.6,299.2 747.8,311.5 748.9,308.5 750.0,299.7 751.2,298.7 752.3,298.2 753.4,300.5 754.6,300.5 755.7,302.8 756.8,289.1 758.0,299.5 759.1,303.2 760.2,300.9 761.4,298.8 762.5,305.3 763.6,298.9 764.8,300.5 765.9,308.6 767.0,300.4 768.1,307.3 769.3,302.3 770.4,304.7 771.5,305.5 772.7,303.0 773.8,299.4 774.9,300.4 776.1,307.8 777.2,300.2 778.3,300.6 779.5,299.7 780.6,299.9 781.7,299.6 782.9,304.6 784.0,303.6 785.1,300.5 786.3,308.1 787.4,307.7 788.5,302.9 789.7,310.4 790.8,305.6 791.9,305.1 793.1,310.0 794.2,300.4 795.3,306.6 796.5,308.0 797.6,309.4 798.7,303.8 799.9,305.7 801.0,302.6 802.1,303.4 803.3,301.9 804.4,305.5 805.5,300.6 806.7,297.6 807.8,288.5 808.9,303.5 810.1,298.4 811.2,303.6 812.3,303.5 813.5,302.6 814.6,295.5 815.7,296.8 816.9,302.9 818.0,302.1 819.1,302.2 820.3,303.2 821.4,292.6 822.5,301.1 823.7,302.0 824.8,306.5 825.9,305.7 827.1,310.2 828.2,300.4 829.3,299.7 830.5,304.5 831.6,294.0 832.7,301.4 833.9,299.7 835.0,299.7 836.1,299.4 837.2,302.1 838.4,304.2 839.5,300.4 840.6,301.6 841.8,296.3 842.9,289.4 844.0,304.4 845.2,305.8 846.3,298.2 847.4,307.1 848.6,302.2 849.7,312.5 850.8,297.1 852.0,309.7 853.1,308.9 854.2,296.5 855.4,310.0 856.5,302.4 857.6,302.8 858.8,312.3 859.9,310.2 861.0,298.6 862.2,288.8 863.3,300.3 864.4,285.8 865.6,300.4 866.7,312.0 867.8,308.2 869.0,303.9 870.1,306.3 871.2,313.9 872.4,292.2 873.5,297.9 874.6,319.3 875.8,305.5 876.9,309.0 878.0,303.9 879.2,310.2 880.3,302.1 881.4,308.2 882.6,301.9 883.7,290.6 884.8,300.2 886.0,297.9 887.1,299.9 888.2,297.1 889.4,299.6 890.5,302.1 891.6,307.9 892.8,312.6 893.9,299.8 895.0,311.5 896.2,309.9 897.3,310.2 898.4,307.9 899.6,302.0 900.7,298.1 901.8,309.8 903.0,315.3 904.1,311.4 905.2,314.3 906.4,308.8 907.5,312.6 908.6,313.1 909.8,303.7 910.9,292.7 912.0,301.7 913.1,302.7 914.3,303.2 915.4,303.4 916.5,299.8 917.7,310.7 918.8,312.6 919.9,309.2 921.1,314.2 922.2,311.5 923.3,308.0 924.5,308.3 925.6,301.1 926.7,308.9 927.9,310.3 929.0,313.1 930.1,296.4 931.3,306.6 932.4,310.2 933.5,307.0 934.7,305.6 935.8,307.5 936.9,299.5 938.1,299.6 939.2,299.9 940.3,303.8 941.5,303.7 942.6,305.7 943.7,309.4 944.9,312.2 946.0,308.2" fill="none" stroke="#2563eb" stroke-width="2.2" stroke-linejoin="round" stroke-linecap="round"/>
<polyline points="76.0,316.4 77.1,330.2 78.3,339.5 79.4,340.0 80.5,340.5 81.7,340.1 82.8,339.8 83.9,336.2 85.1,340.1 86.2,340.1 87.3,325.6 88.5,340.1 89.6,339.7 90.7,336.1 91.9,339.9 93.0,339.3 94.1,326.3 95.3,335.8 96.4,337.8 97.5,315.5 98.7,307.7 99.8,310.8 100.9,325.6 102.1,320.5 103.2,315.4 104.3,335.2 105.5,338.9 106.6,317.5 107.7,340.5 108.9,324.1 110.0,335.9 111.1,288.2 112.2,305.1 113.4,308.1 114.5,313.2 115.6,336.7 116.8,317.5 117.9,315.6 119.0,340.3 120.2,340.5 121.3,335.1 122.4,315.5 123.6,315.5 124.7,317.5 125.8,346.4 127.0,340.4 128.1,313.8 129.2,315.2 130.4,340.4 131.5,340.8 132.6,339.6 133.8,338.9 134.9,339.4 136.0,340.1 137.2,336.9 138.3,340.1 139.4,336.3 140.6,339.8 141.7,340.1 142.8,339.6 144.0,340.5 145.1,340.3 146.2,340.4 147.4,349.7 148.5,341.3 149.6,340.4 150.8,340.4 151.9,336.1 153.0,349.7 154.2,341.1 155.3,341.7 156.4,341.7 157.6,340.5 158.7,343.7 159.8,341.7 161.0,341.6 162.1,340.6 163.2,340.5 164.4,340.5 165.5,340.0 166.6,340.5 167.8,340.1 168.9,340.1 170.0,340.5 171.2,340.5 172.3,340.5 173.4,339.8 174.6,340.4 175.7,340.3 176.8,336.1 178.0,340.2 179.1,317.1 180.2,335.0 181.4,336.5 182.5,339.3 183.6,349.7 184.8,336.0 185.9,339.3 187.0,340.5 188.1,341.7 189.3,340.2 190.4,340.2 191.5,340.3 192.7,340.0 193.8,336.4 194.9,335.9 196.1,336.9 197.2,338.5 198.3,340.4 199.5,340.4 200.6,340.4 201.7,339.5 202.9,340.4 204.0,340.4 205.1,336.9 206.3,337.8 207.4,341.7 208.5,349.7 209.7,341.6 210.8,340.5 211.9,315.0 213.1,340.4 214.2,340.0 215.3,340.2 216.5,339.3 217.6,340.4 218.7,339.5 219.9,340.4 221.0,340.3 222.1,340.4 223.3,340.5 224.4,340.2 225.5,338.6 226.7,340.4 227.8,340.5 228.9,340.5 230.1,339.6 231.2,339.7 232.3,335.7 233.5,315.5 234.6,303.4 235.7,314.7 236.9,309.2 238.0,315.1 239.1,315.1 240.3,333.0 241.4,338.4 242.5,339.3 243.7,339.3 244.8,340.4 245.9,340.4 247.1,339.3 248.2,340.2 249.3,340.2 250.5,340.1 251.6,349.7 252.7,340.4 253.9,340.3 255.0,340.5 256.1,340.5 257.2,339.3 258.4,339.9 259.5,336.3 260.6,324.9 261.8,303.4 262.9,339.5 264.0,332.2 265.2,340.1 266.3,337.2 267.4,337.2 268.6,336.8 269.7,340.2 270.8,339.9 272.0,340.1 273.1,340.1 274.2,336.1 275.4,336.1 276.5,340.4 277.6,339.8 278.8,336.4 279.9,340.1 281.0,340.5 282.2,340.1 283.3,340.4 284.4,335.8 285.6,339.8 286.7,320.6 287.8,340.1 289.0,303.4 290.1,339.5 291.2,335.1 292.4,338.0 293.5,337.2 294.6,315.5 295.8,337.2 296.9,337.7 298.0,340.1 299.2,329.1 300.3,339.4 301.4,300.4 302.6,303.3 303.7,332.4 304.8,336.5 306.0,336.1 307.1,337.7 308.2,340.1 309.4,340.2 310.5,339.6 311.6,330.1 312.8,320.1 313.9,313.5 315.0,310.2 316.2,303.4 317.3,311.4 318.4,310.2 319.6,337.2 320.7,310.3 321.8,322.1 323.0,338.9 324.1,340.5 325.2,339.6 326.4,340.5 327.5,340.4 328.6,339.2 329.8,340.5 330.9,324.9 332.0,324.9 333.1,339.5 334.3,339.3 335.4,338.9 336.5,340.2 337.7,340.1 338.8,336.7 339.9,310.2 341.1,313.1 342.2,313.2 343.3,303.4 344.5,315.1 345.6,341.0 346.7,341.7 347.9,317.5 349.0,340.0 350.1,341.7 351.3,341.4 352.4,341.7 353.5,340.5 354.7,339.3 355.8,339.8 356.9,339.9 358.1,339.0 359.2,340.1 360.3,339.9 361.5,334.9 362.6,313.8 363.7,339.5 364.9,313.1 366.0,339.9 367.1,315.6 368.3,315.2 369.4,330.4 370.5,310.3 371.7,324.9 372.8,349.7 373.9,320.6 375.1,339.6 376.2,313.1 377.3,314.8 378.5,335.4 379.6,339.5 380.7,340.5 381.9,338.7 383.0,329.1 384.1,339.3 385.3,313.1 386.4,311.0 387.5,329.1 388.7,320.6 389.8,338.9 390.9,338.0 392.1,308.0 393.2,339.5 394.3,340.1 395.5,331.8 396.6,339.3 397.7,326.0 398.9,339.1 400.0,339.2 401.1,339.5 402.2,336.1 403.4,337.2 404.5,339.2 405.6,340.1 406.8,339.3 407.9,338.5 409.0,315.5 410.2,340.2 411.3,336.1 412.4,351.6 413.6,339.3 414.7,340.2 415.8,339.2 417.0,340.2 418.1,340.2 419.2,315.6 420.4,320.4 421.5,337.4 422.6,315.5 423.8,337.1 424.9,310.1 426.0,335.9 427.2,332.2 428.3,307.0 429.4,314.6 430.6,341.4 431.7,338.9 432.8,340.4 434.0,339.9 435.1,311.4 436.2,311.4 437.4,323.4 438.5,325.3 439.6,328.8 440.8,337.2 441.9,315.6 443.0,310.2 444.2,313.0 445.3,337.2 446.4,310.0 447.6,335.9 448.7,339.5 449.8,332.0 451.0,336.1 452.1,310.2 453.2,313.1 454.4,339.3 455.5,339.5 456.6,340.5 457.8,346.4 458.9,341.7 460.0,341.6 461.2,340.5 462.3,341.7 463.4,341.3 464.6,339.3 465.7,339.9 466.8,340.4 468.0,340.3 469.1,340.4 470.2,340.1 471.4,337.2 472.5,339.9 473.6,340.5 474.8,334.5 475.9,336.1 477.0,331.1 478.1,330.6 479.3,313.1 480.4,339.0 481.5,313.3 482.7,315.2 483.8,335.9 484.9,324.8 486.1,313.2 487.2,340.1 488.3,323.8 489.5,341.3 490.6,340.5 491.7,302.2 492.9,310.1 494.0,330.6 495.1,331.0 496.3,324.0 497.4,315.2 498.5,340.4 499.7,326.5 500.8,339.6 501.9,336.9 503.1,335.1 504.2,314.5 505.3,313.3 506.5,303.4 507.6,307.4 508.7,310.3 509.9,313.9 511.0,337.2 512.1,339.5 513.3,335.0 514.4,340.2 515.5,339.3 516.7,340.5 517.8,339.5 518.9,339.5 520.1,330.6 521.2,340.4 522.3,340.0 523.5,340.1 524.6,340.2 525.7,340.2 526.9,340.2 528.0,340.1 529.1,339.5 530.3,332.2 531.4,331.9 532.5,310.3 533.7,348.7 534.8,340.8 535.9,349.7 537.1,340.5 538.2,334.4 539.3,305.8 540.5,339.7 541.6,339.6 542.7,320.7 543.9,340.5 545.0,339.6 546.1,340.1 547.2,339.0 548.4,335.9 549.5,335.8 550.6,339.3 551.8,340.5 552.9,340.4 554.0,338.6 555.2,339.8 556.3,315.4 557.4,337.4 558.6,315.0 559.7,338.1 560.8,310.3 562.0,314.7 563.1,315.6 564.2,335.4 565.4,339.3 566.5,337.9 567.6,340.8 568.8,323.4 569.9,340.2 571.0,341.7 572.2,336.8 573.3,331.0 574.4,340.1 575.6,336.7 576.7,337.2 577.8,340.2 579.0,339.9 580.1,339.3 581.2,336.1 582.4,340.4 583.5,340.3 584.6,337.2 585.8,338.7 586.9,315.6 588.0,335.9 589.2,313.1 590.3,313.3 591.4,310.2 592.6,335.8 593.7,332.2 594.8,335.8 596.0,340.4 597.1,336.9 598.2,340.5 599.4,340.1 600.5,339.5 601.6,340.4 602.8,340.2 603.9,340.5 605.0,339.3 606.2,340.5 607.3,338.7 608.4,340.1 609.6,340.5 610.7,338.1 611.8,287.9 613.0,339.3 614.1,340.5 615.2,324.5 616.4,336.5 617.5,335.1 618.6,337.2 619.8,339.5 620.9,340.1 622.0,340.4 623.1,340.2 624.3,340.1 625.4,340.3 626.5,340.5 627.7,340.4 628.8,340.5 629.9,340.4 631.1,340.2 632.2,340.4 633.3,340.5 634.5,340.2 635.6,339.5 636.7,341.2 637.9,339.5 639.0,339.9 640.1,310.1 641.3,324.8 642.4,314.2 643.5,305.4 644.7,315.3 645.8,335.9 646.9,315.6 648.1,335.9 649.2,338.5 650.3,340.2 651.5,339.2 652.6,339.5 653.7,336.3 654.9,340.2 656.0,340.4 657.1,340.4 658.3,310.2 659.4,339.9 660.5,336.4 661.7,340.5 662.8,339.3 663.9,340.5 665.1,339.3 666.2,340.4 667.3,315.5 668.5,339.8 669.6,311.3 670.7,313.3 671.9,339.3 673.0,336.3 674.1,339.5 675.3,335.1 676.4,339.8 677.5,310.1 678.7,336.1 679.8,334.2 680.9,339.3 682.1,300.4 683.2,340.1 684.3,315.5 685.5,315.6 686.6,339.3 687.7,323.5 688.9,323.6 690.0,339.6 691.1,340.4 692.2,339.5 693.4,339.5 694.5,335.8 695.6,313.1 696.8,313.1 697.9,315.1 699.0,339.3 700.2,315.5 701.3,315.3 702.4,332.6 703.6,337.4 704.7,340.5 705.8,340.1 707.0,339.4 708.1,340.1 709.2,340.0 710.4,336.1 711.5,339.0 712.6,336.9 713.8,340.1 714.9,339.5 716.0,339.3 717.2,336.1 718.3,340.2 719.4,340.4 720.6,337.4 721.7,311.9 722.8,331.4 724.0,310.2 725.1,311.2 726.2,313.9 727.4,311.3 728.5,340.1 729.6,332.3 730.8,339.3 731.9,338.6 733.0,339.6 734.2,340.5 735.3,340.1 736.4,339.4 737.6,339.3 738.7,340.2 739.8,336.1 741.0,337.2 742.1,340.4 743.2,339.5 744.4,340.1 745.5,340.4 746.6,332.8 747.8,340.5 748.9,339.1 750.0,324.9 751.2,307.7 752.3,315.1 753.4,332.8 754.6,332.1 755.7,328.8 756.8,303.3 758.0,315.6 759.1,336.6 760.2,336.1 761.4,340.1 762.5,329.8 763.6,329.1 764.8,335.8 765.9,339.3 767.0,336.1 768.1,340.1 769.3,329.2 770.4,338.6 771.5,339.5 772.7,330.9 773.8,314.0 774.9,320.6 776.1,339.3 777.2,313.3 778.3,311.4 779.5,313.1 780.6,315.1 781.7,317.5 782.9,336.4 784.0,337.3 785.1,323.0 786.3,340.1 787.4,340.4 788.5,340.5 789.7,340.5 790.8,340.1 791.9,339.3 793.1,340.3 794.2,335.8 795.3,339.8 796.5,340.1 797.6,339.7 798.7,339.3 799.9,340.5 801.0,336.1 802.1,339.3 803.3,320.6 804.4,336.1 805.5,310.2 806.7,329.6 807.8,311.4 808.9,337.2 810.1,313.8 811.2,339.3 812.3,339.3 813.5,336.6 814.6,315.6 815.7,339.3 816.9,335.4 818.0,332.5 819.1,329.1 820.3,335.4 821.4,309.8 822.5,317.5 823.7,339.3 824.8,337.4 825.9,335.0 827.1,339.3 828.2,328.1 829.3,313.2 830.5,315.3 831.6,310.0 832.7,310.2 833.9,313.1 835.0,315.6 836.1,315.1 837.2,324.8 838.4,330.9 839.5,336.2 840.6,336.3 841.8,310.2 842.9,310.0 844.0,339.3 845.2,336.4 846.3,310.2 847.4,340.2 848.6,313.2 849.7,339.5 850.8,340.2 852.0,338.3 853.1,338.4 854.2,313.1 855.4,340.5 856.5,335.8 857.6,315.3 858.8,335.4 859.9,332.1 861.0,310.8 862.2,311.3 863.3,329.1 864.4,301.3 865.6,339.6 866.7,340.5 867.8,340.5 869.0,337.0 870.1,340.2 871.2,340.5 872.4,309.1 873.5,313.1 874.6,340.5 875.8,337.2 876.9,339.9 878.0,336.6 879.2,340.2 880.3,337.2 881.4,326.7 882.6,340.4 883.7,337.3 884.8,315.4 886.0,313.2 887.1,310.2 888.2,310.8 889.4,310.5 890.5,329.9 891.6,336.1 892.8,340.0 893.9,337.0 895.0,340.5 896.2,340.5 897.3,340.5 898.4,327.7 899.6,340.3 900.7,336.5 901.8,340.5 903.0,349.7 904.1,349.7 905.2,349.7 906.4,340.1 907.5,340.5 908.6,340.5 909.8,339.8 910.9,316.5 912.0,313.8 913.1,313.1 914.3,313.0 915.4,335.7 916.5,313.5 917.7,343.0 918.8,340.5 919.9,340.5 921.1,340.5 922.2,337.2 923.3,337.4 924.5,339.5 925.6,335.9 926.7,340.1 927.9,340.4 929.0,340.4 930.1,317.5 931.3,339.3 932.4,337.4 933.5,339.3 934.7,337.2 935.8,336.4 936.9,315.6 938.1,313.5 939.2,319.1 940.3,332.4 941.5,309.6 942.6,346.4 943.7,347.2 944.9,340.5 946.0,340.0" fill="none" stroke="#059669" stroke-width="2.2" stroke-linejoin="round" stroke-linecap="round"/>
<polyline points="76.0,211.6 77.1,219.5 78.3,226.3 79.4,231.4 80.5,239.6 81.7,231.4 82.8,226.2 83.9,219.8 85.1,226.4 86.2,226.3 87.3,202.2 88.5,226.4 89.6,227.6 90.7,226.3 91.9,229.2 93.0,230.7 94.1,214.2 95.3,219.5 96.4,239.3 97.5,219.4 98.7,218.6 99.8,202.2 100.9,223.2 102.1,226.1 103.2,226.4 104.3,223.4 105.5,226.2 106.6,215.9 107.7,219.4 108.9,202.5 110.0,202.2 111.1,162.0 112.2,171.9 113.4,171.9 114.5,212.3 115.6,218.6 116.8,212.3 117.9,210.8 119.0,236.5 120.2,244.4 121.3,233.3 122.4,226.2 123.6,226.8 124.7,226.3 125.8,230.6 127.0,223.3 128.1,216.4 129.2,224.5 130.4,216.9 131.5,239.6 132.6,237.1 133.8,231.9 134.9,232.5 136.0,233.3 137.2,226.4 138.3,226.4 139.4,227.4 140.6,230.8 141.7,234.5 142.8,226.3 144.0,239.6 145.1,243.8 146.2,236.8 147.4,248.0 148.5,242.8 149.6,243.7 150.8,242.2 151.9,239.5 153.0,255.3 154.2,208.8 155.3,239.9 156.4,240.9 157.6,237.9 158.7,252.2 159.8,246.0 161.0,249.8 162.1,244.4 163.2,235.4 164.4,236.5 165.5,231.4 166.6,226.5 167.8,232.8 168.9,236.5 170.0,249.6 171.2,241.9 172.3,244.4 173.4,234.5 174.6,233.2 175.7,233.5 176.8,219.4 178.0,242.3 179.1,226.3 180.2,235.1 181.4,234.5 182.5,246.3 183.6,252.5 184.8,226.4 185.9,230.9 187.0,245.8 188.1,240.4 189.3,232.9 190.4,238.1 191.5,239.6 192.7,236.4 193.8,226.4 194.9,226.4 196.1,233.2 197.2,236.4 198.3,245.2 199.5,240.9 200.6,249.7 201.7,233.5 202.9,233.6 204.0,240.4 205.1,239.6 206.3,239.9 207.4,244.6 208.5,243.8 209.7,243.8 210.8,236.4 211.9,202.7 213.1,226.3 214.2,226.3 215.3,219.4 216.5,232.7 217.6,236.5 218.7,234.6 219.9,236.5 221.0,233.9 222.1,239.6 223.3,239.6 224.4,236.5 225.5,233.3 226.7,242.0 227.8,242.2 228.9,240.9 230.1,231.1 231.2,230.0 232.3,240.2 233.5,229.7 234.6,235.5 235.7,234.5 236.9,209.6 238.0,226.4 239.1,226.3 240.3,226.2 241.4,228.0 242.5,226.4 243.7,239.6 244.8,239.6 245.9,235.1 247.1,233.3 248.2,238.8 249.3,239.6 250.5,240.0 251.6,255.1 252.7,236.5 253.9,236.5 255.0,244.4 256.1,244.4 257.2,236.5 258.4,235.3 259.5,228.6 260.6,226.4 261.8,244.4 262.9,226.3 264.0,202.2 265.2,234.7 266.3,236.4 267.4,226.3 268.6,231.8 269.7,236.4 270.8,239.6 272.0,236.4 273.1,235.8 274.2,236.9 275.4,226.4 276.5,241.6 277.6,237.1 278.8,226.4 279.9,235.8 281.0,241.9 282.2,243.9 283.3,251.5 284.4,227.1 285.6,226.3 286.7,227.4 287.8,238.0 289.0,250.5 290.1,230.8 291.2,226.2 292.4,226.4 293.5,228.2 294.6,225.6 295.8,232.6 296.9,226.4 298.0,231.2 299.2,214.7 300.3,226.2 301.4,162.0 302.6,172.9 303.7,202.5 304.8,213.1 306.0,204.0 307.1,226.3 308.2,235.5 309.4,231.0 310.5,229.7 311.6,219.6 312.8,219.4 313.9,226.3 315.0,202.5 316.2,230.0 317.3,202.2 318.4,202.2 319.6,226.3 320.7,213.1 321.8,219.8 323.0,227.4 324.1,226.3 325.2,227.4 326.4,227.1 327.5,229.6 328.6,226.4 329.8,236.4 330.9,211.5 332.0,224.5 333.1,236.5 334.3,235.3 335.4,226.3 336.5,231.4 337.7,233.3 338.8,226.3 339.9,205.1 341.1,223.3 342.2,226.1 343.3,261.2 344.5,222.6 345.6,217.1 346.7,243.4 347.9,218.1 349.0,231.4 350.1,236.7 351.3,244.4 352.4,244.1 353.5,236.4 354.7,236.4 355.8,230.4 356.9,226.4 358.1,243.8 359.2,234.7 360.3,234.0 361.5,221.2 362.6,213.5 363.7,231.1 364.9,184.3 366.0,234.2 367.1,217.6 368.3,225.1 369.4,226.3 370.5,230.6 371.7,217.5 372.8,244.1 373.9,217.9 375.1,224.4 376.2,202.1 377.3,199.5 378.5,197.7 379.6,219.4 380.7,213.3 381.9,226.4 383.0,172.0 384.1,223.4 385.3,207.7 386.4,208.3 387.5,202.2 388.7,224.6 389.8,231.1 390.9,226.4 392.1,170.6 393.2,226.2 394.3,234.7 395.5,226.1 396.6,226.4 397.7,178.2 398.9,202.8 400.0,229.3 401.1,234.7 402.2,226.4 403.4,212.5 404.5,236.5 405.6,235.8 406.8,227.4 407.9,226.4 409.0,223.3 410.2,233.3 411.3,226.3 412.4,255.4 413.6,234.3 414.7,234.5 415.8,233.3 417.0,236.3 418.1,236.3 419.2,227.4 420.4,226.1 421.5,226.3 422.6,226.3 423.8,226.3 424.9,217.6 426.0,226.3 427.2,217.5 428.3,216.1 429.4,226.2 430.6,236.3 431.7,217.6 432.8,226.3 434.0,221.9 435.1,212.3 436.2,202.8 437.4,217.9 438.5,226.3 439.6,217.9 440.8,235.7 441.9,226.3 443.0,208.3 444.2,209.7 445.3,226.3 446.4,226.3 447.6,226.3 448.7,236.4 449.8,226.3 451.0,238.0 452.1,226.2 453.2,225.9 454.4,226.4 455.5,226.9 456.6,234.3 457.8,251.6 458.9,236.5 460.0,238.9 461.2,242.8 462.3,236.4 463.4,232.8 464.6,218.3 465.7,234.9 466.8,236.4 468.0,236.4 469.1,236.3 470.2,231.4 471.4,228.4 472.5,234.3 473.6,243.9 474.8,223.3 475.9,226.2 477.0,226.3 478.1,231.5 479.3,229.3 480.4,229.7 481.5,212.8 482.7,216.0 483.8,223.3 484.9,229.5 486.1,216.7 487.2,226.3 488.3,218.5 489.5,227.2 490.6,236.4 491.7,171.9 492.9,202.2 494.0,226.3 495.1,202.9 496.3,215.1 497.4,217.4 498.5,236.3 499.7,224.6 500.8,231.3 501.9,226.2 503.1,218.5 504.2,215.1 505.3,202.4 506.5,194.7 507.6,197.0 508.7,211.6 509.9,202.5 511.0,217.9 512.1,231.1 513.3,216.1 514.4,236.5 515.5,226.1 516.7,225.6 517.8,226.4 518.9,221.8 520.1,226.2 521.2,243.8 522.3,229.3 523.5,234.6 524.6,236.4 525.7,229.8 526.9,236.4 528.0,239.6 529.1,243.8 530.3,226.5 531.4,227.2 532.5,226.3 533.7,236.4 534.8,230.8 535.9,226.4 537.1,234.8 538.2,229.7 539.3,92.4 540.5,217.9 541.6,226.3 542.7,216.6 543.9,234.7 545.0,233.3 546.1,226.3 547.2,226.3 548.4,226.3 549.5,223.3 550.6,226.1 551.8,236.4 552.9,241.7 554.0,236.4 555.2,234.9 556.3,216.6 557.4,226.4 558.6,226.3 559.7,241.3 560.8,235.5 562.0,219.9 563.1,215.3 564.2,233.3 565.4,229.8 566.5,233.7 567.6,236.6 568.8,202.8 569.9,236.5 571.0,236.5 572.2,219.5 573.3,223.4 574.4,231.1 575.6,223.2 576.7,222.7 577.8,229.9 579.0,235.1 580.1,236.2 581.2,226.3 582.4,241.0 583.5,243.6 584.6,228.0 585.8,239.9 586.9,226.3 588.0,230.9 589.2,214.7 590.3,217.6 591.4,217.6 592.6,226.2 593.7,226.3 594.8,219.9 596.0,237.4 597.1,227.1 598.2,234.6 599.4,226.4 600.5,226.4 601.6,239.9 602.8,219.8 603.9,236.8 605.0,227.4 606.2,239.9 607.3,226.2 608.4,235.0 609.6,234.6 610.7,226.2 611.8,170.5 613.0,226.3 614.1,227.5 615.2,227.6 616.4,229.7 617.5,226.3 618.6,226.3 619.8,243.0 620.9,226.4 622.0,233.3 623.1,226.4 624.3,231.5 625.4,229.7 626.5,241.9 627.7,235.3 628.8,239.9 629.9,239.5 631.1,235.4 632.2,239.6 633.3,236.8 634.5,243.8 635.6,226.4 636.7,244.4 637.9,215.4 639.0,228.1 640.1,208.3 641.3,216.5 642.4,226.4 643.5,204.4 644.7,226.3 645.8,226.1 646.9,226.3 648.1,234.7 649.2,226.4 650.3,239.6 651.5,226.3 652.6,230.0 653.7,225.4 654.9,226.4 656.0,237.9 657.1,239.1 658.3,202.8 659.4,233.6 660.5,233.3 661.7,238.6 662.8,233.3 663.9,235.3 665.1,219.4 666.2,235.8 667.3,215.4 668.5,233.2 669.6,225.8 670.7,222.5 671.9,228.0 673.0,226.3 674.1,226.4 675.3,222.6 676.4,232.4 677.5,198.4 678.7,223.1 679.8,214.7 680.9,234.7 682.1,171.9 683.2,233.3 684.3,202.2 685.5,222.8 686.6,219.5 687.7,212.6 688.9,218.6 690.0,242.8 691.1,234.7 692.2,226.2 693.4,231.0 694.5,226.3 695.6,212.6 696.8,226.3 697.9,209.7 699.0,226.3 700.2,202.5 701.3,202.2 702.4,204.3 703.6,226.4 704.7,238.2 705.8,226.4 707.0,219.4 708.1,233.8 709.2,234.7 710.4,222.8 711.5,226.3 712.6,217.6 713.8,234.4 714.9,233.3 716.0,234.6 717.2,239.6 718.3,243.7 719.4,232.5 720.6,231.1 721.7,221.6 722.8,230.8 724.0,231.0 725.1,206.6 726.2,223.4 727.4,218.3 728.5,229.8 729.6,227.4 730.8,228.1 731.9,235.3 733.0,234.7 734.2,226.4 735.3,232.3 736.4,239.6 737.6,226.7 738.7,240.4 739.8,228.0 741.0,234.5 742.1,239.6 743.2,239.6 744.4,236.6 745.5,240.9 746.6,214.8 747.8,231.1 748.9,236.4 750.0,225.7 751.2,226.2 752.3,225.2 753.4,225.2 754.6,217.9 755.7,226.4 756.8,174.3 758.0,213.0 759.1,226.3 760.2,216.7 761.4,220.8 762.5,234.7 763.6,218.6 764.8,217.7 765.9,235.3 767.0,224.9 768.1,230.9 769.3,226.3 770.4,226.3 771.5,233.2 772.7,223.3 773.8,214.1 774.9,210.8 776.1,235.7 777.2,226.0 778.3,227.3 779.5,221.8 780.6,226.2 781.7,214.5 782.9,231.9 784.0,226.6 785.1,226.3 786.3,236.4 787.4,233.0 788.5,226.3 789.7,239.6 790.8,226.7 791.9,226.4 793.1,240.1 794.2,217.6 795.3,233.3 796.5,230.7 797.6,237.3 798.7,226.7 799.9,228.3 801.0,225.2 802.1,226.4 803.3,227.4 804.4,226.3 805.5,221.3 806.7,211.2 807.8,197.3 808.9,227.5 810.1,214.8 811.2,232.3 812.3,226.2 813.5,226.3 814.6,202.3 815.7,210.9 816.9,226.4 818.0,220.6 819.1,223.3 820.3,226.4 821.4,191.2 822.5,218.2 823.7,226.3 824.8,233.3 825.9,227.4 827.1,236.4 828.2,222.0 829.3,219.4 830.5,236.4 831.6,201.0 832.7,226.3 833.9,226.6 835.0,219.4 836.1,226.2 837.2,226.4 838.4,226.4 839.5,224.2 840.6,218.6 841.8,202.6 842.9,185.3 844.0,226.4 845.2,226.7 846.3,202.9 847.4,230.1 848.6,229.6 849.7,244.4 850.8,243.2 852.0,240.6 853.1,239.9 854.2,194.3 855.4,248.1 856.5,211.3 857.6,236.5 858.8,244.4 859.9,243.5 861.0,226.4 862.2,176.0 863.3,226.3 864.4,197.1 865.6,232.2 866.7,239.5 867.8,244.3 869.0,223.3 870.1,231.2 871.2,259.7 872.4,171.9 873.5,202.8 874.6,259.9 875.8,226.4 876.9,229.2 878.0,226.3 879.2,239.9 880.3,226.3 881.4,233.3 882.6,219.4 883.7,183.2 884.8,226.4 886.0,207.1 887.1,212.7 888.2,211.2 889.4,202.4 890.5,226.8 891.6,230.5 892.8,246.6 893.9,215.9 895.0,243.9 896.2,227.6 897.3,235.1 898.4,233.2 899.6,244.3 900.7,232.4 901.8,240.9 903.0,251.3 904.1,248.8 905.2,255.6 906.4,239.6 907.5,241.9 908.6,244.2 909.8,202.0 910.9,197.2 912.0,227.5 913.1,220.9 914.3,226.5 915.4,219.4 916.5,219.5 917.7,236.3 918.8,239.6 919.9,240.4 921.1,249.2 922.2,241.5 923.3,240.4 924.5,233.9 925.6,209.7 926.7,239.6 927.9,236.4 929.0,244.2 930.1,215.8 931.3,226.4 932.4,239.6 933.5,230.7 934.7,227.6 935.8,233.3 936.9,217.6 938.1,225.2 939.2,219.7 940.3,226.3 941.5,233.0 942.6,227.9 943.7,230.9 944.9,261.3 946.0,240.3" fill="none" stroke="#d97706" stroke-width="2.2" stroke-linejoin="round" stroke-linecap="round"/>
<line x1="76" y1="70" x2="94" y2="70" stroke="#2563eb" stroke-width="3"/>
<text x="100" y="74" font-family="Arial, sans-serif" font-size="11" fill="#0f172a">avg fee</text>
<line x1="179" y1="70" x2="197" y2="70" stroke="#059669" stroke-width="3"/>
<text x="203" y="74" font-family="Arial, sans-serif" font-size="11" fill="#0f172a">median fee</text>
<line x1="303" y1="70" x2="321" y2="70" stroke="#d97706" stroke-width="3"/>
<text x="327" y="74" font-family="Arial, sans-serif" font-size="11" fill="#0f172a">p90 fee</text>
<text x="28" y="404" font-family="Arial, sans-serif" font-size="11" fill="#64748b">Source: hourly_features.csv</text>
</svg>