<svg xmlns="http://www.w3.org/2000/svg" width="980" height="420" viewBox="0 0 980 420">
<rect width="100%" height="100%" fill="#ffffff"/>
<text x="28" y="34" font-family="Arial, sans-serif" font-size="20" font-weight="700" fill="#0f172a">Hourly fee trend</text>
<text x="28" y="56" font-family="Arial, sans-serif" font-size="12" fill="#64748b">Average, median, and p90 total fee by hour</text>
<line x1="76" y1="362.0" x2="946" y2="362.0" stroke="#e2e8f0" stroke-width="1"/>
<text x="68" y="366.0" font-family="Arial, sans-serif" font-size="10" text-anchor="end" fill="#64748b">-311K</text>
<line x1="76" y1="292.0" x2="946" y2="292.0" stroke="#e2e8f0" stroke-width="1"/>
<text x="68" y="296.0" font-family="Arial, sans-serif" font-size="10" text-anchor="end" fill="#64748b">2.7M</text>
<line x1="76" y1="222.0" x2="946" y2="222.0" stroke="#e2e8f0" stroke-width="1"/>
<text x="68" y="226.0" font-family="Arial, sans-serif" font-size="10" text-anchor="end" fill="#64748b">5.7M</text>
<line x1="76" y1="152.0" x2="946" y2="152.0" stroke="#e2e8f0" stroke-width="1"/>
<text x="68" y="156.0" font-family="Arial, sans-serif" font-size="10" text-anchor="end" fill="#64748b">8.7M</text>
<line x1="76" y1="82.0" x2="946" y2="82.0" stroke="#e2e8f0" stroke-width="1"/>
<text x="68" y="86.0" font-family="Arial, sans-serif" font-size="10" text-anchor="end" fill="#64748b">11.7M</text>
<line x1="76" y1="362" x2="946" y2="362" stroke="#334155" stroke-width="1"/>
<line x1="76" y1="82" x2="76" y2="362" stroke="#334155" stroke-width="1"/>
<text x="76" y="72" font-family="Arial, sans-serif" font-size="11" fill="#64748b">nanoton</text>
<line x1="76.0" y1="362" x2="76.0" y2="366" stroke="#334155" stroke-width="1"/>
<text x="76.0" y="380" font-family="Arial, sans-serif" font-size="10" text-anchor="middle" fill="#64748b">0</text>
<line x1="511.0" y1="362" x2="511.0" y2="366" stroke="#334155" stroke-width="1"/>
<text x="511.0" y="380" font-family="Arial, sans-serif" font-size="10" text-anchor="middle" fill="#64748b">402</text>
<line x1="946.0" y1="362" x2="946.0" y2="366" stroke="#334155" stroke-width="1"/>
<text x="946.0" y="380" font-family="Arial, sans-serif" font-size="10" text-anchor="middle" fill="#64748b">804</text>
<polyline points="76.0,292.0 77.1,295.8 78.2,297.2 79.2,299.3 80.3,306.1 81.4,298.4 82.5,299.4 83.6,295.8 84.7,300.2 85.7,300.0 86.8,288.9 87.9,300.8 89.0,300.9 90.1,298.6 91.1,301.5 92.2,301.7 93.3,293.7 94.4,293.7 95.5,302.6 96.6,292.3 97.6,290.4 98.7,288.5 99.8,295.1 100.9,295.4 102.0,297.3 103.1,293.3 104.1,298.9 105.2,291.8 106.3,294.5 107.4,289.5 108.5,290.2 109.5,274.2 110.6,285.8 111.7,286.5 112.8,295.8 113.9,301.2 115.0,294.1 116.0,296.1 117.1,305.9 118.2,308.8 119.3,303.4 120.4,298.2 121.4,299.9 122.5,299.2 123.6,305.7 124.7,298.6 125.8,295.7 126.9,297.7 127.9,299.9 129.0,304.4 130.1,304.4 131.2,303.2 132.3,301.6 133.4,304.6 134.4,303.5 135.5,300.7 136.6,300.4 137.7,304.1 138.8,300.4 139.8,302.6 140.9,308.1 142.0,310.0 143.1,307.7 144.2,308.4 145.3,310.4 146.3,307.2 147.4,306.8 148.5,303.3 149.6,309.8 150.7,291.9 151.7,307.7 152.8,307.7 153.9,307.6 155.0,312.6 156.1,308.4 157.2,311.6 158.2,310.4 159.3,306.8 160.4,306.7 161.5,304.5 162.6,304.7 163.6,302.6 164.7,306.4 165.8,308.7 166.9,308.2 168.0,309.4 169.1,306.3 170.1,304.2 171.2,304.0 172.3,299.8 173.4,306.2 174.5,298.3 175.6,300.5 176.6,301.6 177.7,305.2 178.8,312.9 179.9,301.4 181.0,301.8 182.0,310.2 183.1,308.8 184.2,301.5 185.3,305.5 186.4,306.4 187.5,303.9 188.5,301.7 189.6,298.7 190.7,299.9 191.8,303.2 192.9,309.4 193.9,308.7 195.0,308.7 196.1,304.4 197.2,303.2 198.3,305.4 199.4,305.2 200.4,305.3 201.5,309.6 202.6,310.2 203.7,308.6 204.8,302.3 205.9,288.0 206.9,302.9 208.0,300.0 209.1,297.3 210.2,300.8 211.3,306.8 212.3,302.8 213.4,306.2 214.5,303.4 215.6,306.2 216.7,308.1 217.8,306.2 218.8,302.0 219.9,306.1 221.0,309.3 222.1,303.7 223.2,303.0 224.2,304.4 225.3,304.6 226.4,300.2 227.5,299.7 228.6,299.2 229.7,290.6 230.7,298.1 231.8,297.6 232.9,296.7 234.0,300.9 235.1,300.3 236.1,305.9 237.2,305.3 238.3,305.1 239.4,300.4 240.5,302.5 241.6,307.0 242.6,305.8 243.7,313.4 244.8,307.0 245.9,305.6 247.0,308.3 248.1,308.2 249.1,303.2 250.2,305.1 251.3,302.0 252.4,302.9 253.5,301.5 254.5,300.0 255.6,291.8 256.7,297.3 257.8,301.8 258.9,297.8 260.0,304.0 261.0,303.8 262.1,304.3 263.2,303.9 264.3,304.1 265.4,305.0 266.4,301.4 267.5,306.9 268.6,304.2 269.7,300.5 270.8,304.1 271.9,308.0 272.9,307.4 274.0,308.0 275.1,299.7 276.2,302.9 277.3,299.1 278.4,305.1 279.4,301.5 280.5,300.7 281.6,296.9 282.7,299.4 283.8,299.6 284.8,295.0 285.9,301.2 287.0,299.1 288.1,299.9 289.2,295.4 290.3,299.1 291.3,279.1 292.4,285.4 293.5,296.4 294.6,297.0 295.7,295.6 296.7,302.0 297.8,305.5 298.9,303.7 300.0,303.4 301.1,299.1 302.2,296.5 303.2,297.8 304.3,292.6 305.4,293.2 306.5,291.8 307.6,291.2 308.6,300.9 309.7,293.2 310.8,298.0 311.9,301.0 313.0,305.0 314.1,303.7 315.1,303.3 316.2,303.5 317.3,302.1 318.4,304.8 319.5,297.1 320.6,299.0 321.6,305.7 322.7,305.5 323.8,300.8 324.9,305.2 326.0,304.7 327.0,300.2 328.1,289.9 329.2,294.9 330.3,295.4 331.4,304.9 332.5,296.8 333.5,298.2 334.6,306.9 335.7,296.1 336.8,301.7 337.9,306.4 338.9,309.8 340.0,306.7 341.1,305.3 342.2,301.9 343.3,305.1 344.4,300.5 345.4,304.3 346.5,306.3 347.6,304.3 348.7,300.6 349.8,295.6 350.9,301.2 351.9,287.4 353.0,303.4 354.1,295.1 355.2,299.2 356.3,300.7 357.3,298.7 358.4,295.7 359.5,311.7 360.6,292.8 361.7,296.8 362.8,282.8 363.8,295.8 364.9,294.5 366.0,296.2 367.1,292.2 368.2,302.3 369.2,281.0 370.3,298.5 371.4,293.1 372.5,292.7 373.6,284.4 374.7,299.5 375.7,301.6 376.8,299.9 377.9,289.6 379.0,300.3 380.1,305.6 381.1,299.0 382.2,296.8 383.3,280.9 384.4,285.3 385.5,301.8 386.6,301.1 387.6,299.3 388.7,294.6 389.8,304.4 390.9,304.3 392.0,299.9 393.1,298.0 394.1,298.6 395.2,302.6 396.3,299.4 397.4,312.8 398.5,300.7 399.5,304.8 400.6,302.4 401.7,304.2 402.8,305.5 403.9,299.1 405.0,295.6 406.0,300.5 407.1,296.3 408.2,303.1 409.3,293.8 410.4,298.8 411.4,295.1 412.5,291.2 413.6,296.3 414.7,305.8 415.8,292.3 416.9,301.6 417.9,297.1 419.0,294.3 420.1,292.8 421.2,298.1 422.3,298.4 423.4,299.1 424.4,300.8 425.5,294.1 426.6,287.4 427.7,291.3 428.8,301.2 429.8,295.7 430.9,302.2 432.0,304.3 433.1,300.4 434.2,303.8 435.3,296.4 436.3,298.3 437.4,304.0 438.5,302.9 439.6,304.2 440.7,310.0 441.7,308.1 442.8,307.4 443.9,307.8 445.0,305.6 446.1,305.7 447.2,299.6 448.2,302.4 449.3,304.4 450.4,304.6 451.5,305.5 452.6,303.6 453.6,300.6 454.7,305.8 455.8,308.4 456.9,298.5 458.0,300.2 459.1,299.3 460.1,300.9 461.2,299.1 462.3,302.3 463.4,288.4 464.5,295.5 465.6,296.0 466.6,299.9 467.7,292.5 468.8,299.6 469.9,295.8 471.0,300.0 472.0,305.5 473.1,283.3 474.2,291.0 475.3,300.1 476.4,296.4 477.5,294.6 478.5,295.9 479.6,305.6 480.7,298.1 481.8,303.0 482.9,298.0 483.9,296.8 485.0,294.1 486.1,292.9 487.2,287.9 488.3,288.9 489.4,295.4 490.4,293.8 491.5,298.7 492.6,304.4 493.7,298.0 494.8,305.4 495.9,299.9 496.9,299.0 498.0,300.6 499.1,298.4 500.2,297.8 501.3,306.8 502.3,303.2 503.4,305.8 504.5,304.2 505.6,304.7 506.7,304.0 507.8,305.8 508.8,303.0 509.9,301.3 511.0,298.5 512.1,296.2 513.2,306.3 514.2,304.0 515.3,305.0 516.4,304.1 517.5,299.7 518.6,258.0 519.7,292.2 520.7,299.7 521.8,297.5 522.9,302.3 524.0,302.9 525.1,301.1 526.1,300.6 527.2,300.9 528.3,297.2 529.4,300.7 530.5,306.9 531.6,307.8 532.6,302.1 533.7,304.0 534.8,296.3 535.9,303.5 537.0,298.1 538.1,306.1 539.1,300.3 540.2,296.8 541.3,296.4 542.4,302.2 543.5,302.2 544.5,301.9 545.6,305.8 546.7,293.8 547.8,304.8 548.9,307.3 550.0,296.7 551.0,298.7 552.1,304.1 553.2,297.1 554.3,300.7 555.4,305.2 556.4,303.0 557.5,305.1 558.6,302.0 559.7,307.4 560.8,306.9 561.9,302.1 562.9,304.5 564.0,298.3 565.1,301.4 566.2,293.5 567.3,293.2 568.4,293.3 569.4,300.5 570.5,299.7 571.6,300.1 572.7,302.8 573.8,300.9 574.8,306.6 575.9,301.5 577.0,301.8 578.1,306.0 579.2,300.4 580.3,305.7 581.3,300.9 582.4,307.7 583.5,300.4 584.6,305.7 585.7,304.6 586.7,299.3 587.8,264.7 588.9,304.2 590.0,305.8 591.1,302.6 592.2,302.1 593.2,299.5 594.3,301.2 595.4,304.0 596.5,299.9 597.6,305.3 598.6,304.0 599.7,304.3 600.8,302.4 601.9,309.7 603.0,305.7 604.1,310.4 605.1,305.8 606.2,305.0 607.3,306.2 608.4,304.9 609.5,306.6 610.6,300.8 611.6,306.5 612.7,298.3 613.8,303.5 614.9,289.3 616.0,295.8 617.0,301.0 618.1,288.5 619.2,300.3 620.3,299.7 621.4,298.1 622.5,302.4 623.5,300.8 624.6,303.9 625.7,300.5 626.8,304.3 627.9,299.2 628.9,302.9 630.0,306.6 631.1,305.8 632.2,291.6 633.3,304.4 634.4,300.9 635.4,303.6 636.5,304.4 637.6,305.9 638.7,297.5 639.8,302.9 640.9,294.1 641.9,299.5 643.0,296.0 644.1,294.7 645.2,300.6 646.3,298.7 647.3,301.7 648.4,296.9 649.5,302.8 650.6,283.8 651.7,298.6 652.8,292.4 653.8,302.1 654.9,282.5 656.0,304.9 657.1,293.3 658.2,297.7 659.2,302.2 660.3,295.1 661.4,296.5 662.5,306.5 663.6,305.9 664.7,301.6 665.7,303.2 666.8,298.8 667.9,296.2 669.0,297.8 670.1,293.9 671.1,299.9 672.2,292.3 673.3,291.1 674.4,294.0 675.5,303.9 676.6,304.7 677.6,302.9 678.7,298.8 679.8,304.3 680.9,303.8 682.0,300.6 683.1,301.2 684.1,296.9 685.2,301.9 686.3,303.8 687.4,303.5 688.5,302.0 689.5,306.7 690.6,306.4 691.7,302.3 692.8,295.5 693.9,302.3 695.0,300.2 696.0,291.6 697.1,297.1 698.2,295.3 699.3,302.6 700.4,299.4 701.4,300.4 702.5,303.9 703.6,302.2 704.7,300.4 705.8,303.9 706.9,304.9 707.9,300.8 709.0,305.7 710.1,299.4 711.2,303.9 712.3,306.2 713.4,304.6 714.4,305.1 715.5,307.0 716.6,295.8 717.7,308.0 718.8,305.0 719.8,296.4 720.9,295.3 722.0,294.9 723.1,297.1 724.2,297.2 725.3,299.4 726.3,285.9 727.4,296.1 728.5,299.8 729.6,297.5 730.7,295.4 731.7,301.9 732.8,295.5 733.9,297.2 735.0,305.1 736.1,297.0 737.2,303.8 738.2,298.9 739.3,301.3 740.4,302.0 741.5,299.6 742.6,296.0 743.6,297.1 744.7,304.3 745.8,296.8 746.9,297.2 748.0,296.4 749.1,296.6 750.1,296.2 751.2,301.2 752.3,300.2 753.4,297.1 754.5,304.6 755.6,304.2 756.6,299.4 757.7,306.8 758.8,302.1 759.9,301.7 761.0,306.5 762.0,297.1 763.1,303.1 764.2,304.5 765.3,305.9 766.4,300.4 767.5,302.2 768.5,299.2 769.6,300.0 770.7,298.5 771.8,302.1 772.9,297.2 773.9,294.2 775.0,285.4 776.1,300.0 777.2,295.1 778.3,300.2 779.4,300.1 780.4,299.2 781.5,292.2 782.6,293.5 783.7,299.5 784.8,298.7 785.9,298.8 786.9,299.8 788.0,289.4 789.1,297.7 790.2,298.6 791.3,303.0 792.3,302.2 793.4,306.7 794.5,297.0 795.6,296.3 796.7,301.1 797.8,290.8 798.8,298.0 799.9,296.4 801.0,296.4 802.1,296.0 803.2,298.7 804.2,300.8 805.3,297.0 806.4,298.2 807.5,293.0 808.6,286.3 809.7,301.0 810.7,302.3 811.8,294.8 812.9,303.6 814.0,298.8 815.1,309.0 816.1,293.8 817.2,306.2 818.3,305.4 819.4,293.2 820.5,306.4 821.6,299.0 822.6,299.4 823.7,308.7 824.8,306.7 825.9,295.2 827.0,285.7 828.1,296.9 829.1,282.7 830.2,297.0 831.3,308.4 832.4,304.8 833.5,300.5 834.5,302.8 835.6,310.3 836.7,289.0 837.8,294.6 838.9,315.6 840.0,302.1 841.0,305.5 842.1,300.4 843.2,306.7 844.3,298.7 845.4,304.7 846.4,298.5 847.5,287.4 848.6,296.8 849.7,294.6 850.8,296.5 851.9,293.8 852.9,296.3 854.0,298.7 855.1,304.4 856.2,309.1 857.3,296.4 858.4,307.9 859.4,306.3 860.5,306.7 861.6,304.4 862.7,298.6 863.8,294.8 864.8,306.3 865.9,311.7 867.0,307.9 868.1,310.7 869.2,305.3 870.3,309.1 871.3,309.5 872.4,300.3 873.5,289.4 874.6,298.3 875.7,299.3 876.7,299.8 877.8,300.0 878.9,296.4 880.0,307.1 881.1,309.1 882.2,305.7 883.2,310.6 884.3,308.0 885.4,304.5 886.5,304.8 887.6,297.7 888.6,305.4 889.7,306.8 890.8,309.5 891.9,293.1 893.0,303.1 894.1,306.6 895.1,303.5 896.2,302.1 897.3,304.0 898.4,296.2 899.5,296.3 900.6,296.5 901.6,300.4 902.7,300.3 903.8,302.2 904.9,305.8 906.0,308.6 907.0,304.4 908.1,302.1 909.2,304.3 910.3,292.1 911.4,302.4 912.5,303.2 913.5,303.3 914.6,296.9 915.7,307.9 916.8,305.4 917.9,290.0 918.9,298.7 920.0,296.5 921.1,296.9 922.2,297.3 923.3,307.6 924.4,301.5 925.4,306.2 926.5,296.9 927.6,304.9 928.7,306.4 929.8,303.9 930.9,302.9 931.9,286.4 933.0,305.6 934.1,336.2 935.2,345.2 936.3,345.3 937.3,345.0 938.4,345.5 939.5,320.4 940.6,343.8 941.7,344.7 942.8,344.1 943.8,344.9 944.9,344.9 946.0,345.1" fill="none" stroke="#2563eb" stroke-width="2.2" stroke-linejoin="round" stroke-linecap="round"/>
<polyline points="76.0,312.8 77.1,326.4 78.2,335.5 79.2,336.0 80.3,336.5 81.4,336.1 82.5,335.8 83.6,332.2 84.7,336.1 85.7,336.1 86.8,321.8 87.9,336.1 89.0,335.6 90.1,332.2 91.1,335.9 92.2,335.3 93.3,322.5 94.4,331.9 95.5,333.8 96.6,311.9 97.6,304.2 98.7,307.2 99.8,321.9 100.9,316.8 102.0,311.8 103.1,331.3 104.1,334.9 105.2,313.8 106.3,336.5 107.4,320.4 108.5,331.9 109.5,285.0 110.6,301.6 111.7,304.6 112.8,309.6 113.9,332.8 115.0,313.8 116.0,311.9 117.1,336.3 118.2,336.5 119.3,331.2 120.4,311.9 121.4,311.9 122.5,313.8 123.6,342.3 124.7,336.4 125.8,310.2 126.9,311.6 127.9,336.4 129.0,336.8 130.1,335.6 131.2,334.9 132.3,335.4 133.4,336.0 134.4,332.9 135.5,336.0 136.6,332.3 137.7,335.7 138.8,336.1 139.8,335.6 140.9,336.5 142.0,336.3 143.1,336.4 144.2,345.5 145.3,337.2 146.3,336.4 147.4,336.4 148.5,332.2 149.6,345.5 150.7,337.1 151.7,337.7 152.8,337.7 153.9,336.5 155.0,339.6 156.1,337.6 157.2,337.6 158.2,336.6 159.3,336.5 160.4,336.5 161.5,336.0 162.6,336.5 163.6,336.1 164.7,336.0 165.8,336.5 166.9,336.5 168.0,336.5 169.1,335.8 170.1,336.4 171.2,336.3 172.3,332.2 173.4,336.2 174.5,313.5 175.6,331.1 176.6,332.5 177.7,335.3 178.8,345.5 179.9,332.0 181.0,335.3 182.0,336.5 183.1,337.7 184.2,336.1 185.3,336.2 186.4,336.3 187.5,336.0 188.5,332.4 189.6,331.9 190.7,333.0 191.8,334.5 192.9,336.4 193.9,336.4 195.0,336.4 196.1,335.5 197.2,336.3 198.3,336.4 199.4,333.0 200.4,333.8 201.5,337.7 202.6,345.5 203.7,337.6 204.8,336.5 205.9,311.4 206.9,336.4 208.0,335.9 209.1,336.1 210.2,335.3 211.3,336.4 212.3,335.5 213.4,336.4 214.5,336.3 215.6,336.4 216.7,336.5 217.8,336.2 218.8,334.6 219.9,336.4 221.0,336.5 222.1,336.5 223.2,335.6 224.2,335.7 225.3,331.7 226.4,311.9 227.5,300.0 228.6,311.1 229.7,305.7 230.7,311.5 231.8,311.5 232.9,329.1 234.0,334.4 235.1,335.3 236.1,335.3 237.2,336.4 238.3,336.4 239.4,335.3 240.5,336.2 241.6,336.1 242.6,336.1 243.7,345.5 244.8,336.4 245.9,336.3 247.0,336.5 248.1,336.4 249.1,335.3 250.2,335.9 251.3,332.4 252.4,321.1 253.5,300.0 254.5,335.5 255.6,328.3 256.7,336.1 257.8,333.2 258.9,333.2 260.0,332.8 261.0,336.2 262.1,335.9 263.2,336.1 264.3,336.1 265.4,332.2 266.4,332.2 267.5,336.4 268.6,335.8 269.7,332.4 270.8,336.0 271.9,336.5 272.9,336.0 274.0,336.4 275.1,331.9 276.2,335.8 277.3,316.9 278.4,336.1 279.4,300.0 280.5,335.5 281.6,331.1 282.7,334.0 283.8,333.3 284.8,311.9 285.9,333.2 287.0,333.7 288.1,336.0 289.2,325.2 290.3,335.4 291.3,297.0 292.4,299.9 293.5,328.5 294.6,332.6 295.7,332.2 296.7,333.7 297.8,336.1 298.9,336.1 300.0,335.5 301.1,326.2 302.2,316.4 303.2,309.9 304.3,306.7 305.4,300.0 306.5,307.8 307.6,306.7 308.6,333.2 309.7,306.8 310.8,318.4 311.9,334.9 313.0,336.5 314.1,335.6 315.1,336.4 316.2,336.4 317.3,335.2 318.4,336.5 319.5,321.1 320.6,321.1 321.6,335.5 322.7,335.3 323.8,334.9 324.9,336.1 326.0,336.0 327.0,332.7 328.1,306.7 329.2,309.6 330.3,309.6 331.4,300.0 332.5,311.5 333.5,336.9 334.6,337.7 335.7,313.8 336.8,336.0 337.9,337.6 338.9,337.4 340.0,337.7 341.1,336.5 342.2,335.3 343.3,335.7 344.4,335.9 345.4,335.0 346.5,336.1 347.6,335.9 348.7,331.0 349.8,310.3 350.9,335.5 351.9,309.5 353.0,335.8 354.1,312.0 355.2,311.6 356.3,326.5 357.3,306.8 358.4,321.1 359.5,345.5 360.6,316.9 361.7,335.6 362.8,309.6 363.8,311.2 364.9,331.5 366.0,335.5 367.1,336.5 368.2,334.7 369.2,325.2 370.3,335.3 371.4,309.5 372.5,307.4 373.6,325.2 374.7,316.9 375.7,334.9 376.8,334.0 377.9,304.5 379.0,335.5 380.1,336.1 381.1,327.9 382.2,335.3 383.3,322.2 384.4,335.1 385.5,335.2 386.6,335.5 387.6,332.2 388.7,333.2 389.8,335.2 390.9,336.1 392.0,335.3 393.1,334.5 394.1,311.9 395.2,336.2 396.3,332.2 397.4,347.4 398.5,335.3 399.5,336.2 400.6,335.2 401.7,336.2 402.8,336.1 403.9,311.9 405.0,316.7 406.0,333.5 407.1,311.8 408.2,333.2 409.3,306.6 410.4,331.9 411.4,328.3 412.5,303.5 413.6,311.0 414.7,337.3 415.8,334.9 416.9,336.4 417.9,335.9 419.0,307.8 420.1,307.8 421.2,319.6 422.3,321.5 423.4,325.0 424.4,333.2 425.5,311.9 426.6,306.7 427.7,309.5 428.8,333.2 429.8,306.5 430.9,331.9 432.0,335.5 433.1,328.2 434.2,332.2 435.3,306.7 436.3,309.5 437.4,335.3 438.5,335.5 439.6,336.5 440.7,342.3 441.7,337.6 442.8,337.5 443.9,336.5 445.0,337.7 446.1,337.2 447.2,335.3 448.2,335.9 449.3,336.4 450.4,336.3 451.5,336.4 452.6,336.1 453.6,333.3 454.7,335.9 455.8,336.5 456.9,330.6 458.0,332.2 459.1,327.2 460.1,326.7 461.2,309.5 462.3,335.0 463.4,309.7 464.5,311.6 465.6,331.9 466.6,321.0 467.7,309.6 468.8,336.0 469.9,320.1 471.0,337.3 472.0,336.5 473.1,298.8 474.2,306.6 475.3,326.7 476.4,327.1 477.5,320.3 478.5,311.6 479.6,336.4 480.7,322.7 481.8,335.6 482.9,333.0 483.9,331.2 485.0,310.9 486.1,309.7 487.2,300.0 488.3,303.9 489.4,306.8 490.4,310.3 491.5,333.2 492.6,335.5 493.7,331.0 494.8,336.1 495.9,335.3 496.9,336.5 498.0,335.5 499.1,335.5 500.2,326.7 501.3,336.4 502.3,336.0 503.4,336.1 504.5,336.2 505.6,336.2 506.7,336.1 507.8,336.0 508.8,335.5 509.9,328.3 511.0,328.1 512.1,306.7 513.2,344.5 514.2,336.8 515.3,345.5 516.4,336.5 517.5,330.5 518.6,302.3 519.7,335.7 520.7,335.6 521.8,317.0 522.9,336.5 524.0,335.6 525.1,336.1 526.1,335.0 527.2,331.9 528.3,331.9 529.4,335.3 530.5,336.5 531.6,336.4 532.6,334.6 533.7,335.8 534.8,311.8 535.9,333.5 537.0,311.4 538.1,334.2 539.1,306.7 540.2,311.1 541.3,311.9 542.4,331.5 543.5,335.3 544.5,333.9 545.6,336.8 546.7,319.7 547.8,336.1 548.9,337.7 550.0,332.8 551.0,327.2 552.1,336.1 553.2,332.7 554.3,333.2 555.4,336.2 556.4,335.9 557.5,335.3 558.6,332.2 559.7,336.4 560.8,336.3 561.9,333.2 562.9,334.7 564.0,312.0 565.1,331.9 566.2,309.5 567.3,309.7 568.4,306.7 569.4,331.9 570.5,328.3 571.6,331.8 572.7,336.3 573.8,332.9 574.8,336.5 575.9,336.1 577.0,335.5 578.1,336.4 579.2,336.1 580.3,336.4 581.3,335.3 582.4,336.5 583.5,334.7 584.6,336.1 585.7,336.4 586.7,334.2 587.8,284.8 588.9,335.3 590.0,336.5 591.1,320.7 592.2,332.6 593.2,331.2 594.3,333.3 595.4,335.5 596.5,336.1 597.6,336.4 598.6,336.2 599.7,336.0 600.8,336.2 601.9,336.5 603.0,336.4 604.1,336.5 605.1,336.4 606.2,336.1 607.3,336.4 608.4,336.5 609.5,336.1 610.6,335.5 611.6,337.2 612.7,335.5 613.8,335.8 614.9,306.6 616.0,321.0 617.0,310.6 618.1,302.0 619.2,311.7 620.3,332.0 621.4,311.9 622.5,331.9 623.5,334.5 624.6,336.2 625.7,335.3 626.8,335.5 627.9,332.4 628.9,336.1 630.0,336.4 631.1,336.4 632.2,306.7 633.3,335.9 634.4,332.4 635.4,336.5 636.5,335.3 637.6,336.5 638.7,335.3 639.8,336.4 640.9,311.9 641.9,335.8 643.0,307.7 644.1,309.7 645.2,335.3 646.3,332.4 647.3,335.5 648.4,331.2 649.5,335.8 650.6,306.6 651.7,332.2 652.8,330.3 653.8,335.3 654.9,297.0 656.0,336.1 657.1,311.9 658.2,311.9 659.2,335.3 660.3,319.7 661.4,319.8 662.5,335.6 663.6,336.4 664.7,335.5 665.7,335.5 666.8,331.9 667.9,309.5 669.0,309.5 670.1,311.5 671.1,335.3 672.2,311.9 673.3,311.7 674.4,328.7 675.5,333.5 676.6,336.4 677.6,336.0 678.7,335.4 679.8,336.1 680.9,336.0 682.0,332.2 683.1,335.0 684.1,333.0 685.2,336.0 686.3,335.5 687.4,335.3 688.5,332.2 689.5,336.2 690.6,336.4 691.7,333.5 692.8,308.3 693.9,327.6 695.0,306.7 696.0,307.7 697.1,310.3 698.2,307.7 699.3,336.1 700.4,328.4 701.4,335.3 702.5,334.6 703.6,335.6 704.7,336.5 705.8,336.1 706.9,335.4 707.9,335.3 709.0,336.1 710.1,332.2 711.2,333.2 712.3,336.4 713.4,335.5 714.4,336.0 715.5,336.4 716.6,328.9 717.7,336.5 718.8,335.1 719.8,321.1 720.9,304.2 722.0,311.5 723.1,328.9 724.2,328.3 725.3,325.0 726.3,299.9 727.4,312.0 728.5,332.6 729.6,332.2 730.7,336.1 731.7,326.0 732.8,325.2 733.9,331.8 735.0,335.3 736.1,332.2 737.2,336.1 738.2,325.3 739.3,334.6 740.4,335.5 741.5,327.1 742.6,310.4 743.6,316.9 744.7,335.3 745.8,309.8 746.9,307.8 748.0,309.5 749.1,311.5 750.1,313.8 751.2,332.4 752.3,333.4 753.4,319.3 754.5,336.1 755.6,336.4 756.6,336.5 757.7,336.5 758.8,336.1 759.9,335.3 761.0,336.3 762.0,331.8 763.1,335.8 764.2,336.0 765.3,335.7 766.4,335.3 767.5,336.5 768.5,332.2 769.6,335.3 770.7,316.9 771.8,332.2 772.9,306.7 773.9,325.8 775.0,307.8 776.1,333.3 777.2,310.3 778.3,335.3 779.4,335.3 780.4,332.7 781.5,312.0 782.6,335.3 783.7,331.5 784.8,328.6 785.9,325.2 786.9,331.5 788.0,306.3 789.1,313.8 790.2,335.3 791.3,333.5 792.3,331.1 793.4,335.3 794.5,324.2 795.6,309.6 796.7,311.7 797.8,306.5 798.8,306.7 799.9,309.5 801.0,312.0 802.1,311.5 803.2,321.0 804.2,327.1 805.3,332.3 806.4,332.4 807.5,306.7 808.6,306.5 809.7,335.3 810.7,332.4 811.8,306.7 812.9,336.2 814.0,309.6 815.1,335.5 816.1,336.1 817.2,334.3 818.3,334.4 819.4,309.5 820.5,336.5 821.6,331.8 822.6,311.7 823.7,331.5 824.8,328.2 825.9,307.2 827.0,307.7 828.1,325.2 829.1,298.0 830.2,335.6 831.3,336.5 832.4,336.5 833.5,333.0 834.5,336.1 835.6,336.5 836.7,305.6 837.8,309.5 838.9,336.5 840.0,333.2 841.0,335.9 842.1,332.7 843.2,336.2 844.3,333.2 845.4,322.9 846.4,336.4 847.5,333.4 848.6,311.8 849.7,309.6 850.8,306.7 851.9,307.2 852.9,307.0 854.0,326.0 855.1,332.2 856.2,335.9 857.3,333.1 858.4,336.5 859.4,336.5 860.5,336.4 861.6,323.8 862.7,336.3 863.8,332.5 864.8,336.5 865.9,345.5 867.0,345.5 868.1,345.5 869.2,336.1 870.3,336.5 871.3,336.5 872.4,335.8 873.5,312.9 874.6,310.3 875.7,309.5 876.7,309.4 877.8,331.8 878.9,309.9 880.0,338.9 881.1,336.5 882.2,336.5 883.2,336.5 884.3,333.2 885.4,333.5 886.5,335.5 887.6,331.9 888.6,336.0 889.7,336.4 890.8,336.4 891.9,313.8 893.0,335.3 894.1,333.5 895.1,335.3 896.2,333.2 897.3,332.4 898.4,312.0 899.5,309.9 900.6,315.4 901.6,328.5 902.7,306.1 903.8,342.3 904.9,343.1 906.0,336.5 907.0,336.0 908.1,336.1 909.2,326.0 910.3,319.2 911.4,347.5 912.5,336.1 913.5,336.4 914.6,319.3 915.7,345.5 916.8,335.5 917.9,323.1 918.9,334.2 920.0,326.9 921.1,335.3 922.2,315.1 923.3,336.0 924.4,330.0 925.4,332.7 926.5,306.7 927.6,332.4 928.7,311.3 929.8,332.8 930.9,331.7 931.9,292.1 933.0,336.5 934.1,349.4 935.2,351.6 936.3,351.0 937.3,347.6 938.4,351.0 939.5,342.5 940.6,347.9 941.7,350.9 942.8,346.3 943.8,346.6 944.9,350.8 946.0,351.5" fill="none" stroke="#059669" stroke-width="2.2" stroke-linejoin="round" stroke-linecap="round"/>
<polyline points="76.0,209.6 77.1,217.4 78.2,224.1 79.2,229.2 80.3,237.2 81.4,229.1 82.5,224.0 83.6,217.7 84.7,224.2 85.7,224.1 86.8,200.5 87.9,224.2 89.0,225.4 90.1,224.1 91.1,227.0 92.2,228.4 93.3,212.2 94.4,217.4 95.5,236.9 96.6,217.3 97.6,216.5 98.7,200.5 99.8,221.1 100.9,223.9 102.0,224.2 103.1,221.2 104.1,224.0 105.2,213.9 106.3,217.4 107.4,200.7 108.5,200.5 109.5,160.9 110.6,170.6 111.7,170.6 112.8,210.3 113.9,216.6 115.0,210.3 116.0,208.9 117.1,234.1 118.2,241.9 119.3,231.0 120.4,224.0 121.4,224.6 122.5,224.2 123.6,228.4 124.7,221.1 125.8,214.4 126.9,222.3 127.9,214.9 129.0,237.2 130.1,234.7 131.2,229.6 132.3,230.3 133.4,231.0 134.4,224.2 135.5,224.2 136.6,225.2 137.7,228.6 138.8,232.2 139.8,224.2 140.9,237.2 142.0,241.3 143.1,234.4 144.2,245.5 145.3,240.3 146.3,241.3 147.4,239.8 148.5,237.2 149.6,252.7 150.7,207.0 151.7,237.5 152.8,238.5 153.9,235.5 155.0,249.6 156.1,243.5 157.2,247.2 158.2,242.0 159.3,233.1 160.4,234.1 161.5,229.1 162.6,224.3 163.6,230.5 164.7,234.2 165.8,247.1 166.9,239.5 168.0,241.9 169.1,232.2 170.1,231.0 171.2,231.2 172.3,217.4 173.4,239.9 174.5,224.2 175.6,232.7 176.6,232.2 177.7,243.8 178.8,249.9 179.9,224.2 181.0,228.7 182.0,243.3 183.1,238.0 184.2,230.6 185.3,235.7 186.4,237.3 187.5,234.1 188.5,224.2 189.6,224.2 190.7,231.0 191.8,234.1 192.9,242.7 193.9,238.5 195.0,247.2 196.1,231.2 197.2,231.3 198.3,238.0 199.4,237.3 200.4,237.5 201.5,242.2 202.6,241.3 203.7,241.3 204.8,234.1 205.9,200.9 206.9,224.1 208.0,224.2 209.1,217.4 210.2,230.4 211.3,234.1 212.3,232.3 213.4,234.1 214.5,231.6 215.6,237.2 216.7,237.2 217.8,234.1 218.8,231.0 219.9,239.6 221.0,239.7 222.1,238.5 223.2,228.8 224.2,227.7 225.3,237.8 226.4,227.4 227.5,233.1 228.6,232.2 229.7,207.7 230.7,224.2 231.8,224.1 232.9,224.1 234.0,225.8 235.1,224.2 236.1,237.2 237.2,237.2 238.3,232.7 239.4,231.0 240.5,236.4 241.6,237.2 242.6,237.6 243.7,252.5 244.8,234.1 245.9,234.1 247.0,242.0 248.1,241.9 249.1,234.1 250.2,233.0 251.3,226.4 252.4,224.2 253.5,242.0 254.5,224.2 255.6,200.4 256.7,232.4 257.8,234.1 258.9,224.2 260.0,229.5 261.0,234.1 262.1,237.2 263.2,234.1 264.3,233.5 265.4,234.6 266.4,224.2 267.5,239.2 268.6,234.7 269.7,224.2 270.8,233.4 271.9,239.5 272.9,241.4 274.0,248.9 275.1,224.9 276.2,224.1 277.3,225.3 278.4,235.6 279.4,247.9 280.5,228.6 281.6,224.0 282.7,224.2 283.8,226.0 284.8,223.4 285.9,230.3 287.0,224.2 288.1,229.0 289.2,212.7 290.3,224.0 291.3,160.9 292.4,171.6 293.5,200.7 294.6,211.1 295.7,202.2 296.7,224.2 297.8,233.2 298.9,228.7 300.0,227.5 301.1,217.6 302.2,217.4 303.2,224.2 304.3,200.7 305.4,227.8 306.5,200.5 307.6,200.5 308.6,224.2 309.7,211.1 310.8,217.8 311.9,225.2 313.0,224.2 314.1,225.3 315.1,224.9 316.2,227.4 317.3,224.2 318.4,234.1 319.5,209.6 320.6,222.4 321.6,234.1 322.7,233.0 323.8,224.1 324.9,229.1 326.0,231.0 327.0,224.1 328.1,203.3 329.2,221.2 330.3,224.0 331.4,258.5 332.5,220.5 333.5,215.1 334.6,240.9 335.7,216.0 336.8,229.1 337.9,234.3 338.9,242.0 340.0,241.6 341.1,234.1 342.2,234.1 343.3,228.2 344.4,224.2 345.4,241.3 346.5,232.4 347.6,231.7 348.7,219.1 349.8,211.5 350.9,228.8 351.9,182.8 353.0,231.9 354.1,215.5 355.2,222.9 356.3,224.2 357.3,228.4 358.4,215.5 359.5,241.6 360.6,215.8 361.7,222.3 362.8,200.4 363.8,197.8 364.9,196.0 366.0,217.4 367.1,211.3 368.2,224.2 369.2,170.7 370.3,221.2 371.4,205.8 372.5,206.4 373.6,200.5 374.7,222.5 375.7,228.8 376.8,224.2 377.9,169.3 379.0,224.0 380.1,232.4 381.1,224.0 382.2,224.2 383.3,176.8 384.4,201.0 385.5,227.0 386.6,232.4 387.6,224.2 388.7,210.5 389.8,234.1 390.9,233.5 392.0,225.2 393.1,224.2 394.1,221.2 395.2,231.0 396.3,224.1 397.4,252.7 398.5,232.0 399.5,232.2 400.6,231.0 401.7,233.9 402.8,234.0 403.9,225.3 405.0,224.0 406.0,224.1 407.1,224.1 408.2,224.1 409.3,215.6 410.4,224.1 411.4,215.5 412.5,214.1 413.6,224.1 414.7,234.0 415.8,215.6 416.9,224.1 417.9,219.8 419.0,210.3 420.1,201.0 421.2,215.9 422.3,224.1 423.4,215.9 424.4,233.4 425.5,224.1 426.6,206.4 427.7,207.8 428.8,224.1 429.8,224.2 430.9,224.1 432.0,234.1 433.1,224.2 434.2,235.6 435.3,224.0 436.3,223.8 437.4,224.2 438.5,224.7 439.6,232.0 440.7,249.0 441.7,234.1 442.8,236.5 443.9,240.3 445.0,234.1 446.1,230.5 447.2,216.3 448.2,232.6 449.3,234.0 450.4,234.1 451.5,234.0 452.6,229.1 453.6,226.1 454.7,232.0 455.8,241.5 456.9,221.2 458.0,224.1 459.1,224.1 460.1,229.3 461.2,227.1 462.3,227.4 463.4,210.8 464.5,214.0 465.6,221.2 466.6,227.3 467.7,214.7 468.8,224.1 469.9,216.4 471.0,225.0 472.0,234.1 473.1,170.6 474.2,200.5 475.3,224.1 476.4,201.1 477.5,213.1 478.5,215.4 479.6,233.9 480.7,222.4 481.8,229.1 482.9,224.1 483.9,216.5 485.0,213.2 486.1,200.6 487.2,193.0 488.3,195.4 489.4,209.6 490.4,200.7 491.5,215.9 492.6,228.8 493.7,214.1 494.8,234.1 495.9,223.9 496.9,223.4 498.0,224.2 499.1,219.7 500.2,224.0 501.3,241.3 502.3,227.1 503.4,232.3 504.5,234.1 505.6,227.5 506.7,234.1 507.8,237.2 508.8,241.3 509.9,224.3 511.0,225.0 512.1,224.2 513.2,234.1 514.2,228.6 515.3,224.2 516.4,232.5 517.5,227.4 518.6,92.4 519.7,215.9 520.7,224.1 521.8,214.6 522.9,232.4 524.0,231.0 525.1,224.2 526.1,224.2 527.2,224.1 528.3,221.1 529.4,224.0 530.5,234.1 531.6,239.3 532.6,234.1 533.7,232.6 534.8,214.6 535.9,224.2 537.0,224.1 538.1,238.9 539.1,233.2 540.2,217.9 541.3,213.3 542.4,231.0 543.5,227.6 544.5,231.4 545.6,234.3 546.7,201.0 547.8,234.1 548.9,234.1 550.0,217.4 551.0,221.2 552.1,228.9 553.2,221.1 554.3,220.6 555.4,227.7 556.4,232.8 557.5,233.9 558.6,224.1 559.7,238.6 560.8,241.2 561.9,225.8 562.9,237.5 564.0,224.1 565.1,228.7 566.2,212.7 567.3,215.6 568.4,215.6 569.4,224.1 570.5,224.1 571.6,217.8 572.7,235.1 573.8,224.9 574.8,232.3 575.9,224.2 577.0,224.2 578.1,237.5 579.2,217.7 580.3,234.4 581.3,225.3 582.4,237.5 583.5,224.1 584.6,232.6 585.7,232.3 586.7,224.0 587.8,169.3 588.9,224.1 590.0,225.3 591.1,225.4 592.2,227.5 593.2,224.2 594.3,224.1 595.4,240.6 596.5,224.2 597.6,231.0 598.6,224.2 599.7,229.2 600.8,227.5 601.9,239.5 603.0,232.9 604.1,237.5 605.1,237.2 606.2,233.1 607.3,237.2 608.4,234.5 609.5,241.3 610.6,224.2 611.6,242.0 612.7,213.5 613.8,225.9 614.9,206.4 616.0,214.5 617.0,224.2 618.1,202.6 619.2,224.1 620.3,223.9 621.4,224.2 622.5,232.3 623.5,224.2 624.6,237.2 625.7,224.1 626.8,227.8 627.9,223.2 628.9,224.2 630.0,235.5 631.1,236.7 632.2,201.0 633.3,231.3 634.4,231.0 635.4,236.2 636.5,231.0 637.6,232.9 638.7,217.4 639.8,233.5 640.9,213.5 641.9,231.0 643.0,223.7 644.1,220.4 645.2,225.8 646.3,224.2 647.3,224.2 648.4,220.5 649.5,230.1 650.6,196.6 651.7,220.9 652.8,212.7 653.8,232.4 654.9,170.6 656.0,231.0 657.1,200.5 658.2,220.7 659.2,217.4 660.3,210.7 661.4,216.5 662.5,240.4 663.6,232.4 664.7,224.0 665.7,228.7 666.8,224.1 667.9,210.7 669.0,224.1 670.1,207.8 671.1,224.1 672.2,200.7 673.3,200.5 674.4,202.5 675.5,224.2 676.6,235.8 677.6,224.2 678.7,217.4 679.8,231.5 680.9,232.4 682.0,220.6 683.1,224.1 684.1,215.6 685.2,232.1 686.3,231.0 687.4,232.3 688.5,237.2 689.5,241.3 690.6,230.3 691.7,228.8 692.8,219.5 693.9,228.5 695.0,228.7 696.0,204.7 697.1,221.2 698.2,216.3 699.3,227.5 700.4,225.2 701.4,225.9 702.5,232.9 703.6,232.4 704.7,224.2 705.8,230.1 706.9,237.2 707.9,224.5 709.0,238.0 710.1,225.8 711.2,232.2 712.3,237.2 713.4,237.2 714.4,234.2 715.5,238.5 716.6,212.8 717.7,228.8 718.8,234.1 719.8,223.6 720.9,224.0 722.0,223.0 723.1,223.1 724.2,215.9 725.3,224.2 726.3,173.0 727.4,211.0 728.5,224.1 729.6,214.7 730.7,218.7 731.7,232.4 732.8,216.5 733.9,215.7 735.0,233.0 736.1,222.8 737.2,228.6 738.2,224.1 739.3,224.1 740.4,231.0 741.5,221.1 742.6,212.2 743.6,208.9 744.7,233.4 745.8,223.9 746.9,225.2 748.0,219.7 749.1,224.0 750.1,212.6 751.2,229.6 752.3,224.4 753.4,224.1 754.5,234.1 755.6,230.7 756.6,224.1 757.7,237.2 758.8,224.5 759.9,224.2 761.0,237.7 762.0,215.6 763.1,231.0 764.2,228.4 765.3,234.9 766.4,224.5 767.5,226.1 768.5,223.0 769.6,224.2 770.7,225.3 771.8,224.2 772.9,219.2 773.9,209.3 775.0,195.6 776.1,225.4 777.2,212.8 778.3,230.1 779.4,224.0 780.4,224.1 781.5,200.5 782.6,209.0 783.7,224.2 784.8,218.5 785.9,221.2 786.9,224.2 788.0,189.6 789.1,216.2 790.2,224.1 791.3,231.0 792.3,225.2 793.4,234.1 794.5,219.9 795.6,217.4 796.7,234.1 797.8,199.2 798.8,224.1 799.9,224.4 801.0,217.4 802.1,224.1 803.2,224.2 804.2,224.2 805.3,222.0 806.4,216.5 807.5,200.8 808.6,183.8 809.7,224.2 810.7,224.5 811.8,201.1 812.9,227.9 814.0,227.3 815.1,242.0 816.1,240.8 817.2,238.2 818.3,237.5 819.4,192.6 820.5,245.6 821.6,209.3 822.6,234.1 823.7,241.9 824.8,241.1 825.9,224.3 827.0,174.6 828.1,224.1 829.1,195.4 830.2,229.9 831.3,237.1 832.4,241.9 833.5,221.2 834.5,229.0 835.6,257.0 836.7,170.6 837.8,201.0 838.9,257.2 840.0,224.2 841.0,227.0 842.1,224.1 843.2,237.5 844.3,224.1 845.4,231.0 846.4,217.4 847.5,181.7 848.6,224.2 849.7,205.2 850.8,210.8 851.9,209.3 852.9,200.6 854.0,224.6 855.1,228.3 856.2,244.1 857.3,213.9 858.4,241.5 859.4,225.4 860.5,232.8 861.6,231.0 862.7,241.9 863.8,230.2 864.8,238.5 865.9,248.7 867.0,246.2 868.1,252.9 869.2,237.2 870.3,239.5 871.3,241.8 872.4,200.2 873.5,195.5 874.6,225.3 875.7,218.8 876.7,224.3 877.8,217.4 878.9,217.4 880.0,234.0 881.1,237.2 882.2,238.0 883.2,246.7 884.3,239.1 885.4,238.0 886.5,231.6 887.6,207.8 888.6,237.2 889.7,234.1 890.8,241.8 891.9,213.8 893.0,224.2 894.1,237.2 895.1,228.5 896.2,225.4 897.3,231.0 898.4,215.6 899.5,223.0 900.6,217.6 901.6,224.1 902.7,230.8 903.8,225.7 904.9,228.6 906.0,258.6 907.0,231.0 908.1,237.6 909.2,236.7 910.3,224.2 911.4,232.7 912.5,224.2 913.5,224.1 914.6,212.4 915.7,243.0 916.8,226.4 917.9,200.9 918.9,221.2 920.0,224.1 921.1,224.2 922.2,215.5 923.3,234.4 924.4,224.1 925.4,239.5 926.5,224.1 927.6,242.0 928.7,241.3 929.8,224.2 930.9,225.8 931.9,199.1 933.0,238.2 934.1,300.4 935.2,333.7 936.3,335.1 937.3,332.4 938.4,333.0 939.5,257.7 940.6,329.0 941.7,329.1 942.8,333.2 943.8,335.2 944.9,333.8 946.0,334.1" fill="none" stroke="#d97706" stroke-width="2.2" stroke-linejoin="round" stroke-linecap="round"/>
<line x1="76" y1="70" x2="94" y2="70" stroke="#2563eb" stroke-width="3"/>
<text x="100" y="74" font-family="Arial, sans-serif" font-size="11" fill="#0f172a">avg fee</text>
<line x1="179" y1="70" x2="197" y2="70" stroke="#059669" stroke-width="3"/>
<text x="203" y="74" font-family="Arial, sans-serif" font-size="11" fill="#0f172a">median fee</text>
<line x1="303" y1="70" x2="321" y2="70" stroke="#d97706" stroke-width="3"/>
<text x="327" y="74" font-family="Arial, sans-serif" font-size="11" fill="#0f172a">p90 fee</text>
<text x="28" y="404" font-family="Arial, sans-serif" font-size="11" fill="#64748b">Source: hourly_features.csv</text>
</svg>