<svg xmlns="http://www.w3.org/2000/svg" width="980" height="420" viewBox="0 0 980 420">
<rect width="100%" height="100%" fill="#ffffff"/>
<text x="28" y="34" font-family="Arial, sans-serif" font-size="20" font-weight="700" fill="#0f172a">Hourly fee trend</text>
<text x="28" y="56" font-family="Arial, sans-serif" font-size="12" fill="#64748b">Average, median, and p90 total fee by hour</text>
<line x1="76" y1="362.0" x2="946" y2="362.0" stroke="#e2e8f0" stroke-width="1"/>
<text x="68" y="366.0" font-family="Arial, sans-serif" font-size="10" text-anchor="end" fill="#64748b">-382K</text>
<line x1="76" y1="292.0" x2="946" y2="292.0" stroke="#e2e8f0" stroke-width="1"/>
<text x="68" y="296.0" font-family="Arial, sans-serif" font-size="10" text-anchor="end" fill="#64748b">2.6M</text>
<line x1="76" y1="222.0" x2="946" y2="222.0" stroke="#e2e8f0" stroke-width="1"/>
<text x="68" y="226.0" font-family="Arial, sans-serif" font-size="10" text-anchor="end" fill="#64748b">5.7M</text>
<line x1="76" y1="152.0" x2="946" y2="152.0" stroke="#e2e8f0" stroke-width="1"/>
<text x="68" y="156.0" font-family="Arial, sans-serif" font-size="10" text-anchor="end" fill="#64748b">8.7M</text>
<line x1="76" y1="82.0" x2="946" y2="82.0" stroke="#e2e8f0" stroke-width="1"/>
<text x="68" y="86.0" font-family="Arial, sans-serif" font-size="10" text-anchor="end" fill="#64748b">11.7M</text>
<line x1="76" y1="362" x2="946" y2="362" stroke="#334155" stroke-width="1"/>
<line x1="76" y1="82" x2="76" y2="362" stroke="#334155" stroke-width="1"/>
<text x="76" y="72" font-family="Arial, sans-serif" font-size="11" fill="#64748b">nanoton</text>
<line x1="76.0" y1="362" x2="76.0" y2="366" stroke="#334155" stroke-width="1"/>
<text x="76.0" y="380" font-family="Arial, sans-serif" font-size="10" text-anchor="middle" fill="#64748b">0</text>
<line x1="511.5" y1="362" x2="511.5" y2="366" stroke="#334155" stroke-width="1"/>
<text x="511.5" y="380" font-family="Arial, sans-serif" font-size="10" text-anchor="middle" fill="#64748b">433</text>
<line x1="946.0" y1="362" x2="946.0" y2="366" stroke="#334155" stroke-width="1"/>
<text x="946.0" y="380" font-family="Arial, sans-serif" font-size="10" text-anchor="middle" fill="#64748b">865</text>
<polyline points="76.0,290.8 77.0,294.6 78.0,296.0 79.0,298.1 80.0,304.8 81.0,297.2 82.0,298.2 83.0,294.6 84.0,299.0 85.1,298.7 86.1,287.8 87.1,299.5 88.1,299.7 89.1,297.4 90.1,300.3 91.1,300.5 92.1,292.5 93.1,292.5 94.1,301.3 95.1,291.1 96.1,289.2 97.1,287.3 98.1,293.8 99.1,294.2 100.1,296.1 101.1,292.1 102.2,297.7 103.2,290.6 104.2,293.2 105.2,288.3 106.2,289.0 107.2,273.1 108.2,284.7 109.2,285.3 110.2,294.6 111.2,299.9 112.2,292.9 113.2,294.9 114.2,304.7 115.2,307.5 116.2,302.1 117.2,297.0 118.2,298.7 119.2,297.9 120.3,304.4 121.3,297.4 122.3,294.5 123.3,296.5 124.3,298.7 125.3,303.1 126.3,303.1 127.3,301.9 128.3,300.3 129.3,303.3 130.3,302.2 131.3,299.4 132.3,299.1 133.3,302.8 134.3,299.1 135.3,301.3 136.3,306.8 137.4,308.7 138.4,306.4 139.4,307.1 140.4,309.1 141.4,305.9 142.4,305.5 143.4,302.0 144.4,308.5 145.4,290.7 146.4,306.4 147.4,306.4 148.4,306.3 149.4,311.2 150.4,307.1 151.4,310.3 152.4,309.1 153.4,305.5 154.5,305.4 155.5,303.2 156.5,303.5 157.5,301.3 158.5,305.1 159.5,307.4 160.5,306.9 161.5,308.1 162.5,305.0 163.5,302.9 164.5,302.7 165.5,298.6 166.5,304.9 167.5,297.0 168.5,299.3 169.5,300.3 170.5,303.9 171.5,311.6 172.6,300.1 173.6,300.5 174.6,308.9 175.6,307.5 176.6,300.3 177.6,304.2 178.6,305.1 179.6,302.6 180.6,300.5 181.6,297.4 182.6,298.7 183.6,301.9 184.6,308.1 185.6,307.4 186.6,307.4 187.6,303.1 188.6,301.9 189.7,304.1 190.7,303.9 191.7,304.0 192.7,308.3 193.7,308.9 194.7,307.3 195.7,301.1 196.7,286.9 197.7,301.6 198.7,298.8 199.7,296.1 200.7,299.6 201.7,305.5 202.7,301.5 203.7,304.9 204.7,302.2 205.7,304.9 206.8,306.8 207.8,304.9 208.8,300.8 209.8,304.8 210.8,308.0 211.8,302.4 212.8,301.7 213.8,303.1 214.8,303.4 215.8,298.9 216.8,298.5 217.8,298.0 218.8,289.4 219.8,296.9 220.8,296.4 221.8,295.5 222.8,299.6 223.8,299.0 224.9,304.6 225.9,304.0 226.9,303.8 227.9,299.2 228.9,301.2 229.9,305.7 230.9,304.5 231.9,312.1 232.9,305.7 233.9,304.3 234.9,307.0 235.9,306.9 236.9,301.9 237.9,303.8 238.9,300.8 239.9,301.6 240.9,300.2 242.0,298.7 243.0,290.6 244.0,296.1 245.0,300.6 246.0,296.6 247.0,302.7 248.0,302.6 249.0,303.0 250.0,302.7 251.0,302.8 252.0,303.7 253.0,300.1 254.0,305.6 255.0,303.0 256.0,299.2 257.0,302.8 258.0,306.7 259.1,306.1 260.1,306.7 261.1,298.5 262.1,301.6 263.1,297.8 264.1,303.8 265.1,300.2 266.1,299.5 267.1,295.6 268.1,298.2 269.1,298.4 270.1,293.8 271.1,299.9 272.1,297.9 273.1,298.6 274.1,294.2 275.1,297.8 276.2,278.0 277.2,284.2 278.2,295.2 279.2,295.7 280.2,294.4 281.2,300.7 282.2,304.3 283.2,302.4 284.2,302.1 285.2,297.9 286.2,295.3 287.2,296.5 288.2,291.4 289.2,292.0 290.2,290.6 291.2,290.0 292.2,299.7 293.2,291.9 294.3,296.8 295.3,299.8 296.3,303.8 297.3,302.5 298.3,302.1 299.3,302.3 300.3,300.8 301.3,303.5 302.3,295.9 303.3,297.8 304.3,304.4 305.3,304.2 306.3,299.5 307.3,303.9 308.3,303.5 309.3,299.0 310.3,288.7 311.4,293.7 312.4,294.2 313.4,303.7 314.4,295.6 315.4,297.0 316.4,305.6 317.4,294.8 318.4,300.5 319.4,305.1 320.4,308.5 321.4,305.5 322.4,304.0 323.4,300.7 324.4,303.8 325.4,299.3 326.4,303.0 327.4,305.0 328.5,303.0 329.5,299.3 330.5,294.4 331.5,299.9 332.5,286.2 333.5,302.1 334.5,293.9 335.5,297.9 336.5,299.5 337.5,297.4 338.5,294.4 339.5,310.4 340.5,291.6 341.5,295.6 342.5,281.6 343.5,294.6 344.5,293.2 345.5,295.0 346.6,291.0 347.6,301.0 348.6,279.9 349.6,297.2 350.6,291.8 351.6,291.5 352.6,283.3 353.6,298.3 354.6,300.4 355.6,298.6 356.6,288.4 357.6,299.0 358.6,304.4 359.6,297.7 360.6,295.5 361.6,279.8 362.6,284.2 363.7,300.5 364.7,299.9 365.7,298.1 366.7,293.4 367.7,303.1 368.7,303.0 369.7,298.6 370.7,296.8 371.7,297.4 372.7,301.3 373.7,298.1 374.7,311.4 375.7,299.4 376.7,303.5 377.7,301.2 378.7,302.9 379.7,304.3 380.8,297.8 381.8,294.4 382.8,299.3 383.8,295.1 384.8,301.8 385.8,292.6 386.8,297.6 387.8,293.9 388.8,290.0 389.8,295.1 390.8,304.6 391.8,291.1 392.8,300.3 393.8,295.9 394.8,293.1 395.8,291.6 396.8,296.8 397.8,297.1 398.9,297.9 399.9,299.5 400.9,292.8 401.9,286.2 402.9,290.1 403.9,300.0 404.9,294.5 405.9,300.9 406.9,303.0 407.9,299.1 408.9,302.5 409.9,295.1 410.9,297.0 411.9,302.8 412.9,301.7 413.9,303.0 414.9,308.6 416.0,306.8 417.0,306.1 418.0,306.5 419.0,304.3 420.0,304.5 421.0,298.3 422.0,301.1 423.0,303.1 424.0,303.3 425.0,304.2 426.0,302.4 427.0,299.4 428.0,304.5 429.0,307.1 430.0,297.3 431.0,298.9 432.0,298.1 433.1,299.7 434.1,297.8 435.1,301.0 436.1,287.2 437.1,294.3 438.1,294.8 439.1,298.6 440.1,291.3 441.1,298.4 442.1,294.6 443.1,298.7 444.1,304.2 445.1,282.2 446.1,289.8 447.1,298.8 448.1,295.1 449.1,293.4 450.2,294.7 451.2,304.3 452.2,296.9 453.2,301.7 454.2,296.7 455.2,295.6 456.2,292.9 457.2,291.6 458.2,286.7 459.2,287.8 460.2,294.2 461.2,292.6 462.2,297.5 463.2,303.1 464.2,296.8 465.2,304.1 466.2,298.7 467.2,297.8 468.3,299.3 469.3,297.1 470.3,296.6 471.3,305.5 472.3,301.9 473.3,304.5 474.3,302.9 475.3,303.4 476.3,302.7 477.3,304.5 478.3,301.7 479.3,300.0 480.3,297.3 481.3,295.0 482.3,305.0 483.3,302.7 484.3,303.7 485.4,302.8 486.4,298.5 487.4,257.0 488.4,291.0 489.4,298.5 490.4,296.3 491.4,301.0 492.4,301.6 493.4,299.9 494.4,299.3 495.4,299.6 496.4,296.0 497.4,299.4 498.4,305.6 499.4,306.5 500.4,300.9 501.4,302.7 502.5,295.0 503.5,302.2 504.5,296.9 505.5,304.8 506.5,299.1 507.5,295.6 508.5,295.1 509.5,300.9 510.5,301.0 511.5,300.7 512.5,304.5 513.5,292.6 514.5,303.5 515.5,306.0 516.5,295.5 517.5,297.4 518.5,302.8 519.5,295.8 520.6,299.5 521.6,304.0 522.6,301.7 523.6,303.8 524.6,300.8 525.6,306.1 526.6,305.6 527.6,300.8 528.6,303.2 529.6,297.1 530.6,300.2 531.6,292.3 532.6,292.0 533.6,292.1 534.6,299.3 535.6,298.5 536.6,298.8 537.7,301.5 538.7,299.6 539.7,305.3 540.7,300.2 541.7,300.6 542.7,304.7 543.7,299.2 544.7,304.4 545.7,299.7 546.7,306.4 547.7,299.1 548.7,304.5 549.7,303.3 550.7,298.0 551.7,263.7 552.7,302.9 553.7,304.6 554.8,301.3 555.8,300.8 556.8,298.3 557.8,299.9 558.8,302.7 559.8,298.6 560.8,304.0 561.8,302.8 562.8,303.0 563.8,301.1 564.8,308.3 565.8,304.5 566.8,309.0 567.8,304.5 568.8,303.7 569.8,304.9 570.8,303.6 571.8,305.3 572.9,299.5 573.9,305.2 574.9,297.1 575.9,302.2 576.9,288.1 577.9,294.6 578.9,299.7 579.9,287.4 580.9,299.0 581.9,298.4 582.9,296.8 583.9,301.1 584.9,299.5 585.9,302.6 586.9,299.3 587.9,303.0 588.9,298.0 590.0,301.6 591.0,305.3 592.0,304.5 593.0,290.4 594.0,303.1 595.0,299.6 596.0,302.4 597.0,303.1 598.0,304.7 599.0,296.3 600.0,301.7 601.0,292.9 602.0,298.2 603.0,294.8 604.0,293.5 605.0,299.4 606.0,297.4 607.1,300.4 608.1,295.6 609.1,301.5 610.1,282.6 611.1,297.4 612.1,291.2 613.1,300.8 614.1,281.3 615.1,303.6 616.1,292.1 617.1,296.5 618.1,300.9 619.1,293.9 620.1,295.3 621.1,305.2 622.1,304.7 623.1,300.3 624.2,302.0 625.2,297.5 626.2,295.0 627.2,296.6 628.2,292.7 629.2,298.7 630.2,291.1 631.2,289.9 632.2,292.8 633.2,302.6 634.2,303.5 635.2,301.6 636.2,297.5 637.2,303.0 638.2,302.5 639.2,299.3 640.2,300.0 641.2,295.7 642.3,300.6 643.3,302.5 644.3,302.2 645.3,300.7 646.3,305.4 647.3,305.1 648.3,301.0 649.3,294.2 650.3,301.0 651.3,298.9 652.3,290.4 653.3,295.9 654.3,294.1 655.3,301.3 656.3,298.2 657.3,299.2 658.3,302.6 659.4,300.9 660.4,299.2 661.4,302.7 662.4,303.6 663.4,299.5 664.4,304.4 665.4,298.2 666.4,302.7 667.4,304.9 668.4,303.3 669.4,303.8 670.4,305.7 671.4,294.6 672.4,306.7 673.4,303.7 674.4,295.1 675.4,294.1 676.5,293.7 677.5,295.9 678.5,295.9 679.5,298.1 680.5,284.7 681.5,294.9 682.5,298.6 683.5,296.3 684.5,294.2 685.5,300.6 686.5,294.3 687.5,295.9 688.5,303.8 689.5,295.8 690.5,302.6 691.5,297.7 692.5,300.0 693.5,300.7 694.6,298.3 695.6,294.8 696.6,295.8 697.6,303.0 698.6,295.6 699.6,296.0 700.6,295.2 701.6,295.3 702.6,295.0 703.6,299.9 704.6,299.0 705.6,295.9 706.6,303.3 707.6,302.9 708.6,298.2 709.6,305.5 710.6,300.9 711.7,300.4 712.7,305.2 713.7,295.8 714.7,301.8 715.7,303.2 716.7,304.6 717.7,299.1 718.7,301.0 719.7,298.0 720.7,298.8 721.7,297.3 722.7,300.8 723.7,296.0 724.7,293.0 725.7,284.2 726.7,298.8 727.7,293.9 728.8,298.9 729.8,298.8 730.8,298.0 731.8,291.0 732.8,292.3 733.8,298.2 734.8,297.5 735.8,297.5 736.8,298.5 737.8,288.2 738.8,296.5 739.8,297.3 740.8,301.7 741.8,301.0 742.8,305.4 743.8,295.8 744.8,295.1 745.8,299.8 746.9,289.6 747.9,296.7 748.9,295.1 749.9,295.1 750.9,294.8 751.9,297.5 752.9,299.5 753.9,295.8 754.9,297.0 755.9,291.7 756.9,285.1 757.9,299.7 758.9,301.0 759.9,293.6 760.9,302.3 761.9,297.5 762.9,307.7 764.0,292.5 765.0,304.9 766.0,304.1 767.0,291.9 768.0,305.2 769.0,297.8 770.0,298.1 771.0,307.4 772.0,305.4 773.0,294.0 774.0,284.5 775.0,295.7 776.0,281.6 777.0,295.8 778.0,307.1 779.0,303.5 780.0,299.2 781.1,301.5 782.1,309.0 783.1,287.8 784.1,293.3 785.1,314.3 786.1,300.8 787.1,304.2 788.1,299.2 789.1,305.4 790.1,297.5 791.1,303.5 792.1,297.3 793.1,286.2 794.1,295.6 795.1,293.4 796.1,295.3 797.1,292.6 798.2,295.0 799.2,297.5 800.2,303.2 801.2,307.8 802.2,295.2 803.2,306.6 804.2,305.0 805.2,305.4 806.2,303.1 807.2,297.4 808.2,293.5 809.2,305.0 810.2,310.4 811.2,306.6 812.2,309.4 813.2,304.0 814.2,307.8 815.2,308.2 816.3,299.0 817.3,288.2 818.3,297.1 819.3,298.1 820.3,298.6 821.3,298.7 822.3,295.2 823.3,305.8 824.3,307.8 825.3,304.4 826.3,309.3 827.3,306.7 828.3,303.2 829.3,303.6 830.3,296.5 831.3,304.1 832.3,305.5 833.4,308.2 834.4,291.8 835.4,301.9 836.4,305.3 837.4,302.2 838.4,300.9 839.4,302.7 840.4,295.0 841.4,295.0 842.4,295.3 843.4,299.1 844.4,299.0 845.4,300.9 846.4,304.6 847.4,307.3 848.4,303.1 849.4,300.9 850.5,303.0 851.5,290.9 852.5,301.1 853.5,301.9 854.5,302.0 855.5,295.6 856.5,306.6 857.5,304.1 858.5,288.8 859.5,297.4 860.5,295.3 861.5,295.7 862.5,296.1 863.5,306.3 864.5,300.3 865.5,304.9 866.5,295.7 867.5,303.6 868.6,305.1 869.6,302.6 870.6,301.6 871.6,285.2 872.6,304.3 873.6,334.7 874.6,343.7 875.6,343.8 876.6,343.5 877.6,344.0 878.6,319.0 879.6,342.3 880.6,343.1 881.6,342.6 882.6,343.4 883.6,343.4 884.6,343.4 885.7,338.9 886.7,343.5 887.7,344.5 888.7,342.7 889.7,342.0 890.7,343.8 891.7,343.0 892.7,343.2 893.7,340.3 894.7,342.7 895.7,343.4 896.7,342.2 897.7,343.9 898.7,341.8 899.7,341.2 900.7,342.8 901.7,342.4 902.8,343.3 903.8,344.8 904.8,343.7 905.8,343.3 906.8,344.0 907.8,342.7 908.8,343.5 909.8,341.8 910.8,340.1 911.8,342.3 912.8,342.4 913.8,339.6 914.8,341.5 915.8,340.5 916.8,343.1 917.8,341.6 918.8,340.5 919.8,342.3 920.9,342.5 921.9,342.2 922.9,343.0 923.9,342.6 924.9,342.9 925.9,343.5 926.9,342.4 927.9,340.9 928.9,341.4 929.9,342.5 930.9,343.3 931.9,343.5 932.9,343.3 933.9,343.2 934.9,342.6 935.9,341.1 936.9,340.9 938.0,341.6 939.0,340.6 940.0,341.3 941.0,341.0 942.0,342.8 943.0,341.5 944.0,342.2 945.0,341.5 946.0,343.0" fill="none" stroke="#2563eb" stroke-width="2.2" stroke-linejoin="round" stroke-linecap="round"/>
<polyline points="76.0,311.4 77.0,324.9 78.0,334.1 79.0,334.5 80.0,335.0 81.0,334.6 82.0,334.4 83.0,330.8 84.0,334.6 85.1,334.6 86.1,320.5 87.1,334.6 88.1,334.2 89.1,330.7 90.1,334.4 91.1,333.8 92.1,321.1 93.1,330.5 94.1,332.4 95.1,310.6 96.1,302.9 97.1,305.9 98.1,320.5 99.1,315.5 100.1,310.4 101.1,329.8 102.2,333.4 103.2,312.5 104.2,335.0 105.2,319.0 106.2,330.5 107.2,283.8 108.2,300.4 109.2,303.3 110.2,308.3 111.2,331.3 112.2,312.5 113.2,310.6 114.2,334.9 115.2,335.0 116.2,329.7 117.2,310.6 118.2,310.6 119.2,312.5 120.3,340.8 121.3,334.9 122.3,308.9 123.3,310.3 124.3,334.9 125.3,335.3 126.3,334.2 127.3,333.4 128.3,333.9 129.3,334.6 130.3,331.5 131.3,334.6 132.3,330.9 133.3,334.3 134.3,334.6 135.3,334.2 136.3,335.0 137.4,334.9 138.4,334.9 139.4,344.0 140.4,335.8 141.4,334.9 142.4,334.9 143.4,330.7 144.4,344.0 145.4,335.6 146.4,336.2 147.4,336.2 148.4,335.0 149.4,338.1 150.4,336.2 151.4,336.1 152.4,335.1 153.4,335.0 154.5,335.0 155.5,334.5 156.5,335.0 157.5,334.6 158.5,334.6 159.5,335.0 160.5,335.0 161.5,335.0 162.5,334.3 163.5,334.9 164.5,334.9 165.5,330.7 166.5,334.7 167.5,312.2 168.5,329.6 169.5,331.1 170.5,333.8 171.5,344.0 172.6,330.6 173.6,333.8 174.6,335.0 175.6,336.2 176.6,334.7 177.6,334.7 178.6,334.8 179.6,334.6 180.6,331.0 181.6,330.5 182.6,331.5 183.6,333.0 184.6,335.0 185.6,334.9 186.6,334.9 187.6,334.1 188.6,334.9 189.7,334.9 190.7,331.5 191.7,332.3 192.7,336.2 193.7,344.0 194.7,336.1 195.7,335.0 196.7,310.1 197.7,334.9 198.7,334.5 199.7,334.7 200.7,333.8 201.7,334.9 202.7,334.0 203.7,334.9 204.7,334.9 205.7,334.9 206.8,335.0 207.8,334.7 208.8,333.2 209.8,334.9 210.8,335.0 211.8,335.0 212.8,334.1 213.8,334.2 214.8,330.3 215.8,310.6 216.8,298.7 217.8,309.8 218.8,304.4 219.8,310.2 220.8,310.1 221.8,327.6 222.8,333.0 223.8,333.8 224.9,333.8 225.9,334.9 226.9,334.9 227.9,333.8 228.9,334.7 229.9,334.7 230.9,334.6 231.9,344.0 232.9,334.9 233.9,334.9 234.9,335.0 235.9,335.0 236.9,333.8 237.9,334.4 238.9,330.9 239.9,319.7 240.9,298.7 242.0,334.1 243.0,326.9 244.0,334.7 245.0,331.8 246.0,331.8 247.0,331.4 248.0,334.7 249.0,334.4 250.0,334.6 251.0,334.6 252.0,330.7 253.0,330.7 254.0,334.9 255.0,334.4 256.0,331.0 257.0,334.6 258.0,335.0 259.1,334.6 260.1,334.9 261.1,330.5 262.1,334.3 263.1,315.6 264.1,334.6 265.1,298.7 266.1,334.0 267.1,329.7 268.1,332.6 269.1,331.8 270.1,310.6 271.1,331.8 272.1,332.3 273.1,334.6 274.1,323.8 275.1,334.0 276.2,295.8 277.2,298.7 278.2,327.1 279.2,331.1 280.2,330.7 281.2,332.3 282.2,334.6 283.2,334.7 284.2,334.1 285.2,324.8 286.2,315.1 287.2,308.6 288.2,305.4 289.2,298.7 290.2,306.5 291.2,305.4 292.2,331.7 293.2,305.5 294.3,317.0 295.3,333.4 296.3,335.0 297.3,334.1 298.3,335.0 299.3,334.9 300.3,333.7 301.3,335.0 302.3,319.7 303.3,319.7 304.3,334.1 305.3,333.8 306.3,333.4 307.3,334.7 308.3,334.6 309.3,331.3 310.3,305.4 311.4,308.2 312.4,308.3 313.4,298.7 314.4,310.2 315.4,335.5 316.4,336.2 317.4,312.5 318.4,334.5 319.4,336.2 320.4,335.9 321.4,336.2 322.4,335.0 323.4,333.8 324.4,334.3 325.4,334.4 326.4,333.5 327.4,334.6 328.5,334.4 329.5,329.6 330.5,308.9 331.5,334.1 332.5,308.2 333.5,334.4 334.5,310.7 335.5,310.3 336.5,325.1 337.5,305.5 338.5,319.7 339.5,344.0 340.5,315.6 341.5,334.2 342.5,308.2 343.5,309.9 344.5,330.0 345.5,334.1 346.6,335.0 347.6,333.2 348.6,323.8 349.6,333.8 350.6,308.2 351.6,306.1 352.6,323.8 353.6,315.6 354.6,333.4 355.6,332.6 356.6,303.2 357.6,334.1 358.6,334.7 359.6,326.5 360.6,333.8 361.6,320.8 362.6,333.7 363.7,333.7 364.7,334.1 365.7,330.7 366.7,331.8 367.7,333.7 368.7,334.6 369.7,333.8 370.7,333.0 371.7,310.6 372.7,334.7 373.7,330.7 374.7,345.9 375.7,333.8 376.7,334.7 377.7,333.7 378.7,334.7 379.7,334.7 380.8,310.6 381.8,315.4 382.8,332.0 383.8,310.5 384.8,331.7 385.8,305.3 386.8,330.5 387.8,326.9 388.8,302.2 389.8,309.7 390.8,335.9 391.8,333.4 392.8,334.9 393.8,334.4 394.8,306.5 395.8,306.5 396.8,318.3 397.8,320.1 398.9,323.6 399.9,331.8 400.9,310.6 401.9,305.4 402.9,308.2 403.9,331.8 404.9,305.2 405.9,330.5 406.9,334.1 407.9,326.7 408.9,330.7 409.9,305.4 410.9,308.2 411.9,333.8 412.9,334.1 413.9,335.0 414.9,340.8 416.0,336.2 417.0,336.1 418.0,335.0 419.0,336.2 420.0,335.8 421.0,333.8 422.0,334.4 423.0,335.0 424.0,334.8 425.0,334.9 426.0,334.6 427.0,331.8 428.0,334.5 429.0,335.0 430.0,329.1 431.0,330.7 432.0,325.8 433.1,325.3 434.1,308.2 435.1,333.5 436.1,308.4 437.1,310.3 438.1,330.5 439.1,319.6 440.1,308.3 441.1,334.6 442.1,318.7 443.1,335.8 444.1,335.0 445.1,297.6 446.1,305.3 447.1,325.3 448.1,325.7 449.1,318.9 450.2,310.3 451.2,334.9 452.2,321.4 453.2,334.2 454.2,331.5 455.2,329.7 456.2,309.6 457.2,308.4 458.2,298.7 459.2,302.7 460.2,305.5 461.2,309.0 462.2,331.8 463.2,334.0 464.2,329.6 465.2,334.7 466.2,333.8 467.2,335.0 468.3,334.0 469.3,334.0 470.3,325.3 471.3,334.9 472.3,334.5 473.3,334.6 474.3,334.7 475.3,334.7 476.3,334.7 477.3,334.6 478.3,334.1 479.3,326.9 480.3,326.6 481.3,305.4 482.3,343.0 483.3,335.3 484.3,344.0 485.4,335.0 486.4,329.1 487.4,301.0 488.4,334.2 489.4,334.1 490.4,315.6 491.4,335.0 492.4,334.1 493.4,334.6 494.4,333.6 495.4,330.5 496.4,330.4 497.4,333.8 498.4,335.0 499.4,335.0 500.4,333.2 501.4,334.4 502.5,310.5 503.5,332.0 504.5,310.1 505.5,332.7 506.5,305.4 507.5,309.8 508.5,310.6 509.5,330.0 510.5,333.8 511.5,332.4 512.5,335.3 513.5,318.3 514.5,334.7 515.5,336.2 516.5,331.4 517.5,325.8 518.5,334.6 519.5,331.3 520.6,331.8 521.6,334.7 522.6,334.5 523.6,333.8 524.6,330.7 525.6,334.9 526.6,334.8 527.6,331.8 528.6,333.2 529.6,310.7 530.6,330.5 531.6,308.2 532.6,308.4 533.6,305.4 534.6,330.4 535.6,326.9 536.6,330.4 537.7,334.9 538.7,331.5 539.7,335.0 540.7,334.6 541.7,334.1 542.7,334.9 543.7,334.7 544.7,335.0 545.7,333.8 546.7,335.0 547.7,333.3 548.7,334.6 549.7,335.0 550.7,332.7 551.7,283.6 552.7,333.8 553.7,335.0 554.8,319.3 555.8,331.1 556.8,329.7 557.8,331.8 558.8,334.1 559.8,334.6 560.8,334.9 561.8,334.7 562.8,334.6 563.8,334.8 564.8,335.0 565.8,334.9 566.8,335.0 567.8,334.9 568.8,334.7 569.8,334.9 570.8,335.0 571.8,334.7 572.9,334.1 573.9,335.7 574.9,334.1 575.9,334.4 576.9,305.3 577.9,319.6 578.9,309.3 579.9,300.7 580.9,310.4 581.9,330.5 582.9,310.6 583.9,330.5 584.9,333.0 585.9,334.7 586.9,333.8 587.9,334.1 588.9,330.9 590.0,334.7 591.0,334.9 592.0,334.9 593.0,305.4 594.0,334.4 595.0,331.0 596.0,335.0 597.0,333.8 598.0,335.0 599.0,333.8 600.0,334.9 601.0,310.6 602.0,334.3 603.0,306.4 604.0,308.4 605.0,333.8 606.0,330.9 607.1,334.1 608.1,329.7 609.1,334.3 610.1,305.3 611.1,330.7 612.1,328.8 613.1,333.8 614.1,295.8 615.1,334.6 616.1,310.6 617.1,310.6 618.1,333.8 619.1,318.4 620.1,318.5 621.1,334.2 622.1,334.9 623.1,334.1 624.2,334.1 625.2,330.4 626.2,308.2 627.2,308.2 628.2,310.2 629.2,333.8 630.2,310.6 631.2,310.4 632.2,327.3 633.2,332.0 634.2,335.0 635.2,334.6 636.2,334.0 637.2,334.6 638.2,334.5 639.2,330.7 640.2,333.5 641.2,331.5 642.3,334.6 643.3,334.1 644.3,333.8 645.3,330.7 646.3,334.7 647.3,334.9 648.3,332.0 649.3,307.0 650.3,326.1 651.3,305.4 652.3,306.4 653.3,309.0 654.3,306.4 655.3,334.6 656.3,327.0 657.3,333.8 658.3,333.2 659.4,334.1 660.4,335.0 661.4,334.6 662.4,333.9 663.4,333.8 664.4,334.7 665.4,330.7 666.4,331.8 667.4,334.9 668.4,334.1 669.4,334.6 670.4,334.9 671.4,327.5 672.4,335.0 673.4,333.6 674.4,319.7 675.4,302.9 676.5,310.1 677.5,327.5 678.5,326.8 679.5,323.6 680.5,298.7 681.5,310.6 682.5,331.1 683.5,330.7 684.5,334.6 685.5,324.6 686.5,323.8 687.5,330.4 688.5,333.8 689.5,330.7 690.5,334.6 691.5,323.9 692.5,333.2 693.5,334.1 694.6,325.7 695.6,309.1 696.6,315.6 697.6,333.8 698.6,308.5 699.6,306.5 700.6,308.2 701.6,310.2 702.6,312.5 703.6,331.0 704.6,331.9 705.6,317.9 706.6,334.6 707.6,335.0 708.6,335.0 709.6,335.0 710.6,334.6 711.7,333.8 712.7,334.9 713.7,330.4 714.7,334.3 715.7,334.6 716.7,334.2 717.7,333.8 718.7,335.0 719.7,330.7 720.7,333.8 721.7,315.5 722.7,330.7 723.7,305.4 724.7,324.4 725.7,306.5 726.7,331.8 727.7,308.9 728.8,333.8 729.8,333.8 730.8,331.2 731.8,310.7 732.8,333.8 733.8,330.0 734.8,327.2 735.8,323.8 736.8,330.0 737.8,305.0 738.8,312.5 739.8,333.8 740.8,332.0 741.8,329.7 742.8,333.8 743.8,322.8 744.8,308.3 745.8,310.4 746.9,305.2 747.9,305.4 748.9,308.2 749.9,310.7 750.9,310.1 751.9,319.6 752.9,325.7 753.9,330.8 754.9,330.9 755.9,305.4 756.9,305.2 757.9,333.8 758.9,331.0 759.9,305.4 760.9,334.7 761.9,308.3 762.9,334.1 764.0,334.7 765.0,332.8 766.0,332.9 767.0,308.2 768.0,335.0 769.0,330.4 770.0,310.4 771.0,330.0 772.0,326.8 773.0,305.9 774.0,306.4 775.0,323.8 776.0,296.7 777.0,334.1 778.0,335.0 779.0,335.0 780.0,331.5 781.1,334.7 782.1,335.0 783.1,304.3 784.1,308.2 785.1,335.0 786.1,331.8 787.1,334.5 788.1,331.2 789.1,334.7 790.1,331.8 791.1,321.5 792.1,334.9 793.1,331.9 794.1,310.4 795.1,308.3 796.1,305.4 797.1,305.9 798.2,305.7 799.2,324.6 800.2,330.7 801.2,334.5 802.2,331.6 803.2,335.0 804.2,335.0 805.2,335.0 806.2,322.4 807.2,334.9 808.2,331.1 809.2,335.0 810.2,344.0 811.2,344.0 812.2,344.0 813.2,334.6 814.2,335.0 815.2,335.0 816.3,334.4 817.3,311.6 818.3,308.9 819.3,308.2 820.3,308.1 821.3,330.4 822.3,308.6 823.3,337.4 824.3,335.0 825.3,335.0 826.3,335.0 827.3,331.8 828.3,332.0 829.3,334.1 830.3,330.5 831.3,334.6 832.3,335.0 833.4,334.9 834.4,312.5 835.4,333.8 836.4,332.0 837.4,333.8 838.4,331.7 839.4,331.0 840.4,310.7 841.4,308.6 842.4,314.0 843.4,327.1 844.4,304.8 845.4,340.8 846.4,341.6 847.4,335.0 848.4,334.6 849.4,334.6 850.5,324.6 851.5,317.8 852.5,346.0 853.5,334.6 854.5,334.9 855.5,317.9 856.5,344.0 857.5,334.0 858.5,321.8 859.5,332.8 860.5,325.5 861.5,333.8 862.5,313.7 863.5,334.6 864.5,328.5 865.5,331.2 866.5,305.4 867.5,331.0 868.6,310.0 869.6,331.4 870.6,330.2 871.6,290.8 872.6,335.0 873.6,347.8 874.6,350.1 875.6,349.5 876.6,346.1 877.6,349.4 878.6,341.0 879.6,346.4 880.6,349.3 881.6,344.7 882.6,345.1 883.6,349.2 884.6,349.4 885.7,343.5 886.7,350.0 887.7,350.1 888.7,347.6 889.7,344.9 890.7,349.2 891.7,345.2 892.7,344.1 893.7,344.7 894.7,345.7 895.7,346.1 896.7,345.7 897.7,349.5 898.7,345.1 899.7,349.4 900.7,348.7 901.7,346.1 902.8,345.8 903.8,351.6 904.8,348.3 905.8,345.7 906.8,349.9 907.8,344.7 908.8,346.4 909.8,345.2 910.8,343.4 911.8,345.2 912.8,346.1 913.8,342.1 914.8,343.4 915.8,343.5 916.8,345.2 917.8,345.2 918.8,344.0 919.8,345.2 920.9,345.4 921.9,345.3 922.9,344.8 923.9,345.8 924.9,346.1 925.9,344.8 926.9,345.0 927.9,344.3 928.9,345.2 929.9,347.2 930.9,347.4 931.9,350.1 932.9,346.4 933.9,348.8 934.9,348.0 935.9,344.7 936.9,344.0 938.0,345.4 939.0,342.7 940.0,345.8 941.0,344.1 942.0,346.0 943.0,349.5 944.0,344.0 945.0,345.9 946.0,346.7" fill="none" stroke="#059669" stroke-width="2.2" stroke-linejoin="round" stroke-linecap="round"/>
<polyline points="76.0,208.9 77.0,216.7 78.0,223.4 79.0,228.3 80.0,236.4 81.0,228.3 82.0,223.3 83.0,216.9 84.0,223.4 85.1,223.3 86.1,199.8 87.1,223.4 88.1,224.6 89.1,223.3 90.1,226.2 91.1,227.6 92.1,211.5 93.1,216.7 94.1,236.0 95.1,216.6 96.1,215.8 97.1,199.8 98.1,220.3 99.1,223.2 100.1,223.4 101.1,220.5 102.2,223.3 103.2,213.2 104.2,216.6 105.2,200.1 106.2,199.8 107.2,160.5 108.2,170.2 109.2,170.2 110.2,209.6 111.2,215.8 112.2,209.6 113.2,208.2 114.2,233.3 115.2,241.0 116.2,230.2 117.2,223.3 118.2,223.8 119.2,223.4 120.3,227.6 121.3,220.4 122.3,213.7 123.3,221.6 124.3,214.1 125.3,236.4 126.3,233.9 127.3,228.8 128.3,229.4 129.3,230.2 130.3,223.4 131.3,223.4 132.3,224.4 133.3,227.8 134.3,231.4 135.3,223.4 136.3,236.4 137.4,240.4 138.4,233.6 139.4,244.6 140.4,239.4 141.4,240.4 142.4,238.9 143.4,236.3 144.4,251.7 145.4,206.3 146.4,236.6 147.4,237.6 148.4,234.6 149.4,248.7 150.4,242.6 151.4,246.3 152.4,241.1 153.4,232.3 154.5,233.3 155.5,228.3 156.5,223.5 157.5,229.7 158.5,233.3 159.5,246.2 160.5,238.6 161.5,241.0 162.5,231.4 163.5,230.1 164.5,230.4 165.5,216.6 166.5,239.0 167.5,223.4 168.5,231.9 169.5,231.4 170.5,242.9 171.5,248.9 172.6,223.4 173.6,227.9 174.6,242.4 175.6,237.1 176.6,229.7 177.6,234.8 178.6,236.4 179.6,233.2 180.6,223.4 181.6,223.4 182.6,230.1 183.6,233.2 184.6,241.8 185.6,237.6 186.6,246.3 187.6,230.4 188.6,230.5 189.7,237.1 190.7,236.4 191.7,236.6 192.7,241.3 193.7,240.4 194.7,240.4 195.7,233.2 196.7,200.3 197.7,223.3 198.7,223.4 199.7,216.6 200.7,229.6 201.7,233.3 202.7,231.4 203.7,233.3 204.7,230.8 205.7,236.3 206.8,236.3 207.8,233.3 208.8,230.2 209.8,238.7 210.8,238.8 211.8,237.6 212.8,228.0 213.8,226.9 214.8,237.0 215.8,226.6 216.8,232.3 217.8,231.4 218.8,207.0 219.8,223.4 220.8,223.3 221.8,223.3 222.8,225.0 223.8,223.4 224.9,236.4 225.9,236.4 226.9,231.9 227.9,230.2 228.9,235.6 229.9,236.3 230.9,236.7 231.9,251.5 232.9,233.3 233.9,233.3 234.9,241.1 235.9,241.0 236.9,233.3 237.9,232.1 238.9,225.6 239.9,223.4 240.9,241.1 242.0,223.4 243.0,199.8 244.0,231.6 245.0,233.2 246.0,223.4 247.0,228.7 248.0,233.2 249.0,236.4 250.0,233.2 251.0,232.7 252.0,233.7 253.0,223.4 254.0,238.3 255.0,233.9 256.0,223.4 257.0,232.6 258.0,238.6 259.1,240.5 260.1,247.9 261.1,224.1 262.1,223.3 263.1,224.5 264.1,234.8 265.1,247.0 266.1,227.7 267.1,223.2 268.1,223.4 269.1,225.2 270.1,222.7 271.1,229.5 272.1,223.4 273.1,228.1 274.1,212.0 275.1,223.2 276.2,160.5 277.2,171.2 278.2,200.0 279.2,210.4 280.2,201.6 281.2,223.4 282.2,232.3 283.2,227.9 284.2,226.7 285.2,216.8 286.2,216.6 287.2,223.4 288.2,200.0 289.2,227.0 290.2,199.8 291.2,199.8 292.2,223.4 293.2,210.4 294.3,217.0 295.3,224.4 296.3,223.4 297.3,224.5 298.3,224.1 299.3,226.6 300.3,223.4 301.3,233.2 302.3,208.9 303.3,221.6 304.3,233.3 305.3,232.1 306.3,223.3 307.3,228.3 308.3,230.2 309.3,223.4 310.3,202.6 311.4,220.4 312.4,223.2 313.4,257.5 314.4,219.7 315.4,214.4 316.4,240.0 317.4,215.3 318.4,228.3 319.4,233.5 320.4,241.1 321.4,240.7 322.4,233.2 323.4,233.2 324.4,227.4 325.4,223.4 326.4,240.4 327.4,231.6 328.5,230.9 329.5,218.4 330.5,210.8 331.5,228.0 332.5,182.3 333.5,231.0 334.5,214.8 335.5,222.1 336.5,223.4 337.5,227.6 338.5,214.7 339.5,240.7 340.5,215.1 341.5,221.5 342.5,199.7 343.5,197.1 344.5,195.3 345.5,216.6 346.6,210.6 347.6,223.4 348.6,170.2 349.6,220.5 350.6,205.1 351.6,205.7 352.6,199.8 353.6,221.7 354.6,228.0 355.6,223.4 356.6,168.9 357.6,223.3 358.6,231.5 359.6,223.2 360.6,223.4 361.6,176.3 362.6,200.3 363.7,226.2 364.7,231.6 365.7,223.4 366.7,209.8 367.7,233.3 368.7,232.6 369.7,224.4 370.7,223.4 371.7,220.4 372.7,230.2 373.7,223.3 374.7,251.8 375.7,231.2 376.7,231.4 377.7,230.2 378.7,233.1 379.7,233.1 380.8,224.5 381.8,223.2 382.8,223.3 383.8,223.3 384.8,223.3 385.8,214.8 386.8,223.4 387.8,214.7 388.8,213.3 389.8,223.3 390.8,233.1 391.8,214.9 392.8,223.3 393.8,219.0 394.8,209.6 395.8,200.3 396.8,215.1 397.8,223.3 398.9,215.1 399.9,232.5 400.9,223.3 401.9,205.7 402.9,207.1 403.9,223.3 404.9,223.4 405.9,223.3 406.9,233.2 407.9,223.4 408.9,234.8 409.9,223.2 410.9,223.0 411.9,223.4 412.9,223.9 413.9,231.2 414.9,248.1 416.0,233.3 417.0,235.7 418.0,239.4 419.0,233.2 420.0,229.7 421.0,215.5 422.0,231.7 423.0,233.2 424.0,233.2 425.0,233.1 426.0,228.3 427.0,225.3 428.0,231.2 429.0,240.6 430.0,220.4 431.0,223.3 432.0,223.4 433.1,228.4 434.1,226.3 435.1,226.6 436.1,210.1 437.1,213.3 438.1,220.4 439.1,226.5 440.1,213.9 441.1,223.3 442.1,215.7 443.1,224.2 444.1,233.2 445.1,170.2 446.1,199.8 447.1,223.3 448.1,200.5 449.1,212.4 450.2,214.7 451.2,233.1 452.2,221.6 453.2,228.3 454.2,223.3 455.2,215.7 456.2,212.4 457.2,200.0 458.2,192.4 459.2,194.7 460.2,208.9 461.2,200.0 462.2,215.1 463.2,228.0 464.2,213.3 465.2,233.3 466.2,223.1 467.2,222.6 468.3,223.4 469.3,219.0 470.3,223.2 471.3,240.4 472.3,226.2 473.3,231.5 474.3,233.2 475.3,226.7 476.3,233.2 477.3,236.3 478.3,240.4 479.3,223.5 480.3,224.2 481.3,223.4 482.3,233.2 483.3,227.8 484.3,223.4 485.4,231.7 486.4,226.6 487.4,92.4 488.4,215.1 489.4,223.3 490.4,213.8 491.4,231.5 492.4,230.2 493.4,223.4 494.4,223.4 495.4,223.3 496.4,220.4 497.4,223.2 498.4,233.2 499.4,238.4 500.4,233.2 501.4,231.7 502.5,213.9 503.5,223.4 504.5,223.3 505.5,238.0 506.5,232.3 507.5,217.1 508.5,212.6 509.5,230.2 510.5,226.8 511.5,230.5 512.5,233.4 513.5,200.3 514.5,233.3 515.5,233.3 516.5,216.7 517.5,220.5 518.5,228.0 519.5,220.3 520.6,219.8 521.6,226.9 522.6,231.9 523.6,233.0 524.6,223.3 525.6,237.7 526.6,240.3 527.6,225.0 528.6,236.6 529.6,223.3 530.6,227.9 531.6,211.9 532.6,214.8 533.6,214.8 534.6,223.3 535.6,223.3 536.6,217.0 537.7,234.2 538.7,224.1 539.7,231.5 540.7,223.4 541.7,223.4 542.7,236.6 543.7,216.9 544.7,233.6 545.7,224.5 546.7,236.6 547.7,223.3 548.7,231.8 549.7,231.4 550.7,223.3 551.7,168.8 552.7,223.3 553.7,224.5 554.8,224.6 555.8,226.7 556.8,223.4 557.8,223.3 558.8,239.7 559.8,223.4 560.8,230.2 561.8,223.4 562.8,228.4 563.8,226.6 564.8,238.6 565.8,232.1 566.8,236.6 567.8,236.3 568.8,232.3 569.8,236.4 570.8,233.6 571.8,240.4 572.9,223.4 573.9,241.1 574.9,212.7 575.9,225.1 576.9,205.7 577.9,213.8 578.9,223.4 579.9,201.9 580.9,223.3 581.9,223.1 582.9,223.4 583.9,231.5 584.9,223.4 585.9,236.3 586.9,223.4 587.9,226.9 588.9,222.4 590.0,223.4 591.0,234.7 592.0,235.8 593.0,200.3 594.0,230.5 595.0,230.2 596.0,235.3 597.0,230.2 598.0,232.1 599.0,216.6 600.0,232.6 601.0,212.7 602.0,230.1 603.0,222.9 604.0,219.7 605.0,225.0 606.0,223.4 607.1,223.4 608.1,219.7 609.1,229.3 610.1,196.0 611.1,220.2 612.1,212.0 613.1,231.5 614.1,170.2 615.1,230.2 616.1,199.8 617.1,220.0 618.1,216.7 619.1,210.0 620.1,215.8 621.1,239.5 622.1,231.5 623.1,223.3 624.2,227.9 625.2,223.3 626.2,209.9 627.2,223.4 628.2,207.1 629.2,223.3 630.2,200.0 631.2,199.8 632.2,201.8 633.2,223.4 634.2,235.0 635.2,223.4 636.2,216.6 637.2,230.6 638.2,231.6 639.2,219.9 640.2,223.3 641.2,214.8 642.3,231.3 643.3,230.2 644.3,231.4 645.3,236.4 646.3,240.4 647.3,229.4 648.3,228.0 649.3,218.7 650.3,227.7 651.3,227.9 652.3,204.0 653.3,220.5 654.3,215.5 655.3,226.7 656.3,224.4 657.3,225.1 658.3,232.1 659.4,231.5 660.4,223.4 661.4,229.2 662.4,236.3 663.4,223.7 664.4,237.1 665.4,225.0 666.4,231.4 667.4,236.4 668.4,236.3 669.4,233.4 670.4,237.6 671.4,212.1 672.4,228.0 673.4,233.2 674.4,222.8 675.4,223.2 676.5,222.2 677.5,222.3 678.5,215.1 679.5,223.4 680.5,172.5 681.5,210.3 682.5,223.3 683.5,214.0 684.5,217.9 685.5,231.6 686.5,215.8 687.5,214.9 688.5,232.2 689.5,222.0 690.5,227.8 691.5,223.3 692.5,223.3 693.5,230.1 694.6,220.4 695.6,211.4 696.6,208.2 697.6,232.6 698.6,223.1 699.6,224.4 700.6,218.9 701.6,223.2 702.6,211.8 703.6,228.8 704.6,223.6 705.6,223.3 706.6,233.2 707.6,229.9 708.6,223.3 709.6,236.3 710.6,223.7 711.7,223.4 712.7,236.8 713.7,214.9 714.7,230.2 715.7,227.6 716.7,234.1 717.7,223.7 718.7,225.3 719.7,222.3 720.7,223.4 721.7,224.5 722.7,223.4 723.7,218.4 724.7,208.6 725.7,195.0 726.7,224.5 727.7,212.1 728.8,229.2 729.8,223.3 730.8,223.4 731.8,199.9 732.8,208.3 733.8,223.4 734.8,217.7 735.8,220.4 736.8,223.4 737.8,189.0 738.8,215.4 739.8,223.4 740.8,230.2 741.8,224.4 742.8,233.2 743.8,219.1 744.8,216.6 745.8,233.2 746.9,198.6 747.9,223.3 748.9,223.6 749.9,216.6 750.9,223.3 751.9,223.4 752.9,223.4 753.9,221.2 754.9,215.8 755.9,200.2 756.9,183.2 757.9,223.4 758.9,223.7 759.9,200.5 760.9,227.0 761.9,226.5 762.9,241.1 764.0,239.9 765.0,237.3 766.0,236.6 767.0,192.0 768.0,244.7 769.0,208.6 770.0,233.3 771.0,241.0 772.0,240.2 773.0,223.5 774.0,174.1 775.0,223.3 776.0,194.8 777.0,229.1 778.0,236.2 779.0,241.0 780.0,220.4 781.1,228.2 782.1,256.0 783.1,170.2 784.1,200.3 785.1,256.2 786.1,223.4 787.1,226.2 788.1,223.3 789.1,236.7 790.1,223.3 791.1,230.2 792.1,216.6 793.1,181.2 794.1,223.4 795.1,204.6 796.1,210.1 797.1,208.6 798.2,200.0 799.2,223.8 800.2,227.4 801.2,243.2 802.2,213.2 803.2,240.6 804.2,224.6 805.2,231.9 806.2,230.1 807.2,241.0 808.2,229.3 809.2,237.6 810.2,247.8 811.2,245.3 812.2,252.0 813.2,236.3 814.2,238.6 815.2,240.9 816.3,199.5 817.3,194.9 818.3,224.5 819.3,218.0 820.3,223.5 821.3,216.6 822.3,216.7 823.3,233.2 824.3,236.3 825.3,237.1 826.3,245.8 827.3,238.2 828.3,237.1 829.3,230.8 830.3,207.1 831.3,236.3 832.3,233.2 833.4,240.9 834.4,213.1 835.4,223.4 836.4,236.4 837.4,227.7 838.4,224.6 839.4,230.2 840.4,214.8 841.4,222.2 842.4,216.8 843.4,223.3 844.4,229.9 845.4,224.9 846.4,227.8 847.4,257.6 848.4,230.2 849.4,236.7 850.5,235.8 851.5,223.4 852.5,231.8 853.5,223.4 854.5,223.3 855.5,211.7 856.5,242.1 857.5,225.6 858.5,200.2 859.5,220.4 860.5,223.3 861.5,223.4 862.5,214.7 863.5,233.5 864.5,223.3 865.5,238.6 866.5,223.3 867.5,241.1 868.6,240.4 869.6,223.4 870.6,225.0 871.6,198.4 872.6,237.3 873.6,299.1 874.6,332.3 875.6,333.7 876.6,330.9 877.6,331.5 878.6,256.7 879.6,327.6 880.6,327.7 881.6,331.7 882.6,333.7 883.6,332.3 884.6,331.6 885.7,322.4 886.7,331.5 887.7,332.9 888.7,331.0 889.7,328.4 890.7,333.2 891.7,329.7 892.7,329.7 893.7,329.6 894.7,330.4 895.7,331.5 896.7,327.6 897.7,331.5 898.7,329.1 899.7,327.7 900.7,330.3 901.7,328.4 902.8,331.3 903.8,335.3 904.8,331.5 905.8,330.0 906.8,331.5 907.8,330.0 908.8,331.6 909.8,327.6 910.8,329.0 911.8,330.0 912.8,328.8 913.8,326.0 914.8,327.7 915.8,327.5 916.8,329.2 917.8,328.1 918.8,327.6 919.8,329.0 920.9,331.5 921.9,327.6 922.9,329.6 923.9,328.9 924.9,331.5 925.9,331.5 926.9,330.1 927.9,322.8 928.9,329.3 929.9,331.5 930.9,331.8 931.9,331.3 932.9,329.1 933.9,331.5 934.9,332.5 935.9,325.5 936.9,325.9 938.0,328.4 939.0,324.7 940.0,330.2 941.0,327.0 942.0,328.8 943.0,329.0 944.0,327.6 945.0,326.7 946.0,329.7" fill="none" stroke="#d97706" stroke-width="2.2" stroke-linejoin="round" stroke-linecap="round"/>
<line x1="76" y1="70" x2="94" y2="70" stroke="#2563eb" stroke-width="3"/>
<text x="100" y="74" font-family="Arial, sans-serif" font-size="11" fill="#0f172a">avg fee</text>
<line x1="179" y1="70" x2="197" y2="70" stroke="#059669" stroke-width="3"/>
<text x="203" y="74" font-family="Arial, sans-serif" font-size="11" fill="#0f172a">median fee</text>
<line x1="303" y1="70" x2="321" y2="70" stroke="#d97706" stroke-width="3"/>
<text x="327" y="74" font-family="Arial, sans-serif" font-size="11" fill="#0f172a">p90 fee</text>
<text x="28" y="404" font-family="Arial, sans-serif" font-size="11" fill="#64748b">Source: hourly_features.csv</text>
</svg>