<svg xmlns="http://www.w3.org/2000/svg" width="980" height="420" viewBox="0 0 980 420">
<rect width="100%" height="100%" fill="#ffffff"/>
<text x="28" y="34" font-family="Arial, sans-serif" font-size="20" font-weight="700" fill="#0f172a">Hourly fee trend</text>
<text x="28" y="56" font-family="Arial, sans-serif" font-size="12" fill="#64748b">Average, median, and p90 total fee by hour</text>
<line x1="76" y1="362.0" x2="946" y2="362.0" stroke="#e2e8f0" stroke-width="1"/>
<text x="68" y="366.0" font-family="Arial, sans-serif" font-size="10" text-anchor="end" fill="#64748b">-382K</text>
<line x1="76" y1="292.0" x2="946" y2="292.0" stroke="#e2e8f0" stroke-width="1"/>
<text x="68" y="296.0" font-family="Arial, sans-serif" font-size="10" text-anchor="end" fill="#64748b">2.6M</text>
<line x1="76" y1="222.0" x2="946" y2="222.0" stroke="#e2e8f0" stroke-width="1"/>
<text x="68" y="226.0" font-family="Arial, sans-serif" font-size="10" text-anchor="end" fill="#64748b">5.7M</text>
<line x1="76" y1="152.0" x2="946" y2="152.0" stroke="#e2e8f0" stroke-width="1"/>
<text x="68" y="156.0" font-family="Arial, sans-serif" font-size="10" text-anchor="end" fill="#64748b">8.7M</text>
<line x1="76" y1="82.0" x2="946" y2="82.0" stroke="#e2e8f0" stroke-width="1"/>
<text x="68" y="86.0" font-family="Arial, sans-serif" font-size="10" text-anchor="end" fill="#64748b">11.7M</text>
<line x1="76" y1="362" x2="946" y2="362" stroke="#334155" stroke-width="1"/>
<line x1="76" y1="82" x2="76" y2="362" stroke="#334155" stroke-width="1"/>
<text x="76" y="72" font-family="Arial, sans-serif" font-size="11" fill="#64748b">nanoton</text>
<line x1="76.0" y1="362" x2="76.0" y2="366" stroke="#334155" stroke-width="1"/>
<text x="76.0" y="380" font-family="Arial, sans-serif" font-size="10" text-anchor="middle" fill="#64748b">0</text>
<line x1="511.0" y1="362" x2="511.0" y2="366" stroke="#334155" stroke-width="1"/>
<text x="511.0" y="380" font-family="Arial, sans-serif" font-size="10" text-anchor="middle" fill="#64748b">464</text>
<line x1="946.0" y1="362" x2="946.0" y2="366" stroke="#334155" stroke-width="1"/>
<text x="946.0" y="380" font-family="Arial, sans-serif" font-size="10" text-anchor="middle" fill="#64748b">928</text>
<polyline points="76.0,290.8 76.9,294.6 77.9,296.0 78.8,298.1 79.8,304.8 80.7,297.2 81.6,298.2 82.6,294.6 83.5,299.0 84.4,298.7 85.4,287.8 86.3,299.5 87.2,299.7 88.2,297.4 89.1,300.3 90.1,300.5 91.0,292.5 91.9,292.5 92.9,301.3 93.8,291.1 94.8,289.2 95.7,287.3 96.6,293.8 97.6,294.2 98.5,296.1 99.4,292.1 100.4,297.7 101.3,290.6 102.2,293.2 103.2,288.3 104.1,289.0 105.1,273.1 106.0,284.7 106.9,285.3 107.9,294.6 108.8,299.9 109.8,292.9 110.7,294.9 111.6,304.7 112.6,307.5 113.5,302.1 114.4,297.0 115.4,298.7 116.3,297.9 117.2,304.4 118.2,297.4 119.1,294.5 120.1,296.5 121.0,298.7 121.9,303.1 122.9,303.1 123.8,301.9 124.8,300.3 125.7,303.3 126.6,302.2 127.6,299.4 128.5,299.1 129.4,302.8 130.4,299.1 131.3,301.3 132.2,306.8 133.2,308.7 134.1,306.4 135.1,307.1 136.0,309.1 136.9,305.9 137.9,305.5 138.8,302.0 139.8,308.5 140.7,290.7 141.6,306.4 142.6,306.4 143.5,306.3 144.4,311.2 145.4,307.1 146.3,310.3 147.2,309.1 148.2,305.5 149.1,305.4 150.1,303.2 151.0,303.5 151.9,301.3 152.9,305.1 153.8,307.4 154.8,306.9 155.7,308.1 156.6,305.0 157.6,302.9 158.5,302.7 159.4,298.6 160.4,304.9 161.3,297.0 162.2,299.3 163.2,300.3 164.1,303.9 165.1,311.6 166.0,300.1 166.9,300.5 167.9,308.9 168.8,307.5 169.8,300.3 170.7,304.2 171.6,305.1 172.6,302.6 173.5,300.5 174.4,297.4 175.4,298.7 176.3,301.9 177.2,308.1 178.2,307.4 179.1,307.4 180.1,303.1 181.0,301.9 181.9,304.1 182.9,303.9 183.8,304.0 184.8,308.3 185.7,308.9 186.6,307.3 187.6,301.1 188.5,286.9 189.4,301.6 190.4,298.8 191.3,296.1 192.2,299.6 193.2,305.5 194.1,301.5 195.1,304.9 196.0,302.2 196.9,304.9 197.9,306.8 198.8,304.9 199.8,300.8 200.7,304.8 201.6,308.0 202.6,302.4 203.5,301.7 204.4,303.1 205.4,303.4 206.3,298.9 207.2,298.5 208.2,298.0 209.1,289.4 210.1,296.9 211.0,296.4 211.9,295.5 212.9,299.6 213.8,299.0 214.8,304.6 215.7,304.0 216.6,303.8 217.6,299.2 218.5,301.2 219.4,305.7 220.4,304.5 221.3,312.1 222.2,305.7 223.2,304.3 224.1,307.0 225.1,306.9 226.0,301.9 226.9,303.8 227.9,300.8 228.8,301.6 229.8,300.2 230.7,298.7 231.6,290.6 232.6,296.1 233.5,300.6 234.4,296.6 235.4,302.7 236.3,302.6 237.2,303.0 238.2,302.7 239.1,302.8 240.1,303.7 241.0,300.1 241.9,305.6 242.9,303.0 243.8,299.2 244.8,302.8 245.7,306.7 246.6,306.1 247.6,306.7 248.5,298.5 249.4,301.6 250.4,297.8 251.3,303.8 252.2,300.2 253.2,299.5 254.1,295.6 255.1,298.2 256.0,298.4 256.9,293.8 257.9,299.9 258.8,297.9 259.8,298.6 260.7,294.2 261.6,297.8 262.6,278.0 263.5,284.2 264.4,295.2 265.4,295.7 266.3,294.4 267.2,300.7 268.2,304.3 269.1,302.4 270.1,302.1 271.0,297.9 271.9,295.3 272.9,296.5 273.8,291.4 274.8,292.0 275.7,290.6 276.6,290.0 277.6,299.7 278.5,291.9 279.4,296.8 280.4,299.8 281.3,303.8 282.2,302.5 283.2,302.1 284.1,302.3 285.1,300.8 286.0,303.5 286.9,295.9 287.9,297.8 288.8,304.4 289.8,304.2 290.7,299.5 291.6,303.9 292.6,303.5 293.5,299.0 294.4,288.7 295.4,293.7 296.3,294.2 297.2,303.7 298.2,295.6 299.1,297.0 300.1,305.6 301.0,294.8 301.9,300.5 302.9,305.1 303.8,308.5 304.8,305.5 305.7,304.0 306.6,300.7 307.6,303.8 308.5,299.3 309.4,303.0 310.4,305.0 311.3,303.0 312.2,299.3 313.2,294.4 314.1,299.9 315.1,286.2 316.0,302.1 316.9,293.9 317.9,297.9 318.8,299.5 319.8,297.4 320.7,294.4 321.6,310.4 322.6,291.6 323.5,295.6 324.4,281.6 325.4,294.6 326.3,293.2 327.2,295.0 328.2,291.0 329.1,301.0 330.1,279.9 331.0,297.2 331.9,291.8 332.9,291.5 333.8,283.3 334.8,298.3 335.7,300.4 336.6,298.6 337.6,288.4 338.5,299.0 339.4,304.4 340.4,297.7 341.3,295.5 342.2,279.8 343.2,284.2 344.1,300.5 345.1,299.9 346.0,298.1 346.9,293.4 347.9,303.1 348.8,303.0 349.8,298.6 350.7,296.8 351.6,297.4 352.6,301.3 353.5,298.1 354.4,311.4 355.4,299.4 356.3,303.5 357.2,301.2 358.2,302.9 359.1,304.3 360.1,297.8 361.0,294.4 361.9,299.3 362.9,295.1 363.8,301.8 364.8,292.6 365.7,297.6 366.6,293.9 367.6,290.0 368.5,295.1 369.4,304.6 370.4,291.1 371.3,300.3 372.2,295.9 373.2,293.1 374.1,291.6 375.1,296.8 376.0,297.1 376.9,297.9 377.9,299.5 378.8,292.8 379.8,286.2 380.7,290.1 381.6,300.0 382.6,294.5 383.5,300.9 384.4,303.0 385.4,299.1 386.3,302.5 387.2,295.1 388.2,297.0 389.1,302.8 390.1,301.7 391.0,303.0 391.9,308.6 392.9,306.8 393.8,306.1 394.8,306.5 395.7,304.3 396.6,304.5 397.6,298.3 398.5,301.1 399.4,303.1 400.4,303.3 401.3,304.2 402.2,302.4 403.2,299.4 404.1,304.5 405.1,307.1 406.0,297.3 406.9,298.9 407.9,298.1 408.8,299.7 409.8,297.8 410.7,301.0 411.6,287.2 412.6,294.3 413.5,294.8 414.4,298.6 415.4,291.3 416.3,298.4 417.2,294.6 418.2,298.7 419.1,304.2 420.1,282.2 421.0,289.8 421.9,298.8 422.9,295.1 423.8,293.4 424.8,294.7 425.7,304.3 426.6,296.9 427.6,301.7 428.5,296.7 429.4,295.6 430.4,292.9 431.3,291.6 432.2,286.7 433.2,287.8 434.1,294.2 435.1,292.6 436.0,297.5 436.9,303.1 437.9,296.8 438.8,304.1 439.8,298.7 440.7,297.8 441.6,299.3 442.6,297.1 443.5,296.6 444.4,305.5 445.4,301.9 446.3,304.5 447.2,302.9 448.2,303.4 449.1,302.7 450.1,304.5 451.0,301.7 451.9,300.0 452.9,297.3 453.8,295.0 454.8,305.0 455.7,302.7 456.6,303.7 457.6,302.8 458.5,298.5 459.4,257.0 460.4,291.0 461.3,298.5 462.2,296.3 463.2,301.0 464.1,301.6 465.1,299.9 466.0,299.3 466.9,299.6 467.9,296.0 468.8,299.4 469.8,305.6 470.7,306.5 471.6,300.9 472.6,302.7 473.5,295.0 474.4,302.2 475.4,296.9 476.3,304.8 477.2,299.1 478.2,295.6 479.1,295.1 480.1,300.9 481.0,301.0 481.9,300.7 482.9,304.5 483.8,292.6 484.8,303.5 485.7,306.0 486.6,295.5 487.6,297.4 488.5,302.8 489.4,295.8 490.4,299.5 491.3,304.0 492.2,301.7 493.2,303.8 494.1,300.8 495.1,306.1 496.0,305.6 496.9,300.8 497.9,303.2 498.8,297.1 499.8,300.2 500.7,292.3 501.6,292.0 502.6,292.1 503.5,299.3 504.4,298.5 505.4,298.8 506.3,301.5 507.2,299.6 508.2,305.3 509.1,300.2 510.1,300.6 511.0,304.7 511.9,299.2 512.9,304.4 513.8,299.7 514.8,306.4 515.7,299.1 516.6,304.5 517.6,303.3 518.5,298.0 519.4,263.7 520.4,302.9 521.3,304.6 522.2,301.3 523.2,300.8 524.1,298.3 525.1,299.9 526.0,302.7 526.9,298.6 527.9,304.0 528.8,302.8 529.8,303.0 530.7,301.1 531.6,308.3 532.6,304.5 533.5,309.0 534.4,304.5 535.4,303.7 536.3,304.9 537.2,303.6 538.2,305.3 539.1,299.5 540.1,305.2 541.0,297.1 541.9,302.2 542.9,288.1 543.8,294.6 544.8,299.7 545.7,287.4 546.6,299.0 547.6,298.4 548.5,296.8 549.4,301.1 550.4,299.5 551.3,302.6 552.2,299.3 553.2,303.0 554.1,298.0 555.1,301.6 556.0,305.3 556.9,304.5 557.9,290.4 558.8,303.1 559.8,299.6 560.7,302.4 561.6,303.1 562.6,304.7 563.5,296.3 564.4,301.7 565.4,292.9 566.3,298.2 567.2,294.8 568.2,293.5 569.1,299.4 570.1,297.4 571.0,300.4 571.9,295.6 572.9,301.5 573.8,282.6 574.8,297.4 575.7,291.2 576.6,300.8 577.6,281.3 578.5,303.6 579.4,292.1 580.4,296.5 581.3,300.9 582.2,293.9 583.2,295.3 584.1,305.2 585.1,304.7 586.0,300.3 586.9,302.0 587.9,297.5 588.8,295.0 589.8,296.6 590.7,292.7 591.6,298.7 592.6,291.1 593.5,289.9 594.4,292.8 595.4,302.6 596.3,303.5 597.2,301.6 598.2,297.5 599.1,303.0 600.1,302.5 601.0,299.3 601.9,300.0 602.9,295.7 603.8,300.6 604.8,302.5 605.7,302.2 606.6,300.7 607.6,305.4 608.5,305.1 609.4,301.0 610.4,294.2 611.3,301.0 612.2,298.9 613.2,290.4 614.1,295.9 615.1,294.1 616.0,301.3 616.9,298.2 617.9,299.2 618.8,302.6 619.8,300.9 620.7,299.2 621.6,302.7 622.6,303.6 623.5,299.5 624.4,304.4 625.4,298.2 626.3,302.7 627.2,304.9 628.2,303.3 629.1,303.8 630.1,305.7 631.0,294.6 631.9,306.7 632.9,303.7 633.8,295.1 634.8,294.1 635.7,293.7 636.6,295.9 637.6,295.9 638.5,298.1 639.4,284.7 640.4,294.9 641.3,298.6 642.2,296.3 643.2,294.2 644.1,300.6 645.1,294.3 646.0,295.9 646.9,303.8 647.9,295.8 648.8,302.6 649.8,297.7 650.7,300.0 651.6,300.7 652.6,298.3 653.5,294.8 654.4,295.8 655.4,303.0 656.3,295.6 657.2,296.0 658.2,295.2 659.1,295.3 660.1,295.0 661.0,299.9 661.9,299.0 662.9,295.9 663.8,303.3 664.8,302.9 665.7,298.2 666.6,305.5 667.6,300.9 668.5,300.4 669.4,305.2 670.4,295.8 671.3,301.8 672.2,303.2 673.2,304.6 674.1,299.1 675.1,301.0 676.0,298.0 676.9,298.8 677.9,297.3 678.8,300.8 679.8,296.0 680.7,293.0 681.6,284.2 682.6,298.8 683.5,293.9 684.4,298.9 685.4,298.8 686.3,298.0 687.2,291.0 688.2,292.3 689.1,298.2 690.1,297.5 691.0,297.5 691.9,298.5 692.9,288.2 693.8,296.5 694.8,297.3 695.7,301.7 696.6,301.0 697.6,305.4 698.5,295.8 699.4,295.1 700.4,299.8 701.3,289.6 702.2,296.7 703.2,295.1 704.1,295.1 705.1,294.8 706.0,297.5 706.9,299.5 707.9,295.8 708.8,297.0 709.8,291.7 710.7,285.1 711.6,299.7 712.6,301.0 713.5,293.6 714.4,302.3 715.4,297.5 716.3,307.7 717.2,292.5 718.2,304.9 719.1,304.1 720.1,291.9 721.0,305.2 721.9,297.8 722.9,298.1 723.8,307.4 724.8,305.4 725.7,294.0 726.6,284.5 727.6,295.7 728.5,281.6 729.4,295.8 730.4,307.1 731.3,303.5 732.2,299.2 733.2,301.5 734.1,309.0 735.1,287.8 736.0,293.3 736.9,314.3 737.9,300.8 738.8,304.2 739.8,299.2 740.7,305.4 741.6,297.5 742.6,303.5 743.5,297.3 744.4,286.2 745.4,295.6 746.3,293.4 747.2,295.3 748.2,292.6 749.1,295.0 750.1,297.5 751.0,303.2 751.9,307.8 752.9,295.2 753.8,306.6 754.8,305.0 755.7,305.4 756.6,303.1 757.6,297.4 758.5,293.5 759.4,305.0 760.4,310.4 761.3,306.6 762.2,309.4 763.2,304.0 764.1,307.8 765.1,308.2 766.0,299.0 766.9,288.2 767.9,297.1 768.8,298.1 769.8,298.6 770.7,298.7 771.6,295.2 772.6,305.8 773.5,307.8 774.4,304.4 775.4,309.3 776.3,306.7 777.2,303.2 778.2,303.6 779.1,296.5 780.1,304.1 781.0,305.5 781.9,308.2 782.9,291.8 783.8,301.9 784.8,305.3 785.7,302.2 786.6,300.9 787.6,302.7 788.5,295.0 789.4,295.0 790.4,295.3 791.3,299.1 792.2,299.0 793.2,300.9 794.1,304.6 795.1,307.3 796.0,303.1 796.9,300.9 797.9,303.0 798.8,290.9 799.8,301.1 800.7,301.9 801.6,302.0 802.6,295.6 803.5,306.6 804.4,304.1 805.4,288.8 806.3,297.4 807.2,295.3 808.2,295.7 809.1,296.1 810.1,306.3 811.0,300.3 811.9,304.9 812.9,295.7 813.8,303.6 814.8,305.1 815.7,302.6 816.6,301.6 817.6,285.2 818.5,304.3 819.4,334.7 820.4,343.7 821.3,343.8 822.2,343.5 823.2,344.0 824.1,319.0 825.1,342.3 826.0,343.1 826.9,342.6 827.9,343.4 828.8,343.4 829.8,343.4 830.7,338.9 831.6,343.5 832.6,344.5 833.5,342.7 834.4,342.0 835.4,343.8 836.3,343.0 837.2,343.2 838.2,340.3 839.1,342.7 840.1,343.4 841.0,342.2 841.9,343.9 842.9,341.8 843.8,341.2 844.8,342.8 845.7,342.4 846.6,343.3 847.6,344.8 848.5,343.7 849.4,343.3 850.4,344.0 851.3,342.7 852.2,343.5 853.2,341.8 854.1,340.1 855.1,342.3 856.0,342.4 856.9,339.6 857.9,341.5 858.8,340.5 859.8,343.1 860.7,341.6 861.6,340.5 862.6,342.3 863.5,342.5 864.4,342.2 865.4,343.0 866.3,342.6 867.2,342.9 868.2,343.5 869.1,342.4 870.1,340.9 871.0,341.4 871.9,342.5 872.9,343.3 873.8,343.5 874.8,343.3 875.7,343.2 876.6,342.6 877.6,341.1 878.5,340.9 879.4,341.6 880.4,340.6 881.3,341.3 882.2,341.0 883.2,342.8 884.1,341.5 885.1,342.2 886.0,341.5 886.9,342.8 887.9,341.0 888.8,340.5 889.8,341.9 890.7,341.5 891.6,341.0 892.6,338.4 893.5,325.0 894.4,339.0 895.4,340.0 896.3,339.6 897.2,341.0 898.2,338.3 899.1,339.7 900.1,338.7 901.0,339.5 901.9,333.1 902.9,340.3 903.8,337.2 904.8,337.3 905.7,338.6 906.6,339.3 907.6,338.5 908.5,337.9 909.4,338.6 910.4,339.5 911.3,339.1 912.2,339.5 913.2,339.7 914.1,337.8 915.1,338.7 916.0,338.4 916.9,336.7 917.9,338.9 918.8,340.0 919.8,340.5 920.7,342.3 921.6,337.0 922.6,340.5 923.5,338.6 924.4,338.7 925.4,337.1 926.3,336.9 927.2,340.4 928.2,339.1 929.1,339.0 930.1,338.7 931.0,339.6 931.9,340.2 932.9,340.9 933.8,339.1 934.8,338.5 935.7,340.0 936.6,341.2 937.6,339.9 938.5,338.0 939.4,337.5 940.4,342.7 941.3,340.5 942.2,339.7 943.2,340.2 944.1,337.2 945.1,339.4 946.0,339.8" fill="none" stroke="#2563eb" stroke-width="2.2" stroke-linejoin="round" stroke-linecap="round"/>
<polyline points="76.0,311.4 76.9,324.9 77.9,334.1 78.8,334.5 79.8,335.0 80.7,334.6 81.6,334.4 82.6,330.8 83.5,334.6 84.4,334.6 85.4,320.5 86.3,334.6 87.2,334.2 88.2,330.7 89.1,334.4 90.1,333.8 91.0,321.1 91.9,330.5 92.9,332.4 93.8,310.6 94.8,302.9 95.7,305.9 96.6,320.5 97.6,315.5 98.5,310.4 99.4,329.8 100.4,333.4 101.3,312.5 102.2,335.0 103.2,319.0 104.1,330.5 105.1,283.8 106.0,300.4 106.9,303.3 107.9,308.3 108.8,331.3 109.8,312.5 110.7,310.6 111.6,334.9 112.6,335.0 113.5,329.7 114.4,310.6 115.4,310.6 116.3,312.5 117.2,340.8 118.2,334.9 119.1,308.9 120.1,310.3 121.0,334.9 121.9,335.3 122.9,334.2 123.8,333.4 124.8,333.9 125.7,334.6 126.6,331.5 127.6,334.6 128.5,330.9 129.4,334.3 130.4,334.6 131.3,334.2 132.2,335.0 133.2,334.9 134.1,334.9 135.1,344.0 136.0,335.8 136.9,334.9 137.9,334.9 138.8,330.7 139.8,344.0 140.7,335.6 141.6,336.2 142.6,336.2 143.5,335.0 144.4,338.1 145.4,336.2 146.3,336.1 147.2,335.1 148.2,335.0 149.1,335.0 150.1,334.5 151.0,335.0 151.9,334.6 152.9,334.6 153.8,335.0 154.8,335.0 155.7,335.0 156.6,334.3 157.6,334.9 158.5,334.9 159.4,330.7 160.4,334.7 161.3,312.2 162.2,329.6 163.2,331.1 164.1,333.8 165.1,344.0 166.0,330.6 166.9,333.8 167.9,335.0 168.8,336.2 169.8,334.7 170.7,334.7 171.6,334.8 172.6,334.6 173.5,331.0 174.4,330.5 175.4,331.5 176.3,333.0 177.2,335.0 178.2,334.9 179.1,334.9 180.1,334.1 181.0,334.9 181.9,334.9 182.9,331.5 183.8,332.3 184.8,336.2 185.7,344.0 186.6,336.1 187.6,335.0 188.5,310.1 189.4,334.9 190.4,334.5 191.3,334.7 192.2,333.8 193.2,334.9 194.1,334.0 195.1,334.9 196.0,334.9 196.9,334.9 197.9,335.0 198.8,334.7 199.8,333.2 200.7,334.9 201.6,335.0 202.6,335.0 203.5,334.1 204.4,334.2 205.4,330.3 206.3,310.6 207.2,298.7 208.2,309.8 209.1,304.4 210.1,310.2 211.0,310.1 211.9,327.6 212.9,333.0 213.8,333.8 214.8,333.8 215.7,334.9 216.6,334.9 217.6,333.8 218.5,334.7 219.4,334.7 220.4,334.6 221.3,344.0 222.2,334.9 223.2,334.9 224.1,335.0 225.1,335.0 226.0,333.8 226.9,334.4 227.9,330.9 228.8,319.7 229.8,298.7 230.7,334.1 231.6,326.9 232.6,334.7 233.5,331.8 234.4,331.8 235.4,331.4 236.3,334.7 237.2,334.4 238.2,334.6 239.1,334.6 240.1,330.7 241.0,330.7 241.9,334.9 242.9,334.4 243.8,331.0 244.8,334.6 245.7,335.0 246.6,334.6 247.6,334.9 248.5,330.5 249.4,334.3 250.4,315.6 251.3,334.6 252.2,298.7 253.2,334.0 254.1,329.7 255.1,332.6 256.0,331.8 256.9,310.6 257.9,331.8 258.8,332.3 259.8,334.6 260.7,323.8 261.6,334.0 262.6,295.8 263.5,298.7 264.4,327.1 265.4,331.1 266.3,330.7 267.2,332.3 268.2,334.6 269.1,334.7 270.1,334.1 271.0,324.8 271.9,315.1 272.9,308.6 273.8,305.4 274.8,298.7 275.7,306.5 276.6,305.4 277.6,331.7 278.5,305.5 279.4,317.0 280.4,333.4 281.3,335.0 282.2,334.1 283.2,335.0 284.1,334.9 285.1,333.7 286.0,335.0 286.9,319.7 287.9,319.7 288.8,334.1 289.8,333.8 290.7,333.4 291.6,334.7 292.6,334.6 293.5,331.3 294.4,305.4 295.4,308.2 296.3,308.3 297.2,298.7 298.2,310.2 299.1,335.5 300.1,336.2 301.0,312.5 301.9,334.5 302.9,336.2 303.8,335.9 304.8,336.2 305.7,335.0 306.6,333.8 307.6,334.3 308.5,334.4 309.4,333.5 310.4,334.6 311.3,334.4 312.2,329.6 313.2,308.9 314.1,334.1 315.1,308.2 316.0,334.4 316.9,310.7 317.9,310.3 318.8,325.1 319.8,305.5 320.7,319.7 321.6,344.0 322.6,315.6 323.5,334.2 324.4,308.2 325.4,309.9 326.3,330.0 327.2,334.1 328.2,335.0 329.1,333.2 330.1,323.8 331.0,333.8 331.9,308.2 332.9,306.1 333.8,323.8 334.8,315.6 335.7,333.4 336.6,332.6 337.6,303.2 338.5,334.1 339.4,334.7 340.4,326.5 341.3,333.8 342.2,320.8 343.2,333.7 344.1,333.7 345.1,334.1 346.0,330.7 346.9,331.8 347.9,333.7 348.8,334.6 349.8,333.8 350.7,333.0 351.6,310.6 352.6,334.7 353.5,330.7 354.4,345.9 355.4,333.8 356.3,334.7 357.2,333.7 358.2,334.7 359.1,334.7 360.1,310.6 361.0,315.4 361.9,332.0 362.9,310.5 363.8,331.7 364.8,305.3 365.7,330.5 366.6,326.9 367.6,302.2 368.5,309.7 369.4,335.9 370.4,333.4 371.3,334.9 372.2,334.4 373.2,306.5 374.1,306.5 375.1,318.3 376.0,320.1 376.9,323.6 377.9,331.8 378.8,310.6 379.8,305.4 380.7,308.2 381.6,331.8 382.6,305.2 383.5,330.5 384.4,334.1 385.4,326.7 386.3,330.7 387.2,305.4 388.2,308.2 389.1,333.8 390.1,334.1 391.0,335.0 391.9,340.8 392.9,336.2 393.8,336.1 394.8,335.0 395.7,336.2 396.6,335.8 397.6,333.8 398.5,334.4 399.4,335.0 400.4,334.8 401.3,334.9 402.2,334.6 403.2,331.8 404.1,334.5 405.1,335.0 406.0,329.1 406.9,330.7 407.9,325.8 408.8,325.3 409.8,308.2 410.7,333.5 411.6,308.4 412.6,310.3 413.5,330.5 414.4,319.6 415.4,308.3 416.3,334.6 417.2,318.7 418.2,335.8 419.1,335.0 420.1,297.6 421.0,305.3 421.9,325.3 422.9,325.7 423.8,318.9 424.8,310.3 425.7,334.9 426.6,321.4 427.6,334.2 428.5,331.5 429.4,329.7 430.4,309.6 431.3,308.4 432.2,298.7 433.2,302.7 434.1,305.5 435.1,309.0 436.0,331.8 436.9,334.0 437.9,329.6 438.8,334.7 439.8,333.8 440.7,335.0 441.6,334.0 442.6,334.0 443.5,325.3 444.4,334.9 445.4,334.5 446.3,334.6 447.2,334.7 448.2,334.7 449.1,334.7 450.1,334.6 451.0,334.1 451.9,326.9 452.9,326.6 453.8,305.4 454.8,343.0 455.7,335.3 456.6,344.0 457.6,335.0 458.5,329.1 459.4,301.0 460.4,334.2 461.3,334.1 462.2,315.6 463.2,335.0 464.1,334.1 465.1,334.6 466.0,333.6 466.9,330.5 467.9,330.4 468.8,333.8 469.8,335.0 470.7,335.0 471.6,333.2 472.6,334.4 473.5,310.5 474.4,332.0 475.4,310.1 476.3,332.7 477.2,305.4 478.2,309.8 479.1,310.6 480.1,330.0 481.0,333.8 481.9,332.4 482.9,335.3 483.8,318.3 484.8,334.7 485.7,336.2 486.6,331.4 487.6,325.8 488.5,334.6 489.4,331.3 490.4,331.8 491.3,334.7 492.2,334.5 493.2,333.8 494.1,330.7 495.1,334.9 496.0,334.8 496.9,331.8 497.9,333.2 498.8,310.7 499.8,330.5 500.7,308.2 501.6,308.4 502.6,305.4 503.5,330.4 504.4,326.9 505.4,330.4 506.3,334.9 507.2,331.5 508.2,335.0 509.1,334.6 510.1,334.1 511.0,334.9 511.9,334.7 512.9,335.0 513.8,333.8 514.8,335.0 515.7,333.3 516.6,334.6 517.6,335.0 518.5,332.7 519.4,283.6 520.4,333.8 521.3,335.0 522.2,319.3 523.2,331.1 524.1,329.7 525.1,331.8 526.0,334.1 526.9,334.6 527.9,334.9 528.8,334.7 529.8,334.6 530.7,334.8 531.6,335.0 532.6,334.9 533.5,335.0 534.4,334.9 535.4,334.7 536.3,334.9 537.2,335.0 538.2,334.7 539.1,334.1 540.1,335.7 541.0,334.1 541.9,334.4 542.9,305.3 543.8,319.6 544.8,309.3 545.7,300.7 546.6,310.4 547.6,330.5 548.5,310.6 549.4,330.5 550.4,333.0 551.3,334.7 552.2,333.8 553.2,334.1 554.1,330.9 555.1,334.7 556.0,334.9 556.9,334.9 557.9,305.4 558.8,334.4 559.8,331.0 560.7,335.0 561.6,333.8 562.6,335.0 563.5,333.8 564.4,334.9 565.4,310.6 566.3,334.3 567.2,306.4 568.2,308.4 569.1,333.8 570.1,330.9 571.0,334.1 571.9,329.7 572.9,334.3 573.8,305.3 574.8,330.7 575.7,328.8 576.6,333.8 577.6,295.8 578.5,334.6 579.4,310.6 580.4,310.6 581.3,333.8 582.2,318.4 583.2,318.5 584.1,334.2 585.1,334.9 586.0,334.1 586.9,334.1 587.9,330.4 588.8,308.2 589.8,308.2 590.7,310.2 591.6,333.8 592.6,310.6 593.5,310.4 594.4,327.3 595.4,332.0 596.3,335.0 597.2,334.6 598.2,334.0 599.1,334.6 600.1,334.5 601.0,330.7 601.9,333.5 602.9,331.5 603.8,334.6 604.8,334.1 605.7,333.8 606.6,330.7 607.6,334.7 608.5,334.9 609.4,332.0 610.4,307.0 611.3,326.1 612.2,305.4 613.2,306.4 614.1,309.0 615.1,306.4 616.0,334.6 616.9,327.0 617.9,333.8 618.8,333.2 619.8,334.1 620.7,335.0 621.6,334.6 622.6,333.9 623.5,333.8 624.4,334.7 625.4,330.7 626.3,331.8 627.2,334.9 628.2,334.1 629.1,334.6 630.1,334.9 631.0,327.5 631.9,335.0 632.9,333.6 633.8,319.7 634.8,302.9 635.7,310.1 636.6,327.5 637.6,326.8 638.5,323.6 639.4,298.7 640.4,310.6 641.3,331.1 642.2,330.7 643.2,334.6 644.1,324.6 645.1,323.8 646.0,330.4 646.9,333.8 647.9,330.7 648.8,334.6 649.8,323.9 650.7,333.2 651.6,334.1 652.6,325.7 653.5,309.1 654.4,315.6 655.4,333.8 656.3,308.5 657.2,306.5 658.2,308.2 659.1,310.2 660.1,312.5 661.0,331.0 661.9,331.9 662.9,317.9 663.8,334.6 664.8,335.0 665.7,335.0 666.6,335.0 667.6,334.6 668.5,333.8 669.4,334.9 670.4,330.4 671.3,334.3 672.2,334.6 673.2,334.2 674.1,333.8 675.1,335.0 676.0,330.7 676.9,333.8 677.9,315.5 678.8,330.7 679.8,305.4 680.7,324.4 681.6,306.5 682.6,331.8 683.5,308.9 684.4,333.8 685.4,333.8 686.3,331.2 687.2,310.7 688.2,333.8 689.1,330.0 690.1,327.2 691.0,323.8 691.9,330.0 692.9,305.0 693.8,312.5 694.8,333.8 695.7,332.0 696.6,329.7 697.6,333.8 698.5,322.8 699.4,308.3 700.4,310.4 701.3,305.2 702.2,305.4 703.2,308.2 704.1,310.7 705.1,310.1 706.0,319.6 706.9,325.7 707.9,330.8 708.8,330.9 709.8,305.4 710.7,305.2 711.6,333.8 712.6,331.0 713.5,305.4 714.4,334.7 715.4,308.3 716.3,334.1 717.2,334.7 718.2,332.8 719.1,332.9 720.1,308.2 721.0,335.0 721.9,330.4 722.9,310.4 723.8,330.0 724.8,326.8 725.7,305.9 726.6,306.4 727.6,323.8 728.5,296.7 729.4,334.1 730.4,335.0 731.3,335.0 732.2,331.5 733.2,334.7 734.1,335.0 735.1,304.3 736.0,308.2 736.9,335.0 737.9,331.8 738.8,334.5 739.8,331.2 740.7,334.7 741.6,331.8 742.6,321.5 743.5,334.9 744.4,331.9 745.4,310.4 746.3,308.3 747.2,305.4 748.2,305.9 749.1,305.7 750.1,324.6 751.0,330.7 751.9,334.5 752.9,331.6 753.8,335.0 754.8,335.0 755.7,335.0 756.6,322.4 757.6,334.9 758.5,331.1 759.4,335.0 760.4,344.0 761.3,344.0 762.2,344.0 763.2,334.6 764.1,335.0 765.1,335.0 766.0,334.4 766.9,311.6 767.9,308.9 768.8,308.2 769.8,308.1 770.7,330.4 771.6,308.6 772.6,337.4 773.5,335.0 774.4,335.0 775.4,335.0 776.3,331.8 777.2,332.0 778.2,334.1 779.1,330.5 780.1,334.6 781.0,335.0 781.9,334.9 782.9,312.5 783.8,333.8 784.8,332.0 785.7,333.8 786.6,331.7 787.6,331.0 788.5,310.7 789.4,308.6 790.4,314.0 791.3,327.1 792.2,304.8 793.2,340.8 794.1,341.6 795.1,335.0 796.0,334.6 796.9,334.6 797.9,324.6 798.8,317.8 799.8,346.0 800.7,334.6 801.6,334.9 802.6,317.9 803.5,344.0 804.4,334.0 805.4,321.8 806.3,332.8 807.2,325.5 808.2,333.8 809.1,313.7 810.1,334.6 811.0,328.5 811.9,331.2 812.9,305.4 813.8,331.0 814.8,310.0 815.7,331.4 816.6,330.2 817.6,290.8 818.5,335.0 819.4,347.8 820.4,350.1 821.3,349.5 822.2,346.1 823.2,349.4 824.1,341.0 825.1,346.4 826.0,349.3 826.9,344.7 827.9,345.1 828.8,349.2 829.8,349.4 830.7,343.5 831.6,350.0 832.6,350.1 833.5,347.6 834.4,344.9 835.4,349.2 836.3,345.2 837.2,344.1 838.2,344.7 839.1,345.7 840.1,346.1 841.0,345.7 841.9,349.5 842.9,345.1 843.8,349.4 844.8,348.7 845.7,346.1 846.6,345.8 847.6,351.6 848.5,348.3 849.4,345.7 850.4,349.9 851.3,344.7 852.2,346.4 853.2,345.2 854.1,343.4 855.1,345.2 856.0,346.1 856.9,342.1 857.9,343.4 858.8,343.5 859.8,345.2 860.7,345.2 861.6,344.0 862.6,345.2 863.5,345.4 864.4,345.3 865.4,344.8 866.3,345.8 867.2,346.1 868.2,344.8 869.1,345.0 870.1,344.3 871.0,345.2 871.9,347.2 872.9,347.4 873.8,350.1 874.8,346.4 875.7,348.8 876.6,348.0 877.6,344.7 878.5,344.0 879.4,345.4 880.4,342.7 881.3,345.8 882.2,344.1 883.2,346.0 884.1,349.5 885.1,344.0 886.0,345.9 886.9,347.6 887.9,344.8 888.8,343.6 889.8,343.6 890.7,344.9 891.6,343.6 892.6,342.0 893.5,343.9 894.4,342.7 895.4,343.4 896.3,341.6 897.2,343.4 898.2,341.5 899.1,342.3 900.1,342.7 901.0,341.5 901.9,341.0 902.9,342.2 903.8,341.2 904.8,340.3 905.7,342.4 906.6,341.6 907.6,341.6 908.5,341.4 909.4,341.5 910.4,341.6 911.3,342.3 912.2,342.2 913.2,341.8 914.1,340.9 915.1,342.0 916.0,341.6 916.9,341.8 917.9,342.0 918.8,343.4 919.8,341.9 920.7,345.8 921.6,341.6 922.6,343.4 923.5,341.6 924.4,341.6 925.4,338.9 926.3,339.8 927.2,342.4 928.2,341.6 929.1,342.1 930.1,342.6 931.0,341.8 931.9,343.4 932.9,343.5 933.8,341.6 934.8,342.3 935.7,344.2 936.6,342.3 937.6,343.2 938.5,341.6 939.4,339.8 940.4,349.4 941.3,343.6 942.2,342.0 943.2,343.5 944.1,340.5 945.1,341.5 946.0,344.9" fill="none" stroke="#059669" stroke-width="2.2" stroke-linejoin="round" stroke-linecap="round"/>
<polyline points="76.0,208.9 76.9,216.7 77.9,223.4 78.8,228.3 79.8,236.4 80.7,228.3 81.6,223.3 82.6,216.9 83.5,223.4 84.4,223.3 85.4,199.8 86.3,223.4 87.2,224.6 88.2,223.3 89.1,226.2 90.1,227.6 91.0,211.5 91.9,216.7 92.9,236.0 93.8,216.6 94.8,215.8 95.7,199.8 96.6,220.3 97.6,223.2 98.5,223.4 99.4,220.5 100.4,223.3 101.3,213.2 102.2,216.6 103.2,200.1 104.1,199.8 105.1,160.5 106.0,170.2 106.9,170.2 107.9,209.6 108.8,215.8 109.8,209.6 110.7,208.2 111.6,233.3 112.6,241.0 113.5,230.2 114.4,223.3 115.4,223.8 116.3,223.4 117.2,227.6 118.2,220.4 119.1,213.7 120.1,221.6 121.0,214.1 121.9,236.4 122.9,233.9 123.8,228.8 124.8,229.4 125.7,230.2 126.6,223.4 127.6,223.4 128.5,224.4 129.4,227.8 130.4,231.4 131.3,223.4 132.2,236.4 133.2,240.4 134.1,233.6 135.1,244.6 136.0,239.4 136.9,240.4 137.9,238.9 138.8,236.3 139.8,251.7 140.7,206.3 141.6,236.6 142.6,237.6 143.5,234.6 144.4,248.7 145.4,242.6 146.3,246.3 147.2,241.1 148.2,232.3 149.1,233.3 150.1,228.3 151.0,223.5 151.9,229.7 152.9,233.3 153.8,246.2 154.8,238.6 155.7,241.0 156.6,231.4 157.6,230.1 158.5,230.4 159.4,216.6 160.4,239.0 161.3,223.4 162.2,231.9 163.2,231.4 164.1,242.9 165.1,248.9 166.0,223.4 166.9,227.9 167.9,242.4 168.8,237.1 169.8,229.7 170.7,234.8 171.6,236.4 172.6,233.2 173.5,223.4 174.4,223.4 175.4,230.1 176.3,233.2 177.2,241.8 178.2,237.6 179.1,246.3 180.1,230.4 181.0,230.5 181.9,237.1 182.9,236.4 183.8,236.6 184.8,241.3 185.7,240.4 186.6,240.4 187.6,233.2 188.5,200.3 189.4,223.3 190.4,223.4 191.3,216.6 192.2,229.6 193.2,233.3 194.1,231.4 195.1,233.3 196.0,230.8 196.9,236.3 197.9,236.3 198.8,233.3 199.8,230.2 200.7,238.7 201.6,238.8 202.6,237.6 203.5,228.0 204.4,226.9 205.4,237.0 206.3,226.6 207.2,232.3 208.2,231.4 209.1,207.0 210.1,223.4 211.0,223.3 211.9,223.3 212.9,225.0 213.8,223.4 214.8,236.4 215.7,236.4 216.6,231.9 217.6,230.2 218.5,235.6 219.4,236.3 220.4,236.7 221.3,251.5 222.2,233.3 223.2,233.3 224.1,241.1 225.1,241.0 226.0,233.3 226.9,232.1 227.9,225.6 228.8,223.4 229.8,241.1 230.7,223.4 231.6,199.8 232.6,231.6 233.5,233.2 234.4,223.4 235.4,228.7 236.3,233.2 237.2,236.4 238.2,233.2 239.1,232.7 240.1,233.7 241.0,223.4 241.9,238.3 242.9,233.9 243.8,223.4 244.8,232.6 245.7,238.6 246.6,240.5 247.6,247.9 248.5,224.1 249.4,223.3 250.4,224.5 251.3,234.8 252.2,247.0 253.2,227.7 254.1,223.2 255.1,223.4 256.0,225.2 256.9,222.7 257.9,229.5 258.8,223.4 259.8,228.1 260.7,212.0 261.6,223.2 262.6,160.5 263.5,171.2 264.4,200.0 265.4,210.4 266.3,201.6 267.2,223.4 268.2,232.3 269.1,227.9 270.1,226.7 271.0,216.8 271.9,216.6 272.9,223.4 273.8,200.0 274.8,227.0 275.7,199.8 276.6,199.8 277.6,223.4 278.5,210.4 279.4,217.0 280.4,224.4 281.3,223.4 282.2,224.5 283.2,224.1 284.1,226.6 285.1,223.4 286.0,233.2 286.9,208.9 287.9,221.6 288.8,233.3 289.8,232.1 290.7,223.3 291.6,228.3 292.6,230.2 293.5,223.4 294.4,202.6 295.4,220.4 296.3,223.2 297.2,257.5 298.2,219.7 299.1,214.4 300.1,240.0 301.0,215.3 301.9,228.3 302.9,233.5 303.8,241.1 304.8,240.7 305.7,233.2 306.6,233.2 307.6,227.4 308.5,223.4 309.4,240.4 310.4,231.6 311.3,230.9 312.2,218.4 313.2,210.8 314.1,228.0 315.1,182.3 316.0,231.0 316.9,214.8 317.9,222.1 318.8,223.4 319.8,227.6 320.7,214.7 321.6,240.7 322.6,215.1 323.5,221.5 324.4,199.7 325.4,197.1 326.3,195.3 327.2,216.6 328.2,210.6 329.1,223.4 330.1,170.2 331.0,220.5 331.9,205.1 332.9,205.7 333.8,199.8 334.8,221.7 335.7,228.0 336.6,223.4 337.6,168.9 338.5,223.3 339.4,231.5 340.4,223.2 341.3,223.4 342.2,176.3 343.2,200.3 344.1,226.2 345.1,231.6 346.0,223.4 346.9,209.8 347.9,233.3 348.8,232.6 349.8,224.4 350.7,223.4 351.6,220.4 352.6,230.2 353.5,223.3 354.4,251.8 355.4,231.2 356.3,231.4 357.2,230.2 358.2,233.1 359.1,233.1 360.1,224.5 361.0,223.2 361.9,223.3 362.9,223.3 363.8,223.3 364.8,214.8 365.7,223.4 366.6,214.7 367.6,213.3 368.5,223.3 369.4,233.1 370.4,214.9 371.3,223.3 372.2,219.0 373.2,209.6 374.1,200.3 375.1,215.1 376.0,223.3 376.9,215.1 377.9,232.5 378.8,223.3 379.8,205.7 380.7,207.1 381.6,223.3 382.6,223.4 383.5,223.3 384.4,233.2 385.4,223.4 386.3,234.8 387.2,223.2 388.2,223.0 389.1,223.4 390.1,223.9 391.0,231.2 391.9,248.1 392.9,233.3 393.8,235.7 394.8,239.4 395.7,233.2 396.6,229.7 397.6,215.5 398.5,231.7 399.4,233.2 400.4,233.2 401.3,233.1 402.2,228.3 403.2,225.3 404.1,231.2 405.1,240.6 406.0,220.4 406.9,223.3 407.9,223.4 408.8,228.4 409.8,226.3 410.7,226.6 411.6,210.1 412.6,213.3 413.5,220.4 414.4,226.5 415.4,213.9 416.3,223.3 417.2,215.7 418.2,224.2 419.1,233.2 420.1,170.2 421.0,199.8 421.9,223.3 422.9,200.5 423.8,212.4 424.8,214.7 425.7,233.1 426.6,221.6 427.6,228.3 428.5,223.3 429.4,215.7 430.4,212.4 431.3,200.0 432.2,192.4 433.2,194.7 434.1,208.9 435.1,200.0 436.0,215.1 436.9,228.0 437.9,213.3 438.8,233.3 439.8,223.1 440.7,222.6 441.6,223.4 442.6,219.0 443.5,223.2 444.4,240.4 445.4,226.2 446.3,231.5 447.2,233.2 448.2,226.7 449.1,233.2 450.1,236.3 451.0,240.4 451.9,223.5 452.9,224.2 453.8,223.4 454.8,233.2 455.7,227.8 456.6,223.4 457.6,231.7 458.5,226.6 459.4,92.4 460.4,215.1 461.3,223.3 462.2,213.8 463.2,231.5 464.1,230.2 465.1,223.4 466.0,223.4 466.9,223.3 467.9,220.4 468.8,223.2 469.8,233.2 470.7,238.4 471.6,233.2 472.6,231.7 473.5,213.9 474.4,223.4 475.4,223.3 476.3,238.0 477.2,232.3 478.2,217.1 479.1,212.6 480.1,230.2 481.0,226.8 481.9,230.5 482.9,233.4 483.8,200.3 484.8,233.3 485.7,233.3 486.6,216.7 487.6,220.5 488.5,228.0 489.4,220.3 490.4,219.8 491.3,226.9 492.2,231.9 493.2,233.0 494.1,223.3 495.1,237.7 496.0,240.3 496.9,225.0 497.9,236.6 498.8,223.3 499.8,227.9 500.7,211.9 501.6,214.8 502.6,214.8 503.5,223.3 504.4,223.3 505.4,217.0 506.3,234.2 507.2,224.1 508.2,231.5 509.1,223.4 510.1,223.4 511.0,236.6 511.9,216.9 512.9,233.6 513.8,224.5 514.8,236.6 515.7,223.3 516.6,231.8 517.6,231.4 518.5,223.3 519.4,168.8 520.4,223.3 521.3,224.5 522.2,224.6 523.2,226.7 524.1,223.4 525.1,223.3 526.0,239.7 526.9,223.4 527.9,230.2 528.8,223.4 529.8,228.4 530.7,226.6 531.6,238.6 532.6,232.1 533.5,236.6 534.4,236.3 535.4,232.3 536.3,236.4 537.2,233.6 538.2,240.4 539.1,223.4 540.1,241.1 541.0,212.7 541.9,225.1 542.9,205.7 543.8,213.8 544.8,223.4 545.7,201.9 546.6,223.3 547.6,223.1 548.5,223.4 549.4,231.5 550.4,223.4 551.3,236.3 552.2,223.4 553.2,226.9 554.1,222.4 555.1,223.4 556.0,234.7 556.9,235.8 557.9,200.3 558.8,230.5 559.8,230.2 560.7,235.3 561.6,230.2 562.6,232.1 563.5,216.6 564.4,232.6 565.4,212.7 566.3,230.1 567.2,222.9 568.2,219.7 569.1,225.0 570.1,223.4 571.0,223.4 571.9,219.7 572.9,229.3 573.8,196.0 574.8,220.2 575.7,212.0 576.6,231.5 577.6,170.2 578.5,230.2 579.4,199.8 580.4,220.0 581.3,216.7 582.2,210.0 583.2,215.8 584.1,239.5 585.1,231.5 586.0,223.3 586.9,227.9 587.9,223.3 588.8,209.9 589.8,223.4 590.7,207.1 591.6,223.3 592.6,200.0 593.5,199.8 594.4,201.8 595.4,223.4 596.3,235.0 597.2,223.4 598.2,216.6 599.1,230.6 600.1,231.6 601.0,219.9 601.9,223.3 602.9,214.8 603.8,231.3 604.8,230.2 605.7,231.4 606.6,236.4 607.6,240.4 608.5,229.4 609.4,228.0 610.4,218.7 611.3,227.7 612.2,227.9 613.2,204.0 614.1,220.5 615.1,215.5 616.0,226.7 616.9,224.4 617.9,225.1 618.8,232.1 619.8,231.5 620.7,223.4 621.6,229.2 622.6,236.3 623.5,223.7 624.4,237.1 625.4,225.0 626.3,231.4 627.2,236.4 628.2,236.3 629.1,233.4 630.1,237.6 631.0,212.1 631.9,228.0 632.9,233.2 633.8,222.8 634.8,223.2 635.7,222.2 636.6,222.3 637.6,215.1 638.5,223.4 639.4,172.5 640.4,210.3 641.3,223.3 642.2,214.0 643.2,217.9 644.1,231.6 645.1,215.8 646.0,214.9 646.9,232.2 647.9,222.0 648.8,227.8 649.8,223.3 650.7,223.3 651.6,230.1 652.6,220.4 653.5,211.4 654.4,208.2 655.4,232.6 656.3,223.1 657.2,224.4 658.2,218.9 659.1,223.2 660.1,211.8 661.0,228.8 661.9,223.6 662.9,223.3 663.8,233.2 664.8,229.9 665.7,223.3 666.6,236.3 667.6,223.7 668.5,223.4 669.4,236.8 670.4,214.9 671.3,230.2 672.2,227.6 673.2,234.1 674.1,223.7 675.1,225.3 676.0,222.3 676.9,223.4 677.9,224.5 678.8,223.4 679.8,218.4 680.7,208.6 681.6,195.0 682.6,224.5 683.5,212.1 684.4,229.2 685.4,223.3 686.3,223.4 687.2,199.9 688.2,208.3 689.1,223.4 690.1,217.7 691.0,220.4 691.9,223.4 692.9,189.0 693.8,215.4 694.8,223.4 695.7,230.2 696.6,224.4 697.6,233.2 698.5,219.1 699.4,216.6 700.4,233.2 701.3,198.6 702.2,223.3 703.2,223.6 704.1,216.6 705.1,223.3 706.0,223.4 706.9,223.4 707.9,221.2 708.8,215.8 709.8,200.2 710.7,183.2 711.6,223.4 712.6,223.7 713.5,200.5 714.4,227.0 715.4,226.5 716.3,241.1 717.2,239.9 718.2,237.3 719.1,236.6 720.1,192.0 721.0,244.7 721.9,208.6 722.9,233.3 723.8,241.0 724.8,240.2 725.7,223.5 726.6,174.1 727.6,223.3 728.5,194.8 729.4,229.1 730.4,236.2 731.3,241.0 732.2,220.4 733.2,228.2 734.1,256.0 735.1,170.2 736.0,200.3 736.9,256.2 737.9,223.4 738.8,226.2 739.8,223.3 740.7,236.7 741.6,223.3 742.6,230.2 743.5,216.6 744.4,181.2 745.4,223.4 746.3,204.6 747.2,210.1 748.2,208.6 749.1,200.0 750.1,223.8 751.0,227.4 751.9,243.2 752.9,213.2 753.8,240.6 754.8,224.6 755.7,231.9 756.6,230.1 757.6,241.0 758.5,229.3 759.4,237.6 760.4,247.8 761.3,245.3 762.2,252.0 763.2,236.3 764.1,238.6 765.1,240.9 766.0,199.5 766.9,194.9 767.9,224.5 768.8,218.0 769.8,223.5 770.7,216.6 771.6,216.7 772.6,233.2 773.5,236.3 774.4,237.1 775.4,245.8 776.3,238.2 777.2,237.1 778.2,230.8 779.1,207.1 780.1,236.3 781.0,233.2 781.9,240.9 782.9,213.1 783.8,223.4 784.8,236.4 785.7,227.7 786.6,224.6 787.6,230.2 788.5,214.8 789.4,222.2 790.4,216.8 791.3,223.3 792.2,229.9 793.2,224.9 794.1,227.8 795.1,257.6 796.0,230.2 796.9,236.7 797.9,235.8 798.8,223.4 799.8,231.8 800.7,223.4 801.6,223.3 802.6,211.7 803.5,242.1 804.4,225.6 805.4,200.2 806.3,220.4 807.2,223.3 808.2,223.4 809.1,214.7 810.1,233.5 811.0,223.3 811.9,238.6 812.9,223.3 813.8,241.1 814.8,240.4 815.7,223.4 816.6,225.0 817.6,198.4 818.5,237.3 819.4,299.1 820.4,332.3 821.3,333.7 822.2,330.9 823.2,331.5 824.1,256.7 825.1,327.6 826.0,327.7 826.9,331.7 827.9,333.7 828.8,332.3 829.8,331.6 830.7,322.4 831.6,331.5 832.6,332.9 833.5,331.0 834.4,328.4 835.4,333.2 836.3,329.7 837.2,329.7 838.2,329.6 839.1,330.4 840.1,331.5 841.0,327.6 841.9,331.5 842.9,329.1 843.8,327.7 844.8,330.3 845.7,328.4 846.6,331.3 847.6,335.3 848.5,331.5 849.4,330.0 850.4,331.5 851.3,330.0 852.2,331.6 853.2,327.6 854.1,329.0 855.1,330.0 856.0,328.8 856.9,326.0 857.9,327.7 858.8,327.5 859.8,329.2 860.7,328.1 861.6,327.6 862.6,329.0 863.5,331.5 864.4,327.6 865.4,329.6 866.3,328.9 867.2,331.5 868.2,331.5 869.1,330.1 870.1,322.8 871.0,329.3 871.9,331.5 872.9,331.8 873.8,331.3 874.8,329.1 875.7,331.5 876.6,332.5 877.6,325.5 878.5,325.9 879.4,328.4 880.4,324.7 881.3,330.2 882.2,327.0 883.2,328.8 884.1,329.0 885.1,327.6 886.0,326.7 886.9,331.4 887.9,326.1 888.8,332.9 889.8,327.7 890.7,323.0 891.6,325.8 892.6,322.4 893.5,317.8 894.4,322.7 895.4,322.8 896.3,322.7 897.2,326.8 898.2,322.8 899.1,323.1 900.1,325.0 901.0,322.8 901.9,322.0 902.9,325.5 903.8,322.4 904.8,322.0 905.7,322.8 906.6,322.6 907.6,322.4 908.5,322.4 909.4,322.4 910.4,322.4 911.3,322.7 912.2,322.7 913.2,322.8 914.1,321.8 915.1,322.0 916.0,322.4 916.9,322.0 917.9,322.4 918.8,322.7 919.8,322.4 920.7,327.6 921.6,322.0 922.6,322.8 923.5,322.0 924.4,322.0 925.4,322.4 926.3,321.0 927.2,322.8 928.2,322.8 929.1,322.8 930.1,322.4 931.0,322.8 931.9,322.0 932.9,322.8 933.8,322.6 934.8,322.4 935.7,328.8 936.6,323.2 937.6,322.8 938.5,322.3 939.4,322.7 940.4,327.6 941.3,323.0 942.2,322.7 943.2,327.7 944.1,317.8 945.1,322.8 946.0,322.8" fill="none" stroke="#d97706" stroke-width="2.2" stroke-linejoin="round" stroke-linecap="round"/>
<line x1="76" y1="70" x2="94" y2="70" stroke="#2563eb" stroke-width="3"/>
<text x="100" y="74" font-family="Arial, sans-serif" font-size="11" fill="#0f172a">avg fee</text>
<line x1="179" y1="70" x2="197" y2="70" stroke="#059669" stroke-width="3"/>
<text x="203" y="74" font-family="Arial, sans-serif" font-size="11" fill="#0f172a">median fee</text>
<line x1="303" y1="70" x2="321" y2="70" stroke="#d97706" stroke-width="3"/>
<text x="327" y="74" font-family="Arial, sans-serif" font-size="11" fill="#0f172a">p90 fee</text>
<text x="28" y="404" font-family="Arial, sans-serif" font-size="11" fill="#64748b">Source: hourly_features.csv</text>
</svg>