<svg xmlns="http://www.w3.org/2000/svg" width="980" height="420" viewBox="0 0 980 420">
<rect width="100%" height="100%" fill="#ffffff"/>
<text x="28" y="34" font-family="Arial, sans-serif" font-size="20" font-weight="700" fill="#0f172a">Hourly fee trend</text>
<text x="28" y="56" font-family="Arial, sans-serif" font-size="12" fill="#64748b">Average, median, and p90 total fee by hour</text>
<line x1="76" y1="362.0" x2="946" y2="362.0" stroke="#e2e8f0" stroke-width="1"/>
<text x="68" y="366.0" font-family="Arial, sans-serif" font-size="10" text-anchor="end" fill="#64748b">-382K</text>
<line x1="76" y1="292.0" x2="946" y2="292.0" stroke="#e2e8f0" stroke-width="1"/>
<text x="68" y="296.0" font-family="Arial, sans-serif" font-size="10" text-anchor="end" fill="#64748b">2.6M</text>
<line x1="76" y1="222.0" x2="946" y2="222.0" stroke="#e2e8f0" stroke-width="1"/>
<text x="68" y="226.0" font-family="Arial, sans-serif" font-size="10" text-anchor="end" fill="#64748b">5.7M</text>
<line x1="76" y1="152.0" x2="946" y2="152.0" stroke="#e2e8f0" stroke-width="1"/>
<text x="68" y="156.0" font-family="Arial, sans-serif" font-size="10" text-anchor="end" fill="#64748b">8.7M</text>
<line x1="76" y1="82.0" x2="946" y2="82.0" stroke="#e2e8f0" stroke-width="1"/>
<text x="68" y="86.0" font-family="Arial, sans-serif" font-size="10" text-anchor="end" fill="#64748b">11.7M</text>
<line x1="76" y1="362" x2="946" y2="362" stroke="#334155" stroke-width="1"/>
<line x1="76" y1="82" x2="76" y2="362" stroke="#334155" stroke-width="1"/>
<text x="76" y="72" font-family="Arial, sans-serif" font-size="11" fill="#64748b">nanoton</text>
<line x1="76.0" y1="362" x2="76.0" y2="366" stroke="#334155" stroke-width="1"/>
<text x="76.0" y="380" font-family="Arial, sans-serif" font-size="10" text-anchor="middle" fill="#64748b">0</text>
<line x1="511.0" y1="362" x2="511.0" y2="366" stroke="#334155" stroke-width="1"/>
<text x="511.0" y="380" font-family="Arial, sans-serif" font-size="10" text-anchor="middle" fill="#64748b">451</text>
<line x1="946.0" y1="362" x2="946.0" y2="366" stroke="#334155" stroke-width="1"/>
<text x="946.0" y="380" font-family="Arial, sans-serif" font-size="10" text-anchor="middle" fill="#64748b">902</text>
<polyline points="76.0,290.8 77.0,294.6 77.9,296.0 78.9,298.1 79.9,304.8 80.8,297.2 81.8,298.2 82.8,294.6 83.7,299.0 84.7,298.7 85.6,287.8 86.6,299.5 87.6,299.7 88.5,297.4 89.5,300.3 90.5,300.5 91.4,292.5 92.4,292.5 93.4,301.3 94.3,291.1 95.3,289.2 96.3,287.3 97.2,293.8 98.2,294.2 99.1,296.1 100.1,292.1 101.1,297.7 102.0,290.6 103.0,293.2 104.0,288.3 104.9,289.0 105.9,273.1 106.9,284.7 107.8,285.3 108.8,294.6 109.8,299.9 110.7,292.9 111.7,294.9 112.7,304.7 113.6,307.5 114.6,302.1 115.5,297.0 116.5,298.7 117.5,297.9 118.4,304.4 119.4,297.4 120.4,294.5 121.3,296.5 122.3,298.7 123.3,303.1 124.2,303.1 125.2,301.9 126.2,300.3 127.1,303.3 128.1,302.2 129.0,299.4 130.0,299.1 131.0,302.8 131.9,299.1 132.9,301.3 133.9,306.8 134.8,308.7 135.8,306.4 136.8,307.1 137.7,309.1 138.7,305.9 139.7,305.5 140.6,302.0 141.6,308.5 142.6,290.7 143.5,306.4 144.5,306.4 145.4,306.3 146.4,311.2 147.4,307.1 148.3,310.3 149.3,309.1 150.3,305.5 151.2,305.4 152.2,303.2 153.2,303.5 154.1,301.3 155.1,305.1 156.1,307.4 157.0,306.9 158.0,308.1 158.9,305.0 159.9,302.9 160.9,302.7 161.8,298.6 162.8,304.9 163.8,297.0 164.7,299.3 165.7,300.3 166.7,303.9 167.6,311.6 168.6,300.1 169.6,300.5 170.5,308.9 171.5,307.5 172.5,300.3 173.4,304.2 174.4,305.1 175.3,302.6 176.3,300.5 177.3,297.4 178.2,298.7 179.2,301.9 180.2,308.1 181.1,307.4 182.1,307.4 183.1,303.1 184.0,301.9 185.0,304.1 186.0,303.9 186.9,304.0 187.9,308.3 188.8,308.9 189.8,307.3 190.8,301.1 191.7,286.9 192.7,301.6 193.7,298.8 194.6,296.1 195.6,299.6 196.6,305.5 197.5,301.5 198.5,304.9 199.5,302.2 200.4,304.9 201.4,306.8 202.4,304.9 203.3,300.8 204.3,304.8 205.2,308.0 206.2,302.4 207.2,301.7 208.1,303.1 209.1,303.4 210.1,298.9 211.0,298.5 212.0,298.0 213.0,289.4 213.9,296.9 214.9,296.4 215.9,295.5 216.8,299.6 217.8,299.0 218.7,304.6 219.7,304.0 220.7,303.8 221.6,299.2 222.6,301.2 223.6,305.7 224.5,304.5 225.5,312.1 226.5,305.7 227.4,304.3 228.4,307.0 229.4,306.9 230.3,301.9 231.3,303.8 232.3,300.8 233.2,301.6 234.2,300.2 235.1,298.7 236.1,290.6 237.1,296.1 238.0,300.6 239.0,296.6 240.0,302.7 240.9,302.6 241.9,303.0 242.9,302.7 243.8,302.8 244.8,303.7 245.8,300.1 246.7,305.6 247.7,303.0 248.6,299.2 249.6,302.8 250.6,306.7 251.5,306.1 252.5,306.7 253.5,298.5 254.4,301.6 255.4,297.8 256.4,303.8 257.3,300.2 258.3,299.5 259.3,295.6 260.2,298.2 261.2,298.4 262.2,293.8 263.1,299.9 264.1,297.9 265.0,298.6 266.0,294.2 267.0,297.8 267.9,278.0 268.9,284.2 269.9,295.2 270.8,295.7 271.8,294.4 272.8,300.7 273.7,304.3 274.7,302.4 275.7,302.1 276.6,297.9 277.6,295.3 278.5,296.5 279.5,291.4 280.5,292.0 281.4,290.6 282.4,290.0 283.4,299.7 284.3,291.9 285.3,296.8 286.3,299.8 287.2,303.8 288.2,302.5 289.2,302.1 290.1,302.3 291.1,300.8 292.1,303.5 293.0,295.9 294.0,297.8 294.9,304.4 295.9,304.2 296.9,299.5 297.8,303.9 298.8,303.5 299.8,299.0 300.7,288.7 301.7,293.7 302.7,294.2 303.6,303.7 304.6,295.6 305.6,297.0 306.5,305.6 307.5,294.8 308.5,300.5 309.4,305.1 310.4,308.5 311.3,305.5 312.3,304.0 313.3,300.7 314.2,303.8 315.2,299.3 316.2,303.0 317.1,305.0 318.1,303.0 319.1,299.3 320.0,294.4 321.0,299.9 322.0,286.2 322.9,302.1 323.9,293.9 324.8,297.9 325.8,299.5 326.8,297.4 327.7,294.4 328.7,310.4 329.7,291.6 330.6,295.6 331.6,281.6 332.6,294.6 333.5,293.2 334.5,295.0 335.5,291.0 336.4,301.0 337.4,279.9 338.4,297.2 339.3,291.8 340.3,291.5 341.2,283.3 342.2,298.3 343.2,300.4 344.1,298.6 345.1,288.4 346.1,299.0 347.0,304.4 348.0,297.7 349.0,295.5 349.9,279.8 350.9,284.2 351.9,300.5 352.8,299.9 353.8,298.1 354.7,293.4 355.7,303.1 356.7,303.0 357.6,298.6 358.6,296.8 359.6,297.4 360.5,301.3 361.5,298.1 362.5,311.4 363.4,299.4 364.4,303.5 365.4,301.2 366.3,302.9 367.3,304.3 368.3,297.8 369.2,294.4 370.2,299.3 371.1,295.1 372.1,301.8 373.1,292.6 374.0,297.6 375.0,293.9 376.0,290.0 376.9,295.1 377.9,304.6 378.9,291.1 379.8,300.3 380.8,295.9 381.8,293.1 382.7,291.6 383.7,296.8 384.6,297.1 385.6,297.9 386.6,299.5 387.5,292.8 388.5,286.2 389.5,290.1 390.4,300.0 391.4,294.5 392.4,300.9 393.3,303.0 394.3,299.1 395.3,302.5 396.2,295.1 397.2,297.0 398.2,302.8 399.1,301.7 400.1,303.0 401.0,308.6 402.0,306.8 403.0,306.1 403.9,306.5 404.9,304.3 405.9,304.5 406.8,298.3 407.8,301.1 408.8,303.1 409.7,303.3 410.7,304.2 411.7,302.4 412.6,299.4 413.6,304.5 414.5,307.1 415.5,297.3 416.5,298.9 417.4,298.1 418.4,299.7 419.4,297.8 420.3,301.0 421.3,287.2 422.3,294.3 423.2,294.8 424.2,298.6 425.2,291.3 426.1,298.4 427.1,294.6 428.1,298.7 429.0,304.2 430.0,282.2 430.9,289.8 431.9,298.8 432.9,295.1 433.8,293.4 434.8,294.7 435.8,304.3 436.7,296.9 437.7,301.7 438.7,296.7 439.6,295.6 440.6,292.9 441.6,291.6 442.5,286.7 443.5,287.8 444.4,294.2 445.4,292.6 446.4,297.5 447.3,303.1 448.3,296.8 449.3,304.1 450.2,298.7 451.2,297.8 452.2,299.3 453.1,297.1 454.1,296.6 455.1,305.5 456.0,301.9 457.0,304.5 458.0,302.9 458.9,303.4 459.9,302.7 460.8,304.5 461.8,301.7 462.8,300.0 463.7,297.3 464.7,295.0 465.7,305.0 466.6,302.7 467.6,303.7 468.6,302.8 469.5,298.5 470.5,257.0 471.5,291.0 472.4,298.5 473.4,296.3 474.3,301.0 475.3,301.6 476.3,299.9 477.2,299.3 478.2,299.6 479.2,296.0 480.1,299.4 481.1,305.6 482.1,306.5 483.0,300.9 484.0,302.7 485.0,295.0 485.9,302.2 486.9,296.9 487.9,304.8 488.8,299.1 489.8,295.6 490.7,295.1 491.7,300.9 492.7,301.0 493.6,300.7 494.6,304.5 495.6,292.6 496.5,303.5 497.5,306.0 498.5,295.5 499.4,297.4 500.4,302.8 501.4,295.8 502.3,299.5 503.3,304.0 504.2,301.7 505.2,303.8 506.2,300.8 507.1,306.1 508.1,305.6 509.1,300.8 510.0,303.2 511.0,297.1 512.0,300.2 512.9,292.3 513.9,292.0 514.9,292.1 515.8,299.3 516.8,298.5 517.8,298.8 518.7,301.5 519.7,299.6 520.6,305.3 521.6,300.2 522.6,300.6 523.5,304.7 524.5,299.2 525.5,304.4 526.4,299.7 527.4,306.4 528.4,299.1 529.3,304.5 530.3,303.3 531.3,298.0 532.2,263.7 533.2,302.9 534.1,304.6 535.1,301.3 536.1,300.8 537.0,298.3 538.0,299.9 539.0,302.7 539.9,298.6 540.9,304.0 541.9,302.8 542.8,303.0 543.8,301.1 544.8,308.3 545.7,304.5 546.7,309.0 547.7,304.5 548.6,303.7 549.6,304.9 550.5,303.6 551.5,305.3 552.5,299.5 553.4,305.2 554.4,297.1 555.4,302.2 556.3,288.1 557.3,294.6 558.3,299.7 559.2,287.4 560.2,299.0 561.2,298.4 562.1,296.8 563.1,301.1 564.0,299.5 565.0,302.6 566.0,299.3 566.9,303.0 567.9,298.0 568.9,301.6 569.8,305.3 570.8,304.5 571.8,290.4 572.7,303.1 573.7,299.6 574.7,302.4 575.6,303.1 576.6,304.7 577.6,296.3 578.5,301.7 579.5,292.9 580.4,298.2 581.4,294.8 582.4,293.5 583.3,299.4 584.3,297.4 585.3,300.4 586.2,295.6 587.2,301.5 588.2,282.6 589.1,297.4 590.1,291.2 591.1,300.8 592.0,281.3 593.0,303.6 593.9,292.1 594.9,296.5 595.9,300.9 596.8,293.9 597.8,295.3 598.8,305.2 599.7,304.7 600.7,300.3 601.7,302.0 602.6,297.5 603.6,295.0 604.6,296.6 605.5,292.7 606.5,298.7 607.5,291.1 608.4,289.9 609.4,292.8 610.3,302.6 611.3,303.5 612.3,301.6 613.2,297.5 614.2,303.0 615.2,302.5 616.1,299.3 617.1,300.0 618.1,295.7 619.0,300.6 620.0,302.5 621.0,302.2 621.9,300.7 622.9,305.4 623.8,305.1 624.8,301.0 625.8,294.2 626.7,301.0 627.7,298.9 628.7,290.4 629.6,295.9 630.6,294.1 631.6,301.3 632.5,298.2 633.5,299.2 634.5,302.6 635.4,300.9 636.4,299.2 637.4,302.7 638.3,303.6 639.3,299.5 640.2,304.4 641.2,298.2 642.2,302.7 643.1,304.9 644.1,303.3 645.1,303.8 646.0,305.7 647.0,294.6 648.0,306.7 648.9,303.7 649.9,295.1 650.9,294.1 651.8,293.7 652.8,295.9 653.7,295.9 654.7,298.1 655.7,284.7 656.6,294.9 657.6,298.6 658.6,296.3 659.5,294.2 660.5,300.6 661.5,294.3 662.4,295.9 663.4,303.8 664.4,295.8 665.3,302.6 666.3,297.7 667.3,300.0 668.2,300.7 669.2,298.3 670.1,294.8 671.1,295.8 672.1,303.0 673.0,295.6 674.0,296.0 675.0,295.2 675.9,295.3 676.9,295.0 677.9,299.9 678.8,299.0 679.8,295.9 680.8,303.3 681.7,302.9 682.7,298.2 683.6,305.5 684.6,300.9 685.6,300.4 686.5,305.2 687.5,295.8 688.5,301.8 689.4,303.2 690.4,304.6 691.4,299.1 692.3,301.0 693.3,298.0 694.3,298.8 695.2,297.3 696.2,300.8 697.2,296.0 698.1,293.0 699.1,284.2 700.0,298.8 701.0,293.9 702.0,298.9 702.9,298.8 703.9,298.0 704.9,291.0 705.8,292.3 706.8,298.2 707.8,297.5 708.7,297.5 709.7,298.5 710.7,288.2 711.6,296.5 712.6,297.3 713.5,301.7 714.5,301.0 715.5,305.4 716.4,295.8 717.4,295.1 718.4,299.8 719.3,289.6 720.3,296.7 721.3,295.1 722.2,295.1 723.2,294.8 724.2,297.5 725.1,299.5 726.1,295.8 727.1,297.0 728.0,291.7 729.0,285.1 729.9,299.7 730.9,301.0 731.9,293.6 732.8,302.3 733.8,297.5 734.8,307.7 735.7,292.5 736.7,304.9 737.7,304.1 738.6,291.9 739.6,305.2 740.6,297.8 741.5,298.1 742.5,307.4 743.5,305.4 744.4,294.0 745.4,284.5 746.3,295.7 747.3,281.6 748.3,295.8 749.2,307.1 750.2,303.5 751.2,299.2 752.1,301.5 753.1,309.0 754.1,287.8 755.0,293.3 756.0,314.3 757.0,300.8 757.9,304.2 758.9,299.2 759.8,305.4 760.8,297.5 761.8,303.5 762.7,297.3 763.7,286.2 764.7,295.6 765.6,293.4 766.6,295.3 767.6,292.6 768.5,295.0 769.5,297.5 770.5,303.2 771.4,307.8 772.4,295.2 773.4,306.6 774.3,305.0 775.3,305.4 776.2,303.1 777.2,297.4 778.2,293.5 779.1,305.0 780.1,310.4 781.1,306.6 782.0,309.4 783.0,304.0 784.0,307.8 784.9,308.2 785.9,299.0 786.9,288.2 787.8,297.1 788.8,298.1 789.7,298.6 790.7,298.7 791.7,295.2 792.6,305.8 793.6,307.8 794.6,304.4 795.5,309.3 796.5,306.7 797.5,303.2 798.4,303.6 799.4,296.5 800.4,304.1 801.3,305.5 802.3,308.2 803.3,291.8 804.2,301.9 805.2,305.3 806.1,302.2 807.1,300.9 808.1,302.7 809.0,295.0 810.0,295.0 811.0,295.3 811.9,299.1 812.9,299.0 813.9,300.9 814.8,304.6 815.8,307.3 816.8,303.1 817.7,300.9 818.7,303.0 819.6,290.9 820.6,301.1 821.6,301.9 822.5,302.0 823.5,295.6 824.5,306.6 825.4,304.1 826.4,288.8 827.4,297.4 828.3,295.3 829.3,295.7 830.3,296.1 831.2,306.3 832.2,300.3 833.2,304.9 834.1,295.7 835.1,303.6 836.0,305.1 837.0,302.6 838.0,301.6 838.9,285.2 839.9,304.3 840.9,334.7 841.8,343.7 842.8,343.8 843.8,343.5 844.7,344.0 845.7,319.0 846.7,342.3 847.6,343.1 848.6,342.6 849.5,343.4 850.5,343.4 851.5,343.4 852.4,338.9 853.4,343.5 854.4,344.5 855.3,342.7 856.3,342.0 857.3,343.8 858.2,343.0 859.2,343.2 860.2,340.3 861.1,342.7 862.1,343.4 863.1,342.2 864.0,343.9 865.0,341.8 865.9,341.2 866.9,342.8 867.9,342.4 868.8,343.3 869.8,344.8 870.8,343.7 871.7,343.3 872.7,344.0 873.7,342.7 874.6,343.5 875.6,341.8 876.6,340.1 877.5,342.3 878.5,342.4 879.4,339.6 880.4,341.5 881.4,340.5 882.3,343.1 883.3,341.6 884.3,340.5 885.2,342.3 886.2,342.5 887.2,342.2 888.1,343.0 889.1,342.6 890.1,342.9 891.0,343.5 892.0,342.4 893.0,340.9 893.9,341.4 894.9,342.5 895.8,343.3 896.8,343.5 897.8,343.3 898.7,343.2 899.7,342.6 900.7,341.1 901.6,340.9 902.6,341.6 903.6,340.6 904.5,341.3 905.5,341.0 906.5,342.8 907.4,341.5 908.4,342.2 909.3,341.5 910.3,342.8 911.3,341.0 912.2,340.5 913.2,341.9 914.2,341.5 915.1,341.0 916.1,338.4 917.1,325.0 918.0,339.0 919.0,340.0 920.0,339.6 920.9,341.0 921.9,338.3 922.9,339.7 923.8,338.7 924.8,339.5 925.7,333.1 926.7,340.3 927.7,337.2 928.6,337.3 929.6,338.6 930.6,339.3 931.5,338.5 932.5,337.9 933.5,338.6 934.4,339.5 935.4,339.1 936.4,339.5 937.3,339.7 938.3,337.8 939.2,338.7 940.2,338.4 941.2,336.7 942.1,338.9 943.1,340.0 944.1,340.5 945.0,342.3 946.0,336.5" fill="none" stroke="#2563eb" stroke-width="2.2" stroke-linejoin="round" stroke-linecap="round"/>
<polyline points="76.0,311.4 77.0,324.9 77.9,334.1 78.9,334.5 79.9,335.0 80.8,334.6 81.8,334.4 82.8,330.8 83.7,334.6 84.7,334.6 85.6,320.5 86.6,334.6 87.6,334.2 88.5,330.7 89.5,334.4 90.5,333.8 91.4,321.1 92.4,330.5 93.4,332.4 94.3,310.6 95.3,302.9 96.3,305.9 97.2,320.5 98.2,315.5 99.1,310.4 100.1,329.8 101.1,333.4 102.0,312.5 103.0,335.0 104.0,319.0 104.9,330.5 105.9,283.8 106.9,300.4 107.8,303.3 108.8,308.3 109.8,331.3 110.7,312.5 111.7,310.6 112.7,334.9 113.6,335.0 114.6,329.7 115.5,310.6 116.5,310.6 117.5,312.5 118.4,340.8 119.4,334.9 120.4,308.9 121.3,310.3 122.3,334.9 123.3,335.3 124.2,334.2 125.2,333.4 126.2,333.9 127.1,334.6 128.1,331.5 129.0,334.6 130.0,330.9 131.0,334.3 131.9,334.6 132.9,334.2 133.9,335.0 134.8,334.9 135.8,334.9 136.8,344.0 137.7,335.8 138.7,334.9 139.7,334.9 140.6,330.7 141.6,344.0 142.6,335.6 143.5,336.2 144.5,336.2 145.4,335.0 146.4,338.1 147.4,336.2 148.3,336.1 149.3,335.1 150.3,335.0 151.2,335.0 152.2,334.5 153.2,335.0 154.1,334.6 155.1,334.6 156.1,335.0 157.0,335.0 158.0,335.0 158.9,334.3 159.9,334.9 160.9,334.9 161.8,330.7 162.8,334.7 163.8,312.2 164.7,329.6 165.7,331.1 166.7,333.8 167.6,344.0 168.6,330.6 169.6,333.8 170.5,335.0 171.5,336.2 172.5,334.7 173.4,334.7 174.4,334.8 175.3,334.6 176.3,331.0 177.3,330.5 178.2,331.5 179.2,333.0 180.2,335.0 181.1,334.9 182.1,334.9 183.1,334.1 184.0,334.9 185.0,334.9 186.0,331.5 186.9,332.3 187.9,336.2 188.8,344.0 189.8,336.1 190.8,335.0 191.7,310.1 192.7,334.9 193.7,334.5 194.6,334.7 195.6,333.8 196.6,334.9 197.5,334.0 198.5,334.9 199.5,334.9 200.4,334.9 201.4,335.0 202.4,334.7 203.3,333.2 204.3,334.9 205.2,335.0 206.2,335.0 207.2,334.1 208.1,334.2 209.1,330.3 210.1,310.6 211.0,298.7 212.0,309.8 213.0,304.4 213.9,310.2 214.9,310.1 215.9,327.6 216.8,333.0 217.8,333.8 218.7,333.8 219.7,334.9 220.7,334.9 221.6,333.8 222.6,334.7 223.6,334.7 224.5,334.6 225.5,344.0 226.5,334.9 227.4,334.9 228.4,335.0 229.4,335.0 230.3,333.8 231.3,334.4 232.3,330.9 233.2,319.7 234.2,298.7 235.1,334.1 236.1,326.9 237.1,334.7 238.0,331.8 239.0,331.8 240.0,331.4 240.9,334.7 241.9,334.4 242.9,334.6 243.8,334.6 244.8,330.7 245.8,330.7 246.7,334.9 247.7,334.4 248.6,331.0 249.6,334.6 250.6,335.0 251.5,334.6 252.5,334.9 253.5,330.5 254.4,334.3 255.4,315.6 256.4,334.6 257.3,298.7 258.3,334.0 259.3,329.7 260.2,332.6 261.2,331.8 262.2,310.6 263.1,331.8 264.1,332.3 265.0,334.6 266.0,323.8 267.0,334.0 267.9,295.8 268.9,298.7 269.9,327.1 270.8,331.1 271.8,330.7 272.8,332.3 273.7,334.6 274.7,334.7 275.7,334.1 276.6,324.8 277.6,315.1 278.5,308.6 279.5,305.4 280.5,298.7 281.4,306.5 282.4,305.4 283.4,331.7 284.3,305.5 285.3,317.0 286.3,333.4 287.2,335.0 288.2,334.1 289.2,335.0 290.1,334.9 291.1,333.7 292.1,335.0 293.0,319.7 294.0,319.7 294.9,334.1 295.9,333.8 296.9,333.4 297.8,334.7 298.8,334.6 299.8,331.3 300.7,305.4 301.7,308.2 302.7,308.3 303.6,298.7 304.6,310.2 305.6,335.5 306.5,336.2 307.5,312.5 308.5,334.5 309.4,336.2 310.4,335.9 311.3,336.2 312.3,335.0 313.3,333.8 314.2,334.3 315.2,334.4 316.2,333.5 317.1,334.6 318.1,334.4 319.1,329.6 320.0,308.9 321.0,334.1 322.0,308.2 322.9,334.4 323.9,310.7 324.8,310.3 325.8,325.1 326.8,305.5 327.7,319.7 328.7,344.0 329.7,315.6 330.6,334.2 331.6,308.2 332.6,309.9 333.5,330.0 334.5,334.1 335.5,335.0 336.4,333.2 337.4,323.8 338.4,333.8 339.3,308.2 340.3,306.1 341.2,323.8 342.2,315.6 343.2,333.4 344.1,332.6 345.1,303.2 346.1,334.1 347.0,334.7 348.0,326.5 349.0,333.8 349.9,320.8 350.9,333.7 351.9,333.7 352.8,334.1 353.8,330.7 354.7,331.8 355.7,333.7 356.7,334.6 357.6,333.8 358.6,333.0 359.6,310.6 360.5,334.7 361.5,330.7 362.5,345.9 363.4,333.8 364.4,334.7 365.4,333.7 366.3,334.7 367.3,334.7 368.3,310.6 369.2,315.4 370.2,332.0 371.1,310.5 372.1,331.7 373.1,305.3 374.0,330.5 375.0,326.9 376.0,302.2 376.9,309.7 377.9,335.9 378.9,333.4 379.8,334.9 380.8,334.4 381.8,306.5 382.7,306.5 383.7,318.3 384.6,320.1 385.6,323.6 386.6,331.8 387.5,310.6 388.5,305.4 389.5,308.2 390.4,331.8 391.4,305.2 392.4,330.5 393.3,334.1 394.3,326.7 395.3,330.7 396.2,305.4 397.2,308.2 398.2,333.8 399.1,334.1 400.1,335.0 401.0,340.8 402.0,336.2 403.0,336.1 403.9,335.0 404.9,336.2 405.9,335.8 406.8,333.8 407.8,334.4 408.8,335.0 409.7,334.8 410.7,334.9 411.7,334.6 412.6,331.8 413.6,334.5 414.5,335.0 415.5,329.1 416.5,330.7 417.4,325.8 418.4,325.3 419.4,308.2 420.3,333.5 421.3,308.4 422.3,310.3 423.2,330.5 424.2,319.6 425.2,308.3 426.1,334.6 427.1,318.7 428.1,335.8 429.0,335.0 430.0,297.6 430.9,305.3 431.9,325.3 432.9,325.7 433.8,318.9 434.8,310.3 435.8,334.9 436.7,321.4 437.7,334.2 438.7,331.5 439.6,329.7 440.6,309.6 441.6,308.4 442.5,298.7 443.5,302.7 444.4,305.5 445.4,309.0 446.4,331.8 447.3,334.0 448.3,329.6 449.3,334.7 450.2,333.8 451.2,335.0 452.2,334.0 453.1,334.0 454.1,325.3 455.1,334.9 456.0,334.5 457.0,334.6 458.0,334.7 458.9,334.7 459.9,334.7 460.8,334.6 461.8,334.1 462.8,326.9 463.7,326.6 464.7,305.4 465.7,343.0 466.6,335.3 467.6,344.0 468.6,335.0 469.5,329.1 470.5,301.0 471.5,334.2 472.4,334.1 473.4,315.6 474.3,335.0 475.3,334.1 476.3,334.6 477.2,333.6 478.2,330.5 479.2,330.4 480.1,333.8 481.1,335.0 482.1,335.0 483.0,333.2 484.0,334.4 485.0,310.5 485.9,332.0 486.9,310.1 487.9,332.7 488.8,305.4 489.8,309.8 490.7,310.6 491.7,330.0 492.7,333.8 493.6,332.4 494.6,335.3 495.6,318.3 496.5,334.7 497.5,336.2 498.5,331.4 499.4,325.8 500.4,334.6 501.4,331.3 502.3,331.8 503.3,334.7 504.2,334.5 505.2,333.8 506.2,330.7 507.1,334.9 508.1,334.8 509.1,331.8 510.0,333.2 511.0,310.7 512.0,330.5 512.9,308.2 513.9,308.4 514.9,305.4 515.8,330.4 516.8,326.9 517.8,330.4 518.7,334.9 519.7,331.5 520.6,335.0 521.6,334.6 522.6,334.1 523.5,334.9 524.5,334.7 525.5,335.0 526.4,333.8 527.4,335.0 528.4,333.3 529.3,334.6 530.3,335.0 531.3,332.7 532.2,283.6 533.2,333.8 534.1,335.0 535.1,319.3 536.1,331.1 537.0,329.7 538.0,331.8 539.0,334.1 539.9,334.6 540.9,334.9 541.9,334.7 542.8,334.6 543.8,334.8 544.8,335.0 545.7,334.9 546.7,335.0 547.7,334.9 548.6,334.7 549.6,334.9 550.5,335.0 551.5,334.7 552.5,334.1 553.4,335.7 554.4,334.1 555.4,334.4 556.3,305.3 557.3,319.6 558.3,309.3 559.2,300.7 560.2,310.4 561.2,330.5 562.1,310.6 563.1,330.5 564.0,333.0 565.0,334.7 566.0,333.8 566.9,334.1 567.9,330.9 568.9,334.7 569.8,334.9 570.8,334.9 571.8,305.4 572.7,334.4 573.7,331.0 574.7,335.0 575.6,333.8 576.6,335.0 577.6,333.8 578.5,334.9 579.5,310.6 580.4,334.3 581.4,306.4 582.4,308.4 583.3,333.8 584.3,330.9 585.3,334.1 586.2,329.7 587.2,334.3 588.2,305.3 589.1,330.7 590.1,328.8 591.1,333.8 592.0,295.8 593.0,334.6 593.9,310.6 594.9,310.6 595.9,333.8 596.8,318.4 597.8,318.5 598.8,334.2 599.7,334.9 600.7,334.1 601.7,334.1 602.6,330.4 603.6,308.2 604.6,308.2 605.5,310.2 606.5,333.8 607.5,310.6 608.4,310.4 609.4,327.3 610.3,332.0 611.3,335.0 612.3,334.6 613.2,334.0 614.2,334.6 615.2,334.5 616.1,330.7 617.1,333.5 618.1,331.5 619.0,334.6 620.0,334.1 621.0,333.8 621.9,330.7 622.9,334.7 623.8,334.9 624.8,332.0 625.8,307.0 626.7,326.1 627.7,305.4 628.7,306.4 629.6,309.0 630.6,306.4 631.6,334.6 632.5,327.0 633.5,333.8 634.5,333.2 635.4,334.1 636.4,335.0 637.4,334.6 638.3,333.9 639.3,333.8 640.2,334.7 641.2,330.7 642.2,331.8 643.1,334.9 644.1,334.1 645.1,334.6 646.0,334.9 647.0,327.5 648.0,335.0 648.9,333.6 649.9,319.7 650.9,302.9 651.8,310.1 652.8,327.5 653.7,326.8 654.7,323.6 655.7,298.7 656.6,310.6 657.6,331.1 658.6,330.7 659.5,334.6 660.5,324.6 661.5,323.8 662.4,330.4 663.4,333.8 664.4,330.7 665.3,334.6 666.3,323.9 667.3,333.2 668.2,334.1 669.2,325.7 670.1,309.1 671.1,315.6 672.1,333.8 673.0,308.5 674.0,306.5 675.0,308.2 675.9,310.2 676.9,312.5 677.9,331.0 678.8,331.9 679.8,317.9 680.8,334.6 681.7,335.0 682.7,335.0 683.6,335.0 684.6,334.6 685.6,333.8 686.5,334.9 687.5,330.4 688.5,334.3 689.4,334.6 690.4,334.2 691.4,333.8 692.3,335.0 693.3,330.7 694.3,333.8 695.2,315.5 696.2,330.7 697.2,305.4 698.1,324.4 699.1,306.5 700.0,331.8 701.0,308.9 702.0,333.8 702.9,333.8 703.9,331.2 704.9,310.7 705.8,333.8 706.8,330.0 707.8,327.2 708.7,323.8 709.7,330.0 710.7,305.0 711.6,312.5 712.6,333.8 713.5,332.0 714.5,329.7 715.5,333.8 716.4,322.8 717.4,308.3 718.4,310.4 719.3,305.2 720.3,305.4 721.3,308.2 722.2,310.7 723.2,310.1 724.2,319.6 725.1,325.7 726.1,330.8 727.1,330.9 728.0,305.4 729.0,305.2 729.9,333.8 730.9,331.0 731.9,305.4 732.8,334.7 733.8,308.3 734.8,334.1 735.7,334.7 736.7,332.8 737.7,332.9 738.6,308.2 739.6,335.0 740.6,330.4 741.5,310.4 742.5,330.0 743.5,326.8 744.4,305.9 745.4,306.4 746.3,323.8 747.3,296.7 748.3,334.1 749.2,335.0 750.2,335.0 751.2,331.5 752.1,334.7 753.1,335.0 754.1,304.3 755.0,308.2 756.0,335.0 757.0,331.8 757.9,334.5 758.9,331.2 759.8,334.7 760.8,331.8 761.8,321.5 762.7,334.9 763.7,331.9 764.7,310.4 765.6,308.3 766.6,305.4 767.6,305.9 768.5,305.7 769.5,324.6 770.5,330.7 771.4,334.5 772.4,331.6 773.4,335.0 774.3,335.0 775.3,335.0 776.2,322.4 777.2,334.9 778.2,331.1 779.1,335.0 780.1,344.0 781.1,344.0 782.0,344.0 783.0,334.6 784.0,335.0 784.9,335.0 785.9,334.4 786.9,311.6 787.8,308.9 788.8,308.2 789.7,308.1 790.7,330.4 791.7,308.6 792.6,337.4 793.6,335.0 794.6,335.0 795.5,335.0 796.5,331.8 797.5,332.0 798.4,334.1 799.4,330.5 800.4,334.6 801.3,335.0 802.3,334.9 803.3,312.5 804.2,333.8 805.2,332.0 806.1,333.8 807.1,331.7 808.1,331.0 809.0,310.7 810.0,308.6 811.0,314.0 811.9,327.1 812.9,304.8 813.9,340.8 814.8,341.6 815.8,335.0 816.8,334.6 817.7,334.6 818.7,324.6 819.6,317.8 820.6,346.0 821.6,334.6 822.5,334.9 823.5,317.9 824.5,344.0 825.4,334.0 826.4,321.8 827.4,332.8 828.3,325.5 829.3,333.8 830.3,313.7 831.2,334.6 832.2,328.5 833.2,331.2 834.1,305.4 835.1,331.0 836.0,310.0 837.0,331.4 838.0,330.2 838.9,290.8 839.9,335.0 840.9,347.8 841.8,350.1 842.8,349.5 843.8,346.1 844.7,349.4 845.7,341.0 846.7,346.4 847.6,349.3 848.6,344.7 849.5,345.1 850.5,349.2 851.5,349.4 852.4,343.5 853.4,350.0 854.4,350.1 855.3,347.6 856.3,344.9 857.3,349.2 858.2,345.2 859.2,344.1 860.2,344.7 861.1,345.7 862.1,346.1 863.1,345.7 864.0,349.5 865.0,345.1 865.9,349.4 866.9,348.7 867.9,346.1 868.8,345.8 869.8,351.6 870.8,348.3 871.7,345.7 872.7,349.9 873.7,344.7 874.6,346.4 875.6,345.2 876.6,343.4 877.5,345.2 878.5,346.1 879.4,342.1 880.4,343.4 881.4,343.5 882.3,345.2 883.3,345.2 884.3,344.0 885.2,345.2 886.2,345.4 887.2,345.3 888.1,344.8 889.1,345.8 890.1,346.1 891.0,344.8 892.0,345.0 893.0,344.3 893.9,345.2 894.9,347.2 895.8,347.4 896.8,350.1 897.8,346.4 898.7,348.8 899.7,348.0 900.7,344.7 901.6,344.0 902.6,345.4 903.6,342.7 904.5,345.8 905.5,344.1 906.5,346.0 907.4,349.5 908.4,344.0 909.3,345.9 910.3,347.6 911.3,344.8 912.2,343.6 913.2,343.6 914.2,344.9 915.1,343.6 916.1,342.0 917.1,343.9 918.0,342.7 919.0,343.4 920.0,341.6 920.9,343.4 921.9,341.5 922.9,342.3 923.8,342.7 924.8,341.5 925.7,341.0 926.7,342.2 927.7,341.2 928.6,340.3 929.6,342.4 930.6,341.6 931.5,341.6 932.5,341.4 933.5,341.5 934.4,341.6 935.4,342.3 936.4,342.2 937.3,341.8 938.3,340.9 939.2,342.0 940.2,341.6 941.2,341.8 942.1,342.0 943.1,343.4 944.1,341.9 945.0,345.8 946.0,342.1" fill="none" stroke="#059669" stroke-width="2.2" stroke-linejoin="round" stroke-linecap="round"/>
<polyline points="76.0,208.9 77.0,216.7 77.9,223.4 78.9,228.3 79.9,236.4 80.8,228.3 81.8,223.3 82.8,216.9 83.7,223.4 84.7,223.3 85.6,199.8 86.6,223.4 87.6,224.6 88.5,223.3 89.5,226.2 90.5,227.6 91.4,211.5 92.4,216.7 93.4,236.0 94.3,216.6 95.3,215.8 96.3,199.8 97.2,220.3 98.2,223.2 99.1,223.4 100.1,220.5 101.1,223.3 102.0,213.2 103.0,216.6 104.0,200.1 104.9,199.8 105.9,160.5 106.9,170.2 107.8,170.2 108.8,209.6 109.8,215.8 110.7,209.6 111.7,208.2 112.7,233.3 113.6,241.0 114.6,230.2 115.5,223.3 116.5,223.8 117.5,223.4 118.4,227.6 119.4,220.4 120.4,213.7 121.3,221.6 122.3,214.1 123.3,236.4 124.2,233.9 125.2,228.8 126.2,229.4 127.1,230.2 128.1,223.4 129.0,223.4 130.0,224.4 131.0,227.8 131.9,231.4 132.9,223.4 133.9,236.4 134.8,240.4 135.8,233.6 136.8,244.6 137.7,239.4 138.7,240.4 139.7,238.9 140.6,236.3 141.6,251.7 142.6,206.3 143.5,236.6 144.5,237.6 145.4,234.6 146.4,248.7 147.4,242.6 148.3,246.3 149.3,241.1 150.3,232.3 151.2,233.3 152.2,228.3 153.2,223.5 154.1,229.7 155.1,233.3 156.1,246.2 157.0,238.6 158.0,241.0 158.9,231.4 159.9,230.1 160.9,230.4 161.8,216.6 162.8,239.0 163.8,223.4 164.7,231.9 165.7,231.4 166.7,242.9 167.6,248.9 168.6,223.4 169.6,227.9 170.5,242.4 171.5,237.1 172.5,229.7 173.4,234.8 174.4,236.4 175.3,233.2 176.3,223.4 177.3,223.4 178.2,230.1 179.2,233.2 180.2,241.8 181.1,237.6 182.1,246.3 183.1,230.4 184.0,230.5 185.0,237.1 186.0,236.4 186.9,236.6 187.9,241.3 188.8,240.4 189.8,240.4 190.8,233.2 191.7,200.3 192.7,223.3 193.7,223.4 194.6,216.6 195.6,229.6 196.6,233.3 197.5,231.4 198.5,233.3 199.5,230.8 200.4,236.3 201.4,236.3 202.4,233.3 203.3,230.2 204.3,238.7 205.2,238.8 206.2,237.6 207.2,228.0 208.1,226.9 209.1,237.0 210.1,226.6 211.0,232.3 212.0,231.4 213.0,207.0 213.9,223.4 214.9,223.3 215.9,223.3 216.8,225.0 217.8,223.4 218.7,236.4 219.7,236.4 220.7,231.9 221.6,230.2 222.6,235.6 223.6,236.3 224.5,236.7 225.5,251.5 226.5,233.3 227.4,233.3 228.4,241.1 229.4,241.0 230.3,233.3 231.3,232.1 232.3,225.6 233.2,223.4 234.2,241.1 235.1,223.4 236.1,199.8 237.1,231.6 238.0,233.2 239.0,223.4 240.0,228.7 240.9,233.2 241.9,236.4 242.9,233.2 243.8,232.7 244.8,233.7 245.8,223.4 246.7,238.3 247.7,233.9 248.6,223.4 249.6,232.6 250.6,238.6 251.5,240.5 252.5,247.9 253.5,224.1 254.4,223.3 255.4,224.5 256.4,234.8 257.3,247.0 258.3,227.7 259.3,223.2 260.2,223.4 261.2,225.2 262.2,222.7 263.1,229.5 264.1,223.4 265.0,228.1 266.0,212.0 267.0,223.2 267.9,160.5 268.9,171.2 269.9,200.0 270.8,210.4 271.8,201.6 272.8,223.4 273.7,232.3 274.7,227.9 275.7,226.7 276.6,216.8 277.6,216.6 278.5,223.4 279.5,200.0 280.5,227.0 281.4,199.8 282.4,199.8 283.4,223.4 284.3,210.4 285.3,217.0 286.3,224.4 287.2,223.4 288.2,224.5 289.2,224.1 290.1,226.6 291.1,223.4 292.1,233.2 293.0,208.9 294.0,221.6 294.9,233.3 295.9,232.1 296.9,223.3 297.8,228.3 298.8,230.2 299.8,223.4 300.7,202.6 301.7,220.4 302.7,223.2 303.6,257.5 304.6,219.7 305.6,214.4 306.5,240.0 307.5,215.3 308.5,228.3 309.4,233.5 310.4,241.1 311.3,240.7 312.3,233.2 313.3,233.2 314.2,227.4 315.2,223.4 316.2,240.4 317.1,231.6 318.1,230.9 319.1,218.4 320.0,210.8 321.0,228.0 322.0,182.3 322.9,231.0 323.9,214.8 324.8,222.1 325.8,223.4 326.8,227.6 327.7,214.7 328.7,240.7 329.7,215.1 330.6,221.5 331.6,199.7 332.6,197.1 333.5,195.3 334.5,216.6 335.5,210.6 336.4,223.4 337.4,170.2 338.4,220.5 339.3,205.1 340.3,205.7 341.2,199.8 342.2,221.7 343.2,228.0 344.1,223.4 345.1,168.9 346.1,223.3 347.0,231.5 348.0,223.2 349.0,223.4 349.9,176.3 350.9,200.3 351.9,226.2 352.8,231.6 353.8,223.4 354.7,209.8 355.7,233.3 356.7,232.6 357.6,224.4 358.6,223.4 359.6,220.4 360.5,230.2 361.5,223.3 362.5,251.8 363.4,231.2 364.4,231.4 365.4,230.2 366.3,233.1 367.3,233.1 368.3,224.5 369.2,223.2 370.2,223.3 371.1,223.3 372.1,223.3 373.1,214.8 374.0,223.4 375.0,214.7 376.0,213.3 376.9,223.3 377.9,233.1 378.9,214.9 379.8,223.3 380.8,219.0 381.8,209.6 382.7,200.3 383.7,215.1 384.6,223.3 385.6,215.1 386.6,232.5 387.5,223.3 388.5,205.7 389.5,207.1 390.4,223.3 391.4,223.4 392.4,223.3 393.3,233.2 394.3,223.4 395.3,234.8 396.2,223.2 397.2,223.0 398.2,223.4 399.1,223.9 400.1,231.2 401.0,248.1 402.0,233.3 403.0,235.7 403.9,239.4 404.9,233.2 405.9,229.7 406.8,215.5 407.8,231.7 408.8,233.2 409.7,233.2 410.7,233.1 411.7,228.3 412.6,225.3 413.6,231.2 414.5,240.6 415.5,220.4 416.5,223.3 417.4,223.4 418.4,228.4 419.4,226.3 420.3,226.6 421.3,210.1 422.3,213.3 423.2,220.4 424.2,226.5 425.2,213.9 426.1,223.3 427.1,215.7 428.1,224.2 429.0,233.2 430.0,170.2 430.9,199.8 431.9,223.3 432.9,200.5 433.8,212.4 434.8,214.7 435.8,233.1 436.7,221.6 437.7,228.3 438.7,223.3 439.6,215.7 440.6,212.4 441.6,200.0 442.5,192.4 443.5,194.7 444.4,208.9 445.4,200.0 446.4,215.1 447.3,228.0 448.3,213.3 449.3,233.3 450.2,223.1 451.2,222.6 452.2,223.4 453.1,219.0 454.1,223.2 455.1,240.4 456.0,226.2 457.0,231.5 458.0,233.2 458.9,226.7 459.9,233.2 460.8,236.3 461.8,240.4 462.8,223.5 463.7,224.2 464.7,223.4 465.7,233.2 466.6,227.8 467.6,223.4 468.6,231.7 469.5,226.6 470.5,92.4 471.5,215.1 472.4,223.3 473.4,213.8 474.3,231.5 475.3,230.2 476.3,223.4 477.2,223.4 478.2,223.3 479.2,220.4 480.1,223.2 481.1,233.2 482.1,238.4 483.0,233.2 484.0,231.7 485.0,213.9 485.9,223.4 486.9,223.3 487.9,238.0 488.8,232.3 489.8,217.1 490.7,212.6 491.7,230.2 492.7,226.8 493.6,230.5 494.6,233.4 495.6,200.3 496.5,233.3 497.5,233.3 498.5,216.7 499.4,220.5 500.4,228.0 501.4,220.3 502.3,219.8 503.3,226.9 504.2,231.9 505.2,233.0 506.2,223.3 507.1,237.7 508.1,240.3 509.1,225.0 510.0,236.6 511.0,223.3 512.0,227.9 512.9,211.9 513.9,214.8 514.9,214.8 515.8,223.3 516.8,223.3 517.8,217.0 518.7,234.2 519.7,224.1 520.6,231.5 521.6,223.4 522.6,223.4 523.5,236.6 524.5,216.9 525.5,233.6 526.4,224.5 527.4,236.6 528.4,223.3 529.3,231.8 530.3,231.4 531.3,223.3 532.2,168.8 533.2,223.3 534.1,224.5 535.1,224.6 536.1,226.7 537.0,223.4 538.0,223.3 539.0,239.7 539.9,223.4 540.9,230.2 541.9,223.4 542.8,228.4 543.8,226.6 544.8,238.6 545.7,232.1 546.7,236.6 547.7,236.3 548.6,232.3 549.6,236.4 550.5,233.6 551.5,240.4 552.5,223.4 553.4,241.1 554.4,212.7 555.4,225.1 556.3,205.7 557.3,213.8 558.3,223.4 559.2,201.9 560.2,223.3 561.2,223.1 562.1,223.4 563.1,231.5 564.0,223.4 565.0,236.3 566.0,223.4 566.9,226.9 567.9,222.4 568.9,223.4 569.8,234.7 570.8,235.8 571.8,200.3 572.7,230.5 573.7,230.2 574.7,235.3 575.6,230.2 576.6,232.1 577.6,216.6 578.5,232.6 579.5,212.7 580.4,230.1 581.4,222.9 582.4,219.7 583.3,225.0 584.3,223.4 585.3,223.4 586.2,219.7 587.2,229.3 588.2,196.0 589.1,220.2 590.1,212.0 591.1,231.5 592.0,170.2 593.0,230.2 593.9,199.8 594.9,220.0 595.9,216.7 596.8,210.0 597.8,215.8 598.8,239.5 599.7,231.5 600.7,223.3 601.7,227.9 602.6,223.3 603.6,209.9 604.6,223.4 605.5,207.1 606.5,223.3 607.5,200.0 608.4,199.8 609.4,201.8 610.3,223.4 611.3,235.0 612.3,223.4 613.2,216.6 614.2,230.6 615.2,231.6 616.1,219.9 617.1,223.3 618.1,214.8 619.0,231.3 620.0,230.2 621.0,231.4 621.9,236.4 622.9,240.4 623.8,229.4 624.8,228.0 625.8,218.7 626.7,227.7 627.7,227.9 628.7,204.0 629.6,220.5 630.6,215.5 631.6,226.7 632.5,224.4 633.5,225.1 634.5,232.1 635.4,231.5 636.4,223.4 637.4,229.2 638.3,236.3 639.3,223.7 640.2,237.1 641.2,225.0 642.2,231.4 643.1,236.4 644.1,236.3 645.1,233.4 646.0,237.6 647.0,212.1 648.0,228.0 648.9,233.2 649.9,222.8 650.9,223.2 651.8,222.2 652.8,222.3 653.7,215.1 654.7,223.4 655.7,172.5 656.6,210.3 657.6,223.3 658.6,214.0 659.5,217.9 660.5,231.6 661.5,215.8 662.4,214.9 663.4,232.2 664.4,222.0 665.3,227.8 666.3,223.3 667.3,223.3 668.2,230.1 669.2,220.4 670.1,211.4 671.1,208.2 672.1,232.6 673.0,223.1 674.0,224.4 675.0,218.9 675.9,223.2 676.9,211.8 677.9,228.8 678.8,223.6 679.8,223.3 680.8,233.2 681.7,229.9 682.7,223.3 683.6,236.3 684.6,223.7 685.6,223.4 686.5,236.8 687.5,214.9 688.5,230.2 689.4,227.6 690.4,234.1 691.4,223.7 692.3,225.3 693.3,222.3 694.3,223.4 695.2,224.5 696.2,223.4 697.2,218.4 698.1,208.6 699.1,195.0 700.0,224.5 701.0,212.1 702.0,229.2 702.9,223.3 703.9,223.4 704.9,199.9 705.8,208.3 706.8,223.4 707.8,217.7 708.7,220.4 709.7,223.4 710.7,189.0 711.6,215.4 712.6,223.4 713.5,230.2 714.5,224.4 715.5,233.2 716.4,219.1 717.4,216.6 718.4,233.2 719.3,198.6 720.3,223.3 721.3,223.6 722.2,216.6 723.2,223.3 724.2,223.4 725.1,223.4 726.1,221.2 727.1,215.8 728.0,200.2 729.0,183.2 729.9,223.4 730.9,223.7 731.9,200.5 732.8,227.0 733.8,226.5 734.8,241.1 735.7,239.9 736.7,237.3 737.7,236.6 738.6,192.0 739.6,244.7 740.6,208.6 741.5,233.3 742.5,241.0 743.5,240.2 744.4,223.5 745.4,174.1 746.3,223.3 747.3,194.8 748.3,229.1 749.2,236.2 750.2,241.0 751.2,220.4 752.1,228.2 753.1,256.0 754.1,170.2 755.0,200.3 756.0,256.2 757.0,223.4 757.9,226.2 758.9,223.3 759.8,236.7 760.8,223.3 761.8,230.2 762.7,216.6 763.7,181.2 764.7,223.4 765.6,204.6 766.6,210.1 767.6,208.6 768.5,200.0 769.5,223.8 770.5,227.4 771.4,243.2 772.4,213.2 773.4,240.6 774.3,224.6 775.3,231.9 776.2,230.1 777.2,241.0 778.2,229.3 779.1,237.6 780.1,247.8 781.1,245.3 782.0,252.0 783.0,236.3 784.0,238.6 784.9,240.9 785.9,199.5 786.9,194.9 787.8,224.5 788.8,218.0 789.7,223.5 790.7,216.6 791.7,216.7 792.6,233.2 793.6,236.3 794.6,237.1 795.5,245.8 796.5,238.2 797.5,237.1 798.4,230.8 799.4,207.1 800.4,236.3 801.3,233.2 802.3,240.9 803.3,213.1 804.2,223.4 805.2,236.4 806.1,227.7 807.1,224.6 808.1,230.2 809.0,214.8 810.0,222.2 811.0,216.8 811.9,223.3 812.9,229.9 813.9,224.9 814.8,227.8 815.8,257.6 816.8,230.2 817.7,236.7 818.7,235.8 819.6,223.4 820.6,231.8 821.6,223.4 822.5,223.3 823.5,211.7 824.5,242.1 825.4,225.6 826.4,200.2 827.4,220.4 828.3,223.3 829.3,223.4 830.3,214.7 831.2,233.5 832.2,223.3 833.2,238.6 834.1,223.3 835.1,241.1 836.0,240.4 837.0,223.4 838.0,225.0 838.9,198.4 839.9,237.3 840.9,299.1 841.8,332.3 842.8,333.7 843.8,330.9 844.7,331.5 845.7,256.7 846.7,327.6 847.6,327.7 848.6,331.7 849.5,333.7 850.5,332.3 851.5,331.6 852.4,322.4 853.4,331.5 854.4,332.9 855.3,331.0 856.3,328.4 857.3,333.2 858.2,329.7 859.2,329.7 860.2,329.6 861.1,330.4 862.1,331.5 863.1,327.6 864.0,331.5 865.0,329.1 865.9,327.7 866.9,330.3 867.9,328.4 868.8,331.3 869.8,335.3 870.8,331.5 871.7,330.0 872.7,331.5 873.7,330.0 874.6,331.6 875.6,327.6 876.6,329.0 877.5,330.0 878.5,328.8 879.4,326.0 880.4,327.7 881.4,327.5 882.3,329.2 883.3,328.1 884.3,327.6 885.2,329.0 886.2,331.5 887.2,327.6 888.1,329.6 889.1,328.9 890.1,331.5 891.0,331.5 892.0,330.1 893.0,322.8 893.9,329.3 894.9,331.5 895.8,331.8 896.8,331.3 897.8,329.1 898.7,331.5 899.7,332.5 900.7,325.5 901.6,325.9 902.6,328.4 903.6,324.7 904.5,330.2 905.5,327.0 906.5,328.8 907.4,329.0 908.4,327.6 909.3,326.7 910.3,331.4 911.3,326.1 912.2,332.9 913.2,327.7 914.2,323.0 915.1,325.8 916.1,322.4 917.1,317.8 918.0,322.7 919.0,322.8 920.0,322.7 920.9,326.8 921.9,322.8 922.9,323.1 923.8,325.0 924.8,322.8 925.7,322.0 926.7,325.5 927.7,322.4 928.6,322.0 929.6,322.8 930.6,322.6 931.5,322.4 932.5,322.4 933.5,322.4 934.4,322.4 935.4,322.7 936.4,322.7 937.3,322.8 938.3,321.8 939.2,322.0 940.2,322.4 941.2,322.0 942.1,322.4 943.1,322.7 944.1,322.4 945.0,327.6 946.0,322.3" fill="none" stroke="#d97706" stroke-width="2.2" stroke-linejoin="round" stroke-linecap="round"/>
<line x1="76" y1="70" x2="94" y2="70" stroke="#2563eb" stroke-width="3"/>
<text x="100" y="74" font-family="Arial, sans-serif" font-size="11" fill="#0f172a">avg fee</text>
<line x1="179" y1="70" x2="197" y2="70" stroke="#059669" stroke-width="3"/>
<text x="203" y="74" font-family="Arial, sans-serif" font-size="11" fill="#0f172a">median fee</text>
<line x1="303" y1="70" x2="321" y2="70" stroke="#d97706" stroke-width="3"/>
<text x="327" y="74" font-family="Arial, sans-serif" font-size="11" fill="#0f172a">p90 fee</text>
<text x="28" y="404" font-family="Arial, sans-serif" font-size="11" fill="#64748b">Source: hourly_features.csv</text>
</svg>