<svg xmlns="http://www.w3.org/2000/svg" width="980" height="420" viewBox="0 0 980 420">
<rect width="100%" height="100%" fill="#ffffff"/>
<text x="28" y="34" font-family="Arial, sans-serif" font-size="20" font-weight="700" fill="#0f172a">Hourly fee trend</text>
<text x="28" y="56" font-family="Arial, sans-serif" font-size="12" fill="#64748b">Average, median, and p90 total fee by hour</text>
<line x1="76" y1="362.0" x2="946" y2="362.0" stroke="#e2e8f0" stroke-width="1"/>
<text x="68" y="366.0" font-family="Arial, sans-serif" font-size="10" text-anchor="end" fill="#64748b">-382K</text>
<line x1="76" y1="292.0" x2="946" y2="292.0" stroke="#e2e8f0" stroke-width="1"/>
<text x="68" y="296.0" font-family="Arial, sans-serif" font-size="10" text-anchor="end" fill="#64748b">2.6M</text>
<line x1="76" y1="222.0" x2="946" y2="222.0" stroke="#e2e8f0" stroke-width="1"/>
<text x="68" y="226.0" font-family="Arial, sans-serif" font-size="10" text-anchor="end" fill="#64748b">5.7M</text>
<line x1="76" y1="152.0" x2="946" y2="152.0" stroke="#e2e8f0" stroke-width="1"/>
<text x="68" y="156.0" font-family="Arial, sans-serif" font-size="10" text-anchor="end" fill="#64748b">8.7M</text>
<line x1="76" y1="82.0" x2="946" y2="82.0" stroke="#e2e8f0" stroke-width="1"/>
<text x="68" y="86.0" font-family="Arial, sans-serif" font-size="10" text-anchor="end" fill="#64748b">11.7M</text>
<line x1="76" y1="362" x2="946" y2="362" stroke="#334155" stroke-width="1"/>
<line x1="76" y1="82" x2="76" y2="362" stroke="#334155" stroke-width="1"/>
<text x="76" y="72" font-family="Arial, sans-serif" font-size="11" fill="#64748b">nanoton</text>
<line x1="76.0" y1="362" x2="76.0" y2="366" stroke="#334155" stroke-width="1"/>
<text x="76.0" y="380" font-family="Arial, sans-serif" font-size="10" text-anchor="middle" fill="#64748b">0</text>
<line x1="511.0" y1="362" x2="511.0" y2="366" stroke="#334155" stroke-width="1"/>
<text x="511.0" y="380" font-family="Arial, sans-serif" font-size="10" text-anchor="middle" fill="#64748b">420</text>
<line x1="946.0" y1="362" x2="946.0" y2="366" stroke="#334155" stroke-width="1"/>
<text x="946.0" y="380" font-family="Arial, sans-serif" font-size="10" text-anchor="middle" fill="#64748b">840</text>
<polyline points="76.0,290.8 77.0,294.6 78.1,296.0 79.1,298.1 80.1,304.8 81.2,297.2 82.2,298.2 83.2,294.6 84.3,299.0 85.3,298.7 86.4,287.8 87.4,299.5 88.4,299.7 89.5,297.4 90.5,300.3 91.5,300.5 92.6,292.5 93.6,292.5 94.6,301.3 95.7,291.1 96.7,289.2 97.8,287.3 98.8,293.8 99.8,294.2 100.9,296.1 101.9,292.1 102.9,297.7 104.0,290.6 105.0,293.2 106.0,288.3 107.1,289.0 108.1,273.1 109.1,284.7 110.2,285.3 111.2,294.6 112.2,299.9 113.3,292.9 114.3,294.9 115.4,304.7 116.4,307.5 117.4,302.1 118.5,297.0 119.5,298.7 120.5,297.9 121.6,304.4 122.6,297.4 123.6,294.5 124.7,296.5 125.7,298.7 126.8,303.1 127.8,303.1 128.8,301.9 129.9,300.3 130.9,303.3 131.9,302.2 133.0,299.4 134.0,299.1 135.0,302.8 136.1,299.1 137.1,301.3 138.1,306.8 139.2,308.7 140.2,306.4 141.2,307.1 142.3,309.1 143.3,305.9 144.4,305.5 145.4,302.0 146.4,308.5 147.5,290.7 148.5,306.4 149.5,306.4 150.6,306.3 151.6,311.2 152.6,307.1 153.7,310.3 154.7,309.1 155.8,305.5 156.8,305.4 157.8,303.2 158.9,303.5 159.9,301.3 160.9,305.1 162.0,307.4 163.0,306.9 164.0,308.1 165.1,305.0 166.1,302.9 167.1,302.7 168.2,298.6 169.2,304.9 170.2,297.0 171.3,299.3 172.3,300.3 173.4,303.9 174.4,311.6 175.4,300.1 176.5,300.5 177.5,308.9 178.5,307.5 179.6,300.3 180.6,304.2 181.6,305.1 182.7,302.6 183.7,300.5 184.8,297.4 185.8,298.7 186.8,301.9 187.9,308.1 188.9,307.4 189.9,307.4 191.0,303.1 192.0,301.9 193.0,304.1 194.1,303.9 195.1,304.0 196.1,308.3 197.2,308.9 198.2,307.3 199.2,301.1 200.3,286.9 201.3,301.6 202.4,298.8 203.4,296.1 204.4,299.6 205.5,305.5 206.5,301.5 207.5,304.9 208.6,302.2 209.6,304.9 210.6,306.8 211.7,304.9 212.7,300.8 213.8,304.8 214.8,308.0 215.8,302.4 216.9,301.7 217.9,303.1 218.9,303.4 220.0,298.9 221.0,298.5 222.0,298.0 223.1,289.4 224.1,296.9 225.1,296.4 226.2,295.5 227.2,299.6 228.2,299.0 229.3,304.6 230.3,304.0 231.4,303.8 232.4,299.2 233.4,301.2 234.5,305.7 235.5,304.5 236.5,312.1 237.6,305.7 238.6,304.3 239.6,307.0 240.7,306.9 241.7,301.9 242.8,303.8 243.8,300.8 244.8,301.6 245.9,300.2 246.9,298.7 247.9,290.6 249.0,296.1 250.0,300.6 251.0,296.6 252.1,302.7 253.1,302.6 254.1,303.0 255.2,302.7 256.2,302.8 257.2,303.7 258.3,300.1 259.3,305.6 260.4,303.0 261.4,299.2 262.4,302.8 263.5,306.7 264.5,306.1 265.5,306.7 266.6,298.5 267.6,301.6 268.6,297.8 269.7,303.8 270.7,300.2 271.8,299.5 272.8,295.6 273.8,298.2 274.9,298.4 275.9,293.8 276.9,299.9 278.0,297.9 279.0,298.6 280.0,294.2 281.1,297.8 282.1,278.0 283.1,284.2 284.2,295.2 285.2,295.7 286.2,294.4 287.3,300.7 288.3,304.3 289.4,302.4 290.4,302.1 291.4,297.9 292.5,295.3 293.5,296.5 294.5,291.4 295.6,292.0 296.6,290.6 297.6,290.0 298.7,299.7 299.7,291.9 300.8,296.8 301.8,299.8 302.8,303.8 303.9,302.5 304.9,302.1 305.9,302.3 307.0,300.8 308.0,303.5 309.0,295.9 310.1,297.8 311.1,304.4 312.1,304.2 313.2,299.5 314.2,303.9 315.2,303.5 316.3,299.0 317.3,288.7 318.4,293.7 319.4,294.2 320.4,303.7 321.5,295.6 322.5,297.0 323.5,305.6 324.6,294.8 325.6,300.5 326.6,305.1 327.7,308.5 328.7,305.5 329.8,304.0 330.8,300.7 331.8,303.8 332.9,299.3 333.9,303.0 334.9,305.0 336.0,303.0 337.0,299.3 338.0,294.4 339.1,299.9 340.1,286.2 341.1,302.1 342.2,293.9 343.2,297.9 344.2,299.5 345.3,297.4 346.3,294.4 347.4,310.4 348.4,291.6 349.4,295.6 350.5,281.6 351.5,294.6 352.5,293.2 353.6,295.0 354.6,291.0 355.6,301.0 356.7,279.9 357.7,297.2 358.8,291.8 359.8,291.5 360.8,283.3 361.9,298.3 362.9,300.4 363.9,298.6 365.0,288.4 366.0,299.0 367.0,304.4 368.1,297.7 369.1,295.5 370.1,279.8 371.2,284.2 372.2,300.5 373.2,299.9 374.3,298.1 375.3,293.4 376.4,303.1 377.4,303.0 378.4,298.6 379.5,296.8 380.5,297.4 381.5,301.3 382.6,298.1 383.6,311.4 384.6,299.4 385.7,303.5 386.7,301.2 387.8,302.9 388.8,304.3 389.8,297.8 390.9,294.4 391.9,299.3 392.9,295.1 394.0,301.8 395.0,292.6 396.0,297.6 397.1,293.9 398.1,290.0 399.1,295.1 400.2,304.6 401.2,291.1 402.2,300.3 403.3,295.9 404.3,293.1 405.4,291.6 406.4,296.8 407.4,297.1 408.5,297.9 409.5,299.5 410.5,292.8 411.6,286.2 412.6,290.1 413.6,300.0 414.7,294.5 415.7,300.9 416.8,303.0 417.8,299.1 418.8,302.5 419.9,295.1 420.9,297.0 421.9,302.8 423.0,301.7 424.0,303.0 425.0,308.6 426.1,306.8 427.1,306.1 428.1,306.5 429.2,304.3 430.2,304.5 431.2,298.3 432.3,301.1 433.3,303.1 434.4,303.3 435.4,304.2 436.4,302.4 437.5,299.4 438.5,304.5 439.5,307.1 440.6,297.3 441.6,298.9 442.6,298.1 443.7,299.7 444.7,297.8 445.8,301.0 446.8,287.2 447.8,294.3 448.9,294.8 449.9,298.6 450.9,291.3 452.0,298.4 453.0,294.6 454.0,298.7 455.1,304.2 456.1,282.2 457.1,289.8 458.2,298.8 459.2,295.1 460.2,293.4 461.3,294.7 462.3,304.3 463.4,296.9 464.4,301.7 465.4,296.7 466.5,295.6 467.5,292.9 468.5,291.6 469.6,286.7 470.6,287.8 471.6,294.2 472.7,292.6 473.7,297.5 474.8,303.1 475.8,296.8 476.8,304.1 477.9,298.7 478.9,297.8 479.9,299.3 481.0,297.1 482.0,296.6 483.0,305.5 484.1,301.9 485.1,304.5 486.1,302.9 487.2,303.4 488.2,302.7 489.2,304.5 490.3,301.7 491.3,300.0 492.4,297.3 493.4,295.0 494.4,305.0 495.5,302.7 496.5,303.7 497.5,302.8 498.6,298.5 499.6,257.0 500.6,291.0 501.7,298.5 502.7,296.3 503.8,301.0 504.8,301.6 505.8,299.9 506.9,299.3 507.9,299.6 508.9,296.0 510.0,299.4 511.0,305.6 512.0,306.5 513.1,300.9 514.1,302.7 515.1,295.0 516.2,302.2 517.2,296.9 518.2,304.8 519.3,299.1 520.3,295.6 521.4,295.1 522.4,300.9 523.4,301.0 524.5,300.7 525.5,304.5 526.5,292.6 527.6,303.5 528.6,306.0 529.6,295.5 530.7,297.4 531.7,302.8 532.8,295.8 533.8,299.5 534.8,304.0 535.9,301.7 536.9,303.8 537.9,300.8 539.0,306.1 540.0,305.6 541.0,300.8 542.1,303.2 543.1,297.1 544.1,300.2 545.2,292.3 546.2,292.0 547.2,292.1 548.3,299.3 549.3,298.5 550.4,298.8 551.4,301.5 552.4,299.6 553.5,305.3 554.5,300.2 555.5,300.6 556.6,304.7 557.6,299.2 558.6,304.4 559.7,299.7 560.7,306.4 561.8,299.1 562.8,304.5 563.8,303.3 564.9,298.0 565.9,263.7 566.9,302.9 568.0,304.6 569.0,301.3 570.0,300.8 571.1,298.3 572.1,299.9 573.1,302.7 574.2,298.6 575.2,304.0 576.2,302.8 577.3,303.0 578.3,301.1 579.4,308.3 580.4,304.5 581.4,309.0 582.5,304.5 583.5,303.7 584.5,304.9 585.6,303.6 586.6,305.3 587.6,299.5 588.7,305.2 589.7,297.1 590.8,302.2 591.8,288.1 592.8,294.6 593.9,299.7 594.9,287.4 595.9,299.0 597.0,298.4 598.0,296.8 599.0,301.1 600.1,299.5 601.1,302.6 602.1,299.3 603.2,303.0 604.2,298.0 605.2,301.6 606.3,305.3 607.3,304.5 608.4,290.4 609.4,303.1 610.4,299.6 611.5,302.4 612.5,303.1 613.5,304.7 614.6,296.3 615.6,301.7 616.6,292.9 617.7,298.2 618.7,294.8 619.8,293.5 620.8,299.4 621.8,297.4 622.9,300.4 623.9,295.6 624.9,301.5 626.0,282.6 627.0,297.4 628.0,291.2 629.1,300.8 630.1,281.3 631.1,303.6 632.2,292.1 633.2,296.5 634.2,300.9 635.3,293.9 636.3,295.3 637.4,305.2 638.4,304.7 639.4,300.3 640.5,302.0 641.5,297.5 642.5,295.0 643.6,296.6 644.6,292.7 645.6,298.7 646.7,291.1 647.7,289.9 648.8,292.8 649.8,302.6 650.8,303.5 651.9,301.6 652.9,297.5 653.9,303.0 655.0,302.5 656.0,299.3 657.0,300.0 658.1,295.7 659.1,300.6 660.1,302.5 661.2,302.2 662.2,300.7 663.2,305.4 664.3,305.1 665.3,301.0 666.4,294.2 667.4,301.0 668.4,298.9 669.5,290.4 670.5,295.9 671.5,294.1 672.6,301.3 673.6,298.2 674.6,299.2 675.7,302.6 676.7,300.9 677.8,299.2 678.8,302.7 679.8,303.6 680.9,299.5 681.9,304.4 682.9,298.2 684.0,302.7 685.0,304.9 686.0,303.3 687.1,303.8 688.1,305.7 689.1,294.6 690.2,306.7 691.2,303.7 692.2,295.1 693.3,294.1 694.3,293.7 695.4,295.9 696.4,295.9 697.4,298.1 698.5,284.7 699.5,294.9 700.5,298.6 701.6,296.3 702.6,294.2 703.6,300.6 704.7,294.3 705.7,295.9 706.8,303.8 707.8,295.8 708.8,302.6 709.9,297.7 710.9,300.0 711.9,300.7 713.0,298.3 714.0,294.8 715.0,295.8 716.1,303.0 717.1,295.6 718.1,296.0 719.2,295.2 720.2,295.3 721.2,295.0 722.3,299.9 723.3,299.0 724.4,295.9 725.4,303.3 726.4,302.9 727.5,298.2 728.5,305.5 729.5,300.9 730.6,300.4 731.6,305.2 732.6,295.8 733.7,301.8 734.7,303.2 735.8,304.6 736.8,299.1 737.8,301.0 738.9,298.0 739.9,298.8 740.9,297.3 742.0,300.8 743.0,296.0 744.0,293.0 745.1,284.2 746.1,298.8 747.1,293.9 748.2,298.9 749.2,298.8 750.2,298.0 751.3,291.0 752.3,292.3 753.4,298.2 754.4,297.5 755.4,297.5 756.5,298.5 757.5,288.2 758.5,296.5 759.6,297.3 760.6,301.7 761.6,301.0 762.7,305.4 763.7,295.8 764.8,295.1 765.8,299.8 766.8,289.6 767.9,296.7 768.9,295.1 769.9,295.1 771.0,294.8 772.0,297.5 773.0,299.5 774.1,295.8 775.1,297.0 776.1,291.7 777.2,285.1 778.2,299.7 779.2,301.0 780.3,293.6 781.3,302.3 782.4,297.5 783.4,307.7 784.4,292.5 785.5,304.9 786.5,304.1 787.5,291.9 788.6,305.2 789.6,297.8 790.6,298.1 791.7,307.4 792.7,305.4 793.8,294.0 794.8,284.5 795.8,295.7 796.9,281.6 797.9,295.8 798.9,307.1 800.0,303.5 801.0,299.2 802.0,301.5 803.1,309.0 804.1,287.8 805.1,293.3 806.2,314.3 807.2,300.8 808.2,304.2 809.3,299.2 810.3,305.4 811.4,297.5 812.4,303.5 813.4,297.3 814.5,286.2 815.5,295.6 816.5,293.4 817.6,295.3 818.6,292.6 819.6,295.0 820.7,297.5 821.7,303.2 822.8,307.8 823.8,295.2 824.8,306.6 825.9,305.0 826.9,305.4 827.9,303.1 829.0,297.4 830.0,293.5 831.0,305.0 832.1,310.4 833.1,306.6 834.1,309.4 835.2,304.0 836.2,307.8 837.2,308.2 838.3,299.0 839.3,288.2 840.4,297.1 841.4,298.1 842.4,298.6 843.5,298.7 844.5,295.2 845.5,305.8 846.6,307.8 847.6,304.4 848.6,309.3 849.7,306.7 850.7,303.2 851.8,303.6 852.8,296.5 853.8,304.1 854.9,305.5 855.9,308.2 856.9,291.8 858.0,301.9 859.0,305.3 860.0,302.2 861.1,300.9 862.1,302.7 863.1,295.0 864.2,295.0 865.2,295.3 866.2,299.1 867.3,299.0 868.3,300.9 869.4,304.6 870.4,307.3 871.4,303.1 872.5,300.9 873.5,303.0 874.5,290.9 875.6,301.1 876.6,301.9 877.6,302.0 878.7,295.6 879.7,306.6 880.8,304.1 881.8,288.8 882.8,297.4 883.9,295.3 884.9,295.7 885.9,296.1 887.0,306.3 888.0,300.3 889.0,304.9 890.1,295.7 891.1,303.6 892.1,305.1 893.2,302.6 894.2,301.6 895.2,285.2 896.3,304.3 897.3,334.7 898.4,343.7 899.4,343.8 900.4,343.5 901.5,344.0 902.5,319.0 903.5,342.3 904.6,343.1 905.6,342.6 906.6,343.4 907.7,343.4 908.7,343.4 909.8,338.9 910.8,343.5 911.8,344.5 912.9,342.7 913.9,342.0 914.9,343.8 916.0,343.0 917.0,343.2 918.0,340.3 919.1,342.7 920.1,343.4 921.1,342.2 922.2,343.9 923.2,341.8 924.2,341.2 925.3,342.8 926.3,342.4 927.4,343.3 928.4,344.8 929.4,343.7 930.5,343.3 931.5,344.0 932.5,342.7 933.6,343.5 934.6,341.8 935.6,340.1 936.7,342.3 937.7,342.4 938.8,339.6 939.8,341.5 940.8,340.5 941.9,343.1 942.9,341.6 943.9,340.5 945.0,342.3 946.0,342.2" fill="none" stroke="#2563eb" stroke-width="2.2" stroke-linejoin="round" stroke-linecap="round"/>
<polyline points="76.0,311.4 77.0,324.9 78.1,334.1 79.1,334.5 80.1,335.0 81.2,334.6 82.2,334.4 83.2,330.8 84.3,334.6 85.3,334.6 86.4,320.5 87.4,334.6 88.4,334.2 89.5,330.7 90.5,334.4 91.5,333.8 92.6,321.1 93.6,330.5 94.6,332.4 95.7,310.6 96.7,302.9 97.8,305.9 98.8,320.5 99.8,315.5 100.9,310.4 101.9,329.8 102.9,333.4 104.0,312.5 105.0,335.0 106.0,319.0 107.1,330.5 108.1,283.8 109.1,300.4 110.2,303.3 111.2,308.3 112.2,331.3 113.3,312.5 114.3,310.6 115.4,334.9 116.4,335.0 117.4,329.7 118.5,310.6 119.5,310.6 120.5,312.5 121.6,340.8 122.6,334.9 123.6,308.9 124.7,310.3 125.7,334.9 126.8,335.3 127.8,334.2 128.8,333.4 129.9,333.9 130.9,334.6 131.9,331.5 133.0,334.6 134.0,330.9 135.0,334.3 136.1,334.6 137.1,334.2 138.1,335.0 139.2,334.9 140.2,334.9 141.2,344.0 142.3,335.8 143.3,334.9 144.4,334.9 145.4,330.7 146.4,344.0 147.5,335.6 148.5,336.2 149.5,336.2 150.6,335.0 151.6,338.1 152.6,336.2 153.7,336.1 154.7,335.1 155.8,335.0 156.8,335.0 157.8,334.5 158.9,335.0 159.9,334.6 160.9,334.6 162.0,335.0 163.0,335.0 164.0,335.0 165.1,334.3 166.1,334.9 167.1,334.9 168.2,330.7 169.2,334.7 170.2,312.2 171.3,329.6 172.3,331.1 173.4,333.8 174.4,344.0 175.4,330.6 176.5,333.8 177.5,335.0 178.5,336.2 179.6,334.7 180.6,334.7 181.6,334.8 182.7,334.6 183.7,331.0 184.8,330.5 185.8,331.5 186.8,333.0 187.9,335.0 188.9,334.9 189.9,334.9 191.0,334.1 192.0,334.9 193.0,334.9 194.1,331.5 195.1,332.3 196.1,336.2 197.2,344.0 198.2,336.1 199.2,335.0 200.3,310.1 201.3,334.9 202.4,334.5 203.4,334.7 204.4,333.8 205.5,334.9 206.5,334.0 207.5,334.9 208.6,334.9 209.6,334.9 210.6,335.0 211.7,334.7 212.7,333.2 213.8,334.9 214.8,335.0 215.8,335.0 216.9,334.1 217.9,334.2 218.9,330.3 220.0,310.6 221.0,298.7 222.0,309.8 223.1,304.4 224.1,310.2 225.1,310.1 226.2,327.6 227.2,333.0 228.2,333.8 229.3,333.8 230.3,334.9 231.4,334.9 232.4,333.8 233.4,334.7 234.5,334.7 235.5,334.6 236.5,344.0 237.6,334.9 238.6,334.9 239.6,335.0 240.7,335.0 241.7,333.8 242.8,334.4 243.8,330.9 244.8,319.7 245.9,298.7 246.9,334.1 247.9,326.9 249.0,334.7 250.0,331.8 251.0,331.8 252.1,331.4 253.1,334.7 254.1,334.4 255.2,334.6 256.2,334.6 257.2,330.7 258.3,330.7 259.3,334.9 260.4,334.4 261.4,331.0 262.4,334.6 263.5,335.0 264.5,334.6 265.5,334.9 266.6,330.5 267.6,334.3 268.6,315.6 269.7,334.6 270.7,298.7 271.8,334.0 272.8,329.7 273.8,332.6 274.9,331.8 275.9,310.6 276.9,331.8 278.0,332.3 279.0,334.6 280.0,323.8 281.1,334.0 282.1,295.8 283.1,298.7 284.2,327.1 285.2,331.1 286.2,330.7 287.3,332.3 288.3,334.6 289.4,334.7 290.4,334.1 291.4,324.8 292.5,315.1 293.5,308.6 294.5,305.4 295.6,298.7 296.6,306.5 297.6,305.4 298.7,331.7 299.7,305.5 300.8,317.0 301.8,333.4 302.8,335.0 303.9,334.1 304.9,335.0 305.9,334.9 307.0,333.7 308.0,335.0 309.0,319.7 310.1,319.7 311.1,334.1 312.1,333.8 313.2,333.4 314.2,334.7 315.2,334.6 316.3,331.3 317.3,305.4 318.4,308.2 319.4,308.3 320.4,298.7 321.5,310.2 322.5,335.5 323.5,336.2 324.6,312.5 325.6,334.5 326.6,336.2 327.7,335.9 328.7,336.2 329.8,335.0 330.8,333.8 331.8,334.3 332.9,334.4 333.9,333.5 334.9,334.6 336.0,334.4 337.0,329.6 338.0,308.9 339.1,334.1 340.1,308.2 341.1,334.4 342.2,310.7 343.2,310.3 344.2,325.1 345.3,305.5 346.3,319.7 347.4,344.0 348.4,315.6 349.4,334.2 350.5,308.2 351.5,309.9 352.5,330.0 353.6,334.1 354.6,335.0 355.6,333.2 356.7,323.8 357.7,333.8 358.8,308.2 359.8,306.1 360.8,323.8 361.9,315.6 362.9,333.4 363.9,332.6 365.0,303.2 366.0,334.1 367.0,334.7 368.1,326.5 369.1,333.8 370.1,320.8 371.2,333.7 372.2,333.7 373.2,334.1 374.3,330.7 375.3,331.8 376.4,333.7 377.4,334.6 378.4,333.8 379.5,333.0 380.5,310.6 381.5,334.7 382.6,330.7 383.6,345.9 384.6,333.8 385.7,334.7 386.7,333.7 387.8,334.7 388.8,334.7 389.8,310.6 390.9,315.4 391.9,332.0 392.9,310.5 394.0,331.7 395.0,305.3 396.0,330.5 397.1,326.9 398.1,302.2 399.1,309.7 400.2,335.9 401.2,333.4 402.2,334.9 403.3,334.4 404.3,306.5 405.4,306.5 406.4,318.3 407.4,320.1 408.5,323.6 409.5,331.8 410.5,310.6 411.6,305.4 412.6,308.2 413.6,331.8 414.7,305.2 415.7,330.5 416.8,334.1 417.8,326.7 418.8,330.7 419.9,305.4 420.9,308.2 421.9,333.8 423.0,334.1 424.0,335.0 425.0,340.8 426.1,336.2 427.1,336.1 428.1,335.0 429.2,336.2 430.2,335.8 431.2,333.8 432.3,334.4 433.3,335.0 434.4,334.8 435.4,334.9 436.4,334.6 437.5,331.8 438.5,334.5 439.5,335.0 440.6,329.1 441.6,330.7 442.6,325.8 443.7,325.3 444.7,308.2 445.8,333.5 446.8,308.4 447.8,310.3 448.9,330.5 449.9,319.6 450.9,308.3 452.0,334.6 453.0,318.7 454.0,335.8 455.1,335.0 456.1,297.6 457.1,305.3 458.2,325.3 459.2,325.7 460.2,318.9 461.3,310.3 462.3,334.9 463.4,321.4 464.4,334.2 465.4,331.5 466.5,329.7 467.5,309.6 468.5,308.4 469.6,298.7 470.6,302.7 471.6,305.5 472.7,309.0 473.7,331.8 474.8,334.0 475.8,329.6 476.8,334.7 477.9,333.8 478.9,335.0 479.9,334.0 481.0,334.0 482.0,325.3 483.0,334.9 484.1,334.5 485.1,334.6 486.1,334.7 487.2,334.7 488.2,334.7 489.2,334.6 490.3,334.1 491.3,326.9 492.4,326.6 493.4,305.4 494.4,343.0 495.5,335.3 496.5,344.0 497.5,335.0 498.6,329.1 499.6,301.0 500.6,334.2 501.7,334.1 502.7,315.6 503.8,335.0 504.8,334.1 505.8,334.6 506.9,333.6 507.9,330.5 508.9,330.4 510.0,333.8 511.0,335.0 512.0,335.0 513.1,333.2 514.1,334.4 515.1,310.5 516.2,332.0 517.2,310.1 518.2,332.7 519.3,305.4 520.3,309.8 521.4,310.6 522.4,330.0 523.4,333.8 524.5,332.4 525.5,335.3 526.5,318.3 527.6,334.7 528.6,336.2 529.6,331.4 530.7,325.8 531.7,334.6 532.8,331.3 533.8,331.8 534.8,334.7 535.9,334.5 536.9,333.8 537.9,330.7 539.0,334.9 540.0,334.8 541.0,331.8 542.1,333.2 543.1,310.7 544.1,330.5 545.2,308.2 546.2,308.4 547.2,305.4 548.3,330.4 549.3,326.9 550.4,330.4 551.4,334.9 552.4,331.5 553.5,335.0 554.5,334.6 555.5,334.1 556.6,334.9 557.6,334.7 558.6,335.0 559.7,333.8 560.7,335.0 561.8,333.3 562.8,334.6 563.8,335.0 564.9,332.7 565.9,283.6 566.9,333.8 568.0,335.0 569.0,319.3 570.0,331.1 571.1,329.7 572.1,331.8 573.1,334.1 574.2,334.6 575.2,334.9 576.2,334.7 577.3,334.6 578.3,334.8 579.4,335.0 580.4,334.9 581.4,335.0 582.5,334.9 583.5,334.7 584.5,334.9 585.6,335.0 586.6,334.7 587.6,334.1 588.7,335.7 589.7,334.1 590.8,334.4 591.8,305.3 592.8,319.6 593.9,309.3 594.9,300.7 595.9,310.4 597.0,330.5 598.0,310.6 599.0,330.5 600.1,333.0 601.1,334.7 602.1,333.8 603.2,334.1 604.2,330.9 605.2,334.7 606.3,334.9 607.3,334.9 608.4,305.4 609.4,334.4 610.4,331.0 611.5,335.0 612.5,333.8 613.5,335.0 614.6,333.8 615.6,334.9 616.6,310.6 617.7,334.3 618.7,306.4 619.8,308.4 620.8,333.8 621.8,330.9 622.9,334.1 623.9,329.7 624.9,334.3 626.0,305.3 627.0,330.7 628.0,328.8 629.1,333.8 630.1,295.8 631.1,334.6 632.2,310.6 633.2,310.6 634.2,333.8 635.3,318.4 636.3,318.5 637.4,334.2 638.4,334.9 639.4,334.1 640.5,334.1 641.5,330.4 642.5,308.2 643.6,308.2 644.6,310.2 645.6,333.8 646.7,310.6 647.7,310.4 648.8,327.3 649.8,332.0 650.8,335.0 651.9,334.6 652.9,334.0 653.9,334.6 655.0,334.5 656.0,330.7 657.0,333.5 658.1,331.5 659.1,334.6 660.1,334.1 661.2,333.8 662.2,330.7 663.2,334.7 664.3,334.9 665.3,332.0 666.4,307.0 667.4,326.1 668.4,305.4 669.5,306.4 670.5,309.0 671.5,306.4 672.6,334.6 673.6,327.0 674.6,333.8 675.7,333.2 676.7,334.1 677.8,335.0 678.8,334.6 679.8,333.9 680.9,333.8 681.9,334.7 682.9,330.7 684.0,331.8 685.0,334.9 686.0,334.1 687.1,334.6 688.1,334.9 689.1,327.5 690.2,335.0 691.2,333.6 692.2,319.7 693.3,302.9 694.3,310.1 695.4,327.5 696.4,326.8 697.4,323.6 698.5,298.7 699.5,310.6 700.5,331.1 701.6,330.7 702.6,334.6 703.6,324.6 704.7,323.8 705.7,330.4 706.8,333.8 707.8,330.7 708.8,334.6 709.9,323.9 710.9,333.2 711.9,334.1 713.0,325.7 714.0,309.1 715.0,315.6 716.1,333.8 717.1,308.5 718.1,306.5 719.2,308.2 720.2,310.2 721.2,312.5 722.3,331.0 723.3,331.9 724.4,317.9 725.4,334.6 726.4,335.0 727.5,335.0 728.5,335.0 729.5,334.6 730.6,333.8 731.6,334.9 732.6,330.4 733.7,334.3 734.7,334.6 735.8,334.2 736.8,333.8 737.8,335.0 738.9,330.7 739.9,333.8 740.9,315.5 742.0,330.7 743.0,305.4 744.0,324.4 745.1,306.5 746.1,331.8 747.1,308.9 748.2,333.8 749.2,333.8 750.2,331.2 751.3,310.7 752.3,333.8 753.4,330.0 754.4,327.2 755.4,323.8 756.5,330.0 757.5,305.0 758.5,312.5 759.6,333.8 760.6,332.0 761.6,329.7 762.7,333.8 763.7,322.8 764.8,308.3 765.8,310.4 766.8,305.2 767.9,305.4 768.9,308.2 769.9,310.7 771.0,310.1 772.0,319.6 773.0,325.7 774.1,330.8 775.1,330.9 776.1,305.4 777.2,305.2 778.2,333.8 779.2,331.0 780.3,305.4 781.3,334.7 782.4,308.3 783.4,334.1 784.4,334.7 785.5,332.8 786.5,332.9 787.5,308.2 788.6,335.0 789.6,330.4 790.6,310.4 791.7,330.0 792.7,326.8 793.8,305.9 794.8,306.4 795.8,323.8 796.9,296.7 797.9,334.1 798.9,335.0 800.0,335.0 801.0,331.5 802.0,334.7 803.1,335.0 804.1,304.3 805.1,308.2 806.2,335.0 807.2,331.8 808.2,334.5 809.3,331.2 810.3,334.7 811.4,331.8 812.4,321.5 813.4,334.9 814.5,331.9 815.5,310.4 816.5,308.3 817.6,305.4 818.6,305.9 819.6,305.7 820.7,324.6 821.7,330.7 822.8,334.5 823.8,331.6 824.8,335.0 825.9,335.0 826.9,335.0 827.9,322.4 829.0,334.9 830.0,331.1 831.0,335.0 832.1,344.0 833.1,344.0 834.1,344.0 835.2,334.6 836.2,335.0 837.2,335.0 838.3,334.4 839.3,311.6 840.4,308.9 841.4,308.2 842.4,308.1 843.5,330.4 844.5,308.6 845.5,337.4 846.6,335.0 847.6,335.0 848.6,335.0 849.7,331.8 850.7,332.0 851.8,334.1 852.8,330.5 853.8,334.6 854.9,335.0 855.9,334.9 856.9,312.5 858.0,333.8 859.0,332.0 860.0,333.8 861.1,331.7 862.1,331.0 863.1,310.7 864.2,308.6 865.2,314.0 866.2,327.1 867.3,304.8 868.3,340.8 869.4,341.6 870.4,335.0 871.4,334.6 872.5,334.6 873.5,324.6 874.5,317.8 875.6,346.0 876.6,334.6 877.6,334.9 878.7,317.9 879.7,344.0 880.8,334.0 881.8,321.8 882.8,332.8 883.9,325.5 884.9,333.8 885.9,313.7 887.0,334.6 888.0,328.5 889.0,331.2 890.1,305.4 891.1,331.0 892.1,310.0 893.2,331.4 894.2,330.2 895.2,290.8 896.3,335.0 897.3,347.8 898.4,350.1 899.4,349.5 900.4,346.1 901.5,349.4 902.5,341.0 903.5,346.4 904.6,349.3 905.6,344.7 906.6,345.1 907.7,349.2 908.7,349.4 909.8,343.5 910.8,350.0 911.8,350.1 912.9,347.6 913.9,344.9 914.9,349.2 916.0,345.2 917.0,344.1 918.0,344.7 919.1,345.7 920.1,346.1 921.1,345.7 922.2,349.5 923.2,345.1 924.2,349.4 925.3,348.7 926.3,346.1 927.4,345.8 928.4,351.6 929.4,348.3 930.5,345.7 931.5,349.9 932.5,344.7 933.6,346.4 934.6,345.2 935.6,343.4 936.7,345.2 937.7,346.1 938.8,342.1 939.8,343.4 940.8,343.5 941.9,345.2 942.9,345.2 943.9,344.0 945.0,345.2 946.0,345.6" fill="none" stroke="#059669" stroke-width="2.2" stroke-linejoin="round" stroke-linecap="round"/>
<polyline points="76.0,208.9 77.0,216.7 78.1,223.4 79.1,228.3 80.1,236.4 81.2,228.3 82.2,223.3 83.2,216.9 84.3,223.4 85.3,223.3 86.4,199.8 87.4,223.4 88.4,224.6 89.5,223.3 90.5,226.2 91.5,227.6 92.6,211.5 93.6,216.7 94.6,236.0 95.7,216.6 96.7,215.8 97.8,199.8 98.8,220.3 99.8,223.2 100.9,223.4 101.9,220.5 102.9,223.3 104.0,213.2 105.0,216.6 106.0,200.1 107.1,199.8 108.1,160.5 109.1,170.2 110.2,170.2 111.2,209.6 112.2,215.8 113.3,209.6 114.3,208.2 115.4,233.3 116.4,241.0 117.4,230.2 118.5,223.3 119.5,223.8 120.5,223.4 121.6,227.6 122.6,220.4 123.6,213.7 124.7,221.6 125.7,214.1 126.8,236.4 127.8,233.9 128.8,228.8 129.9,229.4 130.9,230.2 131.9,223.4 133.0,223.4 134.0,224.4 135.0,227.8 136.1,231.4 137.1,223.4 138.1,236.4 139.2,240.4 140.2,233.6 141.2,244.6 142.3,239.4 143.3,240.4 144.4,238.9 145.4,236.3 146.4,251.7 147.5,206.3 148.5,236.6 149.5,237.6 150.6,234.6 151.6,248.7 152.6,242.6 153.7,246.3 154.7,241.1 155.8,232.3 156.8,233.3 157.8,228.3 158.9,223.5 159.9,229.7 160.9,233.3 162.0,246.2 163.0,238.6 164.0,241.0 165.1,231.4 166.1,230.1 167.1,230.4 168.2,216.6 169.2,239.0 170.2,223.4 171.3,231.9 172.3,231.4 173.4,242.9 174.4,248.9 175.4,223.4 176.5,227.9 177.5,242.4 178.5,237.1 179.6,229.7 180.6,234.8 181.6,236.4 182.7,233.2 183.7,223.4 184.8,223.4 185.8,230.1 186.8,233.2 187.9,241.8 188.9,237.6 189.9,246.3 191.0,230.4 192.0,230.5 193.0,237.1 194.1,236.4 195.1,236.6 196.1,241.3 197.2,240.4 198.2,240.4 199.2,233.2 200.3,200.3 201.3,223.3 202.4,223.4 203.4,216.6 204.4,229.6 205.5,233.3 206.5,231.4 207.5,233.3 208.6,230.8 209.6,236.3 210.6,236.3 211.7,233.3 212.7,230.2 213.8,238.7 214.8,238.8 215.8,237.6 216.9,228.0 217.9,226.9 218.9,237.0 220.0,226.6 221.0,232.3 222.0,231.4 223.1,207.0 224.1,223.4 225.1,223.3 226.2,223.3 227.2,225.0 228.2,223.4 229.3,236.4 230.3,236.4 231.4,231.9 232.4,230.2 233.4,235.6 234.5,236.3 235.5,236.7 236.5,251.5 237.6,233.3 238.6,233.3 239.6,241.1 240.7,241.0 241.7,233.3 242.8,232.1 243.8,225.6 244.8,223.4 245.9,241.1 246.9,223.4 247.9,199.8 249.0,231.6 250.0,233.2 251.0,223.4 252.1,228.7 253.1,233.2 254.1,236.4 255.2,233.2 256.2,232.7 257.2,233.7 258.3,223.4 259.3,238.3 260.4,233.9 261.4,223.4 262.4,232.6 263.5,238.6 264.5,240.5 265.5,247.9 266.6,224.1 267.6,223.3 268.6,224.5 269.7,234.8 270.7,247.0 271.8,227.7 272.8,223.2 273.8,223.4 274.9,225.2 275.9,222.7 276.9,229.5 278.0,223.4 279.0,228.1 280.0,212.0 281.1,223.2 282.1,160.5 283.1,171.2 284.2,200.0 285.2,210.4 286.2,201.6 287.3,223.4 288.3,232.3 289.4,227.9 290.4,226.7 291.4,216.8 292.5,216.6 293.5,223.4 294.5,200.0 295.6,227.0 296.6,199.8 297.6,199.8 298.7,223.4 299.7,210.4 300.8,217.0 301.8,224.4 302.8,223.4 303.9,224.5 304.9,224.1 305.9,226.6 307.0,223.4 308.0,233.2 309.0,208.9 310.1,221.6 311.1,233.3 312.1,232.1 313.2,223.3 314.2,228.3 315.2,230.2 316.3,223.4 317.3,202.6 318.4,220.4 319.4,223.2 320.4,257.5 321.5,219.7 322.5,214.4 323.5,240.0 324.6,215.3 325.6,228.3 326.6,233.5 327.7,241.1 328.7,240.7 329.8,233.2 330.8,233.2 331.8,227.4 332.9,223.4 333.9,240.4 334.9,231.6 336.0,230.9 337.0,218.4 338.0,210.8 339.1,228.0 340.1,182.3 341.1,231.0 342.2,214.8 343.2,222.1 344.2,223.4 345.3,227.6 346.3,214.7 347.4,240.7 348.4,215.1 349.4,221.5 350.5,199.7 351.5,197.1 352.5,195.3 353.6,216.6 354.6,210.6 355.6,223.4 356.7,170.2 357.7,220.5 358.8,205.1 359.8,205.7 360.8,199.8 361.9,221.7 362.9,228.0 363.9,223.4 365.0,168.9 366.0,223.3 367.0,231.5 368.1,223.2 369.1,223.4 370.1,176.3 371.2,200.3 372.2,226.2 373.2,231.6 374.3,223.4 375.3,209.8 376.4,233.3 377.4,232.6 378.4,224.4 379.5,223.4 380.5,220.4 381.5,230.2 382.6,223.3 383.6,251.8 384.6,231.2 385.7,231.4 386.7,230.2 387.8,233.1 388.8,233.1 389.8,224.5 390.9,223.2 391.9,223.3 392.9,223.3 394.0,223.3 395.0,214.8 396.0,223.4 397.1,214.7 398.1,213.3 399.1,223.3 400.2,233.1 401.2,214.9 402.2,223.3 403.3,219.0 404.3,209.6 405.4,200.3 406.4,215.1 407.4,223.3 408.5,215.1 409.5,232.5 410.5,223.3 411.6,205.7 412.6,207.1 413.6,223.3 414.7,223.4 415.7,223.3 416.8,233.2 417.8,223.4 418.8,234.8 419.9,223.2 420.9,223.0 421.9,223.4 423.0,223.9 424.0,231.2 425.0,248.1 426.1,233.3 427.1,235.7 428.1,239.4 429.2,233.2 430.2,229.7 431.2,215.5 432.3,231.7 433.3,233.2 434.4,233.2 435.4,233.1 436.4,228.3 437.5,225.3 438.5,231.2 439.5,240.6 440.6,220.4 441.6,223.3 442.6,223.4 443.7,228.4 444.7,226.3 445.8,226.6 446.8,210.1 447.8,213.3 448.9,220.4 449.9,226.5 450.9,213.9 452.0,223.3 453.0,215.7 454.0,224.2 455.1,233.2 456.1,170.2 457.1,199.8 458.2,223.3 459.2,200.5 460.2,212.4 461.3,214.7 462.3,233.1 463.4,221.6 464.4,228.3 465.4,223.3 466.5,215.7 467.5,212.4 468.5,200.0 469.6,192.4 470.6,194.7 471.6,208.9 472.7,200.0 473.7,215.1 474.8,228.0 475.8,213.3 476.8,233.3 477.9,223.1 478.9,222.6 479.9,223.4 481.0,219.0 482.0,223.2 483.0,240.4 484.1,226.2 485.1,231.5 486.1,233.2 487.2,226.7 488.2,233.2 489.2,236.3 490.3,240.4 491.3,223.5 492.4,224.2 493.4,223.4 494.4,233.2 495.5,227.8 496.5,223.4 497.5,231.7 498.6,226.6 499.6,92.4 500.6,215.1 501.7,223.3 502.7,213.8 503.8,231.5 504.8,230.2 505.8,223.4 506.9,223.4 507.9,223.3 508.9,220.4 510.0,223.2 511.0,233.2 512.0,238.4 513.1,233.2 514.1,231.7 515.1,213.9 516.2,223.4 517.2,223.3 518.2,238.0 519.3,232.3 520.3,217.1 521.4,212.6 522.4,230.2 523.4,226.8 524.5,230.5 525.5,233.4 526.5,200.3 527.6,233.3 528.6,233.3 529.6,216.7 530.7,220.5 531.7,228.0 532.8,220.3 533.8,219.8 534.8,226.9 535.9,231.9 536.9,233.0 537.9,223.3 539.0,237.7 540.0,240.3 541.0,225.0 542.1,236.6 543.1,223.3 544.1,227.9 545.2,211.9 546.2,214.8 547.2,214.8 548.3,223.3 549.3,223.3 550.4,217.0 551.4,234.2 552.4,224.1 553.5,231.5 554.5,223.4 555.5,223.4 556.6,236.6 557.6,216.9 558.6,233.6 559.7,224.5 560.7,236.6 561.8,223.3 562.8,231.8 563.8,231.4 564.9,223.3 565.9,168.8 566.9,223.3 568.0,224.5 569.0,224.6 570.0,226.7 571.1,223.4 572.1,223.3 573.1,239.7 574.2,223.4 575.2,230.2 576.2,223.4 577.3,228.4 578.3,226.6 579.4,238.6 580.4,232.1 581.4,236.6 582.5,236.3 583.5,232.3 584.5,236.4 585.6,233.6 586.6,240.4 587.6,223.4 588.7,241.1 589.7,212.7 590.8,225.1 591.8,205.7 592.8,213.8 593.9,223.4 594.9,201.9 595.9,223.3 597.0,223.1 598.0,223.4 599.0,231.5 600.1,223.4 601.1,236.3 602.1,223.4 603.2,226.9 604.2,222.4 605.2,223.4 606.3,234.7 607.3,235.8 608.4,200.3 609.4,230.5 610.4,230.2 611.5,235.3 612.5,230.2 613.5,232.1 614.6,216.6 615.6,232.6 616.6,212.7 617.7,230.1 618.7,222.9 619.8,219.7 620.8,225.0 621.8,223.4 622.9,223.4 623.9,219.7 624.9,229.3 626.0,196.0 627.0,220.2 628.0,212.0 629.1,231.5 630.1,170.2 631.1,230.2 632.2,199.8 633.2,220.0 634.2,216.7 635.3,210.0 636.3,215.8 637.4,239.5 638.4,231.5 639.4,223.3 640.5,227.9 641.5,223.3 642.5,209.9 643.6,223.4 644.6,207.1 645.6,223.3 646.7,200.0 647.7,199.8 648.8,201.8 649.8,223.4 650.8,235.0 651.9,223.4 652.9,216.6 653.9,230.6 655.0,231.6 656.0,219.9 657.0,223.3 658.1,214.8 659.1,231.3 660.1,230.2 661.2,231.4 662.2,236.4 663.2,240.4 664.3,229.4 665.3,228.0 666.4,218.7 667.4,227.7 668.4,227.9 669.5,204.0 670.5,220.5 671.5,215.5 672.6,226.7 673.6,224.4 674.6,225.1 675.7,232.1 676.7,231.5 677.8,223.4 678.8,229.2 679.8,236.3 680.9,223.7 681.9,237.1 682.9,225.0 684.0,231.4 685.0,236.4 686.0,236.3 687.1,233.4 688.1,237.6 689.1,212.1 690.2,228.0 691.2,233.2 692.2,222.8 693.3,223.2 694.3,222.2 695.4,222.3 696.4,215.1 697.4,223.4 698.5,172.5 699.5,210.3 700.5,223.3 701.6,214.0 702.6,217.9 703.6,231.6 704.7,215.8 705.7,214.9 706.8,232.2 707.8,222.0 708.8,227.8 709.9,223.3 710.9,223.3 711.9,230.1 713.0,220.4 714.0,211.4 715.0,208.2 716.1,232.6 717.1,223.1 718.1,224.4 719.2,218.9 720.2,223.2 721.2,211.8 722.3,228.8 723.3,223.6 724.4,223.3 725.4,233.2 726.4,229.9 727.5,223.3 728.5,236.3 729.5,223.7 730.6,223.4 731.6,236.8 732.6,214.9 733.7,230.2 734.7,227.6 735.8,234.1 736.8,223.7 737.8,225.3 738.9,222.3 739.9,223.4 740.9,224.5 742.0,223.4 743.0,218.4 744.0,208.6 745.1,195.0 746.1,224.5 747.1,212.1 748.2,229.2 749.2,223.3 750.2,223.4 751.3,199.9 752.3,208.3 753.4,223.4 754.4,217.7 755.4,220.4 756.5,223.4 757.5,189.0 758.5,215.4 759.6,223.4 760.6,230.2 761.6,224.4 762.7,233.2 763.7,219.1 764.8,216.6 765.8,233.2 766.8,198.6 767.9,223.3 768.9,223.6 769.9,216.6 771.0,223.3 772.0,223.4 773.0,223.4 774.1,221.2 775.1,215.8 776.1,200.2 777.2,183.2 778.2,223.4 779.2,223.7 780.3,200.5 781.3,227.0 782.4,226.5 783.4,241.1 784.4,239.9 785.5,237.3 786.5,236.6 787.5,192.0 788.6,244.7 789.6,208.6 790.6,233.3 791.7,241.0 792.7,240.2 793.8,223.5 794.8,174.1 795.8,223.3 796.9,194.8 797.9,229.1 798.9,236.2 800.0,241.0 801.0,220.4 802.0,228.2 803.1,256.0 804.1,170.2 805.1,200.3 806.2,256.2 807.2,223.4 808.2,226.2 809.3,223.3 810.3,236.7 811.4,223.3 812.4,230.2 813.4,216.6 814.5,181.2 815.5,223.4 816.5,204.6 817.6,210.1 818.6,208.6 819.6,200.0 820.7,223.8 821.7,227.4 822.8,243.2 823.8,213.2 824.8,240.6 825.9,224.6 826.9,231.9 827.9,230.1 829.0,241.0 830.0,229.3 831.0,237.6 832.1,247.8 833.1,245.3 834.1,252.0 835.2,236.3 836.2,238.6 837.2,240.9 838.3,199.5 839.3,194.9 840.4,224.5 841.4,218.0 842.4,223.5 843.5,216.6 844.5,216.7 845.5,233.2 846.6,236.3 847.6,237.1 848.6,245.8 849.7,238.2 850.7,237.1 851.8,230.8 852.8,207.1 853.8,236.3 854.9,233.2 855.9,240.9 856.9,213.1 858.0,223.4 859.0,236.4 860.0,227.7 861.1,224.6 862.1,230.2 863.1,214.8 864.2,222.2 865.2,216.8 866.2,223.3 867.3,229.9 868.3,224.9 869.4,227.8 870.4,257.6 871.4,230.2 872.5,236.7 873.5,235.8 874.5,223.4 875.6,231.8 876.6,223.4 877.6,223.3 878.7,211.7 879.7,242.1 880.8,225.6 881.8,200.2 882.8,220.4 883.9,223.3 884.9,223.4 885.9,214.7 887.0,233.5 888.0,223.3 889.0,238.6 890.1,223.3 891.1,241.1 892.1,240.4 893.2,223.4 894.2,225.0 895.2,198.4 896.3,237.3 897.3,299.1 898.4,332.3 899.4,333.7 900.4,330.9 901.5,331.5 902.5,256.7 903.5,327.6 904.6,327.7 905.6,331.7 906.6,333.7 907.7,332.3 908.7,331.6 909.8,322.4 910.8,331.5 911.8,332.9 912.9,331.0 913.9,328.4 914.9,333.2 916.0,329.7 917.0,329.7 918.0,329.6 919.1,330.4 920.1,331.5 921.1,327.6 922.2,331.5 923.2,329.1 924.2,327.7 925.3,330.3 926.3,328.4 927.4,331.3 928.4,335.3 929.4,331.5 930.5,330.0 931.5,331.5 932.5,330.0 933.6,331.6 934.6,327.6 935.6,329.0 936.7,330.0 937.7,328.8 938.8,326.0 939.8,327.7 940.8,327.5 941.9,329.2 942.9,328.1 943.9,327.6 945.0,329.0 946.0,331.5" fill="none" stroke="#d97706" stroke-width="2.2" stroke-linejoin="round" stroke-linecap="round"/>
<line x1="76" y1="70" x2="94" y2="70" stroke="#2563eb" stroke-width="3"/>
<text x="100" y="74" font-family="Arial, sans-serif" font-size="11" fill="#0f172a">avg fee</text>
<line x1="179" y1="70" x2="197" y2="70" stroke="#059669" stroke-width="3"/>
<text x="203" y="74" font-family="Arial, sans-serif" font-size="11" fill="#0f172a">median fee</text>
<line x1="303" y1="70" x2="321" y2="70" stroke="#d97706" stroke-width="3"/>
<text x="327" y="74" font-family="Arial, sans-serif" font-size="11" fill="#0f172a">p90 fee</text>
<text x="28" y="404" font-family="Arial, sans-serif" font-size="11" fill="#64748b">Source: hourly_features.csv</text>
</svg>