<svg xmlns="http://www.w3.org/2000/svg" width="980" height="420" viewBox="0 0 980 420">
<rect width="100%" height="100%" fill="#ffffff"/>
<text x="28" y="34" font-family="Arial, sans-serif" font-size="20" font-weight="700" fill="#0f172a">Hourly fee trend</text>
<text x="28" y="56" font-family="Arial, sans-serif" font-size="12" fill="#64748b">Average, median, and p90 total fee by hour</text>
<line x1="76" y1="362.0" x2="946" y2="362.0" stroke="#e2e8f0" stroke-width="1"/>
<text x="68" y="366.0" font-family="Arial, sans-serif" font-size="10" text-anchor="end" fill="#64748b">-311K</text>
<line x1="76" y1="292.0" x2="946" y2="292.0" stroke="#e2e8f0" stroke-width="1"/>
<text x="68" y="296.0" font-family="Arial, sans-serif" font-size="10" text-anchor="end" fill="#64748b">2.7M</text>
<line x1="76" y1="222.0" x2="946" y2="222.0" stroke="#e2e8f0" stroke-width="1"/>
<text x="68" y="226.0" font-family="Arial, sans-serif" font-size="10" text-anchor="end" fill="#64748b">5.7M</text>
<line x1="76" y1="152.0" x2="946" y2="152.0" stroke="#e2e8f0" stroke-width="1"/>
<text x="68" y="156.0" font-family="Arial, sans-serif" font-size="10" text-anchor="end" fill="#64748b">8.7M</text>
<line x1="76" y1="82.0" x2="946" y2="82.0" stroke="#e2e8f0" stroke-width="1"/>
<text x="68" y="86.0" font-family="Arial, sans-serif" font-size="10" text-anchor="end" fill="#64748b">11.7M</text>
<line x1="76" y1="362" x2="946" y2="362" stroke="#334155" stroke-width="1"/>
<line x1="76" y1="82" x2="76" y2="362" stroke="#334155" stroke-width="1"/>
<text x="76" y="72" font-family="Arial, sans-serif" font-size="11" fill="#64748b">nanoton</text>
<line x1="76.0" y1="362" x2="76.0" y2="366" stroke="#334155" stroke-width="1"/>
<text x="76.0" y="380" font-family="Arial, sans-serif" font-size="10" text-anchor="middle" fill="#64748b">0</text>
<line x1="511.5" y1="362" x2="511.5" y2="366" stroke="#334155" stroke-width="1"/>
<text x="511.5" y="380" font-family="Arial, sans-serif" font-size="10" text-anchor="middle" fill="#64748b">404</text>
<line x1="946.0" y1="362" x2="946.0" y2="366" stroke="#334155" stroke-width="1"/>
<text x="946.0" y="380" font-family="Arial, sans-serif" font-size="10" text-anchor="middle" fill="#64748b">807</text>
<polyline points="76.0,292.0 77.1,295.8 78.2,297.2 79.2,299.3 80.3,306.1 81.4,298.4 82.5,299.4 83.5,295.8 84.6,300.2 85.7,300.0 86.8,288.9 87.9,300.8 88.9,300.9 90.0,298.6 91.1,301.5 92.2,301.7 93.2,293.7 94.3,293.7 95.4,302.6 96.5,292.3 97.6,290.4 98.6,288.5 99.7,295.1 100.8,295.4 101.9,297.3 103.0,293.3 104.0,298.9 105.1,291.8 106.2,294.5 107.3,289.5 108.3,290.2 109.4,274.2 110.5,285.8 111.6,286.5 112.7,295.8 113.7,301.2 114.8,294.1 115.9,296.1 117.0,305.9 118.0,308.8 119.1,303.4 120.2,298.2 121.3,299.9 122.4,299.2 123.4,305.7 124.5,298.6 125.6,295.7 126.7,297.7 127.7,299.9 128.8,304.4 129.9,304.4 131.0,303.2 132.1,301.6 133.1,304.6 134.2,303.5 135.3,300.7 136.4,300.4 137.4,304.1 138.5,300.4 139.6,302.6 140.7,308.1 141.8,310.0 142.8,307.7 143.9,308.4 145.0,310.4 146.1,307.2 147.2,306.8 148.2,303.3 149.3,309.8 150.4,291.9 151.5,307.7 152.5,307.7 153.6,307.6 154.7,312.6 155.8,308.4 156.9,311.6 157.9,310.4 159.0,306.8 160.1,306.7 161.2,304.5 162.2,304.7 163.3,302.6 164.4,306.4 165.5,308.7 166.6,308.2 167.6,309.4 168.7,306.3 169.8,304.2 170.9,304.0 171.9,299.8 173.0,306.2 174.1,298.3 175.2,300.5 176.3,301.6 177.3,305.2 178.4,312.9 179.5,301.4 180.6,301.8 181.7,310.2 182.7,308.8 183.8,301.5 184.9,305.5 186.0,306.4 187.0,303.9 188.1,301.7 189.2,298.7 190.3,299.9 191.4,303.2 192.4,309.4 193.5,308.7 194.6,308.7 195.7,304.4 196.7,303.2 197.8,305.4 198.9,305.2 200.0,305.3 201.1,309.6 202.1,310.2 203.2,308.6 204.3,302.3 205.4,288.0 206.4,302.9 207.5,300.0 208.6,297.3 209.7,300.8 210.8,306.8 211.8,302.8 212.9,306.2 214.0,303.4 215.1,306.2 216.1,308.1 217.2,306.2 218.3,302.0 219.4,306.1 220.5,309.3 221.5,303.7 222.6,303.0 223.7,304.4 224.8,304.6 225.9,300.2 226.9,299.7 228.0,299.2 229.1,290.6 230.2,298.1 231.2,297.6 232.3,296.7 233.4,300.9 234.5,300.3 235.6,305.9 236.6,305.3 237.7,305.1 238.8,300.4 239.9,302.5 240.9,307.0 242.0,305.8 243.1,313.4 244.2,307.0 245.3,305.6 246.3,308.3 247.4,308.2 248.5,303.2 249.6,305.1 250.6,302.0 251.7,302.9 252.8,301.5 253.9,300.0 255.0,291.8 256.0,297.3 257.1,301.8 258.2,297.8 259.3,304.0 260.3,303.8 261.4,304.3 262.5,303.9 263.6,304.1 264.7,305.0 265.7,301.4 266.8,306.9 267.9,304.2 269.0,300.5 270.1,304.1 271.1,308.0 272.2,307.4 273.3,308.0 274.4,299.7 275.4,302.9 276.5,299.1 277.6,305.1 278.7,301.5 279.8,300.7 280.8,296.9 281.9,299.4 283.0,299.6 284.1,295.0 285.1,301.2 286.2,299.1 287.3,299.9 288.4,295.4 289.5,299.1 290.5,279.1 291.6,285.4 292.7,296.4 293.8,297.0 294.8,295.6 295.9,302.0 297.0,305.5 298.1,303.7 299.2,303.4 300.2,299.1 301.3,296.5 302.4,297.8 303.5,292.6 304.6,293.2 305.6,291.8 306.7,291.2 307.8,300.9 308.9,293.2 309.9,298.0 311.0,301.0 312.1,305.0 313.2,303.7 314.3,303.3 315.3,303.5 316.4,302.1 317.5,304.8 318.6,297.1 319.6,299.0 320.7,305.7 321.8,305.5 322.9,300.8 324.0,305.2 325.0,304.7 326.1,300.2 327.2,289.9 328.3,294.9 329.3,295.4 330.4,304.9 331.5,296.8 332.6,298.2 333.7,306.9 334.7,296.1 335.8,301.7 336.9,306.4 338.0,309.8 339.0,306.7 340.1,305.3 341.2,301.9 342.3,305.1 343.4,300.5 344.4,304.3 345.5,306.3 346.6,304.3 347.7,300.6 348.8,295.6 349.8,301.2 350.9,287.4 352.0,303.4 353.1,295.1 354.1,299.2 355.2,300.7 356.3,298.7 357.4,295.7 358.5,311.7 359.5,292.8 360.6,296.8 361.7,282.8 362.8,295.8 363.8,294.5 364.9,296.2 366.0,292.2 367.1,302.3 368.2,281.0 369.2,298.5 370.3,293.1 371.4,292.7 372.5,284.4 373.5,299.5 374.6,301.6 375.7,299.9 376.8,289.6 377.9,300.3 378.9,305.6 380.0,299.0 381.1,296.8 382.2,280.9 383.2,285.3 384.3,301.8 385.4,301.1 386.5,299.3 387.6,294.6 388.6,304.4 389.7,304.3 390.8,299.9 391.9,298.0 393.0,298.6 394.0,302.6 395.1,299.4 396.2,312.8 397.3,300.7 398.3,304.8 399.4,302.4 400.5,304.2 401.6,305.5 402.7,299.1 403.7,295.6 404.8,300.5 405.9,296.3 407.0,303.1 408.0,293.8 409.1,298.8 410.2,295.1 411.3,291.2 412.4,296.3 413.4,305.8 414.5,292.3 415.6,301.6 416.7,297.1 417.7,294.3 418.8,292.8 419.9,298.1 421.0,298.4 422.1,299.1 423.1,300.8 424.2,294.1 425.3,287.4 426.4,291.3 427.4,301.2 428.5,295.7 429.6,302.2 430.7,304.3 431.8,300.4 432.8,303.8 433.9,296.4 435.0,298.3 436.1,304.0 437.2,302.9 438.2,304.2 439.3,310.0 440.4,308.1 441.5,307.4 442.5,307.8 443.6,305.6 444.7,305.7 445.8,299.6 446.9,302.4 447.9,304.4 449.0,304.6 450.1,305.5 451.2,303.6 452.2,300.6 453.3,305.8 454.4,308.4 455.5,298.5 456.6,300.2 457.6,299.3 458.7,300.9 459.8,299.1 460.9,302.3 461.9,288.4 463.0,295.5 464.1,296.0 465.2,299.9 466.3,292.5 467.3,299.6 468.4,295.8 469.5,300.0 470.6,305.5 471.7,283.3 472.7,291.0 473.8,300.1 474.9,296.4 476.0,294.6 477.0,295.9 478.1,305.6 479.2,298.1 480.3,303.0 481.4,298.0 482.4,296.8 483.5,294.1 484.6,292.9 485.7,287.9 486.7,288.9 487.8,295.4 488.9,293.8 490.0,298.7 491.1,304.4 492.1,298.0 493.2,305.4 494.3,299.9 495.4,299.0 496.4,300.6 497.5,298.4 498.6,297.8 499.7,306.8 500.8,303.2 501.8,305.8 502.9,304.2 504.0,304.7 505.1,304.0 506.1,305.8 507.2,303.0 508.3,301.3 509.4,298.5 510.5,296.2 511.5,306.3 512.6,304.0 513.7,305.0 514.8,304.1 515.9,299.7 516.9,258.0 518.0,292.2 519.1,299.7 520.2,297.5 521.2,302.3 522.3,302.9 523.4,301.1 524.5,300.6 525.6,300.9 526.6,297.2 527.7,300.7 528.8,306.9 529.9,307.8 530.9,302.1 532.0,304.0 533.1,296.3 534.2,303.5 535.3,298.1 536.3,306.1 537.4,300.3 538.5,296.8 539.6,296.4 540.6,302.2 541.7,302.2 542.8,301.9 543.9,305.8 545.0,293.8 546.0,304.8 547.1,307.3 548.2,296.7 549.3,298.7 550.3,304.1 551.4,297.1 552.5,300.7 553.6,305.2 554.7,303.0 555.7,305.1 556.8,302.0 557.9,307.4 559.0,306.9 560.1,302.1 561.1,304.5 562.2,298.3 563.3,301.4 564.4,293.5 565.4,293.2 566.5,293.3 567.6,300.5 568.7,299.7 569.8,300.1 570.8,302.8 571.9,300.9 573.0,306.6 574.1,301.5 575.1,301.8 576.2,306.0 577.3,300.4 578.4,305.7 579.5,300.9 580.5,307.7 581.6,300.4 582.7,305.7 583.8,304.6 584.8,299.3 585.9,264.7 587.0,304.2 588.1,305.8 589.2,302.6 590.2,302.1 591.3,299.5 592.4,301.2 593.5,304.0 594.6,299.9 595.6,305.3 596.7,304.0 597.8,304.3 598.9,302.4 599.9,309.7 601.0,305.7 602.1,310.4 603.2,305.8 604.3,305.0 605.3,306.2 606.4,304.9 607.5,306.6 608.6,300.8 609.6,306.5 610.7,298.3 611.8,303.5 612.9,289.3 614.0,295.8 615.0,301.0 616.1,288.5 617.2,300.3 618.3,299.7 619.3,298.1 620.4,302.4 621.5,300.8 622.6,303.9 623.7,300.5 624.7,304.3 625.8,299.2 626.9,302.9 628.0,306.6 629.0,305.8 630.1,291.6 631.2,304.4 632.3,300.9 633.4,303.6 634.4,304.4 635.5,305.9 636.6,297.5 637.7,302.9 638.8,294.1 639.8,299.5 640.9,296.0 642.0,294.7 643.1,300.6 644.1,298.7 645.2,301.7 646.3,296.9 647.4,302.8 648.5,283.8 649.5,298.6 650.6,292.4 651.7,302.1 652.8,282.5 653.8,304.9 654.9,293.3 656.0,297.7 657.1,302.2 658.2,295.1 659.2,296.5 660.3,306.5 661.4,305.9 662.5,301.6 663.5,303.2 664.6,298.8 665.7,296.2 666.8,297.8 667.9,293.9 668.9,299.9 670.0,292.3 671.1,291.1 672.2,294.0 673.2,303.9 674.3,304.7 675.4,302.9 676.5,298.8 677.6,304.3 678.6,303.8 679.7,300.6 680.8,301.2 681.9,296.9 683.0,301.9 684.0,303.8 685.1,303.5 686.2,302.0 687.3,306.7 688.3,306.4 689.4,302.3 690.5,295.5 691.6,302.3 692.7,300.2 693.7,291.6 694.8,297.1 695.9,295.3 697.0,302.6 698.0,299.4 699.1,300.4 700.2,303.9 701.3,302.2 702.4,300.4 703.4,303.9 704.5,304.9 705.6,300.8 706.7,305.7 707.7,299.4 708.8,303.9 709.9,306.2 711.0,304.6 712.1,305.1 713.1,307.0 714.2,295.8 715.3,308.0 716.4,305.0 717.4,296.4 718.5,295.3 719.6,294.9 720.7,297.1 721.8,297.2 722.8,299.4 723.9,285.9 725.0,296.1 726.1,299.8 727.2,297.5 728.2,295.4 729.3,301.9 730.4,295.5 731.5,297.2 732.5,305.1 733.6,297.0 734.7,303.8 735.8,298.9 736.9,301.3 737.9,302.0 739.0,299.6 740.1,296.0 741.2,297.1 742.2,304.3 743.3,296.8 744.4,297.2 745.5,296.4 746.6,296.6 747.6,296.2 748.7,301.2 749.8,300.2 750.9,297.1 751.9,304.6 753.0,304.2 754.1,299.4 755.2,306.8 756.3,302.1 757.3,301.7 758.4,306.5 759.5,297.1 760.6,303.1 761.7,304.5 762.7,305.9 763.8,300.4 764.9,302.2 766.0,299.2 767.0,300.0 768.1,298.5 769.2,302.1 770.3,297.2 771.4,294.2 772.4,285.4 773.5,300.0 774.6,295.1 775.7,300.2 776.7,300.1 777.8,299.2 778.9,292.2 780.0,293.5 781.1,299.5 782.1,298.7 783.2,298.8 784.3,299.8 785.4,289.4 786.4,297.7 787.5,298.6 788.6,303.0 789.7,302.2 790.8,306.7 791.8,297.0 792.9,296.3 794.0,301.1 795.1,290.8 796.1,298.0 797.2,296.4 798.3,296.4 799.4,296.0 800.5,298.7 801.5,300.8 802.6,297.0 803.7,298.2 804.8,293.0 805.9,286.3 806.9,301.0 808.0,302.3 809.1,294.8 810.2,303.6 811.2,298.8 812.3,309.0 813.4,293.8 814.5,306.2 815.6,305.4 816.6,293.2 817.7,306.4 818.8,299.0 819.9,299.4 820.9,308.7 822.0,306.7 823.1,295.2 824.2,285.7 825.3,296.9 826.3,282.7 827.4,297.0 828.5,308.4 829.6,304.8 830.6,300.5 831.7,302.8 832.8,310.3 833.9,289.0 835.0,294.6 836.0,315.6 837.1,302.1 838.2,305.5 839.3,300.4 840.3,306.7 841.4,298.7 842.5,304.7 843.6,298.5 844.7,287.4 845.7,296.8 846.8,294.6 847.9,296.5 849.0,293.8 850.1,296.3 851.1,298.7 852.2,304.4 853.3,309.1 854.4,296.4 855.4,307.9 856.5,306.3 857.6,306.7 858.7,304.4 859.8,298.6 860.8,294.8 861.9,306.3 863.0,311.7 864.1,307.9 865.1,310.7 866.2,305.3 867.3,309.1 868.4,309.5 869.5,300.3 870.5,289.4 871.6,298.3 872.7,299.3 873.8,299.8 874.8,300.0 875.9,296.4 877.0,307.1 878.1,309.1 879.2,305.7 880.2,310.6 881.3,308.0 882.4,304.5 883.5,304.8 884.6,297.7 885.6,305.4 886.7,306.8 887.8,309.5 888.9,293.1 889.9,303.1 891.0,306.6 892.1,303.5 893.2,302.1 894.3,304.0 895.3,296.2 896.4,296.3 897.5,296.5 898.6,300.4 899.6,300.3 900.7,302.2 901.8,305.8 902.9,308.6 904.0,304.4 905.0,302.1 906.1,304.3 907.2,292.1 908.3,302.4 909.3,303.2 910.4,303.3 911.5,296.9 912.6,307.9 913.7,305.4 914.7,290.0 915.8,298.7 916.9,296.5 918.0,296.9 919.0,297.3 920.1,307.6 921.2,301.5 922.3,306.2 923.4,296.9 924.4,304.9 925.5,306.4 926.6,303.9 927.7,302.9 928.8,286.4 929.8,305.6 930.9,336.2 932.0,345.2 933.1,345.3 934.1,345.0 935.2,345.5 936.3,320.4 937.4,343.8 938.5,344.7 939.5,344.1 940.6,344.9 941.7,344.9 942.8,344.9 943.8,340.4 944.9,345.0 946.0,345.3" fill="none" stroke="#2563eb" stroke-width="2.2" stroke-linejoin="round" stroke-linecap="round"/>
<polyline points="76.0,312.8 77.1,326.4 78.2,335.5 79.2,336.0 80.3,336.5 81.4,336.1 82.5,335.8 83.5,332.2 84.6,336.1 85.7,336.1 86.8,321.8 87.9,336.1 88.9,335.6 90.0,332.2 91.1,335.9 92.2,335.3 93.2,322.5 94.3,331.9 95.4,333.8 96.5,311.9 97.6,304.2 98.6,307.2 99.7,321.9 100.8,316.8 101.9,311.8 103.0,331.3 104.0,334.9 105.1,313.8 106.2,336.5 107.3,320.4 108.3,331.9 109.4,285.0 110.5,301.6 111.6,304.6 112.7,309.6 113.7,332.8 114.8,313.8 115.9,311.9 117.0,336.3 118.0,336.5 119.1,331.2 120.2,311.9 121.3,311.9 122.4,313.8 123.4,342.3 124.5,336.4 125.6,310.2 126.7,311.6 127.7,336.4 128.8,336.8 129.9,335.6 131.0,334.9 132.1,335.4 133.1,336.0 134.2,332.9 135.3,336.0 136.4,332.3 137.4,335.7 138.5,336.1 139.6,335.6 140.7,336.5 141.8,336.3 142.8,336.4 143.9,345.5 145.0,337.2 146.1,336.4 147.2,336.4 148.2,332.2 149.3,345.5 150.4,337.1 151.5,337.7 152.5,337.7 153.6,336.5 154.7,339.6 155.8,337.6 156.9,337.6 157.9,336.6 159.0,336.5 160.1,336.5 161.2,336.0 162.2,336.5 163.3,336.1 164.4,336.0 165.5,336.5 166.6,336.5 167.6,336.5 168.7,335.8 169.8,336.4 170.9,336.3 171.9,332.2 173.0,336.2 174.1,313.5 175.2,331.1 176.3,332.5 177.3,335.3 178.4,345.5 179.5,332.0 180.6,335.3 181.7,336.5 182.7,337.7 183.8,336.1 184.9,336.2 186.0,336.3 187.0,336.0 188.1,332.4 189.2,331.9 190.3,333.0 191.4,334.5 192.4,336.4 193.5,336.4 194.6,336.4 195.7,335.5 196.7,336.3 197.8,336.4 198.9,333.0 200.0,333.8 201.1,337.7 202.1,345.5 203.2,337.6 204.3,336.5 205.4,311.4 206.4,336.4 207.5,335.9 208.6,336.1 209.7,335.3 210.8,336.4 211.8,335.5 212.9,336.4 214.0,336.3 215.1,336.4 216.1,336.5 217.2,336.2 218.3,334.6 219.4,336.4 220.5,336.5 221.5,336.5 222.6,335.6 223.7,335.7 224.8,331.7 225.9,311.9 226.9,300.0 228.0,311.1 229.1,305.7 230.2,311.5 231.2,311.5 232.3,329.1 233.4,334.4 234.5,335.3 235.6,335.3 236.6,336.4 237.7,336.4 238.8,335.3 239.9,336.2 240.9,336.1 242.0,336.1 243.1,345.5 244.2,336.4 245.3,336.3 246.3,336.5 247.4,336.4 248.5,335.3 249.6,335.9 250.6,332.4 251.7,321.1 252.8,300.0 253.9,335.5 255.0,328.3 256.0,336.1 257.1,333.2 258.2,333.2 259.3,332.8 260.3,336.2 261.4,335.9 262.5,336.1 263.6,336.1 264.7,332.2 265.7,332.2 266.8,336.4 267.9,335.8 269.0,332.4 270.1,336.0 271.1,336.5 272.2,336.0 273.3,336.4 274.4,331.9 275.4,335.8 276.5,316.9 277.6,336.1 278.7,300.0 279.8,335.5 280.8,331.1 281.9,334.0 283.0,333.3 284.1,311.9 285.1,333.2 286.2,333.7 287.3,336.0 288.4,325.2 289.5,335.4 290.5,297.0 291.6,299.9 292.7,328.5 293.8,332.6 294.8,332.2 295.9,333.7 297.0,336.1 298.1,336.1 299.2,335.5 300.2,326.2 301.3,316.4 302.4,309.9 303.5,306.7 304.6,300.0 305.6,307.8 306.7,306.7 307.8,333.2 308.9,306.8 309.9,318.4 311.0,334.9 312.1,336.5 313.2,335.6 314.3,336.4 315.3,336.4 316.4,335.2 317.5,336.5 318.6,321.1 319.6,321.1 320.7,335.5 321.8,335.3 322.9,334.9 324.0,336.1 325.0,336.0 326.1,332.7 327.2,306.7 328.3,309.6 329.3,309.6 330.4,300.0 331.5,311.5 332.6,336.9 333.7,337.7 334.7,313.8 335.8,336.0 336.9,337.6 338.0,337.4 339.0,337.7 340.1,336.5 341.2,335.3 342.3,335.7 343.4,335.9 344.4,335.0 345.5,336.1 346.6,335.9 347.7,331.0 348.8,310.3 349.8,335.5 350.9,309.5 352.0,335.8 353.1,312.0 354.1,311.6 355.2,326.5 356.3,306.8 357.4,321.1 358.5,345.5 359.5,316.9 360.6,335.6 361.7,309.6 362.8,311.2 363.8,331.5 364.9,335.5 366.0,336.5 367.1,334.7 368.2,325.2 369.2,335.3 370.3,309.5 371.4,307.4 372.5,325.2 373.5,316.9 374.6,334.9 375.7,334.0 376.8,304.5 377.9,335.5 378.9,336.1 380.0,327.9 381.1,335.3 382.2,322.2 383.2,335.1 384.3,335.2 385.4,335.5 386.5,332.2 387.6,333.2 388.6,335.2 389.7,336.1 390.8,335.3 391.9,334.5 393.0,311.9 394.0,336.2 395.1,332.2 396.2,347.4 397.3,335.3 398.3,336.2 399.4,335.2 400.5,336.2 401.6,336.1 402.7,311.9 403.7,316.7 404.8,333.5 405.9,311.8 407.0,333.2 408.0,306.6 409.1,331.9 410.2,328.3 411.3,303.5 412.4,311.0 413.4,337.3 414.5,334.9 415.6,336.4 416.7,335.9 417.7,307.8 418.8,307.8 419.9,319.6 421.0,321.5 422.1,325.0 423.1,333.2 424.2,311.9 425.3,306.7 426.4,309.5 427.4,333.2 428.5,306.5 429.6,331.9 430.7,335.5 431.8,328.2 432.8,332.2 433.9,306.7 435.0,309.5 436.1,335.3 437.2,335.5 438.2,336.5 439.3,342.3 440.4,337.6 441.5,337.5 442.5,336.5 443.6,337.7 444.7,337.2 445.8,335.3 446.9,335.9 447.9,336.4 449.0,336.3 450.1,336.4 451.2,336.1 452.2,333.3 453.3,335.9 454.4,336.5 455.5,330.6 456.6,332.2 457.6,327.2 458.7,326.7 459.8,309.5 460.9,335.0 461.9,309.7 463.0,311.6 464.1,331.9 465.2,321.0 466.3,309.6 467.3,336.0 468.4,320.1 469.5,337.3 470.6,336.5 471.7,298.8 472.7,306.6 473.8,326.7 474.9,327.1 476.0,320.3 477.0,311.6 478.1,336.4 479.2,322.7 480.3,335.6 481.4,333.0 482.4,331.2 483.5,310.9 484.6,309.7 485.7,300.0 486.7,303.9 487.8,306.8 488.9,310.3 490.0,333.2 491.1,335.5 492.1,331.0 493.2,336.1 494.3,335.3 495.4,336.5 496.4,335.5 497.5,335.5 498.6,326.7 499.7,336.4 500.8,336.0 501.8,336.1 502.9,336.2 504.0,336.2 505.1,336.1 506.1,336.0 507.2,335.5 508.3,328.3 509.4,328.1 510.5,306.7 511.5,344.5 512.6,336.8 513.7,345.5 514.8,336.5 515.9,330.5 516.9,302.3 518.0,335.7 519.1,335.6 520.2,317.0 521.2,336.5 522.3,335.6 523.4,336.1 524.5,335.0 525.6,331.9 526.6,331.9 527.7,335.3 528.8,336.5 529.9,336.4 530.9,334.6 532.0,335.8 533.1,311.8 534.2,333.5 535.3,311.4 536.3,334.2 537.4,306.7 538.5,311.1 539.6,311.9 540.6,331.5 541.7,335.3 542.8,333.9 543.9,336.8 545.0,319.7 546.0,336.1 547.1,337.7 548.2,332.8 549.3,327.2 550.3,336.1 551.4,332.7 552.5,333.2 553.6,336.2 554.7,335.9 555.7,335.3 556.8,332.2 557.9,336.4 559.0,336.3 560.1,333.2 561.1,334.7 562.2,312.0 563.3,331.9 564.4,309.5 565.4,309.7 566.5,306.7 567.6,331.9 568.7,328.3 569.8,331.8 570.8,336.3 571.9,332.9 573.0,336.5 574.1,336.1 575.1,335.5 576.2,336.4 577.3,336.1 578.4,336.4 579.5,335.3 580.5,336.5 581.6,334.7 582.7,336.1 583.8,336.4 584.8,334.2 585.9,284.8 587.0,335.3 588.1,336.5 589.2,320.7 590.2,332.6 591.3,331.2 592.4,333.3 593.5,335.5 594.6,336.1 595.6,336.4 596.7,336.2 597.8,336.0 598.9,336.2 599.9,336.5 601.0,336.4 602.1,336.5 603.2,336.4 604.3,336.1 605.3,336.4 606.4,336.5 607.5,336.1 608.6,335.5 609.6,337.2 610.7,335.5 611.8,335.8 612.9,306.6 614.0,321.0 615.0,310.6 616.1,302.0 617.2,311.7 618.3,332.0 619.3,311.9 620.4,331.9 621.5,334.5 622.6,336.2 623.7,335.3 624.7,335.5 625.8,332.4 626.9,336.1 628.0,336.4 629.0,336.4 630.1,306.7 631.2,335.9 632.3,332.4 633.4,336.5 634.4,335.3 635.5,336.5 636.6,335.3 637.7,336.4 638.8,311.9 639.8,335.8 640.9,307.7 642.0,309.7 643.1,335.3 644.1,332.4 645.2,335.5 646.3,331.2 647.4,335.8 648.5,306.6 649.5,332.2 650.6,330.3 651.7,335.3 652.8,297.0 653.8,336.1 654.9,311.9 656.0,311.9 657.1,335.3 658.2,319.7 659.2,319.8 660.3,335.6 661.4,336.4 662.5,335.5 663.5,335.5 664.6,331.9 665.7,309.5 666.8,309.5 667.9,311.5 668.9,335.3 670.0,311.9 671.1,311.7 672.2,328.7 673.2,333.5 674.3,336.4 675.4,336.0 676.5,335.4 677.6,336.1 678.6,336.0 679.7,332.2 680.8,335.0 681.9,333.0 683.0,336.0 684.0,335.5 685.1,335.3 686.2,332.2 687.3,336.2 688.3,336.4 689.4,333.5 690.5,308.3 691.6,327.6 692.7,306.7 693.7,307.7 694.8,310.3 695.9,307.7 697.0,336.1 698.0,328.4 699.1,335.3 700.2,334.6 701.3,335.6 702.4,336.5 703.4,336.1 704.5,335.4 705.6,335.3 706.7,336.1 707.7,332.2 708.8,333.2 709.9,336.4 711.0,335.5 712.1,336.0 713.1,336.4 714.2,328.9 715.3,336.5 716.4,335.1 717.4,321.1 718.5,304.2 719.6,311.5 720.7,328.9 721.8,328.3 722.8,325.0 723.9,299.9 725.0,312.0 726.1,332.6 727.2,332.2 728.2,336.1 729.3,326.0 730.4,325.2 731.5,331.8 732.5,335.3 733.6,332.2 734.7,336.1 735.8,325.3 736.9,334.6 737.9,335.5 739.0,327.1 740.1,310.4 741.2,316.9 742.2,335.3 743.3,309.8 744.4,307.8 745.5,309.5 746.6,311.5 747.6,313.8 748.7,332.4 749.8,333.4 750.9,319.3 751.9,336.1 753.0,336.4 754.1,336.5 755.2,336.5 756.3,336.1 757.3,335.3 758.4,336.3 759.5,331.8 760.6,335.8 761.7,336.0 762.7,335.7 763.8,335.3 764.9,336.5 766.0,332.2 767.0,335.3 768.1,316.9 769.2,332.2 770.3,306.7 771.4,325.8 772.4,307.8 773.5,333.3 774.6,310.3 775.7,335.3 776.7,335.3 777.8,332.7 778.9,312.0 780.0,335.3 781.1,331.5 782.1,328.6 783.2,325.2 784.3,331.5 785.4,306.3 786.4,313.8 787.5,335.3 788.6,333.5 789.7,331.1 790.8,335.3 791.8,324.2 792.9,309.6 794.0,311.7 795.1,306.5 796.1,306.7 797.2,309.5 798.3,312.0 799.4,311.5 800.5,321.0 801.5,327.1 802.6,332.3 803.7,332.4 804.8,306.7 805.9,306.5 806.9,335.3 808.0,332.4 809.1,306.7 810.2,336.2 811.2,309.6 812.3,335.5 813.4,336.1 814.5,334.3 815.6,334.4 816.6,309.5 817.7,336.5 818.8,331.8 819.9,311.7 820.9,331.5 822.0,328.2 823.1,307.2 824.2,307.7 825.3,325.2 826.3,298.0 827.4,335.6 828.5,336.5 829.6,336.5 830.6,333.0 831.7,336.1 832.8,336.5 833.9,305.6 835.0,309.5 836.0,336.5 837.1,333.2 838.2,335.9 839.3,332.7 840.3,336.2 841.4,333.2 842.5,322.9 843.6,336.4 844.7,333.4 845.7,311.8 846.8,309.6 847.9,306.7 849.0,307.2 850.1,307.0 851.1,326.0 852.2,332.2 853.3,335.9 854.4,333.1 855.4,336.5 856.5,336.5 857.6,336.4 858.7,323.8 859.8,336.3 860.8,332.5 861.9,336.5 863.0,345.5 864.1,345.5 865.1,345.5 866.2,336.1 867.3,336.5 868.4,336.5 869.5,335.8 870.5,312.9 871.6,310.3 872.7,309.5 873.8,309.4 874.8,331.8 875.9,309.9 877.0,338.9 878.1,336.5 879.2,336.5 880.2,336.5 881.3,333.2 882.4,333.5 883.5,335.5 884.6,331.9 885.6,336.0 886.7,336.4 887.8,336.4 888.9,313.8 889.9,335.3 891.0,333.5 892.1,335.3 893.2,333.2 894.3,332.4 895.3,312.0 896.4,309.9 897.5,315.4 898.6,328.5 899.6,306.1 900.7,342.3 901.8,343.1 902.9,336.5 904.0,336.0 905.0,336.1 906.1,326.0 907.2,319.2 908.3,347.5 909.3,336.1 910.4,336.4 911.5,319.3 912.6,345.5 913.7,335.5 914.7,323.1 915.8,334.2 916.9,326.9 918.0,335.3 919.0,315.1 920.1,336.0 921.2,330.0 922.3,332.7 923.4,306.7 924.4,332.4 925.5,311.3 926.6,332.8 927.7,331.7 928.8,292.1 929.8,336.5 930.9,349.4 932.0,351.6 933.1,351.0 934.1,347.6 935.2,351.0 936.3,342.5 937.4,347.9 938.5,350.9 939.5,346.3 940.6,346.6 941.7,350.8 942.8,351.0 943.8,345.0 944.9,351.6 946.0,351.5" fill="none" stroke="#059669" stroke-width="2.2" stroke-linejoin="round" stroke-linecap="round"/>
<polyline points="76.0,209.6 77.1,217.4 78.2,224.1 79.2,229.2 80.3,237.2 81.4,229.1 82.5,224.0 83.5,217.7 84.6,224.2 85.7,224.1 86.8,200.5 87.9,224.2 88.9,225.4 90.0,224.1 91.1,227.0 92.2,228.4 93.2,212.2 94.3,217.4 95.4,236.9 96.5,217.3 97.6,216.5 98.6,200.5 99.7,221.1 100.8,223.9 101.9,224.2 103.0,221.2 104.0,224.0 105.1,213.9 106.2,217.4 107.3,200.7 108.3,200.5 109.4,160.9 110.5,170.6 111.6,170.6 112.7,210.3 113.7,216.6 114.8,210.3 115.9,208.9 117.0,234.1 118.0,241.9 119.1,231.0 120.2,224.0 121.3,224.6 122.4,224.2 123.4,228.4 124.5,221.1 125.6,214.4 126.7,222.3 127.7,214.9 128.8,237.2 129.9,234.7 131.0,229.6 132.1,230.3 133.1,231.0 134.2,224.2 135.3,224.2 136.4,225.2 137.4,228.6 138.5,232.2 139.6,224.2 140.7,237.2 141.8,241.3 142.8,234.4 143.9,245.5 145.0,240.3 146.1,241.3 147.2,239.8 148.2,237.2 149.3,252.7 150.4,207.0 151.5,237.5 152.5,238.5 153.6,235.5 154.7,249.6 155.8,243.5 156.9,247.2 157.9,242.0 159.0,233.1 160.1,234.1 161.2,229.1 162.2,224.3 163.3,230.5 164.4,234.2 165.5,247.1 166.6,239.5 167.6,241.9 168.7,232.2 169.8,231.0 170.9,231.2 171.9,217.4 173.0,239.9 174.1,224.2 175.2,232.7 176.3,232.2 177.3,243.8 178.4,249.9 179.5,224.2 180.6,228.7 181.7,243.3 182.7,238.0 183.8,230.6 184.9,235.7 186.0,237.3 187.0,234.1 188.1,224.2 189.2,224.2 190.3,231.0 191.4,234.1 192.4,242.7 193.5,238.5 194.6,247.2 195.7,231.2 196.7,231.3 197.8,238.0 198.9,237.3 200.0,237.5 201.1,242.2 202.1,241.3 203.2,241.3 204.3,234.1 205.4,200.9 206.4,224.1 207.5,224.2 208.6,217.4 209.7,230.4 210.8,234.1 211.8,232.3 212.9,234.1 214.0,231.6 215.1,237.2 216.1,237.2 217.2,234.1 218.3,231.0 219.4,239.6 220.5,239.7 221.5,238.5 222.6,228.8 223.7,227.7 224.8,237.8 225.9,227.4 226.9,233.1 228.0,232.2 229.1,207.7 230.2,224.2 231.2,224.1 232.3,224.1 233.4,225.8 234.5,224.2 235.6,237.2 236.6,237.2 237.7,232.7 238.8,231.0 239.9,236.4 240.9,237.2 242.0,237.6 243.1,252.5 244.2,234.1 245.3,234.1 246.3,242.0 247.4,241.9 248.5,234.1 249.6,233.0 250.6,226.4 251.7,224.2 252.8,242.0 253.9,224.2 255.0,200.4 256.0,232.4 257.1,234.1 258.2,224.2 259.3,229.5 260.3,234.1 261.4,237.2 262.5,234.1 263.6,233.5 264.7,234.6 265.7,224.2 266.8,239.2 267.9,234.7 269.0,224.2 270.1,233.4 271.1,239.5 272.2,241.4 273.3,248.9 274.4,224.9 275.4,224.1 276.5,225.3 277.6,235.6 278.7,247.9 279.8,228.6 280.8,224.0 281.9,224.2 283.0,226.0 284.1,223.4 285.1,230.3 286.2,224.2 287.3,229.0 288.4,212.7 289.5,224.0 290.5,160.9 291.6,171.6 292.7,200.7 293.8,211.1 294.8,202.2 295.9,224.2 297.0,233.2 298.1,228.7 299.2,227.5 300.2,217.6 301.3,217.4 302.4,224.2 303.5,200.7 304.6,227.8 305.6,200.5 306.7,200.5 307.8,224.2 308.9,211.1 309.9,217.8 311.0,225.2 312.1,224.2 313.2,225.3 314.3,224.9 315.3,227.4 316.4,224.2 317.5,234.1 318.6,209.6 319.6,222.4 320.7,234.1 321.8,233.0 322.9,224.1 324.0,229.1 325.0,231.0 326.1,224.1 327.2,203.3 328.3,221.2 329.3,224.0 330.4,258.5 331.5,220.5 332.6,215.1 333.7,240.9 334.7,216.0 335.8,229.1 336.9,234.3 338.0,242.0 339.0,241.6 340.1,234.1 341.2,234.1 342.3,228.2 343.4,224.2 344.4,241.3 345.5,232.4 346.6,231.7 347.7,219.1 348.8,211.5 349.8,228.8 350.9,182.8 352.0,231.9 353.1,215.5 354.1,222.9 355.2,224.2 356.3,228.4 357.4,215.5 358.5,241.6 359.5,215.8 360.6,222.3 361.7,200.4 362.8,197.8 363.8,196.0 364.9,217.4 366.0,211.3 367.1,224.2 368.2,170.7 369.2,221.2 370.3,205.8 371.4,206.4 372.5,200.5 373.5,222.5 374.6,228.8 375.7,224.2 376.8,169.3 377.9,224.0 378.9,232.4 380.0,224.0 381.1,224.2 382.2,176.8 383.2,201.0 384.3,227.0 385.4,232.4 386.5,224.2 387.6,210.5 388.6,234.1 389.7,233.5 390.8,225.2 391.9,224.2 393.0,221.2 394.0,231.0 395.1,224.1 396.2,252.7 397.3,232.0 398.3,232.2 399.4,231.0 400.5,233.9 401.6,234.0 402.7,225.3 403.7,224.0 404.8,224.1 405.9,224.1 407.0,224.1 408.0,215.6 409.1,224.1 410.2,215.5 411.3,214.1 412.4,224.1 413.4,234.0 414.5,215.6 415.6,224.1 416.7,219.8 417.7,210.3 418.8,201.0 419.9,215.9 421.0,224.1 422.1,215.9 423.1,233.4 424.2,224.1 425.3,206.4 426.4,207.8 427.4,224.1 428.5,224.2 429.6,224.1 430.7,234.1 431.8,224.2 432.8,235.6 433.9,224.0 435.0,223.8 436.1,224.2 437.2,224.7 438.2,232.0 439.3,249.0 440.4,234.1 441.5,236.5 442.5,240.3 443.6,234.1 444.7,230.5 445.8,216.3 446.9,232.6 447.9,234.0 449.0,234.1 450.1,234.0 451.2,229.1 452.2,226.1 453.3,232.0 454.4,241.5 455.5,221.2 456.6,224.1 457.6,224.1 458.7,229.3 459.8,227.1 460.9,227.4 461.9,210.8 463.0,214.0 464.1,221.2 465.2,227.3 466.3,214.7 467.3,224.1 468.4,216.4 469.5,225.0 470.6,234.1 471.7,170.6 472.7,200.5 473.8,224.1 474.9,201.1 476.0,213.1 477.0,215.4 478.1,233.9 479.2,222.4 480.3,229.1 481.4,224.1 482.4,216.5 483.5,213.2 484.6,200.6 485.7,193.0 486.7,195.4 487.8,209.6 488.9,200.7 490.0,215.9 491.1,228.8 492.1,214.1 493.2,234.1 494.3,223.9 495.4,223.4 496.4,224.2 497.5,219.7 498.6,224.0 499.7,241.3 500.8,227.1 501.8,232.3 502.9,234.1 504.0,227.5 505.1,234.1 506.1,237.2 507.2,241.3 508.3,224.3 509.4,225.0 510.5,224.2 511.5,234.1 512.6,228.6 513.7,224.2 514.8,232.5 515.9,227.4 516.9,92.4 518.0,215.9 519.1,224.1 520.2,214.6 521.2,232.4 522.3,231.0 523.4,224.2 524.5,224.2 525.6,224.1 526.6,221.1 527.7,224.0 528.8,234.1 529.9,239.3 530.9,234.1 532.0,232.6 533.1,214.6 534.2,224.2 535.3,224.1 536.3,238.9 537.4,233.2 538.5,217.9 539.6,213.3 540.6,231.0 541.7,227.6 542.8,231.4 543.9,234.3 545.0,201.0 546.0,234.1 547.1,234.1 548.2,217.4 549.3,221.2 550.3,228.9 551.4,221.1 552.5,220.6 553.6,227.7 554.7,232.8 555.7,233.9 556.8,224.1 557.9,238.6 559.0,241.2 560.1,225.8 561.1,237.5 562.2,224.1 563.3,228.7 564.4,212.7 565.4,215.6 566.5,215.6 567.6,224.1 568.7,224.1 569.8,217.8 570.8,235.1 571.9,224.9 573.0,232.3 574.1,224.2 575.1,224.2 576.2,237.5 577.3,217.7 578.4,234.4 579.5,225.3 580.5,237.5 581.6,224.1 582.7,232.6 583.8,232.3 584.8,224.0 585.9,169.3 587.0,224.1 588.1,225.3 589.2,225.4 590.2,227.5 591.3,224.2 592.4,224.1 593.5,240.6 594.6,224.2 595.6,231.0 596.7,224.2 597.8,229.2 598.9,227.5 599.9,239.5 601.0,232.9 602.1,237.5 603.2,237.2 604.3,233.1 605.3,237.2 606.4,234.5 607.5,241.3 608.6,224.2 609.6,242.0 610.7,213.5 611.8,225.9 612.9,206.4 614.0,214.5 615.0,224.2 616.1,202.6 617.2,224.1 618.3,223.9 619.3,224.2 620.4,232.3 621.5,224.2 622.6,237.2 623.7,224.1 624.7,227.8 625.8,223.2 626.9,224.2 628.0,235.5 629.0,236.7 630.1,201.0 631.2,231.3 632.3,231.0 633.4,236.2 634.4,231.0 635.5,232.9 636.6,217.4 637.7,233.5 638.8,213.5 639.8,231.0 640.9,223.7 642.0,220.4 643.1,225.8 644.1,224.2 645.2,224.2 646.3,220.5 647.4,230.1 648.5,196.6 649.5,220.9 650.6,212.7 651.7,232.4 652.8,170.6 653.8,231.0 654.9,200.5 656.0,220.7 657.1,217.4 658.2,210.7 659.2,216.5 660.3,240.4 661.4,232.4 662.5,224.0 663.5,228.7 664.6,224.1 665.7,210.7 666.8,224.1 667.9,207.8 668.9,224.1 670.0,200.7 671.1,200.5 672.2,202.5 673.2,224.2 674.3,235.8 675.4,224.2 676.5,217.4 677.6,231.5 678.6,232.4 679.7,220.6 680.8,224.1 681.9,215.6 683.0,232.1 684.0,231.0 685.1,232.3 686.2,237.2 687.3,241.3 688.3,230.3 689.4,228.8 690.5,219.5 691.6,228.5 692.7,228.7 693.7,204.7 694.8,221.2 695.9,216.3 697.0,227.5 698.0,225.2 699.1,225.9 700.2,232.9 701.3,232.4 702.4,224.2 703.4,230.1 704.5,237.2 705.6,224.5 706.7,238.0 707.7,225.8 708.8,232.2 709.9,237.2 711.0,237.2 712.1,234.2 713.1,238.5 714.2,212.8 715.3,228.8 716.4,234.1 717.4,223.6 718.5,224.0 719.6,223.0 720.7,223.1 721.8,215.9 722.8,224.2 723.9,173.0 725.0,211.0 726.1,224.1 727.2,214.7 728.2,218.7 729.3,232.4 730.4,216.5 731.5,215.7 732.5,233.0 733.6,222.8 734.7,228.6 735.8,224.1 736.9,224.1 737.9,231.0 739.0,221.1 740.1,212.2 741.2,208.9 742.2,233.4 743.3,223.9 744.4,225.2 745.5,219.7 746.6,224.0 747.6,212.6 748.7,229.6 749.8,224.4 750.9,224.1 751.9,234.1 753.0,230.7 754.1,224.1 755.2,237.2 756.3,224.5 757.3,224.2 758.4,237.7 759.5,215.6 760.6,231.0 761.7,228.4 762.7,234.9 763.8,224.5 764.9,226.1 766.0,223.0 767.0,224.2 768.1,225.3 769.2,224.2 770.3,219.2 771.4,209.3 772.4,195.6 773.5,225.4 774.6,212.8 775.7,230.1 776.7,224.0 777.8,224.1 778.9,200.5 780.0,209.0 781.1,224.2 782.1,218.5 783.2,221.2 784.3,224.2 785.4,189.6 786.4,216.2 787.5,224.1 788.6,231.0 789.7,225.2 790.8,234.1 791.8,219.9 792.9,217.4 794.0,234.1 795.1,199.2 796.1,224.1 797.2,224.4 798.3,217.4 799.4,224.1 800.5,224.2 801.5,224.2 802.6,222.0 803.7,216.5 804.8,200.8 805.9,183.8 806.9,224.2 808.0,224.5 809.1,201.1 810.2,227.9 811.2,227.3 812.3,242.0 813.4,240.8 814.5,238.2 815.6,237.5 816.6,192.6 817.7,245.6 818.8,209.3 819.9,234.1 820.9,241.9 822.0,241.1 823.1,224.3 824.2,174.6 825.3,224.1 826.3,195.4 827.4,229.9 828.5,237.1 829.6,241.9 830.6,221.2 831.7,229.0 832.8,257.0 833.9,170.6 835.0,201.0 836.0,257.2 837.1,224.2 838.2,227.0 839.3,224.1 840.3,237.5 841.4,224.1 842.5,231.0 843.6,217.4 844.7,181.7 845.7,224.2 846.8,205.2 847.9,210.8 849.0,209.3 850.1,200.6 851.1,224.6 852.2,228.3 853.3,244.1 854.4,213.9 855.4,241.5 856.5,225.4 857.6,232.8 858.7,231.0 859.8,241.9 860.8,230.2 861.9,238.5 863.0,248.7 864.1,246.2 865.1,252.9 866.2,237.2 867.3,239.5 868.4,241.8 869.5,200.2 870.5,195.5 871.6,225.3 872.7,218.8 873.8,224.3 874.8,217.4 875.9,217.4 877.0,234.0 878.1,237.2 879.2,238.0 880.2,246.7 881.3,239.1 882.4,238.0 883.5,231.6 884.6,207.8 885.6,237.2 886.7,234.1 887.8,241.8 888.9,213.8 889.9,224.2 891.0,237.2 892.1,228.5 893.2,225.4 894.3,231.0 895.3,215.6 896.4,223.0 897.5,217.6 898.6,224.1 899.6,230.8 900.7,225.7 901.8,228.6 902.9,258.6 904.0,231.0 905.0,237.6 906.1,236.7 907.2,224.2 908.3,232.7 909.3,224.2 910.4,224.1 911.5,212.4 912.6,243.0 913.7,226.4 914.7,200.9 915.8,221.2 916.9,224.1 918.0,224.2 919.0,215.5 920.1,234.4 921.2,224.1 922.3,239.5 923.4,224.1 924.4,242.0 925.5,241.3 926.6,224.2 927.7,225.8 928.8,199.1 929.8,238.2 930.9,300.4 932.0,333.7 933.1,335.1 934.1,332.4 935.2,333.0 936.3,257.7 937.4,329.0 938.5,329.1 939.5,333.2 940.6,335.2 941.7,333.8 942.8,333.1 943.8,323.8 944.9,333.0 946.0,334.3" fill="none" stroke="#d97706" stroke-width="2.2" stroke-linejoin="round" stroke-linecap="round"/>
<line x1="76" y1="70" x2="94" y2="70" stroke="#2563eb" stroke-width="3"/>
<text x="100" y="74" font-family="Arial, sans-serif" font-size="11" fill="#0f172a">avg fee</text>
<line x1="179" y1="70" x2="197" y2="70" stroke="#059669" stroke-width="3"/>
<text x="203" y="74" font-family="Arial, sans-serif" font-size="11" fill="#0f172a">median fee</text>
<line x1="303" y1="70" x2="321" y2="70" stroke="#d97706" stroke-width="3"/>
<text x="327" y="74" font-family="Arial, sans-serif" font-size="11" fill="#0f172a">p90 fee</text>
<text x="28" y="404" font-family="Arial, sans-serif" font-size="11" fill="#64748b">Source: hourly_features.csv</text>
</svg>