<svg xmlns="http://www.w3.org/2000/svg" width="980" height="420" viewBox="0 0 980 420">
<rect width="100%" height="100%" fill="#ffffff"/>
<text x="28" y="34" font-family="Arial, sans-serif" font-size="20" font-weight="700" fill="#0f172a">Hourly fee trend</text>
<text x="28" y="56" font-family="Arial, sans-serif" font-size="12" fill="#64748b">Average, median, and p90 total fee by hour</text>
<line x1="76" y1="362.0" x2="946" y2="362.0" stroke="#e2e8f0" stroke-width="1"/>
<text x="68" y="366.0" font-family="Arial, sans-serif" font-size="10" text-anchor="end" fill="#64748b">-124K</text>
<line x1="76" y1="292.0" x2="946" y2="292.0" stroke="#e2e8f0" stroke-width="1"/>
<text x="68" y="296.0" font-family="Arial, sans-serif" font-size="10" text-anchor="end" fill="#64748b">2.8M</text>
<line x1="76" y1="222.0" x2="946" y2="222.0" stroke="#e2e8f0" stroke-width="1"/>
<text x="68" y="226.0" font-family="Arial, sans-serif" font-size="10" text-anchor="end" fill="#64748b">5.8M</text>
<line x1="76" y1="152.0" x2="946" y2="152.0" stroke="#e2e8f0" stroke-width="1"/>
<text x="68" y="156.0" font-family="Arial, sans-serif" font-size="10" text-anchor="end" fill="#64748b">8.7M</text>
<line x1="76" y1="82.0" x2="946" y2="82.0" stroke="#e2e8f0" stroke-width="1"/>
<text x="68" y="86.0" font-family="Arial, sans-serif" font-size="10" text-anchor="end" fill="#64748b">11.7M</text>
<line x1="76" y1="362" x2="946" y2="362" stroke="#334155" stroke-width="1"/>
<line x1="76" y1="82" x2="76" y2="362" stroke="#334155" stroke-width="1"/>
<text x="76" y="72" font-family="Arial, sans-serif" font-size="11" fill="#64748b">nanoton</text>
<line x1="76.0" y1="362" x2="76.0" y2="366" stroke="#334155" stroke-width="1"/>
<text x="76.0" y="380" font-family="Arial, sans-serif" font-size="10" text-anchor="middle" fill="#64748b">0</text>
<line x1="511.6" y1="362" x2="511.6" y2="366" stroke="#334155" stroke-width="1"/>
<text x="511.6" y="380" font-family="Arial, sans-serif" font-size="10" text-anchor="middle" fill="#64748b">376</text>
<line x1="946.0" y1="362" x2="946.0" y2="366" stroke="#334155" stroke-width="1"/>
<text x="946.0" y="380" font-family="Arial, sans-serif" font-size="10" text-anchor="middle" fill="#64748b">751</text>
<polyline points="76.0,295.3 77.2,299.2 78.3,300.6 79.5,302.7 80.6,309.6 81.8,301.8 83.0,302.9 84.1,299.2 85.3,303.6 86.4,303.4 87.6,292.2 88.7,304.2 89.9,304.4 91.1,302.0 92.2,305.0 93.4,305.2 94.5,297.0 95.7,297.1 96.9,306.0 98.0,295.6 99.2,293.7 100.3,291.7 101.5,298.4 102.6,298.8 103.8,300.7 105.0,296.6 106.1,302.3 107.3,295.0 108.4,297.8 109.6,292.8 110.8,293.4 111.9,277.2 113.1,289.0 114.2,289.7 115.4,299.2 116.5,304.6 117.7,297.4 118.9,299.5 120.0,309.5 121.2,312.3 122.3,306.9 123.5,301.6 124.7,303.3 125.8,302.6 127.0,309.2 128.1,302.0 129.3,299.0 130.4,301.1 131.6,303.3 132.8,307.8 133.9,307.9 135.1,306.7 136.2,305.0 137.4,308.1 138.6,307.0 139.7,304.1 140.9,303.8 142.0,307.6 143.2,303.8 144.3,306.1 145.5,311.7 146.7,313.5 147.8,311.2 149.0,312.0 150.1,314.0 151.3,310.7 152.5,310.3 153.6,306.8 154.8,313.3 155.9,295.2 157.1,311.2 158.3,311.2 159.4,311.1 160.6,316.2 161.7,312.0 162.9,315.2 164.0,314.0 165.2,310.3 166.4,310.3 167.5,308.0 168.7,308.2 169.8,306.1 171.0,309.9 172.2,312.3 173.3,311.8 174.5,313.0 175.6,309.8 176.8,307.7 177.9,307.5 179.1,303.2 180.3,309.7 181.4,301.7 182.6,304.0 183.7,305.0 184.9,308.7 186.1,316.5 187.2,304.8 188.4,305.2 189.5,313.8 190.7,312.4 191.8,305.0 193.0,309.0 194.2,309.9 195.3,307.4 196.5,305.2 197.6,302.1 198.8,303.4 200.0,306.7 201.1,312.9 202.3,312.3 203.4,312.3 204.6,307.9 205.7,306.6 206.9,308.9 208.1,308.7 209.2,308.8 210.4,313.2 211.5,313.8 212.7,312.2 213.9,305.8 215.0,291.3 216.2,306.3 217.3,303.4 218.5,300.7 219.6,304.3 220.8,310.3 222.0,306.2 223.1,309.8 224.3,306.9 225.4,309.7 226.6,311.6 227.8,309.7 228.9,305.5 230.1,309.6 231.2,312.8 232.4,307.2 233.5,306.5 234.7,307.9 235.9,308.1 237.0,303.6 238.2,303.1 239.3,302.6 240.5,293.9 241.7,301.5 242.8,301.0 244.0,300.1 245.1,304.3 246.3,303.7 247.5,309.4 248.6,308.8 249.8,308.6 250.9,303.9 252.1,305.9 253.2,310.5 254.4,309.3 255.6,317.0 256.7,310.5 257.9,309.1 259.0,311.9 260.2,311.8 261.4,306.7 262.5,308.6 263.7,305.5 264.8,306.4 266.0,304.9 267.1,303.4 268.3,295.1 269.5,300.7 270.6,305.3 271.8,301.2 272.9,307.5 274.1,307.3 275.3,307.8 276.4,307.4 277.6,307.5 278.7,308.5 279.9,304.8 281.0,310.4 282.2,307.7 283.4,303.9 284.5,307.6 285.7,311.5 286.8,311.0 288.0,311.5 289.2,303.1 290.3,306.3 291.5,302.5 292.6,308.6 293.8,304.9 294.9,304.2 296.1,300.2 297.3,302.8 298.4,303.0 299.6,298.3 300.7,304.6 301.9,302.6 303.1,303.3 304.2,298.7 305.4,302.5 306.5,282.2 307.7,288.6 308.8,299.8 310.0,300.3 311.2,298.9 312.3,305.5 313.5,309.1 314.6,307.2 315.8,306.9 317.0,302.6 318.1,299.9 319.3,301.2 320.4,295.9 321.6,296.5 322.8,295.1 323.9,294.5 325.1,304.4 326.2,296.5 327.4,301.4 328.5,304.5 329.7,308.5 330.9,307.2 332.0,306.8 333.2,307.0 334.3,305.6 335.5,308.3 336.7,300.5 337.8,302.4 339.0,309.2 340.1,309.0 341.3,304.2 342.4,308.7 343.6,308.2 344.8,303.7 345.9,293.2 347.1,298.3 348.2,298.7 349.4,308.4 350.6,300.2 351.7,301.6 352.9,310.4 354.0,299.4 355.2,305.2 356.3,309.9 357.5,313.4 358.7,310.3 359.8,308.8 361.0,305.4 362.1,308.6 363.3,303.9 364.5,307.8 365.6,309.8 366.8,307.8 367.9,304.0 369.1,299.0 370.2,304.6 371.4,290.6 372.6,306.9 373.7,298.4 374.9,302.6 376.0,304.1 377.2,302.1 378.4,299.0 379.5,315.3 380.7,296.1 381.8,300.2 383.0,285.9 384.1,299.2 385.3,297.8 386.5,299.6 387.6,295.5 388.8,305.7 389.9,284.1 391.1,301.9 392.3,296.4 393.4,296.0 394.6,287.6 395.7,303.0 396.9,305.1 398.1,303.3 399.2,292.8 400.4,303.7 401.5,309.2 402.7,302.4 403.8,300.1 405.0,284.0 406.2,288.5 407.3,305.2 408.5,304.6 409.6,302.7 410.8,297.9 412.0,307.9 413.1,307.8 414.3,303.3 415.4,301.4 416.6,302.0 417.7,306.1 418.9,302.8 420.1,316.4 421.2,304.1 422.4,308.2 423.5,305.9 424.7,307.7 425.9,309.0 427.0,302.5 428.2,299.0 429.3,303.9 430.5,299.7 431.6,306.5 432.8,297.1 434.0,302.2 435.1,298.5 436.3,294.5 437.4,299.7 438.6,309.4 439.8,295.6 440.9,305.0 442.1,300.5 443.2,297.6 444.4,296.1 445.5,301.5 446.7,301.7 447.9,302.5 449.0,304.2 450.2,297.4 451.3,290.6 452.5,294.6 453.7,304.7 454.8,299.0 456.0,305.6 457.1,307.7 458.3,303.8 459.4,307.3 460.6,299.7 461.8,301.7 462.9,307.5 464.1,306.4 465.2,307.7 466.4,313.5 467.6,311.6 468.7,310.9 469.9,311.3 471.0,309.1 472.2,309.3 473.4,303.0 474.5,305.8 475.7,307.8 476.8,308.1 478.0,309.0 479.1,307.1 480.3,304.1 481.5,309.3 482.6,312.0 483.8,301.9 484.9,303.6 486.1,302.7 487.3,304.4 488.4,302.5 489.6,305.7 490.7,291.6 491.9,298.9 493.0,299.3 494.2,303.3 495.4,295.8 496.5,303.0 497.7,299.2 498.8,303.4 500.0,309.0 501.2,286.5 502.3,294.2 503.5,303.5 504.6,299.7 505.8,297.9 506.9,299.3 508.1,309.1 509.3,301.5 510.4,306.4 511.6,301.3 512.7,300.2 513.9,297.4 515.1,296.2 516.2,291.1 517.4,292.2 518.5,298.8 519.7,297.2 520.8,302.1 522.0,307.8 523.2,301.4 524.3,308.9 525.5,303.3 526.6,302.4 527.8,304.0 529.0,301.7 530.1,301.2 531.3,310.3 532.4,306.6 533.6,309.3 534.7,307.7 535.9,308.2 537.1,307.5 538.2,309.3 539.4,306.5 540.5,304.7 541.7,301.9 542.9,299.6 544.0,309.8 545.2,307.4 546.3,308.5 547.5,307.6 548.6,303.1 549.8,260.8 551.0,295.5 552.1,303.2 553.3,300.9 554.4,305.7 555.6,306.4 556.8,304.5 557.9,304.0 559.1,304.3 560.2,300.6 561.4,304.1 562.6,310.4 563.7,311.3 564.9,305.6 566.0,307.4 567.2,299.6 568.3,306.9 569.5,301.5 570.7,309.7 571.8,303.8 573.0,300.2 574.1,299.7 575.3,305.6 576.5,305.7 577.6,305.4 578.8,309.3 579.9,297.1 581.1,308.3 582.2,310.9 583.4,300.1 584.6,302.1 585.7,307.6 586.9,300.4 588.0,304.1 589.2,308.7 590.4,306.4 591.5,308.6 592.7,305.5 593.8,311.0 595.0,310.4 596.1,305.5 597.3,308.0 598.5,301.7 599.6,304.9 600.8,296.8 601.9,296.5 603.1,296.6 604.3,304.0 605.4,303.1 606.6,303.5 607.7,306.3 608.9,304.3 610.0,310.1 611.2,304.9 612.4,305.3 613.5,309.5 614.7,303.9 615.8,309.2 617.0,304.3 618.2,311.2 619.3,303.8 620.5,309.3 621.6,308.1 622.8,302.7 623.9,267.6 625.1,307.7 626.3,309.4 627.4,306.0 628.6,305.5 629.7,302.9 630.9,304.6 632.1,307.5 633.2,303.3 634.4,308.8 635.5,307.5 636.7,307.8 637.9,305.8 639.0,313.2 640.2,309.3 641.3,313.9 642.5,309.3 643.6,308.5 644.8,309.7 646.0,308.4 647.1,310.1 648.3,304.2 649.4,310.0 650.6,301.7 651.8,306.9 652.9,292.5 654.1,299.2 655.2,304.4 656.4,291.8 657.5,303.7 658.7,303.1 659.9,301.4 661.0,305.9 662.2,304.2 663.3,307.4 664.5,303.9 665.7,307.7 666.8,302.6 668.0,306.4 669.1,310.1 670.3,309.3 671.4,294.8 672.6,307.9 673.8,304.3 674.9,307.1 676.1,307.9 677.2,309.5 678.4,300.9 679.6,306.4 680.7,297.4 681.9,302.9 683.0,299.4 684.2,298.1 685.3,304.1 686.5,302.1 687.7,305.2 688.8,300.2 690.0,306.2 691.1,287.0 692.3,302.0 693.5,295.7 694.6,305.5 695.8,285.6 696.9,308.4 698.1,296.6 699.2,301.1 700.4,305.6 701.6,298.5 702.7,299.9 703.9,310.0 705.0,309.5 706.2,305.0 707.4,306.7 708.5,302.2 709.7,299.5 710.8,301.2 712.0,297.2 713.2,303.4 714.3,295.6 715.5,294.4 716.6,297.3 717.8,307.4 718.9,308.2 720.1,306.3 721.3,302.2 722.4,307.8 723.6,307.3 724.7,304.0 725.9,304.6 727.1,300.3 728.2,305.4 729.4,307.2 730.5,307.0 731.7,305.4 732.8,310.2 734.0,309.9 735.2,305.7 736.3,298.8 737.5,305.7 738.6,303.6 739.8,294.9 741.0,300.5 742.1,298.7 743.3,306.1 744.4,302.8 745.6,303.9 746.7,307.3 747.9,305.6 749.1,303.9 750.2,307.4 751.4,308.4 752.5,304.2 753.7,309.2 754.9,302.8 756.0,307.4 757.2,309.7 758.3,308.1 759.5,308.6 760.6,310.6 761.8,299.2 763.0,311.5 764.1,308.5 765.3,299.7 766.4,298.7 767.6,298.2 768.8,300.5 769.9,300.5 771.1,302.8 772.2,289.1 773.4,299.5 774.5,303.2 775.7,300.9 776.9,298.8 778.0,305.3 779.2,298.9 780.3,300.5 781.5,308.6 782.7,300.4 783.8,307.3 785.0,302.3 786.1,304.7 787.3,305.5 788.5,303.0 789.6,299.4 790.8,300.4 791.9,307.8 793.1,300.2 794.2,300.6 795.4,299.7 796.6,299.9 797.7,299.6 798.9,304.6 800.0,303.6 801.2,300.5 802.4,308.1 803.5,307.7 804.7,302.9 805.8,310.4 807.0,305.6 808.1,305.1 809.3,310.0 810.5,300.4 811.6,306.6 812.8,308.0 813.9,309.4 815.1,303.8 816.3,305.7 817.4,302.6 818.6,303.4 819.7,301.9 820.9,305.5 822.0,300.6 823.2,297.6 824.4,288.5 825.5,303.5 826.7,298.4 827.8,303.6 829.0,303.5 830.2,302.6 831.3,295.5 832.5,296.8 833.6,302.9 834.8,302.1 835.9,302.2 837.1,303.2 838.3,292.6 839.4,301.1 840.6,302.0 841.7,306.5 842.9,305.7 844.1,310.2 845.2,300.4 846.4,299.7 847.5,304.5 848.7,294.0 849.8,301.4 851.0,299.7 852.2,299.7 853.3,299.4 854.5,302.1 855.6,304.2 856.8,300.4 858.0,301.6 859.1,296.3 860.3,289.4 861.4,304.4 862.6,305.8 863.7,298.2 864.9,307.1 866.1,302.2 867.2,312.5 868.4,297.1 869.5,309.7 870.7,308.9 871.9,296.5 873.0,310.0 874.2,302.4 875.3,302.8 876.5,312.3 877.7,310.2 878.8,298.6 880.0,288.8 881.1,300.3 882.3,285.8 883.4,300.4 884.6,312.0 885.8,308.2 886.9,303.9 888.1,306.3 889.2,313.9 890.4,292.2 891.6,297.9 892.7,319.3 893.9,305.5 895.0,309.0 896.2,303.9 897.3,310.2 898.5,302.1 899.7,308.2 900.8,301.9 902.0,290.6 903.1,300.2 904.3,297.9 905.5,299.9 906.6,297.1 907.8,299.6 908.9,302.1 910.1,307.9 911.2,312.6 912.4,299.8 913.6,311.5 914.7,309.9 915.9,310.2 917.0,307.9 918.2,302.0 919.4,298.1 920.5,309.8 921.7,315.3 922.8,311.4 924.0,314.3 925.1,308.8 926.3,312.6 927.5,313.1 928.6,303.7 929.8,292.7 930.9,301.7 932.1,302.7 933.3,303.2 934.4,303.4 935.6,299.8 936.7,310.7 937.9,312.6 939.0,309.2 940.2,314.2 941.4,311.5 942.5,308.0 943.7,308.3 944.8,301.1 946.0,308.9" fill="none" stroke="#2563eb" stroke-width="2.2" stroke-linejoin="round" stroke-linecap="round"/>
<polyline points="76.0,316.4 77.2,330.2 78.3,339.5 79.5,340.0 80.6,340.5 81.8,340.1 83.0,339.8 84.1,336.2 85.3,340.1 86.4,340.1 87.6,325.6 88.7,340.1 89.9,339.7 91.1,336.1 92.2,339.9 93.4,339.3 94.5,326.3 95.7,335.8 96.9,337.8 98.0,315.5 99.2,307.7 100.3,310.8 101.5,325.6 102.6,320.5 103.8,315.4 105.0,335.2 106.1,338.9 107.3,317.5 108.4,340.5 109.6,324.1 110.8,335.9 111.9,288.2 113.1,305.1 114.2,308.1 115.4,313.2 116.5,336.7 117.7,317.5 118.9,315.6 120.0,340.3 121.2,340.5 122.3,335.1 123.5,315.5 124.7,315.5 125.8,317.5 127.0,346.4 128.1,340.4 129.3,313.8 130.4,315.2 131.6,340.4 132.8,340.8 133.9,339.6 135.1,338.9 136.2,339.4 137.4,340.1 138.6,336.9 139.7,340.1 140.9,336.3 142.0,339.8 143.2,340.1 144.3,339.6 145.5,340.5 146.7,340.3 147.8,340.4 149.0,349.7 150.1,341.3 151.3,340.4 152.5,340.4 153.6,336.1 154.8,349.7 155.9,341.1 157.1,341.7 158.3,341.7 159.4,340.5 160.6,343.7 161.7,341.7 162.9,341.6 164.0,340.6 165.2,340.5 166.4,340.5 167.5,340.0 168.7,340.5 169.8,340.1 171.0,340.1 172.2,340.5 173.3,340.5 174.5,340.5 175.6,339.8 176.8,340.4 177.9,340.3 179.1,336.1 180.3,340.2 181.4,317.1 182.6,335.0 183.7,336.5 184.9,339.3 186.1,349.7 187.2,336.0 188.4,339.3 189.5,340.5 190.7,341.7 191.8,340.2 193.0,340.2 194.2,340.3 195.3,340.0 196.5,336.4 197.6,335.9 198.8,336.9 200.0,338.5 201.1,340.4 202.3,340.4 203.4,340.4 204.6,339.5 205.7,340.4 206.9,340.4 208.1,336.9 209.2,337.8 210.4,341.7 211.5,349.7 212.7,341.6 213.9,340.5 215.0,315.0 216.2,340.4 217.3,340.0 218.5,340.2 219.6,339.3 220.8,340.4 222.0,339.5 223.1,340.4 224.3,340.3 225.4,340.4 226.6,340.5 227.8,340.2 228.9,338.6 230.1,340.4 231.2,340.5 232.4,340.5 233.5,339.6 234.7,339.7 235.9,335.7 237.0,315.5 238.2,303.4 239.3,314.7 240.5,309.2 241.7,315.1 242.8,315.1 244.0,333.0 245.1,338.4 246.3,339.3 247.5,339.3 248.6,340.4 249.8,340.4 250.9,339.3 252.1,340.2 253.2,340.2 254.4,340.1 255.6,349.7 256.7,340.4 257.9,340.3 259.0,340.5 260.2,340.5 261.4,339.3 262.5,339.9 263.7,336.3 264.8,324.9 266.0,303.4 267.1,339.5 268.3,332.2 269.5,340.1 270.6,337.2 271.8,337.2 272.9,336.8 274.1,340.2 275.3,339.9 276.4,340.1 277.6,340.1 278.7,336.1 279.9,336.1 281.0,340.4 282.2,339.8 283.4,336.4 284.5,340.1 285.7,340.5 286.8,340.1 288.0,340.4 289.2,335.8 290.3,339.8 291.5,320.6 292.6,340.1 293.8,303.4 294.9,339.5 296.1,335.1 297.3,338.0 298.4,337.2 299.6,315.5 300.7,337.2 301.9,337.7 303.1,340.1 304.2,329.1 305.4,339.4 306.5,300.4 307.7,303.3 308.8,332.4 310.0,336.5 311.2,336.1 312.3,337.7 313.5,340.1 314.6,340.2 315.8,339.6 317.0,330.1 318.1,320.1 319.3,313.5 320.4,310.2 321.6,303.4 322.8,311.4 323.9,310.2 325.1,337.2 326.2,310.3 327.4,322.1 328.5,338.9 329.7,340.5 330.9,339.6 332.0,340.5 333.2,340.4 334.3,339.2 335.5,340.5 336.7,324.9 337.8,324.9 339.0,339.5 340.1,339.3 341.3,338.9 342.4,340.2 343.6,340.1 344.8,336.7 345.9,310.2 347.1,313.1 348.2,313.2 349.4,303.4 350.6,315.1 351.7,341.0 352.9,341.7 354.0,317.5 355.2,340.0 356.3,341.7 357.5,341.4 358.7,341.7 359.8,340.5 361.0,339.3 362.1,339.8 363.3,339.9 364.5,339.0 365.6,340.1 366.8,339.9 367.9,334.9 369.1,313.8 370.2,339.5 371.4,313.1 372.6,339.9 373.7,315.6 374.9,315.2 376.0,330.4 377.2,310.3 378.4,324.9 379.5,349.7 380.7,320.6 381.8,339.6 383.0,313.1 384.1,314.8 385.3,335.4 386.5,339.5 387.6,340.5 388.8,338.7 389.9,329.1 391.1,339.3 392.3,313.1 393.4,311.0 394.6,329.1 395.7,320.6 396.9,338.9 398.1,338.0 399.2,308.0 400.4,339.5 401.5,340.1 402.7,331.8 403.8,339.3 405.0,326.0 406.2,339.1 407.3,339.2 408.5,339.5 409.6,336.1 410.8,337.2 412.0,339.2 413.1,340.1 414.3,339.3 415.4,338.5 416.6,315.5 417.7,340.2 418.9,336.1 420.1,351.6 421.2,339.3 422.4,340.2 423.5,339.2 424.7,340.2 425.9,340.2 427.0,315.6 428.2,320.4 429.3,337.4 430.5,315.5 431.6,337.1 432.8,310.1 434.0,335.9 435.1,332.2 436.3,307.0 437.4,314.6 438.6,341.4 439.8,338.9 440.9,340.4 442.1,339.9 443.2,311.4 444.4,311.4 445.5,323.4 446.7,325.3 447.9,328.8 449.0,337.2 450.2,315.6 451.3,310.2 452.5,313.0 453.7,337.2 454.8,310.0 456.0,335.9 457.1,339.5 458.3,332.0 459.4,336.1 460.6,310.2 461.8,313.1 462.9,339.3 464.1,339.5 465.2,340.5 466.4,346.4 467.6,341.7 468.7,341.6 469.9,340.5 471.0,341.7 472.2,341.3 473.4,339.3 474.5,339.9 475.7,340.4 476.8,340.3 478.0,340.4 479.1,340.1 480.3,337.2 481.5,339.9 482.6,340.5 483.8,334.5 484.9,336.1 486.1,331.1 487.3,330.6 488.4,313.1 489.6,339.0 490.7,313.3 491.9,315.2 493.0,335.9 494.2,324.8 495.4,313.2 496.5,340.1 497.7,323.8 498.8,341.3 500.0,340.5 501.2,302.2 502.3,310.1 503.5,330.6 504.6,331.0 505.8,324.0 506.9,315.2 508.1,340.4 509.3,326.5 510.4,339.6 511.6,336.9 512.7,335.1 513.9,314.5 515.1,313.3 516.2,303.4 517.4,307.4 518.5,310.3 519.7,313.9 520.8,337.2 522.0,339.5 523.2,335.0 524.3,340.2 525.5,339.3 526.6,340.5 527.8,339.5 529.0,339.5 530.1,330.6 531.3,340.4 532.4,340.0 533.6,340.1 534.7,340.2 535.9,340.2 537.1,340.2 538.2,340.1 539.4,339.5 540.5,332.2 541.7,331.9 542.9,310.3 544.0,348.7 545.2,340.8 546.3,349.7 547.5,340.5 548.6,334.4 549.8,305.8 551.0,339.7 552.1,339.6 553.3,320.7 554.4,340.5 555.6,339.6 556.8,340.1 557.9,339.0 559.1,335.9 560.2,335.8 561.4,339.3 562.6,340.5 563.7,340.4 564.9,338.6 566.0,339.8 567.2,315.4 568.3,337.4 569.5,315.0 570.7,338.1 571.8,310.3 573.0,314.7 574.1,315.6 575.3,335.4 576.5,339.3 577.6,337.9 578.8,340.8 579.9,323.4 581.1,340.2 582.2,341.7 583.4,336.8 584.6,331.0 585.7,340.1 586.9,336.7 588.0,337.2 589.2,340.2 590.4,339.9 591.5,339.3 592.7,336.1 593.8,340.4 595.0,340.3 596.1,337.2 597.3,338.7 598.5,315.6 599.6,335.9 600.8,313.1 601.9,313.3 603.1,310.2 604.3,335.8 605.4,332.2 606.6,335.8 607.7,340.4 608.9,336.9 610.0,340.5 611.2,340.1 612.4,339.5 613.5,340.4 614.7,340.2 615.8,340.5 617.0,339.3 618.2,340.5 619.3,338.7 620.5,340.1 621.6,340.5 622.8,338.1 623.9,287.9 625.1,339.3 626.3,340.5 627.4,324.5 628.6,336.5 629.7,335.1 630.9,337.2 632.1,339.5 633.2,340.1 634.4,340.4 635.5,340.2 636.7,340.1 637.9,340.3 639.0,340.5 640.2,340.4 641.3,340.5 642.5,340.4 643.6,340.2 644.8,340.4 646.0,340.5 647.1,340.2 648.3,339.5 649.4,341.2 650.6,339.5 651.8,339.9 652.9,310.1 654.1,324.8 655.2,314.2 656.4,305.4 657.5,315.3 658.7,335.9 659.9,315.6 661.0,335.9 662.2,338.5 663.3,340.2 664.5,339.2 665.7,339.5 666.8,336.3 668.0,340.2 669.1,340.4 670.3,340.4 671.4,310.2 672.6,339.9 673.8,336.4 674.9,340.5 676.1,339.3 677.2,340.5 678.4,339.3 679.6,340.4 680.7,315.5 681.9,339.8 683.0,311.3 684.2,313.3 685.3,339.3 686.5,336.3 687.7,339.5 688.8,335.1 690.0,339.8 691.1,310.1 692.3,336.1 693.5,334.2 694.6,339.3 695.8,300.4 696.9,340.1 698.1,315.5 699.2,315.6 700.4,339.3 701.6,323.5 702.7,323.6 703.9,339.6 705.0,340.4 706.2,339.5 707.4,339.5 708.5,335.8 709.7,313.1 710.8,313.1 712.0,315.1 713.2,339.3 714.3,315.5 715.5,315.3 716.6,332.6 717.8,337.4 718.9,340.5 720.1,340.1 721.3,339.4 722.4,340.1 723.6,340.0 724.7,336.1 725.9,339.0 727.1,336.9 728.2,340.1 729.4,339.5 730.5,339.3 731.7,336.1 732.8,340.2 734.0,340.4 735.2,337.4 736.3,311.9 737.5,331.4 738.6,310.2 739.8,311.2 741.0,313.9 742.1,311.3 743.3,340.1 744.4,332.3 745.6,339.3 746.7,338.6 747.9,339.6 749.1,340.5 750.2,340.1 751.4,339.4 752.5,339.3 753.7,340.2 754.9,336.1 756.0,337.2 757.2,340.4 758.3,339.5 759.5,340.1 760.6,340.4 761.8,332.8 763.0,340.5 764.1,339.1 765.3,324.9 766.4,307.7 767.6,315.1 768.8,332.8 769.9,332.1 771.1,328.8 772.2,303.3 773.4,315.6 774.5,336.6 775.7,336.1 776.9,340.1 778.0,329.8 779.2,329.1 780.3,335.8 781.5,339.3 782.7,336.1 783.8,340.1 785.0,329.2 786.1,338.6 787.3,339.5 788.5,330.9 789.6,314.0 790.8,320.6 791.9,339.3 793.1,313.3 794.2,311.4 795.4,313.1 796.6,315.1 797.7,317.5 798.9,336.4 800.0,337.3 801.2,323.0 802.4,340.1 803.5,340.4 804.7,340.5 805.8,340.5 807.0,340.1 808.1,339.3 809.3,340.3 810.5,335.8 811.6,339.8 812.8,340.1 813.9,339.7 815.1,339.3 816.3,340.5 817.4,336.1 818.6,339.3 819.7,320.6 820.9,336.1 822.0,310.2 823.2,329.6 824.4,311.4 825.5,337.2 826.7,313.8 827.8,339.3 829.0,339.3 830.2,336.6 831.3,315.6 832.5,339.3 833.6,335.4 834.8,332.5 835.9,329.1 837.1,335.4 838.3,309.8 839.4,317.5 840.6,339.3 841.7,337.4 842.9,335.0 844.1,339.3 845.2,328.1 846.4,313.2 847.5,315.3 848.7,310.0 849.8,310.2 851.0,313.1 852.2,315.6 853.3,315.1 854.5,324.8 855.6,330.9 856.8,336.2 858.0,336.3 859.1,310.2 860.3,310.0 861.4,339.3 862.6,336.4 863.7,310.2 864.9,340.2 866.1,313.2 867.2,339.5 868.4,340.2 869.5,338.3 870.7,338.4 871.9,313.1 873.0,340.5 874.2,335.8 875.3,315.3 876.5,335.4 877.7,332.1 878.8,310.8 880.0,311.3 881.1,329.1 882.3,301.3 883.4,339.6 884.6,340.5 885.8,340.5 886.9,337.0 888.1,340.2 889.2,340.5 890.4,309.1 891.6,313.1 892.7,340.5 893.9,337.2 895.0,339.9 896.2,336.6 897.3,340.2 898.5,337.2 899.7,326.7 900.8,340.4 902.0,337.3 903.1,315.4 904.3,313.2 905.5,310.2 906.6,310.8 907.8,310.5 908.9,329.9 910.1,336.1 911.2,340.0 912.4,337.0 913.6,340.5 914.7,340.5 915.9,340.5 917.0,327.7 918.2,340.3 919.4,336.5 920.5,340.5 921.7,349.7 922.8,349.7 924.0,349.7 925.1,340.1 926.3,340.5 927.5,340.5 928.6,339.8 929.8,316.5 930.9,313.8 932.1,313.1 933.3,313.0 934.4,335.7 935.6,313.5 936.7,343.0 937.9,340.5 939.0,340.5 940.2,340.5 941.4,337.2 942.5,337.4 943.7,339.5 944.8,335.9 946.0,339.6" fill="none" stroke="#059669" stroke-width="2.2" stroke-linejoin="round" stroke-linecap="round"/>
<polyline points="76.0,211.6 77.2,219.5 78.3,226.3 79.5,231.4 80.6,239.6 81.8,231.4 83.0,226.2 84.1,219.8 85.3,226.4 86.4,226.3 87.6,202.2 88.7,226.4 89.9,227.6 91.1,226.3 92.2,229.2 93.4,230.7 94.5,214.2 95.7,219.5 96.9,239.3 98.0,219.4 99.2,218.6 100.3,202.2 101.5,223.2 102.6,226.1 103.8,226.4 105.0,223.4 106.1,226.2 107.3,215.9 108.4,219.4 109.6,202.5 110.8,202.2 111.9,162.0 113.1,171.9 114.2,171.9 115.4,212.3 116.5,218.6 117.7,212.3 118.9,210.8 120.0,236.5 121.2,244.4 122.3,233.3 123.5,226.2 124.7,226.8 125.8,226.3 127.0,230.6 128.1,223.3 129.3,216.4 130.4,224.5 131.6,216.9 132.8,239.6 133.9,237.1 135.1,231.9 136.2,232.5 137.4,233.3 138.6,226.4 139.7,226.4 140.9,227.4 142.0,230.8 143.2,234.5 144.3,226.3 145.5,239.6 146.7,243.8 147.8,236.8 149.0,248.0 150.1,242.8 151.3,243.7 152.5,242.2 153.6,239.5 154.8,255.3 155.9,208.8 157.1,239.9 158.3,240.9 159.4,237.9 160.6,252.2 161.7,246.0 162.9,249.8 164.0,244.4 165.2,235.4 166.4,236.5 167.5,231.4 168.7,226.5 169.8,232.8 171.0,236.5 172.2,249.6 173.3,241.9 174.5,244.4 175.6,234.5 176.8,233.2 177.9,233.5 179.1,219.4 180.3,242.3 181.4,226.3 182.6,235.1 183.7,234.5 184.9,246.3 186.1,252.5 187.2,226.4 188.4,230.9 189.5,245.8 190.7,240.4 191.8,232.9 193.0,238.1 194.2,239.6 195.3,236.4 196.5,226.4 197.6,226.4 198.8,233.2 200.0,236.4 201.1,245.2 202.3,240.9 203.4,249.7 204.6,233.5 205.7,233.6 206.9,240.4 208.1,239.6 209.2,239.9 210.4,244.6 211.5,243.8 212.7,243.8 213.9,236.4 215.0,202.7 216.2,226.3 217.3,226.3 218.5,219.4 219.6,232.7 220.8,236.5 222.0,234.6 223.1,236.5 224.3,233.9 225.4,239.6 226.6,239.6 227.8,236.5 228.9,233.3 230.1,242.0 231.2,242.2 232.4,240.9 233.5,231.1 234.7,230.0 235.9,240.2 237.0,229.7 238.2,235.5 239.3,234.5 240.5,209.6 241.7,226.4 242.8,226.3 244.0,226.2 245.1,228.0 246.3,226.4 247.5,239.6 248.6,239.6 249.8,235.1 250.9,233.3 252.1,238.8 253.2,239.6 254.4,240.0 255.6,255.1 256.7,236.5 257.9,236.5 259.0,244.4 260.2,244.4 261.4,236.5 262.5,235.3 263.7,228.6 264.8,226.4 266.0,244.4 267.1,226.3 268.3,202.2 269.5,234.7 270.6,236.4 271.8,226.3 272.9,231.8 274.1,236.4 275.3,239.6 276.4,236.4 277.6,235.8 278.7,236.9 279.9,226.4 281.0,241.6 282.2,237.1 283.4,226.4 284.5,235.8 285.7,241.9 286.8,243.9 288.0,251.5 289.2,227.1 290.3,226.3 291.5,227.4 292.6,238.0 293.8,250.5 294.9,230.8 296.1,226.2 297.3,226.4 298.4,228.2 299.6,225.6 300.7,232.6 301.9,226.4 303.1,231.2 304.2,214.7 305.4,226.2 306.5,162.0 307.7,172.9 308.8,202.5 310.0,213.1 311.2,204.0 312.3,226.3 313.5,235.5 314.6,231.0 315.8,229.7 317.0,219.6 318.1,219.4 319.3,226.3 320.4,202.5 321.6,230.0 322.8,202.2 323.9,202.2 325.1,226.3 326.2,213.1 327.4,219.8 328.5,227.4 329.7,226.3 330.9,227.4 332.0,227.1 333.2,229.6 334.3,226.4 335.5,236.4 336.7,211.5 337.8,224.5 339.0,236.5 340.1,235.3 341.3,226.3 342.4,231.4 343.6,233.3 344.8,226.3 345.9,205.1 347.1,223.3 348.2,226.1 349.4,261.2 350.6,222.6 351.7,217.1 352.9,243.4 354.0,218.1 355.2,231.4 356.3,236.7 357.5,244.4 358.7,244.1 359.8,236.4 361.0,236.4 362.1,230.4 363.3,226.4 364.5,243.8 365.6,234.7 366.8,234.0 367.9,221.2 369.1,213.5 370.2,231.1 371.4,184.3 372.6,234.2 373.7,217.6 374.9,225.1 376.0,226.3 377.2,230.6 378.4,217.5 379.5,244.1 380.7,217.9 381.8,224.4 383.0,202.1 384.1,199.5 385.3,197.7 386.5,219.4 387.6,213.3 388.8,226.4 389.9,172.0 391.1,223.4 392.3,207.7 393.4,208.3 394.6,202.2 395.7,224.6 396.9,231.1 398.1,226.4 399.2,170.6 400.4,226.2 401.5,234.7 402.7,226.1 403.8,226.4 405.0,178.2 406.2,202.8 407.3,229.3 408.5,234.7 409.6,226.4 410.8,212.5 412.0,236.5 413.1,235.8 414.3,227.4 415.4,226.4 416.6,223.3 417.7,233.3 418.9,226.3 420.1,255.4 421.2,234.3 422.4,234.5 423.5,233.3 424.7,236.3 425.9,236.3 427.0,227.4 428.2,226.1 429.3,226.3 430.5,226.3 431.6,226.3 432.8,217.6 434.0,226.3 435.1,217.5 436.3,216.1 437.4,226.2 438.6,236.3 439.8,217.6 440.9,226.3 442.1,221.9 443.2,212.3 444.4,202.8 445.5,217.9 446.7,226.3 447.9,217.9 449.0,235.7 450.2,226.3 451.3,208.3 452.5,209.7 453.7,226.3 454.8,226.3 456.0,226.3 457.1,236.4 458.3,226.3 459.4,238.0 460.6,226.2 461.8,225.9 462.9,226.4 464.1,226.9 465.2,234.3 466.4,251.6 467.6,236.5 468.7,238.9 469.9,242.8 471.0,236.4 472.2,232.8 473.4,218.3 474.5,234.9 475.7,236.4 476.8,236.4 478.0,236.3 479.1,231.4 480.3,228.4 481.5,234.3 482.6,243.9 483.8,223.3 484.9,226.2 486.1,226.3 487.3,231.5 488.4,229.3 489.6,229.7 490.7,212.8 491.9,216.0 493.0,223.3 494.2,229.5 495.4,216.7 496.5,226.3 497.7,218.5 498.8,227.2 500.0,236.4 501.2,171.9 502.3,202.2 503.5,226.3 504.6,202.9 505.8,215.1 506.9,217.4 508.1,236.3 509.3,224.6 510.4,231.3 511.6,226.2 512.7,218.5 513.9,215.1 515.1,202.4 516.2,194.7 517.4,197.0 518.5,211.6 519.7,202.5 520.8,217.9 522.0,231.1 523.2,216.1 524.3,236.5 525.5,226.1 526.6,225.6 527.8,226.4 529.0,221.8 530.1,226.2 531.3,243.8 532.4,229.3 533.6,234.6 534.7,236.4 535.9,229.8 537.1,236.4 538.2,239.6 539.4,243.8 540.5,226.5 541.7,227.2 542.9,226.3 544.0,236.4 545.2,230.8 546.3,226.4 547.5,234.8 548.6,229.7 549.8,92.4 551.0,217.9 552.1,226.3 553.3,216.6 554.4,234.7 555.6,233.3 556.8,226.3 557.9,226.3 559.1,226.3 560.2,223.3 561.4,226.1 562.6,236.4 563.7,241.7 564.9,236.4 566.0,234.9 567.2,216.6 568.3,226.4 569.5,226.3 570.7,241.3 571.8,235.5 573.0,219.9 574.1,215.3 575.3,233.3 576.5,229.8 577.6,233.7 578.8,236.6 579.9,202.8 581.1,236.5 582.2,236.5 583.4,219.5 584.6,223.4 585.7,231.1 586.9,223.2 588.0,222.7 589.2,229.9 590.4,235.1 591.5,236.2 592.7,226.3 593.8,241.0 595.0,243.6 596.1,228.0 597.3,239.9 598.5,226.3 599.6,230.9 600.8,214.7 601.9,217.6 603.1,217.6 604.3,226.2 605.4,226.3 606.6,219.9 607.7,237.4 608.9,227.1 610.0,234.6 611.2,226.4 612.4,226.4 613.5,239.9 614.7,219.8 615.8,236.8 617.0,227.4 618.2,239.9 619.3,226.2 620.5,235.0 621.6,234.6 622.8,226.2 623.9,170.5 625.1,226.3 626.3,227.5 627.4,227.6 628.6,229.7 629.7,226.3 630.9,226.3 632.1,243.0 633.2,226.4 634.4,233.3 635.5,226.4 636.7,231.5 637.9,229.7 639.0,241.9 640.2,235.3 641.3,239.9 642.5,239.5 643.6,235.4 644.8,239.6 646.0,236.8 647.1,243.8 648.3,226.4 649.4,244.4 650.6,215.4 651.8,228.1 652.9,208.3 654.1,216.5 655.2,226.4 656.4,204.4 657.5,226.3 658.7,226.1 659.9,226.3 661.0,234.7 662.2,226.4 663.3,239.6 664.5,226.3 665.7,230.0 666.8,225.4 668.0,226.4 669.1,237.9 670.3,239.1 671.4,202.8 672.6,233.6 673.8,233.3 674.9,238.6 676.1,233.3 677.2,235.3 678.4,219.4 679.6,235.8 680.7,215.4 681.9,233.2 683.0,225.8 684.2,222.5 685.3,228.0 686.5,226.3 687.7,226.4 688.8,222.6 690.0,232.4 691.1,198.4 692.3,223.1 693.5,214.7 694.6,234.7 695.8,171.9 696.9,233.3 698.1,202.2 699.2,222.8 700.4,219.5 701.6,212.6 702.7,218.6 703.9,242.8 705.0,234.7 706.2,226.2 707.4,231.0 708.5,226.3 709.7,212.6 710.8,226.3 712.0,209.7 713.2,226.3 714.3,202.5 715.5,202.2 716.6,204.3 717.8,226.4 718.9,238.2 720.1,226.4 721.3,219.4 722.4,233.8 723.6,234.7 724.7,222.8 725.9,226.3 727.1,217.6 728.2,234.4 729.4,233.3 730.5,234.6 731.7,239.6 732.8,243.7 734.0,232.5 735.2,231.1 736.3,221.6 737.5,230.8 738.6,231.0 739.8,206.6 741.0,223.4 742.1,218.3 743.3,229.8 744.4,227.4 745.6,228.1 746.7,235.3 747.9,234.7 749.1,226.4 750.2,232.3 751.4,239.6 752.5,226.7 753.7,240.4 754.9,228.0 756.0,234.5 757.2,239.6 758.3,239.6 759.5,236.6 760.6,240.9 761.8,214.8 763.0,231.1 764.1,236.4 765.3,225.7 766.4,226.2 767.6,225.2 768.8,225.2 769.9,217.9 771.1,226.4 772.2,174.3 773.4,213.0 774.5,226.3 775.7,216.7 776.9,220.8 778.0,234.7 779.2,218.6 780.3,217.7 781.5,235.3 782.7,224.9 783.8,230.9 785.0,226.3 786.1,226.3 787.3,233.2 788.5,223.3 789.6,214.1 790.8,210.8 791.9,235.7 793.1,226.0 794.2,227.3 795.4,221.8 796.6,226.2 797.7,214.5 798.9,231.9 800.0,226.6 801.2,226.3 802.4,236.4 803.5,233.0 804.7,226.3 805.8,239.6 807.0,226.7 808.1,226.4 809.3,240.1 810.5,217.6 811.6,233.3 812.8,230.7 813.9,237.3 815.1,226.7 816.3,228.3 817.4,225.2 818.6,226.4 819.7,227.4 820.9,226.3 822.0,221.3 823.2,211.2 824.4,197.3 825.5,227.5 826.7,214.8 827.8,232.3 829.0,226.2 830.2,226.3 831.3,202.3 832.5,210.9 833.6,226.4 834.8,220.6 835.9,223.3 837.1,226.4 838.3,191.2 839.4,218.2 840.6,226.3 841.7,233.3 842.9,227.4 844.1,236.4 845.2,222.0 846.4,219.4 847.5,236.4 848.7,201.0 849.8,226.3 851.0,226.6 852.2,219.4 853.3,226.2 854.5,226.4 855.6,226.4 856.8,224.2 858.0,218.6 859.1,202.6 860.3,185.3 861.4,226.4 862.6,226.7 863.7,202.9 864.9,230.1 866.1,229.6 867.2,244.4 868.4,243.2 869.5,240.6 870.7,239.9 871.9,194.3 873.0,248.1 874.2,211.3 875.3,236.5 876.5,244.4 877.7,243.5 878.8,226.4 880.0,176.0 881.1,226.3 882.3,197.1 883.4,232.2 884.6,239.5 885.8,244.3 886.9,223.3 888.1,231.2 889.2,259.7 890.4,171.9 891.6,202.8 892.7,259.9 893.9,226.4 895.0,229.2 896.2,226.3 897.3,239.9 898.5,226.3 899.7,233.3 900.8,219.4 902.0,183.2 903.1,226.4 904.3,207.1 905.5,212.7 906.6,211.2 907.8,202.4 908.9,226.8 910.1,230.5 911.2,246.6 912.4,215.9 913.6,243.9 914.7,227.6 915.9,235.1 917.0,233.2 918.2,244.3 919.4,232.4 920.5,240.9 921.7,251.3 922.8,248.8 924.0,255.6 925.1,239.6 926.3,241.9 927.5,244.2 928.6,202.0 929.8,197.2 930.9,227.5 932.1,220.9 933.3,226.5 934.4,219.4 935.6,219.5 936.7,236.3 937.9,239.6 939.0,240.4 940.2,249.2 941.4,241.5 942.5,240.4 943.7,233.9 944.8,209.7 946.0,239.2" fill="none" stroke="#d97706" stroke-width="2.2" stroke-linejoin="round" stroke-linecap="round"/>
<line x1="76" y1="70" x2="94" y2="70" stroke="#2563eb" stroke-width="3"/>
<text x="100" y="74" font-family="Arial, sans-serif" font-size="11" fill="#0f172a">avg fee</text>
<line x1="179" y1="70" x2="197" y2="70" stroke="#059669" stroke-width="3"/>
<text x="203" y="74" font-family="Arial, sans-serif" font-size="11" fill="#0f172a">median fee</text>
<line x1="303" y1="70" x2="321" y2="70" stroke="#d97706" stroke-width="3"/>
<text x="327" y="74" font-family="Arial, sans-serif" font-size="11" fill="#0f172a">p90 fee</text>
<text x="28" y="404" font-family="Arial, sans-serif" font-size="11" fill="#64748b">Source: hourly_features.csv</text>
</svg>