<svg xmlns="http://www.w3.org/2000/svg" width="980" height="420" viewBox="0 0 980 420">
<rect width="100%" height="100%" fill="#ffffff"/>
<text x="28" y="34" font-family="Arial, sans-serif" font-size="20" font-weight="700" fill="#0f172a">Hourly fee trend</text>
<text x="28" y="56" font-family="Arial, sans-serif" font-size="12" fill="#64748b">Average, median, and p90 total fee by hour</text>
<line x1="76" y1="362.0" x2="946" y2="362.0" stroke="#e2e8f0" stroke-width="1"/>
<text x="68" y="366.0" font-family="Arial, sans-serif" font-size="10" text-anchor="end" fill="#64748b">-382K</text>
<line x1="76" y1="292.0" x2="946" y2="292.0" stroke="#e2e8f0" stroke-width="1"/>
<text x="68" y="296.0" font-family="Arial, sans-serif" font-size="10" text-anchor="end" fill="#64748b">2.6M</text>
<line x1="76" y1="222.0" x2="946" y2="222.0" stroke="#e2e8f0" stroke-width="1"/>
<text x="68" y="226.0" font-family="Arial, sans-serif" font-size="10" text-anchor="end" fill="#64748b">5.7M</text>
<line x1="76" y1="152.0" x2="946" y2="152.0" stroke="#e2e8f0" stroke-width="1"/>
<text x="68" y="156.0" font-family="Arial, sans-serif" font-size="10" text-anchor="end" fill="#64748b">8.7M</text>
<line x1="76" y1="82.0" x2="946" y2="82.0" stroke="#e2e8f0" stroke-width="1"/>
<text x="68" y="86.0" font-family="Arial, sans-serif" font-size="10" text-anchor="end" fill="#64748b">11.7M</text>
<line x1="76" y1="362" x2="946" y2="362" stroke="#334155" stroke-width="1"/>
<line x1="76" y1="82" x2="76" y2="362" stroke="#334155" stroke-width="1"/>
<text x="76" y="72" font-family="Arial, sans-serif" font-size="11" fill="#64748b">nanoton</text>
<line x1="76.0" y1="362" x2="76.0" y2="366" stroke="#334155" stroke-width="1"/>
<text x="76.0" y="380" font-family="Arial, sans-serif" font-size="10" text-anchor="middle" fill="#64748b">0</text>
<line x1="511.5" y1="362" x2="511.5" y2="366" stroke="#334155" stroke-width="1"/>
<text x="511.5" y="380" font-family="Arial, sans-serif" font-size="10" text-anchor="middle" fill="#64748b">450</text>
<line x1="946.0" y1="362" x2="946.0" y2="366" stroke="#334155" stroke-width="1"/>
<text x="946.0" y="380" font-family="Arial, sans-serif" font-size="10" text-anchor="middle" fill="#64748b">899</text>
<polyline points="76.0,290.8 77.0,294.6 77.9,296.0 78.9,298.1 79.9,304.8 80.8,297.2 81.8,298.2 82.8,294.6 83.7,299.0 84.7,298.7 85.7,287.8 86.6,299.5 87.6,299.7 88.6,297.4 89.5,300.3 90.5,300.5 91.5,292.5 92.5,292.5 93.4,301.3 94.4,291.1 95.4,289.2 96.3,287.3 97.3,293.8 98.3,294.2 99.2,296.1 100.2,292.1 101.2,297.7 102.1,290.6 103.1,293.2 104.1,288.3 105.0,289.0 106.0,273.1 107.0,284.7 107.9,285.3 108.9,294.6 109.9,299.9 110.8,292.9 111.8,294.9 112.8,304.7 113.7,307.5 114.7,302.1 115.7,297.0 116.6,298.7 117.6,297.9 118.6,304.4 119.5,297.4 120.5,294.5 121.5,296.5 122.5,298.7 123.4,303.1 124.4,303.1 125.4,301.9 126.3,300.3 127.3,303.3 128.3,302.2 129.2,299.4 130.2,299.1 131.2,302.8 132.1,299.1 133.1,301.3 134.1,306.8 135.0,308.7 136.0,306.4 137.0,307.1 137.9,309.1 138.9,305.9 139.9,305.5 140.8,302.0 141.8,308.5 142.8,290.7 143.7,306.4 144.7,306.4 145.7,306.3 146.6,311.2 147.6,307.1 148.6,310.3 149.5,309.1 150.5,305.5 151.5,305.4 152.5,303.2 153.4,303.5 154.4,301.3 155.4,305.1 156.3,307.4 157.3,306.9 158.3,308.1 159.2,305.0 160.2,302.9 161.2,302.7 162.1,298.6 163.1,304.9 164.1,297.0 165.0,299.3 166.0,300.3 167.0,303.9 167.9,311.6 168.9,300.1 169.9,300.5 170.8,308.9 171.8,307.5 172.8,300.3 173.7,304.2 174.7,305.1 175.7,302.6 176.6,300.5 177.6,297.4 178.6,298.7 179.5,301.9 180.5,308.1 181.5,307.4 182.5,307.4 183.4,303.1 184.4,301.9 185.4,304.1 186.3,303.9 187.3,304.0 188.3,308.3 189.2,308.9 190.2,307.3 191.2,301.1 192.1,286.9 193.1,301.6 194.1,298.8 195.0,296.1 196.0,299.6 197.0,305.5 197.9,301.5 198.9,304.9 199.9,302.2 200.8,304.9 201.8,306.8 202.8,304.9 203.7,300.8 204.7,304.8 205.7,308.0 206.6,302.4 207.6,301.7 208.6,303.1 209.5,303.4 210.5,298.9 211.5,298.5 212.5,298.0 213.4,289.4 214.4,296.9 215.4,296.4 216.3,295.5 217.3,299.6 218.3,299.0 219.2,304.6 220.2,304.0 221.2,303.8 222.1,299.2 223.1,301.2 224.1,305.7 225.0,304.5 226.0,312.1 227.0,305.7 227.9,304.3 228.9,307.0 229.9,306.9 230.8,301.9 231.8,303.8 232.8,300.8 233.7,301.6 234.7,300.2 235.7,298.7 236.6,290.6 237.6,296.1 238.6,300.6 239.5,296.6 240.5,302.7 241.5,302.6 242.5,303.0 243.4,302.7 244.4,302.8 245.4,303.7 246.3,300.1 247.3,305.6 248.3,303.0 249.2,299.2 250.2,302.8 251.2,306.7 252.1,306.1 253.1,306.7 254.1,298.5 255.0,301.6 256.0,297.8 257.0,303.8 257.9,300.2 258.9,299.5 259.9,295.6 260.8,298.2 261.8,298.4 262.8,293.8 263.7,299.9 264.7,297.9 265.7,298.6 266.6,294.2 267.6,297.8 268.6,278.0 269.5,284.2 270.5,295.2 271.5,295.7 272.5,294.4 273.4,300.7 274.4,304.3 275.4,302.4 276.3,302.1 277.3,297.9 278.3,295.3 279.2,296.5 280.2,291.4 281.2,292.0 282.1,290.6 283.1,290.0 284.1,299.7 285.0,291.9 286.0,296.8 287.0,299.8 287.9,303.8 288.9,302.5 289.9,302.1 290.8,302.3 291.8,300.8 292.8,303.5 293.7,295.9 294.7,297.8 295.7,304.4 296.6,304.2 297.6,299.5 298.6,303.9 299.5,303.5 300.5,299.0 301.5,288.7 302.5,293.7 303.4,294.2 304.4,303.7 305.4,295.6 306.3,297.0 307.3,305.6 308.3,294.8 309.2,300.5 310.2,305.1 311.2,308.5 312.1,305.5 313.1,304.0 314.1,300.7 315.0,303.8 316.0,299.3 317.0,303.0 317.9,305.0 318.9,303.0 319.9,299.3 320.8,294.4 321.8,299.9 322.8,286.2 323.7,302.1 324.7,293.9 325.7,297.9 326.6,299.5 327.6,297.4 328.6,294.4 329.5,310.4 330.5,291.6 331.5,295.6 332.5,281.6 333.4,294.6 334.4,293.2 335.4,295.0 336.3,291.0 337.3,301.0 338.3,279.9 339.2,297.2 340.2,291.8 341.2,291.5 342.1,283.3 343.1,298.3 344.1,300.4 345.0,298.6 346.0,288.4 347.0,299.0 347.9,304.4 348.9,297.7 349.9,295.5 350.8,279.8 351.8,284.2 352.8,300.5 353.7,299.9 354.7,298.1 355.7,293.4 356.6,303.1 357.6,303.0 358.6,298.6 359.5,296.8 360.5,297.4 361.5,301.3 362.5,298.1 363.4,311.4 364.4,299.4 365.4,303.5 366.3,301.2 367.3,302.9 368.3,304.3 369.2,297.8 370.2,294.4 371.2,299.3 372.1,295.1 373.1,301.8 374.1,292.6 375.0,297.6 376.0,293.9 377.0,290.0 377.9,295.1 378.9,304.6 379.9,291.1 380.8,300.3 381.8,295.9 382.8,293.1 383.7,291.6 384.7,296.8 385.7,297.1 386.6,297.9 387.6,299.5 388.6,292.8 389.5,286.2 390.5,290.1 391.5,300.0 392.5,294.5 393.4,300.9 394.4,303.0 395.4,299.1 396.3,302.5 397.3,295.1 398.3,297.0 399.2,302.8 400.2,301.7 401.2,303.0 402.1,308.6 403.1,306.8 404.1,306.1 405.0,306.5 406.0,304.3 407.0,304.5 407.9,298.3 408.9,301.1 409.9,303.1 410.8,303.3 411.8,304.2 412.8,302.4 413.7,299.4 414.7,304.5 415.7,307.1 416.6,297.3 417.6,298.9 418.6,298.1 419.5,299.7 420.5,297.8 421.5,301.0 422.5,287.2 423.4,294.3 424.4,294.8 425.4,298.6 426.3,291.3 427.3,298.4 428.3,294.6 429.2,298.7 430.2,304.2 431.2,282.2 432.1,289.8 433.1,298.8 434.1,295.1 435.0,293.4 436.0,294.7 437.0,304.3 437.9,296.9 438.9,301.7 439.9,296.7 440.8,295.6 441.8,292.9 442.8,291.6 443.7,286.7 444.7,287.8 445.7,294.2 446.6,292.6 447.6,297.5 448.6,303.1 449.5,296.8 450.5,304.1 451.5,298.7 452.5,297.8 453.4,299.3 454.4,297.1 455.4,296.6 456.3,305.5 457.3,301.9 458.3,304.5 459.2,302.9 460.2,303.4 461.2,302.7 462.1,304.5 463.1,301.7 464.1,300.0 465.0,297.3 466.0,295.0 467.0,305.0 467.9,302.7 468.9,303.7 469.9,302.8 470.8,298.5 471.8,257.0 472.8,291.0 473.7,298.5 474.7,296.3 475.7,301.0 476.6,301.6 477.6,299.9 478.6,299.3 479.5,299.6 480.5,296.0 481.5,299.4 482.5,305.6 483.4,306.5 484.4,300.9 485.4,302.7 486.3,295.0 487.3,302.2 488.3,296.9 489.2,304.8 490.2,299.1 491.2,295.6 492.1,295.1 493.1,300.9 494.1,301.0 495.0,300.7 496.0,304.5 497.0,292.6 497.9,303.5 498.9,306.0 499.9,295.5 500.8,297.4 501.8,302.8 502.8,295.8 503.7,299.5 504.7,304.0 505.7,301.7 506.6,303.8 507.6,300.8 508.6,306.1 509.5,305.6 510.5,300.8 511.5,303.2 512.5,297.1 513.4,300.2 514.4,292.3 515.4,292.0 516.3,292.1 517.3,299.3 518.3,298.5 519.2,298.8 520.2,301.5 521.2,299.6 522.1,305.3 523.1,300.2 524.1,300.6 525.0,304.7 526.0,299.2 527.0,304.4 527.9,299.7 528.9,306.4 529.9,299.1 530.8,304.5 531.8,303.3 532.8,298.0 533.7,263.7 534.7,302.9 535.7,304.6 536.6,301.3 537.6,300.8 538.6,298.3 539.5,299.9 540.5,302.7 541.5,298.6 542.5,304.0 543.4,302.8 544.4,303.0 545.4,301.1 546.3,308.3 547.3,304.5 548.3,309.0 549.2,304.5 550.2,303.7 551.2,304.9 552.1,303.6 553.1,305.3 554.1,299.5 555.0,305.2 556.0,297.1 557.0,302.2 557.9,288.1 558.9,294.6 559.9,299.7 560.8,287.4 561.8,299.0 562.8,298.4 563.7,296.8 564.7,301.1 565.7,299.5 566.6,302.6 567.6,299.3 568.6,303.0 569.5,298.0 570.5,301.6 571.5,305.3 572.5,304.5 573.4,290.4 574.4,303.1 575.4,299.6 576.3,302.4 577.3,303.1 578.3,304.7 579.2,296.3 580.2,301.7 581.2,292.9 582.1,298.2 583.1,294.8 584.1,293.5 585.0,299.4 586.0,297.4 587.0,300.4 587.9,295.6 588.9,301.5 589.9,282.6 590.8,297.4 591.8,291.2 592.8,300.8 593.7,281.3 594.7,303.6 595.7,292.1 596.6,296.5 597.6,300.9 598.6,293.9 599.5,295.3 600.5,305.2 601.5,304.7 602.5,300.3 603.4,302.0 604.4,297.5 605.4,295.0 606.3,296.6 607.3,292.7 608.3,298.7 609.2,291.1 610.2,289.9 611.2,292.8 612.1,302.6 613.1,303.5 614.1,301.6 615.0,297.5 616.0,303.0 617.0,302.5 617.9,299.3 618.9,300.0 619.9,295.7 620.8,300.6 621.8,302.5 622.8,302.2 623.7,300.7 624.7,305.4 625.7,305.1 626.6,301.0 627.6,294.2 628.6,301.0 629.5,298.9 630.5,290.4 631.5,295.9 632.5,294.1 633.4,301.3 634.4,298.2 635.4,299.2 636.3,302.6 637.3,300.9 638.3,299.2 639.2,302.7 640.2,303.6 641.2,299.5 642.1,304.4 643.1,298.2 644.1,302.7 645.0,304.9 646.0,303.3 647.0,303.8 647.9,305.7 648.9,294.6 649.9,306.7 650.8,303.7 651.8,295.1 652.8,294.1 653.7,293.7 654.7,295.9 655.7,295.9 656.6,298.1 657.6,284.7 658.6,294.9 659.5,298.6 660.5,296.3 661.5,294.2 662.5,300.6 663.4,294.3 664.4,295.9 665.4,303.8 666.3,295.8 667.3,302.6 668.3,297.7 669.2,300.0 670.2,300.7 671.2,298.3 672.1,294.8 673.1,295.8 674.1,303.0 675.0,295.6 676.0,296.0 677.0,295.2 677.9,295.3 678.9,295.0 679.9,299.9 680.8,299.0 681.8,295.9 682.8,303.3 683.7,302.9 684.7,298.2 685.7,305.5 686.6,300.9 687.6,300.4 688.6,305.2 689.5,295.8 690.5,301.8 691.5,303.2 692.5,304.6 693.4,299.1 694.4,301.0 695.4,298.0 696.3,298.8 697.3,297.3 698.3,300.8 699.2,296.0 700.2,293.0 701.2,284.2 702.1,298.8 703.1,293.9 704.1,298.9 705.0,298.8 706.0,298.0 707.0,291.0 707.9,292.3 708.9,298.2 709.9,297.5 710.8,297.5 711.8,298.5 712.8,288.2 713.7,296.5 714.7,297.3 715.7,301.7 716.6,301.0 717.6,305.4 718.6,295.8 719.5,295.1 720.5,299.8 721.5,289.6 722.5,296.7 723.4,295.1 724.4,295.1 725.4,294.8 726.3,297.5 727.3,299.5 728.3,295.8 729.2,297.0 730.2,291.7 731.2,285.1 732.1,299.7 733.1,301.0 734.1,293.6 735.0,302.3 736.0,297.5 737.0,307.7 737.9,292.5 738.9,304.9 739.9,304.1 740.8,291.9 741.8,305.2 742.8,297.8 743.7,298.1 744.7,307.4 745.7,305.4 746.6,294.0 747.6,284.5 748.6,295.7 749.5,281.6 750.5,295.8 751.5,307.1 752.5,303.5 753.4,299.2 754.4,301.5 755.4,309.0 756.3,287.8 757.3,293.3 758.3,314.3 759.2,300.8 760.2,304.2 761.2,299.2 762.1,305.4 763.1,297.5 764.1,303.5 765.0,297.3 766.0,286.2 767.0,295.6 767.9,293.4 768.9,295.3 769.9,292.6 770.8,295.0 771.8,297.5 772.8,303.2 773.7,307.8 774.7,295.2 775.7,306.6 776.6,305.0 777.6,305.4 778.6,303.1 779.5,297.4 780.5,293.5 781.5,305.0 782.5,310.4 783.4,306.6 784.4,309.4 785.4,304.0 786.3,307.8 787.3,308.2 788.3,299.0 789.2,288.2 790.2,297.1 791.2,298.1 792.1,298.6 793.1,298.7 794.1,295.2 795.0,305.8 796.0,307.8 797.0,304.4 797.9,309.3 798.9,306.7 799.9,303.2 800.8,303.6 801.8,296.5 802.8,304.1 803.7,305.5 804.7,308.2 805.7,291.8 806.6,301.9 807.6,305.3 808.6,302.2 809.5,300.9 810.5,302.7 811.5,295.0 812.5,295.0 813.4,295.3 814.4,299.1 815.4,299.0 816.3,300.9 817.3,304.6 818.3,307.3 819.2,303.1 820.2,300.9 821.2,303.0 822.1,290.9 823.1,301.1 824.1,301.9 825.0,302.0 826.0,295.6 827.0,306.6 827.9,304.1 828.9,288.8 829.9,297.4 830.8,295.3 831.8,295.7 832.8,296.1 833.7,306.3 834.7,300.3 835.7,304.9 836.6,295.7 837.6,303.6 838.6,305.1 839.5,302.6 840.5,301.6 841.5,285.2 842.5,304.3 843.4,334.7 844.4,343.7 845.4,343.8 846.3,343.5 847.3,344.0 848.3,319.0 849.2,342.3 850.2,343.1 851.2,342.6 852.1,343.4 853.1,343.4 854.1,343.4 855.0,338.9 856.0,343.5 857.0,344.5 857.9,342.7 858.9,342.0 859.9,343.8 860.8,343.0 861.8,343.2 862.8,340.3 863.7,342.7 864.7,343.4 865.7,342.2 866.6,343.9 867.6,341.8 868.6,341.2 869.5,342.8 870.5,342.4 871.5,343.3 872.5,344.8 873.4,343.7 874.4,343.3 875.4,344.0 876.3,342.7 877.3,343.5 878.3,341.8 879.2,340.1 880.2,342.3 881.2,342.4 882.1,339.6 883.1,341.5 884.1,340.5 885.0,343.1 886.0,341.6 887.0,340.5 887.9,342.3 888.9,342.5 889.9,342.2 890.8,343.0 891.8,342.6 892.8,342.9 893.7,343.5 894.7,342.4 895.7,340.9 896.6,341.4 897.6,342.5 898.6,343.3 899.5,343.5 900.5,343.3 901.5,343.2 902.5,342.6 903.4,341.1 904.4,340.9 905.4,341.6 906.3,340.6 907.3,341.3 908.3,341.0 909.2,342.8 910.2,341.5 911.2,342.2 912.1,341.5 913.1,342.8 914.1,341.0 915.0,340.5 916.0,341.9 917.0,341.5 917.9,341.0 918.9,338.4 919.9,325.0 920.8,339.0 921.8,340.0 922.8,339.6 923.7,341.0 924.7,338.3 925.7,339.7 926.6,338.7 927.6,339.5 928.6,333.1 929.5,340.3 930.5,337.2 931.5,337.3 932.5,338.6 933.4,339.3 934.4,338.5 935.4,337.9 936.3,338.6 937.3,339.5 938.3,339.1 939.2,339.5 940.2,339.7 941.2,337.8 942.1,338.7 943.1,338.4 944.1,336.7 945.0,338.9 946.0,340.3" fill="none" stroke="#2563eb" stroke-width="2.2" stroke-linejoin="round" stroke-linecap="round"/>
<polyline points="76.0,311.4 77.0,324.9 77.9,334.1 78.9,334.5 79.9,335.0 80.8,334.6 81.8,334.4 82.8,330.8 83.7,334.6 84.7,334.6 85.7,320.5 86.6,334.6 87.6,334.2 88.6,330.7 89.5,334.4 90.5,333.8 91.5,321.1 92.5,330.5 93.4,332.4 94.4,310.6 95.4,302.9 96.3,305.9 97.3,320.5 98.3,315.5 99.2,310.4 100.2,329.8 101.2,333.4 102.1,312.5 103.1,335.0 104.1,319.0 105.0,330.5 106.0,283.8 107.0,300.4 107.9,303.3 108.9,308.3 109.9,331.3 110.8,312.5 111.8,310.6 112.8,334.9 113.7,335.0 114.7,329.7 115.7,310.6 116.6,310.6 117.6,312.5 118.6,340.8 119.5,334.9 120.5,308.9 121.5,310.3 122.5,334.9 123.4,335.3 124.4,334.2 125.4,333.4 126.3,333.9 127.3,334.6 128.3,331.5 129.2,334.6 130.2,330.9 131.2,334.3 132.1,334.6 133.1,334.2 134.1,335.0 135.0,334.9 136.0,334.9 137.0,344.0 137.9,335.8 138.9,334.9 139.9,334.9 140.8,330.7 141.8,344.0 142.8,335.6 143.7,336.2 144.7,336.2 145.7,335.0 146.6,338.1 147.6,336.2 148.6,336.1 149.5,335.1 150.5,335.0 151.5,335.0 152.5,334.5 153.4,335.0 154.4,334.6 155.4,334.6 156.3,335.0 157.3,335.0 158.3,335.0 159.2,334.3 160.2,334.9 161.2,334.9 162.1,330.7 163.1,334.7 164.1,312.2 165.0,329.6 166.0,331.1 167.0,333.8 167.9,344.0 168.9,330.6 169.9,333.8 170.8,335.0 171.8,336.2 172.8,334.7 173.7,334.7 174.7,334.8 175.7,334.6 176.6,331.0 177.6,330.5 178.6,331.5 179.5,333.0 180.5,335.0 181.5,334.9 182.5,334.9 183.4,334.1 184.4,334.9 185.4,334.9 186.3,331.5 187.3,332.3 188.3,336.2 189.2,344.0 190.2,336.1 191.2,335.0 192.1,310.1 193.1,334.9 194.1,334.5 195.0,334.7 196.0,333.8 197.0,334.9 197.9,334.0 198.9,334.9 199.9,334.9 200.8,334.9 201.8,335.0 202.8,334.7 203.7,333.2 204.7,334.9 205.7,335.0 206.6,335.0 207.6,334.1 208.6,334.2 209.5,330.3 210.5,310.6 211.5,298.7 212.5,309.8 213.4,304.4 214.4,310.2 215.4,310.1 216.3,327.6 217.3,333.0 218.3,333.8 219.2,333.8 220.2,334.9 221.2,334.9 222.1,333.8 223.1,334.7 224.1,334.7 225.0,334.6 226.0,344.0 227.0,334.9 227.9,334.9 228.9,335.0 229.9,335.0 230.8,333.8 231.8,334.4 232.8,330.9 233.7,319.7 234.7,298.7 235.7,334.1 236.6,326.9 237.6,334.7 238.6,331.8 239.5,331.8 240.5,331.4 241.5,334.7 242.5,334.4 243.4,334.6 244.4,334.6 245.4,330.7 246.3,330.7 247.3,334.9 248.3,334.4 249.2,331.0 250.2,334.6 251.2,335.0 252.1,334.6 253.1,334.9 254.1,330.5 255.0,334.3 256.0,315.6 257.0,334.6 257.9,298.7 258.9,334.0 259.9,329.7 260.8,332.6 261.8,331.8 262.8,310.6 263.7,331.8 264.7,332.3 265.7,334.6 266.6,323.8 267.6,334.0 268.6,295.8 269.5,298.7 270.5,327.1 271.5,331.1 272.5,330.7 273.4,332.3 274.4,334.6 275.4,334.7 276.3,334.1 277.3,324.8 278.3,315.1 279.2,308.6 280.2,305.4 281.2,298.7 282.1,306.5 283.1,305.4 284.1,331.7 285.0,305.5 286.0,317.0 287.0,333.4 287.9,335.0 288.9,334.1 289.9,335.0 290.8,334.9 291.8,333.7 292.8,335.0 293.7,319.7 294.7,319.7 295.7,334.1 296.6,333.8 297.6,333.4 298.6,334.7 299.5,334.6 300.5,331.3 301.5,305.4 302.5,308.2 303.4,308.3 304.4,298.7 305.4,310.2 306.3,335.5 307.3,336.2 308.3,312.5 309.2,334.5 310.2,336.2 311.2,335.9 312.1,336.2 313.1,335.0 314.1,333.8 315.0,334.3 316.0,334.4 317.0,333.5 317.9,334.6 318.9,334.4 319.9,329.6 320.8,308.9 321.8,334.1 322.8,308.2 323.7,334.4 324.7,310.7 325.7,310.3 326.6,325.1 327.6,305.5 328.6,319.7 329.5,344.0 330.5,315.6 331.5,334.2 332.5,308.2 333.4,309.9 334.4,330.0 335.4,334.1 336.3,335.0 337.3,333.2 338.3,323.8 339.2,333.8 340.2,308.2 341.2,306.1 342.1,323.8 343.1,315.6 344.1,333.4 345.0,332.6 346.0,303.2 347.0,334.1 347.9,334.7 348.9,326.5 349.9,333.8 350.8,320.8 351.8,333.7 352.8,333.7 353.7,334.1 354.7,330.7 355.7,331.8 356.6,333.7 357.6,334.6 358.6,333.8 359.5,333.0 360.5,310.6 361.5,334.7 362.5,330.7 363.4,345.9 364.4,333.8 365.4,334.7 366.3,333.7 367.3,334.7 368.3,334.7 369.2,310.6 370.2,315.4 371.2,332.0 372.1,310.5 373.1,331.7 374.1,305.3 375.0,330.5 376.0,326.9 377.0,302.2 377.9,309.7 378.9,335.9 379.9,333.4 380.8,334.9 381.8,334.4 382.8,306.5 383.7,306.5 384.7,318.3 385.7,320.1 386.6,323.6 387.6,331.8 388.6,310.6 389.5,305.4 390.5,308.2 391.5,331.8 392.5,305.2 393.4,330.5 394.4,334.1 395.4,326.7 396.3,330.7 397.3,305.4 398.3,308.2 399.2,333.8 400.2,334.1 401.2,335.0 402.1,340.8 403.1,336.2 404.1,336.1 405.0,335.0 406.0,336.2 407.0,335.8 407.9,333.8 408.9,334.4 409.9,335.0 410.8,334.8 411.8,334.9 412.8,334.6 413.7,331.8 414.7,334.5 415.7,335.0 416.6,329.1 417.6,330.7 418.6,325.8 419.5,325.3 420.5,308.2 421.5,333.5 422.5,308.4 423.4,310.3 424.4,330.5 425.4,319.6 426.3,308.3 427.3,334.6 428.3,318.7 429.2,335.8 430.2,335.0 431.2,297.6 432.1,305.3 433.1,325.3 434.1,325.7 435.0,318.9 436.0,310.3 437.0,334.9 437.9,321.4 438.9,334.2 439.9,331.5 440.8,329.7 441.8,309.6 442.8,308.4 443.7,298.7 444.7,302.7 445.7,305.5 446.6,309.0 447.6,331.8 448.6,334.0 449.5,329.6 450.5,334.7 451.5,333.8 452.5,335.0 453.4,334.0 454.4,334.0 455.4,325.3 456.3,334.9 457.3,334.5 458.3,334.6 459.2,334.7 460.2,334.7 461.2,334.7 462.1,334.6 463.1,334.1 464.1,326.9 465.0,326.6 466.0,305.4 467.0,343.0 467.9,335.3 468.9,344.0 469.9,335.0 470.8,329.1 471.8,301.0 472.8,334.2 473.7,334.1 474.7,315.6 475.7,335.0 476.6,334.1 477.6,334.6 478.6,333.6 479.5,330.5 480.5,330.4 481.5,333.8 482.5,335.0 483.4,335.0 484.4,333.2 485.4,334.4 486.3,310.5 487.3,332.0 488.3,310.1 489.2,332.7 490.2,305.4 491.2,309.8 492.1,310.6 493.1,330.0 494.1,333.8 495.0,332.4 496.0,335.3 497.0,318.3 497.9,334.7 498.9,336.2 499.9,331.4 500.8,325.8 501.8,334.6 502.8,331.3 503.7,331.8 504.7,334.7 505.7,334.5 506.6,333.8 507.6,330.7 508.6,334.9 509.5,334.8 510.5,331.8 511.5,333.2 512.5,310.7 513.4,330.5 514.4,308.2 515.4,308.4 516.3,305.4 517.3,330.4 518.3,326.9 519.2,330.4 520.2,334.9 521.2,331.5 522.1,335.0 523.1,334.6 524.1,334.1 525.0,334.9 526.0,334.7 527.0,335.0 527.9,333.8 528.9,335.0 529.9,333.3 530.8,334.6 531.8,335.0 532.8,332.7 533.7,283.6 534.7,333.8 535.7,335.0 536.6,319.3 537.6,331.1 538.6,329.7 539.5,331.8 540.5,334.1 541.5,334.6 542.5,334.9 543.4,334.7 544.4,334.6 545.4,334.8 546.3,335.0 547.3,334.9 548.3,335.0 549.2,334.9 550.2,334.7 551.2,334.9 552.1,335.0 553.1,334.7 554.1,334.1 555.0,335.7 556.0,334.1 557.0,334.4 557.9,305.3 558.9,319.6 559.9,309.3 560.8,300.7 561.8,310.4 562.8,330.5 563.7,310.6 564.7,330.5 565.7,333.0 566.6,334.7 567.6,333.8 568.6,334.1 569.5,330.9 570.5,334.7 571.5,334.9 572.5,334.9 573.4,305.4 574.4,334.4 575.4,331.0 576.3,335.0 577.3,333.8 578.3,335.0 579.2,333.8 580.2,334.9 581.2,310.6 582.1,334.3 583.1,306.4 584.1,308.4 585.0,333.8 586.0,330.9 587.0,334.1 587.9,329.7 588.9,334.3 589.9,305.3 590.8,330.7 591.8,328.8 592.8,333.8 593.7,295.8 594.7,334.6 595.7,310.6 596.6,310.6 597.6,333.8 598.6,318.4 599.5,318.5 600.5,334.2 601.5,334.9 602.5,334.1 603.4,334.1 604.4,330.4 605.4,308.2 606.3,308.2 607.3,310.2 608.3,333.8 609.2,310.6 610.2,310.4 611.2,327.3 612.1,332.0 613.1,335.0 614.1,334.6 615.0,334.0 616.0,334.6 617.0,334.5 617.9,330.7 618.9,333.5 619.9,331.5 620.8,334.6 621.8,334.1 622.8,333.8 623.7,330.7 624.7,334.7 625.7,334.9 626.6,332.0 627.6,307.0 628.6,326.1 629.5,305.4 630.5,306.4 631.5,309.0 632.5,306.4 633.4,334.6 634.4,327.0 635.4,333.8 636.3,333.2 637.3,334.1 638.3,335.0 639.2,334.6 640.2,333.9 641.2,333.8 642.1,334.7 643.1,330.7 644.1,331.8 645.0,334.9 646.0,334.1 647.0,334.6 647.9,334.9 648.9,327.5 649.9,335.0 650.8,333.6 651.8,319.7 652.8,302.9 653.7,310.1 654.7,327.5 655.7,326.8 656.6,323.6 657.6,298.7 658.6,310.6 659.5,331.1 660.5,330.7 661.5,334.6 662.5,324.6 663.4,323.8 664.4,330.4 665.4,333.8 666.3,330.7 667.3,334.6 668.3,323.9 669.2,333.2 670.2,334.1 671.2,325.7 672.1,309.1 673.1,315.6 674.1,333.8 675.0,308.5 676.0,306.5 677.0,308.2 677.9,310.2 678.9,312.5 679.9,331.0 680.8,331.9 681.8,317.9 682.8,334.6 683.7,335.0 684.7,335.0 685.7,335.0 686.6,334.6 687.6,333.8 688.6,334.9 689.5,330.4 690.5,334.3 691.5,334.6 692.5,334.2 693.4,333.8 694.4,335.0 695.4,330.7 696.3,333.8 697.3,315.5 698.3,330.7 699.2,305.4 700.2,324.4 701.2,306.5 702.1,331.8 703.1,308.9 704.1,333.8 705.0,333.8 706.0,331.2 707.0,310.7 707.9,333.8 708.9,330.0 709.9,327.2 710.8,323.8 711.8,330.0 712.8,305.0 713.7,312.5 714.7,333.8 715.7,332.0 716.6,329.7 717.6,333.8 718.6,322.8 719.5,308.3 720.5,310.4 721.5,305.2 722.5,305.4 723.4,308.2 724.4,310.7 725.4,310.1 726.3,319.6 727.3,325.7 728.3,330.8 729.2,330.9 730.2,305.4 731.2,305.2 732.1,333.8 733.1,331.0 734.1,305.4 735.0,334.7 736.0,308.3 737.0,334.1 737.9,334.7 738.9,332.8 739.9,332.9 740.8,308.2 741.8,335.0 742.8,330.4 743.7,310.4 744.7,330.0 745.7,326.8 746.6,305.9 747.6,306.4 748.6,323.8 749.5,296.7 750.5,334.1 751.5,335.0 752.5,335.0 753.4,331.5 754.4,334.7 755.4,335.0 756.3,304.3 757.3,308.2 758.3,335.0 759.2,331.8 760.2,334.5 761.2,331.2 762.1,334.7 763.1,331.8 764.1,321.5 765.0,334.9 766.0,331.9 767.0,310.4 767.9,308.3 768.9,305.4 769.9,305.9 770.8,305.7 771.8,324.6 772.8,330.7 773.7,334.5 774.7,331.6 775.7,335.0 776.6,335.0 777.6,335.0 778.6,322.4 779.5,334.9 780.5,331.1 781.5,335.0 782.5,344.0 783.4,344.0 784.4,344.0 785.4,334.6 786.3,335.0 787.3,335.0 788.3,334.4 789.2,311.6 790.2,308.9 791.2,308.2 792.1,308.1 793.1,330.4 794.1,308.6 795.0,337.4 796.0,335.0 797.0,335.0 797.9,335.0 798.9,331.8 799.9,332.0 800.8,334.1 801.8,330.5 802.8,334.6 803.7,335.0 804.7,334.9 805.7,312.5 806.6,333.8 807.6,332.0 808.6,333.8 809.5,331.7 810.5,331.0 811.5,310.7 812.5,308.6 813.4,314.0 814.4,327.1 815.4,304.8 816.3,340.8 817.3,341.6 818.3,335.0 819.2,334.6 820.2,334.6 821.2,324.6 822.1,317.8 823.1,346.0 824.1,334.6 825.0,334.9 826.0,317.9 827.0,344.0 827.9,334.0 828.9,321.8 829.9,332.8 830.8,325.5 831.8,333.8 832.8,313.7 833.7,334.6 834.7,328.5 835.7,331.2 836.6,305.4 837.6,331.0 838.6,310.0 839.5,331.4 840.5,330.2 841.5,290.8 842.5,335.0 843.4,347.8 844.4,350.1 845.4,349.5 846.3,346.1 847.3,349.4 848.3,341.0 849.2,346.4 850.2,349.3 851.2,344.7 852.1,345.1 853.1,349.2 854.1,349.4 855.0,343.5 856.0,350.0 857.0,350.1 857.9,347.6 858.9,344.9 859.9,349.2 860.8,345.2 861.8,344.1 862.8,344.7 863.7,345.7 864.7,346.1 865.7,345.7 866.6,349.5 867.6,345.1 868.6,349.4 869.5,348.7 870.5,346.1 871.5,345.8 872.5,351.6 873.4,348.3 874.4,345.7 875.4,349.9 876.3,344.7 877.3,346.4 878.3,345.2 879.2,343.4 880.2,345.2 881.2,346.1 882.1,342.1 883.1,343.4 884.1,343.5 885.0,345.2 886.0,345.2 887.0,344.0 887.9,345.2 888.9,345.4 889.9,345.3 890.8,344.8 891.8,345.8 892.8,346.1 893.7,344.8 894.7,345.0 895.7,344.3 896.6,345.2 897.6,347.2 898.6,347.4 899.5,350.1 900.5,346.4 901.5,348.8 902.5,348.0 903.4,344.7 904.4,344.0 905.4,345.4 906.3,342.7 907.3,345.8 908.3,344.1 909.2,346.0 910.2,349.5 911.2,344.0 912.1,345.9 913.1,347.6 914.1,344.8 915.0,343.6 916.0,343.6 917.0,344.9 917.9,343.6 918.9,342.0 919.9,343.9 920.8,342.7 921.8,343.4 922.8,341.6 923.7,343.4 924.7,341.5 925.7,342.3 926.6,342.7 927.6,341.5 928.6,341.0 929.5,342.2 930.5,341.2 931.5,340.3 932.5,342.4 933.4,341.6 934.4,341.6 935.4,341.4 936.3,341.5 937.3,341.6 938.3,342.3 939.2,342.2 940.2,341.8 941.2,340.9 942.1,342.0 943.1,341.6 944.1,341.8 945.0,342.0 946.0,343.6" fill="none" stroke="#059669" stroke-width="2.2" stroke-linejoin="round" stroke-linecap="round"/>
<polyline points="76.0,208.9 77.0,216.7 77.9,223.4 78.9,228.3 79.9,236.4 80.8,228.3 81.8,223.3 82.8,216.9 83.7,223.4 84.7,223.3 85.7,199.8 86.6,223.4 87.6,224.6 88.6,223.3 89.5,226.2 90.5,227.6 91.5,211.5 92.5,216.7 93.4,236.0 94.4,216.6 95.4,215.8 96.3,199.8 97.3,220.3 98.3,223.2 99.2,223.4 100.2,220.5 101.2,223.3 102.1,213.2 103.1,216.6 104.1,200.1 105.0,199.8 106.0,160.5 107.0,170.2 107.9,170.2 108.9,209.6 109.9,215.8 110.8,209.6 111.8,208.2 112.8,233.3 113.7,241.0 114.7,230.2 115.7,223.3 116.6,223.8 117.6,223.4 118.6,227.6 119.5,220.4 120.5,213.7 121.5,221.6 122.5,214.1 123.4,236.4 124.4,233.9 125.4,228.8 126.3,229.4 127.3,230.2 128.3,223.4 129.2,223.4 130.2,224.4 131.2,227.8 132.1,231.4 133.1,223.4 134.1,236.4 135.0,240.4 136.0,233.6 137.0,244.6 137.9,239.4 138.9,240.4 139.9,238.9 140.8,236.3 141.8,251.7 142.8,206.3 143.7,236.6 144.7,237.6 145.7,234.6 146.6,248.7 147.6,242.6 148.6,246.3 149.5,241.1 150.5,232.3 151.5,233.3 152.5,228.3 153.4,223.5 154.4,229.7 155.4,233.3 156.3,246.2 157.3,238.6 158.3,241.0 159.2,231.4 160.2,230.1 161.2,230.4 162.1,216.6 163.1,239.0 164.1,223.4 165.0,231.9 166.0,231.4 167.0,242.9 167.9,248.9 168.9,223.4 169.9,227.9 170.8,242.4 171.8,237.1 172.8,229.7 173.7,234.8 174.7,236.4 175.7,233.2 176.6,223.4 177.6,223.4 178.6,230.1 179.5,233.2 180.5,241.8 181.5,237.6 182.5,246.3 183.4,230.4 184.4,230.5 185.4,237.1 186.3,236.4 187.3,236.6 188.3,241.3 189.2,240.4 190.2,240.4 191.2,233.2 192.1,200.3 193.1,223.3 194.1,223.4 195.0,216.6 196.0,229.6 197.0,233.3 197.9,231.4 198.9,233.3 199.9,230.8 200.8,236.3 201.8,236.3 202.8,233.3 203.7,230.2 204.7,238.7 205.7,238.8 206.6,237.6 207.6,228.0 208.6,226.9 209.5,237.0 210.5,226.6 211.5,232.3 212.5,231.4 213.4,207.0 214.4,223.4 215.4,223.3 216.3,223.3 217.3,225.0 218.3,223.4 219.2,236.4 220.2,236.4 221.2,231.9 222.1,230.2 223.1,235.6 224.1,236.3 225.0,236.7 226.0,251.5 227.0,233.3 227.9,233.3 228.9,241.1 229.9,241.0 230.8,233.3 231.8,232.1 232.8,225.6 233.7,223.4 234.7,241.1 235.7,223.4 236.6,199.8 237.6,231.6 238.6,233.2 239.5,223.4 240.5,228.7 241.5,233.2 242.5,236.4 243.4,233.2 244.4,232.7 245.4,233.7 246.3,223.4 247.3,238.3 248.3,233.9 249.2,223.4 250.2,232.6 251.2,238.6 252.1,240.5 253.1,247.9 254.1,224.1 255.0,223.3 256.0,224.5 257.0,234.8 257.9,247.0 258.9,227.7 259.9,223.2 260.8,223.4 261.8,225.2 262.8,222.7 263.7,229.5 264.7,223.4 265.7,228.1 266.6,212.0 267.6,223.2 268.6,160.5 269.5,171.2 270.5,200.0 271.5,210.4 272.5,201.6 273.4,223.4 274.4,232.3 275.4,227.9 276.3,226.7 277.3,216.8 278.3,216.6 279.2,223.4 280.2,200.0 281.2,227.0 282.1,199.8 283.1,199.8 284.1,223.4 285.0,210.4 286.0,217.0 287.0,224.4 287.9,223.4 288.9,224.5 289.9,224.1 290.8,226.6 291.8,223.4 292.8,233.2 293.7,208.9 294.7,221.6 295.7,233.3 296.6,232.1 297.6,223.3 298.6,228.3 299.5,230.2 300.5,223.4 301.5,202.6 302.5,220.4 303.4,223.2 304.4,257.5 305.4,219.7 306.3,214.4 307.3,240.0 308.3,215.3 309.2,228.3 310.2,233.5 311.2,241.1 312.1,240.7 313.1,233.2 314.1,233.2 315.0,227.4 316.0,223.4 317.0,240.4 317.9,231.6 318.9,230.9 319.9,218.4 320.8,210.8 321.8,228.0 322.8,182.3 323.7,231.0 324.7,214.8 325.7,222.1 326.6,223.4 327.6,227.6 328.6,214.7 329.5,240.7 330.5,215.1 331.5,221.5 332.5,199.7 333.4,197.1 334.4,195.3 335.4,216.6 336.3,210.6 337.3,223.4 338.3,170.2 339.2,220.5 340.2,205.1 341.2,205.7 342.1,199.8 343.1,221.7 344.1,228.0 345.0,223.4 346.0,168.9 347.0,223.3 347.9,231.5 348.9,223.2 349.9,223.4 350.8,176.3 351.8,200.3 352.8,226.2 353.7,231.6 354.7,223.4 355.7,209.8 356.6,233.3 357.6,232.6 358.6,224.4 359.5,223.4 360.5,220.4 361.5,230.2 362.5,223.3 363.4,251.8 364.4,231.2 365.4,231.4 366.3,230.2 367.3,233.1 368.3,233.1 369.2,224.5 370.2,223.2 371.2,223.3 372.1,223.3 373.1,223.3 374.1,214.8 375.0,223.4 376.0,214.7 377.0,213.3 377.9,223.3 378.9,233.1 379.9,214.9 380.8,223.3 381.8,219.0 382.8,209.6 383.7,200.3 384.7,215.1 385.7,223.3 386.6,215.1 387.6,232.5 388.6,223.3 389.5,205.7 390.5,207.1 391.5,223.3 392.5,223.4 393.4,223.3 394.4,233.2 395.4,223.4 396.3,234.8 397.3,223.2 398.3,223.0 399.2,223.4 400.2,223.9 401.2,231.2 402.1,248.1 403.1,233.3 404.1,235.7 405.0,239.4 406.0,233.2 407.0,229.7 407.9,215.5 408.9,231.7 409.9,233.2 410.8,233.2 411.8,233.1 412.8,228.3 413.7,225.3 414.7,231.2 415.7,240.6 416.6,220.4 417.6,223.3 418.6,223.4 419.5,228.4 420.5,226.3 421.5,226.6 422.5,210.1 423.4,213.3 424.4,220.4 425.4,226.5 426.3,213.9 427.3,223.3 428.3,215.7 429.2,224.2 430.2,233.2 431.2,170.2 432.1,199.8 433.1,223.3 434.1,200.5 435.0,212.4 436.0,214.7 437.0,233.1 437.9,221.6 438.9,228.3 439.9,223.3 440.8,215.7 441.8,212.4 442.8,200.0 443.7,192.4 444.7,194.7 445.7,208.9 446.6,200.0 447.6,215.1 448.6,228.0 449.5,213.3 450.5,233.3 451.5,223.1 452.5,222.6 453.4,223.4 454.4,219.0 455.4,223.2 456.3,240.4 457.3,226.2 458.3,231.5 459.2,233.2 460.2,226.7 461.2,233.2 462.1,236.3 463.1,240.4 464.1,223.5 465.0,224.2 466.0,223.4 467.0,233.2 467.9,227.8 468.9,223.4 469.9,231.7 470.8,226.6 471.8,92.4 472.8,215.1 473.7,223.3 474.7,213.8 475.7,231.5 476.6,230.2 477.6,223.4 478.6,223.4 479.5,223.3 480.5,220.4 481.5,223.2 482.5,233.2 483.4,238.4 484.4,233.2 485.4,231.7 486.3,213.9 487.3,223.4 488.3,223.3 489.2,238.0 490.2,232.3 491.2,217.1 492.1,212.6 493.1,230.2 494.1,226.8 495.0,230.5 496.0,233.4 497.0,200.3 497.9,233.3 498.9,233.3 499.9,216.7 500.8,220.5 501.8,228.0 502.8,220.3 503.7,219.8 504.7,226.9 505.7,231.9 506.6,233.0 507.6,223.3 508.6,237.7 509.5,240.3 510.5,225.0 511.5,236.6 512.5,223.3 513.4,227.9 514.4,211.9 515.4,214.8 516.3,214.8 517.3,223.3 518.3,223.3 519.2,217.0 520.2,234.2 521.2,224.1 522.1,231.5 523.1,223.4 524.1,223.4 525.0,236.6 526.0,216.9 527.0,233.6 527.9,224.5 528.9,236.6 529.9,223.3 530.8,231.8 531.8,231.4 532.8,223.3 533.7,168.8 534.7,223.3 535.7,224.5 536.6,224.6 537.6,226.7 538.6,223.4 539.5,223.3 540.5,239.7 541.5,223.4 542.5,230.2 543.4,223.4 544.4,228.4 545.4,226.6 546.3,238.6 547.3,232.1 548.3,236.6 549.2,236.3 550.2,232.3 551.2,236.4 552.1,233.6 553.1,240.4 554.1,223.4 555.0,241.1 556.0,212.7 557.0,225.1 557.9,205.7 558.9,213.8 559.9,223.4 560.8,201.9 561.8,223.3 562.8,223.1 563.7,223.4 564.7,231.5 565.7,223.4 566.6,236.3 567.6,223.4 568.6,226.9 569.5,222.4 570.5,223.4 571.5,234.7 572.5,235.8 573.4,200.3 574.4,230.5 575.4,230.2 576.3,235.3 577.3,230.2 578.3,232.1 579.2,216.6 580.2,232.6 581.2,212.7 582.1,230.1 583.1,222.9 584.1,219.7 585.0,225.0 586.0,223.4 587.0,223.4 587.9,219.7 588.9,229.3 589.9,196.0 590.8,220.2 591.8,212.0 592.8,231.5 593.7,170.2 594.7,230.2 595.7,199.8 596.6,220.0 597.6,216.7 598.6,210.0 599.5,215.8 600.5,239.5 601.5,231.5 602.5,223.3 603.4,227.9 604.4,223.3 605.4,209.9 606.3,223.4 607.3,207.1 608.3,223.3 609.2,200.0 610.2,199.8 611.2,201.8 612.1,223.4 613.1,235.0 614.1,223.4 615.0,216.6 616.0,230.6 617.0,231.6 617.9,219.9 618.9,223.3 619.9,214.8 620.8,231.3 621.8,230.2 622.8,231.4 623.7,236.4 624.7,240.4 625.7,229.4 626.6,228.0 627.6,218.7 628.6,227.7 629.5,227.9 630.5,204.0 631.5,220.5 632.5,215.5 633.4,226.7 634.4,224.4 635.4,225.1 636.3,232.1 637.3,231.5 638.3,223.4 639.2,229.2 640.2,236.3 641.2,223.7 642.1,237.1 643.1,225.0 644.1,231.4 645.0,236.4 646.0,236.3 647.0,233.4 647.9,237.6 648.9,212.1 649.9,228.0 650.8,233.2 651.8,222.8 652.8,223.2 653.7,222.2 654.7,222.3 655.7,215.1 656.6,223.4 657.6,172.5 658.6,210.3 659.5,223.3 660.5,214.0 661.5,217.9 662.5,231.6 663.4,215.8 664.4,214.9 665.4,232.2 666.3,222.0 667.3,227.8 668.3,223.3 669.2,223.3 670.2,230.1 671.2,220.4 672.1,211.4 673.1,208.2 674.1,232.6 675.0,223.1 676.0,224.4 677.0,218.9 677.9,223.2 678.9,211.8 679.9,228.8 680.8,223.6 681.8,223.3 682.8,233.2 683.7,229.9 684.7,223.3 685.7,236.3 686.6,223.7 687.6,223.4 688.6,236.8 689.5,214.9 690.5,230.2 691.5,227.6 692.5,234.1 693.4,223.7 694.4,225.3 695.4,222.3 696.3,223.4 697.3,224.5 698.3,223.4 699.2,218.4 700.2,208.6 701.2,195.0 702.1,224.5 703.1,212.1 704.1,229.2 705.0,223.3 706.0,223.4 707.0,199.9 707.9,208.3 708.9,223.4 709.9,217.7 710.8,220.4 711.8,223.4 712.8,189.0 713.7,215.4 714.7,223.4 715.7,230.2 716.6,224.4 717.6,233.2 718.6,219.1 719.5,216.6 720.5,233.2 721.5,198.6 722.5,223.3 723.4,223.6 724.4,216.6 725.4,223.3 726.3,223.4 727.3,223.4 728.3,221.2 729.2,215.8 730.2,200.2 731.2,183.2 732.1,223.4 733.1,223.7 734.1,200.5 735.0,227.0 736.0,226.5 737.0,241.1 737.9,239.9 738.9,237.3 739.9,236.6 740.8,192.0 741.8,244.7 742.8,208.6 743.7,233.3 744.7,241.0 745.7,240.2 746.6,223.5 747.6,174.1 748.6,223.3 749.5,194.8 750.5,229.1 751.5,236.2 752.5,241.0 753.4,220.4 754.4,228.2 755.4,256.0 756.3,170.2 757.3,200.3 758.3,256.2 759.2,223.4 760.2,226.2 761.2,223.3 762.1,236.7 763.1,223.3 764.1,230.2 765.0,216.6 766.0,181.2 767.0,223.4 767.9,204.6 768.9,210.1 769.9,208.6 770.8,200.0 771.8,223.8 772.8,227.4 773.7,243.2 774.7,213.2 775.7,240.6 776.6,224.6 777.6,231.9 778.6,230.1 779.5,241.0 780.5,229.3 781.5,237.6 782.5,247.8 783.4,245.3 784.4,252.0 785.4,236.3 786.3,238.6 787.3,240.9 788.3,199.5 789.2,194.9 790.2,224.5 791.2,218.0 792.1,223.5 793.1,216.6 794.1,216.7 795.0,233.2 796.0,236.3 797.0,237.1 797.9,245.8 798.9,238.2 799.9,237.1 800.8,230.8 801.8,207.1 802.8,236.3 803.7,233.2 804.7,240.9 805.7,213.1 806.6,223.4 807.6,236.4 808.6,227.7 809.5,224.6 810.5,230.2 811.5,214.8 812.5,222.2 813.4,216.8 814.4,223.3 815.4,229.9 816.3,224.9 817.3,227.8 818.3,257.6 819.2,230.2 820.2,236.7 821.2,235.8 822.1,223.4 823.1,231.8 824.1,223.4 825.0,223.3 826.0,211.7 827.0,242.1 827.9,225.6 828.9,200.2 829.9,220.4 830.8,223.3 831.8,223.4 832.8,214.7 833.7,233.5 834.7,223.3 835.7,238.6 836.6,223.3 837.6,241.1 838.6,240.4 839.5,223.4 840.5,225.0 841.5,198.4 842.5,237.3 843.4,299.1 844.4,332.3 845.4,333.7 846.3,330.9 847.3,331.5 848.3,256.7 849.2,327.6 850.2,327.7 851.2,331.7 852.1,333.7 853.1,332.3 854.1,331.6 855.0,322.4 856.0,331.5 857.0,332.9 857.9,331.0 858.9,328.4 859.9,333.2 860.8,329.7 861.8,329.7 862.8,329.6 863.7,330.4 864.7,331.5 865.7,327.6 866.6,331.5 867.6,329.1 868.6,327.7 869.5,330.3 870.5,328.4 871.5,331.3 872.5,335.3 873.4,331.5 874.4,330.0 875.4,331.5 876.3,330.0 877.3,331.6 878.3,327.6 879.2,329.0 880.2,330.0 881.2,328.8 882.1,326.0 883.1,327.7 884.1,327.5 885.0,329.2 886.0,328.1 887.0,327.6 887.9,329.0 888.9,331.5 889.9,327.6 890.8,329.6 891.8,328.9 892.8,331.5 893.7,331.5 894.7,330.1 895.7,322.8 896.6,329.3 897.6,331.5 898.6,331.8 899.5,331.3 900.5,329.1 901.5,331.5 902.5,332.5 903.4,325.5 904.4,325.9 905.4,328.4 906.3,324.7 907.3,330.2 908.3,327.0 909.2,328.8 910.2,329.0 911.2,327.6 912.1,326.7 913.1,331.4 914.1,326.1 915.0,332.9 916.0,327.7 917.0,323.0 917.9,325.8 918.9,322.4 919.9,317.8 920.8,322.7 921.8,322.8 922.8,322.7 923.7,326.8 924.7,322.8 925.7,323.1 926.6,325.0 927.6,322.8 928.6,322.0 929.5,325.5 930.5,322.4 931.5,322.0 932.5,322.8 933.4,322.6 934.4,322.4 935.4,322.4 936.3,322.4 937.3,322.4 938.3,322.7 939.2,322.7 940.2,322.8 941.2,321.8 942.1,322.0 943.1,322.4 944.1,322.0 945.0,322.4 946.0,322.8" fill="none" stroke="#d97706" stroke-width="2.2" stroke-linejoin="round" stroke-linecap="round"/>
<line x1="76" y1="70" x2="94" y2="70" stroke="#2563eb" stroke-width="3"/>
<text x="100" y="74" font-family="Arial, sans-serif" font-size="11" fill="#0f172a">avg fee</text>
<line x1="179" y1="70" x2="197" y2="70" stroke="#059669" stroke-width="3"/>
<text x="203" y="74" font-family="Arial, sans-serif" font-size="11" fill="#0f172a">median fee</text>
<line x1="303" y1="70" x2="321" y2="70" stroke="#d97706" stroke-width="3"/>
<text x="327" y="74" font-family="Arial, sans-serif" font-size="11" fill="#0f172a">p90 fee</text>
<text x="28" y="404" font-family="Arial, sans-serif" font-size="11" fill="#64748b">Source: hourly_features.csv</text>
</svg>