<svg xmlns="http://www.w3.org/2000/svg" width="980" height="430" viewBox="0 0 980 430">
<rect width="100%" height="100%" fill="#ffffff"/>
<text x="28" y="34" font-family="Arial, sans-serif" font-size="20" font-weight="700" fill="#0f172a">Model R2 comparison</text>
<text x="28" y="56" font-family="Arial, sans-serif" font-size="12" fill="#64748b">Higher is better; chronological holdout split</text>
<line x1="86" y1="342.0" x2="946" y2="342.0" stroke="#e2e8f0" stroke-width="1"/>
<text x="78" y="346.0" font-family="Arial, sans-serif" font-size="10" text-anchor="end" fill="#64748b">-0.58</text>
<line x1="86" y1="277.5" x2="946" y2="277.5" stroke="#e2e8f0" stroke-width="1"/>
<text x="78" y="281.5" font-family="Arial, sans-serif" font-size="10" text-anchor="end" fill="#64748b">-0.23</text>
<line x1="86" y1="213.0" x2="946" y2="213.0" stroke="#e2e8f0" stroke-width="1"/>
<text x="78" y="217.0" font-family="Arial, sans-serif" font-size="10" text-anchor="end" fill="#64748b">0.12</text>
<line x1="86" y1="148.5" x2="946" y2="148.5" stroke="#e2e8f0" stroke-width="1"/>
<text x="78" y="152.5" font-family="Arial, sans-serif" font-size="10" text-anchor="end" fill="#64748b">0.47</text>
<line x1="86" y1="84.0" x2="946" y2="84.0" stroke="#e2e8f0" stroke-width="1"/>
<text x="78" y="88.0" font-family="Arial, sans-serif" font-size="10" text-anchor="end" fill="#64748b">0.82</text>
<line x1="86" y1="342" x2="946" y2="342" stroke="#334155" stroke-width="1"/>
<line x1="86" y1="84" x2="86" y2="342" stroke="#334155" stroke-width="1"/>
<text x="86" y="74" font-family="Arial, sans-serif" font-size="11" fill="#64748b">R2</text>
<line x1="86" y1="235.5" x2="946" y2="235.5" stroke="#334155" stroke-width="1.2"/>
<rect x="100.0" y="101.8" width="91.8" height="133.7" fill="#059669" rx="3"/>
<text x="145.9" y="95.8" font-family="Arial, sans-serif" font-size="10" text-anchor="middle" fill="#0f172a">0.73</text>
<text x="145.9" y="360" font-family="Arial, sans-serif" font-size="10" text-anchor="middle" fill="#64748b" transform="rotate(22 145.9,360)">ridge_alpha_10</text>
<rect x="205.8" y="102.2" width="91.8" height="133.3" fill="#059669" rx="3"/>
<text x="251.6" y="96.2" font-family="Arial, sans-serif" font-size="10" text-anchor="middle" fill="#0f172a">0.73</text>
<text x="251.6" y="360" font-family="Arial, sans-serif" font-size="10" text-anchor="middle" fill="#64748b" transform="rotate(22 251.6,360)">ridge_alpha_1</text>
<rect x="311.5" y="110.1" width="91.8" height="125.5" fill="#059669" rx="3"/>
<text x="357.4" y="104.1" font-family="Arial, sans-serif" font-size="10" text-anchor="middle" fill="#0f172a">0.68</text>
<text x="357.4" y="360" font-family="Arial, sans-serif" font-size="10" text-anchor="middle" fill="#64748b" transform="rotate(22 357.4,360)">ridge_alpha_100</text>
<rect x="417.2" y="141.5" width="91.8" height="94.0" fill="#059669" rx="3"/>
<text x="463.1" y="135.5" font-family="Arial, sans-serif" font-size="10" text-anchor="middle" fill="#0f172a">0.51</text>
<text x="463.1" y="360" font-family="Arial, sans-serif" font-size="10" text-anchor="middle" fill="#64748b" transform="rotate(22 463.1,360)">ridge_alpha_10_log1p_target</text>
<rect x="523.0" y="144.7" width="91.8" height="90.8" fill="#059669" rx="3"/>
<text x="568.9" y="138.7" font-family="Arial, sans-serif" font-size="10" text-anchor="middle" fill="#0f172a">0.49</text>
<text x="568.9" y="360" font-family="Arial, sans-serif" font-size="10" text-anchor="middle" fill="#64748b" transform="rotate(22 568.9,360)">ridge_alpha_100_log1p_target</text>
<rect x="628.8" y="147.3" width="91.8" height="88.2" fill="#059669" rx="3"/>
<text x="674.6" y="141.3" font-family="Arial, sans-serif" font-size="10" text-anchor="middle" fill="#0f172a">0.48</text>
<text x="674.6" y="360" font-family="Arial, sans-serif" font-size="10" text-anchor="middle" fill="#64748b" transform="rotate(22 674.6,360)">ridge_alpha_1_log1p_target</text>
<rect x="734.5" y="235.5" width="91.8" height="69.5" fill="#dc2626" rx="3"/>
<text x="780.4" y="229.5" font-family="Arial, sans-serif" font-size="10" text-anchor="middle" fill="#0f172a">-0.38</text>
<text x="780.4" y="360" font-family="Arial, sans-serif" font-size="10" text-anchor="middle" fill="#64748b" transform="rotate(22 780.4,360)">gradient_boosted_trees_depth</text>
<rect x="840.2" y="235.5" width="91.8" height="88.7" fill="#dc2626" rx="3"/>
<text x="886.1" y="229.5" font-family="Arial, sans-serif" font-size="10" text-anchor="middle" fill="#0f172a">-0.48</text>
<text x="886.1" y="360" font-family="Arial, sans-serif" font-size="10" text-anchor="middle" fill="#64748b" transform="rotate(22 886.1,360)">gradient_boosted_stumps_200_</text>
<text x="28" y="414" font-family="Arial, sans-serif" font-size="11" fill="#64748b">Source: models/model_comparison.csv</text>
</svg>