<svg xmlns="http://www.w3.org/2000/svg" width="980" height="430" viewBox="0 0 980 430">
<rect width="100%" height="100%" fill="#ffffff"/>
<text x="28" y="34" font-family="Arial, sans-serif" font-size="20" font-weight="700" fill="#0f172a">Model R2 comparison</text>
<text x="28" y="56" font-family="Arial, sans-serif" font-size="12" fill="#64748b">Higher is better; chronological holdout split</text>
<line x1="86" y1="342.0" x2="946" y2="342.0" stroke="#e2e8f0" stroke-width="1"/>
<text x="78" y="346.0" font-family="Arial, sans-serif" font-size="10" text-anchor="end" fill="#64748b">-0.05</text>
<line x1="86" y1="277.5" x2="946" y2="277.5" stroke="#e2e8f0" stroke-width="1"/>
<text x="78" y="281.5" font-family="Arial, sans-serif" font-size="10" text-anchor="end" fill="#64748b">0.14</text>
<line x1="86" y1="213.0" x2="946" y2="213.0" stroke="#e2e8f0" stroke-width="1"/>
<text x="78" y="217.0" font-family="Arial, sans-serif" font-size="10" text-anchor="end" fill="#64748b">0.33</text>
<line x1="86" y1="148.5" x2="946" y2="148.5" stroke="#e2e8f0" stroke-width="1"/>
<text x="78" y="152.5" font-family="Arial, sans-serif" font-size="10" text-anchor="end" fill="#64748b">0.52</text>
<line x1="86" y1="84.0" x2="946" y2="84.0" stroke="#e2e8f0" stroke-width="1"/>
<text x="78" y="88.0" font-family="Arial, sans-serif" font-size="10" text-anchor="end" fill="#64748b">0.71</text>
<line x1="86" y1="342" x2="946" y2="342" stroke="#334155" stroke-width="1"/>
<line x1="86" y1="84" x2="86" y2="342" stroke="#334155" stroke-width="1"/>
<text x="86" y="74" font-family="Arial, sans-serif" font-size="11" fill="#64748b">R2</text>
<line x1="86" y1="324.2" x2="946" y2="324.2" stroke="#334155" stroke-width="1.2"/>
<rect x="100.0" y="101.8" width="91.8" height="222.4" fill="#059669" rx="3"/>
<text x="145.9" y="95.8" font-family="Arial, sans-serif" font-size="10" text-anchor="middle" fill="#0f172a">0.66</text>
<text x="145.9" y="360" font-family="Arial, sans-serif" font-size="10" text-anchor="middle" fill="#64748b" transform="rotate(22 145.9,360)">ridge_alpha_100</text>
<rect x="205.8" y="110.0" width="91.8" height="214.3" fill="#059669" rx="3"/>
<text x="251.6" y="104.0" font-family="Arial, sans-serif" font-size="10" text-anchor="middle" fill="#0f172a">0.64</text>
<text x="251.6" y="360" font-family="Arial, sans-serif" font-size="10" text-anchor="middle" fill="#64748b" transform="rotate(22 251.6,360)">ridge_alpha_10</text>
<rect x="311.5" y="135.1" width="91.8" height="189.1" fill="#059669" rx="3"/>
<text x="357.4" y="129.1" font-family="Arial, sans-serif" font-size="10" text-anchor="middle" fill="#0f172a">0.56</text>
<text x="357.4" y="360" font-family="Arial, sans-serif" font-size="10" text-anchor="middle" fill="#64748b" transform="rotate(22 357.4,360)">ridge_alpha_1</text>
<rect x="417.2" y="139.7" width="91.8" height="184.5" fill="#059669" rx="3"/>
<text x="463.1" y="133.7" font-family="Arial, sans-serif" font-size="10" text-anchor="middle" fill="#0f172a">0.55</text>
<text x="463.1" y="360" font-family="Arial, sans-serif" font-size="10" text-anchor="middle" fill="#64748b" transform="rotate(22 463.1,360)">ridge_alpha_100_log1p_target</text>
<rect x="523.0" y="151.1" width="91.8" height="173.1" fill="#059669" rx="3"/>
<text x="568.9" y="145.1" font-family="Arial, sans-serif" font-size="10" text-anchor="middle" fill="#0f172a">0.51</text>
<text x="568.9" y="360" font-family="Arial, sans-serif" font-size="10" text-anchor="middle" fill="#64748b" transform="rotate(22 568.9,360)">ridge_alpha_10_log1p_target</text>
<rect x="628.8" y="181.2" width="91.8" height="143.1" fill="#059669" rx="3"/>
<text x="674.6" y="175.2" font-family="Arial, sans-serif" font-size="10" text-anchor="middle" fill="#0f172a">0.42</text>
<text x="674.6" y="360" font-family="Arial, sans-serif" font-size="10" text-anchor="middle" fill="#64748b" transform="rotate(22 674.6,360)">ridge_alpha_1_log1p_target</text>
<rect x="734.5" y="304.8" width="91.8" height="19.4" fill="#059669" rx="3"/>
<text x="780.4" y="298.8" font-family="Arial, sans-serif" font-size="10" text-anchor="middle" fill="#0f172a">0.06</text>
<text x="780.4" y="360" font-family="Arial, sans-serif" font-size="10" text-anchor="middle" fill="#64748b" transform="rotate(22 780.4,360)">gradient_boosted_trees_depth</text>
<rect x="840.2" y="311.3" width="91.8" height="12.9" fill="#059669" rx="3"/>
<text x="886.1" y="305.3" font-family="Arial, sans-serif" font-size="10" text-anchor="middle" fill="#0f172a">0.04</text>
<text x="886.1" y="360" font-family="Arial, sans-serif" font-size="10" text-anchor="middle" fill="#64748b" transform="rotate(22 886.1,360)">gradient_boosted_stumps_200_</text>
<text x="28" y="414" font-family="Arial, sans-serif" font-size="11" fill="#64748b">Source: models/model_comparison.csv</text>
</svg>