<svg xmlns="http://www.w3.org/2000/svg" width="980" height="430" viewBox="0 0 980 430">
<rect width="100%" height="100%" fill="#ffffff"/>
<text x="28" y="34" font-family="Arial, sans-serif" font-size="20" font-weight="700" fill="#0f172a">Model MAE comparison</text>
<text x="28" y="56" font-family="Arial, sans-serif" font-size="12" fill="#64748b">Lower is better; chronological holdout split</text>
<line x1="86" y1="342.0" x2="946" y2="342.0" stroke="#e2e8f0" stroke-width="1"/>
<text x="78" y="346.0" font-family="Arial, sans-serif" font-size="10" text-anchor="end" fill="#64748b">353K</text>
<line x1="86" y1="277.5" x2="946" y2="277.5" stroke="#e2e8f0" stroke-width="1"/>
<text x="78" y="281.5" font-family="Arial, sans-serif" font-size="10" text-anchor="end" fill="#64748b">482K</text>
<line x1="86" y1="213.0" x2="946" y2="213.0" stroke="#e2e8f0" stroke-width="1"/>
<text x="78" y="217.0" font-family="Arial, sans-serif" font-size="10" text-anchor="end" fill="#64748b">610K</text>
<line x1="86" y1="148.5" x2="946" y2="148.5" stroke="#e2e8f0" stroke-width="1"/>
<text x="78" y="152.5" font-family="Arial, sans-serif" font-size="10" text-anchor="end" fill="#64748b">739K</text>
<line x1="86" y1="84.0" x2="946" y2="84.0" stroke="#e2e8f0" stroke-width="1"/>
<text x="78" y="88.0" font-family="Arial, sans-serif" font-size="10" text-anchor="end" fill="#64748b">867K</text>
<line x1="86" y1="342" x2="946" y2="342" stroke="#334155" stroke-width="1"/>
<line x1="86" y1="84" x2="86" y2="342" stroke="#334155" stroke-width="1"/>
<text x="86" y="74" font-family="Arial, sans-serif" font-size="11" fill="#64748b">nanoton</text>
<rect x="100.0" y="324.2" width="91.8" height="17.8" fill="#2563eb" rx="3"/>
<text x="145.9" y="318.2" font-family="Arial, sans-serif" font-size="10" text-anchor="middle" fill="#0f172a">389K</text>
<text x="145.9" y="360" font-family="Arial, sans-serif" font-size="10" text-anchor="middle" fill="#64748b" transform="rotate(22 145.9,360)">ridge_alpha_10</text>
<rect x="205.8" y="323.9" width="91.8" height="18.1" fill="#2563eb" rx="3"/>
<text x="251.6" y="317.9" font-family="Arial, sans-serif" font-size="10" text-anchor="middle" fill="#0f172a">390K</text>
<text x="251.6" y="360" font-family="Arial, sans-serif" font-size="10" text-anchor="middle" fill="#64748b" transform="rotate(22 251.6,360)">ridge_alpha_1</text>
<rect x="311.5" y="309.6" width="91.8" height="32.4" fill="#2563eb" rx="3"/>
<text x="357.4" y="303.6" font-family="Arial, sans-serif" font-size="10" text-anchor="middle" fill="#0f172a">418K</text>
<text x="357.4" y="360" font-family="Arial, sans-serif" font-size="10" text-anchor="middle" fill="#64748b" transform="rotate(22 357.4,360)">ridge_alpha_100</text>
<rect x="417.2" y="262.1" width="91.8" height="79.9" fill="#2563eb" rx="3"/>
<text x="463.1" y="256.1" font-family="Arial, sans-serif" font-size="10" text-anchor="middle" fill="#0f172a">513K</text>
<text x="463.1" y="360" font-family="Arial, sans-serif" font-size="10" text-anchor="middle" fill="#64748b" transform="rotate(22 463.1,360)">ridge_alpha_10_log1p_target</text>
<rect x="523.0" y="260.0" width="91.8" height="82.0" fill="#2563eb" rx="3"/>
<text x="568.9" y="254.0" font-family="Arial, sans-serif" font-size="10" text-anchor="middle" fill="#0f172a">517K</text>
<text x="568.9" y="360" font-family="Arial, sans-serif" font-size="10" text-anchor="middle" fill="#64748b" transform="rotate(22 568.9,360)">ridge_alpha_100_log1p_target</text>
<rect x="628.8" y="253.9" width="91.8" height="88.1" fill="#2563eb" rx="3"/>
<text x="674.6" y="247.9" font-family="Arial, sans-serif" font-size="10" text-anchor="middle" fill="#0f172a">529K</text>
<text x="674.6" y="360" font-family="Arial, sans-serif" font-size="10" text-anchor="middle" fill="#64748b" transform="rotate(22 674.6,360)">ridge_alpha_1_log1p_target</text>
<rect x="734.5" y="115.1" width="91.8" height="226.9" fill="#2563eb" rx="3"/>
<text x="780.4" y="109.1" font-family="Arial, sans-serif" font-size="10" text-anchor="middle" fill="#0f172a">805K</text>
<text x="780.4" y="360" font-family="Arial, sans-serif" font-size="10" text-anchor="middle" fill="#64748b" transform="rotate(22 780.4,360)">gradient_boosted_trees_depth</text>
<rect x="840.2" y="101.8" width="91.8" height="240.2" fill="#2563eb" rx="3"/>
<text x="886.1" y="95.8" font-family="Arial, sans-serif" font-size="10" text-anchor="middle" fill="#0f172a">832K</text>
<text x="886.1" y="360" font-family="Arial, sans-serif" font-size="10" text-anchor="middle" fill="#64748b" transform="rotate(22 886.1,360)">gradient_boosted_stumps_200_</text>
<text x="28" y="414" font-family="Arial, sans-serif" font-size="11" fill="#64748b">Source: models/model_comparison.csv</text>
</svg>