<svg xmlns="http://www.w3.org/2000/svg" width="980" height="420" viewBox="0 0 980 420">
<rect width="100%" height="100%" fill="#ffffff"/>
<text x="28" y="34" font-family="Arial, sans-serif" font-size="20" font-weight="700" fill="#0f172a">Network activity sample trend</text>
<text x="28" y="56" font-family="Arial, sans-serif" font-size="12" fill="#64748b">Hourly transaction sample count and unique account sample count</text>
<line x1="76" y1="362.0" x2="946" y2="362.0" stroke="#e2e8f0" stroke-width="1"/>
<text x="68" y="366.0" font-family="Arial, sans-serif" font-size="10" text-anchor="end" fill="#64748b">220</text>
<line x1="76" y1="292.0" x2="946" y2="292.0" stroke="#e2e8f0" stroke-width="1"/>
<text x="68" y="296.0" font-family="Arial, sans-serif" font-size="10" text-anchor="end" fill="#64748b">1K</text>
<line x1="76" y1="222.0" x2="946" y2="222.0" stroke="#e2e8f0" stroke-width="1"/>
<text x="68" y="226.0" font-family="Arial, sans-serif" font-size="10" text-anchor="end" fill="#64748b">3K</text>
<line x1="76" y1="152.0" x2="946" y2="152.0" stroke="#e2e8f0" stroke-width="1"/>
<text x="68" y="156.0" font-family="Arial, sans-serif" font-size="10" text-anchor="end" fill="#64748b">4K</text>
<line x1="76" y1="82.0" x2="946" y2="82.0" stroke="#e2e8f0" stroke-width="1"/>
<text x="68" y="86.0" font-family="Arial, sans-serif" font-size="10" text-anchor="end" fill="#64748b">5K</text>
<line x1="76" y1="362" x2="946" y2="362" stroke="#334155" stroke-width="1"/>
<line x1="76" y1="82" x2="76" y2="362" stroke="#334155" stroke-width="1"/>
<text x="76" y="72" font-family="Arial, sans-serif" font-size="11" fill="#64748b">count</text>
<line x1="76.0" y1="362" x2="76.0" y2="366" stroke="#334155" stroke-width="1"/>
<text x="76.0" y="380" font-family="Arial, sans-serif" font-size="10" text-anchor="middle" fill="#64748b">0</text>
<line x1="511.6" y1="362" x2="511.6" y2="366" stroke="#334155" stroke-width="1"/>
<text x="511.6" y="380" font-family="Arial, sans-serif" font-size="10" text-anchor="middle" fill="#64748b">390</text>
<line x1="946.0" y1="362" x2="946.0" y2="366" stroke="#334155" stroke-width="1"/>
<text x="946.0" y="380" font-family="Arial, sans-serif" font-size="10" text-anchor="middle" fill="#64748b">779</text>
<polyline points="76.0,92.4 77.1,92.4 78.2,92.4 79.4,92.4 80.5,92.4 81.6,92.4 82.7,92.4 83.8,92.4 84.9,92.4 86.1,92.4 87.2,92.4 88.3,92.4 89.4,92.4 90.5,92.4 91.6,92.4 92.8,92.4 93.9,92.4 95.0,92.4 96.1,92.4 97.2,92.4 98.3,92.4 99.5,92.4 100.6,92.4 101.7,92.4 102.8,92.4 103.9,92.4 105.0,92.4 106.2,92.4 107.3,92.4 108.4,92.4 109.5,92.4 110.6,92.4 111.7,92.4 112.9,92.4 114.0,92.4 115.1,92.4 116.2,92.4 117.3,92.4 118.4,92.4 119.6,92.4 120.7,92.4 121.8,92.4 122.9,92.4 124.0,92.4 125.1,92.4 126.3,92.4 127.4,92.4 128.5,92.4 129.6,92.4 130.7,92.4 131.8,92.4 133.0,92.4 134.1,92.4 135.2,92.4 136.3,92.4 137.4,92.4 138.5,92.4 139.7,92.4 140.8,92.4 141.9,92.4 143.0,92.4 144.1,92.4 145.2,92.4 146.4,92.4 147.5,92.4 148.6,92.4 149.7,92.4 150.8,92.4 151.9,92.4 153.1,92.4 154.2,92.4 155.3,92.4 156.4,92.4 157.5,92.4 158.6,92.4 159.8,92.4 160.9,92.4 162.0,92.4 163.1,92.4 164.2,92.4 165.3,92.4 166.5,92.4 167.6,92.4 168.7,92.4 169.8,92.4 170.9,92.4 172.0,92.4 173.2,92.4 174.3,92.4 175.4,92.4 176.5,92.4 177.6,92.4 178.7,92.4 179.9,92.4 181.0,92.4 182.1,92.4 183.2,92.4 184.3,92.4 185.4,92.4 186.6,92.4 187.7,92.4 188.8,92.4 189.9,92.4 191.0,92.4 192.1,92.4 193.3,92.4 194.4,92.4 195.5,92.4 196.6,92.4 197.7,92.4 198.8,92.4 200.0,92.4 201.1,92.4 202.2,92.4 203.3,92.4 204.4,92.4 205.6,92.4 206.7,92.4 207.8,92.4 208.9,92.4 210.0,92.4 211.1,92.4 212.3,92.4 213.4,92.4 214.5,92.4 215.6,92.4 216.7,92.4 217.8,92.4 219.0,92.4 220.1,92.4 221.2,92.4 222.3,92.4 223.4,92.4 224.5,92.4 225.7,92.4 226.8,92.4 227.9,92.4 229.0,92.4 230.1,92.4 231.2,92.4 232.4,92.4 233.5,92.4 234.6,92.4 235.7,92.4 236.8,92.4 237.9,92.4 239.1,92.4 240.2,92.4 241.3,92.4 242.4,92.4 243.5,92.4 244.6,92.4 245.8,92.4 246.9,92.4 248.0,92.4 249.1,92.4 250.2,92.4 251.3,92.4 252.5,92.4 253.6,92.4 254.7,92.4 255.8,92.4 256.9,92.4 258.0,92.4 259.2,92.4 260.3,92.4 261.4,92.4 262.5,92.4 263.6,92.4 264.7,92.4 265.9,92.4 267.0,92.4 268.1,92.4 269.2,92.4 270.3,92.4 271.4,92.4 272.6,92.4 273.7,92.4 274.8,92.4 275.9,92.4 277.0,92.4 278.1,92.4 279.3,92.4 280.4,92.4 281.5,92.4 282.6,92.4 283.7,92.4 284.8,92.4 286.0,92.4 287.1,92.4 288.2,92.4 289.3,92.4 290.4,92.4 291.5,92.4 292.7,92.4 293.8,92.4 294.9,92.4 296.0,92.4 297.1,92.4 298.2,92.4 299.4,92.4 300.5,92.4 301.6,92.4 302.7,92.4 303.8,92.4 304.9,92.4 306.1,92.4 307.2,92.4 308.3,92.4 309.4,92.4 310.5,92.4 311.6,92.4 312.8,92.4 313.9,92.4 315.0,92.4 316.1,92.4 317.2,92.4 318.3,92.4 319.5,92.4 320.6,92.4 321.7,92.4 322.8,92.4 323.9,92.4 325.1,92.4 326.2,92.4 327.3,92.4 328.4,92.4 329.5,92.4 330.6,92.4 331.8,92.4 332.9,92.4 334.0,92.4 335.1,92.4 336.2,92.4 337.3,92.4 338.5,92.4 339.6,92.4 340.7,92.4 341.8,92.4 342.9,92.4 344.0,92.4 345.2,92.4 346.3,92.4 347.4,92.4 348.5,92.4 349.6,92.4 350.7,92.4 351.9,92.4 353.0,92.4 354.1,92.4 355.2,92.4 356.3,92.4 357.4,92.4 358.6,92.4 359.7,92.4 360.8,92.4 361.9,92.4 363.0,92.4 364.1,92.4 365.3,92.4 366.4,92.4 367.5,92.4 368.6,92.4 369.7,92.4 370.8,92.4 372.0,92.4 373.1,92.4 374.2,92.4 375.3,92.4 376.4,92.4 377.5,92.4 378.7,92.4 379.8,92.4 380.9,92.4 382.0,92.4 383.1,92.4 384.2,92.4 385.4,92.4 386.5,92.4 387.6,92.4 388.7,92.4 389.8,92.4 390.9,92.4 392.1,92.4 393.2,92.4 394.3,92.4 395.4,92.4 396.5,92.4 397.6,92.4 398.8,92.4 399.9,92.4 401.0,92.4 402.1,92.4 403.2,92.4 404.3,92.4 405.5,92.4 406.6,92.4 407.7,92.4 408.8,92.4 409.9,92.4 411.0,92.4 412.2,92.4 413.3,92.4 414.4,92.4 415.5,92.4 416.6,92.4 417.7,92.4 418.9,92.4 420.0,92.4 421.1,92.4 422.2,92.4 423.3,92.4 424.4,92.4 425.6,92.4 426.7,92.4 427.8,92.4 428.9,92.4 430.0,92.4 431.1,92.4 432.3,92.4 433.4,92.4 434.5,92.4 435.6,92.4 436.7,92.4 437.8,92.4 439.0,92.4 440.1,92.4 441.2,92.4 442.3,92.4 443.4,92.4 444.5,92.4 445.7,92.4 446.8,92.4 447.9,92.4 449.0,92.4 450.1,92.4 451.3,92.4 452.4,92.4 453.5,92.4 454.6,92.4 455.7,92.4 456.8,92.4 458.0,92.4 459.1,92.4 460.2,92.4 461.3,92.4 462.4,92.4 463.5,92.4 464.7,92.4 465.8,92.4 466.9,92.4 468.0,92.4 469.1,92.4 470.2,92.4 471.4,92.4 472.5,92.4 473.6,92.4 474.7,92.4 475.8,92.4 476.9,92.4 478.1,92.4 479.2,92.4 480.3,92.4 481.4,92.4 482.5,92.4 483.6,92.4 484.8,92.4 485.9,92.4 487.0,92.4 488.1,92.4 489.2,92.4 490.3,92.4 491.5,92.4 492.6,92.4 493.7,92.4 494.8,92.4 495.9,92.4 497.0,92.4 498.2,92.4 499.3,92.4 500.4,92.4 501.5,92.4 502.6,92.4 503.7,92.4 504.9,92.4 506.0,92.4 507.1,92.4 508.2,92.4 509.3,92.4 510.4,92.4 511.6,92.4 512.7,92.4 513.8,92.4 514.9,92.4 516.0,92.4 517.1,92.4 518.3,92.4 519.4,92.4 520.5,92.4 521.6,92.4 522.7,92.4 523.8,92.4 525.0,92.4 526.1,92.4 527.2,92.4 528.3,92.4 529.4,92.4 530.5,92.4 531.7,92.4 532.8,92.4 533.9,92.4 535.0,92.4 536.1,92.4 537.2,92.4 538.4,92.4 539.5,92.4 540.6,92.4 541.7,92.4 542.8,92.4 543.9,92.4 545.1,92.4 546.2,92.4 547.3,92.4 548.4,92.4 549.5,92.4 550.6,92.4 551.8,92.4 552.9,92.4 554.0,92.4 555.1,92.4 556.2,92.4 557.3,92.4 558.5,92.4 559.6,92.4 560.7,92.4 561.8,92.4 562.9,92.4 564.0,92.4 565.2,92.4 566.3,92.4 567.4,92.4 568.5,92.4 569.6,92.4 570.7,92.4 571.9,92.4 573.0,92.4 574.1,92.4 575.2,92.4 576.3,92.4 577.5,92.4 578.6,92.4 579.7,92.4 580.8,92.4 581.9,92.4 583.0,92.4 584.2,92.4 585.3,92.4 586.4,92.4 587.5,92.4 588.6,92.4 589.7,92.4 590.9,92.4 592.0,92.4 593.1,92.4 594.2,92.4 595.3,92.4 596.4,92.4 597.6,92.4 598.7,92.4 599.8,92.4 600.9,92.4 602.0,92.4 603.1,92.4 604.3,92.4 605.4,92.4 606.5,92.4 607.6,92.4 608.7,92.4 609.8,92.4 611.0,92.4 612.1,92.4 613.2,92.4 614.3,92.4 615.4,92.4 616.5,92.4 617.7,92.4 618.8,92.4 619.9,92.4 621.0,92.4 622.1,92.4 623.2,92.4 624.4,92.4 625.5,92.4 626.6,92.4 627.7,92.4 628.8,92.4 629.9,92.4 631.1,92.4 632.2,92.4 633.3,92.4 634.4,92.4 635.5,92.4 636.6,92.4 637.8,92.4 638.9,92.4 640.0,92.4 641.1,92.4 642.2,92.4 643.3,92.4 644.5,92.4 645.6,92.4 646.7,92.4 647.8,92.4 648.9,92.4 650.0,92.4 651.2,92.4 652.3,92.4 653.4,92.4 654.5,92.4 655.6,92.4 656.7,92.4 657.9,92.4 659.0,92.4 660.1,92.4 661.2,92.4 662.3,92.4 663.4,92.4 664.6,92.4 665.7,92.4 666.8,92.4 667.9,92.4 669.0,92.4 670.1,92.4 671.3,92.4 672.4,92.4 673.5,92.4 674.6,92.4 675.7,92.4 676.8,92.4 678.0,92.4 679.1,92.4 680.2,92.4 681.3,92.4 682.4,92.4 683.5,92.4 684.7,92.4 685.8,92.4 686.9,92.4 688.0,92.4 689.1,92.4 690.2,92.4 691.4,92.4 692.5,92.4 693.6,92.4 694.7,92.4 695.8,92.4 696.9,92.4 698.1,92.4 699.2,92.4 700.3,92.4 701.4,92.4 702.5,92.4 703.7,92.4 704.8,92.4 705.9,92.4 707.0,92.4 708.1,92.4 709.2,92.4 710.4,92.4 711.5,92.4 712.6,92.4 713.7,92.4 714.8,92.4 715.9,92.4 717.1,92.4 718.2,92.4 719.3,92.4 720.4,92.4 721.5,92.4 722.6,92.4 723.8,92.4 724.9,92.4 726.0,92.4 727.1,92.4 728.2,92.4 729.3,92.4 730.5,92.4 731.6,92.4 732.7,92.4 733.8,92.4 734.9,92.4 736.0,92.4 737.2,92.4 738.3,92.4 739.4,92.4 740.5,92.4 741.6,92.4 742.7,92.4 743.9,92.4 745.0,92.4 746.1,92.4 747.2,92.4 748.3,92.4 749.4,92.4 750.6,92.4 751.7,92.4 752.8,92.4 753.9,92.4 755.0,92.4 756.1,92.4 757.3,92.4 758.4,92.4 759.5,92.4 760.6,92.4 761.7,92.4 762.8,92.4 764.0,92.4 765.1,92.4 766.2,92.4 767.3,92.4 768.4,92.4 769.5,92.4 770.7,92.4 771.8,92.4 772.9,92.4 774.0,92.4 775.1,92.4 776.2,92.4 777.4,92.4 778.5,92.4 779.6,92.4 780.7,92.4 781.8,92.4 782.9,92.4 784.1,92.4 785.2,92.4 786.3,92.4 787.4,92.4 788.5,92.4 789.6,92.4 790.8,92.4 791.9,92.4 793.0,92.4 794.1,92.4 795.2,92.4 796.3,92.4 797.5,92.4 798.6,92.4 799.7,92.4 800.8,92.4 801.9,92.4 803.0,92.4 804.2,92.4 805.3,92.4 806.4,92.4 807.5,92.4 808.6,92.4 809.7,92.4 810.9,92.4 812.0,92.4 813.1,92.4 814.2,92.4 815.3,92.4 816.4,92.4 817.6,92.4 818.7,92.4 819.8,92.4 820.9,92.4 822.0,92.4 823.2,92.4 824.3,92.4 825.4,92.4 826.5,92.4 827.6,92.4 828.7,92.4 829.9,92.4 831.0,92.4 832.1,92.4 833.2,92.4 834.3,92.4 835.4,318.0 836.6,318.0 837.7,318.0 838.8,318.0 839.9,318.0 841.0,318.0 842.1,318.0 843.3,318.0 844.4,318.0 845.5,318.0 846.6,318.0 847.7,318.0 848.8,318.0 850.0,318.0 851.1,318.0 852.2,318.0 853.3,318.0 854.4,318.0 855.5,318.0 856.7,318.0 857.8,318.0 858.9,318.0 860.0,318.0 861.1,318.0 862.2,318.0 863.4,318.0 864.5,318.0 865.6,318.0 866.7,318.0 867.8,318.0 868.9,318.0 870.1,318.0 871.2,318.0 872.3,318.0 873.4,318.0 874.5,318.0 875.6,318.0 876.8,318.0 877.9,318.0 879.0,318.0 880.1,318.0 881.2,318.0 882.3,318.0 883.5,318.0 884.6,318.0 885.7,318.0 886.8,318.0 887.9,318.0 889.0,318.0 890.2,318.0 891.3,318.0 892.4,318.0 893.5,318.0 894.6,318.0 895.7,318.0 896.9,318.0 898.0,318.0 899.1,318.0 900.2,318.0 901.3,318.0 902.4,318.0 903.6,318.0 904.7,318.0 905.8,318.0 906.9,318.0 908.0,318.0 909.1,318.0 910.3,318.0 911.4,318.0 912.5,318.0 913.6,318.0 914.7,207.0 915.8,318.0 917.0,318.0 918.1,318.0 919.2,318.0 920.3,318.0 921.4,263.4 922.5,318.0 923.7,318.0 924.8,263.5 925.9,318.0 927.0,318.0 928.1,318.0 929.2,318.0 930.4,318.0 931.5,318.0 932.6,318.0 933.7,262.2 934.8,263.5 935.9,318.0 937.1,318.0 938.2,318.0 939.3,318.0 940.4,264.6 941.5,318.0 942.6,318.0 943.8,318.0 944.9,318.0 946.0,318.0" fill="none" stroke="#2563eb" stroke-width="2.2" stroke-linejoin="round" stroke-linecap="round"/>
<polyline points="76.0,262.8 77.1,258.8 78.2,249.5 79.4,247.2 80.5,250.9 81.6,240.3 82.7,239.7 83.8,243.5 84.9,248.5 86.1,248.0 87.2,264.6 88.3,246.1 89.4,245.2 90.5,246.9 91.6,251.1 92.8,259.3 93.9,256.5 95.0,254.2 96.1,251.6 97.2,256.6 98.3,261.5 99.5,257.5 100.6,255.6 101.7,255.2 102.8,249.2 103.9,247.7 105.0,249.7 106.2,241.1 107.3,232.5 108.4,241.2 109.5,243.5 110.6,257.3 111.7,251.0 112.9,250.7 114.0,255.2 115.1,250.5 116.2,247.4 117.3,253.4 118.4,247.1 119.6,247.0 120.7,244.7 121.8,261.9 122.9,258.2 124.0,254.2 125.1,219.8 126.3,222.3 127.4,255.3 128.5,251.2 129.6,237.3 130.7,219.3 131.8,239.9 133.0,251.2 134.1,243.9 135.2,242.1 136.3,243.9 137.4,246.7 138.5,244.4 139.7,250.0 140.8,241.3 141.9,247.0 143.0,238.8 144.1,245.4 145.2,243.9 146.4,285.1 147.5,270.0 148.6,262.3 149.7,270.1 150.8,267.0 151.9,238.5 153.1,233.8 154.2,243.4 155.3,259.9 156.4,272.4 157.5,246.0 158.6,245.5 159.8,248.1 160.9,261.0 162.0,250.4 163.1,259.1 164.2,245.9 165.3,240.5 166.5,253.9 167.6,249.9 168.7,254.6 169.8,255.7 170.9,254.0 172.0,261.9 173.2,251.4 174.3,251.4 175.4,253.7 176.5,250.0 177.6,268.3 178.7,231.5 179.9,255.8 181.0,251.1 182.1,218.2 183.2,256.5 184.3,245.2 185.4,247.9 186.6,226.9 187.7,246.1 188.8,248.3 189.9,241.0 191.0,249.4 192.1,243.6 193.3,250.1 194.4,244.3 195.5,242.8 196.6,242.6 197.7,248.1 198.8,245.4 200.0,251.8 201.1,237.9 202.2,251.4 203.3,252.6 204.4,250.9 205.6,220.0 206.7,203.6 207.8,214.7 208.9,215.7 210.0,215.3 211.1,224.9 212.3,220.4 213.4,216.0 214.5,243.5 215.6,246.4 216.7,241.9 217.8,243.2 219.0,242.2 220.1,241.7 221.2,242.6 222.3,244.6 223.4,243.4 224.5,245.1 225.7,249.7 226.8,245.1 227.9,258.2 229.0,257.8 230.1,248.2 231.2,263.2 232.4,290.3 233.5,254.2 234.6,268.2 235.7,255.6 236.8,253.3 237.9,253.6 239.1,250.8 240.2,251.8 241.3,245.2 242.4,251.1 243.5,244.3 244.6,242.4 245.8,240.7 246.9,242.6 248.0,251.4 249.1,264.1 250.2,247.2 251.3,252.2 252.5,250.9 253.6,253.1 254.7,253.4 255.8,258.6 256.9,260.8 258.0,259.1 259.2,292.1 260.3,255.7 261.4,270.2 262.5,236.2 263.6,252.1 264.7,245.1 265.9,249.0 267.0,240.5 268.1,242.6 269.2,248.7 270.3,243.1 271.4,236.6 272.6,245.7 273.7,247.5 274.8,241.4 275.9,245.2 277.0,245.0 278.1,246.8 279.3,247.8 280.4,251.7 281.5,253.2 282.6,259.1 283.7,263.5 284.8,252.2 286.0,285.5 287.1,251.7 288.2,255.1 289.3,250.6 290.4,249.8 291.5,242.9 292.7,242.4 293.8,242.2 294.9,241.0 296.0,247.3 297.1,248.1 298.2,258.9 299.4,257.3 300.5,253.8 301.6,250.1 302.7,255.8 303.8,247.6 304.9,253.5 306.1,245.9 307.2,253.4 308.3,258.1 309.4,261.3 310.5,258.9 311.6,266.2 312.8,297.6 313.9,260.0 315.0,260.3 316.1,258.6 317.2,257.8 318.3,249.6 319.5,247.9 320.6,245.9 321.7,252.3 322.8,248.8 323.9,245.4 325.1,245.5 326.2,241.2 327.3,248.2 328.4,240.3 329.5,241.3 330.6,240.9 331.8,255.8 332.9,255.5 334.0,254.2 335.1,259.3 336.2,273.3 337.3,257.9 338.5,260.5 339.6,258.2 340.7,252.3 341.8,232.0 342.9,219.6 344.0,257.6 345.2,245.0 346.3,228.2 347.4,224.5 348.5,224.1 349.6,223.8 350.7,222.7 351.9,239.3 353.0,231.7 354.1,235.3 355.2,236.0 356.3,245.7 357.4,256.8 358.6,266.4 359.7,245.2 360.8,283.8 361.9,250.1 363.0,265.2 364.1,256.9 365.3,258.4 366.4,265.9 367.5,249.6 368.6,209.8 369.7,220.6 370.8,223.0 372.0,225.7 373.1,215.1 374.2,227.4 375.3,222.0 376.4,209.0 377.5,242.0 378.7,239.8 379.8,248.9 380.9,251.4 382.0,247.5 383.1,243.7 384.2,252.6 385.4,250.3 386.5,248.7 387.6,267.5 388.7,252.2 389.8,247.7 390.9,258.9 392.1,227.2 393.2,211.3 394.3,216.8 395.4,255.8 396.5,251.6 397.6,245.4 398.8,270.3 399.9,239.4 401.0,244.7 402.1,243.3 403.2,250.8 404.3,232.4 405.5,242.8 406.6,244.7 407.7,265.4 408.8,239.2 409.9,244.6 411.0,242.8 412.2,247.8 413.3,246.7 414.4,263.6 415.5,250.8 416.6,258.2 417.7,254.7 418.9,251.7 420.0,265.0 421.1,252.6 422.2,259.2 423.3,263.9 424.4,253.9 425.6,230.0 426.7,224.2 427.8,257.9 428.9,245.8 430.0,252.8 431.1,255.5 432.3,248.1 433.4,251.2 434.5,250.1 435.6,248.5 436.7,245.4 437.8,265.0 439.0,263.0 440.1,258.3 441.2,262.4 442.3,259.0 443.4,283.8 444.5,276.5 445.7,273.1 446.8,276.5 447.9,282.7 449.0,282.5 450.1,277.7 451.3,281.6 452.4,283.5 453.5,278.5 454.6,276.0 455.7,265.8 456.8,251.2 458.0,259.6 459.1,273.4 460.2,261.0 461.3,263.4 462.4,257.8 463.5,265.6 464.7,262.2 465.8,262.1 466.9,262.1 468.0,254.3 469.1,262.8 470.2,257.4 471.4,261.5 472.5,249.6 473.6,254.9 474.7,260.6 475.8,262.8 476.9,263.7 478.1,259.3 479.2,258.4 480.3,252.3 481.4,251.5 482.5,254.4 483.6,233.7 484.8,246.8 485.9,259.0 487.0,247.4 488.1,244.3 489.2,249.6 490.3,251.4 491.5,253.2 492.6,252.7 493.7,254.5 494.8,255.1 495.9,251.1 497.0,261.9 498.2,260.5 499.3,265.7 500.4,260.3 501.5,265.4 502.6,257.3 503.7,253.9 504.9,261.6 506.0,244.2 507.1,253.1 508.2,245.6 509.3,249.2 510.4,235.1 511.6,243.1 512.7,248.1 513.8,255.7 514.9,236.3 516.0,251.0 517.1,236.7 518.3,242.5 519.4,247.8 520.5,246.2 521.6,246.8 522.7,245.6 523.8,253.2 525.0,266.1 526.1,257.9 527.2,214.6 528.3,221.0 529.4,217.1 530.5,231.6 531.7,220.8 532.8,221.3 533.9,229.0 535.0,250.2 536.1,248.0 537.2,234.3 538.4,246.0 539.5,245.0 540.6,252.9 541.7,245.9 542.8,247.4 543.9,248.3 545.1,247.7 546.2,239.1 547.3,240.8 548.4,252.0 549.5,252.9 550.6,252.0 551.8,259.5 552.9,248.6 554.0,255.6 555.1,255.6 556.2,256.2 557.3,252.6 558.5,250.4 559.6,247.5 560.7,235.3 561.8,257.7 562.9,239.4 564.0,217.5 565.2,244.7 566.3,243.3 567.4,247.4 568.5,248.5 569.6,245.5 570.7,244.6 571.9,247.9 573.0,251.0 574.1,248.9 575.2,252.3 576.3,249.7 577.5,252.3 578.6,258.4 579.7,260.8 580.8,239.5 581.9,262.6 583.0,268.1 584.2,271.0 585.3,253.1 586.4,249.5 587.5,256.8 588.6,242.4 589.7,244.6 590.9,235.9 592.0,245.9 593.1,252.1 594.2,240.5 595.3,234.4 596.4,239.0 597.6,241.9 598.7,235.1 599.8,252.6 600.9,245.0 602.0,244.3 603.1,262.3 604.3,305.5 605.4,249.9 606.5,245.8 607.6,258.9 608.7,255.9 609.8,253.1 611.0,256.3 612.1,245.1 613.2,242.3 614.3,240.8 615.4,242.9 616.5,248.5 617.7,241.0 618.8,237.3 619.9,242.1 621.0,239.8 622.1,236.5 623.2,241.5 624.4,247.0 625.5,243.4 626.6,245.8 627.7,248.9 628.8,238.6 629.9,251.6 631.1,249.4 632.2,276.3 633.3,259.7 634.4,250.9 635.5,269.4 636.6,251.6 637.8,254.3 638.9,253.9 640.0,248.4 641.1,238.0 642.2,246.8 643.3,247.0 644.5,245.2 645.6,246.2 646.7,236.4 647.8,240.2 648.9,239.9 650.0,265.2 651.2,243.4 652.3,244.6 653.4,240.0 654.5,250.6 655.6,252.1 656.7,260.3 657.9,245.6 659.0,263.7 660.1,248.6 661.2,262.8 662.3,265.9 663.4,248.1 664.6,254.3 665.7,247.2 666.8,252.3 667.9,246.3 669.0,251.2 670.1,245.4 671.3,241.8 672.4,237.3 673.5,251.5 674.6,246.1 675.7,239.7 676.8,238.8 678.0,245.5 679.1,247.4 680.2,254.5 681.3,236.8 682.4,251.2 683.5,251.9 684.7,255.6 685.8,260.8 686.9,260.8 688.0,256.8 689.1,248.6 690.2,250.9 691.4,258.6 692.5,252.0 693.6,247.8 694.7,242.0 695.8,235.9 696.9,240.3 698.1,241.3 699.2,243.0 700.3,250.0 701.4,251.4 702.5,248.2 703.7,247.2 704.8,243.8 705.9,247.8 707.0,250.6 708.1,243.7 709.2,249.4 710.4,257.8 711.5,256.4 712.6,266.0 713.7,253.2 714.8,257.3 715.9,254.9 717.1,263.9 718.2,255.6 719.3,243.4 720.4,246.3 721.5,236.2 722.6,243.4 723.8,247.6 724.9,232.1 726.0,245.1 727.1,241.1 728.2,245.4 729.3,244.3 730.5,245.7 731.6,244.9 732.7,237.9 733.8,243.8 734.9,240.4 736.0,257.6 737.2,256.3 738.3,256.7 739.4,257.1 740.5,257.2 741.6,263.0 742.7,256.8 743.9,255.5 745.0,256.1 746.1,252.2 747.2,269.8 748.3,254.4 749.4,246.0 750.6,249.9 751.7,237.3 752.8,240.6 753.9,246.0 755.0,254.5 756.1,250.8 757.3,250.9 758.4,252.8 759.5,243.7 760.6,250.9 761.7,251.9 762.8,264.5 764.0,263.0 765.1,262.2 766.2,258.8 767.3,264.6 768.4,255.8 769.5,263.3 770.7,253.6 771.8,256.9 772.9,252.5 774.0,255.3 775.1,252.6 776.2,246.8 777.4,248.8 778.5,241.7 779.6,242.1 780.7,248.9 781.8,250.9 782.9,245.3 784.1,247.8 785.2,246.7 786.3,252.2 787.4,248.6 788.5,256.6 789.6,253.4 790.8,255.6 791.9,260.2 793.0,251.7 794.1,253.8 795.2,264.5 796.3,255.3 797.5,263.6 798.6,248.5 799.7,252.2 800.8,250.8 801.9,253.1 803.0,244.8 804.2,253.0 805.3,244.6 806.4,248.3 807.5,251.8 808.6,245.9 809.7,246.0 810.9,261.2 812.0,255.5 813.1,251.8 814.2,251.4 815.3,254.2 816.4,255.0 817.6,255.0 818.7,265.9 819.8,248.1 820.9,272.1 822.0,254.3 823.2,257.3 824.3,258.3 825.4,243.2 826.5,251.2 827.6,252.1 828.7,251.2 829.9,251.9 831.0,266.5 832.1,260.3 833.2,243.4 834.3,245.9 835.4,345.6 836.6,341.0 837.7,341.4 838.8,339.1 839.9,340.1 841.0,345.0 842.1,343.8 843.3,343.3 844.4,343.1 845.5,343.9 846.6,341.5 847.7,341.0 848.8,342.3 850.0,341.5 851.1,345.3 852.2,340.9 853.3,350.1 854.4,340.2 855.5,342.7 856.7,340.3 857.8,340.1 858.9,341.1 860.0,339.5 861.1,343.3 862.2,343.2 863.4,340.7 864.5,342.2 865.6,341.2 866.7,341.9 867.8,340.0 868.9,344.3 870.1,338.1 871.2,340.6 872.3,342.6 873.4,342.9 874.5,342.3 875.6,345.1 876.8,342.7 877.9,342.9 879.0,340.6 880.1,341.6 881.2,339.6 882.3,341.3 883.5,341.5 884.6,341.0 885.7,342.0 886.8,339.2 887.9,339.6 889.0,340.4 890.2,340.9 891.3,335.8 892.4,335.6 893.5,334.7 894.6,340.2 895.7,340.4 896.9,340.3 898.0,339.6 899.1,342.0 900.2,341.5 901.3,342.0 902.4,343.1 903.6,342.0 904.7,340.6 905.8,334.9 906.9,339.8 908.0,340.6 909.1,340.3 910.3,338.2 911.4,339.3 912.5,338.7 913.6,346.4 914.7,288.7 915.8,339.1 917.0,340.3 918.1,342.0 919.2,341.7 920.3,339.6 921.4,312.1 922.5,343.5 923.7,342.2 924.8,322.7 925.9,348.9 927.0,344.5 928.1,342.6 929.2,342.4 930.4,337.4 931.5,336.7 932.6,331.5 933.7,316.9 934.8,313.8 935.9,336.5 937.1,339.3 938.2,351.6 939.3,341.7 940.4,317.1 941.5,341.6 942.6,334.3 943.8,338.9 944.9,348.0 946.0,341.6" fill="none" stroke="#7c3aed" stroke-width="2.2" stroke-linejoin="round" stroke-linecap="round"/>
<line x1="76" y1="70" x2="94" y2="70" stroke="#2563eb" stroke-width="3"/>
<text x="100" y="74" font-family="Arial, sans-serif" font-size="11" fill="#0f172a">tx count</text>
<line x1="186" y1="70" x2="204" y2="70" stroke="#7c3aed" stroke-width="3"/>
<text x="210" y="74" font-family="Arial, sans-serif" font-size="11" fill="#0f172a">unique accounts</text>
<text x="28" y="404" font-family="Arial, sans-serif" font-size="11" fill="#64748b">Source: hourly_features.csv; capped windows are sample counts</text>
</svg>