<svg xmlns="http://www.w3.org/2000/svg" width="980" height="420" viewBox="0 0 980 420">
<rect width="100%" height="100%" fill="#ffffff"/>
<text x="28" y="34" font-family="Arial, sans-serif" font-size="20" font-weight="700" fill="#0f172a">Network activity sample trend</text>
<text x="28" y="56" font-family="Arial, sans-serif" font-size="12" fill="#64748b">Hourly transaction sample count and unique account sample count</text>
<line x1="76" y1="362.0" x2="946" y2="362.0" stroke="#e2e8f0" stroke-width="1"/>
<text x="68" y="366.0" font-family="Arial, sans-serif" font-size="10" text-anchor="end" fill="#64748b">-1K</text>
<line x1="76" y1="292.0" x2="946" y2="292.0" stroke="#e2e8f0" stroke-width="1"/>
<text x="68" y="296.0" font-family="Arial, sans-serif" font-size="10" text-anchor="end" fill="#64748b">7K</text>
<line x1="76" y1="222.0" x2="946" y2="222.0" stroke="#e2e8f0" stroke-width="1"/>
<text x="68" y="226.0" font-family="Arial, sans-serif" font-size="10" text-anchor="end" fill="#64748b">15K</text>
<line x1="76" y1="152.0" x2="946" y2="152.0" stroke="#e2e8f0" stroke-width="1"/>
<text x="68" y="156.0" font-family="Arial, sans-serif" font-size="10" text-anchor="end" fill="#64748b">23K</text>
<line x1="76" y1="82.0" x2="946" y2="82.0" stroke="#e2e8f0" stroke-width="1"/>
<text x="68" y="86.0" font-family="Arial, sans-serif" font-size="10" text-anchor="end" fill="#64748b">31K</text>
<line x1="76" y1="362" x2="946" y2="362" stroke="#334155" stroke-width="1"/>
<line x1="76" y1="82" x2="76" y2="362" stroke="#334155" stroke-width="1"/>
<text x="76" y="72" font-family="Arial, sans-serif" font-size="11" fill="#64748b">count</text>
<line x1="76.0" y1="362" x2="76.0" y2="366" stroke="#334155" stroke-width="1"/>
<text x="76.0" y="380" font-family="Arial, sans-serif" font-size="10" text-anchor="middle" fill="#64748b">0</text>
<line x1="511.3" y1="362" x2="511.3" y2="366" stroke="#334155" stroke-width="1"/>
<text x="511.3" y="380" font-family="Arial, sans-serif" font-size="10" text-anchor="middle" fill="#64748b">700</text>
<line x1="946.0" y1="362" x2="946.0" y2="366" stroke="#334155" stroke-width="1"/>
<text x="946.0" y="380" font-family="Arial, sans-serif" font-size="10" text-anchor="middle" fill="#64748b">1399</text>
<polyline points="76.0,308.5 76.6,308.5 77.2,308.5 77.9,308.5 78.5,308.5 79.1,308.5 79.7,308.5 80.4,308.5 81.0,308.5 81.6,308.5 82.2,308.5 82.8,308.5 83.5,308.5 84.1,308.5 84.7,308.5 85.3,308.5 85.9,308.5 86.6,308.5 87.2,308.5 87.8,308.5 88.4,308.5 89.1,308.5 89.7,308.5 90.3,308.5 90.9,308.5 91.5,308.5 92.2,308.5 92.8,308.5 93.4,308.5 94.0,308.5 94.7,308.5 95.3,308.5 95.9,308.5 96.5,308.5 97.1,308.5 97.8,308.5 98.4,308.5 99.0,308.5 99.6,308.5 100.3,308.5 100.9,308.5 101.5,308.5 102.1,308.5 102.7,308.5 103.4,308.5 104.0,308.5 104.6,308.5 105.2,308.5 105.8,308.5 106.5,308.5 107.1,308.5 107.7,308.5 108.3,308.5 109.0,308.5 109.6,308.5 110.2,308.5 110.8,308.5 111.4,308.5 112.1,308.5 112.7,308.5 113.3,308.5 113.9,308.5 114.6,308.5 115.2,308.5 115.8,308.5 116.4,308.5 117.0,308.5 117.7,308.5 118.3,308.5 118.9,308.5 119.5,308.5 120.2,308.5 120.8,308.5 121.4,308.5 122.0,308.5 122.6,308.5 123.3,308.5 123.9,308.5 124.5,308.5 125.1,308.5 125.7,308.5 126.4,308.5 127.0,308.5 127.6,308.5 128.2,308.5 128.9,308.5 129.5,308.5 130.1,308.5 130.7,308.5 131.3,308.5 132.0,308.5 132.6,308.5 133.2,308.5 133.8,308.5 134.5,308.5 135.1,308.5 135.7,308.5 136.3,308.5 136.9,308.5 137.6,308.5 138.2,308.5 138.8,308.5 139.4,308.5 140.1,308.5 140.7,308.5 141.3,308.5 141.9,308.5 142.5,308.5 143.2,308.5 143.8,308.5 144.4,308.5 145.0,308.5 145.6,308.5 146.3,308.5 146.9,308.5 147.5,308.5 148.1,308.5 148.8,308.5 149.4,308.5 150.0,308.5 150.6,308.5 151.2,308.5 151.9,308.5 152.5,308.5 153.1,308.5 153.7,308.5 154.4,308.5 155.0,308.5 155.6,308.5 156.2,308.5 156.8,308.5 157.5,308.5 158.1,308.5 158.7,308.5 159.3,308.5 160.0,308.5 160.6,308.5 161.2,308.5 161.8,308.5 162.4,308.5 163.1,308.5 163.7,308.5 164.3,308.5 164.9,308.5 165.5,308.5 166.2,308.5 166.8,308.5 167.4,308.5 168.0,308.5 168.7,308.5 169.3,308.5 169.9,308.5 170.5,308.5 171.1,308.5 171.8,308.5 172.4,308.5 173.0,308.5 173.6,308.5 174.3,308.5 174.9,308.5 175.5,308.5 176.1,308.5 176.7,308.5 177.4,308.5 178.0,308.5 178.6,308.5 179.2,308.5 179.9,308.5 180.5,308.5 181.1,308.5 181.7,308.5 182.3,308.5 183.0,308.5 183.6,308.5 184.2,308.5 184.8,308.5 185.4,308.5 186.1,308.5 186.7,308.5 187.3,308.5 187.9,308.5 188.6,308.5 189.2,308.5 189.8,308.5 190.4,308.5 191.0,308.5 191.7,308.5 192.3,308.5 192.9,308.5 193.5,308.5 194.2,308.5 194.8,308.5 195.4,308.5 196.0,308.5 196.6,308.5 197.3,308.5 197.9,308.5 198.5,308.5 199.1,308.5 199.8,308.5 200.4,308.5 201.0,308.5 201.6,308.5 202.2,308.5 202.9,308.5 203.5,308.5 204.1,308.5 204.7,308.5 205.3,308.5 206.0,308.5 206.6,308.5 207.2,308.5 207.8,308.5 208.5,308.5 209.1,308.5 209.7,308.5 210.3,308.5 210.9,308.5 211.6,308.5 212.2,308.5 212.8,308.5 213.4,308.5 214.1,308.5 214.7,308.5 215.3,308.5 215.9,308.5 216.5,308.5 217.2,308.5 217.8,308.5 218.4,308.5 219.0,308.5 219.7,308.5 220.3,308.5 220.9,308.5 221.5,308.5 222.1,308.5 222.8,308.5 223.4,308.5 224.0,308.5 224.6,308.5 225.2,308.5 225.9,308.5 226.5,308.5 227.1,308.5 227.7,308.5 228.4,308.5 229.0,308.5 229.6,308.5 230.2,308.5 230.8,308.5 231.5,308.5 232.1,308.5 232.7,308.5 233.3,308.5 234.0,308.5 234.6,308.5 235.2,308.5 235.8,308.5 236.4,308.5 237.1,308.5 237.7,308.5 238.3,308.5 238.9,308.5 239.6,308.5 240.2,308.5 240.8,308.5 241.4,308.5 242.0,308.5 242.7,308.5 243.3,308.5 243.9,308.5 244.5,308.5 245.1,308.5 245.8,308.5 246.4,308.5 247.0,308.5 247.6,308.5 248.3,308.5 248.9,308.5 249.5,308.5 250.1,308.5 250.7,308.5 251.4,308.5 252.0,308.5 252.6,308.5 253.2,308.5 253.9,308.5 254.5,308.5 255.1,308.5 255.7,308.5 256.3,308.5 257.0,308.5 257.6,308.5 258.2,308.5 258.8,308.5 259.5,308.5 260.1,308.5 260.7,308.5 261.3,308.5 261.9,308.5 262.6,308.5 263.2,308.5 263.8,308.5 264.4,308.5 265.0,308.5 265.7,308.5 266.3,308.5 266.9,308.5 267.5,308.5 268.2,308.5 268.8,308.5 269.4,308.5 270.0,308.5 270.6,308.5 271.3,308.5 271.9,308.5 272.5,308.5 273.1,308.5 273.8,308.5 274.4,308.5 275.0,308.5 275.6,308.5 276.2,308.5 276.9,308.5 277.5,308.5 278.1,308.5 278.7,308.5 279.4,308.5 280.0,308.5 280.6,308.5 281.2,308.5 281.8,308.5 282.5,308.5 283.1,308.5 283.7,308.5 284.3,308.5 284.9,308.5 285.6,308.5 286.2,308.5 286.8,308.5 287.4,308.5 288.1,308.5 288.7,308.5 289.3,308.5 289.9,308.5 290.5,308.5 291.2,308.5 291.8,308.5 292.4,308.5 293.0,308.5 293.7,308.5 294.3,308.5 294.9,308.5 295.5,308.5 296.1,308.5 296.8,308.5 297.4,308.5 298.0,308.5 298.6,308.5 299.3,308.5 299.9,308.5 300.5,308.5 301.1,308.5 301.7,308.5 302.4,308.5 303.0,308.5 303.6,308.5 304.2,308.5 304.8,308.5 305.5,308.5 306.1,308.5 306.7,308.5 307.3,308.5 308.0,308.5 308.6,308.5 309.2,308.5 309.8,308.5 310.4,308.5 311.1,308.5 311.7,308.5 312.3,308.5 312.9,308.5 313.6,308.5 314.2,308.5 314.8,308.5 315.4,308.5 316.0,308.5 316.7,308.5 317.3,308.5 317.9,308.5 318.5,308.5 319.2,308.5 319.8,308.5 320.4,308.5 321.0,308.5 321.6,308.5 322.3,308.5 322.9,308.5 323.5,308.5 324.1,308.5 324.7,308.5 325.4,308.5 326.0,308.5 326.6,308.5 327.2,308.5 327.9,308.5 328.5,308.5 329.1,308.5 329.7,308.5 330.3,308.5 331.0,308.5 331.6,308.5 332.2,308.5 332.8,308.5 333.5,308.5 334.1,308.5 334.7,308.5 335.3,308.5 335.9,308.5 336.6,308.5 337.2,308.5 337.8,308.5 338.4,308.5 339.1,308.5 339.7,308.5 340.3,308.5 340.9,308.5 341.5,308.5 342.2,308.5 342.8,308.5 343.4,308.5 344.0,308.5 344.6,308.5 345.3,308.5 345.9,308.5 346.5,308.5 347.1,308.5 347.8,308.5 348.4,308.5 349.0,308.5 349.6,308.5 350.2,308.5 350.9,308.5 351.5,308.5 352.1,308.5 352.7,308.5 353.4,308.5 354.0,308.5 354.6,308.5 355.2,308.5 355.8,308.5 356.5,308.5 357.1,308.5 357.7,308.5 358.3,308.5 359.0,308.5 359.6,308.5 360.2,308.5 360.8,308.5 361.4,308.5 362.1,308.5 362.7,308.5 363.3,308.5 363.9,308.5 364.5,308.5 365.2,308.5 365.8,308.5 366.4,308.5 367.0,308.5 367.7,308.5 368.3,308.5 368.9,308.5 369.5,308.5 370.1,308.5 370.8,308.5 371.4,308.5 372.0,308.5 372.6,308.5 373.3,308.5 373.9,308.5 374.5,308.5 375.1,308.5 375.7,308.5 376.4,308.5 377.0,308.5 377.6,308.5 378.2,308.5 378.9,308.5 379.5,308.5 380.1,308.5 380.7,308.5 381.3,308.5 382.0,308.5 382.6,308.5 383.2,308.5 383.8,308.5 384.4,308.5 385.1,308.5 385.7,308.5 386.3,308.5 386.9,308.5 387.6,308.5 388.2,308.5 388.8,308.5 389.4,308.5 390.0,308.5 390.7,308.5 391.3,308.5 391.9,308.5 392.5,308.5 393.2,308.5 393.8,308.5 394.4,308.5 395.0,308.5 395.6,308.5 396.3,308.5 396.9,308.5 397.5,308.5 398.1,308.5 398.8,308.5 399.4,308.5 400.0,308.5 400.6,308.5 401.2,308.5 401.9,308.5 402.5,308.5 403.1,308.5 403.7,308.5 404.3,308.5 405.0,308.5 405.6,308.5 406.2,308.5 406.8,308.5 407.5,308.5 408.1,308.5 408.7,308.5 409.3,308.5 409.9,308.5 410.6,308.5 411.2,308.5 411.8,308.5 412.4,308.5 413.1,308.5 413.7,308.5 414.3,308.5 414.9,308.5 415.5,308.5 416.2,308.5 416.8,308.5 417.4,308.5 418.0,308.5 418.7,308.5 419.3,308.5 419.9,308.5 420.5,308.5 421.1,308.5 421.8,308.5 422.4,308.5 423.0,308.5 423.6,308.5 424.2,308.5 424.9,308.5 425.5,308.5 426.1,308.5 426.7,308.5 427.4,308.5 428.0,308.5 428.6,308.5 429.2,308.5 429.8,308.5 430.5,308.5 431.1,308.5 431.7,308.5 432.3,308.5 433.0,308.5 433.6,308.5 434.2,308.5 434.8,308.5 435.4,308.5 436.1,308.5 436.7,308.5 437.3,308.5 437.9,308.5 438.6,308.5 439.2,308.5 439.8,308.5 440.4,308.5 441.0,308.5 441.7,308.5 442.3,308.5 442.9,308.5 443.5,308.5 444.1,308.5 444.8,308.5 445.4,308.5 446.0,308.5 446.6,308.5 447.3,308.5 447.9,308.5 448.5,308.5 449.1,308.5 449.7,308.5 450.4,308.5 451.0,308.5 451.6,308.5 452.2,308.5 452.9,308.5 453.5,308.5 454.1,308.5 454.7,308.5 455.3,308.5 456.0,308.5 456.6,308.5 457.2,308.5 457.8,308.5 458.5,308.5 459.1,308.5 459.7,308.5 460.3,308.5 460.9,308.5 461.6,308.5 462.2,308.5 462.8,308.5 463.4,308.5 464.0,308.5 464.7,308.5 465.3,308.5 465.9,308.5 466.5,308.5 467.2,308.5 467.8,308.5 468.4,308.5 469.0,308.5 469.6,308.5 470.3,308.5 470.9,308.5 471.5,308.5 472.1,308.5 472.8,308.5 473.4,308.5 474.0,308.5 474.6,308.5 475.2,308.5 475.9,308.5 476.5,308.5 477.1,308.5 477.7,308.5 478.4,308.5 479.0,308.5 479.6,308.5 480.2,308.5 480.8,308.5 481.5,308.5 482.1,308.5 482.7,308.5 483.3,308.5 483.9,308.5 484.6,308.5 485.2,308.5 485.8,308.5 486.4,308.5 487.1,308.5 487.7,308.5 488.3,308.5 488.9,308.5 489.5,308.5 490.2,308.5 490.8,308.5 491.4,308.5 492.0,308.5 492.7,308.5 493.3,308.5 493.9,308.5 494.5,308.5 495.1,308.5 495.8,308.5 496.4,308.5 497.0,308.5 497.6,308.5 498.3,308.5 498.9,308.5 499.5,308.5 500.1,308.5 500.7,308.5 501.4,308.5 502.0,308.5 502.6,308.5 503.2,308.5 503.8,308.5 504.5,308.5 505.1,308.5 505.7,308.5 506.3,308.5 507.0,308.5 507.6,308.5 508.2,308.5 508.8,308.5 509.4,308.5 510.1,308.5 510.7,308.5 511.3,308.5 511.9,308.5 512.6,308.5 513.2,308.5 513.8,308.5 514.4,308.5 515.0,308.5 515.7,308.5 516.3,308.5 516.9,308.5 517.5,308.5 518.2,308.5 518.8,308.5 519.4,308.5 520.0,308.5 520.6,308.5 521.3,308.5 521.9,308.5 522.5,308.5 523.1,308.3 523.7,299.9 524.4,343.1 525.0,343.1 525.6,334.8 526.2,334.5 526.9,191.4 527.5,177.3 528.1,181.7 528.7,177.0 529.3,182.3 530.0,178.6 530.6,179.1 531.2,177.5 531.8,175.2 532.5,177.2 533.1,177.3 533.7,176.9 534.3,169.6 534.9,155.7 535.6,178.6 536.2,179.9 536.8,165.4 537.4,182.3 538.1,172.6 538.7,167.6 539.3,178.7 539.9,170.3 540.5,179.1 541.2,178.5 541.8,152.4 542.4,195.5 543.0,179.5 543.6,179.0 544.3,168.5 544.9,185.0 545.5,193.6 546.1,173.7 546.8,189.6 547.4,165.8 548.0,211.5 548.6,180.2 549.2,189.9 549.9,161.1 550.5,175.0 551.1,170.6 551.7,165.2 552.4,183.5 553.0,174.7 553.6,174.8 554.2,179.6 554.8,170.9 555.5,167.3 556.1,188.7 556.7,177.6 557.3,174.6 558.0,177.0 558.6,181.6 559.2,177.6 559.8,170.1 560.4,186.5 561.1,179.3 561.7,174.7 562.3,201.5 562.9,158.1 563.5,208.5 564.2,187.9 564.8,151.8 565.4,177.5 566.0,176.6 566.7,176.8 567.3,167.9 567.9,163.0 568.5,171.8 569.1,173.8 569.8,173.7 570.4,182.4 571.0,172.0 571.6,179.4 572.3,183.9 572.9,181.8 573.5,181.7 574.1,164.1 574.7,188.4 575.4,188.9 576.0,178.6 576.6,178.3 577.2,189.6 577.9,188.6 578.5,195.3 579.1,184.7 579.7,154.4 580.3,180.9 581.0,177.5 581.6,180.6 582.2,168.5 582.8,178.5 583.4,161.7 584.1,177.9 584.7,174.0 585.3,149.9 585.9,184.2 586.6,201.7 587.2,173.3 587.8,188.7 588.4,164.3 589.0,181.6 589.7,189.9 590.3,177.1 590.9,177.9 591.5,180.5 592.2,180.8 592.8,191.4 593.4,175.9 594.0,188.8 594.6,155.9 595.3,178.9 595.9,175.1 596.5,182.6 597.1,172.8 597.8,170.3 598.4,166.2 599.0,172.2 599.6,170.2 600.2,182.7 600.9,181.2 601.5,170.5 602.1,180.4 602.7,183.0 603.3,167.9 604.0,190.2 604.6,165.4 605.2,190.6 605.8,165.4 606.5,189.5 607.1,175.0 607.7,203.6 608.3,189.0 608.9,183.1 609.6,149.4 610.2,178.5 610.8,175.0 611.4,172.0 612.1,187.4 612.7,166.3 613.3,171.8 613.9,175.3 614.5,147.9 615.2,189.4 615.8,168.5 616.4,182.2 617.0,176.3 617.7,179.5 618.3,178.9 618.9,179.3 619.5,179.5 620.1,178.9 620.8,179.6 621.4,179.0 622.0,179.0 622.6,179.3 623.2,179.7 623.9,157.9 624.5,92.4 625.1,179.3 625.7,180.2 626.4,179.2 627.0,179.0 627.6,179.2 628.2,179.1 628.8,179.4 629.5,180.1 630.1,179.3 630.7,178.9 631.3,179.3 632.0,179.2 632.6,178.9 633.2,179.3 633.8,179.1 634.4,179.4 635.1,179.1 635.7,179.4 636.3,179.0 636.9,179.3 637.6,179.2 638.2,180.2 638.8,191.6 639.4,177.3 640.0,269.5 640.7,261.1 641.3,265.3 641.9,265.3 642.5,265.3 643.1,265.3 643.8,265.3 644.4,265.3 645.0,265.3 645.6,265.3 646.3,265.3 646.9,265.3 647.5,265.3 648.1,265.3 648.7,265.3 649.4,265.3 650.0,265.3 650.6,265.3 651.2,265.3 651.9,265.3 652.5,265.3 653.1,265.3 653.7,265.3 654.3,278.8 655.0,254.2 655.6,262.9 656.2,265.3 656.8,265.3 657.5,265.3 658.1,265.3 658.7,265.3 659.3,265.3 659.9,265.3 660.6,265.3 661.2,265.3 661.8,265.3 662.4,265.3 663.0,265.3 663.7,265.3 664.3,265.3 664.9,265.3 665.5,265.3 666.2,265.3 666.8,265.3 667.4,265.3 668.0,276.5 668.6,286.1 669.3,257.9 669.9,262.9 670.5,243.0 671.1,286.0 671.8,264.3 672.4,255.0 673.0,255.8 673.6,265.3 674.2,265.3 674.9,265.3 675.5,265.3 676.1,265.3 676.7,265.3 677.4,265.3 678.0,265.3 678.6,265.3 679.2,265.3 679.8,265.3 680.5,265.3 681.1,265.3 681.7,265.3 682.3,265.3 682.9,283.3 683.6,279.9 684.2,264.6 684.8,255.1 685.4,274.7 686.1,271.0 686.7,257.8 687.3,242.4 687.9,275.9 688.5,249.2 689.2,264.2 689.8,265.3 690.4,265.3 691.0,265.3 691.7,265.3 692.3,265.3 692.9,265.3 693.5,265.3 694.1,265.3 694.8,265.3 695.4,265.3 696.0,273.5 696.6,257.7 697.3,264.7 697.9,285.0 698.5,284.0 699.1,275.5 699.7,262.1 700.4,256.2 701.0,246.9 701.6,283.9 702.2,256.2 702.8,242.6 703.5,260.5 704.1,265.3 704.7,271.1 705.3,264.3 706.0,260.9 706.6,265.7 707.2,264.4 707.8,265.3 708.4,265.3 709.1,265.3 709.7,265.3 710.3,265.3 710.9,266.3 711.6,264.3 712.2,265.3 712.8,292.7 713.4,266.3 714.0,285.1 714.7,269.9 715.3,259.4 715.9,218.3 716.5,302.8 717.2,259.4 717.8,253.9 718.4,245.1 719.0,278.9 719.6,251.6 720.3,265.3 720.9,265.3 721.5,265.3 722.1,265.3 722.7,265.3 723.4,265.3 724.0,265.3 724.6,265.3 725.2,265.3 725.9,265.3 726.5,265.3 727.1,289.3 727.7,267.1 728.3,284.3 729.0,254.6 729.6,278.1 730.2,266.2 730.8,247.0 731.5,274.9 732.1,250.7 732.7,258.0 733.3,263.8 733.9,249.4 734.6,265.3 735.2,265.3 735.8,265.3 736.4,265.3 737.1,265.3 737.7,265.3 738.3,265.3 738.9,265.3 739.5,265.3 740.2,265.3 740.8,265.3 741.4,265.3 742.0,271.3 742.6,292.0 743.3,269.8 743.9,267.7 744.5,275.2 745.1,262.3 745.8,271.2 746.4,255.4 747.0,265.8 747.6,251.9 748.2,255.8 748.9,258.9 749.5,270.1 750.1,254.6 750.7,266.5 751.4,256.2 752.0,265.3 752.6,271.2 753.2,259.3 753.8,265.3 754.5,265.3 755.1,265.3 755.7,265.3 756.3,271.3 757.0,279.9 757.6,284.0 758.2,278.3 758.8,258.9 759.4,271.9 760.1,265.8 760.7,266.5 761.3,253.5 761.9,263.7 762.5,252.2 763.2,262.7 763.8,261.3 764.4,244.0 765.0,273.8 765.7,273.2 766.3,248.8 766.9,265.3 767.5,265.3 768.1,265.3 768.8,265.3 769.4,267.9 770.0,262.7 770.6,268.1 771.3,266.3 771.9,289.1 772.5,272.8 773.1,255.0 773.7,286.4 774.4,274.2 775.0,263.0 775.6,262.3 776.2,262.2 776.9,255.9 777.5,254.2 778.1,255.9 778.7,266.9 779.3,254.0 780.0,261.4 780.6,262.2 781.2,265.3 781.8,265.3 782.4,265.3 783.1,268.4 783.7,273.9 784.3,271.0 784.9,261.8 785.6,271.3 786.2,270.6 786.8,269.7 787.4,287.5 788.0,254.9 788.7,267.8 789.3,279.4 789.9,262.2 790.5,265.1 791.2,261.0 791.8,264.0 792.4,237.7 793.0,265.6 793.6,267.1 794.3,246.0 794.9,280.4 795.5,256.0 796.1,254.9 796.8,265.3 797.4,282.6 798.0,247.9 798.6,265.3 799.2,265.3 799.9,275.1 800.5,258.8 801.1,262.0 801.7,286.5 802.3,269.9 803.0,290.0 803.6,249.6 804.2,268.7 804.8,262.1 805.5,285.1 806.1,259.0 806.7,226.9 807.3,272.1 807.9,278.7 808.6,236.1 809.2,263.7 809.8,265.3 810.4,285.4 811.1,245.1 811.7,277.8 812.3,252.7 812.9,265.3 813.5,265.3 814.2,274.6 814.8,256.0 815.4,268.9 816.0,261.6 816.7,276.3 817.3,279.7 817.9,262.8 818.5,294.1 819.1,259.2 819.8,263.1 820.4,274.0 821.0,250.6 821.6,269.8 822.2,240.5 822.9,268.4 823.5,262.4 824.1,266.3 824.7,259.2 825.4,260.0 826.0,257.9 826.6,265.3 827.2,265.3 827.8,269.8 828.5,267.4 829.1,258.7 829.7,265.3 830.3,273.5 831.0,286.2 831.6,236.6 832.2,305.6 832.8,282.4 833.4,253.3 834.1,263.0 834.7,269.9 835.3,254.5 835.9,270.5 836.6,261.0 837.2,261.4 837.8,247.4 838.4,248.8 839.0,265.3 839.7,276.1 840.3,263.2 840.9,257.3 841.5,264.6 842.1,265.3 842.8,265.3 843.4,265.3 844.0,265.3 844.6,265.3 845.3,270.6 845.9,269.5 846.5,277.9 847.1,288.8 847.7,253.2 848.4,285.2 849.0,247.9 849.6,276.3 850.2,267.3 850.9,253.2 851.5,256.9 852.1,258.6 852.7,261.7 853.3,258.6 854.0,253.8 854.6,270.0 855.2,270.9 855.8,255.0 856.5,265.3 857.1,265.3 857.7,265.3 858.3,265.3 858.9,265.3 859.6,265.3 860.2,265.5 860.8,265.0 861.4,273.6 862.0,301.2 862.7,269.4 863.3,271.5 863.9,263.1 864.5,271.0 865.2,248.1 865.8,260.5 866.4,262.4 867.0,260.9 867.6,261.9 868.3,253.4 868.9,259.7 869.5,266.0 870.1,262.3 870.8,263.1 871.4,261.8 872.0,265.3 872.6,265.3 873.2,269.4 873.9,268.4 874.5,258.1 875.1,268.6 875.7,262.4 876.4,286.4 877.0,274.9 877.6,286.1 878.2,255.1 878.8,275.1 879.5,271.6 880.1,257.7 880.7,249.8 881.3,259.6 881.9,256.2 882.6,272.4 883.2,249.0 883.8,257.0 884.4,278.4 885.1,252.9 885.7,261.8 886.3,265.3 886.9,271.4 887.5,264.1 888.2,260.3 888.8,265.3 889.4,265.3 890.0,272.6 890.7,271.9 891.3,277.8 891.9,280.5 892.5,255.6 893.1,283.0 893.8,272.6 894.4,268.1 895.0,261.1 895.6,259.8 896.3,257.5 896.9,260.4 897.5,237.1 898.1,273.9 898.7,259.3 899.4,267.0 900.0,265.2 900.6,262.2 901.2,270.6 901.8,249.5 902.5,287.9 903.1,258.7 903.7,264.6 904.3,266.8 905.0,260.5 905.6,258.1 906.2,277.9 906.8,266.0 907.4,300.4 908.1,255.6 908.7,274.9 909.3,264.3 909.9,260.9 910.6,264.6 911.2,263.6 911.8,256.6 912.4,261.4 913.0,232.4 913.7,284.5 914.3,265.1 914.9,264.1 915.5,252.6 916.2,270.7 916.8,269.7 917.4,268.7 918.0,246.8 918.6,280.3 919.3,263.7 919.9,263.7 920.5,266.6 921.1,266.4 921.7,284.7 922.4,278.9 923.0,271.9 923.6,260.8 924.2,271.6 924.9,249.5 925.5,225.5 926.1,277.4 926.7,286.3 927.3,243.5 928.0,267.1 928.6,267.6 929.2,256.4 929.8,258.7 930.5,265.3 931.1,265.3 931.7,265.3 932.3,265.3 932.9,265.3 933.6,265.3 934.2,265.3 934.8,267.4 935.4,263.2 936.1,298.9 936.7,270.8 937.3,270.9 937.9,264.1 938.5,240.4 939.2,291.5 939.8,251.9 940.4,272.6 941.0,254.7 941.6,264.1 942.3,260.5 942.9,250.0 943.5,270.2 944.1,253.7 944.8,272.3 945.4,259.7 946.0,351.6" fill="none" stroke="#2563eb" stroke-width="2.2" stroke-linejoin="round" stroke-linecap="round"/>
<polyline points="76.0,334.6 76.6,334.0 77.2,332.6 77.9,332.2 78.5,332.8 79.1,331.2 79.7,331.1 80.4,331.7 81.0,332.4 81.6,332.3 82.2,334.9 82.8,332.1 83.5,331.9 84.1,332.2 84.7,332.8 85.3,334.1 85.9,333.7 86.6,333.3 87.2,332.9 87.8,333.7 88.4,334.4 89.1,333.8 89.7,333.5 90.3,333.5 90.9,332.5 91.5,332.3 92.2,332.6 92.8,331.3 93.4,330.0 94.0,331.3 94.7,331.7 95.3,333.8 95.9,332.8 96.5,332.8 97.1,333.4 97.8,332.7 98.4,332.3 99.0,333.2 99.6,332.2 100.3,332.2 100.9,331.8 101.5,334.5 102.1,333.9 102.7,333.3 103.4,328.0 104.0,328.4 104.6,333.5 105.2,332.8 105.8,330.7 106.5,327.9 107.1,331.1 107.7,332.8 108.3,331.7 109.0,331.4 109.6,331.7 110.2,332.1 110.8,331.8 111.4,332.6 112.1,331.3 112.7,332.2 113.3,330.9 113.9,331.9 114.6,331.7 115.2,338.0 115.8,335.7 116.4,334.5 117.0,335.7 117.7,335.3 118.3,330.9 118.9,330.2 119.5,331.6 120.2,334.2 120.8,336.1 121.4,332.0 122.0,332.0 122.6,332.4 123.3,334.3 123.9,332.7 124.5,334.0 125.1,332.0 125.7,331.2 126.4,333.3 127.0,332.6 127.6,333.4 128.2,333.5 128.9,333.3 129.5,334.5 130.1,332.9 130.7,332.9 131.3,333.2 132.0,332.6 132.6,335.4 133.2,329.8 133.8,333.5 134.5,332.8 135.1,327.8 135.7,333.6 136.3,331.9 136.9,332.3 137.6,329.1 138.2,332.1 138.8,332.4 139.4,331.3 140.1,332.6 140.7,331.7 141.3,332.7 141.9,331.8 142.5,331.6 143.2,331.5 143.8,332.4 144.4,331.9 145.0,332.9 145.6,330.8 146.3,332.9 146.9,333.0 147.5,332.8 148.1,328.1 148.8,325.5 149.4,327.2 150.0,327.4 150.6,327.3 151.2,328.8 151.9,328.1 152.5,327.4 153.1,331.7 153.7,332.1 154.4,331.4 155.0,331.6 155.6,331.5 156.2,331.4 156.8,331.5 157.5,331.8 158.1,331.6 158.7,331.9 159.3,332.6 160.0,331.9 160.6,333.9 161.2,333.9 161.8,332.4 162.4,334.7 163.1,338.8 163.7,333.3 164.3,335.4 164.9,333.5 165.5,333.2 166.2,333.2 166.8,332.8 167.4,332.9 168.0,331.9 168.7,332.8 169.3,331.8 169.9,331.5 170.5,331.2 171.1,331.5 171.8,332.9 172.4,334.8 173.0,332.2 173.6,333.0 174.3,332.8 174.9,333.1 175.5,333.2 176.1,334.0 176.7,334.3 177.4,334.0 178.0,339.1 178.6,333.5 179.2,335.8 179.9,330.5 180.5,333.0 181.1,331.9 181.7,332.5 182.3,331.2 183.0,331.5 183.6,332.5 184.2,331.6 184.8,330.6 185.4,332.0 186.1,332.3 186.7,331.3 187.3,331.9 187.9,331.9 188.6,332.2 189.2,332.3 189.8,332.9 190.4,333.1 191.0,334.0 191.7,334.7 192.3,333.0 192.9,338.1 193.5,332.9 194.2,333.4 194.8,332.7 195.4,332.6 196.0,331.6 196.6,331.5 197.3,331.5 197.9,331.3 198.5,332.2 199.1,332.4 199.8,334.0 200.4,333.8 201.0,333.2 201.6,332.7 202.2,333.5 202.9,332.3 203.5,333.2 204.1,332.0 204.7,333.2 205.3,333.9 206.0,334.4 206.6,334.0 207.2,335.1 207.8,339.9 208.5,334.2 209.1,334.2 209.7,334.0 210.3,333.8 210.9,332.6 211.6,332.3 212.2,332.0 212.8,333.0 213.4,332.5 214.1,331.9 214.7,332.0 215.3,331.3 215.9,332.4 216.5,331.2 217.2,331.3 217.8,331.3 218.4,333.5 219.0,333.5 219.7,333.3 220.3,334.1 220.9,336.2 221.5,333.9 222.1,334.3 222.8,333.9 223.4,333.0 224.0,329.9 224.6,328.0 225.2,333.8 225.9,331.9 226.5,329.3 227.1,328.8 227.7,328.7 228.4,328.6 229.0,328.5 229.6,331.0 230.2,329.8 230.8,330.4 231.5,330.5 232.1,332.0 232.7,333.7 233.3,335.2 234.0,331.9 234.6,337.8 235.2,332.7 235.8,335.0 236.4,333.7 237.1,333.9 237.7,335.1 238.3,332.6 238.9,326.5 239.6,328.2 240.2,328.5 240.8,328.9 241.4,327.3 242.0,329.2 242.7,328.4 243.3,326.4 243.9,331.4 244.5,331.1 245.1,332.5 245.8,332.9 246.4,332.3 247.0,331.7 247.6,333.0 248.3,332.7 248.9,332.5 249.5,335.3 250.1,333.0 250.7,332.3 251.4,334.0 252.0,329.2 252.6,326.7 253.2,327.6 253.9,333.5 254.5,332.9 255.1,331.9 255.7,335.8 256.3,331.0 257.0,331.8 257.6,331.6 258.2,332.8 258.8,330.0 259.5,331.6 260.1,331.8 260.7,335.0 261.3,331.0 261.9,331.8 262.6,331.6 263.2,332.3 263.8,332.1 264.4,334.7 265.0,332.8 265.7,333.9 266.3,333.4 266.9,332.9 267.5,335.0 268.2,333.1 268.8,334.1 269.4,334.8 270.0,333.3 270.6,329.6 271.3,328.7 271.9,333.9 272.5,332.0 273.1,333.1 273.8,333.5 274.4,332.4 275.0,332.8 275.6,332.7 276.2,332.4 276.9,331.9 277.5,335.0 278.1,334.6 278.7,333.9 279.4,334.6 280.0,334.0 280.6,337.8 281.2,336.7 281.8,336.2 282.5,336.7 283.1,337.7 283.7,337.6 284.3,336.9 284.9,337.5 285.6,337.8 286.2,337.0 286.8,336.6 287.4,335.1 288.1,332.8 288.7,334.1 289.3,336.2 289.9,334.3 290.5,334.7 291.2,333.8 291.8,335.0 292.4,334.5 293.0,334.5 293.7,334.5 294.3,333.3 294.9,334.6 295.5,333.8 296.1,334.4 296.8,332.6 297.4,333.4 298.0,334.3 298.6,334.6 299.3,334.8 299.9,334.1 300.5,333.9 301.1,333.0 301.7,332.9 302.4,333.3 303.0,330.2 303.6,332.2 304.2,334.0 304.8,332.3 305.5,331.8 306.1,332.6 306.7,332.9 307.3,333.1 308.0,333.1 308.6,333.3 309.2,333.4 309.8,332.8 310.4,334.5 311.1,334.3 311.7,335.1 312.3,334.2 312.9,335.0 313.6,333.8 314.2,333.3 314.8,334.4 315.4,331.8 316.0,333.1 316.7,332.0 317.3,332.5 317.9,330.4 318.5,331.6 319.2,332.4 319.8,333.5 320.4,330.6 321.0,332.8 321.6,330.6 322.3,331.5 322.9,332.3 323.5,332.1 324.1,332.2 324.7,332.0 325.4,333.1 326.0,335.1 326.6,333.9 327.2,327.2 327.9,328.2 328.5,327.6 329.1,329.8 329.7,328.2 330.3,328.2 331.0,329.4 331.6,332.7 332.2,332.3 332.8,330.2 333.5,332.0 334.1,331.9 334.7,333.1 335.3,332.0 335.9,332.3 336.6,332.4 337.2,332.3 337.8,331.0 338.4,331.2 339.1,333.0 339.7,333.1 340.3,333.0 340.9,334.1 341.5,332.4 342.2,333.5 342.8,333.5 343.4,333.6 344.0,333.1 344.6,332.7 345.3,332.3 345.9,330.4 346.5,333.8 347.1,331.0 347.8,327.7 348.4,331.8 349.0,331.6 349.6,332.3 350.2,332.4 350.9,332.0 351.5,331.8 352.1,332.3 352.7,332.8 353.4,332.5 354.0,333.0 354.6,332.6 355.2,333.0 355.8,333.9 356.5,334.3 357.1,331.1 357.7,334.6 358.3,335.4 359.0,335.9 359.6,333.1 360.2,332.6 360.8,333.7 361.4,331.5 362.1,331.8 362.7,330.5 363.3,332.0 363.9,333.0 364.5,331.2 365.2,330.3 365.8,331.0 366.4,331.4 367.0,330.4 367.7,333.1 368.3,331.9 368.9,331.8 369.5,334.5 370.1,341.2 370.8,332.6 371.4,332.0 372.0,334.0 372.6,333.6 373.3,333.1 373.9,333.6 374.5,331.9 375.1,331.5 375.7,331.2 376.4,331.6 377.0,332.4 377.6,331.3 378.2,330.7 378.9,331.4 379.5,331.1 380.1,330.6 380.7,331.3 381.3,332.2 382.0,331.6 382.6,332.0 383.2,332.5 383.8,330.9 384.4,332.9 385.1,332.6 385.7,336.7 386.3,334.1 386.9,332.8 387.6,335.6 388.2,332.9 388.8,333.3 389.4,333.3 390.0,332.4 390.7,330.8 391.3,332.2 391.9,332.2 392.5,331.9 393.2,332.1 393.8,330.6 394.4,331.2 395.0,331.1 395.6,335.0 396.3,331.6 396.9,331.8 397.5,331.1 398.1,332.7 398.8,333.0 399.4,334.2 400.0,332.0 400.6,334.8 401.2,332.4 401.9,334.6 402.5,335.1 403.1,332.4 403.7,333.3 404.3,332.2 405.0,333.0 405.6,332.1 406.2,332.8 406.8,331.9 407.5,331.4 408.1,330.7 408.7,332.9 409.3,332.1 409.9,331.1 410.6,330.9 411.2,332.0 411.8,332.3 412.4,333.3 413.1,330.6 413.7,332.8 414.3,332.9 414.9,333.5 415.5,334.3 416.2,334.3 416.8,333.7 417.4,332.4 418.0,332.8 418.7,334.0 419.3,333.0 419.9,332.3 420.5,331.4 421.1,330.5 421.8,331.2 422.4,331.3 423.0,331.6 423.6,332.7 424.2,332.9 424.9,332.4 425.5,332.2 426.1,331.7 426.7,332.3 427.4,332.7 428.0,331.7 428.6,332.6 429.2,333.8 429.8,333.6 430.5,335.1 431.1,333.1 431.7,333.8 432.3,333.4 433.0,334.8 433.6,333.5 434.2,331.6 434.8,332.1 435.4,330.5 436.1,331.6 436.7,332.3 437.3,329.9 437.9,331.9 438.6,331.3 439.2,331.9 439.8,331.8 440.4,332.0 441.0,331.9 441.7,330.8 442.3,331.7 442.9,331.2 443.5,333.8 444.1,333.6 444.8,333.7 445.4,333.7 446.0,333.8 446.6,334.6 447.3,333.7 447.9,333.5 448.5,333.6 449.1,333.0 449.7,335.7 450.4,333.3 451.0,332.0 451.6,332.6 452.2,330.7 452.9,331.2 453.5,332.0 454.1,333.3 454.7,332.8 455.3,332.8 456.0,333.1 456.6,331.7 457.2,332.8 457.8,332.9 458.5,334.9 459.1,334.6 459.7,334.5 460.3,334.0 460.9,334.9 461.6,333.5 462.2,334.7 462.8,333.2 463.4,333.7 464.0,333.0 464.7,333.5 465.3,333.1 465.9,332.2 466.5,332.5 467.2,331.4 467.8,331.4 468.4,332.5 469.0,332.8 469.6,331.9 470.3,332.3 470.9,332.1 471.5,333.0 472.1,332.4 472.8,333.7 473.4,333.2 474.0,333.5 474.6,334.2 475.2,332.9 475.9,333.2 476.5,334.9 477.1,333.5 477.7,334.7 478.4,332.4 479.0,333.0 479.6,332.8 480.2,333.1 480.8,331.9 481.5,333.1 482.1,331.8 482.7,332.4 483.3,332.9 483.9,332.0 484.6,332.0 485.2,334.4 485.8,333.5 486.4,332.9 487.1,332.9 487.7,333.3 488.3,333.4 488.9,333.4 489.5,335.1 490.2,332.4 490.8,336.0 491.4,333.3 492.0,333.8 492.7,333.9 493.3,331.6 493.9,332.8 494.5,333.0 495.1,332.8 495.8,332.9 496.4,335.2 497.0,334.2 497.6,331.6 498.3,332.0 498.9,332.8 499.5,332.4 500.1,331.7 500.7,332.4 501.4,332.7 502.0,335.1 502.6,333.4 503.2,335.0 503.8,333.4 504.5,336.4 505.1,333.0 505.7,333.5 506.3,334.8 507.0,333.3 507.6,333.8 508.2,333.4 508.8,337.4 509.4,332.3 510.1,332.9 510.7,331.7 511.3,333.6 511.9,331.2 512.6,330.2 513.2,333.6 513.8,333.5 514.4,332.2 515.0,333.0 515.7,332.7 516.3,332.5 516.9,332.3 517.5,332.9 518.2,332.9 518.8,332.5 519.4,333.5 520.0,335.1 520.6,334.1 521.3,334.6 521.9,335.2 522.5,334.0 523.1,333.9 523.7,328.9 524.4,346.8 525.0,346.8 525.6,342.0 526.2,340.9 526.9,284.6 527.5,279.3 528.1,277.3 528.7,281.9 529.3,280.5 530.0,282.6 530.6,280.1 531.2,279.9 531.8,279.3 532.5,289.5 533.1,292.4 533.7,294.0 534.3,293.6 534.9,290.1 535.6,293.9 536.2,294.3 536.8,289.7 537.4,294.6 538.1,289.3 538.7,294.6 539.3,289.6 539.9,292.8 540.5,292.3 541.2,293.3 541.8,286.2 542.4,298.8 543.0,293.1 543.6,292.6 544.3,285.5 544.9,296.3 545.5,297.7 546.1,289.6 546.8,295.7 547.4,290.7 548.0,303.5 548.6,294.4 549.2,297.7 549.9,291.5 550.5,294.7 551.1,289.5 551.7,277.3 552.4,272.3 553.0,283.5 553.6,286.8 554.2,290.9 554.8,288.8 555.5,286.1 556.1,291.2 556.7,287.6 557.3,292.6 558.0,292.6 558.6,289.2 559.2,287.5 559.8,290.8 560.4,293.8 561.1,293.5 561.7,293.2 562.3,305.5 562.9,302.0 563.5,310.4 564.2,304.2 564.8,294.9 565.4,301.1 566.0,303.5 566.7,303.9 567.3,303.6 567.9,304.7 568.5,295.8 569.1,303.8 569.8,304.5 570.4,303.3 571.0,299.5 571.6,301.0 572.3,297.2 572.9,301.1 573.5,299.0 574.1,290.4 574.7,305.1 575.4,303.0 576.0,299.0 576.6,299.9 577.2,307.0 577.9,299.1 578.5,302.7 579.1,301.8 579.7,292.3 580.3,298.0 581.0,299.2 581.6,299.5 582.2,294.9 582.8,297.2 583.4,295.4 584.1,297.2 584.7,292.1 585.3,216.6 585.9,297.5 586.6,299.8 587.2,288.9 587.8,294.1 588.4,290.6 589.0,295.1 589.7,299.2 590.3,293.0 590.9,296.8 591.5,298.8 592.2,303.6 592.8,300.8 593.4,303.0 594.0,302.2 594.6,294.1 595.3,297.1 595.9,296.9 596.5,299.8 597.1,296.6 597.8,295.0 598.4,292.7 599.0,293.0 599.6,291.5 600.2,295.2 600.9,294.2 601.5,292.6 602.1,296.9 602.7,297.5 603.3,291.3 604.0,299.9 604.6,293.7 605.2,298.4 605.8,292.8 606.5,304.8 607.1,304.1 607.7,307.7 608.3,303.1 608.9,303.9 609.6,294.2 610.2,300.3 610.8,303.3 611.4,302.5 612.1,297.7 612.7,293.4 613.3,289.8 613.9,291.7 614.5,282.6 615.2,300.5 615.8,286.9 616.4,299.4 617.0,300.3 617.7,303.7 618.3,310.6 618.9,301.9 619.5,302.9 620.1,309.7 620.8,305.6 621.4,303.8 622.0,309.3 622.6,307.6 623.2,313.1 623.9,308.1 624.5,303.2 625.1,317.3 625.7,313.1 626.4,312.2 627.0,307.5 627.6,305.0 628.2,309.5 628.8,306.5 629.5,309.3 630.1,301.3 630.7,305.7 631.3,297.7 632.0,310.6 632.6,304.2 633.2,308.3 633.8,304.9 634.4,301.3 635.1,299.6 635.7,294.9 636.3,304.0 636.9,310.8 637.6,311.4 638.2,312.3 638.8,313.2 639.4,312.8 640.0,323.0 640.7,328.3 641.3,322.5 641.9,325.8 642.5,323.2 643.1,323.5 643.8,323.9 644.4,326.1 645.0,325.3 645.6,325.0 646.3,322.0 646.9,323.0 647.5,323.5 648.1,321.6 648.7,322.1 649.4,322.9 650.0,323.3 650.6,322.4 651.2,321.6 651.9,323.4 652.5,323.2 653.1,324.9 653.7,332.1 654.3,333.2 655.0,322.8 655.6,327.6 656.2,326.2 656.8,323.8 657.5,329.0 658.1,321.0 658.7,319.9 659.3,323.0 659.9,323.0 660.6,321.9 661.2,322.3 661.8,321.1 662.4,322.0 663.0,323.1 663.7,325.4 664.3,324.1 664.9,323.5 665.5,324.4 666.2,323.6 666.8,326.2 667.4,326.5 668.0,326.1 668.6,327.4 669.3,326.2 669.9,326.3 670.5,322.9 671.1,334.2 671.8,321.8 672.4,320.1 673.0,319.8 673.6,322.6 674.2,322.5 674.9,323.9 675.5,324.3 676.1,324.0 676.7,323.5 677.4,321.4 678.0,326.3 678.6,324.1 679.2,323.3 679.8,321.3 680.5,323.5 681.1,322.7 681.7,323.9 682.3,326.2 682.9,329.3 683.6,328.2 684.2,322.6 684.8,322.7 685.4,327.6 686.1,326.1 686.7,320.3 687.3,315.5 687.9,322.7 688.5,316.8 689.2,324.4 689.8,321.3 690.4,326.1 691.0,319.7 691.7,320.0 692.3,321.3 692.9,319.3 693.5,323.7 694.1,318.2 694.8,321.1 695.4,321.2 696.0,323.7 696.6,316.8 697.3,325.8 697.9,331.5 698.5,328.9 699.1,326.5 699.7,321.4 700.4,321.5 701.0,323.6 701.6,326.0 702.2,318.5 702.8,311.7 703.5,324.7 704.1,272.7 704.7,320.9 705.3,319.2 706.0,318.0 706.6,320.2 707.2,325.8 707.8,318.6 708.4,321.8 709.1,321.5 709.7,322.6 710.3,320.3 710.9,321.0 711.6,324.8 712.2,326.7 712.8,329.9 713.4,322.5 714.0,328.5 714.7,323.7 715.3,319.9 715.9,323.9 716.5,332.4 717.2,317.1 717.8,315.4 718.4,317.3 719.0,325.2 719.6,321.2 720.3,323.7 720.9,321.9 721.5,322.3 722.1,323.0 722.7,321.9 723.4,323.7 724.0,318.2 724.6,320.4 725.2,317.7 725.9,325.8 726.5,321.9 727.1,327.8 727.7,323.2 728.3,330.5 729.0,318.6 729.6,327.1 730.2,324.3 730.8,323.3 731.5,326.1 732.1,318.4 732.7,319.8 733.3,320.0 733.9,315.3 734.6,319.5 735.2,321.1 735.8,320.8 736.4,323.0 737.1,323.4 737.7,322.8 738.3,324.5 738.9,319.1 739.5,321.3 740.2,321.7 740.8,327.9 741.4,324.7 742.0,325.8 742.6,331.4 743.3,325.0 743.9,321.6 744.5,322.6 745.1,321.4 745.8,322.3 746.4,316.6 747.0,318.6 747.6,313.1 748.2,314.2 748.9,317.3 749.5,321.0 750.1,314.2 750.7,319.3 751.4,325.9 752.0,323.7 752.6,321.0 753.2,319.0 753.8,316.5 754.5,320.0 755.1,317.6 755.7,325.2 756.3,322.8 757.0,326.7 757.6,326.8 758.2,323.0 758.8,318.7 759.4,321.8 760.1,315.2 760.7,322.4 761.3,319.8 761.9,320.8 762.5,314.7 763.2,318.8 763.8,317.5 764.4,310.8 765.0,323.5 765.7,318.9 766.3,316.4 766.9,321.2 767.5,317.9 768.1,318.9 768.8,323.4 769.4,320.1 770.0,323.7 770.6,319.4 771.3,317.3 771.9,329.9 772.5,324.9 773.1,322.4 773.7,327.8 774.4,322.3 775.0,316.9 775.6,320.5 776.2,319.5 776.9,316.7 777.5,312.6 778.1,316.2 778.7,319.3 779.3,314.2 780.0,316.2 780.6,317.7 781.2,318.6 781.8,323.0 782.4,316.8 783.1,322.0 783.7,321.1 784.3,319.8 784.9,316.4 785.6,321.8 786.2,320.1 786.8,320.2 787.4,328.5 788.0,319.7 788.7,324.0 789.3,325.1 789.9,321.9 790.5,323.1 791.2,320.1 791.8,319.9 792.4,311.0 793.0,319.0 793.6,317.1 794.3,309.6 794.9,323.7 795.5,316.8 796.1,313.7 796.8,323.4 797.4,326.9 798.0,318.3 798.6,321.2 799.2,323.8 799.9,324.1 800.5,314.0 801.1,326.1 801.7,330.3 802.3,325.4 803.0,327.4 803.6,326.5 804.2,325.4 804.8,326.8 805.5,328.5 806.1,320.7 806.7,310.6 807.3,326.0 807.9,321.0 808.6,312.3 809.2,321.1 809.8,324.6 810.4,325.4 811.1,309.0 811.7,322.8 812.3,320.2 812.9,320.8 813.5,321.3 814.2,321.0 814.8,311.6 815.4,319.7 816.0,321.9 816.7,323.1 817.3,326.6 817.9,322.5 818.5,329.6 819.1,321.4 819.8,316.9 820.4,318.0 821.0,313.2 821.6,319.6 822.2,310.6 822.9,316.8 823.5,312.8 824.1,315.0 824.7,313.1 825.4,313.5 826.0,316.8 826.6,320.9 827.2,326.1 827.8,322.1 828.5,318.7 829.1,315.7 829.7,318.5 830.3,316.3 831.0,324.7 831.6,317.1 832.2,332.6 832.8,324.4 833.4,315.6 834.1,322.8 834.7,324.4 835.3,317.2 835.9,319.2 836.6,314.9 837.2,316.7 837.8,313.1 838.4,317.9 839.0,290.4 839.7,323.7 840.3,315.1 840.9,315.9 841.5,319.1 842.1,317.4 842.8,318.3 843.4,319.5 844.0,325.0 844.6,320.2 845.3,322.1 845.9,320.4 846.5,324.6 847.1,326.4 847.7,320.4 848.4,326.0 849.0,316.1 849.6,322.9 850.2,319.9 850.9,316.4 851.5,317.9 852.1,316.7 852.7,317.0 853.3,313.5 854.0,314.7 854.6,319.4 855.2,318.8 855.8,317.8 856.5,317.8 857.1,321.3 857.7,320.1 858.3,323.0 858.9,323.5 859.6,321.9 860.2,325.3 860.8,324.4 861.4,328.0 862.0,330.6 862.7,323.1 863.3,323.4 863.9,322.8 864.5,324.9 865.2,316.4 865.8,321.1 866.4,317.4 867.0,316.5 867.6,314.5 868.3,311.2 868.9,314.9 869.5,317.6 870.1,318.2 870.8,319.1 871.4,318.4 872.0,325.8 872.6,320.7 873.2,320.9 873.9,318.4 874.5,315.6 875.1,322.8 875.7,318.2 876.4,326.6 877.0,323.4 877.6,325.4 878.2,319.4 878.8,327.1 879.5,323.1 880.1,317.9 880.7,313.8 881.3,317.9 881.9,314.5 882.6,319.5 883.2,311.8 883.8,313.1 884.4,321.1 885.1,313.4 885.7,311.8 886.3,318.5 886.9,320.2 887.5,319.6 888.2,323.1 888.8,319.4 889.4,322.9 890.0,322.6 890.7,320.9 891.3,326.1 891.9,322.3 892.5,318.4 893.1,326.7 893.8,322.3 894.4,321.2 895.0,319.1 895.6,317.8 896.3,314.3 896.9,315.7 897.5,310.7 898.1,320.2 898.7,312.2 899.4,319.2 900.0,317.0 900.6,316.4 901.2,318.7 901.8,316.9 902.5,325.7 903.1,313.4 903.7,317.9 904.3,317.3 905.0,316.7 905.6,317.0 906.2,323.9 906.8,321.5 907.4,332.2 908.1,316.4 908.7,322.1 909.3,318.1 909.9,321.1 910.6,320.2 911.2,316.9 911.8,314.0 912.4,315.7 913.0,313.1 913.7,326.3 914.3,316.8 914.9,318.0 915.5,315.6 916.2,322.9 916.8,318.6 917.4,319.1 918.0,315.2 918.6,323.9 919.3,317.6 919.9,322.3 920.5,319.4 921.1,319.6 921.7,322.8 922.4,320.2 923.0,322.1 923.6,322.3 924.2,320.4 924.9,313.7 925.5,316.0 926.1,325.7 926.7,324.3 927.3,313.9 928.0,320.7 928.6,319.6 929.2,310.2 929.8,315.8 930.5,321.5 931.1,320.8 931.7,323.9 932.3,320.4 932.9,321.3 933.6,324.2 934.2,320.8 934.8,323.0 935.4,320.2 936.1,332.0 936.7,321.8 937.3,324.7 937.9,322.1 938.5,325.0 939.2,331.9 939.8,322.5 940.4,325.3 941.0,321.6 941.6,322.3 942.3,318.2 942.9,315.8 943.5,320.5 944.1,317.8 944.8,324.2 945.4,316.7 946.0,351.6" fill="none" stroke="#7c3aed" stroke-width="2.2" stroke-linejoin="round" stroke-linecap="round"/>
<line x1="76" y1="70" x2="94" y2="70" stroke="#2563eb" stroke-width="3"/>
<text x="100" y="74" font-family="Arial, sans-serif" font-size="11" fill="#0f172a">tx count</text>
<line x1="186" y1="70" x2="204" y2="70" stroke="#7c3aed" stroke-width="3"/>
<text x="210" y="74" font-family="Arial, sans-serif" font-size="11" fill="#0f172a">unique accounts</text>
<text x="28" y="404" font-family="Arial, sans-serif" font-size="11" fill="#64748b">Source: hourly_features.csv; capped windows are sample counts</text>
</svg>