<svg xmlns="http://www.w3.org/2000/svg" width="980" height="420" viewBox="0 0 980 420">
<rect width="100%" height="100%" fill="#ffffff"/>
<text x="28" y="34" font-family="Arial, sans-serif" font-size="20" font-weight="700" fill="#0f172a">Network activity sample trend</text>
<text x="28" y="56" font-family="Arial, sans-serif" font-size="12" fill="#64748b">Hourly transaction sample count and unique account sample count</text>
<line x1="76" y1="362.0" x2="946" y2="362.0" stroke="#e2e8f0" stroke-width="1"/>
<text x="68" y="366.0" font-family="Arial, sans-serif" font-size="10" text-anchor="end" fill="#64748b">220</text>
<line x1="76" y1="292.0" x2="946" y2="292.0" stroke="#e2e8f0" stroke-width="1"/>
<text x="68" y="296.0" font-family="Arial, sans-serif" font-size="10" text-anchor="end" fill="#64748b">1K</text>
<line x1="76" y1="222.0" x2="946" y2="222.0" stroke="#e2e8f0" stroke-width="1"/>
<text x="68" y="226.0" font-family="Arial, sans-serif" font-size="10" text-anchor="end" fill="#64748b">3K</text>
<line x1="76" y1="152.0" x2="946" y2="152.0" stroke="#e2e8f0" stroke-width="1"/>
<text x="68" y="156.0" font-family="Arial, sans-serif" font-size="10" text-anchor="end" fill="#64748b">4K</text>
<line x1="76" y1="82.0" x2="946" y2="82.0" stroke="#e2e8f0" stroke-width="1"/>
<text x="68" y="86.0" font-family="Arial, sans-serif" font-size="10" text-anchor="end" fill="#64748b">5K</text>
<line x1="76" y1="362" x2="946" y2="362" stroke="#334155" stroke-width="1"/>
<line x1="76" y1="82" x2="76" y2="362" stroke="#334155" stroke-width="1"/>
<text x="76" y="72" font-family="Arial, sans-serif" font-size="11" fill="#64748b">count</text>
<line x1="76.0" y1="362" x2="76.0" y2="366" stroke="#334155" stroke-width="1"/>
<text x="76.0" y="380" font-family="Arial, sans-serif" font-size="10" text-anchor="middle" fill="#64748b">0</text>
<line x1="511.0" y1="362" x2="511.0" y2="366" stroke="#334155" stroke-width="1"/>
<text x="511.0" y="380" font-family="Arial, sans-serif" font-size="10" text-anchor="middle" fill="#64748b">387</text>
<line x1="946.0" y1="362" x2="946.0" y2="366" stroke="#334155" stroke-width="1"/>
<text x="946.0" y="380" font-family="Arial, sans-serif" font-size="10" text-anchor="middle" fill="#64748b">774</text>
<polyline points="76.0,92.4 77.1,92.4 78.2,92.4 79.4,92.4 80.5,92.4 81.6,92.4 82.7,92.4 83.9,92.4 85.0,92.4 86.1,92.4 87.2,92.4 88.4,92.4 89.5,92.4 90.6,92.4 91.7,92.4 92.9,92.4 94.0,92.4 95.1,92.4 96.2,92.4 97.4,92.4 98.5,92.4 99.6,92.4 100.7,92.4 101.9,92.4 103.0,92.4 104.1,92.4 105.2,92.4 106.3,92.4 107.5,92.4 108.6,92.4 109.7,92.4 110.8,92.4 112.0,92.4 113.1,92.4 114.2,92.4 115.3,92.4 116.5,92.4 117.6,92.4 118.7,92.4 119.8,92.4 121.0,92.4 122.1,92.4 123.2,92.4 124.3,92.4 125.5,92.4 126.6,92.4 127.7,92.4 128.8,92.4 130.0,92.4 131.1,92.4 132.2,92.4 133.3,92.4 134.4,92.4 135.6,92.4 136.7,92.4 137.8,92.4 138.9,92.4 140.1,92.4 141.2,92.4 142.3,92.4 143.4,92.4 144.6,92.4 145.7,92.4 146.8,92.4 147.9,92.4 149.1,92.4 150.2,92.4 151.3,92.4 152.4,92.4 153.6,92.4 154.7,92.4 155.8,92.4 156.9,92.4 158.1,92.4 159.2,92.4 160.3,92.4 161.4,92.4 162.6,92.4 163.7,92.4 164.8,92.4 165.9,92.4 167.0,92.4 168.2,92.4 169.3,92.4 170.4,92.4 171.5,92.4 172.7,92.4 173.8,92.4 174.9,92.4 176.0,92.4 177.2,92.4 178.3,92.4 179.4,92.4 180.5,92.4 181.7,92.4 182.8,92.4 183.9,92.4 185.0,92.4 186.2,92.4 187.3,92.4 188.4,92.4 189.5,92.4 190.7,92.4 191.8,92.4 192.9,92.4 194.0,92.4 195.1,92.4 196.3,92.4 197.4,92.4 198.5,92.4 199.6,92.4 200.8,92.4 201.9,92.4 203.0,92.4 204.1,92.4 205.3,92.4 206.4,92.4 207.5,92.4 208.6,92.4 209.8,92.4 210.9,92.4 212.0,92.4 213.1,92.4 214.3,92.4 215.4,92.4 216.5,92.4 217.6,92.4 218.8,92.4 219.9,92.4 221.0,92.4 222.1,92.4 223.2,92.4 224.4,92.4 225.5,92.4 226.6,92.4 227.7,92.4 228.9,92.4 230.0,92.4 231.1,92.4 232.2,92.4 233.4,92.4 234.5,92.4 235.6,92.4 236.7,92.4 237.9,92.4 239.0,92.4 240.1,92.4 241.2,92.4 242.4,92.4 243.5,92.4 244.6,92.4 245.7,92.4 246.9,92.4 248.0,92.4 249.1,92.4 250.2,92.4 251.3,92.4 252.5,92.4 253.6,92.4 254.7,92.4 255.8,92.4 257.0,92.4 258.1,92.4 259.2,92.4 260.3,92.4 261.5,92.4 262.6,92.4 263.7,92.4 264.8,92.4 266.0,92.4 267.1,92.4 268.2,92.4 269.3,92.4 270.5,92.4 271.6,92.4 272.7,92.4 273.8,92.4 275.0,92.4 276.1,92.4 277.2,92.4 278.3,92.4 279.4,92.4 280.6,92.4 281.7,92.4 282.8,92.4 283.9,92.4 285.1,92.4 286.2,92.4 287.3,92.4 288.4,92.4 289.6,92.4 290.7,92.4 291.8,92.4 292.9,92.4 294.1,92.4 295.2,92.4 296.3,92.4 297.4,92.4 298.6,92.4 299.7,92.4 300.8,92.4 301.9,92.4 303.1,92.4 304.2,92.4 305.3,92.4 306.4,92.4 307.6,92.4 308.7,92.4 309.8,92.4 310.9,92.4 312.0,92.4 313.2,92.4 314.3,92.4 315.4,92.4 316.5,92.4 317.7,92.4 318.8,92.4 319.9,92.4 321.0,92.4 322.2,92.4 323.3,92.4 324.4,92.4 325.5,92.4 326.7,92.4 327.8,92.4 328.9,92.4 330.0,92.4 331.2,92.4 332.3,92.4 333.4,92.4 334.5,92.4 335.7,92.4 336.8,92.4 337.9,92.4 339.0,92.4 340.1,92.4 341.3,92.4 342.4,92.4 343.5,92.4 344.6,92.4 345.8,92.4 346.9,92.4 348.0,92.4 349.1,92.4 350.3,92.4 351.4,92.4 352.5,92.4 353.6,92.4 354.8,92.4 355.9,92.4 357.0,92.4 358.1,92.4 359.3,92.4 360.4,92.4 361.5,92.4 362.6,92.4 363.8,92.4 364.9,92.4 366.0,92.4 367.1,92.4 368.2,92.4 369.4,92.4 370.5,92.4 371.6,92.4 372.7,92.4 373.9,92.4 375.0,92.4 376.1,92.4 377.2,92.4 378.4,92.4 379.5,92.4 380.6,92.4 381.7,92.4 382.9,92.4 384.0,92.4 385.1,92.4 386.2,92.4 387.4,92.4 388.5,92.4 389.6,92.4 390.7,92.4 391.9,92.4 393.0,92.4 394.1,92.4 395.2,92.4 396.3,92.4 397.5,92.4 398.6,92.4 399.7,92.4 400.8,92.4 402.0,92.4 403.1,92.4 404.2,92.4 405.3,92.4 406.5,92.4 407.6,92.4 408.7,92.4 409.8,92.4 411.0,92.4 412.1,92.4 413.2,92.4 414.3,92.4 415.5,92.4 416.6,92.4 417.7,92.4 418.8,92.4 420.0,92.4 421.1,92.4 422.2,92.4 423.3,92.4 424.4,92.4 425.6,92.4 426.7,92.4 427.8,92.4 428.9,92.4 430.1,92.4 431.2,92.4 432.3,92.4 433.4,92.4 434.6,92.4 435.7,92.4 436.8,92.4 437.9,92.4 439.1,92.4 440.2,92.4 441.3,92.4 442.4,92.4 443.6,92.4 444.7,92.4 445.8,92.4 446.9,92.4 448.1,92.4 449.2,92.4 450.3,92.4 451.4,92.4 452.6,92.4 453.7,92.4 454.8,92.4 455.9,92.4 457.0,92.4 458.2,92.4 459.3,92.4 460.4,92.4 461.5,92.4 462.7,92.4 463.8,92.4 464.9,92.4 466.0,92.4 467.2,92.4 468.3,92.4 469.4,92.4 470.5,92.4 471.7,92.4 472.8,92.4 473.9,92.4 475.0,92.4 476.2,92.4 477.3,92.4 478.4,92.4 479.5,92.4 480.7,92.4 481.8,92.4 482.9,92.4 484.0,92.4 485.1,92.4 486.3,92.4 487.4,92.4 488.5,92.4 489.6,92.4 490.8,92.4 491.9,92.4 493.0,92.4 494.1,92.4 495.3,92.4 496.4,92.4 497.5,92.4 498.6,92.4 499.8,92.4 500.9,92.4 502.0,92.4 503.1,92.4 504.3,92.4 505.4,92.4 506.5,92.4 507.6,92.4 508.8,92.4 509.9,92.4 511.0,92.4 512.1,92.4 513.2,92.4 514.4,92.4 515.5,92.4 516.6,92.4 517.7,92.4 518.9,92.4 520.0,92.4 521.1,92.4 522.2,92.4 523.4,92.4 524.5,92.4 525.6,92.4 526.7,92.4 527.9,92.4 529.0,92.4 530.1,92.4 531.2,92.4 532.4,92.4 533.5,92.4 534.6,92.4 535.7,92.4 536.9,92.4 538.0,92.4 539.1,92.4 540.2,92.4 541.3,92.4 542.5,92.4 543.6,92.4 544.7,92.4 545.8,92.4 547.0,92.4 548.1,92.4 549.2,92.4 550.3,92.4 551.5,92.4 552.6,92.4 553.7,92.4 554.8,92.4 556.0,92.4 557.1,92.4 558.2,92.4 559.3,92.4 560.5,92.4 561.6,92.4 562.7,92.4 563.8,92.4 565.0,92.4 566.1,92.4 567.2,92.4 568.3,92.4 569.4,92.4 570.6,92.4 571.7,92.4 572.8,92.4 573.9,92.4 575.1,92.4 576.2,92.4 577.3,92.4 578.4,92.4 579.6,92.4 580.7,92.4 581.8,92.4 582.9,92.4 584.1,92.4 585.2,92.4 586.3,92.4 587.4,92.4 588.6,92.4 589.7,92.4 590.8,92.4 591.9,92.4 593.1,92.4 594.2,92.4 595.3,92.4 596.4,92.4 597.6,92.4 598.7,92.4 599.8,92.4 600.9,92.4 602.0,92.4 603.2,92.4 604.3,92.4 605.4,92.4 606.5,92.4 607.7,92.4 608.8,92.4 609.9,92.4 611.0,92.4 612.2,92.4 613.3,92.4 614.4,92.4 615.5,92.4 616.7,92.4 617.8,92.4 618.9,92.4 620.0,92.4 621.2,92.4 622.3,92.4 623.4,92.4 624.5,92.4 625.7,92.4 626.8,92.4 627.9,92.4 629.0,92.4 630.1,92.4 631.3,92.4 632.4,92.4 633.5,92.4 634.6,92.4 635.8,92.4 636.9,92.4 638.0,92.4 639.1,92.4 640.3,92.4 641.4,92.4 642.5,92.4 643.6,92.4 644.8,92.4 645.9,92.4 647.0,92.4 648.1,92.4 649.3,92.4 650.4,92.4 651.5,92.4 652.6,92.4 653.8,92.4 654.9,92.4 656.0,92.4 657.1,92.4 658.2,92.4 659.4,92.4 660.5,92.4 661.6,92.4 662.7,92.4 663.9,92.4 665.0,92.4 666.1,92.4 667.2,92.4 668.4,92.4 669.5,92.4 670.6,92.4 671.7,92.4 672.9,92.4 674.0,92.4 675.1,92.4 676.2,92.4 677.4,92.4 678.5,92.4 679.6,92.4 680.7,92.4 681.9,92.4 683.0,92.4 684.1,92.4 685.2,92.4 686.3,92.4 687.5,92.4 688.6,92.4 689.7,92.4 690.8,92.4 692.0,92.4 693.1,92.4 694.2,92.4 695.3,92.4 696.5,92.4 697.6,92.4 698.7,92.4 699.8,92.4 701.0,92.4 702.1,92.4 703.2,92.4 704.3,92.4 705.5,92.4 706.6,92.4 707.7,92.4 708.8,92.4 710.0,92.4 711.1,92.4 712.2,92.4 713.3,92.4 714.4,92.4 715.6,92.4 716.7,92.4 717.8,92.4 718.9,92.4 720.1,92.4 721.2,92.4 722.3,92.4 723.4,92.4 724.6,92.4 725.7,92.4 726.8,92.4 727.9,92.4 729.1,92.4 730.2,92.4 731.3,92.4 732.4,92.4 733.6,92.4 734.7,92.4 735.8,92.4 736.9,92.4 738.1,92.4 739.2,92.4 740.3,92.4 741.4,92.4 742.6,92.4 743.7,92.4 744.8,92.4 745.9,92.4 747.0,92.4 748.2,92.4 749.3,92.4 750.4,92.4 751.5,92.4 752.7,92.4 753.8,92.4 754.9,92.4 756.0,92.4 757.2,92.4 758.3,92.4 759.4,92.4 760.5,92.4 761.7,92.4 762.8,92.4 763.9,92.4 765.0,92.4 766.2,92.4 767.3,92.4 768.4,92.4 769.5,92.4 770.7,92.4 771.8,92.4 772.9,92.4 774.0,92.4 775.1,92.4 776.3,92.4 777.4,92.4 778.5,92.4 779.6,92.4 780.8,92.4 781.9,92.4 783.0,92.4 784.1,92.4 785.3,92.4 786.4,92.4 787.5,92.4 788.6,92.4 789.8,92.4 790.9,92.4 792.0,92.4 793.1,92.4 794.3,92.4 795.4,92.4 796.5,92.4 797.6,92.4 798.8,92.4 799.9,92.4 801.0,92.4 802.1,92.4 803.2,92.4 804.4,92.4 805.5,92.4 806.6,92.4 807.7,92.4 808.9,92.4 810.0,92.4 811.1,92.4 812.2,92.4 813.4,92.4 814.5,92.4 815.6,92.4 816.7,92.4 817.9,92.4 819.0,92.4 820.1,92.4 821.2,92.4 822.4,92.4 823.5,92.4 824.6,92.4 825.7,92.4 826.9,92.4 828.0,92.4 829.1,92.4 830.2,92.4 831.3,92.4 832.5,92.4 833.6,92.4 834.7,92.4 835.8,92.4 837.0,92.4 838.1,92.4 839.2,92.4 840.3,318.0 841.5,318.0 842.6,318.0 843.7,318.0 844.8,318.0 846.0,318.0 847.1,318.0 848.2,318.0 849.3,318.0 850.5,318.0 851.6,318.0 852.7,318.0 853.8,318.0 855.0,318.0 856.1,318.0 857.2,318.0 858.3,318.0 859.4,318.0 860.6,318.0 861.7,318.0 862.8,318.0 863.9,318.0 865.1,318.0 866.2,318.0 867.3,318.0 868.4,318.0 869.6,318.0 870.7,318.0 871.8,318.0 872.9,318.0 874.1,318.0 875.2,318.0 876.3,318.0 877.4,318.0 878.6,318.0 879.7,318.0 880.8,318.0 881.9,318.0 883.1,318.0 884.2,318.0 885.3,318.0 886.4,318.0 887.6,318.0 888.7,318.0 889.8,318.0 890.9,318.0 892.0,318.0 893.2,318.0 894.3,318.0 895.4,318.0 896.5,318.0 897.7,318.0 898.8,318.0 899.9,318.0 901.0,318.0 902.2,318.0 903.3,318.0 904.4,318.0 905.5,318.0 906.7,318.0 907.8,318.0 908.9,318.0 910.0,318.0 911.2,318.0 912.3,318.0 913.4,318.0 914.5,318.0 915.7,318.0 916.8,318.0 917.9,318.0 919.0,318.0 920.1,207.0 921.3,318.0 922.4,318.0 923.5,318.0 924.6,318.0 925.8,318.0 926.9,263.4 928.0,318.0 929.1,318.0 930.3,263.5 931.4,318.0 932.5,318.0 933.6,318.0 934.8,318.0 935.9,318.0 937.0,318.0 938.1,318.0 939.3,262.2 940.4,263.5 941.5,318.0 942.6,318.0 943.8,318.0 944.9,318.0 946.0,318.0" fill="none" stroke="#2563eb" stroke-width="2.2" stroke-linejoin="round" stroke-linecap="round"/>
<polyline points="76.0,262.8 77.1,258.8 78.2,249.5 79.4,247.2 80.5,250.9 81.6,240.3 82.7,239.7 83.9,243.5 85.0,248.5 86.1,248.0 87.2,264.6 88.4,246.1 89.5,245.2 90.6,246.9 91.7,251.1 92.9,259.3 94.0,256.5 95.1,254.2 96.2,251.6 97.4,256.6 98.5,261.5 99.6,257.5 100.7,255.6 101.9,255.2 103.0,249.2 104.1,247.7 105.2,249.7 106.3,241.1 107.5,232.5 108.6,241.2 109.7,243.5 110.8,257.3 112.0,251.0 113.1,250.7 114.2,255.2 115.3,250.5 116.5,247.4 117.6,253.4 118.7,247.1 119.8,247.0 121.0,244.7 122.1,261.9 123.2,258.2 124.3,254.2 125.5,219.8 126.6,222.3 127.7,255.3 128.8,251.2 130.0,237.3 131.1,219.3 132.2,239.9 133.3,251.2 134.4,243.9 135.6,242.1 136.7,243.9 137.8,246.7 138.9,244.4 140.1,250.0 141.2,241.3 142.3,247.0 143.4,238.8 144.6,245.4 145.7,243.9 146.8,285.1 147.9,270.0 149.1,262.3 150.2,270.1 151.3,267.0 152.4,238.5 153.6,233.8 154.7,243.4 155.8,259.9 156.9,272.4 158.1,246.0 159.2,245.5 160.3,248.1 161.4,261.0 162.6,250.4 163.7,259.1 164.8,245.9 165.9,240.5 167.0,253.9 168.2,249.9 169.3,254.6 170.4,255.7 171.5,254.0 172.7,261.9 173.8,251.4 174.9,251.4 176.0,253.7 177.2,250.0 178.3,268.3 179.4,231.5 180.5,255.8 181.7,251.1 182.8,218.2 183.9,256.5 185.0,245.2 186.2,247.9 187.3,226.9 188.4,246.1 189.5,248.3 190.7,241.0 191.8,249.4 192.9,243.6 194.0,250.1 195.1,244.3 196.3,242.8 197.4,242.6 198.5,248.1 199.6,245.4 200.8,251.8 201.9,237.9 203.0,251.4 204.1,252.6 205.3,250.9 206.4,220.0 207.5,203.6 208.6,214.7 209.8,215.7 210.9,215.3 212.0,224.9 213.1,220.4 214.3,216.0 215.4,243.5 216.5,246.4 217.6,241.9 218.8,243.2 219.9,242.2 221.0,241.7 222.1,242.6 223.2,244.6 224.4,243.4 225.5,245.1 226.6,249.7 227.7,245.1 228.9,258.2 230.0,257.8 231.1,248.2 232.2,263.2 233.4,290.3 234.5,254.2 235.6,268.2 236.7,255.6 237.9,253.3 239.0,253.6 240.1,250.8 241.2,251.8 242.4,245.2 243.5,251.1 244.6,244.3 245.7,242.4 246.9,240.7 248.0,242.6 249.1,251.4 250.2,264.1 251.3,247.2 252.5,252.2 253.6,250.9 254.7,253.1 255.8,253.4 257.0,258.6 258.1,260.8 259.2,259.1 260.3,292.1 261.5,255.7 262.6,270.2 263.7,236.2 264.8,252.1 266.0,245.1 267.1,249.0 268.2,240.5 269.3,242.6 270.5,248.7 271.6,243.1 272.7,236.6 273.8,245.7 275.0,247.5 276.1,241.4 277.2,245.2 278.3,245.0 279.4,246.8 280.6,247.8 281.7,251.7 282.8,253.2 283.9,259.1 285.1,263.5 286.2,252.2 287.3,285.5 288.4,251.7 289.6,255.1 290.7,250.6 291.8,249.8 292.9,242.9 294.1,242.4 295.2,242.2 296.3,241.0 297.4,247.3 298.6,248.1 299.7,258.9 300.8,257.3 301.9,253.8 303.1,250.1 304.2,255.8 305.3,247.6 306.4,253.5 307.6,245.9 308.7,253.4 309.8,258.1 310.9,261.3 312.0,258.9 313.2,266.2 314.3,297.6 315.4,260.0 316.5,260.3 317.7,258.6 318.8,257.8 319.9,249.6 321.0,247.9 322.2,245.9 323.3,252.3 324.4,248.8 325.5,245.4 326.7,245.5 327.8,241.2 328.9,248.2 330.0,240.3 331.2,241.3 332.3,240.9 333.4,255.8 334.5,255.5 335.7,254.2 336.8,259.3 337.9,273.3 339.0,257.9 340.1,260.5 341.3,258.2 342.4,252.3 343.5,232.0 344.6,219.6 345.8,257.6 346.9,245.0 348.0,228.2 349.1,224.5 350.3,224.1 351.4,223.8 352.5,222.7 353.6,239.3 354.8,231.7 355.9,235.3 357.0,236.0 358.1,245.7 359.3,256.8 360.4,266.4 361.5,245.2 362.6,283.8 363.8,250.1 364.9,265.2 366.0,256.9 367.1,258.4 368.2,265.9 369.4,249.6 370.5,209.8 371.6,220.6 372.7,223.0 373.9,225.7 375.0,215.1 376.1,227.4 377.2,222.0 378.4,209.0 379.5,242.0 380.6,239.8 381.7,248.9 382.9,251.4 384.0,247.5 385.1,243.7 386.2,252.6 387.4,250.3 388.5,248.7 389.6,267.5 390.7,252.2 391.9,247.7 393.0,258.9 394.1,227.2 395.2,211.3 396.3,216.8 397.5,255.8 398.6,251.6 399.7,245.4 400.8,270.3 402.0,239.4 403.1,244.7 404.2,243.3 405.3,250.8 406.5,232.4 407.6,242.8 408.7,244.7 409.8,265.4 411.0,239.2 412.1,244.6 413.2,242.8 414.3,247.8 415.5,246.7 416.6,263.6 417.7,250.8 418.8,258.2 420.0,254.7 421.1,251.7 422.2,265.0 423.3,252.6 424.4,259.2 425.6,263.9 426.7,253.9 427.8,230.0 428.9,224.2 430.1,257.9 431.2,245.8 432.3,252.8 433.4,255.5 434.6,248.1 435.7,251.2 436.8,250.1 437.9,248.5 439.1,245.4 440.2,265.0 441.3,263.0 442.4,258.3 443.6,262.4 444.7,259.0 445.8,283.8 446.9,276.5 448.1,273.1 449.2,276.5 450.3,282.7 451.4,282.5 452.6,277.7 453.7,281.6 454.8,283.5 455.9,278.5 457.0,276.0 458.2,265.8 459.3,251.2 460.4,259.6 461.5,273.4 462.7,261.0 463.8,263.4 464.9,257.8 466.0,265.6 467.2,262.2 468.3,262.1 469.4,262.1 470.5,254.3 471.7,262.8 472.8,257.4 473.9,261.5 475.0,249.6 476.2,254.9 477.3,260.6 478.4,262.8 479.5,263.7 480.7,259.3 481.8,258.4 482.9,252.3 484.0,251.5 485.1,254.4 486.3,233.7 487.4,246.8 488.5,259.0 489.6,247.4 490.8,244.3 491.9,249.6 493.0,251.4 494.1,253.2 495.3,252.7 496.4,254.5 497.5,255.1 498.6,251.1 499.8,261.9 500.9,260.5 502.0,265.7 503.1,260.3 504.3,265.4 505.4,257.3 506.5,253.9 507.6,261.6 508.8,244.2 509.9,253.1 511.0,245.6 512.1,249.2 513.2,235.1 514.4,243.1 515.5,248.1 516.6,255.7 517.7,236.3 518.9,251.0 520.0,236.7 521.1,242.5 522.2,247.8 523.4,246.2 524.5,246.8 525.6,245.6 526.7,253.2 527.9,266.1 529.0,257.9 530.1,214.6 531.2,221.0 532.4,217.1 533.5,231.6 534.6,220.8 535.7,221.3 536.9,229.0 538.0,250.2 539.1,248.0 540.2,234.3 541.3,246.0 542.5,245.0 543.6,252.9 544.7,245.9 545.8,247.4 547.0,248.3 548.1,247.7 549.2,239.1 550.3,240.8 551.5,252.0 552.6,252.9 553.7,252.0 554.8,259.5 556.0,248.6 557.1,255.6 558.2,255.6 559.3,256.2 560.5,252.6 561.6,250.4 562.7,247.5 563.8,235.3 565.0,257.7 566.1,239.4 567.2,217.5 568.3,244.7 569.4,243.3 570.6,247.4 571.7,248.5 572.8,245.5 573.9,244.6 575.1,247.9 576.2,251.0 577.3,248.9 578.4,252.3 579.6,249.7 580.7,252.3 581.8,258.4 582.9,260.8 584.1,239.5 585.2,262.6 586.3,268.1 587.4,271.0 588.6,253.1 589.7,249.5 590.8,256.8 591.9,242.4 593.1,244.6 594.2,235.9 595.3,245.9 596.4,252.1 597.6,240.5 598.7,234.4 599.8,239.0 600.9,241.9 602.0,235.1 603.2,252.6 604.3,245.0 605.4,244.3 606.5,262.3 607.7,305.5 608.8,249.9 609.9,245.8 611.0,258.9 612.2,255.9 613.3,253.1 614.4,256.3 615.5,245.1 616.7,242.3 617.8,240.8 618.9,242.9 620.0,248.5 621.2,241.0 622.3,237.3 623.4,242.1 624.5,239.8 625.7,236.5 626.8,241.5 627.9,247.0 629.0,243.4 630.1,245.8 631.3,248.9 632.4,238.6 633.5,251.6 634.6,249.4 635.8,276.3 636.9,259.7 638.0,250.9 639.1,269.4 640.3,251.6 641.4,254.3 642.5,253.9 643.6,248.4 644.8,238.0 645.9,246.8 647.0,247.0 648.1,245.2 649.3,246.2 650.4,236.4 651.5,240.2 652.6,239.9 653.8,265.2 654.9,243.4 656.0,244.6 657.1,240.0 658.2,250.6 659.4,252.1 660.5,260.3 661.6,245.6 662.7,263.7 663.9,248.6 665.0,262.8 666.1,265.9 667.2,248.1 668.4,254.3 669.5,247.2 670.6,252.3 671.7,246.3 672.9,251.2 674.0,245.4 675.1,241.8 676.2,237.3 677.4,251.5 678.5,246.1 679.6,239.7 680.7,238.8 681.9,245.5 683.0,247.4 684.1,254.5 685.2,236.8 686.3,251.2 687.5,251.9 688.6,255.6 689.7,260.8 690.8,260.8 692.0,256.8 693.1,248.6 694.2,250.9 695.3,258.6 696.5,252.0 697.6,247.8 698.7,242.0 699.8,235.9 701.0,240.3 702.1,241.3 703.2,243.0 704.3,250.0 705.5,251.4 706.6,248.2 707.7,247.2 708.8,243.8 710.0,247.8 711.1,250.6 712.2,243.7 713.3,249.4 714.4,257.8 715.6,256.4 716.7,266.0 717.8,253.2 718.9,257.3 720.1,254.9 721.2,263.9 722.3,255.6 723.4,243.4 724.6,246.3 725.7,236.2 726.8,243.4 727.9,247.6 729.1,232.1 730.2,245.1 731.3,241.1 732.4,245.4 733.6,244.3 734.7,245.7 735.8,244.9 736.9,237.9 738.1,243.8 739.2,240.4 740.3,257.6 741.4,256.3 742.6,256.7 743.7,257.1 744.8,257.2 745.9,263.0 747.0,256.8 748.2,255.5 749.3,256.1 750.4,252.2 751.5,269.8 752.7,254.4 753.8,246.0 754.9,249.9 756.0,237.3 757.2,240.6 758.3,246.0 759.4,254.5 760.5,250.8 761.7,250.9 762.8,252.8 763.9,243.7 765.0,250.9 766.2,251.9 767.3,264.5 768.4,263.0 769.5,262.2 770.7,258.8 771.8,264.6 772.9,255.8 774.0,263.3 775.1,253.6 776.3,256.9 777.4,252.5 778.5,255.3 779.6,252.6 780.8,246.8 781.9,248.8 783.0,241.7 784.1,242.1 785.3,248.9 786.4,250.9 787.5,245.3 788.6,247.8 789.8,246.7 790.9,252.2 792.0,248.6 793.1,256.6 794.3,253.4 795.4,255.6 796.5,260.2 797.6,251.7 798.8,253.8 799.9,264.5 801.0,255.3 802.1,263.6 803.2,248.5 804.4,252.2 805.5,250.8 806.6,253.1 807.7,244.8 808.9,253.0 810.0,244.6 811.1,248.3 812.2,251.8 813.4,245.9 814.5,246.0 815.6,261.2 816.7,255.5 817.9,251.8 819.0,251.4 820.1,254.2 821.2,255.0 822.4,255.0 823.5,265.9 824.6,248.1 825.7,272.1 826.9,254.3 828.0,257.3 829.1,258.3 830.2,243.2 831.3,251.2 832.5,252.1 833.6,251.2 834.7,251.9 835.8,266.5 837.0,260.3 838.1,243.4 839.2,245.9 840.3,345.6 841.5,341.0 842.6,341.4 843.7,339.1 844.8,340.1 846.0,345.0 847.1,343.8 848.2,343.3 849.3,343.1 850.5,343.9 851.6,341.5 852.7,341.0 853.8,342.3 855.0,341.5 856.1,345.3 857.2,340.9 858.3,350.1 859.4,340.2 860.6,342.7 861.7,340.3 862.8,340.1 863.9,341.1 865.1,339.5 866.2,343.3 867.3,343.2 868.4,340.7 869.6,342.2 870.7,341.2 871.8,341.9 872.9,340.0 874.1,344.3 875.2,338.1 876.3,340.6 877.4,342.6 878.6,342.9 879.7,342.3 880.8,345.1 881.9,342.7 883.1,342.9 884.2,340.6 885.3,341.6 886.4,339.6 887.6,341.3 888.7,341.5 889.8,341.0 890.9,342.0 892.0,339.2 893.2,339.6 894.3,340.4 895.4,340.9 896.5,335.8 897.7,335.6 898.8,334.7 899.9,340.2 901.0,340.4 902.2,340.3 903.3,339.6 904.4,342.0 905.5,341.5 906.7,342.0 907.8,343.1 908.9,342.0 910.0,340.6 911.2,334.9 912.3,339.8 913.4,340.6 914.5,340.3 915.7,338.2 916.8,339.3 917.9,338.7 919.0,346.4 920.1,288.7 921.3,339.1 922.4,340.3 923.5,342.0 924.6,341.7 925.8,339.6 926.9,312.1 928.0,343.5 929.1,342.2 930.3,322.7 931.4,348.9 932.5,344.5 933.6,342.6 934.8,342.4 935.9,337.4 937.0,336.7 938.1,331.5 939.3,316.9 940.4,313.8 941.5,336.5 942.6,339.3 943.8,351.6 944.9,341.7 946.0,341.1" fill="none" stroke="#7c3aed" stroke-width="2.2" stroke-linejoin="round" stroke-linecap="round"/>
<line x1="76" y1="70" x2="94" y2="70" stroke="#2563eb" stroke-width="3"/>
<text x="100" y="74" font-family="Arial, sans-serif" font-size="11" fill="#0f172a">tx count</text>
<line x1="186" y1="70" x2="204" y2="70" stroke="#7c3aed" stroke-width="3"/>
<text x="210" y="74" font-family="Arial, sans-serif" font-size="11" fill="#0f172a">unique accounts</text>
<text x="28" y="404" font-family="Arial, sans-serif" font-size="11" fill="#64748b">Source: hourly_features.csv; capped windows are sample counts</text>
</svg>