<svg xmlns="http://www.w3.org/2000/svg" width="980" height="420" viewBox="0 0 980 420">
<rect width="100%" height="100%" fill="#ffffff"/>
<text x="28" y="34" font-family="Arial, sans-serif" font-size="20" font-weight="700" fill="#0f172a">Network activity sample trend</text>
<text x="28" y="56" font-family="Arial, sans-serif" font-size="12" fill="#64748b">Hourly transaction sample count and unique account sample count</text>
<line x1="76" y1="362.0" x2="946" y2="362.0" stroke="#e2e8f0" stroke-width="1"/>
<text x="68" y="366.0" font-family="Arial, sans-serif" font-size="10" text-anchor="end" fill="#64748b">220</text>
<line x1="76" y1="292.0" x2="946" y2="292.0" stroke="#e2e8f0" stroke-width="1"/>
<text x="68" y="296.0" font-family="Arial, sans-serif" font-size="10" text-anchor="end" fill="#64748b">1K</text>
<line x1="76" y1="222.0" x2="946" y2="222.0" stroke="#e2e8f0" stroke-width="1"/>
<text x="68" y="226.0" font-family="Arial, sans-serif" font-size="10" text-anchor="end" fill="#64748b">3K</text>
<line x1="76" y1="152.0" x2="946" y2="152.0" stroke="#e2e8f0" stroke-width="1"/>
<text x="68" y="156.0" font-family="Arial, sans-serif" font-size="10" text-anchor="end" fill="#64748b">4K</text>
<line x1="76" y1="82.0" x2="946" y2="82.0" stroke="#e2e8f0" stroke-width="1"/>
<text x="68" y="86.0" font-family="Arial, sans-serif" font-size="10" text-anchor="end" fill="#64748b">5K</text>
<line x1="76" y1="362" x2="946" y2="362" stroke="#334155" stroke-width="1"/>
<line x1="76" y1="82" x2="76" y2="362" stroke="#334155" stroke-width="1"/>
<text x="76" y="72" font-family="Arial, sans-serif" font-size="11" fill="#64748b">count</text>
<line x1="76.0" y1="362" x2="76.0" y2="366" stroke="#334155" stroke-width="1"/>
<text x="76.0" y="380" font-family="Arial, sans-serif" font-size="10" text-anchor="middle" fill="#64748b">0</text>
<line x1="511.0" y1="362" x2="511.0" y2="366" stroke="#334155" stroke-width="1"/>
<text x="511.0" y="380" font-family="Arial, sans-serif" font-size="10" text-anchor="middle" fill="#64748b">396</text>
<line x1="946.0" y1="362" x2="946.0" y2="366" stroke="#334155" stroke-width="1"/>
<text x="946.0" y="380" font-family="Arial, sans-serif" font-size="10" text-anchor="middle" fill="#64748b">792</text>
<polyline points="76.0,92.4 77.1,92.4 78.2,92.4 79.3,92.4 80.4,92.4 81.5,92.4 82.6,92.4 83.7,92.4 84.8,92.4 85.9,92.4 87.0,92.4 88.1,92.4 89.2,92.4 90.3,92.4 91.4,92.4 92.5,92.4 93.6,92.4 94.7,92.4 95.8,92.4 96.9,92.4 98.0,92.4 99.1,92.4 100.2,92.4 101.3,92.4 102.4,92.4 103.5,92.4 104.6,92.4 105.7,92.4 106.8,92.4 107.9,92.4 109.0,92.4 110.1,92.4 111.2,92.4 112.2,92.4 113.3,92.4 114.4,92.4 115.5,92.4 116.6,92.4 117.7,92.4 118.8,92.4 119.9,92.4 121.0,92.4 122.1,92.4 123.2,92.4 124.3,92.4 125.4,92.4 126.5,92.4 127.6,92.4 128.7,92.4 129.8,92.4 130.9,92.4 132.0,92.4 133.1,92.4 134.2,92.4 135.3,92.4 136.4,92.4 137.5,92.4 138.6,92.4 139.7,92.4 140.8,92.4 141.9,92.4 143.0,92.4 144.1,92.4 145.2,92.4 146.3,92.4 147.4,92.4 148.5,92.4 149.6,92.4 150.7,92.4 151.8,92.4 152.9,92.4 154.0,92.4 155.1,92.4 156.2,92.4 157.3,92.4 158.4,92.4 159.5,92.4 160.6,92.4 161.7,92.4 162.8,92.4 163.9,92.4 165.0,92.4 166.1,92.4 167.2,92.4 168.3,92.4 169.4,92.4 170.5,92.4 171.6,92.4 172.7,92.4 173.8,92.4 174.9,92.4 176.0,92.4 177.1,92.4 178.2,92.4 179.3,92.4 180.4,92.4 181.5,92.4 182.6,92.4 183.7,92.4 184.8,92.4 185.8,92.4 186.9,92.4 188.0,92.4 189.1,92.4 190.2,92.4 191.3,92.4 192.4,92.4 193.5,92.4 194.6,92.4 195.7,92.4 196.8,92.4 197.9,92.4 199.0,92.4 200.1,92.4 201.2,92.4 202.3,92.4 203.4,92.4 204.5,92.4 205.6,92.4 206.7,92.4 207.8,92.4 208.9,92.4 210.0,92.4 211.1,92.4 212.2,92.4 213.3,92.4 214.4,92.4 215.5,92.4 216.6,92.4 217.7,92.4 218.8,92.4 219.9,92.4 221.0,92.4 222.1,92.4 223.2,92.4 224.3,92.4 225.4,92.4 226.5,92.4 227.6,92.4 228.7,92.4 229.8,92.4 230.9,92.4 232.0,92.4 233.1,92.4 234.2,92.4 235.3,92.4 236.4,92.4 237.5,92.4 238.6,92.4 239.7,92.4 240.8,92.4 241.9,92.4 243.0,92.4 244.1,92.4 245.2,92.4 246.3,92.4 247.4,92.4 248.5,92.4 249.6,92.4 250.7,92.4 251.8,92.4 252.9,92.4 254.0,92.4 255.1,92.4 256.2,92.4 257.2,92.4 258.3,92.4 259.4,92.4 260.5,92.4 261.6,92.4 262.7,92.4 263.8,92.4 264.9,92.4 266.0,92.4 267.1,92.4 268.2,92.4 269.3,92.4 270.4,92.4 271.5,92.4 272.6,92.4 273.7,92.4 274.8,92.4 275.9,92.4 277.0,92.4 278.1,92.4 279.2,92.4 280.3,92.4 281.4,92.4 282.5,92.4 283.6,92.4 284.7,92.4 285.8,92.4 286.9,92.4 288.0,92.4 289.1,92.4 290.2,92.4 291.3,92.4 292.4,92.4 293.5,92.4 294.6,92.4 295.7,92.4 296.8,92.4 297.9,92.4 299.0,92.4 300.1,92.4 301.2,92.4 302.3,92.4 303.4,92.4 304.5,92.4 305.6,92.4 306.7,92.4 307.8,92.4 308.9,92.4 310.0,92.4 311.1,92.4 312.2,92.4 313.3,92.4 314.4,92.4 315.5,92.4 316.6,92.4 317.7,92.4 318.8,92.4 319.9,92.4 321.0,92.4 322.1,92.4 323.2,92.4 324.3,92.4 325.4,92.4 326.5,92.4 327.6,92.4 328.7,92.4 329.8,92.4 330.8,92.4 331.9,92.4 333.0,92.4 334.1,92.4 335.2,92.4 336.3,92.4 337.4,92.4 338.5,92.4 339.6,92.4 340.7,92.4 341.8,92.4 342.9,92.4 344.0,92.4 345.1,92.4 346.2,92.4 347.3,92.4 348.4,92.4 349.5,92.4 350.6,92.4 351.7,92.4 352.8,92.4 353.9,92.4 355.0,92.4 356.1,92.4 357.2,92.4 358.3,92.4 359.4,92.4 360.5,92.4 361.6,92.4 362.7,92.4 363.8,92.4 364.9,92.4 366.0,92.4 367.1,92.4 368.2,92.4 369.3,92.4 370.4,92.4 371.5,92.4 372.6,92.4 373.7,92.4 374.8,92.4 375.9,92.4 377.0,92.4 378.1,92.4 379.2,92.4 380.3,92.4 381.4,92.4 382.5,92.4 383.6,92.4 384.7,92.4 385.8,92.4 386.9,92.4 388.0,92.4 389.1,92.4 390.2,92.4 391.3,92.4 392.4,92.4 393.5,92.4 394.6,92.4 395.7,92.4 396.8,92.4 397.9,92.4 399.0,92.4 400.1,92.4 401.2,92.4 402.2,92.4 403.3,92.4 404.4,92.4 405.5,92.4 406.6,92.4 407.7,92.4 408.8,92.4 409.9,92.4 411.0,92.4 412.1,92.4 413.2,92.4 414.3,92.4 415.4,92.4 416.5,92.4 417.6,92.4 418.7,92.4 419.8,92.4 420.9,92.4 422.0,92.4 423.1,92.4 424.2,92.4 425.3,92.4 426.4,92.4 427.5,92.4 428.6,92.4 429.7,92.4 430.8,92.4 431.9,92.4 433.0,92.4 434.1,92.4 435.2,92.4 436.3,92.4 437.4,92.4 438.5,92.4 439.6,92.4 440.7,92.4 441.8,92.4 442.9,92.4 444.0,92.4 445.1,92.4 446.2,92.4 447.3,92.4 448.4,92.4 449.5,92.4 450.6,92.4 451.7,92.4 452.8,92.4 453.9,92.4 455.0,92.4 456.1,92.4 457.2,92.4 458.3,92.4 459.4,92.4 460.5,92.4 461.6,92.4 462.7,92.4 463.8,92.4 464.9,92.4 466.0,92.4 467.1,92.4 468.2,92.4 469.3,92.4 470.4,92.4 471.5,92.4 472.6,92.4 473.7,92.4 474.8,92.4 475.8,92.4 476.9,92.4 478.0,92.4 479.1,92.4 480.2,92.4 481.3,92.4 482.4,92.4 483.5,92.4 484.6,92.4 485.7,92.4 486.8,92.4 487.9,92.4 489.0,92.4 490.1,92.4 491.2,92.4 492.3,92.4 493.4,92.4 494.5,92.4 495.6,92.4 496.7,92.4 497.8,92.4 498.9,92.4 500.0,92.4 501.1,92.4 502.2,92.4 503.3,92.4 504.4,92.4 505.5,92.4 506.6,92.4 507.7,92.4 508.8,92.4 509.9,92.4 511.0,92.4 512.1,92.4 513.2,92.4 514.3,92.4 515.4,92.4 516.5,92.4 517.6,92.4 518.7,92.4 519.8,92.4 520.9,92.4 522.0,92.4 523.1,92.4 524.2,92.4 525.3,92.4 526.4,92.4 527.5,92.4 528.6,92.4 529.7,92.4 530.8,92.4 531.9,92.4 533.0,92.4 534.1,92.4 535.2,92.4 536.3,92.4 537.4,92.4 538.5,92.4 539.6,92.4 540.7,92.4 541.8,92.4 542.9,92.4 544.0,92.4 545.1,92.4 546.2,92.4 547.2,92.4 548.3,92.4 549.4,92.4 550.5,92.4 551.6,92.4 552.7,92.4 553.8,92.4 554.9,92.4 556.0,92.4 557.1,92.4 558.2,92.4 559.3,92.4 560.4,92.4 561.5,92.4 562.6,92.4 563.7,92.4 564.8,92.4 565.9,92.4 567.0,92.4 568.1,92.4 569.2,92.4 570.3,92.4 571.4,92.4 572.5,92.4 573.6,92.4 574.7,92.4 575.8,92.4 576.9,92.4 578.0,92.4 579.1,92.4 580.2,92.4 581.3,92.4 582.4,92.4 583.5,92.4 584.6,92.4 585.7,92.4 586.8,92.4 587.9,92.4 589.0,92.4 590.1,92.4 591.2,92.4 592.3,92.4 593.4,92.4 594.5,92.4 595.6,92.4 596.7,92.4 597.8,92.4 598.9,92.4 600.0,92.4 601.1,92.4 602.2,92.4 603.3,92.4 604.4,92.4 605.5,92.4 606.6,92.4 607.7,92.4 608.8,92.4 609.9,92.4 611.0,92.4 612.1,92.4 613.2,92.4 614.3,92.4 615.4,92.4 616.5,92.4 617.6,92.4 618.7,92.4 619.8,92.4 620.8,92.4 621.9,92.4 623.0,92.4 624.1,92.4 625.2,92.4 626.3,92.4 627.4,92.4 628.5,92.4 629.6,92.4 630.7,92.4 631.8,92.4 632.9,92.4 634.0,92.4 635.1,92.4 636.2,92.4 637.3,92.4 638.4,92.4 639.5,92.4 640.6,92.4 641.7,92.4 642.8,92.4 643.9,92.4 645.0,92.4 646.1,92.4 647.2,92.4 648.3,92.4 649.4,92.4 650.5,92.4 651.6,92.4 652.7,92.4 653.8,92.4 654.9,92.4 656.0,92.4 657.1,92.4 658.2,92.4 659.3,92.4 660.4,92.4 661.5,92.4 662.6,92.4 663.7,92.4 664.8,92.4 665.9,92.4 667.0,92.4 668.1,92.4 669.2,92.4 670.3,92.4 671.4,92.4 672.5,92.4 673.6,92.4 674.7,92.4 675.8,92.4 676.9,92.4 678.0,92.4 679.1,92.4 680.2,92.4 681.3,92.4 682.4,92.4 683.5,92.4 684.6,92.4 685.7,92.4 686.8,92.4 687.9,92.4 689.0,92.4 690.1,92.4 691.2,92.4 692.2,92.4 693.3,92.4 694.4,92.4 695.5,92.4 696.6,92.4 697.7,92.4 698.8,92.4 699.9,92.4 701.0,92.4 702.1,92.4 703.2,92.4 704.3,92.4 705.4,92.4 706.5,92.4 707.6,92.4 708.7,92.4 709.8,92.4 710.9,92.4 712.0,92.4 713.1,92.4 714.2,92.4 715.3,92.4 716.4,92.4 717.5,92.4 718.6,92.4 719.7,92.4 720.8,92.4 721.9,92.4 723.0,92.4 724.1,92.4 725.2,92.4 726.3,92.4 727.4,92.4 728.5,92.4 729.6,92.4 730.7,92.4 731.8,92.4 732.9,92.4 734.0,92.4 735.1,92.4 736.2,92.4 737.3,92.4 738.4,92.4 739.5,92.4 740.6,92.4 741.7,92.4 742.8,92.4 743.9,92.4 745.0,92.4 746.1,92.4 747.2,92.4 748.3,92.4 749.4,92.4 750.5,92.4 751.6,92.4 752.7,92.4 753.8,92.4 754.9,92.4 756.0,92.4 757.1,92.4 758.2,92.4 759.3,92.4 760.4,92.4 761.5,92.4 762.6,92.4 763.7,92.4 764.8,92.4 765.8,92.4 766.9,92.4 768.0,92.4 769.1,92.4 770.2,92.4 771.3,92.4 772.4,92.4 773.5,92.4 774.6,92.4 775.7,92.4 776.8,92.4 777.9,92.4 779.0,92.4 780.1,92.4 781.2,92.4 782.3,92.4 783.4,92.4 784.5,92.4 785.6,92.4 786.7,92.4 787.8,92.4 788.9,92.4 790.0,92.4 791.1,92.4 792.2,92.4 793.3,92.4 794.4,92.4 795.5,92.4 796.6,92.4 797.7,92.4 798.8,92.4 799.9,92.4 801.0,92.4 802.1,92.4 803.2,92.4 804.3,92.4 805.4,92.4 806.5,92.4 807.6,92.4 808.7,92.4 809.8,92.4 810.9,92.4 812.0,92.4 813.1,92.4 814.2,92.4 815.3,92.4 816.4,92.4 817.5,92.4 818.6,92.4 819.7,92.4 820.8,92.4 821.9,92.4 823.0,318.0 824.1,318.0 825.2,318.0 826.3,318.0 827.4,318.0 828.5,318.0 829.6,318.0 830.7,318.0 831.8,318.0 832.9,318.0 834.0,318.0 835.1,318.0 836.2,318.0 837.2,318.0 838.3,318.0 839.4,318.0 840.5,318.0 841.6,318.0 842.7,318.0 843.8,318.0 844.9,318.0 846.0,318.0 847.1,318.0 848.2,318.0 849.3,318.0 850.4,318.0 851.5,318.0 852.6,318.0 853.7,318.0 854.8,318.0 855.9,318.0 857.0,318.0 858.1,318.0 859.2,318.0 860.3,318.0 861.4,318.0 862.5,318.0 863.6,318.0 864.7,318.0 865.8,318.0 866.9,318.0 868.0,318.0 869.1,318.0 870.2,318.0 871.3,318.0 872.4,318.0 873.5,318.0 874.6,318.0 875.7,318.0 876.8,318.0 877.9,318.0 879.0,318.0 880.1,318.0 881.2,318.0 882.3,318.0 883.4,318.0 884.5,318.0 885.6,318.0 886.7,318.0 887.8,318.0 888.9,318.0 890.0,318.0 891.1,318.0 892.2,318.0 893.3,318.0 894.4,318.0 895.5,318.0 896.6,318.0 897.7,318.0 898.8,318.0 899.9,318.0 901.0,207.0 902.1,318.0 903.2,318.0 904.3,318.0 905.4,318.0 906.5,318.0 907.6,263.4 908.7,318.0 909.8,318.0 910.8,263.5 911.9,318.0 913.0,318.0 914.1,318.0 915.2,318.0 916.3,318.0 917.4,318.0 918.5,318.0 919.6,262.2 920.7,263.5 921.8,318.0 922.9,318.0 924.0,318.0 925.1,318.0 926.2,264.6 927.3,318.0 928.4,318.0 929.5,318.0 930.6,318.0 931.7,261.9 932.8,318.0 933.9,318.0 935.0,318.0 936.1,263.1 937.2,318.0 938.3,318.0 939.4,318.0 940.5,318.0 941.6,318.0 942.7,318.0 943.8,318.0 944.9,318.0 946.0,318.0" fill="none" stroke="#2563eb" stroke-width="2.2" stroke-linejoin="round" stroke-linecap="round"/>
<polyline points="76.0,262.8 77.1,258.8 78.2,249.5 79.3,247.2 80.4,250.9 81.5,240.3 82.6,239.7 83.7,243.5 84.8,248.5 85.9,248.0 87.0,264.6 88.1,246.1 89.2,245.2 90.3,246.9 91.4,251.1 92.5,259.3 93.6,256.5 94.7,254.2 95.8,251.6 96.9,256.6 98.0,261.5 99.1,257.5 100.2,255.6 101.3,255.2 102.4,249.2 103.5,247.7 104.6,249.7 105.7,241.1 106.8,232.5 107.9,241.2 109.0,243.5 110.1,257.3 111.2,251.0 112.2,250.7 113.3,255.2 114.4,250.5 115.5,247.4 116.6,253.4 117.7,247.1 118.8,247.0 119.9,244.7 121.0,261.9 122.1,258.2 123.2,254.2 124.3,219.8 125.4,222.3 126.5,255.3 127.6,251.2 128.7,237.3 129.8,219.3 130.9,239.9 132.0,251.2 133.1,243.9 134.2,242.1 135.3,243.9 136.4,246.7 137.5,244.4 138.6,250.0 139.7,241.3 140.8,247.0 141.9,238.8 143.0,245.4 144.1,243.9 145.2,285.1 146.3,270.0 147.4,262.3 148.5,270.1 149.6,267.0 150.7,238.5 151.8,233.8 152.9,243.4 154.0,259.9 155.1,272.4 156.2,246.0 157.3,245.5 158.4,248.1 159.5,261.0 160.6,250.4 161.7,259.1 162.8,245.9 163.9,240.5 165.0,253.9 166.1,249.9 167.2,254.6 168.3,255.7 169.4,254.0 170.5,261.9 171.6,251.4 172.7,251.4 173.8,253.7 174.9,250.0 176.0,268.3 177.1,231.5 178.2,255.8 179.3,251.1 180.4,218.2 181.5,256.5 182.6,245.2 183.7,247.9 184.8,226.9 185.8,246.1 186.9,248.3 188.0,241.0 189.1,249.4 190.2,243.6 191.3,250.1 192.4,244.3 193.5,242.8 194.6,242.6 195.7,248.1 196.8,245.4 197.9,251.8 199.0,237.9 200.1,251.4 201.2,252.6 202.3,250.9 203.4,220.0 204.5,203.6 205.6,214.7 206.7,215.7 207.8,215.3 208.9,224.9 210.0,220.4 211.1,216.0 212.2,243.5 213.3,246.4 214.4,241.9 215.5,243.2 216.6,242.2 217.7,241.7 218.8,242.6 219.9,244.6 221.0,243.4 222.1,245.1 223.2,249.7 224.3,245.1 225.4,258.2 226.5,257.8 227.6,248.2 228.7,263.2 229.8,290.3 230.9,254.2 232.0,268.2 233.1,255.6 234.2,253.3 235.3,253.6 236.4,250.8 237.5,251.8 238.6,245.2 239.7,251.1 240.8,244.3 241.9,242.4 243.0,240.7 244.1,242.6 245.2,251.4 246.3,264.1 247.4,247.2 248.5,252.2 249.6,250.9 250.7,253.1 251.8,253.4 252.9,258.6 254.0,260.8 255.1,259.1 256.2,292.1 257.2,255.7 258.3,270.2 259.4,236.2 260.5,252.1 261.6,245.1 262.7,249.0 263.8,240.5 264.9,242.6 266.0,248.7 267.1,243.1 268.2,236.6 269.3,245.7 270.4,247.5 271.5,241.4 272.6,245.2 273.7,245.0 274.8,246.8 275.9,247.8 277.0,251.7 278.1,253.2 279.2,259.1 280.3,263.5 281.4,252.2 282.5,285.5 283.6,251.7 284.7,255.1 285.8,250.6 286.9,249.8 288.0,242.9 289.1,242.4 290.2,242.2 291.3,241.0 292.4,247.3 293.5,248.1 294.6,258.9 295.7,257.3 296.8,253.8 297.9,250.1 299.0,255.8 300.1,247.6 301.2,253.5 302.3,245.9 303.4,253.4 304.5,258.1 305.6,261.3 306.7,258.9 307.8,266.2 308.9,297.6 310.0,260.0 311.1,260.3 312.2,258.6 313.3,257.8 314.4,249.6 315.5,247.9 316.6,245.9 317.7,252.3 318.8,248.8 319.9,245.4 321.0,245.5 322.1,241.2 323.2,248.2 324.3,240.3 325.4,241.3 326.5,240.9 327.6,255.8 328.7,255.5 329.8,254.2 330.8,259.3 331.9,273.3 333.0,257.9 334.1,260.5 335.2,258.2 336.3,252.3 337.4,232.0 338.5,219.6 339.6,257.6 340.7,245.0 341.8,228.2 342.9,224.5 344.0,224.1 345.1,223.8 346.2,222.7 347.3,239.3 348.4,231.7 349.5,235.3 350.6,236.0 351.7,245.7 352.8,256.8 353.9,266.4 355.0,245.2 356.1,283.8 357.2,250.1 358.3,265.2 359.4,256.9 360.5,258.4 361.6,265.9 362.7,249.6 363.8,209.8 364.9,220.6 366.0,223.0 367.1,225.7 368.2,215.1 369.3,227.4 370.4,222.0 371.5,209.0 372.6,242.0 373.7,239.8 374.8,248.9 375.9,251.4 377.0,247.5 378.1,243.7 379.2,252.6 380.3,250.3 381.4,248.7 382.5,267.5 383.6,252.2 384.7,247.7 385.8,258.9 386.9,227.2 388.0,211.3 389.1,216.8 390.2,255.8 391.3,251.6 392.4,245.4 393.5,270.3 394.6,239.4 395.7,244.7 396.8,243.3 397.9,250.8 399.0,232.4 400.1,242.8 401.2,244.7 402.2,265.4 403.3,239.2 404.4,244.6 405.5,242.8 406.6,247.8 407.7,246.7 408.8,263.6 409.9,250.8 411.0,258.2 412.1,254.7 413.2,251.7 414.3,265.0 415.4,252.6 416.5,259.2 417.6,263.9 418.7,253.9 419.8,230.0 420.9,224.2 422.0,257.9 423.1,245.8 424.2,252.8 425.3,255.5 426.4,248.1 427.5,251.2 428.6,250.1 429.7,248.5 430.8,245.4 431.9,265.0 433.0,263.0 434.1,258.3 435.2,262.4 436.3,259.0 437.4,283.8 438.5,276.5 439.6,273.1 440.7,276.5 441.8,282.7 442.9,282.5 444.0,277.7 445.1,281.6 446.2,283.5 447.3,278.5 448.4,276.0 449.5,265.8 450.6,251.2 451.7,259.6 452.8,273.4 453.9,261.0 455.0,263.4 456.1,257.8 457.2,265.6 458.3,262.2 459.4,262.1 460.5,262.1 461.6,254.3 462.7,262.8 463.8,257.4 464.9,261.5 466.0,249.6 467.1,254.9 468.2,260.6 469.3,262.8 470.4,263.7 471.5,259.3 472.6,258.4 473.7,252.3 474.8,251.5 475.8,254.4 476.9,233.7 478.0,246.8 479.1,259.0 480.2,247.4 481.3,244.3 482.4,249.6 483.5,251.4 484.6,253.2 485.7,252.7 486.8,254.5 487.9,255.1 489.0,251.1 490.1,261.9 491.2,260.5 492.3,265.7 493.4,260.3 494.5,265.4 495.6,257.3 496.7,253.9 497.8,261.6 498.9,244.2 500.0,253.1 501.1,245.6 502.2,249.2 503.3,235.1 504.4,243.1 505.5,248.1 506.6,255.7 507.7,236.3 508.8,251.0 509.9,236.7 511.0,242.5 512.1,247.8 513.2,246.2 514.3,246.8 515.4,245.6 516.5,253.2 517.6,266.1 518.7,257.9 519.8,214.6 520.9,221.0 522.0,217.1 523.1,231.6 524.2,220.8 525.3,221.3 526.4,229.0 527.5,250.2 528.6,248.0 529.7,234.3 530.8,246.0 531.9,245.0 533.0,252.9 534.1,245.9 535.2,247.4 536.3,248.3 537.4,247.7 538.5,239.1 539.6,240.8 540.7,252.0 541.8,252.9 542.9,252.0 544.0,259.5 545.1,248.6 546.2,255.6 547.2,255.6 548.3,256.2 549.4,252.6 550.5,250.4 551.6,247.5 552.7,235.3 553.8,257.7 554.9,239.4 556.0,217.5 557.1,244.7 558.2,243.3 559.3,247.4 560.4,248.5 561.5,245.5 562.6,244.6 563.7,247.9 564.8,251.0 565.9,248.9 567.0,252.3 568.1,249.7 569.2,252.3 570.3,258.4 571.4,260.8 572.5,239.5 573.6,262.6 574.7,268.1 575.8,271.0 576.9,253.1 578.0,249.5 579.1,256.8 580.2,242.4 581.3,244.6 582.4,235.9 583.5,245.9 584.6,252.1 585.7,240.5 586.8,234.4 587.9,239.0 589.0,241.9 590.1,235.1 591.2,252.6 592.3,245.0 593.4,244.3 594.5,262.3 595.6,305.5 596.7,249.9 597.8,245.8 598.9,258.9 600.0,255.9 601.1,253.1 602.2,256.3 603.3,245.1 604.4,242.3 605.5,240.8 606.6,242.9 607.7,248.5 608.8,241.0 609.9,237.3 611.0,242.1 612.1,239.8 613.2,236.5 614.3,241.5 615.4,247.0 616.5,243.4 617.6,245.8 618.7,248.9 619.8,238.6 620.8,251.6 621.9,249.4 623.0,276.3 624.1,259.7 625.2,250.9 626.3,269.4 627.4,251.6 628.5,254.3 629.6,253.9 630.7,248.4 631.8,238.0 632.9,246.8 634.0,247.0 635.1,245.2 636.2,246.2 637.3,236.4 638.4,240.2 639.5,239.9 640.6,265.2 641.7,243.4 642.8,244.6 643.9,240.0 645.0,250.6 646.1,252.1 647.2,260.3 648.3,245.6 649.4,263.7 650.5,248.6 651.6,262.8 652.7,265.9 653.8,248.1 654.9,254.3 656.0,247.2 657.1,252.3 658.2,246.3 659.3,251.2 660.4,245.4 661.5,241.8 662.6,237.3 663.7,251.5 664.8,246.1 665.9,239.7 667.0,238.8 668.1,245.5 669.2,247.4 670.3,254.5 671.4,236.8 672.5,251.2 673.6,251.9 674.7,255.6 675.8,260.8 676.9,260.8 678.0,256.8 679.1,248.6 680.2,250.9 681.3,258.6 682.4,252.0 683.5,247.8 684.6,242.0 685.7,235.9 686.8,240.3 687.9,241.3 689.0,243.0 690.1,250.0 691.2,251.4 692.2,248.2 693.3,247.2 694.4,243.8 695.5,247.8 696.6,250.6 697.7,243.7 698.8,249.4 699.9,257.8 701.0,256.4 702.1,266.0 703.2,253.2 704.3,257.3 705.4,254.9 706.5,263.9 707.6,255.6 708.7,243.4 709.8,246.3 710.9,236.2 712.0,243.4 713.1,247.6 714.2,232.1 715.3,245.1 716.4,241.1 717.5,245.4 718.6,244.3 719.7,245.7 720.8,244.9 721.9,237.9 723.0,243.8 724.1,240.4 725.2,257.6 726.3,256.3 727.4,256.7 728.5,257.1 729.6,257.2 730.7,263.0 731.8,256.8 732.9,255.5 734.0,256.1 735.1,252.2 736.2,269.8 737.3,254.4 738.4,246.0 739.5,249.9 740.6,237.3 741.7,240.6 742.8,246.0 743.9,254.5 745.0,250.8 746.1,250.9 747.2,252.8 748.3,243.7 749.4,250.9 750.5,251.9 751.6,264.5 752.7,263.0 753.8,262.2 754.9,258.8 756.0,264.6 757.1,255.8 758.2,263.3 759.3,253.6 760.4,256.9 761.5,252.5 762.6,255.3 763.7,252.6 764.8,246.8 765.8,248.8 766.9,241.7 768.0,242.1 769.1,248.9 770.2,250.9 771.3,245.3 772.4,247.8 773.5,246.7 774.6,252.2 775.7,248.6 776.8,256.6 777.9,253.4 779.0,255.6 780.1,260.2 781.2,251.7 782.3,253.8 783.4,264.5 784.5,255.3 785.6,263.6 786.7,248.5 787.8,252.2 788.9,250.8 790.0,253.1 791.1,244.8 792.2,253.0 793.3,244.6 794.4,248.3 795.5,251.8 796.6,245.9 797.7,246.0 798.8,261.2 799.9,255.5 801.0,251.8 802.1,251.4 803.2,254.2 804.3,255.0 805.4,255.0 806.5,265.9 807.6,248.1 808.7,272.1 809.8,254.3 810.9,257.3 812.0,258.3 813.1,243.2 814.2,251.2 815.3,252.1 816.4,251.2 817.5,251.9 818.6,266.5 819.7,260.3 820.8,243.4 821.9,245.9 823.0,345.6 824.1,341.0 825.2,341.4 826.3,339.1 827.4,340.1 828.5,345.0 829.6,343.8 830.7,343.3 831.8,343.1 832.9,343.9 834.0,341.5 835.1,341.0 836.2,342.3 837.2,341.5 838.3,345.3 839.4,340.9 840.5,350.1 841.6,340.2 842.7,342.7 843.8,340.3 844.9,340.1 846.0,341.1 847.1,339.5 848.2,343.3 849.3,343.2 850.4,340.7 851.5,342.2 852.6,341.2 853.7,341.9 854.8,340.0 855.9,344.3 857.0,338.1 858.1,340.6 859.2,342.6 860.3,342.9 861.4,342.3 862.5,345.1 863.6,342.7 864.7,342.9 865.8,340.6 866.9,341.6 868.0,339.6 869.1,341.3 870.2,341.5 871.3,341.0 872.4,342.0 873.5,339.2 874.6,339.6 875.7,340.4 876.8,340.9 877.9,335.8 879.0,335.6 880.1,334.7 881.2,340.2 882.3,340.4 883.4,340.3 884.5,339.6 885.6,342.0 886.7,341.5 887.8,342.0 888.9,343.1 890.0,342.0 891.1,340.6 892.2,334.9 893.3,339.8 894.4,340.6 895.5,340.3 896.6,338.2 897.7,339.3 898.8,338.7 899.9,346.4 901.0,288.7 902.1,339.1 903.2,340.3 904.3,342.0 905.4,341.7 906.5,339.6 907.6,312.1 908.7,343.5 909.8,342.2 910.8,322.7 911.9,348.9 913.0,344.5 914.1,342.6 915.2,342.4 916.3,337.4 917.4,336.7 918.5,331.5 919.6,316.9 920.7,313.8 921.8,336.5 922.9,339.3 924.0,351.6 925.1,341.7 926.2,317.1 927.3,341.6 928.4,334.3 929.5,338.9 930.6,348.0 931.7,317.1 932.8,340.6 933.9,341.7 935.0,340.6 936.1,319.1 937.2,347.2 938.3,345.5 939.4,345.7 940.5,345.8 941.6,345.1 942.7,346.2 943.8,346.7 944.9,351.1 946.0,348.6" fill="none" stroke="#7c3aed" stroke-width="2.2" stroke-linejoin="round" stroke-linecap="round"/>
<line x1="76" y1="70" x2="94" y2="70" stroke="#2563eb" stroke-width="3"/>
<text x="100" y="74" font-family="Arial, sans-serif" font-size="11" fill="#0f172a">tx count</text>
<line x1="186" y1="70" x2="204" y2="70" stroke="#7c3aed" stroke-width="3"/>
<text x="210" y="74" font-family="Arial, sans-serif" font-size="11" fill="#0f172a">unique accounts</text>
<text x="28" y="404" font-family="Arial, sans-serif" font-size="11" fill="#64748b">Source: hourly_features.csv; capped windows are sample counts</text>
</svg>