<svg xmlns="http://www.w3.org/2000/svg" width="980" height="420" viewBox="0 0 980 420">
<rect width="100%" height="100%" fill="#ffffff"/>
<text x="28" y="34" font-family="Arial, sans-serif" font-size="20" font-weight="700" fill="#0f172a">Network activity sample trend</text>
<text x="28" y="56" font-family="Arial, sans-serif" font-size="12" fill="#64748b">Hourly transaction sample count and unique account sample count</text>
<line x1="76" y1="362.0" x2="946" y2="362.0" stroke="#e2e8f0" stroke-width="1"/>
<text x="68" y="366.0" font-family="Arial, sans-serif" font-size="10" text-anchor="end" fill="#64748b">220</text>
<line x1="76" y1="292.0" x2="946" y2="292.0" stroke="#e2e8f0" stroke-width="1"/>
<text x="68" y="296.0" font-family="Arial, sans-serif" font-size="10" text-anchor="end" fill="#64748b">1K</text>
<line x1="76" y1="222.0" x2="946" y2="222.0" stroke="#e2e8f0" stroke-width="1"/>
<text x="68" y="226.0" font-family="Arial, sans-serif" font-size="10" text-anchor="end" fill="#64748b">3K</text>
<line x1="76" y1="152.0" x2="946" y2="152.0" stroke="#e2e8f0" stroke-width="1"/>
<text x="68" y="156.0" font-family="Arial, sans-serif" font-size="10" text-anchor="end" fill="#64748b">4K</text>
<line x1="76" y1="82.0" x2="946" y2="82.0" stroke="#e2e8f0" stroke-width="1"/>
<text x="68" y="86.0" font-family="Arial, sans-serif" font-size="10" text-anchor="end" fill="#64748b">5K</text>
<line x1="76" y1="362" x2="946" y2="362" stroke="#334155" stroke-width="1"/>
<line x1="76" y1="82" x2="76" y2="362" stroke="#334155" stroke-width="1"/>
<text x="76" y="72" font-family="Arial, sans-serif" font-size="11" fill="#64748b">count</text>
<line x1="76.0" y1="362" x2="76.0" y2="366" stroke="#334155" stroke-width="1"/>
<text x="76.0" y="380" font-family="Arial, sans-serif" font-size="10" text-anchor="middle" fill="#64748b">0</text>
<line x1="511.0" y1="362" x2="511.0" y2="366" stroke="#334155" stroke-width="1"/>
<text x="511.0" y="380" font-family="Arial, sans-serif" font-size="10" text-anchor="middle" fill="#64748b">425</text>
<line x1="946.0" y1="362" x2="946.0" y2="366" stroke="#334155" stroke-width="1"/>
<text x="946.0" y="380" font-family="Arial, sans-serif" font-size="10" text-anchor="middle" fill="#64748b">850</text>
<polyline points="76.0,92.4 77.0,92.4 78.0,92.4 79.1,92.4 80.1,92.4 81.1,92.4 82.1,92.4 83.2,92.4 84.2,92.4 85.2,92.4 86.2,92.4 87.3,92.4 88.3,92.4 89.3,92.4 90.3,92.4 91.4,92.4 92.4,92.4 93.4,92.4 94.4,92.4 95.4,92.4 96.5,92.4 97.5,92.4 98.5,92.4 99.5,92.4 100.6,92.4 101.6,92.4 102.6,92.4 103.6,92.4 104.7,92.4 105.7,92.4 106.7,92.4 107.7,92.4 108.8,92.4 109.8,92.4 110.8,92.4 111.8,92.4 112.8,92.4 113.9,92.4 114.9,92.4 115.9,92.4 116.9,92.4 118.0,92.4 119.0,92.4 120.0,92.4 121.0,92.4 122.1,92.4 123.1,92.4 124.1,92.4 125.1,92.4 126.2,92.4 127.2,92.4 128.2,92.4 129.2,92.4 130.2,92.4 131.3,92.4 132.3,92.4 133.3,92.4 134.3,92.4 135.4,92.4 136.4,92.4 137.4,92.4 138.4,92.4 139.5,92.4 140.5,92.4 141.5,92.4 142.5,92.4 143.6,92.4 144.6,92.4 145.6,92.4 146.6,92.4 147.6,92.4 148.7,92.4 149.7,92.4 150.7,92.4 151.7,92.4 152.8,92.4 153.8,92.4 154.8,92.4 155.8,92.4 156.9,92.4 157.9,92.4 158.9,92.4 159.9,92.4 161.0,92.4 162.0,92.4 163.0,92.4 164.0,92.4 165.0,92.4 166.1,92.4 167.1,92.4 168.1,92.4 169.1,92.4 170.2,92.4 171.2,92.4 172.2,92.4 173.2,92.4 174.3,92.4 175.3,92.4 176.3,92.4 177.3,92.4 178.4,92.4 179.4,92.4 180.4,92.4 181.4,92.4 182.4,92.4 183.5,92.4 184.5,92.4 185.5,92.4 186.5,92.4 187.6,92.4 188.6,92.4 189.6,92.4 190.6,92.4 191.7,92.4 192.7,92.4 193.7,92.4 194.7,92.4 195.8,92.4 196.8,92.4 197.8,92.4 198.8,92.4 199.8,92.4 200.9,92.4 201.9,92.4 202.9,92.4 203.9,92.4 205.0,92.4 206.0,92.4 207.0,92.4 208.0,92.4 209.1,92.4 210.1,92.4 211.1,92.4 212.1,92.4 213.2,92.4 214.2,92.4 215.2,92.4 216.2,92.4 217.2,92.4 218.3,92.4 219.3,92.4 220.3,92.4 221.3,92.4 222.4,92.4 223.4,92.4 224.4,92.4 225.4,92.4 226.5,92.4 227.5,92.4 228.5,92.4 229.5,92.4 230.6,92.4 231.6,92.4 232.6,92.4 233.6,92.4 234.6,92.4 235.7,92.4 236.7,92.4 237.7,92.4 238.7,92.4 239.8,92.4 240.8,92.4 241.8,92.4 242.8,92.4 243.9,92.4 244.9,92.4 245.9,92.4 246.9,92.4 248.0,92.4 249.0,92.4 250.0,92.4 251.0,92.4 252.0,92.4 253.1,92.4 254.1,92.4 255.1,92.4 256.1,92.4 257.2,92.4 258.2,92.4 259.2,92.4 260.2,92.4 261.3,92.4 262.3,92.4 263.3,92.4 264.3,92.4 265.4,92.4 266.4,92.4 267.4,92.4 268.4,92.4 269.4,92.4 270.5,92.4 271.5,92.4 272.5,92.4 273.5,92.4 274.6,92.4 275.6,92.4 276.6,92.4 277.6,92.4 278.7,92.4 279.7,92.4 280.7,92.4 281.7,92.4 282.8,92.4 283.8,92.4 284.8,92.4 285.8,92.4 286.8,92.4 287.9,92.4 288.9,92.4 289.9,92.4 290.9,92.4 292.0,92.4 293.0,92.4 294.0,92.4 295.0,92.4 296.1,92.4 297.1,92.4 298.1,92.4 299.1,92.4 300.2,92.4 301.2,92.4 302.2,92.4 303.2,92.4 304.2,92.4 305.3,92.4 306.3,92.4 307.3,92.4 308.3,92.4 309.4,92.4 310.4,92.4 311.4,92.4 312.4,92.4 313.5,92.4 314.5,92.4 315.5,92.4 316.5,92.4 317.6,92.4 318.6,92.4 319.6,92.4 320.6,92.4 321.6,92.4 322.7,92.4 323.7,92.4 324.7,92.4 325.7,92.4 326.8,92.4 327.8,92.4 328.8,92.4 329.8,92.4 330.9,92.4 331.9,92.4 332.9,92.4 333.9,92.4 335.0,92.4 336.0,92.4 337.0,92.4 338.0,92.4 339.0,92.4 340.1,92.4 341.1,92.4 342.1,92.4 343.1,92.4 344.2,92.4 345.2,92.4 346.2,92.4 347.2,92.4 348.3,92.4 349.3,92.4 350.3,92.4 351.3,92.4 352.4,92.4 353.4,92.4 354.4,92.4 355.4,92.4 356.4,92.4 357.5,92.4 358.5,92.4 359.5,92.4 360.5,92.4 361.6,92.4 362.6,92.4 363.6,92.4 364.6,92.4 365.7,92.4 366.7,92.4 367.7,92.4 368.7,92.4 369.8,92.4 370.8,92.4 371.8,92.4 372.8,92.4 373.8,92.4 374.9,92.4 375.9,92.4 376.9,92.4 377.9,92.4 379.0,92.4 380.0,92.4 381.0,92.4 382.0,92.4 383.1,92.4 384.1,92.4 385.1,92.4 386.1,92.4 387.2,92.4 388.2,92.4 389.2,92.4 390.2,92.4 391.2,92.4 392.3,92.4 393.3,92.4 394.3,92.4 395.3,92.4 396.4,92.4 397.4,92.4 398.4,92.4 399.4,92.4 400.5,92.4 401.5,92.4 402.5,92.4 403.5,92.4 404.6,92.4 405.6,92.4 406.6,92.4 407.6,92.4 408.6,92.4 409.7,92.4 410.7,92.4 411.7,92.4 412.7,92.4 413.8,92.4 414.8,92.4 415.8,92.4 416.8,92.4 417.9,92.4 418.9,92.4 419.9,92.4 420.9,92.4 422.0,92.4 423.0,92.4 424.0,92.4 425.0,92.4 426.0,92.4 427.1,92.4 428.1,92.4 429.1,92.4 430.1,92.4 431.2,92.4 432.2,92.4 433.2,92.4 434.2,92.4 435.3,92.4 436.3,92.4 437.3,92.4 438.3,92.4 439.4,92.4 440.4,92.4 441.4,92.4 442.4,92.4 443.4,92.4 444.5,92.4 445.5,92.4 446.5,92.4 447.5,92.4 448.6,92.4 449.6,92.4 450.6,92.4 451.6,92.4 452.7,92.4 453.7,92.4 454.7,92.4 455.7,92.4 456.8,92.4 457.8,92.4 458.8,92.4 459.8,92.4 460.8,92.4 461.9,92.4 462.9,92.4 463.9,92.4 464.9,92.4 466.0,92.4 467.0,92.4 468.0,92.4 469.0,92.4 470.1,92.4 471.1,92.4 472.1,92.4 473.1,92.4 474.2,92.4 475.2,92.4 476.2,92.4 477.2,92.4 478.2,92.4 479.3,92.4 480.3,92.4 481.3,92.4 482.3,92.4 483.4,92.4 484.4,92.4 485.4,92.4 486.4,92.4 487.5,92.4 488.5,92.4 489.5,92.4 490.5,92.4 491.6,92.4 492.6,92.4 493.6,92.4 494.6,92.4 495.6,92.4 496.7,92.4 497.7,92.4 498.7,92.4 499.7,92.4 500.8,92.4 501.8,92.4 502.8,92.4 503.8,92.4 504.9,92.4 505.9,92.4 506.9,92.4 507.9,92.4 509.0,92.4 510.0,92.4 511.0,92.4 512.0,92.4 513.0,92.4 514.1,92.4 515.1,92.4 516.1,92.4 517.1,92.4 518.2,92.4 519.2,92.4 520.2,92.4 521.2,92.4 522.3,92.4 523.3,92.4 524.3,92.4 525.3,92.4 526.4,92.4 527.4,92.4 528.4,92.4 529.4,92.4 530.4,92.4 531.5,92.4 532.5,92.4 533.5,92.4 534.5,92.4 535.6,92.4 536.6,92.4 537.6,92.4 538.6,92.4 539.7,92.4 540.7,92.4 541.7,92.4 542.7,92.4 543.8,92.4 544.8,92.4 545.8,92.4 546.8,92.4 547.8,92.4 548.9,92.4 549.9,92.4 550.9,92.4 551.9,92.4 553.0,92.4 554.0,92.4 555.0,92.4 556.0,92.4 557.1,92.4 558.1,92.4 559.1,92.4 560.1,92.4 561.2,92.4 562.2,92.4 563.2,92.4 564.2,92.4 565.2,92.4 566.3,92.4 567.3,92.4 568.3,92.4 569.3,92.4 570.4,92.4 571.4,92.4 572.4,92.4 573.4,92.4 574.5,92.4 575.5,92.4 576.5,92.4 577.5,92.4 578.6,92.4 579.6,92.4 580.6,92.4 581.6,92.4 582.6,92.4 583.7,92.4 584.7,92.4 585.7,92.4 586.7,92.4 587.8,92.4 588.8,92.4 589.8,92.4 590.8,92.4 591.9,92.4 592.9,92.4 593.9,92.4 594.9,92.4 596.0,92.4 597.0,92.4 598.0,92.4 599.0,92.4 600.0,92.4 601.1,92.4 602.1,92.4 603.1,92.4 604.1,92.4 605.2,92.4 606.2,92.4 607.2,92.4 608.2,92.4 609.3,92.4 610.3,92.4 611.3,92.4 612.3,92.4 613.4,92.4 614.4,92.4 615.4,92.4 616.4,92.4 617.4,92.4 618.5,92.4 619.5,92.4 620.5,92.4 621.5,92.4 622.6,92.4 623.6,92.4 624.6,92.4 625.6,92.4 626.7,92.4 627.7,92.4 628.7,92.4 629.7,92.4 630.8,92.4 631.8,92.4 632.8,92.4 633.8,92.4 634.8,92.4 635.9,92.4 636.9,92.4 637.9,92.4 638.9,92.4 640.0,92.4 641.0,92.4 642.0,92.4 643.0,92.4 644.1,92.4 645.1,92.4 646.1,92.4 647.1,92.4 648.2,92.4 649.2,92.4 650.2,92.4 651.2,92.4 652.2,92.4 653.3,92.4 654.3,92.4 655.3,92.4 656.3,92.4 657.4,92.4 658.4,92.4 659.4,92.4 660.4,92.4 661.5,92.4 662.5,92.4 663.5,92.4 664.5,92.4 665.6,92.4 666.6,92.4 667.6,92.4 668.6,92.4 669.6,92.4 670.7,92.4 671.7,92.4 672.7,92.4 673.7,92.4 674.8,92.4 675.8,92.4 676.8,92.4 677.8,92.4 678.9,92.4 679.9,92.4 680.9,92.4 681.9,92.4 683.0,92.4 684.0,92.4 685.0,92.4 686.0,92.4 687.0,92.4 688.1,92.4 689.1,92.4 690.1,92.4 691.1,92.4 692.2,92.4 693.2,92.4 694.2,92.4 695.2,92.4 696.3,92.4 697.3,92.4 698.3,92.4 699.3,92.4 700.4,92.4 701.4,92.4 702.4,92.4 703.4,92.4 704.4,92.4 705.5,92.4 706.5,92.4 707.5,92.4 708.5,92.4 709.6,92.4 710.6,92.4 711.6,92.4 712.6,92.4 713.7,92.4 714.7,92.4 715.7,92.4 716.7,92.4 717.8,92.4 718.8,92.4 719.8,92.4 720.8,92.4 721.8,92.4 722.9,92.4 723.9,92.4 724.9,92.4 725.9,92.4 727.0,92.4 728.0,92.4 729.0,92.4 730.0,92.4 731.1,92.4 732.1,92.4 733.1,92.4 734.1,92.4 735.2,92.4 736.2,92.4 737.2,92.4 738.2,92.4 739.2,92.4 740.3,92.4 741.3,92.4 742.3,92.4 743.3,92.4 744.4,92.4 745.4,92.4 746.4,92.4 747.4,92.4 748.5,92.4 749.5,92.4 750.5,92.4 751.5,92.4 752.6,92.4 753.6,92.4 754.6,92.4 755.6,92.4 756.6,92.4 757.7,92.4 758.7,92.4 759.7,92.4 760.7,92.4 761.8,92.4 762.8,92.4 763.8,92.4 764.8,92.4 765.9,92.4 766.9,92.4 767.9,92.4 768.9,92.4 770.0,92.4 771.0,92.4 772.0,318.0 773.0,318.0 774.0,318.0 775.1,318.0 776.1,318.0 777.1,318.0 778.1,318.0 779.2,318.0 780.2,318.0 781.2,318.0 782.2,318.0 783.3,318.0 784.3,318.0 785.3,318.0 786.3,318.0 787.4,318.0 788.4,318.0 789.4,318.0 790.4,318.0 791.4,318.0 792.5,318.0 793.5,318.0 794.5,318.0 795.5,318.0 796.6,318.0 797.6,318.0 798.6,318.0 799.6,318.0 800.7,318.0 801.7,318.0 802.7,318.0 803.7,318.0 804.8,318.0 805.8,318.0 806.8,318.0 807.8,318.0 808.8,318.0 809.9,318.0 810.9,318.0 811.9,318.0 812.9,318.0 814.0,318.0 815.0,318.0 816.0,318.0 817.0,318.0 818.1,318.0 819.1,318.0 820.1,318.0 821.1,318.0 822.2,318.0 823.2,318.0 824.2,318.0 825.2,318.0 826.2,318.0 827.3,318.0 828.3,318.0 829.3,318.0 830.3,318.0 831.4,318.0 832.4,318.0 833.4,318.0 834.4,318.0 835.5,318.0 836.5,318.0 837.5,318.0 838.5,318.0 839.6,318.0 840.6,318.0 841.6,318.0 842.6,318.0 843.6,318.0 844.7,207.0 845.7,318.0 846.7,318.0 847.7,318.0 848.8,318.0 849.8,318.0 850.8,263.4 851.8,318.0 852.9,318.0 853.9,263.5 854.9,318.0 855.9,318.0 857.0,318.0 858.0,318.0 859.0,318.0 860.0,318.0 861.0,318.0 862.1,262.2 863.1,263.5 864.1,318.0 865.1,318.0 866.2,318.0 867.2,318.0 868.2,264.6 869.2,318.0 870.3,318.0 871.3,318.0 872.3,318.0 873.3,261.9 874.4,318.0 875.4,318.0 876.4,318.0 877.4,263.1 878.4,318.0 879.5,318.0 880.5,318.0 881.5,318.0 882.5,318.0 883.6,318.0 884.6,318.0 885.6,318.0 886.6,207.5 887.7,318.0 888.7,318.0 889.7,318.0 890.7,262.4 891.8,318.0 892.8,318.0 893.8,318.0 894.8,262.8 895.8,318.0 896.9,318.0 897.9,318.0 898.9,263.0 899.9,318.0 901.0,318.0 902.0,262.3 903.0,318.0 904.0,318.0 905.1,318.0 906.1,318.0 907.1,318.0 908.1,318.0 909.2,318.0 910.2,261.9 911.2,261.7 912.2,318.0 913.2,318.0 914.3,264.0 915.3,318.0 916.3,318.0 917.3,318.0 918.4,261.7 919.4,318.0 920.4,318.0 921.4,262.1 922.5,318.0 923.5,318.0 924.5,261.7 925.5,318.0 926.6,263.0 927.6,318.0 928.6,318.0 929.6,318.0 930.6,318.0 931.7,318.0 932.7,318.0 933.7,318.0 934.7,318.0 935.8,207.1 936.8,318.0 937.8,318.0 938.8,318.0 939.9,262.6 940.9,318.0 941.9,318.0 942.9,318.0 944.0,264.5 945.0,318.0 946.0,318.0" fill="none" stroke="#2563eb" stroke-width="2.2" stroke-linejoin="round" stroke-linecap="round"/>
<polyline points="76.0,262.8 77.0,258.8 78.0,249.5 79.1,247.2 80.1,250.9 81.1,240.3 82.1,239.7 83.2,243.5 84.2,248.5 85.2,248.0 86.2,264.6 87.3,246.1 88.3,245.2 89.3,246.9 90.3,251.1 91.4,259.3 92.4,256.5 93.4,254.2 94.4,251.6 95.4,256.6 96.5,261.5 97.5,257.5 98.5,255.6 99.5,255.2 100.6,249.2 101.6,247.7 102.6,249.7 103.6,241.1 104.7,232.5 105.7,241.2 106.7,243.5 107.7,257.3 108.8,251.0 109.8,250.7 110.8,255.2 111.8,250.5 112.8,247.4 113.9,253.4 114.9,247.1 115.9,247.0 116.9,244.7 118.0,261.9 119.0,258.2 120.0,254.2 121.0,219.8 122.1,222.3 123.1,255.3 124.1,251.2 125.1,237.3 126.2,219.3 127.2,239.9 128.2,251.2 129.2,243.9 130.2,242.1 131.3,243.9 132.3,246.7 133.3,244.4 134.3,250.0 135.4,241.3 136.4,247.0 137.4,238.8 138.4,245.4 139.5,243.9 140.5,285.1 141.5,270.0 142.5,262.3 143.6,270.1 144.6,267.0 145.6,238.5 146.6,233.8 147.6,243.4 148.7,259.9 149.7,272.4 150.7,246.0 151.7,245.5 152.8,248.1 153.8,261.0 154.8,250.4 155.8,259.1 156.9,245.9 157.9,240.5 158.9,253.9 159.9,249.9 161.0,254.6 162.0,255.7 163.0,254.0 164.0,261.9 165.0,251.4 166.1,251.4 167.1,253.7 168.1,250.0 169.1,268.3 170.2,231.5 171.2,255.8 172.2,251.1 173.2,218.2 174.3,256.5 175.3,245.2 176.3,247.9 177.3,226.9 178.4,246.1 179.4,248.3 180.4,241.0 181.4,249.4 182.4,243.6 183.5,250.1 184.5,244.3 185.5,242.8 186.5,242.6 187.6,248.1 188.6,245.4 189.6,251.8 190.6,237.9 191.7,251.4 192.7,252.6 193.7,250.9 194.7,220.0 195.8,203.6 196.8,214.7 197.8,215.7 198.8,215.3 199.8,224.9 200.9,220.4 201.9,216.0 202.9,243.5 203.9,246.4 205.0,241.9 206.0,243.2 207.0,242.2 208.0,241.7 209.1,242.6 210.1,244.6 211.1,243.4 212.1,245.1 213.2,249.7 214.2,245.1 215.2,258.2 216.2,257.8 217.2,248.2 218.3,263.2 219.3,290.3 220.3,254.2 221.3,268.2 222.4,255.6 223.4,253.3 224.4,253.6 225.4,250.8 226.5,251.8 227.5,245.2 228.5,251.1 229.5,244.3 230.6,242.4 231.6,240.7 232.6,242.6 233.6,251.4 234.6,264.1 235.7,247.2 236.7,252.2 237.7,250.9 238.7,253.1 239.8,253.4 240.8,258.6 241.8,260.8 242.8,259.1 243.9,292.1 244.9,255.7 245.9,270.2 246.9,236.2 248.0,252.1 249.0,245.1 250.0,249.0 251.0,240.5 252.0,242.6 253.1,248.7 254.1,243.1 255.1,236.6 256.1,245.7 257.2,247.5 258.2,241.4 259.2,245.2 260.2,245.0 261.3,246.8 262.3,247.8 263.3,251.7 264.3,253.2 265.4,259.1 266.4,263.5 267.4,252.2 268.4,285.5 269.4,251.7 270.5,255.1 271.5,250.6 272.5,249.8 273.5,242.9 274.6,242.4 275.6,242.2 276.6,241.0 277.6,247.3 278.7,248.1 279.7,258.9 280.7,257.3 281.7,253.8 282.8,250.1 283.8,255.8 284.8,247.6 285.8,253.5 286.8,245.9 287.9,253.4 288.9,258.1 289.9,261.3 290.9,258.9 292.0,266.2 293.0,297.6 294.0,260.0 295.0,260.3 296.1,258.6 297.1,257.8 298.1,249.6 299.1,247.9 300.2,245.9 301.2,252.3 302.2,248.8 303.2,245.4 304.2,245.5 305.3,241.2 306.3,248.2 307.3,240.3 308.3,241.3 309.4,240.9 310.4,255.8 311.4,255.5 312.4,254.2 313.5,259.3 314.5,273.3 315.5,257.9 316.5,260.5 317.6,258.2 318.6,252.3 319.6,232.0 320.6,219.6 321.6,257.6 322.7,245.0 323.7,228.2 324.7,224.5 325.7,224.1 326.8,223.8 327.8,222.7 328.8,239.3 329.8,231.7 330.9,235.3 331.9,236.0 332.9,245.7 333.9,256.8 335.0,266.4 336.0,245.2 337.0,283.8 338.0,250.1 339.0,265.2 340.1,256.9 341.1,258.4 342.1,265.9 343.1,249.6 344.2,209.8 345.2,220.6 346.2,223.0 347.2,225.7 348.3,215.1 349.3,227.4 350.3,222.0 351.3,209.0 352.4,242.0 353.4,239.8 354.4,248.9 355.4,251.4 356.4,247.5 357.5,243.7 358.5,252.6 359.5,250.3 360.5,248.7 361.6,267.5 362.6,252.2 363.6,247.7 364.6,258.9 365.7,227.2 366.7,211.3 367.7,216.8 368.7,255.8 369.8,251.6 370.8,245.4 371.8,270.3 372.8,239.4 373.8,244.7 374.9,243.3 375.9,250.8 376.9,232.4 377.9,242.8 379.0,244.7 380.0,265.4 381.0,239.2 382.0,244.6 383.1,242.8 384.1,247.8 385.1,246.7 386.1,263.6 387.2,250.8 388.2,258.2 389.2,254.7 390.2,251.7 391.2,265.0 392.3,252.6 393.3,259.2 394.3,263.9 395.3,253.9 396.4,230.0 397.4,224.2 398.4,257.9 399.4,245.8 400.5,252.8 401.5,255.5 402.5,248.1 403.5,251.2 404.6,250.1 405.6,248.5 406.6,245.4 407.6,265.0 408.6,263.0 409.7,258.3 410.7,262.4 411.7,259.0 412.7,283.8 413.8,276.5 414.8,273.1 415.8,276.5 416.8,282.7 417.9,282.5 418.9,277.7 419.9,281.6 420.9,283.5 422.0,278.5 423.0,276.0 424.0,265.8 425.0,251.2 426.0,259.6 427.1,273.4 428.1,261.0 429.1,263.4 430.1,257.8 431.2,265.6 432.2,262.2 433.2,262.1 434.2,262.1 435.3,254.3 436.3,262.8 437.3,257.4 438.3,261.5 439.4,249.6 440.4,254.9 441.4,260.6 442.4,262.8 443.4,263.7 444.5,259.3 445.5,258.4 446.5,252.3 447.5,251.5 448.6,254.4 449.6,233.7 450.6,246.8 451.6,259.0 452.7,247.4 453.7,244.3 454.7,249.6 455.7,251.4 456.8,253.2 457.8,252.7 458.8,254.5 459.8,255.1 460.8,251.1 461.9,261.9 462.9,260.5 463.9,265.7 464.9,260.3 466.0,265.4 467.0,257.3 468.0,253.9 469.0,261.6 470.1,244.2 471.1,253.1 472.1,245.6 473.1,249.2 474.2,235.1 475.2,243.1 476.2,248.1 477.2,255.7 478.2,236.3 479.3,251.0 480.3,236.7 481.3,242.5 482.3,247.8 483.4,246.2 484.4,246.8 485.4,245.6 486.4,253.2 487.5,266.1 488.5,257.9 489.5,214.6 490.5,221.0 491.6,217.1 492.6,231.6 493.6,220.8 494.6,221.3 495.6,229.0 496.7,250.2 497.7,248.0 498.7,234.3 499.7,246.0 500.8,245.0 501.8,252.9 502.8,245.9 503.8,247.4 504.9,248.3 505.9,247.7 506.9,239.1 507.9,240.8 509.0,252.0 510.0,252.9 511.0,252.0 512.0,259.5 513.0,248.6 514.1,255.6 515.1,255.6 516.1,256.2 517.1,252.6 518.2,250.4 519.2,247.5 520.2,235.3 521.2,257.7 522.3,239.4 523.3,217.5 524.3,244.7 525.3,243.3 526.4,247.4 527.4,248.5 528.4,245.5 529.4,244.6 530.4,247.9 531.5,251.0 532.5,248.9 533.5,252.3 534.5,249.7 535.6,252.3 536.6,258.4 537.6,260.8 538.6,239.5 539.7,262.6 540.7,268.1 541.7,271.0 542.7,253.1 543.8,249.5 544.8,256.8 545.8,242.4 546.8,244.6 547.8,235.9 548.9,245.9 549.9,252.1 550.9,240.5 551.9,234.4 553.0,239.0 554.0,241.9 555.0,235.1 556.0,252.6 557.1,245.0 558.1,244.3 559.1,262.3 560.1,305.5 561.2,249.9 562.2,245.8 563.2,258.9 564.2,255.9 565.2,253.1 566.3,256.3 567.3,245.1 568.3,242.3 569.3,240.8 570.4,242.9 571.4,248.5 572.4,241.0 573.4,237.3 574.5,242.1 575.5,239.8 576.5,236.5 577.5,241.5 578.6,247.0 579.6,243.4 580.6,245.8 581.6,248.9 582.6,238.6 583.7,251.6 584.7,249.4 585.7,276.3 586.7,259.7 587.8,250.9 588.8,269.4 589.8,251.6 590.8,254.3 591.9,253.9 592.9,248.4 593.9,238.0 594.9,246.8 596.0,247.0 597.0,245.2 598.0,246.2 599.0,236.4 600.0,240.2 601.1,239.9 602.1,265.2 603.1,243.4 604.1,244.6 605.2,240.0 606.2,250.6 607.2,252.1 608.2,260.3 609.3,245.6 610.3,263.7 611.3,248.6 612.3,262.8 613.4,265.9 614.4,248.1 615.4,254.3 616.4,247.2 617.4,252.3 618.5,246.3 619.5,251.2 620.5,245.4 621.5,241.8 622.6,237.3 623.6,251.5 624.6,246.1 625.6,239.7 626.7,238.8 627.7,245.5 628.7,247.4 629.7,254.5 630.8,236.8 631.8,251.2 632.8,251.9 633.8,255.6 634.8,260.8 635.9,260.8 636.9,256.8 637.9,248.6 638.9,250.9 640.0,258.6 641.0,252.0 642.0,247.8 643.0,242.0 644.1,235.9 645.1,240.3 646.1,241.3 647.1,243.0 648.2,250.0 649.2,251.4 650.2,248.2 651.2,247.2 652.2,243.8 653.3,247.8 654.3,250.6 655.3,243.7 656.3,249.4 657.4,257.8 658.4,256.4 659.4,266.0 660.4,253.2 661.5,257.3 662.5,254.9 663.5,263.9 664.5,255.6 665.6,243.4 666.6,246.3 667.6,236.2 668.6,243.4 669.6,247.6 670.7,232.1 671.7,245.1 672.7,241.1 673.7,245.4 674.8,244.3 675.8,245.7 676.8,244.9 677.8,237.9 678.9,243.8 679.9,240.4 680.9,257.6 681.9,256.3 683.0,256.7 684.0,257.1 685.0,257.2 686.0,263.0 687.0,256.8 688.1,255.5 689.1,256.1 690.1,252.2 691.1,269.8 692.2,254.4 693.2,246.0 694.2,249.9 695.2,237.3 696.3,240.6 697.3,246.0 698.3,254.5 699.3,250.8 700.4,250.9 701.4,252.8 702.4,243.7 703.4,250.9 704.4,251.9 705.5,264.5 706.5,263.0 707.5,262.2 708.5,258.8 709.6,264.6 710.6,255.8 711.6,263.3 712.6,253.6 713.7,256.9 714.7,252.5 715.7,255.3 716.7,252.6 717.8,246.8 718.8,248.8 719.8,241.7 720.8,242.1 721.8,248.9 722.9,250.9 723.9,245.3 724.9,247.8 725.9,246.7 727.0,252.2 728.0,248.6 729.0,256.6 730.0,253.4 731.1,255.6 732.1,260.2 733.1,251.7 734.1,253.8 735.2,264.5 736.2,255.3 737.2,263.6 738.2,248.5 739.2,252.2 740.3,250.8 741.3,253.1 742.3,244.8 743.3,253.0 744.4,244.6 745.4,248.3 746.4,251.8 747.4,245.9 748.5,246.0 749.5,261.2 750.5,255.5 751.5,251.8 752.6,251.4 753.6,254.2 754.6,255.0 755.6,255.0 756.6,265.9 757.7,248.1 758.7,272.1 759.7,254.3 760.7,257.3 761.8,258.3 762.8,243.2 763.8,251.2 764.8,252.1 765.9,251.2 766.9,251.9 767.9,266.5 768.9,260.3 770.0,243.4 771.0,245.9 772.0,345.6 773.0,341.0 774.0,341.4 775.1,339.1 776.1,340.1 777.1,345.0 778.1,343.8 779.2,343.3 780.2,343.1 781.2,343.9 782.2,341.5 783.3,341.0 784.3,342.3 785.3,341.5 786.3,345.3 787.4,340.9 788.4,350.1 789.4,340.2 790.4,342.7 791.4,340.3 792.5,340.1 793.5,341.1 794.5,339.5 795.5,343.3 796.6,343.2 797.6,340.7 798.6,342.2 799.6,341.2 800.7,341.9 801.7,340.0 802.7,344.3 803.7,338.1 804.8,340.6 805.8,342.6 806.8,342.9 807.8,342.3 808.8,345.1 809.9,342.7 810.9,342.9 811.9,340.6 812.9,341.6 814.0,339.6 815.0,341.3 816.0,341.5 817.0,341.0 818.1,342.0 819.1,339.2 820.1,339.6 821.1,340.4 822.2,340.9 823.2,335.8 824.2,335.6 825.2,334.7 826.2,340.2 827.3,340.4 828.3,340.3 829.3,339.6 830.3,342.0 831.4,341.5 832.4,342.0 833.4,343.1 834.4,342.0 835.5,340.6 836.5,334.9 837.5,339.8 838.5,340.6 839.6,340.3 840.6,338.2 841.6,339.3 842.6,338.7 843.6,346.4 844.7,288.7 845.7,339.1 846.7,340.3 847.7,342.0 848.8,341.7 849.8,339.6 850.8,312.1 851.8,343.5 852.9,342.2 853.9,322.7 854.9,348.9 855.9,344.5 857.0,342.6 858.0,342.4 859.0,337.4 860.0,336.7 861.0,331.5 862.1,316.9 863.1,313.8 864.1,336.5 865.1,339.3 866.2,351.6 867.2,341.7 868.2,317.1 869.2,341.6 870.3,334.3 871.3,338.9 872.3,348.0 873.3,317.1 874.4,340.6 875.4,341.7 876.4,340.6 877.4,319.1 878.4,347.2 879.5,345.5 880.5,345.7 881.5,345.8 882.5,345.1 883.6,346.2 884.6,346.7 885.6,351.1 886.6,313.1 887.7,349.0 888.7,346.7 889.7,345.7 890.7,319.3 891.8,345.8 892.8,339.2 893.8,344.5 894.8,321.3 895.8,341.8 896.9,345.7 897.9,343.1 898.9,324.3 899.9,350.6 901.0,345.0 902.0,326.2 903.0,345.3 904.0,345.4 905.1,344.2 906.1,342.9 907.1,345.7 908.1,345.4 909.2,343.6 910.2,320.0 911.2,320.0 912.2,347.3 913.2,343.8 914.3,316.3 915.3,341.6 916.3,340.2 917.3,341.8 918.4,296.9 919.4,344.3 920.4,343.9 921.4,315.0 922.5,347.3 923.5,342.9 924.5,322.7 925.5,347.9 926.6,322.0 927.6,340.4 928.6,347.6 929.6,347.1 930.6,345.1 931.7,342.7 932.7,343.7 933.7,345.5 934.7,344.0 935.8,296.5 936.8,343.7 937.8,345.8 938.8,340.6 939.9,314.7 940.9,345.6 941.9,340.9 942.9,344.2 944.0,322.2 945.0,341.8 946.0,343.3" fill="none" stroke="#7c3aed" stroke-width="2.2" stroke-linejoin="round" stroke-linecap="round"/>
<line x1="76" y1="70" x2="94" y2="70" stroke="#2563eb" stroke-width="3"/>
<text x="100" y="74" font-family="Arial, sans-serif" font-size="11" fill="#0f172a">tx count</text>
<line x1="186" y1="70" x2="204" y2="70" stroke="#7c3aed" stroke-width="3"/>
<text x="210" y="74" font-family="Arial, sans-serif" font-size="11" fill="#0f172a">unique accounts</text>
<text x="28" y="404" font-family="Arial, sans-serif" font-size="11" fill="#64748b">Source: hourly_features.csv; capped windows are sample counts</text>
</svg>