<svg xmlns="http://www.w3.org/2000/svg" width="980" height="420" viewBox="0 0 980 420">
<rect width="100%" height="100%" fill="#ffffff"/>
<text x="28" y="34" font-family="Arial, sans-serif" font-size="20" font-weight="700" fill="#0f172a">Network activity sample trend</text>
<text x="28" y="56" font-family="Arial, sans-serif" font-size="12" fill="#64748b">Hourly transaction sample count and unique account sample count</text>
<line x1="76" y1="362.0" x2="946" y2="362.0" stroke="#e2e8f0" stroke-width="1"/>
<text x="68" y="366.0" font-family="Arial, sans-serif" font-size="10" text-anchor="end" fill="#64748b">220</text>
<line x1="76" y1="292.0" x2="946" y2="292.0" stroke="#e2e8f0" stroke-width="1"/>
<text x="68" y="296.0" font-family="Arial, sans-serif" font-size="10" text-anchor="end" fill="#64748b">1K</text>
<line x1="76" y1="222.0" x2="946" y2="222.0" stroke="#e2e8f0" stroke-width="1"/>
<text x="68" y="226.0" font-family="Arial, sans-serif" font-size="10" text-anchor="end" fill="#64748b">3K</text>
<line x1="76" y1="152.0" x2="946" y2="152.0" stroke="#e2e8f0" stroke-width="1"/>
<text x="68" y="156.0" font-family="Arial, sans-serif" font-size="10" text-anchor="end" fill="#64748b">4K</text>
<line x1="76" y1="82.0" x2="946" y2="82.0" stroke="#e2e8f0" stroke-width="1"/>
<text x="68" y="86.0" font-family="Arial, sans-serif" font-size="10" text-anchor="end" fill="#64748b">5K</text>
<line x1="76" y1="362" x2="946" y2="362" stroke="#334155" stroke-width="1"/>
<line x1="76" y1="82" x2="76" y2="362" stroke="#334155" stroke-width="1"/>
<text x="76" y="72" font-family="Arial, sans-serif" font-size="11" fill="#64748b">count</text>
<line x1="76.0" y1="362" x2="76.0" y2="366" stroke="#334155" stroke-width="1"/>
<text x="76.0" y="380" font-family="Arial, sans-serif" font-size="10" text-anchor="middle" fill="#64748b">0</text>
<line x1="511.5" y1="362" x2="511.5" y2="366" stroke="#334155" stroke-width="1"/>
<text x="511.5" y="380" font-family="Arial, sans-serif" font-size="10" text-anchor="middle" fill="#64748b">415</text>
<line x1="946.0" y1="362" x2="946.0" y2="366" stroke="#334155" stroke-width="1"/>
<text x="946.0" y="380" font-family="Arial, sans-serif" font-size="10" text-anchor="middle" fill="#64748b">829</text>
<polyline points="76.0,92.4 77.0,92.4 78.1,92.4 79.1,92.4 80.2,92.4 81.2,92.4 82.3,92.4 83.3,92.4 84.4,92.4 85.4,92.4 86.5,92.4 87.5,92.4 88.6,92.4 89.6,92.4 90.7,92.4 91.7,92.4 92.8,92.4 93.8,92.4 94.9,92.4 95.9,92.4 97.0,92.4 98.0,92.4 99.1,92.4 100.1,92.4 101.2,92.4 102.2,92.4 103.3,92.4 104.3,92.4 105.4,92.4 106.4,92.4 107.5,92.4 108.5,92.4 109.6,92.4 110.6,92.4 111.7,92.4 112.7,92.4 113.8,92.4 114.8,92.4 115.9,92.4 116.9,92.4 118.0,92.4 119.0,92.4 120.1,92.4 121.1,92.4 122.2,92.4 123.2,92.4 124.3,92.4 125.3,92.4 126.4,92.4 127.4,92.4 128.5,92.4 129.5,92.4 130.6,92.4 131.6,92.4 132.7,92.4 133.7,92.4 134.8,92.4 135.8,92.4 136.9,92.4 137.9,92.4 139.0,92.4 140.0,92.4 141.1,92.4 142.1,92.4 143.2,92.4 144.2,92.4 145.3,92.4 146.3,92.4 147.4,92.4 148.4,92.4 149.5,92.4 150.5,92.4 151.6,92.4 152.6,92.4 153.7,92.4 154.7,92.4 155.8,92.4 156.8,92.4 157.9,92.4 158.9,92.4 160.0,92.4 161.0,92.4 162.1,92.4 163.1,92.4 164.2,92.4 165.2,92.4 166.3,92.4 167.3,92.4 168.4,92.4 169.4,92.4 170.5,92.4 171.5,92.4 172.6,92.4 173.6,92.4 174.6,92.4 175.7,92.4 176.7,92.4 177.8,92.4 178.8,92.4 179.9,92.4 180.9,92.4 182.0,92.4 183.0,92.4 184.1,92.4 185.1,92.4 186.2,92.4 187.2,92.4 188.3,92.4 189.3,92.4 190.4,92.4 191.4,92.4 192.5,92.4 193.5,92.4 194.6,92.4 195.6,92.4 196.7,92.4 197.7,92.4 198.8,92.4 199.8,92.4 200.9,92.4 201.9,92.4 203.0,92.4 204.0,92.4 205.1,92.4 206.1,92.4 207.2,92.4 208.2,92.4 209.3,92.4 210.3,92.4 211.4,92.4 212.4,92.4 213.5,92.4 214.5,92.4 215.6,92.4 216.6,92.4 217.7,92.4 218.7,92.4 219.8,92.4 220.8,92.4 221.9,92.4 222.9,92.4 224.0,92.4 225.0,92.4 226.1,92.4 227.1,92.4 228.2,92.4 229.2,92.4 230.3,92.4 231.3,92.4 232.4,92.4 233.4,92.4 234.5,92.4 235.5,92.4 236.6,92.4 237.6,92.4 238.7,92.4 239.7,92.4 240.8,92.4 241.8,92.4 242.9,92.4 243.9,92.4 245.0,92.4 246.0,92.4 247.1,92.4 248.1,92.4 249.2,92.4 250.2,92.4 251.3,92.4 252.3,92.4 253.4,92.4 254.4,92.4 255.5,92.4 256.5,92.4 257.6,92.4 258.6,92.4 259.7,92.4 260.7,92.4 261.8,92.4 262.8,92.4 263.9,92.4 264.9,92.4 266.0,92.4 267.0,92.4 268.1,92.4 269.1,92.4 270.1,92.4 271.2,92.4 272.2,92.4 273.3,92.4 274.3,92.4 275.4,92.4 276.4,92.4 277.5,92.4 278.5,92.4 279.6,92.4 280.6,92.4 281.7,92.4 282.7,92.4 283.8,92.4 284.8,92.4 285.9,92.4 286.9,92.4 288.0,92.4 289.0,92.4 290.1,92.4 291.1,92.4 292.2,92.4 293.2,92.4 294.3,92.4 295.3,92.4 296.4,92.4 297.4,92.4 298.5,92.4 299.5,92.4 300.6,92.4 301.6,92.4 302.7,92.4 303.7,92.4 304.8,92.4 305.8,92.4 306.9,92.4 307.9,92.4 309.0,92.4 310.0,92.4 311.1,92.4 312.1,92.4 313.2,92.4 314.2,92.4 315.3,92.4 316.3,92.4 317.4,92.4 318.4,92.4 319.5,92.4 320.5,92.4 321.6,92.4 322.6,92.4 323.7,92.4 324.7,92.4 325.8,92.4 326.8,92.4 327.9,92.4 328.9,92.4 330.0,92.4 331.0,92.4 332.1,92.4 333.1,92.4 334.2,92.4 335.2,92.4 336.3,92.4 337.3,92.4 338.4,92.4 339.4,92.4 340.5,92.4 341.5,92.4 342.6,92.4 343.6,92.4 344.7,92.4 345.7,92.4 346.8,92.4 347.8,92.4 348.9,92.4 349.9,92.4 351.0,92.4 352.0,92.4 353.1,92.4 354.1,92.4 355.2,92.4 356.2,92.4 357.3,92.4 358.3,92.4 359.4,92.4 360.4,92.4 361.5,92.4 362.5,92.4 363.6,92.4 364.6,92.4 365.7,92.4 366.7,92.4 367.7,92.4 368.8,92.4 369.8,92.4 370.9,92.4 371.9,92.4 373.0,92.4 374.0,92.4 375.1,92.4 376.1,92.4 377.2,92.4 378.2,92.4 379.3,92.4 380.3,92.4 381.4,92.4 382.4,92.4 383.5,92.4 384.5,92.4 385.6,92.4 386.6,92.4 387.7,92.4 388.7,92.4 389.8,92.4 390.8,92.4 391.9,92.4 392.9,92.4 394.0,92.4 395.0,92.4 396.1,92.4 397.1,92.4 398.2,92.4 399.2,92.4 400.3,92.4 401.3,92.4 402.4,92.4 403.4,92.4 404.5,92.4 405.5,92.4 406.6,92.4 407.6,92.4 408.7,92.4 409.7,92.4 410.8,92.4 411.8,92.4 412.9,92.4 413.9,92.4 415.0,92.4 416.0,92.4 417.1,92.4 418.1,92.4 419.2,92.4 420.2,92.4 421.3,92.4 422.3,92.4 423.4,92.4 424.4,92.4 425.5,92.4 426.5,92.4 427.6,92.4 428.6,92.4 429.7,92.4 430.7,92.4 431.8,92.4 432.8,92.4 433.9,92.4 434.9,92.4 436.0,92.4 437.0,92.4 438.1,92.4 439.1,92.4 440.2,92.4 441.2,92.4 442.3,92.4 443.3,92.4 444.4,92.4 445.4,92.4 446.5,92.4 447.5,92.4 448.6,92.4 449.6,92.4 450.7,92.4 451.7,92.4 452.8,92.4 453.8,92.4 454.9,92.4 455.9,92.4 457.0,92.4 458.0,92.4 459.1,92.4 460.1,92.4 461.2,92.4 462.2,92.4 463.2,92.4 464.3,92.4 465.3,92.4 466.4,92.4 467.4,92.4 468.5,92.4 469.5,92.4 470.6,92.4 471.6,92.4 472.7,92.4 473.7,92.4 474.8,92.4 475.8,92.4 476.9,92.4 477.9,92.4 479.0,92.4 480.0,92.4 481.1,92.4 482.1,92.4 483.2,92.4 484.2,92.4 485.3,92.4 486.3,92.4 487.4,92.4 488.4,92.4 489.5,92.4 490.5,92.4 491.6,92.4 492.6,92.4 493.7,92.4 494.7,92.4 495.8,92.4 496.8,92.4 497.9,92.4 498.9,92.4 500.0,92.4 501.0,92.4 502.1,92.4 503.1,92.4 504.2,92.4 505.2,92.4 506.3,92.4 507.3,92.4 508.4,92.4 509.4,92.4 510.5,92.4 511.5,92.4 512.6,92.4 513.6,92.4 514.7,92.4 515.7,92.4 516.8,92.4 517.8,92.4 518.9,92.4 519.9,92.4 521.0,92.4 522.0,92.4 523.1,92.4 524.1,92.4 525.2,92.4 526.2,92.4 527.3,92.4 528.3,92.4 529.4,92.4 530.4,92.4 531.5,92.4 532.5,92.4 533.6,92.4 534.6,92.4 535.7,92.4 536.7,92.4 537.8,92.4 538.8,92.4 539.9,92.4 540.9,92.4 542.0,92.4 543.0,92.4 544.1,92.4 545.1,92.4 546.2,92.4 547.2,92.4 548.3,92.4 549.3,92.4 550.4,92.4 551.4,92.4 552.5,92.4 553.5,92.4 554.6,92.4 555.6,92.4 556.7,92.4 557.7,92.4 558.8,92.4 559.8,92.4 560.8,92.4 561.9,92.4 562.9,92.4 564.0,92.4 565.0,92.4 566.1,92.4 567.1,92.4 568.2,92.4 569.2,92.4 570.3,92.4 571.3,92.4 572.4,92.4 573.4,92.4 574.5,92.4 575.5,92.4 576.6,92.4 577.6,92.4 578.7,92.4 579.7,92.4 580.8,92.4 581.8,92.4 582.9,92.4 583.9,92.4 585.0,92.4 586.0,92.4 587.1,92.4 588.1,92.4 589.2,92.4 590.2,92.4 591.3,92.4 592.3,92.4 593.4,92.4 594.4,92.4 595.5,92.4 596.5,92.4 597.6,92.4 598.6,92.4 599.7,92.4 600.7,92.4 601.8,92.4 602.8,92.4 603.9,92.4 604.9,92.4 606.0,92.4 607.0,92.4 608.1,92.4 609.1,92.4 610.2,92.4 611.2,92.4 612.3,92.4 613.3,92.4 614.4,92.4 615.4,92.4 616.5,92.4 617.5,92.4 618.6,92.4 619.6,92.4 620.7,92.4 621.7,92.4 622.8,92.4 623.8,92.4 624.9,92.4 625.9,92.4 627.0,92.4 628.0,92.4 629.1,92.4 630.1,92.4 631.2,92.4 632.2,92.4 633.3,92.4 634.3,92.4 635.4,92.4 636.4,92.4 637.5,92.4 638.5,92.4 639.6,92.4 640.6,92.4 641.7,92.4 642.7,92.4 643.8,92.4 644.8,92.4 645.9,92.4 646.9,92.4 648.0,92.4 649.0,92.4 650.1,92.4 651.1,92.4 652.2,92.4 653.2,92.4 654.3,92.4 655.3,92.4 656.3,92.4 657.4,92.4 658.4,92.4 659.5,92.4 660.5,92.4 661.6,92.4 662.6,92.4 663.7,92.4 664.7,92.4 665.8,92.4 666.8,92.4 667.9,92.4 668.9,92.4 670.0,92.4 671.0,92.4 672.1,92.4 673.1,92.4 674.2,92.4 675.2,92.4 676.3,92.4 677.3,92.4 678.4,92.4 679.4,92.4 680.5,92.4 681.5,92.4 682.6,92.4 683.6,92.4 684.7,92.4 685.7,92.4 686.8,92.4 687.8,92.4 688.9,92.4 689.9,92.4 691.0,92.4 692.0,92.4 693.1,92.4 694.1,92.4 695.2,92.4 696.2,92.4 697.3,92.4 698.3,92.4 699.4,92.4 700.4,92.4 701.5,92.4 702.5,92.4 703.6,92.4 704.6,92.4 705.7,92.4 706.7,92.4 707.8,92.4 708.8,92.4 709.9,92.4 710.9,92.4 712.0,92.4 713.0,92.4 714.1,92.4 715.1,92.4 716.2,92.4 717.2,92.4 718.3,92.4 719.3,92.4 720.4,92.4 721.4,92.4 722.5,92.4 723.5,92.4 724.6,92.4 725.6,92.4 726.7,92.4 727.7,92.4 728.8,92.4 729.8,92.4 730.9,92.4 731.9,92.4 733.0,92.4 734.0,92.4 735.1,92.4 736.1,92.4 737.2,92.4 738.2,92.4 739.3,92.4 740.3,92.4 741.4,92.4 742.4,92.4 743.5,92.4 744.5,92.4 745.6,92.4 746.6,92.4 747.7,92.4 748.7,92.4 749.8,92.4 750.8,92.4 751.9,92.4 752.9,92.4 753.9,92.4 755.0,92.4 756.0,92.4 757.1,92.4 758.1,92.4 759.2,92.4 760.2,92.4 761.3,92.4 762.3,92.4 763.4,92.4 764.4,92.4 765.5,92.4 766.5,92.4 767.6,92.4 768.6,92.4 769.7,92.4 770.7,92.4 771.8,92.4 772.8,92.4 773.9,92.4 774.9,92.4 776.0,92.4 777.0,92.4 778.1,92.4 779.1,92.4 780.2,92.4 781.2,92.4 782.3,92.4 783.3,92.4 784.4,92.4 785.4,92.4 786.5,92.4 787.5,92.4 788.6,92.4 789.6,318.0 790.7,318.0 791.7,318.0 792.8,318.0 793.8,318.0 794.9,318.0 795.9,318.0 797.0,318.0 798.0,318.0 799.1,318.0 800.1,318.0 801.2,318.0 802.2,318.0 803.3,318.0 804.3,318.0 805.4,318.0 806.4,318.0 807.5,318.0 808.5,318.0 809.6,318.0 810.6,318.0 811.7,318.0 812.7,318.0 813.8,318.0 814.8,318.0 815.9,318.0 816.9,318.0 818.0,318.0 819.0,318.0 820.1,318.0 821.1,318.0 822.2,318.0 823.2,318.0 824.3,318.0 825.3,318.0 826.4,318.0 827.4,318.0 828.5,318.0 829.5,318.0 830.6,318.0 831.6,318.0 832.7,318.0 833.7,318.0 834.8,318.0 835.8,318.0 836.9,318.0 837.9,318.0 839.0,318.0 840.0,318.0 841.1,318.0 842.1,318.0 843.2,318.0 844.2,318.0 845.3,318.0 846.3,318.0 847.4,318.0 848.4,318.0 849.4,318.0 850.5,318.0 851.5,318.0 852.6,318.0 853.6,318.0 854.7,318.0 855.7,318.0 856.8,318.0 857.8,318.0 858.9,318.0 859.9,318.0 861.0,318.0 862.0,318.0 863.1,318.0 864.1,207.0 865.2,318.0 866.2,318.0 867.3,318.0 868.3,318.0 869.4,318.0 870.4,263.4 871.5,318.0 872.5,318.0 873.6,263.5 874.6,318.0 875.7,318.0 876.7,318.0 877.8,318.0 878.8,318.0 879.9,318.0 880.9,318.0 882.0,262.2 883.0,263.5 884.1,318.0 885.1,318.0 886.2,318.0 887.2,318.0 888.3,264.6 889.3,318.0 890.4,318.0 891.4,318.0 892.5,318.0 893.5,261.9 894.6,318.0 895.6,318.0 896.7,318.0 897.7,263.1 898.8,318.0 899.8,318.0 900.9,318.0 901.9,318.0 903.0,318.0 904.0,318.0 905.1,318.0 906.1,318.0 907.2,207.5 908.2,318.0 909.3,318.0 910.3,318.0 911.4,262.4 912.4,318.0 913.5,318.0 914.5,318.0 915.6,262.8 916.6,318.0 917.7,318.0 918.7,318.0 919.8,263.0 920.8,318.0 921.9,318.0 922.9,262.3 924.0,318.0 925.0,318.0 926.1,318.0 927.1,318.0 928.2,318.0 929.2,318.0 930.3,318.0 931.3,261.9 932.4,261.7 933.4,318.0 934.5,318.0 935.5,264.0 936.6,318.0 937.6,318.0 938.7,318.0 939.7,261.7 940.8,318.0 941.8,318.0 942.9,262.1 943.9,318.0 945.0,318.0 946.0,318.0" fill="none" stroke="#2563eb" stroke-width="2.2" stroke-linejoin="round" stroke-linecap="round"/>
<polyline points="76.0,262.8 77.0,258.8 78.1,249.5 79.1,247.2 80.2,250.9 81.2,240.3 82.3,239.7 83.3,243.5 84.4,248.5 85.4,248.0 86.5,264.6 87.5,246.1 88.6,245.2 89.6,246.9 90.7,251.1 91.7,259.3 92.8,256.5 93.8,254.2 94.9,251.6 95.9,256.6 97.0,261.5 98.0,257.5 99.1,255.6 100.1,255.2 101.2,249.2 102.2,247.7 103.3,249.7 104.3,241.1 105.4,232.5 106.4,241.2 107.5,243.5 108.5,257.3 109.6,251.0 110.6,250.7 111.7,255.2 112.7,250.5 113.8,247.4 114.8,253.4 115.9,247.1 116.9,247.0 118.0,244.7 119.0,261.9 120.1,258.2 121.1,254.2 122.2,219.8 123.2,222.3 124.3,255.3 125.3,251.2 126.4,237.3 127.4,219.3 128.5,239.9 129.5,251.2 130.6,243.9 131.6,242.1 132.7,243.9 133.7,246.7 134.8,244.4 135.8,250.0 136.9,241.3 137.9,247.0 139.0,238.8 140.0,245.4 141.1,243.9 142.1,285.1 143.2,270.0 144.2,262.3 145.3,270.1 146.3,267.0 147.4,238.5 148.4,233.8 149.5,243.4 150.5,259.9 151.6,272.4 152.6,246.0 153.7,245.5 154.7,248.1 155.8,261.0 156.8,250.4 157.9,259.1 158.9,245.9 160.0,240.5 161.0,253.9 162.1,249.9 163.1,254.6 164.2,255.7 165.2,254.0 166.3,261.9 167.3,251.4 168.4,251.4 169.4,253.7 170.5,250.0 171.5,268.3 172.6,231.5 173.6,255.8 174.6,251.1 175.7,218.2 176.7,256.5 177.8,245.2 178.8,247.9 179.9,226.9 180.9,246.1 182.0,248.3 183.0,241.0 184.1,249.4 185.1,243.6 186.2,250.1 187.2,244.3 188.3,242.8 189.3,242.6 190.4,248.1 191.4,245.4 192.5,251.8 193.5,237.9 194.6,251.4 195.6,252.6 196.7,250.9 197.7,220.0 198.8,203.6 199.8,214.7 200.9,215.7 201.9,215.3 203.0,224.9 204.0,220.4 205.1,216.0 206.1,243.5 207.2,246.4 208.2,241.9 209.3,243.2 210.3,242.2 211.4,241.7 212.4,242.6 213.5,244.6 214.5,243.4 215.6,245.1 216.6,249.7 217.7,245.1 218.7,258.2 219.8,257.8 220.8,248.2 221.9,263.2 222.9,290.3 224.0,254.2 225.0,268.2 226.1,255.6 227.1,253.3 228.2,253.6 229.2,250.8 230.3,251.8 231.3,245.2 232.4,251.1 233.4,244.3 234.5,242.4 235.5,240.7 236.6,242.6 237.6,251.4 238.7,264.1 239.7,247.2 240.8,252.2 241.8,250.9 242.9,253.1 243.9,253.4 245.0,258.6 246.0,260.8 247.1,259.1 248.1,292.1 249.2,255.7 250.2,270.2 251.3,236.2 252.3,252.1 253.4,245.1 254.4,249.0 255.5,240.5 256.5,242.6 257.6,248.7 258.6,243.1 259.7,236.6 260.7,245.7 261.8,247.5 262.8,241.4 263.9,245.2 264.9,245.0 266.0,246.8 267.0,247.8 268.1,251.7 269.1,253.2 270.1,259.1 271.2,263.5 272.2,252.2 273.3,285.5 274.3,251.7 275.4,255.1 276.4,250.6 277.5,249.8 278.5,242.9 279.6,242.4 280.6,242.2 281.7,241.0 282.7,247.3 283.8,248.1 284.8,258.9 285.9,257.3 286.9,253.8 288.0,250.1 289.0,255.8 290.1,247.6 291.1,253.5 292.2,245.9 293.2,253.4 294.3,258.1 295.3,261.3 296.4,258.9 297.4,266.2 298.5,297.6 299.5,260.0 300.6,260.3 301.6,258.6 302.7,257.8 303.7,249.6 304.8,247.9 305.8,245.9 306.9,252.3 307.9,248.8 309.0,245.4 310.0,245.5 311.1,241.2 312.1,248.2 313.2,240.3 314.2,241.3 315.3,240.9 316.3,255.8 317.4,255.5 318.4,254.2 319.5,259.3 320.5,273.3 321.6,257.9 322.6,260.5 323.7,258.2 324.7,252.3 325.8,232.0 326.8,219.6 327.9,257.6 328.9,245.0 330.0,228.2 331.0,224.5 332.1,224.1 333.1,223.8 334.2,222.7 335.2,239.3 336.3,231.7 337.3,235.3 338.4,236.0 339.4,245.7 340.5,256.8 341.5,266.4 342.6,245.2 343.6,283.8 344.7,250.1 345.7,265.2 346.8,256.9 347.8,258.4 348.9,265.9 349.9,249.6 351.0,209.8 352.0,220.6 353.1,223.0 354.1,225.7 355.2,215.1 356.2,227.4 357.3,222.0 358.3,209.0 359.4,242.0 360.4,239.8 361.5,248.9 362.5,251.4 363.6,247.5 364.6,243.7 365.7,252.6 366.7,250.3 367.7,248.7 368.8,267.5 369.8,252.2 370.9,247.7 371.9,258.9 373.0,227.2 374.0,211.3 375.1,216.8 376.1,255.8 377.2,251.6 378.2,245.4 379.3,270.3 380.3,239.4 381.4,244.7 382.4,243.3 383.5,250.8 384.5,232.4 385.6,242.8 386.6,244.7 387.7,265.4 388.7,239.2 389.8,244.6 390.8,242.8 391.9,247.8 392.9,246.7 394.0,263.6 395.0,250.8 396.1,258.2 397.1,254.7 398.2,251.7 399.2,265.0 400.3,252.6 401.3,259.2 402.4,263.9 403.4,253.9 404.5,230.0 405.5,224.2 406.6,257.9 407.6,245.8 408.7,252.8 409.7,255.5 410.8,248.1 411.8,251.2 412.9,250.1 413.9,248.5 415.0,245.4 416.0,265.0 417.1,263.0 418.1,258.3 419.2,262.4 420.2,259.0 421.3,283.8 422.3,276.5 423.4,273.1 424.4,276.5 425.5,282.7 426.5,282.5 427.6,277.7 428.6,281.6 429.7,283.5 430.7,278.5 431.8,276.0 432.8,265.8 433.9,251.2 434.9,259.6 436.0,273.4 437.0,261.0 438.1,263.4 439.1,257.8 440.2,265.6 441.2,262.2 442.3,262.1 443.3,262.1 444.4,254.3 445.4,262.8 446.5,257.4 447.5,261.5 448.6,249.6 449.6,254.9 450.7,260.6 451.7,262.8 452.8,263.7 453.8,259.3 454.9,258.4 455.9,252.3 457.0,251.5 458.0,254.4 459.1,233.7 460.1,246.8 461.2,259.0 462.2,247.4 463.2,244.3 464.3,249.6 465.3,251.4 466.4,253.2 467.4,252.7 468.5,254.5 469.5,255.1 470.6,251.1 471.6,261.9 472.7,260.5 473.7,265.7 474.8,260.3 475.8,265.4 476.9,257.3 477.9,253.9 479.0,261.6 480.0,244.2 481.1,253.1 482.1,245.6 483.2,249.2 484.2,235.1 485.3,243.1 486.3,248.1 487.4,255.7 488.4,236.3 489.5,251.0 490.5,236.7 491.6,242.5 492.6,247.8 493.7,246.2 494.7,246.8 495.8,245.6 496.8,253.2 497.9,266.1 498.9,257.9 500.0,214.6 501.0,221.0 502.1,217.1 503.1,231.6 504.2,220.8 505.2,221.3 506.3,229.0 507.3,250.2 508.4,248.0 509.4,234.3 510.5,246.0 511.5,245.0 512.6,252.9 513.6,245.9 514.7,247.4 515.7,248.3 516.8,247.7 517.8,239.1 518.9,240.8 519.9,252.0 521.0,252.9 522.0,252.0 523.1,259.5 524.1,248.6 525.2,255.6 526.2,255.6 527.3,256.2 528.3,252.6 529.4,250.4 530.4,247.5 531.5,235.3 532.5,257.7 533.6,239.4 534.6,217.5 535.7,244.7 536.7,243.3 537.8,247.4 538.8,248.5 539.9,245.5 540.9,244.6 542.0,247.9 543.0,251.0 544.1,248.9 545.1,252.3 546.2,249.7 547.2,252.3 548.3,258.4 549.3,260.8 550.4,239.5 551.4,262.6 552.5,268.1 553.5,271.0 554.6,253.1 555.6,249.5 556.7,256.8 557.7,242.4 558.8,244.6 559.8,235.9 560.8,245.9 561.9,252.1 562.9,240.5 564.0,234.4 565.0,239.0 566.1,241.9 567.1,235.1 568.2,252.6 569.2,245.0 570.3,244.3 571.3,262.3 572.4,305.5 573.4,249.9 574.5,245.8 575.5,258.9 576.6,255.9 577.6,253.1 578.7,256.3 579.7,245.1 580.8,242.3 581.8,240.8 582.9,242.9 583.9,248.5 585.0,241.0 586.0,237.3 587.1,242.1 588.1,239.8 589.2,236.5 590.2,241.5 591.3,247.0 592.3,243.4 593.4,245.8 594.4,248.9 595.5,238.6 596.5,251.6 597.6,249.4 598.6,276.3 599.7,259.7 600.7,250.9 601.8,269.4 602.8,251.6 603.9,254.3 604.9,253.9 606.0,248.4 607.0,238.0 608.1,246.8 609.1,247.0 610.2,245.2 611.2,246.2 612.3,236.4 613.3,240.2 614.4,239.9 615.4,265.2 616.5,243.4 617.5,244.6 618.6,240.0 619.6,250.6 620.7,252.1 621.7,260.3 622.8,245.6 623.8,263.7 624.9,248.6 625.9,262.8 627.0,265.9 628.0,248.1 629.1,254.3 630.1,247.2 631.2,252.3 632.2,246.3 633.3,251.2 634.3,245.4 635.4,241.8 636.4,237.3 637.5,251.5 638.5,246.1 639.6,239.7 640.6,238.8 641.7,245.5 642.7,247.4 643.8,254.5 644.8,236.8 645.9,251.2 646.9,251.9 648.0,255.6 649.0,260.8 650.1,260.8 651.1,256.8 652.2,248.6 653.2,250.9 654.3,258.6 655.3,252.0 656.3,247.8 657.4,242.0 658.4,235.9 659.5,240.3 660.5,241.3 661.6,243.0 662.6,250.0 663.7,251.4 664.7,248.2 665.8,247.2 666.8,243.8 667.9,247.8 668.9,250.6 670.0,243.7 671.0,249.4 672.1,257.8 673.1,256.4 674.2,266.0 675.2,253.2 676.3,257.3 677.3,254.9 678.4,263.9 679.4,255.6 680.5,243.4 681.5,246.3 682.6,236.2 683.6,243.4 684.7,247.6 685.7,232.1 686.8,245.1 687.8,241.1 688.9,245.4 689.9,244.3 691.0,245.7 692.0,244.9 693.1,237.9 694.1,243.8 695.2,240.4 696.2,257.6 697.3,256.3 698.3,256.7 699.4,257.1 700.4,257.2 701.5,263.0 702.5,256.8 703.6,255.5 704.6,256.1 705.7,252.2 706.7,269.8 707.8,254.4 708.8,246.0 709.9,249.9 710.9,237.3 712.0,240.6 713.0,246.0 714.1,254.5 715.1,250.8 716.2,250.9 717.2,252.8 718.3,243.7 719.3,250.9 720.4,251.9 721.4,264.5 722.5,263.0 723.5,262.2 724.6,258.8 725.6,264.6 726.7,255.8 727.7,263.3 728.8,253.6 729.8,256.9 730.9,252.5 731.9,255.3 733.0,252.6 734.0,246.8 735.1,248.8 736.1,241.7 737.2,242.1 738.2,248.9 739.3,250.9 740.3,245.3 741.4,247.8 742.4,246.7 743.5,252.2 744.5,248.6 745.6,256.6 746.6,253.4 747.7,255.6 748.7,260.2 749.8,251.7 750.8,253.8 751.9,264.5 752.9,255.3 753.9,263.6 755.0,248.5 756.0,252.2 757.1,250.8 758.1,253.1 759.2,244.8 760.2,253.0 761.3,244.6 762.3,248.3 763.4,251.8 764.4,245.9 765.5,246.0 766.5,261.2 767.6,255.5 768.6,251.8 769.7,251.4 770.7,254.2 771.8,255.0 772.8,255.0 773.9,265.9 774.9,248.1 776.0,272.1 777.0,254.3 778.1,257.3 779.1,258.3 780.2,243.2 781.2,251.2 782.3,252.1 783.3,251.2 784.4,251.9 785.4,266.5 786.5,260.3 787.5,243.4 788.6,245.9 789.6,345.6 790.7,341.0 791.7,341.4 792.8,339.1 793.8,340.1 794.9,345.0 795.9,343.8 797.0,343.3 798.0,343.1 799.1,343.9 800.1,341.5 801.2,341.0 802.2,342.3 803.3,341.5 804.3,345.3 805.4,340.9 806.4,350.1 807.5,340.2 808.5,342.7 809.6,340.3 810.6,340.1 811.7,341.1 812.7,339.5 813.8,343.3 814.8,343.2 815.9,340.7 816.9,342.2 818.0,341.2 819.0,341.9 820.1,340.0 821.1,344.3 822.2,338.1 823.2,340.6 824.3,342.6 825.3,342.9 826.4,342.3 827.4,345.1 828.5,342.7 829.5,342.9 830.6,340.6 831.6,341.6 832.7,339.6 833.7,341.3 834.8,341.5 835.8,341.0 836.9,342.0 837.9,339.2 839.0,339.6 840.0,340.4 841.1,340.9 842.1,335.8 843.2,335.6 844.2,334.7 845.3,340.2 846.3,340.4 847.4,340.3 848.4,339.6 849.4,342.0 850.5,341.5 851.5,342.0 852.6,343.1 853.6,342.0 854.7,340.6 855.7,334.9 856.8,339.8 857.8,340.6 858.9,340.3 859.9,338.2 861.0,339.3 862.0,338.7 863.1,346.4 864.1,288.7 865.2,339.1 866.2,340.3 867.3,342.0 868.3,341.7 869.4,339.6 870.4,312.1 871.5,343.5 872.5,342.2 873.6,322.7 874.6,348.9 875.7,344.5 876.7,342.6 877.8,342.4 878.8,337.4 879.9,336.7 880.9,331.5 882.0,316.9 883.0,313.8 884.1,336.5 885.1,339.3 886.2,351.6 887.2,341.7 888.3,317.1 889.3,341.6 890.4,334.3 891.4,338.9 892.5,348.0 893.5,317.1 894.6,340.6 895.6,341.7 896.7,340.6 897.7,319.1 898.8,347.2 899.8,345.5 900.9,345.7 901.9,345.8 903.0,345.1 904.0,346.2 905.1,346.7 906.1,351.1 907.2,313.1 908.2,349.0 909.3,346.7 910.3,345.7 911.4,319.3 912.4,345.8 913.5,339.2 914.5,344.5 915.6,321.3 916.6,341.8 917.7,345.7 918.7,343.1 919.8,324.3 920.8,350.6 921.9,345.0 922.9,326.2 924.0,345.3 925.0,345.4 926.1,344.2 927.1,342.9 928.2,345.7 929.2,345.4 930.3,343.6 931.3,320.0 932.4,320.0 933.4,347.3 934.5,343.8 935.5,316.3 936.6,341.6 937.6,340.2 938.7,341.8 939.7,296.9 940.8,344.3 941.8,343.9 942.9,315.0 943.9,347.3 945.0,342.9 946.0,347.0" fill="none" stroke="#7c3aed" stroke-width="2.2" stroke-linejoin="round" stroke-linecap="round"/>
<line x1="76" y1="70" x2="94" y2="70" stroke="#2563eb" stroke-width="3"/>
<text x="100" y="74" font-family="Arial, sans-serif" font-size="11" fill="#0f172a">tx count</text>
<line x1="186" y1="70" x2="204" y2="70" stroke="#7c3aed" stroke-width="3"/>
<text x="210" y="74" font-family="Arial, sans-serif" font-size="11" fill="#0f172a">unique accounts</text>
<text x="28" y="404" font-family="Arial, sans-serif" font-size="11" fill="#64748b">Source: hourly_features.csv; capped windows are sample counts</text>
</svg>