<svg xmlns="http://www.w3.org/2000/svg" width="980" height="420" viewBox="0 0 980 420">
<rect width="100%" height="100%" fill="#ffffff"/>
<text x="28" y="34" font-family="Arial, sans-serif" font-size="20" font-weight="700" fill="#0f172a">Network activity sample trend</text>
<text x="28" y="56" font-family="Arial, sans-serif" font-size="12" fill="#64748b">Hourly transaction sample count and unique account sample count</text>
<line x1="76" y1="362.0" x2="946" y2="362.0" stroke="#e2e8f0" stroke-width="1"/>
<text x="68" y="366.0" font-family="Arial, sans-serif" font-size="10" text-anchor="end" fill="#64748b">220</text>
<line x1="76" y1="292.0" x2="946" y2="292.0" stroke="#e2e8f0" stroke-width="1"/>
<text x="68" y="296.0" font-family="Arial, sans-serif" font-size="10" text-anchor="end" fill="#64748b">1K</text>
<line x1="76" y1="222.0" x2="946" y2="222.0" stroke="#e2e8f0" stroke-width="1"/>
<text x="68" y="226.0" font-family="Arial, sans-serif" font-size="10" text-anchor="end" fill="#64748b">3K</text>
<line x1="76" y1="152.0" x2="946" y2="152.0" stroke="#e2e8f0" stroke-width="1"/>
<text x="68" y="156.0" font-family="Arial, sans-serif" font-size="10" text-anchor="end" fill="#64748b">4K</text>
<line x1="76" y1="82.0" x2="946" y2="82.0" stroke="#e2e8f0" stroke-width="1"/>
<text x="68" y="86.0" font-family="Arial, sans-serif" font-size="10" text-anchor="end" fill="#64748b">5K</text>
<line x1="76" y1="362" x2="946" y2="362" stroke="#334155" stroke-width="1"/>
<line x1="76" y1="82" x2="76" y2="362" stroke="#334155" stroke-width="1"/>
<text x="76" y="72" font-family="Arial, sans-serif" font-size="11" fill="#64748b">count</text>
<line x1="76.0" y1="362" x2="76.0" y2="366" stroke="#334155" stroke-width="1"/>
<text x="76.0" y="380" font-family="Arial, sans-serif" font-size="10" text-anchor="middle" fill="#64748b">0</text>
<line x1="511.0" y1="362" x2="511.0" y2="366" stroke="#334155" stroke-width="1"/>
<text x="511.0" y="380" font-family="Arial, sans-serif" font-size="10" text-anchor="middle" fill="#64748b">422</text>
<line x1="946.0" y1="362" x2="946.0" y2="366" stroke="#334155" stroke-width="1"/>
<text x="946.0" y="380" font-family="Arial, sans-serif" font-size="10" text-anchor="middle" fill="#64748b">844</text>
<polyline points="76.0,92.4 77.0,92.4 78.1,92.4 79.1,92.4 80.1,92.4 81.2,92.4 82.2,92.4 83.2,92.4 84.2,92.4 85.3,92.4 86.3,92.4 87.3,92.4 88.4,92.4 89.4,92.4 90.4,92.4 91.5,92.4 92.5,92.4 93.5,92.4 94.6,92.4 95.6,92.4 96.6,92.4 97.6,92.4 98.7,92.4 99.7,92.4 100.7,92.4 101.8,92.4 102.8,92.4 103.8,92.4 104.9,92.4 105.9,92.4 106.9,92.4 108.0,92.4 109.0,92.4 110.0,92.4 111.0,92.4 112.1,92.4 113.1,92.4 114.1,92.4 115.2,92.4 116.2,92.4 117.2,92.4 118.3,92.4 119.3,92.4 120.3,92.4 121.4,92.4 122.4,92.4 123.4,92.4 124.4,92.4 125.5,92.4 126.5,92.4 127.5,92.4 128.6,92.4 129.6,92.4 130.6,92.4 131.7,92.4 132.7,92.4 133.7,92.4 134.8,92.4 135.8,92.4 136.8,92.4 137.8,92.4 138.9,92.4 139.9,92.4 140.9,92.4 142.0,92.4 143.0,92.4 144.0,92.4 145.1,92.4 146.1,92.4 147.1,92.4 148.2,92.4 149.2,92.4 150.2,92.4 151.2,92.4 152.3,92.4 153.3,92.4 154.3,92.4 155.4,92.4 156.4,92.4 157.4,92.4 158.5,92.4 159.5,92.4 160.5,92.4 161.6,92.4 162.6,92.4 163.6,92.4 164.6,92.4 165.7,92.4 166.7,92.4 167.7,92.4 168.8,92.4 169.8,92.4 170.8,92.4 171.9,92.4 172.9,92.4 173.9,92.4 175.0,92.4 176.0,92.4 177.0,92.4 178.0,92.4 179.1,92.4 180.1,92.4 181.1,92.4 182.2,92.4 183.2,92.4 184.2,92.4 185.3,92.4 186.3,92.4 187.3,92.4 188.4,92.4 189.4,92.4 190.4,92.4 191.5,92.4 192.5,92.4 193.5,92.4 194.5,92.4 195.6,92.4 196.6,92.4 197.6,92.4 198.7,92.4 199.7,92.4 200.7,92.4 201.8,92.4 202.8,92.4 203.8,92.4 204.9,92.4 205.9,92.4 206.9,92.4 207.9,92.4 209.0,92.4 210.0,92.4 211.0,92.4 212.1,92.4 213.1,92.4 214.1,92.4 215.2,92.4 216.2,92.4 217.2,92.4 218.3,92.4 219.3,92.4 220.3,92.4 221.3,92.4 222.4,92.4 223.4,92.4 224.4,92.4 225.5,92.4 226.5,92.4 227.5,92.4 228.6,92.4 229.6,92.4 230.6,92.4 231.7,92.4 232.7,92.4 233.7,92.4 234.7,92.4 235.8,92.4 236.8,92.4 237.8,92.4 238.9,92.4 239.9,92.4 240.9,92.4 242.0,92.4 243.0,92.4 244.0,92.4 245.1,92.4 246.1,92.4 247.1,92.4 248.1,92.4 249.2,92.4 250.2,92.4 251.2,92.4 252.3,92.4 253.3,92.4 254.3,92.4 255.4,92.4 256.4,92.4 257.4,92.4 258.5,92.4 259.5,92.4 260.5,92.4 261.5,92.4 262.6,92.4 263.6,92.4 264.6,92.4 265.7,92.4 266.7,92.4 267.7,92.4 268.8,92.4 269.8,92.4 270.8,92.4 271.9,92.4 272.9,92.4 273.9,92.4 274.9,92.4 276.0,92.4 277.0,92.4 278.0,92.4 279.1,92.4 280.1,92.4 281.1,92.4 282.2,92.4 283.2,92.4 284.2,92.4 285.3,92.4 286.3,92.4 287.3,92.4 288.3,92.4 289.4,92.4 290.4,92.4 291.4,92.4 292.5,92.4 293.5,92.4 294.5,92.4 295.6,92.4 296.6,92.4 297.6,92.4 298.7,92.4 299.7,92.4 300.7,92.4 301.7,92.4 302.8,92.4 303.8,92.4 304.8,92.4 305.9,92.4 306.9,92.4 307.9,92.4 309.0,92.4 310.0,92.4 311.0,92.4 312.1,92.4 313.1,92.4 314.1,92.4 315.1,92.4 316.2,92.4 317.2,92.4 318.2,92.4 319.3,92.4 320.3,92.4 321.3,92.4 322.4,92.4 323.4,92.4 324.4,92.4 325.5,92.4 326.5,92.4 327.5,92.4 328.5,92.4 329.6,92.4 330.6,92.4 331.6,92.4 332.7,92.4 333.7,92.4 334.7,92.4 335.8,92.4 336.8,92.4 337.8,92.4 338.9,92.4 339.9,92.4 340.9,92.4 341.9,92.4 343.0,92.4 344.0,92.4 345.0,92.4 346.1,92.4 347.1,92.4 348.1,92.4 349.2,92.4 350.2,92.4 351.2,92.4 352.3,92.4 353.3,92.4 354.3,92.4 355.3,92.4 356.4,92.4 357.4,92.4 358.4,92.4 359.5,92.4 360.5,92.4 361.5,92.4 362.6,92.4 363.6,92.4 364.6,92.4 365.7,92.4 366.7,92.4 367.7,92.4 368.7,92.4 369.8,92.4 370.8,92.4 371.8,92.4 372.9,92.4 373.9,92.4 374.9,92.4 376.0,92.4 377.0,92.4 378.0,92.4 379.1,92.4 380.1,92.4 381.1,92.4 382.1,92.4 383.2,92.4 384.2,92.4 385.2,92.4 386.3,92.4 387.3,92.4 388.3,92.4 389.4,92.4 390.4,92.4 391.4,92.4 392.5,92.4 393.5,92.4 394.5,92.4 395.5,92.4 396.6,92.4 397.6,92.4 398.6,92.4 399.7,92.4 400.7,92.4 401.7,92.4 402.8,92.4 403.8,92.4 404.8,92.4 405.9,92.4 406.9,92.4 407.9,92.4 409.0,92.4 410.0,92.4 411.0,92.4 412.0,92.4 413.1,92.4 414.1,92.4 415.1,92.4 416.2,92.4 417.2,92.4 418.2,92.4 419.3,92.4 420.3,92.4 421.3,92.4 422.4,92.4 423.4,92.4 424.4,92.4 425.4,92.4 426.5,92.4 427.5,92.4 428.5,92.4 429.6,92.4 430.6,92.4 431.6,92.4 432.7,92.4 433.7,92.4 434.7,92.4 435.8,92.4 436.8,92.4 437.8,92.4 438.8,92.4 439.9,92.4 440.9,92.4 441.9,92.4 443.0,92.4 444.0,92.4 445.0,92.4 446.1,92.4 447.1,92.4 448.1,92.4 449.2,92.4 450.2,92.4 451.2,92.4 452.2,92.4 453.3,92.4 454.3,92.4 455.3,92.4 456.4,92.4 457.4,92.4 458.4,92.4 459.5,92.4 460.5,92.4 461.5,92.4 462.6,92.4 463.6,92.4 464.6,92.4 465.6,92.4 466.7,92.4 467.7,92.4 468.7,92.4 469.8,92.4 470.8,92.4 471.8,92.4 472.9,92.4 473.9,92.4 474.9,92.4 476.0,92.4 477.0,92.4 478.0,92.4 479.0,92.4 480.1,92.4 481.1,92.4 482.1,92.4 483.2,92.4 484.2,92.4 485.2,92.4 486.3,92.4 487.3,92.4 488.3,92.4 489.4,92.4 490.4,92.4 491.4,92.4 492.4,92.4 493.5,92.4 494.5,92.4 495.5,92.4 496.6,92.4 497.6,92.4 498.6,92.4 499.7,92.4 500.7,92.4 501.7,92.4 502.8,92.4 503.8,92.4 504.8,92.4 505.8,92.4 506.9,92.4 507.9,92.4 508.9,92.4 510.0,92.4 511.0,92.4 512.0,92.4 513.1,92.4 514.1,92.4 515.1,92.4 516.2,92.4 517.2,92.4 518.2,92.4 519.2,92.4 520.3,92.4 521.3,92.4 522.3,92.4 523.4,92.4 524.4,92.4 525.4,92.4 526.5,92.4 527.5,92.4 528.5,92.4 529.6,92.4 530.6,92.4 531.6,92.4 532.6,92.4 533.7,92.4 534.7,92.4 535.7,92.4 536.8,92.4 537.8,92.4 538.8,92.4 539.9,92.4 540.9,92.4 541.9,92.4 543.0,92.4 544.0,92.4 545.0,92.4 546.0,92.4 547.1,92.4 548.1,92.4 549.1,92.4 550.2,92.4 551.2,92.4 552.2,92.4 553.3,92.4 554.3,92.4 555.3,92.4 556.4,92.4 557.4,92.4 558.4,92.4 559.4,92.4 560.5,92.4 561.5,92.4 562.5,92.4 563.6,92.4 564.6,92.4 565.6,92.4 566.7,92.4 567.7,92.4 568.7,92.4 569.8,92.4 570.8,92.4 571.8,92.4 572.8,92.4 573.9,92.4 574.9,92.4 575.9,92.4 577.0,92.4 578.0,92.4 579.0,92.4 580.1,92.4 581.1,92.4 582.1,92.4 583.2,92.4 584.2,92.4 585.2,92.4 586.2,92.4 587.3,92.4 588.3,92.4 589.3,92.4 590.4,92.4 591.4,92.4 592.4,92.4 593.5,92.4 594.5,92.4 595.5,92.4 596.6,92.4 597.6,92.4 598.6,92.4 599.6,92.4 600.7,92.4 601.7,92.4 602.7,92.4 603.8,92.4 604.8,92.4 605.8,92.4 606.9,92.4 607.9,92.4 608.9,92.4 610.0,92.4 611.0,92.4 612.0,92.4 613.0,92.4 614.1,92.4 615.1,92.4 616.1,92.4 617.2,92.4 618.2,92.4 619.2,92.4 620.3,92.4 621.3,92.4 622.3,92.4 623.4,92.4 624.4,92.4 625.4,92.4 626.5,92.4 627.5,92.4 628.5,92.4 629.5,92.4 630.6,92.4 631.6,92.4 632.6,92.4 633.7,92.4 634.7,92.4 635.7,92.4 636.8,92.4 637.8,92.4 638.8,92.4 639.9,92.4 640.9,92.4 641.9,92.4 642.9,92.4 644.0,92.4 645.0,92.4 646.0,92.4 647.1,92.4 648.1,92.4 649.1,92.4 650.2,92.4 651.2,92.4 652.2,92.4 653.3,92.4 654.3,92.4 655.3,92.4 656.3,92.4 657.4,92.4 658.4,92.4 659.4,92.4 660.5,92.4 661.5,92.4 662.5,92.4 663.6,92.4 664.6,92.4 665.6,92.4 666.7,92.4 667.7,92.4 668.7,92.4 669.7,92.4 670.8,92.4 671.8,92.4 672.8,92.4 673.9,92.4 674.9,92.4 675.9,92.4 677.0,92.4 678.0,92.4 679.0,92.4 680.1,92.4 681.1,92.4 682.1,92.4 683.1,92.4 684.2,92.4 685.2,92.4 686.2,92.4 687.3,92.4 688.3,92.4 689.3,92.4 690.4,92.4 691.4,92.4 692.4,92.4 693.5,92.4 694.5,92.4 695.5,92.4 696.5,92.4 697.6,92.4 698.6,92.4 699.6,92.4 700.7,92.4 701.7,92.4 702.7,92.4 703.8,92.4 704.8,92.4 705.8,92.4 706.9,92.4 707.9,92.4 708.9,92.4 709.9,92.4 711.0,92.4 712.0,92.4 713.0,92.4 714.1,92.4 715.1,92.4 716.1,92.4 717.2,92.4 718.2,92.4 719.2,92.4 720.3,92.4 721.3,92.4 722.3,92.4 723.3,92.4 724.4,92.4 725.4,92.4 726.4,92.4 727.5,92.4 728.5,92.4 729.5,92.4 730.6,92.4 731.6,92.4 732.6,92.4 733.7,92.4 734.7,92.4 735.7,92.4 736.7,92.4 737.8,92.4 738.8,92.4 739.8,92.4 740.9,92.4 741.9,92.4 742.9,92.4 744.0,92.4 745.0,92.4 746.0,92.4 747.1,92.4 748.1,92.4 749.1,92.4 750.1,92.4 751.2,92.4 752.2,92.4 753.2,92.4 754.3,92.4 755.3,92.4 756.3,92.4 757.4,92.4 758.4,92.4 759.4,92.4 760.5,92.4 761.5,92.4 762.5,92.4 763.5,92.4 764.6,92.4 765.6,92.4 766.6,92.4 767.7,92.4 768.7,92.4 769.7,92.4 770.8,92.4 771.8,92.4 772.8,92.4 773.9,92.4 774.9,92.4 775.9,92.4 776.9,318.0 778.0,318.0 779.0,318.0 780.0,318.0 781.1,318.0 782.1,318.0 783.1,318.0 784.2,318.0 785.2,318.0 786.2,318.0 787.3,318.0 788.3,318.0 789.3,318.0 790.3,318.0 791.4,318.0 792.4,318.0 793.4,318.0 794.5,318.0 795.5,318.0 796.5,318.0 797.6,318.0 798.6,318.0 799.6,318.0 800.7,318.0 801.7,318.0 802.7,318.0 803.7,318.0 804.8,318.0 805.8,318.0 806.8,318.0 807.9,318.0 808.9,318.0 809.9,318.0 811.0,318.0 812.0,318.0 813.0,318.0 814.1,318.0 815.1,318.0 816.1,318.0 817.1,318.0 818.2,318.0 819.2,318.0 820.2,318.0 821.3,318.0 822.3,318.0 823.3,318.0 824.4,318.0 825.4,318.0 826.4,318.0 827.5,318.0 828.5,318.0 829.5,318.0 830.5,318.0 831.6,318.0 832.6,318.0 833.6,318.0 834.7,318.0 835.7,318.0 836.7,318.0 837.8,318.0 838.8,318.0 839.8,318.0 840.9,318.0 841.9,318.0 842.9,318.0 844.0,318.0 845.0,318.0 846.0,318.0 847.0,318.0 848.1,318.0 849.1,318.0 850.1,207.0 851.2,318.0 852.2,318.0 853.2,318.0 854.3,318.0 855.3,318.0 856.3,263.4 857.4,318.0 858.4,318.0 859.4,263.5 860.4,318.0 861.5,318.0 862.5,318.0 863.5,318.0 864.6,318.0 865.6,318.0 866.6,318.0 867.7,262.2 868.7,263.5 869.7,318.0 870.8,318.0 871.8,318.0 872.8,318.0 873.8,264.6 874.9,318.0 875.9,318.0 876.9,318.0 878.0,318.0 879.0,261.9 880.0,318.0 881.1,318.0 882.1,318.0 883.1,263.1 884.2,318.0 885.2,318.0 886.2,318.0 887.2,318.0 888.3,318.0 889.3,318.0 890.3,318.0 891.4,318.0 892.4,207.5 893.4,318.0 894.5,318.0 895.5,318.0 896.5,262.4 897.6,318.0 898.6,318.0 899.6,318.0 900.6,262.8 901.7,318.0 902.7,318.0 903.7,318.0 904.8,263.0 905.8,318.0 906.8,318.0 907.9,262.3 908.9,318.0 909.9,318.0 911.0,318.0 912.0,318.0 913.0,318.0 914.0,318.0 915.1,318.0 916.1,261.9 917.1,261.7 918.2,318.0 919.2,318.0 920.2,264.0 921.3,318.0 922.3,318.0 923.3,318.0 924.4,261.7 925.4,318.0 926.4,318.0 927.4,262.1 928.5,318.0 929.5,318.0 930.5,261.7 931.6,318.0 932.6,263.0 933.6,318.0 934.7,318.0 935.7,318.0 936.7,318.0 937.8,318.0 938.8,318.0 939.8,318.0 940.8,318.0 941.9,207.1 942.9,318.0 943.9,318.0 945.0,318.0 946.0,318.0" fill="none" stroke="#2563eb" stroke-width="2.2" stroke-linejoin="round" stroke-linecap="round"/>
<polyline points="76.0,262.8 77.0,258.8 78.1,249.5 79.1,247.2 80.1,250.9 81.2,240.3 82.2,239.7 83.2,243.5 84.2,248.5 85.3,248.0 86.3,264.6 87.3,246.1 88.4,245.2 89.4,246.9 90.4,251.1 91.5,259.3 92.5,256.5 93.5,254.2 94.6,251.6 95.6,256.6 96.6,261.5 97.6,257.5 98.7,255.6 99.7,255.2 100.7,249.2 101.8,247.7 102.8,249.7 103.8,241.1 104.9,232.5 105.9,241.2 106.9,243.5 108.0,257.3 109.0,251.0 110.0,250.7 111.0,255.2 112.1,250.5 113.1,247.4 114.1,253.4 115.2,247.1 116.2,247.0 117.2,244.7 118.3,261.9 119.3,258.2 120.3,254.2 121.4,219.8 122.4,222.3 123.4,255.3 124.4,251.2 125.5,237.3 126.5,219.3 127.5,239.9 128.6,251.2 129.6,243.9 130.6,242.1 131.7,243.9 132.7,246.7 133.7,244.4 134.8,250.0 135.8,241.3 136.8,247.0 137.8,238.8 138.9,245.4 139.9,243.9 140.9,285.1 142.0,270.0 143.0,262.3 144.0,270.1 145.1,267.0 146.1,238.5 147.1,233.8 148.2,243.4 149.2,259.9 150.2,272.4 151.2,246.0 152.3,245.5 153.3,248.1 154.3,261.0 155.4,250.4 156.4,259.1 157.4,245.9 158.5,240.5 159.5,253.9 160.5,249.9 161.6,254.6 162.6,255.7 163.6,254.0 164.6,261.9 165.7,251.4 166.7,251.4 167.7,253.7 168.8,250.0 169.8,268.3 170.8,231.5 171.9,255.8 172.9,251.1 173.9,218.2 175.0,256.5 176.0,245.2 177.0,247.9 178.0,226.9 179.1,246.1 180.1,248.3 181.1,241.0 182.2,249.4 183.2,243.6 184.2,250.1 185.3,244.3 186.3,242.8 187.3,242.6 188.4,248.1 189.4,245.4 190.4,251.8 191.5,237.9 192.5,251.4 193.5,252.6 194.5,250.9 195.6,220.0 196.6,203.6 197.6,214.7 198.7,215.7 199.7,215.3 200.7,224.9 201.8,220.4 202.8,216.0 203.8,243.5 204.9,246.4 205.9,241.9 206.9,243.2 207.9,242.2 209.0,241.7 210.0,242.6 211.0,244.6 212.1,243.4 213.1,245.1 214.1,249.7 215.2,245.1 216.2,258.2 217.2,257.8 218.3,248.2 219.3,263.2 220.3,290.3 221.3,254.2 222.4,268.2 223.4,255.6 224.4,253.3 225.5,253.6 226.5,250.8 227.5,251.8 228.6,245.2 229.6,251.1 230.6,244.3 231.7,242.4 232.7,240.7 233.7,242.6 234.7,251.4 235.8,264.1 236.8,247.2 237.8,252.2 238.9,250.9 239.9,253.1 240.9,253.4 242.0,258.6 243.0,260.8 244.0,259.1 245.1,292.1 246.1,255.7 247.1,270.2 248.1,236.2 249.2,252.1 250.2,245.1 251.2,249.0 252.3,240.5 253.3,242.6 254.3,248.7 255.4,243.1 256.4,236.6 257.4,245.7 258.5,247.5 259.5,241.4 260.5,245.2 261.5,245.0 262.6,246.8 263.6,247.8 264.6,251.7 265.7,253.2 266.7,259.1 267.7,263.5 268.8,252.2 269.8,285.5 270.8,251.7 271.9,255.1 272.9,250.6 273.9,249.8 274.9,242.9 276.0,242.4 277.0,242.2 278.0,241.0 279.1,247.3 280.1,248.1 281.1,258.9 282.2,257.3 283.2,253.8 284.2,250.1 285.3,255.8 286.3,247.6 287.3,253.5 288.3,245.9 289.4,253.4 290.4,258.1 291.4,261.3 292.5,258.9 293.5,266.2 294.5,297.6 295.6,260.0 296.6,260.3 297.6,258.6 298.7,257.8 299.7,249.6 300.7,247.9 301.7,245.9 302.8,252.3 303.8,248.8 304.8,245.4 305.9,245.5 306.9,241.2 307.9,248.2 309.0,240.3 310.0,241.3 311.0,240.9 312.1,255.8 313.1,255.5 314.1,254.2 315.1,259.3 316.2,273.3 317.2,257.9 318.2,260.5 319.3,258.2 320.3,252.3 321.3,232.0 322.4,219.6 323.4,257.6 324.4,245.0 325.5,228.2 326.5,224.5 327.5,224.1 328.5,223.8 329.6,222.7 330.6,239.3 331.6,231.7 332.7,235.3 333.7,236.0 334.7,245.7 335.8,256.8 336.8,266.4 337.8,245.2 338.9,283.8 339.9,250.1 340.9,265.2 341.9,256.9 343.0,258.4 344.0,265.9 345.0,249.6 346.1,209.8 347.1,220.6 348.1,223.0 349.2,225.7 350.2,215.1 351.2,227.4 352.3,222.0 353.3,209.0 354.3,242.0 355.3,239.8 356.4,248.9 357.4,251.4 358.4,247.5 359.5,243.7 360.5,252.6 361.5,250.3 362.6,248.7 363.6,267.5 364.6,252.2 365.7,247.7 366.7,258.9 367.7,227.2 368.7,211.3 369.8,216.8 370.8,255.8 371.8,251.6 372.9,245.4 373.9,270.3 374.9,239.4 376.0,244.7 377.0,243.3 378.0,250.8 379.1,232.4 380.1,242.8 381.1,244.7 382.1,265.4 383.2,239.2 384.2,244.6 385.2,242.8 386.3,247.8 387.3,246.7 388.3,263.6 389.4,250.8 390.4,258.2 391.4,254.7 392.5,251.7 393.5,265.0 394.5,252.6 395.5,259.2 396.6,263.9 397.6,253.9 398.6,230.0 399.7,224.2 400.7,257.9 401.7,245.8 402.8,252.8 403.8,255.5 404.8,248.1 405.9,251.2 406.9,250.1 407.9,248.5 409.0,245.4 410.0,265.0 411.0,263.0 412.0,258.3 413.1,262.4 414.1,259.0 415.1,283.8 416.2,276.5 417.2,273.1 418.2,276.5 419.3,282.7 420.3,282.5 421.3,277.7 422.4,281.6 423.4,283.5 424.4,278.5 425.4,276.0 426.5,265.8 427.5,251.2 428.5,259.6 429.6,273.4 430.6,261.0 431.6,263.4 432.7,257.8 433.7,265.6 434.7,262.2 435.8,262.1 436.8,262.1 437.8,254.3 438.8,262.8 439.9,257.4 440.9,261.5 441.9,249.6 443.0,254.9 444.0,260.6 445.0,262.8 446.1,263.7 447.1,259.3 448.1,258.4 449.2,252.3 450.2,251.5 451.2,254.4 452.2,233.7 453.3,246.8 454.3,259.0 455.3,247.4 456.4,244.3 457.4,249.6 458.4,251.4 459.5,253.2 460.5,252.7 461.5,254.5 462.6,255.1 463.6,251.1 464.6,261.9 465.6,260.5 466.7,265.7 467.7,260.3 468.7,265.4 469.8,257.3 470.8,253.9 471.8,261.6 472.9,244.2 473.9,253.1 474.9,245.6 476.0,249.2 477.0,235.1 478.0,243.1 479.0,248.1 480.1,255.7 481.1,236.3 482.1,251.0 483.2,236.7 484.2,242.5 485.2,247.8 486.3,246.2 487.3,246.8 488.3,245.6 489.4,253.2 490.4,266.1 491.4,257.9 492.4,214.6 493.5,221.0 494.5,217.1 495.5,231.6 496.6,220.8 497.6,221.3 498.6,229.0 499.7,250.2 500.7,248.0 501.7,234.3 502.8,246.0 503.8,245.0 504.8,252.9 505.8,245.9 506.9,247.4 507.9,248.3 508.9,247.7 510.0,239.1 511.0,240.8 512.0,252.0 513.1,252.9 514.1,252.0 515.1,259.5 516.2,248.6 517.2,255.6 518.2,255.6 519.2,256.2 520.3,252.6 521.3,250.4 522.3,247.5 523.4,235.3 524.4,257.7 525.4,239.4 526.5,217.5 527.5,244.7 528.5,243.3 529.6,247.4 530.6,248.5 531.6,245.5 532.6,244.6 533.7,247.9 534.7,251.0 535.7,248.9 536.8,252.3 537.8,249.7 538.8,252.3 539.9,258.4 540.9,260.8 541.9,239.5 543.0,262.6 544.0,268.1 545.0,271.0 546.0,253.1 547.1,249.5 548.1,256.8 549.1,242.4 550.2,244.6 551.2,235.9 552.2,245.9 553.3,252.1 554.3,240.5 555.3,234.4 556.4,239.0 557.4,241.9 558.4,235.1 559.4,252.6 560.5,245.0 561.5,244.3 562.5,262.3 563.6,305.5 564.6,249.9 565.6,245.8 566.7,258.9 567.7,255.9 568.7,253.1 569.8,256.3 570.8,245.1 571.8,242.3 572.8,240.8 573.9,242.9 574.9,248.5 575.9,241.0 577.0,237.3 578.0,242.1 579.0,239.8 580.1,236.5 581.1,241.5 582.1,247.0 583.2,243.4 584.2,245.8 585.2,248.9 586.2,238.6 587.3,251.6 588.3,249.4 589.3,276.3 590.4,259.7 591.4,250.9 592.4,269.4 593.5,251.6 594.5,254.3 595.5,253.9 596.6,248.4 597.6,238.0 598.6,246.8 599.6,247.0 600.7,245.2 601.7,246.2 602.7,236.4 603.8,240.2 604.8,239.9 605.8,265.2 606.9,243.4 607.9,244.6 608.9,240.0 610.0,250.6 611.0,252.1 612.0,260.3 613.0,245.6 614.1,263.7 615.1,248.6 616.1,262.8 617.2,265.9 618.2,248.1 619.2,254.3 620.3,247.2 621.3,252.3 622.3,246.3 623.4,251.2 624.4,245.4 625.4,241.8 626.5,237.3 627.5,251.5 628.5,246.1 629.5,239.7 630.6,238.8 631.6,245.5 632.6,247.4 633.7,254.5 634.7,236.8 635.7,251.2 636.8,251.9 637.8,255.6 638.8,260.8 639.9,260.8 640.9,256.8 641.9,248.6 642.9,250.9 644.0,258.6 645.0,252.0 646.0,247.8 647.1,242.0 648.1,235.9 649.1,240.3 650.2,241.3 651.2,243.0 652.2,250.0 653.3,251.4 654.3,248.2 655.3,247.2 656.3,243.8 657.4,247.8 658.4,250.6 659.4,243.7 660.5,249.4 661.5,257.8 662.5,256.4 663.6,266.0 664.6,253.2 665.6,257.3 666.7,254.9 667.7,263.9 668.7,255.6 669.7,243.4 670.8,246.3 671.8,236.2 672.8,243.4 673.9,247.6 674.9,232.1 675.9,245.1 677.0,241.1 678.0,245.4 679.0,244.3 680.1,245.7 681.1,244.9 682.1,237.9 683.1,243.8 684.2,240.4 685.2,257.6 686.2,256.3 687.3,256.7 688.3,257.1 689.3,257.2 690.4,263.0 691.4,256.8 692.4,255.5 693.5,256.1 694.5,252.2 695.5,269.8 696.5,254.4 697.6,246.0 698.6,249.9 699.6,237.3 700.7,240.6 701.7,246.0 702.7,254.5 703.8,250.8 704.8,250.9 705.8,252.8 706.9,243.7 707.9,250.9 708.9,251.9 709.9,264.5 711.0,263.0 712.0,262.2 713.0,258.8 714.1,264.6 715.1,255.8 716.1,263.3 717.2,253.6 718.2,256.9 719.2,252.5 720.3,255.3 721.3,252.6 722.3,246.8 723.3,248.8 724.4,241.7 725.4,242.1 726.4,248.9 727.5,250.9 728.5,245.3 729.5,247.8 730.6,246.7 731.6,252.2 732.6,248.6 733.7,256.6 734.7,253.4 735.7,255.6 736.7,260.2 737.8,251.7 738.8,253.8 739.8,264.5 740.9,255.3 741.9,263.6 742.9,248.5 744.0,252.2 745.0,250.8 746.0,253.1 747.1,244.8 748.1,253.0 749.1,244.6 750.1,248.3 751.2,251.8 752.2,245.9 753.2,246.0 754.3,261.2 755.3,255.5 756.3,251.8 757.4,251.4 758.4,254.2 759.4,255.0 760.5,255.0 761.5,265.9 762.5,248.1 763.5,272.1 764.6,254.3 765.6,257.3 766.6,258.3 767.7,243.2 768.7,251.2 769.7,252.1 770.8,251.2 771.8,251.9 772.8,266.5 773.9,260.3 774.9,243.4 775.9,245.9 776.9,345.6 778.0,341.0 779.0,341.4 780.0,339.1 781.1,340.1 782.1,345.0 783.1,343.8 784.2,343.3 785.2,343.1 786.2,343.9 787.3,341.5 788.3,341.0 789.3,342.3 790.3,341.5 791.4,345.3 792.4,340.9 793.4,350.1 794.5,340.2 795.5,342.7 796.5,340.3 797.6,340.1 798.6,341.1 799.6,339.5 800.7,343.3 801.7,343.2 802.7,340.7 803.7,342.2 804.8,341.2 805.8,341.9 806.8,340.0 807.9,344.3 808.9,338.1 809.9,340.6 811.0,342.6 812.0,342.9 813.0,342.3 814.1,345.1 815.1,342.7 816.1,342.9 817.1,340.6 818.2,341.6 819.2,339.6 820.2,341.3 821.3,341.5 822.3,341.0 823.3,342.0 824.4,339.2 825.4,339.6 826.4,340.4 827.5,340.9 828.5,335.8 829.5,335.6 830.5,334.7 831.6,340.2 832.6,340.4 833.6,340.3 834.7,339.6 835.7,342.0 836.7,341.5 837.8,342.0 838.8,343.1 839.8,342.0 840.9,340.6 841.9,334.9 842.9,339.8 844.0,340.6 845.0,340.3 846.0,338.2 847.0,339.3 848.1,338.7 849.1,346.4 850.1,288.7 851.2,339.1 852.2,340.3 853.2,342.0 854.3,341.7 855.3,339.6 856.3,312.1 857.4,343.5 858.4,342.2 859.4,322.7 860.4,348.9 861.5,344.5 862.5,342.6 863.5,342.4 864.6,337.4 865.6,336.7 866.6,331.5 867.7,316.9 868.7,313.8 869.7,336.5 870.8,339.3 871.8,351.6 872.8,341.7 873.8,317.1 874.9,341.6 875.9,334.3 876.9,338.9 878.0,348.0 879.0,317.1 880.0,340.6 881.1,341.7 882.1,340.6 883.1,319.1 884.2,347.2 885.2,345.5 886.2,345.7 887.2,345.8 888.3,345.1 889.3,346.2 890.3,346.7 891.4,351.1 892.4,313.1 893.4,349.0 894.5,346.7 895.5,345.7 896.5,319.3 897.6,345.8 898.6,339.2 899.6,344.5 900.6,321.3 901.7,341.8 902.7,345.7 903.7,343.1 904.8,324.3 905.8,350.6 906.8,345.0 907.9,326.2 908.9,345.3 909.9,345.4 911.0,344.2 912.0,342.9 913.0,345.7 914.0,345.4 915.1,343.6 916.1,320.0 917.1,320.0 918.2,347.3 919.2,343.8 920.2,316.3 921.3,341.6 922.3,340.2 923.3,341.8 924.4,296.9 925.4,344.3 926.4,343.9 927.4,315.0 928.5,347.3 929.5,342.9 930.5,322.7 931.6,347.9 932.6,322.0 933.6,340.4 934.7,347.6 935.7,347.1 936.7,345.1 937.8,342.7 938.8,343.7 939.8,345.5 940.8,344.0 941.9,296.5 942.9,343.7 943.9,345.8 945.0,340.6 946.0,341.2" fill="none" stroke="#7c3aed" stroke-width="2.2" stroke-linejoin="round" stroke-linecap="round"/>
<line x1="76" y1="70" x2="94" y2="70" stroke="#2563eb" stroke-width="3"/>
<text x="100" y="74" font-family="Arial, sans-serif" font-size="11" fill="#0f172a">tx count</text>
<line x1="186" y1="70" x2="204" y2="70" stroke="#7c3aed" stroke-width="3"/>
<text x="210" y="74" font-family="Arial, sans-serif" font-size="11" fill="#0f172a">unique accounts</text>
<text x="28" y="404" font-family="Arial, sans-serif" font-size="11" fill="#64748b">Source: hourly_features.csv; capped windows are sample counts</text>
</svg>