<svg xmlns="http://www.w3.org/2000/svg" width="980" height="420" viewBox="0 0 980 420">
<rect width="100%" height="100%" fill="#ffffff"/>
<text x="28" y="34" font-family="Arial, sans-serif" font-size="20" font-weight="700" fill="#0f172a">Network activity sample trend</text>
<text x="28" y="56" font-family="Arial, sans-serif" font-size="12" fill="#64748b">Hourly transaction sample count and unique account sample count</text>
<line x1="76" y1="362.0" x2="946" y2="362.0" stroke="#e2e8f0" stroke-width="1"/>
<text x="68" y="366.0" font-family="Arial, sans-serif" font-size="10" text-anchor="end" fill="#64748b">220</text>
<line x1="76" y1="292.0" x2="946" y2="292.0" stroke="#e2e8f0" stroke-width="1"/>
<text x="68" y="296.0" font-family="Arial, sans-serif" font-size="10" text-anchor="end" fill="#64748b">1K</text>
<line x1="76" y1="222.0" x2="946" y2="222.0" stroke="#e2e8f0" stroke-width="1"/>
<text x="68" y="226.0" font-family="Arial, sans-serif" font-size="10" text-anchor="end" fill="#64748b">3K</text>
<line x1="76" y1="152.0" x2="946" y2="152.0" stroke="#e2e8f0" stroke-width="1"/>
<text x="68" y="156.0" font-family="Arial, sans-serif" font-size="10" text-anchor="end" fill="#64748b">4K</text>
<line x1="76" y1="82.0" x2="946" y2="82.0" stroke="#e2e8f0" stroke-width="1"/>
<text x="68" y="86.0" font-family="Arial, sans-serif" font-size="10" text-anchor="end" fill="#64748b">5K</text>
<line x1="76" y1="362" x2="946" y2="362" stroke="#334155" stroke-width="1"/>
<line x1="76" y1="82" x2="76" y2="362" stroke="#334155" stroke-width="1"/>
<text x="76" y="72" font-family="Arial, sans-serif" font-size="11" fill="#64748b">count</text>
<line x1="76.0" y1="362" x2="76.0" y2="366" stroke="#334155" stroke-width="1"/>
<text x="76.0" y="380" font-family="Arial, sans-serif" font-size="10" text-anchor="middle" fill="#64748b">0</text>
<line x1="511.0" y1="362" x2="511.0" y2="366" stroke="#334155" stroke-width="1"/>
<text x="511.0" y="380" font-family="Arial, sans-serif" font-size="10" text-anchor="middle" fill="#64748b">400</text>
<line x1="946.0" y1="362" x2="946.0" y2="366" stroke="#334155" stroke-width="1"/>
<text x="946.0" y="380" font-family="Arial, sans-serif" font-size="10" text-anchor="middle" fill="#64748b">800</text>
<polyline points="76.0,92.4 77.1,92.4 78.2,92.4 79.3,92.4 80.3,92.4 81.4,92.4 82.5,92.4 83.6,92.4 84.7,92.4 85.8,92.4 86.9,92.4 88.0,92.4 89.0,92.4 90.1,92.4 91.2,92.4 92.3,92.4 93.4,92.4 94.5,92.4 95.6,92.4 96.7,92.4 97.8,92.4 98.8,92.4 99.9,92.4 101.0,92.4 102.1,92.4 103.2,92.4 104.3,92.4 105.4,92.4 106.5,92.4 107.5,92.4 108.6,92.4 109.7,92.4 110.8,92.4 111.9,92.4 113.0,92.4 114.1,92.4 115.2,92.4 116.2,92.4 117.3,92.4 118.4,92.4 119.5,92.4 120.6,92.4 121.7,92.4 122.8,92.4 123.8,92.4 124.9,92.4 126.0,92.4 127.1,92.4 128.2,92.4 129.3,92.4 130.4,92.4 131.5,92.4 132.6,92.4 133.6,92.4 134.7,92.4 135.8,92.4 136.9,92.4 138.0,92.4 139.1,92.4 140.2,92.4 141.2,92.4 142.3,92.4 143.4,92.4 144.5,92.4 145.6,92.4 146.7,92.4 147.8,92.4 148.9,92.4 149.9,92.4 151.0,92.4 152.1,92.4 153.2,92.4 154.3,92.4 155.4,92.4 156.5,92.4 157.6,92.4 158.7,92.4 159.7,92.4 160.8,92.4 161.9,92.4 163.0,92.4 164.1,92.4 165.2,92.4 166.3,92.4 167.3,92.4 168.4,92.4 169.5,92.4 170.6,92.4 171.7,92.4 172.8,92.4 173.9,92.4 175.0,92.4 176.1,92.4 177.1,92.4 178.2,92.4 179.3,92.4 180.4,92.4 181.5,92.4 182.6,92.4 183.7,92.4 184.8,92.4 185.8,92.4 186.9,92.4 188.0,92.4 189.1,92.4 190.2,92.4 191.3,92.4 192.4,92.4 193.4,92.4 194.5,92.4 195.6,92.4 196.7,92.4 197.8,92.4 198.9,92.4 200.0,92.4 201.1,92.4 202.2,92.4 203.2,92.4 204.3,92.4 205.4,92.4 206.5,92.4 207.6,92.4 208.7,92.4 209.8,92.4 210.8,92.4 211.9,92.4 213.0,92.4 214.1,92.4 215.2,92.4 216.3,92.4 217.4,92.4 218.5,92.4 219.6,92.4 220.6,92.4 221.7,92.4 222.8,92.4 223.9,92.4 225.0,92.4 226.1,92.4 227.2,92.4 228.2,92.4 229.3,92.4 230.4,92.4 231.5,92.4 232.6,92.4 233.7,92.4 234.8,92.4 235.9,92.4 236.9,92.4 238.0,92.4 239.1,92.4 240.2,92.4 241.3,92.4 242.4,92.4 243.5,92.4 244.6,92.4 245.7,92.4 246.7,92.4 247.8,92.4 248.9,92.4 250.0,92.4 251.1,92.4 252.2,92.4 253.3,92.4 254.3,92.4 255.4,92.4 256.5,92.4 257.6,92.4 258.7,92.4 259.8,92.4 260.9,92.4 262.0,92.4 263.1,92.4 264.1,92.4 265.2,92.4 266.3,92.4 267.4,92.4 268.5,92.4 269.6,92.4 270.7,92.4 271.8,92.4 272.8,92.4 273.9,92.4 275.0,92.4 276.1,92.4 277.2,92.4 278.3,92.4 279.4,92.4 280.4,92.4 281.5,92.4 282.6,92.4 283.7,92.4 284.8,92.4 285.9,92.4 287.0,92.4 288.1,92.4 289.1,92.4 290.2,92.4 291.3,92.4 292.4,92.4 293.5,92.4 294.6,92.4 295.7,92.4 296.8,92.4 297.9,92.4 298.9,92.4 300.0,92.4 301.1,92.4 302.2,92.4 303.3,92.4 304.4,92.4 305.5,92.4 306.6,92.4 307.6,92.4 308.7,92.4 309.8,92.4 310.9,92.4 312.0,92.4 313.1,92.4 314.2,92.4 315.2,92.4 316.3,92.4 317.4,92.4 318.5,92.4 319.6,92.4 320.7,92.4 321.8,92.4 322.9,92.4 323.9,92.4 325.0,92.4 326.1,92.4 327.2,92.4 328.3,92.4 329.4,92.4 330.5,92.4 331.6,92.4 332.6,92.4 333.7,92.4 334.8,92.4 335.9,92.4 337.0,92.4 338.1,92.4 339.2,92.4 340.3,92.4 341.4,92.4 342.4,92.4 343.5,92.4 344.6,92.4 345.7,92.4 346.8,92.4 347.9,92.4 349.0,92.4 350.1,92.4 351.1,92.4 352.2,92.4 353.3,92.4 354.4,92.4 355.5,92.4 356.6,92.4 357.7,92.4 358.8,92.4 359.8,92.4 360.9,92.4 362.0,92.4 363.1,92.4 364.2,92.4 365.3,92.4 366.4,92.4 367.4,92.4 368.5,92.4 369.6,92.4 370.7,92.4 371.8,92.4 372.9,92.4 374.0,92.4 375.1,92.4 376.1,92.4 377.2,92.4 378.3,92.4 379.4,92.4 380.5,92.4 381.6,92.4 382.7,92.4 383.8,92.4 384.9,92.4 385.9,92.4 387.0,92.4 388.1,92.4 389.2,92.4 390.3,92.4 391.4,92.4 392.5,92.4 393.6,92.4 394.6,92.4 395.7,92.4 396.8,92.4 397.9,92.4 399.0,92.4 400.1,92.4 401.2,92.4 402.2,92.4 403.3,92.4 404.4,92.4 405.5,92.4 406.6,92.4 407.7,92.4 408.8,92.4 409.9,92.4 410.9,92.4 412.0,92.4 413.1,92.4 414.2,92.4 415.3,92.4 416.4,92.4 417.5,92.4 418.6,92.4 419.6,92.4 420.7,92.4 421.8,92.4 422.9,92.4 424.0,92.4 425.1,92.4 426.2,92.4 427.3,92.4 428.4,92.4 429.4,92.4 430.5,92.4 431.6,92.4 432.7,92.4 433.8,92.4 434.9,92.4 436.0,92.4 437.1,92.4 438.1,92.4 439.2,92.4 440.3,92.4 441.4,92.4 442.5,92.4 443.6,92.4 444.7,92.4 445.8,92.4 446.8,92.4 447.9,92.4 449.0,92.4 450.1,92.4 451.2,92.4 452.3,92.4 453.4,92.4 454.4,92.4 455.5,92.4 456.6,92.4 457.7,92.4 458.8,92.4 459.9,92.4 461.0,92.4 462.1,92.4 463.1,92.4 464.2,92.4 465.3,92.4 466.4,92.4 467.5,92.4 468.6,92.4 469.7,92.4 470.8,92.4 471.9,92.4 472.9,92.4 474.0,92.4 475.1,92.4 476.2,92.4 477.3,92.4 478.4,92.4 479.5,92.4 480.6,92.4 481.6,92.4 482.7,92.4 483.8,92.4 484.9,92.4 486.0,92.4 487.1,92.4 488.2,92.4 489.2,92.4 490.3,92.4 491.4,92.4 492.5,92.4 493.6,92.4 494.7,92.4 495.8,92.4 496.9,92.4 497.9,92.4 499.0,92.4 500.1,92.4 501.2,92.4 502.3,92.4 503.4,92.4 504.5,92.4 505.6,92.4 506.6,92.4 507.7,92.4 508.8,92.4 509.9,92.4 511.0,92.4 512.1,92.4 513.2,92.4 514.3,92.4 515.4,92.4 516.4,92.4 517.5,92.4 518.6,92.4 519.7,92.4 520.8,92.4 521.9,92.4 523.0,92.4 524.0,92.4 525.1,92.4 526.2,92.4 527.3,92.4 528.4,92.4 529.5,92.4 530.6,92.4 531.7,92.4 532.8,92.4 533.8,92.4 534.9,92.4 536.0,92.4 537.1,92.4 538.2,92.4 539.3,92.4 540.4,92.4 541.5,92.4 542.5,92.4 543.6,92.4 544.7,92.4 545.8,92.4 546.9,92.4 548.0,92.4 549.1,92.4 550.1,92.4 551.2,92.4 552.3,92.4 553.4,92.4 554.5,92.4 555.6,92.4 556.7,92.4 557.8,92.4 558.9,92.4 559.9,92.4 561.0,92.4 562.1,92.4 563.2,92.4 564.3,92.4 565.4,92.4 566.5,92.4 567.5,92.4 568.6,92.4 569.7,92.4 570.8,92.4 571.9,92.4 573.0,92.4 574.1,92.4 575.2,92.4 576.2,92.4 577.3,92.4 578.4,92.4 579.5,92.4 580.6,92.4 581.7,92.4 582.8,92.4 583.9,92.4 585.0,92.4 586.0,92.4 587.1,92.4 588.2,92.4 589.3,92.4 590.4,92.4 591.5,92.4 592.6,92.4 593.6,92.4 594.7,92.4 595.8,92.4 596.9,92.4 598.0,92.4 599.1,92.4 600.2,92.4 601.3,92.4 602.4,92.4 603.4,92.4 604.5,92.4 605.6,92.4 606.7,92.4 607.8,92.4 608.9,92.4 610.0,92.4 611.0,92.4 612.1,92.4 613.2,92.4 614.3,92.4 615.4,92.4 616.5,92.4 617.6,92.4 618.7,92.4 619.8,92.4 620.8,92.4 621.9,92.4 623.0,92.4 624.1,92.4 625.2,92.4 626.3,92.4 627.4,92.4 628.5,92.4 629.5,92.4 630.6,92.4 631.7,92.4 632.8,92.4 633.9,92.4 635.0,92.4 636.1,92.4 637.1,92.4 638.2,92.4 639.3,92.4 640.4,92.4 641.5,92.4 642.6,92.4 643.7,92.4 644.8,92.4 645.9,92.4 646.9,92.4 648.0,92.4 649.1,92.4 650.2,92.4 651.3,92.4 652.4,92.4 653.5,92.4 654.5,92.4 655.6,92.4 656.7,92.4 657.8,92.4 658.9,92.4 660.0,92.4 661.1,92.4 662.2,92.4 663.2,92.4 664.3,92.4 665.4,92.4 666.5,92.4 667.6,92.4 668.7,92.4 669.8,92.4 670.9,92.4 672.0,92.4 673.0,92.4 674.1,92.4 675.2,92.4 676.3,92.4 677.4,92.4 678.5,92.4 679.6,92.4 680.6,92.4 681.7,92.4 682.8,92.4 683.9,92.4 685.0,92.4 686.1,92.4 687.2,92.4 688.3,92.4 689.4,92.4 690.4,92.4 691.5,92.4 692.6,92.4 693.7,92.4 694.8,92.4 695.9,92.4 697.0,92.4 698.0,92.4 699.1,92.4 700.2,92.4 701.3,92.4 702.4,92.4 703.5,92.4 704.6,92.4 705.7,92.4 706.8,92.4 707.8,92.4 708.9,92.4 710.0,92.4 711.1,92.4 712.2,92.4 713.3,92.4 714.4,92.4 715.5,92.4 716.5,92.4 717.6,92.4 718.7,92.4 719.8,92.4 720.9,92.4 722.0,92.4 723.1,92.4 724.1,92.4 725.2,92.4 726.3,92.4 727.4,92.4 728.5,92.4 729.6,92.4 730.7,92.4 731.8,92.4 732.9,92.4 733.9,92.4 735.0,92.4 736.1,92.4 737.2,92.4 738.3,92.4 739.4,92.4 740.5,92.4 741.5,92.4 742.6,92.4 743.7,92.4 744.8,92.4 745.9,92.4 747.0,92.4 748.1,92.4 749.2,92.4 750.2,92.4 751.3,92.4 752.4,92.4 753.5,92.4 754.6,92.4 755.7,92.4 756.8,92.4 757.9,92.4 759.0,92.4 760.0,92.4 761.1,92.4 762.2,92.4 763.3,92.4 764.4,92.4 765.5,92.4 766.6,92.4 767.6,92.4 768.7,92.4 769.8,92.4 770.9,92.4 772.0,92.4 773.1,92.4 774.2,92.4 775.3,92.4 776.4,92.4 777.4,92.4 778.5,92.4 779.6,92.4 780.7,92.4 781.8,92.4 782.9,92.4 784.0,92.4 785.0,92.4 786.1,92.4 787.2,92.4 788.3,92.4 789.4,92.4 790.5,92.4 791.6,92.4 792.7,92.4 793.8,92.4 794.8,92.4 795.9,92.4 797.0,92.4 798.1,92.4 799.2,92.4 800.3,92.4 801.4,92.4 802.5,92.4 803.5,92.4 804.6,92.4 805.7,92.4 806.8,92.4 807.9,92.4 809.0,92.4 810.1,92.4 811.1,92.4 812.2,92.4 813.3,92.4 814.4,92.4 815.5,318.0 816.6,318.0 817.7,318.0 818.8,318.0 819.9,318.0 820.9,318.0 822.0,318.0 823.1,318.0 824.2,318.0 825.3,318.0 826.4,318.0 827.5,318.0 828.5,318.0 829.6,318.0 830.7,318.0 831.8,318.0 832.9,318.0 834.0,318.0 835.1,318.0 836.2,318.0 837.2,318.0 838.3,318.0 839.4,318.0 840.5,318.0 841.6,318.0 842.7,318.0 843.8,318.0 844.9,318.0 846.0,318.0 847.0,318.0 848.1,318.0 849.2,318.0 850.3,318.0 851.4,318.0 852.5,318.0 853.6,318.0 854.6,318.0 855.7,318.0 856.8,318.0 857.9,318.0 859.0,318.0 860.1,318.0 861.2,318.0 862.3,318.0 863.4,318.0 864.4,318.0 865.5,318.0 866.6,318.0 867.7,318.0 868.8,318.0 869.9,318.0 871.0,318.0 872.0,318.0 873.1,318.0 874.2,318.0 875.3,318.0 876.4,318.0 877.5,318.0 878.6,318.0 879.7,318.0 880.8,318.0 881.8,318.0 882.9,318.0 884.0,318.0 885.1,318.0 886.2,318.0 887.3,318.0 888.4,318.0 889.5,318.0 890.5,318.0 891.6,318.0 892.7,207.0 893.8,318.0 894.9,318.0 896.0,318.0 897.1,318.0 898.1,318.0 899.2,263.4 900.3,318.0 901.4,318.0 902.5,263.5 903.6,318.0 904.7,318.0 905.8,318.0 906.9,318.0 907.9,318.0 909.0,318.0 910.1,318.0 911.2,262.2 912.3,263.5 913.4,318.0 914.5,318.0 915.5,318.0 916.6,318.0 917.7,264.6 918.8,318.0 919.9,318.0 921.0,318.0 922.1,318.0 923.2,261.9 924.2,318.0 925.3,318.0 926.4,318.0 927.5,263.1 928.6,318.0 929.7,318.0 930.8,318.0 931.9,318.0 933.0,318.0 934.0,318.0 935.1,318.0 936.2,318.0 937.3,207.5 938.4,318.0 939.5,318.0 940.6,318.0 941.6,262.4 942.7,318.0 943.8,318.0 944.9,318.0 946.0,318.0" fill="none" stroke="#2563eb" stroke-width="2.2" stroke-linejoin="round" stroke-linecap="round"/>
<polyline points="76.0,262.8 77.1,258.8 78.2,249.5 79.3,247.2 80.3,250.9 81.4,240.3 82.5,239.7 83.6,243.5 84.7,248.5 85.8,248.0 86.9,264.6 88.0,246.1 89.0,245.2 90.1,246.9 91.2,251.1 92.3,259.3 93.4,256.5 94.5,254.2 95.6,251.6 96.7,256.6 97.8,261.5 98.8,257.5 99.9,255.6 101.0,255.2 102.1,249.2 103.2,247.7 104.3,249.7 105.4,241.1 106.5,232.5 107.5,241.2 108.6,243.5 109.7,257.3 110.8,251.0 111.9,250.7 113.0,255.2 114.1,250.5 115.2,247.4 116.2,253.4 117.3,247.1 118.4,247.0 119.5,244.7 120.6,261.9 121.7,258.2 122.8,254.2 123.8,219.8 124.9,222.3 126.0,255.3 127.1,251.2 128.2,237.3 129.3,219.3 130.4,239.9 131.5,251.2 132.6,243.9 133.6,242.1 134.7,243.9 135.8,246.7 136.9,244.4 138.0,250.0 139.1,241.3 140.2,247.0 141.2,238.8 142.3,245.4 143.4,243.9 144.5,285.1 145.6,270.0 146.7,262.3 147.8,270.1 148.9,267.0 149.9,238.5 151.0,233.8 152.1,243.4 153.2,259.9 154.3,272.4 155.4,246.0 156.5,245.5 157.6,248.1 158.7,261.0 159.7,250.4 160.8,259.1 161.9,245.9 163.0,240.5 164.1,253.9 165.2,249.9 166.3,254.6 167.3,255.7 168.4,254.0 169.5,261.9 170.6,251.4 171.7,251.4 172.8,253.7 173.9,250.0 175.0,268.3 176.1,231.5 177.1,255.8 178.2,251.1 179.3,218.2 180.4,256.5 181.5,245.2 182.6,247.9 183.7,226.9 184.8,246.1 185.8,248.3 186.9,241.0 188.0,249.4 189.1,243.6 190.2,250.1 191.3,244.3 192.4,242.8 193.4,242.6 194.5,248.1 195.6,245.4 196.7,251.8 197.8,237.9 198.9,251.4 200.0,252.6 201.1,250.9 202.2,220.0 203.2,203.6 204.3,214.7 205.4,215.7 206.5,215.3 207.6,224.9 208.7,220.4 209.8,216.0 210.8,243.5 211.9,246.4 213.0,241.9 214.1,243.2 215.2,242.2 216.3,241.7 217.4,242.6 218.5,244.6 219.6,243.4 220.6,245.1 221.7,249.7 222.8,245.1 223.9,258.2 225.0,257.8 226.1,248.2 227.2,263.2 228.2,290.3 229.3,254.2 230.4,268.2 231.5,255.6 232.6,253.3 233.7,253.6 234.8,250.8 235.9,251.8 236.9,245.2 238.0,251.1 239.1,244.3 240.2,242.4 241.3,240.7 242.4,242.6 243.5,251.4 244.6,264.1 245.7,247.2 246.7,252.2 247.8,250.9 248.9,253.1 250.0,253.4 251.1,258.6 252.2,260.8 253.3,259.1 254.3,292.1 255.4,255.7 256.5,270.2 257.6,236.2 258.7,252.1 259.8,245.1 260.9,249.0 262.0,240.5 263.1,242.6 264.1,248.7 265.2,243.1 266.3,236.6 267.4,245.7 268.5,247.5 269.6,241.4 270.7,245.2 271.8,245.0 272.8,246.8 273.9,247.8 275.0,251.7 276.1,253.2 277.2,259.1 278.3,263.5 279.4,252.2 280.4,285.5 281.5,251.7 282.6,255.1 283.7,250.6 284.8,249.8 285.9,242.9 287.0,242.4 288.1,242.2 289.1,241.0 290.2,247.3 291.3,248.1 292.4,258.9 293.5,257.3 294.6,253.8 295.7,250.1 296.8,255.8 297.9,247.6 298.9,253.5 300.0,245.9 301.1,253.4 302.2,258.1 303.3,261.3 304.4,258.9 305.5,266.2 306.6,297.6 307.6,260.0 308.7,260.3 309.8,258.6 310.9,257.8 312.0,249.6 313.1,247.9 314.2,245.9 315.2,252.3 316.3,248.8 317.4,245.4 318.5,245.5 319.6,241.2 320.7,248.2 321.8,240.3 322.9,241.3 323.9,240.9 325.0,255.8 326.1,255.5 327.2,254.2 328.3,259.3 329.4,273.3 330.5,257.9 331.6,260.5 332.6,258.2 333.7,252.3 334.8,232.0 335.9,219.6 337.0,257.6 338.1,245.0 339.2,228.2 340.3,224.5 341.4,224.1 342.4,223.8 343.5,222.7 344.6,239.3 345.7,231.7 346.8,235.3 347.9,236.0 349.0,245.7 350.1,256.8 351.1,266.4 352.2,245.2 353.3,283.8 354.4,250.1 355.5,265.2 356.6,256.9 357.7,258.4 358.8,265.9 359.8,249.6 360.9,209.8 362.0,220.6 363.1,223.0 364.2,225.7 365.3,215.1 366.4,227.4 367.4,222.0 368.5,209.0 369.6,242.0 370.7,239.8 371.8,248.9 372.9,251.4 374.0,247.5 375.1,243.7 376.1,252.6 377.2,250.3 378.3,248.7 379.4,267.5 380.5,252.2 381.6,247.7 382.7,258.9 383.8,227.2 384.9,211.3 385.9,216.8 387.0,255.8 388.1,251.6 389.2,245.4 390.3,270.3 391.4,239.4 392.5,244.7 393.6,243.3 394.6,250.8 395.7,232.4 396.8,242.8 397.9,244.7 399.0,265.4 400.1,239.2 401.2,244.6 402.2,242.8 403.3,247.8 404.4,246.7 405.5,263.6 406.6,250.8 407.7,258.2 408.8,254.7 409.9,251.7 410.9,265.0 412.0,252.6 413.1,259.2 414.2,263.9 415.3,253.9 416.4,230.0 417.5,224.2 418.6,257.9 419.6,245.8 420.7,252.8 421.8,255.5 422.9,248.1 424.0,251.2 425.1,250.1 426.2,248.5 427.3,245.4 428.4,265.0 429.4,263.0 430.5,258.3 431.6,262.4 432.7,259.0 433.8,283.8 434.9,276.5 436.0,273.1 437.1,276.5 438.1,282.7 439.2,282.5 440.3,277.7 441.4,281.6 442.5,283.5 443.6,278.5 444.7,276.0 445.8,265.8 446.8,251.2 447.9,259.6 449.0,273.4 450.1,261.0 451.2,263.4 452.3,257.8 453.4,265.6 454.4,262.2 455.5,262.1 456.6,262.1 457.7,254.3 458.8,262.8 459.9,257.4 461.0,261.5 462.1,249.6 463.1,254.9 464.2,260.6 465.3,262.8 466.4,263.7 467.5,259.3 468.6,258.4 469.7,252.3 470.8,251.5 471.9,254.4 472.9,233.7 474.0,246.8 475.1,259.0 476.2,247.4 477.3,244.3 478.4,249.6 479.5,251.4 480.6,253.2 481.6,252.7 482.7,254.5 483.8,255.1 484.9,251.1 486.0,261.9 487.1,260.5 488.2,265.7 489.2,260.3 490.3,265.4 491.4,257.3 492.5,253.9 493.6,261.6 494.7,244.2 495.8,253.1 496.9,245.6 497.9,249.2 499.0,235.1 500.1,243.1 501.2,248.1 502.3,255.7 503.4,236.3 504.5,251.0 505.6,236.7 506.6,242.5 507.7,247.8 508.8,246.2 509.9,246.8 511.0,245.6 512.1,253.2 513.2,266.1 514.3,257.9 515.4,214.6 516.4,221.0 517.5,217.1 518.6,231.6 519.7,220.8 520.8,221.3 521.9,229.0 523.0,250.2 524.0,248.0 525.1,234.3 526.2,246.0 527.3,245.0 528.4,252.9 529.5,245.9 530.6,247.4 531.7,248.3 532.8,247.7 533.8,239.1 534.9,240.8 536.0,252.0 537.1,252.9 538.2,252.0 539.3,259.5 540.4,248.6 541.5,255.6 542.5,255.6 543.6,256.2 544.7,252.6 545.8,250.4 546.9,247.5 548.0,235.3 549.1,257.7 550.1,239.4 551.2,217.5 552.3,244.7 553.4,243.3 554.5,247.4 555.6,248.5 556.7,245.5 557.8,244.6 558.9,247.9 559.9,251.0 561.0,248.9 562.1,252.3 563.2,249.7 564.3,252.3 565.4,258.4 566.5,260.8 567.5,239.5 568.6,262.6 569.7,268.1 570.8,271.0 571.9,253.1 573.0,249.5 574.1,256.8 575.2,242.4 576.2,244.6 577.3,235.9 578.4,245.9 579.5,252.1 580.6,240.5 581.7,234.4 582.8,239.0 583.9,241.9 585.0,235.1 586.0,252.6 587.1,245.0 588.2,244.3 589.3,262.3 590.4,305.5 591.5,249.9 592.6,245.8 593.6,258.9 594.7,255.9 595.8,253.1 596.9,256.3 598.0,245.1 599.1,242.3 600.2,240.8 601.3,242.9 602.4,248.5 603.4,241.0 604.5,237.3 605.6,242.1 606.7,239.8 607.8,236.5 608.9,241.5 610.0,247.0 611.0,243.4 612.1,245.8 613.2,248.9 614.3,238.6 615.4,251.6 616.5,249.4 617.6,276.3 618.7,259.7 619.8,250.9 620.8,269.4 621.9,251.6 623.0,254.3 624.1,253.9 625.2,248.4 626.3,238.0 627.4,246.8 628.5,247.0 629.5,245.2 630.6,246.2 631.7,236.4 632.8,240.2 633.9,239.9 635.0,265.2 636.1,243.4 637.1,244.6 638.2,240.0 639.3,250.6 640.4,252.1 641.5,260.3 642.6,245.6 643.7,263.7 644.8,248.6 645.9,262.8 646.9,265.9 648.0,248.1 649.1,254.3 650.2,247.2 651.3,252.3 652.4,246.3 653.5,251.2 654.5,245.4 655.6,241.8 656.7,237.3 657.8,251.5 658.9,246.1 660.0,239.7 661.1,238.8 662.2,245.5 663.2,247.4 664.3,254.5 665.4,236.8 666.5,251.2 667.6,251.9 668.7,255.6 669.8,260.8 670.9,260.8 672.0,256.8 673.0,248.6 674.1,250.9 675.2,258.6 676.3,252.0 677.4,247.8 678.5,242.0 679.6,235.9 680.6,240.3 681.7,241.3 682.8,243.0 683.9,250.0 685.0,251.4 686.1,248.2 687.2,247.2 688.3,243.8 689.4,247.8 690.4,250.6 691.5,243.7 692.6,249.4 693.7,257.8 694.8,256.4 695.9,266.0 697.0,253.2 698.0,257.3 699.1,254.9 700.2,263.9 701.3,255.6 702.4,243.4 703.5,246.3 704.6,236.2 705.7,243.4 706.8,247.6 707.8,232.1 708.9,245.1 710.0,241.1 711.1,245.4 712.2,244.3 713.3,245.7 714.4,244.9 715.5,237.9 716.5,243.8 717.6,240.4 718.7,257.6 719.8,256.3 720.9,256.7 722.0,257.1 723.1,257.2 724.1,263.0 725.2,256.8 726.3,255.5 727.4,256.1 728.5,252.2 729.6,269.8 730.7,254.4 731.8,246.0 732.9,249.9 733.9,237.3 735.0,240.6 736.1,246.0 737.2,254.5 738.3,250.8 739.4,250.9 740.5,252.8 741.5,243.7 742.6,250.9 743.7,251.9 744.8,264.5 745.9,263.0 747.0,262.2 748.1,258.8 749.2,264.6 750.2,255.8 751.3,263.3 752.4,253.6 753.5,256.9 754.6,252.5 755.7,255.3 756.8,252.6 757.9,246.8 759.0,248.8 760.0,241.7 761.1,242.1 762.2,248.9 763.3,250.9 764.4,245.3 765.5,247.8 766.6,246.7 767.6,252.2 768.7,248.6 769.8,256.6 770.9,253.4 772.0,255.6 773.1,260.2 774.2,251.7 775.3,253.8 776.4,264.5 777.4,255.3 778.5,263.6 779.6,248.5 780.7,252.2 781.8,250.8 782.9,253.1 784.0,244.8 785.0,253.0 786.1,244.6 787.2,248.3 788.3,251.8 789.4,245.9 790.5,246.0 791.6,261.2 792.7,255.5 793.8,251.8 794.8,251.4 795.9,254.2 797.0,255.0 798.1,255.0 799.2,265.9 800.3,248.1 801.4,272.1 802.5,254.3 803.5,257.3 804.6,258.3 805.7,243.2 806.8,251.2 807.9,252.1 809.0,251.2 810.1,251.9 811.1,266.5 812.2,260.3 813.3,243.4 814.4,245.9 815.5,345.6 816.6,341.0 817.7,341.4 818.8,339.1 819.9,340.1 820.9,345.0 822.0,343.8 823.1,343.3 824.2,343.1 825.3,343.9 826.4,341.5 827.5,341.0 828.5,342.3 829.6,341.5 830.7,345.3 831.8,340.9 832.9,350.1 834.0,340.2 835.1,342.7 836.2,340.3 837.2,340.1 838.3,341.1 839.4,339.5 840.5,343.3 841.6,343.2 842.7,340.7 843.8,342.2 844.9,341.2 846.0,341.9 847.0,340.0 848.1,344.3 849.2,338.1 850.3,340.6 851.4,342.6 852.5,342.9 853.6,342.3 854.6,345.1 855.7,342.7 856.8,342.9 857.9,340.6 859.0,341.6 860.1,339.6 861.2,341.3 862.3,341.5 863.4,341.0 864.4,342.0 865.5,339.2 866.6,339.6 867.7,340.4 868.8,340.9 869.9,335.8 871.0,335.6 872.0,334.7 873.1,340.2 874.2,340.4 875.3,340.3 876.4,339.6 877.5,342.0 878.6,341.5 879.7,342.0 880.8,343.1 881.8,342.0 882.9,340.6 884.0,334.9 885.1,339.8 886.2,340.6 887.3,340.3 888.4,338.2 889.5,339.3 890.5,338.7 891.6,346.4 892.7,288.7 893.8,339.1 894.9,340.3 896.0,342.0 897.1,341.7 898.1,339.6 899.2,312.1 900.3,343.5 901.4,342.2 902.5,322.7 903.6,348.9 904.7,344.5 905.8,342.6 906.9,342.4 907.9,337.4 909.0,336.7 910.1,331.5 911.2,316.9 912.3,313.8 913.4,336.5 914.5,339.3 915.5,351.6 916.6,341.7 917.7,317.1 918.8,341.6 919.9,334.3 921.0,338.9 922.1,348.0 923.2,317.1 924.2,340.6 925.3,341.7 926.4,340.6 927.5,319.1 928.6,347.2 929.7,345.5 930.8,345.7 931.9,345.8 933.0,345.1 934.0,346.2 935.1,346.7 936.2,351.1 937.3,313.1 938.4,349.0 939.5,346.7 940.6,345.7 941.6,319.3 942.7,345.8 943.8,339.2 944.9,344.5 946.0,345.5" fill="none" stroke="#7c3aed" stroke-width="2.2" stroke-linejoin="round" stroke-linecap="round"/>
<line x1="76" y1="70" x2="94" y2="70" stroke="#2563eb" stroke-width="3"/>
<text x="100" y="74" font-family="Arial, sans-serif" font-size="11" fill="#0f172a">tx count</text>
<line x1="186" y1="70" x2="204" y2="70" stroke="#7c3aed" stroke-width="3"/>
<text x="210" y="74" font-family="Arial, sans-serif" font-size="11" fill="#0f172a">unique accounts</text>
<text x="28" y="404" font-family="Arial, sans-serif" font-size="11" fill="#64748b">Source: hourly_features.csv; capped windows are sample counts</text>
</svg>