<svg xmlns="http://www.w3.org/2000/svg" width="980" height="420" viewBox="0 0 980 420">
<rect width="100%" height="100%" fill="#ffffff"/>
<text x="28" y="34" font-family="Arial, sans-serif" font-size="20" font-weight="700" fill="#0f172a">Network activity sample trend</text>
<text x="28" y="56" font-family="Arial, sans-serif" font-size="12" fill="#64748b">Hourly transaction sample count and unique account sample count</text>
<line x1="76" y1="362.0" x2="946" y2="362.0" stroke="#e2e8f0" stroke-width="1"/>
<text x="68" y="366.0" font-family="Arial, sans-serif" font-size="10" text-anchor="end" fill="#64748b">220</text>
<line x1="76" y1="292.0" x2="946" y2="292.0" stroke="#e2e8f0" stroke-width="1"/>
<text x="68" y="296.0" font-family="Arial, sans-serif" font-size="10" text-anchor="end" fill="#64748b">1K</text>
<line x1="76" y1="222.0" x2="946" y2="222.0" stroke="#e2e8f0" stroke-width="1"/>
<text x="68" y="226.0" font-family="Arial, sans-serif" font-size="10" text-anchor="end" fill="#64748b">3K</text>
<line x1="76" y1="152.0" x2="946" y2="152.0" stroke="#e2e8f0" stroke-width="1"/>
<text x="68" y="156.0" font-family="Arial, sans-serif" font-size="10" text-anchor="end" fill="#64748b">4K</text>
<line x1="76" y1="82.0" x2="946" y2="82.0" stroke="#e2e8f0" stroke-width="1"/>
<text x="68" y="86.0" font-family="Arial, sans-serif" font-size="10" text-anchor="end" fill="#64748b">5K</text>
<line x1="76" y1="362" x2="946" y2="362" stroke="#334155" stroke-width="1"/>
<line x1="76" y1="82" x2="76" y2="362" stroke="#334155" stroke-width="1"/>
<text x="76" y="72" font-family="Arial, sans-serif" font-size="11" fill="#64748b">count</text>
<line x1="76.0" y1="362" x2="76.0" y2="366" stroke="#334155" stroke-width="1"/>
<text x="76.0" y="380" font-family="Arial, sans-serif" font-size="10" text-anchor="middle" fill="#64748b">0</text>
<line x1="511.0" y1="362" x2="511.0" y2="366" stroke="#334155" stroke-width="1"/>
<text x="511.0" y="380" font-family="Arial, sans-serif" font-size="10" text-anchor="middle" fill="#64748b">408</text>
<line x1="946.0" y1="362" x2="946.0" y2="366" stroke="#334155" stroke-width="1"/>
<text x="946.0" y="380" font-family="Arial, sans-serif" font-size="10" text-anchor="middle" fill="#64748b">816</text>
<polyline points="76.0,92.4 77.1,92.4 78.1,92.4 79.2,92.4 80.3,92.4 81.3,92.4 82.4,92.4 83.5,92.4 84.5,92.4 85.6,92.4 86.7,92.4 87.7,92.4 88.8,92.4 89.9,92.4 90.9,92.4 92.0,92.4 93.1,92.4 94.1,92.4 95.2,92.4 96.3,92.4 97.3,92.4 98.4,92.4 99.5,92.4 100.5,92.4 101.6,92.4 102.7,92.4 103.7,92.4 104.8,92.4 105.9,92.4 106.9,92.4 108.0,92.4 109.1,92.4 110.1,92.4 111.2,92.4 112.2,92.4 113.3,92.4 114.4,92.4 115.4,92.4 116.5,92.4 117.6,92.4 118.6,92.4 119.7,92.4 120.8,92.4 121.8,92.4 122.9,92.4 124.0,92.4 125.0,92.4 126.1,92.4 127.2,92.4 128.2,92.4 129.3,92.4 130.4,92.4 131.4,92.4 132.5,92.4 133.6,92.4 134.6,92.4 135.7,92.4 136.8,92.4 137.8,92.4 138.9,92.4 140.0,92.4 141.0,92.4 142.1,92.4 143.2,92.4 144.2,92.4 145.3,92.4 146.4,92.4 147.4,92.4 148.5,92.4 149.6,92.4 150.6,92.4 151.7,92.4 152.8,92.4 153.8,92.4 154.9,92.4 156.0,92.4 157.0,92.4 158.1,92.4 159.2,92.4 160.2,92.4 161.3,92.4 162.4,92.4 163.4,92.4 164.5,92.4 165.6,92.4 166.6,92.4 167.7,92.4 168.8,92.4 169.8,92.4 170.9,92.4 172.0,92.4 173.0,92.4 174.1,92.4 175.2,92.4 176.2,92.4 177.3,92.4 178.4,92.4 179.4,92.4 180.5,92.4 181.6,92.4 182.6,92.4 183.7,92.4 184.8,92.4 185.8,92.4 186.9,92.4 187.9,92.4 189.0,92.4 190.1,92.4 191.1,92.4 192.2,92.4 193.3,92.4 194.3,92.4 195.4,92.4 196.5,92.4 197.5,92.4 198.6,92.4 199.7,92.4 200.7,92.4 201.8,92.4 202.9,92.4 203.9,92.4 205.0,92.4 206.1,92.4 207.1,92.4 208.2,92.4 209.3,92.4 210.3,92.4 211.4,92.4 212.5,92.4 213.5,92.4 214.6,92.4 215.7,92.4 216.7,92.4 217.8,92.4 218.9,92.4 219.9,92.4 221.0,92.4 222.1,92.4 223.1,92.4 224.2,92.4 225.3,92.4 226.3,92.4 227.4,92.4 228.5,92.4 229.5,92.4 230.6,92.4 231.7,92.4 232.7,92.4 233.8,92.4 234.9,92.4 235.9,92.4 237.0,92.4 238.1,92.4 239.1,92.4 240.2,92.4 241.3,92.4 242.3,92.4 243.4,92.4 244.5,92.4 245.5,92.4 246.6,92.4 247.7,92.4 248.7,92.4 249.8,92.4 250.9,92.4 251.9,92.4 253.0,92.4 254.1,92.4 255.1,92.4 256.2,92.4 257.2,92.4 258.3,92.4 259.4,92.4 260.4,92.4 261.5,92.4 262.6,92.4 263.6,92.4 264.7,92.4 265.8,92.4 266.8,92.4 267.9,92.4 269.0,92.4 270.0,92.4 271.1,92.4 272.2,92.4 273.2,92.4 274.3,92.4 275.4,92.4 276.4,92.4 277.5,92.4 278.6,92.4 279.6,92.4 280.7,92.4 281.8,92.4 282.8,92.4 283.9,92.4 285.0,92.4 286.0,92.4 287.1,92.4 288.2,92.4 289.2,92.4 290.3,92.4 291.4,92.4 292.4,92.4 293.5,92.4 294.6,92.4 295.6,92.4 296.7,92.4 297.8,92.4 298.8,92.4 299.9,92.4 301.0,92.4 302.0,92.4 303.1,92.4 304.2,92.4 305.2,92.4 306.3,92.4 307.4,92.4 308.4,92.4 309.5,92.4 310.6,92.4 311.6,92.4 312.7,92.4 313.8,92.4 314.8,92.4 315.9,92.4 317.0,92.4 318.0,92.4 319.1,92.4 320.2,92.4 321.2,92.4 322.3,92.4 323.4,92.4 324.4,92.4 325.5,92.4 326.6,92.4 327.6,92.4 328.7,92.4 329.8,92.4 330.8,92.4 331.9,92.4 332.9,92.4 334.0,92.4 335.1,92.4 336.1,92.4 337.2,92.4 338.3,92.4 339.3,92.4 340.4,92.4 341.5,92.4 342.5,92.4 343.6,92.4 344.7,92.4 345.7,92.4 346.8,92.4 347.9,92.4 348.9,92.4 350.0,92.4 351.1,92.4 352.1,92.4 353.2,92.4 354.3,92.4 355.3,92.4 356.4,92.4 357.5,92.4 358.5,92.4 359.6,92.4 360.7,92.4 361.7,92.4 362.8,92.4 363.9,92.4 364.9,92.4 366.0,92.4 367.1,92.4 368.1,92.4 369.2,92.4 370.3,92.4 371.3,92.4 372.4,92.4 373.5,92.4 374.5,92.4 375.6,92.4 376.7,92.4 377.7,92.4 378.8,92.4 379.9,92.4 380.9,92.4 382.0,92.4 383.1,92.4 384.1,92.4 385.2,92.4 386.3,92.4 387.3,92.4 388.4,92.4 389.5,92.4 390.5,92.4 391.6,92.4 392.7,92.4 393.7,92.4 394.8,92.4 395.9,92.4 396.9,92.4 398.0,92.4 399.1,92.4 400.1,92.4 401.2,92.4 402.2,92.4 403.3,92.4 404.4,92.4 405.4,92.4 406.5,92.4 407.6,92.4 408.6,92.4 409.7,92.4 410.8,92.4 411.8,92.4 412.9,92.4 414.0,92.4 415.0,92.4 416.1,92.4 417.2,92.4 418.2,92.4 419.3,92.4 420.4,92.4 421.4,92.4 422.5,92.4 423.6,92.4 424.6,92.4 425.7,92.4 426.8,92.4 427.8,92.4 428.9,92.4 430.0,92.4 431.0,92.4 432.1,92.4 433.2,92.4 434.2,92.4 435.3,92.4 436.4,92.4 437.4,92.4 438.5,92.4 439.6,92.4 440.6,92.4 441.7,92.4 442.8,92.4 443.8,92.4 444.9,92.4 446.0,92.4 447.0,92.4 448.1,92.4 449.2,92.4 450.2,92.4 451.3,92.4 452.4,92.4 453.4,92.4 454.5,92.4 455.6,92.4 456.6,92.4 457.7,92.4 458.8,92.4 459.8,92.4 460.9,92.4 462.0,92.4 463.0,92.4 464.1,92.4 465.2,92.4 466.2,92.4 467.3,92.4 468.4,92.4 469.4,92.4 470.5,92.4 471.6,92.4 472.6,92.4 473.7,92.4 474.8,92.4 475.8,92.4 476.9,92.4 477.9,92.4 479.0,92.4 480.1,92.4 481.1,92.4 482.2,92.4 483.3,92.4 484.3,92.4 485.4,92.4 486.5,92.4 487.5,92.4 488.6,92.4 489.7,92.4 490.7,92.4 491.8,92.4 492.9,92.4 493.9,92.4 495.0,92.4 496.1,92.4 497.1,92.4 498.2,92.4 499.3,92.4 500.3,92.4 501.4,92.4 502.5,92.4 503.5,92.4 504.6,92.4 505.7,92.4 506.7,92.4 507.8,92.4 508.9,92.4 509.9,92.4 511.0,92.4 512.1,92.4 513.1,92.4 514.2,92.4 515.3,92.4 516.3,92.4 517.4,92.4 518.5,92.4 519.5,92.4 520.6,92.4 521.7,92.4 522.7,92.4 523.8,92.4 524.9,92.4 525.9,92.4 527.0,92.4 528.1,92.4 529.1,92.4 530.2,92.4 531.3,92.4 532.3,92.4 533.4,92.4 534.5,92.4 535.5,92.4 536.6,92.4 537.7,92.4 538.7,92.4 539.8,92.4 540.9,92.4 541.9,92.4 543.0,92.4 544.1,92.4 545.1,92.4 546.2,92.4 547.2,92.4 548.3,92.4 549.4,92.4 550.4,92.4 551.5,92.4 552.6,92.4 553.6,92.4 554.7,92.4 555.8,92.4 556.8,92.4 557.9,92.4 559.0,92.4 560.0,92.4 561.1,92.4 562.2,92.4 563.2,92.4 564.3,92.4 565.4,92.4 566.4,92.4 567.5,92.4 568.6,92.4 569.6,92.4 570.7,92.4 571.8,92.4 572.8,92.4 573.9,92.4 575.0,92.4 576.0,92.4 577.1,92.4 578.2,92.4 579.2,92.4 580.3,92.4 581.4,92.4 582.4,92.4 583.5,92.4 584.6,92.4 585.6,92.4 586.7,92.4 587.8,92.4 588.8,92.4 589.9,92.4 591.0,92.4 592.0,92.4 593.1,92.4 594.2,92.4 595.2,92.4 596.3,92.4 597.4,92.4 598.4,92.4 599.5,92.4 600.6,92.4 601.6,92.4 602.7,92.4 603.8,92.4 604.8,92.4 605.9,92.4 607.0,92.4 608.0,92.4 609.1,92.4 610.2,92.4 611.2,92.4 612.3,92.4 613.4,92.4 614.4,92.4 615.5,92.4 616.6,92.4 617.6,92.4 618.7,92.4 619.8,92.4 620.8,92.4 621.9,92.4 622.9,92.4 624.0,92.4 625.1,92.4 626.1,92.4 627.2,92.4 628.3,92.4 629.3,92.4 630.4,92.4 631.5,92.4 632.5,92.4 633.6,92.4 634.7,92.4 635.7,92.4 636.8,92.4 637.9,92.4 638.9,92.4 640.0,92.4 641.1,92.4 642.1,92.4 643.2,92.4 644.3,92.4 645.3,92.4 646.4,92.4 647.5,92.4 648.5,92.4 649.6,92.4 650.7,92.4 651.7,92.4 652.8,92.4 653.9,92.4 654.9,92.4 656.0,92.4 657.1,92.4 658.1,92.4 659.2,92.4 660.3,92.4 661.3,92.4 662.4,92.4 663.5,92.4 664.5,92.4 665.6,92.4 666.7,92.4 667.7,92.4 668.8,92.4 669.9,92.4 670.9,92.4 672.0,92.4 673.1,92.4 674.1,92.4 675.2,92.4 676.3,92.4 677.3,92.4 678.4,92.4 679.5,92.4 680.5,92.4 681.6,92.4 682.7,92.4 683.7,92.4 684.8,92.4 685.9,92.4 686.9,92.4 688.0,92.4 689.1,92.4 690.1,92.4 691.2,92.4 692.2,92.4 693.3,92.4 694.4,92.4 695.4,92.4 696.5,92.4 697.6,92.4 698.6,92.4 699.7,92.4 700.8,92.4 701.8,92.4 702.9,92.4 704.0,92.4 705.0,92.4 706.1,92.4 707.2,92.4 708.2,92.4 709.3,92.4 710.4,92.4 711.4,92.4 712.5,92.4 713.6,92.4 714.6,92.4 715.7,92.4 716.8,92.4 717.8,92.4 718.9,92.4 720.0,92.4 721.0,92.4 722.1,92.4 723.2,92.4 724.2,92.4 725.3,92.4 726.4,92.4 727.4,92.4 728.5,92.4 729.6,92.4 730.6,92.4 731.7,92.4 732.8,92.4 733.8,92.4 734.9,92.4 736.0,92.4 737.0,92.4 738.1,92.4 739.2,92.4 740.2,92.4 741.3,92.4 742.4,92.4 743.4,92.4 744.5,92.4 745.6,92.4 746.6,92.4 747.7,92.4 748.8,92.4 749.8,92.4 750.9,92.4 752.0,92.4 753.0,92.4 754.1,92.4 755.2,92.4 756.2,92.4 757.3,92.4 758.4,92.4 759.4,92.4 760.5,92.4 761.6,92.4 762.6,92.4 763.7,92.4 764.8,92.4 765.8,92.4 766.9,92.4 767.9,92.4 769.0,92.4 770.1,92.4 771.1,92.4 772.2,92.4 773.3,92.4 774.3,92.4 775.4,92.4 776.5,92.4 777.5,92.4 778.6,92.4 779.7,92.4 780.7,92.4 781.8,92.4 782.9,92.4 783.9,92.4 785.0,92.4 786.1,92.4 787.1,92.4 788.2,92.4 789.3,92.4 790.3,92.4 791.4,92.4 792.5,92.4 793.5,92.4 794.6,92.4 795.7,92.4 796.7,92.4 797.8,92.4 798.9,92.4 799.9,92.4 801.0,318.0 802.1,318.0 803.1,318.0 804.2,318.0 805.3,318.0 806.3,318.0 807.4,318.0 808.5,318.0 809.5,318.0 810.6,318.0 811.7,318.0 812.7,318.0 813.8,318.0 814.9,318.0 815.9,318.0 817.0,318.0 818.1,318.0 819.1,318.0 820.2,318.0 821.3,318.0 822.3,318.0 823.4,318.0 824.5,318.0 825.5,318.0 826.6,318.0 827.7,318.0 828.7,318.0 829.8,318.0 830.9,318.0 831.9,318.0 833.0,318.0 834.1,318.0 835.1,318.0 836.2,318.0 837.2,318.0 838.3,318.0 839.4,318.0 840.4,318.0 841.5,318.0 842.6,318.0 843.6,318.0 844.7,318.0 845.8,318.0 846.8,318.0 847.9,318.0 849.0,318.0 850.0,318.0 851.1,318.0 852.2,318.0 853.2,318.0 854.3,318.0 855.4,318.0 856.4,318.0 857.5,318.0 858.6,318.0 859.6,318.0 860.7,318.0 861.8,318.0 862.8,318.0 863.9,318.0 865.0,318.0 866.0,318.0 867.1,318.0 868.2,318.0 869.2,318.0 870.3,318.0 871.4,318.0 872.4,318.0 873.5,318.0 874.6,318.0 875.6,318.0 876.7,207.0 877.8,318.0 878.8,318.0 879.9,318.0 881.0,318.0 882.0,318.0 883.1,263.4 884.2,318.0 885.2,318.0 886.3,263.5 887.4,318.0 888.4,318.0 889.5,318.0 890.6,318.0 891.6,318.0 892.7,318.0 893.8,318.0 894.8,262.2 895.9,263.5 897.0,318.0 898.0,318.0 899.1,318.0 900.2,318.0 901.2,264.6 902.3,318.0 903.4,318.0 904.4,318.0 905.5,318.0 906.6,261.9 907.6,318.0 908.7,318.0 909.8,318.0 910.8,263.1 911.9,318.0 912.9,318.0 914.0,318.0 915.1,318.0 916.1,318.0 917.2,318.0 918.3,318.0 919.3,318.0 920.4,207.5 921.5,318.0 922.5,318.0 923.6,318.0 924.7,262.4 925.7,318.0 926.8,318.0 927.9,318.0 928.9,262.8 930.0,318.0 931.1,318.0 932.1,318.0 933.2,263.0 934.3,318.0 935.3,318.0 936.4,262.3 937.5,318.0 938.5,318.0 939.6,318.0 940.7,318.0 941.7,318.0 942.8,318.0 943.9,318.0 944.9,261.9 946.0,318.0" fill="none" stroke="#2563eb" stroke-width="2.2" stroke-linejoin="round" stroke-linecap="round"/>
<polyline points="76.0,262.8 77.1,258.8 78.1,249.5 79.2,247.2 80.3,250.9 81.3,240.3 82.4,239.7 83.5,243.5 84.5,248.5 85.6,248.0 86.7,264.6 87.7,246.1 88.8,245.2 89.9,246.9 90.9,251.1 92.0,259.3 93.1,256.5 94.1,254.2 95.2,251.6 96.3,256.6 97.3,261.5 98.4,257.5 99.5,255.6 100.5,255.2 101.6,249.2 102.7,247.7 103.7,249.7 104.8,241.1 105.9,232.5 106.9,241.2 108.0,243.5 109.1,257.3 110.1,251.0 111.2,250.7 112.2,255.2 113.3,250.5 114.4,247.4 115.4,253.4 116.5,247.1 117.6,247.0 118.6,244.7 119.7,261.9 120.8,258.2 121.8,254.2 122.9,219.8 124.0,222.3 125.0,255.3 126.1,251.2 127.2,237.3 128.2,219.3 129.3,239.9 130.4,251.2 131.4,243.9 132.5,242.1 133.6,243.9 134.6,246.7 135.7,244.4 136.8,250.0 137.8,241.3 138.9,247.0 140.0,238.8 141.0,245.4 142.1,243.9 143.2,285.1 144.2,270.0 145.3,262.3 146.4,270.1 147.4,267.0 148.5,238.5 149.6,233.8 150.6,243.4 151.7,259.9 152.8,272.4 153.8,246.0 154.9,245.5 156.0,248.1 157.0,261.0 158.1,250.4 159.2,259.1 160.2,245.9 161.3,240.5 162.4,253.9 163.4,249.9 164.5,254.6 165.6,255.7 166.6,254.0 167.7,261.9 168.8,251.4 169.8,251.4 170.9,253.7 172.0,250.0 173.0,268.3 174.1,231.5 175.2,255.8 176.2,251.1 177.3,218.2 178.4,256.5 179.4,245.2 180.5,247.9 181.6,226.9 182.6,246.1 183.7,248.3 184.8,241.0 185.8,249.4 186.9,243.6 187.9,250.1 189.0,244.3 190.1,242.8 191.1,242.6 192.2,248.1 193.3,245.4 194.3,251.8 195.4,237.9 196.5,251.4 197.5,252.6 198.6,250.9 199.7,220.0 200.7,203.6 201.8,214.7 202.9,215.7 203.9,215.3 205.0,224.9 206.1,220.4 207.1,216.0 208.2,243.5 209.3,246.4 210.3,241.9 211.4,243.2 212.5,242.2 213.5,241.7 214.6,242.6 215.7,244.6 216.7,243.4 217.8,245.1 218.9,249.7 219.9,245.1 221.0,258.2 222.1,257.8 223.1,248.2 224.2,263.2 225.3,290.3 226.3,254.2 227.4,268.2 228.5,255.6 229.5,253.3 230.6,253.6 231.7,250.8 232.7,251.8 233.8,245.2 234.9,251.1 235.9,244.3 237.0,242.4 238.1,240.7 239.1,242.6 240.2,251.4 241.3,264.1 242.3,247.2 243.4,252.2 244.5,250.9 245.5,253.1 246.6,253.4 247.7,258.6 248.7,260.8 249.8,259.1 250.9,292.1 251.9,255.7 253.0,270.2 254.1,236.2 255.1,252.1 256.2,245.1 257.2,249.0 258.3,240.5 259.4,242.6 260.4,248.7 261.5,243.1 262.6,236.6 263.6,245.7 264.7,247.5 265.8,241.4 266.8,245.2 267.9,245.0 269.0,246.8 270.0,247.8 271.1,251.7 272.2,253.2 273.2,259.1 274.3,263.5 275.4,252.2 276.4,285.5 277.5,251.7 278.6,255.1 279.6,250.6 280.7,249.8 281.8,242.9 282.8,242.4 283.9,242.2 285.0,241.0 286.0,247.3 287.1,248.1 288.2,258.9 289.2,257.3 290.3,253.8 291.4,250.1 292.4,255.8 293.5,247.6 294.6,253.5 295.6,245.9 296.7,253.4 297.8,258.1 298.8,261.3 299.9,258.9 301.0,266.2 302.0,297.6 303.1,260.0 304.2,260.3 305.2,258.6 306.3,257.8 307.4,249.6 308.4,247.9 309.5,245.9 310.6,252.3 311.6,248.8 312.7,245.4 313.8,245.5 314.8,241.2 315.9,248.2 317.0,240.3 318.0,241.3 319.1,240.9 320.2,255.8 321.2,255.5 322.3,254.2 323.4,259.3 324.4,273.3 325.5,257.9 326.6,260.5 327.6,258.2 328.7,252.3 329.8,232.0 330.8,219.6 331.9,257.6 332.9,245.0 334.0,228.2 335.1,224.5 336.1,224.1 337.2,223.8 338.3,222.7 339.3,239.3 340.4,231.7 341.5,235.3 342.5,236.0 343.6,245.7 344.7,256.8 345.7,266.4 346.8,245.2 347.9,283.8 348.9,250.1 350.0,265.2 351.1,256.9 352.1,258.4 353.2,265.9 354.3,249.6 355.3,209.8 356.4,220.6 357.5,223.0 358.5,225.7 359.6,215.1 360.7,227.4 361.7,222.0 362.8,209.0 363.9,242.0 364.9,239.8 366.0,248.9 367.1,251.4 368.1,247.5 369.2,243.7 370.3,252.6 371.3,250.3 372.4,248.7 373.5,267.5 374.5,252.2 375.6,247.7 376.7,258.9 377.7,227.2 378.8,211.3 379.9,216.8 380.9,255.8 382.0,251.6 383.1,245.4 384.1,270.3 385.2,239.4 386.3,244.7 387.3,243.3 388.4,250.8 389.5,232.4 390.5,242.8 391.6,244.7 392.7,265.4 393.7,239.2 394.8,244.6 395.9,242.8 396.9,247.8 398.0,246.7 399.1,263.6 400.1,250.8 401.2,258.2 402.2,254.7 403.3,251.7 404.4,265.0 405.4,252.6 406.5,259.2 407.6,263.9 408.6,253.9 409.7,230.0 410.8,224.2 411.8,257.9 412.9,245.8 414.0,252.8 415.0,255.5 416.1,248.1 417.2,251.2 418.2,250.1 419.3,248.5 420.4,245.4 421.4,265.0 422.5,263.0 423.6,258.3 424.6,262.4 425.7,259.0 426.8,283.8 427.8,276.5 428.9,273.1 430.0,276.5 431.0,282.7 432.1,282.5 433.2,277.7 434.2,281.6 435.3,283.5 436.4,278.5 437.4,276.0 438.5,265.8 439.6,251.2 440.6,259.6 441.7,273.4 442.8,261.0 443.8,263.4 444.9,257.8 446.0,265.6 447.0,262.2 448.1,262.1 449.2,262.1 450.2,254.3 451.3,262.8 452.4,257.4 453.4,261.5 454.5,249.6 455.6,254.9 456.6,260.6 457.7,262.8 458.8,263.7 459.8,259.3 460.9,258.4 462.0,252.3 463.0,251.5 464.1,254.4 465.2,233.7 466.2,246.8 467.3,259.0 468.4,247.4 469.4,244.3 470.5,249.6 471.6,251.4 472.6,253.2 473.7,252.7 474.8,254.5 475.8,255.1 476.9,251.1 477.9,261.9 479.0,260.5 480.1,265.7 481.1,260.3 482.2,265.4 483.3,257.3 484.3,253.9 485.4,261.6 486.5,244.2 487.5,253.1 488.6,245.6 489.7,249.2 490.7,235.1 491.8,243.1 492.9,248.1 493.9,255.7 495.0,236.3 496.1,251.0 497.1,236.7 498.2,242.5 499.3,247.8 500.3,246.2 501.4,246.8 502.5,245.6 503.5,253.2 504.6,266.1 505.7,257.9 506.7,214.6 507.8,221.0 508.9,217.1 509.9,231.6 511.0,220.8 512.1,221.3 513.1,229.0 514.2,250.2 515.3,248.0 516.3,234.3 517.4,246.0 518.5,245.0 519.5,252.9 520.6,245.9 521.7,247.4 522.7,248.3 523.8,247.7 524.9,239.1 525.9,240.8 527.0,252.0 528.1,252.9 529.1,252.0 530.2,259.5 531.3,248.6 532.3,255.6 533.4,255.6 534.5,256.2 535.5,252.6 536.6,250.4 537.7,247.5 538.7,235.3 539.8,257.7 540.9,239.4 541.9,217.5 543.0,244.7 544.1,243.3 545.1,247.4 546.2,248.5 547.2,245.5 548.3,244.6 549.4,247.9 550.4,251.0 551.5,248.9 552.6,252.3 553.6,249.7 554.7,252.3 555.8,258.4 556.8,260.8 557.9,239.5 559.0,262.6 560.0,268.1 561.1,271.0 562.2,253.1 563.2,249.5 564.3,256.8 565.4,242.4 566.4,244.6 567.5,235.9 568.6,245.9 569.6,252.1 570.7,240.5 571.8,234.4 572.8,239.0 573.9,241.9 575.0,235.1 576.0,252.6 577.1,245.0 578.2,244.3 579.2,262.3 580.3,305.5 581.4,249.9 582.4,245.8 583.5,258.9 584.6,255.9 585.6,253.1 586.7,256.3 587.8,245.1 588.8,242.3 589.9,240.8 591.0,242.9 592.0,248.5 593.1,241.0 594.2,237.3 595.2,242.1 596.3,239.8 597.4,236.5 598.4,241.5 599.5,247.0 600.6,243.4 601.6,245.8 602.7,248.9 603.8,238.6 604.8,251.6 605.9,249.4 607.0,276.3 608.0,259.7 609.1,250.9 610.2,269.4 611.2,251.6 612.3,254.3 613.4,253.9 614.4,248.4 615.5,238.0 616.6,246.8 617.6,247.0 618.7,245.2 619.8,246.2 620.8,236.4 621.9,240.2 622.9,239.9 624.0,265.2 625.1,243.4 626.1,244.6 627.2,240.0 628.3,250.6 629.3,252.1 630.4,260.3 631.5,245.6 632.5,263.7 633.6,248.6 634.7,262.8 635.7,265.9 636.8,248.1 637.9,254.3 638.9,247.2 640.0,252.3 641.1,246.3 642.1,251.2 643.2,245.4 644.3,241.8 645.3,237.3 646.4,251.5 647.5,246.1 648.5,239.7 649.6,238.8 650.7,245.5 651.7,247.4 652.8,254.5 653.9,236.8 654.9,251.2 656.0,251.9 657.1,255.6 658.1,260.8 659.2,260.8 660.3,256.8 661.3,248.6 662.4,250.9 663.5,258.6 664.5,252.0 665.6,247.8 666.7,242.0 667.7,235.9 668.8,240.3 669.9,241.3 670.9,243.0 672.0,250.0 673.1,251.4 674.1,248.2 675.2,247.2 676.3,243.8 677.3,247.8 678.4,250.6 679.5,243.7 680.5,249.4 681.6,257.8 682.7,256.4 683.7,266.0 684.8,253.2 685.9,257.3 686.9,254.9 688.0,263.9 689.1,255.6 690.1,243.4 691.2,246.3 692.2,236.2 693.3,243.4 694.4,247.6 695.4,232.1 696.5,245.1 697.6,241.1 698.6,245.4 699.7,244.3 700.8,245.7 701.8,244.9 702.9,237.9 704.0,243.8 705.0,240.4 706.1,257.6 707.2,256.3 708.2,256.7 709.3,257.1 710.4,257.2 711.4,263.0 712.5,256.8 713.6,255.5 714.6,256.1 715.7,252.2 716.8,269.8 717.8,254.4 718.9,246.0 720.0,249.9 721.0,237.3 722.1,240.6 723.2,246.0 724.2,254.5 725.3,250.8 726.4,250.9 727.4,252.8 728.5,243.7 729.6,250.9 730.6,251.9 731.7,264.5 732.8,263.0 733.8,262.2 734.9,258.8 736.0,264.6 737.0,255.8 738.1,263.3 739.2,253.6 740.2,256.9 741.3,252.5 742.4,255.3 743.4,252.6 744.5,246.8 745.6,248.8 746.6,241.7 747.7,242.1 748.8,248.9 749.8,250.9 750.9,245.3 752.0,247.8 753.0,246.7 754.1,252.2 755.2,248.6 756.2,256.6 757.3,253.4 758.4,255.6 759.4,260.2 760.5,251.7 761.6,253.8 762.6,264.5 763.7,255.3 764.8,263.6 765.8,248.5 766.9,252.2 767.9,250.8 769.0,253.1 770.1,244.8 771.1,253.0 772.2,244.6 773.3,248.3 774.3,251.8 775.4,245.9 776.5,246.0 777.5,261.2 778.6,255.5 779.7,251.8 780.7,251.4 781.8,254.2 782.9,255.0 783.9,255.0 785.0,265.9 786.1,248.1 787.1,272.1 788.2,254.3 789.3,257.3 790.3,258.3 791.4,243.2 792.5,251.2 793.5,252.1 794.6,251.2 795.7,251.9 796.7,266.5 797.8,260.3 798.9,243.4 799.9,245.9 801.0,345.6 802.1,341.0 803.1,341.4 804.2,339.1 805.3,340.1 806.3,345.0 807.4,343.8 808.5,343.3 809.5,343.1 810.6,343.9 811.7,341.5 812.7,341.0 813.8,342.3 814.9,341.5 815.9,345.3 817.0,340.9 818.1,350.1 819.1,340.2 820.2,342.7 821.3,340.3 822.3,340.1 823.4,341.1 824.5,339.5 825.5,343.3 826.6,343.2 827.7,340.7 828.7,342.2 829.8,341.2 830.9,341.9 831.9,340.0 833.0,344.3 834.1,338.1 835.1,340.6 836.2,342.6 837.2,342.9 838.3,342.3 839.4,345.1 840.4,342.7 841.5,342.9 842.6,340.6 843.6,341.6 844.7,339.6 845.8,341.3 846.8,341.5 847.9,341.0 849.0,342.0 850.0,339.2 851.1,339.6 852.2,340.4 853.2,340.9 854.3,335.8 855.4,335.6 856.4,334.7 857.5,340.2 858.6,340.4 859.6,340.3 860.7,339.6 861.8,342.0 862.8,341.5 863.9,342.0 865.0,343.1 866.0,342.0 867.1,340.6 868.2,334.9 869.2,339.8 870.3,340.6 871.4,340.3 872.4,338.2 873.5,339.3 874.6,338.7 875.6,346.4 876.7,288.7 877.8,339.1 878.8,340.3 879.9,342.0 881.0,341.7 882.0,339.6 883.1,312.1 884.2,343.5 885.2,342.2 886.3,322.7 887.4,348.9 888.4,344.5 889.5,342.6 890.6,342.4 891.6,337.4 892.7,336.7 893.8,331.5 894.8,316.9 895.9,313.8 897.0,336.5 898.0,339.3 899.1,351.6 900.2,341.7 901.2,317.1 902.3,341.6 903.4,334.3 904.4,338.9 905.5,348.0 906.6,317.1 907.6,340.6 908.7,341.7 909.8,340.6 910.8,319.1 911.9,347.2 912.9,345.5 914.0,345.7 915.1,345.8 916.1,345.1 917.2,346.2 918.3,346.7 919.3,351.1 920.4,313.1 921.5,349.0 922.5,346.7 923.6,345.7 924.7,319.3 925.7,345.8 926.8,339.2 927.9,344.5 928.9,321.3 930.0,341.8 931.1,345.7 932.1,343.1 933.2,324.3 934.3,350.6 935.3,345.0 936.4,326.2 937.5,345.3 938.5,345.4 939.6,344.2 940.7,342.9 941.7,345.7 942.8,345.4 943.9,343.6 944.9,320.0 946.0,343.3" fill="none" stroke="#7c3aed" stroke-width="2.2" stroke-linejoin="round" stroke-linecap="round"/>
<line x1="76" y1="70" x2="94" y2="70" stroke="#2563eb" stroke-width="3"/>
<text x="100" y="74" font-family="Arial, sans-serif" font-size="11" fill="#0f172a">tx count</text>
<line x1="186" y1="70" x2="204" y2="70" stroke="#7c3aed" stroke-width="3"/>
<text x="210" y="74" font-family="Arial, sans-serif" font-size="11" fill="#0f172a">unique accounts</text>
<text x="28" y="404" font-family="Arial, sans-serif" font-size="11" fill="#64748b">Source: hourly_features.csv; capped windows are sample counts</text>
</svg>