<svg xmlns="http://www.w3.org/2000/svg" width="980" height="420" viewBox="0 0 980 420">
<rect width="100%" height="100%" fill="#ffffff"/>
<text x="28" y="34" font-family="Arial, sans-serif" font-size="20" font-weight="700" fill="#0f172a">Network activity sample trend</text>
<text x="28" y="56" font-family="Arial, sans-serif" font-size="12" fill="#64748b">Hourly transaction sample count and unique account sample count</text>
<line x1="76" y1="362.0" x2="946" y2="362.0" stroke="#e2e8f0" stroke-width="1"/>
<text x="68" y="366.0" font-family="Arial, sans-serif" font-size="10" text-anchor="end" fill="#64748b">153</text>
<line x1="76" y1="292.0" x2="946" y2="292.0" stroke="#e2e8f0" stroke-width="1"/>
<text x="68" y="296.0" font-family="Arial, sans-serif" font-size="10" text-anchor="end" fill="#64748b">1K</text>
<line x1="76" y1="222.0" x2="946" y2="222.0" stroke="#e2e8f0" stroke-width="1"/>
<text x="68" y="226.0" font-family="Arial, sans-serif" font-size="10" text-anchor="end" fill="#64748b">3K</text>
<line x1="76" y1="152.0" x2="946" y2="152.0" stroke="#e2e8f0" stroke-width="1"/>
<text x="68" y="156.0" font-family="Arial, sans-serif" font-size="10" text-anchor="end" fill="#64748b">4K</text>
<line x1="76" y1="82.0" x2="946" y2="82.0" stroke="#e2e8f0" stroke-width="1"/>
<text x="68" y="86.0" font-family="Arial, sans-serif" font-size="10" text-anchor="end" fill="#64748b">5K</text>
<line x1="76" y1="362" x2="946" y2="362" stroke="#334155" stroke-width="1"/>
<line x1="76" y1="82" x2="76" y2="362" stroke="#334155" stroke-width="1"/>
<text x="76" y="72" font-family="Arial, sans-serif" font-size="11" fill="#64748b">count</text>
<line x1="76.0" y1="362" x2="76.0" y2="366" stroke="#334155" stroke-width="1"/>
<text x="76.0" y="380" font-family="Arial, sans-serif" font-size="10" text-anchor="middle" fill="#64748b">0</text>
<line x1="511.0" y1="362" x2="511.0" y2="366" stroke="#334155" stroke-width="1"/>
<text x="511.0" y="380" font-family="Arial, sans-serif" font-size="10" text-anchor="middle" fill="#64748b">460</text>
<line x1="946.0" y1="362" x2="946.0" y2="366" stroke="#334155" stroke-width="1"/>
<text x="946.0" y="380" font-family="Arial, sans-serif" font-size="10" text-anchor="middle" fill="#64748b">920</text>
<polyline points="76.0,92.4 76.9,92.4 77.9,92.4 78.8,92.4 79.8,92.4 80.7,92.4 81.7,92.4 82.6,92.4 83.6,92.4 84.5,92.4 85.5,92.4 86.4,92.4 87.3,92.4 88.3,92.4 89.2,92.4 90.2,92.4 91.1,92.4 92.1,92.4 93.0,92.4 94.0,92.4 94.9,92.4 95.9,92.4 96.8,92.4 97.8,92.4 98.7,92.4 99.6,92.4 100.6,92.4 101.5,92.4 102.5,92.4 103.4,92.4 104.4,92.4 105.3,92.4 106.3,92.4 107.2,92.4 108.2,92.4 109.1,92.4 110.0,92.4 111.0,92.4 111.9,92.4 112.9,92.4 113.8,92.4 114.8,92.4 115.7,92.4 116.7,92.4 117.6,92.4 118.6,92.4 119.5,92.4 120.4,92.4 121.4,92.4 122.3,92.4 123.3,92.4 124.2,92.4 125.2,92.4 126.1,92.4 127.1,92.4 128.0,92.4 129.0,92.4 129.9,92.4 130.8,92.4 131.8,92.4 132.7,92.4 133.7,92.4 134.6,92.4 135.6,92.4 136.5,92.4 137.5,92.4 138.4,92.4 139.4,92.4 140.3,92.4 141.2,92.4 142.2,92.4 143.1,92.4 144.1,92.4 145.0,92.4 146.0,92.4 146.9,92.4 147.9,92.4 148.8,92.4 149.8,92.4 150.7,92.4 151.7,92.4 152.6,92.4 153.5,92.4 154.5,92.4 155.4,92.4 156.4,92.4 157.3,92.4 158.3,92.4 159.2,92.4 160.2,92.4 161.1,92.4 162.1,92.4 163.0,92.4 163.9,92.4 164.9,92.4 165.8,92.4 166.8,92.4 167.7,92.4 168.7,92.4 169.6,92.4 170.6,92.4 171.5,92.4 172.5,92.4 173.4,92.4 174.3,92.4 175.3,92.4 176.2,92.4 177.2,92.4 178.1,92.4 179.1,92.4 180.0,92.4 181.0,92.4 181.9,92.4 182.9,92.4 183.8,92.4 184.8,92.4 185.7,92.4 186.6,92.4 187.6,92.4 188.5,92.4 189.5,92.4 190.4,92.4 191.4,92.4 192.3,92.4 193.3,92.4 194.2,92.4 195.2,92.4 196.1,92.4 197.0,92.4 198.0,92.4 198.9,92.4 199.9,92.4 200.8,92.4 201.8,92.4 202.7,92.4 203.7,92.4 204.6,92.4 205.6,92.4 206.5,92.4 207.4,92.4 208.4,92.4 209.3,92.4 210.3,92.4 211.2,92.4 212.2,92.4 213.1,92.4 214.1,92.4 215.0,92.4 216.0,92.4 216.9,92.4 217.8,92.4 218.8,92.4 219.7,92.4 220.7,92.4 221.6,92.4 222.6,92.4 223.5,92.4 224.5,92.4 225.4,92.4 226.4,92.4 227.3,92.4 228.2,92.4 229.2,92.4 230.1,92.4 231.1,92.4 232.0,92.4 233.0,92.4 233.9,92.4 234.9,92.4 235.8,92.4 236.8,92.4 237.7,92.4 238.7,92.4 239.6,92.4 240.5,92.4 241.5,92.4 242.4,92.4 243.4,92.4 244.3,92.4 245.3,92.4 246.2,92.4 247.2,92.4 248.1,92.4 249.1,92.4 250.0,92.4 250.9,92.4 251.9,92.4 252.8,92.4 253.8,92.4 254.7,92.4 255.7,92.4 256.6,92.4 257.6,92.4 258.5,92.4 259.5,92.4 260.4,92.4 261.3,92.4 262.3,92.4 263.2,92.4 264.2,92.4 265.1,92.4 266.1,92.4 267.0,92.4 268.0,92.4 268.9,92.4 269.9,92.4 270.8,92.4 271.8,92.4 272.7,92.4 273.6,92.4 274.6,92.4 275.5,92.4 276.5,92.4 277.4,92.4 278.4,92.4 279.3,92.4 280.3,92.4 281.2,92.4 282.2,92.4 283.1,92.4 284.0,92.4 285.0,92.4 285.9,92.4 286.9,92.4 287.8,92.4 288.8,92.4 289.7,92.4 290.7,92.4 291.6,92.4 292.6,92.4 293.5,92.4 294.4,92.4 295.4,92.4 296.3,92.4 297.3,92.4 298.2,92.4 299.2,92.4 300.1,92.4 301.1,92.4 302.0,92.4 303.0,92.4 303.9,92.4 304.8,92.4 305.8,92.4 306.7,92.4 307.7,92.4 308.6,92.4 309.6,92.4 310.5,92.4 311.5,92.4 312.4,92.4 313.4,92.4 314.3,92.4 315.2,92.4 316.2,92.4 317.1,92.4 318.1,92.4 319.0,92.4 320.0,92.4 320.9,92.4 321.9,92.4 322.8,92.4 323.8,92.4 324.7,92.4 325.7,92.4 326.6,92.4 327.5,92.4 328.5,92.4 329.4,92.4 330.4,92.4 331.3,92.4 332.3,92.4 333.2,92.4 334.2,92.4 335.1,92.4 336.1,92.4 337.0,92.4 337.9,92.4 338.9,92.4 339.8,92.4 340.8,92.4 341.7,92.4 342.7,92.4 343.6,92.4 344.6,92.4 345.5,92.4 346.5,92.4 347.4,92.4 348.3,92.4 349.3,92.4 350.2,92.4 351.2,92.4 352.1,92.4 353.1,92.4 354.0,92.4 355.0,92.4 355.9,92.4 356.9,92.4 357.8,92.4 358.8,92.4 359.7,92.4 360.6,92.4 361.6,92.4 362.5,92.4 363.5,92.4 364.4,92.4 365.4,92.4 366.3,92.4 367.3,92.4 368.2,92.4 369.2,92.4 370.1,92.4 371.0,92.4 372.0,92.4 372.9,92.4 373.9,92.4 374.8,92.4 375.8,92.4 376.7,92.4 377.7,92.4 378.6,92.4 379.6,92.4 380.5,92.4 381.4,92.4 382.4,92.4 383.3,92.4 384.3,92.4 385.2,92.4 386.2,92.4 387.1,92.4 388.1,92.4 389.0,92.4 390.0,92.4 390.9,92.4 391.8,92.4 392.8,92.4 393.7,92.4 394.7,92.4 395.6,92.4 396.6,92.4 397.5,92.4 398.5,92.4 399.4,92.4 400.4,92.4 401.3,92.4 402.2,92.4 403.2,92.4 404.1,92.4 405.1,92.4 406.0,92.4 407.0,92.4 407.9,92.4 408.9,92.4 409.8,92.4 410.8,92.4 411.7,92.4 412.7,92.4 413.6,92.4 414.5,92.4 415.5,92.4 416.4,92.4 417.4,92.4 418.3,92.4 419.3,92.4 420.2,92.4 421.2,92.4 422.1,92.4 423.1,92.4 424.0,92.4 424.9,92.4 425.9,92.4 426.8,92.4 427.8,92.4 428.7,92.4 429.7,92.4 430.6,92.4 431.6,92.4 432.5,92.4 433.5,92.4 434.4,92.4 435.3,92.4 436.3,92.4 437.2,92.4 438.2,92.4 439.1,92.4 440.1,92.4 441.0,92.4 442.0,92.4 442.9,92.4 443.9,92.4 444.8,92.4 445.8,92.4 446.7,92.4 447.6,92.4 448.6,92.4 449.5,92.4 450.5,92.4 451.4,92.4 452.4,92.4 453.3,92.4 454.3,92.4 455.2,92.4 456.2,92.4 457.1,92.4 458.0,92.4 459.0,92.4 459.9,92.4 460.9,92.4 461.8,92.4 462.8,92.4 463.7,92.4 464.7,92.4 465.6,92.4 466.6,92.4 467.5,92.4 468.4,92.4 469.4,92.4 470.3,92.4 471.3,92.4 472.2,92.4 473.2,92.4 474.1,92.4 475.1,92.4 476.0,92.4 477.0,92.4 477.9,92.4 478.8,92.4 479.8,92.4 480.7,92.4 481.7,92.4 482.6,92.4 483.6,92.4 484.5,92.4 485.5,92.4 486.4,92.4 487.4,92.4 488.3,92.4 489.2,92.4 490.2,92.4 491.1,92.4 492.1,92.4 493.0,92.4 494.0,92.4 494.9,92.4 495.9,92.4 496.8,92.4 497.8,92.4 498.7,92.4 499.7,92.4 500.6,92.4 501.5,92.4 502.5,92.4 503.4,92.4 504.4,92.4 505.3,92.4 506.3,92.4 507.2,92.4 508.2,92.4 509.1,92.4 510.1,92.4 511.0,92.4 511.9,92.4 512.9,92.4 513.8,92.4 514.8,92.4 515.7,92.4 516.7,92.4 517.6,92.4 518.6,92.4 519.5,92.4 520.5,92.4 521.4,92.4 522.3,92.4 523.3,92.4 524.2,92.4 525.2,92.4 526.1,92.4 527.1,92.4 528.0,92.4 529.0,92.4 529.9,92.4 530.9,92.4 531.8,92.4 532.8,92.4 533.7,92.4 534.6,92.4 535.6,92.4 536.5,92.4 537.5,92.4 538.4,92.4 539.4,92.4 540.3,92.4 541.3,92.4 542.2,92.4 543.2,92.4 544.1,92.4 545.0,92.4 546.0,92.4 546.9,92.4 547.9,92.4 548.8,92.4 549.8,92.4 550.7,92.4 551.7,92.4 552.6,92.4 553.6,92.4 554.5,92.4 555.4,92.4 556.4,92.4 557.3,92.4 558.3,92.4 559.2,92.4 560.2,92.4 561.1,92.4 562.1,92.4 563.0,92.4 564.0,92.4 564.9,92.4 565.8,92.4 566.8,92.4 567.7,92.4 568.7,92.4 569.6,92.4 570.6,92.4 571.5,92.4 572.5,92.4 573.4,92.4 574.4,92.4 575.3,92.4 576.2,92.4 577.2,92.4 578.1,92.4 579.1,92.4 580.0,92.4 581.0,92.4 581.9,92.4 582.9,92.4 583.8,92.4 584.8,92.4 585.7,92.4 586.7,92.4 587.6,92.4 588.5,92.4 589.5,92.4 590.4,92.4 591.4,92.4 592.3,92.4 593.3,92.4 594.2,92.4 595.2,92.4 596.1,92.4 597.1,92.4 598.0,92.4 598.9,92.4 599.9,92.4 600.8,92.4 601.8,92.4 602.7,92.4 603.7,92.4 604.6,92.4 605.6,92.4 606.5,92.4 607.5,92.4 608.4,92.4 609.3,92.4 610.3,92.4 611.2,92.4 612.2,92.4 613.1,92.4 614.1,92.4 615.0,92.4 616.0,92.4 616.9,92.4 617.9,92.4 618.8,92.4 619.8,92.4 620.7,92.4 621.6,92.4 622.6,92.4 623.5,92.4 624.5,92.4 625.4,92.4 626.4,92.4 627.3,92.4 628.3,92.4 629.2,92.4 630.2,92.4 631.1,92.4 632.0,92.4 633.0,92.4 633.9,92.4 634.9,92.4 635.8,92.4 636.8,92.4 637.7,92.4 638.7,92.4 639.6,92.4 640.6,92.4 641.5,92.4 642.4,92.4 643.4,92.4 644.3,92.4 645.3,92.4 646.2,92.4 647.2,92.4 648.1,92.4 649.1,92.4 650.0,92.4 651.0,92.4 651.9,92.4 652.8,92.4 653.8,92.4 654.7,92.4 655.7,92.4 656.6,92.4 657.6,92.4 658.5,92.4 659.5,92.4 660.4,92.4 661.4,92.4 662.3,92.4 663.2,92.4 664.2,92.4 665.1,92.4 666.1,92.4 667.0,92.4 668.0,92.4 668.9,92.4 669.9,92.4 670.8,92.4 671.8,92.4 672.7,92.4 673.7,92.4 674.6,92.4 675.5,92.4 676.5,92.4 677.4,92.4 678.4,92.4 679.3,92.4 680.3,92.4 681.2,92.4 682.2,92.4 683.1,92.4 684.1,92.4 685.0,92.4 685.9,92.4 686.9,92.4 687.8,92.4 688.8,92.4 689.7,92.4 690.7,92.4 691.6,92.4 692.6,92.4 693.5,92.4 694.5,92.4 695.4,92.4 696.3,92.4 697.3,92.4 698.2,92.4 699.2,92.4 700.1,92.4 701.1,92.4 702.0,92.4 703.0,92.4 703.9,92.4 704.9,92.4 705.8,92.4 706.8,92.4 707.7,92.4 708.6,92.4 709.6,92.4 710.5,92.4 711.5,92.4 712.4,92.4 713.4,92.4 714.3,92.4 715.3,92.4 716.2,92.4 717.2,92.4 718.1,92.4 719.0,314.9 720.0,314.9 720.9,314.9 721.9,314.9 722.8,314.9 723.8,314.9 724.7,314.9 725.7,314.9 726.6,314.9 727.6,314.9 728.5,314.9 729.4,314.9 730.4,314.9 731.3,314.9 732.3,314.9 733.2,314.9 734.2,314.9 735.1,314.9 736.1,314.9 737.0,314.9 738.0,314.9 738.9,314.9 739.8,314.9 740.8,314.9 741.7,314.9 742.7,314.9 743.6,314.9 744.6,314.9 745.5,314.9 746.5,314.9 747.4,314.9 748.4,314.9 749.3,314.9 750.2,314.9 751.2,314.9 752.1,314.9 753.1,314.9 754.0,314.9 755.0,314.9 755.9,314.9 756.9,314.9 757.8,314.9 758.8,314.9 759.7,314.9 760.7,314.9 761.6,314.9 762.5,314.9 763.5,314.9 764.4,314.9 765.4,314.9 766.3,314.9 767.3,314.9 768.2,314.9 769.2,314.9 770.1,314.9 771.1,314.9 772.0,314.9 772.9,314.9 773.9,314.9 774.8,314.9 775.8,314.9 776.7,314.9 777.7,314.9 778.6,314.9 779.6,314.9 780.5,314.9 781.5,314.9 782.4,314.9 783.3,314.9 784.3,314.9 785.2,314.9 786.2,205.4 787.1,314.9 788.1,314.9 789.0,314.9 790.0,314.9 790.9,314.9 791.9,261.0 792.8,314.9 793.8,314.9 794.7,261.1 795.6,314.9 796.6,314.9 797.5,314.9 798.5,314.9 799.4,314.9 800.4,314.9 801.3,314.9 802.3,259.9 803.2,261.1 804.2,314.9 805.1,314.9 806.0,314.9 807.0,314.9 807.9,262.2 808.9,314.9 809.8,314.9 810.8,314.9 811.7,314.9 812.7,259.6 813.6,314.9 814.6,314.9 815.5,314.9 816.4,260.7 817.4,314.9 818.3,314.9 819.3,314.9 820.2,314.9 821.2,314.9 822.1,314.9 823.1,314.9 824.0,314.9 825.0,205.9 825.9,314.9 826.8,314.9 827.8,314.9 828.7,260.1 829.7,314.9 830.6,314.9 831.6,314.9 832.5,260.5 833.5,314.9 834.4,314.9 835.4,314.9 836.3,260.6 837.2,314.9 838.2,314.9 839.1,260.0 840.1,314.9 841.0,314.9 842.0,314.9 842.9,314.9 843.9,314.9 844.8,314.9 845.8,314.9 846.7,259.6 847.7,259.3 848.6,314.9 849.5,314.9 850.5,261.6 851.4,314.9 852.4,314.9 853.3,314.9 854.3,259.3 855.2,314.9 856.2,314.9 857.1,259.7 858.1,314.9 859.0,314.9 859.9,259.3 860.9,314.9 861.8,260.6 862.8,314.9 863.7,314.9 864.7,314.9 865.6,314.9 866.6,314.9 867.5,314.9 868.5,314.9 869.4,314.9 870.3,205.5 871.3,314.9 872.2,314.9 873.2,314.9 874.1,260.2 875.1,314.9 876.0,314.9 877.0,314.9 877.9,262.1 878.9,314.9 879.8,261.0 880.8,314.9 881.7,314.9 882.6,259.9 883.6,314.9 884.5,259.4 885.5,314.9 886.4,314.9 887.4,314.9 888.3,314.9 889.3,314.9 890.2,314.9 891.2,314.9 892.1,314.9 893.0,314.9 894.0,260.2 894.9,262.5 895.9,314.9 896.8,314.9 897.8,314.9 898.7,314.9 899.7,314.9 900.6,314.9 901.6,261.4 902.5,314.9 903.4,314.9 904.4,314.9 905.3,259.5 906.3,314.9 907.2,314.9 908.2,314.9 909.1,261.1 910.1,314.9 911.0,314.9 912.0,314.9 912.9,314.9 913.8,314.9 914.8,314.9 915.7,260.1 916.7,265.3 917.6,314.9 918.6,314.9 919.5,314.9 920.5,267.5 921.4,314.9 922.4,314.9 923.3,314.9 924.2,314.9 925.2,314.9 926.1,267.2 927.1,314.9 928.0,314.9 929.0,260.2 929.9,314.9 930.9,314.9 931.8,314.9 932.8,314.9 933.7,314.9 934.7,314.9 935.6,314.9 936.5,314.9 937.5,314.9 938.4,314.9 939.4,314.9 940.3,261.2 941.3,314.9 942.2,314.9 943.2,314.9 944.1,314.9 945.1,314.9 946.0,314.9" fill="none" stroke="#2563eb" stroke-width="2.2" stroke-linejoin="round" stroke-linecap="round"/>
<polyline points="76.0,260.4 76.9,256.5 77.9,247.3 78.8,245.1 79.8,248.7 80.7,238.2 81.7,237.6 82.6,241.4 83.6,246.3 84.5,245.8 85.5,262.2 86.4,243.9 87.3,243.1 88.3,244.7 89.2,248.8 90.2,257.0 91.1,254.2 92.1,251.9 93.0,249.4 94.0,254.3 94.9,259.1 95.9,255.2 96.8,253.3 97.8,253.0 98.7,247.1 99.6,245.5 100.6,247.5 101.5,239.0 102.5,230.5 103.4,239.1 104.4,241.4 105.3,255.0 106.3,248.8 107.2,248.4 108.2,252.9 109.1,248.3 110.0,245.2 111.0,251.1 111.9,244.9 112.9,244.8 113.8,242.6 114.8,259.5 115.7,255.8 116.7,251.9 117.6,218.0 118.6,220.5 119.5,253.1 120.4,249.0 121.4,235.3 122.3,217.5 123.3,237.8 124.2,248.9 125.2,241.8 126.1,240.0 127.1,241.8 128.0,244.6 129.0,242.3 129.9,247.8 130.8,239.2 131.8,244.8 132.7,236.8 133.7,243.3 134.6,241.8 135.6,282.4 136.5,267.5 137.5,259.9 138.4,267.6 139.4,264.6 140.3,236.4 141.2,231.8 142.2,241.3 143.1,257.5 144.1,269.9 145.0,243.9 146.0,243.3 146.9,245.9 147.9,258.7 148.8,248.2 149.8,256.8 150.7,243.7 151.7,238.4 152.6,251.7 153.5,247.7 154.5,252.3 155.4,253.5 156.4,251.8 157.3,259.6 158.3,249.2 159.2,249.2 160.2,251.5 161.1,247.8 162.1,265.8 163.0,229.5 163.9,253.5 164.9,248.8 165.8,216.5 166.8,254.2 167.7,243.1 168.7,245.7 169.6,225.0 170.6,244.0 171.5,246.2 172.5,238.9 173.4,247.2 174.3,241.5 175.3,247.9 176.2,242.2 177.2,240.7 178.1,240.6 179.1,245.9 180.0,243.2 181.0,249.6 181.9,235.8 182.9,249.2 183.8,250.3 184.8,248.7 185.7,218.2 186.6,202.0 187.6,213.0 188.5,214.0 189.5,213.6 190.4,223.1 191.4,218.6 192.3,214.2 193.3,241.4 194.2,244.2 195.2,239.8 196.1,241.1 197.0,240.1 198.0,239.6 198.9,240.6 199.9,242.4 200.8,241.3 201.8,242.9 202.7,247.5 203.7,242.9 204.6,255.8 205.6,255.5 206.5,246.0 207.4,260.9 208.4,287.5 209.3,252.0 210.3,265.7 211.2,253.3 212.2,251.1 213.1,251.3 214.1,248.6 215.0,249.6 216.0,243.1 216.9,248.9 217.8,242.2 218.8,240.3 219.7,238.7 220.7,240.6 221.6,249.2 222.6,261.7 223.5,245.0 224.5,250.0 225.4,248.7 226.4,250.8 227.3,251.1 228.2,256.3 229.2,258.4 230.1,256.7 231.1,289.3 232.0,253.4 233.0,267.7 233.9,234.2 234.9,249.9 235.8,242.9 236.8,246.8 237.7,238.4 238.7,240.6 239.6,246.6 240.5,241.0 241.5,234.6 242.4,243.6 243.4,245.3 244.3,239.3 245.3,243.1 246.2,242.9 247.2,244.7 248.1,245.7 249.1,249.5 250.0,251.0 250.9,256.7 251.9,261.1 252.8,250.0 253.8,282.8 254.7,249.5 255.7,252.8 256.6,248.4 257.6,247.6 258.5,240.8 259.5,240.3 260.4,240.1 261.3,238.9 262.3,245.2 263.2,245.9 264.2,256.6 265.1,255.0 266.1,251.5 267.0,247.9 268.0,253.5 268.9,245.4 269.9,251.3 270.8,243.7 271.8,251.1 272.7,255.8 273.6,259.0 274.6,256.6 275.5,263.8 276.5,294.7 277.4,257.7 278.4,258.0 279.3,256.3 280.3,255.5 281.2,247.4 282.2,245.8 283.1,243.7 284.0,250.1 285.0,246.6 285.9,243.3 286.9,243.3 287.8,239.2 288.8,246.0 289.7,238.2 290.7,239.3 291.6,238.8 292.6,253.5 293.5,253.2 294.4,251.9 295.4,257.0 296.3,270.8 297.3,255.6 298.2,258.2 299.2,255.8 300.1,250.1 301.1,230.0 302.0,217.9 303.0,255.3 303.9,242.9 304.8,226.3 305.8,222.7 306.7,222.3 307.7,222.0 308.6,220.9 309.6,237.2 310.5,229.8 311.5,233.3 312.4,234.0 313.4,243.6 314.3,254.5 315.2,264.0 316.2,243.1 317.1,281.2 318.1,247.9 319.0,262.7 320.0,254.6 320.9,256.1 321.9,263.5 322.8,247.4 323.8,208.1 324.7,218.9 325.7,221.1 326.6,223.9 327.5,213.4 328.5,225.5 329.4,220.2 330.4,207.3 331.3,239.9 332.3,237.7 333.2,246.7 334.2,249.2 335.1,245.3 336.1,241.6 337.0,250.3 337.9,248.1 338.9,246.6 339.8,265.0 340.8,250.0 341.7,245.5 342.7,256.6 343.6,225.3 344.6,209.7 345.5,215.1 346.5,253.5 347.4,249.3 348.3,243.2 349.3,267.8 350.2,237.3 351.2,242.6 352.1,241.2 353.1,248.6 354.0,230.5 355.0,240.7 355.9,242.6 356.9,263.0 357.8,237.2 358.8,242.5 359.7,240.7 360.6,245.7 361.6,244.6 362.5,261.2 363.5,248.6 364.4,255.9 365.4,252.5 366.3,249.5 367.3,262.6 368.2,250.4 369.2,256.8 370.1,261.5 371.0,251.7 372.0,228.1 372.9,222.4 373.9,255.6 374.8,243.7 375.8,250.6 376.7,253.2 377.7,245.9 378.6,248.9 379.6,247.9 380.5,246.3 381.4,243.2 382.4,262.6 383.3,260.6 384.3,256.0 385.2,260.0 386.2,256.7 387.1,281.1 388.1,274.0 389.0,270.5 390.0,274.0 390.9,280.0 391.8,279.9 392.8,275.1 393.7,279.0 394.7,280.9 395.6,275.9 396.6,273.5 397.5,263.4 398.5,248.9 399.4,257.3 400.4,270.9 401.3,258.7 402.2,261.0 403.2,255.5 404.1,263.2 405.1,259.9 406.0,259.7 407.0,259.7 407.9,252.1 408.9,260.4 409.8,255.1 410.8,259.1 411.7,247.4 412.7,252.7 413.6,258.3 414.5,260.4 415.5,261.4 416.4,257.0 417.4,256.1 418.3,250.1 419.3,249.3 420.2,252.2 421.2,231.7 422.1,244.6 423.1,256.7 424.0,245.3 424.9,242.2 425.9,247.4 426.8,249.2 427.8,251.0 428.7,250.5 429.7,252.3 430.6,252.8 431.6,248.9 432.5,259.6 433.5,258.2 434.4,263.2 435.3,258.0 436.3,263.0 437.2,255.0 438.2,251.7 439.1,259.2 440.1,242.1 441.0,250.8 442.0,243.5 442.9,247.1 443.9,233.2 444.8,241.0 445.8,245.9 446.7,253.4 447.6,234.3 448.6,248.8 449.5,234.7 450.5,240.4 451.4,245.6 452.4,244.1 453.3,244.7 454.3,243.4 455.2,251.0 456.2,263.7 457.1,255.6 458.0,212.9 459.0,219.2 459.9,215.4 460.9,229.6 461.8,219.0 462.8,219.5 463.7,227.1 464.7,248.0 465.6,245.8 466.6,232.3 467.5,243.8 468.4,242.9 469.4,250.7 470.3,243.8 471.3,245.3 472.2,246.1 473.2,245.5 474.1,237.0 475.1,238.8 476.0,249.7 477.0,250.6 477.9,249.7 478.8,257.1 479.8,246.4 480.7,253.3 481.7,253.3 482.6,253.9 483.6,250.4 484.5,248.2 485.5,245.3 486.4,233.3 487.4,255.4 488.3,237.3 489.2,215.7 490.2,242.6 491.1,241.2 492.1,245.2 493.0,246.3 494.0,243.4 494.9,242.4 495.9,245.8 496.8,248.8 497.8,246.7 498.7,250.1 499.7,247.5 500.6,250.1 501.5,256.1 502.5,258.4 503.4,237.5 504.4,260.2 505.3,265.6 506.3,268.5 507.2,250.8 508.2,247.3 509.1,254.5 510.1,240.3 511.0,242.5 511.9,233.9 512.9,243.7 513.8,249.9 514.8,238.4 515.7,232.4 516.7,236.9 517.6,239.8 518.6,233.1 519.5,250.4 520.5,242.8 521.4,242.2 522.3,259.9 523.3,302.6 524.2,247.7 525.2,243.7 526.1,256.6 527.1,253.6 528.0,250.8 529.0,254.0 529.9,243.0 530.9,240.2 531.8,238.8 532.8,240.8 533.7,246.3 534.6,238.9 535.6,235.3 536.5,240.0 537.5,237.8 538.4,234.5 539.4,239.4 540.3,244.8 541.3,241.3 542.2,243.7 543.2,246.7 544.1,236.6 545.0,249.4 546.0,247.2 546.9,273.7 547.9,257.3 548.8,248.7 549.8,266.9 550.7,249.3 551.7,252.0 552.6,251.7 553.6,246.2 554.5,235.9 555.4,244.6 556.4,244.9 557.3,243.1 558.3,244.1 559.2,234.4 560.2,238.2 561.1,237.8 562.1,262.7 563.0,241.3 564.0,242.5 564.9,237.9 565.8,248.4 566.8,249.8 567.7,258.0 568.7,243.4 569.6,261.4 570.6,246.4 571.5,260.5 572.5,263.5 573.4,245.9 574.4,252.1 575.3,245.1 576.2,250.1 577.2,244.2 578.1,249.0 579.1,243.3 580.0,239.7 581.0,235.3 581.9,249.3 582.9,243.9 583.8,237.7 584.8,236.7 585.7,243.3 586.7,245.2 587.6,252.2 588.5,234.8 589.5,248.9 590.4,249.7 591.4,253.3 592.3,258.5 593.3,258.4 594.2,254.5 595.2,246.4 596.1,248.7 597.1,256.2 598.0,249.7 598.9,245.7 599.9,239.9 600.8,233.9 601.8,238.3 602.7,239.3 603.7,240.9 604.6,247.8 605.6,249.2 606.5,246.0 607.5,245.0 608.4,241.7 609.3,245.7 610.3,248.4 611.2,241.6 612.2,247.2 613.1,255.5 614.1,254.1 615.0,263.6 616.0,251.0 616.9,255.0 617.9,252.7 618.8,261.5 619.8,253.3 620.7,241.3 621.6,244.2 622.6,234.2 623.5,241.3 624.5,245.4 625.4,230.1 626.4,243.0 627.3,239.0 628.3,243.2 629.2,242.2 630.2,243.6 631.1,242.8 632.0,235.8 633.0,241.7 633.9,238.4 634.9,255.3 635.8,254.0 636.8,254.4 637.7,254.8 638.7,254.9 639.6,260.6 640.6,254.5 641.5,253.2 642.4,253.8 643.4,250.0 644.3,267.3 645.3,252.1 646.2,243.9 647.2,247.7 648.1,235.3 649.1,238.5 650.0,243.9 651.0,252.3 651.9,248.6 652.8,248.7 653.8,250.6 654.7,241.6 655.7,248.7 656.6,249.7 657.6,262.1 658.5,260.6 659.5,259.9 660.4,256.5 661.4,262.2 662.3,253.6 663.2,260.9 664.2,251.4 665.1,254.6 666.1,250.3 667.0,253.0 668.0,250.4 668.9,244.6 669.9,246.6 670.8,239.6 671.8,240.0 672.7,246.7 673.7,248.7 674.6,243.2 675.5,245.7 676.5,244.5 677.4,250.0 678.4,246.4 679.3,254.3 680.3,251.2 681.2,253.3 682.2,257.9 683.1,249.5 684.1,251.5 685.0,262.1 685.9,253.0 686.9,261.2 687.8,246.3 688.8,250.0 689.7,248.6 690.7,250.8 691.6,242.7 692.6,250.7 693.5,242.4 694.5,246.2 695.4,249.6 696.3,243.8 697.3,243.9 698.2,258.9 699.2,253.2 700.1,249.6 701.1,249.2 702.0,252.0 703.0,252.7 703.9,252.7 704.9,263.5 705.8,245.9 706.8,269.6 707.7,252.0 708.6,255.0 709.6,256.0 710.5,241.1 711.5,249.0 712.4,249.8 713.4,248.9 714.3,249.7 715.3,264.1 716.2,258.0 717.2,241.3 718.1,243.7 719.0,342.1 720.0,337.6 720.9,337.9 721.9,335.7 722.8,336.7 723.8,341.5 724.7,340.3 725.7,339.8 726.6,339.6 727.6,340.4 728.5,338.1 729.4,337.5 730.4,338.8 731.3,338.0 732.3,341.8 733.2,337.4 734.2,346.5 735.1,336.8 736.1,339.2 737.0,336.8 738.0,336.7 738.9,337.6 739.8,336.1 740.8,339.8 741.7,339.7 742.7,337.2 743.6,338.7 744.6,337.7 745.5,338.4 746.5,336.6 747.4,340.8 748.4,334.7 749.3,337.2 750.2,339.1 751.2,339.4 752.1,338.8 753.1,341.6 754.0,339.2 755.0,339.4 755.9,337.1 756.9,338.1 757.8,336.2 758.8,337.8 759.7,338.0 760.7,337.5 761.6,338.6 762.5,335.8 763.5,336.2 764.4,336.9 765.4,337.4 766.3,332.4 767.3,332.2 768.2,331.3 769.2,336.8 770.1,336.9 771.1,336.8 772.0,336.2 772.9,338.6 773.9,338.0 774.8,338.6 775.8,339.6 776.7,338.6 777.7,337.1 778.6,331.5 779.6,336.4 780.5,337.1 781.5,336.9 782.4,334.8 783.3,335.9 784.3,335.2 785.2,342.9 786.2,286.0 787.1,335.7 788.1,336.9 789.0,338.6 790.0,338.2 790.9,336.2 791.9,309.0 792.8,340.0 793.8,338.7 794.7,319.5 795.6,345.3 796.6,340.9 797.5,339.1 798.5,338.9 799.4,333.9 800.4,333.3 801.3,328.2 802.3,313.8 803.2,310.7 804.2,333.1 805.1,335.8 806.0,348.0 807.0,338.2 807.9,314.0 808.9,338.1 809.8,330.9 810.8,335.4 811.7,344.4 812.7,313.9 813.6,337.2 814.6,338.2 815.5,337.2 816.4,316.0 817.4,343.6 818.3,342.0 819.3,342.1 820.2,342.2 821.2,341.6 822.1,342.7 823.1,343.1 824.0,347.5 825.0,310.0 825.9,345.4 826.8,343.1 827.8,342.1 828.7,316.1 829.7,342.3 830.6,335.7 831.6,340.9 832.5,318.1 833.5,338.3 834.4,342.2 835.4,339.6 836.3,321.0 837.2,347.0 838.2,341.5 839.1,322.9 840.1,341.8 841.0,341.9 842.0,340.7 842.9,339.4 843.9,342.2 844.8,341.9 845.8,340.1 846.7,316.8 847.7,316.9 848.6,343.7 849.5,340.3 850.5,313.1 851.4,338.1 852.4,336.7 853.3,338.3 854.3,294.0 855.2,340.8 856.2,340.4 857.1,311.9 858.1,343.7 859.0,339.4 859.9,319.5 860.9,344.3 861.8,318.8 862.8,336.9 863.7,344.1 864.7,343.6 865.6,341.6 866.6,339.2 867.5,340.2 868.5,342.0 869.4,340.4 870.3,293.7 871.3,340.2 872.2,342.3 873.2,337.2 874.1,311.6 875.1,342.1 876.0,337.4 877.0,340.7 877.9,319.0 878.9,338.3 879.8,316.6 880.8,337.6 881.7,338.9 882.6,315.0 883.6,339.6 884.5,320.0 885.5,342.0 886.4,338.9 887.4,343.4 888.3,340.7 889.3,346.5 890.2,341.4 891.2,338.5 892.1,339.6 893.0,340.1 894.0,316.3 894.9,313.8 895.9,339.3 896.8,338.6 897.8,338.3 898.7,343.5 899.7,343.4 900.6,334.7 901.6,318.2 902.5,340.9 903.4,345.0 904.4,341.7 905.3,322.1 906.3,340.8 907.2,342.8 908.2,351.6 909.1,327.8 910.1,342.3 911.0,348.3 912.0,345.7 912.9,341.6 913.8,343.9 914.8,346.8 915.7,323.9 916.7,321.3 917.6,349.4 918.6,342.0 919.5,340.6 920.5,320.4 921.4,345.0 922.4,339.9 923.3,342.3 924.2,348.1 925.2,342.6 926.1,320.8 927.1,343.3 928.0,346.5 929.0,324.1 929.9,346.3 930.9,345.7 931.8,346.8 932.8,348.3 933.7,348.1 934.7,346.3 935.6,347.2 936.5,346.5 937.5,341.0 938.4,340.7 939.4,338.4 940.3,317.8 941.3,343.2 942.2,340.1 943.2,343.0 944.1,342.7 945.1,340.3 946.0,343.1" fill="none" stroke="#7c3aed" stroke-width="2.2" stroke-linejoin="round" stroke-linecap="round"/>
<line x1="76" y1="70" x2="94" y2="70" stroke="#2563eb" stroke-width="3"/>
<text x="100" y="74" font-family="Arial, sans-serif" font-size="11" fill="#0f172a">tx count</text>
<line x1="186" y1="70" x2="204" y2="70" stroke="#7c3aed" stroke-width="3"/>
<text x="210" y="74" font-family="Arial, sans-serif" font-size="11" fill="#0f172a">unique accounts</text>
<text x="28" y="404" font-family="Arial, sans-serif" font-size="11" fill="#64748b">Source: hourly_features.csv; capped windows are sample counts</text>
</svg>