<svg xmlns="http://www.w3.org/2000/svg" width="980" height="420" viewBox="0 0 980 420">
<rect width="100%" height="100%" fill="#ffffff"/>
<text x="28" y="34" font-family="Arial, sans-serif" font-size="20" font-weight="700" fill="#0f172a">Network activity sample trend</text>
<text x="28" y="56" font-family="Arial, sans-serif" font-size="12" fill="#64748b">Hourly transaction sample count and unique account sample count</text>
<line x1="76" y1="362.0" x2="946" y2="362.0" stroke="#e2e8f0" stroke-width="1"/>
<text x="68" y="366.0" font-family="Arial, sans-serif" font-size="10" text-anchor="end" fill="#64748b">220</text>
<line x1="76" y1="292.0" x2="946" y2="292.0" stroke="#e2e8f0" stroke-width="1"/>
<text x="68" y="296.0" font-family="Arial, sans-serif" font-size="10" text-anchor="end" fill="#64748b">1K</text>
<line x1="76" y1="222.0" x2="946" y2="222.0" stroke="#e2e8f0" stroke-width="1"/>
<text x="68" y="226.0" font-family="Arial, sans-serif" font-size="10" text-anchor="end" fill="#64748b">3K</text>
<line x1="76" y1="152.0" x2="946" y2="152.0" stroke="#e2e8f0" stroke-width="1"/>
<text x="68" y="156.0" font-family="Arial, sans-serif" font-size="10" text-anchor="end" fill="#64748b">4K</text>
<line x1="76" y1="82.0" x2="946" y2="82.0" stroke="#e2e8f0" stroke-width="1"/>
<text x="68" y="86.0" font-family="Arial, sans-serif" font-size="10" text-anchor="end" fill="#64748b">5K</text>
<line x1="76" y1="362" x2="946" y2="362" stroke="#334155" stroke-width="1"/>
<line x1="76" y1="82" x2="76" y2="362" stroke="#334155" stroke-width="1"/>
<text x="76" y="72" font-family="Arial, sans-serif" font-size="11" fill="#64748b">count</text>
<line x1="76.0" y1="362" x2="76.0" y2="366" stroke="#334155" stroke-width="1"/>
<text x="76.0" y="380" font-family="Arial, sans-serif" font-size="10" text-anchor="middle" fill="#64748b">0</text>
<line x1="511.6" y1="362" x2="511.6" y2="366" stroke="#334155" stroke-width="1"/>
<text x="511.6" y="380" font-family="Arial, sans-serif" font-size="10" text-anchor="middle" fill="#64748b">392</text>
<line x1="946.0" y1="362" x2="946.0" y2="366" stroke="#334155" stroke-width="1"/>
<text x="946.0" y="380" font-family="Arial, sans-serif" font-size="10" text-anchor="middle" fill="#64748b">783</text>
<polyline points="76.0,92.4 77.1,92.4 78.2,92.4 79.3,92.4 80.4,92.4 81.6,92.4 82.7,92.4 83.8,92.4 84.9,92.4 86.0,92.4 87.1,92.4 88.2,92.4 89.3,92.4 90.4,92.4 91.6,92.4 92.7,92.4 93.8,92.4 94.9,92.4 96.0,92.4 97.1,92.4 98.2,92.4 99.3,92.4 100.4,92.4 101.6,92.4 102.7,92.4 103.8,92.4 104.9,92.4 106.0,92.4 107.1,92.4 108.2,92.4 109.3,92.4 110.4,92.4 111.6,92.4 112.7,92.4 113.8,92.4 114.9,92.4 116.0,92.4 117.1,92.4 118.2,92.4 119.3,92.4 120.4,92.4 121.6,92.4 122.7,92.4 123.8,92.4 124.9,92.4 126.0,92.4 127.1,92.4 128.2,92.4 129.3,92.4 130.4,92.4 131.6,92.4 132.7,92.4 133.8,92.4 134.9,92.4 136.0,92.4 137.1,92.4 138.2,92.4 139.3,92.4 140.4,92.4 141.6,92.4 142.7,92.4 143.8,92.4 144.9,92.4 146.0,92.4 147.1,92.4 148.2,92.4 149.3,92.4 150.4,92.4 151.6,92.4 152.7,92.4 153.8,92.4 154.9,92.4 156.0,92.4 157.1,92.4 158.2,92.4 159.3,92.4 160.4,92.4 161.6,92.4 162.7,92.4 163.8,92.4 164.9,92.4 166.0,92.4 167.1,92.4 168.2,92.4 169.3,92.4 170.4,92.4 171.6,92.4 172.7,92.4 173.8,92.4 174.9,92.4 176.0,92.4 177.1,92.4 178.2,92.4 179.3,92.4 180.4,92.4 181.6,92.4 182.7,92.4 183.8,92.4 184.9,92.4 186.0,92.4 187.1,92.4 188.2,92.4 189.3,92.4 190.4,92.4 191.6,92.4 192.7,92.4 193.8,92.4 194.9,92.4 196.0,92.4 197.1,92.4 198.2,92.4 199.3,92.4 200.4,92.4 201.6,92.4 202.7,92.4 203.8,92.4 204.9,92.4 206.0,92.4 207.1,92.4 208.2,92.4 209.3,92.4 210.4,92.4 211.6,92.4 212.7,92.4 213.8,92.4 214.9,92.4 216.0,92.4 217.1,92.4 218.2,92.4 219.3,92.4 220.4,92.4 221.6,92.4 222.7,92.4 223.8,92.4 224.9,92.4 226.0,92.4 227.1,92.4 228.2,92.4 229.3,92.4 230.4,92.4 231.6,92.4 232.7,92.4 233.8,92.4 234.9,92.4 236.0,92.4 237.1,92.4 238.2,92.4 239.3,92.4 240.4,92.4 241.6,92.4 242.7,92.4 243.8,92.4 244.9,92.4 246.0,92.4 247.1,92.4 248.2,92.4 249.3,92.4 250.4,92.4 251.6,92.4 252.7,92.4 253.8,92.4 254.9,92.4 256.0,92.4 257.1,92.4 258.2,92.4 259.3,92.4 260.4,92.4 261.6,92.4 262.7,92.4 263.8,92.4 264.9,92.4 266.0,92.4 267.1,92.4 268.2,92.4 269.3,92.4 270.4,92.4 271.6,92.4 272.7,92.4 273.8,92.4 274.9,92.4 276.0,92.4 277.1,92.4 278.2,92.4 279.3,92.4 280.4,92.4 281.6,92.4 282.7,92.4 283.8,92.4 284.9,92.4 286.0,92.4 287.1,92.4 288.2,92.4 289.3,92.4 290.4,92.4 291.6,92.4 292.7,92.4 293.8,92.4 294.9,92.4 296.0,92.4 297.1,92.4 298.2,92.4 299.3,92.4 300.4,92.4 301.6,92.4 302.7,92.4 303.8,92.4 304.9,92.4 306.0,92.4 307.1,92.4 308.2,92.4 309.3,92.4 310.4,92.4 311.6,92.4 312.7,92.4 313.8,92.4 314.9,92.4 316.0,92.4 317.1,92.4 318.2,92.4 319.3,92.4 320.4,92.4 321.6,92.4 322.7,92.4 323.8,92.4 324.9,92.4 326.0,92.4 327.1,92.4 328.2,92.4 329.3,92.4 330.4,92.4 331.6,92.4 332.7,92.4 333.8,92.4 334.9,92.4 336.0,92.4 337.1,92.4 338.2,92.4 339.3,92.4 340.4,92.4 341.6,92.4 342.7,92.4 343.8,92.4 344.9,92.4 346.0,92.4 347.1,92.4 348.2,92.4 349.3,92.4 350.4,92.4 351.6,92.4 352.7,92.4 353.8,92.4 354.9,92.4 356.0,92.4 357.1,92.4 358.2,92.4 359.3,92.4 360.4,92.4 361.6,92.4 362.7,92.4 363.8,92.4 364.9,92.4 366.0,92.4 367.1,92.4 368.2,92.4 369.3,92.4 370.4,92.4 371.6,92.4 372.7,92.4 373.8,92.4 374.9,92.4 376.0,92.4 377.1,92.4 378.2,92.4 379.3,92.4 380.4,92.4 381.6,92.4 382.7,92.4 383.8,92.4 384.9,92.4 386.0,92.4 387.1,92.4 388.2,92.4 389.3,92.4 390.4,92.4 391.6,92.4 392.7,92.4 393.8,92.4 394.9,92.4 396.0,92.4 397.1,92.4 398.2,92.4 399.3,92.4 400.4,92.4 401.6,92.4 402.7,92.4 403.8,92.4 404.9,92.4 406.0,92.4 407.1,92.4 408.2,92.4 409.3,92.4 410.4,92.4 411.6,92.4 412.7,92.4 413.8,92.4 414.9,92.4 416.0,92.4 417.1,92.4 418.2,92.4 419.3,92.4 420.4,92.4 421.6,92.4 422.7,92.4 423.8,92.4 424.9,92.4 426.0,92.4 427.1,92.4 428.2,92.4 429.3,92.4 430.4,92.4 431.6,92.4 432.7,92.4 433.8,92.4 434.9,92.4 436.0,92.4 437.1,92.4 438.2,92.4 439.3,92.4 440.4,92.4 441.6,92.4 442.7,92.4 443.8,92.4 444.9,92.4 446.0,92.4 447.1,92.4 448.2,92.4 449.3,92.4 450.4,92.4 451.6,92.4 452.7,92.4 453.8,92.4 454.9,92.4 456.0,92.4 457.1,92.4 458.2,92.4 459.3,92.4 460.4,92.4 461.6,92.4 462.7,92.4 463.8,92.4 464.9,92.4 466.0,92.4 467.1,92.4 468.2,92.4 469.3,92.4 470.4,92.4 471.6,92.4 472.7,92.4 473.8,92.4 474.9,92.4 476.0,92.4 477.1,92.4 478.2,92.4 479.3,92.4 480.4,92.4 481.6,92.4 482.7,92.4 483.8,92.4 484.9,92.4 486.0,92.4 487.1,92.4 488.2,92.4 489.3,92.4 490.4,92.4 491.6,92.4 492.7,92.4 493.8,92.4 494.9,92.4 496.0,92.4 497.1,92.4 498.2,92.4 499.3,92.4 500.4,92.4 501.6,92.4 502.7,92.4 503.8,92.4 504.9,92.4 506.0,92.4 507.1,92.4 508.2,92.4 509.3,92.4 510.4,92.4 511.6,92.4 512.7,92.4 513.8,92.4 514.9,92.4 516.0,92.4 517.1,92.4 518.2,92.4 519.3,92.4 520.4,92.4 521.6,92.4 522.7,92.4 523.8,92.4 524.9,92.4 526.0,92.4 527.1,92.4 528.2,92.4 529.3,92.4 530.4,92.4 531.6,92.4 532.7,92.4 533.8,92.4 534.9,92.4 536.0,92.4 537.1,92.4 538.2,92.4 539.3,92.4 540.4,92.4 541.6,92.4 542.7,92.4 543.8,92.4 544.9,92.4 546.0,92.4 547.1,92.4 548.2,92.4 549.3,92.4 550.4,92.4 551.6,92.4 552.7,92.4 553.8,92.4 554.9,92.4 556.0,92.4 557.1,92.4 558.2,92.4 559.3,92.4 560.4,92.4 561.6,92.4 562.7,92.4 563.8,92.4 564.9,92.4 566.0,92.4 567.1,92.4 568.2,92.4 569.3,92.4 570.4,92.4 571.6,92.4 572.7,92.4 573.8,92.4 574.9,92.4 576.0,92.4 577.1,92.4 578.2,92.4 579.3,92.4 580.4,92.4 581.6,92.4 582.7,92.4 583.8,92.4 584.9,92.4 586.0,92.4 587.1,92.4 588.2,92.4 589.3,92.4 590.4,92.4 591.6,92.4 592.7,92.4 593.8,92.4 594.9,92.4 596.0,92.4 597.1,92.4 598.2,92.4 599.3,92.4 600.4,92.4 601.6,92.4 602.7,92.4 603.8,92.4 604.9,92.4 606.0,92.4 607.1,92.4 608.2,92.4 609.3,92.4 610.4,92.4 611.6,92.4 612.7,92.4 613.8,92.4 614.9,92.4 616.0,92.4 617.1,92.4 618.2,92.4 619.3,92.4 620.4,92.4 621.6,92.4 622.7,92.4 623.8,92.4 624.9,92.4 626.0,92.4 627.1,92.4 628.2,92.4 629.3,92.4 630.4,92.4 631.6,92.4 632.7,92.4 633.8,92.4 634.9,92.4 636.0,92.4 637.1,92.4 638.2,92.4 639.3,92.4 640.4,92.4 641.6,92.4 642.7,92.4 643.8,92.4 644.9,92.4 646.0,92.4 647.1,92.4 648.2,92.4 649.3,92.4 650.4,92.4 651.6,92.4 652.7,92.4 653.8,92.4 654.9,92.4 656.0,92.4 657.1,92.4 658.2,92.4 659.3,92.4 660.4,92.4 661.6,92.4 662.7,92.4 663.8,92.4 664.9,92.4 666.0,92.4 667.1,92.4 668.2,92.4 669.3,92.4 670.4,92.4 671.6,92.4 672.7,92.4 673.8,92.4 674.9,92.4 676.0,92.4 677.1,92.4 678.2,92.4 679.3,92.4 680.4,92.4 681.6,92.4 682.7,92.4 683.8,92.4 684.9,92.4 686.0,92.4 687.1,92.4 688.2,92.4 689.3,92.4 690.4,92.4 691.6,92.4 692.7,92.4 693.8,92.4 694.9,92.4 696.0,92.4 697.1,92.4 698.2,92.4 699.3,92.4 700.4,92.4 701.6,92.4 702.7,92.4 703.8,92.4 704.9,92.4 706.0,92.4 707.1,92.4 708.2,92.4 709.3,92.4 710.4,92.4 711.6,92.4 712.7,92.4 713.8,92.4 714.9,92.4 716.0,92.4 717.1,92.4 718.2,92.4 719.3,92.4 720.4,92.4 721.6,92.4 722.7,92.4 723.8,92.4 724.9,92.4 726.0,92.4 727.1,92.4 728.2,92.4 729.3,92.4 730.4,92.4 731.6,92.4 732.7,92.4 733.8,92.4 734.9,92.4 736.0,92.4 737.1,92.4 738.2,92.4 739.3,92.4 740.4,92.4 741.6,92.4 742.7,92.4 743.8,92.4 744.9,92.4 746.0,92.4 747.1,92.4 748.2,92.4 749.3,92.4 750.4,92.4 751.6,92.4 752.7,92.4 753.8,92.4 754.9,92.4 756.0,92.4 757.1,92.4 758.2,92.4 759.3,92.4 760.4,92.4 761.6,92.4 762.7,92.4 763.8,92.4 764.9,92.4 766.0,92.4 767.1,92.4 768.2,92.4 769.3,92.4 770.4,92.4 771.6,92.4 772.7,92.4 773.8,92.4 774.9,92.4 776.0,92.4 777.1,92.4 778.2,92.4 779.3,92.4 780.4,92.4 781.6,92.4 782.7,92.4 783.8,92.4 784.9,92.4 786.0,92.4 787.1,92.4 788.2,92.4 789.3,92.4 790.4,92.4 791.6,92.4 792.7,92.4 793.8,92.4 794.9,92.4 796.0,92.4 797.1,92.4 798.2,92.4 799.3,92.4 800.4,92.4 801.6,92.4 802.7,92.4 803.8,92.4 804.9,92.4 806.0,92.4 807.1,92.4 808.2,92.4 809.3,92.4 810.4,92.4 811.6,92.4 812.7,92.4 813.8,92.4 814.9,92.4 816.0,92.4 817.1,92.4 818.2,92.4 819.3,92.4 820.4,92.4 821.6,92.4 822.7,92.4 823.8,92.4 824.9,92.4 826.0,92.4 827.1,92.4 828.2,92.4 829.3,92.4 830.4,92.4 831.6,318.0 832.7,318.0 833.8,318.0 834.9,318.0 836.0,318.0 837.1,318.0 838.2,318.0 839.3,318.0 840.4,318.0 841.6,318.0 842.7,318.0 843.8,318.0 844.9,318.0 846.0,318.0 847.1,318.0 848.2,318.0 849.3,318.0 850.4,318.0 851.6,318.0 852.7,318.0 853.8,318.0 854.9,318.0 856.0,318.0 857.1,318.0 858.2,318.0 859.3,318.0 860.4,318.0 861.6,318.0 862.7,318.0 863.8,318.0 864.9,318.0 866.0,318.0 867.1,318.0 868.2,318.0 869.3,318.0 870.4,318.0 871.6,318.0 872.7,318.0 873.8,318.0 874.9,318.0 876.0,318.0 877.1,318.0 878.2,318.0 879.3,318.0 880.4,318.0 881.6,318.0 882.7,318.0 883.8,318.0 884.9,318.0 886.0,318.0 887.1,318.0 888.2,318.0 889.3,318.0 890.4,318.0 891.6,318.0 892.7,318.0 893.8,318.0 894.9,318.0 896.0,318.0 897.1,318.0 898.2,318.0 899.3,318.0 900.4,318.0 901.6,318.0 902.7,318.0 903.8,318.0 904.9,318.0 906.0,318.0 907.1,318.0 908.2,318.0 909.3,318.0 910.4,207.0 911.6,318.0 912.7,318.0 913.8,318.0 914.9,318.0 916.0,318.0 917.1,263.4 918.2,318.0 919.3,318.0 920.4,263.5 921.6,318.0 922.7,318.0 923.8,318.0 924.9,318.0 926.0,318.0 927.1,318.0 928.2,318.0 929.3,262.2 930.4,263.5 931.6,318.0 932.7,318.0 933.8,318.0 934.9,318.0 936.0,264.6 937.1,318.0 938.2,318.0 939.3,318.0 940.4,318.0 941.6,261.9 942.7,318.0 943.8,318.0 944.9,318.0 946.0,318.0" fill="none" stroke="#2563eb" stroke-width="2.2" stroke-linejoin="round" stroke-linecap="round"/>
<polyline points="76.0,262.8 77.1,258.8 78.2,249.5 79.3,247.2 80.4,250.9 81.6,240.3 82.7,239.7 83.8,243.5 84.9,248.5 86.0,248.0 87.1,264.6 88.2,246.1 89.3,245.2 90.4,246.9 91.6,251.1 92.7,259.3 93.8,256.5 94.9,254.2 96.0,251.6 97.1,256.6 98.2,261.5 99.3,257.5 100.4,255.6 101.6,255.2 102.7,249.2 103.8,247.7 104.9,249.7 106.0,241.1 107.1,232.5 108.2,241.2 109.3,243.5 110.4,257.3 111.6,251.0 112.7,250.7 113.8,255.2 114.9,250.5 116.0,247.4 117.1,253.4 118.2,247.1 119.3,247.0 120.4,244.7 121.6,261.9 122.7,258.2 123.8,254.2 124.9,219.8 126.0,222.3 127.1,255.3 128.2,251.2 129.3,237.3 130.4,219.3 131.6,239.9 132.7,251.2 133.8,243.9 134.9,242.1 136.0,243.9 137.1,246.7 138.2,244.4 139.3,250.0 140.4,241.3 141.6,247.0 142.7,238.8 143.8,245.4 144.9,243.9 146.0,285.1 147.1,270.0 148.2,262.3 149.3,270.1 150.4,267.0 151.6,238.5 152.7,233.8 153.8,243.4 154.9,259.9 156.0,272.4 157.1,246.0 158.2,245.5 159.3,248.1 160.4,261.0 161.6,250.4 162.7,259.1 163.8,245.9 164.9,240.5 166.0,253.9 167.1,249.9 168.2,254.6 169.3,255.7 170.4,254.0 171.6,261.9 172.7,251.4 173.8,251.4 174.9,253.7 176.0,250.0 177.1,268.3 178.2,231.5 179.3,255.8 180.4,251.1 181.6,218.2 182.7,256.5 183.8,245.2 184.9,247.9 186.0,226.9 187.1,246.1 188.2,248.3 189.3,241.0 190.4,249.4 191.6,243.6 192.7,250.1 193.8,244.3 194.9,242.8 196.0,242.6 197.1,248.1 198.2,245.4 199.3,251.8 200.4,237.9 201.6,251.4 202.7,252.6 203.8,250.9 204.9,220.0 206.0,203.6 207.1,214.7 208.2,215.7 209.3,215.3 210.4,224.9 211.6,220.4 212.7,216.0 213.8,243.5 214.9,246.4 216.0,241.9 217.1,243.2 218.2,242.2 219.3,241.7 220.4,242.6 221.6,244.6 222.7,243.4 223.8,245.1 224.9,249.7 226.0,245.1 227.1,258.2 228.2,257.8 229.3,248.2 230.4,263.2 231.6,290.3 232.7,254.2 233.8,268.2 234.9,255.6 236.0,253.3 237.1,253.6 238.2,250.8 239.3,251.8 240.4,245.2 241.6,251.1 242.7,244.3 243.8,242.4 244.9,240.7 246.0,242.6 247.1,251.4 248.2,264.1 249.3,247.2 250.4,252.2 251.6,250.9 252.7,253.1 253.8,253.4 254.9,258.6 256.0,260.8 257.1,259.1 258.2,292.1 259.3,255.7 260.4,270.2 261.6,236.2 262.7,252.1 263.8,245.1 264.9,249.0 266.0,240.5 267.1,242.6 268.2,248.7 269.3,243.1 270.4,236.6 271.6,245.7 272.7,247.5 273.8,241.4 274.9,245.2 276.0,245.0 277.1,246.8 278.2,247.8 279.3,251.7 280.4,253.2 281.6,259.1 282.7,263.5 283.8,252.2 284.9,285.5 286.0,251.7 287.1,255.1 288.2,250.6 289.3,249.8 290.4,242.9 291.6,242.4 292.7,242.2 293.8,241.0 294.9,247.3 296.0,248.1 297.1,258.9 298.2,257.3 299.3,253.8 300.4,250.1 301.6,255.8 302.7,247.6 303.8,253.5 304.9,245.9 306.0,253.4 307.1,258.1 308.2,261.3 309.3,258.9 310.4,266.2 311.6,297.6 312.7,260.0 313.8,260.3 314.9,258.6 316.0,257.8 317.1,249.6 318.2,247.9 319.3,245.9 320.4,252.3 321.6,248.8 322.7,245.4 323.8,245.5 324.9,241.2 326.0,248.2 327.1,240.3 328.2,241.3 329.3,240.9 330.4,255.8 331.6,255.5 332.7,254.2 333.8,259.3 334.9,273.3 336.0,257.9 337.1,260.5 338.2,258.2 339.3,252.3 340.4,232.0 341.6,219.6 342.7,257.6 343.8,245.0 344.9,228.2 346.0,224.5 347.1,224.1 348.2,223.8 349.3,222.7 350.4,239.3 351.6,231.7 352.7,235.3 353.8,236.0 354.9,245.7 356.0,256.8 357.1,266.4 358.2,245.2 359.3,283.8 360.4,250.1 361.6,265.2 362.7,256.9 363.8,258.4 364.9,265.9 366.0,249.6 367.1,209.8 368.2,220.6 369.3,223.0 370.4,225.7 371.6,215.1 372.7,227.4 373.8,222.0 374.9,209.0 376.0,242.0 377.1,239.8 378.2,248.9 379.3,251.4 380.4,247.5 381.6,243.7 382.7,252.6 383.8,250.3 384.9,248.7 386.0,267.5 387.1,252.2 388.2,247.7 389.3,258.9 390.4,227.2 391.6,211.3 392.7,216.8 393.8,255.8 394.9,251.6 396.0,245.4 397.1,270.3 398.2,239.4 399.3,244.7 400.4,243.3 401.6,250.8 402.7,232.4 403.8,242.8 404.9,244.7 406.0,265.4 407.1,239.2 408.2,244.6 409.3,242.8 410.4,247.8 411.6,246.7 412.7,263.6 413.8,250.8 414.9,258.2 416.0,254.7 417.1,251.7 418.2,265.0 419.3,252.6 420.4,259.2 421.6,263.9 422.7,253.9 423.8,230.0 424.9,224.2 426.0,257.9 427.1,245.8 428.2,252.8 429.3,255.5 430.4,248.1 431.6,251.2 432.7,250.1 433.8,248.5 434.9,245.4 436.0,265.0 437.1,263.0 438.2,258.3 439.3,262.4 440.4,259.0 441.6,283.8 442.7,276.5 443.8,273.1 444.9,276.5 446.0,282.7 447.1,282.5 448.2,277.7 449.3,281.6 450.4,283.5 451.6,278.5 452.7,276.0 453.8,265.8 454.9,251.2 456.0,259.6 457.1,273.4 458.2,261.0 459.3,263.4 460.4,257.8 461.6,265.6 462.7,262.2 463.8,262.1 464.9,262.1 466.0,254.3 467.1,262.8 468.2,257.4 469.3,261.5 470.4,249.6 471.6,254.9 472.7,260.6 473.8,262.8 474.9,263.7 476.0,259.3 477.1,258.4 478.2,252.3 479.3,251.5 480.4,254.4 481.6,233.7 482.7,246.8 483.8,259.0 484.9,247.4 486.0,244.3 487.1,249.6 488.2,251.4 489.3,253.2 490.4,252.7 491.6,254.5 492.7,255.1 493.8,251.1 494.9,261.9 496.0,260.5 497.1,265.7 498.2,260.3 499.3,265.4 500.4,257.3 501.6,253.9 502.7,261.6 503.8,244.2 504.9,253.1 506.0,245.6 507.1,249.2 508.2,235.1 509.3,243.1 510.4,248.1 511.6,255.7 512.7,236.3 513.8,251.0 514.9,236.7 516.0,242.5 517.1,247.8 518.2,246.2 519.3,246.8 520.4,245.6 521.6,253.2 522.7,266.1 523.8,257.9 524.9,214.6 526.0,221.0 527.1,217.1 528.2,231.6 529.3,220.8 530.4,221.3 531.6,229.0 532.7,250.2 533.8,248.0 534.9,234.3 536.0,246.0 537.1,245.0 538.2,252.9 539.3,245.9 540.4,247.4 541.6,248.3 542.7,247.7 543.8,239.1 544.9,240.8 546.0,252.0 547.1,252.9 548.2,252.0 549.3,259.5 550.4,248.6 551.6,255.6 552.7,255.6 553.8,256.2 554.9,252.6 556.0,250.4 557.1,247.5 558.2,235.3 559.3,257.7 560.4,239.4 561.6,217.5 562.7,244.7 563.8,243.3 564.9,247.4 566.0,248.5 567.1,245.5 568.2,244.6 569.3,247.9 570.4,251.0 571.6,248.9 572.7,252.3 573.8,249.7 574.9,252.3 576.0,258.4 577.1,260.8 578.2,239.5 579.3,262.6 580.4,268.1 581.6,271.0 582.7,253.1 583.8,249.5 584.9,256.8 586.0,242.4 587.1,244.6 588.2,235.9 589.3,245.9 590.4,252.1 591.6,240.5 592.7,234.4 593.8,239.0 594.9,241.9 596.0,235.1 597.1,252.6 598.2,245.0 599.3,244.3 600.4,262.3 601.6,305.5 602.7,249.9 603.8,245.8 604.9,258.9 606.0,255.9 607.1,253.1 608.2,256.3 609.3,245.1 610.4,242.3 611.6,240.8 612.7,242.9 613.8,248.5 614.9,241.0 616.0,237.3 617.1,242.1 618.2,239.8 619.3,236.5 620.4,241.5 621.6,247.0 622.7,243.4 623.8,245.8 624.9,248.9 626.0,238.6 627.1,251.6 628.2,249.4 629.3,276.3 630.4,259.7 631.6,250.9 632.7,269.4 633.8,251.6 634.9,254.3 636.0,253.9 637.1,248.4 638.2,238.0 639.3,246.8 640.4,247.0 641.6,245.2 642.7,246.2 643.8,236.4 644.9,240.2 646.0,239.9 647.1,265.2 648.2,243.4 649.3,244.6 650.4,240.0 651.6,250.6 652.7,252.1 653.8,260.3 654.9,245.6 656.0,263.7 657.1,248.6 658.2,262.8 659.3,265.9 660.4,248.1 661.6,254.3 662.7,247.2 663.8,252.3 664.9,246.3 666.0,251.2 667.1,245.4 668.2,241.8 669.3,237.3 670.4,251.5 671.6,246.1 672.7,239.7 673.8,238.8 674.9,245.5 676.0,247.4 677.1,254.5 678.2,236.8 679.3,251.2 680.4,251.9 681.6,255.6 682.7,260.8 683.8,260.8 684.9,256.8 686.0,248.6 687.1,250.9 688.2,258.6 689.3,252.0 690.4,247.8 691.6,242.0 692.7,235.9 693.8,240.3 694.9,241.3 696.0,243.0 697.1,250.0 698.2,251.4 699.3,248.2 700.4,247.2 701.6,243.8 702.7,247.8 703.8,250.6 704.9,243.7 706.0,249.4 707.1,257.8 708.2,256.4 709.3,266.0 710.4,253.2 711.6,257.3 712.7,254.9 713.8,263.9 714.9,255.6 716.0,243.4 717.1,246.3 718.2,236.2 719.3,243.4 720.4,247.6 721.6,232.1 722.7,245.1 723.8,241.1 724.9,245.4 726.0,244.3 727.1,245.7 728.2,244.9 729.3,237.9 730.4,243.8 731.6,240.4 732.7,257.6 733.8,256.3 734.9,256.7 736.0,257.1 737.1,257.2 738.2,263.0 739.3,256.8 740.4,255.5 741.6,256.1 742.7,252.2 743.8,269.8 744.9,254.4 746.0,246.0 747.1,249.9 748.2,237.3 749.3,240.6 750.4,246.0 751.6,254.5 752.7,250.8 753.8,250.9 754.9,252.8 756.0,243.7 757.1,250.9 758.2,251.9 759.3,264.5 760.4,263.0 761.6,262.2 762.7,258.8 763.8,264.6 764.9,255.8 766.0,263.3 767.1,253.6 768.2,256.9 769.3,252.5 770.4,255.3 771.6,252.6 772.7,246.8 773.8,248.8 774.9,241.7 776.0,242.1 777.1,248.9 778.2,250.9 779.3,245.3 780.4,247.8 781.6,246.7 782.7,252.2 783.8,248.6 784.9,256.6 786.0,253.4 787.1,255.6 788.2,260.2 789.3,251.7 790.4,253.8 791.6,264.5 792.7,255.3 793.8,263.6 794.9,248.5 796.0,252.2 797.1,250.8 798.2,253.1 799.3,244.8 800.4,253.0 801.6,244.6 802.7,248.3 803.8,251.8 804.9,245.9 806.0,246.0 807.1,261.2 808.2,255.5 809.3,251.8 810.4,251.4 811.6,254.2 812.7,255.0 813.8,255.0 814.9,265.9 816.0,248.1 817.1,272.1 818.2,254.3 819.3,257.3 820.4,258.3 821.6,243.2 822.7,251.2 823.8,252.1 824.9,251.2 826.0,251.9 827.1,266.5 828.2,260.3 829.3,243.4 830.4,245.9 831.6,345.6 832.7,341.0 833.8,341.4 834.9,339.1 836.0,340.1 837.1,345.0 838.2,343.8 839.3,343.3 840.4,343.1 841.6,343.9 842.7,341.5 843.8,341.0 844.9,342.3 846.0,341.5 847.1,345.3 848.2,340.9 849.3,350.1 850.4,340.2 851.6,342.7 852.7,340.3 853.8,340.1 854.9,341.1 856.0,339.5 857.1,343.3 858.2,343.2 859.3,340.7 860.4,342.2 861.6,341.2 862.7,341.9 863.8,340.0 864.9,344.3 866.0,338.1 867.1,340.6 868.2,342.6 869.3,342.9 870.4,342.3 871.6,345.1 872.7,342.7 873.8,342.9 874.9,340.6 876.0,341.6 877.1,339.6 878.2,341.3 879.3,341.5 880.4,341.0 881.6,342.0 882.7,339.2 883.8,339.6 884.9,340.4 886.0,340.9 887.1,335.8 888.2,335.6 889.3,334.7 890.4,340.2 891.6,340.4 892.7,340.3 893.8,339.6 894.9,342.0 896.0,341.5 897.1,342.0 898.2,343.1 899.3,342.0 900.4,340.6 901.6,334.9 902.7,339.8 903.8,340.6 904.9,340.3 906.0,338.2 907.1,339.3 908.2,338.7 909.3,346.4 910.4,288.7 911.6,339.1 912.7,340.3 913.8,342.0 914.9,341.7 916.0,339.6 917.1,312.1 918.2,343.5 919.3,342.2 920.4,322.7 921.6,348.9 922.7,344.5 923.8,342.6 924.9,342.4 926.0,337.4 927.1,336.7 928.2,331.5 929.3,316.9 930.4,313.8 931.6,336.5 932.7,339.3 933.8,351.6 934.9,341.7 936.0,317.1 937.1,341.6 938.2,334.3 939.3,338.9 940.4,348.0 941.6,317.1 942.7,340.6 943.8,341.7 944.9,340.6 946.0,342.8" fill="none" stroke="#7c3aed" stroke-width="2.2" stroke-linejoin="round" stroke-linecap="round"/>
<line x1="76" y1="70" x2="94" y2="70" stroke="#2563eb" stroke-width="3"/>
<text x="100" y="74" font-family="Arial, sans-serif" font-size="11" fill="#0f172a">tx count</text>
<line x1="186" y1="70" x2="204" y2="70" stroke="#7c3aed" stroke-width="3"/>
<text x="210" y="74" font-family="Arial, sans-serif" font-size="11" fill="#0f172a">unique accounts</text>
<text x="28" y="404" font-family="Arial, sans-serif" font-size="11" fill="#64748b">Source: hourly_features.csv; capped windows are sample counts</text>
</svg>