<svg xmlns="http://www.w3.org/2000/svg" width="980" height="420" viewBox="0 0 980 420">
<rect width="100%" height="100%" fill="#ffffff"/>
<text x="28" y="34" font-family="Arial, sans-serif" font-size="20" font-weight="700" fill="#0f172a">Network activity sample trend</text>
<text x="28" y="56" font-family="Arial, sans-serif" font-size="12" fill="#64748b">Hourly transaction sample count and unique account sample count</text>
<line x1="76" y1="362.0" x2="946" y2="362.0" stroke="#e2e8f0" stroke-width="1"/>
<text x="68" y="366.0" font-family="Arial, sans-serif" font-size="10" text-anchor="end" fill="#64748b">220</text>
<line x1="76" y1="292.0" x2="946" y2="292.0" stroke="#e2e8f0" stroke-width="1"/>
<text x="68" y="296.0" font-family="Arial, sans-serif" font-size="10" text-anchor="end" fill="#64748b">1K</text>
<line x1="76" y1="222.0" x2="946" y2="222.0" stroke="#e2e8f0" stroke-width="1"/>
<text x="68" y="226.0" font-family="Arial, sans-serif" font-size="10" text-anchor="end" fill="#64748b">3K</text>
<line x1="76" y1="152.0" x2="946" y2="152.0" stroke="#e2e8f0" stroke-width="1"/>
<text x="68" y="156.0" font-family="Arial, sans-serif" font-size="10" text-anchor="end" fill="#64748b">4K</text>
<line x1="76" y1="82.0" x2="946" y2="82.0" stroke="#e2e8f0" stroke-width="1"/>
<text x="68" y="86.0" font-family="Arial, sans-serif" font-size="10" text-anchor="end" fill="#64748b">5K</text>
<line x1="76" y1="362" x2="946" y2="362" stroke="#334155" stroke-width="1"/>
<line x1="76" y1="82" x2="76" y2="362" stroke="#334155" stroke-width="1"/>
<text x="76" y="72" font-family="Arial, sans-serif" font-size="11" fill="#64748b">count</text>
<line x1="76.0" y1="362" x2="76.0" y2="366" stroke="#334155" stroke-width="1"/>
<text x="76.0" y="380" font-family="Arial, sans-serif" font-size="10" text-anchor="middle" fill="#64748b">0</text>
<line x1="511.0" y1="362" x2="511.0" y2="366" stroke="#334155" stroke-width="1"/>
<text x="511.0" y="380" font-family="Arial, sans-serif" font-size="10" text-anchor="middle" fill="#64748b">433</text>
<line x1="946.0" y1="362" x2="946.0" y2="366" stroke="#334155" stroke-width="1"/>
<text x="946.0" y="380" font-family="Arial, sans-serif" font-size="10" text-anchor="middle" fill="#64748b">866</text>
<polyline points="76.0,92.4 77.0,92.4 78.0,92.4 79.0,92.4 80.0,92.4 81.0,92.4 82.0,92.4 83.0,92.4 84.0,92.4 85.0,92.4 86.0,92.4 87.1,92.4 88.1,92.4 89.1,92.4 90.1,92.4 91.1,92.4 92.1,92.4 93.1,92.4 94.1,92.4 95.1,92.4 96.1,92.4 97.1,92.4 98.1,92.4 99.1,92.4 100.1,92.4 101.1,92.4 102.1,92.4 103.1,92.4 104.1,92.4 105.1,92.4 106.1,92.4 107.1,92.4 108.1,92.4 109.2,92.4 110.2,92.4 111.2,92.4 112.2,92.4 113.2,92.4 114.2,92.4 115.2,92.4 116.2,92.4 117.2,92.4 118.2,92.4 119.2,92.4 120.2,92.4 121.2,92.4 122.2,92.4 123.2,92.4 124.2,92.4 125.2,92.4 126.2,92.4 127.2,92.4 128.2,92.4 129.2,92.4 130.2,92.4 131.3,92.4 132.3,92.4 133.3,92.4 134.3,92.4 135.3,92.4 136.3,92.4 137.3,92.4 138.3,92.4 139.3,92.4 140.3,92.4 141.3,92.4 142.3,92.4 143.3,92.4 144.3,92.4 145.3,92.4 146.3,92.4 147.3,92.4 148.3,92.4 149.3,92.4 150.3,92.4 151.3,92.4 152.4,92.4 153.4,92.4 154.4,92.4 155.4,92.4 156.4,92.4 157.4,92.4 158.4,92.4 159.4,92.4 160.4,92.4 161.4,92.4 162.4,92.4 163.4,92.4 164.4,92.4 165.4,92.4 166.4,92.4 167.4,92.4 168.4,92.4 169.4,92.4 170.4,92.4 171.4,92.4 172.4,92.4 173.4,92.4 174.5,92.4 175.5,92.4 176.5,92.4 177.5,92.4 178.5,92.4 179.5,92.4 180.5,92.4 181.5,92.4 182.5,92.4 183.5,92.4 184.5,92.4 185.5,92.4 186.5,92.4 187.5,92.4 188.5,92.4 189.5,92.4 190.5,92.4 191.5,92.4 192.5,92.4 193.5,92.4 194.5,92.4 195.5,92.4 196.6,92.4 197.6,92.4 198.6,92.4 199.6,92.4 200.6,92.4 201.6,92.4 202.6,92.4 203.6,92.4 204.6,92.4 205.6,92.4 206.6,92.4 207.6,92.4 208.6,92.4 209.6,92.4 210.6,92.4 211.6,92.4 212.6,92.4 213.6,92.4 214.6,92.4 215.6,92.4 216.6,92.4 217.7,92.4 218.7,92.4 219.7,92.4 220.7,92.4 221.7,92.4 222.7,92.4 223.7,92.4 224.7,92.4 225.7,92.4 226.7,92.4 227.7,92.4 228.7,92.4 229.7,92.4 230.7,92.4 231.7,92.4 232.7,92.4 233.7,92.4 234.7,92.4 235.7,92.4 236.7,92.4 237.7,92.4 238.7,92.4 239.8,92.4 240.8,92.4 241.8,92.4 242.8,92.4 243.8,92.4 244.8,92.4 245.8,92.4 246.8,92.4 247.8,92.4 248.8,92.4 249.8,92.4 250.8,92.4 251.8,92.4 252.8,92.4 253.8,92.4 254.8,92.4 255.8,92.4 256.8,92.4 257.8,92.4 258.8,92.4 259.8,92.4 260.8,92.4 261.9,92.4 262.9,92.4 263.9,92.4 264.9,92.4 265.9,92.4 266.9,92.4 267.9,92.4 268.9,92.4 269.9,92.4 270.9,92.4 271.9,92.4 272.9,92.4 273.9,92.4 274.9,92.4 275.9,92.4 276.9,92.4 277.9,92.4 278.9,92.4 279.9,92.4 280.9,92.4 281.9,92.4 283.0,92.4 284.0,92.4 285.0,92.4 286.0,92.4 287.0,92.4 288.0,92.4 289.0,92.4 290.0,92.4 291.0,92.4 292.0,92.4 293.0,92.4 294.0,92.4 295.0,92.4 296.0,92.4 297.0,92.4 298.0,92.4 299.0,92.4 300.0,92.4 301.0,92.4 302.0,92.4 303.0,92.4 304.0,92.4 305.1,92.4 306.1,92.4 307.1,92.4 308.1,92.4 309.1,92.4 310.1,92.4 311.1,92.4 312.1,92.4 313.1,92.4 314.1,92.4 315.1,92.4 316.1,92.4 317.1,92.4 318.1,92.4 319.1,92.4 320.1,92.4 321.1,92.4 322.1,92.4 323.1,92.4 324.1,92.4 325.1,92.4 326.2,92.4 327.2,92.4 328.2,92.4 329.2,92.4 330.2,92.4 331.2,92.4 332.2,92.4 333.2,92.4 334.2,92.4 335.2,92.4 336.2,92.4 337.2,92.4 338.2,92.4 339.2,92.4 340.2,92.4 341.2,92.4 342.2,92.4 343.2,92.4 344.2,92.4 345.2,92.4 346.2,92.4 347.2,92.4 348.3,92.4 349.3,92.4 350.3,92.4 351.3,92.4 352.3,92.4 353.3,92.4 354.3,92.4 355.3,92.4 356.3,92.4 357.3,92.4 358.3,92.4 359.3,92.4 360.3,92.4 361.3,92.4 362.3,92.4 363.3,92.4 364.3,92.4 365.3,92.4 366.3,92.4 367.3,92.4 368.3,92.4 369.3,92.4 370.4,92.4 371.4,92.4 372.4,92.4 373.4,92.4 374.4,92.4 375.4,92.4 376.4,92.4 377.4,92.4 378.4,92.4 379.4,92.4 380.4,92.4 381.4,92.4 382.4,92.4 383.4,92.4 384.4,92.4 385.4,92.4 386.4,92.4 387.4,92.4 388.4,92.4 389.4,92.4 390.4,92.4 391.5,92.4 392.5,92.4 393.5,92.4 394.5,92.4 395.5,92.4 396.5,92.4 397.5,92.4 398.5,92.4 399.5,92.4 400.5,92.4 401.5,92.4 402.5,92.4 403.5,92.4 404.5,92.4 405.5,92.4 406.5,92.4 407.5,92.4 408.5,92.4 409.5,92.4 410.5,92.4 411.5,92.4 412.5,92.4 413.6,92.4 414.6,92.4 415.6,92.4 416.6,92.4 417.6,92.4 418.6,92.4 419.6,92.4 420.6,92.4 421.6,92.4 422.6,92.4 423.6,92.4 424.6,92.4 425.6,92.4 426.6,92.4 427.6,92.4 428.6,92.4 429.6,92.4 430.6,92.4 431.6,92.4 432.6,92.4 433.6,92.4 434.6,92.4 435.7,92.4 436.7,92.4 437.7,92.4 438.7,92.4 439.7,92.4 440.7,92.4 441.7,92.4 442.7,92.4 443.7,92.4 444.7,92.4 445.7,92.4 446.7,92.4 447.7,92.4 448.7,92.4 449.7,92.4 450.7,92.4 451.7,92.4 452.7,92.4 453.7,92.4 454.7,92.4 455.7,92.4 456.8,92.4 457.8,92.4 458.8,92.4 459.8,92.4 460.8,92.4 461.8,92.4 462.8,92.4 463.8,92.4 464.8,92.4 465.8,92.4 466.8,92.4 467.8,92.4 468.8,92.4 469.8,92.4 470.8,92.4 471.8,92.4 472.8,92.4 473.8,92.4 474.8,92.4 475.8,92.4 476.8,92.4 477.8,92.4 478.9,92.4 479.9,92.4 480.9,92.4 481.9,92.4 482.9,92.4 483.9,92.4 484.9,92.4 485.9,92.4 486.9,92.4 487.9,92.4 488.9,92.4 489.9,92.4 490.9,92.4 491.9,92.4 492.9,92.4 493.9,92.4 494.9,92.4 495.9,92.4 496.9,92.4 497.9,92.4 498.9,92.4 499.9,92.4 501.0,92.4 502.0,92.4 503.0,92.4 504.0,92.4 505.0,92.4 506.0,92.4 507.0,92.4 508.0,92.4 509.0,92.4 510.0,92.4 511.0,92.4 512.0,92.4 513.0,92.4 514.0,92.4 515.0,92.4 516.0,92.4 517.0,92.4 518.0,92.4 519.0,92.4 520.0,92.4 521.0,92.4 522.1,92.4 523.1,92.4 524.1,92.4 525.1,92.4 526.1,92.4 527.1,92.4 528.1,92.4 529.1,92.4 530.1,92.4 531.1,92.4 532.1,92.4 533.1,92.4 534.1,92.4 535.1,92.4 536.1,92.4 537.1,92.4 538.1,92.4 539.1,92.4 540.1,92.4 541.1,92.4 542.1,92.4 543.1,92.4 544.2,92.4 545.2,92.4 546.2,92.4 547.2,92.4 548.2,92.4 549.2,92.4 550.2,92.4 551.2,92.4 552.2,92.4 553.2,92.4 554.2,92.4 555.2,92.4 556.2,92.4 557.2,92.4 558.2,92.4 559.2,92.4 560.2,92.4 561.2,92.4 562.2,92.4 563.2,92.4 564.2,92.4 565.2,92.4 566.3,92.4 567.3,92.4 568.3,92.4 569.3,92.4 570.3,92.4 571.3,92.4 572.3,92.4 573.3,92.4 574.3,92.4 575.3,92.4 576.3,92.4 577.3,92.4 578.3,92.4 579.3,92.4 580.3,92.4 581.3,92.4 582.3,92.4 583.3,92.4 584.3,92.4 585.3,92.4 586.3,92.4 587.4,92.4 588.4,92.4 589.4,92.4 590.4,92.4 591.4,92.4 592.4,92.4 593.4,92.4 594.4,92.4 595.4,92.4 596.4,92.4 597.4,92.4 598.4,92.4 599.4,92.4 600.4,92.4 601.4,92.4 602.4,92.4 603.4,92.4 604.4,92.4 605.4,92.4 606.4,92.4 607.4,92.4 608.4,92.4 609.5,92.4 610.5,92.4 611.5,92.4 612.5,92.4 613.5,92.4 614.5,92.4 615.5,92.4 616.5,92.4 617.5,92.4 618.5,92.4 619.5,92.4 620.5,92.4 621.5,92.4 622.5,92.4 623.5,92.4 624.5,92.4 625.5,92.4 626.5,92.4 627.5,92.4 628.5,92.4 629.5,92.4 630.5,92.4 631.6,92.4 632.6,92.4 633.6,92.4 634.6,92.4 635.6,92.4 636.6,92.4 637.6,92.4 638.6,92.4 639.6,92.4 640.6,92.4 641.6,92.4 642.6,92.4 643.6,92.4 644.6,92.4 645.6,92.4 646.6,92.4 647.6,92.4 648.6,92.4 649.6,92.4 650.6,92.4 651.6,92.4 652.7,92.4 653.7,92.4 654.7,92.4 655.7,92.4 656.7,92.4 657.7,92.4 658.7,92.4 659.7,92.4 660.7,92.4 661.7,92.4 662.7,92.4 663.7,92.4 664.7,92.4 665.7,92.4 666.7,92.4 667.7,92.4 668.7,92.4 669.7,92.4 670.7,92.4 671.7,92.4 672.7,92.4 673.7,92.4 674.8,92.4 675.8,92.4 676.8,92.4 677.8,92.4 678.8,92.4 679.8,92.4 680.8,92.4 681.8,92.4 682.8,92.4 683.8,92.4 684.8,92.4 685.8,92.4 686.8,92.4 687.8,92.4 688.8,92.4 689.8,92.4 690.8,92.4 691.8,92.4 692.8,92.4 693.8,92.4 694.8,92.4 695.8,92.4 696.9,92.4 697.9,92.4 698.9,92.4 699.9,92.4 700.9,92.4 701.9,92.4 702.9,92.4 703.9,92.4 704.9,92.4 705.9,92.4 706.9,92.4 707.9,92.4 708.9,92.4 709.9,92.4 710.9,92.4 711.9,92.4 712.9,92.4 713.9,92.4 714.9,92.4 715.9,92.4 716.9,92.4 718.0,92.4 719.0,92.4 720.0,92.4 721.0,92.4 722.0,92.4 723.0,92.4 724.0,92.4 725.0,92.4 726.0,92.4 727.0,92.4 728.0,92.4 729.0,92.4 730.0,92.4 731.0,92.4 732.0,92.4 733.0,92.4 734.0,92.4 735.0,92.4 736.0,92.4 737.0,92.4 738.0,92.4 739.0,92.4 740.1,92.4 741.1,92.4 742.1,92.4 743.1,92.4 744.1,92.4 745.1,92.4 746.1,92.4 747.1,92.4 748.1,92.4 749.1,92.4 750.1,92.4 751.1,92.4 752.1,92.4 753.1,92.4 754.1,92.4 755.1,92.4 756.1,92.4 757.1,92.4 758.1,92.4 759.1,318.0 760.1,318.0 761.2,318.0 762.2,318.0 763.2,318.0 764.2,318.0 765.2,318.0 766.2,318.0 767.2,318.0 768.2,318.0 769.2,318.0 770.2,318.0 771.2,318.0 772.2,318.0 773.2,318.0 774.2,318.0 775.2,318.0 776.2,318.0 777.2,318.0 778.2,318.0 779.2,318.0 780.2,318.0 781.2,318.0 782.2,318.0 783.3,318.0 784.3,318.0 785.3,318.0 786.3,318.0 787.3,318.0 788.3,318.0 789.3,318.0 790.3,318.0 791.3,318.0 792.3,318.0 793.3,318.0 794.3,318.0 795.3,318.0 796.3,318.0 797.3,318.0 798.3,318.0 799.3,318.0 800.3,318.0 801.3,318.0 802.3,318.0 803.3,318.0 804.3,318.0 805.4,318.0 806.4,318.0 807.4,318.0 808.4,318.0 809.4,318.0 810.4,318.0 811.4,318.0 812.4,318.0 813.4,318.0 814.4,318.0 815.4,318.0 816.4,318.0 817.4,318.0 818.4,318.0 819.4,318.0 820.4,318.0 821.4,318.0 822.4,318.0 823.4,318.0 824.4,318.0 825.4,318.0 826.5,318.0 827.5,318.0 828.5,318.0 829.5,318.0 830.5,207.0 831.5,318.0 832.5,318.0 833.5,318.0 834.5,318.0 835.5,318.0 836.5,263.4 837.5,318.0 838.5,318.0 839.5,263.5 840.5,318.0 841.5,318.0 842.5,318.0 843.5,318.0 844.5,318.0 845.5,318.0 846.5,318.0 847.5,262.2 848.6,263.5 849.6,318.0 850.6,318.0 851.6,318.0 852.6,318.0 853.6,264.6 854.6,318.0 855.6,318.0 856.6,318.0 857.6,318.0 858.6,261.9 859.6,318.0 860.6,318.0 861.6,318.0 862.6,263.1 863.6,318.0 864.6,318.0 865.6,318.0 866.6,318.0 867.6,318.0 868.6,318.0 869.6,318.0 870.7,318.0 871.7,207.5 872.7,318.0 873.7,318.0 874.7,318.0 875.7,262.4 876.7,318.0 877.7,318.0 878.7,318.0 879.7,262.8 880.7,318.0 881.7,318.0 882.7,318.0 883.7,263.0 884.7,318.0 885.7,318.0 886.7,262.3 887.7,318.0 888.7,318.0 889.7,318.0 890.7,318.0 891.8,318.0 892.8,318.0 893.8,318.0 894.8,261.9 895.8,261.7 896.8,318.0 897.8,318.0 898.8,264.0 899.8,318.0 900.8,318.0 901.8,318.0 902.8,261.7 903.8,318.0 904.8,318.0 905.8,262.1 906.8,318.0 907.8,318.0 908.8,261.7 909.8,318.0 910.8,263.0 911.8,318.0 912.8,318.0 913.9,318.0 914.9,318.0 915.9,318.0 916.9,318.0 917.9,318.0 918.9,318.0 919.9,207.1 920.9,318.0 921.9,318.0 922.9,318.0 923.9,262.6 924.9,318.0 925.9,318.0 926.9,318.0 927.9,264.5 928.9,318.0 929.9,263.4 930.9,318.0 931.9,318.0 932.9,262.3 933.9,318.0 934.9,261.7 936.0,318.0 937.0,318.0 938.0,318.0 939.0,318.0 940.0,318.0 941.0,318.0 942.0,318.0 943.0,318.0 944.0,318.0 945.0,262.6 946.0,318.0" fill="none" stroke="#2563eb" stroke-width="2.2" stroke-linejoin="round" stroke-linecap="round"/>
<polyline points="76.0,262.8 77.0,258.8 78.0,249.5 79.0,247.2 80.0,250.9 81.0,240.3 82.0,239.7 83.0,243.5 84.0,248.5 85.0,248.0 86.0,264.6 87.1,246.1 88.1,245.2 89.1,246.9 90.1,251.1 91.1,259.3 92.1,256.5 93.1,254.2 94.1,251.6 95.1,256.6 96.1,261.5 97.1,257.5 98.1,255.6 99.1,255.2 100.1,249.2 101.1,247.7 102.1,249.7 103.1,241.1 104.1,232.5 105.1,241.2 106.1,243.5 107.1,257.3 108.1,251.0 109.2,250.7 110.2,255.2 111.2,250.5 112.2,247.4 113.2,253.4 114.2,247.1 115.2,247.0 116.2,244.7 117.2,261.9 118.2,258.2 119.2,254.2 120.2,219.8 121.2,222.3 122.2,255.3 123.2,251.2 124.2,237.3 125.2,219.3 126.2,239.9 127.2,251.2 128.2,243.9 129.2,242.1 130.2,243.9 131.3,246.7 132.3,244.4 133.3,250.0 134.3,241.3 135.3,247.0 136.3,238.8 137.3,245.4 138.3,243.9 139.3,285.1 140.3,270.0 141.3,262.3 142.3,270.1 143.3,267.0 144.3,238.5 145.3,233.8 146.3,243.4 147.3,259.9 148.3,272.4 149.3,246.0 150.3,245.5 151.3,248.1 152.4,261.0 153.4,250.4 154.4,259.1 155.4,245.9 156.4,240.5 157.4,253.9 158.4,249.9 159.4,254.6 160.4,255.7 161.4,254.0 162.4,261.9 163.4,251.4 164.4,251.4 165.4,253.7 166.4,250.0 167.4,268.3 168.4,231.5 169.4,255.8 170.4,251.1 171.4,218.2 172.4,256.5 173.4,245.2 174.5,247.9 175.5,226.9 176.5,246.1 177.5,248.3 178.5,241.0 179.5,249.4 180.5,243.6 181.5,250.1 182.5,244.3 183.5,242.8 184.5,242.6 185.5,248.1 186.5,245.4 187.5,251.8 188.5,237.9 189.5,251.4 190.5,252.6 191.5,250.9 192.5,220.0 193.5,203.6 194.5,214.7 195.5,215.7 196.6,215.3 197.6,224.9 198.6,220.4 199.6,216.0 200.6,243.5 201.6,246.4 202.6,241.9 203.6,243.2 204.6,242.2 205.6,241.7 206.6,242.6 207.6,244.6 208.6,243.4 209.6,245.1 210.6,249.7 211.6,245.1 212.6,258.2 213.6,257.8 214.6,248.2 215.6,263.2 216.6,290.3 217.7,254.2 218.7,268.2 219.7,255.6 220.7,253.3 221.7,253.6 222.7,250.8 223.7,251.8 224.7,245.2 225.7,251.1 226.7,244.3 227.7,242.4 228.7,240.7 229.7,242.6 230.7,251.4 231.7,264.1 232.7,247.2 233.7,252.2 234.7,250.9 235.7,253.1 236.7,253.4 237.7,258.6 238.7,260.8 239.8,259.1 240.8,292.1 241.8,255.7 242.8,270.2 243.8,236.2 244.8,252.1 245.8,245.1 246.8,249.0 247.8,240.5 248.8,242.6 249.8,248.7 250.8,243.1 251.8,236.6 252.8,245.7 253.8,247.5 254.8,241.4 255.8,245.2 256.8,245.0 257.8,246.8 258.8,247.8 259.8,251.7 260.8,253.2 261.9,259.1 262.9,263.5 263.9,252.2 264.9,285.5 265.9,251.7 266.9,255.1 267.9,250.6 268.9,249.8 269.9,242.9 270.9,242.4 271.9,242.2 272.9,241.0 273.9,247.3 274.9,248.1 275.9,258.9 276.9,257.3 277.9,253.8 278.9,250.1 279.9,255.8 280.9,247.6 281.9,253.5 283.0,245.9 284.0,253.4 285.0,258.1 286.0,261.3 287.0,258.9 288.0,266.2 289.0,297.6 290.0,260.0 291.0,260.3 292.0,258.6 293.0,257.8 294.0,249.6 295.0,247.9 296.0,245.9 297.0,252.3 298.0,248.8 299.0,245.4 300.0,245.5 301.0,241.2 302.0,248.2 303.0,240.3 304.0,241.3 305.1,240.9 306.1,255.8 307.1,255.5 308.1,254.2 309.1,259.3 310.1,273.3 311.1,257.9 312.1,260.5 313.1,258.2 314.1,252.3 315.1,232.0 316.1,219.6 317.1,257.6 318.1,245.0 319.1,228.2 320.1,224.5 321.1,224.1 322.1,223.8 323.1,222.7 324.1,239.3 325.1,231.7 326.2,235.3 327.2,236.0 328.2,245.7 329.2,256.8 330.2,266.4 331.2,245.2 332.2,283.8 333.2,250.1 334.2,265.2 335.2,256.9 336.2,258.4 337.2,265.9 338.2,249.6 339.2,209.8 340.2,220.6 341.2,223.0 342.2,225.7 343.2,215.1 344.2,227.4 345.2,222.0 346.2,209.0 347.2,242.0 348.3,239.8 349.3,248.9 350.3,251.4 351.3,247.5 352.3,243.7 353.3,252.6 354.3,250.3 355.3,248.7 356.3,267.5 357.3,252.2 358.3,247.7 359.3,258.9 360.3,227.2 361.3,211.3 362.3,216.8 363.3,255.8 364.3,251.6 365.3,245.4 366.3,270.3 367.3,239.4 368.3,244.7 369.3,243.3 370.4,250.8 371.4,232.4 372.4,242.8 373.4,244.7 374.4,265.4 375.4,239.2 376.4,244.6 377.4,242.8 378.4,247.8 379.4,246.7 380.4,263.6 381.4,250.8 382.4,258.2 383.4,254.7 384.4,251.7 385.4,265.0 386.4,252.6 387.4,259.2 388.4,263.9 389.4,253.9 390.4,230.0 391.5,224.2 392.5,257.9 393.5,245.8 394.5,252.8 395.5,255.5 396.5,248.1 397.5,251.2 398.5,250.1 399.5,248.5 400.5,245.4 401.5,265.0 402.5,263.0 403.5,258.3 404.5,262.4 405.5,259.0 406.5,283.8 407.5,276.5 408.5,273.1 409.5,276.5 410.5,282.7 411.5,282.5 412.5,277.7 413.6,281.6 414.6,283.5 415.6,278.5 416.6,276.0 417.6,265.8 418.6,251.2 419.6,259.6 420.6,273.4 421.6,261.0 422.6,263.4 423.6,257.8 424.6,265.6 425.6,262.2 426.6,262.1 427.6,262.1 428.6,254.3 429.6,262.8 430.6,257.4 431.6,261.5 432.6,249.6 433.6,254.9 434.6,260.6 435.7,262.8 436.7,263.7 437.7,259.3 438.7,258.4 439.7,252.3 440.7,251.5 441.7,254.4 442.7,233.7 443.7,246.8 444.7,259.0 445.7,247.4 446.7,244.3 447.7,249.6 448.7,251.4 449.7,253.2 450.7,252.7 451.7,254.5 452.7,255.1 453.7,251.1 454.7,261.9 455.7,260.5 456.8,265.7 457.8,260.3 458.8,265.4 459.8,257.3 460.8,253.9 461.8,261.6 462.8,244.2 463.8,253.1 464.8,245.6 465.8,249.2 466.8,235.1 467.8,243.1 468.8,248.1 469.8,255.7 470.8,236.3 471.8,251.0 472.8,236.7 473.8,242.5 474.8,247.8 475.8,246.2 476.8,246.8 477.8,245.6 478.9,253.2 479.9,266.1 480.9,257.9 481.9,214.6 482.9,221.0 483.9,217.1 484.9,231.6 485.9,220.8 486.9,221.3 487.9,229.0 488.9,250.2 489.9,248.0 490.9,234.3 491.9,246.0 492.9,245.0 493.9,252.9 494.9,245.9 495.9,247.4 496.9,248.3 497.9,247.7 498.9,239.1 499.9,240.8 501.0,252.0 502.0,252.9 503.0,252.0 504.0,259.5 505.0,248.6 506.0,255.6 507.0,255.6 508.0,256.2 509.0,252.6 510.0,250.4 511.0,247.5 512.0,235.3 513.0,257.7 514.0,239.4 515.0,217.5 516.0,244.7 517.0,243.3 518.0,247.4 519.0,248.5 520.0,245.5 521.0,244.6 522.1,247.9 523.1,251.0 524.1,248.9 525.1,252.3 526.1,249.7 527.1,252.3 528.1,258.4 529.1,260.8 530.1,239.5 531.1,262.6 532.1,268.1 533.1,271.0 534.1,253.1 535.1,249.5 536.1,256.8 537.1,242.4 538.1,244.6 539.1,235.9 540.1,245.9 541.1,252.1 542.1,240.5 543.1,234.4 544.2,239.0 545.2,241.9 546.2,235.1 547.2,252.6 548.2,245.0 549.2,244.3 550.2,262.3 551.2,305.5 552.2,249.9 553.2,245.8 554.2,258.9 555.2,255.9 556.2,253.1 557.2,256.3 558.2,245.1 559.2,242.3 560.2,240.8 561.2,242.9 562.2,248.5 563.2,241.0 564.2,237.3 565.2,242.1 566.3,239.8 567.3,236.5 568.3,241.5 569.3,247.0 570.3,243.4 571.3,245.8 572.3,248.9 573.3,238.6 574.3,251.6 575.3,249.4 576.3,276.3 577.3,259.7 578.3,250.9 579.3,269.4 580.3,251.6 581.3,254.3 582.3,253.9 583.3,248.4 584.3,238.0 585.3,246.8 586.3,247.0 587.4,245.2 588.4,246.2 589.4,236.4 590.4,240.2 591.4,239.9 592.4,265.2 593.4,243.4 594.4,244.6 595.4,240.0 596.4,250.6 597.4,252.1 598.4,260.3 599.4,245.6 600.4,263.7 601.4,248.6 602.4,262.8 603.4,265.9 604.4,248.1 605.4,254.3 606.4,247.2 607.4,252.3 608.4,246.3 609.5,251.2 610.5,245.4 611.5,241.8 612.5,237.3 613.5,251.5 614.5,246.1 615.5,239.7 616.5,238.8 617.5,245.5 618.5,247.4 619.5,254.5 620.5,236.8 621.5,251.2 622.5,251.9 623.5,255.6 624.5,260.8 625.5,260.8 626.5,256.8 627.5,248.6 628.5,250.9 629.5,258.6 630.5,252.0 631.6,247.8 632.6,242.0 633.6,235.9 634.6,240.3 635.6,241.3 636.6,243.0 637.6,250.0 638.6,251.4 639.6,248.2 640.6,247.2 641.6,243.8 642.6,247.8 643.6,250.6 644.6,243.7 645.6,249.4 646.6,257.8 647.6,256.4 648.6,266.0 649.6,253.2 650.6,257.3 651.6,254.9 652.7,263.9 653.7,255.6 654.7,243.4 655.7,246.3 656.7,236.2 657.7,243.4 658.7,247.6 659.7,232.1 660.7,245.1 661.7,241.1 662.7,245.4 663.7,244.3 664.7,245.7 665.7,244.9 666.7,237.9 667.7,243.8 668.7,240.4 669.7,257.6 670.7,256.3 671.7,256.7 672.7,257.1 673.7,257.2 674.8,263.0 675.8,256.8 676.8,255.5 677.8,256.1 678.8,252.2 679.8,269.8 680.8,254.4 681.8,246.0 682.8,249.9 683.8,237.3 684.8,240.6 685.8,246.0 686.8,254.5 687.8,250.8 688.8,250.9 689.8,252.8 690.8,243.7 691.8,250.9 692.8,251.9 693.8,264.5 694.8,263.0 695.8,262.2 696.9,258.8 697.9,264.6 698.9,255.8 699.9,263.3 700.9,253.6 701.9,256.9 702.9,252.5 703.9,255.3 704.9,252.6 705.9,246.8 706.9,248.8 707.9,241.7 708.9,242.1 709.9,248.9 710.9,250.9 711.9,245.3 712.9,247.8 713.9,246.7 714.9,252.2 715.9,248.6 716.9,256.6 718.0,253.4 719.0,255.6 720.0,260.2 721.0,251.7 722.0,253.8 723.0,264.5 724.0,255.3 725.0,263.6 726.0,248.5 727.0,252.2 728.0,250.8 729.0,253.1 730.0,244.8 731.0,253.0 732.0,244.6 733.0,248.3 734.0,251.8 735.0,245.9 736.0,246.0 737.0,261.2 738.0,255.5 739.0,251.8 740.1,251.4 741.1,254.2 742.1,255.0 743.1,255.0 744.1,265.9 745.1,248.1 746.1,272.1 747.1,254.3 748.1,257.3 749.1,258.3 750.1,243.2 751.1,251.2 752.1,252.1 753.1,251.2 754.1,251.9 755.1,266.5 756.1,260.3 757.1,243.4 758.1,245.9 759.1,345.6 760.1,341.0 761.2,341.4 762.2,339.1 763.2,340.1 764.2,345.0 765.2,343.8 766.2,343.3 767.2,343.1 768.2,343.9 769.2,341.5 770.2,341.0 771.2,342.3 772.2,341.5 773.2,345.3 774.2,340.9 775.2,350.1 776.2,340.2 777.2,342.7 778.2,340.3 779.2,340.1 780.2,341.1 781.2,339.5 782.2,343.3 783.3,343.2 784.3,340.7 785.3,342.2 786.3,341.2 787.3,341.9 788.3,340.0 789.3,344.3 790.3,338.1 791.3,340.6 792.3,342.6 793.3,342.9 794.3,342.3 795.3,345.1 796.3,342.7 797.3,342.9 798.3,340.6 799.3,341.6 800.3,339.6 801.3,341.3 802.3,341.5 803.3,341.0 804.3,342.0 805.4,339.2 806.4,339.6 807.4,340.4 808.4,340.9 809.4,335.8 810.4,335.6 811.4,334.7 812.4,340.2 813.4,340.4 814.4,340.3 815.4,339.6 816.4,342.0 817.4,341.5 818.4,342.0 819.4,343.1 820.4,342.0 821.4,340.6 822.4,334.9 823.4,339.8 824.4,340.6 825.4,340.3 826.5,338.2 827.5,339.3 828.5,338.7 829.5,346.4 830.5,288.7 831.5,339.1 832.5,340.3 833.5,342.0 834.5,341.7 835.5,339.6 836.5,312.1 837.5,343.5 838.5,342.2 839.5,322.7 840.5,348.9 841.5,344.5 842.5,342.6 843.5,342.4 844.5,337.4 845.5,336.7 846.5,331.5 847.5,316.9 848.6,313.8 849.6,336.5 850.6,339.3 851.6,351.6 852.6,341.7 853.6,317.1 854.6,341.6 855.6,334.3 856.6,338.9 857.6,348.0 858.6,317.1 859.6,340.6 860.6,341.7 861.6,340.6 862.6,319.1 863.6,347.2 864.6,345.5 865.6,345.7 866.6,345.8 867.6,345.1 868.6,346.2 869.6,346.7 870.7,351.1 871.7,313.1 872.7,349.0 873.7,346.7 874.7,345.7 875.7,319.3 876.7,345.8 877.7,339.2 878.7,344.5 879.7,321.3 880.7,341.8 881.7,345.7 882.7,343.1 883.7,324.3 884.7,350.6 885.7,345.0 886.7,326.2 887.7,345.3 888.7,345.4 889.7,344.2 890.7,342.9 891.8,345.7 892.8,345.4 893.8,343.6 894.8,320.0 895.8,320.0 896.8,347.3 897.8,343.8 898.8,316.3 899.8,341.6 900.8,340.2 901.8,341.8 902.8,296.9 903.8,344.3 904.8,343.9 905.8,315.0 906.8,347.3 907.8,342.9 908.8,322.7 909.8,347.9 910.8,322.0 911.8,340.4 912.8,347.6 913.9,347.1 914.9,345.1 915.9,342.7 916.9,343.7 917.9,345.5 918.9,344.0 919.9,296.5 920.9,343.7 921.9,345.8 922.9,340.6 923.9,314.7 924.9,345.6 925.9,340.9 926.9,344.2 927.9,322.2 928.9,341.8 929.9,319.8 930.9,341.0 931.9,342.4 932.9,318.2 933.9,343.1 934.9,323.3 936.0,345.5 937.0,342.4 938.0,346.9 939.0,344.2 940.0,350.1 941.0,344.9 942.0,342.0 943.0,343.1 944.0,343.6 945.0,319.4 946.0,341.6" fill="none" stroke="#7c3aed" stroke-width="2.2" stroke-linejoin="round" stroke-linecap="round"/>
<line x1="76" y1="70" x2="94" y2="70" stroke="#2563eb" stroke-width="3"/>
<text x="100" y="74" font-family="Arial, sans-serif" font-size="11" fill="#0f172a">tx count</text>
<line x1="186" y1="70" x2="204" y2="70" stroke="#7c3aed" stroke-width="3"/>
<text x="210" y="74" font-family="Arial, sans-serif" font-size="11" fill="#0f172a">unique accounts</text>
<text x="28" y="404" font-family="Arial, sans-serif" font-size="11" fill="#64748b">Source: hourly_features.csv; capped windows are sample counts</text>
</svg>