<svg xmlns="http://www.w3.org/2000/svg" width="980" height="420" viewBox="0 0 980 420">
<rect width="100%" height="100%" fill="#ffffff"/>
<text x="28" y="34" font-family="Arial, sans-serif" font-size="20" font-weight="700" fill="#0f172a">Network activity sample trend</text>
<text x="28" y="56" font-family="Arial, sans-serif" font-size="12" fill="#64748b">Hourly transaction sample count and unique account sample count</text>
<line x1="76" y1="362.0" x2="946" y2="362.0" stroke="#e2e8f0" stroke-width="1"/>
<text x="68" y="366.0" font-family="Arial, sans-serif" font-size="10" text-anchor="end" fill="#64748b">-1K</text>
<line x1="76" y1="292.0" x2="946" y2="292.0" stroke="#e2e8f0" stroke-width="1"/>
<text x="68" y="296.0" font-family="Arial, sans-serif" font-size="10" text-anchor="end" fill="#64748b">7K</text>
<line x1="76" y1="222.0" x2="946" y2="222.0" stroke="#e2e8f0" stroke-width="1"/>
<text x="68" y="226.0" font-family="Arial, sans-serif" font-size="10" text-anchor="end" fill="#64748b">15K</text>
<line x1="76" y1="152.0" x2="946" y2="152.0" stroke="#e2e8f0" stroke-width="1"/>
<text x="68" y="156.0" font-family="Arial, sans-serif" font-size="10" text-anchor="end" fill="#64748b">23K</text>
<line x1="76" y1="82.0" x2="946" y2="82.0" stroke="#e2e8f0" stroke-width="1"/>
<text x="68" y="86.0" font-family="Arial, sans-serif" font-size="10" text-anchor="end" fill="#64748b">31K</text>
<line x1="76" y1="362" x2="946" y2="362" stroke="#334155" stroke-width="1"/>
<line x1="76" y1="82" x2="76" y2="362" stroke="#334155" stroke-width="1"/>
<text x="76" y="72" font-family="Arial, sans-serif" font-size="11" fill="#64748b">count</text>
<line x1="76.0" y1="362" x2="76.0" y2="366" stroke="#334155" stroke-width="1"/>
<text x="76.0" y="380" font-family="Arial, sans-serif" font-size="10" text-anchor="middle" fill="#64748b">0</text>
<line x1="511.3" y1="362" x2="511.3" y2="366" stroke="#334155" stroke-width="1"/>
<text x="511.3" y="380" font-family="Arial, sans-serif" font-size="10" text-anchor="middle" fill="#64748b">766</text>
<line x1="946.0" y1="362" x2="946.0" y2="366" stroke="#334155" stroke-width="1"/>
<text x="946.0" y="380" font-family="Arial, sans-serif" font-size="10" text-anchor="middle" fill="#64748b">1531</text>
<polyline points="76.0,308.5 76.6,308.5 77.1,308.5 77.7,308.5 78.3,308.5 78.8,308.5 79.4,308.5 80.0,308.5 80.5,308.5 81.1,308.5 81.7,308.5 82.3,308.5 82.8,308.5 83.4,308.5 84.0,308.5 84.5,308.5 85.1,308.5 85.7,308.5 86.2,308.5 86.8,308.5 87.4,308.5 87.9,308.5 88.5,308.5 89.1,308.5 89.6,308.5 90.2,308.5 90.8,308.5 91.3,308.5 91.9,308.5 92.5,308.5 93.0,308.5 93.6,308.5 94.2,308.5 94.8,308.5 95.3,308.5 95.9,308.5 96.5,308.5 97.0,308.5 97.6,308.5 98.2,308.5 98.7,308.5 99.3,308.5 99.9,308.5 100.4,308.5 101.0,308.5 101.6,308.5 102.1,308.5 102.7,308.5 103.3,308.5 103.8,308.5 104.4,308.5 105.0,308.5 105.5,308.5 106.1,308.5 106.7,308.5 107.3,308.5 107.8,308.5 108.4,308.5 109.0,308.5 109.5,308.5 110.1,308.5 110.7,308.5 111.2,308.5 111.8,308.5 112.4,308.5 112.9,308.5 113.5,308.5 114.1,308.5 114.6,308.5 115.2,308.5 115.8,308.5 116.3,308.5 116.9,308.5 117.5,308.5 118.1,308.5 118.6,308.5 119.2,308.5 119.8,308.5 120.3,308.5 120.9,308.5 121.5,308.5 122.0,308.5 122.6,308.5 123.2,308.5 123.7,308.5 124.3,308.5 124.9,308.5 125.4,308.5 126.0,308.5 126.6,308.5 127.1,308.5 127.7,308.5 128.3,308.5 128.8,308.5 129.4,308.5 130.0,308.5 130.6,308.5 131.1,308.5 131.7,308.5 132.3,308.5 132.8,308.5 133.4,308.5 134.0,308.5 134.5,308.5 135.1,308.5 135.7,308.5 136.2,308.5 136.8,308.5 137.4,308.5 137.9,308.5 138.5,308.5 139.1,308.5 139.6,308.5 140.2,308.5 140.8,308.5 141.3,308.5 141.9,308.5 142.5,308.5 143.1,308.5 143.6,308.5 144.2,308.5 144.8,308.5 145.3,308.5 145.9,308.5 146.5,308.5 147.0,308.5 147.6,308.5 148.2,308.5 148.7,308.5 149.3,308.5 149.9,308.5 150.4,308.5 151.0,308.5 151.6,308.5 152.1,308.5 152.7,308.5 153.3,308.5 153.9,308.5 154.4,308.5 155.0,308.5 155.6,308.5 156.1,308.5 156.7,308.5 157.3,308.5 157.8,308.5 158.4,308.5 159.0,308.5 159.5,308.5 160.1,308.5 160.7,308.5 161.2,308.5 161.8,308.5 162.4,308.5 162.9,308.5 163.5,308.5 164.1,308.5 164.6,308.5 165.2,308.5 165.8,308.5 166.4,308.5 166.9,308.5 167.5,308.5 168.1,308.5 168.6,308.5 169.2,308.5 169.8,308.5 170.3,308.5 170.9,308.5 171.5,308.5 172.0,308.5 172.6,308.5 173.2,308.5 173.7,308.5 174.3,308.5 174.9,308.5 175.4,308.5 176.0,308.5 176.6,308.5 177.1,308.5 177.7,308.5 178.3,308.5 178.9,308.5 179.4,308.5 180.0,308.5 180.6,308.5 181.1,308.5 181.7,308.5 182.3,308.5 182.8,308.5 183.4,308.5 184.0,308.5 184.5,308.5 185.1,308.5 185.7,308.5 186.2,308.5 186.8,308.5 187.4,308.5 187.9,308.5 188.5,308.5 189.1,308.5 189.7,308.5 190.2,308.5 190.8,308.5 191.4,308.5 191.9,308.5 192.5,308.5 193.1,308.5 193.6,308.5 194.2,308.5 194.8,308.5 195.3,308.5 195.9,308.5 196.5,308.5 197.0,308.5 197.6,308.5 198.2,308.5 198.7,308.5 199.3,308.5 199.9,308.5 200.4,308.5 201.0,308.5 201.6,308.5 202.2,308.5 202.7,308.5 203.3,308.5 203.9,308.5 204.4,308.5 205.0,308.5 205.6,308.5 206.1,308.5 206.7,308.5 207.3,308.5 207.8,308.5 208.4,308.5 209.0,308.5 209.5,308.5 210.1,308.5 210.7,308.5 211.2,308.5 211.8,308.5 212.4,308.5 212.9,308.5 213.5,308.5 214.1,308.5 214.7,308.5 215.2,308.5 215.8,308.5 216.4,308.5 216.9,308.5 217.5,308.5 218.1,308.5 218.6,308.5 219.2,308.5 219.8,308.5 220.3,308.5 220.9,308.5 221.5,308.5 222.0,308.5 222.6,308.5 223.2,308.5 223.7,308.5 224.3,308.5 224.9,308.5 225.5,308.5 226.0,308.5 226.6,308.5 227.2,308.5 227.7,308.5 228.3,308.5 228.9,308.5 229.4,308.5 230.0,308.5 230.6,308.5 231.1,308.5 231.7,308.5 232.3,308.5 232.8,308.5 233.4,308.5 234.0,308.5 234.5,308.5 235.1,308.5 235.7,308.5 236.2,308.5 236.8,308.5 237.4,308.5 238.0,308.5 238.5,308.5 239.1,308.5 239.7,308.5 240.2,308.5 240.8,308.5 241.4,308.5 241.9,308.5 242.5,308.5 243.1,308.5 243.6,308.5 244.2,308.5 244.8,308.5 245.3,308.5 245.9,308.5 246.5,308.5 247.0,308.5 247.6,308.5 248.2,308.5 248.7,308.5 249.3,308.5 249.9,308.5 250.5,308.5 251.0,308.5 251.6,308.5 252.2,308.5 252.7,308.5 253.3,308.5 253.9,308.5 254.4,308.5 255.0,308.5 255.6,308.5 256.1,308.5 256.7,308.5 257.3,308.5 257.8,308.5 258.4,308.5 259.0,308.5 259.5,308.5 260.1,308.5 260.7,308.5 261.3,308.5 261.8,308.5 262.4,308.5 263.0,308.5 263.5,308.5 264.1,308.5 264.7,308.5 265.2,308.5 265.8,308.5 266.4,308.5 266.9,308.5 267.5,308.5 268.1,308.5 268.6,308.5 269.2,308.5 269.8,308.5 270.3,308.5 270.9,308.5 271.5,308.5 272.0,308.5 272.6,308.5 273.2,308.5 273.8,308.5 274.3,308.5 274.9,308.5 275.5,308.5 276.0,308.5 276.6,308.5 277.2,308.5 277.7,308.5 278.3,308.5 278.9,308.5 279.4,308.5 280.0,308.5 280.6,308.5 281.1,308.5 281.7,308.5 282.3,308.5 282.8,308.5 283.4,308.5 284.0,308.5 284.5,308.5 285.1,308.5 285.7,308.5 286.3,308.5 286.8,308.5 287.4,308.5 288.0,308.5 288.5,308.5 289.1,308.5 289.7,308.5 290.2,308.5 290.8,308.5 291.4,308.5 291.9,308.5 292.5,308.5 293.1,308.5 293.6,308.5 294.2,308.5 294.8,308.5 295.3,308.5 295.9,308.5 296.5,308.5 297.1,308.5 297.6,308.5 298.2,308.5 298.8,308.5 299.3,308.5 299.9,308.5 300.5,308.5 301.0,308.5 301.6,308.5 302.2,308.5 302.7,308.5 303.3,308.5 303.9,308.5 304.4,308.5 305.0,308.5 305.6,308.5 306.1,308.5 306.7,308.5 307.3,308.5 307.8,308.5 308.4,308.5 309.0,308.5 309.6,308.5 310.1,308.5 310.7,308.5 311.3,308.5 311.8,308.5 312.4,308.5 313.0,308.5 313.5,308.5 314.1,308.5 314.7,308.5 315.2,308.5 315.8,308.5 316.4,308.5 316.9,308.5 317.5,308.5 318.1,308.5 318.6,308.5 319.2,308.5 319.8,308.5 320.4,308.5 320.9,308.5 321.5,308.5 322.1,308.5 322.6,308.5 323.2,308.5 323.8,308.5 324.3,308.5 324.9,308.5 325.5,308.5 326.0,308.5 326.6,308.5 327.2,308.5 327.7,308.5 328.3,308.5 328.9,308.5 329.4,308.5 330.0,308.5 330.6,308.5 331.1,308.5 331.7,308.5 332.3,308.5 332.9,308.5 333.4,308.5 334.0,308.5 334.6,308.5 335.1,308.5 335.7,308.5 336.3,308.5 336.8,308.5 337.4,308.5 338.0,308.5 338.5,308.5 339.1,308.5 339.7,308.5 340.2,308.5 340.8,308.5 341.4,308.5 341.9,308.5 342.5,308.5 343.1,308.5 343.6,308.5 344.2,308.5 344.8,308.5 345.4,308.5 345.9,308.5 346.5,308.5 347.1,308.5 347.6,308.5 348.2,308.5 348.8,308.5 349.3,308.5 349.9,308.5 350.5,308.5 351.0,308.5 351.6,308.5 352.2,308.5 352.7,308.5 353.3,308.5 353.9,308.5 354.4,308.5 355.0,308.5 355.6,308.5 356.2,308.5 356.7,308.5 357.3,308.5 357.9,308.5 358.4,308.5 359.0,308.5 359.6,308.5 360.1,308.5 360.7,308.5 361.3,308.5 361.8,308.5 362.4,308.5 363.0,308.5 363.5,308.5 364.1,308.5 364.7,308.5 365.2,308.5 365.8,308.5 366.4,308.5 366.9,308.5 367.5,308.5 368.1,308.5 368.7,308.5 369.2,308.5 369.8,308.5 370.4,308.5 370.9,308.5 371.5,308.5 372.1,308.5 372.6,308.5 373.2,308.5 373.8,308.5 374.3,308.5 374.9,308.5 375.5,308.5 376.0,308.5 376.6,308.5 377.2,308.5 377.7,308.5 378.3,308.5 378.9,308.5 379.4,308.5 380.0,308.5 380.6,308.5 381.2,308.5 381.7,308.5 382.3,308.5 382.9,308.5 383.4,308.5 384.0,308.5 384.6,308.5 385.1,308.5 385.7,308.5 386.3,308.5 386.8,308.5 387.4,308.5 388.0,308.5 388.5,308.5 389.1,308.5 389.7,308.5 390.2,308.5 390.8,308.5 391.4,308.5 392.0,308.5 392.5,308.5 393.1,308.5 393.7,308.5 394.2,308.5 394.8,308.5 395.4,308.5 395.9,308.5 396.5,308.5 397.1,308.5 397.6,308.5 398.2,308.5 398.8,308.5 399.3,308.5 399.9,308.5 400.5,308.5 401.0,308.5 401.6,308.5 402.2,308.5 402.7,308.5 403.3,308.5 403.9,308.5 404.5,308.5 405.0,308.5 405.6,308.5 406.2,308.5 406.7,308.5 407.3,308.5 407.9,308.5 408.4,308.5 409.0,308.5 409.6,308.5 410.1,308.5 410.7,308.5 411.3,308.5 411.8,308.5 412.4,308.5 413.0,308.5 413.5,308.5 414.1,308.5 414.7,308.5 415.2,308.5 415.8,308.5 416.4,308.5 417.0,308.5 417.5,308.5 418.1,308.5 418.7,308.5 419.2,308.5 419.8,308.5 420.4,308.5 420.9,308.5 421.5,308.5 422.1,308.5 422.6,308.5 423.2,308.5 423.8,308.5 424.3,308.5 424.9,308.5 425.5,308.5 426.0,308.5 426.6,308.5 427.2,308.5 427.8,308.5 428.3,308.5 428.9,308.5 429.5,308.5 430.0,308.5 430.6,308.5 431.2,308.5 431.7,308.5 432.3,308.5 432.9,308.5 433.4,308.5 434.0,308.5 434.6,308.5 435.1,308.5 435.7,308.5 436.3,308.5 436.8,308.5 437.4,308.5 438.0,308.5 438.5,308.5 439.1,308.5 439.7,308.5 440.3,308.5 440.8,308.5 441.4,308.5 442.0,308.5 442.5,308.5 443.1,308.5 443.7,308.5 444.2,308.5 444.8,308.5 445.4,308.5 445.9,308.5 446.5,308.5 447.1,308.5 447.6,308.5 448.2,308.5 448.8,308.5 449.3,308.5 449.9,308.5 450.5,308.5 451.0,308.5 451.6,308.5 452.2,308.5 452.8,308.5 453.3,308.5 453.9,308.5 454.5,308.5 455.0,308.5 455.6,308.5 456.2,308.5 456.7,308.5 457.3,308.5 457.9,308.5 458.4,308.5 459.0,308.5 459.6,308.5 460.1,308.5 460.7,308.5 461.3,308.5 461.8,308.5 462.4,308.5 463.0,308.5 463.6,308.5 464.1,308.5 464.7,308.5 465.3,308.5 465.8,308.5 466.4,308.5 467.0,308.5 467.5,308.5 468.1,308.5 468.7,308.5 469.2,308.5 469.8,308.5 470.4,308.5 470.9,308.5 471.5,308.5 472.1,308.5 472.6,308.5 473.2,308.5 473.8,308.5 474.3,308.5 474.9,308.5 475.5,308.5 476.1,308.5 476.6,308.5 477.2,308.5 477.8,308.5 478.3,308.5 478.9,308.5 479.5,308.5 480.0,308.5 480.6,308.5 481.2,308.5 481.7,308.5 482.3,308.5 482.9,308.5 483.4,308.5 484.0,308.5 484.6,308.3 485.1,299.9 485.7,343.1 486.3,343.1 486.8,334.8 487.4,334.5 488.0,191.5 488.6,177.3 489.1,181.7 489.7,177.0 490.3,182.3 490.8,178.7 491.4,179.1 492.0,177.5 492.5,175.2 493.1,177.2 493.7,177.3 494.2,176.9 494.8,169.6 495.4,155.7 495.9,178.6 496.5,179.9 497.1,165.4 497.6,182.3 498.2,172.6 498.8,167.7 499.4,178.8 499.9,170.3 500.5,179.1 501.1,178.5 501.6,152.4 502.2,195.5 502.8,179.5 503.3,179.0 503.9,168.5 504.5,185.0 505.0,193.6 505.6,173.7 506.2,189.6 506.7,165.9 507.3,211.5 507.9,180.2 508.4,189.9 509.0,161.1 509.6,175.0 510.1,170.7 510.7,165.2 511.3,183.5 511.9,174.7 512.4,174.8 513.0,179.6 513.6,170.9 514.1,167.3 514.7,188.8 515.3,177.6 515.8,174.6 516.4,177.0 517.0,181.6 517.5,177.6 518.1,170.1 518.7,186.5 519.2,179.4 519.8,174.7 520.4,201.5 520.9,158.2 521.5,208.5 522.1,187.9 522.6,151.8 523.2,177.6 523.8,176.6 524.4,176.8 524.9,168.0 525.5,163.0 526.1,171.8 526.6,173.8 527.2,173.7 527.8,182.4 528.3,172.0 528.9,179.4 529.5,183.9 530.0,181.8 530.6,181.7 531.2,164.1 531.7,188.4 532.3,188.9 532.9,178.6 533.4,178.3 534.0,189.7 534.6,188.6 535.2,195.3 535.7,184.8 536.3,154.4 536.9,180.9 537.4,177.5 538.0,180.6 538.6,168.5 539.1,178.5 539.7,161.7 540.3,177.9 540.8,174.0 541.4,149.9 542.0,184.2 542.5,201.7 543.1,173.3 543.7,188.7 544.2,164.3 544.8,181.6 545.4,189.9 545.9,177.1 546.5,177.9 547.1,180.5 547.7,180.8 548.2,191.4 548.8,175.9 549.4,188.8 549.9,155.9 550.5,178.9 551.1,175.1 551.6,182.6 552.2,172.8 552.8,170.4 553.3,166.2 553.9,172.2 554.5,170.2 555.0,182.7 555.6,181.2 556.2,170.6 556.7,180.4 557.3,183.0 557.9,167.9 558.4,190.2 559.0,165.4 559.6,190.6 560.2,165.4 560.7,189.5 561.3,175.0 561.9,203.6 562.4,189.0 563.0,183.1 563.6,149.4 564.1,178.5 564.7,175.0 565.3,172.0 565.8,187.4 566.4,166.3 567.0,171.8 567.5,175.3 568.1,147.9 568.7,189.5 569.2,168.5 569.8,182.2 570.4,176.3 571.0,179.5 571.5,178.9 572.1,179.3 572.7,179.5 573.2,178.9 573.8,179.6 574.4,179.0 574.9,179.0 575.5,179.4 576.1,179.7 576.6,157.9 577.2,92.4 577.8,179.3 578.3,180.2 578.9,179.3 579.5,179.0 580.0,179.2 580.6,179.1 581.2,179.4 581.7,180.1 582.3,179.3 582.9,178.9 583.5,179.3 584.0,179.2 584.6,178.9 585.2,179.3 585.7,179.1 586.3,179.4 586.9,179.1 587.4,179.4 588.0,179.1 588.6,179.3 589.1,179.2 589.7,180.2 590.3,191.6 590.8,177.3 591.4,269.5 592.0,261.1 592.5,265.3 593.1,265.3 593.7,265.3 594.2,265.3 594.8,265.3 595.4,265.3 596.0,265.3 596.5,265.3 597.1,265.3 597.7,265.3 598.2,265.3 598.8,265.3 599.4,265.3 599.9,265.3 600.5,265.3 601.1,265.3 601.6,265.3 602.2,265.3 602.8,265.3 603.3,265.3 603.9,265.3 604.5,278.8 605.0,254.2 605.6,262.9 606.2,265.3 606.8,265.3 607.3,265.3 607.9,265.3 608.5,265.3 609.0,265.3 609.6,265.3 610.2,265.3 610.7,265.3 611.3,265.3 611.9,265.3 612.4,265.3 613.0,265.3 613.6,265.3 614.1,265.3 614.7,265.3 615.3,265.3 615.8,265.3 616.4,265.3 617.0,276.5 617.5,286.1 618.1,257.9 618.7,262.9 619.3,243.0 619.8,286.0 620.4,264.4 621.0,255.0 621.5,255.8 622.1,265.3 622.7,265.3 623.2,265.3 623.8,265.3 624.4,265.3 624.9,265.3 625.5,265.3 626.1,265.3 626.6,265.3 627.2,265.3 627.8,265.3 628.3,265.3 628.9,265.3 629.5,265.3 630.0,265.3 630.6,283.4 631.2,279.9 631.8,264.6 632.3,255.1 632.9,274.7 633.5,271.0 634.0,257.8 634.6,242.4 635.2,275.9 635.7,249.2 636.3,264.2 636.9,265.3 637.4,265.3 638.0,265.3 638.6,265.3 639.1,265.3 639.7,265.3 640.3,265.3 640.8,265.3 641.4,265.3 642.0,265.3 642.6,273.5 643.1,257.7 643.7,264.7 644.3,285.0 644.8,284.0 645.4,275.6 646.0,262.1 646.5,256.2 647.1,247.0 647.7,283.9 648.2,256.2 648.8,242.6 649.4,260.5 649.9,265.3 650.5,271.1 651.1,264.3 651.6,260.9 652.2,265.7 652.8,264.5 653.3,265.3 653.9,265.3 654.5,265.3 655.1,265.3 655.6,265.3 656.2,266.3 656.8,264.3 657.3,265.3 657.9,292.7 658.5,266.3 659.0,285.1 659.6,270.0 660.2,259.4 660.7,218.3 661.3,302.8 661.9,259.4 662.4,253.9 663.0,245.2 663.6,279.0 664.1,251.6 664.7,265.3 665.3,265.3 665.8,265.3 666.4,265.3 667.0,265.3 667.6,265.3 668.1,265.3 668.7,265.3 669.3,265.3 669.8,265.3 670.4,265.3 671.0,289.3 671.5,267.1 672.1,284.3 672.7,254.7 673.2,278.1 673.8,266.2 674.4,247.0 674.9,274.9 675.5,250.7 676.1,258.0 676.6,263.8 677.2,249.5 677.8,265.3 678.4,265.3 678.9,265.3 679.5,265.3 680.1,265.3 680.6,265.3 681.2,265.3 681.8,265.3 682.3,265.3 682.9,265.3 683.5,265.3 684.0,265.3 684.6,271.3 685.2,292.0 685.7,269.8 686.3,267.7 686.9,275.2 687.4,262.4 688.0,271.2 688.6,255.4 689.1,265.9 689.7,251.9 690.3,255.8 690.9,258.9 691.4,270.1 692.0,254.6 692.6,266.5 693.1,256.2 693.7,265.3 694.3,271.3 694.8,259.3 695.4,265.3 696.0,265.3 696.5,265.3 697.1,265.3 697.7,271.3 698.2,280.0 698.8,284.0 699.4,278.3 699.9,258.9 700.5,271.9 701.1,265.8 701.6,266.5 702.2,253.5 702.8,263.7 703.4,252.2 703.9,262.7 704.5,261.3 705.1,244.0 705.6,273.9 706.2,273.2 706.8,248.8 707.3,265.3 707.9,265.3 708.5,265.3 709.0,265.3 709.6,267.9 710.2,262.7 710.7,268.2 711.3,266.3 711.9,289.1 712.4,272.8 713.0,255.1 713.6,286.4 714.2,274.2 714.7,263.0 715.3,262.3 715.9,262.2 716.4,255.9 717.0,254.2 717.6,255.9 718.1,266.9 718.7,254.0 719.3,261.4 719.8,262.2 720.4,265.3 721.0,265.3 721.5,265.3 722.1,268.4 722.7,273.9 723.2,271.0 723.8,261.8 724.4,271.3 724.9,270.6 725.5,269.8 726.1,287.6 726.7,254.9 727.2,267.8 727.8,279.4 728.4,262.2 728.9,265.1 729.5,261.1 730.1,264.0 730.6,237.7 731.2,265.6 731.8,267.1 732.3,246.1 732.9,280.4 733.5,256.1 734.0,254.9 734.6,265.3 735.2,282.7 735.7,248.0 736.3,265.3 736.9,265.3 737.5,275.2 738.0,258.8 738.6,262.0 739.2,286.6 739.7,270.0 740.3,290.0 740.9,249.7 741.4,268.7 742.0,262.1 742.6,285.2 743.1,259.1 743.7,226.9 744.3,272.2 744.8,278.7 745.4,236.1 746.0,263.7 746.5,265.3 747.1,285.5 747.7,245.2 748.2,277.8 748.8,252.8 749.4,265.3 750.0,265.3 750.5,274.6 751.1,256.0 751.7,268.9 752.2,261.7 752.8,276.4 753.4,279.7 753.9,262.8 754.5,294.2 755.1,259.2 755.6,263.1 756.2,274.1 756.8,250.7 757.3,269.8 757.9,240.6 758.5,268.4 759.0,262.5 759.6,266.4 760.2,259.2 760.7,260.0 761.3,257.9 761.9,265.3 762.5,265.3 763.0,269.8 763.6,267.4 764.2,258.7 764.7,265.3 765.3,273.5 765.9,286.2 766.4,236.6 767.0,305.6 767.6,282.4 768.1,253.3 768.7,263.0 769.3,270.0 769.8,254.5 770.4,270.6 771.0,261.0 771.5,261.4 772.1,247.4 772.7,248.8 773.3,265.3 773.8,276.1 774.4,263.2 775.0,257.3 775.5,264.7 776.1,265.3 776.7,265.3 777.2,265.3 777.8,265.3 778.4,265.3 778.9,270.6 779.5,269.5 780.1,277.9 780.6,288.8 781.2,253.2 781.8,285.2 782.3,247.9 782.9,276.3 783.5,267.3 784.0,253.2 784.6,256.9 785.2,258.6 785.8,261.7 786.3,258.6 786.9,253.8 787.5,270.0 788.0,270.9 788.6,255.0 789.2,265.3 789.7,265.3 790.3,265.3 790.9,265.3 791.4,265.3 792.0,265.3 792.6,265.6 793.1,265.1 793.7,273.6 794.3,301.3 794.8,269.4 795.4,271.5 796.0,263.1 796.5,271.0 797.1,248.1 797.7,260.5 798.3,262.4 798.8,260.9 799.4,261.9 800.0,253.4 800.5,259.7 801.1,266.0 801.7,262.3 802.2,263.1 802.8,261.8 803.4,265.3 803.9,265.3 804.5,269.4 805.1,268.4 805.6,258.1 806.2,268.6 806.8,262.5 807.3,286.4 807.9,274.9 808.5,286.1 809.1,255.1 809.6,275.2 810.2,271.7 810.8,257.7 811.3,249.8 811.9,259.6 812.5,256.2 813.0,272.4 813.6,249.0 814.2,257.0 814.7,278.4 815.3,252.9 815.9,261.8 816.4,265.3 817.0,271.4 817.6,264.2 818.1,260.3 818.7,265.3 819.3,265.3 819.8,272.6 820.4,272.0 821.0,277.8 821.6,280.5 822.1,255.6 822.7,283.0 823.3,272.7 823.8,268.1 824.4,261.1 825.0,259.8 825.5,257.5 826.1,260.4 826.7,237.1 827.2,274.0 827.8,259.3 828.4,267.0 828.9,265.2 829.5,262.3 830.1,270.6 830.6,249.5 831.2,287.9 831.8,258.7 832.3,264.6 832.9,266.8 833.5,260.5 834.1,258.2 834.6,277.9 835.2,266.1 835.8,300.4 836.3,255.6 836.9,274.9 837.5,264.3 838.0,260.9 838.6,264.6 839.2,263.6 839.7,256.6 840.3,261.4 840.9,232.5 841.4,284.5 842.0,265.2 842.6,264.1 843.1,252.6 843.7,270.7 844.3,269.7 844.9,268.8 845.4,246.9 846.0,280.3 846.6,263.7 847.1,263.7 847.7,266.6 848.3,266.4 848.8,284.7 849.4,278.9 850.0,271.9 850.5,260.8 851.1,271.6 851.7,249.5 852.2,225.5 852.8,277.4 853.4,286.4 853.9,243.5 854.5,267.1 855.1,267.6 855.6,256.4 856.2,258.7 856.8,265.3 857.4,265.3 857.9,265.3 858.5,265.3 859.1,265.3 859.6,265.3 860.2,265.3 860.8,267.4 861.3,263.2 861.9,298.9 862.5,270.9 863.0,270.9 863.6,264.1 864.2,240.4 864.7,291.6 865.3,251.9 865.9,272.6 866.4,254.7 867.0,264.1 867.6,260.5 868.1,250.1 868.7,270.2 869.3,253.8 869.9,272.3 870.4,259.7 871.0,178.7 871.6,265.3 872.1,265.3 872.7,269.7 873.3,271.0 873.8,255.3 874.4,265.3 875.0,286.2 875.5,244.4 876.1,298.4 876.7,284.1 877.2,268.2 877.8,263.0 878.4,265.3 878.9,257.9 879.5,263.3 880.1,264.3 880.7,260.0 881.2,247.8 881.8,260.8 882.4,260.5 882.9,266.6 883.5,260.0 884.1,263.3 884.6,261.4 885.2,265.3 885.8,269.7 886.3,260.9 886.9,265.3 887.5,265.3 888.0,265.3 888.6,265.3 889.2,265.3 889.7,265.3 890.3,265.3 890.9,265.3 891.4,265.3 892.0,265.3 892.6,265.3 893.2,265.3 893.7,294.4 894.3,236.2 894.9,265.3 895.4,265.3 896.0,265.3 896.6,265.3 897.1,265.3 897.7,265.3 898.3,265.3 898.8,265.3 899.4,265.3 900.0,265.3 900.5,265.3 901.1,265.3 901.7,265.3 902.2,265.3 902.8,265.3 903.4,265.3 903.9,265.3 904.5,312.1 905.1,273.0 905.7,256.3 906.2,270.1 906.8,254.7 907.4,255.3 907.9,266.5 908.5,253.7 909.1,255.0 909.6,256.4 910.2,265.3 910.8,273.4 911.3,257.2 911.9,265.3 912.5,265.3 913.0,265.3 913.6,265.7 914.2,264.9 914.7,265.3 915.3,266.8 915.9,263.8 916.5,299.1 917.0,275.3 917.6,274.0 918.2,262.2 918.7,268.1 919.3,269.0 919.9,266.6 920.4,212.3 921.0,294.9 921.6,240.8 922.1,271.6 922.7,261.2 923.3,253.7 923.8,265.3 924.4,270.9 925.0,262.2 925.5,267.7 926.1,267.6 926.7,258.9 927.2,264.5 927.8,280.0 928.4,261.6 929.0,262.0 929.5,268.5 930.1,280.2 930.7,290.4 931.2,267.4 931.8,263.2 932.4,270.6 932.9,266.2 933.5,264.4 934.1,261.3 934.6,351.6 935.2,265.3 935.8,265.3 936.3,265.3 936.9,265.3 937.5,265.3 938.0,265.3 938.6,265.3 939.2,265.3 939.7,265.3 940.3,178.9 940.9,265.3 941.5,265.3 942.0,265.3 942.6,265.3 943.2,265.3 943.7,265.3 944.3,265.3 944.9,265.3 945.4,178.9 946.0,265.3" fill="none" stroke="#2563eb" stroke-width="2.2" stroke-linejoin="round" stroke-linecap="round"/>
<polyline points="76.0,334.6 76.6,334.0 77.1,332.6 77.7,332.2 78.3,332.8 78.8,331.2 79.4,331.1 80.0,331.7 80.5,332.4 81.1,332.4 81.7,334.9 82.3,332.1 82.8,331.9 83.4,332.2 84.0,332.8 84.5,334.1 85.1,333.7 85.7,333.3 86.2,332.9 86.8,333.7 87.4,334.4 87.9,333.8 88.5,333.5 89.1,333.5 89.6,332.6 90.2,332.3 90.8,332.6 91.3,331.3 91.9,330.0 92.5,331.3 93.0,331.7 93.6,333.8 94.2,332.8 94.8,332.8 95.3,333.5 95.9,332.8 96.5,332.3 97.0,333.2 97.6,332.2 98.2,332.2 98.7,331.9 99.3,334.5 99.9,333.9 100.4,333.3 101.0,328.0 101.6,328.4 102.1,333.5 102.7,332.9 103.3,330.7 103.8,328.0 104.4,331.1 105.0,332.9 105.5,331.7 106.1,331.5 106.7,331.7 107.3,332.2 107.8,331.8 108.4,332.7 109.0,331.3 109.5,332.2 110.1,331.0 110.7,332.0 111.2,331.7 111.8,338.1 112.4,335.7 112.9,334.6 113.5,335.8 114.1,335.3 114.6,330.9 115.2,330.2 115.8,331.7 116.3,334.2 116.9,336.1 117.5,332.1 118.1,332.0 118.6,332.4 119.2,334.4 119.8,332.7 120.3,334.1 120.9,332.0 121.5,331.2 122.0,333.3 122.6,332.7 123.2,333.4 123.7,333.6 124.3,333.3 124.9,334.5 125.4,332.9 126.0,332.9 126.6,333.2 127.1,332.7 127.7,335.5 128.3,329.8 128.8,333.6 129.4,332.8 130.0,327.8 130.6,333.7 131.1,331.9 131.7,332.4 132.3,329.1 132.8,332.1 133.4,332.4 134.0,331.3 134.5,332.6 135.1,331.7 135.7,332.7 136.2,331.8 136.8,331.6 137.4,331.5 137.9,332.4 138.5,332.0 139.1,332.9 139.6,330.8 140.2,332.9 140.8,333.1 141.3,332.8 141.9,328.1 142.5,325.6 143.1,327.3 143.6,327.4 144.2,327.4 144.8,328.8 145.3,328.1 145.9,327.5 146.5,331.7 147.0,332.1 147.6,331.4 148.2,331.6 148.7,331.5 149.3,331.4 149.9,331.5 150.4,331.8 151.0,331.7 151.6,331.9 152.1,332.6 152.7,331.9 153.3,333.9 153.9,333.9 154.4,332.4 155.0,334.7 155.6,338.8 156.1,333.3 156.7,335.5 157.3,333.5 157.8,333.2 158.4,333.2 159.0,332.8 159.5,332.9 160.1,331.9 160.7,332.8 161.2,331.8 161.8,331.5 162.4,331.3 162.9,331.5 163.5,332.9 164.1,334.8 164.6,332.2 165.2,333.0 165.8,332.8 166.4,333.1 166.9,333.2 167.5,334.0 168.1,334.3 168.6,334.1 169.2,339.1 169.8,333.5 170.3,335.8 170.9,330.6 171.5,333.0 172.0,331.9 172.6,332.5 173.2,331.2 173.7,331.5 174.3,332.5 174.9,331.6 175.4,330.6 176.0,332.0 176.6,332.3 177.1,331.4 177.7,331.9 178.3,331.9 178.9,332.2 179.4,332.3 180.0,332.9 180.6,333.2 181.1,334.1 181.7,334.7 182.3,333.0 182.8,338.1 183.4,332.9 184.0,333.5 184.5,332.8 185.1,332.6 185.7,331.6 186.2,331.5 186.8,331.5 187.4,331.3 187.9,332.3 188.5,332.4 189.1,334.0 189.7,333.8 190.2,333.3 190.8,332.7 191.4,333.6 191.9,332.3 192.5,333.2 193.1,332.0 193.6,333.2 194.2,333.9 194.8,334.4 195.3,334.0 195.9,335.2 196.5,340.0 197.0,334.2 197.6,334.3 198.2,334.0 198.7,333.9 199.3,332.6 199.9,332.4 200.4,332.0 201.0,333.0 201.6,332.5 202.2,332.0 202.7,332.0 203.3,331.3 203.9,332.4 204.4,331.2 205.0,331.4 205.6,331.3 206.1,333.6 206.7,333.5 207.3,333.3 207.8,334.1 208.4,336.2 209.0,333.9 209.5,334.3 210.1,333.9 210.7,333.0 211.2,329.9 211.8,328.0 212.4,333.8 212.9,331.9 213.5,329.3 214.1,328.8 214.7,328.7 215.2,328.7 215.8,328.5 216.4,331.0 216.9,329.9 217.5,330.4 218.1,330.5 218.6,332.0 219.2,333.7 219.8,335.2 220.3,331.9 220.9,337.9 221.5,332.7 222.0,335.0 222.6,333.7 223.2,334.0 223.7,335.1 224.3,332.6 224.9,326.5 225.5,328.2 226.0,328.5 226.6,329.0 227.2,327.3 227.7,329.2 228.3,328.4 228.9,326.4 229.4,331.5 230.0,331.1 230.6,332.5 231.1,332.9 231.7,332.3 232.3,331.7 232.8,333.1 233.4,332.7 234.0,332.5 234.5,335.4 235.1,333.0 235.7,332.3 236.2,334.0 236.8,329.2 237.4,326.8 238.0,327.6 238.5,333.6 239.1,332.9 239.7,332.0 240.2,335.8 240.8,331.0 241.4,331.9 241.9,331.6 242.5,332.8 243.1,330.0 243.6,331.6 244.2,331.9 244.8,335.0 245.3,331.0 245.9,331.9 246.5,331.6 247.0,332.3 247.6,332.2 248.2,334.8 248.7,332.8 249.3,333.9 249.9,333.4 250.5,332.9 251.0,335.0 251.6,333.1 252.2,334.1 252.7,334.8 253.3,333.3 253.9,329.6 254.4,328.7 255.0,333.9 255.6,332.0 256.1,333.1 256.7,333.5 257.3,332.4 257.8,332.9 258.4,332.7 259.0,332.4 259.5,332.0 260.1,335.0 260.7,334.7 261.3,333.9 261.8,334.6 262.4,334.1 263.0,337.9 263.5,336.7 264.1,336.2 264.7,336.7 265.2,337.7 265.8,337.7 266.4,336.9 266.9,337.5 267.5,337.8 268.1,337.0 268.6,336.7 269.2,335.1 269.8,332.9 270.3,334.2 270.9,336.3 271.5,334.4 272.0,334.7 272.6,333.9 273.2,335.1 273.8,334.5 274.3,334.5 274.9,334.5 275.5,333.3 276.0,334.6 276.6,333.8 277.2,334.4 277.7,332.6 278.3,333.4 278.9,334.3 279.4,334.6 280.0,334.8 280.6,334.1 281.1,334.0 281.7,333.0 282.3,332.9 282.8,333.4 283.4,330.2 284.0,332.2 284.5,334.1 285.1,332.3 285.7,331.8 286.3,332.6 286.8,332.9 287.4,333.2 288.0,333.1 288.5,333.4 289.1,333.5 289.7,332.8 290.2,334.5 290.8,334.3 291.4,335.1 291.9,334.3 292.5,335.0 293.1,333.8 293.6,333.3 294.2,334.5 294.8,331.8 295.3,333.1 295.9,332.0 296.5,332.6 297.1,330.4 297.6,331.6 298.2,332.4 298.8,333.5 299.3,330.6 299.9,332.8 300.5,330.6 301.0,331.5 301.6,332.3 302.2,332.1 302.7,332.2 303.3,332.0 303.9,333.2 304.4,335.1 305.0,333.9 305.6,327.2 306.1,328.2 306.7,327.6 307.3,329.9 307.8,328.2 308.4,328.3 309.0,329.5 309.6,332.7 310.1,332.4 310.7,330.3 311.3,332.1 311.8,331.9 312.4,333.1 313.0,332.1 313.5,332.3 314.1,332.4 314.7,332.3 315.2,331.0 315.8,331.3 316.4,333.0 316.9,333.1 317.5,333.0 318.1,334.1 318.6,332.5 319.2,333.5 319.8,333.5 320.4,333.6 320.9,333.1 321.5,332.7 322.1,332.3 322.6,330.4 323.2,333.9 323.8,331.0 324.3,327.7 324.9,331.9 325.5,331.7 326.0,332.3 326.6,332.4 327.2,332.0 327.7,331.8 328.3,332.4 328.9,332.8 329.4,332.5 330.0,333.0 330.6,332.6 331.1,333.0 331.7,334.0 332.3,334.3 332.9,331.1 333.4,334.6 334.0,335.4 334.6,335.9 335.1,333.1 335.7,332.6 336.3,333.7 336.8,331.5 337.4,331.9 338.0,330.5 338.5,332.0 339.1,333.0 339.7,331.2 340.2,330.3 340.8,331.0 341.4,331.4 341.9,330.4 342.5,333.1 343.1,331.9 343.6,331.8 344.2,334.6 344.8,341.2 345.4,332.7 345.9,332.0 346.5,334.0 347.1,333.6 347.6,333.1 348.2,333.6 348.8,331.9 349.3,331.5 349.9,331.3 350.5,331.6 351.0,332.4 351.6,331.3 352.2,330.7 352.7,331.5 353.3,331.1 353.9,330.6 354.4,331.4 355.0,332.2 355.6,331.7 356.2,332.0 356.7,332.5 357.3,330.9 357.9,332.9 358.4,332.6 359.0,336.7 359.6,334.2 360.1,332.8 360.7,335.6 361.3,332.9 361.8,333.3 362.4,333.3 363.0,332.4 363.5,330.8 364.1,332.2 364.7,332.2 365.2,331.9 365.8,332.1 366.4,330.6 366.9,331.2 367.5,331.1 368.1,335.0 368.7,331.7 369.2,331.9 369.8,331.1 370.4,332.8 370.9,333.0 371.5,334.3 372.1,332.0 372.6,334.8 373.2,332.5 373.8,334.6 374.3,335.1 374.9,332.4 375.5,333.3 376.0,332.2 376.6,333.0 377.2,332.1 377.7,332.9 378.3,332.0 378.9,331.4 379.4,330.7 380.0,332.9 380.6,332.1 381.2,331.1 381.7,331.0 382.3,332.0 382.9,332.3 383.4,333.4 384.0,330.7 384.6,332.9 385.1,333.0 385.7,333.5 386.3,334.3 386.8,334.3 387.4,333.7 388.0,332.5 388.5,332.8 389.1,334.0 389.7,333.0 390.2,332.3 390.8,331.5 391.4,330.5 392.0,331.2 392.5,331.4 393.1,331.6 393.7,332.7 394.2,332.9 394.8,332.4 395.4,332.2 395.9,331.7 396.5,332.3 397.1,332.8 397.6,331.7 398.2,332.6 398.8,333.9 399.3,333.7 399.9,335.1 400.5,333.2 401.0,333.8 401.6,333.4 402.2,334.8 402.7,333.5 403.3,331.7 403.9,332.1 404.5,330.6 405.0,331.7 405.6,332.3 406.2,329.9 406.7,331.9 407.3,331.3 407.9,332.0 408.4,331.8 409.0,332.0 409.6,331.9 410.1,330.8 410.7,331.7 411.3,331.2 411.8,333.8 412.4,333.6 413.0,333.7 413.5,333.8 414.1,333.8 414.7,334.7 415.2,333.7 415.8,333.5 416.4,333.6 417.0,333.0 417.5,335.7 418.1,333.3 418.7,332.1 419.2,332.7 419.8,330.7 420.4,331.2 420.9,332.1 421.5,333.4 422.1,332.8 422.6,332.8 423.2,333.1 423.8,331.7 424.3,332.8 424.9,333.0 425.5,334.9 426.0,334.7 426.6,334.5 427.2,334.0 427.8,334.9 428.3,333.6 428.9,334.7 429.5,333.2 430.0,333.7 430.6,333.1 431.2,333.5 431.7,333.1 432.3,332.2 432.9,332.5 433.4,331.4 434.0,331.5 434.6,332.5 435.1,332.8 435.7,332.0 436.3,332.3 436.8,332.2 437.4,333.0 438.0,332.5 438.5,333.7 439.1,333.2 439.7,333.5 440.3,334.2 440.8,332.9 441.4,333.3 442.0,334.9 442.5,333.5 443.1,334.8 443.7,332.4 444.2,333.0 444.8,332.8 445.4,333.1 445.9,331.9 446.5,333.1 447.1,331.8 447.6,332.4 448.2,333.0 448.8,332.1 449.3,332.1 449.9,334.4 450.5,333.5 451.0,333.0 451.6,332.9 452.2,333.3 452.8,333.4 453.3,333.4 453.9,335.1 454.5,332.4 455.0,336.1 455.6,333.3 456.2,333.8 456.7,334.0 457.3,331.6 457.9,332.9 458.4,333.0 459.0,332.9 459.6,333.0 460.1,335.2 460.7,334.3 461.3,331.7 461.8,332.0 462.4,332.9 463.0,332.5 463.6,331.7 464.1,332.4 464.7,332.7 465.3,335.2 465.8,333.5 466.4,335.0 467.0,333.5 467.5,336.5 468.1,333.0 468.7,333.5 469.2,334.9 469.8,333.3 470.4,333.9 470.9,333.4 471.5,337.4 472.1,332.4 472.6,333.0 473.2,331.7 473.8,333.7 474.3,331.2 474.9,330.2 475.5,333.7 476.1,333.5 476.6,332.2 477.2,333.0 477.8,332.7 478.3,332.5 478.9,332.3 479.5,333.0 480.0,332.9 480.6,332.5 481.2,333.5 481.7,335.2 482.3,334.1 482.9,334.6 483.4,335.2 484.0,334.0 484.6,334.0 485.1,329.0 485.7,346.8 486.3,346.9 486.8,342.0 487.4,340.9 488.0,284.6 488.6,279.3 489.1,277.3 489.7,281.9 490.3,280.5 490.8,282.7 491.4,280.1 492.0,279.9 492.5,279.4 493.1,289.6 493.7,292.4 494.2,294.0 494.8,293.7 495.4,290.1 495.9,293.9 496.5,294.3 497.1,289.7 497.6,294.6 498.2,289.4 498.8,294.7 499.4,289.6 499.9,292.8 500.5,292.3 501.1,293.3 501.6,286.2 502.2,298.8 502.8,293.2 503.3,292.6 503.9,285.5 504.5,296.3 505.0,297.7 505.6,289.6 506.2,295.7 506.7,290.7 507.3,303.5 507.9,294.5 508.4,297.7 509.0,291.5 509.6,294.8 510.1,289.5 510.7,277.4 511.3,272.3 511.9,283.5 512.4,286.9 513.0,290.9 513.6,288.8 514.1,286.1 514.7,291.3 515.3,287.6 515.8,292.7 516.4,292.6 517.0,289.3 517.5,287.6 518.1,290.8 518.7,293.9 519.2,293.5 519.8,293.2 520.4,305.5 520.9,302.1 521.5,310.4 522.1,304.2 522.6,294.9 523.2,301.1 523.8,303.5 524.4,304.0 524.9,303.6 525.5,304.7 526.1,295.8 526.6,303.8 527.2,304.5 527.8,303.3 528.3,299.6 528.9,301.0 529.5,297.3 530.0,301.1 530.6,299.0 531.2,290.4 531.7,305.1 532.3,303.0 532.9,299.1 533.4,299.9 534.0,307.0 534.6,299.1 535.2,302.8 535.7,301.8 536.3,292.4 536.9,298.0 537.4,299.2 538.0,299.5 538.6,295.0 539.1,297.2 539.7,295.4 540.3,297.2 540.8,292.1 541.4,216.6 542.0,297.5 542.5,299.8 543.1,288.9 543.7,294.1 544.2,290.6 544.8,295.1 545.4,299.2 545.9,293.0 546.5,296.8 547.1,298.8 547.7,303.7 548.2,300.9 548.8,303.0 549.4,302.2 549.9,294.2 550.5,297.1 551.1,296.9 551.6,299.8 552.2,296.6 552.8,295.1 553.3,292.7 553.9,293.0 554.5,291.5 555.0,295.2 555.6,294.2 556.2,292.6 556.7,296.9 557.3,297.5 557.9,291.4 558.4,299.9 559.0,293.7 559.6,298.4 560.2,292.8 560.7,304.8 561.3,304.1 561.9,307.7 562.4,303.1 563.0,303.9 563.6,294.2 564.1,300.4 564.7,303.3 565.3,302.5 565.8,297.7 566.4,293.4 567.0,289.9 567.5,291.7 568.1,282.7 568.7,300.5 569.2,286.9 569.8,299.4 570.4,300.4 571.0,303.7 571.5,310.6 572.1,301.9 572.7,303.0 573.2,309.7 573.8,305.6 574.4,303.8 574.9,309.4 575.5,307.7 576.1,313.1 576.6,308.2 577.2,303.2 577.8,317.3 578.3,313.1 578.9,312.2 579.5,307.6 580.0,305.1 580.6,309.6 581.2,306.6 581.7,309.3 582.3,301.3 582.9,305.7 583.5,297.8 584.0,310.6 584.6,304.3 585.2,308.3 585.7,304.9 586.3,301.3 586.9,299.6 587.4,295.0 588.0,304.0 588.6,310.8 589.1,311.5 589.7,312.4 590.3,313.2 590.8,312.8 591.4,323.1 592.0,328.3 592.5,322.5 593.1,325.8 593.7,323.3 594.2,323.6 594.8,323.9 595.4,326.1 596.0,325.4 596.5,325.0 597.1,322.0 597.7,323.0 598.2,323.5 598.8,321.6 599.4,322.2 599.9,322.9 600.5,323.3 601.1,322.4 601.6,321.6 602.2,323.4 602.8,323.2 603.3,325.0 603.9,332.1 604.5,333.2 605.0,322.8 605.6,327.6 606.2,326.2 606.8,323.8 607.3,329.0 607.9,321.0 608.5,319.9 609.0,323.1 609.6,323.1 610.2,321.9 610.7,322.3 611.3,321.2 611.9,322.0 612.4,323.1 613.0,325.4 613.6,324.2 614.1,323.6 614.7,324.4 615.3,323.6 615.8,326.3 616.4,326.5 617.0,326.1 617.5,327.4 618.1,326.2 618.7,326.3 619.3,322.9 619.8,334.3 620.4,321.9 621.0,320.1 621.5,319.9 622.1,322.6 622.7,322.5 623.2,324.0 623.8,324.3 624.4,324.0 624.9,323.6 625.5,321.4 626.1,326.4 626.6,324.1 627.2,323.3 627.8,321.3 628.3,323.6 628.9,322.7 629.5,323.9 630.0,326.2 630.6,329.3 631.2,328.2 631.8,322.7 632.3,322.7 632.9,327.6 633.5,326.1 634.0,320.4 634.6,315.5 635.2,322.7 635.7,316.8 636.3,324.4 636.9,321.3 637.4,326.1 638.0,319.7 638.6,320.0 639.1,321.3 639.7,319.3 640.3,323.7 640.8,318.3 641.4,321.1 642.0,321.2 642.6,323.7 643.1,316.8 643.7,325.8 644.3,331.5 644.8,328.9 645.4,326.5 646.0,321.4 646.5,321.5 647.1,323.6 647.7,326.0 648.2,318.5 648.8,311.8 649.4,324.8 649.9,272.7 650.5,320.9 651.1,319.2 651.6,318.0 652.2,320.3 652.8,325.8 653.3,318.6 653.9,321.8 654.5,321.5 655.1,322.6 655.6,320.3 656.2,321.0 656.8,324.8 657.3,326.7 657.9,329.9 658.5,322.6 659.0,328.5 659.6,323.7 660.2,319.9 660.7,323.9 661.3,332.4 661.9,317.1 662.4,315.5 663.0,317.3 663.6,325.2 664.1,321.2 664.7,323.7 665.3,322.0 665.8,322.3 666.4,323.0 667.0,321.9 667.6,323.8 668.1,318.2 668.7,320.5 669.3,317.8 669.8,325.8 670.4,321.9 671.0,327.8 671.5,323.2 672.1,330.5 672.7,318.6 673.2,327.1 673.8,324.3 674.4,323.3 674.9,326.1 675.5,318.4 676.1,319.9 676.6,320.0 677.2,315.3 677.8,319.6 678.4,321.1 678.9,320.8 679.5,323.0 680.1,323.5 680.6,322.8 681.2,324.5 681.8,319.1 682.3,321.3 682.9,321.7 683.5,327.9 684.0,324.7 684.6,325.8 685.2,331.5 685.7,325.0 686.3,321.6 686.9,322.7 687.4,321.4 688.0,322.3 688.6,316.6 689.1,318.7 689.7,313.1 690.3,314.2 690.9,317.3 691.4,321.0 692.0,314.2 692.6,319.3 693.1,325.9 693.7,323.7 694.3,321.0 694.8,319.0 695.4,316.6 696.0,320.1 696.5,317.6 697.1,325.2 697.7,322.8 698.2,326.7 698.8,326.9 699.4,323.1 699.9,318.7 700.5,321.8 701.1,315.2 701.6,322.4 702.2,319.8 702.8,320.8 703.4,314.7 703.9,318.8 704.5,317.5 705.1,310.8 705.6,323.5 706.2,318.9 706.8,316.4 707.3,321.2 707.9,317.9 708.5,318.9 709.0,323.5 709.6,320.1 710.2,323.8 710.7,319.4 711.3,317.3 711.9,329.9 712.4,324.9 713.0,322.5 713.6,327.9 714.2,322.3 714.7,316.9 715.3,320.5 715.9,319.6 716.4,316.7 717.0,312.7 717.6,316.2 718.1,319.3 718.7,314.2 719.3,316.3 719.8,317.8 720.4,318.7 721.0,323.1 721.5,316.8 722.1,322.0 722.7,321.1 723.2,319.9 723.8,316.4 724.4,321.8 724.9,320.1 725.5,320.2 726.1,328.6 726.7,319.8 727.2,324.1 727.8,325.2 728.4,321.9 728.9,323.1 729.5,320.2 730.1,319.9 730.6,311.0 731.2,319.0 731.8,317.1 732.3,309.6 732.9,323.7 733.5,316.8 734.0,313.7 734.6,323.4 735.2,327.0 735.7,318.3 736.3,321.2 736.9,323.9 737.5,324.2 738.0,314.1 738.6,326.1 739.2,330.3 739.7,325.5 740.3,327.4 740.9,326.5 741.4,325.4 742.0,326.9 742.6,328.5 743.1,320.8 743.7,310.6 744.3,326.0 744.8,321.0 745.4,312.3 746.0,321.1 746.5,324.7 747.1,325.4 747.7,309.0 748.2,322.8 748.8,320.2 749.4,320.8 750.0,321.4 750.5,321.1 751.1,311.7 751.7,319.7 752.2,321.9 752.8,323.2 753.4,326.6 753.9,322.6 754.5,329.6 755.1,321.4 755.6,316.9 756.2,318.0 756.8,313.2 757.3,319.6 757.9,310.6 758.5,316.8 759.0,312.8 759.6,315.0 760.2,313.1 760.7,313.5 761.3,316.8 761.9,320.9 762.5,326.1 763.0,322.1 763.6,318.7 764.2,315.8 764.7,318.5 765.3,316.4 765.9,324.8 766.4,317.1 767.0,332.6 767.6,324.4 768.1,315.6 768.7,322.8 769.3,324.4 769.8,317.2 770.4,319.3 771.0,314.9 771.5,316.7 772.1,313.2 772.7,317.9 773.3,290.4 773.8,323.8 774.4,315.1 775.0,315.9 775.5,319.1 776.1,317.4 776.7,318.4 777.2,319.5 777.8,325.1 778.4,320.2 778.9,322.1 779.5,320.4 780.1,324.6 780.6,326.4 781.2,320.4 781.8,326.1 782.3,316.1 782.9,322.9 783.5,319.9 784.0,316.4 784.6,317.9 785.2,316.7 785.8,317.1 786.3,313.5 786.9,314.7 787.5,319.4 788.0,318.9 788.6,317.8 789.2,317.8 789.7,321.3 790.3,320.1 790.9,323.1 791.4,323.5 792.0,321.9 792.6,325.3 793.1,324.5 793.7,328.0 794.3,330.6 794.8,323.1 795.4,323.4 796.0,322.8 796.5,324.9 797.1,316.5 797.7,321.2 798.3,317.4 798.8,316.5 799.4,314.5 800.0,311.2 800.5,315.0 801.1,317.6 801.7,318.2 802.2,319.1 802.8,318.5 803.4,325.8 803.9,320.8 804.5,320.9 805.1,318.5 805.6,315.7 806.2,322.8 806.8,318.2 807.3,326.6 807.9,323.4 808.5,325.4 809.1,319.4 809.6,327.1 810.2,323.1 810.8,317.9 811.3,313.8 811.9,318.0 812.5,314.5 813.0,319.5 813.6,311.8 814.2,313.1 814.7,321.1 815.3,313.4 815.9,311.8 816.4,318.5 817.0,320.2 817.6,319.6 818.1,323.1 818.7,319.5 819.3,322.9 819.8,322.6 820.4,320.9 821.0,326.1 821.6,322.4 822.1,318.4 822.7,326.7 823.3,322.3 823.8,321.2 824.4,319.1 825.0,317.8 825.5,314.3 826.1,315.8 826.7,310.7 827.2,320.3 827.8,312.2 828.4,319.2 828.9,317.1 829.5,316.4 830.1,318.7 830.6,316.9 831.2,325.7 831.8,313.4 832.3,317.9 832.9,317.3 833.5,316.7 834.1,317.0 834.6,324.0 835.2,321.5 835.8,332.2 836.3,316.4 836.9,322.1 837.5,318.1 838.0,321.1 838.6,320.2 839.2,316.9 839.7,314.0 840.3,315.7 840.9,313.1 841.4,326.3 842.0,316.8 842.6,318.0 843.1,315.6 843.7,322.9 844.3,318.6 844.9,319.1 845.4,315.2 846.0,324.0 846.6,317.6 847.1,322.3 847.7,319.4 848.3,319.7 848.8,322.8 849.4,320.2 850.0,322.1 850.5,322.3 851.1,320.4 851.7,313.7 852.2,316.1 852.8,325.7 853.4,324.3 853.9,313.9 854.5,320.7 855.1,319.6 855.6,310.3 856.2,315.8 856.8,321.6 857.4,320.8 857.9,323.9 858.5,320.4 859.1,321.3 859.6,324.3 860.2,320.8 860.8,323.1 861.3,320.2 861.9,332.0 862.5,321.9 863.0,324.7 863.6,322.1 864.2,325.0 864.7,331.9 865.3,322.5 865.9,325.3 866.4,321.6 867.0,322.3 867.6,318.2 868.1,315.8 868.7,320.5 869.3,317.8 869.9,324.2 870.4,316.7 871.0,296.8 871.6,320.8 872.1,321.3 872.7,322.8 873.3,323.6 873.8,317.8 874.4,323.5 875.0,328.1 875.5,262.4 876.1,333.6 876.7,328.4 877.2,324.3 877.8,323.6 878.4,322.5 878.9,319.0 879.5,319.1 880.1,319.3 880.7,315.1 881.2,312.6 881.8,319.2 882.4,319.1 882.9,322.5 883.5,316.2 884.1,322.0 884.6,319.3 885.2,324.0 885.8,317.8 886.3,322.6 886.9,321.1 887.5,320.3 888.0,321.6 888.6,309.4 889.2,315.2 889.7,310.6 890.3,308.3 890.9,325.3 891.4,309.5 892.0,309.4 892.6,310.9 893.2,309.8 893.7,330.3 894.3,298.1 894.9,309.5 895.4,308.0 896.0,309.0 896.6,309.4 897.1,311.0 897.7,308.4 898.3,318.8 898.8,318.9 899.4,324.9 900.0,320.5 900.5,320.6 901.1,307.7 901.7,311.5 902.2,319.3 902.8,310.4 903.4,308.7 903.9,309.0 904.5,337.2 905.1,322.5 905.7,315.4 906.2,320.7 906.8,320.2 907.4,317.3 907.9,318.5 908.5,314.1 909.1,315.4 909.6,311.2 910.2,313.1 910.8,319.8 911.3,306.8 911.9,318.6 912.5,322.1 913.0,319.4 913.6,320.4 914.2,322.0 914.7,322.6 915.3,323.9 915.9,324.2 916.5,331.3 917.0,320.8 917.6,324.4 918.2,323.3 918.7,319.1 919.3,321.2 919.9,318.8 920.4,314.2 921.0,328.3 921.6,308.2 922.1,319.8 922.7,314.9 923.3,310.4 923.8,313.6 924.4,321.7 925.0,317.9 925.5,315.5 926.1,317.1 926.7,314.7 927.2,318.9 927.8,321.4 928.4,316.8 929.0,319.7 929.5,323.1 930.1,325.1 930.7,329.3 931.2,319.8 931.8,319.0 932.4,323.9 932.9,321.4 933.5,322.0 934.1,316.5 934.6,351.6 935.2,316.4 935.8,319.6 936.3,320.9 936.9,318.5 937.5,320.4 938.0,316.7 938.6,319.6 939.2,319.5 939.7,319.7 940.3,295.9 940.9,323.0 941.5,316.0 942.0,323.2 942.6,318.9 943.2,320.9 943.7,326.0 944.3,320.7 944.9,322.6 945.4,303.2 946.0,319.5" fill="none" stroke="#7c3aed" stroke-width="2.2" stroke-linejoin="round" stroke-linecap="round"/>
<line x1="76" y1="70" x2="94" y2="70" stroke="#2563eb" stroke-width="3"/>
<text x="100" y="74" font-family="Arial, sans-serif" font-size="11" fill="#0f172a">tx count</text>
<line x1="186" y1="70" x2="204" y2="70" stroke="#7c3aed" stroke-width="3"/>
<text x="210" y="74" font-family="Arial, sans-serif" font-size="11" fill="#0f172a">unique accounts</text>
<text x="28" y="404" font-family="Arial, sans-serif" font-size="11" fill="#64748b">Source: hourly_features.csv; capped windows are sample counts</text>
</svg>