<svg xmlns="http://www.w3.org/2000/svg" width="980" height="420" viewBox="0 0 980 420">
<rect width="100%" height="100%" fill="#ffffff"/>
<text x="28" y="34" font-family="Arial, sans-serif" font-size="20" font-weight="700" fill="#0f172a">Network activity sample trend</text>
<text x="28" y="56" font-family="Arial, sans-serif" font-size="12" fill="#64748b">Hourly transaction sample count and unique account sample count</text>
<line x1="76" y1="362.0" x2="946" y2="362.0" stroke="#e2e8f0" stroke-width="1"/>
<text x="68" y="366.0" font-family="Arial, sans-serif" font-size="10" text-anchor="end" fill="#64748b">220</text>
<line x1="76" y1="292.0" x2="946" y2="292.0" stroke="#e2e8f0" stroke-width="1"/>
<text x="68" y="296.0" font-family="Arial, sans-serif" font-size="10" text-anchor="end" fill="#64748b">1K</text>
<line x1="76" y1="222.0" x2="946" y2="222.0" stroke="#e2e8f0" stroke-width="1"/>
<text x="68" y="226.0" font-family="Arial, sans-serif" font-size="10" text-anchor="end" fill="#64748b">3K</text>
<line x1="76" y1="152.0" x2="946" y2="152.0" stroke="#e2e8f0" stroke-width="1"/>
<text x="68" y="156.0" font-family="Arial, sans-serif" font-size="10" text-anchor="end" fill="#64748b">4K</text>
<line x1="76" y1="82.0" x2="946" y2="82.0" stroke="#e2e8f0" stroke-width="1"/>
<text x="68" y="86.0" font-family="Arial, sans-serif" font-size="10" text-anchor="end" fill="#64748b">5K</text>
<line x1="76" y1="362" x2="946" y2="362" stroke="#334155" stroke-width="1"/>
<line x1="76" y1="82" x2="76" y2="362" stroke="#334155" stroke-width="1"/>
<text x="76" y="72" font-family="Arial, sans-serif" font-size="11" fill="#64748b">count</text>
<line x1="76.0" y1="362" x2="76.0" y2="366" stroke="#334155" stroke-width="1"/>
<text x="76.0" y="380" font-family="Arial, sans-serif" font-size="10" text-anchor="middle" fill="#64748b">0</text>
<line x1="511.0" y1="362" x2="511.0" y2="366" stroke="#334155" stroke-width="1"/>
<text x="511.0" y="380" font-family="Arial, sans-serif" font-size="10" text-anchor="middle" fill="#64748b">424</text>
<line x1="946.0" y1="362" x2="946.0" y2="366" stroke="#334155" stroke-width="1"/>
<text x="946.0" y="380" font-family="Arial, sans-serif" font-size="10" text-anchor="middle" fill="#64748b">848</text>
<polyline points="76.0,92.4 77.0,92.4 78.1,92.4 79.1,92.4 80.1,92.4 81.1,92.4 82.2,92.4 83.2,92.4 84.2,92.4 85.2,92.4 86.3,92.4 87.3,92.4 88.3,92.4 89.3,92.4 90.4,92.4 91.4,92.4 92.4,92.4 93.4,92.4 94.5,92.4 95.5,92.4 96.5,92.4 97.5,92.4 98.6,92.4 99.6,92.4 100.6,92.4 101.6,92.4 102.7,92.4 103.7,92.4 104.7,92.4 105.8,92.4 106.8,92.4 107.8,92.4 108.8,92.4 109.9,92.4 110.9,92.4 111.9,92.4 112.9,92.4 114.0,92.4 115.0,92.4 116.0,92.4 117.0,92.4 118.1,92.4 119.1,92.4 120.1,92.4 121.1,92.4 122.2,92.4 123.2,92.4 124.2,92.4 125.2,92.4 126.3,92.4 127.3,92.4 128.3,92.4 129.3,92.4 130.4,92.4 131.4,92.4 132.4,92.4 133.5,92.4 134.5,92.4 135.5,92.4 136.5,92.4 137.6,92.4 138.6,92.4 139.6,92.4 140.6,92.4 141.7,92.4 142.7,92.4 143.7,92.4 144.7,92.4 145.8,92.4 146.8,92.4 147.8,92.4 148.8,92.4 149.9,92.4 150.9,92.4 151.9,92.4 152.9,92.4 154.0,92.4 155.0,92.4 156.0,92.4 157.0,92.4 158.1,92.4 159.1,92.4 160.1,92.4 161.2,92.4 162.2,92.4 163.2,92.4 164.2,92.4 165.3,92.4 166.3,92.4 167.3,92.4 168.3,92.4 169.4,92.4 170.4,92.4 171.4,92.4 172.4,92.4 173.5,92.4 174.5,92.4 175.5,92.4 176.5,92.4 177.6,92.4 178.6,92.4 179.6,92.4 180.6,92.4 181.7,92.4 182.7,92.4 183.7,92.4 184.8,92.4 185.8,92.4 186.8,92.4 187.8,92.4 188.9,92.4 189.9,92.4 190.9,92.4 191.9,92.4 193.0,92.4 194.0,92.4 195.0,92.4 196.0,92.4 197.1,92.4 198.1,92.4 199.1,92.4 200.1,92.4 201.2,92.4 202.2,92.4 203.2,92.4 204.2,92.4 205.3,92.4 206.3,92.4 207.3,92.4 208.3,92.4 209.4,92.4 210.4,92.4 211.4,92.4 212.5,92.4 213.5,92.4 214.5,92.4 215.5,92.4 216.6,92.4 217.6,92.4 218.6,92.4 219.6,92.4 220.7,92.4 221.7,92.4 222.7,92.4 223.7,92.4 224.8,92.4 225.8,92.4 226.8,92.4 227.8,92.4 228.9,92.4 229.9,92.4 230.9,92.4 231.9,92.4 233.0,92.4 234.0,92.4 235.0,92.4 236.0,92.4 237.1,92.4 238.1,92.4 239.1,92.4 240.2,92.4 241.2,92.4 242.2,92.4 243.2,92.4 244.3,92.4 245.3,92.4 246.3,92.4 247.3,92.4 248.4,92.4 249.4,92.4 250.4,92.4 251.4,92.4 252.5,92.4 253.5,92.4 254.5,92.4 255.5,92.4 256.6,92.4 257.6,92.4 258.6,92.4 259.6,92.4 260.7,92.4 261.7,92.4 262.7,92.4 263.7,92.4 264.8,92.4 265.8,92.4 266.8,92.4 267.9,92.4 268.9,92.4 269.9,92.4 270.9,92.4 272.0,92.4 273.0,92.4 274.0,92.4 275.0,92.4 276.1,92.4 277.1,92.4 278.1,92.4 279.1,92.4 280.2,92.4 281.2,92.4 282.2,92.4 283.2,92.4 284.3,92.4 285.3,92.4 286.3,92.4 287.3,92.4 288.4,92.4 289.4,92.4 290.4,92.4 291.4,92.4 292.5,92.4 293.5,92.4 294.5,92.4 295.6,92.4 296.6,92.4 297.6,92.4 298.6,92.4 299.7,92.4 300.7,92.4 301.7,92.4 302.7,92.4 303.8,92.4 304.8,92.4 305.8,92.4 306.8,92.4 307.9,92.4 308.9,92.4 309.9,92.4 310.9,92.4 312.0,92.4 313.0,92.4 314.0,92.4 315.0,92.4 316.1,92.4 317.1,92.4 318.1,92.4 319.1,92.4 320.2,92.4 321.2,92.4 322.2,92.4 323.3,92.4 324.3,92.4 325.3,92.4 326.3,92.4 327.4,92.4 328.4,92.4 329.4,92.4 330.4,92.4 331.5,92.4 332.5,92.4 333.5,92.4 334.5,92.4 335.6,92.4 336.6,92.4 337.6,92.4 338.6,92.4 339.7,92.4 340.7,92.4 341.7,92.4 342.7,92.4 343.8,92.4 344.8,92.4 345.8,92.4 346.8,92.4 347.9,92.4 348.9,92.4 349.9,92.4 351.0,92.4 352.0,92.4 353.0,92.4 354.0,92.4 355.1,92.4 356.1,92.4 357.1,92.4 358.1,92.4 359.2,92.4 360.2,92.4 361.2,92.4 362.2,92.4 363.3,92.4 364.3,92.4 365.3,92.4 366.3,92.4 367.4,92.4 368.4,92.4 369.4,92.4 370.4,92.4 371.5,92.4 372.5,92.4 373.5,92.4 374.5,92.4 375.6,92.4 376.6,92.4 377.6,92.4 378.7,92.4 379.7,92.4 380.7,92.4 381.7,92.4 382.8,92.4 383.8,92.4 384.8,92.4 385.8,92.4 386.9,92.4 387.9,92.4 388.9,92.4 389.9,92.4 391.0,92.4 392.0,92.4 393.0,92.4 394.0,92.4 395.1,92.4 396.1,92.4 397.1,92.4 398.1,92.4 399.2,92.4 400.2,92.4 401.2,92.4 402.2,92.4 403.3,92.4 404.3,92.4 405.3,92.4 406.4,92.4 407.4,92.4 408.4,92.4 409.4,92.4 410.5,92.4 411.5,92.4 412.5,92.4 413.5,92.4 414.6,92.4 415.6,92.4 416.6,92.4 417.6,92.4 418.7,92.4 419.7,92.4 420.7,92.4 421.7,92.4 422.8,92.4 423.8,92.4 424.8,92.4 425.8,92.4 426.9,92.4 427.9,92.4 428.9,92.4 430.0,92.4 431.0,92.4 432.0,92.4 433.0,92.4 434.1,92.4 435.1,92.4 436.1,92.4 437.1,92.4 438.2,92.4 439.2,92.4 440.2,92.4 441.2,92.4 442.3,92.4 443.3,92.4 444.3,92.4 445.3,92.4 446.4,92.4 447.4,92.4 448.4,92.4 449.4,92.4 450.5,92.4 451.5,92.4 452.5,92.4 453.5,92.4 454.6,92.4 455.6,92.4 456.6,92.4 457.7,92.4 458.7,92.4 459.7,92.4 460.7,92.4 461.8,92.4 462.8,92.4 463.8,92.4 464.8,92.4 465.9,92.4 466.9,92.4 467.9,92.4 468.9,92.4 470.0,92.4 471.0,92.4 472.0,92.4 473.0,92.4 474.1,92.4 475.1,92.4 476.1,92.4 477.1,92.4 478.2,92.4 479.2,92.4 480.2,92.4 481.2,92.4 482.3,92.4 483.3,92.4 484.3,92.4 485.4,92.4 486.4,92.4 487.4,92.4 488.4,92.4 489.5,92.4 490.5,92.4 491.5,92.4 492.5,92.4 493.6,92.4 494.6,92.4 495.6,92.4 496.6,92.4 497.7,92.4 498.7,92.4 499.7,92.4 500.7,92.4 501.8,92.4 502.8,92.4 503.8,92.4 504.8,92.4 505.9,92.4 506.9,92.4 507.9,92.4 508.9,92.4 510.0,92.4 511.0,92.4 512.0,92.4 513.1,92.4 514.1,92.4 515.1,92.4 516.1,92.4 517.2,92.4 518.2,92.4 519.2,92.4 520.2,92.4 521.3,92.4 522.3,92.4 523.3,92.4 524.3,92.4 525.4,92.4 526.4,92.4 527.4,92.4 528.4,92.4 529.5,92.4 530.5,92.4 531.5,92.4 532.5,92.4 533.6,92.4 534.6,92.4 535.6,92.4 536.6,92.4 537.7,92.4 538.7,92.4 539.7,92.4 540.8,92.4 541.8,92.4 542.8,92.4 543.8,92.4 544.9,92.4 545.9,92.4 546.9,92.4 547.9,92.4 549.0,92.4 550.0,92.4 551.0,92.4 552.0,92.4 553.1,92.4 554.1,92.4 555.1,92.4 556.1,92.4 557.2,92.4 558.2,92.4 559.2,92.4 560.2,92.4 561.3,92.4 562.3,92.4 563.3,92.4 564.3,92.4 565.4,92.4 566.4,92.4 567.4,92.4 568.5,92.4 569.5,92.4 570.5,92.4 571.5,92.4 572.6,92.4 573.6,92.4 574.6,92.4 575.6,92.4 576.7,92.4 577.7,92.4 578.7,92.4 579.7,92.4 580.8,92.4 581.8,92.4 582.8,92.4 583.8,92.4 584.9,92.4 585.9,92.4 586.9,92.4 587.9,92.4 589.0,92.4 590.0,92.4 591.0,92.4 592.0,92.4 593.1,92.4 594.1,92.4 595.1,92.4 596.2,92.4 597.2,92.4 598.2,92.4 599.2,92.4 600.3,92.4 601.3,92.4 602.3,92.4 603.3,92.4 604.4,92.4 605.4,92.4 606.4,92.4 607.4,92.4 608.5,92.4 609.5,92.4 610.5,92.4 611.5,92.4 612.6,92.4 613.6,92.4 614.6,92.4 615.6,92.4 616.7,92.4 617.7,92.4 618.7,92.4 619.8,92.4 620.8,92.4 621.8,92.4 622.8,92.4 623.9,92.4 624.9,92.4 625.9,92.4 626.9,92.4 628.0,92.4 629.0,92.4 630.0,92.4 631.0,92.4 632.1,92.4 633.1,92.4 634.1,92.4 635.1,92.4 636.2,92.4 637.2,92.4 638.2,92.4 639.2,92.4 640.3,92.4 641.3,92.4 642.3,92.4 643.3,92.4 644.4,92.4 645.4,92.4 646.4,92.4 647.5,92.4 648.5,92.4 649.5,92.4 650.5,92.4 651.6,92.4 652.6,92.4 653.6,92.4 654.6,92.4 655.7,92.4 656.7,92.4 657.7,92.4 658.7,92.4 659.8,92.4 660.8,92.4 661.8,92.4 662.8,92.4 663.9,92.4 664.9,92.4 665.9,92.4 666.9,92.4 668.0,92.4 669.0,92.4 670.0,92.4 671.0,92.4 672.1,92.4 673.1,92.4 674.1,92.4 675.2,92.4 676.2,92.4 677.2,92.4 678.2,92.4 679.3,92.4 680.3,92.4 681.3,92.4 682.3,92.4 683.4,92.4 684.4,92.4 685.4,92.4 686.4,92.4 687.5,92.4 688.5,92.4 689.5,92.4 690.5,92.4 691.6,92.4 692.6,92.4 693.6,92.4 694.6,92.4 695.7,92.4 696.7,92.4 697.7,92.4 698.7,92.4 699.8,92.4 700.8,92.4 701.8,92.4 702.9,92.4 703.9,92.4 704.9,92.4 705.9,92.4 707.0,92.4 708.0,92.4 709.0,92.4 710.0,92.4 711.1,92.4 712.1,92.4 713.1,92.4 714.1,92.4 715.2,92.4 716.2,92.4 717.2,92.4 718.2,92.4 719.3,92.4 720.3,92.4 721.3,92.4 722.3,92.4 723.4,92.4 724.4,92.4 725.4,92.4 726.4,92.4 727.5,92.4 728.5,92.4 729.5,92.4 730.6,92.4 731.6,92.4 732.6,92.4 733.6,92.4 734.7,92.4 735.7,92.4 736.7,92.4 737.7,92.4 738.8,92.4 739.8,92.4 740.8,92.4 741.8,92.4 742.9,92.4 743.9,92.4 744.9,92.4 745.9,92.4 747.0,92.4 748.0,92.4 749.0,92.4 750.0,92.4 751.1,92.4 752.1,92.4 753.1,92.4 754.1,92.4 755.2,92.4 756.2,92.4 757.2,92.4 758.3,92.4 759.3,92.4 760.3,92.4 761.3,92.4 762.4,92.4 763.4,92.4 764.4,92.4 765.4,92.4 766.5,92.4 767.5,92.4 768.5,92.4 769.5,92.4 770.6,92.4 771.6,92.4 772.6,92.4 773.6,318.0 774.7,318.0 775.7,318.0 776.7,318.0 777.7,318.0 778.8,318.0 779.8,318.0 780.8,318.0 781.8,318.0 782.9,318.0 783.9,318.0 784.9,318.0 786.0,318.0 787.0,318.0 788.0,318.0 789.0,318.0 790.1,318.0 791.1,318.0 792.1,318.0 793.1,318.0 794.2,318.0 795.2,318.0 796.2,318.0 797.2,318.0 798.3,318.0 799.3,318.0 800.3,318.0 801.3,318.0 802.4,318.0 803.4,318.0 804.4,318.0 805.4,318.0 806.5,318.0 807.5,318.0 808.5,318.0 809.5,318.0 810.6,318.0 811.6,318.0 812.6,318.0 813.7,318.0 814.7,318.0 815.7,318.0 816.7,318.0 817.8,318.0 818.8,318.0 819.8,318.0 820.8,318.0 821.9,318.0 822.9,318.0 823.9,318.0 824.9,318.0 826.0,318.0 827.0,318.0 828.0,318.0 829.0,318.0 830.1,318.0 831.1,318.0 832.1,318.0 833.1,318.0 834.2,318.0 835.2,318.0 836.2,318.0 837.2,318.0 838.3,318.0 839.3,318.0 840.3,318.0 841.4,318.0 842.4,318.0 843.4,318.0 844.4,318.0 845.5,318.0 846.5,207.0 847.5,318.0 848.5,318.0 849.6,318.0 850.6,318.0 851.6,318.0 852.6,263.4 853.7,318.0 854.7,318.0 855.7,263.5 856.7,318.0 857.8,318.0 858.8,318.0 859.8,318.0 860.8,318.0 861.9,318.0 862.9,318.0 863.9,262.2 865.0,263.5 866.0,318.0 867.0,318.0 868.0,318.0 869.1,318.0 870.1,264.6 871.1,318.0 872.1,318.0 873.2,318.0 874.2,318.0 875.2,261.9 876.2,318.0 877.3,318.0 878.3,318.0 879.3,263.1 880.3,318.0 881.4,318.0 882.4,318.0 883.4,318.0 884.4,318.0 885.5,318.0 886.5,318.0 887.5,318.0 888.5,207.5 889.6,318.0 890.6,318.0 891.6,318.0 892.7,262.4 893.7,318.0 894.7,318.0 895.7,318.0 896.8,262.8 897.8,318.0 898.8,318.0 899.8,318.0 900.9,263.0 901.9,318.0 902.9,318.0 903.9,262.3 905.0,318.0 906.0,318.0 907.0,318.0 908.0,318.0 909.1,318.0 910.1,318.0 911.1,318.0 912.1,261.9 913.2,261.7 914.2,318.0 915.2,318.0 916.2,264.0 917.3,318.0 918.3,318.0 919.3,318.0 920.4,261.7 921.4,318.0 922.4,318.0 923.4,262.1 924.5,318.0 925.5,318.0 926.5,261.7 927.5,318.0 928.6,263.0 929.6,318.0 930.6,318.0 931.6,318.0 932.7,318.0 933.7,318.0 934.7,318.0 935.7,318.0 936.8,318.0 937.8,207.1 938.8,318.0 939.8,318.0 940.9,318.0 941.9,262.6 942.9,318.0 943.9,318.0 945.0,318.0 946.0,318.0" fill="none" stroke="#2563eb" stroke-width="2.2" stroke-linejoin="round" stroke-linecap="round"/>
<polyline points="76.0,262.8 77.0,258.8 78.1,249.5 79.1,247.2 80.1,250.9 81.1,240.3 82.2,239.7 83.2,243.5 84.2,248.5 85.2,248.0 86.3,264.6 87.3,246.1 88.3,245.2 89.3,246.9 90.4,251.1 91.4,259.3 92.4,256.5 93.4,254.2 94.5,251.6 95.5,256.6 96.5,261.5 97.5,257.5 98.6,255.6 99.6,255.2 100.6,249.2 101.6,247.7 102.7,249.7 103.7,241.1 104.7,232.5 105.8,241.2 106.8,243.5 107.8,257.3 108.8,251.0 109.9,250.7 110.9,255.2 111.9,250.5 112.9,247.4 114.0,253.4 115.0,247.1 116.0,247.0 117.0,244.7 118.1,261.9 119.1,258.2 120.1,254.2 121.1,219.8 122.2,222.3 123.2,255.3 124.2,251.2 125.2,237.3 126.3,219.3 127.3,239.9 128.3,251.2 129.3,243.9 130.4,242.1 131.4,243.9 132.4,246.7 133.5,244.4 134.5,250.0 135.5,241.3 136.5,247.0 137.6,238.8 138.6,245.4 139.6,243.9 140.6,285.1 141.7,270.0 142.7,262.3 143.7,270.1 144.7,267.0 145.8,238.5 146.8,233.8 147.8,243.4 148.8,259.9 149.9,272.4 150.9,246.0 151.9,245.5 152.9,248.1 154.0,261.0 155.0,250.4 156.0,259.1 157.0,245.9 158.1,240.5 159.1,253.9 160.1,249.9 161.2,254.6 162.2,255.7 163.2,254.0 164.2,261.9 165.3,251.4 166.3,251.4 167.3,253.7 168.3,250.0 169.4,268.3 170.4,231.5 171.4,255.8 172.4,251.1 173.5,218.2 174.5,256.5 175.5,245.2 176.5,247.9 177.6,226.9 178.6,246.1 179.6,248.3 180.6,241.0 181.7,249.4 182.7,243.6 183.7,250.1 184.8,244.3 185.8,242.8 186.8,242.6 187.8,248.1 188.9,245.4 189.9,251.8 190.9,237.9 191.9,251.4 193.0,252.6 194.0,250.9 195.0,220.0 196.0,203.6 197.1,214.7 198.1,215.7 199.1,215.3 200.1,224.9 201.2,220.4 202.2,216.0 203.2,243.5 204.2,246.4 205.3,241.9 206.3,243.2 207.3,242.2 208.3,241.7 209.4,242.6 210.4,244.6 211.4,243.4 212.5,245.1 213.5,249.7 214.5,245.1 215.5,258.2 216.6,257.8 217.6,248.2 218.6,263.2 219.6,290.3 220.7,254.2 221.7,268.2 222.7,255.6 223.7,253.3 224.8,253.6 225.8,250.8 226.8,251.8 227.8,245.2 228.9,251.1 229.9,244.3 230.9,242.4 231.9,240.7 233.0,242.6 234.0,251.4 235.0,264.1 236.0,247.2 237.1,252.2 238.1,250.9 239.1,253.1 240.2,253.4 241.2,258.6 242.2,260.8 243.2,259.1 244.3,292.1 245.3,255.7 246.3,270.2 247.3,236.2 248.4,252.1 249.4,245.1 250.4,249.0 251.4,240.5 252.5,242.6 253.5,248.7 254.5,243.1 255.5,236.6 256.6,245.7 257.6,247.5 258.6,241.4 259.6,245.2 260.7,245.0 261.7,246.8 262.7,247.8 263.7,251.7 264.8,253.2 265.8,259.1 266.8,263.5 267.9,252.2 268.9,285.5 269.9,251.7 270.9,255.1 272.0,250.6 273.0,249.8 274.0,242.9 275.0,242.4 276.1,242.2 277.1,241.0 278.1,247.3 279.1,248.1 280.2,258.9 281.2,257.3 282.2,253.8 283.2,250.1 284.3,255.8 285.3,247.6 286.3,253.5 287.3,245.9 288.4,253.4 289.4,258.1 290.4,261.3 291.4,258.9 292.5,266.2 293.5,297.6 294.5,260.0 295.6,260.3 296.6,258.6 297.6,257.8 298.6,249.6 299.7,247.9 300.7,245.9 301.7,252.3 302.7,248.8 303.8,245.4 304.8,245.5 305.8,241.2 306.8,248.2 307.9,240.3 308.9,241.3 309.9,240.9 310.9,255.8 312.0,255.5 313.0,254.2 314.0,259.3 315.0,273.3 316.1,257.9 317.1,260.5 318.1,258.2 319.1,252.3 320.2,232.0 321.2,219.6 322.2,257.6 323.3,245.0 324.3,228.2 325.3,224.5 326.3,224.1 327.4,223.8 328.4,222.7 329.4,239.3 330.4,231.7 331.5,235.3 332.5,236.0 333.5,245.7 334.5,256.8 335.6,266.4 336.6,245.2 337.6,283.8 338.6,250.1 339.7,265.2 340.7,256.9 341.7,258.4 342.7,265.9 343.8,249.6 344.8,209.8 345.8,220.6 346.8,223.0 347.9,225.7 348.9,215.1 349.9,227.4 351.0,222.0 352.0,209.0 353.0,242.0 354.0,239.8 355.1,248.9 356.1,251.4 357.1,247.5 358.1,243.7 359.2,252.6 360.2,250.3 361.2,248.7 362.2,267.5 363.3,252.2 364.3,247.7 365.3,258.9 366.3,227.2 367.4,211.3 368.4,216.8 369.4,255.8 370.4,251.6 371.5,245.4 372.5,270.3 373.5,239.4 374.5,244.7 375.6,243.3 376.6,250.8 377.6,232.4 378.7,242.8 379.7,244.7 380.7,265.4 381.7,239.2 382.8,244.6 383.8,242.8 384.8,247.8 385.8,246.7 386.9,263.6 387.9,250.8 388.9,258.2 389.9,254.7 391.0,251.7 392.0,265.0 393.0,252.6 394.0,259.2 395.1,263.9 396.1,253.9 397.1,230.0 398.1,224.2 399.2,257.9 400.2,245.8 401.2,252.8 402.2,255.5 403.3,248.1 404.3,251.2 405.3,250.1 406.4,248.5 407.4,245.4 408.4,265.0 409.4,263.0 410.5,258.3 411.5,262.4 412.5,259.0 413.5,283.8 414.6,276.5 415.6,273.1 416.6,276.5 417.6,282.7 418.7,282.5 419.7,277.7 420.7,281.6 421.7,283.5 422.8,278.5 423.8,276.0 424.8,265.8 425.8,251.2 426.9,259.6 427.9,273.4 428.9,261.0 430.0,263.4 431.0,257.8 432.0,265.6 433.0,262.2 434.1,262.1 435.1,262.1 436.1,254.3 437.1,262.8 438.2,257.4 439.2,261.5 440.2,249.6 441.2,254.9 442.3,260.6 443.3,262.8 444.3,263.7 445.3,259.3 446.4,258.4 447.4,252.3 448.4,251.5 449.4,254.4 450.5,233.7 451.5,246.8 452.5,259.0 453.5,247.4 454.6,244.3 455.6,249.6 456.6,251.4 457.7,253.2 458.7,252.7 459.7,254.5 460.7,255.1 461.8,251.1 462.8,261.9 463.8,260.5 464.8,265.7 465.9,260.3 466.9,265.4 467.9,257.3 468.9,253.9 470.0,261.6 471.0,244.2 472.0,253.1 473.0,245.6 474.1,249.2 475.1,235.1 476.1,243.1 477.1,248.1 478.2,255.7 479.2,236.3 480.2,251.0 481.2,236.7 482.3,242.5 483.3,247.8 484.3,246.2 485.4,246.8 486.4,245.6 487.4,253.2 488.4,266.1 489.5,257.9 490.5,214.6 491.5,221.0 492.5,217.1 493.6,231.6 494.6,220.8 495.6,221.3 496.6,229.0 497.7,250.2 498.7,248.0 499.7,234.3 500.7,246.0 501.8,245.0 502.8,252.9 503.8,245.9 504.8,247.4 505.9,248.3 506.9,247.7 507.9,239.1 508.9,240.8 510.0,252.0 511.0,252.9 512.0,252.0 513.1,259.5 514.1,248.6 515.1,255.6 516.1,255.6 517.2,256.2 518.2,252.6 519.2,250.4 520.2,247.5 521.3,235.3 522.3,257.7 523.3,239.4 524.3,217.5 525.4,244.7 526.4,243.3 527.4,247.4 528.4,248.5 529.5,245.5 530.5,244.6 531.5,247.9 532.5,251.0 533.6,248.9 534.6,252.3 535.6,249.7 536.6,252.3 537.7,258.4 538.7,260.8 539.7,239.5 540.8,262.6 541.8,268.1 542.8,271.0 543.8,253.1 544.9,249.5 545.9,256.8 546.9,242.4 547.9,244.6 549.0,235.9 550.0,245.9 551.0,252.1 552.0,240.5 553.1,234.4 554.1,239.0 555.1,241.9 556.1,235.1 557.2,252.6 558.2,245.0 559.2,244.3 560.2,262.3 561.3,305.5 562.3,249.9 563.3,245.8 564.3,258.9 565.4,255.9 566.4,253.1 567.4,256.3 568.5,245.1 569.5,242.3 570.5,240.8 571.5,242.9 572.6,248.5 573.6,241.0 574.6,237.3 575.6,242.1 576.7,239.8 577.7,236.5 578.7,241.5 579.7,247.0 580.8,243.4 581.8,245.8 582.8,248.9 583.8,238.6 584.9,251.6 585.9,249.4 586.9,276.3 587.9,259.7 589.0,250.9 590.0,269.4 591.0,251.6 592.0,254.3 593.1,253.9 594.1,248.4 595.1,238.0 596.2,246.8 597.2,247.0 598.2,245.2 599.2,246.2 600.3,236.4 601.3,240.2 602.3,239.9 603.3,265.2 604.4,243.4 605.4,244.6 606.4,240.0 607.4,250.6 608.5,252.1 609.5,260.3 610.5,245.6 611.5,263.7 612.6,248.6 613.6,262.8 614.6,265.9 615.6,248.1 616.7,254.3 617.7,247.2 618.7,252.3 619.8,246.3 620.8,251.2 621.8,245.4 622.8,241.8 623.9,237.3 624.9,251.5 625.9,246.1 626.9,239.7 628.0,238.8 629.0,245.5 630.0,247.4 631.0,254.5 632.1,236.8 633.1,251.2 634.1,251.9 635.1,255.6 636.2,260.8 637.2,260.8 638.2,256.8 639.2,248.6 640.3,250.9 641.3,258.6 642.3,252.0 643.3,247.8 644.4,242.0 645.4,235.9 646.4,240.3 647.5,241.3 648.5,243.0 649.5,250.0 650.5,251.4 651.6,248.2 652.6,247.2 653.6,243.8 654.6,247.8 655.7,250.6 656.7,243.7 657.7,249.4 658.7,257.8 659.8,256.4 660.8,266.0 661.8,253.2 662.8,257.3 663.9,254.9 664.9,263.9 665.9,255.6 666.9,243.4 668.0,246.3 669.0,236.2 670.0,243.4 671.0,247.6 672.1,232.1 673.1,245.1 674.1,241.1 675.2,245.4 676.2,244.3 677.2,245.7 678.2,244.9 679.3,237.9 680.3,243.8 681.3,240.4 682.3,257.6 683.4,256.3 684.4,256.7 685.4,257.1 686.4,257.2 687.5,263.0 688.5,256.8 689.5,255.5 690.5,256.1 691.6,252.2 692.6,269.8 693.6,254.4 694.6,246.0 695.7,249.9 696.7,237.3 697.7,240.6 698.7,246.0 699.8,254.5 700.8,250.8 701.8,250.9 702.9,252.8 703.9,243.7 704.9,250.9 705.9,251.9 707.0,264.5 708.0,263.0 709.0,262.2 710.0,258.8 711.1,264.6 712.1,255.8 713.1,263.3 714.1,253.6 715.2,256.9 716.2,252.5 717.2,255.3 718.2,252.6 719.3,246.8 720.3,248.8 721.3,241.7 722.3,242.1 723.4,248.9 724.4,250.9 725.4,245.3 726.4,247.8 727.5,246.7 728.5,252.2 729.5,248.6 730.6,256.6 731.6,253.4 732.6,255.6 733.6,260.2 734.7,251.7 735.7,253.8 736.7,264.5 737.7,255.3 738.8,263.6 739.8,248.5 740.8,252.2 741.8,250.8 742.9,253.1 743.9,244.8 744.9,253.0 745.9,244.6 747.0,248.3 748.0,251.8 749.0,245.9 750.0,246.0 751.1,261.2 752.1,255.5 753.1,251.8 754.1,251.4 755.2,254.2 756.2,255.0 757.2,255.0 758.3,265.9 759.3,248.1 760.3,272.1 761.3,254.3 762.4,257.3 763.4,258.3 764.4,243.2 765.4,251.2 766.5,252.1 767.5,251.2 768.5,251.9 769.5,266.5 770.6,260.3 771.6,243.4 772.6,245.9 773.6,345.6 774.7,341.0 775.7,341.4 776.7,339.1 777.7,340.1 778.8,345.0 779.8,343.8 780.8,343.3 781.8,343.1 782.9,343.9 783.9,341.5 784.9,341.0 786.0,342.3 787.0,341.5 788.0,345.3 789.0,340.9 790.1,350.1 791.1,340.2 792.1,342.7 793.1,340.3 794.2,340.1 795.2,341.1 796.2,339.5 797.2,343.3 798.3,343.2 799.3,340.7 800.3,342.2 801.3,341.2 802.4,341.9 803.4,340.0 804.4,344.3 805.4,338.1 806.5,340.6 807.5,342.6 808.5,342.9 809.5,342.3 810.6,345.1 811.6,342.7 812.6,342.9 813.7,340.6 814.7,341.6 815.7,339.6 816.7,341.3 817.8,341.5 818.8,341.0 819.8,342.0 820.8,339.2 821.9,339.6 822.9,340.4 823.9,340.9 824.9,335.8 826.0,335.6 827.0,334.7 828.0,340.2 829.0,340.4 830.1,340.3 831.1,339.6 832.1,342.0 833.1,341.5 834.2,342.0 835.2,343.1 836.2,342.0 837.2,340.6 838.3,334.9 839.3,339.8 840.3,340.6 841.4,340.3 842.4,338.2 843.4,339.3 844.4,338.7 845.5,346.4 846.5,288.7 847.5,339.1 848.5,340.3 849.6,342.0 850.6,341.7 851.6,339.6 852.6,312.1 853.7,343.5 854.7,342.2 855.7,322.7 856.7,348.9 857.8,344.5 858.8,342.6 859.8,342.4 860.8,337.4 861.9,336.7 862.9,331.5 863.9,316.9 865.0,313.8 866.0,336.5 867.0,339.3 868.0,351.6 869.1,341.7 870.1,317.1 871.1,341.6 872.1,334.3 873.2,338.9 874.2,348.0 875.2,317.1 876.2,340.6 877.3,341.7 878.3,340.6 879.3,319.1 880.3,347.2 881.4,345.5 882.4,345.7 883.4,345.8 884.4,345.1 885.5,346.2 886.5,346.7 887.5,351.1 888.5,313.1 889.6,349.0 890.6,346.7 891.6,345.7 892.7,319.3 893.7,345.8 894.7,339.2 895.7,344.5 896.8,321.3 897.8,341.8 898.8,345.7 899.8,343.1 900.9,324.3 901.9,350.6 902.9,345.0 903.9,326.2 905.0,345.3 906.0,345.4 907.0,344.2 908.0,342.9 909.1,345.7 910.1,345.4 911.1,343.6 912.1,320.0 913.2,320.0 914.2,347.3 915.2,343.8 916.2,316.3 917.3,341.6 918.3,340.2 919.3,341.8 920.4,296.9 921.4,344.3 922.4,343.9 923.4,315.0 924.5,347.3 925.5,342.9 926.5,322.7 927.5,347.9 928.6,322.0 929.6,340.4 930.6,347.6 931.6,347.1 932.7,345.1 933.7,342.7 934.7,343.7 935.7,345.5 936.8,344.0 937.8,296.5 938.8,343.7 939.8,345.8 940.9,340.6 941.9,314.7 942.9,345.6 943.9,340.9 945.0,344.2 946.0,343.2" fill="none" stroke="#7c3aed" stroke-width="2.2" stroke-linejoin="round" stroke-linecap="round"/>
<line x1="76" y1="70" x2="94" y2="70" stroke="#2563eb" stroke-width="3"/>
<text x="100" y="74" font-family="Arial, sans-serif" font-size="11" fill="#0f172a">tx count</text>
<line x1="186" y1="70" x2="204" y2="70" stroke="#7c3aed" stroke-width="3"/>
<text x="210" y="74" font-family="Arial, sans-serif" font-size="11" fill="#0f172a">unique accounts</text>
<text x="28" y="404" font-family="Arial, sans-serif" font-size="11" fill="#64748b">Source: hourly_features.csv; capped windows are sample counts</text>
</svg>