<svg xmlns="http://www.w3.org/2000/svg" width="980" height="420" viewBox="0 0 980 420">
<rect width="100%" height="100%" fill="#ffffff"/>
<text x="28" y="34" font-family="Arial, sans-serif" font-size="20" font-weight="700" fill="#0f172a">Network activity sample trend</text>
<text x="28" y="56" font-family="Arial, sans-serif" font-size="12" fill="#64748b">Hourly transaction sample count and unique account sample count</text>
<line x1="76" y1="362.0" x2="946" y2="362.0" stroke="#e2e8f0" stroke-width="1"/>
<text x="68" y="366.0" font-family="Arial, sans-serif" font-size="10" text-anchor="end" fill="#64748b">153</text>
<line x1="76" y1="292.0" x2="946" y2="292.0" stroke="#e2e8f0" stroke-width="1"/>
<text x="68" y="296.0" font-family="Arial, sans-serif" font-size="10" text-anchor="end" fill="#64748b">1K</text>
<line x1="76" y1="222.0" x2="946" y2="222.0" stroke="#e2e8f0" stroke-width="1"/>
<text x="68" y="226.0" font-family="Arial, sans-serif" font-size="10" text-anchor="end" fill="#64748b">3K</text>
<line x1="76" y1="152.0" x2="946" y2="152.0" stroke="#e2e8f0" stroke-width="1"/>
<text x="68" y="156.0" font-family="Arial, sans-serif" font-size="10" text-anchor="end" fill="#64748b">4K</text>
<line x1="76" y1="82.0" x2="946" y2="82.0" stroke="#e2e8f0" stroke-width="1"/>
<text x="68" y="86.0" font-family="Arial, sans-serif" font-size="10" text-anchor="end" fill="#64748b">5K</text>
<line x1="76" y1="362" x2="946" y2="362" stroke="#334155" stroke-width="1"/>
<line x1="76" y1="82" x2="76" y2="362" stroke="#334155" stroke-width="1"/>
<text x="76" y="72" font-family="Arial, sans-serif" font-size="11" fill="#64748b">count</text>
<line x1="76.0" y1="362" x2="76.0" y2="366" stroke="#334155" stroke-width="1"/>
<text x="76.0" y="380" font-family="Arial, sans-serif" font-size="10" text-anchor="middle" fill="#64748b">0</text>
<line x1="511.0" y1="362" x2="511.0" y2="366" stroke="#334155" stroke-width="1"/>
<text x="511.0" y="380" font-family="Arial, sans-serif" font-size="10" text-anchor="middle" fill="#64748b">469</text>
<line x1="946.0" y1="362" x2="946.0" y2="366" stroke="#334155" stroke-width="1"/>
<text x="946.0" y="380" font-family="Arial, sans-serif" font-size="10" text-anchor="middle" fill="#64748b">938</text>
<polyline points="76.0,92.4 76.9,92.4 77.9,92.4 78.8,92.4 79.7,92.4 80.6,92.4 81.6,92.4 82.5,92.4 83.4,92.4 84.3,92.4 85.3,92.4 86.2,92.4 87.1,92.4 88.1,92.4 89.0,92.4 89.9,92.4 90.8,92.4 91.8,92.4 92.7,92.4 93.6,92.4 94.6,92.4 95.5,92.4 96.4,92.4 97.3,92.4 98.3,92.4 99.2,92.4 100.1,92.4 101.0,92.4 102.0,92.4 102.9,92.4 103.8,92.4 104.8,92.4 105.7,92.4 106.6,92.4 107.5,92.4 108.5,92.4 109.4,92.4 110.3,92.4 111.2,92.4 112.2,92.4 113.1,92.4 114.0,92.4 115.0,92.4 115.9,92.4 116.8,92.4 117.7,92.4 118.7,92.4 119.6,92.4 120.5,92.4 121.4,92.4 122.4,92.4 123.3,92.4 124.2,92.4 125.2,92.4 126.1,92.4 127.0,92.4 127.9,92.4 128.9,92.4 129.8,92.4 130.7,92.4 131.7,92.4 132.6,92.4 133.5,92.4 134.4,92.4 135.4,92.4 136.3,92.4 137.2,92.4 138.1,92.4 139.1,92.4 140.0,92.4 140.9,92.4 141.9,92.4 142.8,92.4 143.7,92.4 144.6,92.4 145.6,92.4 146.5,92.4 147.4,92.4 148.3,92.4 149.3,92.4 150.2,92.4 151.1,92.4 152.1,92.4 153.0,92.4 153.9,92.4 154.8,92.4 155.8,92.4 156.7,92.4 157.6,92.4 158.5,92.4 159.5,92.4 160.4,92.4 161.3,92.4 162.3,92.4 163.2,92.4 164.1,92.4 165.0,92.4 166.0,92.4 166.9,92.4 167.8,92.4 168.8,92.4 169.7,92.4 170.6,92.4 171.5,92.4 172.5,92.4 173.4,92.4 174.3,92.4 175.2,92.4 176.2,92.4 177.1,92.4 178.0,92.4 179.0,92.4 179.9,92.4 180.8,92.4 181.7,92.4 182.7,92.4 183.6,92.4 184.5,92.4 185.4,92.4 186.4,92.4 187.3,92.4 188.2,92.4 189.2,92.4 190.1,92.4 191.0,92.4 191.9,92.4 192.9,92.4 193.8,92.4 194.7,92.4 195.6,92.4 196.6,92.4 197.5,92.4 198.4,92.4 199.4,92.4 200.3,92.4 201.2,92.4 202.1,92.4 203.1,92.4 204.0,92.4 204.9,92.4 205.9,92.4 206.8,92.4 207.7,92.4 208.6,92.4 209.6,92.4 210.5,92.4 211.4,92.4 212.3,92.4 213.3,92.4 214.2,92.4 215.1,92.4 216.1,92.4 217.0,92.4 217.9,92.4 218.8,92.4 219.8,92.4 220.7,92.4 221.6,92.4 222.5,92.4 223.5,92.4 224.4,92.4 225.3,92.4 226.3,92.4 227.2,92.4 228.1,92.4 229.0,92.4 230.0,92.4 230.9,92.4 231.8,92.4 232.7,92.4 233.7,92.4 234.6,92.4 235.5,92.4 236.5,92.4 237.4,92.4 238.3,92.4 239.2,92.4 240.2,92.4 241.1,92.4 242.0,92.4 243.0,92.4 243.9,92.4 244.8,92.4 245.7,92.4 246.7,92.4 247.6,92.4 248.5,92.4 249.4,92.4 250.4,92.4 251.3,92.4 252.2,92.4 253.2,92.4 254.1,92.4 255.0,92.4 255.9,92.4 256.9,92.4 257.8,92.4 258.7,92.4 259.6,92.4 260.6,92.4 261.5,92.4 262.4,92.4 263.4,92.4 264.3,92.4 265.2,92.4 266.1,92.4 267.1,92.4 268.0,92.4 268.9,92.4 269.8,92.4 270.8,92.4 271.7,92.4 272.6,92.4 273.6,92.4 274.5,92.4 275.4,92.4 276.3,92.4 277.3,92.4 278.2,92.4 279.1,92.4 280.1,92.4 281.0,92.4 281.9,92.4 282.8,92.4 283.8,92.4 284.7,92.4 285.6,92.4 286.5,92.4 287.5,92.4 288.4,92.4 289.3,92.4 290.3,92.4 291.2,92.4 292.1,92.4 293.0,92.4 294.0,92.4 294.9,92.4 295.8,92.4 296.7,92.4 297.7,92.4 298.6,92.4 299.5,92.4 300.5,92.4 301.4,92.4 302.3,92.4 303.2,92.4 304.2,92.4 305.1,92.4 306.0,92.4 306.9,92.4 307.9,92.4 308.8,92.4 309.7,92.4 310.7,92.4 311.6,92.4 312.5,92.4 313.4,92.4 314.4,92.4 315.3,92.4 316.2,92.4 317.2,92.4 318.1,92.4 319.0,92.4 319.9,92.4 320.9,92.4 321.8,92.4 322.7,92.4 323.6,92.4 324.6,92.4 325.5,92.4 326.4,92.4 327.4,92.4 328.3,92.4 329.2,92.4 330.1,92.4 331.1,92.4 332.0,92.4 332.9,92.4 333.8,92.4 334.8,92.4 335.7,92.4 336.6,92.4 337.6,92.4 338.5,92.4 339.4,92.4 340.3,92.4 341.3,92.4 342.2,92.4 343.1,92.4 344.0,92.4 345.0,92.4 345.9,92.4 346.8,92.4 347.8,92.4 348.7,92.4 349.6,92.4 350.5,92.4 351.5,92.4 352.4,92.4 353.3,92.4 354.3,92.4 355.2,92.4 356.1,92.4 357.0,92.4 358.0,92.4 358.9,92.4 359.8,92.4 360.7,92.4 361.7,92.4 362.6,92.4 363.5,92.4 364.5,92.4 365.4,92.4 366.3,92.4 367.2,92.4 368.2,92.4 369.1,92.4 370.0,92.4 370.9,92.4 371.9,92.4 372.8,92.4 373.7,92.4 374.7,92.4 375.6,92.4 376.5,92.4 377.4,92.4 378.4,92.4 379.3,92.4 380.2,92.4 381.1,92.4 382.1,92.4 383.0,92.4 383.9,92.4 384.9,92.4 385.8,92.4 386.7,92.4 387.6,92.4 388.6,92.4 389.5,92.4 390.4,92.4 391.4,92.4 392.3,92.4 393.2,92.4 394.1,92.4 395.1,92.4 396.0,92.4 396.9,92.4 397.8,92.4 398.8,92.4 399.7,92.4 400.6,92.4 401.6,92.4 402.5,92.4 403.4,92.4 404.3,92.4 405.3,92.4 406.2,92.4 407.1,92.4 408.0,92.4 409.0,92.4 409.9,92.4 410.8,92.4 411.8,92.4 412.7,92.4 413.6,92.4 414.5,92.4 415.5,92.4 416.4,92.4 417.3,92.4 418.2,92.4 419.2,92.4 420.1,92.4 421.0,92.4 422.0,92.4 422.9,92.4 423.8,92.4 424.7,92.4 425.7,92.4 426.6,92.4 427.5,92.4 428.5,92.4 429.4,92.4 430.3,92.4 431.2,92.4 432.2,92.4 433.1,92.4 434.0,92.4 434.9,92.4 435.9,92.4 436.8,92.4 437.7,92.4 438.7,92.4 439.6,92.4 440.5,92.4 441.4,92.4 442.4,92.4 443.3,92.4 444.2,92.4 445.1,92.4 446.1,92.4 447.0,92.4 447.9,92.4 448.9,92.4 449.8,92.4 450.7,92.4 451.6,92.4 452.6,92.4 453.5,92.4 454.4,92.4 455.3,92.4 456.3,92.4 457.2,92.4 458.1,92.4 459.1,92.4 460.0,92.4 460.9,92.4 461.8,92.4 462.8,92.4 463.7,92.4 464.6,92.4 465.6,92.4 466.5,92.4 467.4,92.4 468.3,92.4 469.3,92.4 470.2,92.4 471.1,92.4 472.0,92.4 473.0,92.4 473.9,92.4 474.8,92.4 475.8,92.4 476.7,92.4 477.6,92.4 478.5,92.4 479.5,92.4 480.4,92.4 481.3,92.4 482.2,92.4 483.2,92.4 484.1,92.4 485.0,92.4 486.0,92.4 486.9,92.4 487.8,92.4 488.7,92.4 489.7,92.4 490.6,92.4 491.5,92.4 492.4,92.4 493.4,92.4 494.3,92.4 495.2,92.4 496.2,92.4 497.1,92.4 498.0,92.4 498.9,92.4 499.9,92.4 500.8,92.4 501.7,92.4 502.7,92.4 503.6,92.4 504.5,92.4 505.4,92.4 506.4,92.4 507.3,92.4 508.2,92.4 509.1,92.4 510.1,92.4 511.0,92.4 511.9,92.4 512.9,92.4 513.8,92.4 514.7,92.4 515.6,92.4 516.6,92.4 517.5,92.4 518.4,92.4 519.3,92.4 520.3,92.4 521.2,92.4 522.1,92.4 523.1,92.4 524.0,92.4 524.9,92.4 525.8,92.4 526.8,92.4 527.7,92.4 528.6,92.4 529.6,92.4 530.5,92.4 531.4,92.4 532.3,92.4 533.3,92.4 534.2,92.4 535.1,92.4 536.0,92.4 537.0,92.4 537.9,92.4 538.8,92.4 539.8,92.4 540.7,92.4 541.6,92.4 542.5,92.4 543.5,92.4 544.4,92.4 545.3,92.4 546.2,92.4 547.2,92.4 548.1,92.4 549.0,92.4 550.0,92.4 550.9,92.4 551.8,92.4 552.7,92.4 553.7,92.4 554.6,92.4 555.5,92.4 556.4,92.4 557.4,92.4 558.3,92.4 559.2,92.4 560.2,92.4 561.1,92.4 562.0,92.4 562.9,92.4 563.9,92.4 564.8,92.4 565.7,92.4 566.7,92.4 567.6,92.4 568.5,92.4 569.4,92.4 570.4,92.4 571.3,92.4 572.2,92.4 573.1,92.4 574.1,92.4 575.0,92.4 575.9,92.4 576.9,92.4 577.8,92.4 578.7,92.4 579.6,92.4 580.6,92.4 581.5,92.4 582.4,92.4 583.3,92.4 584.3,92.4 585.2,92.4 586.1,92.4 587.1,92.4 588.0,92.4 588.9,92.4 589.8,92.4 590.8,92.4 591.7,92.4 592.6,92.4 593.5,92.4 594.5,92.4 595.4,92.4 596.3,92.4 597.3,92.4 598.2,92.4 599.1,92.4 600.0,92.4 601.0,92.4 601.9,92.4 602.8,92.4 603.8,92.4 604.7,92.4 605.6,92.4 606.5,92.4 607.5,92.4 608.4,92.4 609.3,92.4 610.2,92.4 611.2,92.4 612.1,92.4 613.0,92.4 614.0,92.4 614.9,92.4 615.8,92.4 616.7,92.4 617.7,92.4 618.6,92.4 619.5,92.4 620.4,92.4 621.4,92.4 622.3,92.4 623.2,92.4 624.2,92.4 625.1,92.4 626.0,92.4 626.9,92.4 627.9,92.4 628.8,92.4 629.7,92.4 630.6,92.4 631.6,92.4 632.5,92.4 633.4,92.4 634.4,92.4 635.3,92.4 636.2,92.4 637.1,92.4 638.1,92.4 639.0,92.4 639.9,92.4 640.9,92.4 641.8,92.4 642.7,92.4 643.6,92.4 644.6,92.4 645.5,92.4 646.4,92.4 647.3,92.4 648.3,92.4 649.2,92.4 650.1,92.4 651.1,92.4 652.0,92.4 652.9,92.4 653.8,92.4 654.8,92.4 655.7,92.4 656.6,92.4 657.5,92.4 658.5,92.4 659.4,92.4 660.3,92.4 661.3,92.4 662.2,92.4 663.1,92.4 664.0,92.4 665.0,92.4 665.9,92.4 666.8,92.4 667.7,92.4 668.7,92.4 669.6,92.4 670.5,92.4 671.5,92.4 672.4,92.4 673.3,92.4 674.2,92.4 675.2,92.4 676.1,92.4 677.0,92.4 678.0,92.4 678.9,92.4 679.8,92.4 680.7,92.4 681.7,92.4 682.6,92.4 683.5,92.4 684.4,92.4 685.4,92.4 686.3,92.4 687.2,92.4 688.2,92.4 689.1,92.4 690.0,92.4 690.9,92.4 691.9,92.4 692.8,92.4 693.7,92.4 694.6,92.4 695.6,92.4 696.5,92.4 697.4,92.4 698.4,92.4 699.3,92.4 700.2,92.4 701.1,92.4 702.1,92.4 703.0,92.4 703.9,92.4 704.8,92.4 705.8,92.4 706.7,314.9 707.6,314.9 708.6,314.9 709.5,314.9 710.4,314.9 711.3,314.9 712.3,314.9 713.2,314.9 714.1,314.9 715.1,314.9 716.0,314.9 716.9,314.9 717.8,314.9 718.8,314.9 719.7,314.9 720.6,314.9 721.5,314.9 722.5,314.9 723.4,314.9 724.3,314.9 725.3,314.9 726.2,314.9 727.1,314.9 728.0,314.9 729.0,314.9 729.9,314.9 730.8,314.9 731.7,314.9 732.7,314.9 733.6,314.9 734.5,314.9 735.5,314.9 736.4,314.9 737.3,314.9 738.2,314.9 739.2,314.9 740.1,314.9 741.0,314.9 741.9,314.9 742.9,314.9 743.8,314.9 744.7,314.9 745.7,314.9 746.6,314.9 747.5,314.9 748.4,314.9 749.4,314.9 750.3,314.9 751.2,314.9 752.2,314.9 753.1,314.9 754.0,314.9 754.9,314.9 755.9,314.9 756.8,314.9 757.7,314.9 758.6,314.9 759.6,314.9 760.5,314.9 761.4,314.9 762.4,314.9 763.3,314.9 764.2,314.9 765.1,314.9 766.1,314.9 767.0,314.9 767.9,314.9 768.8,314.9 769.8,314.9 770.7,314.9 771.6,314.9 772.6,205.4 773.5,314.9 774.4,314.9 775.3,314.9 776.3,314.9 777.2,314.9 778.1,261.0 779.0,314.9 780.0,314.9 780.9,261.1 781.8,314.9 782.8,314.9 783.7,314.9 784.6,314.9 785.5,314.9 786.5,314.9 787.4,314.9 788.3,259.9 789.3,261.1 790.2,314.9 791.1,314.9 792.0,314.9 793.0,314.9 793.9,262.2 794.8,314.9 795.7,314.9 796.7,314.9 797.6,314.9 798.5,259.6 799.5,314.9 800.4,314.9 801.3,314.9 802.2,260.7 803.2,314.9 804.1,314.9 805.0,314.9 805.9,314.9 806.9,314.9 807.8,314.9 808.7,314.9 809.7,314.9 810.6,205.9 811.5,314.9 812.4,314.9 813.4,314.9 814.3,260.1 815.2,314.9 816.1,314.9 817.1,314.9 818.0,260.5 818.9,314.9 819.9,314.9 820.8,314.9 821.7,260.6 822.6,314.9 823.6,314.9 824.5,260.0 825.4,314.9 826.4,314.9 827.3,314.9 828.2,314.9 829.1,314.9 830.1,314.9 831.0,314.9 831.9,259.6 832.8,259.3 833.8,314.9 834.7,314.9 835.6,261.6 836.6,314.9 837.5,314.9 838.4,314.9 839.3,259.3 840.3,314.9 841.2,314.9 842.1,259.7 843.0,314.9 844.0,314.9 844.9,259.3 845.8,314.9 846.8,260.6 847.7,314.9 848.6,314.9 849.5,314.9 850.5,314.9 851.4,314.9 852.3,314.9 853.2,314.9 854.2,314.9 855.1,205.5 856.0,314.9 857.0,314.9 857.9,314.9 858.8,260.2 859.7,314.9 860.7,314.9 861.6,314.9 862.5,262.1 863.5,314.9 864.4,261.0 865.3,314.9 866.2,314.9 867.2,259.9 868.1,314.9 869.0,259.4 869.9,314.9 870.9,314.9 871.8,314.9 872.7,314.9 873.7,314.9 874.6,314.9 875.5,314.9 876.4,314.9 877.4,314.9 878.3,260.2 879.2,262.5 880.1,314.9 881.1,314.9 882.0,314.9 882.9,314.9 883.9,314.9 884.8,314.9 885.7,261.4 886.6,314.9 887.6,314.9 888.5,314.9 889.4,259.5 890.3,314.9 891.3,314.9 892.2,314.9 893.1,261.1 894.1,314.9 895.0,314.9 895.9,314.9 896.8,314.9 897.8,314.9 898.7,314.9 899.6,260.1 900.6,265.3 901.5,314.9 902.4,314.9 903.3,314.9 904.3,267.5 905.2,314.9 906.1,314.9 907.0,314.9 908.0,314.9 908.9,314.9 909.8,267.2 910.8,314.9 911.7,314.9 912.6,260.2 913.5,314.9 914.5,314.9 915.4,314.9 916.3,314.9 917.2,314.9 918.2,314.9 919.1,314.9 920.0,314.9 921.0,314.9 921.9,314.9 922.8,314.9 923.7,261.2 924.7,314.9 925.6,314.9 926.5,314.9 927.4,314.9 928.4,314.9 929.3,261.3 930.2,314.9 931.2,314.9 932.1,314.9 933.0,314.9 933.9,261.4 934.9,314.9 935.8,314.9 936.7,262.8 937.7,314.9 938.6,314.9 939.5,314.9 940.4,314.9 941.4,314.9 942.3,314.9 943.2,314.9 944.1,314.9 945.1,314.9 946.0,314.9" fill="none" stroke="#2563eb" stroke-width="2.2" stroke-linejoin="round" stroke-linecap="round"/>
<polyline points="76.0,260.4 76.9,256.5 77.9,247.3 78.8,245.1 79.7,248.7 80.6,238.2 81.6,237.6 82.5,241.4 83.4,246.3 84.3,245.8 85.3,262.2 86.2,243.9 87.1,243.1 88.1,244.7 89.0,248.8 89.9,257.0 90.8,254.2 91.8,251.9 92.7,249.4 93.6,254.3 94.6,259.1 95.5,255.2 96.4,253.3 97.3,253.0 98.3,247.1 99.2,245.5 100.1,247.5 101.0,239.0 102.0,230.5 102.9,239.1 103.8,241.4 104.8,255.0 105.7,248.8 106.6,248.4 107.5,252.9 108.5,248.3 109.4,245.2 110.3,251.1 111.2,244.9 112.2,244.8 113.1,242.6 114.0,259.5 115.0,255.8 115.9,251.9 116.8,218.0 117.7,220.5 118.7,253.1 119.6,249.0 120.5,235.3 121.4,217.5 122.4,237.8 123.3,248.9 124.2,241.8 125.2,240.0 126.1,241.8 127.0,244.6 127.9,242.3 128.9,247.8 129.8,239.2 130.7,244.8 131.7,236.8 132.6,243.3 133.5,241.8 134.4,282.4 135.4,267.5 136.3,259.9 137.2,267.6 138.1,264.6 139.1,236.4 140.0,231.8 140.9,241.3 141.9,257.5 142.8,269.9 143.7,243.9 144.6,243.3 145.6,245.9 146.5,258.7 147.4,248.2 148.3,256.8 149.3,243.7 150.2,238.4 151.1,251.7 152.1,247.7 153.0,252.3 153.9,253.5 154.8,251.8 155.8,259.6 156.7,249.2 157.6,249.2 158.5,251.5 159.5,247.8 160.4,265.8 161.3,229.5 162.3,253.5 163.2,248.8 164.1,216.5 165.0,254.2 166.0,243.1 166.9,245.7 167.8,225.0 168.8,244.0 169.7,246.2 170.6,238.9 171.5,247.2 172.5,241.5 173.4,247.9 174.3,242.2 175.2,240.7 176.2,240.6 177.1,245.9 178.0,243.2 179.0,249.6 179.9,235.8 180.8,249.2 181.7,250.3 182.7,248.7 183.6,218.2 184.5,202.0 185.4,213.0 186.4,214.0 187.3,213.6 188.2,223.1 189.2,218.6 190.1,214.2 191.0,241.4 191.9,244.2 192.9,239.8 193.8,241.1 194.7,240.1 195.6,239.6 196.6,240.6 197.5,242.4 198.4,241.3 199.4,242.9 200.3,247.5 201.2,242.9 202.1,255.8 203.1,255.5 204.0,246.0 204.9,260.9 205.9,287.5 206.8,252.0 207.7,265.7 208.6,253.3 209.6,251.1 210.5,251.3 211.4,248.6 212.3,249.6 213.3,243.1 214.2,248.9 215.1,242.2 216.1,240.3 217.0,238.7 217.9,240.6 218.8,249.2 219.8,261.7 220.7,245.0 221.6,250.0 222.5,248.7 223.5,250.8 224.4,251.1 225.3,256.3 226.3,258.4 227.2,256.7 228.1,289.3 229.0,253.4 230.0,267.7 230.9,234.2 231.8,249.9 232.7,242.9 233.7,246.8 234.6,238.4 235.5,240.6 236.5,246.6 237.4,241.0 238.3,234.6 239.2,243.6 240.2,245.3 241.1,239.3 242.0,243.1 243.0,242.9 243.9,244.7 244.8,245.7 245.7,249.5 246.7,251.0 247.6,256.7 248.5,261.1 249.4,250.0 250.4,282.8 251.3,249.5 252.2,252.8 253.2,248.4 254.1,247.6 255.0,240.8 255.9,240.3 256.9,240.1 257.8,238.9 258.7,245.2 259.6,245.9 260.6,256.6 261.5,255.0 262.4,251.5 263.4,247.9 264.3,253.5 265.2,245.4 266.1,251.3 267.1,243.7 268.0,251.1 268.9,255.8 269.8,259.0 270.8,256.6 271.7,263.8 272.6,294.7 273.6,257.7 274.5,258.0 275.4,256.3 276.3,255.5 277.3,247.4 278.2,245.8 279.1,243.7 280.1,250.1 281.0,246.6 281.9,243.3 282.8,243.3 283.8,239.2 284.7,246.0 285.6,238.2 286.5,239.3 287.5,238.8 288.4,253.5 289.3,253.2 290.3,251.9 291.2,257.0 292.1,270.8 293.0,255.6 294.0,258.2 294.9,255.8 295.8,250.1 296.7,230.0 297.7,217.9 298.6,255.3 299.5,242.9 300.5,226.3 301.4,222.7 302.3,222.3 303.2,222.0 304.2,220.9 305.1,237.2 306.0,229.8 306.9,233.3 307.9,234.0 308.8,243.6 309.7,254.5 310.7,264.0 311.6,243.1 312.5,281.2 313.4,247.9 314.4,262.7 315.3,254.6 316.2,256.1 317.2,263.5 318.1,247.4 319.0,208.1 319.9,218.9 320.9,221.1 321.8,223.9 322.7,213.4 323.6,225.5 324.6,220.2 325.5,207.3 326.4,239.9 327.4,237.7 328.3,246.7 329.2,249.2 330.1,245.3 331.1,241.6 332.0,250.3 332.9,248.1 333.8,246.6 334.8,265.0 335.7,250.0 336.6,245.5 337.6,256.6 338.5,225.3 339.4,209.7 340.3,215.1 341.3,253.5 342.2,249.3 343.1,243.2 344.0,267.8 345.0,237.3 345.9,242.6 346.8,241.2 347.8,248.6 348.7,230.5 349.6,240.7 350.5,242.6 351.5,263.0 352.4,237.2 353.3,242.5 354.3,240.7 355.2,245.7 356.1,244.6 357.0,261.2 358.0,248.6 358.9,255.9 359.8,252.5 360.7,249.5 361.7,262.6 362.6,250.4 363.5,256.8 364.5,261.5 365.4,251.7 366.3,228.1 367.2,222.4 368.2,255.6 369.1,243.7 370.0,250.6 370.9,253.2 371.9,245.9 372.8,248.9 373.7,247.9 374.7,246.3 375.6,243.2 376.5,262.6 377.4,260.6 378.4,256.0 379.3,260.0 380.2,256.7 381.1,281.1 382.1,274.0 383.0,270.5 383.9,274.0 384.9,280.0 385.8,279.9 386.7,275.1 387.6,279.0 388.6,280.9 389.5,275.9 390.4,273.5 391.4,263.4 392.3,248.9 393.2,257.3 394.1,270.9 395.1,258.7 396.0,261.0 396.9,255.5 397.8,263.2 398.8,259.9 399.7,259.7 400.6,259.7 401.6,252.1 402.5,260.4 403.4,255.1 404.3,259.1 405.3,247.4 406.2,252.7 407.1,258.3 408.0,260.4 409.0,261.4 409.9,257.0 410.8,256.1 411.8,250.1 412.7,249.3 413.6,252.2 414.5,231.7 415.5,244.6 416.4,256.7 417.3,245.3 418.2,242.2 419.2,247.4 420.1,249.2 421.0,251.0 422.0,250.5 422.9,252.3 423.8,252.8 424.7,248.9 425.7,259.6 426.6,258.2 427.5,263.2 428.5,258.0 429.4,263.0 430.3,255.0 431.2,251.7 432.2,259.2 433.1,242.1 434.0,250.8 434.9,243.5 435.9,247.1 436.8,233.2 437.7,241.0 438.7,245.9 439.6,253.4 440.5,234.3 441.4,248.8 442.4,234.7 443.3,240.4 444.2,245.6 445.1,244.1 446.1,244.7 447.0,243.4 447.9,251.0 448.9,263.7 449.8,255.6 450.7,212.9 451.6,219.2 452.6,215.4 453.5,229.6 454.4,219.0 455.3,219.5 456.3,227.1 457.2,248.0 458.1,245.8 459.1,232.3 460.0,243.8 460.9,242.9 461.8,250.7 462.8,243.8 463.7,245.3 464.6,246.1 465.6,245.5 466.5,237.0 467.4,238.8 468.3,249.7 469.3,250.6 470.2,249.7 471.1,257.1 472.0,246.4 473.0,253.3 473.9,253.3 474.8,253.9 475.8,250.4 476.7,248.2 477.6,245.3 478.5,233.3 479.5,255.4 480.4,237.3 481.3,215.7 482.2,242.6 483.2,241.2 484.1,245.2 485.0,246.3 486.0,243.4 486.9,242.4 487.8,245.8 488.7,248.8 489.7,246.7 490.6,250.1 491.5,247.5 492.4,250.1 493.4,256.1 494.3,258.4 495.2,237.5 496.2,260.2 497.1,265.6 498.0,268.5 498.9,250.8 499.9,247.3 500.8,254.5 501.7,240.3 502.7,242.5 503.6,233.9 504.5,243.7 505.4,249.9 506.4,238.4 507.3,232.4 508.2,236.9 509.1,239.8 510.1,233.1 511.0,250.4 511.9,242.8 512.9,242.2 513.8,259.9 514.7,302.6 515.6,247.7 516.6,243.7 517.5,256.6 518.4,253.6 519.3,250.8 520.3,254.0 521.2,243.0 522.1,240.2 523.1,238.8 524.0,240.8 524.9,246.3 525.8,238.9 526.8,235.3 527.7,240.0 528.6,237.8 529.6,234.5 530.5,239.4 531.4,244.8 532.3,241.3 533.3,243.7 534.2,246.7 535.1,236.6 536.0,249.4 537.0,247.2 537.9,273.7 538.8,257.3 539.8,248.7 540.7,266.9 541.6,249.3 542.5,252.0 543.5,251.7 544.4,246.2 545.3,235.9 546.2,244.6 547.2,244.9 548.1,243.1 549.0,244.1 550.0,234.4 550.9,238.2 551.8,237.8 552.7,262.7 553.7,241.3 554.6,242.5 555.5,237.9 556.4,248.4 557.4,249.8 558.3,258.0 559.2,243.4 560.2,261.4 561.1,246.4 562.0,260.5 562.9,263.5 563.9,245.9 564.8,252.1 565.7,245.1 566.7,250.1 567.6,244.2 568.5,249.0 569.4,243.3 570.4,239.7 571.3,235.3 572.2,249.3 573.1,243.9 574.1,237.7 575.0,236.7 575.9,243.3 576.9,245.2 577.8,252.2 578.7,234.8 579.6,248.9 580.6,249.7 581.5,253.3 582.4,258.5 583.3,258.4 584.3,254.5 585.2,246.4 586.1,248.7 587.1,256.2 588.0,249.7 588.9,245.7 589.8,239.9 590.8,233.9 591.7,238.3 592.6,239.3 593.5,240.9 594.5,247.8 595.4,249.2 596.3,246.0 597.3,245.0 598.2,241.7 599.1,245.7 600.0,248.4 601.0,241.6 601.9,247.2 602.8,255.5 603.8,254.1 604.7,263.6 605.6,251.0 606.5,255.0 607.5,252.7 608.4,261.5 609.3,253.3 610.2,241.3 611.2,244.2 612.1,234.2 613.0,241.3 614.0,245.4 614.9,230.1 615.8,243.0 616.7,239.0 617.7,243.2 618.6,242.2 619.5,243.6 620.4,242.8 621.4,235.8 622.3,241.7 623.2,238.4 624.2,255.3 625.1,254.0 626.0,254.4 626.9,254.8 627.9,254.9 628.8,260.6 629.7,254.5 630.6,253.2 631.6,253.8 632.5,250.0 633.4,267.3 634.4,252.1 635.3,243.9 636.2,247.7 637.1,235.3 638.1,238.5 639.0,243.9 639.9,252.3 640.9,248.6 641.8,248.7 642.7,250.6 643.6,241.6 644.6,248.7 645.5,249.7 646.4,262.1 647.3,260.6 648.3,259.9 649.2,256.5 650.1,262.2 651.1,253.6 652.0,260.9 652.9,251.4 653.8,254.6 654.8,250.3 655.7,253.0 656.6,250.4 657.5,244.6 658.5,246.6 659.4,239.6 660.3,240.0 661.3,246.7 662.2,248.7 663.1,243.2 664.0,245.7 665.0,244.5 665.9,250.0 666.8,246.4 667.7,254.3 668.7,251.2 669.6,253.3 670.5,257.9 671.5,249.5 672.4,251.5 673.3,262.1 674.2,253.0 675.2,261.2 676.1,246.3 677.0,250.0 678.0,248.6 678.9,250.8 679.8,242.7 680.7,250.7 681.7,242.4 682.6,246.2 683.5,249.6 684.4,243.8 685.4,243.9 686.3,258.9 687.2,253.2 688.2,249.6 689.1,249.2 690.0,252.0 690.9,252.7 691.9,252.7 692.8,263.5 693.7,245.9 694.6,269.6 695.6,252.0 696.5,255.0 697.4,256.0 698.4,241.1 699.3,249.0 700.2,249.8 701.1,248.9 702.1,249.7 703.0,264.1 703.9,258.0 704.8,241.3 705.8,243.7 706.7,342.1 707.6,337.6 708.6,337.9 709.5,335.7 710.4,336.7 711.3,341.5 712.3,340.3 713.2,339.8 714.1,339.6 715.1,340.4 716.0,338.1 716.9,337.5 717.8,338.8 718.8,338.0 719.7,341.8 720.6,337.4 721.5,346.5 722.5,336.8 723.4,339.2 724.3,336.8 725.3,336.7 726.2,337.6 727.1,336.1 728.0,339.8 729.0,339.7 729.9,337.2 730.8,338.7 731.7,337.7 732.7,338.4 733.6,336.6 734.5,340.8 735.5,334.7 736.4,337.2 737.3,339.1 738.2,339.4 739.2,338.8 740.1,341.6 741.0,339.2 741.9,339.4 742.9,337.1 743.8,338.1 744.7,336.2 745.7,337.8 746.6,338.0 747.5,337.5 748.4,338.6 749.4,335.8 750.3,336.2 751.2,336.9 752.2,337.4 753.1,332.4 754.0,332.2 754.9,331.3 755.9,336.8 756.8,336.9 757.7,336.8 758.6,336.2 759.6,338.6 760.5,338.0 761.4,338.6 762.4,339.6 763.3,338.6 764.2,337.1 765.1,331.5 766.1,336.4 767.0,337.1 767.9,336.9 768.8,334.8 769.8,335.9 770.7,335.2 771.6,342.9 772.6,286.0 773.5,335.7 774.4,336.9 775.3,338.6 776.3,338.2 777.2,336.2 778.1,309.0 779.0,340.0 780.0,338.7 780.9,319.5 781.8,345.3 782.8,340.9 783.7,339.1 784.6,338.9 785.5,333.9 786.5,333.3 787.4,328.2 788.3,313.8 789.3,310.7 790.2,333.1 791.1,335.8 792.0,348.0 793.0,338.2 793.9,314.0 794.8,338.1 795.7,330.9 796.7,335.4 797.6,344.4 798.5,313.9 799.5,337.2 800.4,338.2 801.3,337.2 802.2,316.0 803.2,343.6 804.1,342.0 805.0,342.1 805.9,342.2 806.9,341.6 807.8,342.7 808.7,343.1 809.7,347.5 810.6,310.0 811.5,345.4 812.4,343.1 813.4,342.1 814.3,316.1 815.2,342.3 816.1,335.7 817.1,340.9 818.0,318.1 818.9,338.3 819.9,342.2 820.8,339.6 821.7,321.0 822.6,347.0 823.6,341.5 824.5,322.9 825.4,341.8 826.4,341.9 827.3,340.7 828.2,339.4 829.1,342.2 830.1,341.9 831.0,340.1 831.9,316.8 832.8,316.9 833.8,343.7 834.7,340.3 835.6,313.1 836.6,338.1 837.5,336.7 838.4,338.3 839.3,294.0 840.3,340.8 841.2,340.4 842.1,311.9 843.0,343.7 844.0,339.4 844.9,319.5 845.8,344.3 846.8,318.8 847.7,336.9 848.6,344.1 849.5,343.6 850.5,341.6 851.4,339.2 852.3,340.2 853.2,342.0 854.2,340.4 855.1,293.7 856.0,340.2 857.0,342.3 857.9,337.2 858.8,311.6 859.7,342.1 860.7,337.4 861.6,340.7 862.5,319.0 863.5,338.3 864.4,316.6 865.3,337.6 866.2,338.9 867.2,315.0 868.1,339.6 869.0,320.0 869.9,342.0 870.9,338.9 871.8,343.4 872.7,340.7 873.7,346.5 874.6,341.4 875.5,338.5 876.4,339.6 877.4,340.1 878.3,316.3 879.2,313.8 880.1,339.3 881.1,338.6 882.0,338.3 882.9,343.5 883.9,343.4 884.8,334.7 885.7,318.2 886.6,340.9 887.6,345.0 888.5,341.7 889.4,322.1 890.3,340.8 891.3,342.8 892.2,351.6 893.1,327.8 894.1,342.3 895.0,348.3 895.9,345.7 896.8,341.6 897.8,343.9 898.7,346.8 899.6,323.9 900.6,321.3 901.5,349.4 902.4,342.0 903.3,340.6 904.3,320.4 905.2,345.0 906.1,339.9 907.0,342.3 908.0,348.1 908.9,342.6 909.8,320.8 910.8,343.3 911.7,346.5 912.6,324.1 913.5,346.3 914.5,345.7 915.4,346.8 916.3,348.3 917.2,348.1 918.2,346.3 919.1,347.2 920.0,346.5 921.0,341.0 921.9,340.7 922.8,338.4 923.7,317.8 924.7,343.2 925.6,340.1 926.5,343.0 927.4,342.7 928.4,340.3 929.3,322.4 930.2,348.9 931.2,335.4 932.1,337.7 933.0,343.5 933.9,315.5 934.9,346.9 935.8,345.3 936.7,324.4 937.7,345.4 938.6,345.2 939.5,337.7 940.4,346.0 941.4,344.7 942.3,350.3 943.2,345.4 944.1,341.3 945.1,344.5 946.0,345.6" fill="none" stroke="#7c3aed" stroke-width="2.2" stroke-linejoin="round" stroke-linecap="round"/>
<line x1="76" y1="70" x2="94" y2="70" stroke="#2563eb" stroke-width="3"/>
<text x="100" y="74" font-family="Arial, sans-serif" font-size="11" fill="#0f172a">tx count</text>
<line x1="186" y1="70" x2="204" y2="70" stroke="#7c3aed" stroke-width="3"/>
<text x="210" y="74" font-family="Arial, sans-serif" font-size="11" fill="#0f172a">unique accounts</text>
<text x="28" y="404" font-family="Arial, sans-serif" font-size="11" fill="#64748b">Source: hourly_features.csv; capped windows are sample counts</text>
</svg>