<svg xmlns="http://www.w3.org/2000/svg" width="980" height="420" viewBox="0 0 980 420">
<rect width="100%" height="100%" fill="#ffffff"/>
<text x="28" y="34" font-family="Arial, sans-serif" font-size="20" font-weight="700" fill="#0f172a">Network activity sample trend</text>
<text x="28" y="56" font-family="Arial, sans-serif" font-size="12" fill="#64748b">Hourly transaction sample count and unique account sample count</text>
<line x1="76" y1="362.0" x2="946" y2="362.0" stroke="#e2e8f0" stroke-width="1"/>
<text x="68" y="366.0" font-family="Arial, sans-serif" font-size="10" text-anchor="end" fill="#64748b">220</text>
<line x1="76" y1="292.0" x2="946" y2="292.0" stroke="#e2e8f0" stroke-width="1"/>
<text x="68" y="296.0" font-family="Arial, sans-serif" font-size="10" text-anchor="end" fill="#64748b">1K</text>
<line x1="76" y1="222.0" x2="946" y2="222.0" stroke="#e2e8f0" stroke-width="1"/>
<text x="68" y="226.0" font-family="Arial, sans-serif" font-size="10" text-anchor="end" fill="#64748b">3K</text>
<line x1="76" y1="152.0" x2="946" y2="152.0" stroke="#e2e8f0" stroke-width="1"/>
<text x="68" y="156.0" font-family="Arial, sans-serif" font-size="10" text-anchor="end" fill="#64748b">4K</text>
<line x1="76" y1="82.0" x2="946" y2="82.0" stroke="#e2e8f0" stroke-width="1"/>
<text x="68" y="86.0" font-family="Arial, sans-serif" font-size="10" text-anchor="end" fill="#64748b">5K</text>
<line x1="76" y1="362" x2="946" y2="362" stroke="#334155" stroke-width="1"/>
<line x1="76" y1="82" x2="76" y2="362" stroke="#334155" stroke-width="1"/>
<text x="76" y="72" font-family="Arial, sans-serif" font-size="11" fill="#64748b">count</text>
<line x1="76.0" y1="362" x2="76.0" y2="366" stroke="#334155" stroke-width="1"/>
<text x="76.0" y="380" font-family="Arial, sans-serif" font-size="10" text-anchor="middle" fill="#64748b">0</text>
<line x1="511.5" y1="362" x2="511.5" y2="366" stroke="#334155" stroke-width="1"/>
<text x="511.5" y="380" font-family="Arial, sans-serif" font-size="10" text-anchor="middle" fill="#64748b">404</text>
<line x1="946.0" y1="362" x2="946.0" y2="366" stroke="#334155" stroke-width="1"/>
<text x="946.0" y="380" font-family="Arial, sans-serif" font-size="10" text-anchor="middle" fill="#64748b">807</text>
<polyline points="76.0,92.4 77.1,92.4 78.2,92.4 79.2,92.4 80.3,92.4 81.4,92.4 82.5,92.4 83.5,92.4 84.6,92.4 85.7,92.4 86.8,92.4 87.9,92.4 88.9,92.4 90.0,92.4 91.1,92.4 92.2,92.4 93.2,92.4 94.3,92.4 95.4,92.4 96.5,92.4 97.6,92.4 98.6,92.4 99.7,92.4 100.8,92.4 101.9,92.4 103.0,92.4 104.0,92.4 105.1,92.4 106.2,92.4 107.3,92.4 108.3,92.4 109.4,92.4 110.5,92.4 111.6,92.4 112.7,92.4 113.7,92.4 114.8,92.4 115.9,92.4 117.0,92.4 118.0,92.4 119.1,92.4 120.2,92.4 121.3,92.4 122.4,92.4 123.4,92.4 124.5,92.4 125.6,92.4 126.7,92.4 127.7,92.4 128.8,92.4 129.9,92.4 131.0,92.4 132.1,92.4 133.1,92.4 134.2,92.4 135.3,92.4 136.4,92.4 137.4,92.4 138.5,92.4 139.6,92.4 140.7,92.4 141.8,92.4 142.8,92.4 143.9,92.4 145.0,92.4 146.1,92.4 147.2,92.4 148.2,92.4 149.3,92.4 150.4,92.4 151.5,92.4 152.5,92.4 153.6,92.4 154.7,92.4 155.8,92.4 156.9,92.4 157.9,92.4 159.0,92.4 160.1,92.4 161.2,92.4 162.2,92.4 163.3,92.4 164.4,92.4 165.5,92.4 166.6,92.4 167.6,92.4 168.7,92.4 169.8,92.4 170.9,92.4 171.9,92.4 173.0,92.4 174.1,92.4 175.2,92.4 176.3,92.4 177.3,92.4 178.4,92.4 179.5,92.4 180.6,92.4 181.7,92.4 182.7,92.4 183.8,92.4 184.9,92.4 186.0,92.4 187.0,92.4 188.1,92.4 189.2,92.4 190.3,92.4 191.4,92.4 192.4,92.4 193.5,92.4 194.6,92.4 195.7,92.4 196.7,92.4 197.8,92.4 198.9,92.4 200.0,92.4 201.1,92.4 202.1,92.4 203.2,92.4 204.3,92.4 205.4,92.4 206.4,92.4 207.5,92.4 208.6,92.4 209.7,92.4 210.8,92.4 211.8,92.4 212.9,92.4 214.0,92.4 215.1,92.4 216.1,92.4 217.2,92.4 218.3,92.4 219.4,92.4 220.5,92.4 221.5,92.4 222.6,92.4 223.7,92.4 224.8,92.4 225.9,92.4 226.9,92.4 228.0,92.4 229.1,92.4 230.2,92.4 231.2,92.4 232.3,92.4 233.4,92.4 234.5,92.4 235.6,92.4 236.6,92.4 237.7,92.4 238.8,92.4 239.9,92.4 240.9,92.4 242.0,92.4 243.1,92.4 244.2,92.4 245.3,92.4 246.3,92.4 247.4,92.4 248.5,92.4 249.6,92.4 250.6,92.4 251.7,92.4 252.8,92.4 253.9,92.4 255.0,92.4 256.0,92.4 257.1,92.4 258.2,92.4 259.3,92.4 260.3,92.4 261.4,92.4 262.5,92.4 263.6,92.4 264.7,92.4 265.7,92.4 266.8,92.4 267.9,92.4 269.0,92.4 270.1,92.4 271.1,92.4 272.2,92.4 273.3,92.4 274.4,92.4 275.4,92.4 276.5,92.4 277.6,92.4 278.7,92.4 279.8,92.4 280.8,92.4 281.9,92.4 283.0,92.4 284.1,92.4 285.1,92.4 286.2,92.4 287.3,92.4 288.4,92.4 289.5,92.4 290.5,92.4 291.6,92.4 292.7,92.4 293.8,92.4 294.8,92.4 295.9,92.4 297.0,92.4 298.1,92.4 299.2,92.4 300.2,92.4 301.3,92.4 302.4,92.4 303.5,92.4 304.6,92.4 305.6,92.4 306.7,92.4 307.8,92.4 308.9,92.4 309.9,92.4 311.0,92.4 312.1,92.4 313.2,92.4 314.3,92.4 315.3,92.4 316.4,92.4 317.5,92.4 318.6,92.4 319.6,92.4 320.7,92.4 321.8,92.4 322.9,92.4 324.0,92.4 325.0,92.4 326.1,92.4 327.2,92.4 328.3,92.4 329.3,92.4 330.4,92.4 331.5,92.4 332.6,92.4 333.7,92.4 334.7,92.4 335.8,92.4 336.9,92.4 338.0,92.4 339.0,92.4 340.1,92.4 341.2,92.4 342.3,92.4 343.4,92.4 344.4,92.4 345.5,92.4 346.6,92.4 347.7,92.4 348.8,92.4 349.8,92.4 350.9,92.4 352.0,92.4 353.1,92.4 354.1,92.4 355.2,92.4 356.3,92.4 357.4,92.4 358.5,92.4 359.5,92.4 360.6,92.4 361.7,92.4 362.8,92.4 363.8,92.4 364.9,92.4 366.0,92.4 367.1,92.4 368.2,92.4 369.2,92.4 370.3,92.4 371.4,92.4 372.5,92.4 373.5,92.4 374.6,92.4 375.7,92.4 376.8,92.4 377.9,92.4 378.9,92.4 380.0,92.4 381.1,92.4 382.2,92.4 383.2,92.4 384.3,92.4 385.4,92.4 386.5,92.4 387.6,92.4 388.6,92.4 389.7,92.4 390.8,92.4 391.9,92.4 393.0,92.4 394.0,92.4 395.1,92.4 396.2,92.4 397.3,92.4 398.3,92.4 399.4,92.4 400.5,92.4 401.6,92.4 402.7,92.4 403.7,92.4 404.8,92.4 405.9,92.4 407.0,92.4 408.0,92.4 409.1,92.4 410.2,92.4 411.3,92.4 412.4,92.4 413.4,92.4 414.5,92.4 415.6,92.4 416.7,92.4 417.7,92.4 418.8,92.4 419.9,92.4 421.0,92.4 422.1,92.4 423.1,92.4 424.2,92.4 425.3,92.4 426.4,92.4 427.4,92.4 428.5,92.4 429.6,92.4 430.7,92.4 431.8,92.4 432.8,92.4 433.9,92.4 435.0,92.4 436.1,92.4 437.2,92.4 438.2,92.4 439.3,92.4 440.4,92.4 441.5,92.4 442.5,92.4 443.6,92.4 444.7,92.4 445.8,92.4 446.9,92.4 447.9,92.4 449.0,92.4 450.1,92.4 451.2,92.4 452.2,92.4 453.3,92.4 454.4,92.4 455.5,92.4 456.6,92.4 457.6,92.4 458.7,92.4 459.8,92.4 460.9,92.4 461.9,92.4 463.0,92.4 464.1,92.4 465.2,92.4 466.3,92.4 467.3,92.4 468.4,92.4 469.5,92.4 470.6,92.4 471.7,92.4 472.7,92.4 473.8,92.4 474.9,92.4 476.0,92.4 477.0,92.4 478.1,92.4 479.2,92.4 480.3,92.4 481.4,92.4 482.4,92.4 483.5,92.4 484.6,92.4 485.7,92.4 486.7,92.4 487.8,92.4 488.9,92.4 490.0,92.4 491.1,92.4 492.1,92.4 493.2,92.4 494.3,92.4 495.4,92.4 496.4,92.4 497.5,92.4 498.6,92.4 499.7,92.4 500.8,92.4 501.8,92.4 502.9,92.4 504.0,92.4 505.1,92.4 506.1,92.4 507.2,92.4 508.3,92.4 509.4,92.4 510.5,92.4 511.5,92.4 512.6,92.4 513.7,92.4 514.8,92.4 515.9,92.4 516.9,92.4 518.0,92.4 519.1,92.4 520.2,92.4 521.2,92.4 522.3,92.4 523.4,92.4 524.5,92.4 525.6,92.4 526.6,92.4 527.7,92.4 528.8,92.4 529.9,92.4 530.9,92.4 532.0,92.4 533.1,92.4 534.2,92.4 535.3,92.4 536.3,92.4 537.4,92.4 538.5,92.4 539.6,92.4 540.6,92.4 541.7,92.4 542.8,92.4 543.9,92.4 545.0,92.4 546.0,92.4 547.1,92.4 548.2,92.4 549.3,92.4 550.3,92.4 551.4,92.4 552.5,92.4 553.6,92.4 554.7,92.4 555.7,92.4 556.8,92.4 557.9,92.4 559.0,92.4 560.1,92.4 561.1,92.4 562.2,92.4 563.3,92.4 564.4,92.4 565.4,92.4 566.5,92.4 567.6,92.4 568.7,92.4 569.8,92.4 570.8,92.4 571.9,92.4 573.0,92.4 574.1,92.4 575.1,92.4 576.2,92.4 577.3,92.4 578.4,92.4 579.5,92.4 580.5,92.4 581.6,92.4 582.7,92.4 583.8,92.4 584.8,92.4 585.9,92.4 587.0,92.4 588.1,92.4 589.2,92.4 590.2,92.4 591.3,92.4 592.4,92.4 593.5,92.4 594.6,92.4 595.6,92.4 596.7,92.4 597.8,92.4 598.9,92.4 599.9,92.4 601.0,92.4 602.1,92.4 603.2,92.4 604.3,92.4 605.3,92.4 606.4,92.4 607.5,92.4 608.6,92.4 609.6,92.4 610.7,92.4 611.8,92.4 612.9,92.4 614.0,92.4 615.0,92.4 616.1,92.4 617.2,92.4 618.3,92.4 619.3,92.4 620.4,92.4 621.5,92.4 622.6,92.4 623.7,92.4 624.7,92.4 625.8,92.4 626.9,92.4 628.0,92.4 629.0,92.4 630.1,92.4 631.2,92.4 632.3,92.4 633.4,92.4 634.4,92.4 635.5,92.4 636.6,92.4 637.7,92.4 638.8,92.4 639.8,92.4 640.9,92.4 642.0,92.4 643.1,92.4 644.1,92.4 645.2,92.4 646.3,92.4 647.4,92.4 648.5,92.4 649.5,92.4 650.6,92.4 651.7,92.4 652.8,92.4 653.8,92.4 654.9,92.4 656.0,92.4 657.1,92.4 658.2,92.4 659.2,92.4 660.3,92.4 661.4,92.4 662.5,92.4 663.5,92.4 664.6,92.4 665.7,92.4 666.8,92.4 667.9,92.4 668.9,92.4 670.0,92.4 671.1,92.4 672.2,92.4 673.2,92.4 674.3,92.4 675.4,92.4 676.5,92.4 677.6,92.4 678.6,92.4 679.7,92.4 680.8,92.4 681.9,92.4 683.0,92.4 684.0,92.4 685.1,92.4 686.2,92.4 687.3,92.4 688.3,92.4 689.4,92.4 690.5,92.4 691.6,92.4 692.7,92.4 693.7,92.4 694.8,92.4 695.9,92.4 697.0,92.4 698.0,92.4 699.1,92.4 700.2,92.4 701.3,92.4 702.4,92.4 703.4,92.4 704.5,92.4 705.6,92.4 706.7,92.4 707.7,92.4 708.8,92.4 709.9,92.4 711.0,92.4 712.1,92.4 713.1,92.4 714.2,92.4 715.3,92.4 716.4,92.4 717.4,92.4 718.5,92.4 719.6,92.4 720.7,92.4 721.8,92.4 722.8,92.4 723.9,92.4 725.0,92.4 726.1,92.4 727.2,92.4 728.2,92.4 729.3,92.4 730.4,92.4 731.5,92.4 732.5,92.4 733.6,92.4 734.7,92.4 735.8,92.4 736.9,92.4 737.9,92.4 739.0,92.4 740.1,92.4 741.2,92.4 742.2,92.4 743.3,92.4 744.4,92.4 745.5,92.4 746.6,92.4 747.6,92.4 748.7,92.4 749.8,92.4 750.9,92.4 751.9,92.4 753.0,92.4 754.1,92.4 755.2,92.4 756.3,92.4 757.3,92.4 758.4,92.4 759.5,92.4 760.6,92.4 761.7,92.4 762.7,92.4 763.8,92.4 764.9,92.4 766.0,92.4 767.0,92.4 768.1,92.4 769.2,92.4 770.3,92.4 771.4,92.4 772.4,92.4 773.5,92.4 774.6,92.4 775.7,92.4 776.7,92.4 777.8,92.4 778.9,92.4 780.0,92.4 781.1,92.4 782.1,92.4 783.2,92.4 784.3,92.4 785.4,92.4 786.4,92.4 787.5,92.4 788.6,92.4 789.7,92.4 790.8,92.4 791.8,92.4 792.9,92.4 794.0,92.4 795.1,92.4 796.1,92.4 797.2,92.4 798.3,92.4 799.4,92.4 800.5,92.4 801.5,92.4 802.6,92.4 803.7,92.4 804.8,92.4 805.9,92.4 806.9,92.4 808.0,92.4 809.1,318.0 810.2,318.0 811.2,318.0 812.3,318.0 813.4,318.0 814.5,318.0 815.6,318.0 816.6,318.0 817.7,318.0 818.8,318.0 819.9,318.0 820.9,318.0 822.0,318.0 823.1,318.0 824.2,318.0 825.3,318.0 826.3,318.0 827.4,318.0 828.5,318.0 829.6,318.0 830.6,318.0 831.7,318.0 832.8,318.0 833.9,318.0 835.0,318.0 836.0,318.0 837.1,318.0 838.2,318.0 839.3,318.0 840.3,318.0 841.4,318.0 842.5,318.0 843.6,318.0 844.7,318.0 845.7,318.0 846.8,318.0 847.9,318.0 849.0,318.0 850.1,318.0 851.1,318.0 852.2,318.0 853.3,318.0 854.4,318.0 855.4,318.0 856.5,318.0 857.6,318.0 858.7,318.0 859.8,318.0 860.8,318.0 861.9,318.0 863.0,318.0 864.1,318.0 865.1,318.0 866.2,318.0 867.3,318.0 868.4,318.0 869.5,318.0 870.5,318.0 871.6,318.0 872.7,318.0 873.8,318.0 874.8,318.0 875.9,318.0 877.0,318.0 878.1,318.0 879.2,318.0 880.2,318.0 881.3,318.0 882.4,318.0 883.5,318.0 884.6,318.0 885.6,207.0 886.7,318.0 887.8,318.0 888.9,318.0 889.9,318.0 891.0,318.0 892.1,263.4 893.2,318.0 894.3,318.0 895.3,263.5 896.4,318.0 897.5,318.0 898.6,318.0 899.6,318.0 900.7,318.0 901.8,318.0 902.9,318.0 904.0,262.2 905.0,263.5 906.1,318.0 907.2,318.0 908.3,318.0 909.3,318.0 910.4,264.6 911.5,318.0 912.6,318.0 913.7,318.0 914.7,318.0 915.8,261.9 916.9,318.0 918.0,318.0 919.0,318.0 920.1,263.1 921.2,318.0 922.3,318.0 923.4,318.0 924.4,318.0 925.5,318.0 926.6,318.0 927.7,318.0 928.8,318.0 929.8,207.5 930.9,318.0 932.0,318.0 933.1,318.0 934.1,262.4 935.2,318.0 936.3,318.0 937.4,318.0 938.5,262.8 939.5,318.0 940.6,318.0 941.7,318.0 942.8,263.0 943.8,318.0 944.9,318.0 946.0,318.0" fill="none" stroke="#2563eb" stroke-width="2.2" stroke-linejoin="round" stroke-linecap="round"/>
<polyline points="76.0,262.8 77.1,258.8 78.2,249.5 79.2,247.2 80.3,250.9 81.4,240.3 82.5,239.7 83.5,243.5 84.6,248.5 85.7,248.0 86.8,264.6 87.9,246.1 88.9,245.2 90.0,246.9 91.1,251.1 92.2,259.3 93.2,256.5 94.3,254.2 95.4,251.6 96.5,256.6 97.6,261.5 98.6,257.5 99.7,255.6 100.8,255.2 101.9,249.2 103.0,247.7 104.0,249.7 105.1,241.1 106.2,232.5 107.3,241.2 108.3,243.5 109.4,257.3 110.5,251.0 111.6,250.7 112.7,255.2 113.7,250.5 114.8,247.4 115.9,253.4 117.0,247.1 118.0,247.0 119.1,244.7 120.2,261.9 121.3,258.2 122.4,254.2 123.4,219.8 124.5,222.3 125.6,255.3 126.7,251.2 127.7,237.3 128.8,219.3 129.9,239.9 131.0,251.2 132.1,243.9 133.1,242.1 134.2,243.9 135.3,246.7 136.4,244.4 137.4,250.0 138.5,241.3 139.6,247.0 140.7,238.8 141.8,245.4 142.8,243.9 143.9,285.1 145.0,270.0 146.1,262.3 147.2,270.1 148.2,267.0 149.3,238.5 150.4,233.8 151.5,243.4 152.5,259.9 153.6,272.4 154.7,246.0 155.8,245.5 156.9,248.1 157.9,261.0 159.0,250.4 160.1,259.1 161.2,245.9 162.2,240.5 163.3,253.9 164.4,249.9 165.5,254.6 166.6,255.7 167.6,254.0 168.7,261.9 169.8,251.4 170.9,251.4 171.9,253.7 173.0,250.0 174.1,268.3 175.2,231.5 176.3,255.8 177.3,251.1 178.4,218.2 179.5,256.5 180.6,245.2 181.7,247.9 182.7,226.9 183.8,246.1 184.9,248.3 186.0,241.0 187.0,249.4 188.1,243.6 189.2,250.1 190.3,244.3 191.4,242.8 192.4,242.6 193.5,248.1 194.6,245.4 195.7,251.8 196.7,237.9 197.8,251.4 198.9,252.6 200.0,250.9 201.1,220.0 202.1,203.6 203.2,214.7 204.3,215.7 205.4,215.3 206.4,224.9 207.5,220.4 208.6,216.0 209.7,243.5 210.8,246.4 211.8,241.9 212.9,243.2 214.0,242.2 215.1,241.7 216.1,242.6 217.2,244.6 218.3,243.4 219.4,245.1 220.5,249.7 221.5,245.1 222.6,258.2 223.7,257.8 224.8,248.2 225.9,263.2 226.9,290.3 228.0,254.2 229.1,268.2 230.2,255.6 231.2,253.3 232.3,253.6 233.4,250.8 234.5,251.8 235.6,245.2 236.6,251.1 237.7,244.3 238.8,242.4 239.9,240.7 240.9,242.6 242.0,251.4 243.1,264.1 244.2,247.2 245.3,252.2 246.3,250.9 247.4,253.1 248.5,253.4 249.6,258.6 250.6,260.8 251.7,259.1 252.8,292.1 253.9,255.7 255.0,270.2 256.0,236.2 257.1,252.1 258.2,245.1 259.3,249.0 260.3,240.5 261.4,242.6 262.5,248.7 263.6,243.1 264.7,236.6 265.7,245.7 266.8,247.5 267.9,241.4 269.0,245.2 270.1,245.0 271.1,246.8 272.2,247.8 273.3,251.7 274.4,253.2 275.4,259.1 276.5,263.5 277.6,252.2 278.7,285.5 279.8,251.7 280.8,255.1 281.9,250.6 283.0,249.8 284.1,242.9 285.1,242.4 286.2,242.2 287.3,241.0 288.4,247.3 289.5,248.1 290.5,258.9 291.6,257.3 292.7,253.8 293.8,250.1 294.8,255.8 295.9,247.6 297.0,253.5 298.1,245.9 299.2,253.4 300.2,258.1 301.3,261.3 302.4,258.9 303.5,266.2 304.6,297.6 305.6,260.0 306.7,260.3 307.8,258.6 308.9,257.8 309.9,249.6 311.0,247.9 312.1,245.9 313.2,252.3 314.3,248.8 315.3,245.4 316.4,245.5 317.5,241.2 318.6,248.2 319.6,240.3 320.7,241.3 321.8,240.9 322.9,255.8 324.0,255.5 325.0,254.2 326.1,259.3 327.2,273.3 328.3,257.9 329.3,260.5 330.4,258.2 331.5,252.3 332.6,232.0 333.7,219.6 334.7,257.6 335.8,245.0 336.9,228.2 338.0,224.5 339.0,224.1 340.1,223.8 341.2,222.7 342.3,239.3 343.4,231.7 344.4,235.3 345.5,236.0 346.6,245.7 347.7,256.8 348.8,266.4 349.8,245.2 350.9,283.8 352.0,250.1 353.1,265.2 354.1,256.9 355.2,258.4 356.3,265.9 357.4,249.6 358.5,209.8 359.5,220.6 360.6,223.0 361.7,225.7 362.8,215.1 363.8,227.4 364.9,222.0 366.0,209.0 367.1,242.0 368.2,239.8 369.2,248.9 370.3,251.4 371.4,247.5 372.5,243.7 373.5,252.6 374.6,250.3 375.7,248.7 376.8,267.5 377.9,252.2 378.9,247.7 380.0,258.9 381.1,227.2 382.2,211.3 383.2,216.8 384.3,255.8 385.4,251.6 386.5,245.4 387.6,270.3 388.6,239.4 389.7,244.7 390.8,243.3 391.9,250.8 393.0,232.4 394.0,242.8 395.1,244.7 396.2,265.4 397.3,239.2 398.3,244.6 399.4,242.8 400.5,247.8 401.6,246.7 402.7,263.6 403.7,250.8 404.8,258.2 405.9,254.7 407.0,251.7 408.0,265.0 409.1,252.6 410.2,259.2 411.3,263.9 412.4,253.9 413.4,230.0 414.5,224.2 415.6,257.9 416.7,245.8 417.7,252.8 418.8,255.5 419.9,248.1 421.0,251.2 422.1,250.1 423.1,248.5 424.2,245.4 425.3,265.0 426.4,263.0 427.4,258.3 428.5,262.4 429.6,259.0 430.7,283.8 431.8,276.5 432.8,273.1 433.9,276.5 435.0,282.7 436.1,282.5 437.2,277.7 438.2,281.6 439.3,283.5 440.4,278.5 441.5,276.0 442.5,265.8 443.6,251.2 444.7,259.6 445.8,273.4 446.9,261.0 447.9,263.4 449.0,257.8 450.1,265.6 451.2,262.2 452.2,262.1 453.3,262.1 454.4,254.3 455.5,262.8 456.6,257.4 457.6,261.5 458.7,249.6 459.8,254.9 460.9,260.6 461.9,262.8 463.0,263.7 464.1,259.3 465.2,258.4 466.3,252.3 467.3,251.5 468.4,254.4 469.5,233.7 470.6,246.8 471.7,259.0 472.7,247.4 473.8,244.3 474.9,249.6 476.0,251.4 477.0,253.2 478.1,252.7 479.2,254.5 480.3,255.1 481.4,251.1 482.4,261.9 483.5,260.5 484.6,265.7 485.7,260.3 486.7,265.4 487.8,257.3 488.9,253.9 490.0,261.6 491.1,244.2 492.1,253.1 493.2,245.6 494.3,249.2 495.4,235.1 496.4,243.1 497.5,248.1 498.6,255.7 499.7,236.3 500.8,251.0 501.8,236.7 502.9,242.5 504.0,247.8 505.1,246.2 506.1,246.8 507.2,245.6 508.3,253.2 509.4,266.1 510.5,257.9 511.5,214.6 512.6,221.0 513.7,217.1 514.8,231.6 515.9,220.8 516.9,221.3 518.0,229.0 519.1,250.2 520.2,248.0 521.2,234.3 522.3,246.0 523.4,245.0 524.5,252.9 525.6,245.9 526.6,247.4 527.7,248.3 528.8,247.7 529.9,239.1 530.9,240.8 532.0,252.0 533.1,252.9 534.2,252.0 535.3,259.5 536.3,248.6 537.4,255.6 538.5,255.6 539.6,256.2 540.6,252.6 541.7,250.4 542.8,247.5 543.9,235.3 545.0,257.7 546.0,239.4 547.1,217.5 548.2,244.7 549.3,243.3 550.3,247.4 551.4,248.5 552.5,245.5 553.6,244.6 554.7,247.9 555.7,251.0 556.8,248.9 557.9,252.3 559.0,249.7 560.1,252.3 561.1,258.4 562.2,260.8 563.3,239.5 564.4,262.6 565.4,268.1 566.5,271.0 567.6,253.1 568.7,249.5 569.8,256.8 570.8,242.4 571.9,244.6 573.0,235.9 574.1,245.9 575.1,252.1 576.2,240.5 577.3,234.4 578.4,239.0 579.5,241.9 580.5,235.1 581.6,252.6 582.7,245.0 583.8,244.3 584.8,262.3 585.9,305.5 587.0,249.9 588.1,245.8 589.2,258.9 590.2,255.9 591.3,253.1 592.4,256.3 593.5,245.1 594.6,242.3 595.6,240.8 596.7,242.9 597.8,248.5 598.9,241.0 599.9,237.3 601.0,242.1 602.1,239.8 603.2,236.5 604.3,241.5 605.3,247.0 606.4,243.4 607.5,245.8 608.6,248.9 609.6,238.6 610.7,251.6 611.8,249.4 612.9,276.3 614.0,259.7 615.0,250.9 616.1,269.4 617.2,251.6 618.3,254.3 619.3,253.9 620.4,248.4 621.5,238.0 622.6,246.8 623.7,247.0 624.7,245.2 625.8,246.2 626.9,236.4 628.0,240.2 629.0,239.9 630.1,265.2 631.2,243.4 632.3,244.6 633.4,240.0 634.4,250.6 635.5,252.1 636.6,260.3 637.7,245.6 638.8,263.7 639.8,248.6 640.9,262.8 642.0,265.9 643.1,248.1 644.1,254.3 645.2,247.2 646.3,252.3 647.4,246.3 648.5,251.2 649.5,245.4 650.6,241.8 651.7,237.3 652.8,251.5 653.8,246.1 654.9,239.7 656.0,238.8 657.1,245.5 658.2,247.4 659.2,254.5 660.3,236.8 661.4,251.2 662.5,251.9 663.5,255.6 664.6,260.8 665.7,260.8 666.8,256.8 667.9,248.6 668.9,250.9 670.0,258.6 671.1,252.0 672.2,247.8 673.2,242.0 674.3,235.9 675.4,240.3 676.5,241.3 677.6,243.0 678.6,250.0 679.7,251.4 680.8,248.2 681.9,247.2 683.0,243.8 684.0,247.8 685.1,250.6 686.2,243.7 687.3,249.4 688.3,257.8 689.4,256.4 690.5,266.0 691.6,253.2 692.7,257.3 693.7,254.9 694.8,263.9 695.9,255.6 697.0,243.4 698.0,246.3 699.1,236.2 700.2,243.4 701.3,247.6 702.4,232.1 703.4,245.1 704.5,241.1 705.6,245.4 706.7,244.3 707.7,245.7 708.8,244.9 709.9,237.9 711.0,243.8 712.1,240.4 713.1,257.6 714.2,256.3 715.3,256.7 716.4,257.1 717.4,257.2 718.5,263.0 719.6,256.8 720.7,255.5 721.8,256.1 722.8,252.2 723.9,269.8 725.0,254.4 726.1,246.0 727.2,249.9 728.2,237.3 729.3,240.6 730.4,246.0 731.5,254.5 732.5,250.8 733.6,250.9 734.7,252.8 735.8,243.7 736.9,250.9 737.9,251.9 739.0,264.5 740.1,263.0 741.2,262.2 742.2,258.8 743.3,264.6 744.4,255.8 745.5,263.3 746.6,253.6 747.6,256.9 748.7,252.5 749.8,255.3 750.9,252.6 751.9,246.8 753.0,248.8 754.1,241.7 755.2,242.1 756.3,248.9 757.3,250.9 758.4,245.3 759.5,247.8 760.6,246.7 761.7,252.2 762.7,248.6 763.8,256.6 764.9,253.4 766.0,255.6 767.0,260.2 768.1,251.7 769.2,253.8 770.3,264.5 771.4,255.3 772.4,263.6 773.5,248.5 774.6,252.2 775.7,250.8 776.7,253.1 777.8,244.8 778.9,253.0 780.0,244.6 781.1,248.3 782.1,251.8 783.2,245.9 784.3,246.0 785.4,261.2 786.4,255.5 787.5,251.8 788.6,251.4 789.7,254.2 790.8,255.0 791.8,255.0 792.9,265.9 794.0,248.1 795.1,272.1 796.1,254.3 797.2,257.3 798.3,258.3 799.4,243.2 800.5,251.2 801.5,252.1 802.6,251.2 803.7,251.9 804.8,266.5 805.9,260.3 806.9,243.4 808.0,245.9 809.1,345.6 810.2,341.0 811.2,341.4 812.3,339.1 813.4,340.1 814.5,345.0 815.6,343.8 816.6,343.3 817.7,343.1 818.8,343.9 819.9,341.5 820.9,341.0 822.0,342.3 823.1,341.5 824.2,345.3 825.3,340.9 826.3,350.1 827.4,340.2 828.5,342.7 829.6,340.3 830.6,340.1 831.7,341.1 832.8,339.5 833.9,343.3 835.0,343.2 836.0,340.7 837.1,342.2 838.2,341.2 839.3,341.9 840.3,340.0 841.4,344.3 842.5,338.1 843.6,340.6 844.7,342.6 845.7,342.9 846.8,342.3 847.9,345.1 849.0,342.7 850.1,342.9 851.1,340.6 852.2,341.6 853.3,339.6 854.4,341.3 855.4,341.5 856.5,341.0 857.6,342.0 858.7,339.2 859.8,339.6 860.8,340.4 861.9,340.9 863.0,335.8 864.1,335.6 865.1,334.7 866.2,340.2 867.3,340.4 868.4,340.3 869.5,339.6 870.5,342.0 871.6,341.5 872.7,342.0 873.8,343.1 874.8,342.0 875.9,340.6 877.0,334.9 878.1,339.8 879.2,340.6 880.2,340.3 881.3,338.2 882.4,339.3 883.5,338.7 884.6,346.4 885.6,288.7 886.7,339.1 887.8,340.3 888.9,342.0 889.9,341.7 891.0,339.6 892.1,312.1 893.2,343.5 894.3,342.2 895.3,322.7 896.4,348.9 897.5,344.5 898.6,342.6 899.6,342.4 900.7,337.4 901.8,336.7 902.9,331.5 904.0,316.9 905.0,313.8 906.1,336.5 907.2,339.3 908.3,351.6 909.3,341.7 910.4,317.1 911.5,341.6 912.6,334.3 913.7,338.9 914.7,348.0 915.8,317.1 916.9,340.6 918.0,341.7 919.0,340.6 920.1,319.1 921.2,347.2 922.3,345.5 923.4,345.7 924.4,345.8 925.5,345.1 926.6,346.2 927.7,346.7 928.8,351.1 929.8,313.1 930.9,349.0 932.0,346.7 933.1,345.7 934.1,319.3 935.2,345.8 936.3,339.2 937.4,344.5 938.5,321.3 939.5,341.8 940.6,345.7 941.7,343.1 942.8,324.3 943.8,350.6 944.9,345.0 946.0,345.5" fill="none" stroke="#7c3aed" stroke-width="2.2" stroke-linejoin="round" stroke-linecap="round"/>
<line x1="76" y1="70" x2="94" y2="70" stroke="#2563eb" stroke-width="3"/>
<text x="100" y="74" font-family="Arial, sans-serif" font-size="11" fill="#0f172a">tx count</text>
<line x1="186" y1="70" x2="204" y2="70" stroke="#7c3aed" stroke-width="3"/>
<text x="210" y="74" font-family="Arial, sans-serif" font-size="11" fill="#0f172a">unique accounts</text>
<text x="28" y="404" font-family="Arial, sans-serif" font-size="11" fill="#64748b">Source: hourly_features.csv; capped windows are sample counts</text>
</svg>