<svg xmlns="http://www.w3.org/2000/svg" width="980" height="420" viewBox="0 0 980 420">
<rect width="100%" height="100%" fill="#ffffff"/>
<text x="28" y="34" font-family="Arial, sans-serif" font-size="20" font-weight="700" fill="#0f172a">Network activity sample trend</text>
<text x="28" y="56" font-family="Arial, sans-serif" font-size="12" fill="#64748b">Hourly transaction sample count and unique account sample count</text>
<line x1="76" y1="362.0" x2="946" y2="362.0" stroke="#e2e8f0" stroke-width="1"/>
<text x="68" y="366.0" font-family="Arial, sans-serif" font-size="10" text-anchor="end" fill="#64748b">348</text>
<line x1="76" y1="292.0" x2="946" y2="292.0" stroke="#e2e8f0" stroke-width="1"/>
<text x="68" y="296.0" font-family="Arial, sans-serif" font-size="10" text-anchor="end" fill="#64748b">2K</text>
<line x1="76" y1="222.0" x2="946" y2="222.0" stroke="#e2e8f0" stroke-width="1"/>
<text x="68" y="226.0" font-family="Arial, sans-serif" font-size="10" text-anchor="end" fill="#64748b">3K</text>
<line x1="76" y1="152.0" x2="946" y2="152.0" stroke="#e2e8f0" stroke-width="1"/>
<text x="68" y="156.0" font-family="Arial, sans-serif" font-size="10" text-anchor="end" fill="#64748b">5K</text>
<line x1="76" y1="82.0" x2="946" y2="82.0" stroke="#e2e8f0" stroke-width="1"/>
<text x="68" y="86.0" font-family="Arial, sans-serif" font-size="10" text-anchor="end" fill="#64748b">6K</text>
<line x1="76" y1="362" x2="946" y2="362" stroke="#334155" stroke-width="1"/>
<line x1="76" y1="82" x2="76" y2="362" stroke="#334155" stroke-width="1"/>
<text x="76" y="72" font-family="Arial, sans-serif" font-size="11" fill="#64748b">count</text>
<line x1="76.0" y1="362" x2="76.0" y2="366" stroke="#334155" stroke-width="1"/>
<text x="76.0" y="380" font-family="Arial, sans-serif" font-size="10" text-anchor="middle" fill="#64748b">0</text>
<line x1="511.6" y1="362" x2="511.6" y2="366" stroke="#334155" stroke-width="1"/>
<text x="511.6" y="380" font-family="Arial, sans-serif" font-size="10" text-anchor="middle" fill="#64748b">363</text>
<line x1="946.0" y1="362" x2="946.0" y2="366" stroke="#334155" stroke-width="1"/>
<text x="946.0" y="380" font-family="Arial, sans-serif" font-size="10" text-anchor="middle" fill="#64748b">725</text>
<polyline points="76.0,139.8 77.2,139.8 78.4,139.8 79.6,139.8 80.8,139.8 82.0,139.8 83.2,139.8 84.4,139.8 85.6,139.8 86.8,139.8 88.0,139.8 89.2,139.8 90.4,139.8 91.6,139.8 92.8,139.8 94.0,139.8 95.2,139.8 96.4,139.8 97.6,139.8 98.8,139.8 100.0,139.8 101.2,139.8 102.4,139.8 103.6,139.8 104.8,139.8 106.0,139.8 107.2,139.8 108.4,139.8 109.6,139.8 110.8,139.8 112.0,139.8 113.2,139.8 114.4,139.8 115.6,139.8 116.8,139.8 118.0,139.8 119.2,139.8 120.4,139.8 121.6,139.8 122.8,139.8 124.0,139.8 125.2,139.8 126.4,139.8 127.6,139.8 128.8,139.8 130.0,139.8 131.2,139.8 132.4,139.8 133.6,139.8 134.8,139.8 136.0,139.8 137.2,139.8 138.4,139.8 139.6,139.8 140.8,139.8 142.0,139.8 143.2,139.8 144.4,139.8 145.6,139.8 146.8,139.8 148.0,139.8 149.2,139.8 150.4,139.8 151.6,139.8 152.8,139.8 154.0,139.8 155.2,139.8 156.4,139.8 157.6,139.8 158.8,139.8 160.0,139.8 161.2,139.8 162.4,139.8 163.6,139.8 164.8,139.8 166.0,139.8 167.2,139.8 168.4,139.8 169.6,139.8 170.8,139.8 172.0,139.8 173.2,139.8 174.4,139.8 175.6,139.8 176.8,139.8 178.0,139.8 179.2,139.8 180.4,139.8 181.6,139.8 182.8,139.8 184.0,139.8 185.2,139.8 186.4,139.8 187.6,139.8 188.8,139.8 190.0,139.8 191.2,139.8 192.4,139.8 193.6,139.8 194.8,139.8 196.0,139.8 197.2,139.8 198.4,139.8 199.6,139.8 200.8,139.8 202.0,139.8 203.2,139.8 204.4,139.8 205.6,139.8 206.8,139.8 208.0,139.8 209.2,139.8 210.4,139.8 211.6,139.8 212.8,139.8 214.0,139.8 215.2,139.8 216.4,139.8 217.6,139.8 218.8,139.8 220.0,139.8 221.2,139.8 222.4,139.8 223.6,139.8 224.8,139.8 226.0,139.8 227.2,139.8 228.4,139.8 229.6,139.8 230.8,139.8 232.0,139.8 233.2,139.8 234.4,139.8 235.6,139.8 236.8,139.8 238.0,139.8 239.2,139.8 240.4,139.8 241.6,139.8 242.8,139.8 244.0,139.8 245.2,139.8 246.4,139.8 247.6,139.8 248.8,139.8 250.0,139.8 251.2,139.8 252.4,139.8 253.6,139.8 254.8,139.8 256.0,139.8 257.2,139.8 258.4,139.8 259.6,139.8 260.8,139.8 262.0,139.8 263.2,139.8 264.4,139.8 265.6,139.8 266.8,139.8 268.0,139.8 269.2,139.8 270.4,139.8 271.6,139.8 272.8,139.8 274.0,139.8 275.2,139.8 276.4,139.8 277.6,139.8 278.8,139.8 280.0,139.8 281.2,139.8 282.4,139.8 283.6,139.8 284.8,139.8 286.0,139.8 287.2,139.8 288.4,139.8 289.6,139.8 290.8,139.8 292.0,139.8 293.2,139.8 294.4,139.8 295.6,139.8 296.8,139.8 298.0,139.8 299.2,139.8 300.4,139.8 301.6,139.8 302.8,139.8 304.0,139.8 305.2,139.8 306.4,139.8 307.6,139.8 308.8,139.8 310.0,139.8 311.2,139.8 312.4,139.8 313.6,139.8 314.8,139.8 316.0,139.8 317.2,139.8 318.4,139.8 319.6,139.8 320.8,139.8 322.0,139.8 323.2,139.8 324.4,139.8 325.6,139.8 326.8,139.8 328.0,139.8 329.2,139.8 330.4,139.8 331.6,139.8 332.8,139.8 334.0,139.8 335.2,139.8 336.4,139.8 337.6,139.8 338.8,139.8 340.0,139.8 341.2,139.8 342.4,139.8 343.6,139.8 344.8,139.8 346.0,139.8 347.2,139.8 348.4,139.8 349.6,139.8 350.8,139.8 352.0,139.8 353.2,139.8 354.4,139.8 355.6,139.8 356.8,139.8 358.0,139.8 359.2,139.8 360.4,139.8 361.6,139.8 362.8,139.8 364.0,139.8 365.2,139.8 366.4,139.8 367.6,139.8 368.8,139.8 370.0,139.8 371.2,139.8 372.4,139.8 373.6,139.8 374.8,139.8 376.0,139.8 377.2,139.8 378.4,139.8 379.6,139.8 380.8,139.8 382.0,139.8 383.2,139.8 384.4,139.8 385.6,139.8 386.8,139.8 388.0,139.8 389.2,139.8 390.4,139.8 391.6,139.8 392.8,139.8 394.0,139.8 395.2,139.8 396.4,139.8 397.6,139.8 398.8,139.8 400.0,139.8 401.2,139.8 402.4,139.8 403.6,139.8 404.8,139.8 406.0,139.8 407.2,139.8 408.4,139.8 409.6,139.8 410.8,139.8 412.0,139.8 413.2,139.8 414.4,139.8 415.6,139.8 416.8,139.8 418.0,139.8 419.2,139.8 420.4,139.8 421.6,139.8 422.8,139.8 424.0,139.8 425.2,139.8 426.4,139.8 427.6,139.8 428.8,139.8 430.0,139.8 431.2,139.8 432.4,139.8 433.6,139.8 434.8,139.8 436.0,139.8 437.2,139.8 438.4,139.8 439.6,139.8 440.8,139.8 442.0,139.8 443.2,139.8 444.4,139.8 445.6,139.8 446.8,139.8 448.0,139.8 449.2,139.8 450.4,139.8 451.6,139.8 452.8,139.8 454.0,139.8 455.2,139.8 456.4,139.8 457.6,139.8 458.8,139.8 460.0,139.8 461.2,139.8 462.4,139.8 463.6,139.8 464.8,139.8 466.0,139.8 467.2,139.8 468.4,139.8 469.6,139.8 470.8,139.8 472.0,139.8 473.2,139.8 474.4,139.8 475.6,139.8 476.8,139.8 478.0,139.8 479.2,139.8 480.4,139.8 481.6,139.8 482.8,139.8 484.0,139.8 485.2,139.8 486.4,139.8 487.6,139.8 488.8,139.8 490.0,139.8 491.2,139.8 492.4,139.8 493.6,139.8 494.8,139.8 496.0,139.8 497.2,139.8 498.4,139.8 499.6,139.8 500.8,139.8 502.0,139.8 503.2,139.8 504.4,139.8 505.6,139.8 506.8,139.8 508.0,139.8 509.2,139.8 510.4,139.8 511.6,139.8 512.8,139.8 514.0,139.8 515.2,139.8 516.4,139.8 517.6,139.8 518.8,139.8 520.0,139.8 521.2,139.8 522.4,139.8 523.6,139.8 524.8,139.8 526.0,139.8 527.2,139.8 528.4,139.8 529.6,139.8 530.8,139.8 532.0,139.8 533.2,139.8 534.4,139.8 535.6,139.8 536.8,139.8 538.0,139.8 539.2,139.8 540.4,139.8 541.6,139.8 542.8,139.8 544.0,139.8 545.2,139.8 546.4,139.8 547.6,139.8 548.8,139.8 550.0,139.8 551.2,139.8 552.4,139.8 553.6,139.8 554.8,139.8 556.0,139.8 557.2,139.8 558.4,139.8 559.6,139.8 560.8,139.8 562.0,139.8 563.2,139.8 564.4,139.8 565.6,139.8 566.8,139.8 568.0,139.8 569.2,139.8 570.4,139.8 571.6,139.8 572.8,139.8 574.0,139.8 575.2,139.8 576.4,139.8 577.6,139.8 578.8,139.8 580.0,139.8 581.2,139.8 582.4,139.8 583.6,139.8 584.8,139.8 586.0,139.8 587.2,139.8 588.4,139.8 589.6,139.8 590.8,139.8 592.0,139.8 593.2,139.8 594.4,139.8 595.6,139.8 596.8,139.8 598.0,139.8 599.2,139.8 600.4,139.8 601.6,139.8 602.8,139.8 604.0,139.8 605.2,139.8 606.4,139.8 607.6,139.8 608.8,139.8 610.0,139.8 611.2,139.8 612.4,139.8 613.6,139.8 614.8,139.8 616.0,139.8 617.2,139.8 618.4,139.8 619.6,139.8 620.8,139.8 622.0,139.8 623.2,139.8 624.4,139.8 625.6,139.8 626.8,139.8 628.0,139.8 629.2,139.8 630.4,139.8 631.6,139.8 632.8,139.8 634.0,139.8 635.2,139.8 636.4,139.8 637.6,139.8 638.8,139.8 640.0,139.8 641.2,139.8 642.4,139.8 643.6,139.8 644.8,139.8 646.0,139.8 647.2,139.8 648.4,139.8 649.6,139.8 650.8,139.8 652.0,139.8 653.2,139.8 654.4,139.8 655.6,139.8 656.8,139.8 658.0,139.8 659.2,139.8 660.4,139.8 661.6,139.8 662.8,139.8 664.0,139.8 665.2,139.8 666.4,139.8 667.6,139.8 668.8,139.8 670.0,139.8 671.2,139.8 672.4,139.8 673.6,139.8 674.8,139.8 676.0,139.8 677.2,139.8 678.4,139.8 679.6,139.8 680.8,139.8 682.0,139.8 683.2,139.8 684.4,139.8 685.6,139.8 686.8,139.8 688.0,139.8 689.2,139.8 690.4,139.8 691.6,139.8 692.8,139.8 694.0,139.8 695.2,139.8 696.4,139.8 697.6,139.8 698.8,139.8 700.0,139.8 701.2,139.8 702.4,139.8 703.6,139.8 704.8,139.8 706.0,139.8 707.2,139.8 708.4,139.8 709.6,139.8 710.8,139.8 712.0,139.8 713.2,139.8 714.4,139.8 715.6,139.8 716.8,139.8 718.0,139.8 719.2,139.8 720.4,139.8 721.6,139.8 722.8,139.8 724.0,139.8 725.2,139.8 726.4,139.8 727.6,139.8 728.8,139.8 730.0,139.8 731.2,139.8 732.4,139.8 733.6,139.8 734.8,139.8 736.0,139.8 737.2,139.8 738.4,139.8 739.6,139.8 740.8,139.8 742.0,139.8 743.2,139.8 744.4,139.8 745.6,139.8 746.8,139.8 748.0,139.8 749.2,139.8 750.4,139.8 751.6,139.8 752.8,139.8 754.0,139.8 755.2,139.8 756.4,139.8 757.6,139.8 758.8,139.8 760.0,139.8 761.2,139.8 762.4,139.8 763.6,139.8 764.8,139.8 766.0,139.8 767.2,139.8 768.4,139.8 769.6,139.8 770.8,139.8 772.0,139.8 773.2,139.8 774.4,139.8 775.6,139.8 776.8,139.8 778.0,139.8 779.2,139.8 780.4,139.8 781.6,139.8 782.8,139.8 784.0,139.8 785.2,139.8 786.4,139.8 787.6,139.8 788.8,139.8 790.0,139.8 791.2,139.8 792.4,139.8 793.6,139.8 794.8,139.8 796.0,139.8 797.2,139.8 798.4,139.8 799.6,139.8 800.8,139.8 802.0,139.8 803.2,139.8 804.4,139.8 805.6,139.8 806.8,139.8 808.0,139.8 809.2,139.8 810.4,139.8 811.6,139.8 812.8,139.8 814.0,139.8 815.2,139.8 816.4,139.8 817.6,139.8 818.8,139.8 820.0,139.8 821.2,139.8 822.4,139.8 823.6,139.8 824.8,139.8 826.0,139.8 827.2,139.8 828.4,139.8 829.6,139.8 830.8,139.8 832.0,139.8 833.2,139.8 834.4,139.8 835.6,139.8 836.8,139.8 838.0,139.8 839.2,139.8 840.4,139.8 841.6,139.8 842.8,139.8 844.0,139.8 845.2,139.8 846.4,139.8 847.6,139.8 848.8,139.8 850.0,139.8 851.2,139.8 852.4,139.8 853.6,139.8 854.8,139.8 856.0,139.8 857.2,139.8 858.4,139.8 859.6,139.8 860.8,139.8 862.0,139.8 863.2,139.8 864.4,139.8 865.6,139.8 866.8,139.8 868.0,139.8 869.2,139.8 870.4,139.8 871.6,139.8 872.8,139.8 874.0,139.8 875.2,139.8 876.4,139.8 877.6,139.8 878.8,139.8 880.0,139.8 881.2,139.8 882.4,139.8 883.6,139.8 884.8,139.8 886.0,139.8 887.2,139.8 888.4,139.8 889.6,139.8 890.8,139.8 892.0,139.8 893.2,139.8 894.4,139.8 895.6,139.8 896.8,139.8 898.0,139.8 899.2,139.8 900.4,139.8 901.6,139.8 902.8,139.8 904.0,139.8 905.2,139.8 906.4,139.8 907.6,139.8 908.8,139.8 910.0,139.8 911.2,139.8 912.4,139.8 913.6,139.8 914.8,139.8 916.0,139.8 917.2,139.8 918.4,139.8 919.6,139.8 920.8,139.8 922.0,139.8 923.2,139.8 924.4,139.8 925.6,139.8 926.8,139.8 928.0,139.8 929.2,139.8 930.4,139.8 931.6,139.8 932.8,139.8 934.0,139.8 935.2,139.8 936.4,139.8 937.6,139.8 938.8,138.8 940.0,92.4 941.2,330.9 942.4,330.9 943.6,285.0 944.8,283.4 946.0,330.9" fill="none" stroke="#2563eb" stroke-width="2.2" stroke-linejoin="round" stroke-linecap="round"/>
<polyline points="76.0,284.1 77.2,280.7 78.4,272.8 79.6,270.9 80.8,274.1 82.0,265.0 83.2,264.5 84.4,267.8 85.6,272.0 86.8,271.6 88.0,285.7 89.2,270.0 90.4,269.2 91.6,270.6 92.8,274.2 94.0,281.2 95.2,278.8 96.4,276.8 97.6,274.6 98.8,278.8 100.0,283.0 101.2,279.6 102.4,278.0 103.6,277.7 104.8,272.6 106.0,271.3 107.2,273.0 108.4,265.8 109.6,258.4 110.8,265.8 112.0,267.8 113.2,279.4 114.4,274.1 115.6,273.8 116.8,277.6 118.0,273.7 119.2,271.1 120.4,276.1 121.6,270.8 122.8,270.7 124.0,268.8 125.2,283.3 126.4,280.2 127.6,276.8 128.8,247.7 130.0,249.8 131.2,277.8 132.4,274.3 133.6,262.5 134.8,247.3 136.0,264.7 137.2,274.3 138.4,268.1 139.6,266.6 140.8,268.1 142.0,270.5 143.2,268.5 144.4,273.3 145.6,265.9 146.8,270.7 148.0,263.8 149.2,269.4 150.4,268.1 151.6,303.0 152.8,290.2 154.0,283.7 155.2,290.3 156.4,287.7 157.6,263.5 158.8,259.5 160.0,267.7 161.2,281.6 162.4,292.3 163.6,269.9 164.8,269.4 166.0,271.6 167.2,282.6 168.4,273.6 169.6,281.0 170.8,269.8 172.0,265.2 173.2,276.6 174.4,273.2 175.6,277.2 176.8,278.1 178.0,276.7 179.2,283.4 180.4,274.5 181.6,274.5 182.8,276.4 184.0,273.3 185.2,288.7 186.4,257.6 187.6,278.2 188.8,274.2 190.0,246.4 191.2,278.7 192.4,269.2 193.6,271.5 194.8,253.7 196.0,270.0 197.2,271.9 198.4,265.6 199.6,272.8 200.8,267.9 202.0,273.4 203.2,268.5 204.4,267.2 205.6,267.0 206.8,271.7 208.0,269.3 209.2,274.8 210.4,263.0 211.6,274.5 212.8,275.4 214.0,274.1 215.2,247.8 216.4,233.9 217.6,243.4 218.8,244.3 220.0,243.9 221.2,252.0 222.4,248.2 223.6,244.4 224.8,267.8 226.0,270.2 227.2,266.4 228.4,267.5 229.6,266.7 230.8,266.2 232.0,267.0 233.2,268.7 234.4,267.7 235.6,269.1 236.8,273.0 238.0,269.1 239.2,280.2 240.4,279.9 241.6,271.7 242.8,284.5 244.0,307.4 245.2,276.8 246.4,288.7 247.6,278.0 248.8,276.1 250.0,276.3 251.2,273.9 252.4,274.8 253.6,269.2 254.8,274.2 256.0,268.4 257.2,266.8 258.4,265.4 259.6,267.0 260.8,274.4 262.0,285.2 263.2,270.9 264.4,275.2 265.6,274.1 266.8,275.9 268.0,276.1 269.2,280.6 270.4,282.4 271.6,280.9 272.8,308.9 274.0,278.1 275.2,290.4 276.4,261.6 277.6,275.1 278.8,269.1 280.0,272.4 281.2,265.2 282.4,267.0 283.6,272.2 284.8,267.4 286.0,261.9 287.2,269.6 288.4,271.1 289.6,266.0 290.8,269.2 292.0,269.0 293.2,270.6 294.4,271.4 295.6,274.7 296.8,276.0 298.0,280.9 299.2,284.7 300.4,275.1 301.6,303.3 302.8,274.7 304.0,277.6 305.2,273.8 306.4,273.1 307.6,267.3 308.8,266.8 310.0,266.7 311.2,265.6 312.4,271.0 313.6,271.6 314.8,280.8 316.0,279.4 317.2,276.5 318.4,273.4 319.6,278.2 320.8,271.2 322.0,276.3 323.2,269.8 324.4,276.1 325.6,280.1 326.8,282.9 328.0,280.8 329.2,287.0 330.4,313.6 331.6,281.8 332.8,282.0 334.0,280.6 335.2,279.8 336.4,272.9 337.6,271.5 338.8,269.8 340.0,275.2 341.2,272.2 342.4,269.4 343.6,269.4 344.8,265.8 346.0,271.7 347.2,265.0 348.4,265.9 349.6,265.6 350.8,278.2 352.0,277.9 353.2,276.8 354.4,281.2 355.6,293.0 356.8,279.9 358.0,282.2 359.2,280.2 360.4,275.2 361.6,258.0 362.8,247.6 364.0,279.7 365.2,269.0 366.4,254.8 367.6,251.7 368.8,251.3 370.0,251.1 371.2,250.1 372.4,264.2 373.6,257.8 374.8,260.8 376.0,261.5 377.2,269.6 378.4,279.0 379.6,287.1 380.8,269.2 382.0,301.9 383.2,273.3 384.4,286.1 385.6,279.1 386.8,280.4 388.0,286.8 389.2,272.9 390.4,239.2 391.6,248.4 392.8,250.4 394.0,252.7 395.2,243.7 396.4,254.1 397.6,249.6 398.8,238.5 400.0,266.5 401.2,264.6 402.4,272.3 403.6,274.4 404.8,271.1 406.0,267.9 407.2,275.4 408.4,273.5 409.6,272.2 410.8,288.1 412.0,275.2 413.2,271.3 414.4,280.8 415.6,254.0 416.8,240.5 418.0,245.2 419.2,278.2 420.4,274.6 421.6,269.3 422.8,290.4 424.0,264.3 425.2,268.8 426.4,267.6 427.6,273.9 428.8,258.4 430.0,267.2 431.2,268.8 432.4,286.3 433.6,264.1 434.8,268.7 436.0,267.2 437.2,271.4 438.4,270.5 439.6,284.8 440.8,274.0 442.0,280.2 443.2,277.3 444.4,274.7 445.6,286.0 446.8,275.5 448.0,281.0 449.2,285.0 450.4,276.6 451.6,256.3 452.8,251.4 454.0,280.0 455.2,269.7 456.4,275.6 457.6,277.9 458.8,271.6 460.0,274.3 461.2,273.3 462.4,272.0 463.6,269.3 464.8,286.0 466.0,284.3 467.2,280.3 468.4,283.8 469.6,280.9 470.8,301.9 472.0,295.7 473.2,292.8 474.4,295.7 475.6,301.0 476.8,300.8 478.0,296.7 479.2,300.0 480.4,301.7 481.6,297.4 482.8,295.3 484.0,286.6 485.2,274.3 486.4,281.4 487.6,293.1 488.8,282.6 490.0,284.6 491.2,279.8 492.4,286.5 493.6,283.6 494.8,283.5 496.0,283.5 497.2,276.9 498.4,284.1 499.6,279.5 500.8,283.0 502.0,272.9 503.2,277.5 504.4,282.3 505.6,284.1 506.8,284.9 508.0,281.1 509.2,280.4 510.4,275.3 511.6,274.5 512.8,277.0 514.0,259.4 515.2,270.5 516.4,280.9 517.6,271.1 518.8,268.5 520.0,273.0 521.2,274.5 522.4,276.0 523.6,275.6 524.8,277.1 526.0,277.6 527.2,274.2 528.4,283.4 529.6,282.2 530.8,286.5 532.0,282.0 533.2,286.3 534.4,279.4 535.6,276.6 536.8,283.1 538.0,268.4 539.2,275.9 540.4,269.6 541.6,272.6 542.8,260.7 544.0,267.4 545.2,271.7 546.4,278.1 547.6,261.7 548.8,274.1 550.0,262.0 551.2,266.9 552.4,271.4 553.6,270.0 554.8,270.6 556.0,269.5 557.2,276.0 558.4,286.9 559.6,279.9 560.8,243.3 562.0,248.7 563.2,245.5 564.4,257.7 565.6,248.6 566.8,248.9 568.0,255.5 569.2,273.4 570.4,271.6 571.6,260.0 572.8,269.9 574.0,269.0 575.2,275.7 576.4,269.8 577.6,271.1 578.8,271.8 580.0,271.3 581.2,264.0 582.4,265.5 583.6,274.9 584.8,275.7 586.0,274.9 587.2,281.3 588.4,272.1 589.6,278.0 590.8,278.0 592.0,278.5 593.2,275.5 594.4,273.6 595.6,271.1 596.8,260.8 598.0,279.8 599.2,264.3 600.4,245.7 601.6,268.8 602.8,267.6 604.0,271.1 605.2,272.0 606.4,269.5 607.6,268.7 608.8,271.5 610.0,274.1 611.2,272.3 612.4,275.3 613.6,273.0 614.8,275.3 616.0,280.4 617.2,282.4 618.4,264.4 619.6,283.9 620.8,288.6 622.0,291.1 623.2,275.9 624.4,272.8 625.6,279.0 626.8,266.8 628.0,268.7 629.2,261.4 630.4,269.8 631.6,275.1 632.8,265.2 634.0,260.1 635.2,263.9 636.4,266.4 637.6,260.6 638.8,275.5 640.0,269.0 641.2,268.4 642.4,283.7 643.6,320.3 644.8,273.2 646.0,269.7 647.2,280.8 648.4,278.3 649.6,275.9 650.8,278.6 652.0,269.1 653.2,266.7 654.4,265.5 655.6,267.2 656.8,272.0 658.0,265.6 659.2,262.6 660.4,266.6 661.6,264.7 662.8,261.8 664.0,266.0 665.2,270.7 666.4,267.7 667.6,269.7 668.8,272.3 670.0,263.6 671.2,274.6 672.4,272.7 673.6,295.5 674.8,281.5 676.0,274.1 677.2,289.7 678.4,274.6 679.6,276.9 680.8,276.6 682.0,271.9 683.2,263.1 684.4,270.5 685.6,270.8 686.8,269.2 688.0,270.0 689.2,261.7 690.4,265.0 691.6,264.7 692.8,286.1 694.0,267.7 695.2,268.7 696.4,264.8 697.6,273.8 698.8,275.0 700.0,282.0 701.2,269.5 702.4,284.9 703.6,272.1 704.8,284.1 706.0,286.7 707.2,271.7 708.4,276.9 709.6,270.9 710.8,275.2 712.0,270.1 713.2,274.3 714.4,269.4 715.6,266.3 716.8,262.5 718.0,274.5 719.2,270.0 720.4,264.6 721.6,263.7 722.8,269.4 724.0,271.1 725.2,277.1 726.4,262.1 727.6,274.3 728.8,274.9 730.0,278.0 731.2,282.4 732.4,282.4 733.6,279.0 734.8,272.1 736.0,274.0 737.2,280.5 738.4,274.9 739.6,271.4 740.8,266.5 742.0,261.4 743.2,265.1 744.4,265.9 745.6,267.4 746.8,273.3 748.0,274.4 749.2,271.7 750.4,270.9 751.6,268.0 752.8,271.4 754.0,273.8 755.2,267.9 756.4,272.8 757.6,279.8 758.8,278.7 760.0,286.8 761.2,276.0 762.4,279.5 763.6,277.5 764.8,285.0 766.0,278.0 767.2,267.7 768.4,270.1 769.6,261.6 770.8,267.7 772.0,271.2 773.2,258.1 774.4,269.1 775.6,265.7 776.8,269.3 778.0,268.5 779.2,269.6 780.4,269.0 781.6,263.0 782.8,268.0 784.0,265.2 785.2,279.7 786.4,278.6 787.6,278.9 788.8,279.3 790.0,279.4 791.2,284.3 792.4,279.0 793.6,277.9 794.8,278.4 796.0,275.1 797.2,290.0 798.4,277.0 799.6,269.9 800.8,273.2 802.0,262.6 803.2,265.3 804.4,269.9 805.6,277.1 806.8,274.0 808.0,274.1 809.2,275.6 810.4,267.9 811.6,274.0 812.8,274.9 814.0,285.6 815.2,284.2 816.4,283.6 817.6,280.7 818.8,285.7 820.0,278.2 821.2,284.5 822.4,276.4 823.6,279.1 824.8,275.4 826.0,277.7 827.2,275.5 828.4,270.5 829.6,272.2 830.8,266.2 832.0,266.6 833.2,272.3 834.4,274.1 835.6,269.3 836.8,271.4 838.0,270.4 839.2,275.1 840.4,272.1 841.6,278.9 842.8,276.2 844.0,278.0 845.2,281.9 846.4,274.7 847.6,276.5 848.8,285.6 850.0,277.7 851.2,284.8 852.4,272.0 853.6,275.1 854.8,274.0 856.0,275.9 857.2,268.9 858.4,275.8 859.6,268.7 860.8,271.9 862.0,274.8 863.2,269.8 864.4,269.9 865.6,282.8 866.8,277.9 868.0,274.8 869.2,274.4 870.4,276.8 871.6,277.5 872.8,277.5 874.0,286.8 875.2,271.7 876.4,292.0 877.6,276.9 878.8,279.4 880.0,280.3 881.2,267.5 882.4,274.3 883.6,275.0 884.8,274.3 886.0,274.9 887.2,287.2 888.4,282.0 889.6,267.7 890.8,269.8 892.0,274.3 893.2,272.1 894.4,267.9 895.6,272.0 896.8,273.4 898.0,287.0 899.2,277.6 900.4,286.1 901.6,277.5 902.8,294.2 904.0,275.3 905.2,278.0 906.4,285.4 907.6,276.9 908.8,279.8 910.0,277.5 911.2,299.6 912.4,271.5 913.6,274.8 914.8,267.8 916.0,278.7 917.2,265.2 918.4,259.8 919.6,278.6 920.8,278.1 922.0,270.9 923.2,275.0 924.4,273.5 925.6,272.4 926.8,271.1 928.0,274.8 929.2,274.6 930.4,272.3 931.6,278.0 932.8,287.0 934.0,281.1 935.2,284.1 936.4,287.5 937.6,280.7 938.8,280.3 940.0,252.7 941.2,351.5 942.4,351.6 943.6,324.9 944.8,318.6 946.0,348.6" fill="none" stroke="#7c3aed" stroke-width="2.2" stroke-linejoin="round" stroke-linecap="round"/>
<line x1="76" y1="70" x2="94" y2="70" stroke="#2563eb" stroke-width="3"/>
<text x="100" y="74" font-family="Arial, sans-serif" font-size="11" fill="#0f172a">tx count</text>
<line x1="186" y1="70" x2="204" y2="70" stroke="#7c3aed" stroke-width="3"/>
<text x="210" y="74" font-family="Arial, sans-serif" font-size="11" fill="#0f172a">unique accounts</text>
<text x="28" y="404" font-family="Arial, sans-serif" font-size="11" fill="#64748b">Source: hourly_features.csv; capped windows are sample counts</text>
</svg>