<svg xmlns="http://www.w3.org/2000/svg" width="980" height="420" viewBox="0 0 980 420">
<rect width="100%" height="100%" fill="#ffffff"/>
<text x="28" y="34" font-family="Arial, sans-serif" font-size="20" font-weight="700" fill="#0f172a">Network activity sample trend</text>
<text x="28" y="56" font-family="Arial, sans-serif" font-size="12" fill="#64748b">Hourly transaction sample count and unique account sample count</text>
<line x1="76" y1="362.0" x2="946" y2="362.0" stroke="#e2e8f0" stroke-width="1"/>
<text x="68" y="366.0" font-family="Arial, sans-serif" font-size="10" text-anchor="end" fill="#64748b">153</text>
<line x1="76" y1="292.0" x2="946" y2="292.0" stroke="#e2e8f0" stroke-width="1"/>
<text x="68" y="296.0" font-family="Arial, sans-serif" font-size="10" text-anchor="end" fill="#64748b">1K</text>
<line x1="76" y1="222.0" x2="946" y2="222.0" stroke="#e2e8f0" stroke-width="1"/>
<text x="68" y="226.0" font-family="Arial, sans-serif" font-size="10" text-anchor="end" fill="#64748b">3K</text>
<line x1="76" y1="152.0" x2="946" y2="152.0" stroke="#e2e8f0" stroke-width="1"/>
<text x="68" y="156.0" font-family="Arial, sans-serif" font-size="10" text-anchor="end" fill="#64748b">4K</text>
<line x1="76" y1="82.0" x2="946" y2="82.0" stroke="#e2e8f0" stroke-width="1"/>
<text x="68" y="86.0" font-family="Arial, sans-serif" font-size="10" text-anchor="end" fill="#64748b">5K</text>
<line x1="76" y1="362" x2="946" y2="362" stroke="#334155" stroke-width="1"/>
<line x1="76" y1="82" x2="76" y2="362" stroke="#334155" stroke-width="1"/>
<text x="76" y="72" font-family="Arial, sans-serif" font-size="11" fill="#64748b">count</text>
<line x1="76.0" y1="362" x2="76.0" y2="366" stroke="#334155" stroke-width="1"/>
<text x="76.0" y="380" font-family="Arial, sans-serif" font-size="10" text-anchor="middle" fill="#64748b">0</text>
<line x1="511.5" y1="362" x2="511.5" y2="366" stroke="#334155" stroke-width="1"/>
<text x="511.5" y="380" font-family="Arial, sans-serif" font-size="10" text-anchor="middle" fill="#64748b">450</text>
<line x1="946.0" y1="362" x2="946.0" y2="366" stroke="#334155" stroke-width="1"/>
<text x="946.0" y="380" font-family="Arial, sans-serif" font-size="10" text-anchor="middle" fill="#64748b">899</text>
<polyline points="76.0,92.4 77.0,92.4 77.9,92.4 78.9,92.4 79.9,92.4 80.8,92.4 81.8,92.4 82.8,92.4 83.7,92.4 84.7,92.4 85.7,92.4 86.6,92.4 87.6,92.4 88.6,92.4 89.5,92.4 90.5,92.4 91.5,92.4 92.5,92.4 93.4,92.4 94.4,92.4 95.4,92.4 96.3,92.4 97.3,92.4 98.3,92.4 99.2,92.4 100.2,92.4 101.2,92.4 102.1,92.4 103.1,92.4 104.1,92.4 105.0,92.4 106.0,92.4 107.0,92.4 107.9,92.4 108.9,92.4 109.9,92.4 110.8,92.4 111.8,92.4 112.8,92.4 113.7,92.4 114.7,92.4 115.7,92.4 116.6,92.4 117.6,92.4 118.6,92.4 119.5,92.4 120.5,92.4 121.5,92.4 122.5,92.4 123.4,92.4 124.4,92.4 125.4,92.4 126.3,92.4 127.3,92.4 128.3,92.4 129.2,92.4 130.2,92.4 131.2,92.4 132.1,92.4 133.1,92.4 134.1,92.4 135.0,92.4 136.0,92.4 137.0,92.4 137.9,92.4 138.9,92.4 139.9,92.4 140.8,92.4 141.8,92.4 142.8,92.4 143.7,92.4 144.7,92.4 145.7,92.4 146.6,92.4 147.6,92.4 148.6,92.4 149.5,92.4 150.5,92.4 151.5,92.4 152.5,92.4 153.4,92.4 154.4,92.4 155.4,92.4 156.3,92.4 157.3,92.4 158.3,92.4 159.2,92.4 160.2,92.4 161.2,92.4 162.1,92.4 163.1,92.4 164.1,92.4 165.0,92.4 166.0,92.4 167.0,92.4 167.9,92.4 168.9,92.4 169.9,92.4 170.8,92.4 171.8,92.4 172.8,92.4 173.7,92.4 174.7,92.4 175.7,92.4 176.6,92.4 177.6,92.4 178.6,92.4 179.5,92.4 180.5,92.4 181.5,92.4 182.5,92.4 183.4,92.4 184.4,92.4 185.4,92.4 186.3,92.4 187.3,92.4 188.3,92.4 189.2,92.4 190.2,92.4 191.2,92.4 192.1,92.4 193.1,92.4 194.1,92.4 195.0,92.4 196.0,92.4 197.0,92.4 197.9,92.4 198.9,92.4 199.9,92.4 200.8,92.4 201.8,92.4 202.8,92.4 203.7,92.4 204.7,92.4 205.7,92.4 206.6,92.4 207.6,92.4 208.6,92.4 209.5,92.4 210.5,92.4 211.5,92.4 212.5,92.4 213.4,92.4 214.4,92.4 215.4,92.4 216.3,92.4 217.3,92.4 218.3,92.4 219.2,92.4 220.2,92.4 221.2,92.4 222.1,92.4 223.1,92.4 224.1,92.4 225.0,92.4 226.0,92.4 227.0,92.4 227.9,92.4 228.9,92.4 229.9,92.4 230.8,92.4 231.8,92.4 232.8,92.4 233.7,92.4 234.7,92.4 235.7,92.4 236.6,92.4 237.6,92.4 238.6,92.4 239.5,92.4 240.5,92.4 241.5,92.4 242.5,92.4 243.4,92.4 244.4,92.4 245.4,92.4 246.3,92.4 247.3,92.4 248.3,92.4 249.2,92.4 250.2,92.4 251.2,92.4 252.1,92.4 253.1,92.4 254.1,92.4 255.0,92.4 256.0,92.4 257.0,92.4 257.9,92.4 258.9,92.4 259.9,92.4 260.8,92.4 261.8,92.4 262.8,92.4 263.7,92.4 264.7,92.4 265.7,92.4 266.6,92.4 267.6,92.4 268.6,92.4 269.5,92.4 270.5,92.4 271.5,92.4 272.5,92.4 273.4,92.4 274.4,92.4 275.4,92.4 276.3,92.4 277.3,92.4 278.3,92.4 279.2,92.4 280.2,92.4 281.2,92.4 282.1,92.4 283.1,92.4 284.1,92.4 285.0,92.4 286.0,92.4 287.0,92.4 287.9,92.4 288.9,92.4 289.9,92.4 290.8,92.4 291.8,92.4 292.8,92.4 293.7,92.4 294.7,92.4 295.7,92.4 296.6,92.4 297.6,92.4 298.6,92.4 299.5,92.4 300.5,92.4 301.5,92.4 302.5,92.4 303.4,92.4 304.4,92.4 305.4,92.4 306.3,92.4 307.3,92.4 308.3,92.4 309.2,92.4 310.2,92.4 311.2,92.4 312.1,92.4 313.1,92.4 314.1,92.4 315.0,92.4 316.0,92.4 317.0,92.4 317.9,92.4 318.9,92.4 319.9,92.4 320.8,92.4 321.8,92.4 322.8,92.4 323.7,92.4 324.7,92.4 325.7,92.4 326.6,92.4 327.6,92.4 328.6,92.4 329.5,92.4 330.5,92.4 331.5,92.4 332.5,92.4 333.4,92.4 334.4,92.4 335.4,92.4 336.3,92.4 337.3,92.4 338.3,92.4 339.2,92.4 340.2,92.4 341.2,92.4 342.1,92.4 343.1,92.4 344.1,92.4 345.0,92.4 346.0,92.4 347.0,92.4 347.9,92.4 348.9,92.4 349.9,92.4 350.8,92.4 351.8,92.4 352.8,92.4 353.7,92.4 354.7,92.4 355.7,92.4 356.6,92.4 357.6,92.4 358.6,92.4 359.5,92.4 360.5,92.4 361.5,92.4 362.5,92.4 363.4,92.4 364.4,92.4 365.4,92.4 366.3,92.4 367.3,92.4 368.3,92.4 369.2,92.4 370.2,92.4 371.2,92.4 372.1,92.4 373.1,92.4 374.1,92.4 375.0,92.4 376.0,92.4 377.0,92.4 377.9,92.4 378.9,92.4 379.9,92.4 380.8,92.4 381.8,92.4 382.8,92.4 383.7,92.4 384.7,92.4 385.7,92.4 386.6,92.4 387.6,92.4 388.6,92.4 389.5,92.4 390.5,92.4 391.5,92.4 392.5,92.4 393.4,92.4 394.4,92.4 395.4,92.4 396.3,92.4 397.3,92.4 398.3,92.4 399.2,92.4 400.2,92.4 401.2,92.4 402.1,92.4 403.1,92.4 404.1,92.4 405.0,92.4 406.0,92.4 407.0,92.4 407.9,92.4 408.9,92.4 409.9,92.4 410.8,92.4 411.8,92.4 412.8,92.4 413.7,92.4 414.7,92.4 415.7,92.4 416.6,92.4 417.6,92.4 418.6,92.4 419.5,92.4 420.5,92.4 421.5,92.4 422.5,92.4 423.4,92.4 424.4,92.4 425.4,92.4 426.3,92.4 427.3,92.4 428.3,92.4 429.2,92.4 430.2,92.4 431.2,92.4 432.1,92.4 433.1,92.4 434.1,92.4 435.0,92.4 436.0,92.4 437.0,92.4 437.9,92.4 438.9,92.4 439.9,92.4 440.8,92.4 441.8,92.4 442.8,92.4 443.7,92.4 444.7,92.4 445.7,92.4 446.6,92.4 447.6,92.4 448.6,92.4 449.5,92.4 450.5,92.4 451.5,92.4 452.5,92.4 453.4,92.4 454.4,92.4 455.4,92.4 456.3,92.4 457.3,92.4 458.3,92.4 459.2,92.4 460.2,92.4 461.2,92.4 462.1,92.4 463.1,92.4 464.1,92.4 465.0,92.4 466.0,92.4 467.0,92.4 467.9,92.4 468.9,92.4 469.9,92.4 470.8,92.4 471.8,92.4 472.8,92.4 473.7,92.4 474.7,92.4 475.7,92.4 476.6,92.4 477.6,92.4 478.6,92.4 479.5,92.4 480.5,92.4 481.5,92.4 482.5,92.4 483.4,92.4 484.4,92.4 485.4,92.4 486.3,92.4 487.3,92.4 488.3,92.4 489.2,92.4 490.2,92.4 491.2,92.4 492.1,92.4 493.1,92.4 494.1,92.4 495.0,92.4 496.0,92.4 497.0,92.4 497.9,92.4 498.9,92.4 499.9,92.4 500.8,92.4 501.8,92.4 502.8,92.4 503.7,92.4 504.7,92.4 505.7,92.4 506.6,92.4 507.6,92.4 508.6,92.4 509.5,92.4 510.5,92.4 511.5,92.4 512.5,92.4 513.4,92.4 514.4,92.4 515.4,92.4 516.3,92.4 517.3,92.4 518.3,92.4 519.2,92.4 520.2,92.4 521.2,92.4 522.1,92.4 523.1,92.4 524.1,92.4 525.0,92.4 526.0,92.4 527.0,92.4 527.9,92.4 528.9,92.4 529.9,92.4 530.8,92.4 531.8,92.4 532.8,92.4 533.7,92.4 534.7,92.4 535.7,92.4 536.6,92.4 537.6,92.4 538.6,92.4 539.5,92.4 540.5,92.4 541.5,92.4 542.5,92.4 543.4,92.4 544.4,92.4 545.4,92.4 546.3,92.4 547.3,92.4 548.3,92.4 549.2,92.4 550.2,92.4 551.2,92.4 552.1,92.4 553.1,92.4 554.1,92.4 555.0,92.4 556.0,92.4 557.0,92.4 557.9,92.4 558.9,92.4 559.9,92.4 560.8,92.4 561.8,92.4 562.8,92.4 563.7,92.4 564.7,92.4 565.7,92.4 566.6,92.4 567.6,92.4 568.6,92.4 569.5,92.4 570.5,92.4 571.5,92.4 572.5,92.4 573.4,92.4 574.4,92.4 575.4,92.4 576.3,92.4 577.3,92.4 578.3,92.4 579.2,92.4 580.2,92.4 581.2,92.4 582.1,92.4 583.1,92.4 584.1,92.4 585.0,92.4 586.0,92.4 587.0,92.4 587.9,92.4 588.9,92.4 589.9,92.4 590.8,92.4 591.8,92.4 592.8,92.4 593.7,92.4 594.7,92.4 595.7,92.4 596.6,92.4 597.6,92.4 598.6,92.4 599.5,92.4 600.5,92.4 601.5,92.4 602.5,92.4 603.4,92.4 604.4,92.4 605.4,92.4 606.3,92.4 607.3,92.4 608.3,92.4 609.2,92.4 610.2,92.4 611.2,92.4 612.1,92.4 613.1,92.4 614.1,92.4 615.0,92.4 616.0,92.4 617.0,92.4 617.9,92.4 618.9,92.4 619.9,92.4 620.8,92.4 621.8,92.4 622.8,92.4 623.7,92.4 624.7,92.4 625.7,92.4 626.6,92.4 627.6,92.4 628.6,92.4 629.5,92.4 630.5,92.4 631.5,92.4 632.5,92.4 633.4,92.4 634.4,92.4 635.4,92.4 636.3,92.4 637.3,92.4 638.3,92.4 639.2,92.4 640.2,92.4 641.2,92.4 642.1,92.4 643.1,92.4 644.1,92.4 645.0,92.4 646.0,92.4 647.0,92.4 647.9,92.4 648.9,92.4 649.9,92.4 650.8,92.4 651.8,92.4 652.8,92.4 653.7,92.4 654.7,92.4 655.7,92.4 656.6,92.4 657.6,92.4 658.6,92.4 659.5,92.4 660.5,92.4 661.5,92.4 662.5,92.4 663.4,92.4 664.4,92.4 665.4,92.4 666.3,92.4 667.3,92.4 668.3,92.4 669.2,92.4 670.2,92.4 671.2,92.4 672.1,92.4 673.1,92.4 674.1,92.4 675.0,92.4 676.0,92.4 677.0,92.4 677.9,92.4 678.9,92.4 679.9,92.4 680.8,92.4 681.8,92.4 682.8,92.4 683.7,92.4 684.7,92.4 685.7,92.4 686.6,92.4 687.6,92.4 688.6,92.4 689.5,92.4 690.5,92.4 691.5,92.4 692.5,92.4 693.4,92.4 694.4,92.4 695.4,92.4 696.3,92.4 697.3,92.4 698.3,92.4 699.2,92.4 700.2,92.4 701.2,92.4 702.1,92.4 703.1,92.4 704.1,92.4 705.0,92.4 706.0,92.4 707.0,92.4 707.9,92.4 708.9,92.4 709.9,92.4 710.8,92.4 711.8,92.4 712.8,92.4 713.7,92.4 714.7,92.4 715.7,92.4 716.6,92.4 717.6,92.4 718.6,92.4 719.5,92.4 720.5,92.4 721.5,92.4 722.5,92.4 723.4,92.4 724.4,92.4 725.4,92.4 726.3,92.4 727.3,92.4 728.3,92.4 729.2,92.4 730.2,92.4 731.2,92.4 732.1,92.4 733.1,92.4 734.1,314.9 735.0,314.9 736.0,314.9 737.0,314.9 737.9,314.9 738.9,314.9 739.9,314.9 740.8,314.9 741.8,314.9 742.8,314.9 743.7,314.9 744.7,314.9 745.7,314.9 746.6,314.9 747.6,314.9 748.6,314.9 749.5,314.9 750.5,314.9 751.5,314.9 752.5,314.9 753.4,314.9 754.4,314.9 755.4,314.9 756.3,314.9 757.3,314.9 758.3,314.9 759.2,314.9 760.2,314.9 761.2,314.9 762.1,314.9 763.1,314.9 764.1,314.9 765.0,314.9 766.0,314.9 767.0,314.9 767.9,314.9 768.9,314.9 769.9,314.9 770.8,314.9 771.8,314.9 772.8,314.9 773.7,314.9 774.7,314.9 775.7,314.9 776.6,314.9 777.6,314.9 778.6,314.9 779.5,314.9 780.5,314.9 781.5,314.9 782.5,314.9 783.4,314.9 784.4,314.9 785.4,314.9 786.3,314.9 787.3,314.9 788.3,314.9 789.2,314.9 790.2,314.9 791.2,314.9 792.1,314.9 793.1,314.9 794.1,314.9 795.0,314.9 796.0,314.9 797.0,314.9 797.9,314.9 798.9,314.9 799.9,314.9 800.8,314.9 801.8,314.9 802.8,205.4 803.7,314.9 804.7,314.9 805.7,314.9 806.6,314.9 807.6,314.9 808.6,261.0 809.5,314.9 810.5,314.9 811.5,261.1 812.5,314.9 813.4,314.9 814.4,314.9 815.4,314.9 816.3,314.9 817.3,314.9 818.3,314.9 819.2,259.9 820.2,261.1 821.2,314.9 822.1,314.9 823.1,314.9 824.1,314.9 825.0,262.2 826.0,314.9 827.0,314.9 827.9,314.9 828.9,314.9 829.9,259.6 830.8,314.9 831.8,314.9 832.8,314.9 833.7,260.7 834.7,314.9 835.7,314.9 836.6,314.9 837.6,314.9 838.6,314.9 839.5,314.9 840.5,314.9 841.5,314.9 842.5,205.9 843.4,314.9 844.4,314.9 845.4,314.9 846.3,260.1 847.3,314.9 848.3,314.9 849.2,314.9 850.2,260.5 851.2,314.9 852.1,314.9 853.1,314.9 854.1,260.6 855.0,314.9 856.0,314.9 857.0,260.0 857.9,314.9 858.9,314.9 859.9,314.9 860.8,314.9 861.8,314.9 862.8,314.9 863.7,314.9 864.7,259.6 865.7,259.3 866.6,314.9 867.6,314.9 868.6,261.6 869.5,314.9 870.5,314.9 871.5,314.9 872.5,259.3 873.4,314.9 874.4,314.9 875.4,259.7 876.3,314.9 877.3,314.9 878.3,259.3 879.2,314.9 880.2,260.6 881.2,314.9 882.1,314.9 883.1,314.9 884.1,314.9 885.0,314.9 886.0,314.9 887.0,314.9 887.9,314.9 888.9,205.5 889.9,314.9 890.8,314.9 891.8,314.9 892.8,260.2 893.7,314.9 894.7,314.9 895.7,314.9 896.6,262.1 897.6,314.9 898.6,261.0 899.5,314.9 900.5,314.9 901.5,259.9 902.5,314.9 903.4,259.4 904.4,314.9 905.4,314.9 906.3,314.9 907.3,314.9 908.3,314.9 909.2,314.9 910.2,314.9 911.2,314.9 912.1,314.9 913.1,260.2 914.1,262.5 915.0,314.9 916.0,314.9 917.0,314.9 917.9,314.9 918.9,314.9 919.9,314.9 920.8,261.4 921.8,314.9 922.8,314.9 923.7,314.9 924.7,259.5 925.7,314.9 926.6,314.9 927.6,314.9 928.6,261.1 929.5,314.9 930.5,314.9 931.5,314.9 932.5,314.9 933.4,314.9 934.4,314.9 935.4,260.1 936.3,265.3 937.3,314.9 938.3,314.9 939.2,314.9 940.2,267.5 941.2,314.9 942.1,314.9 943.1,314.9 944.1,314.9 945.0,314.9 946.0,314.9" fill="none" stroke="#2563eb" stroke-width="2.2" stroke-linejoin="round" stroke-linecap="round"/>
<polyline points="76.0,260.4 77.0,256.5 77.9,247.3 78.9,245.1 79.9,248.7 80.8,238.2 81.8,237.6 82.8,241.4 83.7,246.3 84.7,245.8 85.7,262.2 86.6,243.9 87.6,243.1 88.6,244.7 89.5,248.8 90.5,257.0 91.5,254.2 92.5,251.9 93.4,249.4 94.4,254.3 95.4,259.1 96.3,255.2 97.3,253.3 98.3,253.0 99.2,247.1 100.2,245.5 101.2,247.5 102.1,239.0 103.1,230.5 104.1,239.1 105.0,241.4 106.0,255.0 107.0,248.8 107.9,248.4 108.9,252.9 109.9,248.3 110.8,245.2 111.8,251.1 112.8,244.9 113.7,244.8 114.7,242.6 115.7,259.5 116.6,255.8 117.6,251.9 118.6,218.0 119.5,220.5 120.5,253.1 121.5,249.0 122.5,235.3 123.4,217.5 124.4,237.8 125.4,248.9 126.3,241.8 127.3,240.0 128.3,241.8 129.2,244.6 130.2,242.3 131.2,247.8 132.1,239.2 133.1,244.8 134.1,236.8 135.0,243.3 136.0,241.8 137.0,282.4 137.9,267.5 138.9,259.9 139.9,267.6 140.8,264.6 141.8,236.4 142.8,231.8 143.7,241.3 144.7,257.5 145.7,269.9 146.6,243.9 147.6,243.3 148.6,245.9 149.5,258.7 150.5,248.2 151.5,256.8 152.5,243.7 153.4,238.4 154.4,251.7 155.4,247.7 156.3,252.3 157.3,253.5 158.3,251.8 159.2,259.6 160.2,249.2 161.2,249.2 162.1,251.5 163.1,247.8 164.1,265.8 165.0,229.5 166.0,253.5 167.0,248.8 167.9,216.5 168.9,254.2 169.9,243.1 170.8,245.7 171.8,225.0 172.8,244.0 173.7,246.2 174.7,238.9 175.7,247.2 176.6,241.5 177.6,247.9 178.6,242.2 179.5,240.7 180.5,240.6 181.5,245.9 182.5,243.2 183.4,249.6 184.4,235.8 185.4,249.2 186.3,250.3 187.3,248.7 188.3,218.2 189.2,202.0 190.2,213.0 191.2,214.0 192.1,213.6 193.1,223.1 194.1,218.6 195.0,214.2 196.0,241.4 197.0,244.2 197.9,239.8 198.9,241.1 199.9,240.1 200.8,239.6 201.8,240.6 202.8,242.4 203.7,241.3 204.7,242.9 205.7,247.5 206.6,242.9 207.6,255.8 208.6,255.5 209.5,246.0 210.5,260.9 211.5,287.5 212.5,252.0 213.4,265.7 214.4,253.3 215.4,251.1 216.3,251.3 217.3,248.6 218.3,249.6 219.2,243.1 220.2,248.9 221.2,242.2 222.1,240.3 223.1,238.7 224.1,240.6 225.0,249.2 226.0,261.7 227.0,245.0 227.9,250.0 228.9,248.7 229.9,250.8 230.8,251.1 231.8,256.3 232.8,258.4 233.7,256.7 234.7,289.3 235.7,253.4 236.6,267.7 237.6,234.2 238.6,249.9 239.5,242.9 240.5,246.8 241.5,238.4 242.5,240.6 243.4,246.6 244.4,241.0 245.4,234.6 246.3,243.6 247.3,245.3 248.3,239.3 249.2,243.1 250.2,242.9 251.2,244.7 252.1,245.7 253.1,249.5 254.1,251.0 255.0,256.7 256.0,261.1 257.0,250.0 257.9,282.8 258.9,249.5 259.9,252.8 260.8,248.4 261.8,247.6 262.8,240.8 263.7,240.3 264.7,240.1 265.7,238.9 266.6,245.2 267.6,245.9 268.6,256.6 269.5,255.0 270.5,251.5 271.5,247.9 272.5,253.5 273.4,245.4 274.4,251.3 275.4,243.7 276.3,251.1 277.3,255.8 278.3,259.0 279.2,256.6 280.2,263.8 281.2,294.7 282.1,257.7 283.1,258.0 284.1,256.3 285.0,255.5 286.0,247.4 287.0,245.8 287.9,243.7 288.9,250.1 289.9,246.6 290.8,243.3 291.8,243.3 292.8,239.2 293.7,246.0 294.7,238.2 295.7,239.3 296.6,238.8 297.6,253.5 298.6,253.2 299.5,251.9 300.5,257.0 301.5,270.8 302.5,255.6 303.4,258.2 304.4,255.8 305.4,250.1 306.3,230.0 307.3,217.9 308.3,255.3 309.2,242.9 310.2,226.3 311.2,222.7 312.1,222.3 313.1,222.0 314.1,220.9 315.0,237.2 316.0,229.8 317.0,233.3 317.9,234.0 318.9,243.6 319.9,254.5 320.8,264.0 321.8,243.1 322.8,281.2 323.7,247.9 324.7,262.7 325.7,254.6 326.6,256.1 327.6,263.5 328.6,247.4 329.5,208.1 330.5,218.9 331.5,221.1 332.5,223.9 333.4,213.4 334.4,225.5 335.4,220.2 336.3,207.3 337.3,239.9 338.3,237.7 339.2,246.7 340.2,249.2 341.2,245.3 342.1,241.6 343.1,250.3 344.1,248.1 345.0,246.6 346.0,265.0 347.0,250.0 347.9,245.5 348.9,256.6 349.9,225.3 350.8,209.7 351.8,215.1 352.8,253.5 353.7,249.3 354.7,243.2 355.7,267.8 356.6,237.3 357.6,242.6 358.6,241.2 359.5,248.6 360.5,230.5 361.5,240.7 362.5,242.6 363.4,263.0 364.4,237.2 365.4,242.5 366.3,240.7 367.3,245.7 368.3,244.6 369.2,261.2 370.2,248.6 371.2,255.9 372.1,252.5 373.1,249.5 374.1,262.6 375.0,250.4 376.0,256.8 377.0,261.5 377.9,251.7 378.9,228.1 379.9,222.4 380.8,255.6 381.8,243.7 382.8,250.6 383.7,253.2 384.7,245.9 385.7,248.9 386.6,247.9 387.6,246.3 388.6,243.2 389.5,262.6 390.5,260.6 391.5,256.0 392.5,260.0 393.4,256.7 394.4,281.1 395.4,274.0 396.3,270.5 397.3,274.0 398.3,280.0 399.2,279.9 400.2,275.1 401.2,279.0 402.1,280.9 403.1,275.9 404.1,273.5 405.0,263.4 406.0,248.9 407.0,257.3 407.9,270.9 408.9,258.7 409.9,261.0 410.8,255.5 411.8,263.2 412.8,259.9 413.7,259.7 414.7,259.7 415.7,252.1 416.6,260.4 417.6,255.1 418.6,259.1 419.5,247.4 420.5,252.7 421.5,258.3 422.5,260.4 423.4,261.4 424.4,257.0 425.4,256.1 426.3,250.1 427.3,249.3 428.3,252.2 429.2,231.7 430.2,244.6 431.2,256.7 432.1,245.3 433.1,242.2 434.1,247.4 435.0,249.2 436.0,251.0 437.0,250.5 437.9,252.3 438.9,252.8 439.9,248.9 440.8,259.6 441.8,258.2 442.8,263.2 443.7,258.0 444.7,263.0 445.7,255.0 446.6,251.7 447.6,259.2 448.6,242.1 449.5,250.8 450.5,243.5 451.5,247.1 452.5,233.2 453.4,241.0 454.4,245.9 455.4,253.4 456.3,234.3 457.3,248.8 458.3,234.7 459.2,240.4 460.2,245.6 461.2,244.1 462.1,244.7 463.1,243.4 464.1,251.0 465.0,263.7 466.0,255.6 467.0,212.9 467.9,219.2 468.9,215.4 469.9,229.6 470.8,219.0 471.8,219.5 472.8,227.1 473.7,248.0 474.7,245.8 475.7,232.3 476.6,243.8 477.6,242.9 478.6,250.7 479.5,243.8 480.5,245.3 481.5,246.1 482.5,245.5 483.4,237.0 484.4,238.8 485.4,249.7 486.3,250.6 487.3,249.7 488.3,257.1 489.2,246.4 490.2,253.3 491.2,253.3 492.1,253.9 493.1,250.4 494.1,248.2 495.0,245.3 496.0,233.3 497.0,255.4 497.9,237.3 498.9,215.7 499.9,242.6 500.8,241.2 501.8,245.2 502.8,246.3 503.7,243.4 504.7,242.4 505.7,245.8 506.6,248.8 507.6,246.7 508.6,250.1 509.5,247.5 510.5,250.1 511.5,256.1 512.5,258.4 513.4,237.5 514.4,260.2 515.4,265.6 516.3,268.5 517.3,250.8 518.3,247.3 519.2,254.5 520.2,240.3 521.2,242.5 522.1,233.9 523.1,243.7 524.1,249.9 525.0,238.4 526.0,232.4 527.0,236.9 527.9,239.8 528.9,233.1 529.9,250.4 530.8,242.8 531.8,242.2 532.8,259.9 533.7,302.6 534.7,247.7 535.7,243.7 536.6,256.6 537.6,253.6 538.6,250.8 539.5,254.0 540.5,243.0 541.5,240.2 542.5,238.8 543.4,240.8 544.4,246.3 545.4,238.9 546.3,235.3 547.3,240.0 548.3,237.8 549.2,234.5 550.2,239.4 551.2,244.8 552.1,241.3 553.1,243.7 554.1,246.7 555.0,236.6 556.0,249.4 557.0,247.2 557.9,273.7 558.9,257.3 559.9,248.7 560.8,266.9 561.8,249.3 562.8,252.0 563.7,251.7 564.7,246.2 565.7,235.9 566.6,244.6 567.6,244.9 568.6,243.1 569.5,244.1 570.5,234.4 571.5,238.2 572.5,237.8 573.4,262.7 574.4,241.3 575.4,242.5 576.3,237.9 577.3,248.4 578.3,249.8 579.2,258.0 580.2,243.4 581.2,261.4 582.1,246.4 583.1,260.5 584.1,263.5 585.0,245.9 586.0,252.1 587.0,245.1 587.9,250.1 588.9,244.2 589.9,249.0 590.8,243.3 591.8,239.7 592.8,235.3 593.7,249.3 594.7,243.9 595.7,237.7 596.6,236.7 597.6,243.3 598.6,245.2 599.5,252.2 600.5,234.8 601.5,248.9 602.5,249.7 603.4,253.3 604.4,258.5 605.4,258.4 606.3,254.5 607.3,246.4 608.3,248.7 609.2,256.2 610.2,249.7 611.2,245.7 612.1,239.9 613.1,233.9 614.1,238.3 615.0,239.3 616.0,240.9 617.0,247.8 617.9,249.2 618.9,246.0 619.9,245.0 620.8,241.7 621.8,245.7 622.8,248.4 623.7,241.6 624.7,247.2 625.7,255.5 626.6,254.1 627.6,263.6 628.6,251.0 629.5,255.0 630.5,252.7 631.5,261.5 632.5,253.3 633.4,241.3 634.4,244.2 635.4,234.2 636.3,241.3 637.3,245.4 638.3,230.1 639.2,243.0 640.2,239.0 641.2,243.2 642.1,242.2 643.1,243.6 644.1,242.8 645.0,235.8 646.0,241.7 647.0,238.4 647.9,255.3 648.9,254.0 649.9,254.4 650.8,254.8 651.8,254.9 652.8,260.6 653.7,254.5 654.7,253.2 655.7,253.8 656.6,250.0 657.6,267.3 658.6,252.1 659.5,243.9 660.5,247.7 661.5,235.3 662.5,238.5 663.4,243.9 664.4,252.3 665.4,248.6 666.3,248.7 667.3,250.6 668.3,241.6 669.2,248.7 670.2,249.7 671.2,262.1 672.1,260.6 673.1,259.9 674.1,256.5 675.0,262.2 676.0,253.6 677.0,260.9 677.9,251.4 678.9,254.6 679.9,250.3 680.8,253.0 681.8,250.4 682.8,244.6 683.7,246.6 684.7,239.6 685.7,240.0 686.6,246.7 687.6,248.7 688.6,243.2 689.5,245.7 690.5,244.5 691.5,250.0 692.5,246.4 693.4,254.3 694.4,251.2 695.4,253.3 696.3,257.9 697.3,249.5 698.3,251.5 699.2,262.1 700.2,253.0 701.2,261.2 702.1,246.3 703.1,250.0 704.1,248.6 705.0,250.8 706.0,242.7 707.0,250.7 707.9,242.4 708.9,246.2 709.9,249.6 710.8,243.8 711.8,243.9 712.8,258.9 713.7,253.2 714.7,249.6 715.7,249.2 716.6,252.0 717.6,252.7 718.6,252.7 719.5,263.5 720.5,245.9 721.5,269.6 722.5,252.0 723.4,255.0 724.4,256.0 725.4,241.1 726.3,249.0 727.3,249.8 728.3,248.9 729.2,249.7 730.2,264.1 731.2,258.0 732.1,241.3 733.1,243.7 734.1,342.1 735.0,337.6 736.0,337.9 737.0,335.7 737.9,336.7 738.9,341.5 739.9,340.3 740.8,339.8 741.8,339.6 742.8,340.4 743.7,338.1 744.7,337.5 745.7,338.8 746.6,338.0 747.6,341.8 748.6,337.4 749.5,346.5 750.5,336.8 751.5,339.2 752.5,336.8 753.4,336.7 754.4,337.6 755.4,336.1 756.3,339.8 757.3,339.7 758.3,337.2 759.2,338.7 760.2,337.7 761.2,338.4 762.1,336.6 763.1,340.8 764.1,334.7 765.0,337.2 766.0,339.1 767.0,339.4 767.9,338.8 768.9,341.6 769.9,339.2 770.8,339.4 771.8,337.1 772.8,338.1 773.7,336.2 774.7,337.8 775.7,338.0 776.6,337.5 777.6,338.6 778.6,335.8 779.5,336.2 780.5,336.9 781.5,337.4 782.5,332.4 783.4,332.2 784.4,331.3 785.4,336.8 786.3,336.9 787.3,336.8 788.3,336.2 789.2,338.6 790.2,338.0 791.2,338.6 792.1,339.6 793.1,338.6 794.1,337.1 795.0,331.5 796.0,336.4 797.0,337.1 797.9,336.9 798.9,334.8 799.9,335.9 800.8,335.2 801.8,342.9 802.8,286.0 803.7,335.7 804.7,336.9 805.7,338.6 806.6,338.2 807.6,336.2 808.6,309.0 809.5,340.0 810.5,338.7 811.5,319.5 812.5,345.3 813.4,340.9 814.4,339.1 815.4,338.9 816.3,333.9 817.3,333.3 818.3,328.2 819.2,313.8 820.2,310.7 821.2,333.1 822.1,335.8 823.1,348.0 824.1,338.2 825.0,314.0 826.0,338.1 827.0,330.9 827.9,335.4 828.9,344.4 829.9,313.9 830.8,337.2 831.8,338.2 832.8,337.2 833.7,316.0 834.7,343.6 835.7,342.0 836.6,342.1 837.6,342.2 838.6,341.6 839.5,342.7 840.5,343.1 841.5,347.5 842.5,310.0 843.4,345.4 844.4,343.1 845.4,342.1 846.3,316.1 847.3,342.3 848.3,335.7 849.2,340.9 850.2,318.1 851.2,338.3 852.1,342.2 853.1,339.6 854.1,321.0 855.0,347.0 856.0,341.5 857.0,322.9 857.9,341.8 858.9,341.9 859.9,340.7 860.8,339.4 861.8,342.2 862.8,341.9 863.7,340.1 864.7,316.8 865.7,316.9 866.6,343.7 867.6,340.3 868.6,313.1 869.5,338.1 870.5,336.7 871.5,338.3 872.5,294.0 873.4,340.8 874.4,340.4 875.4,311.9 876.3,343.7 877.3,339.4 878.3,319.5 879.2,344.3 880.2,318.8 881.2,336.9 882.1,344.1 883.1,343.6 884.1,341.6 885.0,339.2 886.0,340.2 887.0,342.0 887.9,340.4 888.9,293.7 889.9,340.2 890.8,342.3 891.8,337.2 892.8,311.6 893.7,342.1 894.7,337.4 895.7,340.7 896.6,319.0 897.6,338.3 898.6,316.6 899.5,337.6 900.5,338.9 901.5,315.0 902.5,339.6 903.4,320.0 904.4,342.0 905.4,338.9 906.3,343.4 907.3,340.7 908.3,346.5 909.2,341.4 910.2,338.5 911.2,339.6 912.1,340.1 913.1,316.3 914.1,313.8 915.0,339.3 916.0,338.6 917.0,338.3 917.9,343.5 918.9,343.4 919.9,334.7 920.8,318.2 921.8,340.9 922.8,345.0 923.7,341.7 924.7,322.1 925.7,340.8 926.6,342.8 927.6,351.6 928.6,327.8 929.5,342.3 930.5,348.3 931.5,345.7 932.5,341.6 933.4,343.9 934.4,346.8 935.4,323.9 936.3,321.3 937.3,349.4 938.3,342.0 939.2,340.6 940.2,320.4 941.2,345.0 942.1,339.9 943.1,342.3 944.1,348.1 945.0,342.6 946.0,341.7" fill="none" stroke="#7c3aed" stroke-width="2.2" stroke-linejoin="round" stroke-linecap="round"/>
<line x1="76" y1="70" x2="94" y2="70" stroke="#2563eb" stroke-width="3"/>
<text x="100" y="74" font-family="Arial, sans-serif" font-size="11" fill="#0f172a">tx count</text>
<line x1="186" y1="70" x2="204" y2="70" stroke="#7c3aed" stroke-width="3"/>
<text x="210" y="74" font-family="Arial, sans-serif" font-size="11" fill="#0f172a">unique accounts</text>
<text x="28" y="404" font-family="Arial, sans-serif" font-size="11" fill="#64748b">Source: hourly_features.csv; capped windows are sample counts</text>
</svg>