<svg xmlns="http://www.w3.org/2000/svg" width="980" height="420" viewBox="0 0 980 420">
<rect width="100%" height="100%" fill="#ffffff"/>
<text x="28" y="34" font-family="Arial, sans-serif" font-size="20" font-weight="700" fill="#0f172a">Network activity sample trend</text>
<text x="28" y="56" font-family="Arial, sans-serif" font-size="12" fill="#64748b">Hourly transaction sample count and unique account sample count</text>
<line x1="76" y1="362.0" x2="946" y2="362.0" stroke="#e2e8f0" stroke-width="1"/>
<text x="68" y="366.0" font-family="Arial, sans-serif" font-size="10" text-anchor="end" fill="#64748b">-1K</text>
<line x1="76" y1="292.0" x2="946" y2="292.0" stroke="#e2e8f0" stroke-width="1"/>
<text x="68" y="296.0" font-family="Arial, sans-serif" font-size="10" text-anchor="end" fill="#64748b">7K</text>
<line x1="76" y1="222.0" x2="946" y2="222.0" stroke="#e2e8f0" stroke-width="1"/>
<text x="68" y="226.0" font-family="Arial, sans-serif" font-size="10" text-anchor="end" fill="#64748b">15K</text>
<line x1="76" y1="152.0" x2="946" y2="152.0" stroke="#e2e8f0" stroke-width="1"/>
<text x="68" y="156.0" font-family="Arial, sans-serif" font-size="10" text-anchor="end" fill="#64748b">23K</text>
<line x1="76" y1="82.0" x2="946" y2="82.0" stroke="#e2e8f0" stroke-width="1"/>
<text x="68" y="86.0" font-family="Arial, sans-serif" font-size="10" text-anchor="end" fill="#64748b">31K</text>
<line x1="76" y1="362" x2="946" y2="362" stroke="#334155" stroke-width="1"/>
<line x1="76" y1="82" x2="76" y2="362" stroke="#334155" stroke-width="1"/>
<text x="76" y="72" font-family="Arial, sans-serif" font-size="11" fill="#64748b">count</text>
<line x1="76.0" y1="362" x2="76.0" y2="366" stroke="#334155" stroke-width="1"/>
<text x="76.0" y="380" font-family="Arial, sans-serif" font-size="10" text-anchor="middle" fill="#64748b">0</text>
<line x1="511.3" y1="362" x2="511.3" y2="366" stroke="#334155" stroke-width="1"/>
<text x="511.3" y="380" font-family="Arial, sans-serif" font-size="10" text-anchor="middle" fill="#64748b">756</text>
<line x1="946.0" y1="362" x2="946.0" y2="366" stroke="#334155" stroke-width="1"/>
<text x="946.0" y="380" font-family="Arial, sans-serif" font-size="10" text-anchor="middle" fill="#64748b">1511</text>
<polyline points="76.0,308.5 76.6,308.5 77.2,308.5 77.7,308.5 78.3,308.5 78.9,308.5 79.5,308.5 80.0,308.5 80.6,308.5 81.2,308.5 81.8,308.5 82.3,308.5 82.9,308.5 83.5,308.5 84.1,308.5 84.6,308.5 85.2,308.5 85.8,308.5 86.4,308.5 86.9,308.5 87.5,308.5 88.1,308.5 88.7,308.5 89.2,308.5 89.8,308.5 90.4,308.5 91.0,308.5 91.5,308.5 92.1,308.5 92.7,308.5 93.3,308.5 93.8,308.5 94.4,308.5 95.0,308.5 95.6,308.5 96.2,308.5 96.7,308.5 97.3,308.5 97.9,308.5 98.5,308.5 99.0,308.5 99.6,308.5 100.2,308.5 100.8,308.5 101.3,308.5 101.9,308.5 102.5,308.5 103.1,308.5 103.6,308.5 104.2,308.5 104.8,308.5 105.4,308.5 105.9,308.5 106.5,308.5 107.1,308.5 107.7,308.5 108.2,308.5 108.8,308.5 109.4,308.5 110.0,308.5 110.5,308.5 111.1,308.5 111.7,308.5 112.3,308.5 112.8,308.5 113.4,308.5 114.0,308.5 114.6,308.5 115.2,308.5 115.7,308.5 116.3,308.5 116.9,308.5 117.5,308.5 118.0,308.5 118.6,308.5 119.2,308.5 119.8,308.5 120.3,308.5 120.9,308.5 121.5,308.5 122.1,308.5 122.6,308.5 123.2,308.5 123.8,308.5 124.4,308.5 124.9,308.5 125.5,308.5 126.1,308.5 126.7,308.5 127.2,308.5 127.8,308.5 128.4,308.5 129.0,308.5 129.5,308.5 130.1,308.5 130.7,308.5 131.3,308.5 131.9,308.5 132.4,308.5 133.0,308.5 133.6,308.5 134.2,308.5 134.7,308.5 135.3,308.5 135.9,308.5 136.5,308.5 137.0,308.5 137.6,308.5 138.2,308.5 138.8,308.5 139.3,308.5 139.9,308.5 140.5,308.5 141.1,308.5 141.6,308.5 142.2,308.5 142.8,308.5 143.4,308.5 143.9,308.5 144.5,308.5 145.1,308.5 145.7,308.5 146.2,308.5 146.8,308.5 147.4,308.5 148.0,308.5 148.5,308.5 149.1,308.5 149.7,308.5 150.3,308.5 150.9,308.5 151.4,308.5 152.0,308.5 152.6,308.5 153.2,308.5 153.7,308.5 154.3,308.5 154.9,308.5 155.5,308.5 156.0,308.5 156.6,308.5 157.2,308.5 157.8,308.5 158.3,308.5 158.9,308.5 159.5,308.5 160.1,308.5 160.6,308.5 161.2,308.5 161.8,308.5 162.4,308.5 162.9,308.5 163.5,308.5 164.1,308.5 164.7,308.5 165.2,308.5 165.8,308.5 166.4,308.5 167.0,308.5 167.5,308.5 168.1,308.5 168.7,308.5 169.3,308.5 169.9,308.5 170.4,308.5 171.0,308.5 171.6,308.5 172.2,308.5 172.7,308.5 173.3,308.5 173.9,308.5 174.5,308.5 175.0,308.5 175.6,308.5 176.2,308.5 176.8,308.5 177.3,308.5 177.9,308.5 178.5,308.5 179.1,308.5 179.6,308.5 180.2,308.5 180.8,308.5 181.4,308.5 181.9,308.5 182.5,308.5 183.1,308.5 183.7,308.5 184.2,308.5 184.8,308.5 185.4,308.5 186.0,308.5 186.5,308.5 187.1,308.5 187.7,308.5 188.3,308.5 188.9,308.5 189.4,308.5 190.0,308.5 190.6,308.5 191.2,308.5 191.7,308.5 192.3,308.5 192.9,308.5 193.5,308.5 194.0,308.5 194.6,308.5 195.2,308.5 195.8,308.5 196.3,308.5 196.9,308.5 197.5,308.5 198.1,308.5 198.6,308.5 199.2,308.5 199.8,308.5 200.4,308.5 200.9,308.5 201.5,308.5 202.1,308.5 202.7,308.5 203.2,308.5 203.8,308.5 204.4,308.5 205.0,308.5 205.5,308.5 206.1,308.5 206.7,308.5 207.3,308.5 207.9,308.5 208.4,308.5 209.0,308.5 209.6,308.5 210.2,308.5 210.7,308.5 211.3,308.5 211.9,308.5 212.5,308.5 213.0,308.5 213.6,308.5 214.2,308.5 214.8,308.5 215.3,308.5 215.9,308.5 216.5,308.5 217.1,308.5 217.6,308.5 218.2,308.5 218.8,308.5 219.4,308.5 219.9,308.5 220.5,308.5 221.1,308.5 221.7,308.5 222.2,308.5 222.8,308.5 223.4,308.5 224.0,308.5 224.6,308.5 225.1,308.5 225.7,308.5 226.3,308.5 226.9,308.5 227.4,308.5 228.0,308.5 228.6,308.5 229.2,308.5 229.7,308.5 230.3,308.5 230.9,308.5 231.5,308.5 232.0,308.5 232.6,308.5 233.2,308.5 233.8,308.5 234.3,308.5 234.9,308.5 235.5,308.5 236.1,308.5 236.6,308.5 237.2,308.5 237.8,308.5 238.4,308.5 238.9,308.5 239.5,308.5 240.1,308.5 240.7,308.5 241.2,308.5 241.8,308.5 242.4,308.5 243.0,308.5 243.6,308.5 244.1,308.5 244.7,308.5 245.3,308.5 245.9,308.5 246.4,308.5 247.0,308.5 247.6,308.5 248.2,308.5 248.7,308.5 249.3,308.5 249.9,308.5 250.5,308.5 251.0,308.5 251.6,308.5 252.2,308.5 252.8,308.5 253.3,308.5 253.9,308.5 254.5,308.5 255.1,308.5 255.6,308.5 256.2,308.5 256.8,308.5 257.4,308.5 257.9,308.5 258.5,308.5 259.1,308.5 259.7,308.5 260.2,308.5 260.8,308.5 261.4,308.5 262.0,308.5 262.6,308.5 263.1,308.5 263.7,308.5 264.3,308.5 264.9,308.5 265.4,308.5 266.0,308.5 266.6,308.5 267.2,308.5 267.7,308.5 268.3,308.5 268.9,308.5 269.5,308.5 270.0,308.5 270.6,308.5 271.2,308.5 271.8,308.5 272.3,308.5 272.9,308.5 273.5,308.5 274.1,308.5 274.6,308.5 275.2,308.5 275.8,308.5 276.4,308.5 276.9,308.5 277.5,308.5 278.1,308.5 278.7,308.5 279.2,308.5 279.8,308.5 280.4,308.5 281.0,308.5 281.6,308.5 282.1,308.5 282.7,308.5 283.3,308.5 283.9,308.5 284.4,308.5 285.0,308.5 285.6,308.5 286.2,308.5 286.7,308.5 287.3,308.5 287.9,308.5 288.5,308.5 289.0,308.5 289.6,308.5 290.2,308.5 290.8,308.5 291.3,308.5 291.9,308.5 292.5,308.5 293.1,308.5 293.6,308.5 294.2,308.5 294.8,308.5 295.4,308.5 295.9,308.5 296.5,308.5 297.1,308.5 297.7,308.5 298.3,308.5 298.8,308.5 299.4,308.5 300.0,308.5 300.6,308.5 301.1,308.5 301.7,308.5 302.3,308.5 302.9,308.5 303.4,308.5 304.0,308.5 304.6,308.5 305.2,308.5 305.7,308.5 306.3,308.5 306.9,308.5 307.5,308.5 308.0,308.5 308.6,308.5 309.2,308.5 309.8,308.5 310.3,308.5 310.9,308.5 311.5,308.5 312.1,308.5 312.6,308.5 313.2,308.5 313.8,308.5 314.4,308.5 314.9,308.5 315.5,308.5 316.1,308.5 316.7,308.5 317.3,308.5 317.8,308.5 318.4,308.5 319.0,308.5 319.6,308.5 320.1,308.5 320.7,308.5 321.3,308.5 321.9,308.5 322.4,308.5 323.0,308.5 323.6,308.5 324.2,308.5 324.7,308.5 325.3,308.5 325.9,308.5 326.5,308.5 327.0,308.5 327.6,308.5 328.2,308.5 328.8,308.5 329.3,308.5 329.9,308.5 330.5,308.5 331.1,308.5 331.6,308.5 332.2,308.5 332.8,308.5 333.4,308.5 333.9,308.5 334.5,308.5 335.1,308.5 335.7,308.5 336.3,308.5 336.8,308.5 337.4,308.5 338.0,308.5 338.6,308.5 339.1,308.5 339.7,308.5 340.3,308.5 340.9,308.5 341.4,308.5 342.0,308.5 342.6,308.5 343.2,308.5 343.7,308.5 344.3,308.5 344.9,308.5 345.5,308.5 346.0,308.5 346.6,308.5 347.2,308.5 347.8,308.5 348.3,308.5 348.9,308.5 349.5,308.5 350.1,308.5 350.6,308.5 351.2,308.5 351.8,308.5 352.4,308.5 352.9,308.5 353.5,308.5 354.1,308.5 354.7,308.5 355.3,308.5 355.8,308.5 356.4,308.5 357.0,308.5 357.6,308.5 358.1,308.5 358.7,308.5 359.3,308.5 359.9,308.5 360.4,308.5 361.0,308.5 361.6,308.5 362.2,308.5 362.7,308.5 363.3,308.5 363.9,308.5 364.5,308.5 365.0,308.5 365.6,308.5 366.2,308.5 366.8,308.5 367.3,308.5 367.9,308.5 368.5,308.5 369.1,308.5 369.6,308.5 370.2,308.5 370.8,308.5 371.4,308.5 371.9,308.5 372.5,308.5 373.1,308.5 373.7,308.5 374.3,308.5 374.8,308.5 375.4,308.5 376.0,308.5 376.6,308.5 377.1,308.5 377.7,308.5 378.3,308.5 378.9,308.5 379.4,308.5 380.0,308.5 380.6,308.5 381.2,308.5 381.7,308.5 382.3,308.5 382.9,308.5 383.5,308.5 384.0,308.5 384.6,308.5 385.2,308.5 385.8,308.5 386.3,308.5 386.9,308.5 387.5,308.5 388.1,308.5 388.6,308.5 389.2,308.5 389.8,308.5 390.4,308.5 391.0,308.5 391.5,308.5 392.1,308.5 392.7,308.5 393.3,308.5 393.8,308.5 394.4,308.5 395.0,308.5 395.6,308.5 396.1,308.5 396.7,308.5 397.3,308.5 397.9,308.5 398.4,308.5 399.0,308.5 399.6,308.5 400.2,308.5 400.7,308.5 401.3,308.5 401.9,308.5 402.5,308.5 403.0,308.5 403.6,308.5 404.2,308.5 404.8,308.5 405.3,308.5 405.9,308.5 406.5,308.5 407.1,308.5 407.6,308.5 408.2,308.5 408.8,308.5 409.4,308.5 410.0,308.5 410.5,308.5 411.1,308.5 411.7,308.5 412.3,308.5 412.8,308.5 413.4,308.5 414.0,308.5 414.6,308.5 415.1,308.5 415.7,308.5 416.3,308.5 416.9,308.5 417.4,308.5 418.0,308.5 418.6,308.5 419.2,308.5 419.7,308.5 420.3,308.5 420.9,308.5 421.5,308.5 422.0,308.5 422.6,308.5 423.2,308.5 423.8,308.5 424.3,308.5 424.9,308.5 425.5,308.5 426.1,308.5 426.6,308.5 427.2,308.5 427.8,308.5 428.4,308.5 429.0,308.5 429.5,308.5 430.1,308.5 430.7,308.5 431.3,308.5 431.8,308.5 432.4,308.5 433.0,308.5 433.6,308.5 434.1,308.5 434.7,308.5 435.3,308.5 435.9,308.5 436.4,308.5 437.0,308.5 437.6,308.5 438.2,308.5 438.7,308.5 439.3,308.5 439.9,308.5 440.5,308.5 441.0,308.5 441.6,308.5 442.2,308.5 442.8,308.5 443.3,308.5 443.9,308.5 444.5,308.5 445.1,308.5 445.6,308.5 446.2,308.5 446.8,308.5 447.4,308.5 448.0,308.5 448.5,308.5 449.1,308.5 449.7,308.5 450.3,308.5 450.8,308.5 451.4,308.5 452.0,308.5 452.6,308.5 453.1,308.5 453.7,308.5 454.3,308.5 454.9,308.5 455.4,308.5 456.0,308.5 456.6,308.5 457.2,308.5 457.7,308.5 458.3,308.5 458.9,308.5 459.5,308.5 460.0,308.5 460.6,308.5 461.2,308.5 461.8,308.5 462.3,308.5 462.9,308.5 463.5,308.5 464.1,308.5 464.6,308.5 465.2,308.5 465.8,308.5 466.4,308.5 467.0,308.5 467.5,308.5 468.1,308.5 468.7,308.5 469.3,308.5 469.8,308.5 470.4,308.5 471.0,308.5 471.6,308.5 472.1,308.5 472.7,308.5 473.3,308.5 473.9,308.5 474.4,308.5 475.0,308.5 475.6,308.5 476.2,308.5 476.7,308.5 477.3,308.5 477.9,308.5 478.5,308.5 479.0,308.5 479.6,308.5 480.2,308.5 480.8,308.5 481.3,308.5 481.9,308.5 482.5,308.5 483.1,308.5 483.7,308.5 484.2,308.5 484.8,308.5 485.4,308.5 486.0,308.5 486.5,308.5 487.1,308.5 487.7,308.5 488.3,308.5 488.8,308.5 489.4,308.5 490.0,308.3 490.6,299.9 491.1,343.1 491.7,343.1 492.3,334.8 492.9,334.5 493.4,191.5 494.0,177.3 494.6,181.7 495.2,177.0 495.7,182.3 496.3,178.7 496.9,179.1 497.5,177.5 498.0,175.2 498.6,177.2 499.2,177.3 499.8,176.9 500.3,169.6 500.9,155.7 501.5,178.6 502.1,179.9 502.7,165.4 503.2,182.3 503.8,172.6 504.4,167.7 505.0,178.8 505.5,170.3 506.1,179.1 506.7,178.5 507.3,152.4 507.8,195.5 508.4,179.5 509.0,179.0 509.6,168.5 510.1,185.0 510.7,193.6 511.3,173.7 511.9,189.6 512.4,165.9 513.0,211.5 513.6,180.2 514.2,189.9 514.7,161.1 515.3,175.0 515.9,170.7 516.5,165.2 517.0,183.5 517.6,174.7 518.2,174.8 518.8,179.6 519.3,170.9 519.9,167.3 520.5,188.8 521.1,177.6 521.7,174.6 522.2,177.0 522.8,181.6 523.4,177.6 524.0,170.1 524.5,186.5 525.1,179.4 525.7,174.7 526.3,201.5 526.8,158.2 527.4,208.5 528.0,187.9 528.6,151.8 529.1,177.6 529.7,176.6 530.3,176.8 530.9,168.0 531.4,163.0 532.0,171.8 532.6,173.8 533.2,173.7 533.7,182.4 534.3,172.0 534.9,179.4 535.5,183.9 536.0,181.8 536.6,181.7 537.2,164.1 537.8,188.4 538.3,188.9 538.9,178.6 539.5,178.3 540.1,189.7 540.7,188.6 541.2,195.3 541.8,184.8 542.4,154.4 543.0,180.9 543.5,177.5 544.1,180.6 544.7,168.5 545.3,178.5 545.8,161.7 546.4,177.9 547.0,174.0 547.6,149.9 548.1,184.2 548.7,201.7 549.3,173.3 549.9,188.7 550.4,164.3 551.0,181.6 551.6,189.9 552.2,177.1 552.7,177.9 553.3,180.5 553.9,180.8 554.5,191.4 555.0,175.9 555.6,188.8 556.2,155.9 556.8,178.9 557.4,175.1 557.9,182.6 558.5,172.8 559.1,170.4 559.7,166.2 560.2,172.2 560.8,170.2 561.4,182.7 562.0,181.2 562.5,170.6 563.1,180.4 563.7,183.0 564.3,167.9 564.8,190.2 565.4,165.4 566.0,190.6 566.6,165.4 567.1,189.5 567.7,175.0 568.3,203.6 568.9,189.0 569.4,183.1 570.0,149.4 570.6,178.5 571.2,175.0 571.7,172.0 572.3,187.4 572.9,166.3 573.5,171.8 574.0,175.3 574.6,147.9 575.2,189.5 575.8,168.5 576.4,182.2 576.9,176.3 577.5,179.5 578.1,178.9 578.7,179.3 579.2,179.5 579.8,178.9 580.4,179.6 581.0,179.0 581.5,179.0 582.1,179.4 582.7,179.7 583.3,157.9 583.8,92.4 584.4,179.3 585.0,180.2 585.6,179.3 586.1,179.0 586.7,179.2 587.3,179.1 587.9,179.4 588.4,180.1 589.0,179.3 589.6,178.9 590.2,179.3 590.7,179.2 591.3,178.9 591.9,179.3 592.5,179.1 593.0,179.4 593.6,179.1 594.2,179.4 594.8,179.1 595.4,179.3 595.9,179.2 596.5,180.2 597.1,191.6 597.7,177.3 598.2,269.5 598.8,261.1 599.4,265.3 600.0,265.3 600.5,265.3 601.1,265.3 601.7,265.3 602.3,265.3 602.8,265.3 603.4,265.3 604.0,265.3 604.6,265.3 605.1,265.3 605.7,265.3 606.3,265.3 606.9,265.3 607.4,265.3 608.0,265.3 608.6,265.3 609.2,265.3 609.7,265.3 610.3,265.3 610.9,265.3 611.5,278.8 612.0,254.2 612.6,262.9 613.2,265.3 613.8,265.3 614.4,265.3 614.9,265.3 615.5,265.3 616.1,265.3 616.7,265.3 617.2,265.3 617.8,265.3 618.4,265.3 619.0,265.3 619.5,265.3 620.1,265.3 620.7,265.3 621.3,265.3 621.8,265.3 622.4,265.3 623.0,265.3 623.6,265.3 624.1,276.5 624.7,286.1 625.3,257.9 625.9,262.9 626.4,243.0 627.0,286.0 627.6,264.4 628.2,255.0 628.7,255.8 629.3,265.3 629.9,265.3 630.5,265.3 631.0,265.3 631.6,265.3 632.2,265.3 632.8,265.3 633.4,265.3 633.9,265.3 634.5,265.3 635.1,265.3 635.7,265.3 636.2,265.3 636.8,265.3 637.4,265.3 638.0,283.4 638.5,279.9 639.1,264.6 639.7,255.1 640.3,274.7 640.8,271.0 641.4,257.8 642.0,242.4 642.6,275.9 643.1,249.2 643.7,264.2 644.3,265.3 644.9,265.3 645.4,265.3 646.0,265.3 646.6,265.3 647.2,265.3 647.7,265.3 648.3,265.3 648.9,265.3 649.5,265.3 650.1,273.5 650.6,257.7 651.2,264.7 651.8,285.0 652.4,284.0 652.9,275.6 653.5,262.1 654.1,256.2 654.7,247.0 655.2,283.9 655.8,256.2 656.4,242.6 657.0,260.5 657.5,265.3 658.1,271.1 658.7,264.3 659.3,260.9 659.8,265.7 660.4,264.5 661.0,265.3 661.6,265.3 662.1,265.3 662.7,265.3 663.3,265.3 663.9,266.3 664.4,264.3 665.0,265.3 665.6,292.7 666.2,266.3 666.7,285.1 667.3,270.0 667.9,259.4 668.5,218.3 669.1,302.8 669.6,259.4 670.2,253.9 670.8,245.2 671.4,279.0 671.9,251.6 672.5,265.3 673.1,265.3 673.7,265.3 674.2,265.3 674.8,265.3 675.4,265.3 676.0,265.3 676.5,265.3 677.1,265.3 677.7,265.3 678.3,265.3 678.8,289.3 679.4,267.1 680.0,284.3 680.6,254.7 681.1,278.1 681.7,266.2 682.3,247.0 682.9,274.9 683.4,250.7 684.0,258.0 684.6,263.8 685.2,249.5 685.7,265.3 686.3,265.3 686.9,265.3 687.5,265.3 688.1,265.3 688.6,265.3 689.2,265.3 689.8,265.3 690.4,265.3 690.9,265.3 691.5,265.3 692.1,265.3 692.7,271.3 693.2,292.0 693.8,269.8 694.4,267.7 695.0,275.2 695.5,262.4 696.1,271.2 696.7,255.4 697.3,265.9 697.8,251.9 698.4,255.8 699.0,258.9 699.6,270.1 700.1,254.6 700.7,266.5 701.3,256.2 701.9,265.3 702.4,271.3 703.0,259.3 703.6,265.3 704.2,265.3 704.7,265.3 705.3,265.3 705.9,271.3 706.5,280.0 707.1,284.0 707.6,278.3 708.2,258.9 708.8,271.9 709.4,265.8 709.9,266.5 710.5,253.5 711.1,263.7 711.7,252.2 712.2,262.7 712.8,261.3 713.4,244.0 714.0,273.9 714.5,273.2 715.1,248.8 715.7,265.3 716.3,265.3 716.8,265.3 717.4,265.3 718.0,267.9 718.6,262.7 719.1,268.2 719.7,266.3 720.3,289.1 720.9,272.8 721.4,255.1 722.0,286.4 722.6,274.2 723.2,263.0 723.7,262.3 724.3,262.2 724.9,255.9 725.5,254.2 726.1,255.9 726.6,266.9 727.2,254.0 727.8,261.4 728.4,262.2 728.9,265.3 729.5,265.3 730.1,265.3 730.7,268.4 731.2,273.9 731.8,271.0 732.4,261.8 733.0,271.3 733.5,270.6 734.1,269.8 734.7,287.6 735.3,254.9 735.8,267.8 736.4,279.4 737.0,262.2 737.6,265.1 738.1,261.1 738.7,264.0 739.3,237.7 739.9,265.6 740.4,267.1 741.0,246.1 741.6,280.4 742.2,256.1 742.8,254.9 743.3,265.3 743.9,282.7 744.5,248.0 745.1,265.3 745.6,265.3 746.2,275.2 746.8,258.8 747.4,262.0 747.9,286.6 748.5,270.0 749.1,290.0 749.7,249.7 750.2,268.7 750.8,262.1 751.4,285.2 752.0,259.1 752.5,226.9 753.1,272.2 753.7,278.7 754.3,236.1 754.8,263.7 755.4,265.3 756.0,285.5 756.6,245.2 757.1,277.8 757.7,252.8 758.3,265.3 758.9,265.3 759.4,274.6 760.0,256.0 760.6,268.9 761.2,261.7 761.8,276.4 762.3,279.7 762.9,262.8 763.5,294.2 764.1,259.2 764.6,263.1 765.2,274.1 765.8,250.7 766.4,269.8 766.9,240.6 767.5,268.4 768.1,262.5 768.7,266.4 769.2,259.2 769.8,260.0 770.4,257.9 771.0,265.3 771.5,265.3 772.1,269.8 772.7,267.4 773.3,258.7 773.8,265.3 774.4,273.5 775.0,286.2 775.6,236.6 776.1,305.6 776.7,282.4 777.3,253.3 777.9,263.0 778.4,270.0 779.0,254.5 779.6,270.6 780.2,261.0 780.8,261.4 781.3,247.4 781.9,248.8 782.5,265.3 783.1,276.1 783.6,263.2 784.2,257.3 784.8,264.7 785.4,265.3 785.9,265.3 786.5,265.3 787.1,265.3 787.7,265.3 788.2,270.6 788.8,269.5 789.4,277.9 790.0,288.8 790.5,253.2 791.1,285.2 791.7,247.9 792.3,276.3 792.8,267.3 793.4,253.2 794.0,256.9 794.6,258.6 795.1,261.7 795.7,258.6 796.3,253.8 796.9,270.0 797.4,270.9 798.0,255.0 798.6,265.3 799.2,265.3 799.8,265.3 800.3,265.3 800.9,265.3 801.5,265.3 802.1,265.6 802.6,265.1 803.2,273.6 803.8,301.3 804.4,269.4 804.9,271.5 805.5,263.1 806.1,271.0 806.7,248.1 807.2,260.5 807.8,262.4 808.4,260.9 809.0,261.9 809.5,253.4 810.1,259.7 810.7,266.0 811.3,262.3 811.8,263.1 812.4,261.8 813.0,265.3 813.6,265.3 814.1,269.4 814.7,268.4 815.3,258.1 815.9,268.6 816.5,262.5 817.0,286.4 817.6,274.9 818.2,286.1 818.8,255.1 819.3,275.2 819.9,271.7 820.5,257.7 821.1,249.8 821.6,259.6 822.2,256.2 822.8,272.4 823.4,249.0 823.9,257.0 824.5,278.4 825.1,252.9 825.7,261.8 826.2,265.3 826.8,271.4 827.4,264.2 828.0,260.3 828.5,265.3 829.1,265.3 829.7,272.6 830.3,272.0 830.8,277.8 831.4,280.5 832.0,255.6 832.6,283.0 833.1,272.7 833.7,268.1 834.3,261.1 834.9,259.8 835.5,257.5 836.0,260.4 836.6,237.1 837.2,274.0 837.8,259.3 838.3,267.0 838.9,265.2 839.5,262.3 840.1,270.6 840.6,249.5 841.2,287.9 841.8,258.7 842.4,264.6 842.9,266.8 843.5,260.5 844.1,258.2 844.7,277.9 845.2,266.1 845.8,300.4 846.4,255.6 847.0,274.9 847.5,264.3 848.1,260.9 848.7,264.6 849.3,263.6 849.8,256.6 850.4,261.4 851.0,232.5 851.6,284.5 852.1,265.2 852.7,264.1 853.3,252.6 853.9,270.7 854.5,269.7 855.0,268.8 855.6,246.9 856.2,280.3 856.8,263.7 857.3,263.7 857.9,266.6 858.5,266.4 859.1,284.7 859.6,278.9 860.2,271.9 860.8,260.8 861.4,271.6 861.9,249.5 862.5,225.5 863.1,277.4 863.7,286.4 864.2,243.5 864.8,267.1 865.4,267.6 866.0,256.4 866.5,258.7 867.1,265.3 867.7,265.3 868.3,265.3 868.8,265.3 869.4,265.3 870.0,265.3 870.6,265.3 871.1,267.4 871.7,263.2 872.3,298.9 872.9,270.9 873.5,270.9 874.0,264.1 874.6,240.4 875.2,291.6 875.8,251.9 876.3,272.6 876.9,254.7 877.5,264.1 878.1,260.5 878.6,250.1 879.2,270.2 879.8,253.8 880.4,272.3 880.9,259.7 881.5,178.7 882.1,265.3 882.7,265.3 883.2,269.7 883.8,271.0 884.4,255.3 885.0,265.3 885.5,286.2 886.1,244.4 886.7,298.4 887.3,284.1 887.8,268.2 888.4,263.0 889.0,265.3 889.6,257.9 890.1,263.3 890.7,264.3 891.3,260.0 891.9,247.8 892.5,260.8 893.0,260.5 893.6,266.6 894.2,260.0 894.8,263.3 895.3,261.4 895.9,265.3 896.5,269.7 897.1,260.9 897.6,265.3 898.2,265.3 898.8,265.3 899.4,265.3 899.9,265.3 900.5,265.3 901.1,265.3 901.7,265.3 902.2,265.3 902.8,265.3 903.4,265.3 904.0,265.3 904.5,294.4 905.1,236.2 905.7,265.3 906.3,265.3 906.8,265.3 907.4,265.3 908.0,265.3 908.6,265.3 909.2,265.3 909.7,265.3 910.3,265.3 910.9,265.3 911.5,265.3 912.0,265.3 912.6,265.3 913.2,265.3 913.8,265.3 914.3,265.3 914.9,265.3 915.5,312.1 916.1,273.0 916.6,256.3 917.2,270.1 917.8,254.7 918.4,255.3 918.9,266.5 919.5,253.7 920.1,255.0 920.7,256.4 921.2,265.3 921.8,273.4 922.4,257.2 923.0,265.3 923.5,265.3 924.1,265.3 924.7,265.7 925.3,264.9 925.8,265.3 926.4,266.8 927.0,263.8 927.6,299.1 928.2,275.3 928.7,274.0 929.3,262.2 929.9,268.1 930.5,269.0 931.0,266.6 931.6,212.3 932.2,294.9 932.8,240.8 933.3,271.6 933.9,261.2 934.5,253.7 935.1,265.3 935.6,270.9 936.2,262.2 936.8,267.7 937.4,267.6 937.9,258.9 938.5,264.5 939.1,280.0 939.7,261.6 940.2,262.0 940.8,268.5 941.4,280.2 942.0,290.4 942.5,267.4 943.1,263.2 943.7,270.6 944.3,266.2 944.8,264.4 945.4,261.3 946.0,351.6" fill="none" stroke="#2563eb" stroke-width="2.2" stroke-linejoin="round" stroke-linecap="round"/>
<polyline points="76.0,334.6 76.6,334.0 77.2,332.6 77.7,332.2 78.3,332.8 78.9,331.2 79.5,331.1 80.0,331.7 80.6,332.4 81.2,332.4 81.8,334.9 82.3,332.1 82.9,331.9 83.5,332.2 84.1,332.8 84.6,334.1 85.2,333.7 85.8,333.3 86.4,332.9 86.9,333.7 87.5,334.4 88.1,333.8 88.7,333.5 89.2,333.5 89.8,332.6 90.4,332.3 91.0,332.6 91.5,331.3 92.1,330.0 92.7,331.3 93.3,331.7 93.8,333.8 94.4,332.8 95.0,332.8 95.6,333.5 96.2,332.8 96.7,332.3 97.3,333.2 97.9,332.2 98.5,332.2 99.0,331.9 99.6,334.5 100.2,333.9 100.8,333.3 101.3,328.0 101.9,328.4 102.5,333.5 103.1,332.9 103.6,330.7 104.2,328.0 104.8,331.1 105.4,332.9 105.9,331.7 106.5,331.5 107.1,331.7 107.7,332.2 108.2,331.8 108.8,332.7 109.4,331.3 110.0,332.2 110.5,331.0 111.1,332.0 111.7,331.7 112.3,338.1 112.8,335.7 113.4,334.6 114.0,335.8 114.6,335.3 115.2,330.9 115.7,330.2 116.3,331.7 116.9,334.2 117.5,336.1 118.0,332.1 118.6,332.0 119.2,332.4 119.8,334.4 120.3,332.7 120.9,334.1 121.5,332.0 122.1,331.2 122.6,333.3 123.2,332.7 123.8,333.4 124.4,333.6 124.9,333.3 125.5,334.5 126.1,332.9 126.7,332.9 127.2,333.2 127.8,332.7 128.4,335.5 129.0,329.8 129.5,333.6 130.1,332.8 130.7,327.8 131.3,333.7 131.9,331.9 132.4,332.4 133.0,329.1 133.6,332.1 134.2,332.4 134.7,331.3 135.3,332.6 135.9,331.7 136.5,332.7 137.0,331.8 137.6,331.6 138.2,331.5 138.8,332.4 139.3,332.0 139.9,332.9 140.5,330.8 141.1,332.9 141.6,333.1 142.2,332.8 142.8,328.1 143.4,325.6 143.9,327.3 144.5,327.4 145.1,327.4 145.7,328.8 146.2,328.1 146.8,327.5 147.4,331.7 148.0,332.1 148.5,331.4 149.1,331.6 149.7,331.5 150.3,331.4 150.9,331.5 151.4,331.8 152.0,331.7 152.6,331.9 153.2,332.6 153.7,331.9 154.3,333.9 154.9,333.9 155.5,332.4 156.0,334.7 156.6,338.8 157.2,333.3 157.8,335.5 158.3,333.5 158.9,333.2 159.5,333.2 160.1,332.8 160.6,332.9 161.2,331.9 161.8,332.8 162.4,331.8 162.9,331.5 163.5,331.3 164.1,331.5 164.7,332.9 165.2,334.8 165.8,332.2 166.4,333.0 167.0,332.8 167.5,333.1 168.1,333.2 168.7,334.0 169.3,334.3 169.9,334.1 170.4,339.1 171.0,333.5 171.6,335.8 172.2,330.6 172.7,333.0 173.3,331.9 173.9,332.5 174.5,331.2 175.0,331.5 175.6,332.5 176.2,331.6 176.8,330.6 177.3,332.0 177.9,332.3 178.5,331.4 179.1,331.9 179.6,331.9 180.2,332.2 180.8,332.3 181.4,332.9 181.9,333.2 182.5,334.1 183.1,334.7 183.7,333.0 184.2,338.1 184.8,332.9 185.4,333.5 186.0,332.8 186.5,332.6 187.1,331.6 187.7,331.5 188.3,331.5 188.9,331.3 189.4,332.3 190.0,332.4 190.6,334.0 191.2,333.8 191.7,333.3 192.3,332.7 192.9,333.6 193.5,332.3 194.0,333.2 194.6,332.0 195.2,333.2 195.8,333.9 196.3,334.4 196.9,334.0 197.5,335.2 198.1,340.0 198.6,334.2 199.2,334.3 199.8,334.0 200.4,333.9 200.9,332.6 201.5,332.4 202.1,332.0 202.7,333.0 203.2,332.5 203.8,332.0 204.4,332.0 205.0,331.3 205.5,332.4 206.1,331.2 206.7,331.4 207.3,331.3 207.9,333.6 208.4,333.5 209.0,333.3 209.6,334.1 210.2,336.2 210.7,333.9 211.3,334.3 211.9,333.9 212.5,333.0 213.0,329.9 213.6,328.0 214.2,333.8 214.8,331.9 215.3,329.3 215.9,328.8 216.5,328.7 217.1,328.7 217.6,328.5 218.2,331.0 218.8,329.9 219.4,330.4 219.9,330.5 220.5,332.0 221.1,333.7 221.7,335.2 222.2,331.9 222.8,337.9 223.4,332.7 224.0,335.0 224.6,333.7 225.1,334.0 225.7,335.1 226.3,332.6 226.9,326.5 227.4,328.2 228.0,328.5 228.6,329.0 229.2,327.3 229.7,329.2 230.3,328.4 230.9,326.4 231.5,331.5 232.0,331.1 232.6,332.5 233.2,332.9 233.8,332.3 234.3,331.7 234.9,333.1 235.5,332.7 236.1,332.5 236.6,335.4 237.2,333.0 237.8,332.3 238.4,334.0 238.9,329.2 239.5,326.8 240.1,327.6 240.7,333.6 241.2,332.9 241.8,332.0 242.4,335.8 243.0,331.0 243.6,331.9 244.1,331.6 244.7,332.8 245.3,330.0 245.9,331.6 246.4,331.9 247.0,335.0 247.6,331.0 248.2,331.9 248.7,331.6 249.3,332.3 249.9,332.2 250.5,334.8 251.0,332.8 251.6,333.9 252.2,333.4 252.8,332.9 253.3,335.0 253.9,333.1 254.5,334.1 255.1,334.8 255.6,333.3 256.2,329.6 256.8,328.7 257.4,333.9 257.9,332.0 258.5,333.1 259.1,333.5 259.7,332.4 260.2,332.9 260.8,332.7 261.4,332.4 262.0,332.0 262.6,335.0 263.1,334.7 263.7,333.9 264.3,334.6 264.9,334.1 265.4,337.9 266.0,336.7 266.6,336.2 267.2,336.7 267.7,337.7 268.3,337.7 268.9,336.9 269.5,337.5 270.0,337.8 270.6,337.0 271.2,336.7 271.8,335.1 272.3,332.9 272.9,334.2 273.5,336.3 274.1,334.4 274.6,334.7 275.2,333.9 275.8,335.1 276.4,334.5 276.9,334.5 277.5,334.5 278.1,333.3 278.7,334.6 279.2,333.8 279.8,334.4 280.4,332.6 281.0,333.4 281.6,334.3 282.1,334.6 282.7,334.8 283.3,334.1 283.9,334.0 284.4,333.0 285.0,332.9 285.6,333.4 286.2,330.2 286.7,332.2 287.3,334.1 287.9,332.3 288.5,331.8 289.0,332.6 289.6,332.9 290.2,333.2 290.8,333.1 291.3,333.4 291.9,333.5 292.5,332.8 293.1,334.5 293.6,334.3 294.2,335.1 294.8,334.3 295.4,335.0 295.9,333.8 296.5,333.3 297.1,334.5 297.7,331.8 298.3,333.1 298.8,332.0 299.4,332.6 300.0,330.4 300.6,331.6 301.1,332.4 301.7,333.5 302.3,330.6 302.9,332.8 303.4,330.6 304.0,331.5 304.6,332.3 305.2,332.1 305.7,332.2 306.3,332.0 306.9,333.2 307.5,335.1 308.0,333.9 308.6,327.2 309.2,328.2 309.8,327.6 310.3,329.9 310.9,328.2 311.5,328.3 312.1,329.5 312.6,332.7 313.2,332.4 313.8,330.3 314.4,332.1 314.9,331.9 315.5,333.1 316.1,332.1 316.7,332.3 317.3,332.4 317.8,332.3 318.4,331.0 319.0,331.3 319.6,333.0 320.1,333.1 320.7,333.0 321.3,334.1 321.9,332.5 322.4,333.5 323.0,333.5 323.6,333.6 324.2,333.1 324.7,332.7 325.3,332.3 325.9,330.4 326.5,333.9 327.0,331.0 327.6,327.7 328.2,331.9 328.8,331.7 329.3,332.3 329.9,332.4 330.5,332.0 331.1,331.8 331.6,332.4 332.2,332.8 332.8,332.5 333.4,333.0 333.9,332.6 334.5,333.0 335.1,334.0 335.7,334.3 336.3,331.1 336.8,334.6 337.4,335.4 338.0,335.9 338.6,333.1 339.1,332.6 339.7,333.7 340.3,331.5 340.9,331.9 341.4,330.5 342.0,332.0 342.6,333.0 343.2,331.2 343.7,330.3 344.3,331.0 344.9,331.4 345.5,330.4 346.0,333.1 346.6,331.9 347.2,331.8 347.8,334.6 348.3,341.2 348.9,332.7 349.5,332.0 350.1,334.0 350.6,333.6 351.2,333.1 351.8,333.6 352.4,331.9 352.9,331.5 353.5,331.3 354.1,331.6 354.7,332.4 355.3,331.3 355.8,330.7 356.4,331.5 357.0,331.1 357.6,330.6 358.1,331.4 358.7,332.2 359.3,331.7 359.9,332.0 360.4,332.5 361.0,330.9 361.6,332.9 362.2,332.6 362.7,336.7 363.3,334.2 363.9,332.8 364.5,335.6 365.0,332.9 365.6,333.3 366.2,333.3 366.8,332.4 367.3,330.8 367.9,332.2 368.5,332.2 369.1,331.9 369.6,332.1 370.2,330.6 370.8,331.2 371.4,331.1 371.9,335.0 372.5,331.7 373.1,331.9 373.7,331.1 374.3,332.8 374.8,333.0 375.4,334.3 376.0,332.0 376.6,334.8 377.1,332.5 377.7,334.6 378.3,335.1 378.9,332.4 379.4,333.3 380.0,332.2 380.6,333.0 381.2,332.1 381.7,332.9 382.3,332.0 382.9,331.4 383.5,330.7 384.0,332.9 384.6,332.1 385.2,331.1 385.8,331.0 386.3,332.0 386.9,332.3 387.5,333.4 388.1,330.7 388.6,332.9 389.2,333.0 389.8,333.5 390.4,334.3 391.0,334.3 391.5,333.7 392.1,332.5 392.7,332.8 393.3,334.0 393.8,333.0 394.4,332.3 395.0,331.5 395.6,330.5 396.1,331.2 396.7,331.4 397.3,331.6 397.9,332.7 398.4,332.9 399.0,332.4 399.6,332.2 400.2,331.7 400.7,332.3 401.3,332.8 401.9,331.7 402.5,332.6 403.0,333.9 403.6,333.7 404.2,335.1 404.8,333.2 405.3,333.8 405.9,333.4 406.5,334.8 407.1,333.5 407.6,331.7 408.2,332.1 408.8,330.6 409.4,331.7 410.0,332.3 410.5,329.9 411.1,331.9 411.7,331.3 412.3,332.0 412.8,331.8 413.4,332.0 414.0,331.9 414.6,330.8 415.1,331.7 415.7,331.2 416.3,333.8 416.9,333.6 417.4,333.7 418.0,333.8 418.6,333.8 419.2,334.7 419.7,333.7 420.3,333.5 420.9,333.6 421.5,333.0 422.0,335.7 422.6,333.3 423.2,332.1 423.8,332.7 424.3,330.7 424.9,331.2 425.5,332.1 426.1,333.4 426.6,332.8 427.2,332.8 427.8,333.1 428.4,331.7 429.0,332.8 429.5,333.0 430.1,334.9 430.7,334.7 431.3,334.5 431.8,334.0 432.4,334.9 433.0,333.6 433.6,334.7 434.1,333.2 434.7,333.7 435.3,333.1 435.9,333.5 436.4,333.1 437.0,332.2 437.6,332.5 438.2,331.4 438.7,331.5 439.3,332.5 439.9,332.8 440.5,332.0 441.0,332.3 441.6,332.2 442.2,333.0 442.8,332.5 443.3,333.7 443.9,333.2 444.5,333.5 445.1,334.2 445.6,332.9 446.2,333.3 446.8,334.9 447.4,333.5 448.0,334.8 448.5,332.4 449.1,333.0 449.7,332.8 450.3,333.1 450.8,331.9 451.4,333.1 452.0,331.8 452.6,332.4 453.1,333.0 453.7,332.1 454.3,332.1 454.9,334.4 455.4,333.5 456.0,333.0 456.6,332.9 457.2,333.3 457.7,333.4 458.3,333.4 458.9,335.1 459.5,332.4 460.0,336.1 460.6,333.3 461.2,333.8 461.8,334.0 462.3,331.6 462.9,332.9 463.5,333.0 464.1,332.9 464.6,333.0 465.2,335.2 465.8,334.3 466.4,331.7 467.0,332.0 467.5,332.9 468.1,332.5 468.7,331.7 469.3,332.4 469.8,332.7 470.4,335.2 471.0,333.5 471.6,335.0 472.1,333.5 472.7,336.5 473.3,333.0 473.9,333.5 474.4,334.9 475.0,333.3 475.6,333.9 476.2,333.4 476.7,337.4 477.3,332.4 477.9,333.0 478.5,331.7 479.0,333.7 479.6,331.2 480.2,330.2 480.8,333.7 481.3,333.5 481.9,332.2 482.5,333.0 483.1,332.7 483.7,332.5 484.2,332.3 484.8,333.0 485.4,332.9 486.0,332.5 486.5,333.5 487.1,335.2 487.7,334.1 488.3,334.6 488.8,335.2 489.4,334.0 490.0,334.0 490.6,329.0 491.1,346.8 491.7,346.9 492.3,342.0 492.9,340.9 493.4,284.6 494.0,279.3 494.6,277.3 495.2,281.9 495.7,280.5 496.3,282.7 496.9,280.1 497.5,279.9 498.0,279.4 498.6,289.6 499.2,292.4 499.8,294.0 500.3,293.7 500.9,290.1 501.5,293.9 502.1,294.3 502.7,289.7 503.2,294.6 503.8,289.4 504.4,294.7 505.0,289.6 505.5,292.8 506.1,292.3 506.7,293.3 507.3,286.2 507.8,298.8 508.4,293.2 509.0,292.6 509.6,285.5 510.1,296.3 510.7,297.7 511.3,289.6 511.9,295.7 512.4,290.7 513.0,303.5 513.6,294.5 514.2,297.7 514.7,291.5 515.3,294.8 515.9,289.5 516.5,277.4 517.0,272.3 517.6,283.5 518.2,286.9 518.8,290.9 519.3,288.8 519.9,286.1 520.5,291.3 521.1,287.6 521.7,292.7 522.2,292.6 522.8,289.3 523.4,287.6 524.0,290.8 524.5,293.9 525.1,293.5 525.7,293.2 526.3,305.5 526.8,302.1 527.4,310.4 528.0,304.2 528.6,294.9 529.1,301.1 529.7,303.5 530.3,304.0 530.9,303.6 531.4,304.7 532.0,295.8 532.6,303.8 533.2,304.5 533.7,303.3 534.3,299.6 534.9,301.0 535.5,297.3 536.0,301.1 536.6,299.0 537.2,290.4 537.8,305.1 538.3,303.0 538.9,299.1 539.5,299.9 540.1,307.0 540.7,299.1 541.2,302.8 541.8,301.8 542.4,292.4 543.0,298.0 543.5,299.2 544.1,299.5 544.7,295.0 545.3,297.2 545.8,295.4 546.4,297.2 547.0,292.1 547.6,216.6 548.1,297.5 548.7,299.8 549.3,288.9 549.9,294.1 550.4,290.6 551.0,295.1 551.6,299.2 552.2,293.0 552.7,296.8 553.3,298.8 553.9,303.7 554.5,300.9 555.0,303.0 555.6,302.2 556.2,294.2 556.8,297.1 557.4,296.9 557.9,299.8 558.5,296.6 559.1,295.1 559.7,292.7 560.2,293.0 560.8,291.5 561.4,295.2 562.0,294.2 562.5,292.6 563.1,296.9 563.7,297.5 564.3,291.4 564.8,299.9 565.4,293.7 566.0,298.4 566.6,292.8 567.1,304.8 567.7,304.1 568.3,307.7 568.9,303.1 569.4,303.9 570.0,294.2 570.6,300.4 571.2,303.3 571.7,302.5 572.3,297.7 572.9,293.4 573.5,289.9 574.0,291.7 574.6,282.7 575.2,300.5 575.8,286.9 576.4,299.4 576.9,300.4 577.5,303.7 578.1,310.6 578.7,301.9 579.2,303.0 579.8,309.7 580.4,305.6 581.0,303.8 581.5,309.4 582.1,307.7 582.7,313.1 583.3,308.2 583.8,303.2 584.4,317.3 585.0,313.1 585.6,312.2 586.1,307.6 586.7,305.1 587.3,309.6 587.9,306.6 588.4,309.3 589.0,301.3 589.6,305.7 590.2,297.8 590.7,310.6 591.3,304.3 591.9,308.3 592.5,304.9 593.0,301.3 593.6,299.6 594.2,295.0 594.8,304.0 595.4,310.8 595.9,311.5 596.5,312.4 597.1,313.2 597.7,312.8 598.2,323.1 598.8,328.3 599.4,322.5 600.0,325.8 600.5,323.3 601.1,323.6 601.7,323.9 602.3,326.1 602.8,325.4 603.4,325.0 604.0,322.0 604.6,323.0 605.1,323.5 605.7,321.6 606.3,322.2 606.9,322.9 607.4,323.3 608.0,322.4 608.6,321.6 609.2,323.4 609.7,323.2 610.3,325.0 610.9,332.1 611.5,333.2 612.0,322.8 612.6,327.6 613.2,326.2 613.8,323.8 614.4,329.0 614.9,321.0 615.5,319.9 616.1,323.1 616.7,323.1 617.2,321.9 617.8,322.3 618.4,321.2 619.0,322.0 619.5,323.1 620.1,325.4 620.7,324.2 621.3,323.6 621.8,324.4 622.4,323.6 623.0,326.3 623.6,326.5 624.1,326.1 624.7,327.4 625.3,326.2 625.9,326.3 626.4,322.9 627.0,334.3 627.6,321.9 628.2,320.1 628.7,319.9 629.3,322.6 629.9,322.5 630.5,324.0 631.0,324.3 631.6,324.0 632.2,323.6 632.8,321.4 633.4,326.4 633.9,324.1 634.5,323.3 635.1,321.3 635.7,323.6 636.2,322.7 636.8,323.9 637.4,326.2 638.0,329.3 638.5,328.2 639.1,322.7 639.7,322.7 640.3,327.6 640.8,326.1 641.4,320.4 642.0,315.5 642.6,322.7 643.1,316.8 643.7,324.4 644.3,321.3 644.9,326.1 645.4,319.7 646.0,320.0 646.6,321.3 647.2,319.3 647.7,323.7 648.3,318.3 648.9,321.1 649.5,321.2 650.1,323.7 650.6,316.8 651.2,325.8 651.8,331.5 652.4,328.9 652.9,326.5 653.5,321.4 654.1,321.5 654.7,323.6 655.2,326.0 655.8,318.5 656.4,311.8 657.0,324.8 657.5,272.7 658.1,320.9 658.7,319.2 659.3,318.0 659.8,320.3 660.4,325.8 661.0,318.6 661.6,321.8 662.1,321.5 662.7,322.6 663.3,320.3 663.9,321.0 664.4,324.8 665.0,326.7 665.6,329.9 666.2,322.6 666.7,328.5 667.3,323.7 667.9,319.9 668.5,323.9 669.1,332.4 669.6,317.1 670.2,315.5 670.8,317.3 671.4,325.2 671.9,321.2 672.5,323.7 673.1,322.0 673.7,322.3 674.2,323.0 674.8,321.9 675.4,323.8 676.0,318.2 676.5,320.5 677.1,317.8 677.7,325.8 678.3,321.9 678.8,327.8 679.4,323.2 680.0,330.5 680.6,318.6 681.1,327.1 681.7,324.3 682.3,323.3 682.9,326.1 683.4,318.4 684.0,319.9 684.6,320.0 685.2,315.3 685.7,319.6 686.3,321.1 686.9,320.8 687.5,323.0 688.1,323.5 688.6,322.8 689.2,324.5 689.8,319.1 690.4,321.3 690.9,321.7 691.5,327.9 692.1,324.7 692.7,325.8 693.2,331.5 693.8,325.0 694.4,321.6 695.0,322.7 695.5,321.4 696.1,322.3 696.7,316.6 697.3,318.7 697.8,313.1 698.4,314.2 699.0,317.3 699.6,321.0 700.1,314.2 700.7,319.3 701.3,325.9 701.9,323.7 702.4,321.0 703.0,319.0 703.6,316.6 704.2,320.1 704.7,317.6 705.3,325.2 705.9,322.8 706.5,326.7 707.1,326.9 707.6,323.1 708.2,318.7 708.8,321.8 709.4,315.2 709.9,322.4 710.5,319.8 711.1,320.8 711.7,314.7 712.2,318.8 712.8,317.5 713.4,310.8 714.0,323.5 714.5,318.9 715.1,316.4 715.7,321.2 716.3,317.9 716.8,318.9 717.4,323.5 718.0,320.1 718.6,323.8 719.1,319.4 719.7,317.3 720.3,329.9 720.9,324.9 721.4,322.5 722.0,327.9 722.6,322.3 723.2,316.9 723.7,320.5 724.3,319.6 724.9,316.7 725.5,312.7 726.1,316.2 726.6,319.3 727.2,314.2 727.8,316.3 728.4,317.8 728.9,318.7 729.5,323.1 730.1,316.8 730.7,322.0 731.2,321.1 731.8,319.9 732.4,316.4 733.0,321.8 733.5,320.1 734.1,320.2 734.7,328.6 735.3,319.8 735.8,324.1 736.4,325.2 737.0,321.9 737.6,323.1 738.1,320.2 738.7,319.9 739.3,311.0 739.9,319.0 740.4,317.1 741.0,309.6 741.6,323.7 742.2,316.8 742.8,313.7 743.3,323.4 743.9,327.0 744.5,318.3 745.1,321.2 745.6,323.9 746.2,324.2 746.8,314.1 747.4,326.1 747.9,330.3 748.5,325.5 749.1,327.4 749.7,326.5 750.2,325.4 750.8,326.9 751.4,328.5 752.0,320.8 752.5,310.6 753.1,326.0 753.7,321.0 754.3,312.3 754.8,321.1 755.4,324.7 756.0,325.4 756.6,309.0 757.1,322.8 757.7,320.2 758.3,320.8 758.9,321.4 759.4,321.1 760.0,311.7 760.6,319.7 761.2,321.9 761.8,323.2 762.3,326.6 762.9,322.6 763.5,329.6 764.1,321.4 764.6,316.9 765.2,318.0 765.8,313.2 766.4,319.6 766.9,310.6 767.5,316.8 768.1,312.8 768.7,315.0 769.2,313.1 769.8,313.5 770.4,316.8 771.0,320.9 771.5,326.1 772.1,322.1 772.7,318.7 773.3,315.8 773.8,318.5 774.4,316.4 775.0,324.8 775.6,317.1 776.1,332.6 776.7,324.4 777.3,315.6 777.9,322.8 778.4,324.4 779.0,317.2 779.6,319.3 780.2,314.9 780.8,316.7 781.3,313.2 781.9,317.9 782.5,290.4 783.1,323.8 783.6,315.1 784.2,315.9 784.8,319.1 785.4,317.4 785.9,318.4 786.5,319.5 787.1,325.1 787.7,320.2 788.2,322.1 788.8,320.4 789.4,324.6 790.0,326.4 790.5,320.4 791.1,326.1 791.7,316.1 792.3,322.9 792.8,319.9 793.4,316.4 794.0,317.9 794.6,316.7 795.1,317.1 795.7,313.5 796.3,314.7 796.9,319.4 797.4,318.9 798.0,317.8 798.6,317.8 799.2,321.3 799.8,320.1 800.3,323.1 800.9,323.5 801.5,321.9 802.1,325.3 802.6,324.5 803.2,328.0 803.8,330.6 804.4,323.1 804.9,323.4 805.5,322.8 806.1,324.9 806.7,316.5 807.2,321.2 807.8,317.4 808.4,316.5 809.0,314.5 809.5,311.2 810.1,315.0 810.7,317.6 811.3,318.2 811.8,319.1 812.4,318.5 813.0,325.8 813.6,320.8 814.1,320.9 814.7,318.5 815.3,315.7 815.9,322.8 816.5,318.2 817.0,326.6 817.6,323.4 818.2,325.4 818.8,319.4 819.3,327.1 819.9,323.1 820.5,317.9 821.1,313.8 821.6,318.0 822.2,314.5 822.8,319.5 823.4,311.8 823.9,313.1 824.5,321.1 825.1,313.4 825.7,311.8 826.2,318.5 826.8,320.2 827.4,319.6 828.0,323.1 828.5,319.5 829.1,322.9 829.7,322.6 830.3,320.9 830.8,326.1 831.4,322.4 832.0,318.4 832.6,326.7 833.1,322.3 833.7,321.2 834.3,319.1 834.9,317.8 835.5,314.3 836.0,315.8 836.6,310.7 837.2,320.3 837.8,312.2 838.3,319.2 838.9,317.1 839.5,316.4 840.1,318.7 840.6,316.9 841.2,325.7 841.8,313.4 842.4,317.9 842.9,317.3 843.5,316.7 844.1,317.0 844.7,324.0 845.2,321.5 845.8,332.2 846.4,316.4 847.0,322.1 847.5,318.1 848.1,321.1 848.7,320.2 849.3,316.9 849.8,314.0 850.4,315.7 851.0,313.1 851.6,326.3 852.1,316.8 852.7,318.0 853.3,315.6 853.9,322.9 854.5,318.6 855.0,319.1 855.6,315.2 856.2,324.0 856.8,317.6 857.3,322.3 857.9,319.4 858.5,319.7 859.1,322.8 859.6,320.2 860.2,322.1 860.8,322.3 861.4,320.4 861.9,313.7 862.5,316.1 863.1,325.7 863.7,324.3 864.2,313.9 864.8,320.7 865.4,319.6 866.0,310.3 866.5,315.8 867.1,321.6 867.7,320.8 868.3,323.9 868.8,320.4 869.4,321.3 870.0,324.3 870.6,320.8 871.1,323.1 871.7,320.2 872.3,332.0 872.9,321.9 873.5,324.7 874.0,322.1 874.6,325.0 875.2,331.9 875.8,322.5 876.3,325.3 876.9,321.6 877.5,322.3 878.1,318.2 878.6,315.8 879.2,320.5 879.8,317.8 880.4,324.2 880.9,316.7 881.5,296.8 882.1,320.8 882.7,321.3 883.2,322.8 883.8,323.6 884.4,317.8 885.0,323.5 885.5,328.1 886.1,262.4 886.7,333.6 887.3,328.4 887.8,324.3 888.4,323.6 889.0,322.5 889.6,319.0 890.1,319.1 890.7,319.3 891.3,315.1 891.9,312.6 892.5,319.2 893.0,319.1 893.6,322.5 894.2,316.2 894.8,322.0 895.3,319.3 895.9,324.0 896.5,317.8 897.1,322.6 897.6,321.1 898.2,320.3 898.8,321.6 899.4,309.4 899.9,315.2 900.5,310.6 901.1,308.3 901.7,325.3 902.2,309.5 902.8,309.4 903.4,310.9 904.0,309.8 904.5,330.3 905.1,298.1 905.7,309.5 906.3,308.0 906.8,309.0 907.4,309.4 908.0,311.0 908.6,308.4 909.2,318.8 909.7,318.9 910.3,324.9 910.9,320.5 911.5,320.6 912.0,307.7 912.6,311.5 913.2,319.3 913.8,310.4 914.3,308.7 914.9,309.0 915.5,337.2 916.1,322.5 916.6,315.4 917.2,320.7 917.8,320.2 918.4,317.3 918.9,318.5 919.5,314.1 920.1,315.4 920.7,311.2 921.2,313.1 921.8,319.8 922.4,306.8 923.0,318.6 923.5,322.1 924.1,319.4 924.7,320.4 925.3,322.0 925.8,322.6 926.4,323.9 927.0,324.2 927.6,331.3 928.2,320.8 928.7,324.4 929.3,323.3 929.9,319.1 930.5,321.2 931.0,318.8 931.6,314.2 932.2,328.3 932.8,308.2 933.3,319.8 933.9,314.9 934.5,310.4 935.1,313.6 935.6,321.7 936.2,317.9 936.8,315.5 937.4,317.1 937.9,314.7 938.5,318.9 939.1,321.4 939.7,316.8 940.2,319.7 940.8,323.1 941.4,325.1 942.0,329.3 942.5,319.8 943.1,319.0 943.7,323.9 944.3,321.4 944.8,322.0 945.4,316.5 946.0,351.6" fill="none" stroke="#7c3aed" stroke-width="2.2" stroke-linejoin="round" stroke-linecap="round"/>
<line x1="76" y1="70" x2="94" y2="70" stroke="#2563eb" stroke-width="3"/>
<text x="100" y="74" font-family="Arial, sans-serif" font-size="11" fill="#0f172a">tx count</text>
<line x1="186" y1="70" x2="204" y2="70" stroke="#7c3aed" stroke-width="3"/>
<text x="210" y="74" font-family="Arial, sans-serif" font-size="11" fill="#0f172a">unique accounts</text>
<text x="28" y="404" font-family="Arial, sans-serif" font-size="11" fill="#64748b">Source: hourly_features.csv; capped windows are sample counts</text>
</svg>