<svg xmlns="http://www.w3.org/2000/svg" width="980" height="420" viewBox="0 0 980 420">
<rect width="100%" height="100%" fill="#ffffff"/>
<text x="28" y="34" font-family="Arial, sans-serif" font-size="20" font-weight="700" fill="#0f172a">Network activity sample trend</text>
<text x="28" y="56" font-family="Arial, sans-serif" font-size="12" fill="#64748b">Hourly transaction sample count and unique account sample count</text>
<line x1="76" y1="362.0" x2="946" y2="362.0" stroke="#e2e8f0" stroke-width="1"/>
<text x="68" y="366.0" font-family="Arial, sans-serif" font-size="10" text-anchor="end" fill="#64748b">249</text>
<line x1="76" y1="292.0" x2="946" y2="292.0" stroke="#e2e8f0" stroke-width="1"/>
<text x="68" y="296.0" font-family="Arial, sans-serif" font-size="10" text-anchor="end" fill="#64748b">1K</text>
<line x1="76" y1="222.0" x2="946" y2="222.0" stroke="#e2e8f0" stroke-width="1"/>
<text x="68" y="226.0" font-family="Arial, sans-serif" font-size="10" text-anchor="end" fill="#64748b">3K</text>
<line x1="76" y1="152.0" x2="946" y2="152.0" stroke="#e2e8f0" stroke-width="1"/>
<text x="68" y="156.0" font-family="Arial, sans-serif" font-size="10" text-anchor="end" fill="#64748b">4K</text>
<line x1="76" y1="82.0" x2="946" y2="82.0" stroke="#e2e8f0" stroke-width="1"/>
<text x="68" y="86.0" font-family="Arial, sans-serif" font-size="10" text-anchor="end" fill="#64748b">5K</text>
<line x1="76" y1="362" x2="946" y2="362" stroke="#334155" stroke-width="1"/>
<line x1="76" y1="82" x2="76" y2="362" stroke="#334155" stroke-width="1"/>
<text x="76" y="72" font-family="Arial, sans-serif" font-size="11" fill="#64748b">count</text>
<line x1="76.0" y1="362" x2="76.0" y2="366" stroke="#334155" stroke-width="1"/>
<text x="76.0" y="380" font-family="Arial, sans-serif" font-size="10" text-anchor="middle" fill="#64748b">0</text>
<line x1="511.6" y1="362" x2="511.6" y2="366" stroke="#334155" stroke-width="1"/>
<text x="511.6" y="380" font-family="Arial, sans-serif" font-size="10" text-anchor="middle" fill="#64748b">376</text>
<line x1="946.0" y1="362" x2="946.0" y2="366" stroke="#334155" stroke-width="1"/>
<text x="946.0" y="380" font-family="Arial, sans-serif" font-size="10" text-anchor="middle" fill="#64748b">751</text>
<polyline points="76.0,92.4 77.2,92.4 78.3,92.4 79.5,92.4 80.6,92.4 81.8,92.4 83.0,92.4 84.1,92.4 85.3,92.4 86.4,92.4 87.6,92.4 88.7,92.4 89.9,92.4 91.1,92.4 92.2,92.4 93.4,92.4 94.5,92.4 95.7,92.4 96.9,92.4 98.0,92.4 99.2,92.4 100.3,92.4 101.5,92.4 102.6,92.4 103.8,92.4 105.0,92.4 106.1,92.4 107.3,92.4 108.4,92.4 109.6,92.4 110.8,92.4 111.9,92.4 113.1,92.4 114.2,92.4 115.4,92.4 116.5,92.4 117.7,92.4 118.9,92.4 120.0,92.4 121.2,92.4 122.3,92.4 123.5,92.4 124.7,92.4 125.8,92.4 127.0,92.4 128.1,92.4 129.3,92.4 130.4,92.4 131.6,92.4 132.8,92.4 133.9,92.4 135.1,92.4 136.2,92.4 137.4,92.4 138.6,92.4 139.7,92.4 140.9,92.4 142.0,92.4 143.2,92.4 144.3,92.4 145.5,92.4 146.7,92.4 147.8,92.4 149.0,92.4 150.1,92.4 151.3,92.4 152.5,92.4 153.6,92.4 154.8,92.4 155.9,92.4 157.1,92.4 158.3,92.4 159.4,92.4 160.6,92.4 161.7,92.4 162.9,92.4 164.0,92.4 165.2,92.4 166.4,92.4 167.5,92.4 168.7,92.4 169.8,92.4 171.0,92.4 172.2,92.4 173.3,92.4 174.5,92.4 175.6,92.4 176.8,92.4 177.9,92.4 179.1,92.4 180.3,92.4 181.4,92.4 182.6,92.4 183.7,92.4 184.9,92.4 186.1,92.4 187.2,92.4 188.4,92.4 189.5,92.4 190.7,92.4 191.8,92.4 193.0,92.4 194.2,92.4 195.3,92.4 196.5,92.4 197.6,92.4 198.8,92.4 200.0,92.4 201.1,92.4 202.3,92.4 203.4,92.4 204.6,92.4 205.7,92.4 206.9,92.4 208.1,92.4 209.2,92.4 210.4,92.4 211.5,92.4 212.7,92.4 213.9,92.4 215.0,92.4 216.2,92.4 217.3,92.4 218.5,92.4 219.6,92.4 220.8,92.4 222.0,92.4 223.1,92.4 224.3,92.4 225.4,92.4 226.6,92.4 227.8,92.4 228.9,92.4 230.1,92.4 231.2,92.4 232.4,92.4 233.5,92.4 234.7,92.4 235.9,92.4 237.0,92.4 238.2,92.4 239.3,92.4 240.5,92.4 241.7,92.4 242.8,92.4 244.0,92.4 245.1,92.4 246.3,92.4 247.5,92.4 248.6,92.4 249.8,92.4 250.9,92.4 252.1,92.4 253.2,92.4 254.4,92.4 255.6,92.4 256.7,92.4 257.9,92.4 259.0,92.4 260.2,92.4 261.4,92.4 262.5,92.4 263.7,92.4 264.8,92.4 266.0,92.4 267.1,92.4 268.3,92.4 269.5,92.4 270.6,92.4 271.8,92.4 272.9,92.4 274.1,92.4 275.3,92.4 276.4,92.4 277.6,92.4 278.7,92.4 279.9,92.4 281.0,92.4 282.2,92.4 283.4,92.4 284.5,92.4 285.7,92.4 286.8,92.4 288.0,92.4 289.2,92.4 290.3,92.4 291.5,92.4 292.6,92.4 293.8,92.4 294.9,92.4 296.1,92.4 297.3,92.4 298.4,92.4 299.6,92.4 300.7,92.4 301.9,92.4 303.1,92.4 304.2,92.4 305.4,92.4 306.5,92.4 307.7,92.4 308.8,92.4 310.0,92.4 311.2,92.4 312.3,92.4 313.5,92.4 314.6,92.4 315.8,92.4 317.0,92.4 318.1,92.4 319.3,92.4 320.4,92.4 321.6,92.4 322.8,92.4 323.9,92.4 325.1,92.4 326.2,92.4 327.4,92.4 328.5,92.4 329.7,92.4 330.9,92.4 332.0,92.4 333.2,92.4 334.3,92.4 335.5,92.4 336.7,92.4 337.8,92.4 339.0,92.4 340.1,92.4 341.3,92.4 342.4,92.4 343.6,92.4 344.8,92.4 345.9,92.4 347.1,92.4 348.2,92.4 349.4,92.4 350.6,92.4 351.7,92.4 352.9,92.4 354.0,92.4 355.2,92.4 356.3,92.4 357.5,92.4 358.7,92.4 359.8,92.4 361.0,92.4 362.1,92.4 363.3,92.4 364.5,92.4 365.6,92.4 366.8,92.4 367.9,92.4 369.1,92.4 370.2,92.4 371.4,92.4 372.6,92.4 373.7,92.4 374.9,92.4 376.0,92.4 377.2,92.4 378.4,92.4 379.5,92.4 380.7,92.4 381.8,92.4 383.0,92.4 384.1,92.4 385.3,92.4 386.5,92.4 387.6,92.4 388.8,92.4 389.9,92.4 391.1,92.4 392.3,92.4 393.4,92.4 394.6,92.4 395.7,92.4 396.9,92.4 398.1,92.4 399.2,92.4 400.4,92.4 401.5,92.4 402.7,92.4 403.8,92.4 405.0,92.4 406.2,92.4 407.3,92.4 408.5,92.4 409.6,92.4 410.8,92.4 412.0,92.4 413.1,92.4 414.3,92.4 415.4,92.4 416.6,92.4 417.7,92.4 418.9,92.4 420.1,92.4 421.2,92.4 422.4,92.4 423.5,92.4 424.7,92.4 425.9,92.4 427.0,92.4 428.2,92.4 429.3,92.4 430.5,92.4 431.6,92.4 432.8,92.4 434.0,92.4 435.1,92.4 436.3,92.4 437.4,92.4 438.6,92.4 439.8,92.4 440.9,92.4 442.1,92.4 443.2,92.4 444.4,92.4 445.5,92.4 446.7,92.4 447.9,92.4 449.0,92.4 450.2,92.4 451.3,92.4 452.5,92.4 453.7,92.4 454.8,92.4 456.0,92.4 457.1,92.4 458.3,92.4 459.4,92.4 460.6,92.4 461.8,92.4 462.9,92.4 464.1,92.4 465.2,92.4 466.4,92.4 467.6,92.4 468.7,92.4 469.9,92.4 471.0,92.4 472.2,92.4 473.4,92.4 474.5,92.4 475.7,92.4 476.8,92.4 478.0,92.4 479.1,92.4 480.3,92.4 481.5,92.4 482.6,92.4 483.8,92.4 484.9,92.4 486.1,92.4 487.3,92.4 488.4,92.4 489.6,92.4 490.7,92.4 491.9,92.4 493.0,92.4 494.2,92.4 495.4,92.4 496.5,92.4 497.7,92.4 498.8,92.4 500.0,92.4 501.2,92.4 502.3,92.4 503.5,92.4 504.6,92.4 505.8,92.4 506.9,92.4 508.1,92.4 509.3,92.4 510.4,92.4 511.6,92.4 512.7,92.4 513.9,92.4 515.1,92.4 516.2,92.4 517.4,92.4 518.5,92.4 519.7,92.4 520.8,92.4 522.0,92.4 523.2,92.4 524.3,92.4 525.5,92.4 526.6,92.4 527.8,92.4 529.0,92.4 530.1,92.4 531.3,92.4 532.4,92.4 533.6,92.4 534.7,92.4 535.9,92.4 537.1,92.4 538.2,92.4 539.4,92.4 540.5,92.4 541.7,92.4 542.9,92.4 544.0,92.4 545.2,92.4 546.3,92.4 547.5,92.4 548.6,92.4 549.8,92.4 551.0,92.4 552.1,92.4 553.3,92.4 554.4,92.4 555.6,92.4 556.8,92.4 557.9,92.4 559.1,92.4 560.2,92.4 561.4,92.4 562.6,92.4 563.7,92.4 564.9,92.4 566.0,92.4 567.2,92.4 568.3,92.4 569.5,92.4 570.7,92.4 571.8,92.4 573.0,92.4 574.1,92.4 575.3,92.4 576.5,92.4 577.6,92.4 578.8,92.4 579.9,92.4 581.1,92.4 582.2,92.4 583.4,92.4 584.6,92.4 585.7,92.4 586.9,92.4 588.0,92.4 589.2,92.4 590.4,92.4 591.5,92.4 592.7,92.4 593.8,92.4 595.0,92.4 596.1,92.4 597.3,92.4 598.5,92.4 599.6,92.4 600.8,92.4 601.9,92.4 603.1,92.4 604.3,92.4 605.4,92.4 606.6,92.4 607.7,92.4 608.9,92.4 610.0,92.4 611.2,92.4 612.4,92.4 613.5,92.4 614.7,92.4 615.8,92.4 617.0,92.4 618.2,92.4 619.3,92.4 620.5,92.4 621.6,92.4 622.8,92.4 623.9,92.4 625.1,92.4 626.3,92.4 627.4,92.4 628.6,92.4 629.7,92.4 630.9,92.4 632.1,92.4 633.2,92.4 634.4,92.4 635.5,92.4 636.7,92.4 637.9,92.4 639.0,92.4 640.2,92.4 641.3,92.4 642.5,92.4 643.6,92.4 644.8,92.4 646.0,92.4 647.1,92.4 648.3,92.4 649.4,92.4 650.6,92.4 651.8,92.4 652.9,92.4 654.1,92.4 655.2,92.4 656.4,92.4 657.5,92.4 658.7,92.4 659.9,92.4 661.0,92.4 662.2,92.4 663.3,92.4 664.5,92.4 665.7,92.4 666.8,92.4 668.0,92.4 669.1,92.4 670.3,92.4 671.4,92.4 672.6,92.4 673.8,92.4 674.9,92.4 676.1,92.4 677.2,92.4 678.4,92.4 679.6,92.4 680.7,92.4 681.9,92.4 683.0,92.4 684.2,92.4 685.3,92.4 686.5,92.4 687.7,92.4 688.8,92.4 690.0,92.4 691.1,92.4 692.3,92.4 693.5,92.4 694.6,92.4 695.8,92.4 696.9,92.4 698.1,92.4 699.2,92.4 700.4,92.4 701.6,92.4 702.7,92.4 703.9,92.4 705.0,92.4 706.2,92.4 707.4,92.4 708.5,92.4 709.7,92.4 710.8,92.4 712.0,92.4 713.2,92.4 714.3,92.4 715.5,92.4 716.6,92.4 717.8,92.4 718.9,92.4 720.1,92.4 721.3,92.4 722.4,92.4 723.6,92.4 724.7,92.4 725.9,92.4 727.1,92.4 728.2,92.4 729.4,92.4 730.5,92.4 731.7,92.4 732.8,92.4 734.0,92.4 735.2,92.4 736.3,92.4 737.5,92.4 738.6,92.4 739.8,92.4 741.0,92.4 742.1,92.4 743.3,92.4 744.4,92.4 745.6,92.4 746.7,92.4 747.9,92.4 749.1,92.4 750.2,92.4 751.4,92.4 752.5,92.4 753.7,92.4 754.9,92.4 756.0,92.4 757.2,92.4 758.3,92.4 759.5,92.4 760.6,92.4 761.8,92.4 763.0,92.4 764.1,92.4 765.3,92.4 766.4,92.4 767.6,92.4 768.8,92.4 769.9,92.4 771.1,92.4 772.2,92.4 773.4,92.4 774.5,92.4 775.7,92.4 776.9,92.4 778.0,92.4 779.2,92.4 780.3,92.4 781.5,92.4 782.7,92.4 783.8,92.4 785.0,92.4 786.1,92.4 787.3,92.4 788.5,92.4 789.6,92.4 790.8,92.4 791.9,92.4 793.1,92.4 794.2,92.4 795.4,92.4 796.6,92.4 797.7,92.4 798.9,92.4 800.0,92.4 801.2,92.4 802.4,92.4 803.5,92.4 804.7,92.4 805.8,92.4 807.0,92.4 808.1,92.4 809.3,92.4 810.5,92.4 811.6,92.4 812.8,92.4 813.9,92.4 815.1,92.4 816.3,92.4 817.4,92.4 818.6,92.4 819.7,92.4 820.9,92.4 822.0,92.4 823.2,92.4 824.4,92.4 825.5,92.4 826.7,92.4 827.8,92.4 829.0,92.4 830.2,92.4 831.3,92.4 832.5,92.4 833.6,92.4 834.8,92.4 835.9,92.4 837.1,92.4 838.3,92.4 839.4,92.4 840.6,92.4 841.7,92.4 842.9,92.4 844.1,92.4 845.2,92.4 846.4,92.4 847.5,92.4 848.7,92.4 849.8,92.4 851.0,92.4 852.2,92.4 853.3,92.4 854.5,92.4 855.6,92.4 856.8,92.4 858.0,92.4 859.1,92.4 860.3,92.4 861.4,92.4 862.6,92.4 863.7,319.4 864.9,319.4 866.1,319.4 867.2,319.4 868.4,319.4 869.5,319.4 870.7,319.4 871.9,319.4 873.0,319.4 874.2,319.4 875.3,319.4 876.5,319.4 877.7,319.4 878.8,319.4 880.0,319.4 881.1,319.4 882.3,319.4 883.4,319.4 884.6,319.4 885.8,319.4 886.9,319.4 888.1,319.4 889.2,319.4 890.4,319.4 891.6,319.4 892.7,319.4 893.9,319.4 895.0,319.4 896.2,319.4 897.3,319.4 898.5,319.4 899.7,319.4 900.8,319.4 902.0,319.4 903.1,319.4 904.3,319.4 905.5,319.4 906.6,319.4 907.8,319.4 908.9,319.4 910.1,319.4 911.2,319.4 912.4,319.4 913.6,319.4 914.7,319.4 915.9,319.4 917.0,319.4 918.2,319.4 919.4,319.4 920.5,319.4 921.7,319.4 922.8,319.4 924.0,319.4 925.1,319.4 926.3,319.4 927.5,319.4 928.6,319.4 929.8,319.4 930.9,319.4 932.1,319.4 933.3,319.4 934.4,319.4 935.6,319.4 936.7,319.4 937.9,319.4 939.0,319.4 940.2,319.4 941.4,319.4 942.5,319.4 943.7,319.4 944.8,319.4 946.0,264.1" fill="none" stroke="#2563eb" stroke-width="2.2" stroke-linejoin="round" stroke-linecap="round"/>
<polyline points="76.0,263.8 77.2,259.8 78.3,250.4 79.5,248.2 80.6,251.9 81.8,241.2 83.0,240.6 84.1,244.5 85.3,249.4 86.4,249.0 87.6,265.7 88.7,247.0 89.9,246.2 91.1,247.8 92.2,252.0 93.4,260.4 94.5,257.5 95.7,255.1 96.9,252.6 98.0,257.6 99.2,262.5 100.3,258.5 101.5,256.6 102.6,256.2 103.8,250.2 105.0,248.6 106.1,250.7 107.3,242.0 108.4,233.4 109.6,242.1 110.8,244.5 111.9,258.3 113.1,252.0 114.2,251.6 115.4,256.2 116.5,251.5 117.7,248.3 118.9,254.4 120.0,248.1 121.2,247.9 122.3,245.6 123.5,262.9 124.7,259.2 125.8,255.1 127.0,220.6 128.1,223.1 129.3,256.3 130.4,252.2 131.6,238.2 132.8,220.1 133.9,240.8 135.1,252.1 136.2,244.9 137.4,243.0 138.6,244.8 139.7,247.7 140.9,245.3 142.0,250.9 143.2,242.2 144.3,247.9 145.5,239.7 146.7,246.3 147.8,244.9 149.0,286.3 150.1,271.1 151.3,263.3 152.5,271.2 153.6,268.1 154.8,239.4 155.9,234.7 157.1,244.4 158.3,260.9 159.4,273.5 160.6,247.0 161.7,246.4 162.9,249.0 164.0,262.1 165.2,251.3 166.4,260.1 167.5,246.8 168.7,241.4 169.8,254.9 171.0,250.8 172.2,255.6 173.3,256.7 174.5,255.0 175.6,263.0 176.8,252.4 177.9,252.4 179.1,254.7 180.3,250.9 181.4,269.3 182.6,232.3 183.7,256.8 184.9,252.0 186.1,219.0 187.2,257.5 188.4,246.2 189.5,248.8 190.7,227.7 191.8,247.1 193.0,249.3 194.2,241.9 195.3,250.4 196.5,244.5 197.6,251.1 198.8,245.3 200.0,243.7 201.1,243.6 202.3,249.1 203.4,246.3 204.6,252.8 205.7,238.7 206.9,252.4 208.1,253.6 209.2,251.9 210.4,220.8 211.5,204.2 212.7,215.5 213.9,216.5 215.0,216.0 216.2,225.7 217.3,221.1 218.5,216.7 219.6,244.5 220.8,247.3 222.0,242.8 223.1,244.1 224.3,243.1 225.4,242.6 226.6,243.6 227.8,245.5 228.9,244.3 230.1,246.0 231.2,250.7 232.4,246.0 233.5,259.2 234.7,258.8 235.9,249.1 237.0,264.3 238.2,291.5 239.3,255.2 240.5,269.3 241.7,256.6 242.8,254.3 244.0,254.6 245.1,251.7 246.3,252.8 247.5,246.2 248.6,252.1 249.8,245.2 250.9,243.3 252.1,241.6 253.2,243.6 254.4,252.4 255.6,265.1 256.7,248.1 257.9,253.2 259.0,251.9 260.2,254.1 261.4,254.4 262.5,259.6 263.7,261.8 264.8,260.1 266.0,293.3 267.1,256.7 268.3,271.3 269.5,237.1 270.6,253.1 271.8,246.0 272.9,250.0 274.1,241.4 275.3,243.6 276.4,249.7 277.6,244.0 278.7,237.5 279.9,246.6 281.0,248.4 282.2,242.3 283.4,246.1 284.5,246.0 285.7,247.8 286.8,248.8 288.0,252.7 289.2,254.2 290.3,260.1 291.5,264.5 292.6,253.2 293.8,286.7 294.9,252.7 296.1,256.1 297.3,251.6 298.4,250.7 299.6,243.9 300.7,243.3 301.9,243.1 303.1,241.9 304.2,248.3 305.4,249.0 306.5,259.9 307.7,258.3 308.8,254.7 310.0,251.1 311.2,256.8 312.3,248.5 313.5,254.5 314.6,246.8 315.8,254.4 317.0,259.1 318.1,262.4 319.3,260.0 320.4,267.3 321.6,298.8 322.8,261.0 323.9,261.3 325.1,259.6 326.2,258.8 327.4,250.5 328.5,248.9 329.7,246.8 330.9,253.3 332.0,249.8 333.2,246.3 334.3,246.4 335.5,242.1 336.7,249.1 337.8,241.2 339.0,242.3 340.1,241.8 341.3,256.8 342.4,256.5 343.6,255.1 344.8,260.4 345.9,274.4 347.1,258.9 348.2,261.6 349.4,259.2 350.6,253.3 351.7,232.8 352.9,220.4 354.0,258.6 355.2,246.0 356.3,229.0 357.5,225.3 358.7,224.9 359.8,224.6 361.0,223.5 362.1,240.2 363.3,232.6 364.5,236.1 365.6,236.9 366.8,246.6 367.9,257.8 369.1,267.5 370.2,246.1 371.4,285.0 372.6,251.1 373.7,266.2 374.9,257.9 376.0,259.5 377.2,267.0 378.4,250.5 379.5,210.5 380.7,221.4 381.8,223.8 383.0,226.5 384.1,215.9 385.3,228.2 386.5,222.8 387.6,209.7 388.8,242.9 389.9,240.7 391.1,249.9 392.3,252.4 393.4,248.4 394.6,244.6 395.7,253.6 396.9,251.2 398.1,249.7 399.2,268.5 400.4,253.2 401.5,248.6 402.7,260.0 403.8,228.0 405.0,212.1 406.2,217.6 407.3,256.8 408.5,252.5 409.6,246.3 410.8,271.4 412.0,240.3 413.1,245.7 414.3,244.2 415.4,251.7 416.6,233.3 417.7,243.7 418.9,245.6 420.1,266.5 421.2,240.1 422.4,245.6 423.5,243.7 424.7,248.8 425.9,247.7 427.0,264.7 428.2,251.8 429.3,259.2 430.5,255.7 431.6,252.7 432.8,266.1 434.0,253.6 435.1,260.2 436.3,264.9 437.4,254.9 438.6,230.9 439.8,225.0 440.9,258.9 442.1,246.7 443.2,253.8 444.4,256.5 445.5,249.0 446.7,252.1 447.9,251.1 449.0,249.4 450.2,246.3 451.3,266.1 452.5,264.1 453.7,259.3 454.8,263.4 456.0,260.0 457.1,284.9 458.3,277.7 459.4,274.2 460.6,277.7 461.8,283.9 462.9,283.7 464.1,278.9 465.2,282.8 466.4,284.7 467.6,279.6 468.7,277.2 469.9,266.8 471.0,252.1 472.2,260.7 473.4,274.5 474.5,262.1 475.7,264.5 476.8,258.8 478.0,266.7 479.1,263.3 480.3,263.1 481.5,263.1 482.6,255.3 483.8,263.8 484.9,258.4 486.1,262.5 487.3,250.5 488.4,255.9 489.6,261.7 490.7,263.8 491.9,264.8 493.0,260.3 494.2,259.5 495.4,253.3 496.5,252.5 497.7,255.4 498.8,234.5 500.0,247.7 501.2,260.0 502.3,248.4 503.5,245.3 504.6,250.6 505.8,252.4 506.9,254.2 508.1,253.7 509.3,255.5 510.4,256.1 511.6,252.1 512.7,263.0 513.9,261.6 515.1,266.7 516.2,261.3 517.4,266.5 518.5,258.3 519.7,254.9 520.8,262.6 522.0,245.2 523.2,254.1 524.3,246.6 525.5,250.2 526.6,236.0 527.8,244.0 529.0,249.1 530.1,256.7 531.3,237.2 532.4,252.0 533.6,237.6 534.7,243.5 535.9,248.7 537.1,247.1 538.2,247.8 539.4,246.5 540.5,254.2 541.7,267.2 542.9,258.9 544.0,215.3 545.2,221.8 546.3,217.9 547.5,232.4 548.6,221.6 549.8,222.1 551.0,229.8 552.1,251.2 553.3,249.0 554.4,235.2 555.6,246.9 556.8,246.0 557.9,253.9 559.1,246.9 560.2,248.4 561.4,249.2 562.6,248.6 563.7,240.0 564.9,241.8 566.0,252.9 567.2,253.8 568.3,252.9 569.5,260.5 570.7,249.5 571.8,256.6 573.0,256.6 574.1,257.2 575.3,253.6 576.5,251.4 577.6,248.4 578.8,236.1 579.9,258.7 581.1,240.3 582.2,218.3 583.4,245.7 584.6,244.2 585.7,248.3 586.9,249.5 588.0,246.5 589.2,245.5 590.4,248.9 591.5,252.0 592.7,249.8 593.8,253.3 595.0,250.7 596.1,253.3 597.3,259.5 598.5,261.8 599.6,240.4 600.8,263.7 601.9,269.2 603.1,272.1 604.3,254.1 605.4,250.4 606.6,257.8 607.7,243.3 608.9,245.6 610.0,236.8 611.2,246.8 612.4,253.1 613.5,241.4 614.7,235.3 615.8,239.9 617.0,242.8 618.2,236.0 619.3,253.6 620.5,245.9 621.6,245.2 622.8,263.3 623.9,306.8 625.1,250.9 626.3,246.7 627.4,259.9 628.6,256.9 629.7,254.1 630.9,257.3 632.1,246.1 633.2,243.2 634.4,241.8 635.5,243.8 636.7,249.5 637.9,241.9 639.0,238.2 640.2,243.0 641.3,240.7 642.5,237.4 643.6,242.4 644.8,247.9 646.0,244.4 647.1,246.7 648.3,249.9 649.4,239.5 650.6,252.6 651.8,250.3 652.9,277.4 654.1,260.7 655.2,251.9 656.4,270.5 657.5,252.5 658.7,255.3 659.9,254.9 661.0,249.4 662.2,238.9 663.3,247.7 664.5,248.0 665.7,246.1 666.8,247.1 668.0,237.3 669.1,241.1 670.3,240.8 671.4,266.2 672.6,244.4 673.8,245.6 674.9,240.9 676.1,251.6 677.2,253.0 678.4,261.3 679.6,246.5 680.7,264.8 681.9,249.5 683.0,263.9 684.2,267.0 685.3,249.1 686.5,255.3 687.7,248.2 688.8,253.3 690.0,247.3 691.1,252.2 692.3,246.3 693.5,242.7 694.6,238.2 695.8,252.5 696.9,247.0 698.1,240.6 699.2,239.7 700.4,246.4 701.6,248.3 702.7,255.5 703.9,237.7 705.0,252.1 706.2,252.9 707.4,256.6 708.5,261.8 709.7,261.8 710.8,257.8 712.0,249.5 713.2,251.9 714.3,259.6 715.5,252.9 716.6,248.8 717.8,242.9 718.9,236.8 720.1,241.2 721.3,242.3 722.4,244.0 723.6,251.0 724.7,252.4 725.9,249.1 727.1,248.1 728.2,244.7 729.4,248.8 730.5,251.6 731.7,244.6 732.8,250.4 734.0,258.8 735.2,257.4 736.3,267.1 737.5,254.2 738.6,258.3 739.8,255.9 741.0,264.9 742.1,256.6 743.3,244.4 744.4,247.3 745.6,237.1 746.7,244.3 747.9,248.6 749.1,233.0 750.2,246.1 751.4,242.0 752.5,246.3 753.7,245.3 754.9,246.6 756.0,245.8 757.2,238.7 758.3,244.7 759.5,241.4 760.6,258.6 761.8,257.3 763.0,257.7 764.1,258.2 765.3,258.2 766.4,264.1 767.6,257.8 768.8,256.5 769.9,257.1 771.1,253.2 772.2,270.9 773.4,255.4 774.5,247.0 775.7,250.9 776.9,238.2 778.0,241.5 779.2,247.0 780.3,255.5 781.5,251.8 782.7,251.9 783.8,253.8 785.0,244.6 786.1,251.9 787.3,252.9 788.5,265.6 789.6,264.0 790.8,263.3 791.9,259.9 793.1,265.7 794.2,256.8 795.4,264.3 796.6,254.6 797.7,257.9 798.9,253.5 800.0,256.3 801.2,253.6 802.4,247.7 803.5,249.8 804.7,242.6 805.8,243.1 807.0,249.9 808.1,251.9 809.3,246.2 810.5,248.8 811.6,247.6 812.8,253.2 813.9,249.5 815.1,257.6 816.3,254.4 817.4,256.6 818.6,261.3 819.7,252.7 820.9,254.7 822.0,265.6 823.2,256.3 824.4,264.6 825.5,249.4 826.7,253.2 827.8,251.8 829.0,254.1 830.2,245.8 831.3,254.0 832.5,245.5 833.6,249.3 834.8,252.8 835.9,246.9 837.1,247.0 838.3,262.2 839.4,256.5 840.6,252.8 841.7,252.4 842.9,255.2 844.1,256.0 845.2,256.0 846.4,267.0 847.5,249.1 848.7,273.2 849.8,255.3 851.0,258.3 852.2,259.3 853.3,244.1 854.5,252.2 855.6,253.0 856.8,252.1 858.0,252.9 859.1,267.6 860.3,261.3 861.4,244.3 862.6,246.8 863.7,347.1 864.9,342.5 866.1,342.9 867.2,340.6 868.4,341.6 869.5,346.5 870.7,345.4 871.9,344.8 873.0,344.6 874.2,345.4 875.3,343.1 876.5,342.5 877.7,343.8 878.8,343.0 880.0,346.9 881.1,342.4 882.3,351.6 883.4,341.8 884.6,344.2 885.8,341.8 886.9,341.6 888.1,342.6 889.2,341.0 890.4,344.8 891.6,344.8 892.7,342.2 893.9,343.7 895.0,342.7 896.2,343.4 897.3,341.5 898.5,345.8 899.7,339.6 900.8,342.2 902.0,344.1 903.1,344.4 904.3,343.8 905.5,346.7 906.6,344.3 907.8,344.4 908.9,342.1 910.1,343.1 911.2,341.1 912.4,342.8 913.6,343.0 914.7,342.5 915.9,343.6 917.0,340.7 918.2,341.1 919.4,341.9 920.5,342.4 921.7,337.3 922.8,337.0 924.0,336.2 925.1,341.8 926.3,341.9 927.5,341.8 928.6,341.1 929.8,343.6 930.9,343.0 932.1,343.6 933.3,344.6 934.4,343.6 935.6,342.1 936.7,336.4 937.9,341.4 939.0,342.1 940.2,341.9 941.4,339.7 942.5,340.8 943.7,340.2 944.8,348.0 946.0,314.1" fill="none" stroke="#7c3aed" stroke-width="2.2" stroke-linejoin="round" stroke-linecap="round"/>
<line x1="76" y1="70" x2="94" y2="70" stroke="#2563eb" stroke-width="3"/>
<text x="100" y="74" font-family="Arial, sans-serif" font-size="11" fill="#0f172a">tx count</text>
<line x1="186" y1="70" x2="204" y2="70" stroke="#7c3aed" stroke-width="3"/>
<text x="210" y="74" font-family="Arial, sans-serif" font-size="11" fill="#0f172a">unique accounts</text>
<text x="28" y="404" font-family="Arial, sans-serif" font-size="11" fill="#64748b">Source: hourly_features.csv; capped windows are sample counts</text>
</svg>