<svg xmlns="http://www.w3.org/2000/svg" width="980" height="420" viewBox="0 0 980 420">
<rect width="100%" height="100%" fill="#ffffff"/>
<text x="28" y="34" font-family="Arial, sans-serif" font-size="20" font-weight="700" fill="#0f172a">Network activity sample trend</text>
<text x="28" y="56" font-family="Arial, sans-serif" font-size="12" fill="#64748b">Hourly transaction sample count and unique account sample count</text>
<line x1="76" y1="362.0" x2="946" y2="362.0" stroke="#e2e8f0" stroke-width="1"/>
<text x="68" y="366.0" font-family="Arial, sans-serif" font-size="10" text-anchor="end" fill="#64748b">220</text>
<line x1="76" y1="292.0" x2="946" y2="292.0" stroke="#e2e8f0" stroke-width="1"/>
<text x="68" y="296.0" font-family="Arial, sans-serif" font-size="10" text-anchor="end" fill="#64748b">1K</text>
<line x1="76" y1="222.0" x2="946" y2="222.0" stroke="#e2e8f0" stroke-width="1"/>
<text x="68" y="226.0" font-family="Arial, sans-serif" font-size="10" text-anchor="end" fill="#64748b">3K</text>
<line x1="76" y1="152.0" x2="946" y2="152.0" stroke="#e2e8f0" stroke-width="1"/>
<text x="68" y="156.0" font-family="Arial, sans-serif" font-size="10" text-anchor="end" fill="#64748b">4K</text>
<line x1="76" y1="82.0" x2="946" y2="82.0" stroke="#e2e8f0" stroke-width="1"/>
<text x="68" y="86.0" font-family="Arial, sans-serif" font-size="10" text-anchor="end" fill="#64748b">5K</text>
<line x1="76" y1="362" x2="946" y2="362" stroke="#334155" stroke-width="1"/>
<line x1="76" y1="82" x2="76" y2="362" stroke="#334155" stroke-width="1"/>
<text x="76" y="72" font-family="Arial, sans-serif" font-size="11" fill="#64748b">count</text>
<line x1="76.0" y1="362" x2="76.0" y2="366" stroke="#334155" stroke-width="1"/>
<text x="76.0" y="380" font-family="Arial, sans-serif" font-size="10" text-anchor="middle" fill="#64748b">0</text>
<line x1="511.5" y1="362" x2="511.5" y2="366" stroke="#334155" stroke-width="1"/>
<text x="511.5" y="380" font-family="Arial, sans-serif" font-size="10" text-anchor="middle" fill="#64748b">416</text>
<line x1="946.0" y1="362" x2="946.0" y2="366" stroke="#334155" stroke-width="1"/>
<text x="946.0" y="380" font-family="Arial, sans-serif" font-size="10" text-anchor="middle" fill="#64748b">831</text>
<polyline points="76.0,92.4 77.0,92.4 78.1,92.4 79.1,92.4 80.2,92.4 81.2,92.4 82.3,92.4 83.3,92.4 84.4,92.4 85.4,92.4 86.5,92.4 87.5,92.4 88.6,92.4 89.6,92.4 90.7,92.4 91.7,92.4 92.8,92.4 93.8,92.4 94.8,92.4 95.9,92.4 96.9,92.4 98.0,92.4 99.0,92.4 100.1,92.4 101.1,92.4 102.2,92.4 103.2,92.4 104.3,92.4 105.3,92.4 106.4,92.4 107.4,92.4 108.5,92.4 109.5,92.4 110.5,92.4 111.6,92.4 112.6,92.4 113.7,92.4 114.7,92.4 115.8,92.4 116.8,92.4 117.9,92.4 118.9,92.4 120.0,92.4 121.0,92.4 122.1,92.4 123.1,92.4 124.2,92.4 125.2,92.4 126.3,92.4 127.3,92.4 128.3,92.4 129.4,92.4 130.4,92.4 131.5,92.4 132.5,92.4 133.6,92.4 134.6,92.4 135.7,92.4 136.7,92.4 137.8,92.4 138.8,92.4 139.9,92.4 140.9,92.4 142.0,92.4 143.0,92.4 144.1,92.4 145.1,92.4 146.1,92.4 147.2,92.4 148.2,92.4 149.3,92.4 150.3,92.4 151.4,92.4 152.4,92.4 153.5,92.4 154.5,92.4 155.6,92.4 156.6,92.4 157.7,92.4 158.7,92.4 159.8,92.4 160.8,92.4 161.8,92.4 162.9,92.4 163.9,92.4 165.0,92.4 166.0,92.4 167.1,92.4 168.1,92.4 169.2,92.4 170.2,92.4 171.3,92.4 172.3,92.4 173.4,92.4 174.4,92.4 175.5,92.4 176.5,92.4 177.6,92.4 178.6,92.4 179.6,92.4 180.7,92.4 181.7,92.4 182.8,92.4 183.8,92.4 184.9,92.4 185.9,92.4 187.0,92.4 188.0,92.4 189.1,92.4 190.1,92.4 191.2,92.4 192.2,92.4 193.3,92.4 194.3,92.4 195.4,92.4 196.4,92.4 197.4,92.4 198.5,92.4 199.5,92.4 200.6,92.4 201.6,92.4 202.7,92.4 203.7,92.4 204.8,92.4 205.8,92.4 206.9,92.4 207.9,92.4 209.0,92.4 210.0,92.4 211.1,92.4 212.1,92.4 213.1,92.4 214.2,92.4 215.2,92.4 216.3,92.4 217.3,92.4 218.4,92.4 219.4,92.4 220.5,92.4 221.5,92.4 222.6,92.4 223.6,92.4 224.7,92.4 225.7,92.4 226.8,92.4 227.8,92.4 228.9,92.4 229.9,92.4 230.9,92.4 232.0,92.4 233.0,92.4 234.1,92.4 235.1,92.4 236.2,92.4 237.2,92.4 238.3,92.4 239.3,92.4 240.4,92.4 241.4,92.4 242.5,92.4 243.5,92.4 244.6,92.4 245.6,92.4 246.6,92.4 247.7,92.4 248.7,92.4 249.8,92.4 250.8,92.4 251.9,92.4 252.9,92.4 254.0,92.4 255.0,92.4 256.1,92.4 257.1,92.4 258.2,92.4 259.2,92.4 260.3,92.4 261.3,92.4 262.4,92.4 263.4,92.4 264.4,92.4 265.5,92.4 266.5,92.4 267.6,92.4 268.6,92.4 269.7,92.4 270.7,92.4 271.8,92.4 272.8,92.4 273.9,92.4 274.9,92.4 276.0,92.4 277.0,92.4 278.1,92.4 279.1,92.4 280.2,92.4 281.2,92.4 282.2,92.4 283.3,92.4 284.3,92.4 285.4,92.4 286.4,92.4 287.5,92.4 288.5,92.4 289.6,92.4 290.6,92.4 291.7,92.4 292.7,92.4 293.8,92.4 294.8,92.4 295.9,92.4 296.9,92.4 297.9,92.4 299.0,92.4 300.0,92.4 301.1,92.4 302.1,92.4 303.2,92.4 304.2,92.4 305.3,92.4 306.3,92.4 307.4,92.4 308.4,92.4 309.5,92.4 310.5,92.4 311.6,92.4 312.6,92.4 313.7,92.4 314.7,92.4 315.7,92.4 316.8,92.4 317.8,92.4 318.9,92.4 319.9,92.4 321.0,92.4 322.0,92.4 323.1,92.4 324.1,92.4 325.2,92.4 326.2,92.4 327.3,92.4 328.3,92.4 329.4,92.4 330.4,92.4 331.5,92.4 332.5,92.4 333.5,92.4 334.6,92.4 335.6,92.4 336.7,92.4 337.7,92.4 338.8,92.4 339.8,92.4 340.9,92.4 341.9,92.4 343.0,92.4 344.0,92.4 345.1,92.4 346.1,92.4 347.2,92.4 348.2,92.4 349.2,92.4 350.3,92.4 351.3,92.4 352.4,92.4 353.4,92.4 354.5,92.4 355.5,92.4 356.6,92.4 357.6,92.4 358.7,92.4 359.7,92.4 360.8,92.4 361.8,92.4 362.9,92.4 363.9,92.4 365.0,92.4 366.0,92.4 367.0,92.4 368.1,92.4 369.1,92.4 370.2,92.4 371.2,92.4 372.3,92.4 373.3,92.4 374.4,92.4 375.4,92.4 376.5,92.4 377.5,92.4 378.6,92.4 379.6,92.4 380.7,92.4 381.7,92.4 382.8,92.4 383.8,92.4 384.8,92.4 385.9,92.4 386.9,92.4 388.0,92.4 389.0,92.4 390.1,92.4 391.1,92.4 392.2,92.4 393.2,92.4 394.3,92.4 395.3,92.4 396.4,92.4 397.4,92.4 398.5,92.4 399.5,92.4 400.5,92.4 401.6,92.4 402.6,92.4 403.7,92.4 404.7,92.4 405.8,92.4 406.8,92.4 407.9,92.4 408.9,92.4 410.0,92.4 411.0,92.4 412.1,92.4 413.1,92.4 414.2,92.4 415.2,92.4 416.3,92.4 417.3,92.4 418.3,92.4 419.4,92.4 420.4,92.4 421.5,92.4 422.5,92.4 423.6,92.4 424.6,92.4 425.7,92.4 426.7,92.4 427.8,92.4 428.8,92.4 429.9,92.4 430.9,92.4 432.0,92.4 433.0,92.4 434.1,92.4 435.1,92.4 436.1,92.4 437.2,92.4 438.2,92.4 439.3,92.4 440.3,92.4 441.4,92.4 442.4,92.4 443.5,92.4 444.5,92.4 445.6,92.4 446.6,92.4 447.7,92.4 448.7,92.4 449.8,92.4 450.8,92.4 451.8,92.4 452.9,92.4 453.9,92.4 455.0,92.4 456.0,92.4 457.1,92.4 458.1,92.4 459.2,92.4 460.2,92.4 461.3,92.4 462.3,92.4 463.4,92.4 464.4,92.4 465.5,92.4 466.5,92.4 467.6,92.4 468.6,92.4 469.6,92.4 470.7,92.4 471.7,92.4 472.8,92.4 473.8,92.4 474.9,92.4 475.9,92.4 477.0,92.4 478.0,92.4 479.1,92.4 480.1,92.4 481.2,92.4 482.2,92.4 483.3,92.4 484.3,92.4 485.4,92.4 486.4,92.4 487.4,92.4 488.5,92.4 489.5,92.4 490.6,92.4 491.6,92.4 492.7,92.4 493.7,92.4 494.8,92.4 495.8,92.4 496.9,92.4 497.9,92.4 499.0,92.4 500.0,92.4 501.1,92.4 502.1,92.4 503.1,92.4 504.2,92.4 505.2,92.4 506.3,92.4 507.3,92.4 508.4,92.4 509.4,92.4 510.5,92.4 511.5,92.4 512.6,92.4 513.6,92.4 514.7,92.4 515.7,92.4 516.8,92.4 517.8,92.4 518.9,92.4 519.9,92.4 520.9,92.4 522.0,92.4 523.0,92.4 524.1,92.4 525.1,92.4 526.2,92.4 527.2,92.4 528.3,92.4 529.3,92.4 530.4,92.4 531.4,92.4 532.5,92.4 533.5,92.4 534.6,92.4 535.6,92.4 536.6,92.4 537.7,92.4 538.7,92.4 539.8,92.4 540.8,92.4 541.9,92.4 542.9,92.4 544.0,92.4 545.0,92.4 546.1,92.4 547.1,92.4 548.2,92.4 549.2,92.4 550.3,92.4 551.3,92.4 552.4,92.4 553.4,92.4 554.4,92.4 555.5,92.4 556.5,92.4 557.6,92.4 558.6,92.4 559.7,92.4 560.7,92.4 561.8,92.4 562.8,92.4 563.9,92.4 564.9,92.4 566.0,92.4 567.0,92.4 568.1,92.4 569.1,92.4 570.2,92.4 571.2,92.4 572.2,92.4 573.3,92.4 574.3,92.4 575.4,92.4 576.4,92.4 577.5,92.4 578.5,92.4 579.6,92.4 580.6,92.4 581.7,92.4 582.7,92.4 583.8,92.4 584.8,92.4 585.9,92.4 586.9,92.4 587.9,92.4 589.0,92.4 590.0,92.4 591.1,92.4 592.1,92.4 593.2,92.4 594.2,92.4 595.3,92.4 596.3,92.4 597.4,92.4 598.4,92.4 599.5,92.4 600.5,92.4 601.6,92.4 602.6,92.4 603.7,92.4 604.7,92.4 605.7,92.4 606.8,92.4 607.8,92.4 608.9,92.4 609.9,92.4 611.0,92.4 612.0,92.4 613.1,92.4 614.1,92.4 615.2,92.4 616.2,92.4 617.3,92.4 618.3,92.4 619.4,92.4 620.4,92.4 621.5,92.4 622.5,92.4 623.5,92.4 624.6,92.4 625.6,92.4 626.7,92.4 627.7,92.4 628.8,92.4 629.8,92.4 630.9,92.4 631.9,92.4 633.0,92.4 634.0,92.4 635.1,92.4 636.1,92.4 637.2,92.4 638.2,92.4 639.2,92.4 640.3,92.4 641.3,92.4 642.4,92.4 643.4,92.4 644.5,92.4 645.5,92.4 646.6,92.4 647.6,92.4 648.7,92.4 649.7,92.4 650.8,92.4 651.8,92.4 652.9,92.4 653.9,92.4 655.0,92.4 656.0,92.4 657.0,92.4 658.1,92.4 659.1,92.4 660.2,92.4 661.2,92.4 662.3,92.4 663.3,92.4 664.4,92.4 665.4,92.4 666.5,92.4 667.5,92.4 668.6,92.4 669.6,92.4 670.7,92.4 671.7,92.4 672.8,92.4 673.8,92.4 674.8,92.4 675.9,92.4 676.9,92.4 678.0,92.4 679.0,92.4 680.1,92.4 681.1,92.4 682.2,92.4 683.2,92.4 684.3,92.4 685.3,92.4 686.4,92.4 687.4,92.4 688.5,92.4 689.5,92.4 690.5,92.4 691.6,92.4 692.6,92.4 693.7,92.4 694.7,92.4 695.8,92.4 696.8,92.4 697.9,92.4 698.9,92.4 700.0,92.4 701.0,92.4 702.1,92.4 703.1,92.4 704.2,92.4 705.2,92.4 706.3,92.4 707.3,92.4 708.3,92.4 709.4,92.4 710.4,92.4 711.5,92.4 712.5,92.4 713.6,92.4 714.6,92.4 715.7,92.4 716.7,92.4 717.8,92.4 718.8,92.4 719.9,92.4 720.9,92.4 722.0,92.4 723.0,92.4 724.1,92.4 725.1,92.4 726.1,92.4 727.2,92.4 728.2,92.4 729.3,92.4 730.3,92.4 731.4,92.4 732.4,92.4 733.5,92.4 734.5,92.4 735.6,92.4 736.6,92.4 737.7,92.4 738.7,92.4 739.8,92.4 740.8,92.4 741.8,92.4 742.9,92.4 743.9,92.4 745.0,92.4 746.0,92.4 747.1,92.4 748.1,92.4 749.2,92.4 750.2,92.4 751.3,92.4 752.3,92.4 753.4,92.4 754.4,92.4 755.5,92.4 756.5,92.4 757.6,92.4 758.6,92.4 759.6,92.4 760.7,92.4 761.7,92.4 762.8,92.4 763.8,92.4 764.9,92.4 765.9,92.4 767.0,92.4 768.0,92.4 769.1,92.4 770.1,92.4 771.2,92.4 772.2,92.4 773.3,92.4 774.3,92.4 775.4,92.4 776.4,92.4 777.4,92.4 778.5,92.4 779.5,92.4 780.6,92.4 781.6,92.4 782.7,92.4 783.7,92.4 784.8,92.4 785.8,92.4 786.9,92.4 787.9,318.0 789.0,318.0 790.0,318.0 791.1,318.0 792.1,318.0 793.1,318.0 794.2,318.0 795.2,318.0 796.3,318.0 797.3,318.0 798.4,318.0 799.4,318.0 800.5,318.0 801.5,318.0 802.6,318.0 803.6,318.0 804.7,318.0 805.7,318.0 806.8,318.0 807.8,318.0 808.9,318.0 809.9,318.0 810.9,318.0 812.0,318.0 813.0,318.0 814.1,318.0 815.1,318.0 816.2,318.0 817.2,318.0 818.3,318.0 819.3,318.0 820.4,318.0 821.4,318.0 822.5,318.0 823.5,318.0 824.6,318.0 825.6,318.0 826.6,318.0 827.7,318.0 828.7,318.0 829.8,318.0 830.8,318.0 831.9,318.0 832.9,318.0 834.0,318.0 835.0,318.0 836.1,318.0 837.1,318.0 838.2,318.0 839.2,318.0 840.3,318.0 841.3,318.0 842.4,318.0 843.4,318.0 844.4,318.0 845.5,318.0 846.5,318.0 847.6,318.0 848.6,318.0 849.7,318.0 850.7,318.0 851.8,318.0 852.8,318.0 853.9,318.0 854.9,318.0 856.0,318.0 857.0,318.0 858.1,318.0 859.1,318.0 860.2,318.0 861.2,318.0 862.2,207.0 863.3,318.0 864.3,318.0 865.4,318.0 866.4,318.0 867.5,318.0 868.5,263.4 869.6,318.0 870.6,318.0 871.7,263.5 872.7,318.0 873.8,318.0 874.8,318.0 875.9,318.0 876.9,318.0 877.9,318.0 879.0,318.0 880.0,262.2 881.1,263.5 882.1,318.0 883.2,318.0 884.2,318.0 885.3,318.0 886.3,264.6 887.4,318.0 888.4,318.0 889.5,318.0 890.5,318.0 891.6,261.9 892.6,318.0 893.7,318.0 894.7,318.0 895.7,263.1 896.8,318.0 897.8,318.0 898.9,318.0 899.9,318.0 901.0,318.0 902.0,318.0 903.1,318.0 904.1,318.0 905.2,207.5 906.2,318.0 907.3,318.0 908.3,318.0 909.4,262.4 910.4,318.0 911.5,318.0 912.5,318.0 913.5,262.8 914.6,318.0 915.6,318.0 916.7,318.0 917.7,263.0 918.8,318.0 919.8,318.0 920.9,262.3 921.9,318.0 923.0,318.0 924.0,318.0 925.1,318.0 926.1,318.0 927.2,318.0 928.2,318.0 929.2,261.9 930.3,261.7 931.3,318.0 932.4,318.0 933.4,264.0 934.5,318.0 935.5,318.0 936.6,318.0 937.6,261.7 938.7,318.0 939.7,318.0 940.8,262.1 941.8,318.0 942.9,318.0 943.9,261.7 945.0,318.0 946.0,318.0" fill="none" stroke="#2563eb" stroke-width="2.2" stroke-linejoin="round" stroke-linecap="round"/>
<polyline points="76.0,262.8 77.0,258.8 78.1,249.5 79.1,247.2 80.2,250.9 81.2,240.3 82.3,239.7 83.3,243.5 84.4,248.5 85.4,248.0 86.5,264.6 87.5,246.1 88.6,245.2 89.6,246.9 90.7,251.1 91.7,259.3 92.8,256.5 93.8,254.2 94.8,251.6 95.9,256.6 96.9,261.5 98.0,257.5 99.0,255.6 100.1,255.2 101.1,249.2 102.2,247.7 103.2,249.7 104.3,241.1 105.3,232.5 106.4,241.2 107.4,243.5 108.5,257.3 109.5,251.0 110.5,250.7 111.6,255.2 112.6,250.5 113.7,247.4 114.7,253.4 115.8,247.1 116.8,247.0 117.9,244.7 118.9,261.9 120.0,258.2 121.0,254.2 122.1,219.8 123.1,222.3 124.2,255.3 125.2,251.2 126.3,237.3 127.3,219.3 128.3,239.9 129.4,251.2 130.4,243.9 131.5,242.1 132.5,243.9 133.6,246.7 134.6,244.4 135.7,250.0 136.7,241.3 137.8,247.0 138.8,238.8 139.9,245.4 140.9,243.9 142.0,285.1 143.0,270.0 144.1,262.3 145.1,270.1 146.1,267.0 147.2,238.5 148.2,233.8 149.3,243.4 150.3,259.9 151.4,272.4 152.4,246.0 153.5,245.5 154.5,248.1 155.6,261.0 156.6,250.4 157.7,259.1 158.7,245.9 159.8,240.5 160.8,253.9 161.8,249.9 162.9,254.6 163.9,255.7 165.0,254.0 166.0,261.9 167.1,251.4 168.1,251.4 169.2,253.7 170.2,250.0 171.3,268.3 172.3,231.5 173.4,255.8 174.4,251.1 175.5,218.2 176.5,256.5 177.6,245.2 178.6,247.9 179.6,226.9 180.7,246.1 181.7,248.3 182.8,241.0 183.8,249.4 184.9,243.6 185.9,250.1 187.0,244.3 188.0,242.8 189.1,242.6 190.1,248.1 191.2,245.4 192.2,251.8 193.3,237.9 194.3,251.4 195.4,252.6 196.4,250.9 197.4,220.0 198.5,203.6 199.5,214.7 200.6,215.7 201.6,215.3 202.7,224.9 203.7,220.4 204.8,216.0 205.8,243.5 206.9,246.4 207.9,241.9 209.0,243.2 210.0,242.2 211.1,241.7 212.1,242.6 213.1,244.6 214.2,243.4 215.2,245.1 216.3,249.7 217.3,245.1 218.4,258.2 219.4,257.8 220.5,248.2 221.5,263.2 222.6,290.3 223.6,254.2 224.7,268.2 225.7,255.6 226.8,253.3 227.8,253.6 228.9,250.8 229.9,251.8 230.9,245.2 232.0,251.1 233.0,244.3 234.1,242.4 235.1,240.7 236.2,242.6 237.2,251.4 238.3,264.1 239.3,247.2 240.4,252.2 241.4,250.9 242.5,253.1 243.5,253.4 244.6,258.6 245.6,260.8 246.6,259.1 247.7,292.1 248.7,255.7 249.8,270.2 250.8,236.2 251.9,252.1 252.9,245.1 254.0,249.0 255.0,240.5 256.1,242.6 257.1,248.7 258.2,243.1 259.2,236.6 260.3,245.7 261.3,247.5 262.4,241.4 263.4,245.2 264.4,245.0 265.5,246.8 266.5,247.8 267.6,251.7 268.6,253.2 269.7,259.1 270.7,263.5 271.8,252.2 272.8,285.5 273.9,251.7 274.9,255.1 276.0,250.6 277.0,249.8 278.1,242.9 279.1,242.4 280.2,242.2 281.2,241.0 282.2,247.3 283.3,248.1 284.3,258.9 285.4,257.3 286.4,253.8 287.5,250.1 288.5,255.8 289.6,247.6 290.6,253.5 291.7,245.9 292.7,253.4 293.8,258.1 294.8,261.3 295.9,258.9 296.9,266.2 297.9,297.6 299.0,260.0 300.0,260.3 301.1,258.6 302.1,257.8 303.2,249.6 304.2,247.9 305.3,245.9 306.3,252.3 307.4,248.8 308.4,245.4 309.5,245.5 310.5,241.2 311.6,248.2 312.6,240.3 313.7,241.3 314.7,240.9 315.7,255.8 316.8,255.5 317.8,254.2 318.9,259.3 319.9,273.3 321.0,257.9 322.0,260.5 323.1,258.2 324.1,252.3 325.2,232.0 326.2,219.6 327.3,257.6 328.3,245.0 329.4,228.2 330.4,224.5 331.5,224.1 332.5,223.8 333.5,222.7 334.6,239.3 335.6,231.7 336.7,235.3 337.7,236.0 338.8,245.7 339.8,256.8 340.9,266.4 341.9,245.2 343.0,283.8 344.0,250.1 345.1,265.2 346.1,256.9 347.2,258.4 348.2,265.9 349.2,249.6 350.3,209.8 351.3,220.6 352.4,223.0 353.4,225.7 354.5,215.1 355.5,227.4 356.6,222.0 357.6,209.0 358.7,242.0 359.7,239.8 360.8,248.9 361.8,251.4 362.9,247.5 363.9,243.7 365.0,252.6 366.0,250.3 367.0,248.7 368.1,267.5 369.1,252.2 370.2,247.7 371.2,258.9 372.3,227.2 373.3,211.3 374.4,216.8 375.4,255.8 376.5,251.6 377.5,245.4 378.6,270.3 379.6,239.4 380.7,244.7 381.7,243.3 382.8,250.8 383.8,232.4 384.8,242.8 385.9,244.7 386.9,265.4 388.0,239.2 389.0,244.6 390.1,242.8 391.1,247.8 392.2,246.7 393.2,263.6 394.3,250.8 395.3,258.2 396.4,254.7 397.4,251.7 398.5,265.0 399.5,252.6 400.5,259.2 401.6,263.9 402.6,253.9 403.7,230.0 404.7,224.2 405.8,257.9 406.8,245.8 407.9,252.8 408.9,255.5 410.0,248.1 411.0,251.2 412.1,250.1 413.1,248.5 414.2,245.4 415.2,265.0 416.3,263.0 417.3,258.3 418.3,262.4 419.4,259.0 420.4,283.8 421.5,276.5 422.5,273.1 423.6,276.5 424.6,282.7 425.7,282.5 426.7,277.7 427.8,281.6 428.8,283.5 429.9,278.5 430.9,276.0 432.0,265.8 433.0,251.2 434.1,259.6 435.1,273.4 436.1,261.0 437.2,263.4 438.2,257.8 439.3,265.6 440.3,262.2 441.4,262.1 442.4,262.1 443.5,254.3 444.5,262.8 445.6,257.4 446.6,261.5 447.7,249.6 448.7,254.9 449.8,260.6 450.8,262.8 451.8,263.7 452.9,259.3 453.9,258.4 455.0,252.3 456.0,251.5 457.1,254.4 458.1,233.7 459.2,246.8 460.2,259.0 461.3,247.4 462.3,244.3 463.4,249.6 464.4,251.4 465.5,253.2 466.5,252.7 467.6,254.5 468.6,255.1 469.6,251.1 470.7,261.9 471.7,260.5 472.8,265.7 473.8,260.3 474.9,265.4 475.9,257.3 477.0,253.9 478.0,261.6 479.1,244.2 480.1,253.1 481.2,245.6 482.2,249.2 483.3,235.1 484.3,243.1 485.4,248.1 486.4,255.7 487.4,236.3 488.5,251.0 489.5,236.7 490.6,242.5 491.6,247.8 492.7,246.2 493.7,246.8 494.8,245.6 495.8,253.2 496.9,266.1 497.9,257.9 499.0,214.6 500.0,221.0 501.1,217.1 502.1,231.6 503.1,220.8 504.2,221.3 505.2,229.0 506.3,250.2 507.3,248.0 508.4,234.3 509.4,246.0 510.5,245.0 511.5,252.9 512.6,245.9 513.6,247.4 514.7,248.3 515.7,247.7 516.8,239.1 517.8,240.8 518.9,252.0 519.9,252.9 520.9,252.0 522.0,259.5 523.0,248.6 524.1,255.6 525.1,255.6 526.2,256.2 527.2,252.6 528.3,250.4 529.3,247.5 530.4,235.3 531.4,257.7 532.5,239.4 533.5,217.5 534.6,244.7 535.6,243.3 536.6,247.4 537.7,248.5 538.7,245.5 539.8,244.6 540.8,247.9 541.9,251.0 542.9,248.9 544.0,252.3 545.0,249.7 546.1,252.3 547.1,258.4 548.2,260.8 549.2,239.5 550.3,262.6 551.3,268.1 552.4,271.0 553.4,253.1 554.4,249.5 555.5,256.8 556.5,242.4 557.6,244.6 558.6,235.9 559.7,245.9 560.7,252.1 561.8,240.5 562.8,234.4 563.9,239.0 564.9,241.9 566.0,235.1 567.0,252.6 568.1,245.0 569.1,244.3 570.2,262.3 571.2,305.5 572.2,249.9 573.3,245.8 574.3,258.9 575.4,255.9 576.4,253.1 577.5,256.3 578.5,245.1 579.6,242.3 580.6,240.8 581.7,242.9 582.7,248.5 583.8,241.0 584.8,237.3 585.9,242.1 586.9,239.8 587.9,236.5 589.0,241.5 590.0,247.0 591.1,243.4 592.1,245.8 593.2,248.9 594.2,238.6 595.3,251.6 596.3,249.4 597.4,276.3 598.4,259.7 599.5,250.9 600.5,269.4 601.6,251.6 602.6,254.3 603.7,253.9 604.7,248.4 605.7,238.0 606.8,246.8 607.8,247.0 608.9,245.2 609.9,246.2 611.0,236.4 612.0,240.2 613.1,239.9 614.1,265.2 615.2,243.4 616.2,244.6 617.3,240.0 618.3,250.6 619.4,252.1 620.4,260.3 621.5,245.6 622.5,263.7 623.5,248.6 624.6,262.8 625.6,265.9 626.7,248.1 627.7,254.3 628.8,247.2 629.8,252.3 630.9,246.3 631.9,251.2 633.0,245.4 634.0,241.8 635.1,237.3 636.1,251.5 637.2,246.1 638.2,239.7 639.2,238.8 640.3,245.5 641.3,247.4 642.4,254.5 643.4,236.8 644.5,251.2 645.5,251.9 646.6,255.6 647.6,260.8 648.7,260.8 649.7,256.8 650.8,248.6 651.8,250.9 652.9,258.6 653.9,252.0 655.0,247.8 656.0,242.0 657.0,235.9 658.1,240.3 659.1,241.3 660.2,243.0 661.2,250.0 662.3,251.4 663.3,248.2 664.4,247.2 665.4,243.8 666.5,247.8 667.5,250.6 668.6,243.7 669.6,249.4 670.7,257.8 671.7,256.4 672.8,266.0 673.8,253.2 674.8,257.3 675.9,254.9 676.9,263.9 678.0,255.6 679.0,243.4 680.1,246.3 681.1,236.2 682.2,243.4 683.2,247.6 684.3,232.1 685.3,245.1 686.4,241.1 687.4,245.4 688.5,244.3 689.5,245.7 690.5,244.9 691.6,237.9 692.6,243.8 693.7,240.4 694.7,257.6 695.8,256.3 696.8,256.7 697.9,257.1 698.9,257.2 700.0,263.0 701.0,256.8 702.1,255.5 703.1,256.1 704.2,252.2 705.2,269.8 706.3,254.4 707.3,246.0 708.3,249.9 709.4,237.3 710.4,240.6 711.5,246.0 712.5,254.5 713.6,250.8 714.6,250.9 715.7,252.8 716.7,243.7 717.8,250.9 718.8,251.9 719.9,264.5 720.9,263.0 722.0,262.2 723.0,258.8 724.1,264.6 725.1,255.8 726.1,263.3 727.2,253.6 728.2,256.9 729.3,252.5 730.3,255.3 731.4,252.6 732.4,246.8 733.5,248.8 734.5,241.7 735.6,242.1 736.6,248.9 737.7,250.9 738.7,245.3 739.8,247.8 740.8,246.7 741.8,252.2 742.9,248.6 743.9,256.6 745.0,253.4 746.0,255.6 747.1,260.2 748.1,251.7 749.2,253.8 750.2,264.5 751.3,255.3 752.3,263.6 753.4,248.5 754.4,252.2 755.5,250.8 756.5,253.1 757.6,244.8 758.6,253.0 759.6,244.6 760.7,248.3 761.7,251.8 762.8,245.9 763.8,246.0 764.9,261.2 765.9,255.5 767.0,251.8 768.0,251.4 769.1,254.2 770.1,255.0 771.2,255.0 772.2,265.9 773.3,248.1 774.3,272.1 775.4,254.3 776.4,257.3 777.4,258.3 778.5,243.2 779.5,251.2 780.6,252.1 781.6,251.2 782.7,251.9 783.7,266.5 784.8,260.3 785.8,243.4 786.9,245.9 787.9,345.6 789.0,341.0 790.0,341.4 791.1,339.1 792.1,340.1 793.1,345.0 794.2,343.8 795.2,343.3 796.3,343.1 797.3,343.9 798.4,341.5 799.4,341.0 800.5,342.3 801.5,341.5 802.6,345.3 803.6,340.9 804.7,350.1 805.7,340.2 806.8,342.7 807.8,340.3 808.9,340.1 809.9,341.1 810.9,339.5 812.0,343.3 813.0,343.2 814.1,340.7 815.1,342.2 816.2,341.2 817.2,341.9 818.3,340.0 819.3,344.3 820.4,338.1 821.4,340.6 822.5,342.6 823.5,342.9 824.6,342.3 825.6,345.1 826.6,342.7 827.7,342.9 828.7,340.6 829.8,341.6 830.8,339.6 831.9,341.3 832.9,341.5 834.0,341.0 835.0,342.0 836.1,339.2 837.1,339.6 838.2,340.4 839.2,340.9 840.3,335.8 841.3,335.6 842.4,334.7 843.4,340.2 844.4,340.4 845.5,340.3 846.5,339.6 847.6,342.0 848.6,341.5 849.7,342.0 850.7,343.1 851.8,342.0 852.8,340.6 853.9,334.9 854.9,339.8 856.0,340.6 857.0,340.3 858.1,338.2 859.1,339.3 860.2,338.7 861.2,346.4 862.2,288.7 863.3,339.1 864.3,340.3 865.4,342.0 866.4,341.7 867.5,339.6 868.5,312.1 869.6,343.5 870.6,342.2 871.7,322.7 872.7,348.9 873.8,344.5 874.8,342.6 875.9,342.4 876.9,337.4 877.9,336.7 879.0,331.5 880.0,316.9 881.1,313.8 882.1,336.5 883.2,339.3 884.2,351.6 885.3,341.7 886.3,317.1 887.4,341.6 888.4,334.3 889.5,338.9 890.5,348.0 891.6,317.1 892.6,340.6 893.7,341.7 894.7,340.6 895.7,319.1 896.8,347.2 897.8,345.5 898.9,345.7 899.9,345.8 901.0,345.1 902.0,346.2 903.1,346.7 904.1,351.1 905.2,313.1 906.2,349.0 907.3,346.7 908.3,345.7 909.4,319.3 910.4,345.8 911.5,339.2 912.5,344.5 913.5,321.3 914.6,341.8 915.6,345.7 916.7,343.1 917.7,324.3 918.8,350.6 919.8,345.0 920.9,326.2 921.9,345.3 923.0,345.4 924.0,344.2 925.1,342.9 926.1,345.7 927.2,345.4 928.2,343.6 929.2,320.0 930.3,320.0 931.3,347.3 932.4,343.8 933.4,316.3 934.5,341.6 935.5,340.2 936.6,341.8 937.6,296.9 938.7,344.3 939.7,343.9 940.8,315.0 941.8,347.3 942.9,342.9 943.9,322.7 945.0,347.9 946.0,343.1" fill="none" stroke="#7c3aed" stroke-width="2.2" stroke-linejoin="round" stroke-linecap="round"/>
<line x1="76" y1="70" x2="94" y2="70" stroke="#2563eb" stroke-width="3"/>
<text x="100" y="74" font-family="Arial, sans-serif" font-size="11" fill="#0f172a">tx count</text>
<line x1="186" y1="70" x2="204" y2="70" stroke="#7c3aed" stroke-width="3"/>
<text x="210" y="74" font-family="Arial, sans-serif" font-size="11" fill="#0f172a">unique accounts</text>
<text x="28" y="404" font-family="Arial, sans-serif" font-size="11" fill="#64748b">Source: hourly_features.csv; capped windows are sample counts</text>
</svg>