<svg xmlns="http://www.w3.org/2000/svg" width="980" height="420" viewBox="0 0 980 420">
<rect width="100%" height="100%" fill="#ffffff"/>
<text x="28" y="34" font-family="Arial, sans-serif" font-size="20" font-weight="700" fill="#0f172a">Network activity sample trend</text>
<text x="28" y="56" font-family="Arial, sans-serif" font-size="12" fill="#64748b">Hourly transaction sample count and unique account sample count</text>
<line x1="76" y1="362.0" x2="946" y2="362.0" stroke="#e2e8f0" stroke-width="1"/>
<text x="68" y="366.0" font-family="Arial, sans-serif" font-size="10" text-anchor="end" fill="#64748b">153</text>
<line x1="76" y1="292.0" x2="946" y2="292.0" stroke="#e2e8f0" stroke-width="1"/>
<text x="68" y="296.0" font-family="Arial, sans-serif" font-size="10" text-anchor="end" fill="#64748b">1K</text>
<line x1="76" y1="222.0" x2="946" y2="222.0" stroke="#e2e8f0" stroke-width="1"/>
<text x="68" y="226.0" font-family="Arial, sans-serif" font-size="10" text-anchor="end" fill="#64748b">3K</text>
<line x1="76" y1="152.0" x2="946" y2="152.0" stroke="#e2e8f0" stroke-width="1"/>
<text x="68" y="156.0" font-family="Arial, sans-serif" font-size="10" text-anchor="end" fill="#64748b">4K</text>
<line x1="76" y1="82.0" x2="946" y2="82.0" stroke="#e2e8f0" stroke-width="1"/>
<text x="68" y="86.0" font-family="Arial, sans-serif" font-size="10" text-anchor="end" fill="#64748b">5K</text>
<line x1="76" y1="362" x2="946" y2="362" stroke="#334155" stroke-width="1"/>
<line x1="76" y1="82" x2="76" y2="362" stroke="#334155" stroke-width="1"/>
<text x="76" y="72" font-family="Arial, sans-serif" font-size="11" fill="#64748b">count</text>
<line x1="76.0" y1="362" x2="76.0" y2="366" stroke="#334155" stroke-width="1"/>
<text x="76.0" y="380" font-family="Arial, sans-serif" font-size="10" text-anchor="middle" fill="#64748b">0</text>
<line x1="511.5" y1="362" x2="511.5" y2="366" stroke="#334155" stroke-width="1"/>
<text x="511.5" y="380" font-family="Arial, sans-serif" font-size="10" text-anchor="middle" fill="#64748b">445</text>
<line x1="946.0" y1="362" x2="946.0" y2="366" stroke="#334155" stroke-width="1"/>
<text x="946.0" y="380" font-family="Arial, sans-serif" font-size="10" text-anchor="middle" fill="#64748b">889</text>
<polyline points="76.0,92.4 77.0,92.4 78.0,92.4 78.9,92.4 79.9,92.4 80.9,92.4 81.9,92.4 82.9,92.4 83.8,92.4 84.8,92.4 85.8,92.4 86.8,92.4 87.7,92.4 88.7,92.4 89.7,92.4 90.7,92.4 91.7,92.4 92.6,92.4 93.6,92.4 94.6,92.4 95.6,92.4 96.6,92.4 97.5,92.4 98.5,92.4 99.5,92.4 100.5,92.4 101.4,92.4 102.4,92.4 103.4,92.4 104.4,92.4 105.4,92.4 106.3,92.4 107.3,92.4 108.3,92.4 109.3,92.4 110.3,92.4 111.2,92.4 112.2,92.4 113.2,92.4 114.2,92.4 115.1,92.4 116.1,92.4 117.1,92.4 118.1,92.4 119.1,92.4 120.0,92.4 121.0,92.4 122.0,92.4 123.0,92.4 124.0,92.4 124.9,92.4 125.9,92.4 126.9,92.4 127.9,92.4 128.8,92.4 129.8,92.4 130.8,92.4 131.8,92.4 132.8,92.4 133.7,92.4 134.7,92.4 135.7,92.4 136.7,92.4 137.7,92.4 138.6,92.4 139.6,92.4 140.6,92.4 141.6,92.4 142.5,92.4 143.5,92.4 144.5,92.4 145.5,92.4 146.5,92.4 147.4,92.4 148.4,92.4 149.4,92.4 150.4,92.4 151.4,92.4 152.3,92.4 153.3,92.4 154.3,92.4 155.3,92.4 156.2,92.4 157.2,92.4 158.2,92.4 159.2,92.4 160.2,92.4 161.1,92.4 162.1,92.4 163.1,92.4 164.1,92.4 165.1,92.4 166.0,92.4 167.0,92.4 168.0,92.4 169.0,92.4 169.9,92.4 170.9,92.4 171.9,92.4 172.9,92.4 173.9,92.4 174.8,92.4 175.8,92.4 176.8,92.4 177.8,92.4 178.8,92.4 179.7,92.4 180.7,92.4 181.7,92.4 182.7,92.4 183.6,92.4 184.6,92.4 185.6,92.4 186.6,92.4 187.6,92.4 188.5,92.4 189.5,92.4 190.5,92.4 191.5,92.4 192.5,92.4 193.4,92.4 194.4,92.4 195.4,92.4 196.4,92.4 197.3,92.4 198.3,92.4 199.3,92.4 200.3,92.4 201.3,92.4 202.2,92.4 203.2,92.4 204.2,92.4 205.2,92.4 206.2,92.4 207.1,92.4 208.1,92.4 209.1,92.4 210.1,92.4 211.1,92.4 212.0,92.4 213.0,92.4 214.0,92.4 215.0,92.4 215.9,92.4 216.9,92.4 217.9,92.4 218.9,92.4 219.9,92.4 220.8,92.4 221.8,92.4 222.8,92.4 223.8,92.4 224.8,92.4 225.7,92.4 226.7,92.4 227.7,92.4 228.7,92.4 229.6,92.4 230.6,92.4 231.6,92.4 232.6,92.4 233.6,92.4 234.5,92.4 235.5,92.4 236.5,92.4 237.5,92.4 238.5,92.4 239.4,92.4 240.4,92.4 241.4,92.4 242.4,92.4 243.3,92.4 244.3,92.4 245.3,92.4 246.3,92.4 247.3,92.4 248.2,92.4 249.2,92.4 250.2,92.4 251.2,92.4 252.2,92.4 253.1,92.4 254.1,92.4 255.1,92.4 256.1,92.4 257.0,92.4 258.0,92.4 259.0,92.4 260.0,92.4 261.0,92.4 261.9,92.4 262.9,92.4 263.9,92.4 264.9,92.4 265.9,92.4 266.8,92.4 267.8,92.4 268.8,92.4 269.8,92.4 270.7,92.4 271.7,92.4 272.7,92.4 273.7,92.4 274.7,92.4 275.6,92.4 276.6,92.4 277.6,92.4 278.6,92.4 279.6,92.4 280.5,92.4 281.5,92.4 282.5,92.4 283.5,92.4 284.4,92.4 285.4,92.4 286.4,92.4 287.4,92.4 288.4,92.4 289.3,92.4 290.3,92.4 291.3,92.4 292.3,92.4 293.3,92.4 294.2,92.4 295.2,92.4 296.2,92.4 297.2,92.4 298.1,92.4 299.1,92.4 300.1,92.4 301.1,92.4 302.1,92.4 303.0,92.4 304.0,92.4 305.0,92.4 306.0,92.4 307.0,92.4 307.9,92.4 308.9,92.4 309.9,92.4 310.9,92.4 311.8,92.4 312.8,92.4 313.8,92.4 314.8,92.4 315.8,92.4 316.7,92.4 317.7,92.4 318.7,92.4 319.7,92.4 320.7,92.4 321.6,92.4 322.6,92.4 323.6,92.4 324.6,92.4 325.6,92.4 326.5,92.4 327.5,92.4 328.5,92.4 329.5,92.4 330.4,92.4 331.4,92.4 332.4,92.4 333.4,92.4 334.4,92.4 335.3,92.4 336.3,92.4 337.3,92.4 338.3,92.4 339.3,92.4 340.2,92.4 341.2,92.4 342.2,92.4 343.2,92.4 344.1,92.4 345.1,92.4 346.1,92.4 347.1,92.4 348.1,92.4 349.0,92.4 350.0,92.4 351.0,92.4 352.0,92.4 353.0,92.4 353.9,92.4 354.9,92.4 355.9,92.4 356.9,92.4 357.8,92.4 358.8,92.4 359.8,92.4 360.8,92.4 361.8,92.4 362.7,92.4 363.7,92.4 364.7,92.4 365.7,92.4 366.7,92.4 367.6,92.4 368.6,92.4 369.6,92.4 370.6,92.4 371.5,92.4 372.5,92.4 373.5,92.4 374.5,92.4 375.5,92.4 376.4,92.4 377.4,92.4 378.4,92.4 379.4,92.4 380.4,92.4 381.3,92.4 382.3,92.4 383.3,92.4 384.3,92.4 385.2,92.4 386.2,92.4 387.2,92.4 388.2,92.4 389.2,92.4 390.1,92.4 391.1,92.4 392.1,92.4 393.1,92.4 394.1,92.4 395.0,92.4 396.0,92.4 397.0,92.4 398.0,92.4 398.9,92.4 399.9,92.4 400.9,92.4 401.9,92.4 402.9,92.4 403.8,92.4 404.8,92.4 405.8,92.4 406.8,92.4 407.8,92.4 408.7,92.4 409.7,92.4 410.7,92.4 411.7,92.4 412.6,92.4 413.6,92.4 414.6,92.4 415.6,92.4 416.6,92.4 417.5,92.4 418.5,92.4 419.5,92.4 420.5,92.4 421.5,92.4 422.4,92.4 423.4,92.4 424.4,92.4 425.4,92.4 426.3,92.4 427.3,92.4 428.3,92.4 429.3,92.4 430.3,92.4 431.2,92.4 432.2,92.4 433.2,92.4 434.2,92.4 435.2,92.4 436.1,92.4 437.1,92.4 438.1,92.4 439.1,92.4 440.0,92.4 441.0,92.4 442.0,92.4 443.0,92.4 444.0,92.4 444.9,92.4 445.9,92.4 446.9,92.4 447.9,92.4 448.9,92.4 449.8,92.4 450.8,92.4 451.8,92.4 452.8,92.4 453.8,92.4 454.7,92.4 455.7,92.4 456.7,92.4 457.7,92.4 458.6,92.4 459.6,92.4 460.6,92.4 461.6,92.4 462.6,92.4 463.5,92.4 464.5,92.4 465.5,92.4 466.5,92.4 467.5,92.4 468.4,92.4 469.4,92.4 470.4,92.4 471.4,92.4 472.3,92.4 473.3,92.4 474.3,92.4 475.3,92.4 476.3,92.4 477.2,92.4 478.2,92.4 479.2,92.4 480.2,92.4 481.2,92.4 482.1,92.4 483.1,92.4 484.1,92.4 485.1,92.4 486.0,92.4 487.0,92.4 488.0,92.4 489.0,92.4 490.0,92.4 490.9,92.4 491.9,92.4 492.9,92.4 493.9,92.4 494.9,92.4 495.8,92.4 496.8,92.4 497.8,92.4 498.8,92.4 499.7,92.4 500.7,92.4 501.7,92.4 502.7,92.4 503.7,92.4 504.6,92.4 505.6,92.4 506.6,92.4 507.6,92.4 508.6,92.4 509.5,92.4 510.5,92.4 511.5,92.4 512.5,92.4 513.4,92.4 514.4,92.4 515.4,92.4 516.4,92.4 517.4,92.4 518.3,92.4 519.3,92.4 520.3,92.4 521.3,92.4 522.3,92.4 523.2,92.4 524.2,92.4 525.2,92.4 526.2,92.4 527.1,92.4 528.1,92.4 529.1,92.4 530.1,92.4 531.1,92.4 532.0,92.4 533.0,92.4 534.0,92.4 535.0,92.4 536.0,92.4 536.9,92.4 537.9,92.4 538.9,92.4 539.9,92.4 540.8,92.4 541.8,92.4 542.8,92.4 543.8,92.4 544.8,92.4 545.7,92.4 546.7,92.4 547.7,92.4 548.7,92.4 549.7,92.4 550.6,92.4 551.6,92.4 552.6,92.4 553.6,92.4 554.5,92.4 555.5,92.4 556.5,92.4 557.5,92.4 558.5,92.4 559.4,92.4 560.4,92.4 561.4,92.4 562.4,92.4 563.4,92.4 564.3,92.4 565.3,92.4 566.3,92.4 567.3,92.4 568.2,92.4 569.2,92.4 570.2,92.4 571.2,92.4 572.2,92.4 573.1,92.4 574.1,92.4 575.1,92.4 576.1,92.4 577.1,92.4 578.0,92.4 579.0,92.4 580.0,92.4 581.0,92.4 582.0,92.4 582.9,92.4 583.9,92.4 584.9,92.4 585.9,92.4 586.8,92.4 587.8,92.4 588.8,92.4 589.8,92.4 590.8,92.4 591.7,92.4 592.7,92.4 593.7,92.4 594.7,92.4 595.7,92.4 596.6,92.4 597.6,92.4 598.6,92.4 599.6,92.4 600.5,92.4 601.5,92.4 602.5,92.4 603.5,92.4 604.5,92.4 605.4,92.4 606.4,92.4 607.4,92.4 608.4,92.4 609.4,92.4 610.3,92.4 611.3,92.4 612.3,92.4 613.3,92.4 614.2,92.4 615.2,92.4 616.2,92.4 617.2,92.4 618.2,92.4 619.1,92.4 620.1,92.4 621.1,92.4 622.1,92.4 623.1,92.4 624.0,92.4 625.0,92.4 626.0,92.4 627.0,92.4 627.9,92.4 628.9,92.4 629.9,92.4 630.9,92.4 631.9,92.4 632.8,92.4 633.8,92.4 634.8,92.4 635.8,92.4 636.8,92.4 637.7,92.4 638.7,92.4 639.7,92.4 640.7,92.4 641.6,92.4 642.6,92.4 643.6,92.4 644.6,92.4 645.6,92.4 646.5,92.4 647.5,92.4 648.5,92.4 649.5,92.4 650.5,92.4 651.4,92.4 652.4,92.4 653.4,92.4 654.4,92.4 655.3,92.4 656.3,92.4 657.3,92.4 658.3,92.4 659.3,92.4 660.2,92.4 661.2,92.4 662.2,92.4 663.2,92.4 664.2,92.4 665.1,92.4 666.1,92.4 667.1,92.4 668.1,92.4 669.0,92.4 670.0,92.4 671.0,92.4 672.0,92.4 673.0,92.4 673.9,92.4 674.9,92.4 675.9,92.4 676.9,92.4 677.9,92.4 678.8,92.4 679.8,92.4 680.8,92.4 681.8,92.4 682.7,92.4 683.7,92.4 684.7,92.4 685.7,92.4 686.7,92.4 687.6,92.4 688.6,92.4 689.6,92.4 690.6,92.4 691.6,92.4 692.5,92.4 693.5,92.4 694.5,92.4 695.5,92.4 696.4,92.4 697.4,92.4 698.4,92.4 699.4,92.4 700.4,92.4 701.3,92.4 702.3,92.4 703.3,92.4 704.3,92.4 705.3,92.4 706.2,92.4 707.2,92.4 708.2,92.4 709.2,92.4 710.2,92.4 711.1,92.4 712.1,92.4 713.1,92.4 714.1,92.4 715.0,92.4 716.0,92.4 717.0,92.4 718.0,92.4 719.0,92.4 719.9,92.4 720.9,92.4 721.9,92.4 722.9,92.4 723.9,92.4 724.8,92.4 725.8,92.4 726.8,92.4 727.8,92.4 728.7,92.4 729.7,92.4 730.7,92.4 731.7,92.4 732.7,92.4 733.6,92.4 734.6,92.4 735.6,92.4 736.6,92.4 737.6,92.4 738.5,92.4 739.5,92.4 740.5,92.4 741.5,314.9 742.4,314.9 743.4,314.9 744.4,314.9 745.4,314.9 746.4,314.9 747.3,314.9 748.3,314.9 749.3,314.9 750.3,314.9 751.3,314.9 752.2,314.9 753.2,314.9 754.2,314.9 755.2,314.9 756.1,314.9 757.1,314.9 758.1,314.9 759.1,314.9 760.1,314.9 761.0,314.9 762.0,314.9 763.0,314.9 764.0,314.9 765.0,314.9 765.9,314.9 766.9,314.9 767.9,314.9 768.9,314.9 769.8,314.9 770.8,314.9 771.8,314.9 772.8,314.9 773.8,314.9 774.7,314.9 775.7,314.9 776.7,314.9 777.7,314.9 778.7,314.9 779.6,314.9 780.6,314.9 781.6,314.9 782.6,314.9 783.5,314.9 784.5,314.9 785.5,314.9 786.5,314.9 787.5,314.9 788.4,314.9 789.4,314.9 790.4,314.9 791.4,314.9 792.4,314.9 793.3,314.9 794.3,314.9 795.3,314.9 796.3,314.9 797.2,314.9 798.2,314.9 799.2,314.9 800.2,314.9 801.2,314.9 802.1,314.9 803.1,314.9 804.1,314.9 805.1,314.9 806.1,314.9 807.0,314.9 808.0,314.9 809.0,314.9 810.0,314.9 810.9,205.4 811.9,314.9 812.9,314.9 813.9,314.9 814.9,314.9 815.8,314.9 816.8,261.0 817.8,314.9 818.8,314.9 819.8,261.1 820.7,314.9 821.7,314.9 822.7,314.9 823.7,314.9 824.7,314.9 825.6,314.9 826.6,314.9 827.6,259.9 828.6,261.1 829.5,314.9 830.5,314.9 831.5,314.9 832.5,314.9 833.5,262.2 834.4,314.9 835.4,314.9 836.4,314.9 837.4,314.9 838.4,259.6 839.3,314.9 840.3,314.9 841.3,314.9 842.3,260.7 843.2,314.9 844.2,314.9 845.2,314.9 846.2,314.9 847.2,314.9 848.1,314.9 849.1,314.9 850.1,314.9 851.1,205.9 852.1,314.9 853.0,314.9 854.0,314.9 855.0,260.1 856.0,314.9 856.9,314.9 857.9,314.9 858.9,260.5 859.9,314.9 860.9,314.9 861.8,314.9 862.8,260.6 863.8,314.9 864.8,314.9 865.8,260.0 866.7,314.9 867.7,314.9 868.7,314.9 869.7,314.9 870.6,314.9 871.6,314.9 872.6,314.9 873.6,259.6 874.6,259.3 875.5,314.9 876.5,314.9 877.5,261.6 878.5,314.9 879.5,314.9 880.4,314.9 881.4,259.3 882.4,314.9 883.4,314.9 884.3,259.7 885.3,314.9 886.3,314.9 887.3,259.3 888.3,314.9 889.2,260.6 890.2,314.9 891.2,314.9 892.2,314.9 893.2,314.9 894.1,314.9 895.1,314.9 896.1,314.9 897.1,314.9 898.0,205.5 899.0,314.9 900.0,314.9 901.0,314.9 902.0,260.2 902.9,314.9 903.9,314.9 904.9,314.9 905.9,262.1 906.9,314.9 907.8,261.0 908.8,314.9 909.8,314.9 910.8,259.9 911.7,314.9 912.7,259.4 913.7,314.9 914.7,314.9 915.7,314.9 916.6,314.9 917.6,314.9 918.6,314.9 919.6,314.9 920.6,314.9 921.5,314.9 922.5,260.2 923.5,262.5 924.5,314.9 925.4,314.9 926.4,314.9 927.4,314.9 928.4,314.9 929.4,314.9 930.3,261.4 931.3,314.9 932.3,314.9 933.3,314.9 934.3,259.5 935.2,314.9 936.2,314.9 937.2,314.9 938.2,261.1 939.1,314.9 940.1,314.9 941.1,314.9 942.1,314.9 943.1,314.9 944.0,314.9 945.0,260.1 946.0,314.9" fill="none" stroke="#2563eb" stroke-width="2.2" stroke-linejoin="round" stroke-linecap="round"/>
<polyline points="76.0,260.4 77.0,256.5 78.0,247.3 78.9,245.1 79.9,248.7 80.9,238.2 81.9,237.6 82.9,241.4 83.8,246.3 84.8,245.8 85.8,262.2 86.8,243.9 87.7,243.1 88.7,244.7 89.7,248.8 90.7,257.0 91.7,254.2 92.6,251.9 93.6,249.4 94.6,254.3 95.6,259.1 96.6,255.2 97.5,253.3 98.5,253.0 99.5,247.1 100.5,245.5 101.4,247.5 102.4,239.0 103.4,230.5 104.4,239.1 105.4,241.4 106.3,255.0 107.3,248.8 108.3,248.4 109.3,252.9 110.3,248.3 111.2,245.2 112.2,251.1 113.2,244.9 114.2,244.8 115.1,242.6 116.1,259.5 117.1,255.8 118.1,251.9 119.1,218.0 120.0,220.5 121.0,253.1 122.0,249.0 123.0,235.3 124.0,217.5 124.9,237.8 125.9,248.9 126.9,241.8 127.9,240.0 128.8,241.8 129.8,244.6 130.8,242.3 131.8,247.8 132.8,239.2 133.7,244.8 134.7,236.8 135.7,243.3 136.7,241.8 137.7,282.4 138.6,267.5 139.6,259.9 140.6,267.6 141.6,264.6 142.5,236.4 143.5,231.8 144.5,241.3 145.5,257.5 146.5,269.9 147.4,243.9 148.4,243.3 149.4,245.9 150.4,258.7 151.4,248.2 152.3,256.8 153.3,243.7 154.3,238.4 155.3,251.7 156.2,247.7 157.2,252.3 158.2,253.5 159.2,251.8 160.2,259.6 161.1,249.2 162.1,249.2 163.1,251.5 164.1,247.8 165.1,265.8 166.0,229.5 167.0,253.5 168.0,248.8 169.0,216.5 169.9,254.2 170.9,243.1 171.9,245.7 172.9,225.0 173.9,244.0 174.8,246.2 175.8,238.9 176.8,247.2 177.8,241.5 178.8,247.9 179.7,242.2 180.7,240.7 181.7,240.6 182.7,245.9 183.6,243.2 184.6,249.6 185.6,235.8 186.6,249.2 187.6,250.3 188.5,248.7 189.5,218.2 190.5,202.0 191.5,213.0 192.5,214.0 193.4,213.6 194.4,223.1 195.4,218.6 196.4,214.2 197.3,241.4 198.3,244.2 199.3,239.8 200.3,241.1 201.3,240.1 202.2,239.6 203.2,240.6 204.2,242.4 205.2,241.3 206.2,242.9 207.1,247.5 208.1,242.9 209.1,255.8 210.1,255.5 211.1,246.0 212.0,260.9 213.0,287.5 214.0,252.0 215.0,265.7 215.9,253.3 216.9,251.1 217.9,251.3 218.9,248.6 219.9,249.6 220.8,243.1 221.8,248.9 222.8,242.2 223.8,240.3 224.8,238.7 225.7,240.6 226.7,249.2 227.7,261.7 228.7,245.0 229.6,250.0 230.6,248.7 231.6,250.8 232.6,251.1 233.6,256.3 234.5,258.4 235.5,256.7 236.5,289.3 237.5,253.4 238.5,267.7 239.4,234.2 240.4,249.9 241.4,242.9 242.4,246.8 243.3,238.4 244.3,240.6 245.3,246.6 246.3,241.0 247.3,234.6 248.2,243.6 249.2,245.3 250.2,239.3 251.2,243.1 252.2,242.9 253.1,244.7 254.1,245.7 255.1,249.5 256.1,251.0 257.0,256.7 258.0,261.1 259.0,250.0 260.0,282.8 261.0,249.5 261.9,252.8 262.9,248.4 263.9,247.6 264.9,240.8 265.9,240.3 266.8,240.1 267.8,238.9 268.8,245.2 269.8,245.9 270.7,256.6 271.7,255.0 272.7,251.5 273.7,247.9 274.7,253.5 275.6,245.4 276.6,251.3 277.6,243.7 278.6,251.1 279.6,255.8 280.5,259.0 281.5,256.6 282.5,263.8 283.5,294.7 284.4,257.7 285.4,258.0 286.4,256.3 287.4,255.5 288.4,247.4 289.3,245.8 290.3,243.7 291.3,250.1 292.3,246.6 293.3,243.3 294.2,243.3 295.2,239.2 296.2,246.0 297.2,238.2 298.1,239.3 299.1,238.8 300.1,253.5 301.1,253.2 302.1,251.9 303.0,257.0 304.0,270.8 305.0,255.6 306.0,258.2 307.0,255.8 307.9,250.1 308.9,230.0 309.9,217.9 310.9,255.3 311.8,242.9 312.8,226.3 313.8,222.7 314.8,222.3 315.8,222.0 316.7,220.9 317.7,237.2 318.7,229.8 319.7,233.3 320.7,234.0 321.6,243.6 322.6,254.5 323.6,264.0 324.6,243.1 325.6,281.2 326.5,247.9 327.5,262.7 328.5,254.6 329.5,256.1 330.4,263.5 331.4,247.4 332.4,208.1 333.4,218.9 334.4,221.1 335.3,223.9 336.3,213.4 337.3,225.5 338.3,220.2 339.3,207.3 340.2,239.9 341.2,237.7 342.2,246.7 343.2,249.2 344.1,245.3 345.1,241.6 346.1,250.3 347.1,248.1 348.1,246.6 349.0,265.0 350.0,250.0 351.0,245.5 352.0,256.6 353.0,225.3 353.9,209.7 354.9,215.1 355.9,253.5 356.9,249.3 357.8,243.2 358.8,267.8 359.8,237.3 360.8,242.6 361.8,241.2 362.7,248.6 363.7,230.5 364.7,240.7 365.7,242.6 366.7,263.0 367.6,237.2 368.6,242.5 369.6,240.7 370.6,245.7 371.5,244.6 372.5,261.2 373.5,248.6 374.5,255.9 375.5,252.5 376.4,249.5 377.4,262.6 378.4,250.4 379.4,256.8 380.4,261.5 381.3,251.7 382.3,228.1 383.3,222.4 384.3,255.6 385.2,243.7 386.2,250.6 387.2,253.2 388.2,245.9 389.2,248.9 390.1,247.9 391.1,246.3 392.1,243.2 393.1,262.6 394.1,260.6 395.0,256.0 396.0,260.0 397.0,256.7 398.0,281.1 398.9,274.0 399.9,270.5 400.9,274.0 401.9,280.0 402.9,279.9 403.8,275.1 404.8,279.0 405.8,280.9 406.8,275.9 407.8,273.5 408.7,263.4 409.7,248.9 410.7,257.3 411.7,270.9 412.6,258.7 413.6,261.0 414.6,255.5 415.6,263.2 416.6,259.9 417.5,259.7 418.5,259.7 419.5,252.1 420.5,260.4 421.5,255.1 422.4,259.1 423.4,247.4 424.4,252.7 425.4,258.3 426.3,260.4 427.3,261.4 428.3,257.0 429.3,256.1 430.3,250.1 431.2,249.3 432.2,252.2 433.2,231.7 434.2,244.6 435.2,256.7 436.1,245.3 437.1,242.2 438.1,247.4 439.1,249.2 440.0,251.0 441.0,250.5 442.0,252.3 443.0,252.8 444.0,248.9 444.9,259.6 445.9,258.2 446.9,263.2 447.9,258.0 448.9,263.0 449.8,255.0 450.8,251.7 451.8,259.2 452.8,242.1 453.8,250.8 454.7,243.5 455.7,247.1 456.7,233.2 457.7,241.0 458.6,245.9 459.6,253.4 460.6,234.3 461.6,248.8 462.6,234.7 463.5,240.4 464.5,245.6 465.5,244.1 466.5,244.7 467.5,243.4 468.4,251.0 469.4,263.7 470.4,255.6 471.4,212.9 472.3,219.2 473.3,215.4 474.3,229.6 475.3,219.0 476.3,219.5 477.2,227.1 478.2,248.0 479.2,245.8 480.2,232.3 481.2,243.8 482.1,242.9 483.1,250.7 484.1,243.8 485.1,245.3 486.0,246.1 487.0,245.5 488.0,237.0 489.0,238.8 490.0,249.7 490.9,250.6 491.9,249.7 492.9,257.1 493.9,246.4 494.9,253.3 495.8,253.3 496.8,253.9 497.8,250.4 498.8,248.2 499.7,245.3 500.7,233.3 501.7,255.4 502.7,237.3 503.7,215.7 504.6,242.6 505.6,241.2 506.6,245.2 507.6,246.3 508.6,243.4 509.5,242.4 510.5,245.8 511.5,248.8 512.5,246.7 513.4,250.1 514.4,247.5 515.4,250.1 516.4,256.1 517.4,258.4 518.3,237.5 519.3,260.2 520.3,265.6 521.3,268.5 522.3,250.8 523.2,247.3 524.2,254.5 525.2,240.3 526.2,242.5 527.1,233.9 528.1,243.7 529.1,249.9 530.1,238.4 531.1,232.4 532.0,236.9 533.0,239.8 534.0,233.1 535.0,250.4 536.0,242.8 536.9,242.2 537.9,259.9 538.9,302.6 539.9,247.7 540.8,243.7 541.8,256.6 542.8,253.6 543.8,250.8 544.8,254.0 545.7,243.0 546.7,240.2 547.7,238.8 548.7,240.8 549.7,246.3 550.6,238.9 551.6,235.3 552.6,240.0 553.6,237.8 554.5,234.5 555.5,239.4 556.5,244.8 557.5,241.3 558.5,243.7 559.4,246.7 560.4,236.6 561.4,249.4 562.4,247.2 563.4,273.7 564.3,257.3 565.3,248.7 566.3,266.9 567.3,249.3 568.2,252.0 569.2,251.7 570.2,246.2 571.2,235.9 572.2,244.6 573.1,244.9 574.1,243.1 575.1,244.1 576.1,234.4 577.1,238.2 578.0,237.8 579.0,262.7 580.0,241.3 581.0,242.5 582.0,237.9 582.9,248.4 583.9,249.8 584.9,258.0 585.9,243.4 586.8,261.4 587.8,246.4 588.8,260.5 589.8,263.5 590.8,245.9 591.7,252.1 592.7,245.1 593.7,250.1 594.7,244.2 595.7,249.0 596.6,243.3 597.6,239.7 598.6,235.3 599.6,249.3 600.5,243.9 601.5,237.7 602.5,236.7 603.5,243.3 604.5,245.2 605.4,252.2 606.4,234.8 607.4,248.9 608.4,249.7 609.4,253.3 610.3,258.5 611.3,258.4 612.3,254.5 613.3,246.4 614.2,248.7 615.2,256.2 616.2,249.7 617.2,245.7 618.2,239.9 619.1,233.9 620.1,238.3 621.1,239.3 622.1,240.9 623.1,247.8 624.0,249.2 625.0,246.0 626.0,245.0 627.0,241.7 627.9,245.7 628.9,248.4 629.9,241.6 630.9,247.2 631.9,255.5 632.8,254.1 633.8,263.6 634.8,251.0 635.8,255.0 636.8,252.7 637.7,261.5 638.7,253.3 639.7,241.3 640.7,244.2 641.6,234.2 642.6,241.3 643.6,245.4 644.6,230.1 645.6,243.0 646.5,239.0 647.5,243.2 648.5,242.2 649.5,243.6 650.5,242.8 651.4,235.8 652.4,241.7 653.4,238.4 654.4,255.3 655.3,254.0 656.3,254.4 657.3,254.8 658.3,254.9 659.3,260.6 660.2,254.5 661.2,253.2 662.2,253.8 663.2,250.0 664.2,267.3 665.1,252.1 666.1,243.9 667.1,247.7 668.1,235.3 669.0,238.5 670.0,243.9 671.0,252.3 672.0,248.6 673.0,248.7 673.9,250.6 674.9,241.6 675.9,248.7 676.9,249.7 677.9,262.1 678.8,260.6 679.8,259.9 680.8,256.5 681.8,262.2 682.7,253.6 683.7,260.9 684.7,251.4 685.7,254.6 686.7,250.3 687.6,253.0 688.6,250.4 689.6,244.6 690.6,246.6 691.6,239.6 692.5,240.0 693.5,246.7 694.5,248.7 695.5,243.2 696.4,245.7 697.4,244.5 698.4,250.0 699.4,246.4 700.4,254.3 701.3,251.2 702.3,253.3 703.3,257.9 704.3,249.5 705.3,251.5 706.2,262.1 707.2,253.0 708.2,261.2 709.2,246.3 710.2,250.0 711.1,248.6 712.1,250.8 713.1,242.7 714.1,250.7 715.0,242.4 716.0,246.2 717.0,249.6 718.0,243.8 719.0,243.9 719.9,258.9 720.9,253.2 721.9,249.6 722.9,249.2 723.9,252.0 724.8,252.7 725.8,252.7 726.8,263.5 727.8,245.9 728.7,269.6 729.7,252.0 730.7,255.0 731.7,256.0 732.7,241.1 733.6,249.0 734.6,249.8 735.6,248.9 736.6,249.7 737.6,264.1 738.5,258.0 739.5,241.3 740.5,243.7 741.5,342.1 742.4,337.6 743.4,337.9 744.4,335.7 745.4,336.7 746.4,341.5 747.3,340.3 748.3,339.8 749.3,339.6 750.3,340.4 751.3,338.1 752.2,337.5 753.2,338.8 754.2,338.0 755.2,341.8 756.1,337.4 757.1,346.5 758.1,336.8 759.1,339.2 760.1,336.8 761.0,336.7 762.0,337.6 763.0,336.1 764.0,339.8 765.0,339.7 765.9,337.2 766.9,338.7 767.9,337.7 768.9,338.4 769.8,336.6 770.8,340.8 771.8,334.7 772.8,337.2 773.8,339.1 774.7,339.4 775.7,338.8 776.7,341.6 777.7,339.2 778.7,339.4 779.6,337.1 780.6,338.1 781.6,336.2 782.6,337.8 783.5,338.0 784.5,337.5 785.5,338.6 786.5,335.8 787.5,336.2 788.4,336.9 789.4,337.4 790.4,332.4 791.4,332.2 792.4,331.3 793.3,336.8 794.3,336.9 795.3,336.8 796.3,336.2 797.2,338.6 798.2,338.0 799.2,338.6 800.2,339.6 801.2,338.6 802.1,337.1 803.1,331.5 804.1,336.4 805.1,337.1 806.1,336.9 807.0,334.8 808.0,335.9 809.0,335.2 810.0,342.9 810.9,286.0 811.9,335.7 812.9,336.9 813.9,338.6 814.9,338.2 815.8,336.2 816.8,309.0 817.8,340.0 818.8,338.7 819.8,319.5 820.7,345.3 821.7,340.9 822.7,339.1 823.7,338.9 824.7,333.9 825.6,333.3 826.6,328.2 827.6,313.8 828.6,310.7 829.5,333.1 830.5,335.8 831.5,348.0 832.5,338.2 833.5,314.0 834.4,338.1 835.4,330.9 836.4,335.4 837.4,344.4 838.4,313.9 839.3,337.2 840.3,338.2 841.3,337.2 842.3,316.0 843.2,343.6 844.2,342.0 845.2,342.1 846.2,342.2 847.2,341.6 848.1,342.7 849.1,343.1 850.1,347.5 851.1,310.0 852.1,345.4 853.0,343.1 854.0,342.1 855.0,316.1 856.0,342.3 856.9,335.7 857.9,340.9 858.9,318.1 859.9,338.3 860.9,342.2 861.8,339.6 862.8,321.0 863.8,347.0 864.8,341.5 865.8,322.9 866.7,341.8 867.7,341.9 868.7,340.7 869.7,339.4 870.6,342.2 871.6,341.9 872.6,340.1 873.6,316.8 874.6,316.9 875.5,343.7 876.5,340.3 877.5,313.1 878.5,338.1 879.5,336.7 880.4,338.3 881.4,294.0 882.4,340.8 883.4,340.4 884.3,311.9 885.3,343.7 886.3,339.4 887.3,319.5 888.3,344.3 889.2,318.8 890.2,336.9 891.2,344.1 892.2,343.6 893.2,341.6 894.1,339.2 895.1,340.2 896.1,342.0 897.1,340.4 898.0,293.7 899.0,340.2 900.0,342.3 901.0,337.2 902.0,311.6 902.9,342.1 903.9,337.4 904.9,340.7 905.9,319.0 906.9,338.3 907.8,316.6 908.8,337.6 909.8,338.9 910.8,315.0 911.7,339.6 912.7,320.0 913.7,342.0 914.7,338.9 915.7,343.4 916.6,340.7 917.6,346.5 918.6,341.4 919.6,338.5 920.6,339.6 921.5,340.1 922.5,316.3 923.5,313.8 924.5,339.3 925.4,338.6 926.4,338.3 927.4,343.5 928.4,343.4 929.4,334.7 930.3,318.2 931.3,340.9 932.3,345.0 933.3,341.7 934.3,322.1 935.2,340.8 936.2,342.8 937.2,351.6 938.2,327.8 939.1,342.3 940.1,348.3 941.1,345.7 942.1,341.6 943.1,343.9 944.0,346.8 945.0,323.9 946.0,342.6" fill="none" stroke="#7c3aed" stroke-width="2.2" stroke-linejoin="round" stroke-linecap="round"/>
<line x1="76" y1="70" x2="94" y2="70" stroke="#2563eb" stroke-width="3"/>
<text x="100" y="74" font-family="Arial, sans-serif" font-size="11" fill="#0f172a">tx count</text>
<line x1="186" y1="70" x2="204" y2="70" stroke="#7c3aed" stroke-width="3"/>
<text x="210" y="74" font-family="Arial, sans-serif" font-size="11" fill="#0f172a">unique accounts</text>
<text x="28" y="404" font-family="Arial, sans-serif" font-size="11" fill="#64748b">Source: hourly_features.csv; capped windows are sample counts</text>
</svg>