<svg xmlns="http://www.w3.org/2000/svg" width="980" height="420" viewBox="0 0 980 420">
<rect width="100%" height="100%" fill="#ffffff"/>
<text x="28" y="34" font-family="Arial, sans-serif" font-size="20" font-weight="700" fill="#0f172a">Network activity sample trend</text>
<text x="28" y="56" font-family="Arial, sans-serif" font-size="12" fill="#64748b">Hourly transaction sample count and unique account sample count</text>
<line x1="76" y1="362.0" x2="946" y2="362.0" stroke="#e2e8f0" stroke-width="1"/>
<text x="68" y="366.0" font-family="Arial, sans-serif" font-size="10" text-anchor="end" fill="#64748b">220</text>
<line x1="76" y1="292.0" x2="946" y2="292.0" stroke="#e2e8f0" stroke-width="1"/>
<text x="68" y="296.0" font-family="Arial, sans-serif" font-size="10" text-anchor="end" fill="#64748b">1K</text>
<line x1="76" y1="222.0" x2="946" y2="222.0" stroke="#e2e8f0" stroke-width="1"/>
<text x="68" y="226.0" font-family="Arial, sans-serif" font-size="10" text-anchor="end" fill="#64748b">3K</text>
<line x1="76" y1="152.0" x2="946" y2="152.0" stroke="#e2e8f0" stroke-width="1"/>
<text x="68" y="156.0" font-family="Arial, sans-serif" font-size="10" text-anchor="end" fill="#64748b">4K</text>
<line x1="76" y1="82.0" x2="946" y2="82.0" stroke="#e2e8f0" stroke-width="1"/>
<text x="68" y="86.0" font-family="Arial, sans-serif" font-size="10" text-anchor="end" fill="#64748b">5K</text>
<line x1="76" y1="362" x2="946" y2="362" stroke="#334155" stroke-width="1"/>
<line x1="76" y1="82" x2="76" y2="362" stroke="#334155" stroke-width="1"/>
<text x="76" y="72" font-family="Arial, sans-serif" font-size="11" fill="#64748b">count</text>
<line x1="76.0" y1="362" x2="76.0" y2="366" stroke="#334155" stroke-width="1"/>
<text x="76.0" y="380" font-family="Arial, sans-serif" font-size="10" text-anchor="middle" fill="#64748b">0</text>
<line x1="511.0" y1="362" x2="511.0" y2="366" stroke="#334155" stroke-width="1"/>
<text x="511.0" y="380" font-family="Arial, sans-serif" font-size="10" text-anchor="middle" fill="#64748b">402</text>
<line x1="946.0" y1="362" x2="946.0" y2="366" stroke="#334155" stroke-width="1"/>
<text x="946.0" y="380" font-family="Arial, sans-serif" font-size="10" text-anchor="middle" fill="#64748b">804</text>
<polyline points="76.0,92.4 77.1,92.4 78.2,92.4 79.2,92.4 80.3,92.4 81.4,92.4 82.5,92.4 83.6,92.4 84.7,92.4 85.7,92.4 86.8,92.4 87.9,92.4 89.0,92.4 90.1,92.4 91.1,92.4 92.2,92.4 93.3,92.4 94.4,92.4 95.5,92.4 96.6,92.4 97.6,92.4 98.7,92.4 99.8,92.4 100.9,92.4 102.0,92.4 103.1,92.4 104.1,92.4 105.2,92.4 106.3,92.4 107.4,92.4 108.5,92.4 109.5,92.4 110.6,92.4 111.7,92.4 112.8,92.4 113.9,92.4 115.0,92.4 116.0,92.4 117.1,92.4 118.2,92.4 119.3,92.4 120.4,92.4 121.4,92.4 122.5,92.4 123.6,92.4 124.7,92.4 125.8,92.4 126.9,92.4 127.9,92.4 129.0,92.4 130.1,92.4 131.2,92.4 132.3,92.4 133.4,92.4 134.4,92.4 135.5,92.4 136.6,92.4 137.7,92.4 138.8,92.4 139.8,92.4 140.9,92.4 142.0,92.4 143.1,92.4 144.2,92.4 145.3,92.4 146.3,92.4 147.4,92.4 148.5,92.4 149.6,92.4 150.7,92.4 151.7,92.4 152.8,92.4 153.9,92.4 155.0,92.4 156.1,92.4 157.2,92.4 158.2,92.4 159.3,92.4 160.4,92.4 161.5,92.4 162.6,92.4 163.6,92.4 164.7,92.4 165.8,92.4 166.9,92.4 168.0,92.4 169.1,92.4 170.1,92.4 171.2,92.4 172.3,92.4 173.4,92.4 174.5,92.4 175.6,92.4 176.6,92.4 177.7,92.4 178.8,92.4 179.9,92.4 181.0,92.4 182.0,92.4 183.1,92.4 184.2,92.4 185.3,92.4 186.4,92.4 187.5,92.4 188.5,92.4 189.6,92.4 190.7,92.4 191.8,92.4 192.9,92.4 193.9,92.4 195.0,92.4 196.1,92.4 197.2,92.4 198.3,92.4 199.4,92.4 200.4,92.4 201.5,92.4 202.6,92.4 203.7,92.4 204.8,92.4 205.9,92.4 206.9,92.4 208.0,92.4 209.1,92.4 210.2,92.4 211.3,92.4 212.3,92.4 213.4,92.4 214.5,92.4 215.6,92.4 216.7,92.4 217.8,92.4 218.8,92.4 219.9,92.4 221.0,92.4 222.1,92.4 223.2,92.4 224.2,92.4 225.3,92.4 226.4,92.4 227.5,92.4 228.6,92.4 229.7,92.4 230.7,92.4 231.8,92.4 232.9,92.4 234.0,92.4 235.1,92.4 236.1,92.4 237.2,92.4 238.3,92.4 239.4,92.4 240.5,92.4 241.6,92.4 242.6,92.4 243.7,92.4 244.8,92.4 245.9,92.4 247.0,92.4 248.1,92.4 249.1,92.4 250.2,92.4 251.3,92.4 252.4,92.4 253.5,92.4 254.5,92.4 255.6,92.4 256.7,92.4 257.8,92.4 258.9,92.4 260.0,92.4 261.0,92.4 262.1,92.4 263.2,92.4 264.3,92.4 265.4,92.4 266.4,92.4 267.5,92.4 268.6,92.4 269.7,92.4 270.8,92.4 271.9,92.4 272.9,92.4 274.0,92.4 275.1,92.4 276.2,92.4 277.3,92.4 278.4,92.4 279.4,92.4 280.5,92.4 281.6,92.4 282.7,92.4 283.8,92.4 284.8,92.4 285.9,92.4 287.0,92.4 288.1,92.4 289.2,92.4 290.3,92.4 291.3,92.4 292.4,92.4 293.5,92.4 294.6,92.4 295.7,92.4 296.7,92.4 297.8,92.4 298.9,92.4 300.0,92.4 301.1,92.4 302.2,92.4 303.2,92.4 304.3,92.4 305.4,92.4 306.5,92.4 307.6,92.4 308.6,92.4 309.7,92.4 310.8,92.4 311.9,92.4 313.0,92.4 314.1,92.4 315.1,92.4 316.2,92.4 317.3,92.4 318.4,92.4 319.5,92.4 320.6,92.4 321.6,92.4 322.7,92.4 323.8,92.4 324.9,92.4 326.0,92.4 327.0,92.4 328.1,92.4 329.2,92.4 330.3,92.4 331.4,92.4 332.5,92.4 333.5,92.4 334.6,92.4 335.7,92.4 336.8,92.4 337.9,92.4 338.9,92.4 340.0,92.4 341.1,92.4 342.2,92.4 343.3,92.4 344.4,92.4 345.4,92.4 346.5,92.4 347.6,92.4 348.7,92.4 349.8,92.4 350.9,92.4 351.9,92.4 353.0,92.4 354.1,92.4 355.2,92.4 356.3,92.4 357.3,92.4 358.4,92.4 359.5,92.4 360.6,92.4 361.7,92.4 362.8,92.4 363.8,92.4 364.9,92.4 366.0,92.4 367.1,92.4 368.2,92.4 369.2,92.4 370.3,92.4 371.4,92.4 372.5,92.4 373.6,92.4 374.7,92.4 375.7,92.4 376.8,92.4 377.9,92.4 379.0,92.4 380.1,92.4 381.1,92.4 382.2,92.4 383.3,92.4 384.4,92.4 385.5,92.4 386.6,92.4 387.6,92.4 388.7,92.4 389.8,92.4 390.9,92.4 392.0,92.4 393.1,92.4 394.1,92.4 395.2,92.4 396.3,92.4 397.4,92.4 398.5,92.4 399.5,92.4 400.6,92.4 401.7,92.4 402.8,92.4 403.9,92.4 405.0,92.4 406.0,92.4 407.1,92.4 408.2,92.4 409.3,92.4 410.4,92.4 411.4,92.4 412.5,92.4 413.6,92.4 414.7,92.4 415.8,92.4 416.9,92.4 417.9,92.4 419.0,92.4 420.1,92.4 421.2,92.4 422.3,92.4 423.4,92.4 424.4,92.4 425.5,92.4 426.6,92.4 427.7,92.4 428.8,92.4 429.8,92.4 430.9,92.4 432.0,92.4 433.1,92.4 434.2,92.4 435.3,92.4 436.3,92.4 437.4,92.4 438.5,92.4 439.6,92.4 440.7,92.4 441.7,92.4 442.8,92.4 443.9,92.4 445.0,92.4 446.1,92.4 447.2,92.4 448.2,92.4 449.3,92.4 450.4,92.4 451.5,92.4 452.6,92.4 453.6,92.4 454.7,92.4 455.8,92.4 456.9,92.4 458.0,92.4 459.1,92.4 460.1,92.4 461.2,92.4 462.3,92.4 463.4,92.4 464.5,92.4 465.6,92.4 466.6,92.4 467.7,92.4 468.8,92.4 469.9,92.4 471.0,92.4 472.0,92.4 473.1,92.4 474.2,92.4 475.3,92.4 476.4,92.4 477.5,92.4 478.5,92.4 479.6,92.4 480.7,92.4 481.8,92.4 482.9,92.4 483.9,92.4 485.0,92.4 486.1,92.4 487.2,92.4 488.3,92.4 489.4,92.4 490.4,92.4 491.5,92.4 492.6,92.4 493.7,92.4 494.8,92.4 495.9,92.4 496.9,92.4 498.0,92.4 499.1,92.4 500.2,92.4 501.3,92.4 502.3,92.4 503.4,92.4 504.5,92.4 505.6,92.4 506.7,92.4 507.8,92.4 508.8,92.4 509.9,92.4 511.0,92.4 512.1,92.4 513.2,92.4 514.2,92.4 515.3,92.4 516.4,92.4 517.5,92.4 518.6,92.4 519.7,92.4 520.7,92.4 521.8,92.4 522.9,92.4 524.0,92.4 525.1,92.4 526.1,92.4 527.2,92.4 528.3,92.4 529.4,92.4 530.5,92.4 531.6,92.4 532.6,92.4 533.7,92.4 534.8,92.4 535.9,92.4 537.0,92.4 538.1,92.4 539.1,92.4 540.2,92.4 541.3,92.4 542.4,92.4 543.5,92.4 544.5,92.4 545.6,92.4 546.7,92.4 547.8,92.4 548.9,92.4 550.0,92.4 551.0,92.4 552.1,92.4 553.2,92.4 554.3,92.4 555.4,92.4 556.4,92.4 557.5,92.4 558.6,92.4 559.7,92.4 560.8,92.4 561.9,92.4 562.9,92.4 564.0,92.4 565.1,92.4 566.2,92.4 567.3,92.4 568.4,92.4 569.4,92.4 570.5,92.4 571.6,92.4 572.7,92.4 573.8,92.4 574.8,92.4 575.9,92.4 577.0,92.4 578.1,92.4 579.2,92.4 580.3,92.4 581.3,92.4 582.4,92.4 583.5,92.4 584.6,92.4 585.7,92.4 586.7,92.4 587.8,92.4 588.9,92.4 590.0,92.4 591.1,92.4 592.2,92.4 593.2,92.4 594.3,92.4 595.4,92.4 596.5,92.4 597.6,92.4 598.6,92.4 599.7,92.4 600.8,92.4 601.9,92.4 603.0,92.4 604.1,92.4 605.1,92.4 606.2,92.4 607.3,92.4 608.4,92.4 609.5,92.4 610.6,92.4 611.6,92.4 612.7,92.4 613.8,92.4 614.9,92.4 616.0,92.4 617.0,92.4 618.1,92.4 619.2,92.4 620.3,92.4 621.4,92.4 622.5,92.4 623.5,92.4 624.6,92.4 625.7,92.4 626.8,92.4 627.9,92.4 628.9,92.4 630.0,92.4 631.1,92.4 632.2,92.4 633.3,92.4 634.4,92.4 635.4,92.4 636.5,92.4 637.6,92.4 638.7,92.4 639.8,92.4 640.9,92.4 641.9,92.4 643.0,92.4 644.1,92.4 645.2,92.4 646.3,92.4 647.3,92.4 648.4,92.4 649.5,92.4 650.6,92.4 651.7,92.4 652.8,92.4 653.8,92.4 654.9,92.4 656.0,92.4 657.1,92.4 658.2,92.4 659.2,92.4 660.3,92.4 661.4,92.4 662.5,92.4 663.6,92.4 664.7,92.4 665.7,92.4 666.8,92.4 667.9,92.4 669.0,92.4 670.1,92.4 671.1,92.4 672.2,92.4 673.3,92.4 674.4,92.4 675.5,92.4 676.6,92.4 677.6,92.4 678.7,92.4 679.8,92.4 680.9,92.4 682.0,92.4 683.1,92.4 684.1,92.4 685.2,92.4 686.3,92.4 687.4,92.4 688.5,92.4 689.5,92.4 690.6,92.4 691.7,92.4 692.8,92.4 693.9,92.4 695.0,92.4 696.0,92.4 697.1,92.4 698.2,92.4 699.3,92.4 700.4,92.4 701.4,92.4 702.5,92.4 703.6,92.4 704.7,92.4 705.8,92.4 706.9,92.4 707.9,92.4 709.0,92.4 710.1,92.4 711.2,92.4 712.3,92.4 713.4,92.4 714.4,92.4 715.5,92.4 716.6,92.4 717.7,92.4 718.8,92.4 719.8,92.4 720.9,92.4 722.0,92.4 723.1,92.4 724.2,92.4 725.3,92.4 726.3,92.4 727.4,92.4 728.5,92.4 729.6,92.4 730.7,92.4 731.7,92.4 732.8,92.4 733.9,92.4 735.0,92.4 736.1,92.4 737.2,92.4 738.2,92.4 739.3,92.4 740.4,92.4 741.5,92.4 742.6,92.4 743.6,92.4 744.7,92.4 745.8,92.4 746.9,92.4 748.0,92.4 749.1,92.4 750.1,92.4 751.2,92.4 752.3,92.4 753.4,92.4 754.5,92.4 755.6,92.4 756.6,92.4 757.7,92.4 758.8,92.4 759.9,92.4 761.0,92.4 762.0,92.4 763.1,92.4 764.2,92.4 765.3,92.4 766.4,92.4 767.5,92.4 768.5,92.4 769.6,92.4 770.7,92.4 771.8,92.4 772.9,92.4 773.9,92.4 775.0,92.4 776.1,92.4 777.2,92.4 778.3,92.4 779.4,92.4 780.4,92.4 781.5,92.4 782.6,92.4 783.7,92.4 784.8,92.4 785.9,92.4 786.9,92.4 788.0,92.4 789.1,92.4 790.2,92.4 791.3,92.4 792.3,92.4 793.4,92.4 794.5,92.4 795.6,92.4 796.7,92.4 797.8,92.4 798.8,92.4 799.9,92.4 801.0,92.4 802.1,92.4 803.2,92.4 804.2,92.4 805.3,92.4 806.4,92.4 807.5,92.4 808.6,92.4 809.7,92.4 810.7,92.4 811.8,318.0 812.9,318.0 814.0,318.0 815.1,318.0 816.1,318.0 817.2,318.0 818.3,318.0 819.4,318.0 820.5,318.0 821.6,318.0 822.6,318.0 823.7,318.0 824.8,318.0 825.9,318.0 827.0,318.0 828.1,318.0 829.1,318.0 830.2,318.0 831.3,318.0 832.4,318.0 833.5,318.0 834.5,318.0 835.6,318.0 836.7,318.0 837.8,318.0 838.9,318.0 840.0,318.0 841.0,318.0 842.1,318.0 843.2,318.0 844.3,318.0 845.4,318.0 846.4,318.0 847.5,318.0 848.6,318.0 849.7,318.0 850.8,318.0 851.9,318.0 852.9,318.0 854.0,318.0 855.1,318.0 856.2,318.0 857.3,318.0 858.4,318.0 859.4,318.0 860.5,318.0 861.6,318.0 862.7,318.0 863.8,318.0 864.8,318.0 865.9,318.0 867.0,318.0 868.1,318.0 869.2,318.0 870.3,318.0 871.3,318.0 872.4,318.0 873.5,318.0 874.6,318.0 875.7,318.0 876.7,318.0 877.8,318.0 878.9,318.0 880.0,318.0 881.1,318.0 882.2,318.0 883.2,318.0 884.3,318.0 885.4,318.0 886.5,318.0 887.6,318.0 888.6,207.0 889.7,318.0 890.8,318.0 891.9,318.0 893.0,318.0 894.1,318.0 895.1,263.4 896.2,318.0 897.3,318.0 898.4,263.5 899.5,318.0 900.6,318.0 901.6,318.0 902.7,318.0 903.8,318.0 904.9,318.0 906.0,318.0 907.0,262.2 908.1,263.5 909.2,318.0 910.3,318.0 911.4,318.0 912.5,318.0 913.5,264.6 914.6,318.0 915.7,318.0 916.8,318.0 917.9,318.0 918.9,261.9 920.0,318.0 921.1,318.0 922.2,318.0 923.3,263.1 924.4,318.0 925.4,318.0 926.5,318.0 927.6,318.0 928.7,318.0 929.8,318.0 930.9,318.0 931.9,318.0 933.0,207.5 934.1,318.0 935.2,318.0 936.3,318.0 937.3,262.4 938.4,318.0 939.5,318.0 940.6,318.0 941.7,262.8 942.8,318.0 943.8,318.0 944.9,318.0 946.0,318.0" fill="none" stroke="#2563eb" stroke-width="2.2" stroke-linejoin="round" stroke-linecap="round"/>
<polyline points="76.0,262.8 77.1,258.8 78.2,249.5 79.2,247.2 80.3,250.9 81.4,240.3 82.5,239.7 83.6,243.5 84.7,248.5 85.7,248.0 86.8,264.6 87.9,246.1 89.0,245.2 90.1,246.9 91.1,251.1 92.2,259.3 93.3,256.5 94.4,254.2 95.5,251.6 96.6,256.6 97.6,261.5 98.7,257.5 99.8,255.6 100.9,255.2 102.0,249.2 103.1,247.7 104.1,249.7 105.2,241.1 106.3,232.5 107.4,241.2 108.5,243.5 109.5,257.3 110.6,251.0 111.7,250.7 112.8,255.2 113.9,250.5 115.0,247.4 116.0,253.4 117.1,247.1 118.2,247.0 119.3,244.7 120.4,261.9 121.4,258.2 122.5,254.2 123.6,219.8 124.7,222.3 125.8,255.3 126.9,251.2 127.9,237.3 129.0,219.3 130.1,239.9 131.2,251.2 132.3,243.9 133.4,242.1 134.4,243.9 135.5,246.7 136.6,244.4 137.7,250.0 138.8,241.3 139.8,247.0 140.9,238.8 142.0,245.4 143.1,243.9 144.2,285.1 145.3,270.0 146.3,262.3 147.4,270.1 148.5,267.0 149.6,238.5 150.7,233.8 151.7,243.4 152.8,259.9 153.9,272.4 155.0,246.0 156.1,245.5 157.2,248.1 158.2,261.0 159.3,250.4 160.4,259.1 161.5,245.9 162.6,240.5 163.6,253.9 164.7,249.9 165.8,254.6 166.9,255.7 168.0,254.0 169.1,261.9 170.1,251.4 171.2,251.4 172.3,253.7 173.4,250.0 174.5,268.3 175.6,231.5 176.6,255.8 177.7,251.1 178.8,218.2 179.9,256.5 181.0,245.2 182.0,247.9 183.1,226.9 184.2,246.1 185.3,248.3 186.4,241.0 187.5,249.4 188.5,243.6 189.6,250.1 190.7,244.3 191.8,242.8 192.9,242.6 193.9,248.1 195.0,245.4 196.1,251.8 197.2,237.9 198.3,251.4 199.4,252.6 200.4,250.9 201.5,220.0 202.6,203.6 203.7,214.7 204.8,215.7 205.9,215.3 206.9,224.9 208.0,220.4 209.1,216.0 210.2,243.5 211.3,246.4 212.3,241.9 213.4,243.2 214.5,242.2 215.6,241.7 216.7,242.6 217.8,244.6 218.8,243.4 219.9,245.1 221.0,249.7 222.1,245.1 223.2,258.2 224.2,257.8 225.3,248.2 226.4,263.2 227.5,290.3 228.6,254.2 229.7,268.2 230.7,255.6 231.8,253.3 232.9,253.6 234.0,250.8 235.1,251.8 236.1,245.2 237.2,251.1 238.3,244.3 239.4,242.4 240.5,240.7 241.6,242.6 242.6,251.4 243.7,264.1 244.8,247.2 245.9,252.2 247.0,250.9 248.1,253.1 249.1,253.4 250.2,258.6 251.3,260.8 252.4,259.1 253.5,292.1 254.5,255.7 255.6,270.2 256.7,236.2 257.8,252.1 258.9,245.1 260.0,249.0 261.0,240.5 262.1,242.6 263.2,248.7 264.3,243.1 265.4,236.6 266.4,245.7 267.5,247.5 268.6,241.4 269.7,245.2 270.8,245.0 271.9,246.8 272.9,247.8 274.0,251.7 275.1,253.2 276.2,259.1 277.3,263.5 278.4,252.2 279.4,285.5 280.5,251.7 281.6,255.1 282.7,250.6 283.8,249.8 284.8,242.9 285.9,242.4 287.0,242.2 288.1,241.0 289.2,247.3 290.3,248.1 291.3,258.9 292.4,257.3 293.5,253.8 294.6,250.1 295.7,255.8 296.7,247.6 297.8,253.5 298.9,245.9 300.0,253.4 301.1,258.1 302.2,261.3 303.2,258.9 304.3,266.2 305.4,297.6 306.5,260.0 307.6,260.3 308.6,258.6 309.7,257.8 310.8,249.6 311.9,247.9 313.0,245.9 314.1,252.3 315.1,248.8 316.2,245.4 317.3,245.5 318.4,241.2 319.5,248.2 320.6,240.3 321.6,241.3 322.7,240.9 323.8,255.8 324.9,255.5 326.0,254.2 327.0,259.3 328.1,273.3 329.2,257.9 330.3,260.5 331.4,258.2 332.5,252.3 333.5,232.0 334.6,219.6 335.7,257.6 336.8,245.0 337.9,228.2 338.9,224.5 340.0,224.1 341.1,223.8 342.2,222.7 343.3,239.3 344.4,231.7 345.4,235.3 346.5,236.0 347.6,245.7 348.7,256.8 349.8,266.4 350.9,245.2 351.9,283.8 353.0,250.1 354.1,265.2 355.2,256.9 356.3,258.4 357.3,265.9 358.4,249.6 359.5,209.8 360.6,220.6 361.7,223.0 362.8,225.7 363.8,215.1 364.9,227.4 366.0,222.0 367.1,209.0 368.2,242.0 369.2,239.8 370.3,248.9 371.4,251.4 372.5,247.5 373.6,243.7 374.7,252.6 375.7,250.3 376.8,248.7 377.9,267.5 379.0,252.2 380.1,247.7 381.1,258.9 382.2,227.2 383.3,211.3 384.4,216.8 385.5,255.8 386.6,251.6 387.6,245.4 388.7,270.3 389.8,239.4 390.9,244.7 392.0,243.3 393.1,250.8 394.1,232.4 395.2,242.8 396.3,244.7 397.4,265.4 398.5,239.2 399.5,244.6 400.6,242.8 401.7,247.8 402.8,246.7 403.9,263.6 405.0,250.8 406.0,258.2 407.1,254.7 408.2,251.7 409.3,265.0 410.4,252.6 411.4,259.2 412.5,263.9 413.6,253.9 414.7,230.0 415.8,224.2 416.9,257.9 417.9,245.8 419.0,252.8 420.1,255.5 421.2,248.1 422.3,251.2 423.4,250.1 424.4,248.5 425.5,245.4 426.6,265.0 427.7,263.0 428.8,258.3 429.8,262.4 430.9,259.0 432.0,283.8 433.1,276.5 434.2,273.1 435.3,276.5 436.3,282.7 437.4,282.5 438.5,277.7 439.6,281.6 440.7,283.5 441.7,278.5 442.8,276.0 443.9,265.8 445.0,251.2 446.1,259.6 447.2,273.4 448.2,261.0 449.3,263.4 450.4,257.8 451.5,265.6 452.6,262.2 453.6,262.1 454.7,262.1 455.8,254.3 456.9,262.8 458.0,257.4 459.1,261.5 460.1,249.6 461.2,254.9 462.3,260.6 463.4,262.8 464.5,263.7 465.6,259.3 466.6,258.4 467.7,252.3 468.8,251.5 469.9,254.4 471.0,233.7 472.0,246.8 473.1,259.0 474.2,247.4 475.3,244.3 476.4,249.6 477.5,251.4 478.5,253.2 479.6,252.7 480.7,254.5 481.8,255.1 482.9,251.1 483.9,261.9 485.0,260.5 486.1,265.7 487.2,260.3 488.3,265.4 489.4,257.3 490.4,253.9 491.5,261.6 492.6,244.2 493.7,253.1 494.8,245.6 495.9,249.2 496.9,235.1 498.0,243.1 499.1,248.1 500.2,255.7 501.3,236.3 502.3,251.0 503.4,236.7 504.5,242.5 505.6,247.8 506.7,246.2 507.8,246.8 508.8,245.6 509.9,253.2 511.0,266.1 512.1,257.9 513.2,214.6 514.2,221.0 515.3,217.1 516.4,231.6 517.5,220.8 518.6,221.3 519.7,229.0 520.7,250.2 521.8,248.0 522.9,234.3 524.0,246.0 525.1,245.0 526.1,252.9 527.2,245.9 528.3,247.4 529.4,248.3 530.5,247.7 531.6,239.1 532.6,240.8 533.7,252.0 534.8,252.9 535.9,252.0 537.0,259.5 538.1,248.6 539.1,255.6 540.2,255.6 541.3,256.2 542.4,252.6 543.5,250.4 544.5,247.5 545.6,235.3 546.7,257.7 547.8,239.4 548.9,217.5 550.0,244.7 551.0,243.3 552.1,247.4 553.2,248.5 554.3,245.5 555.4,244.6 556.4,247.9 557.5,251.0 558.6,248.9 559.7,252.3 560.8,249.7 561.9,252.3 562.9,258.4 564.0,260.8 565.1,239.5 566.2,262.6 567.3,268.1 568.4,271.0 569.4,253.1 570.5,249.5 571.6,256.8 572.7,242.4 573.8,244.6 574.8,235.9 575.9,245.9 577.0,252.1 578.1,240.5 579.2,234.4 580.3,239.0 581.3,241.9 582.4,235.1 583.5,252.6 584.6,245.0 585.7,244.3 586.7,262.3 587.8,305.5 588.9,249.9 590.0,245.8 591.1,258.9 592.2,255.9 593.2,253.1 594.3,256.3 595.4,245.1 596.5,242.3 597.6,240.8 598.6,242.9 599.7,248.5 600.8,241.0 601.9,237.3 603.0,242.1 604.1,239.8 605.1,236.5 606.2,241.5 607.3,247.0 608.4,243.4 609.5,245.8 610.6,248.9 611.6,238.6 612.7,251.6 613.8,249.4 614.9,276.3 616.0,259.7 617.0,250.9 618.1,269.4 619.2,251.6 620.3,254.3 621.4,253.9 622.5,248.4 623.5,238.0 624.6,246.8 625.7,247.0 626.8,245.2 627.9,246.2 628.9,236.4 630.0,240.2 631.1,239.9 632.2,265.2 633.3,243.4 634.4,244.6 635.4,240.0 636.5,250.6 637.6,252.1 638.7,260.3 639.8,245.6 640.9,263.7 641.9,248.6 643.0,262.8 644.1,265.9 645.2,248.1 646.3,254.3 647.3,247.2 648.4,252.3 649.5,246.3 650.6,251.2 651.7,245.4 652.8,241.8 653.8,237.3 654.9,251.5 656.0,246.1 657.1,239.7 658.2,238.8 659.2,245.5 660.3,247.4 661.4,254.5 662.5,236.8 663.6,251.2 664.7,251.9 665.7,255.6 666.8,260.8 667.9,260.8 669.0,256.8 670.1,248.6 671.1,250.9 672.2,258.6 673.3,252.0 674.4,247.8 675.5,242.0 676.6,235.9 677.6,240.3 678.7,241.3 679.8,243.0 680.9,250.0 682.0,251.4 683.1,248.2 684.1,247.2 685.2,243.8 686.3,247.8 687.4,250.6 688.5,243.7 689.5,249.4 690.6,257.8 691.7,256.4 692.8,266.0 693.9,253.2 695.0,257.3 696.0,254.9 697.1,263.9 698.2,255.6 699.3,243.4 700.4,246.3 701.4,236.2 702.5,243.4 703.6,247.6 704.7,232.1 705.8,245.1 706.9,241.1 707.9,245.4 709.0,244.3 710.1,245.7 711.2,244.9 712.3,237.9 713.4,243.8 714.4,240.4 715.5,257.6 716.6,256.3 717.7,256.7 718.8,257.1 719.8,257.2 720.9,263.0 722.0,256.8 723.1,255.5 724.2,256.1 725.3,252.2 726.3,269.8 727.4,254.4 728.5,246.0 729.6,249.9 730.7,237.3 731.7,240.6 732.8,246.0 733.9,254.5 735.0,250.8 736.1,250.9 737.2,252.8 738.2,243.7 739.3,250.9 740.4,251.9 741.5,264.5 742.6,263.0 743.6,262.2 744.7,258.8 745.8,264.6 746.9,255.8 748.0,263.3 749.1,253.6 750.1,256.9 751.2,252.5 752.3,255.3 753.4,252.6 754.5,246.8 755.6,248.8 756.6,241.7 757.7,242.1 758.8,248.9 759.9,250.9 761.0,245.3 762.0,247.8 763.1,246.7 764.2,252.2 765.3,248.6 766.4,256.6 767.5,253.4 768.5,255.6 769.6,260.2 770.7,251.7 771.8,253.8 772.9,264.5 773.9,255.3 775.0,263.6 776.1,248.5 777.2,252.2 778.3,250.8 779.4,253.1 780.4,244.8 781.5,253.0 782.6,244.6 783.7,248.3 784.8,251.8 785.9,245.9 786.9,246.0 788.0,261.2 789.1,255.5 790.2,251.8 791.3,251.4 792.3,254.2 793.4,255.0 794.5,255.0 795.6,265.9 796.7,248.1 797.8,272.1 798.8,254.3 799.9,257.3 801.0,258.3 802.1,243.2 803.2,251.2 804.2,252.1 805.3,251.2 806.4,251.9 807.5,266.5 808.6,260.3 809.7,243.4 810.7,245.9 811.8,345.6 812.9,341.0 814.0,341.4 815.1,339.1 816.1,340.1 817.2,345.0 818.3,343.8 819.4,343.3 820.5,343.1 821.6,343.9 822.6,341.5 823.7,341.0 824.8,342.3 825.9,341.5 827.0,345.3 828.1,340.9 829.1,350.1 830.2,340.2 831.3,342.7 832.4,340.3 833.5,340.1 834.5,341.1 835.6,339.5 836.7,343.3 837.8,343.2 838.9,340.7 840.0,342.2 841.0,341.2 842.1,341.9 843.2,340.0 844.3,344.3 845.4,338.1 846.4,340.6 847.5,342.6 848.6,342.9 849.7,342.3 850.8,345.1 851.9,342.7 852.9,342.9 854.0,340.6 855.1,341.6 856.2,339.6 857.3,341.3 858.4,341.5 859.4,341.0 860.5,342.0 861.6,339.2 862.7,339.6 863.8,340.4 864.8,340.9 865.9,335.8 867.0,335.6 868.1,334.7 869.2,340.2 870.3,340.4 871.3,340.3 872.4,339.6 873.5,342.0 874.6,341.5 875.7,342.0 876.7,343.1 877.8,342.0 878.9,340.6 880.0,334.9 881.1,339.8 882.2,340.6 883.2,340.3 884.3,338.2 885.4,339.3 886.5,338.7 887.6,346.4 888.6,288.7 889.7,339.1 890.8,340.3 891.9,342.0 893.0,341.7 894.1,339.6 895.1,312.1 896.2,343.5 897.3,342.2 898.4,322.7 899.5,348.9 900.6,344.5 901.6,342.6 902.7,342.4 903.8,337.4 904.9,336.7 906.0,331.5 907.0,316.9 908.1,313.8 909.2,336.5 910.3,339.3 911.4,351.6 912.5,341.7 913.5,317.1 914.6,341.6 915.7,334.3 916.8,338.9 917.9,348.0 918.9,317.1 920.0,340.6 921.1,341.7 922.2,340.6 923.3,319.1 924.4,347.2 925.4,345.5 926.5,345.7 927.6,345.8 928.7,345.1 929.8,346.2 930.9,346.7 931.9,351.1 933.0,313.1 934.1,349.0 935.2,346.7 936.3,345.7 937.3,319.3 938.4,345.8 939.5,339.2 940.6,344.5 941.7,321.3 942.8,341.8 943.8,345.7 944.9,343.1 946.0,344.4" fill="none" stroke="#7c3aed" stroke-width="2.2" stroke-linejoin="round" stroke-linecap="round"/>
<line x1="76" y1="70" x2="94" y2="70" stroke="#2563eb" stroke-width="3"/>
<text x="100" y="74" font-family="Arial, sans-serif" font-size="11" fill="#0f172a">tx count</text>
<line x1="186" y1="70" x2="204" y2="70" stroke="#7c3aed" stroke-width="3"/>
<text x="210" y="74" font-family="Arial, sans-serif" font-size="11" fill="#0f172a">unique accounts</text>
<text x="28" y="404" font-family="Arial, sans-serif" font-size="11" fill="#64748b">Source: hourly_features.csv; capped windows are sample counts</text>
</svg>