<svg xmlns="http://www.w3.org/2000/svg" width="980" height="420" viewBox="0 0 980 420">
<rect width="100%" height="100%" fill="#ffffff"/>
<text x="28" y="34" font-family="Arial, sans-serif" font-size="20" font-weight="700" fill="#0f172a">Network activity sample trend</text>
<text x="28" y="56" font-family="Arial, sans-serif" font-size="12" fill="#64748b">Hourly transaction sample count and unique account sample count</text>
<line x1="76" y1="362.0" x2="946" y2="362.0" stroke="#e2e8f0" stroke-width="1"/>
<text x="68" y="366.0" font-family="Arial, sans-serif" font-size="10" text-anchor="end" fill="#64748b">153</text>
<line x1="76" y1="292.0" x2="946" y2="292.0" stroke="#e2e8f0" stroke-width="1"/>
<text x="68" y="296.0" font-family="Arial, sans-serif" font-size="10" text-anchor="end" fill="#64748b">1K</text>
<line x1="76" y1="222.0" x2="946" y2="222.0" stroke="#e2e8f0" stroke-width="1"/>
<text x="68" y="226.0" font-family="Arial, sans-serif" font-size="10" text-anchor="end" fill="#64748b">3K</text>
<line x1="76" y1="152.0" x2="946" y2="152.0" stroke="#e2e8f0" stroke-width="1"/>
<text x="68" y="156.0" font-family="Arial, sans-serif" font-size="10" text-anchor="end" fill="#64748b">4K</text>
<line x1="76" y1="82.0" x2="946" y2="82.0" stroke="#e2e8f0" stroke-width="1"/>
<text x="68" y="86.0" font-family="Arial, sans-serif" font-size="10" text-anchor="end" fill="#64748b">5K</text>
<line x1="76" y1="362" x2="946" y2="362" stroke="#334155" stroke-width="1"/>
<line x1="76" y1="82" x2="76" y2="362" stroke="#334155" stroke-width="1"/>
<text x="76" y="72" font-family="Arial, sans-serif" font-size="11" fill="#64748b">count</text>
<line x1="76.0" y1="362" x2="76.0" y2="366" stroke="#334155" stroke-width="1"/>
<text x="76.0" y="380" font-family="Arial, sans-serif" font-size="10" text-anchor="middle" fill="#64748b">0</text>
<line x1="511.5" y1="362" x2="511.5" y2="366" stroke="#334155" stroke-width="1"/>
<text x="511.5" y="380" font-family="Arial, sans-serif" font-size="10" text-anchor="middle" fill="#64748b">463</text>
<line x1="946.0" y1="362" x2="946.0" y2="366" stroke="#334155" stroke-width="1"/>
<text x="946.0" y="380" font-family="Arial, sans-serif" font-size="10" text-anchor="middle" fill="#64748b">925</text>
<polyline points="76.0,92.4 76.9,92.4 77.9,92.4 78.8,92.4 79.8,92.4 80.7,92.4 81.6,92.4 82.6,92.4 83.5,92.4 84.5,92.4 85.4,92.4 86.3,92.4 87.3,92.4 88.2,92.4 89.2,92.4 90.1,92.4 91.0,92.4 92.0,92.4 92.9,92.4 93.9,92.4 94.8,92.4 95.8,92.4 96.7,92.4 97.6,92.4 98.6,92.4 99.5,92.4 100.5,92.4 101.4,92.4 102.3,92.4 103.3,92.4 104.2,92.4 105.2,92.4 106.1,92.4 107.0,92.4 108.0,92.4 108.9,92.4 109.9,92.4 110.8,92.4 111.7,92.4 112.7,92.4 113.6,92.4 114.6,92.4 115.5,92.4 116.4,92.4 117.4,92.4 118.3,92.4 119.3,92.4 120.2,92.4 121.1,92.4 122.1,92.4 123.0,92.4 124.0,92.4 124.9,92.4 125.8,92.4 126.8,92.4 127.7,92.4 128.7,92.4 129.6,92.4 130.6,92.4 131.5,92.4 132.4,92.4 133.4,92.4 134.3,92.4 135.3,92.4 136.2,92.4 137.1,92.4 138.1,92.4 139.0,92.4 140.0,92.4 140.9,92.4 141.8,92.4 142.8,92.4 143.7,92.4 144.7,92.4 145.6,92.4 146.5,92.4 147.5,92.4 148.4,92.4 149.4,92.4 150.3,92.4 151.2,92.4 152.2,92.4 153.1,92.4 154.1,92.4 155.0,92.4 155.9,92.4 156.9,92.4 157.8,92.4 158.8,92.4 159.7,92.4 160.6,92.4 161.6,92.4 162.5,92.4 163.5,92.4 164.4,92.4 165.4,92.4 166.3,92.4 167.2,92.4 168.2,92.4 169.1,92.4 170.1,92.4 171.0,92.4 171.9,92.4 172.9,92.4 173.8,92.4 174.8,92.4 175.7,92.4 176.6,92.4 177.6,92.4 178.5,92.4 179.5,92.4 180.4,92.4 181.3,92.4 182.3,92.4 183.2,92.4 184.2,92.4 185.1,92.4 186.0,92.4 187.0,92.4 187.9,92.4 188.9,92.4 189.8,92.4 190.7,92.4 191.7,92.4 192.6,92.4 193.6,92.4 194.5,92.4 195.4,92.4 196.4,92.4 197.3,92.4 198.3,92.4 199.2,92.4 200.2,92.4 201.1,92.4 202.0,92.4 203.0,92.4 203.9,92.4 204.9,92.4 205.8,92.4 206.7,92.4 207.7,92.4 208.6,92.4 209.6,92.4 210.5,92.4 211.4,92.4 212.4,92.4 213.3,92.4 214.3,92.4 215.2,92.4 216.1,92.4 217.1,92.4 218.0,92.4 219.0,92.4 219.9,92.4 220.8,92.4 221.8,92.4 222.7,92.4 223.7,92.4 224.6,92.4 225.5,92.4 226.5,92.4 227.4,92.4 228.4,92.4 229.3,92.4 230.2,92.4 231.2,92.4 232.1,92.4 233.1,92.4 234.0,92.4 235.0,92.4 235.9,92.4 236.8,92.4 237.8,92.4 238.7,92.4 239.7,92.4 240.6,92.4 241.5,92.4 242.5,92.4 243.4,92.4 244.4,92.4 245.3,92.4 246.2,92.4 247.2,92.4 248.1,92.4 249.1,92.4 250.0,92.4 250.9,92.4 251.9,92.4 252.8,92.4 253.8,92.4 254.7,92.4 255.6,92.4 256.6,92.4 257.5,92.4 258.5,92.4 259.4,92.4 260.3,92.4 261.3,92.4 262.2,92.4 263.2,92.4 264.1,92.4 265.0,92.4 266.0,92.4 266.9,92.4 267.9,92.4 268.8,92.4 269.8,92.4 270.7,92.4 271.6,92.4 272.6,92.4 273.5,92.4 274.5,92.4 275.4,92.4 276.3,92.4 277.3,92.4 278.2,92.4 279.2,92.4 280.1,92.4 281.0,92.4 282.0,92.4 282.9,92.4 283.9,92.4 284.8,92.4 285.7,92.4 286.7,92.4 287.6,92.4 288.6,92.4 289.5,92.4 290.4,92.4 291.4,92.4 292.3,92.4 293.3,92.4 294.2,92.4 295.1,92.4 296.1,92.4 297.0,92.4 298.0,92.4 298.9,92.4 299.8,92.4 300.8,92.4 301.7,92.4 302.7,92.4 303.6,92.4 304.6,92.4 305.5,92.4 306.4,92.4 307.4,92.4 308.3,92.4 309.3,92.4 310.2,92.4 311.1,92.4 312.1,92.4 313.0,92.4 314.0,92.4 314.9,92.4 315.8,92.4 316.8,92.4 317.7,92.4 318.7,92.4 319.6,92.4 320.5,92.4 321.5,92.4 322.4,92.4 323.4,92.4 324.3,92.4 325.2,92.4 326.2,92.4 327.1,92.4 328.1,92.4 329.0,92.4 329.9,92.4 330.9,92.4 331.8,92.4 332.8,92.4 333.7,92.4 334.6,92.4 335.6,92.4 336.5,92.4 337.5,92.4 338.4,92.4 339.4,92.4 340.3,92.4 341.2,92.4 342.2,92.4 343.1,92.4 344.1,92.4 345.0,92.4 345.9,92.4 346.9,92.4 347.8,92.4 348.8,92.4 349.7,92.4 350.6,92.4 351.6,92.4 352.5,92.4 353.5,92.4 354.4,92.4 355.3,92.4 356.3,92.4 357.2,92.4 358.2,92.4 359.1,92.4 360.0,92.4 361.0,92.4 361.9,92.4 362.9,92.4 363.8,92.4 364.7,92.4 365.7,92.4 366.6,92.4 367.6,92.4 368.5,92.4 369.4,92.4 370.4,92.4 371.3,92.4 372.3,92.4 373.2,92.4 374.2,92.4 375.1,92.4 376.0,92.4 377.0,92.4 377.9,92.4 378.9,92.4 379.8,92.4 380.7,92.4 381.7,92.4 382.6,92.4 383.6,92.4 384.5,92.4 385.4,92.4 386.4,92.4 387.3,92.4 388.3,92.4 389.2,92.4 390.1,92.4 391.1,92.4 392.0,92.4 393.0,92.4 393.9,92.4 394.8,92.4 395.8,92.4 396.7,92.4 397.7,92.4 398.6,92.4 399.5,92.4 400.5,92.4 401.4,92.4 402.4,92.4 403.3,92.4 404.2,92.4 405.2,92.4 406.1,92.4 407.1,92.4 408.0,92.4 409.0,92.4 409.9,92.4 410.8,92.4 411.8,92.4 412.7,92.4 413.7,92.4 414.6,92.4 415.5,92.4 416.5,92.4 417.4,92.4 418.4,92.4 419.3,92.4 420.2,92.4 421.2,92.4 422.1,92.4 423.1,92.4 424.0,92.4 424.9,92.4 425.9,92.4 426.8,92.4 427.8,92.4 428.7,92.4 429.6,92.4 430.6,92.4 431.5,92.4 432.5,92.4 433.4,92.4 434.3,92.4 435.3,92.4 436.2,92.4 437.2,92.4 438.1,92.4 439.0,92.4 440.0,92.4 440.9,92.4 441.9,92.4 442.8,92.4 443.8,92.4 444.7,92.4 445.6,92.4 446.6,92.4 447.5,92.4 448.5,92.4 449.4,92.4 450.3,92.4 451.3,92.4 452.2,92.4 453.2,92.4 454.1,92.4 455.0,92.4 456.0,92.4 456.9,92.4 457.9,92.4 458.8,92.4 459.7,92.4 460.7,92.4 461.6,92.4 462.6,92.4 463.5,92.4 464.4,92.4 465.4,92.4 466.3,92.4 467.3,92.4 468.2,92.4 469.1,92.4 470.1,92.4 471.0,92.4 472.0,92.4 472.9,92.4 473.8,92.4 474.8,92.4 475.7,92.4 476.7,92.4 477.6,92.4 478.6,92.4 479.5,92.4 480.4,92.4 481.4,92.4 482.3,92.4 483.3,92.4 484.2,92.4 485.1,92.4 486.1,92.4 487.0,92.4 488.0,92.4 488.9,92.4 489.8,92.4 490.8,92.4 491.7,92.4 492.7,92.4 493.6,92.4 494.5,92.4 495.5,92.4 496.4,92.4 497.4,92.4 498.3,92.4 499.2,92.4 500.2,92.4 501.1,92.4 502.1,92.4 503.0,92.4 503.9,92.4 504.9,92.4 505.8,92.4 506.8,92.4 507.7,92.4 508.6,92.4 509.6,92.4 510.5,92.4 511.5,92.4 512.4,92.4 513.4,92.4 514.3,92.4 515.2,92.4 516.2,92.4 517.1,92.4 518.1,92.4 519.0,92.4 519.9,92.4 520.9,92.4 521.8,92.4 522.8,92.4 523.7,92.4 524.6,92.4 525.6,92.4 526.5,92.4 527.5,92.4 528.4,92.4 529.3,92.4 530.3,92.4 531.2,92.4 532.2,92.4 533.1,92.4 534.0,92.4 535.0,92.4 535.9,92.4 536.9,92.4 537.8,92.4 538.7,92.4 539.7,92.4 540.6,92.4 541.6,92.4 542.5,92.4 543.4,92.4 544.4,92.4 545.3,92.4 546.3,92.4 547.2,92.4 548.2,92.4 549.1,92.4 550.0,92.4 551.0,92.4 551.9,92.4 552.9,92.4 553.8,92.4 554.7,92.4 555.7,92.4 556.6,92.4 557.6,92.4 558.5,92.4 559.4,92.4 560.4,92.4 561.3,92.4 562.3,92.4 563.2,92.4 564.1,92.4 565.1,92.4 566.0,92.4 567.0,92.4 567.9,92.4 568.8,92.4 569.8,92.4 570.7,92.4 571.7,92.4 572.6,92.4 573.5,92.4 574.5,92.4 575.4,92.4 576.4,92.4 577.3,92.4 578.2,92.4 579.2,92.4 580.1,92.4 581.1,92.4 582.0,92.4 583.0,92.4 583.9,92.4 584.8,92.4 585.8,92.4 586.7,92.4 587.7,92.4 588.6,92.4 589.5,92.4 590.5,92.4 591.4,92.4 592.4,92.4 593.3,92.4 594.2,92.4 595.2,92.4 596.1,92.4 597.1,92.4 598.0,92.4 598.9,92.4 599.9,92.4 600.8,92.4 601.8,92.4 602.7,92.4 603.6,92.4 604.6,92.4 605.5,92.4 606.5,92.4 607.4,92.4 608.3,92.4 609.3,92.4 610.2,92.4 611.2,92.4 612.1,92.4 613.0,92.4 614.0,92.4 614.9,92.4 615.9,92.4 616.8,92.4 617.8,92.4 618.7,92.4 619.6,92.4 620.6,92.4 621.5,92.4 622.5,92.4 623.4,92.4 624.3,92.4 625.3,92.4 626.2,92.4 627.2,92.4 628.1,92.4 629.0,92.4 630.0,92.4 630.9,92.4 631.9,92.4 632.8,92.4 633.7,92.4 634.7,92.4 635.6,92.4 636.6,92.4 637.5,92.4 638.4,92.4 639.4,92.4 640.3,92.4 641.3,92.4 642.2,92.4 643.1,92.4 644.1,92.4 645.0,92.4 646.0,92.4 646.9,92.4 647.8,92.4 648.8,92.4 649.7,92.4 650.7,92.4 651.6,92.4 652.6,92.4 653.5,92.4 654.4,92.4 655.4,92.4 656.3,92.4 657.3,92.4 658.2,92.4 659.1,92.4 660.1,92.4 661.0,92.4 662.0,92.4 662.9,92.4 663.8,92.4 664.8,92.4 665.7,92.4 666.7,92.4 667.6,92.4 668.5,92.4 669.5,92.4 670.4,92.4 671.4,92.4 672.3,92.4 673.2,92.4 674.2,92.4 675.1,92.4 676.1,92.4 677.0,92.4 677.9,92.4 678.9,92.4 679.8,92.4 680.8,92.4 681.7,92.4 682.6,92.4 683.6,92.4 684.5,92.4 685.5,92.4 686.4,92.4 687.4,92.4 688.3,92.4 689.2,92.4 690.2,92.4 691.1,92.4 692.1,92.4 693.0,92.4 693.9,92.4 694.9,92.4 695.8,92.4 696.8,92.4 697.7,92.4 698.6,92.4 699.6,92.4 700.5,92.4 701.5,92.4 702.4,92.4 703.3,92.4 704.3,92.4 705.2,92.4 706.2,92.4 707.1,92.4 708.0,92.4 709.0,92.4 709.9,92.4 710.9,92.4 711.8,92.4 712.7,92.4 713.7,92.4 714.6,92.4 715.6,314.9 716.5,314.9 717.4,314.9 718.4,314.9 719.3,314.9 720.3,314.9 721.2,314.9 722.2,314.9 723.1,314.9 724.0,314.9 725.0,314.9 725.9,314.9 726.9,314.9 727.8,314.9 728.7,314.9 729.7,314.9 730.6,314.9 731.6,314.9 732.5,314.9 733.4,314.9 734.4,314.9 735.3,314.9 736.3,314.9 737.2,314.9 738.1,314.9 739.1,314.9 740.0,314.9 741.0,314.9 741.9,314.9 742.8,314.9 743.8,314.9 744.7,314.9 745.7,314.9 746.6,314.9 747.5,314.9 748.5,314.9 749.4,314.9 750.4,314.9 751.3,314.9 752.2,314.9 753.2,314.9 754.1,314.9 755.1,314.9 756.0,314.9 757.0,314.9 757.9,314.9 758.8,314.9 759.8,314.9 760.7,314.9 761.7,314.9 762.6,314.9 763.5,314.9 764.5,314.9 765.4,314.9 766.4,314.9 767.3,314.9 768.2,314.9 769.2,314.9 770.1,314.9 771.1,314.9 772.0,314.9 772.9,314.9 773.9,314.9 774.8,314.9 775.8,314.9 776.7,314.9 777.6,314.9 778.6,314.9 779.5,314.9 780.5,314.9 781.4,314.9 782.3,205.4 783.3,314.9 784.2,314.9 785.2,314.9 786.1,314.9 787.0,314.9 788.0,261.0 788.9,314.9 789.9,314.9 790.8,261.1 791.8,314.9 792.7,314.9 793.6,314.9 794.6,314.9 795.5,314.9 796.5,314.9 797.4,314.9 798.3,259.9 799.3,261.1 800.2,314.9 801.2,314.9 802.1,314.9 803.0,314.9 804.0,262.2 804.9,314.9 805.9,314.9 806.8,314.9 807.7,314.9 808.7,259.6 809.6,314.9 810.6,314.9 811.5,314.9 812.4,260.7 813.4,314.9 814.3,314.9 815.3,314.9 816.2,314.9 817.1,314.9 818.1,314.9 819.0,314.9 820.0,314.9 820.9,205.9 821.8,314.9 822.8,314.9 823.7,314.9 824.7,260.1 825.6,314.9 826.6,314.9 827.5,314.9 828.4,260.5 829.4,314.9 830.3,314.9 831.3,314.9 832.2,260.6 833.1,314.9 834.1,314.9 835.0,260.0 836.0,314.9 836.9,314.9 837.8,314.9 838.8,314.9 839.7,314.9 840.7,314.9 841.6,314.9 842.5,259.6 843.5,259.3 844.4,314.9 845.4,314.9 846.3,261.6 847.2,314.9 848.2,314.9 849.1,314.9 850.1,259.3 851.0,314.9 851.9,314.9 852.9,259.7 853.8,314.9 854.8,314.9 855.7,259.3 856.6,314.9 857.6,260.6 858.5,314.9 859.5,314.9 860.4,314.9 861.4,314.9 862.3,314.9 863.2,314.9 864.2,314.9 865.1,314.9 866.1,205.5 867.0,314.9 867.9,314.9 868.9,314.9 869.8,260.2 870.8,314.9 871.7,314.9 872.6,314.9 873.6,262.1 874.5,314.9 875.5,261.0 876.4,314.9 877.3,314.9 878.3,259.9 879.2,314.9 880.2,259.4 881.1,314.9 882.0,314.9 883.0,314.9 883.9,314.9 884.9,314.9 885.8,314.9 886.7,314.9 887.7,314.9 888.6,314.9 889.6,260.2 890.5,262.5 891.4,314.9 892.4,314.9 893.3,314.9 894.3,314.9 895.2,314.9 896.2,314.9 897.1,261.4 898.0,314.9 899.0,314.9 899.9,314.9 900.9,259.5 901.8,314.9 902.7,314.9 903.7,314.9 904.6,261.1 905.6,314.9 906.5,314.9 907.4,314.9 908.4,314.9 909.3,314.9 910.3,314.9 911.2,260.1 912.1,265.3 913.1,314.9 914.0,314.9 915.0,314.9 915.9,267.5 916.8,314.9 917.8,314.9 918.7,314.9 919.7,314.9 920.6,314.9 921.5,267.2 922.5,314.9 923.4,314.9 924.4,260.2 925.3,314.9 926.2,314.9 927.2,314.9 928.1,314.9 929.1,314.9 930.0,314.9 931.0,314.9 931.9,314.9 932.8,314.9 933.8,314.9 934.7,314.9 935.7,261.2 936.6,314.9 937.5,314.9 938.5,314.9 939.4,314.9 940.4,314.9 941.3,261.3 942.2,314.9 943.2,314.9 944.1,314.9 945.1,314.9 946.0,314.9" fill="none" stroke="#2563eb" stroke-width="2.2" stroke-linejoin="round" stroke-linecap="round"/>
<polyline points="76.0,260.4 76.9,256.5 77.9,247.3 78.8,245.1 79.8,248.7 80.7,238.2 81.6,237.6 82.6,241.4 83.5,246.3 84.5,245.8 85.4,262.2 86.3,243.9 87.3,243.1 88.2,244.7 89.2,248.8 90.1,257.0 91.0,254.2 92.0,251.9 92.9,249.4 93.9,254.3 94.8,259.1 95.8,255.2 96.7,253.3 97.6,253.0 98.6,247.1 99.5,245.5 100.5,247.5 101.4,239.0 102.3,230.5 103.3,239.1 104.2,241.4 105.2,255.0 106.1,248.8 107.0,248.4 108.0,252.9 108.9,248.3 109.9,245.2 110.8,251.1 111.7,244.9 112.7,244.8 113.6,242.6 114.6,259.5 115.5,255.8 116.4,251.9 117.4,218.0 118.3,220.5 119.3,253.1 120.2,249.0 121.1,235.3 122.1,217.5 123.0,237.8 124.0,248.9 124.9,241.8 125.8,240.0 126.8,241.8 127.7,244.6 128.7,242.3 129.6,247.8 130.6,239.2 131.5,244.8 132.4,236.8 133.4,243.3 134.3,241.8 135.3,282.4 136.2,267.5 137.1,259.9 138.1,267.6 139.0,264.6 140.0,236.4 140.9,231.8 141.8,241.3 142.8,257.5 143.7,269.9 144.7,243.9 145.6,243.3 146.5,245.9 147.5,258.7 148.4,248.2 149.4,256.8 150.3,243.7 151.2,238.4 152.2,251.7 153.1,247.7 154.1,252.3 155.0,253.5 155.9,251.8 156.9,259.6 157.8,249.2 158.8,249.2 159.7,251.5 160.6,247.8 161.6,265.8 162.5,229.5 163.5,253.5 164.4,248.8 165.4,216.5 166.3,254.2 167.2,243.1 168.2,245.7 169.1,225.0 170.1,244.0 171.0,246.2 171.9,238.9 172.9,247.2 173.8,241.5 174.8,247.9 175.7,242.2 176.6,240.7 177.6,240.6 178.5,245.9 179.5,243.2 180.4,249.6 181.3,235.8 182.3,249.2 183.2,250.3 184.2,248.7 185.1,218.2 186.0,202.0 187.0,213.0 187.9,214.0 188.9,213.6 189.8,223.1 190.7,218.6 191.7,214.2 192.6,241.4 193.6,244.2 194.5,239.8 195.4,241.1 196.4,240.1 197.3,239.6 198.3,240.6 199.2,242.4 200.2,241.3 201.1,242.9 202.0,247.5 203.0,242.9 203.9,255.8 204.9,255.5 205.8,246.0 206.7,260.9 207.7,287.5 208.6,252.0 209.6,265.7 210.5,253.3 211.4,251.1 212.4,251.3 213.3,248.6 214.3,249.6 215.2,243.1 216.1,248.9 217.1,242.2 218.0,240.3 219.0,238.7 219.9,240.6 220.8,249.2 221.8,261.7 222.7,245.0 223.7,250.0 224.6,248.7 225.5,250.8 226.5,251.1 227.4,256.3 228.4,258.4 229.3,256.7 230.2,289.3 231.2,253.4 232.1,267.7 233.1,234.2 234.0,249.9 235.0,242.9 235.9,246.8 236.8,238.4 237.8,240.6 238.7,246.6 239.7,241.0 240.6,234.6 241.5,243.6 242.5,245.3 243.4,239.3 244.4,243.1 245.3,242.9 246.2,244.7 247.2,245.7 248.1,249.5 249.1,251.0 250.0,256.7 250.9,261.1 251.9,250.0 252.8,282.8 253.8,249.5 254.7,252.8 255.6,248.4 256.6,247.6 257.5,240.8 258.5,240.3 259.4,240.1 260.3,238.9 261.3,245.2 262.2,245.9 263.2,256.6 264.1,255.0 265.0,251.5 266.0,247.9 266.9,253.5 267.9,245.4 268.8,251.3 269.8,243.7 270.7,251.1 271.6,255.8 272.6,259.0 273.5,256.6 274.5,263.8 275.4,294.7 276.3,257.7 277.3,258.0 278.2,256.3 279.2,255.5 280.1,247.4 281.0,245.8 282.0,243.7 282.9,250.1 283.9,246.6 284.8,243.3 285.7,243.3 286.7,239.2 287.6,246.0 288.6,238.2 289.5,239.3 290.4,238.8 291.4,253.5 292.3,253.2 293.3,251.9 294.2,257.0 295.1,270.8 296.1,255.6 297.0,258.2 298.0,255.8 298.9,250.1 299.8,230.0 300.8,217.9 301.7,255.3 302.7,242.9 303.6,226.3 304.6,222.7 305.5,222.3 306.4,222.0 307.4,220.9 308.3,237.2 309.3,229.8 310.2,233.3 311.1,234.0 312.1,243.6 313.0,254.5 314.0,264.0 314.9,243.1 315.8,281.2 316.8,247.9 317.7,262.7 318.7,254.6 319.6,256.1 320.5,263.5 321.5,247.4 322.4,208.1 323.4,218.9 324.3,221.1 325.2,223.9 326.2,213.4 327.1,225.5 328.1,220.2 329.0,207.3 329.9,239.9 330.9,237.7 331.8,246.7 332.8,249.2 333.7,245.3 334.6,241.6 335.6,250.3 336.5,248.1 337.5,246.6 338.4,265.0 339.4,250.0 340.3,245.5 341.2,256.6 342.2,225.3 343.1,209.7 344.1,215.1 345.0,253.5 345.9,249.3 346.9,243.2 347.8,267.8 348.8,237.3 349.7,242.6 350.6,241.2 351.6,248.6 352.5,230.5 353.5,240.7 354.4,242.6 355.3,263.0 356.3,237.2 357.2,242.5 358.2,240.7 359.1,245.7 360.0,244.6 361.0,261.2 361.9,248.6 362.9,255.9 363.8,252.5 364.7,249.5 365.7,262.6 366.6,250.4 367.6,256.8 368.5,261.5 369.4,251.7 370.4,228.1 371.3,222.4 372.3,255.6 373.2,243.7 374.2,250.6 375.1,253.2 376.0,245.9 377.0,248.9 377.9,247.9 378.9,246.3 379.8,243.2 380.7,262.6 381.7,260.6 382.6,256.0 383.6,260.0 384.5,256.7 385.4,281.1 386.4,274.0 387.3,270.5 388.3,274.0 389.2,280.0 390.1,279.9 391.1,275.1 392.0,279.0 393.0,280.9 393.9,275.9 394.8,273.5 395.8,263.4 396.7,248.9 397.7,257.3 398.6,270.9 399.5,258.7 400.5,261.0 401.4,255.5 402.4,263.2 403.3,259.9 404.2,259.7 405.2,259.7 406.1,252.1 407.1,260.4 408.0,255.1 409.0,259.1 409.9,247.4 410.8,252.7 411.8,258.3 412.7,260.4 413.7,261.4 414.6,257.0 415.5,256.1 416.5,250.1 417.4,249.3 418.4,252.2 419.3,231.7 420.2,244.6 421.2,256.7 422.1,245.3 423.1,242.2 424.0,247.4 424.9,249.2 425.9,251.0 426.8,250.5 427.8,252.3 428.7,252.8 429.6,248.9 430.6,259.6 431.5,258.2 432.5,263.2 433.4,258.0 434.3,263.0 435.3,255.0 436.2,251.7 437.2,259.2 438.1,242.1 439.0,250.8 440.0,243.5 440.9,247.1 441.9,233.2 442.8,241.0 443.8,245.9 444.7,253.4 445.6,234.3 446.6,248.8 447.5,234.7 448.5,240.4 449.4,245.6 450.3,244.1 451.3,244.7 452.2,243.4 453.2,251.0 454.1,263.7 455.0,255.6 456.0,212.9 456.9,219.2 457.9,215.4 458.8,229.6 459.7,219.0 460.7,219.5 461.6,227.1 462.6,248.0 463.5,245.8 464.4,232.3 465.4,243.8 466.3,242.9 467.3,250.7 468.2,243.8 469.1,245.3 470.1,246.1 471.0,245.5 472.0,237.0 472.9,238.8 473.8,249.7 474.8,250.6 475.7,249.7 476.7,257.1 477.6,246.4 478.6,253.3 479.5,253.3 480.4,253.9 481.4,250.4 482.3,248.2 483.3,245.3 484.2,233.3 485.1,255.4 486.1,237.3 487.0,215.7 488.0,242.6 488.9,241.2 489.8,245.2 490.8,246.3 491.7,243.4 492.7,242.4 493.6,245.8 494.5,248.8 495.5,246.7 496.4,250.1 497.4,247.5 498.3,250.1 499.2,256.1 500.2,258.4 501.1,237.5 502.1,260.2 503.0,265.6 503.9,268.5 504.9,250.8 505.8,247.3 506.8,254.5 507.7,240.3 508.6,242.5 509.6,233.9 510.5,243.7 511.5,249.9 512.4,238.4 513.4,232.4 514.3,236.9 515.2,239.8 516.2,233.1 517.1,250.4 518.1,242.8 519.0,242.2 519.9,259.9 520.9,302.6 521.8,247.7 522.8,243.7 523.7,256.6 524.6,253.6 525.6,250.8 526.5,254.0 527.5,243.0 528.4,240.2 529.3,238.8 530.3,240.8 531.2,246.3 532.2,238.9 533.1,235.3 534.0,240.0 535.0,237.8 535.9,234.5 536.9,239.4 537.8,244.8 538.7,241.3 539.7,243.7 540.6,246.7 541.6,236.6 542.5,249.4 543.4,247.2 544.4,273.7 545.3,257.3 546.3,248.7 547.2,266.9 548.2,249.3 549.1,252.0 550.0,251.7 551.0,246.2 551.9,235.9 552.9,244.6 553.8,244.9 554.7,243.1 555.7,244.1 556.6,234.4 557.6,238.2 558.5,237.8 559.4,262.7 560.4,241.3 561.3,242.5 562.3,237.9 563.2,248.4 564.1,249.8 565.1,258.0 566.0,243.4 567.0,261.4 567.9,246.4 568.8,260.5 569.8,263.5 570.7,245.9 571.7,252.1 572.6,245.1 573.5,250.1 574.5,244.2 575.4,249.0 576.4,243.3 577.3,239.7 578.2,235.3 579.2,249.3 580.1,243.9 581.1,237.7 582.0,236.7 583.0,243.3 583.9,245.2 584.8,252.2 585.8,234.8 586.7,248.9 587.7,249.7 588.6,253.3 589.5,258.5 590.5,258.4 591.4,254.5 592.4,246.4 593.3,248.7 594.2,256.2 595.2,249.7 596.1,245.7 597.1,239.9 598.0,233.9 598.9,238.3 599.9,239.3 600.8,240.9 601.8,247.8 602.7,249.2 603.6,246.0 604.6,245.0 605.5,241.7 606.5,245.7 607.4,248.4 608.3,241.6 609.3,247.2 610.2,255.5 611.2,254.1 612.1,263.6 613.0,251.0 614.0,255.0 614.9,252.7 615.9,261.5 616.8,253.3 617.8,241.3 618.7,244.2 619.6,234.2 620.6,241.3 621.5,245.4 622.5,230.1 623.4,243.0 624.3,239.0 625.3,243.2 626.2,242.2 627.2,243.6 628.1,242.8 629.0,235.8 630.0,241.7 630.9,238.4 631.9,255.3 632.8,254.0 633.7,254.4 634.7,254.8 635.6,254.9 636.6,260.6 637.5,254.5 638.4,253.2 639.4,253.8 640.3,250.0 641.3,267.3 642.2,252.1 643.1,243.9 644.1,247.7 645.0,235.3 646.0,238.5 646.9,243.9 647.8,252.3 648.8,248.6 649.7,248.7 650.7,250.6 651.6,241.6 652.6,248.7 653.5,249.7 654.4,262.1 655.4,260.6 656.3,259.9 657.3,256.5 658.2,262.2 659.1,253.6 660.1,260.9 661.0,251.4 662.0,254.6 662.9,250.3 663.8,253.0 664.8,250.4 665.7,244.6 666.7,246.6 667.6,239.6 668.5,240.0 669.5,246.7 670.4,248.7 671.4,243.2 672.3,245.7 673.2,244.5 674.2,250.0 675.1,246.4 676.1,254.3 677.0,251.2 677.9,253.3 678.9,257.9 679.8,249.5 680.8,251.5 681.7,262.1 682.6,253.0 683.6,261.2 684.5,246.3 685.5,250.0 686.4,248.6 687.4,250.8 688.3,242.7 689.2,250.7 690.2,242.4 691.1,246.2 692.1,249.6 693.0,243.8 693.9,243.9 694.9,258.9 695.8,253.2 696.8,249.6 697.7,249.2 698.6,252.0 699.6,252.7 700.5,252.7 701.5,263.5 702.4,245.9 703.3,269.6 704.3,252.0 705.2,255.0 706.2,256.0 707.1,241.1 708.0,249.0 709.0,249.8 709.9,248.9 710.9,249.7 711.8,264.1 712.7,258.0 713.7,241.3 714.6,243.7 715.6,342.1 716.5,337.6 717.4,337.9 718.4,335.7 719.3,336.7 720.3,341.5 721.2,340.3 722.2,339.8 723.1,339.6 724.0,340.4 725.0,338.1 725.9,337.5 726.9,338.8 727.8,338.0 728.7,341.8 729.7,337.4 730.6,346.5 731.6,336.8 732.5,339.2 733.4,336.8 734.4,336.7 735.3,337.6 736.3,336.1 737.2,339.8 738.1,339.7 739.1,337.2 740.0,338.7 741.0,337.7 741.9,338.4 742.8,336.6 743.8,340.8 744.7,334.7 745.7,337.2 746.6,339.1 747.5,339.4 748.5,338.8 749.4,341.6 750.4,339.2 751.3,339.4 752.2,337.1 753.2,338.1 754.1,336.2 755.1,337.8 756.0,338.0 757.0,337.5 757.9,338.6 758.8,335.8 759.8,336.2 760.7,336.9 761.7,337.4 762.6,332.4 763.5,332.2 764.5,331.3 765.4,336.8 766.4,336.9 767.3,336.8 768.2,336.2 769.2,338.6 770.1,338.0 771.1,338.6 772.0,339.6 772.9,338.6 773.9,337.1 774.8,331.5 775.8,336.4 776.7,337.1 777.6,336.9 778.6,334.8 779.5,335.9 780.5,335.2 781.4,342.9 782.3,286.0 783.3,335.7 784.2,336.9 785.2,338.6 786.1,338.2 787.0,336.2 788.0,309.0 788.9,340.0 789.9,338.7 790.8,319.5 791.8,345.3 792.7,340.9 793.6,339.1 794.6,338.9 795.5,333.9 796.5,333.3 797.4,328.2 798.3,313.8 799.3,310.7 800.2,333.1 801.2,335.8 802.1,348.0 803.0,338.2 804.0,314.0 804.9,338.1 805.9,330.9 806.8,335.4 807.7,344.4 808.7,313.9 809.6,337.2 810.6,338.2 811.5,337.2 812.4,316.0 813.4,343.6 814.3,342.0 815.3,342.1 816.2,342.2 817.1,341.6 818.1,342.7 819.0,343.1 820.0,347.5 820.9,310.0 821.8,345.4 822.8,343.1 823.7,342.1 824.7,316.1 825.6,342.3 826.6,335.7 827.5,340.9 828.4,318.1 829.4,338.3 830.3,342.2 831.3,339.6 832.2,321.0 833.1,347.0 834.1,341.5 835.0,322.9 836.0,341.8 836.9,341.9 837.8,340.7 838.8,339.4 839.7,342.2 840.7,341.9 841.6,340.1 842.5,316.8 843.5,316.9 844.4,343.7 845.4,340.3 846.3,313.1 847.2,338.1 848.2,336.7 849.1,338.3 850.1,294.0 851.0,340.8 851.9,340.4 852.9,311.9 853.8,343.7 854.8,339.4 855.7,319.5 856.6,344.3 857.6,318.8 858.5,336.9 859.5,344.1 860.4,343.6 861.4,341.6 862.3,339.2 863.2,340.2 864.2,342.0 865.1,340.4 866.1,293.7 867.0,340.2 867.9,342.3 868.9,337.2 869.8,311.6 870.8,342.1 871.7,337.4 872.6,340.7 873.6,319.0 874.5,338.3 875.5,316.6 876.4,337.6 877.3,338.9 878.3,315.0 879.2,339.6 880.2,320.0 881.1,342.0 882.0,338.9 883.0,343.4 883.9,340.7 884.9,346.5 885.8,341.4 886.7,338.5 887.7,339.6 888.6,340.1 889.6,316.3 890.5,313.8 891.4,339.3 892.4,338.6 893.3,338.3 894.3,343.5 895.2,343.4 896.2,334.7 897.1,318.2 898.0,340.9 899.0,345.0 899.9,341.7 900.9,322.1 901.8,340.8 902.7,342.8 903.7,351.6 904.6,327.8 905.6,342.3 906.5,348.3 907.4,345.7 908.4,341.6 909.3,343.9 910.3,346.8 911.2,323.9 912.1,321.3 913.1,349.4 914.0,342.0 915.0,340.6 915.9,320.4 916.8,345.0 917.8,339.9 918.7,342.3 919.7,348.1 920.6,342.6 921.5,320.8 922.5,343.3 923.4,346.5 924.4,324.1 925.3,346.3 926.2,345.7 927.2,346.8 928.1,348.3 929.1,348.1 930.0,346.3 931.0,347.2 931.9,346.5 932.8,341.0 933.8,340.7 934.7,338.4 935.7,317.8 936.6,343.2 937.5,340.1 938.5,343.0 939.4,342.7 940.4,340.3 941.3,322.4 942.2,348.9 943.2,335.4 944.1,337.7 945.1,343.5 946.0,339.8" fill="none" stroke="#7c3aed" stroke-width="2.2" stroke-linejoin="round" stroke-linecap="round"/>
<line x1="76" y1="70" x2="94" y2="70" stroke="#2563eb" stroke-width="3"/>
<text x="100" y="74" font-family="Arial, sans-serif" font-size="11" fill="#0f172a">tx count</text>
<line x1="186" y1="70" x2="204" y2="70" stroke="#7c3aed" stroke-width="3"/>
<text x="210" y="74" font-family="Arial, sans-serif" font-size="11" fill="#0f172a">unique accounts</text>
<text x="28" y="404" font-family="Arial, sans-serif" font-size="11" fill="#64748b">Source: hourly_features.csv; capped windows are sample counts</text>
</svg>