<svg xmlns="http://www.w3.org/2000/svg" width="980" height="420" viewBox="0 0 980 420">
<rect width="100%" height="100%" fill="#ffffff"/>
<text x="28" y="34" font-family="Arial, sans-serif" font-size="20" font-weight="700" fill="#0f172a">Network activity sample trend</text>
<text x="28" y="56" font-family="Arial, sans-serif" font-size="12" fill="#64748b">Hourly transaction sample count and unique account sample count</text>
<line x1="76" y1="362.0" x2="946" y2="362.0" stroke="#e2e8f0" stroke-width="1"/>
<text x="68" y="366.0" font-family="Arial, sans-serif" font-size="10" text-anchor="end" fill="#64748b">220</text>
<line x1="76" y1="292.0" x2="946" y2="292.0" stroke="#e2e8f0" stroke-width="1"/>
<text x="68" y="296.0" font-family="Arial, sans-serif" font-size="10" text-anchor="end" fill="#64748b">1K</text>
<line x1="76" y1="222.0" x2="946" y2="222.0" stroke="#e2e8f0" stroke-width="1"/>
<text x="68" y="226.0" font-family="Arial, sans-serif" font-size="10" text-anchor="end" fill="#64748b">3K</text>
<line x1="76" y1="152.0" x2="946" y2="152.0" stroke="#e2e8f0" stroke-width="1"/>
<text x="68" y="156.0" font-family="Arial, sans-serif" font-size="10" text-anchor="end" fill="#64748b">4K</text>
<line x1="76" y1="82.0" x2="946" y2="82.0" stroke="#e2e8f0" stroke-width="1"/>
<text x="68" y="86.0" font-family="Arial, sans-serif" font-size="10" text-anchor="end" fill="#64748b">5K</text>
<line x1="76" y1="362" x2="946" y2="362" stroke="#334155" stroke-width="1"/>
<line x1="76" y1="82" x2="76" y2="362" stroke="#334155" stroke-width="1"/>
<text x="76" y="72" font-family="Arial, sans-serif" font-size="11" fill="#64748b">count</text>
<line x1="76.0" y1="362" x2="76.0" y2="366" stroke="#334155" stroke-width="1"/>
<text x="76.0" y="380" font-family="Arial, sans-serif" font-size="10" text-anchor="middle" fill="#64748b">0</text>
<line x1="511.5" y1="362" x2="511.5" y2="366" stroke="#334155" stroke-width="1"/>
<text x="511.5" y="380" font-family="Arial, sans-serif" font-size="10" text-anchor="middle" fill="#64748b">439</text>
<line x1="946.0" y1="362" x2="946.0" y2="366" stroke="#334155" stroke-width="1"/>
<text x="946.0" y="380" font-family="Arial, sans-serif" font-size="10" text-anchor="middle" fill="#64748b">877</text>
<polyline points="76.0,92.4 77.0,92.4 78.0,92.4 79.0,92.4 80.0,92.4 81.0,92.4 82.0,92.4 82.9,92.4 83.9,92.4 84.9,92.4 85.9,92.4 86.9,92.4 87.9,92.4 88.9,92.4 89.9,92.4 90.9,92.4 91.9,92.4 92.9,92.4 93.9,92.4 94.8,92.4 95.8,92.4 96.8,92.4 97.8,92.4 98.8,92.4 99.8,92.4 100.8,92.4 101.8,92.4 102.8,92.4 103.8,92.4 104.8,92.4 105.8,92.4 106.8,92.4 107.7,92.4 108.7,92.4 109.7,92.4 110.7,92.4 111.7,92.4 112.7,92.4 113.7,92.4 114.7,92.4 115.7,92.4 116.7,92.4 117.7,92.4 118.7,92.4 119.6,92.4 120.6,92.4 121.6,92.4 122.6,92.4 123.6,92.4 124.6,92.4 125.6,92.4 126.6,92.4 127.6,92.4 128.6,92.4 129.6,92.4 130.6,92.4 131.6,92.4 132.5,92.4 133.5,92.4 134.5,92.4 135.5,92.4 136.5,92.4 137.5,92.4 138.5,92.4 139.5,92.4 140.5,92.4 141.5,92.4 142.5,92.4 143.5,92.4 144.4,92.4 145.4,92.4 146.4,92.4 147.4,92.4 148.4,92.4 149.4,92.4 150.4,92.4 151.4,92.4 152.4,92.4 153.4,92.4 154.4,92.4 155.4,92.4 156.4,92.4 157.3,92.4 158.3,92.4 159.3,92.4 160.3,92.4 161.3,92.4 162.3,92.4 163.3,92.4 164.3,92.4 165.3,92.4 166.3,92.4 167.3,92.4 168.3,92.4 169.2,92.4 170.2,92.4 171.2,92.4 172.2,92.4 173.2,92.4 174.2,92.4 175.2,92.4 176.2,92.4 177.2,92.4 178.2,92.4 179.2,92.4 180.2,92.4 181.2,92.4 182.1,92.4 183.1,92.4 184.1,92.4 185.1,92.4 186.1,92.4 187.1,92.4 188.1,92.4 189.1,92.4 190.1,92.4 191.1,92.4 192.1,92.4 193.1,92.4 194.1,92.4 195.0,92.4 196.0,92.4 197.0,92.4 198.0,92.4 199.0,92.4 200.0,92.4 201.0,92.4 202.0,92.4 203.0,92.4 204.0,92.4 205.0,92.4 206.0,92.4 206.9,92.4 207.9,92.4 208.9,92.4 209.9,92.4 210.9,92.4 211.9,92.4 212.9,92.4 213.9,92.4 214.9,92.4 215.9,92.4 216.9,92.4 217.9,92.4 218.9,92.4 219.8,92.4 220.8,92.4 221.8,92.4 222.8,92.4 223.8,92.4 224.8,92.4 225.8,92.4 226.8,92.4 227.8,92.4 228.8,92.4 229.8,92.4 230.8,92.4 231.7,92.4 232.7,92.4 233.7,92.4 234.7,92.4 235.7,92.4 236.7,92.4 237.7,92.4 238.7,92.4 239.7,92.4 240.7,92.4 241.7,92.4 242.7,92.4 243.7,92.4 244.6,92.4 245.6,92.4 246.6,92.4 247.6,92.4 248.6,92.4 249.6,92.4 250.6,92.4 251.6,92.4 252.6,92.4 253.6,92.4 254.6,92.4 255.6,92.4 256.5,92.4 257.5,92.4 258.5,92.4 259.5,92.4 260.5,92.4 261.5,92.4 262.5,92.4 263.5,92.4 264.5,92.4 265.5,92.4 266.5,92.4 267.5,92.4 268.5,92.4 269.4,92.4 270.4,92.4 271.4,92.4 272.4,92.4 273.4,92.4 274.4,92.4 275.4,92.4 276.4,92.4 277.4,92.4 278.4,92.4 279.4,92.4 280.4,92.4 281.3,92.4 282.3,92.4 283.3,92.4 284.3,92.4 285.3,92.4 286.3,92.4 287.3,92.4 288.3,92.4 289.3,92.4 290.3,92.4 291.3,92.4 292.3,92.4 293.3,92.4 294.2,92.4 295.2,92.4 296.2,92.4 297.2,92.4 298.2,92.4 299.2,92.4 300.2,92.4 301.2,92.4 302.2,92.4 303.2,92.4 304.2,92.4 305.2,92.4 306.1,92.4 307.1,92.4 308.1,92.4 309.1,92.4 310.1,92.4 311.1,92.4 312.1,92.4 313.1,92.4 314.1,92.4 315.1,92.4 316.1,92.4 317.1,92.4 318.1,92.4 319.0,92.4 320.0,92.4 321.0,92.4 322.0,92.4 323.0,92.4 324.0,92.4 325.0,92.4 326.0,92.4 327.0,92.4 328.0,92.4 329.0,92.4 330.0,92.4 330.9,92.4 331.9,92.4 332.9,92.4 333.9,92.4 334.9,92.4 335.9,92.4 336.9,92.4 337.9,92.4 338.9,92.4 339.9,92.4 340.9,92.4 341.9,92.4 342.9,92.4 343.8,92.4 344.8,92.4 345.8,92.4 346.8,92.4 347.8,92.4 348.8,92.4 349.8,92.4 350.8,92.4 351.8,92.4 352.8,92.4 353.8,92.4 354.8,92.4 355.7,92.4 356.7,92.4 357.7,92.4 358.7,92.4 359.7,92.4 360.7,92.4 361.7,92.4 362.7,92.4 363.7,92.4 364.7,92.4 365.7,92.4 366.7,92.4 367.7,92.4 368.6,92.4 369.6,92.4 370.6,92.4 371.6,92.4 372.6,92.4 373.6,92.4 374.6,92.4 375.6,92.4 376.6,92.4 377.6,92.4 378.6,92.4 379.6,92.4 380.5,92.4 381.5,92.4 382.5,92.4 383.5,92.4 384.5,92.4 385.5,92.4 386.5,92.4 387.5,92.4 388.5,92.4 389.5,92.4 390.5,92.4 391.5,92.4 392.5,92.4 393.4,92.4 394.4,92.4 395.4,92.4 396.4,92.4 397.4,92.4 398.4,92.4 399.4,92.4 400.4,92.4 401.4,92.4 402.4,92.4 403.4,92.4 404.4,92.4 405.4,92.4 406.3,92.4 407.3,92.4 408.3,92.4 409.3,92.4 410.3,92.4 411.3,92.4 412.3,92.4 413.3,92.4 414.3,92.4 415.3,92.4 416.3,92.4 417.3,92.4 418.2,92.4 419.2,92.4 420.2,92.4 421.2,92.4 422.2,92.4 423.2,92.4 424.2,92.4 425.2,92.4 426.2,92.4 427.2,92.4 428.2,92.4 429.2,92.4 430.2,92.4 431.1,92.4 432.1,92.4 433.1,92.4 434.1,92.4 435.1,92.4 436.1,92.4 437.1,92.4 438.1,92.4 439.1,92.4 440.1,92.4 441.1,92.4 442.1,92.4 443.0,92.4 444.0,92.4 445.0,92.4 446.0,92.4 447.0,92.4 448.0,92.4 449.0,92.4 450.0,92.4 451.0,92.4 452.0,92.4 453.0,92.4 454.0,92.4 455.0,92.4 455.9,92.4 456.9,92.4 457.9,92.4 458.9,92.4 459.9,92.4 460.9,92.4 461.9,92.4 462.9,92.4 463.9,92.4 464.9,92.4 465.9,92.4 466.9,92.4 467.8,92.4 468.8,92.4 469.8,92.4 470.8,92.4 471.8,92.4 472.8,92.4 473.8,92.4 474.8,92.4 475.8,92.4 476.8,92.4 477.8,92.4 478.8,92.4 479.8,92.4 480.7,92.4 481.7,92.4 482.7,92.4 483.7,92.4 484.7,92.4 485.7,92.4 486.7,92.4 487.7,92.4 488.7,92.4 489.7,92.4 490.7,92.4 491.7,92.4 492.6,92.4 493.6,92.4 494.6,92.4 495.6,92.4 496.6,92.4 497.6,92.4 498.6,92.4 499.6,92.4 500.6,92.4 501.6,92.4 502.6,92.4 503.6,92.4 504.6,92.4 505.5,92.4 506.5,92.4 507.5,92.4 508.5,92.4 509.5,92.4 510.5,92.4 511.5,92.4 512.5,92.4 513.5,92.4 514.5,92.4 515.5,92.4 516.5,92.4 517.4,92.4 518.4,92.4 519.4,92.4 520.4,92.4 521.4,92.4 522.4,92.4 523.4,92.4 524.4,92.4 525.4,92.4 526.4,92.4 527.4,92.4 528.4,92.4 529.4,92.4 530.3,92.4 531.3,92.4 532.3,92.4 533.3,92.4 534.3,92.4 535.3,92.4 536.3,92.4 537.3,92.4 538.3,92.4 539.3,92.4 540.3,92.4 541.3,92.4 542.2,92.4 543.2,92.4 544.2,92.4 545.2,92.4 546.2,92.4 547.2,92.4 548.2,92.4 549.2,92.4 550.2,92.4 551.2,92.4 552.2,92.4 553.2,92.4 554.2,92.4 555.1,92.4 556.1,92.4 557.1,92.4 558.1,92.4 559.1,92.4 560.1,92.4 561.1,92.4 562.1,92.4 563.1,92.4 564.1,92.4 565.1,92.4 566.1,92.4 567.0,92.4 568.0,92.4 569.0,92.4 570.0,92.4 571.0,92.4 572.0,92.4 573.0,92.4 574.0,92.4 575.0,92.4 576.0,92.4 577.0,92.4 578.0,92.4 579.0,92.4 579.9,92.4 580.9,92.4 581.9,92.4 582.9,92.4 583.9,92.4 584.9,92.4 585.9,92.4 586.9,92.4 587.9,92.4 588.9,92.4 589.9,92.4 590.9,92.4 591.8,92.4 592.8,92.4 593.8,92.4 594.8,92.4 595.8,92.4 596.8,92.4 597.8,92.4 598.8,92.4 599.8,92.4 600.8,92.4 601.8,92.4 602.8,92.4 603.8,92.4 604.7,92.4 605.7,92.4 606.7,92.4 607.7,92.4 608.7,92.4 609.7,92.4 610.7,92.4 611.7,92.4 612.7,92.4 613.7,92.4 614.7,92.4 615.7,92.4 616.6,92.4 617.6,92.4 618.6,92.4 619.6,92.4 620.6,92.4 621.6,92.4 622.6,92.4 623.6,92.4 624.6,92.4 625.6,92.4 626.6,92.4 627.6,92.4 628.6,92.4 629.5,92.4 630.5,92.4 631.5,92.4 632.5,92.4 633.5,92.4 634.5,92.4 635.5,92.4 636.5,92.4 637.5,92.4 638.5,92.4 639.5,92.4 640.5,92.4 641.5,92.4 642.4,92.4 643.4,92.4 644.4,92.4 645.4,92.4 646.4,92.4 647.4,92.4 648.4,92.4 649.4,92.4 650.4,92.4 651.4,92.4 652.4,92.4 653.4,92.4 654.3,92.4 655.3,92.4 656.3,92.4 657.3,92.4 658.3,92.4 659.3,92.4 660.3,92.4 661.3,92.4 662.3,92.4 663.3,92.4 664.3,92.4 665.3,92.4 666.3,92.4 667.2,92.4 668.2,92.4 669.2,92.4 670.2,92.4 671.2,92.4 672.2,92.4 673.2,92.4 674.2,92.4 675.2,92.4 676.2,92.4 677.2,92.4 678.2,92.4 679.1,92.4 680.1,92.4 681.1,92.4 682.1,92.4 683.1,92.4 684.1,92.4 685.1,92.4 686.1,92.4 687.1,92.4 688.1,92.4 689.1,92.4 690.1,92.4 691.1,92.4 692.0,92.4 693.0,92.4 694.0,92.4 695.0,92.4 696.0,92.4 697.0,92.4 698.0,92.4 699.0,92.4 700.0,92.4 701.0,92.4 702.0,92.4 703.0,92.4 703.9,92.4 704.9,92.4 705.9,92.4 706.9,92.4 707.9,92.4 708.9,92.4 709.9,92.4 710.9,92.4 711.9,92.4 712.9,92.4 713.9,92.4 714.9,92.4 715.9,92.4 716.8,92.4 717.8,92.4 718.8,92.4 719.8,92.4 720.8,92.4 721.8,92.4 722.8,92.4 723.8,92.4 724.8,92.4 725.8,92.4 726.8,92.4 727.8,92.4 728.7,92.4 729.7,92.4 730.7,92.4 731.7,92.4 732.7,92.4 733.7,92.4 734.7,92.4 735.7,92.4 736.7,92.4 737.7,92.4 738.7,92.4 739.7,92.4 740.7,92.4 741.6,92.4 742.6,92.4 743.6,92.4 744.6,92.4 745.6,92.4 746.6,92.4 747.6,92.4 748.6,92.4 749.6,92.4 750.6,318.0 751.6,318.0 752.6,318.0 753.5,318.0 754.5,318.0 755.5,318.0 756.5,318.0 757.5,318.0 758.5,318.0 759.5,318.0 760.5,318.0 761.5,318.0 762.5,318.0 763.5,318.0 764.5,318.0 765.5,318.0 766.4,318.0 767.4,318.0 768.4,318.0 769.4,318.0 770.4,318.0 771.4,318.0 772.4,318.0 773.4,318.0 774.4,318.0 775.4,318.0 776.4,318.0 777.4,318.0 778.3,318.0 779.3,318.0 780.3,318.0 781.3,318.0 782.3,318.0 783.3,318.0 784.3,318.0 785.3,318.0 786.3,318.0 787.3,318.0 788.3,318.0 789.3,318.0 790.3,318.0 791.2,318.0 792.2,318.0 793.2,318.0 794.2,318.0 795.2,318.0 796.2,318.0 797.2,318.0 798.2,318.0 799.2,318.0 800.2,318.0 801.2,318.0 802.2,318.0 803.1,318.0 804.1,318.0 805.1,318.0 806.1,318.0 807.1,318.0 808.1,318.0 809.1,318.0 810.1,318.0 811.1,318.0 812.1,318.0 813.1,318.0 814.1,318.0 815.1,318.0 816.0,318.0 817.0,318.0 818.0,318.0 819.0,318.0 820.0,318.0 821.0,207.0 822.0,318.0 823.0,318.0 824.0,318.0 825.0,318.0 826.0,318.0 827.0,263.4 827.9,318.0 828.9,318.0 829.9,263.5 830.9,318.0 831.9,318.0 832.9,318.0 833.9,318.0 834.9,318.0 835.9,318.0 836.9,318.0 837.9,262.2 838.9,263.5 839.9,318.0 840.8,318.0 841.8,318.0 842.8,318.0 843.8,264.6 844.8,318.0 845.8,318.0 846.8,318.0 847.8,318.0 848.8,261.9 849.8,318.0 850.8,318.0 851.8,318.0 852.8,263.1 853.7,318.0 854.7,318.0 855.7,318.0 856.7,318.0 857.7,318.0 858.7,318.0 859.7,318.0 860.7,318.0 861.7,207.5 862.7,318.0 863.7,318.0 864.7,318.0 865.6,262.4 866.6,318.0 867.6,318.0 868.6,318.0 869.6,262.8 870.6,318.0 871.6,318.0 872.6,318.0 873.6,263.0 874.6,318.0 875.6,318.0 876.6,262.3 877.6,318.0 878.5,318.0 879.5,318.0 880.5,318.0 881.5,318.0 882.5,318.0 883.5,318.0 884.5,261.9 885.5,261.7 886.5,318.0 887.5,318.0 888.5,264.0 889.5,318.0 890.4,318.0 891.4,318.0 892.4,261.7 893.4,318.0 894.4,318.0 895.4,262.1 896.4,318.0 897.4,318.0 898.4,261.7 899.4,318.0 900.4,263.0 901.4,318.0 902.4,318.0 903.3,318.0 904.3,318.0 905.3,318.0 906.3,318.0 907.3,318.0 908.3,318.0 909.3,207.1 910.3,318.0 911.3,318.0 912.3,318.0 913.3,262.6 914.3,318.0 915.2,318.0 916.2,318.0 917.2,264.5 918.2,318.0 919.2,263.4 920.2,318.0 921.2,318.0 922.2,262.3 923.2,318.0 924.2,261.7 925.2,318.0 926.2,318.0 927.2,318.0 928.1,318.0 929.1,318.0 930.1,318.0 931.1,318.0 932.1,318.0 933.1,318.0 934.1,262.6 935.1,264.9 936.1,318.0 937.1,318.0 938.1,318.0 939.1,318.0 940.0,318.0 941.0,318.0 942.0,263.7 943.0,318.0 944.0,318.0 945.0,318.0 946.0,318.0" fill="none" stroke="#2563eb" stroke-width="2.2" stroke-linejoin="round" stroke-linecap="round"/>
<polyline points="76.0,262.8 77.0,258.8 78.0,249.5 79.0,247.2 80.0,250.9 81.0,240.3 82.0,239.7 82.9,243.5 83.9,248.5 84.9,248.0 85.9,264.6 86.9,246.1 87.9,245.2 88.9,246.9 89.9,251.1 90.9,259.3 91.9,256.5 92.9,254.2 93.9,251.6 94.8,256.6 95.8,261.5 96.8,257.5 97.8,255.6 98.8,255.2 99.8,249.2 100.8,247.7 101.8,249.7 102.8,241.1 103.8,232.5 104.8,241.2 105.8,243.5 106.8,257.3 107.7,251.0 108.7,250.7 109.7,255.2 110.7,250.5 111.7,247.4 112.7,253.4 113.7,247.1 114.7,247.0 115.7,244.7 116.7,261.9 117.7,258.2 118.7,254.2 119.6,219.8 120.6,222.3 121.6,255.3 122.6,251.2 123.6,237.3 124.6,219.3 125.6,239.9 126.6,251.2 127.6,243.9 128.6,242.1 129.6,243.9 130.6,246.7 131.6,244.4 132.5,250.0 133.5,241.3 134.5,247.0 135.5,238.8 136.5,245.4 137.5,243.9 138.5,285.1 139.5,270.0 140.5,262.3 141.5,270.1 142.5,267.0 143.5,238.5 144.4,233.8 145.4,243.4 146.4,259.9 147.4,272.4 148.4,246.0 149.4,245.5 150.4,248.1 151.4,261.0 152.4,250.4 153.4,259.1 154.4,245.9 155.4,240.5 156.4,253.9 157.3,249.9 158.3,254.6 159.3,255.7 160.3,254.0 161.3,261.9 162.3,251.4 163.3,251.4 164.3,253.7 165.3,250.0 166.3,268.3 167.3,231.5 168.3,255.8 169.2,251.1 170.2,218.2 171.2,256.5 172.2,245.2 173.2,247.9 174.2,226.9 175.2,246.1 176.2,248.3 177.2,241.0 178.2,249.4 179.2,243.6 180.2,250.1 181.2,244.3 182.1,242.8 183.1,242.6 184.1,248.1 185.1,245.4 186.1,251.8 187.1,237.9 188.1,251.4 189.1,252.6 190.1,250.9 191.1,220.0 192.1,203.6 193.1,214.7 194.1,215.7 195.0,215.3 196.0,224.9 197.0,220.4 198.0,216.0 199.0,243.5 200.0,246.4 201.0,241.9 202.0,243.2 203.0,242.2 204.0,241.7 205.0,242.6 206.0,244.6 206.9,243.4 207.9,245.1 208.9,249.7 209.9,245.1 210.9,258.2 211.9,257.8 212.9,248.2 213.9,263.2 214.9,290.3 215.9,254.2 216.9,268.2 217.9,255.6 218.9,253.3 219.8,253.6 220.8,250.8 221.8,251.8 222.8,245.2 223.8,251.1 224.8,244.3 225.8,242.4 226.8,240.7 227.8,242.6 228.8,251.4 229.8,264.1 230.8,247.2 231.7,252.2 232.7,250.9 233.7,253.1 234.7,253.4 235.7,258.6 236.7,260.8 237.7,259.1 238.7,292.1 239.7,255.7 240.7,270.2 241.7,236.2 242.7,252.1 243.7,245.1 244.6,249.0 245.6,240.5 246.6,242.6 247.6,248.7 248.6,243.1 249.6,236.6 250.6,245.7 251.6,247.5 252.6,241.4 253.6,245.2 254.6,245.0 255.6,246.8 256.5,247.8 257.5,251.7 258.5,253.2 259.5,259.1 260.5,263.5 261.5,252.2 262.5,285.5 263.5,251.7 264.5,255.1 265.5,250.6 266.5,249.8 267.5,242.9 268.5,242.4 269.4,242.2 270.4,241.0 271.4,247.3 272.4,248.1 273.4,258.9 274.4,257.3 275.4,253.8 276.4,250.1 277.4,255.8 278.4,247.6 279.4,253.5 280.4,245.9 281.3,253.4 282.3,258.1 283.3,261.3 284.3,258.9 285.3,266.2 286.3,297.6 287.3,260.0 288.3,260.3 289.3,258.6 290.3,257.8 291.3,249.6 292.3,247.9 293.3,245.9 294.2,252.3 295.2,248.8 296.2,245.4 297.2,245.5 298.2,241.2 299.2,248.2 300.2,240.3 301.2,241.3 302.2,240.9 303.2,255.8 304.2,255.5 305.2,254.2 306.1,259.3 307.1,273.3 308.1,257.9 309.1,260.5 310.1,258.2 311.1,252.3 312.1,232.0 313.1,219.6 314.1,257.6 315.1,245.0 316.1,228.2 317.1,224.5 318.1,224.1 319.0,223.8 320.0,222.7 321.0,239.3 322.0,231.7 323.0,235.3 324.0,236.0 325.0,245.7 326.0,256.8 327.0,266.4 328.0,245.2 329.0,283.8 330.0,250.1 330.9,265.2 331.9,256.9 332.9,258.4 333.9,265.9 334.9,249.6 335.9,209.8 336.9,220.6 337.9,223.0 338.9,225.7 339.9,215.1 340.9,227.4 341.9,222.0 342.9,209.0 343.8,242.0 344.8,239.8 345.8,248.9 346.8,251.4 347.8,247.5 348.8,243.7 349.8,252.6 350.8,250.3 351.8,248.7 352.8,267.5 353.8,252.2 354.8,247.7 355.7,258.9 356.7,227.2 357.7,211.3 358.7,216.8 359.7,255.8 360.7,251.6 361.7,245.4 362.7,270.3 363.7,239.4 364.7,244.7 365.7,243.3 366.7,250.8 367.7,232.4 368.6,242.8 369.6,244.7 370.6,265.4 371.6,239.2 372.6,244.6 373.6,242.8 374.6,247.8 375.6,246.7 376.6,263.6 377.6,250.8 378.6,258.2 379.6,254.7 380.5,251.7 381.5,265.0 382.5,252.6 383.5,259.2 384.5,263.9 385.5,253.9 386.5,230.0 387.5,224.2 388.5,257.9 389.5,245.8 390.5,252.8 391.5,255.5 392.5,248.1 393.4,251.2 394.4,250.1 395.4,248.5 396.4,245.4 397.4,265.0 398.4,263.0 399.4,258.3 400.4,262.4 401.4,259.0 402.4,283.8 403.4,276.5 404.4,273.1 405.4,276.5 406.3,282.7 407.3,282.5 408.3,277.7 409.3,281.6 410.3,283.5 411.3,278.5 412.3,276.0 413.3,265.8 414.3,251.2 415.3,259.6 416.3,273.4 417.3,261.0 418.2,263.4 419.2,257.8 420.2,265.6 421.2,262.2 422.2,262.1 423.2,262.1 424.2,254.3 425.2,262.8 426.2,257.4 427.2,261.5 428.2,249.6 429.2,254.9 430.2,260.6 431.1,262.8 432.1,263.7 433.1,259.3 434.1,258.4 435.1,252.3 436.1,251.5 437.1,254.4 438.1,233.7 439.1,246.8 440.1,259.0 441.1,247.4 442.1,244.3 443.0,249.6 444.0,251.4 445.0,253.2 446.0,252.7 447.0,254.5 448.0,255.1 449.0,251.1 450.0,261.9 451.0,260.5 452.0,265.7 453.0,260.3 454.0,265.4 455.0,257.3 455.9,253.9 456.9,261.6 457.9,244.2 458.9,253.1 459.9,245.6 460.9,249.2 461.9,235.1 462.9,243.1 463.9,248.1 464.9,255.7 465.9,236.3 466.9,251.0 467.8,236.7 468.8,242.5 469.8,247.8 470.8,246.2 471.8,246.8 472.8,245.6 473.8,253.2 474.8,266.1 475.8,257.9 476.8,214.6 477.8,221.0 478.8,217.1 479.8,231.6 480.7,220.8 481.7,221.3 482.7,229.0 483.7,250.2 484.7,248.0 485.7,234.3 486.7,246.0 487.7,245.0 488.7,252.9 489.7,245.9 490.7,247.4 491.7,248.3 492.6,247.7 493.6,239.1 494.6,240.8 495.6,252.0 496.6,252.9 497.6,252.0 498.6,259.5 499.6,248.6 500.6,255.6 501.6,255.6 502.6,256.2 503.6,252.6 504.6,250.4 505.5,247.5 506.5,235.3 507.5,257.7 508.5,239.4 509.5,217.5 510.5,244.7 511.5,243.3 512.5,247.4 513.5,248.5 514.5,245.5 515.5,244.6 516.5,247.9 517.4,251.0 518.4,248.9 519.4,252.3 520.4,249.7 521.4,252.3 522.4,258.4 523.4,260.8 524.4,239.5 525.4,262.6 526.4,268.1 527.4,271.0 528.4,253.1 529.4,249.5 530.3,256.8 531.3,242.4 532.3,244.6 533.3,235.9 534.3,245.9 535.3,252.1 536.3,240.5 537.3,234.4 538.3,239.0 539.3,241.9 540.3,235.1 541.3,252.6 542.2,245.0 543.2,244.3 544.2,262.3 545.2,305.5 546.2,249.9 547.2,245.8 548.2,258.9 549.2,255.9 550.2,253.1 551.2,256.3 552.2,245.1 553.2,242.3 554.2,240.8 555.1,242.9 556.1,248.5 557.1,241.0 558.1,237.3 559.1,242.1 560.1,239.8 561.1,236.5 562.1,241.5 563.1,247.0 564.1,243.4 565.1,245.8 566.1,248.9 567.0,238.6 568.0,251.6 569.0,249.4 570.0,276.3 571.0,259.7 572.0,250.9 573.0,269.4 574.0,251.6 575.0,254.3 576.0,253.9 577.0,248.4 578.0,238.0 579.0,246.8 579.9,247.0 580.9,245.2 581.9,246.2 582.9,236.4 583.9,240.2 584.9,239.9 585.9,265.2 586.9,243.4 587.9,244.6 588.9,240.0 589.9,250.6 590.9,252.1 591.8,260.3 592.8,245.6 593.8,263.7 594.8,248.6 595.8,262.8 596.8,265.9 597.8,248.1 598.8,254.3 599.8,247.2 600.8,252.3 601.8,246.3 602.8,251.2 603.8,245.4 604.7,241.8 605.7,237.3 606.7,251.5 607.7,246.1 608.7,239.7 609.7,238.8 610.7,245.5 611.7,247.4 612.7,254.5 613.7,236.8 614.7,251.2 615.7,251.9 616.6,255.6 617.6,260.8 618.6,260.8 619.6,256.8 620.6,248.6 621.6,250.9 622.6,258.6 623.6,252.0 624.6,247.8 625.6,242.0 626.6,235.9 627.6,240.3 628.6,241.3 629.5,243.0 630.5,250.0 631.5,251.4 632.5,248.2 633.5,247.2 634.5,243.8 635.5,247.8 636.5,250.6 637.5,243.7 638.5,249.4 639.5,257.8 640.5,256.4 641.5,266.0 642.4,253.2 643.4,257.3 644.4,254.9 645.4,263.9 646.4,255.6 647.4,243.4 648.4,246.3 649.4,236.2 650.4,243.4 651.4,247.6 652.4,232.1 653.4,245.1 654.3,241.1 655.3,245.4 656.3,244.3 657.3,245.7 658.3,244.9 659.3,237.9 660.3,243.8 661.3,240.4 662.3,257.6 663.3,256.3 664.3,256.7 665.3,257.1 666.3,257.2 667.2,263.0 668.2,256.8 669.2,255.5 670.2,256.1 671.2,252.2 672.2,269.8 673.2,254.4 674.2,246.0 675.2,249.9 676.2,237.3 677.2,240.6 678.2,246.0 679.1,254.5 680.1,250.8 681.1,250.9 682.1,252.8 683.1,243.7 684.1,250.9 685.1,251.9 686.1,264.5 687.1,263.0 688.1,262.2 689.1,258.8 690.1,264.6 691.1,255.8 692.0,263.3 693.0,253.6 694.0,256.9 695.0,252.5 696.0,255.3 697.0,252.6 698.0,246.8 699.0,248.8 700.0,241.7 701.0,242.1 702.0,248.9 703.0,250.9 703.9,245.3 704.9,247.8 705.9,246.7 706.9,252.2 707.9,248.6 708.9,256.6 709.9,253.4 710.9,255.6 711.9,260.2 712.9,251.7 713.9,253.8 714.9,264.5 715.9,255.3 716.8,263.6 717.8,248.5 718.8,252.2 719.8,250.8 720.8,253.1 721.8,244.8 722.8,253.0 723.8,244.6 724.8,248.3 725.8,251.8 726.8,245.9 727.8,246.0 728.7,261.2 729.7,255.5 730.7,251.8 731.7,251.4 732.7,254.2 733.7,255.0 734.7,255.0 735.7,265.9 736.7,248.1 737.7,272.1 738.7,254.3 739.7,257.3 740.7,258.3 741.6,243.2 742.6,251.2 743.6,252.1 744.6,251.2 745.6,251.9 746.6,266.5 747.6,260.3 748.6,243.4 749.6,245.9 750.6,345.6 751.6,341.0 752.6,341.4 753.5,339.1 754.5,340.1 755.5,345.0 756.5,343.8 757.5,343.3 758.5,343.1 759.5,343.9 760.5,341.5 761.5,341.0 762.5,342.3 763.5,341.5 764.5,345.3 765.5,340.9 766.4,350.1 767.4,340.2 768.4,342.7 769.4,340.3 770.4,340.1 771.4,341.1 772.4,339.5 773.4,343.3 774.4,343.2 775.4,340.7 776.4,342.2 777.4,341.2 778.3,341.9 779.3,340.0 780.3,344.3 781.3,338.1 782.3,340.6 783.3,342.6 784.3,342.9 785.3,342.3 786.3,345.1 787.3,342.7 788.3,342.9 789.3,340.6 790.3,341.6 791.2,339.6 792.2,341.3 793.2,341.5 794.2,341.0 795.2,342.0 796.2,339.2 797.2,339.6 798.2,340.4 799.2,340.9 800.2,335.8 801.2,335.6 802.2,334.7 803.1,340.2 804.1,340.4 805.1,340.3 806.1,339.6 807.1,342.0 808.1,341.5 809.1,342.0 810.1,343.1 811.1,342.0 812.1,340.6 813.1,334.9 814.1,339.8 815.1,340.6 816.0,340.3 817.0,338.2 818.0,339.3 819.0,338.7 820.0,346.4 821.0,288.7 822.0,339.1 823.0,340.3 824.0,342.0 825.0,341.7 826.0,339.6 827.0,312.1 827.9,343.5 828.9,342.2 829.9,322.7 830.9,348.9 831.9,344.5 832.9,342.6 833.9,342.4 834.9,337.4 835.9,336.7 836.9,331.5 837.9,316.9 838.9,313.8 839.9,336.5 840.8,339.3 841.8,351.6 842.8,341.7 843.8,317.1 844.8,341.6 845.8,334.3 846.8,338.9 847.8,348.0 848.8,317.1 849.8,340.6 850.8,341.7 851.8,340.6 852.8,319.1 853.7,347.2 854.7,345.5 855.7,345.7 856.7,345.8 857.7,345.1 858.7,346.2 859.7,346.7 860.7,351.1 861.7,313.1 862.7,349.0 863.7,346.7 864.7,345.7 865.6,319.3 866.6,345.8 867.6,339.2 868.6,344.5 869.6,321.3 870.6,341.8 871.6,345.7 872.6,343.1 873.6,324.3 874.6,350.6 875.6,345.0 876.6,326.2 877.6,345.3 878.5,345.4 879.5,344.2 880.5,342.9 881.5,345.7 882.5,345.4 883.5,343.6 884.5,320.0 885.5,320.0 886.5,347.3 887.5,343.8 888.5,316.3 889.5,341.6 890.4,340.2 891.4,341.8 892.4,296.9 893.4,344.3 894.4,343.9 895.4,315.0 896.4,347.3 897.4,342.9 898.4,322.7 899.4,347.9 900.4,322.0 901.4,340.4 902.4,347.6 903.3,347.1 904.3,345.1 905.3,342.7 906.3,343.7 907.3,345.5 908.3,344.0 909.3,296.5 910.3,343.7 911.3,345.8 912.3,340.6 913.3,314.7 914.3,345.6 915.2,340.9 916.2,344.2 917.2,322.2 918.2,341.8 919.2,319.8 920.2,341.0 921.2,342.4 922.2,318.2 923.2,343.1 924.2,323.3 925.2,345.5 926.2,342.4 927.2,346.9 928.1,344.2 929.1,350.1 930.1,344.9 931.1,342.0 932.1,343.1 933.1,343.6 934.1,319.4 935.1,316.9 936.1,342.8 937.1,342.1 938.1,341.8 939.1,347.0 940.0,346.9 941.0,338.1 942.0,321.4 943.0,344.4 944.0,348.6 945.0,345.2 946.0,347.8" fill="none" stroke="#7c3aed" stroke-width="2.2" stroke-linejoin="round" stroke-linecap="round"/>
<line x1="76" y1="70" x2="94" y2="70" stroke="#2563eb" stroke-width="3"/>
<text x="100" y="74" font-family="Arial, sans-serif" font-size="11" fill="#0f172a">tx count</text>
<line x1="186" y1="70" x2="204" y2="70" stroke="#7c3aed" stroke-width="3"/>
<text x="210" y="74" font-family="Arial, sans-serif" font-size="11" fill="#0f172a">unique accounts</text>
<text x="28" y="404" font-family="Arial, sans-serif" font-size="11" fill="#64748b">Source: hourly_features.csv; capped windows are sample counts</text>
</svg>