<svg xmlns="http://www.w3.org/2000/svg" width="980" height="420" viewBox="0 0 980 420">
<rect width="100%" height="100%" fill="#ffffff"/>
<text x="28" y="34" font-family="Arial, sans-serif" font-size="20" font-weight="700" fill="#0f172a">Network activity sample trend</text>
<text x="28" y="56" font-family="Arial, sans-serif" font-size="12" fill="#64748b">Hourly transaction sample count and unique account sample count</text>
<line x1="76" y1="362.0" x2="946" y2="362.0" stroke="#e2e8f0" stroke-width="1"/>
<text x="68" y="366.0" font-family="Arial, sans-serif" font-size="10" text-anchor="end" fill="#64748b">220</text>
<line x1="76" y1="292.0" x2="946" y2="292.0" stroke="#e2e8f0" stroke-width="1"/>
<text x="68" y="296.0" font-family="Arial, sans-serif" font-size="10" text-anchor="end" fill="#64748b">1K</text>
<line x1="76" y1="222.0" x2="946" y2="222.0" stroke="#e2e8f0" stroke-width="1"/>
<text x="68" y="226.0" font-family="Arial, sans-serif" font-size="10" text-anchor="end" fill="#64748b">3K</text>
<line x1="76" y1="152.0" x2="946" y2="152.0" stroke="#e2e8f0" stroke-width="1"/>
<text x="68" y="156.0" font-family="Arial, sans-serif" font-size="10" text-anchor="end" fill="#64748b">4K</text>
<line x1="76" y1="82.0" x2="946" y2="82.0" stroke="#e2e8f0" stroke-width="1"/>
<text x="68" y="86.0" font-family="Arial, sans-serif" font-size="10" text-anchor="end" fill="#64748b">5K</text>
<line x1="76" y1="362" x2="946" y2="362" stroke="#334155" stroke-width="1"/>
<line x1="76" y1="82" x2="76" y2="362" stroke="#334155" stroke-width="1"/>
<text x="76" y="72" font-family="Arial, sans-serif" font-size="11" fill="#64748b">count</text>
<line x1="76.0" y1="362" x2="76.0" y2="366" stroke="#334155" stroke-width="1"/>
<text x="76.0" y="380" font-family="Arial, sans-serif" font-size="10" text-anchor="middle" fill="#64748b">0</text>
<line x1="511.5" y1="362" x2="511.5" y2="366" stroke="#334155" stroke-width="1"/>
<text x="511.5" y="380" font-family="Arial, sans-serif" font-size="10" text-anchor="middle" fill="#64748b">428</text>
<line x1="946.0" y1="362" x2="946.0" y2="366" stroke="#334155" stroke-width="1"/>
<text x="946.0" y="380" font-family="Arial, sans-serif" font-size="10" text-anchor="middle" fill="#64748b">855</text>
<polyline points="76.0,92.4 77.0,92.4 78.0,92.4 79.1,92.4 80.1,92.4 81.1,92.4 82.1,92.4 83.1,92.4 84.1,92.4 85.2,92.4 86.2,92.4 87.2,92.4 88.2,92.4 89.2,92.4 90.2,92.4 91.3,92.4 92.3,92.4 93.3,92.4 94.3,92.4 95.3,92.4 96.4,92.4 97.4,92.4 98.4,92.4 99.4,92.4 100.4,92.4 101.4,92.4 102.5,92.4 103.5,92.4 104.5,92.4 105.5,92.4 106.5,92.4 107.5,92.4 108.6,92.4 109.6,92.4 110.6,92.4 111.6,92.4 112.6,92.4 113.6,92.4 114.7,92.4 115.7,92.4 116.7,92.4 117.7,92.4 118.7,92.4 119.8,92.4 120.8,92.4 121.8,92.4 122.8,92.4 123.8,92.4 124.8,92.4 125.9,92.4 126.9,92.4 127.9,92.4 128.9,92.4 129.9,92.4 130.9,92.4 132.0,92.4 133.0,92.4 134.0,92.4 135.0,92.4 136.0,92.4 137.1,92.4 138.1,92.4 139.1,92.4 140.1,92.4 141.1,92.4 142.1,92.4 143.2,92.4 144.2,92.4 145.2,92.4 146.2,92.4 147.2,92.4 148.2,92.4 149.3,92.4 150.3,92.4 151.3,92.4 152.3,92.4 153.3,92.4 154.4,92.4 155.4,92.4 156.4,92.4 157.4,92.4 158.4,92.4 159.4,92.4 160.5,92.4 161.5,92.4 162.5,92.4 163.5,92.4 164.5,92.4 165.5,92.4 166.6,92.4 167.6,92.4 168.6,92.4 169.6,92.4 170.6,92.4 171.6,92.4 172.7,92.4 173.7,92.4 174.7,92.4 175.7,92.4 176.7,92.4 177.8,92.4 178.8,92.4 179.8,92.4 180.8,92.4 181.8,92.4 182.8,92.4 183.9,92.4 184.9,92.4 185.9,92.4 186.9,92.4 187.9,92.4 188.9,92.4 190.0,92.4 191.0,92.4 192.0,92.4 193.0,92.4 194.0,92.4 195.1,92.4 196.1,92.4 197.1,92.4 198.1,92.4 199.1,92.4 200.1,92.4 201.2,92.4 202.2,92.4 203.2,92.4 204.2,92.4 205.2,92.4 206.2,92.4 207.3,92.4 208.3,92.4 209.3,92.4 210.3,92.4 211.3,92.4 212.4,92.4 213.4,92.4 214.4,92.4 215.4,92.4 216.4,92.4 217.4,92.4 218.5,92.4 219.5,92.4 220.5,92.4 221.5,92.4 222.5,92.4 223.5,92.4 224.6,92.4 225.6,92.4 226.6,92.4 227.6,92.4 228.6,92.4 229.6,92.4 230.7,92.4 231.7,92.4 232.7,92.4 233.7,92.4 234.7,92.4 235.8,92.4 236.8,92.4 237.8,92.4 238.8,92.4 239.8,92.4 240.8,92.4 241.9,92.4 242.9,92.4 243.9,92.4 244.9,92.4 245.9,92.4 246.9,92.4 248.0,92.4 249.0,92.4 250.0,92.4 251.0,92.4 252.0,92.4 253.1,92.4 254.1,92.4 255.1,92.4 256.1,92.4 257.1,92.4 258.1,92.4 259.2,92.4 260.2,92.4 261.2,92.4 262.2,92.4 263.2,92.4 264.2,92.4 265.3,92.4 266.3,92.4 267.3,92.4 268.3,92.4 269.3,92.4 270.4,92.4 271.4,92.4 272.4,92.4 273.4,92.4 274.4,92.4 275.4,92.4 276.5,92.4 277.5,92.4 278.5,92.4 279.5,92.4 280.5,92.4 281.5,92.4 282.6,92.4 283.6,92.4 284.6,92.4 285.6,92.4 286.6,92.4 287.6,92.4 288.7,92.4 289.7,92.4 290.7,92.4 291.7,92.4 292.7,92.4 293.8,92.4 294.8,92.4 295.8,92.4 296.8,92.4 297.8,92.4 298.8,92.4 299.9,92.4 300.9,92.4 301.9,92.4 302.9,92.4 303.9,92.4 304.9,92.4 306.0,92.4 307.0,92.4 308.0,92.4 309.0,92.4 310.0,92.4 311.1,92.4 312.1,92.4 313.1,92.4 314.1,92.4 315.1,92.4 316.1,92.4 317.2,92.4 318.2,92.4 319.2,92.4 320.2,92.4 321.2,92.4 322.2,92.4 323.3,92.4 324.3,92.4 325.3,92.4 326.3,92.4 327.3,92.4 328.4,92.4 329.4,92.4 330.4,92.4 331.4,92.4 332.4,92.4 333.4,92.4 334.5,92.4 335.5,92.4 336.5,92.4 337.5,92.4 338.5,92.4 339.5,92.4 340.6,92.4 341.6,92.4 342.6,92.4 343.6,92.4 344.6,92.4 345.6,92.4 346.7,92.4 347.7,92.4 348.7,92.4 349.7,92.4 350.7,92.4 351.8,92.4 352.8,92.4 353.8,92.4 354.8,92.4 355.8,92.4 356.8,92.4 357.9,92.4 358.9,92.4 359.9,92.4 360.9,92.4 361.9,92.4 362.9,92.4 364.0,92.4 365.0,92.4 366.0,92.4 367.0,92.4 368.0,92.4 369.1,92.4 370.1,92.4 371.1,92.4 372.1,92.4 373.1,92.4 374.1,92.4 375.2,92.4 376.2,92.4 377.2,92.4 378.2,92.4 379.2,92.4 380.2,92.4 381.3,92.4 382.3,92.4 383.3,92.4 384.3,92.4 385.3,92.4 386.4,92.4 387.4,92.4 388.4,92.4 389.4,92.4 390.4,92.4 391.4,92.4 392.5,92.4 393.5,92.4 394.5,92.4 395.5,92.4 396.5,92.4 397.5,92.4 398.6,92.4 399.6,92.4 400.6,92.4 401.6,92.4 402.6,92.4 403.6,92.4 404.7,92.4 405.7,92.4 406.7,92.4 407.7,92.4 408.7,92.4 409.8,92.4 410.8,92.4 411.8,92.4 412.8,92.4 413.8,92.4 414.8,92.4 415.9,92.4 416.9,92.4 417.9,92.4 418.9,92.4 419.9,92.4 420.9,92.4 422.0,92.4 423.0,92.4 424.0,92.4 425.0,92.4 426.0,92.4 427.1,92.4 428.1,92.4 429.1,92.4 430.1,92.4 431.1,92.4 432.1,92.4 433.2,92.4 434.2,92.4 435.2,92.4 436.2,92.4 437.2,92.4 438.2,92.4 439.3,92.4 440.3,92.4 441.3,92.4 442.3,92.4 443.3,92.4 444.4,92.4 445.4,92.4 446.4,92.4 447.4,92.4 448.4,92.4 449.4,92.4 450.5,92.4 451.5,92.4 452.5,92.4 453.5,92.4 454.5,92.4 455.5,92.4 456.6,92.4 457.6,92.4 458.6,92.4 459.6,92.4 460.6,92.4 461.6,92.4 462.7,92.4 463.7,92.4 464.7,92.4 465.7,92.4 466.7,92.4 467.8,92.4 468.8,92.4 469.8,92.4 470.8,92.4 471.8,92.4 472.8,92.4 473.9,92.4 474.9,92.4 475.9,92.4 476.9,92.4 477.9,92.4 478.9,92.4 480.0,92.4 481.0,92.4 482.0,92.4 483.0,92.4 484.0,92.4 485.1,92.4 486.1,92.4 487.1,92.4 488.1,92.4 489.1,92.4 490.1,92.4 491.2,92.4 492.2,92.4 493.2,92.4 494.2,92.4 495.2,92.4 496.2,92.4 497.3,92.4 498.3,92.4 499.3,92.4 500.3,92.4 501.3,92.4 502.4,92.4 503.4,92.4 504.4,92.4 505.4,92.4 506.4,92.4 507.4,92.4 508.5,92.4 509.5,92.4 510.5,92.4 511.5,92.4 512.5,92.4 513.5,92.4 514.6,92.4 515.6,92.4 516.6,92.4 517.6,92.4 518.6,92.4 519.6,92.4 520.7,92.4 521.7,92.4 522.7,92.4 523.7,92.4 524.7,92.4 525.8,92.4 526.8,92.4 527.8,92.4 528.8,92.4 529.8,92.4 530.8,92.4 531.9,92.4 532.9,92.4 533.9,92.4 534.9,92.4 535.9,92.4 536.9,92.4 538.0,92.4 539.0,92.4 540.0,92.4 541.0,92.4 542.0,92.4 543.1,92.4 544.1,92.4 545.1,92.4 546.1,92.4 547.1,92.4 548.1,92.4 549.2,92.4 550.2,92.4 551.2,92.4 552.2,92.4 553.2,92.4 554.2,92.4 555.3,92.4 556.3,92.4 557.3,92.4 558.3,92.4 559.3,92.4 560.4,92.4 561.4,92.4 562.4,92.4 563.4,92.4 564.4,92.4 565.4,92.4 566.5,92.4 567.5,92.4 568.5,92.4 569.5,92.4 570.5,92.4 571.5,92.4 572.6,92.4 573.6,92.4 574.6,92.4 575.6,92.4 576.6,92.4 577.6,92.4 578.7,92.4 579.7,92.4 580.7,92.4 581.7,92.4 582.7,92.4 583.8,92.4 584.8,92.4 585.8,92.4 586.8,92.4 587.8,92.4 588.8,92.4 589.9,92.4 590.9,92.4 591.9,92.4 592.9,92.4 593.9,92.4 594.9,92.4 596.0,92.4 597.0,92.4 598.0,92.4 599.0,92.4 600.0,92.4 601.1,92.4 602.1,92.4 603.1,92.4 604.1,92.4 605.1,92.4 606.1,92.4 607.2,92.4 608.2,92.4 609.2,92.4 610.2,92.4 611.2,92.4 612.2,92.4 613.3,92.4 614.3,92.4 615.3,92.4 616.3,92.4 617.3,92.4 618.4,92.4 619.4,92.4 620.4,92.4 621.4,92.4 622.4,92.4 623.4,92.4 624.5,92.4 625.5,92.4 626.5,92.4 627.5,92.4 628.5,92.4 629.5,92.4 630.6,92.4 631.6,92.4 632.6,92.4 633.6,92.4 634.6,92.4 635.6,92.4 636.7,92.4 637.7,92.4 638.7,92.4 639.7,92.4 640.7,92.4 641.8,92.4 642.8,92.4 643.8,92.4 644.8,92.4 645.8,92.4 646.8,92.4 647.9,92.4 648.9,92.4 649.9,92.4 650.9,92.4 651.9,92.4 652.9,92.4 654.0,92.4 655.0,92.4 656.0,92.4 657.0,92.4 658.0,92.4 659.1,92.4 660.1,92.4 661.1,92.4 662.1,92.4 663.1,92.4 664.1,92.4 665.2,92.4 666.2,92.4 667.2,92.4 668.2,92.4 669.2,92.4 670.2,92.4 671.3,92.4 672.3,92.4 673.3,92.4 674.3,92.4 675.3,92.4 676.4,92.4 677.4,92.4 678.4,92.4 679.4,92.4 680.4,92.4 681.4,92.4 682.5,92.4 683.5,92.4 684.5,92.4 685.5,92.4 686.5,92.4 687.5,92.4 688.6,92.4 689.6,92.4 690.6,92.4 691.6,92.4 692.6,92.4 693.6,92.4 694.7,92.4 695.7,92.4 696.7,92.4 697.7,92.4 698.7,92.4 699.8,92.4 700.8,92.4 701.8,92.4 702.8,92.4 703.8,92.4 704.8,92.4 705.9,92.4 706.9,92.4 707.9,92.4 708.9,92.4 709.9,92.4 710.9,92.4 712.0,92.4 713.0,92.4 714.0,92.4 715.0,92.4 716.0,92.4 717.1,92.4 718.1,92.4 719.1,92.4 720.1,92.4 721.1,92.4 722.1,92.4 723.2,92.4 724.2,92.4 725.2,92.4 726.2,92.4 727.2,92.4 728.2,92.4 729.3,92.4 730.3,92.4 731.3,92.4 732.3,92.4 733.3,92.4 734.4,92.4 735.4,92.4 736.4,92.4 737.4,92.4 738.4,92.4 739.4,92.4 740.5,92.4 741.5,92.4 742.5,92.4 743.5,92.4 744.5,92.4 745.5,92.4 746.6,92.4 747.6,92.4 748.6,92.4 749.6,92.4 750.6,92.4 751.6,92.4 752.7,92.4 753.7,92.4 754.7,92.4 755.7,92.4 756.7,92.4 757.8,92.4 758.8,92.4 759.8,92.4 760.8,92.4 761.8,92.4 762.8,92.4 763.9,92.4 764.9,92.4 765.9,92.4 766.9,92.4 767.9,318.0 768.9,318.0 770.0,318.0 771.0,318.0 772.0,318.0 773.0,318.0 774.0,318.0 775.1,318.0 776.1,318.0 777.1,318.0 778.1,318.0 779.1,318.0 780.1,318.0 781.2,318.0 782.2,318.0 783.2,318.0 784.2,318.0 785.2,318.0 786.2,318.0 787.3,318.0 788.3,318.0 789.3,318.0 790.3,318.0 791.3,318.0 792.4,318.0 793.4,318.0 794.4,318.0 795.4,318.0 796.4,318.0 797.4,318.0 798.5,318.0 799.5,318.0 800.5,318.0 801.5,318.0 802.5,318.0 803.5,318.0 804.6,318.0 805.6,318.0 806.6,318.0 807.6,318.0 808.6,318.0 809.6,318.0 810.7,318.0 811.7,318.0 812.7,318.0 813.7,318.0 814.7,318.0 815.8,318.0 816.8,318.0 817.8,318.0 818.8,318.0 819.8,318.0 820.8,318.0 821.9,318.0 822.9,318.0 823.9,318.0 824.9,318.0 825.9,318.0 826.9,318.0 828.0,318.0 829.0,318.0 830.0,318.0 831.0,318.0 832.0,318.0 833.1,318.0 834.1,318.0 835.1,318.0 836.1,318.0 837.1,318.0 838.1,318.0 839.2,318.0 840.2,207.0 841.2,318.0 842.2,318.0 843.2,318.0 844.2,318.0 845.3,318.0 846.3,263.4 847.3,318.0 848.3,318.0 849.3,263.5 850.4,318.0 851.4,318.0 852.4,318.0 853.4,318.0 854.4,318.0 855.4,318.0 856.5,318.0 857.5,262.2 858.5,263.5 859.5,318.0 860.5,318.0 861.5,318.0 862.6,318.0 863.6,264.6 864.6,318.0 865.6,318.0 866.6,318.0 867.6,318.0 868.7,261.9 869.7,318.0 870.7,318.0 871.7,318.0 872.7,263.1 873.8,318.0 874.8,318.0 875.8,318.0 876.8,318.0 877.8,318.0 878.8,318.0 879.9,318.0 880.9,318.0 881.9,207.5 882.9,318.0 883.9,318.0 884.9,318.0 886.0,262.4 887.0,318.0 888.0,318.0 889.0,318.0 890.0,262.8 891.1,318.0 892.1,318.0 893.1,318.0 894.1,263.0 895.1,318.0 896.1,318.0 897.2,262.3 898.2,318.0 899.2,318.0 900.2,318.0 901.2,318.0 902.2,318.0 903.3,318.0 904.3,318.0 905.3,261.9 906.3,261.7 907.3,318.0 908.4,318.0 909.4,264.0 910.4,318.0 911.4,318.0 912.4,318.0 913.4,261.7 914.5,318.0 915.5,318.0 916.5,262.1 917.5,318.0 918.5,318.0 919.5,261.7 920.6,318.0 921.6,263.0 922.6,318.0 923.6,318.0 924.6,318.0 925.6,318.0 926.7,318.0 927.7,318.0 928.7,318.0 929.7,318.0 930.7,207.1 931.8,318.0 932.8,318.0 933.8,318.0 934.8,262.6 935.8,318.0 936.8,318.0 937.9,318.0 938.9,264.5 939.9,318.0 940.9,263.4 941.9,318.0 942.9,318.0 944.0,262.3 945.0,318.0 946.0,318.0" fill="none" stroke="#2563eb" stroke-width="2.2" stroke-linejoin="round" stroke-linecap="round"/>
<polyline points="76.0,262.8 77.0,258.8 78.0,249.5 79.1,247.2 80.1,250.9 81.1,240.3 82.1,239.7 83.1,243.5 84.1,248.5 85.2,248.0 86.2,264.6 87.2,246.1 88.2,245.2 89.2,246.9 90.2,251.1 91.3,259.3 92.3,256.5 93.3,254.2 94.3,251.6 95.3,256.6 96.4,261.5 97.4,257.5 98.4,255.6 99.4,255.2 100.4,249.2 101.4,247.7 102.5,249.7 103.5,241.1 104.5,232.5 105.5,241.2 106.5,243.5 107.5,257.3 108.6,251.0 109.6,250.7 110.6,255.2 111.6,250.5 112.6,247.4 113.6,253.4 114.7,247.1 115.7,247.0 116.7,244.7 117.7,261.9 118.7,258.2 119.8,254.2 120.8,219.8 121.8,222.3 122.8,255.3 123.8,251.2 124.8,237.3 125.9,219.3 126.9,239.9 127.9,251.2 128.9,243.9 129.9,242.1 130.9,243.9 132.0,246.7 133.0,244.4 134.0,250.0 135.0,241.3 136.0,247.0 137.1,238.8 138.1,245.4 139.1,243.9 140.1,285.1 141.1,270.0 142.1,262.3 143.2,270.1 144.2,267.0 145.2,238.5 146.2,233.8 147.2,243.4 148.2,259.9 149.3,272.4 150.3,246.0 151.3,245.5 152.3,248.1 153.3,261.0 154.4,250.4 155.4,259.1 156.4,245.9 157.4,240.5 158.4,253.9 159.4,249.9 160.5,254.6 161.5,255.7 162.5,254.0 163.5,261.9 164.5,251.4 165.5,251.4 166.6,253.7 167.6,250.0 168.6,268.3 169.6,231.5 170.6,255.8 171.6,251.1 172.7,218.2 173.7,256.5 174.7,245.2 175.7,247.9 176.7,226.9 177.8,246.1 178.8,248.3 179.8,241.0 180.8,249.4 181.8,243.6 182.8,250.1 183.9,244.3 184.9,242.8 185.9,242.6 186.9,248.1 187.9,245.4 188.9,251.8 190.0,237.9 191.0,251.4 192.0,252.6 193.0,250.9 194.0,220.0 195.1,203.6 196.1,214.7 197.1,215.7 198.1,215.3 199.1,224.9 200.1,220.4 201.2,216.0 202.2,243.5 203.2,246.4 204.2,241.9 205.2,243.2 206.2,242.2 207.3,241.7 208.3,242.6 209.3,244.6 210.3,243.4 211.3,245.1 212.4,249.7 213.4,245.1 214.4,258.2 215.4,257.8 216.4,248.2 217.4,263.2 218.5,290.3 219.5,254.2 220.5,268.2 221.5,255.6 222.5,253.3 223.5,253.6 224.6,250.8 225.6,251.8 226.6,245.2 227.6,251.1 228.6,244.3 229.6,242.4 230.7,240.7 231.7,242.6 232.7,251.4 233.7,264.1 234.7,247.2 235.8,252.2 236.8,250.9 237.8,253.1 238.8,253.4 239.8,258.6 240.8,260.8 241.9,259.1 242.9,292.1 243.9,255.7 244.9,270.2 245.9,236.2 246.9,252.1 248.0,245.1 249.0,249.0 250.0,240.5 251.0,242.6 252.0,248.7 253.1,243.1 254.1,236.6 255.1,245.7 256.1,247.5 257.1,241.4 258.1,245.2 259.2,245.0 260.2,246.8 261.2,247.8 262.2,251.7 263.2,253.2 264.2,259.1 265.3,263.5 266.3,252.2 267.3,285.5 268.3,251.7 269.3,255.1 270.4,250.6 271.4,249.8 272.4,242.9 273.4,242.4 274.4,242.2 275.4,241.0 276.5,247.3 277.5,248.1 278.5,258.9 279.5,257.3 280.5,253.8 281.5,250.1 282.6,255.8 283.6,247.6 284.6,253.5 285.6,245.9 286.6,253.4 287.6,258.1 288.7,261.3 289.7,258.9 290.7,266.2 291.7,297.6 292.7,260.0 293.8,260.3 294.8,258.6 295.8,257.8 296.8,249.6 297.8,247.9 298.8,245.9 299.9,252.3 300.9,248.8 301.9,245.4 302.9,245.5 303.9,241.2 304.9,248.2 306.0,240.3 307.0,241.3 308.0,240.9 309.0,255.8 310.0,255.5 311.1,254.2 312.1,259.3 313.1,273.3 314.1,257.9 315.1,260.5 316.1,258.2 317.2,252.3 318.2,232.0 319.2,219.6 320.2,257.6 321.2,245.0 322.2,228.2 323.3,224.5 324.3,224.1 325.3,223.8 326.3,222.7 327.3,239.3 328.4,231.7 329.4,235.3 330.4,236.0 331.4,245.7 332.4,256.8 333.4,266.4 334.5,245.2 335.5,283.8 336.5,250.1 337.5,265.2 338.5,256.9 339.5,258.4 340.6,265.9 341.6,249.6 342.6,209.8 343.6,220.6 344.6,223.0 345.6,225.7 346.7,215.1 347.7,227.4 348.7,222.0 349.7,209.0 350.7,242.0 351.8,239.8 352.8,248.9 353.8,251.4 354.8,247.5 355.8,243.7 356.8,252.6 357.9,250.3 358.9,248.7 359.9,267.5 360.9,252.2 361.9,247.7 362.9,258.9 364.0,227.2 365.0,211.3 366.0,216.8 367.0,255.8 368.0,251.6 369.1,245.4 370.1,270.3 371.1,239.4 372.1,244.7 373.1,243.3 374.1,250.8 375.2,232.4 376.2,242.8 377.2,244.7 378.2,265.4 379.2,239.2 380.2,244.6 381.3,242.8 382.3,247.8 383.3,246.7 384.3,263.6 385.3,250.8 386.4,258.2 387.4,254.7 388.4,251.7 389.4,265.0 390.4,252.6 391.4,259.2 392.5,263.9 393.5,253.9 394.5,230.0 395.5,224.2 396.5,257.9 397.5,245.8 398.6,252.8 399.6,255.5 400.6,248.1 401.6,251.2 402.6,250.1 403.6,248.5 404.7,245.4 405.7,265.0 406.7,263.0 407.7,258.3 408.7,262.4 409.8,259.0 410.8,283.8 411.8,276.5 412.8,273.1 413.8,276.5 414.8,282.7 415.9,282.5 416.9,277.7 417.9,281.6 418.9,283.5 419.9,278.5 420.9,276.0 422.0,265.8 423.0,251.2 424.0,259.6 425.0,273.4 426.0,261.0 427.1,263.4 428.1,257.8 429.1,265.6 430.1,262.2 431.1,262.1 432.1,262.1 433.2,254.3 434.2,262.8 435.2,257.4 436.2,261.5 437.2,249.6 438.2,254.9 439.3,260.6 440.3,262.8 441.3,263.7 442.3,259.3 443.3,258.4 444.4,252.3 445.4,251.5 446.4,254.4 447.4,233.7 448.4,246.8 449.4,259.0 450.5,247.4 451.5,244.3 452.5,249.6 453.5,251.4 454.5,253.2 455.5,252.7 456.6,254.5 457.6,255.1 458.6,251.1 459.6,261.9 460.6,260.5 461.6,265.7 462.7,260.3 463.7,265.4 464.7,257.3 465.7,253.9 466.7,261.6 467.8,244.2 468.8,253.1 469.8,245.6 470.8,249.2 471.8,235.1 472.8,243.1 473.9,248.1 474.9,255.7 475.9,236.3 476.9,251.0 477.9,236.7 478.9,242.5 480.0,247.8 481.0,246.2 482.0,246.8 483.0,245.6 484.0,253.2 485.1,266.1 486.1,257.9 487.1,214.6 488.1,221.0 489.1,217.1 490.1,231.6 491.2,220.8 492.2,221.3 493.2,229.0 494.2,250.2 495.2,248.0 496.2,234.3 497.3,246.0 498.3,245.0 499.3,252.9 500.3,245.9 501.3,247.4 502.4,248.3 503.4,247.7 504.4,239.1 505.4,240.8 506.4,252.0 507.4,252.9 508.5,252.0 509.5,259.5 510.5,248.6 511.5,255.6 512.5,255.6 513.5,256.2 514.6,252.6 515.6,250.4 516.6,247.5 517.6,235.3 518.6,257.7 519.6,239.4 520.7,217.5 521.7,244.7 522.7,243.3 523.7,247.4 524.7,248.5 525.8,245.5 526.8,244.6 527.8,247.9 528.8,251.0 529.8,248.9 530.8,252.3 531.9,249.7 532.9,252.3 533.9,258.4 534.9,260.8 535.9,239.5 536.9,262.6 538.0,268.1 539.0,271.0 540.0,253.1 541.0,249.5 542.0,256.8 543.1,242.4 544.1,244.6 545.1,235.9 546.1,245.9 547.1,252.1 548.1,240.5 549.2,234.4 550.2,239.0 551.2,241.9 552.2,235.1 553.2,252.6 554.2,245.0 555.3,244.3 556.3,262.3 557.3,305.5 558.3,249.9 559.3,245.8 560.4,258.9 561.4,255.9 562.4,253.1 563.4,256.3 564.4,245.1 565.4,242.3 566.5,240.8 567.5,242.9 568.5,248.5 569.5,241.0 570.5,237.3 571.5,242.1 572.6,239.8 573.6,236.5 574.6,241.5 575.6,247.0 576.6,243.4 577.6,245.8 578.7,248.9 579.7,238.6 580.7,251.6 581.7,249.4 582.7,276.3 583.8,259.7 584.8,250.9 585.8,269.4 586.8,251.6 587.8,254.3 588.8,253.9 589.9,248.4 590.9,238.0 591.9,246.8 592.9,247.0 593.9,245.2 594.9,246.2 596.0,236.4 597.0,240.2 598.0,239.9 599.0,265.2 600.0,243.4 601.1,244.6 602.1,240.0 603.1,250.6 604.1,252.1 605.1,260.3 606.1,245.6 607.2,263.7 608.2,248.6 609.2,262.8 610.2,265.9 611.2,248.1 612.2,254.3 613.3,247.2 614.3,252.3 615.3,246.3 616.3,251.2 617.3,245.4 618.4,241.8 619.4,237.3 620.4,251.5 621.4,246.1 622.4,239.7 623.4,238.8 624.5,245.5 625.5,247.4 626.5,254.5 627.5,236.8 628.5,251.2 629.5,251.9 630.6,255.6 631.6,260.8 632.6,260.8 633.6,256.8 634.6,248.6 635.6,250.9 636.7,258.6 637.7,252.0 638.7,247.8 639.7,242.0 640.7,235.9 641.8,240.3 642.8,241.3 643.8,243.0 644.8,250.0 645.8,251.4 646.8,248.2 647.9,247.2 648.9,243.8 649.9,247.8 650.9,250.6 651.9,243.7 652.9,249.4 654.0,257.8 655.0,256.4 656.0,266.0 657.0,253.2 658.0,257.3 659.1,254.9 660.1,263.9 661.1,255.6 662.1,243.4 663.1,246.3 664.1,236.2 665.2,243.4 666.2,247.6 667.2,232.1 668.2,245.1 669.2,241.1 670.2,245.4 671.3,244.3 672.3,245.7 673.3,244.9 674.3,237.9 675.3,243.8 676.4,240.4 677.4,257.6 678.4,256.3 679.4,256.7 680.4,257.1 681.4,257.2 682.5,263.0 683.5,256.8 684.5,255.5 685.5,256.1 686.5,252.2 687.5,269.8 688.6,254.4 689.6,246.0 690.6,249.9 691.6,237.3 692.6,240.6 693.6,246.0 694.7,254.5 695.7,250.8 696.7,250.9 697.7,252.8 698.7,243.7 699.8,250.9 700.8,251.9 701.8,264.5 702.8,263.0 703.8,262.2 704.8,258.8 705.9,264.6 706.9,255.8 707.9,263.3 708.9,253.6 709.9,256.9 710.9,252.5 712.0,255.3 713.0,252.6 714.0,246.8 715.0,248.8 716.0,241.7 717.1,242.1 718.1,248.9 719.1,250.9 720.1,245.3 721.1,247.8 722.1,246.7 723.2,252.2 724.2,248.6 725.2,256.6 726.2,253.4 727.2,255.6 728.2,260.2 729.3,251.7 730.3,253.8 731.3,264.5 732.3,255.3 733.3,263.6 734.4,248.5 735.4,252.2 736.4,250.8 737.4,253.1 738.4,244.8 739.4,253.0 740.5,244.6 741.5,248.3 742.5,251.8 743.5,245.9 744.5,246.0 745.5,261.2 746.6,255.5 747.6,251.8 748.6,251.4 749.6,254.2 750.6,255.0 751.6,255.0 752.7,265.9 753.7,248.1 754.7,272.1 755.7,254.3 756.7,257.3 757.8,258.3 758.8,243.2 759.8,251.2 760.8,252.1 761.8,251.2 762.8,251.9 763.9,266.5 764.9,260.3 765.9,243.4 766.9,245.9 767.9,345.6 768.9,341.0 770.0,341.4 771.0,339.1 772.0,340.1 773.0,345.0 774.0,343.8 775.1,343.3 776.1,343.1 777.1,343.9 778.1,341.5 779.1,341.0 780.1,342.3 781.2,341.5 782.2,345.3 783.2,340.9 784.2,350.1 785.2,340.2 786.2,342.7 787.3,340.3 788.3,340.1 789.3,341.1 790.3,339.5 791.3,343.3 792.4,343.2 793.4,340.7 794.4,342.2 795.4,341.2 796.4,341.9 797.4,340.0 798.5,344.3 799.5,338.1 800.5,340.6 801.5,342.6 802.5,342.9 803.5,342.3 804.6,345.1 805.6,342.7 806.6,342.9 807.6,340.6 808.6,341.6 809.6,339.6 810.7,341.3 811.7,341.5 812.7,341.0 813.7,342.0 814.7,339.2 815.8,339.6 816.8,340.4 817.8,340.9 818.8,335.8 819.8,335.6 820.8,334.7 821.9,340.2 822.9,340.4 823.9,340.3 824.9,339.6 825.9,342.0 826.9,341.5 828.0,342.0 829.0,343.1 830.0,342.0 831.0,340.6 832.0,334.9 833.1,339.8 834.1,340.6 835.1,340.3 836.1,338.2 837.1,339.3 838.1,338.7 839.2,346.4 840.2,288.7 841.2,339.1 842.2,340.3 843.2,342.0 844.2,341.7 845.3,339.6 846.3,312.1 847.3,343.5 848.3,342.2 849.3,322.7 850.4,348.9 851.4,344.5 852.4,342.6 853.4,342.4 854.4,337.4 855.4,336.7 856.5,331.5 857.5,316.9 858.5,313.8 859.5,336.5 860.5,339.3 861.5,351.6 862.6,341.7 863.6,317.1 864.6,341.6 865.6,334.3 866.6,338.9 867.6,348.0 868.7,317.1 869.7,340.6 870.7,341.7 871.7,340.6 872.7,319.1 873.8,347.2 874.8,345.5 875.8,345.7 876.8,345.8 877.8,345.1 878.8,346.2 879.9,346.7 880.9,351.1 881.9,313.1 882.9,349.0 883.9,346.7 884.9,345.7 886.0,319.3 887.0,345.8 888.0,339.2 889.0,344.5 890.0,321.3 891.1,341.8 892.1,345.7 893.1,343.1 894.1,324.3 895.1,350.6 896.1,345.0 897.2,326.2 898.2,345.3 899.2,345.4 900.2,344.2 901.2,342.9 902.2,345.7 903.3,345.4 904.3,343.6 905.3,320.0 906.3,320.0 907.3,347.3 908.4,343.8 909.4,316.3 910.4,341.6 911.4,340.2 912.4,341.8 913.4,296.9 914.5,344.3 915.5,343.9 916.5,315.0 917.5,347.3 918.5,342.9 919.5,322.7 920.6,347.9 921.6,322.0 922.6,340.4 923.6,347.6 924.6,347.1 925.6,345.1 926.7,342.7 927.7,343.7 928.7,345.5 929.7,344.0 930.7,296.5 931.8,343.7 932.8,345.8 933.8,340.6 934.8,314.7 935.8,345.6 936.8,340.9 937.9,344.2 938.9,322.2 939.9,341.8 940.9,319.8 941.9,341.0 942.9,342.4 944.0,318.2 945.0,343.1 946.0,345.0" fill="none" stroke="#7c3aed" stroke-width="2.2" stroke-linejoin="round" stroke-linecap="round"/>
<line x1="76" y1="70" x2="94" y2="70" stroke="#2563eb" stroke-width="3"/>
<text x="100" y="74" font-family="Arial, sans-serif" font-size="11" fill="#0f172a">tx count</text>
<line x1="186" y1="70" x2="204" y2="70" stroke="#7c3aed" stroke-width="3"/>
<text x="210" y="74" font-family="Arial, sans-serif" font-size="11" fill="#0f172a">unique accounts</text>
<text x="28" y="404" font-family="Arial, sans-serif" font-size="11" fill="#64748b">Source: hourly_features.csv; capped windows are sample counts</text>
</svg>