<svg xmlns="http://www.w3.org/2000/svg" width="980" height="420" viewBox="0 0 980 420">
<rect width="100%" height="100%" fill="#ffffff"/>
<text x="28" y="34" font-family="Arial, sans-serif" font-size="20" font-weight="700" fill="#0f172a">Network activity sample trend</text>
<text x="28" y="56" font-family="Arial, sans-serif" font-size="12" fill="#64748b">Hourly transaction sample count and unique account sample count</text>
<line x1="76" y1="362.0" x2="946" y2="362.0" stroke="#e2e8f0" stroke-width="1"/>
<text x="68" y="366.0" font-family="Arial, sans-serif" font-size="10" text-anchor="end" fill="#64748b">249</text>
<line x1="76" y1="292.0" x2="946" y2="292.0" stroke="#e2e8f0" stroke-width="1"/>
<text x="68" y="296.0" font-family="Arial, sans-serif" font-size="10" text-anchor="end" fill="#64748b">1K</text>
<line x1="76" y1="222.0" x2="946" y2="222.0" stroke="#e2e8f0" stroke-width="1"/>
<text x="68" y="226.0" font-family="Arial, sans-serif" font-size="10" text-anchor="end" fill="#64748b">3K</text>
<line x1="76" y1="152.0" x2="946" y2="152.0" stroke="#e2e8f0" stroke-width="1"/>
<text x="68" y="156.0" font-family="Arial, sans-serif" font-size="10" text-anchor="end" fill="#64748b">4K</text>
<line x1="76" y1="82.0" x2="946" y2="82.0" stroke="#e2e8f0" stroke-width="1"/>
<text x="68" y="86.0" font-family="Arial, sans-serif" font-size="10" text-anchor="end" fill="#64748b">5K</text>
<line x1="76" y1="362" x2="946" y2="362" stroke="#334155" stroke-width="1"/>
<line x1="76" y1="82" x2="76" y2="362" stroke="#334155" stroke-width="1"/>
<text x="76" y="72" font-family="Arial, sans-serif" font-size="11" fill="#64748b">count</text>
<line x1="76.0" y1="362" x2="76.0" y2="366" stroke="#334155" stroke-width="1"/>
<text x="76.0" y="380" font-family="Arial, sans-serif" font-size="10" text-anchor="middle" fill="#64748b">0</text>
<line x1="511.6" y1="362" x2="511.6" y2="366" stroke="#334155" stroke-width="1"/>
<text x="511.6" y="380" font-family="Arial, sans-serif" font-size="10" text-anchor="middle" fill="#64748b">379</text>
<line x1="946.0" y1="362" x2="946.0" y2="366" stroke="#334155" stroke-width="1"/>
<text x="946.0" y="380" font-family="Arial, sans-serif" font-size="10" text-anchor="middle" fill="#64748b">757</text>
<polyline points="76.0,92.4 77.1,92.4 78.3,92.4 79.4,92.4 80.6,92.4 81.7,92.4 82.9,92.4 84.0,92.4 85.2,92.4 86.3,92.4 87.5,92.4 88.6,92.4 89.8,92.4 90.9,92.4 92.1,92.4 93.2,92.4 94.4,92.4 95.5,92.4 96.7,92.4 97.8,92.4 99.0,92.4 100.1,92.4 101.3,92.4 102.4,92.4 103.6,92.4 104.7,92.4 105.9,92.4 107.0,92.4 108.2,92.4 109.3,92.4 110.5,92.4 111.6,92.4 112.8,92.4 113.9,92.4 115.1,92.4 116.2,92.4 117.4,92.4 118.5,92.4 119.7,92.4 120.8,92.4 122.0,92.4 123.1,92.4 124.3,92.4 125.4,92.4 126.6,92.4 127.7,92.4 128.9,92.4 130.0,92.4 131.2,92.4 132.3,92.4 133.5,92.4 134.6,92.4 135.8,92.4 136.9,92.4 138.1,92.4 139.2,92.4 140.4,92.4 141.5,92.4 142.7,92.4 143.8,92.4 145.0,92.4 146.1,92.4 147.3,92.4 148.4,92.4 149.6,92.4 150.7,92.4 151.9,92.4 153.0,92.4 154.2,92.4 155.3,92.4 156.4,92.4 157.6,92.4 158.7,92.4 159.9,92.4 161.0,92.4 162.2,92.4 163.3,92.4 164.5,92.4 165.6,92.4 166.8,92.4 167.9,92.4 169.1,92.4 170.2,92.4 171.4,92.4 172.5,92.4 173.7,92.4 174.8,92.4 176.0,92.4 177.1,92.4 178.3,92.4 179.4,92.4 180.6,92.4 181.7,92.4 182.9,92.4 184.0,92.4 185.2,92.4 186.3,92.4 187.5,92.4 188.6,92.4 189.8,92.4 190.9,92.4 192.1,92.4 193.2,92.4 194.4,92.4 195.5,92.4 196.7,92.4 197.8,92.4 199.0,92.4 200.1,92.4 201.3,92.4 202.4,92.4 203.6,92.4 204.7,92.4 205.9,92.4 207.0,92.4 208.2,92.4 209.3,92.4 210.5,92.4 211.6,92.4 212.8,92.4 213.9,92.4 215.1,92.4 216.2,92.4 217.4,92.4 218.5,92.4 219.7,92.4 220.8,92.4 222.0,92.4 223.1,92.4 224.3,92.4 225.4,92.4 226.6,92.4 227.7,92.4 228.9,92.4 230.0,92.4 231.2,92.4 232.3,92.4 233.5,92.4 234.6,92.4 235.7,92.4 236.9,92.4 238.0,92.4 239.2,92.4 240.3,92.4 241.5,92.4 242.6,92.4 243.8,92.4 244.9,92.4 246.1,92.4 247.2,92.4 248.4,92.4 249.5,92.4 250.7,92.4 251.8,92.4 253.0,92.4 254.1,92.4 255.3,92.4 256.4,92.4 257.6,92.4 258.7,92.4 259.9,92.4 261.0,92.4 262.2,92.4 263.3,92.4 264.5,92.4 265.6,92.4 266.8,92.4 267.9,92.4 269.1,92.4 270.2,92.4 271.4,92.4 272.5,92.4 273.7,92.4 274.8,92.4 276.0,92.4 277.1,92.4 278.3,92.4 279.4,92.4 280.6,92.4 281.7,92.4 282.9,92.4 284.0,92.4 285.2,92.4 286.3,92.4 287.5,92.4 288.6,92.4 289.8,92.4 290.9,92.4 292.1,92.4 293.2,92.4 294.4,92.4 295.5,92.4 296.7,92.4 297.8,92.4 299.0,92.4 300.1,92.4 301.3,92.4 302.4,92.4 303.6,92.4 304.7,92.4 305.9,92.4 307.0,92.4 308.2,92.4 309.3,92.4 310.5,92.4 311.6,92.4 312.8,92.4 313.9,92.4 315.0,92.4 316.2,92.4 317.3,92.4 318.5,92.4 319.6,92.4 320.8,92.4 321.9,92.4 323.1,92.4 324.2,92.4 325.4,92.4 326.5,92.4 327.7,92.4 328.8,92.4 330.0,92.4 331.1,92.4 332.3,92.4 333.4,92.4 334.6,92.4 335.7,92.4 336.9,92.4 338.0,92.4 339.2,92.4 340.3,92.4 341.5,92.4 342.6,92.4 343.8,92.4 344.9,92.4 346.1,92.4 347.2,92.4 348.4,92.4 349.5,92.4 350.7,92.4 351.8,92.4 353.0,92.4 354.1,92.4 355.3,92.4 356.4,92.4 357.6,92.4 358.7,92.4 359.9,92.4 361.0,92.4 362.2,92.4 363.3,92.4 364.5,92.4 365.6,92.4 366.8,92.4 367.9,92.4 369.1,92.4 370.2,92.4 371.4,92.4 372.5,92.4 373.7,92.4 374.8,92.4 376.0,92.4 377.1,92.4 378.3,92.4 379.4,92.4 380.6,92.4 381.7,92.4 382.9,92.4 384.0,92.4 385.2,92.4 386.3,92.4 387.5,92.4 388.6,92.4 389.8,92.4 390.9,92.4 392.1,92.4 393.2,92.4 394.3,92.4 395.5,92.4 396.6,92.4 397.8,92.4 398.9,92.4 400.1,92.4 401.2,92.4 402.4,92.4 403.5,92.4 404.7,92.4 405.8,92.4 407.0,92.4 408.1,92.4 409.3,92.4 410.4,92.4 411.6,92.4 412.7,92.4 413.9,92.4 415.0,92.4 416.2,92.4 417.3,92.4 418.5,92.4 419.6,92.4 420.8,92.4 421.9,92.4 423.1,92.4 424.2,92.4 425.4,92.4 426.5,92.4 427.7,92.4 428.8,92.4 430.0,92.4 431.1,92.4 432.3,92.4 433.4,92.4 434.6,92.4 435.7,92.4 436.9,92.4 438.0,92.4 439.2,92.4 440.3,92.4 441.5,92.4 442.6,92.4 443.8,92.4 444.9,92.4 446.1,92.4 447.2,92.4 448.4,92.4 449.5,92.4 450.7,92.4 451.8,92.4 453.0,92.4 454.1,92.4 455.3,92.4 456.4,92.4 457.6,92.4 458.7,92.4 459.9,92.4 461.0,92.4 462.2,92.4 463.3,92.4 464.5,92.4 465.6,92.4 466.8,92.4 467.9,92.4 469.1,92.4 470.2,92.4 471.4,92.4 472.5,92.4 473.6,92.4 474.8,92.4 475.9,92.4 477.1,92.4 478.2,92.4 479.4,92.4 480.5,92.4 481.7,92.4 482.8,92.4 484.0,92.4 485.1,92.4 486.3,92.4 487.4,92.4 488.6,92.4 489.7,92.4 490.9,92.4 492.0,92.4 493.2,92.4 494.3,92.4 495.5,92.4 496.6,92.4 497.8,92.4 498.9,92.4 500.1,92.4 501.2,92.4 502.4,92.4 503.5,92.4 504.7,92.4 505.8,92.4 507.0,92.4 508.1,92.4 509.3,92.4 510.4,92.4 511.6,92.4 512.7,92.4 513.9,92.4 515.0,92.4 516.2,92.4 517.3,92.4 518.5,92.4 519.6,92.4 520.8,92.4 521.9,92.4 523.1,92.4 524.2,92.4 525.4,92.4 526.5,92.4 527.7,92.4 528.8,92.4 530.0,92.4 531.1,92.4 532.3,92.4 533.4,92.4 534.6,92.4 535.7,92.4 536.9,92.4 538.0,92.4 539.2,92.4 540.3,92.4 541.5,92.4 542.6,92.4 543.8,92.4 544.9,92.4 546.1,92.4 547.2,92.4 548.4,92.4 549.5,92.4 550.6,92.4 551.8,92.4 552.9,92.4 554.1,92.4 555.2,92.4 556.4,92.4 557.5,92.4 558.7,92.4 559.8,92.4 561.0,92.4 562.1,92.4 563.3,92.4 564.4,92.4 565.6,92.4 566.7,92.4 567.9,92.4 569.0,92.4 570.2,92.4 571.3,92.4 572.5,92.4 573.6,92.4 574.8,92.4 575.9,92.4 577.1,92.4 578.2,92.4 579.4,92.4 580.5,92.4 581.7,92.4 582.8,92.4 584.0,92.4 585.1,92.4 586.3,92.4 587.4,92.4 588.6,92.4 589.7,92.4 590.9,92.4 592.0,92.4 593.2,92.4 594.3,92.4 595.5,92.4 596.6,92.4 597.8,92.4 598.9,92.4 600.1,92.4 601.2,92.4 602.4,92.4 603.5,92.4 604.7,92.4 605.8,92.4 607.0,92.4 608.1,92.4 609.3,92.4 610.4,92.4 611.6,92.4 612.7,92.4 613.9,92.4 615.0,92.4 616.2,92.4 617.3,92.4 618.5,92.4 619.6,92.4 620.8,92.4 621.9,92.4 623.1,92.4 624.2,92.4 625.4,92.4 626.5,92.4 627.7,92.4 628.8,92.4 629.9,92.4 631.1,92.4 632.2,92.4 633.4,92.4 634.5,92.4 635.7,92.4 636.8,92.4 638.0,92.4 639.1,92.4 640.3,92.4 641.4,92.4 642.6,92.4 643.7,92.4 644.9,92.4 646.0,92.4 647.2,92.4 648.3,92.4 649.5,92.4 650.6,92.4 651.8,92.4 652.9,92.4 654.1,92.4 655.2,92.4 656.4,92.4 657.5,92.4 658.7,92.4 659.8,92.4 661.0,92.4 662.1,92.4 663.3,92.4 664.4,92.4 665.6,92.4 666.7,92.4 667.9,92.4 669.0,92.4 670.2,92.4 671.3,92.4 672.5,92.4 673.6,92.4 674.8,92.4 675.9,92.4 677.1,92.4 678.2,92.4 679.4,92.4 680.5,92.4 681.7,92.4 682.8,92.4 684.0,92.4 685.1,92.4 686.3,92.4 687.4,92.4 688.6,92.4 689.7,92.4 690.9,92.4 692.0,92.4 693.2,92.4 694.3,92.4 695.5,92.4 696.6,92.4 697.8,92.4 698.9,92.4 700.1,92.4 701.2,92.4 702.4,92.4 703.5,92.4 704.7,92.4 705.8,92.4 707.0,92.4 708.1,92.4 709.2,92.4 710.4,92.4 711.5,92.4 712.7,92.4 713.8,92.4 715.0,92.4 716.1,92.4 717.3,92.4 718.4,92.4 719.6,92.4 720.7,92.4 721.9,92.4 723.0,92.4 724.2,92.4 725.3,92.4 726.5,92.4 727.6,92.4 728.8,92.4 729.9,92.4 731.1,92.4 732.2,92.4 733.4,92.4 734.5,92.4 735.7,92.4 736.8,92.4 738.0,92.4 739.1,92.4 740.3,92.4 741.4,92.4 742.6,92.4 743.7,92.4 744.9,92.4 746.0,92.4 747.2,92.4 748.3,92.4 749.5,92.4 750.6,92.4 751.8,92.4 752.9,92.4 754.1,92.4 755.2,92.4 756.4,92.4 757.5,92.4 758.7,92.4 759.8,92.4 761.0,92.4 762.1,92.4 763.3,92.4 764.4,92.4 765.6,92.4 766.7,92.4 767.9,92.4 769.0,92.4 770.2,92.4 771.3,92.4 772.5,92.4 773.6,92.4 774.8,92.4 775.9,92.4 777.1,92.4 778.2,92.4 779.4,92.4 780.5,92.4 781.7,92.4 782.8,92.4 784.0,92.4 785.1,92.4 786.3,92.4 787.4,92.4 788.5,92.4 789.7,92.4 790.8,92.4 792.0,92.4 793.1,92.4 794.3,92.4 795.4,92.4 796.6,92.4 797.7,92.4 798.9,92.4 800.0,92.4 801.2,92.4 802.3,92.4 803.5,92.4 804.6,92.4 805.8,92.4 806.9,92.4 808.1,92.4 809.2,92.4 810.4,92.4 811.5,92.4 812.7,92.4 813.8,92.4 815.0,92.4 816.1,92.4 817.3,92.4 818.4,92.4 819.6,92.4 820.7,92.4 821.9,92.4 823.0,92.4 824.2,92.4 825.3,92.4 826.5,92.4 827.6,92.4 828.8,92.4 829.9,92.4 831.1,92.4 832.2,92.4 833.4,92.4 834.5,92.4 835.7,92.4 836.8,92.4 838.0,92.4 839.1,92.4 840.3,92.4 841.4,92.4 842.6,92.4 843.7,92.4 844.9,92.4 846.0,92.4 847.2,92.4 848.3,92.4 849.5,92.4 850.6,92.4 851.8,92.4 852.9,92.4 854.1,92.4 855.2,92.4 856.4,92.4 857.5,319.4 858.7,319.4 859.8,319.4 861.0,319.4 862.1,319.4 863.3,319.4 864.4,319.4 865.6,319.4 866.7,319.4 867.8,319.4 869.0,319.4 870.1,319.4 871.3,319.4 872.4,319.4 873.6,319.4 874.7,319.4 875.9,319.4 877.0,319.4 878.2,319.4 879.3,319.4 880.5,319.4 881.6,319.4 882.8,319.4 883.9,319.4 885.1,319.4 886.2,319.4 887.4,319.4 888.5,319.4 889.7,319.4 890.8,319.4 892.0,319.4 893.1,319.4 894.3,319.4 895.4,319.4 896.6,319.4 897.7,319.4 898.9,319.4 900.0,319.4 901.2,319.4 902.3,319.4 903.5,319.4 904.6,319.4 905.8,319.4 906.9,319.4 908.1,319.4 909.2,319.4 910.4,319.4 911.5,319.4 912.7,319.4 913.8,319.4 915.0,319.4 916.1,319.4 917.3,319.4 918.4,319.4 919.6,319.4 920.7,319.4 921.9,319.4 923.0,319.4 924.2,319.4 925.3,319.4 926.5,319.4 927.6,319.4 928.8,319.4 929.9,319.4 931.1,319.4 932.2,319.4 933.4,319.4 934.5,319.4 935.7,319.4 936.8,319.4 938.0,319.4 939.1,207.7 940.3,319.4 941.4,319.4 942.6,319.4 943.7,319.4 944.9,319.4 946.0,319.4" fill="none" stroke="#2563eb" stroke-width="2.2" stroke-linejoin="round" stroke-linecap="round"/>
<polyline points="76.0,263.8 77.1,259.8 78.3,250.4 79.4,248.2 80.6,251.9 81.7,241.2 82.9,240.6 84.0,244.5 85.2,249.4 86.3,249.0 87.5,265.7 88.6,247.0 89.8,246.2 90.9,247.8 92.1,252.0 93.2,260.4 94.4,257.5 95.5,255.1 96.7,252.6 97.8,257.6 99.0,262.5 100.1,258.5 101.3,256.6 102.4,256.2 103.6,250.2 104.7,248.6 105.9,250.7 107.0,242.0 108.2,233.4 109.3,242.1 110.5,244.5 111.6,258.3 112.8,252.0 113.9,251.6 115.1,256.2 116.2,251.5 117.4,248.3 118.5,254.4 119.7,248.1 120.8,247.9 122.0,245.6 123.1,262.9 124.3,259.2 125.4,255.1 126.6,220.6 127.7,223.1 128.9,256.3 130.0,252.2 131.2,238.2 132.3,220.1 133.5,240.8 134.6,252.1 135.8,244.9 136.9,243.0 138.1,244.8 139.2,247.7 140.4,245.3 141.5,250.9 142.7,242.2 143.8,247.9 145.0,239.7 146.1,246.3 147.3,244.9 148.4,286.3 149.6,271.1 150.7,263.3 151.9,271.2 153.0,268.1 154.2,239.4 155.3,234.7 156.4,244.4 157.6,260.9 158.7,273.5 159.9,247.0 161.0,246.4 162.2,249.0 163.3,262.1 164.5,251.3 165.6,260.1 166.8,246.8 167.9,241.4 169.1,254.9 170.2,250.8 171.4,255.6 172.5,256.7 173.7,255.0 174.8,263.0 176.0,252.4 177.1,252.4 178.3,254.7 179.4,250.9 180.6,269.3 181.7,232.3 182.9,256.8 184.0,252.0 185.2,219.0 186.3,257.5 187.5,246.2 188.6,248.8 189.8,227.7 190.9,247.1 192.1,249.3 193.2,241.9 194.4,250.4 195.5,244.5 196.7,251.1 197.8,245.3 199.0,243.7 200.1,243.6 201.3,249.1 202.4,246.3 203.6,252.8 204.7,238.7 205.9,252.4 207.0,253.6 208.2,251.9 209.3,220.8 210.5,204.2 211.6,215.5 212.8,216.5 213.9,216.0 215.1,225.7 216.2,221.1 217.4,216.7 218.5,244.5 219.7,247.3 220.8,242.8 222.0,244.1 223.1,243.1 224.3,242.6 225.4,243.6 226.6,245.5 227.7,244.3 228.9,246.0 230.0,250.7 231.2,246.0 232.3,259.2 233.5,258.8 234.6,249.1 235.7,264.3 236.9,291.5 238.0,255.2 239.2,269.3 240.3,256.6 241.5,254.3 242.6,254.6 243.8,251.7 244.9,252.8 246.1,246.2 247.2,252.1 248.4,245.2 249.5,243.3 250.7,241.6 251.8,243.6 253.0,252.4 254.1,265.1 255.3,248.1 256.4,253.2 257.6,251.9 258.7,254.1 259.9,254.4 261.0,259.6 262.2,261.8 263.3,260.1 264.5,293.3 265.6,256.7 266.8,271.3 267.9,237.1 269.1,253.1 270.2,246.0 271.4,250.0 272.5,241.4 273.7,243.6 274.8,249.7 276.0,244.0 277.1,237.5 278.3,246.6 279.4,248.4 280.6,242.3 281.7,246.1 282.9,246.0 284.0,247.8 285.2,248.8 286.3,252.7 287.5,254.2 288.6,260.1 289.8,264.5 290.9,253.2 292.1,286.7 293.2,252.7 294.4,256.1 295.5,251.6 296.7,250.7 297.8,243.9 299.0,243.3 300.1,243.1 301.3,241.9 302.4,248.3 303.6,249.0 304.7,259.9 305.9,258.3 307.0,254.7 308.2,251.1 309.3,256.8 310.5,248.5 311.6,254.5 312.8,246.8 313.9,254.4 315.0,259.1 316.2,262.4 317.3,260.0 318.5,267.3 319.6,298.8 320.8,261.0 321.9,261.3 323.1,259.6 324.2,258.8 325.4,250.5 326.5,248.9 327.7,246.8 328.8,253.3 330.0,249.8 331.1,246.3 332.3,246.4 333.4,242.1 334.6,249.1 335.7,241.2 336.9,242.3 338.0,241.8 339.2,256.8 340.3,256.5 341.5,255.1 342.6,260.4 343.8,274.4 344.9,258.9 346.1,261.6 347.2,259.2 348.4,253.3 349.5,232.8 350.7,220.4 351.8,258.6 353.0,246.0 354.1,229.0 355.3,225.3 356.4,224.9 357.6,224.6 358.7,223.5 359.9,240.2 361.0,232.6 362.2,236.1 363.3,236.9 364.5,246.6 365.6,257.8 366.8,267.5 367.9,246.1 369.1,285.0 370.2,251.1 371.4,266.2 372.5,257.9 373.7,259.5 374.8,267.0 376.0,250.5 377.1,210.5 378.3,221.4 379.4,223.8 380.6,226.5 381.7,215.9 382.9,228.2 384.0,222.8 385.2,209.7 386.3,242.9 387.5,240.7 388.6,249.9 389.8,252.4 390.9,248.4 392.1,244.6 393.2,253.6 394.3,251.2 395.5,249.7 396.6,268.5 397.8,253.2 398.9,248.6 400.1,260.0 401.2,228.0 402.4,212.1 403.5,217.6 404.7,256.8 405.8,252.5 407.0,246.3 408.1,271.4 409.3,240.3 410.4,245.7 411.6,244.2 412.7,251.7 413.9,233.3 415.0,243.7 416.2,245.6 417.3,266.5 418.5,240.1 419.6,245.6 420.8,243.7 421.9,248.8 423.1,247.7 424.2,264.7 425.4,251.8 426.5,259.2 427.7,255.7 428.8,252.7 430.0,266.1 431.1,253.6 432.3,260.2 433.4,264.9 434.6,254.9 435.7,230.9 436.9,225.0 438.0,258.9 439.2,246.7 440.3,253.8 441.5,256.5 442.6,249.0 443.8,252.1 444.9,251.1 446.1,249.4 447.2,246.3 448.4,266.1 449.5,264.1 450.7,259.3 451.8,263.4 453.0,260.0 454.1,284.9 455.3,277.7 456.4,274.2 457.6,277.7 458.7,283.9 459.9,283.7 461.0,278.9 462.2,282.8 463.3,284.7 464.5,279.6 465.6,277.2 466.8,266.8 467.9,252.1 469.1,260.7 470.2,274.5 471.4,262.1 472.5,264.5 473.6,258.8 474.8,266.7 475.9,263.3 477.1,263.1 478.2,263.1 479.4,255.3 480.5,263.8 481.7,258.4 482.8,262.5 484.0,250.5 485.1,255.9 486.3,261.7 487.4,263.8 488.6,264.8 489.7,260.3 490.9,259.5 492.0,253.3 493.2,252.5 494.3,255.4 495.5,234.5 496.6,247.7 497.8,260.0 498.9,248.4 500.1,245.3 501.2,250.6 502.4,252.4 503.5,254.2 504.7,253.7 505.8,255.5 507.0,256.1 508.1,252.1 509.3,263.0 510.4,261.6 511.6,266.7 512.7,261.3 513.9,266.5 515.0,258.3 516.2,254.9 517.3,262.6 518.5,245.2 519.6,254.1 520.8,246.6 521.9,250.2 523.1,236.0 524.2,244.0 525.4,249.1 526.5,256.7 527.7,237.2 528.8,252.0 530.0,237.6 531.1,243.5 532.3,248.7 533.4,247.1 534.6,247.8 535.7,246.5 536.9,254.2 538.0,267.2 539.2,258.9 540.3,215.3 541.5,221.8 542.6,217.9 543.8,232.4 544.9,221.6 546.1,222.1 547.2,229.8 548.4,251.2 549.5,249.0 550.6,235.2 551.8,246.9 552.9,246.0 554.1,253.9 555.2,246.9 556.4,248.4 557.5,249.2 558.7,248.6 559.8,240.0 561.0,241.8 562.1,252.9 563.3,253.8 564.4,252.9 565.6,260.5 566.7,249.5 567.9,256.6 569.0,256.6 570.2,257.2 571.3,253.6 572.5,251.4 573.6,248.4 574.8,236.1 575.9,258.7 577.1,240.3 578.2,218.3 579.4,245.7 580.5,244.2 581.7,248.3 582.8,249.5 584.0,246.5 585.1,245.5 586.3,248.9 587.4,252.0 588.6,249.8 589.7,253.3 590.9,250.7 592.0,253.3 593.2,259.5 594.3,261.8 595.5,240.4 596.6,263.7 597.8,269.2 598.9,272.1 600.1,254.1 601.2,250.4 602.4,257.8 603.5,243.3 604.7,245.6 605.8,236.8 607.0,246.8 608.1,253.1 609.3,241.4 610.4,235.3 611.6,239.9 612.7,242.8 613.9,236.0 615.0,253.6 616.2,245.9 617.3,245.2 618.5,263.3 619.6,306.8 620.8,250.9 621.9,246.7 623.1,259.9 624.2,256.9 625.4,254.1 626.5,257.3 627.7,246.1 628.8,243.2 629.9,241.8 631.1,243.8 632.2,249.5 633.4,241.9 634.5,238.2 635.7,243.0 636.8,240.7 638.0,237.4 639.1,242.4 640.3,247.9 641.4,244.4 642.6,246.7 643.7,249.9 644.9,239.5 646.0,252.6 647.2,250.3 648.3,277.4 649.5,260.7 650.6,251.9 651.8,270.5 652.9,252.5 654.1,255.3 655.2,254.9 656.4,249.4 657.5,238.9 658.7,247.7 659.8,248.0 661.0,246.1 662.1,247.1 663.3,237.3 664.4,241.1 665.6,240.8 666.7,266.2 667.9,244.4 669.0,245.6 670.2,240.9 671.3,251.6 672.5,253.0 673.6,261.3 674.8,246.5 675.9,264.8 677.1,249.5 678.2,263.9 679.4,267.0 680.5,249.1 681.7,255.3 682.8,248.2 684.0,253.3 685.1,247.3 686.3,252.2 687.4,246.3 688.6,242.7 689.7,238.2 690.9,252.5 692.0,247.0 693.2,240.6 694.3,239.7 695.5,246.4 696.6,248.3 697.8,255.5 698.9,237.7 700.1,252.1 701.2,252.9 702.4,256.6 703.5,261.8 704.7,261.8 705.8,257.8 707.0,249.5 708.1,251.9 709.2,259.6 710.4,252.9 711.5,248.8 712.7,242.9 713.8,236.8 715.0,241.2 716.1,242.3 717.3,244.0 718.4,251.0 719.6,252.4 720.7,249.1 721.9,248.1 723.0,244.7 724.2,248.8 725.3,251.6 726.5,244.6 727.6,250.4 728.8,258.8 729.9,257.4 731.1,267.1 732.2,254.2 733.4,258.3 734.5,255.9 735.7,264.9 736.8,256.6 738.0,244.4 739.1,247.3 740.3,237.1 741.4,244.3 742.6,248.6 743.7,233.0 744.9,246.1 746.0,242.0 747.2,246.3 748.3,245.3 749.5,246.6 750.6,245.8 751.8,238.7 752.9,244.7 754.1,241.4 755.2,258.6 756.4,257.3 757.5,257.7 758.7,258.2 759.8,258.2 761.0,264.1 762.1,257.8 763.3,256.5 764.4,257.1 765.6,253.2 766.7,270.9 767.9,255.4 769.0,247.0 770.2,250.9 771.3,238.2 772.5,241.5 773.6,247.0 774.8,255.5 775.9,251.8 777.1,251.9 778.2,253.8 779.4,244.6 780.5,251.9 781.7,252.9 782.8,265.6 784.0,264.0 785.1,263.3 786.3,259.9 787.4,265.7 788.5,256.8 789.7,264.3 790.8,254.6 792.0,257.9 793.1,253.5 794.3,256.3 795.4,253.6 796.6,247.7 797.7,249.8 798.9,242.6 800.0,243.1 801.2,249.9 802.3,251.9 803.5,246.2 804.6,248.8 805.8,247.6 806.9,253.2 808.1,249.5 809.2,257.6 810.4,254.4 811.5,256.6 812.7,261.3 813.8,252.7 815.0,254.7 816.1,265.6 817.3,256.3 818.4,264.6 819.6,249.4 820.7,253.2 821.9,251.8 823.0,254.1 824.2,245.8 825.3,254.0 826.5,245.5 827.6,249.3 828.8,252.8 829.9,246.9 831.1,247.0 832.2,262.2 833.4,256.5 834.5,252.8 835.7,252.4 836.8,255.2 838.0,256.0 839.1,256.0 840.3,267.0 841.4,249.1 842.6,273.2 843.7,255.3 844.9,258.3 846.0,259.3 847.2,244.1 848.3,252.2 849.5,253.0 850.6,252.1 851.8,252.9 852.9,267.6 854.1,261.3 855.2,244.3 856.4,246.8 857.5,347.1 858.7,342.5 859.8,342.9 861.0,340.6 862.1,341.6 863.3,346.5 864.4,345.4 865.6,344.8 866.7,344.6 867.8,345.4 869.0,343.1 870.1,342.5 871.3,343.8 872.4,343.0 873.6,346.9 874.7,342.4 875.9,351.6 877.0,341.8 878.2,344.2 879.3,341.8 880.5,341.6 881.6,342.6 882.8,341.0 883.9,344.8 885.1,344.8 886.2,342.2 887.4,343.7 888.5,342.7 889.7,343.4 890.8,341.5 892.0,345.8 893.1,339.6 894.3,342.2 895.4,344.1 896.6,344.4 897.7,343.8 898.9,346.7 900.0,344.3 901.2,344.4 902.3,342.1 903.5,343.1 904.6,341.1 905.8,342.8 906.9,343.0 908.1,342.5 909.2,343.6 910.4,340.7 911.5,341.1 912.7,341.9 913.8,342.4 915.0,337.3 916.1,337.0 917.3,336.2 918.4,341.8 919.6,341.9 920.7,341.8 921.9,341.1 923.0,343.6 924.2,343.0 925.3,343.6 926.5,344.6 927.6,343.6 928.8,342.1 929.9,336.4 931.1,341.4 932.2,342.1 933.4,341.9 934.5,339.7 935.7,340.8 936.8,340.2 938.0,348.0 939.1,289.9 940.3,340.6 941.4,341.9 942.6,343.6 943.7,343.2 944.9,341.1 946.0,340.8" fill="none" stroke="#7c3aed" stroke-width="2.2" stroke-linejoin="round" stroke-linecap="round"/>
<line x1="76" y1="70" x2="94" y2="70" stroke="#2563eb" stroke-width="3"/>
<text x="100" y="74" font-family="Arial, sans-serif" font-size="11" fill="#0f172a">tx count</text>
<line x1="186" y1="70" x2="204" y2="70" stroke="#7c3aed" stroke-width="3"/>
<text x="210" y="74" font-family="Arial, sans-serif" font-size="11" fill="#0f172a">unique accounts</text>
<text x="28" y="404" font-family="Arial, sans-serif" font-size="11" fill="#64748b">Source: hourly_features.csv; capped windows are sample counts</text>
</svg>