<svg xmlns="http://www.w3.org/2000/svg" width="980" height="420" viewBox="0 0 980 420">
<rect width="100%" height="100%" fill="#ffffff"/>
<text x="28" y="34" font-family="Arial, sans-serif" font-size="20" font-weight="700" fill="#0f172a">Network activity sample trend</text>
<text x="28" y="56" font-family="Arial, sans-serif" font-size="12" fill="#64748b">Hourly transaction sample count and unique account sample count</text>
<line x1="76" y1="362.0" x2="946" y2="362.0" stroke="#e2e8f0" stroke-width="1"/>
<text x="68" y="366.0" font-family="Arial, sans-serif" font-size="10" text-anchor="end" fill="#64748b">220</text>
<line x1="76" y1="292.0" x2="946" y2="292.0" stroke="#e2e8f0" stroke-width="1"/>
<text x="68" y="296.0" font-family="Arial, sans-serif" font-size="10" text-anchor="end" fill="#64748b">1K</text>
<line x1="76" y1="222.0" x2="946" y2="222.0" stroke="#e2e8f0" stroke-width="1"/>
<text x="68" y="226.0" font-family="Arial, sans-serif" font-size="10" text-anchor="end" fill="#64748b">3K</text>
<line x1="76" y1="152.0" x2="946" y2="152.0" stroke="#e2e8f0" stroke-width="1"/>
<text x="68" y="156.0" font-family="Arial, sans-serif" font-size="10" text-anchor="end" fill="#64748b">4K</text>
<line x1="76" y1="82.0" x2="946" y2="82.0" stroke="#e2e8f0" stroke-width="1"/>
<text x="68" y="86.0" font-family="Arial, sans-serif" font-size="10" text-anchor="end" fill="#64748b">5K</text>
<line x1="76" y1="362" x2="946" y2="362" stroke="#334155" stroke-width="1"/>
<line x1="76" y1="82" x2="76" y2="362" stroke="#334155" stroke-width="1"/>
<text x="76" y="72" font-family="Arial, sans-serif" font-size="11" fill="#64748b">count</text>
<line x1="76.0" y1="362" x2="76.0" y2="366" stroke="#334155" stroke-width="1"/>
<text x="76.0" y="380" font-family="Arial, sans-serif" font-size="10" text-anchor="middle" fill="#64748b">0</text>
<line x1="511.5" y1="362" x2="511.5" y2="366" stroke="#334155" stroke-width="1"/>
<text x="511.5" y="380" font-family="Arial, sans-serif" font-size="10" text-anchor="middle" fill="#64748b">412</text>
<line x1="946.0" y1="362" x2="946.0" y2="366" stroke="#334155" stroke-width="1"/>
<text x="946.0" y="380" font-family="Arial, sans-serif" font-size="10" text-anchor="middle" fill="#64748b">823</text>
<polyline points="76.0,92.4 77.1,92.4 78.1,92.4 79.2,92.4 80.2,92.4 81.3,92.4 82.3,92.4 83.4,92.4 84.5,92.4 85.5,92.4 86.6,92.4 87.6,92.4 88.7,92.4 89.7,92.4 90.8,92.4 91.9,92.4 92.9,92.4 94.0,92.4 95.0,92.4 96.1,92.4 97.1,92.4 98.2,92.4 99.3,92.4 100.3,92.4 101.4,92.4 102.4,92.4 103.5,92.4 104.5,92.4 105.6,92.4 106.7,92.4 107.7,92.4 108.8,92.4 109.8,92.4 110.9,92.4 111.9,92.4 113.0,92.4 114.1,92.4 115.1,92.4 116.2,92.4 117.2,92.4 118.3,92.4 119.3,92.4 120.4,92.4 121.5,92.4 122.5,92.4 123.6,92.4 124.6,92.4 125.7,92.4 126.7,92.4 127.8,92.4 128.9,92.4 129.9,92.4 131.0,92.4 132.0,92.4 133.1,92.4 134.1,92.4 135.2,92.4 136.3,92.4 137.3,92.4 138.4,92.4 139.4,92.4 140.5,92.4 141.5,92.4 142.6,92.4 143.7,92.4 144.7,92.4 145.8,92.4 146.8,92.4 147.9,92.4 148.9,92.4 150.0,92.4 151.1,92.4 152.1,92.4 153.2,92.4 154.2,92.4 155.3,92.4 156.3,92.4 157.4,92.4 158.5,92.4 159.5,92.4 160.6,92.4 161.6,92.4 162.7,92.4 163.7,92.4 164.8,92.4 165.9,92.4 166.9,92.4 168.0,92.4 169.0,92.4 170.1,92.4 171.1,92.4 172.2,92.4 173.3,92.4 174.3,92.4 175.4,92.4 176.4,92.4 177.5,92.4 178.5,92.4 179.6,92.4 180.7,92.4 181.7,92.4 182.8,92.4 183.8,92.4 184.9,92.4 185.9,92.4 187.0,92.4 188.1,92.4 189.1,92.4 190.2,92.4 191.2,92.4 192.3,92.4 193.3,92.4 194.4,92.4 195.5,92.4 196.5,92.4 197.6,92.4 198.6,92.4 199.7,92.4 200.7,92.4 201.8,92.4 202.9,92.4 203.9,92.4 205.0,92.4 206.0,92.4 207.1,92.4 208.1,92.4 209.2,92.4 210.3,92.4 211.3,92.4 212.4,92.4 213.4,92.4 214.5,92.4 215.5,92.4 216.6,92.4 217.7,92.4 218.7,92.4 219.8,92.4 220.8,92.4 221.9,92.4 222.9,92.4 224.0,92.4 225.1,92.4 226.1,92.4 227.2,92.4 228.2,92.4 229.3,92.4 230.3,92.4 231.4,92.4 232.5,92.4 233.5,92.4 234.6,92.4 235.6,92.4 236.7,92.4 237.7,92.4 238.8,92.4 239.9,92.4 240.9,92.4 242.0,92.4 243.0,92.4 244.1,92.4 245.1,92.4 246.2,92.4 247.3,92.4 248.3,92.4 249.4,92.4 250.4,92.4 251.5,92.4 252.5,92.4 253.6,92.4 254.7,92.4 255.7,92.4 256.8,92.4 257.8,92.4 258.9,92.4 259.9,92.4 261.0,92.4 262.1,92.4 263.1,92.4 264.2,92.4 265.2,92.4 266.3,92.4 267.3,92.4 268.4,92.4 269.5,92.4 270.5,92.4 271.6,92.4 272.6,92.4 273.7,92.4 274.7,92.4 275.8,92.4 276.9,92.4 277.9,92.4 279.0,92.4 280.0,92.4 281.1,92.4 282.1,92.4 283.2,92.4 284.3,92.4 285.3,92.4 286.4,92.4 287.4,92.4 288.5,92.4 289.5,92.4 290.6,92.4 291.7,92.4 292.7,92.4 293.8,92.4 294.8,92.4 295.9,92.4 296.9,92.4 298.0,92.4 299.0,92.4 300.1,92.4 301.2,92.4 302.2,92.4 303.3,92.4 304.3,92.4 305.4,92.4 306.4,92.4 307.5,92.4 308.6,92.4 309.6,92.4 310.7,92.4 311.7,92.4 312.8,92.4 313.8,92.4 314.9,92.4 316.0,92.4 317.0,92.4 318.1,92.4 319.1,92.4 320.2,92.4 321.2,92.4 322.3,92.4 323.4,92.4 324.4,92.4 325.5,92.4 326.5,92.4 327.6,92.4 328.6,92.4 329.7,92.4 330.8,92.4 331.8,92.4 332.9,92.4 333.9,92.4 335.0,92.4 336.0,92.4 337.1,92.4 338.2,92.4 339.2,92.4 340.3,92.4 341.3,92.4 342.4,92.4 343.4,92.4 344.5,92.4 345.6,92.4 346.6,92.4 347.7,92.4 348.7,92.4 349.8,92.4 350.8,92.4 351.9,92.4 353.0,92.4 354.0,92.4 355.1,92.4 356.1,92.4 357.2,92.4 358.2,92.4 359.3,92.4 360.4,92.4 361.4,92.4 362.5,92.4 363.5,92.4 364.6,92.4 365.6,92.4 366.7,92.4 367.8,92.4 368.8,92.4 369.9,92.4 370.9,92.4 372.0,92.4 373.0,92.4 374.1,92.4 375.2,92.4 376.2,92.4 377.3,92.4 378.3,92.4 379.4,92.4 380.4,92.4 381.5,92.4 382.6,92.4 383.6,92.4 384.7,92.4 385.7,92.4 386.8,92.4 387.8,92.4 388.9,92.4 390.0,92.4 391.0,92.4 392.1,92.4 393.1,92.4 394.2,92.4 395.2,92.4 396.3,92.4 397.4,92.4 398.4,92.4 399.5,92.4 400.5,92.4 401.6,92.4 402.6,92.4 403.7,92.4 404.8,92.4 405.8,92.4 406.9,92.4 407.9,92.4 409.0,92.4 410.0,92.4 411.1,92.4 412.2,92.4 413.2,92.4 414.3,92.4 415.3,92.4 416.4,92.4 417.4,92.4 418.5,92.4 419.6,92.4 420.6,92.4 421.7,92.4 422.7,92.4 423.8,92.4 424.8,92.4 425.9,92.4 427.0,92.4 428.0,92.4 429.1,92.4 430.1,92.4 431.2,92.4 432.2,92.4 433.3,92.4 434.4,92.4 435.4,92.4 436.5,92.4 437.5,92.4 438.6,92.4 439.6,92.4 440.7,92.4 441.8,92.4 442.8,92.4 443.9,92.4 444.9,92.4 446.0,92.4 447.0,92.4 448.1,92.4 449.2,92.4 450.2,92.4 451.3,92.4 452.3,92.4 453.4,92.4 454.4,92.4 455.5,92.4 456.6,92.4 457.6,92.4 458.7,92.4 459.7,92.4 460.8,92.4 461.8,92.4 462.9,92.4 464.0,92.4 465.0,92.4 466.1,92.4 467.1,92.4 468.2,92.4 469.2,92.4 470.3,92.4 471.4,92.4 472.4,92.4 473.5,92.4 474.5,92.4 475.6,92.4 476.6,92.4 477.7,92.4 478.8,92.4 479.8,92.4 480.9,92.4 481.9,92.4 483.0,92.4 484.0,92.4 485.1,92.4 486.2,92.4 487.2,92.4 488.3,92.4 489.3,92.4 490.4,92.4 491.4,92.4 492.5,92.4 493.6,92.4 494.6,92.4 495.7,92.4 496.7,92.4 497.8,92.4 498.8,92.4 499.9,92.4 501.0,92.4 502.0,92.4 503.1,92.4 504.1,92.4 505.2,92.4 506.2,92.4 507.3,92.4 508.4,92.4 509.4,92.4 510.5,92.4 511.5,92.4 512.6,92.4 513.6,92.4 514.7,92.4 515.8,92.4 516.8,92.4 517.9,92.4 518.9,92.4 520.0,92.4 521.0,92.4 522.1,92.4 523.2,92.4 524.2,92.4 525.3,92.4 526.3,92.4 527.4,92.4 528.4,92.4 529.5,92.4 530.6,92.4 531.6,92.4 532.7,92.4 533.7,92.4 534.8,92.4 535.8,92.4 536.9,92.4 538.0,92.4 539.0,92.4 540.1,92.4 541.1,92.4 542.2,92.4 543.2,92.4 544.3,92.4 545.4,92.4 546.4,92.4 547.5,92.4 548.5,92.4 549.6,92.4 550.6,92.4 551.7,92.4 552.8,92.4 553.8,92.4 554.9,92.4 555.9,92.4 557.0,92.4 558.0,92.4 559.1,92.4 560.2,92.4 561.2,92.4 562.3,92.4 563.3,92.4 564.4,92.4 565.4,92.4 566.5,92.4 567.6,92.4 568.6,92.4 569.7,92.4 570.7,92.4 571.8,92.4 572.8,92.4 573.9,92.4 575.0,92.4 576.0,92.4 577.1,92.4 578.1,92.4 579.2,92.4 580.2,92.4 581.3,92.4 582.4,92.4 583.4,92.4 584.5,92.4 585.5,92.4 586.6,92.4 587.6,92.4 588.7,92.4 589.8,92.4 590.8,92.4 591.9,92.4 592.9,92.4 594.0,92.4 595.0,92.4 596.1,92.4 597.2,92.4 598.2,92.4 599.3,92.4 600.3,92.4 601.4,92.4 602.4,92.4 603.5,92.4 604.6,92.4 605.6,92.4 606.7,92.4 607.7,92.4 608.8,92.4 609.8,92.4 610.9,92.4 612.0,92.4 613.0,92.4 614.1,92.4 615.1,92.4 616.2,92.4 617.2,92.4 618.3,92.4 619.4,92.4 620.4,92.4 621.5,92.4 622.5,92.4 623.6,92.4 624.6,92.4 625.7,92.4 626.8,92.4 627.8,92.4 628.9,92.4 629.9,92.4 631.0,92.4 632.0,92.4 633.1,92.4 634.2,92.4 635.2,92.4 636.3,92.4 637.3,92.4 638.4,92.4 639.4,92.4 640.5,92.4 641.6,92.4 642.6,92.4 643.7,92.4 644.7,92.4 645.8,92.4 646.8,92.4 647.9,92.4 649.0,92.4 650.0,92.4 651.1,92.4 652.1,92.4 653.2,92.4 654.2,92.4 655.3,92.4 656.4,92.4 657.4,92.4 658.5,92.4 659.5,92.4 660.6,92.4 661.6,92.4 662.7,92.4 663.8,92.4 664.8,92.4 665.9,92.4 666.9,92.4 668.0,92.4 669.0,92.4 670.1,92.4 671.2,92.4 672.2,92.4 673.3,92.4 674.3,92.4 675.4,92.4 676.4,92.4 677.5,92.4 678.6,92.4 679.6,92.4 680.7,92.4 681.7,92.4 682.8,92.4 683.8,92.4 684.9,92.4 686.0,92.4 687.0,92.4 688.1,92.4 689.1,92.4 690.2,92.4 691.2,92.4 692.3,92.4 693.4,92.4 694.4,92.4 695.5,92.4 696.5,92.4 697.6,92.4 698.6,92.4 699.7,92.4 700.8,92.4 701.8,92.4 702.9,92.4 703.9,92.4 705.0,92.4 706.0,92.4 707.1,92.4 708.2,92.4 709.2,92.4 710.3,92.4 711.3,92.4 712.4,92.4 713.4,92.4 714.5,92.4 715.6,92.4 716.6,92.4 717.7,92.4 718.7,92.4 719.8,92.4 720.8,92.4 721.9,92.4 723.0,92.4 724.0,92.4 725.1,92.4 726.1,92.4 727.2,92.4 728.2,92.4 729.3,92.4 730.3,92.4 731.4,92.4 732.5,92.4 733.5,92.4 734.6,92.4 735.6,92.4 736.7,92.4 737.7,92.4 738.8,92.4 739.9,92.4 740.9,92.4 742.0,92.4 743.0,92.4 744.1,92.4 745.1,92.4 746.2,92.4 747.3,92.4 748.3,92.4 749.4,92.4 750.4,92.4 751.5,92.4 752.5,92.4 753.6,92.4 754.7,92.4 755.7,92.4 756.8,92.4 757.8,92.4 758.9,92.4 759.9,92.4 761.0,92.4 762.1,92.4 763.1,92.4 764.2,92.4 765.2,92.4 766.3,92.4 767.3,92.4 768.4,92.4 769.5,92.4 770.5,92.4 771.6,92.4 772.6,92.4 773.7,92.4 774.7,92.4 775.8,92.4 776.9,92.4 777.9,92.4 779.0,92.4 780.0,92.4 781.1,92.4 782.1,92.4 783.2,92.4 784.3,92.4 785.3,92.4 786.4,92.4 787.4,92.4 788.5,92.4 789.5,92.4 790.6,92.4 791.7,92.4 792.7,92.4 793.8,92.4 794.8,318.0 795.9,318.0 796.9,318.0 798.0,318.0 799.1,318.0 800.1,318.0 801.2,318.0 802.2,318.0 803.3,318.0 804.3,318.0 805.4,318.0 806.5,318.0 807.5,318.0 808.6,318.0 809.6,318.0 810.7,318.0 811.7,318.0 812.8,318.0 813.9,318.0 814.9,318.0 816.0,318.0 817.0,318.0 818.1,318.0 819.1,318.0 820.2,318.0 821.3,318.0 822.3,318.0 823.4,318.0 824.4,318.0 825.5,318.0 826.5,318.0 827.6,318.0 828.7,318.0 829.7,318.0 830.8,318.0 831.8,318.0 832.9,318.0 833.9,318.0 835.0,318.0 836.1,318.0 837.1,318.0 838.2,318.0 839.2,318.0 840.3,318.0 841.3,318.0 842.4,318.0 843.5,318.0 844.5,318.0 845.6,318.0 846.6,318.0 847.7,318.0 848.7,318.0 849.8,318.0 850.9,318.0 851.9,318.0 853.0,318.0 854.0,318.0 855.1,318.0 856.1,318.0 857.2,318.0 858.3,318.0 859.3,318.0 860.4,318.0 861.4,318.0 862.5,318.0 863.5,318.0 864.6,318.0 865.7,318.0 866.7,318.0 867.8,318.0 868.8,318.0 869.9,207.0 870.9,318.0 872.0,318.0 873.1,318.0 874.1,318.0 875.2,318.0 876.2,263.4 877.3,318.0 878.3,318.0 879.4,263.5 880.5,318.0 881.5,318.0 882.6,318.0 883.6,318.0 884.7,318.0 885.7,318.0 886.8,318.0 887.9,262.2 888.9,263.5 890.0,318.0 891.0,318.0 892.1,318.0 893.1,318.0 894.2,264.6 895.3,318.0 896.3,318.0 897.4,318.0 898.4,318.0 899.5,261.9 900.5,318.0 901.6,318.0 902.7,318.0 903.7,263.1 904.8,318.0 905.8,318.0 906.9,318.0 907.9,318.0 909.0,318.0 910.1,318.0 911.1,318.0 912.2,318.0 913.2,207.5 914.3,318.0 915.3,318.0 916.4,318.0 917.5,262.4 918.5,318.0 919.6,318.0 920.6,318.0 921.7,262.8 922.7,318.0 923.8,318.0 924.9,318.0 925.9,263.0 927.0,318.0 928.0,318.0 929.1,262.3 930.1,318.0 931.2,318.0 932.3,318.0 933.3,318.0 934.4,318.0 935.4,318.0 936.5,318.0 937.5,261.9 938.6,261.7 939.7,318.0 940.7,318.0 941.8,264.0 942.8,318.0 943.9,318.0 944.9,318.0 946.0,318.0" fill="none" stroke="#2563eb" stroke-width="2.2" stroke-linejoin="round" stroke-linecap="round"/>
<polyline points="76.0,262.8 77.1,258.8 78.1,249.5 79.2,247.2 80.2,250.9 81.3,240.3 82.3,239.7 83.4,243.5 84.5,248.5 85.5,248.0 86.6,264.6 87.6,246.1 88.7,245.2 89.7,246.9 90.8,251.1 91.9,259.3 92.9,256.5 94.0,254.2 95.0,251.6 96.1,256.6 97.1,261.5 98.2,257.5 99.3,255.6 100.3,255.2 101.4,249.2 102.4,247.7 103.5,249.7 104.5,241.1 105.6,232.5 106.7,241.2 107.7,243.5 108.8,257.3 109.8,251.0 110.9,250.7 111.9,255.2 113.0,250.5 114.1,247.4 115.1,253.4 116.2,247.1 117.2,247.0 118.3,244.7 119.3,261.9 120.4,258.2 121.5,254.2 122.5,219.8 123.6,222.3 124.6,255.3 125.7,251.2 126.7,237.3 127.8,219.3 128.9,239.9 129.9,251.2 131.0,243.9 132.0,242.1 133.1,243.9 134.1,246.7 135.2,244.4 136.3,250.0 137.3,241.3 138.4,247.0 139.4,238.8 140.5,245.4 141.5,243.9 142.6,285.1 143.7,270.0 144.7,262.3 145.8,270.1 146.8,267.0 147.9,238.5 148.9,233.8 150.0,243.4 151.1,259.9 152.1,272.4 153.2,246.0 154.2,245.5 155.3,248.1 156.3,261.0 157.4,250.4 158.5,259.1 159.5,245.9 160.6,240.5 161.6,253.9 162.7,249.9 163.7,254.6 164.8,255.7 165.9,254.0 166.9,261.9 168.0,251.4 169.0,251.4 170.1,253.7 171.1,250.0 172.2,268.3 173.3,231.5 174.3,255.8 175.4,251.1 176.4,218.2 177.5,256.5 178.5,245.2 179.6,247.9 180.7,226.9 181.7,246.1 182.8,248.3 183.8,241.0 184.9,249.4 185.9,243.6 187.0,250.1 188.1,244.3 189.1,242.8 190.2,242.6 191.2,248.1 192.3,245.4 193.3,251.8 194.4,237.9 195.5,251.4 196.5,252.6 197.6,250.9 198.6,220.0 199.7,203.6 200.7,214.7 201.8,215.7 202.9,215.3 203.9,224.9 205.0,220.4 206.0,216.0 207.1,243.5 208.1,246.4 209.2,241.9 210.3,243.2 211.3,242.2 212.4,241.7 213.4,242.6 214.5,244.6 215.5,243.4 216.6,245.1 217.7,249.7 218.7,245.1 219.8,258.2 220.8,257.8 221.9,248.2 222.9,263.2 224.0,290.3 225.1,254.2 226.1,268.2 227.2,255.6 228.2,253.3 229.3,253.6 230.3,250.8 231.4,251.8 232.5,245.2 233.5,251.1 234.6,244.3 235.6,242.4 236.7,240.7 237.7,242.6 238.8,251.4 239.9,264.1 240.9,247.2 242.0,252.2 243.0,250.9 244.1,253.1 245.1,253.4 246.2,258.6 247.3,260.8 248.3,259.1 249.4,292.1 250.4,255.7 251.5,270.2 252.5,236.2 253.6,252.1 254.7,245.1 255.7,249.0 256.8,240.5 257.8,242.6 258.9,248.7 259.9,243.1 261.0,236.6 262.1,245.7 263.1,247.5 264.2,241.4 265.2,245.2 266.3,245.0 267.3,246.8 268.4,247.8 269.5,251.7 270.5,253.2 271.6,259.1 272.6,263.5 273.7,252.2 274.7,285.5 275.8,251.7 276.9,255.1 277.9,250.6 279.0,249.8 280.0,242.9 281.1,242.4 282.1,242.2 283.2,241.0 284.3,247.3 285.3,248.1 286.4,258.9 287.4,257.3 288.5,253.8 289.5,250.1 290.6,255.8 291.7,247.6 292.7,253.5 293.8,245.9 294.8,253.4 295.9,258.1 296.9,261.3 298.0,258.9 299.0,266.2 300.1,297.6 301.2,260.0 302.2,260.3 303.3,258.6 304.3,257.8 305.4,249.6 306.4,247.9 307.5,245.9 308.6,252.3 309.6,248.8 310.7,245.4 311.7,245.5 312.8,241.2 313.8,248.2 314.9,240.3 316.0,241.3 317.0,240.9 318.1,255.8 319.1,255.5 320.2,254.2 321.2,259.3 322.3,273.3 323.4,257.9 324.4,260.5 325.5,258.2 326.5,252.3 327.6,232.0 328.6,219.6 329.7,257.6 330.8,245.0 331.8,228.2 332.9,224.5 333.9,224.1 335.0,223.8 336.0,222.7 337.1,239.3 338.2,231.7 339.2,235.3 340.3,236.0 341.3,245.7 342.4,256.8 343.4,266.4 344.5,245.2 345.6,283.8 346.6,250.1 347.7,265.2 348.7,256.9 349.8,258.4 350.8,265.9 351.9,249.6 353.0,209.8 354.0,220.6 355.1,223.0 356.1,225.7 357.2,215.1 358.2,227.4 359.3,222.0 360.4,209.0 361.4,242.0 362.5,239.8 363.5,248.9 364.6,251.4 365.6,247.5 366.7,243.7 367.8,252.6 368.8,250.3 369.9,248.7 370.9,267.5 372.0,252.2 373.0,247.7 374.1,258.9 375.2,227.2 376.2,211.3 377.3,216.8 378.3,255.8 379.4,251.6 380.4,245.4 381.5,270.3 382.6,239.4 383.6,244.7 384.7,243.3 385.7,250.8 386.8,232.4 387.8,242.8 388.9,244.7 390.0,265.4 391.0,239.2 392.1,244.6 393.1,242.8 394.2,247.8 395.2,246.7 396.3,263.6 397.4,250.8 398.4,258.2 399.5,254.7 400.5,251.7 401.6,265.0 402.6,252.6 403.7,259.2 404.8,263.9 405.8,253.9 406.9,230.0 407.9,224.2 409.0,257.9 410.0,245.8 411.1,252.8 412.2,255.5 413.2,248.1 414.3,251.2 415.3,250.1 416.4,248.5 417.4,245.4 418.5,265.0 419.6,263.0 420.6,258.3 421.7,262.4 422.7,259.0 423.8,283.8 424.8,276.5 425.9,273.1 427.0,276.5 428.0,282.7 429.1,282.5 430.1,277.7 431.2,281.6 432.2,283.5 433.3,278.5 434.4,276.0 435.4,265.8 436.5,251.2 437.5,259.6 438.6,273.4 439.6,261.0 440.7,263.4 441.8,257.8 442.8,265.6 443.9,262.2 444.9,262.1 446.0,262.1 447.0,254.3 448.1,262.8 449.2,257.4 450.2,261.5 451.3,249.6 452.3,254.9 453.4,260.6 454.4,262.8 455.5,263.7 456.6,259.3 457.6,258.4 458.7,252.3 459.7,251.5 460.8,254.4 461.8,233.7 462.9,246.8 464.0,259.0 465.0,247.4 466.1,244.3 467.1,249.6 468.2,251.4 469.2,253.2 470.3,252.7 471.4,254.5 472.4,255.1 473.5,251.1 474.5,261.9 475.6,260.5 476.6,265.7 477.7,260.3 478.8,265.4 479.8,257.3 480.9,253.9 481.9,261.6 483.0,244.2 484.0,253.1 485.1,245.6 486.2,249.2 487.2,235.1 488.3,243.1 489.3,248.1 490.4,255.7 491.4,236.3 492.5,251.0 493.6,236.7 494.6,242.5 495.7,247.8 496.7,246.2 497.8,246.8 498.8,245.6 499.9,253.2 501.0,266.1 502.0,257.9 503.1,214.6 504.1,221.0 505.2,217.1 506.2,231.6 507.3,220.8 508.4,221.3 509.4,229.0 510.5,250.2 511.5,248.0 512.6,234.3 513.6,246.0 514.7,245.0 515.8,252.9 516.8,245.9 517.9,247.4 518.9,248.3 520.0,247.7 521.0,239.1 522.1,240.8 523.2,252.0 524.2,252.9 525.3,252.0 526.3,259.5 527.4,248.6 528.4,255.6 529.5,255.6 530.6,256.2 531.6,252.6 532.7,250.4 533.7,247.5 534.8,235.3 535.8,257.7 536.9,239.4 538.0,217.5 539.0,244.7 540.1,243.3 541.1,247.4 542.2,248.5 543.2,245.5 544.3,244.6 545.4,247.9 546.4,251.0 547.5,248.9 548.5,252.3 549.6,249.7 550.6,252.3 551.7,258.4 552.8,260.8 553.8,239.5 554.9,262.6 555.9,268.1 557.0,271.0 558.0,253.1 559.1,249.5 560.2,256.8 561.2,242.4 562.3,244.6 563.3,235.9 564.4,245.9 565.4,252.1 566.5,240.5 567.6,234.4 568.6,239.0 569.7,241.9 570.7,235.1 571.8,252.6 572.8,245.0 573.9,244.3 575.0,262.3 576.0,305.5 577.1,249.9 578.1,245.8 579.2,258.9 580.2,255.9 581.3,253.1 582.4,256.3 583.4,245.1 584.5,242.3 585.5,240.8 586.6,242.9 587.6,248.5 588.7,241.0 589.8,237.3 590.8,242.1 591.9,239.8 592.9,236.5 594.0,241.5 595.0,247.0 596.1,243.4 597.2,245.8 598.2,248.9 599.3,238.6 600.3,251.6 601.4,249.4 602.4,276.3 603.5,259.7 604.6,250.9 605.6,269.4 606.7,251.6 607.7,254.3 608.8,253.9 609.8,248.4 610.9,238.0 612.0,246.8 613.0,247.0 614.1,245.2 615.1,246.2 616.2,236.4 617.2,240.2 618.3,239.9 619.4,265.2 620.4,243.4 621.5,244.6 622.5,240.0 623.6,250.6 624.6,252.1 625.7,260.3 626.8,245.6 627.8,263.7 628.9,248.6 629.9,262.8 631.0,265.9 632.0,248.1 633.1,254.3 634.2,247.2 635.2,252.3 636.3,246.3 637.3,251.2 638.4,245.4 639.4,241.8 640.5,237.3 641.6,251.5 642.6,246.1 643.7,239.7 644.7,238.8 645.8,245.5 646.8,247.4 647.9,254.5 649.0,236.8 650.0,251.2 651.1,251.9 652.1,255.6 653.2,260.8 654.2,260.8 655.3,256.8 656.4,248.6 657.4,250.9 658.5,258.6 659.5,252.0 660.6,247.8 661.6,242.0 662.7,235.9 663.8,240.3 664.8,241.3 665.9,243.0 666.9,250.0 668.0,251.4 669.0,248.2 670.1,247.2 671.2,243.8 672.2,247.8 673.3,250.6 674.3,243.7 675.4,249.4 676.4,257.8 677.5,256.4 678.6,266.0 679.6,253.2 680.7,257.3 681.7,254.9 682.8,263.9 683.8,255.6 684.9,243.4 686.0,246.3 687.0,236.2 688.1,243.4 689.1,247.6 690.2,232.1 691.2,245.1 692.3,241.1 693.4,245.4 694.4,244.3 695.5,245.7 696.5,244.9 697.6,237.9 698.6,243.8 699.7,240.4 700.8,257.6 701.8,256.3 702.9,256.7 703.9,257.1 705.0,257.2 706.0,263.0 707.1,256.8 708.2,255.5 709.2,256.1 710.3,252.2 711.3,269.8 712.4,254.4 713.4,246.0 714.5,249.9 715.6,237.3 716.6,240.6 717.7,246.0 718.7,254.5 719.8,250.8 720.8,250.9 721.9,252.8 723.0,243.7 724.0,250.9 725.1,251.9 726.1,264.5 727.2,263.0 728.2,262.2 729.3,258.8 730.3,264.6 731.4,255.8 732.5,263.3 733.5,253.6 734.6,256.9 735.6,252.5 736.7,255.3 737.7,252.6 738.8,246.8 739.9,248.8 740.9,241.7 742.0,242.1 743.0,248.9 744.1,250.9 745.1,245.3 746.2,247.8 747.3,246.7 748.3,252.2 749.4,248.6 750.4,256.6 751.5,253.4 752.5,255.6 753.6,260.2 754.7,251.7 755.7,253.8 756.8,264.5 757.8,255.3 758.9,263.6 759.9,248.5 761.0,252.2 762.1,250.8 763.1,253.1 764.2,244.8 765.2,253.0 766.3,244.6 767.3,248.3 768.4,251.8 769.5,245.9 770.5,246.0 771.6,261.2 772.6,255.5 773.7,251.8 774.7,251.4 775.8,254.2 776.9,255.0 777.9,255.0 779.0,265.9 780.0,248.1 781.1,272.1 782.1,254.3 783.2,257.3 784.3,258.3 785.3,243.2 786.4,251.2 787.4,252.1 788.5,251.2 789.5,251.9 790.6,266.5 791.7,260.3 792.7,243.4 793.8,245.9 794.8,345.6 795.9,341.0 796.9,341.4 798.0,339.1 799.1,340.1 800.1,345.0 801.2,343.8 802.2,343.3 803.3,343.1 804.3,343.9 805.4,341.5 806.5,341.0 807.5,342.3 808.6,341.5 809.6,345.3 810.7,340.9 811.7,350.1 812.8,340.2 813.9,342.7 814.9,340.3 816.0,340.1 817.0,341.1 818.1,339.5 819.1,343.3 820.2,343.2 821.3,340.7 822.3,342.2 823.4,341.2 824.4,341.9 825.5,340.0 826.5,344.3 827.6,338.1 828.7,340.6 829.7,342.6 830.8,342.9 831.8,342.3 832.9,345.1 833.9,342.7 835.0,342.9 836.1,340.6 837.1,341.6 838.2,339.6 839.2,341.3 840.3,341.5 841.3,341.0 842.4,342.0 843.5,339.2 844.5,339.6 845.6,340.4 846.6,340.9 847.7,335.8 848.7,335.6 849.8,334.7 850.9,340.2 851.9,340.4 853.0,340.3 854.0,339.6 855.1,342.0 856.1,341.5 857.2,342.0 858.3,343.1 859.3,342.0 860.4,340.6 861.4,334.9 862.5,339.8 863.5,340.6 864.6,340.3 865.7,338.2 866.7,339.3 867.8,338.7 868.8,346.4 869.9,288.7 870.9,339.1 872.0,340.3 873.1,342.0 874.1,341.7 875.2,339.6 876.2,312.1 877.3,343.5 878.3,342.2 879.4,322.7 880.5,348.9 881.5,344.5 882.6,342.6 883.6,342.4 884.7,337.4 885.7,336.7 886.8,331.5 887.9,316.9 888.9,313.8 890.0,336.5 891.0,339.3 892.1,351.6 893.1,341.7 894.2,317.1 895.3,341.6 896.3,334.3 897.4,338.9 898.4,348.0 899.5,317.1 900.5,340.6 901.6,341.7 902.7,340.6 903.7,319.1 904.8,347.2 905.8,345.5 906.9,345.7 907.9,345.8 909.0,345.1 910.1,346.2 911.1,346.7 912.2,351.1 913.2,313.1 914.3,349.0 915.3,346.7 916.4,345.7 917.5,319.3 918.5,345.8 919.6,339.2 920.6,344.5 921.7,321.3 922.7,341.8 923.8,345.7 924.9,343.1 925.9,324.3 927.0,350.6 928.0,345.0 929.1,326.2 930.1,345.3 931.2,345.4 932.3,344.2 933.3,342.9 934.4,345.7 935.4,345.4 936.5,343.6 937.5,320.0 938.6,320.0 939.7,347.3 940.7,343.8 941.8,316.3 942.8,341.6 943.9,340.2 944.9,341.8 946.0,333.3" fill="none" stroke="#7c3aed" stroke-width="2.2" stroke-linejoin="round" stroke-linecap="round"/>
<line x1="76" y1="70" x2="94" y2="70" stroke="#2563eb" stroke-width="3"/>
<text x="100" y="74" font-family="Arial, sans-serif" font-size="11" fill="#0f172a">tx count</text>
<line x1="186" y1="70" x2="204" y2="70" stroke="#7c3aed" stroke-width="3"/>
<text x="210" y="74" font-family="Arial, sans-serif" font-size="11" fill="#0f172a">unique accounts</text>
<text x="28" y="404" font-family="Arial, sans-serif" font-size="11" fill="#64748b">Source: hourly_features.csv; capped windows are sample counts</text>
</svg>