<svg xmlns="http://www.w3.org/2000/svg" width="980" height="420" viewBox="0 0 980 420">
<rect width="100%" height="100%" fill="#ffffff"/>
<text x="28" y="34" font-family="Arial, sans-serif" font-size="20" font-weight="700" fill="#0f172a">Network activity sample trend</text>
<text x="28" y="56" font-family="Arial, sans-serif" font-size="12" fill="#64748b">Hourly transaction sample count and unique account sample count</text>
<line x1="76" y1="362.0" x2="946" y2="362.0" stroke="#e2e8f0" stroke-width="1"/>
<text x="68" y="366.0" font-family="Arial, sans-serif" font-size="10" text-anchor="end" fill="#64748b">220</text>
<line x1="76" y1="292.0" x2="946" y2="292.0" stroke="#e2e8f0" stroke-width="1"/>
<text x="68" y="296.0" font-family="Arial, sans-serif" font-size="10" text-anchor="end" fill="#64748b">1K</text>
<line x1="76" y1="222.0" x2="946" y2="222.0" stroke="#e2e8f0" stroke-width="1"/>
<text x="68" y="226.0" font-family="Arial, sans-serif" font-size="10" text-anchor="end" fill="#64748b">3K</text>
<line x1="76" y1="152.0" x2="946" y2="152.0" stroke="#e2e8f0" stroke-width="1"/>
<text x="68" y="156.0" font-family="Arial, sans-serif" font-size="10" text-anchor="end" fill="#64748b">4K</text>
<line x1="76" y1="82.0" x2="946" y2="82.0" stroke="#e2e8f0" stroke-width="1"/>
<text x="68" y="86.0" font-family="Arial, sans-serif" font-size="10" text-anchor="end" fill="#64748b">5K</text>
<line x1="76" y1="362" x2="946" y2="362" stroke="#334155" stroke-width="1"/>
<line x1="76" y1="82" x2="76" y2="362" stroke="#334155" stroke-width="1"/>
<text x="76" y="72" font-family="Arial, sans-serif" font-size="11" fill="#64748b">count</text>
<line x1="76.0" y1="362" x2="76.0" y2="366" stroke="#334155" stroke-width="1"/>
<text x="76.0" y="380" font-family="Arial, sans-serif" font-size="10" text-anchor="middle" fill="#64748b">0</text>
<line x1="511.5" y1="362" x2="511.5" y2="366" stroke="#334155" stroke-width="1"/>
<text x="511.5" y="380" font-family="Arial, sans-serif" font-size="10" text-anchor="middle" fill="#64748b">433</text>
<line x1="946.0" y1="362" x2="946.0" y2="366" stroke="#334155" stroke-width="1"/>
<text x="946.0" y="380" font-family="Arial, sans-serif" font-size="10" text-anchor="middle" fill="#64748b">865</text>
<polyline points="76.0,92.4 77.0,92.4 78.0,92.4 79.0,92.4 80.0,92.4 81.0,92.4 82.0,92.4 83.0,92.4 84.0,92.4 85.1,92.4 86.1,92.4 87.1,92.4 88.1,92.4 89.1,92.4 90.1,92.4 91.1,92.4 92.1,92.4 93.1,92.4 94.1,92.4 95.1,92.4 96.1,92.4 97.1,92.4 98.1,92.4 99.1,92.4 100.1,92.4 101.1,92.4 102.2,92.4 103.2,92.4 104.2,92.4 105.2,92.4 106.2,92.4 107.2,92.4 108.2,92.4 109.2,92.4 110.2,92.4 111.2,92.4 112.2,92.4 113.2,92.4 114.2,92.4 115.2,92.4 116.2,92.4 117.2,92.4 118.2,92.4 119.2,92.4 120.3,92.4 121.3,92.4 122.3,92.4 123.3,92.4 124.3,92.4 125.3,92.4 126.3,92.4 127.3,92.4 128.3,92.4 129.3,92.4 130.3,92.4 131.3,92.4 132.3,92.4 133.3,92.4 134.3,92.4 135.3,92.4 136.3,92.4 137.4,92.4 138.4,92.4 139.4,92.4 140.4,92.4 141.4,92.4 142.4,92.4 143.4,92.4 144.4,92.4 145.4,92.4 146.4,92.4 147.4,92.4 148.4,92.4 149.4,92.4 150.4,92.4 151.4,92.4 152.4,92.4 153.4,92.4 154.5,92.4 155.5,92.4 156.5,92.4 157.5,92.4 158.5,92.4 159.5,92.4 160.5,92.4 161.5,92.4 162.5,92.4 163.5,92.4 164.5,92.4 165.5,92.4 166.5,92.4 167.5,92.4 168.5,92.4 169.5,92.4 170.5,92.4 171.5,92.4 172.6,92.4 173.6,92.4 174.6,92.4 175.6,92.4 176.6,92.4 177.6,92.4 178.6,92.4 179.6,92.4 180.6,92.4 181.6,92.4 182.6,92.4 183.6,92.4 184.6,92.4 185.6,92.4 186.6,92.4 187.6,92.4 188.6,92.4 189.7,92.4 190.7,92.4 191.7,92.4 192.7,92.4 193.7,92.4 194.7,92.4 195.7,92.4 196.7,92.4 197.7,92.4 198.7,92.4 199.7,92.4 200.7,92.4 201.7,92.4 202.7,92.4 203.7,92.4 204.7,92.4 205.7,92.4 206.8,92.4 207.8,92.4 208.8,92.4 209.8,92.4 210.8,92.4 211.8,92.4 212.8,92.4 213.8,92.4 214.8,92.4 215.8,92.4 216.8,92.4 217.8,92.4 218.8,92.4 219.8,92.4 220.8,92.4 221.8,92.4 222.8,92.4 223.8,92.4 224.9,92.4 225.9,92.4 226.9,92.4 227.9,92.4 228.9,92.4 229.9,92.4 230.9,92.4 231.9,92.4 232.9,92.4 233.9,92.4 234.9,92.4 235.9,92.4 236.9,92.4 237.9,92.4 238.9,92.4 239.9,92.4 240.9,92.4 242.0,92.4 243.0,92.4 244.0,92.4 245.0,92.4 246.0,92.4 247.0,92.4 248.0,92.4 249.0,92.4 250.0,92.4 251.0,92.4 252.0,92.4 253.0,92.4 254.0,92.4 255.0,92.4 256.0,92.4 257.0,92.4 258.0,92.4 259.1,92.4 260.1,92.4 261.1,92.4 262.1,92.4 263.1,92.4 264.1,92.4 265.1,92.4 266.1,92.4 267.1,92.4 268.1,92.4 269.1,92.4 270.1,92.4 271.1,92.4 272.1,92.4 273.1,92.4 274.1,92.4 275.1,92.4 276.2,92.4 277.2,92.4 278.2,92.4 279.2,92.4 280.2,92.4 281.2,92.4 282.2,92.4 283.2,92.4 284.2,92.4 285.2,92.4 286.2,92.4 287.2,92.4 288.2,92.4 289.2,92.4 290.2,92.4 291.2,92.4 292.2,92.4 293.2,92.4 294.3,92.4 295.3,92.4 296.3,92.4 297.3,92.4 298.3,92.4 299.3,92.4 300.3,92.4 301.3,92.4 302.3,92.4 303.3,92.4 304.3,92.4 305.3,92.4 306.3,92.4 307.3,92.4 308.3,92.4 309.3,92.4 310.3,92.4 311.4,92.4 312.4,92.4 313.4,92.4 314.4,92.4 315.4,92.4 316.4,92.4 317.4,92.4 318.4,92.4 319.4,92.4 320.4,92.4 321.4,92.4 322.4,92.4 323.4,92.4 324.4,92.4 325.4,92.4 326.4,92.4 327.4,92.4 328.5,92.4 329.5,92.4 330.5,92.4 331.5,92.4 332.5,92.4 333.5,92.4 334.5,92.4 335.5,92.4 336.5,92.4 337.5,92.4 338.5,92.4 339.5,92.4 340.5,92.4 341.5,92.4 342.5,92.4 343.5,92.4 344.5,92.4 345.5,92.4 346.6,92.4 347.6,92.4 348.6,92.4 349.6,92.4 350.6,92.4 351.6,92.4 352.6,92.4 353.6,92.4 354.6,92.4 355.6,92.4 356.6,92.4 357.6,92.4 358.6,92.4 359.6,92.4 360.6,92.4 361.6,92.4 362.6,92.4 363.7,92.4 364.7,92.4 365.7,92.4 366.7,92.4 367.7,92.4 368.7,92.4 369.7,92.4 370.7,92.4 371.7,92.4 372.7,92.4 373.7,92.4 374.7,92.4 375.7,92.4 376.7,92.4 377.7,92.4 378.7,92.4 379.7,92.4 380.8,92.4 381.8,92.4 382.8,92.4 383.8,92.4 384.8,92.4 385.8,92.4 386.8,92.4 387.8,92.4 388.8,92.4 389.8,92.4 390.8,92.4 391.8,92.4 392.8,92.4 393.8,92.4 394.8,92.4 395.8,92.4 396.8,92.4 397.8,92.4 398.9,92.4 399.9,92.4 400.9,92.4 401.9,92.4 402.9,92.4 403.9,92.4 404.9,92.4 405.9,92.4 406.9,92.4 407.9,92.4 408.9,92.4 409.9,92.4 410.9,92.4 411.9,92.4 412.9,92.4 413.9,92.4 414.9,92.4 416.0,92.4 417.0,92.4 418.0,92.4 419.0,92.4 420.0,92.4 421.0,92.4 422.0,92.4 423.0,92.4 424.0,92.4 425.0,92.4 426.0,92.4 427.0,92.4 428.0,92.4 429.0,92.4 430.0,92.4 431.0,92.4 432.0,92.4 433.1,92.4 434.1,92.4 435.1,92.4 436.1,92.4 437.1,92.4 438.1,92.4 439.1,92.4 440.1,92.4 441.1,92.4 442.1,92.4 443.1,92.4 444.1,92.4 445.1,92.4 446.1,92.4 447.1,92.4 448.1,92.4 449.1,92.4 450.2,92.4 451.2,92.4 452.2,92.4 453.2,92.4 454.2,92.4 455.2,92.4 456.2,92.4 457.2,92.4 458.2,92.4 459.2,92.4 460.2,92.4 461.2,92.4 462.2,92.4 463.2,92.4 464.2,92.4 465.2,92.4 466.2,92.4 467.2,92.4 468.3,92.4 469.3,92.4 470.3,92.4 471.3,92.4 472.3,92.4 473.3,92.4 474.3,92.4 475.3,92.4 476.3,92.4 477.3,92.4 478.3,92.4 479.3,92.4 480.3,92.4 481.3,92.4 482.3,92.4 483.3,92.4 484.3,92.4 485.4,92.4 486.4,92.4 487.4,92.4 488.4,92.4 489.4,92.4 490.4,92.4 491.4,92.4 492.4,92.4 493.4,92.4 494.4,92.4 495.4,92.4 496.4,92.4 497.4,92.4 498.4,92.4 499.4,92.4 500.4,92.4 501.4,92.4 502.5,92.4 503.5,92.4 504.5,92.4 505.5,92.4 506.5,92.4 507.5,92.4 508.5,92.4 509.5,92.4 510.5,92.4 511.5,92.4 512.5,92.4 513.5,92.4 514.5,92.4 515.5,92.4 516.5,92.4 517.5,92.4 518.5,92.4 519.5,92.4 520.6,92.4 521.6,92.4 522.6,92.4 523.6,92.4 524.6,92.4 525.6,92.4 526.6,92.4 527.6,92.4 528.6,92.4 529.6,92.4 530.6,92.4 531.6,92.4 532.6,92.4 533.6,92.4 534.6,92.4 535.6,92.4 536.6,92.4 537.7,92.4 538.7,92.4 539.7,92.4 540.7,92.4 541.7,92.4 542.7,92.4 543.7,92.4 544.7,92.4 545.7,92.4 546.7,92.4 547.7,92.4 548.7,92.4 549.7,92.4 550.7,92.4 551.7,92.4 552.7,92.4 553.7,92.4 554.8,92.4 555.8,92.4 556.8,92.4 557.8,92.4 558.8,92.4 559.8,92.4 560.8,92.4 561.8,92.4 562.8,92.4 563.8,92.4 564.8,92.4 565.8,92.4 566.8,92.4 567.8,92.4 568.8,92.4 569.8,92.4 570.8,92.4 571.8,92.4 572.9,92.4 573.9,92.4 574.9,92.4 575.9,92.4 576.9,92.4 577.9,92.4 578.9,92.4 579.9,92.4 580.9,92.4 581.9,92.4 582.9,92.4 583.9,92.4 584.9,92.4 585.9,92.4 586.9,92.4 587.9,92.4 588.9,92.4 590.0,92.4 591.0,92.4 592.0,92.4 593.0,92.4 594.0,92.4 595.0,92.4 596.0,92.4 597.0,92.4 598.0,92.4 599.0,92.4 600.0,92.4 601.0,92.4 602.0,92.4 603.0,92.4 604.0,92.4 605.0,92.4 606.0,92.4 607.1,92.4 608.1,92.4 609.1,92.4 610.1,92.4 611.1,92.4 612.1,92.4 613.1,92.4 614.1,92.4 615.1,92.4 616.1,92.4 617.1,92.4 618.1,92.4 619.1,92.4 620.1,92.4 621.1,92.4 622.1,92.4 623.1,92.4 624.2,92.4 625.2,92.4 626.2,92.4 627.2,92.4 628.2,92.4 629.2,92.4 630.2,92.4 631.2,92.4 632.2,92.4 633.2,92.4 634.2,92.4 635.2,92.4 636.2,92.4 637.2,92.4 638.2,92.4 639.2,92.4 640.2,92.4 641.2,92.4 642.3,92.4 643.3,92.4 644.3,92.4 645.3,92.4 646.3,92.4 647.3,92.4 648.3,92.4 649.3,92.4 650.3,92.4 651.3,92.4 652.3,92.4 653.3,92.4 654.3,92.4 655.3,92.4 656.3,92.4 657.3,92.4 658.3,92.4 659.4,92.4 660.4,92.4 661.4,92.4 662.4,92.4 663.4,92.4 664.4,92.4 665.4,92.4 666.4,92.4 667.4,92.4 668.4,92.4 669.4,92.4 670.4,92.4 671.4,92.4 672.4,92.4 673.4,92.4 674.4,92.4 675.4,92.4 676.5,92.4 677.5,92.4 678.5,92.4 679.5,92.4 680.5,92.4 681.5,92.4 682.5,92.4 683.5,92.4 684.5,92.4 685.5,92.4 686.5,92.4 687.5,92.4 688.5,92.4 689.5,92.4 690.5,92.4 691.5,92.4 692.5,92.4 693.5,92.4 694.6,92.4 695.6,92.4 696.6,92.4 697.6,92.4 698.6,92.4 699.6,92.4 700.6,92.4 701.6,92.4 702.6,92.4 703.6,92.4 704.6,92.4 705.6,92.4 706.6,92.4 707.6,92.4 708.6,92.4 709.6,92.4 710.6,92.4 711.7,92.4 712.7,92.4 713.7,92.4 714.7,92.4 715.7,92.4 716.7,92.4 717.7,92.4 718.7,92.4 719.7,92.4 720.7,92.4 721.7,92.4 722.7,92.4 723.7,92.4 724.7,92.4 725.7,92.4 726.7,92.4 727.7,92.4 728.8,92.4 729.8,92.4 730.8,92.4 731.8,92.4 732.8,92.4 733.8,92.4 734.8,92.4 735.8,92.4 736.8,92.4 737.8,92.4 738.8,92.4 739.8,92.4 740.8,92.4 741.8,92.4 742.8,92.4 743.8,92.4 744.8,92.4 745.8,92.4 746.9,92.4 747.9,92.4 748.9,92.4 749.9,92.4 750.9,92.4 751.9,92.4 752.9,92.4 753.9,92.4 754.9,92.4 755.9,92.4 756.9,92.4 757.9,92.4 758.9,92.4 759.9,318.0 760.9,318.0 761.9,318.0 762.9,318.0 764.0,318.0 765.0,318.0 766.0,318.0 767.0,318.0 768.0,318.0 769.0,318.0 770.0,318.0 771.0,318.0 772.0,318.0 773.0,318.0 774.0,318.0 775.0,318.0 776.0,318.0 777.0,318.0 778.0,318.0 779.0,318.0 780.0,318.0 781.1,318.0 782.1,318.0 783.1,318.0 784.1,318.0 785.1,318.0 786.1,318.0 787.1,318.0 788.1,318.0 789.1,318.0 790.1,318.0 791.1,318.0 792.1,318.0 793.1,318.0 794.1,318.0 795.1,318.0 796.1,318.0 797.1,318.0 798.2,318.0 799.2,318.0 800.2,318.0 801.2,318.0 802.2,318.0 803.2,318.0 804.2,318.0 805.2,318.0 806.2,318.0 807.2,318.0 808.2,318.0 809.2,318.0 810.2,318.0 811.2,318.0 812.2,318.0 813.2,318.0 814.2,318.0 815.2,318.0 816.3,318.0 817.3,318.0 818.3,318.0 819.3,318.0 820.3,318.0 821.3,318.0 822.3,318.0 823.3,318.0 824.3,318.0 825.3,318.0 826.3,318.0 827.3,318.0 828.3,318.0 829.3,318.0 830.3,318.0 831.3,207.0 832.3,318.0 833.4,318.0 834.4,318.0 835.4,318.0 836.4,318.0 837.4,263.4 838.4,318.0 839.4,318.0 840.4,263.5 841.4,318.0 842.4,318.0 843.4,318.0 844.4,318.0 845.4,318.0 846.4,318.0 847.4,318.0 848.4,262.2 849.4,263.5 850.5,318.0 851.5,318.0 852.5,318.0 853.5,318.0 854.5,264.6 855.5,318.0 856.5,318.0 857.5,318.0 858.5,318.0 859.5,261.9 860.5,318.0 861.5,318.0 862.5,318.0 863.5,263.1 864.5,318.0 865.5,318.0 866.5,318.0 867.5,318.0 868.6,318.0 869.6,318.0 870.6,318.0 871.6,318.0 872.6,207.5 873.6,318.0 874.6,318.0 875.6,318.0 876.6,262.4 877.6,318.0 878.6,318.0 879.6,318.0 880.6,262.8 881.6,318.0 882.6,318.0 883.6,318.0 884.6,263.0 885.7,318.0 886.7,318.0 887.7,262.3 888.7,318.0 889.7,318.0 890.7,318.0 891.7,318.0 892.7,318.0 893.7,318.0 894.7,318.0 895.7,261.9 896.7,261.7 897.7,318.0 898.7,318.0 899.7,264.0 900.7,318.0 901.7,318.0 902.8,318.0 903.8,261.7 904.8,318.0 905.8,318.0 906.8,262.1 907.8,318.0 908.8,318.0 909.8,261.7 910.8,318.0 911.8,263.0 912.8,318.0 913.8,318.0 914.8,318.0 915.8,318.0 916.8,318.0 917.8,318.0 918.8,318.0 919.8,318.0 920.9,207.1 921.9,318.0 922.9,318.0 923.9,318.0 924.9,262.6 925.9,318.0 926.9,318.0 927.9,318.0 928.9,264.5 929.9,318.0 930.9,263.4 931.9,318.0 932.9,318.0 933.9,262.3 934.9,318.0 935.9,261.7 936.9,318.0 938.0,318.0 939.0,318.0 940.0,318.0 941.0,318.0 942.0,318.0 943.0,318.0 944.0,318.0 945.0,318.0 946.0,318.0" fill="none" stroke="#2563eb" stroke-width="2.2" stroke-linejoin="round" stroke-linecap="round"/>
<polyline points="76.0,262.8 77.0,258.8 78.0,249.5 79.0,247.2 80.0,250.9 81.0,240.3 82.0,239.7 83.0,243.5 84.0,248.5 85.1,248.0 86.1,264.6 87.1,246.1 88.1,245.2 89.1,246.9 90.1,251.1 91.1,259.3 92.1,256.5 93.1,254.2 94.1,251.6 95.1,256.6 96.1,261.5 97.1,257.5 98.1,255.6 99.1,255.2 100.1,249.2 101.1,247.7 102.2,249.7 103.2,241.1 104.2,232.5 105.2,241.2 106.2,243.5 107.2,257.3 108.2,251.0 109.2,250.7 110.2,255.2 111.2,250.5 112.2,247.4 113.2,253.4 114.2,247.1 115.2,247.0 116.2,244.7 117.2,261.9 118.2,258.2 119.2,254.2 120.3,219.8 121.3,222.3 122.3,255.3 123.3,251.2 124.3,237.3 125.3,219.3 126.3,239.9 127.3,251.2 128.3,243.9 129.3,242.1 130.3,243.9 131.3,246.7 132.3,244.4 133.3,250.0 134.3,241.3 135.3,247.0 136.3,238.8 137.4,245.4 138.4,243.9 139.4,285.1 140.4,270.0 141.4,262.3 142.4,270.1 143.4,267.0 144.4,238.5 145.4,233.8 146.4,243.4 147.4,259.9 148.4,272.4 149.4,246.0 150.4,245.5 151.4,248.1 152.4,261.0 153.4,250.4 154.5,259.1 155.5,245.9 156.5,240.5 157.5,253.9 158.5,249.9 159.5,254.6 160.5,255.7 161.5,254.0 162.5,261.9 163.5,251.4 164.5,251.4 165.5,253.7 166.5,250.0 167.5,268.3 168.5,231.5 169.5,255.8 170.5,251.1 171.5,218.2 172.6,256.5 173.6,245.2 174.6,247.9 175.6,226.9 176.6,246.1 177.6,248.3 178.6,241.0 179.6,249.4 180.6,243.6 181.6,250.1 182.6,244.3 183.6,242.8 184.6,242.6 185.6,248.1 186.6,245.4 187.6,251.8 188.6,237.9 189.7,251.4 190.7,252.6 191.7,250.9 192.7,220.0 193.7,203.6 194.7,214.7 195.7,215.7 196.7,215.3 197.7,224.9 198.7,220.4 199.7,216.0 200.7,243.5 201.7,246.4 202.7,241.9 203.7,243.2 204.7,242.2 205.7,241.7 206.8,242.6 207.8,244.6 208.8,243.4 209.8,245.1 210.8,249.7 211.8,245.1 212.8,258.2 213.8,257.8 214.8,248.2 215.8,263.2 216.8,290.3 217.8,254.2 218.8,268.2 219.8,255.6 220.8,253.3 221.8,253.6 222.8,250.8 223.8,251.8 224.9,245.2 225.9,251.1 226.9,244.3 227.9,242.4 228.9,240.7 229.9,242.6 230.9,251.4 231.9,264.1 232.9,247.2 233.9,252.2 234.9,250.9 235.9,253.1 236.9,253.4 237.9,258.6 238.9,260.8 239.9,259.1 240.9,292.1 242.0,255.7 243.0,270.2 244.0,236.2 245.0,252.1 246.0,245.1 247.0,249.0 248.0,240.5 249.0,242.6 250.0,248.7 251.0,243.1 252.0,236.6 253.0,245.7 254.0,247.5 255.0,241.4 256.0,245.2 257.0,245.0 258.0,246.8 259.1,247.8 260.1,251.7 261.1,253.2 262.1,259.1 263.1,263.5 264.1,252.2 265.1,285.5 266.1,251.7 267.1,255.1 268.1,250.6 269.1,249.8 270.1,242.9 271.1,242.4 272.1,242.2 273.1,241.0 274.1,247.3 275.1,248.1 276.2,258.9 277.2,257.3 278.2,253.8 279.2,250.1 280.2,255.8 281.2,247.6 282.2,253.5 283.2,245.9 284.2,253.4 285.2,258.1 286.2,261.3 287.2,258.9 288.2,266.2 289.2,297.6 290.2,260.0 291.2,260.3 292.2,258.6 293.2,257.8 294.3,249.6 295.3,247.9 296.3,245.9 297.3,252.3 298.3,248.8 299.3,245.4 300.3,245.5 301.3,241.2 302.3,248.2 303.3,240.3 304.3,241.3 305.3,240.9 306.3,255.8 307.3,255.5 308.3,254.2 309.3,259.3 310.3,273.3 311.4,257.9 312.4,260.5 313.4,258.2 314.4,252.3 315.4,232.0 316.4,219.6 317.4,257.6 318.4,245.0 319.4,228.2 320.4,224.5 321.4,224.1 322.4,223.8 323.4,222.7 324.4,239.3 325.4,231.7 326.4,235.3 327.4,236.0 328.5,245.7 329.5,256.8 330.5,266.4 331.5,245.2 332.5,283.8 333.5,250.1 334.5,265.2 335.5,256.9 336.5,258.4 337.5,265.9 338.5,249.6 339.5,209.8 340.5,220.6 341.5,223.0 342.5,225.7 343.5,215.1 344.5,227.4 345.5,222.0 346.6,209.0 347.6,242.0 348.6,239.8 349.6,248.9 350.6,251.4 351.6,247.5 352.6,243.7 353.6,252.6 354.6,250.3 355.6,248.7 356.6,267.5 357.6,252.2 358.6,247.7 359.6,258.9 360.6,227.2 361.6,211.3 362.6,216.8 363.7,255.8 364.7,251.6 365.7,245.4 366.7,270.3 367.7,239.4 368.7,244.7 369.7,243.3 370.7,250.8 371.7,232.4 372.7,242.8 373.7,244.7 374.7,265.4 375.7,239.2 376.7,244.6 377.7,242.8 378.7,247.8 379.7,246.7 380.8,263.6 381.8,250.8 382.8,258.2 383.8,254.7 384.8,251.7 385.8,265.0 386.8,252.6 387.8,259.2 388.8,263.9 389.8,253.9 390.8,230.0 391.8,224.2 392.8,257.9 393.8,245.8 394.8,252.8 395.8,255.5 396.8,248.1 397.8,251.2 398.9,250.1 399.9,248.5 400.9,245.4 401.9,265.0 402.9,263.0 403.9,258.3 404.9,262.4 405.9,259.0 406.9,283.8 407.9,276.5 408.9,273.1 409.9,276.5 410.9,282.7 411.9,282.5 412.9,277.7 413.9,281.6 414.9,283.5 416.0,278.5 417.0,276.0 418.0,265.8 419.0,251.2 420.0,259.6 421.0,273.4 422.0,261.0 423.0,263.4 424.0,257.8 425.0,265.6 426.0,262.2 427.0,262.1 428.0,262.1 429.0,254.3 430.0,262.8 431.0,257.4 432.0,261.5 433.1,249.6 434.1,254.9 435.1,260.6 436.1,262.8 437.1,263.7 438.1,259.3 439.1,258.4 440.1,252.3 441.1,251.5 442.1,254.4 443.1,233.7 444.1,246.8 445.1,259.0 446.1,247.4 447.1,244.3 448.1,249.6 449.1,251.4 450.2,253.2 451.2,252.7 452.2,254.5 453.2,255.1 454.2,251.1 455.2,261.9 456.2,260.5 457.2,265.7 458.2,260.3 459.2,265.4 460.2,257.3 461.2,253.9 462.2,261.6 463.2,244.2 464.2,253.1 465.2,245.6 466.2,249.2 467.2,235.1 468.3,243.1 469.3,248.1 470.3,255.7 471.3,236.3 472.3,251.0 473.3,236.7 474.3,242.5 475.3,247.8 476.3,246.2 477.3,246.8 478.3,245.6 479.3,253.2 480.3,266.1 481.3,257.9 482.3,214.6 483.3,221.0 484.3,217.1 485.4,231.6 486.4,220.8 487.4,221.3 488.4,229.0 489.4,250.2 490.4,248.0 491.4,234.3 492.4,246.0 493.4,245.0 494.4,252.9 495.4,245.9 496.4,247.4 497.4,248.3 498.4,247.7 499.4,239.1 500.4,240.8 501.4,252.0 502.5,252.9 503.5,252.0 504.5,259.5 505.5,248.6 506.5,255.6 507.5,255.6 508.5,256.2 509.5,252.6 510.5,250.4 511.5,247.5 512.5,235.3 513.5,257.7 514.5,239.4 515.5,217.5 516.5,244.7 517.5,243.3 518.5,247.4 519.5,248.5 520.6,245.5 521.6,244.6 522.6,247.9 523.6,251.0 524.6,248.9 525.6,252.3 526.6,249.7 527.6,252.3 528.6,258.4 529.6,260.8 530.6,239.5 531.6,262.6 532.6,268.1 533.6,271.0 534.6,253.1 535.6,249.5 536.6,256.8 537.7,242.4 538.7,244.6 539.7,235.9 540.7,245.9 541.7,252.1 542.7,240.5 543.7,234.4 544.7,239.0 545.7,241.9 546.7,235.1 547.7,252.6 548.7,245.0 549.7,244.3 550.7,262.3 551.7,305.5 552.7,249.9 553.7,245.8 554.8,258.9 555.8,255.9 556.8,253.1 557.8,256.3 558.8,245.1 559.8,242.3 560.8,240.8 561.8,242.9 562.8,248.5 563.8,241.0 564.8,237.3 565.8,242.1 566.8,239.8 567.8,236.5 568.8,241.5 569.8,247.0 570.8,243.4 571.8,245.8 572.9,248.9 573.9,238.6 574.9,251.6 575.9,249.4 576.9,276.3 577.9,259.7 578.9,250.9 579.9,269.4 580.9,251.6 581.9,254.3 582.9,253.9 583.9,248.4 584.9,238.0 585.9,246.8 586.9,247.0 587.9,245.2 588.9,246.2 590.0,236.4 591.0,240.2 592.0,239.9 593.0,265.2 594.0,243.4 595.0,244.6 596.0,240.0 597.0,250.6 598.0,252.1 599.0,260.3 600.0,245.6 601.0,263.7 602.0,248.6 603.0,262.8 604.0,265.9 605.0,248.1 606.0,254.3 607.1,247.2 608.1,252.3 609.1,246.3 610.1,251.2 611.1,245.4 612.1,241.8 613.1,237.3 614.1,251.5 615.1,246.1 616.1,239.7 617.1,238.8 618.1,245.5 619.1,247.4 620.1,254.5 621.1,236.8 622.1,251.2 623.1,251.9 624.2,255.6 625.2,260.8 626.2,260.8 627.2,256.8 628.2,248.6 629.2,250.9 630.2,258.6 631.2,252.0 632.2,247.8 633.2,242.0 634.2,235.9 635.2,240.3 636.2,241.3 637.2,243.0 638.2,250.0 639.2,251.4 640.2,248.2 641.2,247.2 642.3,243.8 643.3,247.8 644.3,250.6 645.3,243.7 646.3,249.4 647.3,257.8 648.3,256.4 649.3,266.0 650.3,253.2 651.3,257.3 652.3,254.9 653.3,263.9 654.3,255.6 655.3,243.4 656.3,246.3 657.3,236.2 658.3,243.4 659.4,247.6 660.4,232.1 661.4,245.1 662.4,241.1 663.4,245.4 664.4,244.3 665.4,245.7 666.4,244.9 667.4,237.9 668.4,243.8 669.4,240.4 670.4,257.6 671.4,256.3 672.4,256.7 673.4,257.1 674.4,257.2 675.4,263.0 676.5,256.8 677.5,255.5 678.5,256.1 679.5,252.2 680.5,269.8 681.5,254.4 682.5,246.0 683.5,249.9 684.5,237.3 685.5,240.6 686.5,246.0 687.5,254.5 688.5,250.8 689.5,250.9 690.5,252.8 691.5,243.7 692.5,250.9 693.5,251.9 694.6,264.5 695.6,263.0 696.6,262.2 697.6,258.8 698.6,264.6 699.6,255.8 700.6,263.3 701.6,253.6 702.6,256.9 703.6,252.5 704.6,255.3 705.6,252.6 706.6,246.8 707.6,248.8 708.6,241.7 709.6,242.1 710.6,248.9 711.7,250.9 712.7,245.3 713.7,247.8 714.7,246.7 715.7,252.2 716.7,248.6 717.7,256.6 718.7,253.4 719.7,255.6 720.7,260.2 721.7,251.7 722.7,253.8 723.7,264.5 724.7,255.3 725.7,263.6 726.7,248.5 727.7,252.2 728.8,250.8 729.8,253.1 730.8,244.8 731.8,253.0 732.8,244.6 733.8,248.3 734.8,251.8 735.8,245.9 736.8,246.0 737.8,261.2 738.8,255.5 739.8,251.8 740.8,251.4 741.8,254.2 742.8,255.0 743.8,255.0 744.8,265.9 745.8,248.1 746.9,272.1 747.9,254.3 748.9,257.3 749.9,258.3 750.9,243.2 751.9,251.2 752.9,252.1 753.9,251.2 754.9,251.9 755.9,266.5 756.9,260.3 757.9,243.4 758.9,245.9 759.9,345.6 760.9,341.0 761.9,341.4 762.9,339.1 764.0,340.1 765.0,345.0 766.0,343.8 767.0,343.3 768.0,343.1 769.0,343.9 770.0,341.5 771.0,341.0 772.0,342.3 773.0,341.5 774.0,345.3 775.0,340.9 776.0,350.1 777.0,340.2 778.0,342.7 779.0,340.3 780.0,340.1 781.1,341.1 782.1,339.5 783.1,343.3 784.1,343.2 785.1,340.7 786.1,342.2 787.1,341.2 788.1,341.9 789.1,340.0 790.1,344.3 791.1,338.1 792.1,340.6 793.1,342.6 794.1,342.9 795.1,342.3 796.1,345.1 797.1,342.7 798.2,342.9 799.2,340.6 800.2,341.6 801.2,339.6 802.2,341.3 803.2,341.5 804.2,341.0 805.2,342.0 806.2,339.2 807.2,339.6 808.2,340.4 809.2,340.9 810.2,335.8 811.2,335.6 812.2,334.7 813.2,340.2 814.2,340.4 815.2,340.3 816.3,339.6 817.3,342.0 818.3,341.5 819.3,342.0 820.3,343.1 821.3,342.0 822.3,340.6 823.3,334.9 824.3,339.8 825.3,340.6 826.3,340.3 827.3,338.2 828.3,339.3 829.3,338.7 830.3,346.4 831.3,288.7 832.3,339.1 833.4,340.3 834.4,342.0 835.4,341.7 836.4,339.6 837.4,312.1 838.4,343.5 839.4,342.2 840.4,322.7 841.4,348.9 842.4,344.5 843.4,342.6 844.4,342.4 845.4,337.4 846.4,336.7 847.4,331.5 848.4,316.9 849.4,313.8 850.5,336.5 851.5,339.3 852.5,351.6 853.5,341.7 854.5,317.1 855.5,341.6 856.5,334.3 857.5,338.9 858.5,348.0 859.5,317.1 860.5,340.6 861.5,341.7 862.5,340.6 863.5,319.1 864.5,347.2 865.5,345.5 866.5,345.7 867.5,345.8 868.6,345.1 869.6,346.2 870.6,346.7 871.6,351.1 872.6,313.1 873.6,349.0 874.6,346.7 875.6,345.7 876.6,319.3 877.6,345.8 878.6,339.2 879.6,344.5 880.6,321.3 881.6,341.8 882.6,345.7 883.6,343.1 884.6,324.3 885.7,350.6 886.7,345.0 887.7,326.2 888.7,345.3 889.7,345.4 890.7,344.2 891.7,342.9 892.7,345.7 893.7,345.4 894.7,343.6 895.7,320.0 896.7,320.0 897.7,347.3 898.7,343.8 899.7,316.3 900.7,341.6 901.7,340.2 902.8,341.8 903.8,296.9 904.8,344.3 905.8,343.9 906.8,315.0 907.8,347.3 908.8,342.9 909.8,322.7 910.8,347.9 911.8,322.0 912.8,340.4 913.8,347.6 914.8,347.1 915.8,345.1 916.8,342.7 917.8,343.7 918.8,345.5 919.8,344.0 920.9,296.5 921.9,343.7 922.9,345.8 923.9,340.6 924.9,314.7 925.9,345.6 926.9,340.9 927.9,344.2 928.9,322.2 929.9,341.8 930.9,319.8 931.9,341.0 932.9,342.4 933.9,318.2 934.9,343.1 935.9,323.3 936.9,345.5 938.0,342.4 939.0,346.9 940.0,344.2 941.0,350.1 942.0,344.9 943.0,342.0 944.0,343.1 945.0,343.6 946.0,343.4" fill="none" stroke="#7c3aed" stroke-width="2.2" stroke-linejoin="round" stroke-linecap="round"/>
<line x1="76" y1="70" x2="94" y2="70" stroke="#2563eb" stroke-width="3"/>
<text x="100" y="74" font-family="Arial, sans-serif" font-size="11" fill="#0f172a">tx count</text>
<line x1="186" y1="70" x2="204" y2="70" stroke="#7c3aed" stroke-width="3"/>
<text x="210" y="74" font-family="Arial, sans-serif" font-size="11" fill="#0f172a">unique accounts</text>
<text x="28" y="404" font-family="Arial, sans-serif" font-size="11" fill="#64748b">Source: hourly_features.csv; capped windows are sample counts</text>
</svg>