<svg xmlns="http://www.w3.org/2000/svg" width="980" height="420" viewBox="0 0 980 420">
<rect width="100%" height="100%" fill="#ffffff"/>
<text x="28" y="34" font-family="Arial, sans-serif" font-size="20" font-weight="700" fill="#0f172a">Network activity sample trend</text>
<text x="28" y="56" font-family="Arial, sans-serif" font-size="12" fill="#64748b">Hourly transaction sample count and unique account sample count</text>
<line x1="76" y1="362.0" x2="946" y2="362.0" stroke="#e2e8f0" stroke-width="1"/>
<text x="68" y="366.0" font-family="Arial, sans-serif" font-size="10" text-anchor="end" fill="#64748b">220</text>
<line x1="76" y1="292.0" x2="946" y2="292.0" stroke="#e2e8f0" stroke-width="1"/>
<text x="68" y="296.0" font-family="Arial, sans-serif" font-size="10" text-anchor="end" fill="#64748b">1K</text>
<line x1="76" y1="222.0" x2="946" y2="222.0" stroke="#e2e8f0" stroke-width="1"/>
<text x="68" y="226.0" font-family="Arial, sans-serif" font-size="10" text-anchor="end" fill="#64748b">3K</text>
<line x1="76" y1="152.0" x2="946" y2="152.0" stroke="#e2e8f0" stroke-width="1"/>
<text x="68" y="156.0" font-family="Arial, sans-serif" font-size="10" text-anchor="end" fill="#64748b">4K</text>
<line x1="76" y1="82.0" x2="946" y2="82.0" stroke="#e2e8f0" stroke-width="1"/>
<text x="68" y="86.0" font-family="Arial, sans-serif" font-size="10" text-anchor="end" fill="#64748b">5K</text>
<line x1="76" y1="362" x2="946" y2="362" stroke="#334155" stroke-width="1"/>
<line x1="76" y1="82" x2="76" y2="362" stroke="#334155" stroke-width="1"/>
<text x="76" y="72" font-family="Arial, sans-serif" font-size="11" fill="#64748b">count</text>
<line x1="76.0" y1="362" x2="76.0" y2="366" stroke="#334155" stroke-width="1"/>
<text x="76.0" y="380" font-family="Arial, sans-serif" font-size="10" text-anchor="middle" fill="#64748b">0</text>
<line x1="511.5" y1="362" x2="511.5" y2="366" stroke="#334155" stroke-width="1"/>
<text x="511.5" y="380" font-family="Arial, sans-serif" font-size="10" text-anchor="middle" fill="#64748b">437</text>
<line x1="946.0" y1="362" x2="946.0" y2="366" stroke="#334155" stroke-width="1"/>
<text x="946.0" y="380" font-family="Arial, sans-serif" font-size="10" text-anchor="middle" fill="#64748b">873</text>
<polyline points="76.0,92.4 77.0,92.4 78.0,92.4 79.0,92.4 80.0,92.4 81.0,92.4 82.0,92.4 83.0,92.4 84.0,92.4 85.0,92.4 86.0,92.4 87.0,92.4 88.0,92.4 89.0,92.4 90.0,92.4 90.9,92.4 91.9,92.4 92.9,92.4 93.9,92.4 94.9,92.4 95.9,92.4 96.9,92.4 97.9,92.4 98.9,92.4 99.9,92.4 100.9,92.4 101.9,92.4 102.9,92.4 103.9,92.4 104.9,92.4 105.9,92.4 106.9,92.4 107.9,92.4 108.9,92.4 109.9,92.4 110.9,92.4 111.9,92.4 112.9,92.4 113.9,92.4 114.9,92.4 115.9,92.4 116.9,92.4 117.9,92.4 118.9,92.4 119.8,92.4 120.8,92.4 121.8,92.4 122.8,92.4 123.8,92.4 124.8,92.4 125.8,92.4 126.8,92.4 127.8,92.4 128.8,92.4 129.8,92.4 130.8,92.4 131.8,92.4 132.8,92.4 133.8,92.4 134.8,92.4 135.8,92.4 136.8,92.4 137.8,92.4 138.8,92.4 139.8,92.4 140.8,92.4 141.8,92.4 142.8,92.4 143.8,92.4 144.8,92.4 145.8,92.4 146.8,92.4 147.8,92.4 148.7,92.4 149.7,92.4 150.7,92.4 151.7,92.4 152.7,92.4 153.7,92.4 154.7,92.4 155.7,92.4 156.7,92.4 157.7,92.4 158.7,92.4 159.7,92.4 160.7,92.4 161.7,92.4 162.7,92.4 163.7,92.4 164.7,92.4 165.7,92.4 166.7,92.4 167.7,92.4 168.7,92.4 169.7,92.4 170.7,92.4 171.7,92.4 172.7,92.4 173.7,92.4 174.7,92.4 175.7,92.4 176.7,92.4 177.6,92.4 178.6,92.4 179.6,92.4 180.6,92.4 181.6,92.4 182.6,92.4 183.6,92.4 184.6,92.4 185.6,92.4 186.6,92.4 187.6,92.4 188.6,92.4 189.6,92.4 190.6,92.4 191.6,92.4 192.6,92.4 193.6,92.4 194.6,92.4 195.6,92.4 196.6,92.4 197.6,92.4 198.6,92.4 199.6,92.4 200.6,92.4 201.6,92.4 202.6,92.4 203.6,92.4 204.6,92.4 205.6,92.4 206.5,92.4 207.5,92.4 208.5,92.4 209.5,92.4 210.5,92.4 211.5,92.4 212.5,92.4 213.5,92.4 214.5,92.4 215.5,92.4 216.5,92.4 217.5,92.4 218.5,92.4 219.5,92.4 220.5,92.4 221.5,92.4 222.5,92.4 223.5,92.4 224.5,92.4 225.5,92.4 226.5,92.4 227.5,92.4 228.5,92.4 229.5,92.4 230.5,92.4 231.5,92.4 232.5,92.4 233.5,92.4 234.5,92.4 235.5,92.4 236.4,92.4 237.4,92.4 238.4,92.4 239.4,92.4 240.4,92.4 241.4,92.4 242.4,92.4 243.4,92.4 244.4,92.4 245.4,92.4 246.4,92.4 247.4,92.4 248.4,92.4 249.4,92.4 250.4,92.4 251.4,92.4 252.4,92.4 253.4,92.4 254.4,92.4 255.4,92.4 256.4,92.4 257.4,92.4 258.4,92.4 259.4,92.4 260.4,92.4 261.4,92.4 262.4,92.4 263.4,92.4 264.4,92.4 265.3,92.4 266.3,92.4 267.3,92.4 268.3,92.4 269.3,92.4 270.3,92.4 271.3,92.4 272.3,92.4 273.3,92.4 274.3,92.4 275.3,92.4 276.3,92.4 277.3,92.4 278.3,92.4 279.3,92.4 280.3,92.4 281.3,92.4 282.3,92.4 283.3,92.4 284.3,92.4 285.3,92.4 286.3,92.4 287.3,92.4 288.3,92.4 289.3,92.4 290.3,92.4 291.3,92.4 292.3,92.4 293.3,92.4 294.2,92.4 295.2,92.4 296.2,92.4 297.2,92.4 298.2,92.4 299.2,92.4 300.2,92.4 301.2,92.4 302.2,92.4 303.2,92.4 304.2,92.4 305.2,92.4 306.2,92.4 307.2,92.4 308.2,92.4 309.2,92.4 310.2,92.4 311.2,92.4 312.2,92.4 313.2,92.4 314.2,92.4 315.2,92.4 316.2,92.4 317.2,92.4 318.2,92.4 319.2,92.4 320.2,92.4 321.2,92.4 322.2,92.4 323.1,92.4 324.1,92.4 325.1,92.4 326.1,92.4 327.1,92.4 328.1,92.4 329.1,92.4 330.1,92.4 331.1,92.4 332.1,92.4 333.1,92.4 334.1,92.4 335.1,92.4 336.1,92.4 337.1,92.4 338.1,92.4 339.1,92.4 340.1,92.4 341.1,92.4 342.1,92.4 343.1,92.4 344.1,92.4 345.1,92.4 346.1,92.4 347.1,92.4 348.1,92.4 349.1,92.4 350.1,92.4 351.1,92.4 352.0,92.4 353.0,92.4 354.0,92.4 355.0,92.4 356.0,92.4 357.0,92.4 358.0,92.4 359.0,92.4 360.0,92.4 361.0,92.4 362.0,92.4 363.0,92.4 364.0,92.4 365.0,92.4 366.0,92.4 367.0,92.4 368.0,92.4 369.0,92.4 370.0,92.4 371.0,92.4 372.0,92.4 373.0,92.4 374.0,92.4 375.0,92.4 376.0,92.4 377.0,92.4 378.0,92.4 379.0,92.4 380.0,92.4 380.9,92.4 381.9,92.4 382.9,92.4 383.9,92.4 384.9,92.4 385.9,92.4 386.9,92.4 387.9,92.4 388.9,92.4 389.9,92.4 390.9,92.4 391.9,92.4 392.9,92.4 393.9,92.4 394.9,92.4 395.9,92.4 396.9,92.4 397.9,92.4 398.9,92.4 399.9,92.4 400.9,92.4 401.9,92.4 402.9,92.4 403.9,92.4 404.9,92.4 405.9,92.4 406.9,92.4 407.9,92.4 408.9,92.4 409.8,92.4 410.8,92.4 411.8,92.4 412.8,92.4 413.8,92.4 414.8,92.4 415.8,92.4 416.8,92.4 417.8,92.4 418.8,92.4 419.8,92.4 420.8,92.4 421.8,92.4 422.8,92.4 423.8,92.4 424.8,92.4 425.8,92.4 426.8,92.4 427.8,92.4 428.8,92.4 429.8,92.4 430.8,92.4 431.8,92.4 432.8,92.4 433.8,92.4 434.8,92.4 435.8,92.4 436.8,92.4 437.8,92.4 438.7,92.4 439.7,92.4 440.7,92.4 441.7,92.4 442.7,92.4 443.7,92.4 444.7,92.4 445.7,92.4 446.7,92.4 447.7,92.4 448.7,92.4 449.7,92.4 450.7,92.4 451.7,92.4 452.7,92.4 453.7,92.4 454.7,92.4 455.7,92.4 456.7,92.4 457.7,92.4 458.7,92.4 459.7,92.4 460.7,92.4 461.7,92.4 462.7,92.4 463.7,92.4 464.7,92.4 465.7,92.4 466.7,92.4 467.6,92.4 468.6,92.4 469.6,92.4 470.6,92.4 471.6,92.4 472.6,92.4 473.6,92.4 474.6,92.4 475.6,92.4 476.6,92.4 477.6,92.4 478.6,92.4 479.6,92.4 480.6,92.4 481.6,92.4 482.6,92.4 483.6,92.4 484.6,92.4 485.6,92.4 486.6,92.4 487.6,92.4 488.6,92.4 489.6,92.4 490.6,92.4 491.6,92.4 492.6,92.4 493.6,92.4 494.6,92.4 495.6,92.4 496.5,92.4 497.5,92.4 498.5,92.4 499.5,92.4 500.5,92.4 501.5,92.4 502.5,92.4 503.5,92.4 504.5,92.4 505.5,92.4 506.5,92.4 507.5,92.4 508.5,92.4 509.5,92.4 510.5,92.4 511.5,92.4 512.5,92.4 513.5,92.4 514.5,92.4 515.5,92.4 516.5,92.4 517.5,92.4 518.5,92.4 519.5,92.4 520.5,92.4 521.5,92.4 522.5,92.4 523.5,92.4 524.5,92.4 525.5,92.4 526.4,92.4 527.4,92.4 528.4,92.4 529.4,92.4 530.4,92.4 531.4,92.4 532.4,92.4 533.4,92.4 534.4,92.4 535.4,92.4 536.4,92.4 537.4,92.4 538.4,92.4 539.4,92.4 540.4,92.4 541.4,92.4 542.4,92.4 543.4,92.4 544.4,92.4 545.4,92.4 546.4,92.4 547.4,92.4 548.4,92.4 549.4,92.4 550.4,92.4 551.4,92.4 552.4,92.4 553.4,92.4 554.4,92.4 555.3,92.4 556.3,92.4 557.3,92.4 558.3,92.4 559.3,92.4 560.3,92.4 561.3,92.4 562.3,92.4 563.3,92.4 564.3,92.4 565.3,92.4 566.3,92.4 567.3,92.4 568.3,92.4 569.3,92.4 570.3,92.4 571.3,92.4 572.3,92.4 573.3,92.4 574.3,92.4 575.3,92.4 576.3,92.4 577.3,92.4 578.3,92.4 579.3,92.4 580.3,92.4 581.3,92.4 582.3,92.4 583.3,92.4 584.2,92.4 585.2,92.4 586.2,92.4 587.2,92.4 588.2,92.4 589.2,92.4 590.2,92.4 591.2,92.4 592.2,92.4 593.2,92.4 594.2,92.4 595.2,92.4 596.2,92.4 597.2,92.4 598.2,92.4 599.2,92.4 600.2,92.4 601.2,92.4 602.2,92.4 603.2,92.4 604.2,92.4 605.2,92.4 606.2,92.4 607.2,92.4 608.2,92.4 609.2,92.4 610.2,92.4 611.2,92.4 612.2,92.4 613.1,92.4 614.1,92.4 615.1,92.4 616.1,92.4 617.1,92.4 618.1,92.4 619.1,92.4 620.1,92.4 621.1,92.4 622.1,92.4 623.1,92.4 624.1,92.4 625.1,92.4 626.1,92.4 627.1,92.4 628.1,92.4 629.1,92.4 630.1,92.4 631.1,92.4 632.1,92.4 633.1,92.4 634.1,92.4 635.1,92.4 636.1,92.4 637.1,92.4 638.1,92.4 639.1,92.4 640.1,92.4 641.1,92.4 642.0,92.4 643.0,92.4 644.0,92.4 645.0,92.4 646.0,92.4 647.0,92.4 648.0,92.4 649.0,92.4 650.0,92.4 651.0,92.4 652.0,92.4 653.0,92.4 654.0,92.4 655.0,92.4 656.0,92.4 657.0,92.4 658.0,92.4 659.0,92.4 660.0,92.4 661.0,92.4 662.0,92.4 663.0,92.4 664.0,92.4 665.0,92.4 666.0,92.4 667.0,92.4 668.0,92.4 669.0,92.4 670.0,92.4 670.9,92.4 671.9,92.4 672.9,92.4 673.9,92.4 674.9,92.4 675.9,92.4 676.9,92.4 677.9,92.4 678.9,92.4 679.9,92.4 680.9,92.4 681.9,92.4 682.9,92.4 683.9,92.4 684.9,92.4 685.9,92.4 686.9,92.4 687.9,92.4 688.9,92.4 689.9,92.4 690.9,92.4 691.9,92.4 692.9,92.4 693.9,92.4 694.9,92.4 695.9,92.4 696.9,92.4 697.9,92.4 698.9,92.4 699.8,92.4 700.8,92.4 701.8,92.4 702.8,92.4 703.8,92.4 704.8,92.4 705.8,92.4 706.8,92.4 707.8,92.4 708.8,92.4 709.8,92.4 710.8,92.4 711.8,92.4 712.8,92.4 713.8,92.4 714.8,92.4 715.8,92.4 716.8,92.4 717.8,92.4 718.8,92.4 719.8,92.4 720.8,92.4 721.8,92.4 722.8,92.4 723.8,92.4 724.8,92.4 725.8,92.4 726.8,92.4 727.8,92.4 728.7,92.4 729.7,92.4 730.7,92.4 731.7,92.4 732.7,92.4 733.7,92.4 734.7,92.4 735.7,92.4 736.7,92.4 737.7,92.4 738.7,92.4 739.7,92.4 740.7,92.4 741.7,92.4 742.7,92.4 743.7,92.4 744.7,92.4 745.7,92.4 746.7,92.4 747.7,92.4 748.7,92.4 749.7,92.4 750.7,92.4 751.7,92.4 752.7,92.4 753.7,318.0 754.7,318.0 755.7,318.0 756.7,318.0 757.6,318.0 758.6,318.0 759.6,318.0 760.6,318.0 761.6,318.0 762.6,318.0 763.6,318.0 764.6,318.0 765.6,318.0 766.6,318.0 767.6,318.0 768.6,318.0 769.6,318.0 770.6,318.0 771.6,318.0 772.6,318.0 773.6,318.0 774.6,318.0 775.6,318.0 776.6,318.0 777.6,318.0 778.6,318.0 779.6,318.0 780.6,318.0 781.6,318.0 782.6,318.0 783.6,318.0 784.6,318.0 785.6,318.0 786.5,318.0 787.5,318.0 788.5,318.0 789.5,318.0 790.5,318.0 791.5,318.0 792.5,318.0 793.5,318.0 794.5,318.0 795.5,318.0 796.5,318.0 797.5,318.0 798.5,318.0 799.5,318.0 800.5,318.0 801.5,318.0 802.5,318.0 803.5,318.0 804.5,318.0 805.5,318.0 806.5,318.0 807.5,318.0 808.5,318.0 809.5,318.0 810.5,318.0 811.5,318.0 812.5,318.0 813.5,318.0 814.5,318.0 815.5,318.0 816.4,318.0 817.4,318.0 818.4,318.0 819.4,318.0 820.4,318.0 821.4,318.0 822.4,318.0 823.4,318.0 824.4,207.0 825.4,318.0 826.4,318.0 827.4,318.0 828.4,318.0 829.4,318.0 830.4,263.4 831.4,318.0 832.4,318.0 833.4,263.5 834.4,318.0 835.4,318.0 836.4,318.0 837.4,318.0 838.4,318.0 839.4,318.0 840.4,318.0 841.4,262.2 842.4,263.5 843.4,318.0 844.4,318.0 845.3,318.0 846.3,318.0 847.3,264.6 848.3,318.0 849.3,318.0 850.3,318.0 851.3,318.0 852.3,261.9 853.3,318.0 854.3,318.0 855.3,318.0 856.3,263.1 857.3,318.0 858.3,318.0 859.3,318.0 860.3,318.0 861.3,318.0 862.3,318.0 863.3,318.0 864.3,318.0 865.3,207.5 866.3,318.0 867.3,318.0 868.3,318.0 869.3,262.4 870.3,318.0 871.3,318.0 872.3,318.0 873.3,262.8 874.2,318.0 875.2,318.0 876.2,318.0 877.2,263.0 878.2,318.0 879.2,318.0 880.2,262.3 881.2,318.0 882.2,318.0 883.2,318.0 884.2,318.0 885.2,318.0 886.2,318.0 887.2,318.0 888.2,261.9 889.2,261.7 890.2,318.0 891.2,318.0 892.2,264.0 893.2,318.0 894.2,318.0 895.2,318.0 896.2,261.7 897.2,318.0 898.2,318.0 899.2,262.1 900.2,318.0 901.2,318.0 902.2,261.7 903.1,318.0 904.1,263.0 905.1,318.0 906.1,318.0 907.1,318.0 908.1,318.0 909.1,318.0 910.1,318.0 911.1,318.0 912.1,318.0 913.1,207.1 914.1,318.0 915.1,318.0 916.1,318.0 917.1,262.6 918.1,318.0 919.1,318.0 920.1,318.0 921.1,264.5 922.1,318.0 923.1,263.4 924.1,318.0 925.1,318.0 926.1,262.3 927.1,318.0 928.1,261.7 929.1,318.0 930.1,318.0 931.1,318.0 932.0,318.0 933.0,318.0 934.0,318.0 935.0,318.0 936.0,318.0 937.0,318.0 938.0,262.6 939.0,264.9 940.0,318.0 941.0,318.0 942.0,318.0 943.0,318.0 944.0,318.0 945.0,318.0 946.0,318.0" fill="none" stroke="#2563eb" stroke-width="2.2" stroke-linejoin="round" stroke-linecap="round"/>
<polyline points="76.0,262.8 77.0,258.8 78.0,249.5 79.0,247.2 80.0,250.9 81.0,240.3 82.0,239.7 83.0,243.5 84.0,248.5 85.0,248.0 86.0,264.6 87.0,246.1 88.0,245.2 89.0,246.9 90.0,251.1 90.9,259.3 91.9,256.5 92.9,254.2 93.9,251.6 94.9,256.6 95.9,261.5 96.9,257.5 97.9,255.6 98.9,255.2 99.9,249.2 100.9,247.7 101.9,249.7 102.9,241.1 103.9,232.5 104.9,241.2 105.9,243.5 106.9,257.3 107.9,251.0 108.9,250.7 109.9,255.2 110.9,250.5 111.9,247.4 112.9,253.4 113.9,247.1 114.9,247.0 115.9,244.7 116.9,261.9 117.9,258.2 118.9,254.2 119.8,219.8 120.8,222.3 121.8,255.3 122.8,251.2 123.8,237.3 124.8,219.3 125.8,239.9 126.8,251.2 127.8,243.9 128.8,242.1 129.8,243.9 130.8,246.7 131.8,244.4 132.8,250.0 133.8,241.3 134.8,247.0 135.8,238.8 136.8,245.4 137.8,243.9 138.8,285.1 139.8,270.0 140.8,262.3 141.8,270.1 142.8,267.0 143.8,238.5 144.8,233.8 145.8,243.4 146.8,259.9 147.8,272.4 148.7,246.0 149.7,245.5 150.7,248.1 151.7,261.0 152.7,250.4 153.7,259.1 154.7,245.9 155.7,240.5 156.7,253.9 157.7,249.9 158.7,254.6 159.7,255.7 160.7,254.0 161.7,261.9 162.7,251.4 163.7,251.4 164.7,253.7 165.7,250.0 166.7,268.3 167.7,231.5 168.7,255.8 169.7,251.1 170.7,218.2 171.7,256.5 172.7,245.2 173.7,247.9 174.7,226.9 175.7,246.1 176.7,248.3 177.6,241.0 178.6,249.4 179.6,243.6 180.6,250.1 181.6,244.3 182.6,242.8 183.6,242.6 184.6,248.1 185.6,245.4 186.6,251.8 187.6,237.9 188.6,251.4 189.6,252.6 190.6,250.9 191.6,220.0 192.6,203.6 193.6,214.7 194.6,215.7 195.6,215.3 196.6,224.9 197.6,220.4 198.6,216.0 199.6,243.5 200.6,246.4 201.6,241.9 202.6,243.2 203.6,242.2 204.6,241.7 205.6,242.6 206.5,244.6 207.5,243.4 208.5,245.1 209.5,249.7 210.5,245.1 211.5,258.2 212.5,257.8 213.5,248.2 214.5,263.2 215.5,290.3 216.5,254.2 217.5,268.2 218.5,255.6 219.5,253.3 220.5,253.6 221.5,250.8 222.5,251.8 223.5,245.2 224.5,251.1 225.5,244.3 226.5,242.4 227.5,240.7 228.5,242.6 229.5,251.4 230.5,264.1 231.5,247.2 232.5,252.2 233.5,250.9 234.5,253.1 235.5,253.4 236.4,258.6 237.4,260.8 238.4,259.1 239.4,292.1 240.4,255.7 241.4,270.2 242.4,236.2 243.4,252.1 244.4,245.1 245.4,249.0 246.4,240.5 247.4,242.6 248.4,248.7 249.4,243.1 250.4,236.6 251.4,245.7 252.4,247.5 253.4,241.4 254.4,245.2 255.4,245.0 256.4,246.8 257.4,247.8 258.4,251.7 259.4,253.2 260.4,259.1 261.4,263.5 262.4,252.2 263.4,285.5 264.4,251.7 265.3,255.1 266.3,250.6 267.3,249.8 268.3,242.9 269.3,242.4 270.3,242.2 271.3,241.0 272.3,247.3 273.3,248.1 274.3,258.9 275.3,257.3 276.3,253.8 277.3,250.1 278.3,255.8 279.3,247.6 280.3,253.5 281.3,245.9 282.3,253.4 283.3,258.1 284.3,261.3 285.3,258.9 286.3,266.2 287.3,297.6 288.3,260.0 289.3,260.3 290.3,258.6 291.3,257.8 292.3,249.6 293.3,247.9 294.2,245.9 295.2,252.3 296.2,248.8 297.2,245.4 298.2,245.5 299.2,241.2 300.2,248.2 301.2,240.3 302.2,241.3 303.2,240.9 304.2,255.8 305.2,255.5 306.2,254.2 307.2,259.3 308.2,273.3 309.2,257.9 310.2,260.5 311.2,258.2 312.2,252.3 313.2,232.0 314.2,219.6 315.2,257.6 316.2,245.0 317.2,228.2 318.2,224.5 319.2,224.1 320.2,223.8 321.2,222.7 322.2,239.3 323.1,231.7 324.1,235.3 325.1,236.0 326.1,245.7 327.1,256.8 328.1,266.4 329.1,245.2 330.1,283.8 331.1,250.1 332.1,265.2 333.1,256.9 334.1,258.4 335.1,265.9 336.1,249.6 337.1,209.8 338.1,220.6 339.1,223.0 340.1,225.7 341.1,215.1 342.1,227.4 343.1,222.0 344.1,209.0 345.1,242.0 346.1,239.8 347.1,248.9 348.1,251.4 349.1,247.5 350.1,243.7 351.1,252.6 352.0,250.3 353.0,248.7 354.0,267.5 355.0,252.2 356.0,247.7 357.0,258.9 358.0,227.2 359.0,211.3 360.0,216.8 361.0,255.8 362.0,251.6 363.0,245.4 364.0,270.3 365.0,239.4 366.0,244.7 367.0,243.3 368.0,250.8 369.0,232.4 370.0,242.8 371.0,244.7 372.0,265.4 373.0,239.2 374.0,244.6 375.0,242.8 376.0,247.8 377.0,246.7 378.0,263.6 379.0,250.8 380.0,258.2 380.9,254.7 381.9,251.7 382.9,265.0 383.9,252.6 384.9,259.2 385.9,263.9 386.9,253.9 387.9,230.0 388.9,224.2 389.9,257.9 390.9,245.8 391.9,252.8 392.9,255.5 393.9,248.1 394.9,251.2 395.9,250.1 396.9,248.5 397.9,245.4 398.9,265.0 399.9,263.0 400.9,258.3 401.9,262.4 402.9,259.0 403.9,283.8 404.9,276.5 405.9,273.1 406.9,276.5 407.9,282.7 408.9,282.5 409.8,277.7 410.8,281.6 411.8,283.5 412.8,278.5 413.8,276.0 414.8,265.8 415.8,251.2 416.8,259.6 417.8,273.4 418.8,261.0 419.8,263.4 420.8,257.8 421.8,265.6 422.8,262.2 423.8,262.1 424.8,262.1 425.8,254.3 426.8,262.8 427.8,257.4 428.8,261.5 429.8,249.6 430.8,254.9 431.8,260.6 432.8,262.8 433.8,263.7 434.8,259.3 435.8,258.4 436.8,252.3 437.8,251.5 438.7,254.4 439.7,233.7 440.7,246.8 441.7,259.0 442.7,247.4 443.7,244.3 444.7,249.6 445.7,251.4 446.7,253.2 447.7,252.7 448.7,254.5 449.7,255.1 450.7,251.1 451.7,261.9 452.7,260.5 453.7,265.7 454.7,260.3 455.7,265.4 456.7,257.3 457.7,253.9 458.7,261.6 459.7,244.2 460.7,253.1 461.7,245.6 462.7,249.2 463.7,235.1 464.7,243.1 465.7,248.1 466.7,255.7 467.6,236.3 468.6,251.0 469.6,236.7 470.6,242.5 471.6,247.8 472.6,246.2 473.6,246.8 474.6,245.6 475.6,253.2 476.6,266.1 477.6,257.9 478.6,214.6 479.6,221.0 480.6,217.1 481.6,231.6 482.6,220.8 483.6,221.3 484.6,229.0 485.6,250.2 486.6,248.0 487.6,234.3 488.6,246.0 489.6,245.0 490.6,252.9 491.6,245.9 492.6,247.4 493.6,248.3 494.6,247.7 495.6,239.1 496.5,240.8 497.5,252.0 498.5,252.9 499.5,252.0 500.5,259.5 501.5,248.6 502.5,255.6 503.5,255.6 504.5,256.2 505.5,252.6 506.5,250.4 507.5,247.5 508.5,235.3 509.5,257.7 510.5,239.4 511.5,217.5 512.5,244.7 513.5,243.3 514.5,247.4 515.5,248.5 516.5,245.5 517.5,244.6 518.5,247.9 519.5,251.0 520.5,248.9 521.5,252.3 522.5,249.7 523.5,252.3 524.5,258.4 525.5,260.8 526.4,239.5 527.4,262.6 528.4,268.1 529.4,271.0 530.4,253.1 531.4,249.5 532.4,256.8 533.4,242.4 534.4,244.6 535.4,235.9 536.4,245.9 537.4,252.1 538.4,240.5 539.4,234.4 540.4,239.0 541.4,241.9 542.4,235.1 543.4,252.6 544.4,245.0 545.4,244.3 546.4,262.3 547.4,305.5 548.4,249.9 549.4,245.8 550.4,258.9 551.4,255.9 552.4,253.1 553.4,256.3 554.4,245.1 555.3,242.3 556.3,240.8 557.3,242.9 558.3,248.5 559.3,241.0 560.3,237.3 561.3,242.1 562.3,239.8 563.3,236.5 564.3,241.5 565.3,247.0 566.3,243.4 567.3,245.8 568.3,248.9 569.3,238.6 570.3,251.6 571.3,249.4 572.3,276.3 573.3,259.7 574.3,250.9 575.3,269.4 576.3,251.6 577.3,254.3 578.3,253.9 579.3,248.4 580.3,238.0 581.3,246.8 582.3,247.0 583.3,245.2 584.2,246.2 585.2,236.4 586.2,240.2 587.2,239.9 588.2,265.2 589.2,243.4 590.2,244.6 591.2,240.0 592.2,250.6 593.2,252.1 594.2,260.3 595.2,245.6 596.2,263.7 597.2,248.6 598.2,262.8 599.2,265.9 600.2,248.1 601.2,254.3 602.2,247.2 603.2,252.3 604.2,246.3 605.2,251.2 606.2,245.4 607.2,241.8 608.2,237.3 609.2,251.5 610.2,246.1 611.2,239.7 612.2,238.8 613.1,245.5 614.1,247.4 615.1,254.5 616.1,236.8 617.1,251.2 618.1,251.9 619.1,255.6 620.1,260.8 621.1,260.8 622.1,256.8 623.1,248.6 624.1,250.9 625.1,258.6 626.1,252.0 627.1,247.8 628.1,242.0 629.1,235.9 630.1,240.3 631.1,241.3 632.1,243.0 633.1,250.0 634.1,251.4 635.1,248.2 636.1,247.2 637.1,243.8 638.1,247.8 639.1,250.6 640.1,243.7 641.1,249.4 642.0,257.8 643.0,256.4 644.0,266.0 645.0,253.2 646.0,257.3 647.0,254.9 648.0,263.9 649.0,255.6 650.0,243.4 651.0,246.3 652.0,236.2 653.0,243.4 654.0,247.6 655.0,232.1 656.0,245.1 657.0,241.1 658.0,245.4 659.0,244.3 660.0,245.7 661.0,244.9 662.0,237.9 663.0,243.8 664.0,240.4 665.0,257.6 666.0,256.3 667.0,256.7 668.0,257.1 669.0,257.2 670.0,263.0 670.9,256.8 671.9,255.5 672.9,256.1 673.9,252.2 674.9,269.8 675.9,254.4 676.9,246.0 677.9,249.9 678.9,237.3 679.9,240.6 680.9,246.0 681.9,254.5 682.9,250.8 683.9,250.9 684.9,252.8 685.9,243.7 686.9,250.9 687.9,251.9 688.9,264.5 689.9,263.0 690.9,262.2 691.9,258.8 692.9,264.6 693.9,255.8 694.9,263.3 695.9,253.6 696.9,256.9 697.9,252.5 698.9,255.3 699.8,252.6 700.8,246.8 701.8,248.8 702.8,241.7 703.8,242.1 704.8,248.9 705.8,250.9 706.8,245.3 707.8,247.8 708.8,246.7 709.8,252.2 710.8,248.6 711.8,256.6 712.8,253.4 713.8,255.6 714.8,260.2 715.8,251.7 716.8,253.8 717.8,264.5 718.8,255.3 719.8,263.6 720.8,248.5 721.8,252.2 722.8,250.8 723.8,253.1 724.8,244.8 725.8,253.0 726.8,244.6 727.8,248.3 728.7,251.8 729.7,245.9 730.7,246.0 731.7,261.2 732.7,255.5 733.7,251.8 734.7,251.4 735.7,254.2 736.7,255.0 737.7,255.0 738.7,265.9 739.7,248.1 740.7,272.1 741.7,254.3 742.7,257.3 743.7,258.3 744.7,243.2 745.7,251.2 746.7,252.1 747.7,251.2 748.7,251.9 749.7,266.5 750.7,260.3 751.7,243.4 752.7,245.9 753.7,345.6 754.7,341.0 755.7,341.4 756.7,339.1 757.6,340.1 758.6,345.0 759.6,343.8 760.6,343.3 761.6,343.1 762.6,343.9 763.6,341.5 764.6,341.0 765.6,342.3 766.6,341.5 767.6,345.3 768.6,340.9 769.6,350.1 770.6,340.2 771.6,342.7 772.6,340.3 773.6,340.1 774.6,341.1 775.6,339.5 776.6,343.3 777.6,343.2 778.6,340.7 779.6,342.2 780.6,341.2 781.6,341.9 782.6,340.0 783.6,344.3 784.6,338.1 785.6,340.6 786.5,342.6 787.5,342.9 788.5,342.3 789.5,345.1 790.5,342.7 791.5,342.9 792.5,340.6 793.5,341.6 794.5,339.6 795.5,341.3 796.5,341.5 797.5,341.0 798.5,342.0 799.5,339.2 800.5,339.6 801.5,340.4 802.5,340.9 803.5,335.8 804.5,335.6 805.5,334.7 806.5,340.2 807.5,340.4 808.5,340.3 809.5,339.6 810.5,342.0 811.5,341.5 812.5,342.0 813.5,343.1 814.5,342.0 815.5,340.6 816.4,334.9 817.4,339.8 818.4,340.6 819.4,340.3 820.4,338.2 821.4,339.3 822.4,338.7 823.4,346.4 824.4,288.7 825.4,339.1 826.4,340.3 827.4,342.0 828.4,341.7 829.4,339.6 830.4,312.1 831.4,343.5 832.4,342.2 833.4,322.7 834.4,348.9 835.4,344.5 836.4,342.6 837.4,342.4 838.4,337.4 839.4,336.7 840.4,331.5 841.4,316.9 842.4,313.8 843.4,336.5 844.4,339.3 845.3,351.6 846.3,341.7 847.3,317.1 848.3,341.6 849.3,334.3 850.3,338.9 851.3,348.0 852.3,317.1 853.3,340.6 854.3,341.7 855.3,340.6 856.3,319.1 857.3,347.2 858.3,345.5 859.3,345.7 860.3,345.8 861.3,345.1 862.3,346.2 863.3,346.7 864.3,351.1 865.3,313.1 866.3,349.0 867.3,346.7 868.3,345.7 869.3,319.3 870.3,345.8 871.3,339.2 872.3,344.5 873.3,321.3 874.2,341.8 875.2,345.7 876.2,343.1 877.2,324.3 878.2,350.6 879.2,345.0 880.2,326.2 881.2,345.3 882.2,345.4 883.2,344.2 884.2,342.9 885.2,345.7 886.2,345.4 887.2,343.6 888.2,320.0 889.2,320.0 890.2,347.3 891.2,343.8 892.2,316.3 893.2,341.6 894.2,340.2 895.2,341.8 896.2,296.9 897.2,344.3 898.2,343.9 899.2,315.0 900.2,347.3 901.2,342.9 902.2,322.7 903.1,347.9 904.1,322.0 905.1,340.4 906.1,347.6 907.1,347.1 908.1,345.1 909.1,342.7 910.1,343.7 911.1,345.5 912.1,344.0 913.1,296.5 914.1,343.7 915.1,345.8 916.1,340.6 917.1,314.7 918.1,345.6 919.1,340.9 920.1,344.2 921.1,322.2 922.1,341.8 923.1,319.8 924.1,341.0 925.1,342.4 926.1,318.2 927.1,343.1 928.1,323.3 929.1,345.5 930.1,342.4 931.1,346.9 932.0,344.2 933.0,350.1 934.0,344.9 935.0,342.0 936.0,343.1 937.0,343.6 938.0,319.4 939.0,316.9 940.0,342.8 941.0,342.1 942.0,341.8 943.0,347.0 944.0,346.9 945.0,338.1 946.0,345.1" fill="none" stroke="#7c3aed" stroke-width="2.2" stroke-linejoin="round" stroke-linecap="round"/>
<line x1="76" y1="70" x2="94" y2="70" stroke="#2563eb" stroke-width="3"/>
<text x="100" y="74" font-family="Arial, sans-serif" font-size="11" fill="#0f172a">tx count</text>
<line x1="186" y1="70" x2="204" y2="70" stroke="#7c3aed" stroke-width="3"/>
<text x="210" y="74" font-family="Arial, sans-serif" font-size="11" fill="#0f172a">unique accounts</text>
<text x="28" y="404" font-family="Arial, sans-serif" font-size="11" fill="#64748b">Source: hourly_features.csv; capped windows are sample counts</text>
</svg>