<svg xmlns="http://www.w3.org/2000/svg" width="980" height="420" viewBox="0 0 980 420">
<rect width="100%" height="100%" fill="#ffffff"/>
<text x="28" y="34" font-family="Arial, sans-serif" font-size="20" font-weight="700" fill="#0f172a">Network activity sample trend</text>
<text x="28" y="56" font-family="Arial, sans-serif" font-size="12" fill="#64748b">Hourly transaction sample count and unique account sample count</text>
<line x1="76" y1="362.0" x2="946" y2="362.0" stroke="#e2e8f0" stroke-width="1"/>
<text x="68" y="366.0" font-family="Arial, sans-serif" font-size="10" text-anchor="end" fill="#64748b">220</text>
<line x1="76" y1="292.0" x2="946" y2="292.0" stroke="#e2e8f0" stroke-width="1"/>
<text x="68" y="296.0" font-family="Arial, sans-serif" font-size="10" text-anchor="end" fill="#64748b">1K</text>
<line x1="76" y1="222.0" x2="946" y2="222.0" stroke="#e2e8f0" stroke-width="1"/>
<text x="68" y="226.0" font-family="Arial, sans-serif" font-size="10" text-anchor="end" fill="#64748b">3K</text>
<line x1="76" y1="152.0" x2="946" y2="152.0" stroke="#e2e8f0" stroke-width="1"/>
<text x="68" y="156.0" font-family="Arial, sans-serif" font-size="10" text-anchor="end" fill="#64748b">4K</text>
<line x1="76" y1="82.0" x2="946" y2="82.0" stroke="#e2e8f0" stroke-width="1"/>
<text x="68" y="86.0" font-family="Arial, sans-serif" font-size="10" text-anchor="end" fill="#64748b">5K</text>
<line x1="76" y1="362" x2="946" y2="362" stroke="#334155" stroke-width="1"/>
<line x1="76" y1="82" x2="76" y2="362" stroke="#334155" stroke-width="1"/>
<text x="76" y="72" font-family="Arial, sans-serif" font-size="11" fill="#64748b">count</text>
<line x1="76.0" y1="362" x2="76.0" y2="366" stroke="#334155" stroke-width="1"/>
<text x="76.0" y="380" font-family="Arial, sans-serif" font-size="10" text-anchor="middle" fill="#64748b">0</text>
<line x1="511.0" y1="362" x2="511.0" y2="366" stroke="#334155" stroke-width="1"/>
<text x="511.0" y="380" font-family="Arial, sans-serif" font-size="10" text-anchor="middle" fill="#64748b">398</text>
<line x1="946.0" y1="362" x2="946.0" y2="366" stroke="#334155" stroke-width="1"/>
<text x="946.0" y="380" font-family="Arial, sans-serif" font-size="10" text-anchor="middle" fill="#64748b">796</text>
<polyline points="76.0,92.4 77.1,92.4 78.2,92.4 79.3,92.4 80.4,92.4 81.5,92.4 82.6,92.4 83.7,92.4 84.7,92.4 85.8,92.4 86.9,92.4 88.0,92.4 89.1,92.4 90.2,92.4 91.3,92.4 92.4,92.4 93.5,92.4 94.6,92.4 95.7,92.4 96.8,92.4 97.9,92.4 99.0,92.4 100.0,92.4 101.1,92.4 102.2,92.4 103.3,92.4 104.4,92.4 105.5,92.4 106.6,92.4 107.7,92.4 108.8,92.4 109.9,92.4 111.0,92.4 112.1,92.4 113.2,92.4 114.3,92.4 115.3,92.4 116.4,92.4 117.5,92.4 118.6,92.4 119.7,92.4 120.8,92.4 121.9,92.4 123.0,92.4 124.1,92.4 125.2,92.4 126.3,92.4 127.4,92.4 128.5,92.4 129.6,92.4 130.6,92.4 131.7,92.4 132.8,92.4 133.9,92.4 135.0,92.4 136.1,92.4 137.2,92.4 138.3,92.4 139.4,92.4 140.5,92.4 141.6,92.4 142.7,92.4 143.8,92.4 144.9,92.4 145.9,92.4 147.0,92.4 148.1,92.4 149.2,92.4 150.3,92.4 151.4,92.4 152.5,92.4 153.6,92.4 154.7,92.4 155.8,92.4 156.9,92.4 158.0,92.4 159.1,92.4 160.2,92.4 161.3,92.4 162.3,92.4 163.4,92.4 164.5,92.4 165.6,92.4 166.7,92.4 167.8,92.4 168.9,92.4 170.0,92.4 171.1,92.4 172.2,92.4 173.3,92.4 174.4,92.4 175.5,92.4 176.6,92.4 177.6,92.4 178.7,92.4 179.8,92.4 180.9,92.4 182.0,92.4 183.1,92.4 184.2,92.4 185.3,92.4 186.4,92.4 187.5,92.4 188.6,92.4 189.7,92.4 190.8,92.4 191.9,92.4 192.9,92.4 194.0,92.4 195.1,92.4 196.2,92.4 197.3,92.4 198.4,92.4 199.5,92.4 200.6,92.4 201.7,92.4 202.8,92.4 203.9,92.4 205.0,92.4 206.1,92.4 207.2,92.4 208.2,92.4 209.3,92.4 210.4,92.4 211.5,92.4 212.6,92.4 213.7,92.4 214.8,92.4 215.9,92.4 217.0,92.4 218.1,92.4 219.2,92.4 220.3,92.4 221.4,92.4 222.5,92.4 223.6,92.4 224.6,92.4 225.7,92.4 226.8,92.4 227.9,92.4 229.0,92.4 230.1,92.4 231.2,92.4 232.3,92.4 233.4,92.4 234.5,92.4 235.6,92.4 236.7,92.4 237.8,92.4 238.9,92.4 239.9,92.4 241.0,92.4 242.1,92.4 243.2,92.4 244.3,92.4 245.4,92.4 246.5,92.4 247.6,92.4 248.7,92.4 249.8,92.4 250.9,92.4 252.0,92.4 253.1,92.4 254.2,92.4 255.2,92.4 256.3,92.4 257.4,92.4 258.5,92.4 259.6,92.4 260.7,92.4 261.8,92.4 262.9,92.4 264.0,92.4 265.1,92.4 266.2,92.4 267.3,92.4 268.4,92.4 269.5,92.4 270.5,92.4 271.6,92.4 272.7,92.4 273.8,92.4 274.9,92.4 276.0,92.4 277.1,92.4 278.2,92.4 279.3,92.4 280.4,92.4 281.5,92.4 282.6,92.4 283.7,92.4 284.8,92.4 285.8,92.4 286.9,92.4 288.0,92.4 289.1,92.4 290.2,92.4 291.3,92.4 292.4,92.4 293.5,92.4 294.6,92.4 295.7,92.4 296.8,92.4 297.9,92.4 299.0,92.4 300.1,92.4 301.2,92.4 302.2,92.4 303.3,92.4 304.4,92.4 305.5,92.4 306.6,92.4 307.7,92.4 308.8,92.4 309.9,92.4 311.0,92.4 312.1,92.4 313.2,92.4 314.3,92.4 315.4,92.4 316.5,92.4 317.5,92.4 318.6,92.4 319.7,92.4 320.8,92.4 321.9,92.4 323.0,92.4 324.1,92.4 325.2,92.4 326.3,92.4 327.4,92.4 328.5,92.4 329.6,92.4 330.7,92.4 331.8,92.4 332.8,92.4 333.9,92.4 335.0,92.4 336.1,92.4 337.2,92.4 338.3,92.4 339.4,92.4 340.5,92.4 341.6,92.4 342.7,92.4 343.8,92.4 344.9,92.4 346.0,92.4 347.1,92.4 348.1,92.4 349.2,92.4 350.3,92.4 351.4,92.4 352.5,92.4 353.6,92.4 354.7,92.4 355.8,92.4 356.9,92.4 358.0,92.4 359.1,92.4 360.2,92.4 361.3,92.4 362.4,92.4 363.4,92.4 364.5,92.4 365.6,92.4 366.7,92.4 367.8,92.4 368.9,92.4 370.0,92.4 371.1,92.4 372.2,92.4 373.3,92.4 374.4,92.4 375.5,92.4 376.6,92.4 377.7,92.4 378.8,92.4 379.8,92.4 380.9,92.4 382.0,92.4 383.1,92.4 384.2,92.4 385.3,92.4 386.4,92.4 387.5,92.4 388.6,92.4 389.7,92.4 390.8,92.4 391.9,92.4 393.0,92.4 394.1,92.4 395.1,92.4 396.2,92.4 397.3,92.4 398.4,92.4 399.5,92.4 400.6,92.4 401.7,92.4 402.8,92.4 403.9,92.4 405.0,92.4 406.1,92.4 407.2,92.4 408.3,92.4 409.4,92.4 410.4,92.4 411.5,92.4 412.6,92.4 413.7,92.4 414.8,92.4 415.9,92.4 417.0,92.4 418.1,92.4 419.2,92.4 420.3,92.4 421.4,92.4 422.5,92.4 423.6,92.4 424.7,92.4 425.7,92.4 426.8,92.4 427.9,92.4 429.0,92.4 430.1,92.4 431.2,92.4 432.3,92.4 433.4,92.4 434.5,92.4 435.6,92.4 436.7,92.4 437.8,92.4 438.9,92.4 440.0,92.4 441.1,92.4 442.1,92.4 443.2,92.4 444.3,92.4 445.4,92.4 446.5,92.4 447.6,92.4 448.7,92.4 449.8,92.4 450.9,92.4 452.0,92.4 453.1,92.4 454.2,92.4 455.3,92.4 456.4,92.4 457.4,92.4 458.5,92.4 459.6,92.4 460.7,92.4 461.8,92.4 462.9,92.4 464.0,92.4 465.1,92.4 466.2,92.4 467.3,92.4 468.4,92.4 469.5,92.4 470.6,92.4 471.7,92.4 472.7,92.4 473.8,92.4 474.9,92.4 476.0,92.4 477.1,92.4 478.2,92.4 479.3,92.4 480.4,92.4 481.5,92.4 482.6,92.4 483.7,92.4 484.8,92.4 485.9,92.4 487.0,92.4 488.0,92.4 489.1,92.4 490.2,92.4 491.3,92.4 492.4,92.4 493.5,92.4 494.6,92.4 495.7,92.4 496.8,92.4 497.9,92.4 499.0,92.4 500.1,92.4 501.2,92.4 502.3,92.4 503.3,92.4 504.4,92.4 505.5,92.4 506.6,92.4 507.7,92.4 508.8,92.4 509.9,92.4 511.0,92.4 512.1,92.4 513.2,92.4 514.3,92.4 515.4,92.4 516.5,92.4 517.6,92.4 518.7,92.4 519.7,92.4 520.8,92.4 521.9,92.4 523.0,92.4 524.1,92.4 525.2,92.4 526.3,92.4 527.4,92.4 528.5,92.4 529.6,92.4 530.7,92.4 531.8,92.4 532.9,92.4 534.0,92.4 535.0,92.4 536.1,92.4 537.2,92.4 538.3,92.4 539.4,92.4 540.5,92.4 541.6,92.4 542.7,92.4 543.8,92.4 544.9,92.4 546.0,92.4 547.1,92.4 548.2,92.4 549.3,92.4 550.3,92.4 551.4,92.4 552.5,92.4 553.6,92.4 554.7,92.4 555.8,92.4 556.9,92.4 558.0,92.4 559.1,92.4 560.2,92.4 561.3,92.4 562.4,92.4 563.5,92.4 564.6,92.4 565.6,92.4 566.7,92.4 567.8,92.4 568.9,92.4 570.0,92.4 571.1,92.4 572.2,92.4 573.3,92.4 574.4,92.4 575.5,92.4 576.6,92.4 577.7,92.4 578.8,92.4 579.9,92.4 580.9,92.4 582.0,92.4 583.1,92.4 584.2,92.4 585.3,92.4 586.4,92.4 587.5,92.4 588.6,92.4 589.7,92.4 590.8,92.4 591.9,92.4 593.0,92.4 594.1,92.4 595.2,92.4 596.3,92.4 597.3,92.4 598.4,92.4 599.5,92.4 600.6,92.4 601.7,92.4 602.8,92.4 603.9,92.4 605.0,92.4 606.1,92.4 607.2,92.4 608.3,92.4 609.4,92.4 610.5,92.4 611.6,92.4 612.6,92.4 613.7,92.4 614.8,92.4 615.9,92.4 617.0,92.4 618.1,92.4 619.2,92.4 620.3,92.4 621.4,92.4 622.5,92.4 623.6,92.4 624.7,92.4 625.8,92.4 626.9,92.4 627.9,92.4 629.0,92.4 630.1,92.4 631.2,92.4 632.3,92.4 633.4,92.4 634.5,92.4 635.6,92.4 636.7,92.4 637.8,92.4 638.9,92.4 640.0,92.4 641.1,92.4 642.2,92.4 643.2,92.4 644.3,92.4 645.4,92.4 646.5,92.4 647.6,92.4 648.7,92.4 649.8,92.4 650.9,92.4 652.0,92.4 653.1,92.4 654.2,92.4 655.3,92.4 656.4,92.4 657.5,92.4 658.6,92.4 659.6,92.4 660.7,92.4 661.8,92.4 662.9,92.4 664.0,92.4 665.1,92.4 666.2,92.4 667.3,92.4 668.4,92.4 669.5,92.4 670.6,92.4 671.7,92.4 672.8,92.4 673.9,92.4 674.9,92.4 676.0,92.4 677.1,92.4 678.2,92.4 679.3,92.4 680.4,92.4 681.5,92.4 682.6,92.4 683.7,92.4 684.8,92.4 685.9,92.4 687.0,92.4 688.1,92.4 689.2,92.4 690.2,92.4 691.3,92.4 692.4,92.4 693.5,92.4 694.6,92.4 695.7,92.4 696.8,92.4 697.9,92.4 699.0,92.4 700.1,92.4 701.2,92.4 702.3,92.4 703.4,92.4 704.5,92.4 705.5,92.4 706.6,92.4 707.7,92.4 708.8,92.4 709.9,92.4 711.0,92.4 712.1,92.4 713.2,92.4 714.3,92.4 715.4,92.4 716.5,92.4 717.6,92.4 718.7,92.4 719.8,92.4 720.8,92.4 721.9,92.4 723.0,92.4 724.1,92.4 725.2,92.4 726.3,92.4 727.4,92.4 728.5,92.4 729.6,92.4 730.7,92.4 731.8,92.4 732.9,92.4 734.0,92.4 735.1,92.4 736.2,92.4 737.2,92.4 738.3,92.4 739.4,92.4 740.5,92.4 741.6,92.4 742.7,92.4 743.8,92.4 744.9,92.4 746.0,92.4 747.1,92.4 748.2,92.4 749.3,92.4 750.4,92.4 751.5,92.4 752.5,92.4 753.6,92.4 754.7,92.4 755.8,92.4 756.9,92.4 758.0,92.4 759.1,92.4 760.2,92.4 761.3,92.4 762.4,92.4 763.5,92.4 764.6,92.4 765.7,92.4 766.8,92.4 767.8,92.4 768.9,92.4 770.0,92.4 771.1,92.4 772.2,92.4 773.3,92.4 774.4,92.4 775.5,92.4 776.6,92.4 777.7,92.4 778.8,92.4 779.9,92.4 781.0,92.4 782.1,92.4 783.1,92.4 784.2,92.4 785.3,92.4 786.4,92.4 787.5,92.4 788.6,92.4 789.7,92.4 790.8,92.4 791.9,92.4 793.0,92.4 794.1,92.4 795.2,92.4 796.3,92.4 797.4,92.4 798.4,92.4 799.5,92.4 800.6,92.4 801.7,92.4 802.8,92.4 803.9,92.4 805.0,92.4 806.1,92.4 807.2,92.4 808.3,92.4 809.4,92.4 810.5,92.4 811.6,92.4 812.7,92.4 813.8,92.4 814.8,92.4 815.9,92.4 817.0,92.4 818.1,92.4 819.2,318.0 820.3,318.0 821.4,318.0 822.5,318.0 823.6,318.0 824.7,318.0 825.8,318.0 826.9,318.0 828.0,318.0 829.1,318.0 830.1,318.0 831.2,318.0 832.3,318.0 833.4,318.0 834.5,318.0 835.6,318.0 836.7,318.0 837.8,318.0 838.9,318.0 840.0,318.0 841.1,318.0 842.2,318.0 843.3,318.0 844.4,318.0 845.4,318.0 846.5,318.0 847.6,318.0 848.7,318.0 849.8,318.0 850.9,318.0 852.0,318.0 853.1,318.0 854.2,318.0 855.3,318.0 856.4,318.0 857.5,318.0 858.6,318.0 859.7,318.0 860.7,318.0 861.8,318.0 862.9,318.0 864.0,318.0 865.1,318.0 866.2,318.0 867.3,318.0 868.4,318.0 869.5,318.0 870.6,318.0 871.7,318.0 872.8,318.0 873.9,318.0 875.0,318.0 876.1,318.0 877.1,318.0 878.2,318.0 879.3,318.0 880.4,318.0 881.5,318.0 882.6,318.0 883.7,318.0 884.8,318.0 885.9,318.0 887.0,318.0 888.1,318.0 889.2,318.0 890.3,318.0 891.4,318.0 892.4,318.0 893.5,318.0 894.6,318.0 895.7,318.0 896.8,207.0 897.9,318.0 899.0,318.0 900.1,318.0 901.2,318.0 902.3,318.0 903.4,263.4 904.5,318.0 905.6,318.0 906.7,263.5 907.7,318.0 908.8,318.0 909.9,318.0 911.0,318.0 912.1,318.0 913.2,318.0 914.3,318.0 915.4,262.2 916.5,263.5 917.6,318.0 918.7,318.0 919.8,318.0 920.9,318.0 922.0,264.6 923.0,318.0 924.1,318.0 925.2,318.0 926.3,318.0 927.4,261.9 928.5,318.0 929.6,318.0 930.7,318.0 931.8,263.1 932.9,318.0 934.0,318.0 935.1,318.0 936.2,318.0 937.3,318.0 938.3,318.0 939.4,318.0 940.5,318.0 941.6,207.5 942.7,318.0 943.8,318.0 944.9,318.0 946.0,318.0" fill="none" stroke="#2563eb" stroke-width="2.2" stroke-linejoin="round" stroke-linecap="round"/>
<polyline points="76.0,262.8 77.1,258.8 78.2,249.5 79.3,247.2 80.4,250.9 81.5,240.3 82.6,239.7 83.7,243.5 84.7,248.5 85.8,248.0 86.9,264.6 88.0,246.1 89.1,245.2 90.2,246.9 91.3,251.1 92.4,259.3 93.5,256.5 94.6,254.2 95.7,251.6 96.8,256.6 97.9,261.5 99.0,257.5 100.0,255.6 101.1,255.2 102.2,249.2 103.3,247.7 104.4,249.7 105.5,241.1 106.6,232.5 107.7,241.2 108.8,243.5 109.9,257.3 111.0,251.0 112.1,250.7 113.2,255.2 114.3,250.5 115.3,247.4 116.4,253.4 117.5,247.1 118.6,247.0 119.7,244.7 120.8,261.9 121.9,258.2 123.0,254.2 124.1,219.8 125.2,222.3 126.3,255.3 127.4,251.2 128.5,237.3 129.6,219.3 130.6,239.9 131.7,251.2 132.8,243.9 133.9,242.1 135.0,243.9 136.1,246.7 137.2,244.4 138.3,250.0 139.4,241.3 140.5,247.0 141.6,238.8 142.7,245.4 143.8,243.9 144.9,285.1 145.9,270.0 147.0,262.3 148.1,270.1 149.2,267.0 150.3,238.5 151.4,233.8 152.5,243.4 153.6,259.9 154.7,272.4 155.8,246.0 156.9,245.5 158.0,248.1 159.1,261.0 160.2,250.4 161.3,259.1 162.3,245.9 163.4,240.5 164.5,253.9 165.6,249.9 166.7,254.6 167.8,255.7 168.9,254.0 170.0,261.9 171.1,251.4 172.2,251.4 173.3,253.7 174.4,250.0 175.5,268.3 176.6,231.5 177.6,255.8 178.7,251.1 179.8,218.2 180.9,256.5 182.0,245.2 183.1,247.9 184.2,226.9 185.3,246.1 186.4,248.3 187.5,241.0 188.6,249.4 189.7,243.6 190.8,250.1 191.9,244.3 192.9,242.8 194.0,242.6 195.1,248.1 196.2,245.4 197.3,251.8 198.4,237.9 199.5,251.4 200.6,252.6 201.7,250.9 202.8,220.0 203.9,203.6 205.0,214.7 206.1,215.7 207.2,215.3 208.2,224.9 209.3,220.4 210.4,216.0 211.5,243.5 212.6,246.4 213.7,241.9 214.8,243.2 215.9,242.2 217.0,241.7 218.1,242.6 219.2,244.6 220.3,243.4 221.4,245.1 222.5,249.7 223.6,245.1 224.6,258.2 225.7,257.8 226.8,248.2 227.9,263.2 229.0,290.3 230.1,254.2 231.2,268.2 232.3,255.6 233.4,253.3 234.5,253.6 235.6,250.8 236.7,251.8 237.8,245.2 238.9,251.1 239.9,244.3 241.0,242.4 242.1,240.7 243.2,242.6 244.3,251.4 245.4,264.1 246.5,247.2 247.6,252.2 248.7,250.9 249.8,253.1 250.9,253.4 252.0,258.6 253.1,260.8 254.2,259.1 255.2,292.1 256.3,255.7 257.4,270.2 258.5,236.2 259.6,252.1 260.7,245.1 261.8,249.0 262.9,240.5 264.0,242.6 265.1,248.7 266.2,243.1 267.3,236.6 268.4,245.7 269.5,247.5 270.5,241.4 271.6,245.2 272.7,245.0 273.8,246.8 274.9,247.8 276.0,251.7 277.1,253.2 278.2,259.1 279.3,263.5 280.4,252.2 281.5,285.5 282.6,251.7 283.7,255.1 284.8,250.6 285.8,249.8 286.9,242.9 288.0,242.4 289.1,242.2 290.2,241.0 291.3,247.3 292.4,248.1 293.5,258.9 294.6,257.3 295.7,253.8 296.8,250.1 297.9,255.8 299.0,247.6 300.1,253.5 301.2,245.9 302.2,253.4 303.3,258.1 304.4,261.3 305.5,258.9 306.6,266.2 307.7,297.6 308.8,260.0 309.9,260.3 311.0,258.6 312.1,257.8 313.2,249.6 314.3,247.9 315.4,245.9 316.5,252.3 317.5,248.8 318.6,245.4 319.7,245.5 320.8,241.2 321.9,248.2 323.0,240.3 324.1,241.3 325.2,240.9 326.3,255.8 327.4,255.5 328.5,254.2 329.6,259.3 330.7,273.3 331.8,257.9 332.8,260.5 333.9,258.2 335.0,252.3 336.1,232.0 337.2,219.6 338.3,257.6 339.4,245.0 340.5,228.2 341.6,224.5 342.7,224.1 343.8,223.8 344.9,222.7 346.0,239.3 347.1,231.7 348.1,235.3 349.2,236.0 350.3,245.7 351.4,256.8 352.5,266.4 353.6,245.2 354.7,283.8 355.8,250.1 356.9,265.2 358.0,256.9 359.1,258.4 360.2,265.9 361.3,249.6 362.4,209.8 363.4,220.6 364.5,223.0 365.6,225.7 366.7,215.1 367.8,227.4 368.9,222.0 370.0,209.0 371.1,242.0 372.2,239.8 373.3,248.9 374.4,251.4 375.5,247.5 376.6,243.7 377.7,252.6 378.8,250.3 379.8,248.7 380.9,267.5 382.0,252.2 383.1,247.7 384.2,258.9 385.3,227.2 386.4,211.3 387.5,216.8 388.6,255.8 389.7,251.6 390.8,245.4 391.9,270.3 393.0,239.4 394.1,244.7 395.1,243.3 396.2,250.8 397.3,232.4 398.4,242.8 399.5,244.7 400.6,265.4 401.7,239.2 402.8,244.6 403.9,242.8 405.0,247.8 406.1,246.7 407.2,263.6 408.3,250.8 409.4,258.2 410.4,254.7 411.5,251.7 412.6,265.0 413.7,252.6 414.8,259.2 415.9,263.9 417.0,253.9 418.1,230.0 419.2,224.2 420.3,257.9 421.4,245.8 422.5,252.8 423.6,255.5 424.7,248.1 425.7,251.2 426.8,250.1 427.9,248.5 429.0,245.4 430.1,265.0 431.2,263.0 432.3,258.3 433.4,262.4 434.5,259.0 435.6,283.8 436.7,276.5 437.8,273.1 438.9,276.5 440.0,282.7 441.1,282.5 442.1,277.7 443.2,281.6 444.3,283.5 445.4,278.5 446.5,276.0 447.6,265.8 448.7,251.2 449.8,259.6 450.9,273.4 452.0,261.0 453.1,263.4 454.2,257.8 455.3,265.6 456.4,262.2 457.4,262.1 458.5,262.1 459.6,254.3 460.7,262.8 461.8,257.4 462.9,261.5 464.0,249.6 465.1,254.9 466.2,260.6 467.3,262.8 468.4,263.7 469.5,259.3 470.6,258.4 471.7,252.3 472.7,251.5 473.8,254.4 474.9,233.7 476.0,246.8 477.1,259.0 478.2,247.4 479.3,244.3 480.4,249.6 481.5,251.4 482.6,253.2 483.7,252.7 484.8,254.5 485.9,255.1 487.0,251.1 488.0,261.9 489.1,260.5 490.2,265.7 491.3,260.3 492.4,265.4 493.5,257.3 494.6,253.9 495.7,261.6 496.8,244.2 497.9,253.1 499.0,245.6 500.1,249.2 501.2,235.1 502.3,243.1 503.3,248.1 504.4,255.7 505.5,236.3 506.6,251.0 507.7,236.7 508.8,242.5 509.9,247.8 511.0,246.2 512.1,246.8 513.2,245.6 514.3,253.2 515.4,266.1 516.5,257.9 517.6,214.6 518.7,221.0 519.7,217.1 520.8,231.6 521.9,220.8 523.0,221.3 524.1,229.0 525.2,250.2 526.3,248.0 527.4,234.3 528.5,246.0 529.6,245.0 530.7,252.9 531.8,245.9 532.9,247.4 534.0,248.3 535.0,247.7 536.1,239.1 537.2,240.8 538.3,252.0 539.4,252.9 540.5,252.0 541.6,259.5 542.7,248.6 543.8,255.6 544.9,255.6 546.0,256.2 547.1,252.6 548.2,250.4 549.3,247.5 550.3,235.3 551.4,257.7 552.5,239.4 553.6,217.5 554.7,244.7 555.8,243.3 556.9,247.4 558.0,248.5 559.1,245.5 560.2,244.6 561.3,247.9 562.4,251.0 563.5,248.9 564.6,252.3 565.6,249.7 566.7,252.3 567.8,258.4 568.9,260.8 570.0,239.5 571.1,262.6 572.2,268.1 573.3,271.0 574.4,253.1 575.5,249.5 576.6,256.8 577.7,242.4 578.8,244.6 579.9,235.9 580.9,245.9 582.0,252.1 583.1,240.5 584.2,234.4 585.3,239.0 586.4,241.9 587.5,235.1 588.6,252.6 589.7,245.0 590.8,244.3 591.9,262.3 593.0,305.5 594.1,249.9 595.2,245.8 596.3,258.9 597.3,255.9 598.4,253.1 599.5,256.3 600.6,245.1 601.7,242.3 602.8,240.8 603.9,242.9 605.0,248.5 606.1,241.0 607.2,237.3 608.3,242.1 609.4,239.8 610.5,236.5 611.6,241.5 612.6,247.0 613.7,243.4 614.8,245.8 615.9,248.9 617.0,238.6 618.1,251.6 619.2,249.4 620.3,276.3 621.4,259.7 622.5,250.9 623.6,269.4 624.7,251.6 625.8,254.3 626.9,253.9 627.9,248.4 629.0,238.0 630.1,246.8 631.2,247.0 632.3,245.2 633.4,246.2 634.5,236.4 635.6,240.2 636.7,239.9 637.8,265.2 638.9,243.4 640.0,244.6 641.1,240.0 642.2,250.6 643.2,252.1 644.3,260.3 645.4,245.6 646.5,263.7 647.6,248.6 648.7,262.8 649.8,265.9 650.9,248.1 652.0,254.3 653.1,247.2 654.2,252.3 655.3,246.3 656.4,251.2 657.5,245.4 658.6,241.8 659.6,237.3 660.7,251.5 661.8,246.1 662.9,239.7 664.0,238.8 665.1,245.5 666.2,247.4 667.3,254.5 668.4,236.8 669.5,251.2 670.6,251.9 671.7,255.6 672.8,260.8 673.9,260.8 674.9,256.8 676.0,248.6 677.1,250.9 678.2,258.6 679.3,252.0 680.4,247.8 681.5,242.0 682.6,235.9 683.7,240.3 684.8,241.3 685.9,243.0 687.0,250.0 688.1,251.4 689.2,248.2 690.2,247.2 691.3,243.8 692.4,247.8 693.5,250.6 694.6,243.7 695.7,249.4 696.8,257.8 697.9,256.4 699.0,266.0 700.1,253.2 701.2,257.3 702.3,254.9 703.4,263.9 704.5,255.6 705.5,243.4 706.6,246.3 707.7,236.2 708.8,243.4 709.9,247.6 711.0,232.1 712.1,245.1 713.2,241.1 714.3,245.4 715.4,244.3 716.5,245.7 717.6,244.9 718.7,237.9 719.8,243.8 720.8,240.4 721.9,257.6 723.0,256.3 724.1,256.7 725.2,257.1 726.3,257.2 727.4,263.0 728.5,256.8 729.6,255.5 730.7,256.1 731.8,252.2 732.9,269.8 734.0,254.4 735.1,246.0 736.2,249.9 737.2,237.3 738.3,240.6 739.4,246.0 740.5,254.5 741.6,250.8 742.7,250.9 743.8,252.8 744.9,243.7 746.0,250.9 747.1,251.9 748.2,264.5 749.3,263.0 750.4,262.2 751.5,258.8 752.5,264.6 753.6,255.8 754.7,263.3 755.8,253.6 756.9,256.9 758.0,252.5 759.1,255.3 760.2,252.6 761.3,246.8 762.4,248.8 763.5,241.7 764.6,242.1 765.7,248.9 766.8,250.9 767.8,245.3 768.9,247.8 770.0,246.7 771.1,252.2 772.2,248.6 773.3,256.6 774.4,253.4 775.5,255.6 776.6,260.2 777.7,251.7 778.8,253.8 779.9,264.5 781.0,255.3 782.1,263.6 783.1,248.5 784.2,252.2 785.3,250.8 786.4,253.1 787.5,244.8 788.6,253.0 789.7,244.6 790.8,248.3 791.9,251.8 793.0,245.9 794.1,246.0 795.2,261.2 796.3,255.5 797.4,251.8 798.4,251.4 799.5,254.2 800.6,255.0 801.7,255.0 802.8,265.9 803.9,248.1 805.0,272.1 806.1,254.3 807.2,257.3 808.3,258.3 809.4,243.2 810.5,251.2 811.6,252.1 812.7,251.2 813.8,251.9 814.8,266.5 815.9,260.3 817.0,243.4 818.1,245.9 819.2,345.6 820.3,341.0 821.4,341.4 822.5,339.1 823.6,340.1 824.7,345.0 825.8,343.8 826.9,343.3 828.0,343.1 829.1,343.9 830.1,341.5 831.2,341.0 832.3,342.3 833.4,341.5 834.5,345.3 835.6,340.9 836.7,350.1 837.8,340.2 838.9,342.7 840.0,340.3 841.1,340.1 842.2,341.1 843.3,339.5 844.4,343.3 845.4,343.2 846.5,340.7 847.6,342.2 848.7,341.2 849.8,341.9 850.9,340.0 852.0,344.3 853.1,338.1 854.2,340.6 855.3,342.6 856.4,342.9 857.5,342.3 858.6,345.1 859.7,342.7 860.7,342.9 861.8,340.6 862.9,341.6 864.0,339.6 865.1,341.3 866.2,341.5 867.3,341.0 868.4,342.0 869.5,339.2 870.6,339.6 871.7,340.4 872.8,340.9 873.9,335.8 875.0,335.6 876.1,334.7 877.1,340.2 878.2,340.4 879.3,340.3 880.4,339.6 881.5,342.0 882.6,341.5 883.7,342.0 884.8,343.1 885.9,342.0 887.0,340.6 888.1,334.9 889.2,339.8 890.3,340.6 891.4,340.3 892.4,338.2 893.5,339.3 894.6,338.7 895.7,346.4 896.8,288.7 897.9,339.1 899.0,340.3 900.1,342.0 901.2,341.7 902.3,339.6 903.4,312.1 904.5,343.5 905.6,342.2 906.7,322.7 907.7,348.9 908.8,344.5 909.9,342.6 911.0,342.4 912.1,337.4 913.2,336.7 914.3,331.5 915.4,316.9 916.5,313.8 917.6,336.5 918.7,339.3 919.8,351.6 920.9,341.7 922.0,317.1 923.0,341.6 924.1,334.3 925.2,338.9 926.3,348.0 927.4,317.1 928.5,340.6 929.6,341.7 930.7,340.6 931.8,319.1 932.9,347.2 934.0,345.5 935.1,345.7 936.2,345.8 937.3,345.1 938.3,346.2 939.4,346.7 940.5,351.1 941.6,313.1 942.7,349.0 943.8,346.7 944.9,345.7 946.0,344.5" fill="none" stroke="#7c3aed" stroke-width="2.2" stroke-linejoin="round" stroke-linecap="round"/>
<line x1="76" y1="70" x2="94" y2="70" stroke="#2563eb" stroke-width="3"/>
<text x="100" y="74" font-family="Arial, sans-serif" font-size="11" fill="#0f172a">tx count</text>
<line x1="186" y1="70" x2="204" y2="70" stroke="#7c3aed" stroke-width="3"/>
<text x="210" y="74" font-family="Arial, sans-serif" font-size="11" fill="#0f172a">unique accounts</text>
<text x="28" y="404" font-family="Arial, sans-serif" font-size="11" fill="#64748b">Source: hourly_features.csv; capped windows are sample counts</text>
</svg>