<svg xmlns="http://www.w3.org/2000/svg" width="980" height="420" viewBox="0 0 980 420">
<rect width="100%" height="100%" fill="#ffffff"/>
<text x="28" y="34" font-family="Arial, sans-serif" font-size="20" font-weight="700" fill="#0f172a">Network activity sample trend</text>
<text x="28" y="56" font-family="Arial, sans-serif" font-size="12" fill="#64748b">Hourly transaction sample count and unique account sample count</text>
<line x1="76" y1="362.0" x2="946" y2="362.0" stroke="#e2e8f0" stroke-width="1"/>
<text x="68" y="366.0" font-family="Arial, sans-serif" font-size="10" text-anchor="end" fill="#64748b">249</text>
<line x1="76" y1="292.0" x2="946" y2="292.0" stroke="#e2e8f0" stroke-width="1"/>
<text x="68" y="296.0" font-family="Arial, sans-serif" font-size="10" text-anchor="end" fill="#64748b">1K</text>
<line x1="76" y1="222.0" x2="946" y2="222.0" stroke="#e2e8f0" stroke-width="1"/>
<text x="68" y="226.0" font-family="Arial, sans-serif" font-size="10" text-anchor="end" fill="#64748b">3K</text>
<line x1="76" y1="152.0" x2="946" y2="152.0" stroke="#e2e8f0" stroke-width="1"/>
<text x="68" y="156.0" font-family="Arial, sans-serif" font-size="10" text-anchor="end" fill="#64748b">4K</text>
<line x1="76" y1="82.0" x2="946" y2="82.0" stroke="#e2e8f0" stroke-width="1"/>
<text x="68" y="86.0" font-family="Arial, sans-serif" font-size="10" text-anchor="end" fill="#64748b">5K</text>
<line x1="76" y1="362" x2="946" y2="362" stroke="#334155" stroke-width="1"/>
<line x1="76" y1="82" x2="76" y2="362" stroke="#334155" stroke-width="1"/>
<text x="76" y="72" font-family="Arial, sans-serif" font-size="11" fill="#64748b">count</text>
<line x1="76.0" y1="362" x2="76.0" y2="366" stroke="#334155" stroke-width="1"/>
<text x="76.0" y="380" font-family="Arial, sans-serif" font-size="10" text-anchor="middle" fill="#64748b">0</text>
<line x1="511.0" y1="362" x2="511.0" y2="366" stroke="#334155" stroke-width="1"/>
<text x="511.0" y="380" font-family="Arial, sans-serif" font-size="10" text-anchor="middle" fill="#64748b">380</text>
<line x1="946.0" y1="362" x2="946.0" y2="366" stroke="#334155" stroke-width="1"/>
<text x="946.0" y="380" font-family="Arial, sans-serif" font-size="10" text-anchor="middle" fill="#64748b">760</text>
<polyline points="76.0,92.4 77.1,92.4 78.3,92.4 79.4,92.4 80.6,92.4 81.7,92.4 82.9,92.4 84.0,92.4 85.2,92.4 86.3,92.4 87.4,92.4 88.6,92.4 89.7,92.4 90.9,92.4 92.0,92.4 93.2,92.4 94.3,92.4 95.5,92.4 96.6,92.4 97.8,92.4 98.9,92.4 100.0,92.4 101.2,92.4 102.3,92.4 103.5,92.4 104.6,92.4 105.8,92.4 106.9,92.4 108.1,92.4 109.2,92.4 110.3,92.4 111.5,92.4 112.6,92.4 113.8,92.4 114.9,92.4 116.1,92.4 117.2,92.4 118.4,92.4 119.5,92.4 120.6,92.4 121.8,92.4 122.9,92.4 124.1,92.4 125.2,92.4 126.4,92.4 127.5,92.4 128.7,92.4 129.8,92.4 130.9,92.4 132.1,92.4 133.2,92.4 134.4,92.4 135.5,92.4 136.7,92.4 137.8,92.4 139.0,92.4 140.1,92.4 141.2,92.4 142.4,92.4 143.5,92.4 144.7,92.4 145.8,92.4 147.0,92.4 148.1,92.4 149.3,92.4 150.4,92.4 151.6,92.4 152.7,92.4 153.8,92.4 155.0,92.4 156.1,92.4 157.3,92.4 158.4,92.4 159.6,92.4 160.7,92.4 161.9,92.4 163.0,92.4 164.1,92.4 165.3,92.4 166.4,92.4 167.6,92.4 168.7,92.4 169.9,92.4 171.0,92.4 172.2,92.4 173.3,92.4 174.4,92.4 175.6,92.4 176.7,92.4 177.9,92.4 179.0,92.4 180.2,92.4 181.3,92.4 182.5,92.4 183.6,92.4 184.8,92.4 185.9,92.4 187.0,92.4 188.2,92.4 189.3,92.4 190.5,92.4 191.6,92.4 192.8,92.4 193.9,92.4 195.1,92.4 196.2,92.4 197.3,92.4 198.5,92.4 199.6,92.4 200.8,92.4 201.9,92.4 203.1,92.4 204.2,92.4 205.4,92.4 206.5,92.4 207.6,92.4 208.8,92.4 209.9,92.4 211.1,92.4 212.2,92.4 213.4,92.4 214.5,92.4 215.7,92.4 216.8,92.4 217.9,92.4 219.1,92.4 220.2,92.4 221.4,92.4 222.5,92.4 223.7,92.4 224.8,92.4 226.0,92.4 227.1,92.4 228.2,92.4 229.4,92.4 230.5,92.4 231.7,92.4 232.8,92.4 234.0,92.4 235.1,92.4 236.3,92.4 237.4,92.4 238.6,92.4 239.7,92.4 240.8,92.4 242.0,92.4 243.1,92.4 244.3,92.4 245.4,92.4 246.6,92.4 247.7,92.4 248.9,92.4 250.0,92.4 251.1,92.4 252.3,92.4 253.4,92.4 254.6,92.4 255.7,92.4 256.9,92.4 258.0,92.4 259.2,92.4 260.3,92.4 261.4,92.4 262.6,92.4 263.7,92.4 264.9,92.4 266.0,92.4 267.2,92.4 268.3,92.4 269.5,92.4 270.6,92.4 271.8,92.4 272.9,92.4 274.0,92.4 275.2,92.4 276.3,92.4 277.5,92.4 278.6,92.4 279.8,92.4 280.9,92.4 282.1,92.4 283.2,92.4 284.3,92.4 285.5,92.4 286.6,92.4 287.8,92.4 288.9,92.4 290.1,92.4 291.2,92.4 292.4,92.4 293.5,92.4 294.6,92.4 295.8,92.4 296.9,92.4 298.1,92.4 299.2,92.4 300.4,92.4 301.5,92.4 302.7,92.4 303.8,92.4 304.9,92.4 306.1,92.4 307.2,92.4 308.4,92.4 309.5,92.4 310.7,92.4 311.8,92.4 313.0,92.4 314.1,92.4 315.2,92.4 316.4,92.4 317.5,92.4 318.7,92.4 319.8,92.4 321.0,92.4 322.1,92.4 323.3,92.4 324.4,92.4 325.6,92.4 326.7,92.4 327.8,92.4 329.0,92.4 330.1,92.4 331.3,92.4 332.4,92.4 333.6,92.4 334.7,92.4 335.9,92.4 337.0,92.4 338.1,92.4 339.3,92.4 340.4,92.4 341.6,92.4 342.7,92.4 343.9,92.4 345.0,92.4 346.2,92.4 347.3,92.4 348.4,92.4 349.6,92.4 350.7,92.4 351.9,92.4 353.0,92.4 354.2,92.4 355.3,92.4 356.5,92.4 357.6,92.4 358.8,92.4 359.9,92.4 361.0,92.4 362.2,92.4 363.3,92.4 364.5,92.4 365.6,92.4 366.8,92.4 367.9,92.4 369.1,92.4 370.2,92.4 371.3,92.4 372.5,92.4 373.6,92.4 374.8,92.4 375.9,92.4 377.1,92.4 378.2,92.4 379.4,92.4 380.5,92.4 381.6,92.4 382.8,92.4 383.9,92.4 385.1,92.4 386.2,92.4 387.4,92.4 388.5,92.4 389.7,92.4 390.8,92.4 391.9,92.4 393.1,92.4 394.2,92.4 395.4,92.4 396.5,92.4 397.7,92.4 398.8,92.4 400.0,92.4 401.1,92.4 402.2,92.4 403.4,92.4 404.5,92.4 405.7,92.4 406.8,92.4 408.0,92.4 409.1,92.4 410.3,92.4 411.4,92.4 412.6,92.4 413.7,92.4 414.8,92.4 416.0,92.4 417.1,92.4 418.3,92.4 419.4,92.4 420.6,92.4 421.7,92.4 422.9,92.4 424.0,92.4 425.1,92.4 426.3,92.4 427.4,92.4 428.6,92.4 429.7,92.4 430.9,92.4 432.0,92.4 433.2,92.4 434.3,92.4 435.4,92.4 436.6,92.4 437.7,92.4 438.9,92.4 440.0,92.4 441.2,92.4 442.3,92.4 443.5,92.4 444.6,92.4 445.8,92.4 446.9,92.4 448.0,92.4 449.2,92.4 450.3,92.4 451.5,92.4 452.6,92.4 453.8,92.4 454.9,92.4 456.1,92.4 457.2,92.4 458.3,92.4 459.5,92.4 460.6,92.4 461.8,92.4 462.9,92.4 464.1,92.4 465.2,92.4 466.4,92.4 467.5,92.4 468.6,92.4 469.8,92.4 470.9,92.4 472.1,92.4 473.2,92.4 474.4,92.4 475.5,92.4 476.7,92.4 477.8,92.4 478.9,92.4 480.1,92.4 481.2,92.4 482.4,92.4 483.5,92.4 484.7,92.4 485.8,92.4 487.0,92.4 488.1,92.4 489.2,92.4 490.4,92.4 491.5,92.4 492.7,92.4 493.8,92.4 495.0,92.4 496.1,92.4 497.3,92.4 498.4,92.4 499.6,92.4 500.7,92.4 501.8,92.4 503.0,92.4 504.1,92.4 505.3,92.4 506.4,92.4 507.6,92.4 508.7,92.4 509.9,92.4 511.0,92.4 512.1,92.4 513.3,92.4 514.4,92.4 515.6,92.4 516.7,92.4 517.9,92.4 519.0,92.4 520.2,92.4 521.3,92.4 522.4,92.4 523.6,92.4 524.7,92.4 525.9,92.4 527.0,92.4 528.2,92.4 529.3,92.4 530.5,92.4 531.6,92.4 532.8,92.4 533.9,92.4 535.0,92.4 536.2,92.4 537.3,92.4 538.5,92.4 539.6,92.4 540.8,92.4 541.9,92.4 543.1,92.4 544.2,92.4 545.3,92.4 546.5,92.4 547.6,92.4 548.8,92.4 549.9,92.4 551.1,92.4 552.2,92.4 553.4,92.4 554.5,92.4 555.6,92.4 556.8,92.4 557.9,92.4 559.1,92.4 560.2,92.4 561.4,92.4 562.5,92.4 563.7,92.4 564.8,92.4 565.9,92.4 567.1,92.4 568.2,92.4 569.4,92.4 570.5,92.4 571.7,92.4 572.8,92.4 574.0,92.4 575.1,92.4 576.2,92.4 577.4,92.4 578.5,92.4 579.7,92.4 580.8,92.4 582.0,92.4 583.1,92.4 584.3,92.4 585.4,92.4 586.6,92.4 587.7,92.4 588.8,92.4 590.0,92.4 591.1,92.4 592.3,92.4 593.4,92.4 594.6,92.4 595.7,92.4 596.9,92.4 598.0,92.4 599.1,92.4 600.3,92.4 601.4,92.4 602.6,92.4 603.7,92.4 604.9,92.4 606.0,92.4 607.2,92.4 608.3,92.4 609.4,92.4 610.6,92.4 611.7,92.4 612.9,92.4 614.0,92.4 615.2,92.4 616.3,92.4 617.5,92.4 618.6,92.4 619.8,92.4 620.9,92.4 622.0,92.4 623.2,92.4 624.3,92.4 625.5,92.4 626.6,92.4 627.8,92.4 628.9,92.4 630.1,92.4 631.2,92.4 632.3,92.4 633.5,92.4 634.6,92.4 635.8,92.4 636.9,92.4 638.1,92.4 639.2,92.4 640.4,92.4 641.5,92.4 642.6,92.4 643.8,92.4 644.9,92.4 646.1,92.4 647.2,92.4 648.4,92.4 649.5,92.4 650.7,92.4 651.8,92.4 652.9,92.4 654.1,92.4 655.2,92.4 656.4,92.4 657.5,92.4 658.7,92.4 659.8,92.4 661.0,92.4 662.1,92.4 663.2,92.4 664.4,92.4 665.5,92.4 666.7,92.4 667.8,92.4 669.0,92.4 670.1,92.4 671.3,92.4 672.4,92.4 673.6,92.4 674.7,92.4 675.8,92.4 677.0,92.4 678.1,92.4 679.3,92.4 680.4,92.4 681.6,92.4 682.7,92.4 683.9,92.4 685.0,92.4 686.1,92.4 687.3,92.4 688.4,92.4 689.6,92.4 690.7,92.4 691.9,92.4 693.0,92.4 694.2,92.4 695.3,92.4 696.4,92.4 697.6,92.4 698.7,92.4 699.9,92.4 701.0,92.4 702.2,92.4 703.3,92.4 704.5,92.4 705.6,92.4 706.8,92.4 707.9,92.4 709.0,92.4 710.2,92.4 711.3,92.4 712.5,92.4 713.6,92.4 714.8,92.4 715.9,92.4 717.1,92.4 718.2,92.4 719.3,92.4 720.5,92.4 721.6,92.4 722.8,92.4 723.9,92.4 725.1,92.4 726.2,92.4 727.4,92.4 728.5,92.4 729.6,92.4 730.8,92.4 731.9,92.4 733.1,92.4 734.2,92.4 735.4,92.4 736.5,92.4 737.7,92.4 738.8,92.4 739.9,92.4 741.1,92.4 742.2,92.4 743.4,92.4 744.5,92.4 745.7,92.4 746.8,92.4 748.0,92.4 749.1,92.4 750.2,92.4 751.4,92.4 752.5,92.4 753.7,92.4 754.8,92.4 756.0,92.4 757.1,92.4 758.3,92.4 759.4,92.4 760.6,92.4 761.7,92.4 762.8,92.4 764.0,92.4 765.1,92.4 766.3,92.4 767.4,92.4 768.6,92.4 769.7,92.4 770.9,92.4 772.0,92.4 773.1,92.4 774.3,92.4 775.4,92.4 776.6,92.4 777.7,92.4 778.9,92.4 780.0,92.4 781.2,92.4 782.3,92.4 783.4,92.4 784.6,92.4 785.7,92.4 786.9,92.4 788.0,92.4 789.2,92.4 790.3,92.4 791.5,92.4 792.6,92.4 793.8,92.4 794.9,92.4 796.0,92.4 797.2,92.4 798.3,92.4 799.5,92.4 800.6,92.4 801.8,92.4 802.9,92.4 804.1,92.4 805.2,92.4 806.3,92.4 807.5,92.4 808.6,92.4 809.8,92.4 810.9,92.4 812.1,92.4 813.2,92.4 814.4,92.4 815.5,92.4 816.6,92.4 817.8,92.4 818.9,92.4 820.1,92.4 821.2,92.4 822.4,92.4 823.5,92.4 824.7,92.4 825.8,92.4 826.9,92.4 828.1,92.4 829.2,92.4 830.4,92.4 831.5,92.4 832.7,92.4 833.8,92.4 835.0,92.4 836.1,92.4 837.2,92.4 838.4,92.4 839.5,92.4 840.7,92.4 841.8,92.4 843.0,92.4 844.1,92.4 845.3,92.4 846.4,92.4 847.6,92.4 848.7,92.4 849.8,92.4 851.0,92.4 852.1,92.4 853.3,92.4 854.4,319.4 855.6,319.4 856.7,319.4 857.9,319.4 859.0,319.4 860.1,319.4 861.3,319.4 862.4,319.4 863.6,319.4 864.7,319.4 865.9,319.4 867.0,319.4 868.2,319.4 869.3,319.4 870.4,319.4 871.6,319.4 872.7,319.4 873.9,319.4 875.0,319.4 876.2,319.4 877.3,319.4 878.5,319.4 879.6,319.4 880.8,319.4 881.9,319.4 883.0,319.4 884.2,319.4 885.3,319.4 886.5,319.4 887.6,319.4 888.8,319.4 889.9,319.4 891.1,319.4 892.2,319.4 893.3,319.4 894.5,319.4 895.6,319.4 896.8,319.4 897.9,319.4 899.1,319.4 900.2,319.4 901.4,319.4 902.5,319.4 903.6,319.4 904.8,319.4 905.9,319.4 907.1,319.4 908.2,319.4 909.4,319.4 910.5,319.4 911.7,319.4 912.8,319.4 913.9,319.4 915.1,319.4 916.2,319.4 917.4,319.4 918.5,319.4 919.7,319.4 920.8,319.4 922.0,319.4 923.1,319.4 924.2,319.4 925.4,319.4 926.5,319.4 927.7,319.4 928.8,319.4 930.0,319.4 931.1,319.4 932.3,319.4 933.4,319.4 934.6,319.4 935.7,207.7 936.8,319.4 938.0,319.4 939.1,319.4 940.3,319.4 941.4,319.4 942.6,264.5 943.7,319.4 944.9,319.4 946.0,319.4" fill="none" stroke="#2563eb" stroke-width="2.2" stroke-linejoin="round" stroke-linecap="round"/>
<polyline points="76.0,263.8 77.1,259.8 78.3,250.4 79.4,248.2 80.6,251.9 81.7,241.2 82.9,240.6 84.0,244.5 85.2,249.4 86.3,249.0 87.4,265.7 88.6,247.0 89.7,246.2 90.9,247.8 92.0,252.0 93.2,260.4 94.3,257.5 95.5,255.1 96.6,252.6 97.8,257.6 98.9,262.5 100.0,258.5 101.2,256.6 102.3,256.2 103.5,250.2 104.6,248.6 105.8,250.7 106.9,242.0 108.1,233.4 109.2,242.1 110.3,244.5 111.5,258.3 112.6,252.0 113.8,251.6 114.9,256.2 116.1,251.5 117.2,248.3 118.4,254.4 119.5,248.1 120.6,247.9 121.8,245.6 122.9,262.9 124.1,259.2 125.2,255.1 126.4,220.6 127.5,223.1 128.7,256.3 129.8,252.2 130.9,238.2 132.1,220.1 133.2,240.8 134.4,252.1 135.5,244.9 136.7,243.0 137.8,244.8 139.0,247.7 140.1,245.3 141.2,250.9 142.4,242.2 143.5,247.9 144.7,239.7 145.8,246.3 147.0,244.9 148.1,286.3 149.3,271.1 150.4,263.3 151.6,271.2 152.7,268.1 153.8,239.4 155.0,234.7 156.1,244.4 157.3,260.9 158.4,273.5 159.6,247.0 160.7,246.4 161.9,249.0 163.0,262.1 164.1,251.3 165.3,260.1 166.4,246.8 167.6,241.4 168.7,254.9 169.9,250.8 171.0,255.6 172.2,256.7 173.3,255.0 174.4,263.0 175.6,252.4 176.7,252.4 177.9,254.7 179.0,250.9 180.2,269.3 181.3,232.3 182.5,256.8 183.6,252.0 184.8,219.0 185.9,257.5 187.0,246.2 188.2,248.8 189.3,227.7 190.5,247.1 191.6,249.3 192.8,241.9 193.9,250.4 195.1,244.5 196.2,251.1 197.3,245.3 198.5,243.7 199.6,243.6 200.8,249.1 201.9,246.3 203.1,252.8 204.2,238.7 205.4,252.4 206.5,253.6 207.6,251.9 208.8,220.8 209.9,204.2 211.1,215.5 212.2,216.5 213.4,216.0 214.5,225.7 215.7,221.1 216.8,216.7 217.9,244.5 219.1,247.3 220.2,242.8 221.4,244.1 222.5,243.1 223.7,242.6 224.8,243.6 226.0,245.5 227.1,244.3 228.2,246.0 229.4,250.7 230.5,246.0 231.7,259.2 232.8,258.8 234.0,249.1 235.1,264.3 236.3,291.5 237.4,255.2 238.6,269.3 239.7,256.6 240.8,254.3 242.0,254.6 243.1,251.7 244.3,252.8 245.4,246.2 246.6,252.1 247.7,245.2 248.9,243.3 250.0,241.6 251.1,243.6 252.3,252.4 253.4,265.1 254.6,248.1 255.7,253.2 256.9,251.9 258.0,254.1 259.2,254.4 260.3,259.6 261.4,261.8 262.6,260.1 263.7,293.3 264.9,256.7 266.0,271.3 267.2,237.1 268.3,253.1 269.5,246.0 270.6,250.0 271.8,241.4 272.9,243.6 274.0,249.7 275.2,244.0 276.3,237.5 277.5,246.6 278.6,248.4 279.8,242.3 280.9,246.1 282.1,246.0 283.2,247.8 284.3,248.8 285.5,252.7 286.6,254.2 287.8,260.1 288.9,264.5 290.1,253.2 291.2,286.7 292.4,252.7 293.5,256.1 294.6,251.6 295.8,250.7 296.9,243.9 298.1,243.3 299.2,243.1 300.4,241.9 301.5,248.3 302.7,249.0 303.8,259.9 304.9,258.3 306.1,254.7 307.2,251.1 308.4,256.8 309.5,248.5 310.7,254.5 311.8,246.8 313.0,254.4 314.1,259.1 315.2,262.4 316.4,260.0 317.5,267.3 318.7,298.8 319.8,261.0 321.0,261.3 322.1,259.6 323.3,258.8 324.4,250.5 325.6,248.9 326.7,246.8 327.8,253.3 329.0,249.8 330.1,246.3 331.3,246.4 332.4,242.1 333.6,249.1 334.7,241.2 335.9,242.3 337.0,241.8 338.1,256.8 339.3,256.5 340.4,255.1 341.6,260.4 342.7,274.4 343.9,258.9 345.0,261.6 346.2,259.2 347.3,253.3 348.4,232.8 349.6,220.4 350.7,258.6 351.9,246.0 353.0,229.0 354.2,225.3 355.3,224.9 356.5,224.6 357.6,223.5 358.8,240.2 359.9,232.6 361.0,236.1 362.2,236.9 363.3,246.6 364.5,257.8 365.6,267.5 366.8,246.1 367.9,285.0 369.1,251.1 370.2,266.2 371.3,257.9 372.5,259.5 373.6,267.0 374.8,250.5 375.9,210.5 377.1,221.4 378.2,223.8 379.4,226.5 380.5,215.9 381.6,228.2 382.8,222.8 383.9,209.7 385.1,242.9 386.2,240.7 387.4,249.9 388.5,252.4 389.7,248.4 390.8,244.6 391.9,253.6 393.1,251.2 394.2,249.7 395.4,268.5 396.5,253.2 397.7,248.6 398.8,260.0 400.0,228.0 401.1,212.1 402.2,217.6 403.4,256.8 404.5,252.5 405.7,246.3 406.8,271.4 408.0,240.3 409.1,245.7 410.3,244.2 411.4,251.7 412.6,233.3 413.7,243.7 414.8,245.6 416.0,266.5 417.1,240.1 418.3,245.6 419.4,243.7 420.6,248.8 421.7,247.7 422.9,264.7 424.0,251.8 425.1,259.2 426.3,255.7 427.4,252.7 428.6,266.1 429.7,253.6 430.9,260.2 432.0,264.9 433.2,254.9 434.3,230.9 435.4,225.0 436.6,258.9 437.7,246.7 438.9,253.8 440.0,256.5 441.2,249.0 442.3,252.1 443.5,251.1 444.6,249.4 445.8,246.3 446.9,266.1 448.0,264.1 449.2,259.3 450.3,263.4 451.5,260.0 452.6,284.9 453.8,277.7 454.9,274.2 456.1,277.7 457.2,283.9 458.3,283.7 459.5,278.9 460.6,282.8 461.8,284.7 462.9,279.6 464.1,277.2 465.2,266.8 466.4,252.1 467.5,260.7 468.6,274.5 469.8,262.1 470.9,264.5 472.1,258.8 473.2,266.7 474.4,263.3 475.5,263.1 476.7,263.1 477.8,255.3 478.9,263.8 480.1,258.4 481.2,262.5 482.4,250.5 483.5,255.9 484.7,261.7 485.8,263.8 487.0,264.8 488.1,260.3 489.2,259.5 490.4,253.3 491.5,252.5 492.7,255.4 493.8,234.5 495.0,247.7 496.1,260.0 497.3,248.4 498.4,245.3 499.6,250.6 500.7,252.4 501.8,254.2 503.0,253.7 504.1,255.5 505.3,256.1 506.4,252.1 507.6,263.0 508.7,261.6 509.9,266.7 511.0,261.3 512.1,266.5 513.3,258.3 514.4,254.9 515.6,262.6 516.7,245.2 517.9,254.1 519.0,246.6 520.2,250.2 521.3,236.0 522.4,244.0 523.6,249.1 524.7,256.7 525.9,237.2 527.0,252.0 528.2,237.6 529.3,243.5 530.5,248.7 531.6,247.1 532.8,247.8 533.9,246.5 535.0,254.2 536.2,267.2 537.3,258.9 538.5,215.3 539.6,221.8 540.8,217.9 541.9,232.4 543.1,221.6 544.2,222.1 545.3,229.8 546.5,251.2 547.6,249.0 548.8,235.2 549.9,246.9 551.1,246.0 552.2,253.9 553.4,246.9 554.5,248.4 555.6,249.2 556.8,248.6 557.9,240.0 559.1,241.8 560.2,252.9 561.4,253.8 562.5,252.9 563.7,260.5 564.8,249.5 565.9,256.6 567.1,256.6 568.2,257.2 569.4,253.6 570.5,251.4 571.7,248.4 572.8,236.1 574.0,258.7 575.1,240.3 576.2,218.3 577.4,245.7 578.5,244.2 579.7,248.3 580.8,249.5 582.0,246.5 583.1,245.5 584.3,248.9 585.4,252.0 586.6,249.8 587.7,253.3 588.8,250.7 590.0,253.3 591.1,259.5 592.3,261.8 593.4,240.4 594.6,263.7 595.7,269.2 596.9,272.1 598.0,254.1 599.1,250.4 600.3,257.8 601.4,243.3 602.6,245.6 603.7,236.8 604.9,246.8 606.0,253.1 607.2,241.4 608.3,235.3 609.4,239.9 610.6,242.8 611.7,236.0 612.9,253.6 614.0,245.9 615.2,245.2 616.3,263.3 617.5,306.8 618.6,250.9 619.8,246.7 620.9,259.9 622.0,256.9 623.2,254.1 624.3,257.3 625.5,246.1 626.6,243.2 627.8,241.8 628.9,243.8 630.1,249.5 631.2,241.9 632.3,238.2 633.5,243.0 634.6,240.7 635.8,237.4 636.9,242.4 638.1,247.9 639.2,244.4 640.4,246.7 641.5,249.9 642.6,239.5 643.8,252.6 644.9,250.3 646.1,277.4 647.2,260.7 648.4,251.9 649.5,270.5 650.7,252.5 651.8,255.3 652.9,254.9 654.1,249.4 655.2,238.9 656.4,247.7 657.5,248.0 658.7,246.1 659.8,247.1 661.0,237.3 662.1,241.1 663.2,240.8 664.4,266.2 665.5,244.4 666.7,245.6 667.8,240.9 669.0,251.6 670.1,253.0 671.3,261.3 672.4,246.5 673.6,264.8 674.7,249.5 675.8,263.9 677.0,267.0 678.1,249.1 679.3,255.3 680.4,248.2 681.6,253.3 682.7,247.3 683.9,252.2 685.0,246.3 686.1,242.7 687.3,238.2 688.4,252.5 689.6,247.0 690.7,240.6 691.9,239.7 693.0,246.4 694.2,248.3 695.3,255.5 696.4,237.7 697.6,252.1 698.7,252.9 699.9,256.6 701.0,261.8 702.2,261.8 703.3,257.8 704.5,249.5 705.6,251.9 706.8,259.6 707.9,252.9 709.0,248.8 710.2,242.9 711.3,236.8 712.5,241.2 713.6,242.3 714.8,244.0 715.9,251.0 717.1,252.4 718.2,249.1 719.3,248.1 720.5,244.7 721.6,248.8 722.8,251.6 723.9,244.6 725.1,250.4 726.2,258.8 727.4,257.4 728.5,267.1 729.6,254.2 730.8,258.3 731.9,255.9 733.1,264.9 734.2,256.6 735.4,244.4 736.5,247.3 737.7,237.1 738.8,244.3 739.9,248.6 741.1,233.0 742.2,246.1 743.4,242.0 744.5,246.3 745.7,245.3 746.8,246.6 748.0,245.8 749.1,238.7 750.2,244.7 751.4,241.4 752.5,258.6 753.7,257.3 754.8,257.7 756.0,258.2 757.1,258.2 758.3,264.1 759.4,257.8 760.6,256.5 761.7,257.1 762.8,253.2 764.0,270.9 765.1,255.4 766.3,247.0 767.4,250.9 768.6,238.2 769.7,241.5 770.9,247.0 772.0,255.5 773.1,251.8 774.3,251.9 775.4,253.8 776.6,244.6 777.7,251.9 778.9,252.9 780.0,265.6 781.2,264.0 782.3,263.3 783.4,259.9 784.6,265.7 785.7,256.8 786.9,264.3 788.0,254.6 789.2,257.9 790.3,253.5 791.5,256.3 792.6,253.6 793.8,247.7 794.9,249.8 796.0,242.6 797.2,243.1 798.3,249.9 799.5,251.9 800.6,246.2 801.8,248.8 802.9,247.6 804.1,253.2 805.2,249.5 806.3,257.6 807.5,254.4 808.6,256.6 809.8,261.3 810.9,252.7 812.1,254.7 813.2,265.6 814.4,256.3 815.5,264.6 816.6,249.4 817.8,253.2 818.9,251.8 820.1,254.1 821.2,245.8 822.4,254.0 823.5,245.5 824.7,249.3 825.8,252.8 826.9,246.9 828.1,247.0 829.2,262.2 830.4,256.5 831.5,252.8 832.7,252.4 833.8,255.2 835.0,256.0 836.1,256.0 837.2,267.0 838.4,249.1 839.5,273.2 840.7,255.3 841.8,258.3 843.0,259.3 844.1,244.1 845.3,252.2 846.4,253.0 847.6,252.1 848.7,252.9 849.8,267.6 851.0,261.3 852.1,244.3 853.3,246.8 854.4,347.1 855.6,342.5 856.7,342.9 857.9,340.6 859.0,341.6 860.1,346.5 861.3,345.4 862.4,344.8 863.6,344.6 864.7,345.4 865.9,343.1 867.0,342.5 868.2,343.8 869.3,343.0 870.4,346.9 871.6,342.4 872.7,351.6 873.9,341.8 875.0,344.2 876.2,341.8 877.3,341.6 878.5,342.6 879.6,341.0 880.8,344.8 881.9,344.8 883.0,342.2 884.2,343.7 885.3,342.7 886.5,343.4 887.6,341.5 888.8,345.8 889.9,339.6 891.1,342.2 892.2,344.1 893.3,344.4 894.5,343.8 895.6,346.7 896.8,344.3 897.9,344.4 899.1,342.1 900.2,343.1 901.4,341.1 902.5,342.8 903.6,343.0 904.8,342.5 905.9,343.6 907.1,340.7 908.2,341.1 909.4,341.9 910.5,342.4 911.7,337.3 912.8,337.0 913.9,336.2 915.1,341.8 916.2,341.9 917.4,341.8 918.5,341.1 919.7,343.6 920.8,343.0 922.0,343.6 923.1,344.6 924.2,343.6 925.4,342.1 926.5,336.4 927.7,341.4 928.8,342.1 930.0,341.9 931.1,339.7 932.3,340.8 933.4,340.2 934.6,348.0 935.7,289.9 936.8,340.6 938.0,341.9 939.1,343.6 940.3,343.2 941.4,341.1 942.6,313.4 943.7,345.0 944.9,343.7 946.0,346.8" fill="none" stroke="#7c3aed" stroke-width="2.2" stroke-linejoin="round" stroke-linecap="round"/>
<line x1="76" y1="70" x2="94" y2="70" stroke="#2563eb" stroke-width="3"/>
<text x="100" y="74" font-family="Arial, sans-serif" font-size="11" fill="#0f172a">tx count</text>
<line x1="186" y1="70" x2="204" y2="70" stroke="#7c3aed" stroke-width="3"/>
<text x="210" y="74" font-family="Arial, sans-serif" font-size="11" fill="#0f172a">unique accounts</text>
<text x="28" y="404" font-family="Arial, sans-serif" font-size="11" fill="#64748b">Source: hourly_features.csv; capped windows are sample counts</text>
</svg>