<svg xmlns="http://www.w3.org/2000/svg" width="980" height="420" viewBox="0 0 980 420">
<rect width="100%" height="100%" fill="#ffffff"/>
<text x="28" y="34" font-family="Arial, sans-serif" font-size="20" font-weight="700" fill="#0f172a">Network activity sample trend</text>
<text x="28" y="56" font-family="Arial, sans-serif" font-size="12" fill="#64748b">Hourly transaction sample count and unique account sample count</text>
<line x1="76" y1="362.0" x2="946" y2="362.0" stroke="#e2e8f0" stroke-width="1"/>
<text x="68" y="366.0" font-family="Arial, sans-serif" font-size="10" text-anchor="end" fill="#64748b">220</text>
<line x1="76" y1="292.0" x2="946" y2="292.0" stroke="#e2e8f0" stroke-width="1"/>
<text x="68" y="296.0" font-family="Arial, sans-serif" font-size="10" text-anchor="end" fill="#64748b">1K</text>
<line x1="76" y1="222.0" x2="946" y2="222.0" stroke="#e2e8f0" stroke-width="1"/>
<text x="68" y="226.0" font-family="Arial, sans-serif" font-size="10" text-anchor="end" fill="#64748b">3K</text>
<line x1="76" y1="152.0" x2="946" y2="152.0" stroke="#e2e8f0" stroke-width="1"/>
<text x="68" y="156.0" font-family="Arial, sans-serif" font-size="10" text-anchor="end" fill="#64748b">4K</text>
<line x1="76" y1="82.0" x2="946" y2="82.0" stroke="#e2e8f0" stroke-width="1"/>
<text x="68" y="86.0" font-family="Arial, sans-serif" font-size="10" text-anchor="end" fill="#64748b">5K</text>
<line x1="76" y1="362" x2="946" y2="362" stroke="#334155" stroke-width="1"/>
<line x1="76" y1="82" x2="76" y2="362" stroke="#334155" stroke-width="1"/>
<text x="76" y="72" font-family="Arial, sans-serif" font-size="11" fill="#64748b">count</text>
<line x1="76.0" y1="362" x2="76.0" y2="366" stroke="#334155" stroke-width="1"/>
<text x="76.0" y="380" font-family="Arial, sans-serif" font-size="10" text-anchor="middle" fill="#64748b">0</text>
<line x1="511.5" y1="362" x2="511.5" y2="366" stroke="#334155" stroke-width="1"/>
<text x="511.5" y="380" font-family="Arial, sans-serif" font-size="10" text-anchor="middle" fill="#64748b">427</text>
<line x1="946.0" y1="362" x2="946.0" y2="366" stroke="#334155" stroke-width="1"/>
<text x="946.0" y="380" font-family="Arial, sans-serif" font-size="10" text-anchor="middle" fill="#64748b">853</text>
<polyline points="76.0,92.4 77.0,92.4 78.0,92.4 79.1,92.4 80.1,92.4 81.1,92.4 82.1,92.4 83.1,92.4 84.2,92.4 85.2,92.4 86.2,92.4 87.2,92.4 88.2,92.4 89.3,92.4 90.3,92.4 91.3,92.4 92.3,92.4 93.3,92.4 94.4,92.4 95.4,92.4 96.4,92.4 97.4,92.4 98.4,92.4 99.5,92.4 100.5,92.4 101.5,92.4 102.5,92.4 103.5,92.4 104.6,92.4 105.6,92.4 106.6,92.4 107.6,92.4 108.6,92.4 109.7,92.4 110.7,92.4 111.7,92.4 112.7,92.4 113.7,92.4 114.8,92.4 115.8,92.4 116.8,92.4 117.8,92.4 118.8,92.4 119.9,92.4 120.9,92.4 121.9,92.4 122.9,92.4 123.9,92.4 125.0,92.4 126.0,92.4 127.0,92.4 128.0,92.4 129.0,92.4 130.1,92.4 131.1,92.4 132.1,92.4 133.1,92.4 134.1,92.4 135.2,92.4 136.2,92.4 137.2,92.4 138.2,92.4 139.2,92.4 140.3,92.4 141.3,92.4 142.3,92.4 143.3,92.4 144.3,92.4 145.4,92.4 146.4,92.4 147.4,92.4 148.4,92.4 149.4,92.4 150.5,92.4 151.5,92.4 152.5,92.4 153.5,92.4 154.5,92.4 155.6,92.4 156.6,92.4 157.6,92.4 158.6,92.4 159.6,92.4 160.7,92.4 161.7,92.4 162.7,92.4 163.7,92.4 164.7,92.4 165.8,92.4 166.8,92.4 167.8,92.4 168.8,92.4 169.8,92.4 170.9,92.4 171.9,92.4 172.9,92.4 173.9,92.4 174.9,92.4 176.0,92.4 177.0,92.4 178.0,92.4 179.0,92.4 180.0,92.4 181.1,92.4 182.1,92.4 183.1,92.4 184.1,92.4 185.1,92.4 186.2,92.4 187.2,92.4 188.2,92.4 189.2,92.4 190.2,92.4 191.3,92.4 192.3,92.4 193.3,92.4 194.3,92.4 195.3,92.4 196.4,92.4 197.4,92.4 198.4,92.4 199.4,92.4 200.4,92.4 201.5,92.4 202.5,92.4 203.5,92.4 204.5,92.4 205.5,92.4 206.6,92.4 207.6,92.4 208.6,92.4 209.6,92.4 210.6,92.4 211.7,92.4 212.7,92.4 213.7,92.4 214.7,92.4 215.7,92.4 216.8,92.4 217.8,92.4 218.8,92.4 219.8,92.4 220.8,92.4 221.8,92.4 222.9,92.4 223.9,92.4 224.9,92.4 225.9,92.4 226.9,92.4 228.0,92.4 229.0,92.4 230.0,92.4 231.0,92.4 232.0,92.4 233.1,92.4 234.1,92.4 235.1,92.4 236.1,92.4 237.1,92.4 238.2,92.4 239.2,92.4 240.2,92.4 241.2,92.4 242.2,92.4 243.3,92.4 244.3,92.4 245.3,92.4 246.3,92.4 247.3,92.4 248.4,92.4 249.4,92.4 250.4,92.4 251.4,92.4 252.4,92.4 253.5,92.4 254.5,92.4 255.5,92.4 256.5,92.4 257.5,92.4 258.6,92.4 259.6,92.4 260.6,92.4 261.6,92.4 262.6,92.4 263.7,92.4 264.7,92.4 265.7,92.4 266.7,92.4 267.7,92.4 268.8,92.4 269.8,92.4 270.8,92.4 271.8,92.4 272.8,92.4 273.9,92.4 274.9,92.4 275.9,92.4 276.9,92.4 277.9,92.4 279.0,92.4 280.0,92.4 281.0,92.4 282.0,92.4 283.0,92.4 284.1,92.4 285.1,92.4 286.1,92.4 287.1,92.4 288.1,92.4 289.2,92.4 290.2,92.4 291.2,92.4 292.2,92.4 293.2,92.4 294.3,92.4 295.3,92.4 296.3,92.4 297.3,92.4 298.3,92.4 299.4,92.4 300.4,92.4 301.4,92.4 302.4,92.4 303.4,92.4 304.5,92.4 305.5,92.4 306.5,92.4 307.5,92.4 308.5,92.4 309.6,92.4 310.6,92.4 311.6,92.4 312.6,92.4 313.6,92.4 314.7,92.4 315.7,92.4 316.7,92.4 317.7,92.4 318.7,92.4 319.8,92.4 320.8,92.4 321.8,92.4 322.8,92.4 323.8,92.4 324.9,92.4 325.9,92.4 326.9,92.4 327.9,92.4 328.9,92.4 330.0,92.4 331.0,92.4 332.0,92.4 333.0,92.4 334.0,92.4 335.1,92.4 336.1,92.4 337.1,92.4 338.1,92.4 339.1,92.4 340.2,92.4 341.2,92.4 342.2,92.4 343.2,92.4 344.2,92.4 345.3,92.4 346.3,92.4 347.3,92.4 348.3,92.4 349.3,92.4 350.4,92.4 351.4,92.4 352.4,92.4 353.4,92.4 354.4,92.4 355.5,92.4 356.5,92.4 357.5,92.4 358.5,92.4 359.5,92.4 360.6,92.4 361.6,92.4 362.6,92.4 363.6,92.4 364.6,92.4 365.7,92.4 366.7,92.4 367.7,92.4 368.7,92.4 369.7,92.4 370.8,92.4 371.8,92.4 372.8,92.4 373.8,92.4 374.8,92.4 375.9,92.4 376.9,92.4 377.9,92.4 378.9,92.4 379.9,92.4 381.0,92.4 382.0,92.4 383.0,92.4 384.0,92.4 385.0,92.4 386.1,92.4 387.1,92.4 388.1,92.4 389.1,92.4 390.1,92.4 391.2,92.4 392.2,92.4 393.2,92.4 394.2,92.4 395.2,92.4 396.3,92.4 397.3,92.4 398.3,92.4 399.3,92.4 400.3,92.4 401.4,92.4 402.4,92.4 403.4,92.4 404.4,92.4 405.4,92.4 406.5,92.4 407.5,92.4 408.5,92.4 409.5,92.4 410.5,92.4 411.6,92.4 412.6,92.4 413.6,92.4 414.6,92.4 415.6,92.4 416.7,92.4 417.7,92.4 418.7,92.4 419.7,92.4 420.7,92.4 421.8,92.4 422.8,92.4 423.8,92.4 424.8,92.4 425.8,92.4 426.9,92.4 427.9,92.4 428.9,92.4 429.9,92.4 430.9,92.4 432.0,92.4 433.0,92.4 434.0,92.4 435.0,92.4 436.0,92.4 437.1,92.4 438.1,92.4 439.1,92.4 440.1,92.4 441.1,92.4 442.2,92.4 443.2,92.4 444.2,92.4 445.2,92.4 446.2,92.4 447.3,92.4 448.3,92.4 449.3,92.4 450.3,92.4 451.3,92.4 452.4,92.4 453.4,92.4 454.4,92.4 455.4,92.4 456.4,92.4 457.5,92.4 458.5,92.4 459.5,92.4 460.5,92.4 461.5,92.4 462.6,92.4 463.6,92.4 464.6,92.4 465.6,92.4 466.6,92.4 467.7,92.4 468.7,92.4 469.7,92.4 470.7,92.4 471.7,92.4 472.8,92.4 473.8,92.4 474.8,92.4 475.8,92.4 476.8,92.4 477.9,92.4 478.9,92.4 479.9,92.4 480.9,92.4 481.9,92.4 483.0,92.4 484.0,92.4 485.0,92.4 486.0,92.4 487.0,92.4 488.1,92.4 489.1,92.4 490.1,92.4 491.1,92.4 492.1,92.4 493.2,92.4 494.2,92.4 495.2,92.4 496.2,92.4 497.2,92.4 498.3,92.4 499.3,92.4 500.3,92.4 501.3,92.4 502.3,92.4 503.4,92.4 504.4,92.4 505.4,92.4 506.4,92.4 507.4,92.4 508.5,92.4 509.5,92.4 510.5,92.4 511.5,92.4 512.5,92.4 513.5,92.4 514.6,92.4 515.6,92.4 516.6,92.4 517.6,92.4 518.6,92.4 519.7,92.4 520.7,92.4 521.7,92.4 522.7,92.4 523.7,92.4 524.8,92.4 525.8,92.4 526.8,92.4 527.8,92.4 528.8,92.4 529.9,92.4 530.9,92.4 531.9,92.4 532.9,92.4 533.9,92.4 535.0,92.4 536.0,92.4 537.0,92.4 538.0,92.4 539.0,92.4 540.1,92.4 541.1,92.4 542.1,92.4 543.1,92.4 544.1,92.4 545.2,92.4 546.2,92.4 547.2,92.4 548.2,92.4 549.2,92.4 550.3,92.4 551.3,92.4 552.3,92.4 553.3,92.4 554.3,92.4 555.4,92.4 556.4,92.4 557.4,92.4 558.4,92.4 559.4,92.4 560.5,92.4 561.5,92.4 562.5,92.4 563.5,92.4 564.5,92.4 565.6,92.4 566.6,92.4 567.6,92.4 568.6,92.4 569.6,92.4 570.7,92.4 571.7,92.4 572.7,92.4 573.7,92.4 574.7,92.4 575.8,92.4 576.8,92.4 577.8,92.4 578.8,92.4 579.8,92.4 580.9,92.4 581.9,92.4 582.9,92.4 583.9,92.4 584.9,92.4 586.0,92.4 587.0,92.4 588.0,92.4 589.0,92.4 590.0,92.4 591.1,92.4 592.1,92.4 593.1,92.4 594.1,92.4 595.1,92.4 596.2,92.4 597.2,92.4 598.2,92.4 599.2,92.4 600.2,92.4 601.3,92.4 602.3,92.4 603.3,92.4 604.3,92.4 605.3,92.4 606.4,92.4 607.4,92.4 608.4,92.4 609.4,92.4 610.4,92.4 611.5,92.4 612.5,92.4 613.5,92.4 614.5,92.4 615.5,92.4 616.6,92.4 617.6,92.4 618.6,92.4 619.6,92.4 620.6,92.4 621.7,92.4 622.7,92.4 623.7,92.4 624.7,92.4 625.7,92.4 626.8,92.4 627.8,92.4 628.8,92.4 629.8,92.4 630.8,92.4 631.9,92.4 632.9,92.4 633.9,92.4 634.9,92.4 635.9,92.4 637.0,92.4 638.0,92.4 639.0,92.4 640.0,92.4 641.0,92.4 642.1,92.4 643.1,92.4 644.1,92.4 645.1,92.4 646.1,92.4 647.2,92.4 648.2,92.4 649.2,92.4 650.2,92.4 651.2,92.4 652.3,92.4 653.3,92.4 654.3,92.4 655.3,92.4 656.3,92.4 657.4,92.4 658.4,92.4 659.4,92.4 660.4,92.4 661.4,92.4 662.5,92.4 663.5,92.4 664.5,92.4 665.5,92.4 666.5,92.4 667.6,92.4 668.6,92.4 669.6,92.4 670.6,92.4 671.6,92.4 672.7,92.4 673.7,92.4 674.7,92.4 675.7,92.4 676.7,92.4 677.8,92.4 678.8,92.4 679.8,92.4 680.8,92.4 681.8,92.4 682.9,92.4 683.9,92.4 684.9,92.4 685.9,92.4 686.9,92.4 688.0,92.4 689.0,92.4 690.0,92.4 691.0,92.4 692.0,92.4 693.1,92.4 694.1,92.4 695.1,92.4 696.1,92.4 697.1,92.4 698.2,92.4 699.2,92.4 700.2,92.4 701.2,92.4 702.2,92.4 703.3,92.4 704.3,92.4 705.3,92.4 706.3,92.4 707.3,92.4 708.4,92.4 709.4,92.4 710.4,92.4 711.4,92.4 712.4,92.4 713.5,92.4 714.5,92.4 715.5,92.4 716.5,92.4 717.5,92.4 718.6,92.4 719.6,92.4 720.6,92.4 721.6,92.4 722.6,92.4 723.7,92.4 724.7,92.4 725.7,92.4 726.7,92.4 727.7,92.4 728.8,92.4 729.8,92.4 730.8,92.4 731.8,92.4 732.8,92.4 733.9,92.4 734.9,92.4 735.9,92.4 736.9,92.4 737.9,92.4 739.0,92.4 740.0,92.4 741.0,92.4 742.0,92.4 743.0,92.4 744.1,92.4 745.1,92.4 746.1,92.4 747.1,92.4 748.1,92.4 749.2,92.4 750.2,92.4 751.2,92.4 752.2,92.4 753.2,92.4 754.3,92.4 755.3,92.4 756.3,92.4 757.3,92.4 758.3,92.4 759.4,92.4 760.4,92.4 761.4,92.4 762.4,92.4 763.4,92.4 764.5,92.4 765.5,92.4 766.5,92.4 767.5,92.4 768.5,92.4 769.6,318.0 770.6,318.0 771.6,318.0 772.6,318.0 773.6,318.0 774.7,318.0 775.7,318.0 776.7,318.0 777.7,318.0 778.7,318.0 779.8,318.0 780.8,318.0 781.8,318.0 782.8,318.0 783.8,318.0 784.9,318.0 785.9,318.0 786.9,318.0 787.9,318.0 788.9,318.0 790.0,318.0 791.0,318.0 792.0,318.0 793.0,318.0 794.0,318.0 795.1,318.0 796.1,318.0 797.1,318.0 798.1,318.0 799.1,318.0 800.2,318.0 801.2,318.0 802.2,318.0 803.2,318.0 804.2,318.0 805.2,318.0 806.3,318.0 807.3,318.0 808.3,318.0 809.3,318.0 810.3,318.0 811.4,318.0 812.4,318.0 813.4,318.0 814.4,318.0 815.4,318.0 816.5,318.0 817.5,318.0 818.5,318.0 819.5,318.0 820.5,318.0 821.6,318.0 822.6,318.0 823.6,318.0 824.6,318.0 825.6,318.0 826.7,318.0 827.7,318.0 828.7,318.0 829.7,318.0 830.7,318.0 831.8,318.0 832.8,318.0 833.8,318.0 834.8,318.0 835.8,318.0 836.9,318.0 837.9,318.0 838.9,318.0 839.9,318.0 840.9,318.0 842.0,207.0 843.0,318.0 844.0,318.0 845.0,318.0 846.0,318.0 847.1,318.0 848.1,263.4 849.1,318.0 850.1,318.0 851.1,263.5 852.2,318.0 853.2,318.0 854.2,318.0 855.2,318.0 856.2,318.0 857.3,318.0 858.3,318.0 859.3,262.2 860.3,263.5 861.3,318.0 862.4,318.0 863.4,318.0 864.4,318.0 865.4,264.6 866.4,318.0 867.5,318.0 868.5,318.0 869.5,318.0 870.5,261.9 871.5,318.0 872.6,318.0 873.6,318.0 874.6,263.1 875.6,318.0 876.6,318.0 877.7,318.0 878.7,318.0 879.7,318.0 880.7,318.0 881.7,318.0 882.8,318.0 883.8,207.5 884.8,318.0 885.8,318.0 886.8,318.0 887.9,262.4 888.9,318.0 889.9,318.0 890.9,318.0 891.9,262.8 893.0,318.0 894.0,318.0 895.0,318.0 896.0,263.0 897.0,318.0 898.1,318.0 899.1,262.3 900.1,318.0 901.1,318.0 902.1,318.0 903.2,318.0 904.2,318.0 905.2,318.0 906.2,318.0 907.2,261.9 908.3,261.7 909.3,318.0 910.3,318.0 911.3,264.0 912.3,318.0 913.4,318.0 914.4,318.0 915.4,261.7 916.4,318.0 917.4,318.0 918.5,262.1 919.5,318.0 920.5,318.0 921.5,261.7 922.5,318.0 923.6,263.0 924.6,318.0 925.6,318.0 926.6,318.0 927.6,318.0 928.7,318.0 929.7,318.0 930.7,318.0 931.7,318.0 932.7,207.1 933.8,318.0 934.8,318.0 935.8,318.0 936.8,262.6 937.8,318.0 938.9,318.0 939.9,318.0 940.9,264.5 941.9,318.0 942.9,263.4 944.0,318.0 945.0,318.0 946.0,318.0" fill="none" stroke="#2563eb" stroke-width="2.2" stroke-linejoin="round" stroke-linecap="round"/>
<polyline points="76.0,262.8 77.0,258.8 78.0,249.5 79.1,247.2 80.1,250.9 81.1,240.3 82.1,239.7 83.1,243.5 84.2,248.5 85.2,248.0 86.2,264.6 87.2,246.1 88.2,245.2 89.3,246.9 90.3,251.1 91.3,259.3 92.3,256.5 93.3,254.2 94.4,251.6 95.4,256.6 96.4,261.5 97.4,257.5 98.4,255.6 99.5,255.2 100.5,249.2 101.5,247.7 102.5,249.7 103.5,241.1 104.6,232.5 105.6,241.2 106.6,243.5 107.6,257.3 108.6,251.0 109.7,250.7 110.7,255.2 111.7,250.5 112.7,247.4 113.7,253.4 114.8,247.1 115.8,247.0 116.8,244.7 117.8,261.9 118.8,258.2 119.9,254.2 120.9,219.8 121.9,222.3 122.9,255.3 123.9,251.2 125.0,237.3 126.0,219.3 127.0,239.9 128.0,251.2 129.0,243.9 130.1,242.1 131.1,243.9 132.1,246.7 133.1,244.4 134.1,250.0 135.2,241.3 136.2,247.0 137.2,238.8 138.2,245.4 139.2,243.9 140.3,285.1 141.3,270.0 142.3,262.3 143.3,270.1 144.3,267.0 145.4,238.5 146.4,233.8 147.4,243.4 148.4,259.9 149.4,272.4 150.5,246.0 151.5,245.5 152.5,248.1 153.5,261.0 154.5,250.4 155.6,259.1 156.6,245.9 157.6,240.5 158.6,253.9 159.6,249.9 160.7,254.6 161.7,255.7 162.7,254.0 163.7,261.9 164.7,251.4 165.8,251.4 166.8,253.7 167.8,250.0 168.8,268.3 169.8,231.5 170.9,255.8 171.9,251.1 172.9,218.2 173.9,256.5 174.9,245.2 176.0,247.9 177.0,226.9 178.0,246.1 179.0,248.3 180.0,241.0 181.1,249.4 182.1,243.6 183.1,250.1 184.1,244.3 185.1,242.8 186.2,242.6 187.2,248.1 188.2,245.4 189.2,251.8 190.2,237.9 191.3,251.4 192.3,252.6 193.3,250.9 194.3,220.0 195.3,203.6 196.4,214.7 197.4,215.7 198.4,215.3 199.4,224.9 200.4,220.4 201.5,216.0 202.5,243.5 203.5,246.4 204.5,241.9 205.5,243.2 206.6,242.2 207.6,241.7 208.6,242.6 209.6,244.6 210.6,243.4 211.7,245.1 212.7,249.7 213.7,245.1 214.7,258.2 215.7,257.8 216.8,248.2 217.8,263.2 218.8,290.3 219.8,254.2 220.8,268.2 221.8,255.6 222.9,253.3 223.9,253.6 224.9,250.8 225.9,251.8 226.9,245.2 228.0,251.1 229.0,244.3 230.0,242.4 231.0,240.7 232.0,242.6 233.1,251.4 234.1,264.1 235.1,247.2 236.1,252.2 237.1,250.9 238.2,253.1 239.2,253.4 240.2,258.6 241.2,260.8 242.2,259.1 243.3,292.1 244.3,255.7 245.3,270.2 246.3,236.2 247.3,252.1 248.4,245.1 249.4,249.0 250.4,240.5 251.4,242.6 252.4,248.7 253.5,243.1 254.5,236.6 255.5,245.7 256.5,247.5 257.5,241.4 258.6,245.2 259.6,245.0 260.6,246.8 261.6,247.8 262.6,251.7 263.7,253.2 264.7,259.1 265.7,263.5 266.7,252.2 267.7,285.5 268.8,251.7 269.8,255.1 270.8,250.6 271.8,249.8 272.8,242.9 273.9,242.4 274.9,242.2 275.9,241.0 276.9,247.3 277.9,248.1 279.0,258.9 280.0,257.3 281.0,253.8 282.0,250.1 283.0,255.8 284.1,247.6 285.1,253.5 286.1,245.9 287.1,253.4 288.1,258.1 289.2,261.3 290.2,258.9 291.2,266.2 292.2,297.6 293.2,260.0 294.3,260.3 295.3,258.6 296.3,257.8 297.3,249.6 298.3,247.9 299.4,245.9 300.4,252.3 301.4,248.8 302.4,245.4 303.4,245.5 304.5,241.2 305.5,248.2 306.5,240.3 307.5,241.3 308.5,240.9 309.6,255.8 310.6,255.5 311.6,254.2 312.6,259.3 313.6,273.3 314.7,257.9 315.7,260.5 316.7,258.2 317.7,252.3 318.7,232.0 319.8,219.6 320.8,257.6 321.8,245.0 322.8,228.2 323.8,224.5 324.9,224.1 325.9,223.8 326.9,222.7 327.9,239.3 328.9,231.7 330.0,235.3 331.0,236.0 332.0,245.7 333.0,256.8 334.0,266.4 335.1,245.2 336.1,283.8 337.1,250.1 338.1,265.2 339.1,256.9 340.2,258.4 341.2,265.9 342.2,249.6 343.2,209.8 344.2,220.6 345.3,223.0 346.3,225.7 347.3,215.1 348.3,227.4 349.3,222.0 350.4,209.0 351.4,242.0 352.4,239.8 353.4,248.9 354.4,251.4 355.5,247.5 356.5,243.7 357.5,252.6 358.5,250.3 359.5,248.7 360.6,267.5 361.6,252.2 362.6,247.7 363.6,258.9 364.6,227.2 365.7,211.3 366.7,216.8 367.7,255.8 368.7,251.6 369.7,245.4 370.8,270.3 371.8,239.4 372.8,244.7 373.8,243.3 374.8,250.8 375.9,232.4 376.9,242.8 377.9,244.7 378.9,265.4 379.9,239.2 381.0,244.6 382.0,242.8 383.0,247.8 384.0,246.7 385.0,263.6 386.1,250.8 387.1,258.2 388.1,254.7 389.1,251.7 390.1,265.0 391.2,252.6 392.2,259.2 393.2,263.9 394.2,253.9 395.2,230.0 396.3,224.2 397.3,257.9 398.3,245.8 399.3,252.8 400.3,255.5 401.4,248.1 402.4,251.2 403.4,250.1 404.4,248.5 405.4,245.4 406.5,265.0 407.5,263.0 408.5,258.3 409.5,262.4 410.5,259.0 411.6,283.8 412.6,276.5 413.6,273.1 414.6,276.5 415.6,282.7 416.7,282.5 417.7,277.7 418.7,281.6 419.7,283.5 420.7,278.5 421.8,276.0 422.8,265.8 423.8,251.2 424.8,259.6 425.8,273.4 426.9,261.0 427.9,263.4 428.9,257.8 429.9,265.6 430.9,262.2 432.0,262.1 433.0,262.1 434.0,254.3 435.0,262.8 436.0,257.4 437.1,261.5 438.1,249.6 439.1,254.9 440.1,260.6 441.1,262.8 442.2,263.7 443.2,259.3 444.2,258.4 445.2,252.3 446.2,251.5 447.3,254.4 448.3,233.7 449.3,246.8 450.3,259.0 451.3,247.4 452.4,244.3 453.4,249.6 454.4,251.4 455.4,253.2 456.4,252.7 457.5,254.5 458.5,255.1 459.5,251.1 460.5,261.9 461.5,260.5 462.6,265.7 463.6,260.3 464.6,265.4 465.6,257.3 466.6,253.9 467.7,261.6 468.7,244.2 469.7,253.1 470.7,245.6 471.7,249.2 472.8,235.1 473.8,243.1 474.8,248.1 475.8,255.7 476.8,236.3 477.9,251.0 478.9,236.7 479.9,242.5 480.9,247.8 481.9,246.2 483.0,246.8 484.0,245.6 485.0,253.2 486.0,266.1 487.0,257.9 488.1,214.6 489.1,221.0 490.1,217.1 491.1,231.6 492.1,220.8 493.2,221.3 494.2,229.0 495.2,250.2 496.2,248.0 497.2,234.3 498.3,246.0 499.3,245.0 500.3,252.9 501.3,245.9 502.3,247.4 503.4,248.3 504.4,247.7 505.4,239.1 506.4,240.8 507.4,252.0 508.5,252.9 509.5,252.0 510.5,259.5 511.5,248.6 512.5,255.6 513.5,255.6 514.6,256.2 515.6,252.6 516.6,250.4 517.6,247.5 518.6,235.3 519.7,257.7 520.7,239.4 521.7,217.5 522.7,244.7 523.7,243.3 524.8,247.4 525.8,248.5 526.8,245.5 527.8,244.6 528.8,247.9 529.9,251.0 530.9,248.9 531.9,252.3 532.9,249.7 533.9,252.3 535.0,258.4 536.0,260.8 537.0,239.5 538.0,262.6 539.0,268.1 540.1,271.0 541.1,253.1 542.1,249.5 543.1,256.8 544.1,242.4 545.2,244.6 546.2,235.9 547.2,245.9 548.2,252.1 549.2,240.5 550.3,234.4 551.3,239.0 552.3,241.9 553.3,235.1 554.3,252.6 555.4,245.0 556.4,244.3 557.4,262.3 558.4,305.5 559.4,249.9 560.5,245.8 561.5,258.9 562.5,255.9 563.5,253.1 564.5,256.3 565.6,245.1 566.6,242.3 567.6,240.8 568.6,242.9 569.6,248.5 570.7,241.0 571.7,237.3 572.7,242.1 573.7,239.8 574.7,236.5 575.8,241.5 576.8,247.0 577.8,243.4 578.8,245.8 579.8,248.9 580.9,238.6 581.9,251.6 582.9,249.4 583.9,276.3 584.9,259.7 586.0,250.9 587.0,269.4 588.0,251.6 589.0,254.3 590.0,253.9 591.1,248.4 592.1,238.0 593.1,246.8 594.1,247.0 595.1,245.2 596.2,246.2 597.2,236.4 598.2,240.2 599.2,239.9 600.2,265.2 601.3,243.4 602.3,244.6 603.3,240.0 604.3,250.6 605.3,252.1 606.4,260.3 607.4,245.6 608.4,263.7 609.4,248.6 610.4,262.8 611.5,265.9 612.5,248.1 613.5,254.3 614.5,247.2 615.5,252.3 616.6,246.3 617.6,251.2 618.6,245.4 619.6,241.8 620.6,237.3 621.7,251.5 622.7,246.1 623.7,239.7 624.7,238.8 625.7,245.5 626.8,247.4 627.8,254.5 628.8,236.8 629.8,251.2 630.8,251.9 631.9,255.6 632.9,260.8 633.9,260.8 634.9,256.8 635.9,248.6 637.0,250.9 638.0,258.6 639.0,252.0 640.0,247.8 641.0,242.0 642.1,235.9 643.1,240.3 644.1,241.3 645.1,243.0 646.1,250.0 647.2,251.4 648.2,248.2 649.2,247.2 650.2,243.8 651.2,247.8 652.3,250.6 653.3,243.7 654.3,249.4 655.3,257.8 656.3,256.4 657.4,266.0 658.4,253.2 659.4,257.3 660.4,254.9 661.4,263.9 662.5,255.6 663.5,243.4 664.5,246.3 665.5,236.2 666.5,243.4 667.6,247.6 668.6,232.1 669.6,245.1 670.6,241.1 671.6,245.4 672.7,244.3 673.7,245.7 674.7,244.9 675.7,237.9 676.7,243.8 677.8,240.4 678.8,257.6 679.8,256.3 680.8,256.7 681.8,257.1 682.9,257.2 683.9,263.0 684.9,256.8 685.9,255.5 686.9,256.1 688.0,252.2 689.0,269.8 690.0,254.4 691.0,246.0 692.0,249.9 693.1,237.3 694.1,240.6 695.1,246.0 696.1,254.5 697.1,250.8 698.2,250.9 699.2,252.8 700.2,243.7 701.2,250.9 702.2,251.9 703.3,264.5 704.3,263.0 705.3,262.2 706.3,258.8 707.3,264.6 708.4,255.8 709.4,263.3 710.4,253.6 711.4,256.9 712.4,252.5 713.5,255.3 714.5,252.6 715.5,246.8 716.5,248.8 717.5,241.7 718.6,242.1 719.6,248.9 720.6,250.9 721.6,245.3 722.6,247.8 723.7,246.7 724.7,252.2 725.7,248.6 726.7,256.6 727.7,253.4 728.8,255.6 729.8,260.2 730.8,251.7 731.8,253.8 732.8,264.5 733.9,255.3 734.9,263.6 735.9,248.5 736.9,252.2 737.9,250.8 739.0,253.1 740.0,244.8 741.0,253.0 742.0,244.6 743.0,248.3 744.1,251.8 745.1,245.9 746.1,246.0 747.1,261.2 748.1,255.5 749.2,251.8 750.2,251.4 751.2,254.2 752.2,255.0 753.2,255.0 754.3,265.9 755.3,248.1 756.3,272.1 757.3,254.3 758.3,257.3 759.4,258.3 760.4,243.2 761.4,251.2 762.4,252.1 763.4,251.2 764.5,251.9 765.5,266.5 766.5,260.3 767.5,243.4 768.5,245.9 769.6,345.6 770.6,341.0 771.6,341.4 772.6,339.1 773.6,340.1 774.7,345.0 775.7,343.8 776.7,343.3 777.7,343.1 778.7,343.9 779.8,341.5 780.8,341.0 781.8,342.3 782.8,341.5 783.8,345.3 784.9,340.9 785.9,350.1 786.9,340.2 787.9,342.7 788.9,340.3 790.0,340.1 791.0,341.1 792.0,339.5 793.0,343.3 794.0,343.2 795.1,340.7 796.1,342.2 797.1,341.2 798.1,341.9 799.1,340.0 800.2,344.3 801.2,338.1 802.2,340.6 803.2,342.6 804.2,342.9 805.2,342.3 806.3,345.1 807.3,342.7 808.3,342.9 809.3,340.6 810.3,341.6 811.4,339.6 812.4,341.3 813.4,341.5 814.4,341.0 815.4,342.0 816.5,339.2 817.5,339.6 818.5,340.4 819.5,340.9 820.5,335.8 821.6,335.6 822.6,334.7 823.6,340.2 824.6,340.4 825.6,340.3 826.7,339.6 827.7,342.0 828.7,341.5 829.7,342.0 830.7,343.1 831.8,342.0 832.8,340.6 833.8,334.9 834.8,339.8 835.8,340.6 836.9,340.3 837.9,338.2 838.9,339.3 839.9,338.7 840.9,346.4 842.0,288.7 843.0,339.1 844.0,340.3 845.0,342.0 846.0,341.7 847.1,339.6 848.1,312.1 849.1,343.5 850.1,342.2 851.1,322.7 852.2,348.9 853.2,344.5 854.2,342.6 855.2,342.4 856.2,337.4 857.3,336.7 858.3,331.5 859.3,316.9 860.3,313.8 861.3,336.5 862.4,339.3 863.4,351.6 864.4,341.7 865.4,317.1 866.4,341.6 867.5,334.3 868.5,338.9 869.5,348.0 870.5,317.1 871.5,340.6 872.6,341.7 873.6,340.6 874.6,319.1 875.6,347.2 876.6,345.5 877.7,345.7 878.7,345.8 879.7,345.1 880.7,346.2 881.7,346.7 882.8,351.1 883.8,313.1 884.8,349.0 885.8,346.7 886.8,345.7 887.9,319.3 888.9,345.8 889.9,339.2 890.9,344.5 891.9,321.3 893.0,341.8 894.0,345.7 895.0,343.1 896.0,324.3 897.0,350.6 898.1,345.0 899.1,326.2 900.1,345.3 901.1,345.4 902.1,344.2 903.2,342.9 904.2,345.7 905.2,345.4 906.2,343.6 907.2,320.0 908.3,320.0 909.3,347.3 910.3,343.8 911.3,316.3 912.3,341.6 913.4,340.2 914.4,341.8 915.4,296.9 916.4,344.3 917.4,343.9 918.5,315.0 919.5,347.3 920.5,342.9 921.5,322.7 922.5,347.9 923.6,322.0 924.6,340.4 925.6,347.6 926.6,347.1 927.6,345.1 928.7,342.7 929.7,343.7 930.7,345.5 931.7,344.0 932.7,296.5 933.8,343.7 934.8,345.8 935.8,340.6 936.8,314.7 937.8,345.6 938.9,340.9 939.9,344.2 940.9,322.2 941.9,341.8 942.9,319.8 944.0,341.0 945.0,342.4 946.0,341.9" fill="none" stroke="#7c3aed" stroke-width="2.2" stroke-linejoin="round" stroke-linecap="round"/>
<line x1="76" y1="70" x2="94" y2="70" stroke="#2563eb" stroke-width="3"/>
<text x="100" y="74" font-family="Arial, sans-serif" font-size="11" fill="#0f172a">tx count</text>
<line x1="186" y1="70" x2="204" y2="70" stroke="#7c3aed" stroke-width="3"/>
<text x="210" y="74" font-family="Arial, sans-serif" font-size="11" fill="#0f172a">unique accounts</text>
<text x="28" y="404" font-family="Arial, sans-serif" font-size="11" fill="#64748b">Source: hourly_features.csv; capped windows are sample counts</text>
</svg>