<svg xmlns="http://www.w3.org/2000/svg" width="980" height="420" viewBox="0 0 980 420">
<rect width="100%" height="100%" fill="#ffffff"/>
<text x="28" y="34" font-family="Arial, sans-serif" font-size="20" font-weight="700" fill="#0f172a">Network activity sample trend</text>
<text x="28" y="56" font-family="Arial, sans-serif" font-size="12" fill="#64748b">Hourly transaction sample count and unique account sample count</text>
<line x1="76" y1="362.0" x2="946" y2="362.0" stroke="#e2e8f0" stroke-width="1"/>
<text x="68" y="366.0" font-family="Arial, sans-serif" font-size="10" text-anchor="end" fill="#64748b">153</text>
<line x1="76" y1="292.0" x2="946" y2="292.0" stroke="#e2e8f0" stroke-width="1"/>
<text x="68" y="296.0" font-family="Arial, sans-serif" font-size="10" text-anchor="end" fill="#64748b">1K</text>
<line x1="76" y1="222.0" x2="946" y2="222.0" stroke="#e2e8f0" stroke-width="1"/>
<text x="68" y="226.0" font-family="Arial, sans-serif" font-size="10" text-anchor="end" fill="#64748b">3K</text>
<line x1="76" y1="152.0" x2="946" y2="152.0" stroke="#e2e8f0" stroke-width="1"/>
<text x="68" y="156.0" font-family="Arial, sans-serif" font-size="10" text-anchor="end" fill="#64748b">4K</text>
<line x1="76" y1="82.0" x2="946" y2="82.0" stroke="#e2e8f0" stroke-width="1"/>
<text x="68" y="86.0" font-family="Arial, sans-serif" font-size="10" text-anchor="end" fill="#64748b">5K</text>
<line x1="76" y1="362" x2="946" y2="362" stroke="#334155" stroke-width="1"/>
<line x1="76" y1="82" x2="76" y2="362" stroke="#334155" stroke-width="1"/>
<text x="76" y="72" font-family="Arial, sans-serif" font-size="11" fill="#64748b">count</text>
<line x1="76.0" y1="362" x2="76.0" y2="366" stroke="#334155" stroke-width="1"/>
<text x="76.0" y="380" font-family="Arial, sans-serif" font-size="10" text-anchor="middle" fill="#64748b">0</text>
<line x1="511.0" y1="362" x2="511.0" y2="366" stroke="#334155" stroke-width="1"/>
<text x="511.0" y="380" font-family="Arial, sans-serif" font-size="10" text-anchor="middle" fill="#64748b">451</text>
<line x1="946.0" y1="362" x2="946.0" y2="366" stroke="#334155" stroke-width="1"/>
<text x="946.0" y="380" font-family="Arial, sans-serif" font-size="10" text-anchor="middle" fill="#64748b">902</text>
<polyline points="76.0,92.4 77.0,92.4 77.9,92.4 78.9,92.4 79.9,92.4 80.8,92.4 81.8,92.4 82.8,92.4 83.7,92.4 84.7,92.4 85.6,92.4 86.6,92.4 87.6,92.4 88.5,92.4 89.5,92.4 90.5,92.4 91.4,92.4 92.4,92.4 93.4,92.4 94.3,92.4 95.3,92.4 96.3,92.4 97.2,92.4 98.2,92.4 99.1,92.4 100.1,92.4 101.1,92.4 102.0,92.4 103.0,92.4 104.0,92.4 104.9,92.4 105.9,92.4 106.9,92.4 107.8,92.4 108.8,92.4 109.8,92.4 110.7,92.4 111.7,92.4 112.7,92.4 113.6,92.4 114.6,92.4 115.5,92.4 116.5,92.4 117.5,92.4 118.4,92.4 119.4,92.4 120.4,92.4 121.3,92.4 122.3,92.4 123.3,92.4 124.2,92.4 125.2,92.4 126.2,92.4 127.1,92.4 128.1,92.4 129.0,92.4 130.0,92.4 131.0,92.4 131.9,92.4 132.9,92.4 133.9,92.4 134.8,92.4 135.8,92.4 136.8,92.4 137.7,92.4 138.7,92.4 139.7,92.4 140.6,92.4 141.6,92.4 142.6,92.4 143.5,92.4 144.5,92.4 145.4,92.4 146.4,92.4 147.4,92.4 148.3,92.4 149.3,92.4 150.3,92.4 151.2,92.4 152.2,92.4 153.2,92.4 154.1,92.4 155.1,92.4 156.1,92.4 157.0,92.4 158.0,92.4 158.9,92.4 159.9,92.4 160.9,92.4 161.8,92.4 162.8,92.4 163.8,92.4 164.7,92.4 165.7,92.4 166.7,92.4 167.6,92.4 168.6,92.4 169.6,92.4 170.5,92.4 171.5,92.4 172.5,92.4 173.4,92.4 174.4,92.4 175.3,92.4 176.3,92.4 177.3,92.4 178.2,92.4 179.2,92.4 180.2,92.4 181.1,92.4 182.1,92.4 183.1,92.4 184.0,92.4 185.0,92.4 186.0,92.4 186.9,92.4 187.9,92.4 188.8,92.4 189.8,92.4 190.8,92.4 191.7,92.4 192.7,92.4 193.7,92.4 194.6,92.4 195.6,92.4 196.6,92.4 197.5,92.4 198.5,92.4 199.5,92.4 200.4,92.4 201.4,92.4 202.4,92.4 203.3,92.4 204.3,92.4 205.2,92.4 206.2,92.4 207.2,92.4 208.1,92.4 209.1,92.4 210.1,92.4 211.0,92.4 212.0,92.4 213.0,92.4 213.9,92.4 214.9,92.4 215.9,92.4 216.8,92.4 217.8,92.4 218.7,92.4 219.7,92.4 220.7,92.4 221.6,92.4 222.6,92.4 223.6,92.4 224.5,92.4 225.5,92.4 226.5,92.4 227.4,92.4 228.4,92.4 229.4,92.4 230.3,92.4 231.3,92.4 232.3,92.4 233.2,92.4 234.2,92.4 235.1,92.4 236.1,92.4 237.1,92.4 238.0,92.4 239.0,92.4 240.0,92.4 240.9,92.4 241.9,92.4 242.9,92.4 243.8,92.4 244.8,92.4 245.8,92.4 246.7,92.4 247.7,92.4 248.6,92.4 249.6,92.4 250.6,92.4 251.5,92.4 252.5,92.4 253.5,92.4 254.4,92.4 255.4,92.4 256.4,92.4 257.3,92.4 258.3,92.4 259.3,92.4 260.2,92.4 261.2,92.4 262.2,92.4 263.1,92.4 264.1,92.4 265.0,92.4 266.0,92.4 267.0,92.4 267.9,92.4 268.9,92.4 269.9,92.4 270.8,92.4 271.8,92.4 272.8,92.4 273.7,92.4 274.7,92.4 275.7,92.4 276.6,92.4 277.6,92.4 278.5,92.4 279.5,92.4 280.5,92.4 281.4,92.4 282.4,92.4 283.4,92.4 284.3,92.4 285.3,92.4 286.3,92.4 287.2,92.4 288.2,92.4 289.2,92.4 290.1,92.4 291.1,92.4 292.1,92.4 293.0,92.4 294.0,92.4 294.9,92.4 295.9,92.4 296.9,92.4 297.8,92.4 298.8,92.4 299.8,92.4 300.7,92.4 301.7,92.4 302.7,92.4 303.6,92.4 304.6,92.4 305.6,92.4 306.5,92.4 307.5,92.4 308.5,92.4 309.4,92.4 310.4,92.4 311.3,92.4 312.3,92.4 313.3,92.4 314.2,92.4 315.2,92.4 316.2,92.4 317.1,92.4 318.1,92.4 319.1,92.4 320.0,92.4 321.0,92.4 322.0,92.4 322.9,92.4 323.9,92.4 324.8,92.4 325.8,92.4 326.8,92.4 327.7,92.4 328.7,92.4 329.7,92.4 330.6,92.4 331.6,92.4 332.6,92.4 333.5,92.4 334.5,92.4 335.5,92.4 336.4,92.4 337.4,92.4 338.4,92.4 339.3,92.4 340.3,92.4 341.2,92.4 342.2,92.4 343.2,92.4 344.1,92.4 345.1,92.4 346.1,92.4 347.0,92.4 348.0,92.4 349.0,92.4 349.9,92.4 350.9,92.4 351.9,92.4 352.8,92.4 353.8,92.4 354.7,92.4 355.7,92.4 356.7,92.4 357.6,92.4 358.6,92.4 359.6,92.4 360.5,92.4 361.5,92.4 362.5,92.4 363.4,92.4 364.4,92.4 365.4,92.4 366.3,92.4 367.3,92.4 368.3,92.4 369.2,92.4 370.2,92.4 371.1,92.4 372.1,92.4 373.1,92.4 374.0,92.4 375.0,92.4 376.0,92.4 376.9,92.4 377.9,92.4 378.9,92.4 379.8,92.4 380.8,92.4 381.8,92.4 382.7,92.4 383.7,92.4 384.6,92.4 385.6,92.4 386.6,92.4 387.5,92.4 388.5,92.4 389.5,92.4 390.4,92.4 391.4,92.4 392.4,92.4 393.3,92.4 394.3,92.4 395.3,92.4 396.2,92.4 397.2,92.4 398.2,92.4 399.1,92.4 400.1,92.4 401.0,92.4 402.0,92.4 403.0,92.4 403.9,92.4 404.9,92.4 405.9,92.4 406.8,92.4 407.8,92.4 408.8,92.4 409.7,92.4 410.7,92.4 411.7,92.4 412.6,92.4 413.6,92.4 414.5,92.4 415.5,92.4 416.5,92.4 417.4,92.4 418.4,92.4 419.4,92.4 420.3,92.4 421.3,92.4 422.3,92.4 423.2,92.4 424.2,92.4 425.2,92.4 426.1,92.4 427.1,92.4 428.1,92.4 429.0,92.4 430.0,92.4 430.9,92.4 431.9,92.4 432.9,92.4 433.8,92.4 434.8,92.4 435.8,92.4 436.7,92.4 437.7,92.4 438.7,92.4 439.6,92.4 440.6,92.4 441.6,92.4 442.5,92.4 443.5,92.4 444.4,92.4 445.4,92.4 446.4,92.4 447.3,92.4 448.3,92.4 449.3,92.4 450.2,92.4 451.2,92.4 452.2,92.4 453.1,92.4 454.1,92.4 455.1,92.4 456.0,92.4 457.0,92.4 458.0,92.4 458.9,92.4 459.9,92.4 460.8,92.4 461.8,92.4 462.8,92.4 463.7,92.4 464.7,92.4 465.7,92.4 466.6,92.4 467.6,92.4 468.6,92.4 469.5,92.4 470.5,92.4 471.5,92.4 472.4,92.4 473.4,92.4 474.3,92.4 475.3,92.4 476.3,92.4 477.2,92.4 478.2,92.4 479.2,92.4 480.1,92.4 481.1,92.4 482.1,92.4 483.0,92.4 484.0,92.4 485.0,92.4 485.9,92.4 486.9,92.4 487.9,92.4 488.8,92.4 489.8,92.4 490.7,92.4 491.7,92.4 492.7,92.4 493.6,92.4 494.6,92.4 495.6,92.4 496.5,92.4 497.5,92.4 498.5,92.4 499.4,92.4 500.4,92.4 501.4,92.4 502.3,92.4 503.3,92.4 504.2,92.4 505.2,92.4 506.2,92.4 507.1,92.4 508.1,92.4 509.1,92.4 510.0,92.4 511.0,92.4 512.0,92.4 512.9,92.4 513.9,92.4 514.9,92.4 515.8,92.4 516.8,92.4 517.8,92.4 518.7,92.4 519.7,92.4 520.6,92.4 521.6,92.4 522.6,92.4 523.5,92.4 524.5,92.4 525.5,92.4 526.4,92.4 527.4,92.4 528.4,92.4 529.3,92.4 530.3,92.4 531.3,92.4 532.2,92.4 533.2,92.4 534.1,92.4 535.1,92.4 536.1,92.4 537.0,92.4 538.0,92.4 539.0,92.4 539.9,92.4 540.9,92.4 541.9,92.4 542.8,92.4 543.8,92.4 544.8,92.4 545.7,92.4 546.7,92.4 547.7,92.4 548.6,92.4 549.6,92.4 550.5,92.4 551.5,92.4 552.5,92.4 553.4,92.4 554.4,92.4 555.4,92.4 556.3,92.4 557.3,92.4 558.3,92.4 559.2,92.4 560.2,92.4 561.2,92.4 562.1,92.4 563.1,92.4 564.0,92.4 565.0,92.4 566.0,92.4 566.9,92.4 567.9,92.4 568.9,92.4 569.8,92.4 570.8,92.4 571.8,92.4 572.7,92.4 573.7,92.4 574.7,92.4 575.6,92.4 576.6,92.4 577.6,92.4 578.5,92.4 579.5,92.4 580.4,92.4 581.4,92.4 582.4,92.4 583.3,92.4 584.3,92.4 585.3,92.4 586.2,92.4 587.2,92.4 588.2,92.4 589.1,92.4 590.1,92.4 591.1,92.4 592.0,92.4 593.0,92.4 593.9,92.4 594.9,92.4 595.9,92.4 596.8,92.4 597.8,92.4 598.8,92.4 599.7,92.4 600.7,92.4 601.7,92.4 602.6,92.4 603.6,92.4 604.6,92.4 605.5,92.4 606.5,92.4 607.5,92.4 608.4,92.4 609.4,92.4 610.3,92.4 611.3,92.4 612.3,92.4 613.2,92.4 614.2,92.4 615.2,92.4 616.1,92.4 617.1,92.4 618.1,92.4 619.0,92.4 620.0,92.4 621.0,92.4 621.9,92.4 622.9,92.4 623.8,92.4 624.8,92.4 625.8,92.4 626.7,92.4 627.7,92.4 628.7,92.4 629.6,92.4 630.6,92.4 631.6,92.4 632.5,92.4 633.5,92.4 634.5,92.4 635.4,92.4 636.4,92.4 637.4,92.4 638.3,92.4 639.3,92.4 640.2,92.4 641.2,92.4 642.2,92.4 643.1,92.4 644.1,92.4 645.1,92.4 646.0,92.4 647.0,92.4 648.0,92.4 648.9,92.4 649.9,92.4 650.9,92.4 651.8,92.4 652.8,92.4 653.7,92.4 654.7,92.4 655.7,92.4 656.6,92.4 657.6,92.4 658.6,92.4 659.5,92.4 660.5,92.4 661.5,92.4 662.4,92.4 663.4,92.4 664.4,92.4 665.3,92.4 666.3,92.4 667.3,92.4 668.2,92.4 669.2,92.4 670.1,92.4 671.1,92.4 672.1,92.4 673.0,92.4 674.0,92.4 675.0,92.4 675.9,92.4 676.9,92.4 677.9,92.4 678.8,92.4 679.8,92.4 680.8,92.4 681.7,92.4 682.7,92.4 683.6,92.4 684.6,92.4 685.6,92.4 686.5,92.4 687.5,92.4 688.5,92.4 689.4,92.4 690.4,92.4 691.4,92.4 692.3,92.4 693.3,92.4 694.3,92.4 695.2,92.4 696.2,92.4 697.2,92.4 698.1,92.4 699.1,92.4 700.0,92.4 701.0,92.4 702.0,92.4 702.9,92.4 703.9,92.4 704.9,92.4 705.8,92.4 706.8,92.4 707.8,92.4 708.7,92.4 709.7,92.4 710.7,92.4 711.6,92.4 712.6,92.4 713.5,92.4 714.5,92.4 715.5,92.4 716.4,92.4 717.4,92.4 718.4,92.4 719.3,92.4 720.3,92.4 721.3,92.4 722.2,92.4 723.2,92.4 724.2,92.4 725.1,92.4 726.1,92.4 727.1,92.4 728.0,92.4 729.0,92.4 729.9,92.4 730.9,92.4 731.9,314.9 732.8,314.9 733.8,314.9 734.8,314.9 735.7,314.9 736.7,314.9 737.7,314.9 738.6,314.9 739.6,314.9 740.6,314.9 741.5,314.9 742.5,314.9 743.5,314.9 744.4,314.9 745.4,314.9 746.3,314.9 747.3,314.9 748.3,314.9 749.2,314.9 750.2,314.9 751.2,314.9 752.1,314.9 753.1,314.9 754.1,314.9 755.0,314.9 756.0,314.9 757.0,314.9 757.9,314.9 758.9,314.9 759.8,314.9 760.8,314.9 761.8,314.9 762.7,314.9 763.7,314.9 764.7,314.9 765.6,314.9 766.6,314.9 767.6,314.9 768.5,314.9 769.5,314.9 770.5,314.9 771.4,314.9 772.4,314.9 773.4,314.9 774.3,314.9 775.3,314.9 776.2,314.9 777.2,314.9 778.2,314.9 779.1,314.9 780.1,314.9 781.1,314.9 782.0,314.9 783.0,314.9 784.0,314.9 784.9,314.9 785.9,314.9 786.9,314.9 787.8,314.9 788.8,314.9 789.7,314.9 790.7,314.9 791.7,314.9 792.6,314.9 793.6,314.9 794.6,314.9 795.5,314.9 796.5,314.9 797.5,314.9 798.4,314.9 799.4,314.9 800.4,205.4 801.3,314.9 802.3,314.9 803.3,314.9 804.2,314.9 805.2,314.9 806.1,261.0 807.1,314.9 808.1,314.9 809.0,261.1 810.0,314.9 811.0,314.9 811.9,314.9 812.9,314.9 813.9,314.9 814.8,314.9 815.8,314.9 816.8,259.9 817.7,261.1 818.7,314.9 819.6,314.9 820.6,314.9 821.6,314.9 822.5,262.2 823.5,314.9 824.5,314.9 825.4,314.9 826.4,314.9 827.4,259.6 828.3,314.9 829.3,314.9 830.3,314.9 831.2,260.7 832.2,314.9 833.2,314.9 834.1,314.9 835.1,314.9 836.0,314.9 837.0,314.9 838.0,314.9 838.9,314.9 839.9,205.9 840.9,314.9 841.8,314.9 842.8,314.9 843.8,260.1 844.7,314.9 845.7,314.9 846.7,314.9 847.6,260.5 848.6,314.9 849.5,314.9 850.5,314.9 851.5,260.6 852.4,314.9 853.4,314.9 854.4,260.0 855.3,314.9 856.3,314.9 857.3,314.9 858.2,314.9 859.2,314.9 860.2,314.9 861.1,314.9 862.1,259.6 863.1,259.3 864.0,314.9 865.0,314.9 865.9,261.6 866.9,314.9 867.9,314.9 868.8,314.9 869.8,259.3 870.8,314.9 871.7,314.9 872.7,259.7 873.7,314.9 874.6,314.9 875.6,259.3 876.6,314.9 877.5,260.6 878.5,314.9 879.4,314.9 880.4,314.9 881.4,314.9 882.3,314.9 883.3,314.9 884.3,314.9 885.2,314.9 886.2,205.5 887.2,314.9 888.1,314.9 889.1,314.9 890.1,260.2 891.0,314.9 892.0,314.9 893.0,314.9 893.9,262.1 894.9,314.9 895.8,261.0 896.8,314.9 897.8,314.9 898.7,259.9 899.7,314.9 900.7,259.4 901.6,314.9 902.6,314.9 903.6,314.9 904.5,314.9 905.5,314.9 906.5,314.9 907.4,314.9 908.4,314.9 909.3,314.9 910.3,260.2 911.3,262.5 912.2,314.9 913.2,314.9 914.2,314.9 915.1,314.9 916.1,314.9 917.1,314.9 918.0,261.4 919.0,314.9 920.0,314.9 920.9,314.9 921.9,259.5 922.9,314.9 923.8,314.9 924.8,314.9 925.7,261.1 926.7,314.9 927.7,314.9 928.6,314.9 929.6,314.9 930.6,314.9 931.5,314.9 932.5,260.1 933.5,265.3 934.4,314.9 935.4,314.9 936.4,314.9 937.3,267.5 938.3,314.9 939.2,314.9 940.2,314.9 941.2,314.9 942.1,314.9 943.1,267.2 944.1,314.9 945.0,314.9 946.0,314.9" fill="none" stroke="#2563eb" stroke-width="2.2" stroke-linejoin="round" stroke-linecap="round"/>
<polyline points="76.0,260.4 77.0,256.5 77.9,247.3 78.9,245.1 79.9,248.7 80.8,238.2 81.8,237.6 82.8,241.4 83.7,246.3 84.7,245.8 85.6,262.2 86.6,243.9 87.6,243.1 88.5,244.7 89.5,248.8 90.5,257.0 91.4,254.2 92.4,251.9 93.4,249.4 94.3,254.3 95.3,259.1 96.3,255.2 97.2,253.3 98.2,253.0 99.1,247.1 100.1,245.5 101.1,247.5 102.0,239.0 103.0,230.5 104.0,239.1 104.9,241.4 105.9,255.0 106.9,248.8 107.8,248.4 108.8,252.9 109.8,248.3 110.7,245.2 111.7,251.1 112.7,244.9 113.6,244.8 114.6,242.6 115.5,259.5 116.5,255.8 117.5,251.9 118.4,218.0 119.4,220.5 120.4,253.1 121.3,249.0 122.3,235.3 123.3,217.5 124.2,237.8 125.2,248.9 126.2,241.8 127.1,240.0 128.1,241.8 129.0,244.6 130.0,242.3 131.0,247.8 131.9,239.2 132.9,244.8 133.9,236.8 134.8,243.3 135.8,241.8 136.8,282.4 137.7,267.5 138.7,259.9 139.7,267.6 140.6,264.6 141.6,236.4 142.6,231.8 143.5,241.3 144.5,257.5 145.4,269.9 146.4,243.9 147.4,243.3 148.3,245.9 149.3,258.7 150.3,248.2 151.2,256.8 152.2,243.7 153.2,238.4 154.1,251.7 155.1,247.7 156.1,252.3 157.0,253.5 158.0,251.8 158.9,259.6 159.9,249.2 160.9,249.2 161.8,251.5 162.8,247.8 163.8,265.8 164.7,229.5 165.7,253.5 166.7,248.8 167.6,216.5 168.6,254.2 169.6,243.1 170.5,245.7 171.5,225.0 172.5,244.0 173.4,246.2 174.4,238.9 175.3,247.2 176.3,241.5 177.3,247.9 178.2,242.2 179.2,240.7 180.2,240.6 181.1,245.9 182.1,243.2 183.1,249.6 184.0,235.8 185.0,249.2 186.0,250.3 186.9,248.7 187.9,218.2 188.8,202.0 189.8,213.0 190.8,214.0 191.7,213.6 192.7,223.1 193.7,218.6 194.6,214.2 195.6,241.4 196.6,244.2 197.5,239.8 198.5,241.1 199.5,240.1 200.4,239.6 201.4,240.6 202.4,242.4 203.3,241.3 204.3,242.9 205.2,247.5 206.2,242.9 207.2,255.8 208.1,255.5 209.1,246.0 210.1,260.9 211.0,287.5 212.0,252.0 213.0,265.7 213.9,253.3 214.9,251.1 215.9,251.3 216.8,248.6 217.8,249.6 218.7,243.1 219.7,248.9 220.7,242.2 221.6,240.3 222.6,238.7 223.6,240.6 224.5,249.2 225.5,261.7 226.5,245.0 227.4,250.0 228.4,248.7 229.4,250.8 230.3,251.1 231.3,256.3 232.3,258.4 233.2,256.7 234.2,289.3 235.1,253.4 236.1,267.7 237.1,234.2 238.0,249.9 239.0,242.9 240.0,246.8 240.9,238.4 241.9,240.6 242.9,246.6 243.8,241.0 244.8,234.6 245.8,243.6 246.7,245.3 247.7,239.3 248.6,243.1 249.6,242.9 250.6,244.7 251.5,245.7 252.5,249.5 253.5,251.0 254.4,256.7 255.4,261.1 256.4,250.0 257.3,282.8 258.3,249.5 259.3,252.8 260.2,248.4 261.2,247.6 262.2,240.8 263.1,240.3 264.1,240.1 265.0,238.9 266.0,245.2 267.0,245.9 267.9,256.6 268.9,255.0 269.9,251.5 270.8,247.9 271.8,253.5 272.8,245.4 273.7,251.3 274.7,243.7 275.7,251.1 276.6,255.8 277.6,259.0 278.5,256.6 279.5,263.8 280.5,294.7 281.4,257.7 282.4,258.0 283.4,256.3 284.3,255.5 285.3,247.4 286.3,245.8 287.2,243.7 288.2,250.1 289.2,246.6 290.1,243.3 291.1,243.3 292.1,239.2 293.0,246.0 294.0,238.2 294.9,239.3 295.9,238.8 296.9,253.5 297.8,253.2 298.8,251.9 299.8,257.0 300.7,270.8 301.7,255.6 302.7,258.2 303.6,255.8 304.6,250.1 305.6,230.0 306.5,217.9 307.5,255.3 308.5,242.9 309.4,226.3 310.4,222.7 311.3,222.3 312.3,222.0 313.3,220.9 314.2,237.2 315.2,229.8 316.2,233.3 317.1,234.0 318.1,243.6 319.1,254.5 320.0,264.0 321.0,243.1 322.0,281.2 322.9,247.9 323.9,262.7 324.8,254.6 325.8,256.1 326.8,263.5 327.7,247.4 328.7,208.1 329.7,218.9 330.6,221.1 331.6,223.9 332.6,213.4 333.5,225.5 334.5,220.2 335.5,207.3 336.4,239.9 337.4,237.7 338.4,246.7 339.3,249.2 340.3,245.3 341.2,241.6 342.2,250.3 343.2,248.1 344.1,246.6 345.1,265.0 346.1,250.0 347.0,245.5 348.0,256.6 349.0,225.3 349.9,209.7 350.9,215.1 351.9,253.5 352.8,249.3 353.8,243.2 354.7,267.8 355.7,237.3 356.7,242.6 357.6,241.2 358.6,248.6 359.6,230.5 360.5,240.7 361.5,242.6 362.5,263.0 363.4,237.2 364.4,242.5 365.4,240.7 366.3,245.7 367.3,244.6 368.3,261.2 369.2,248.6 370.2,255.9 371.1,252.5 372.1,249.5 373.1,262.6 374.0,250.4 375.0,256.8 376.0,261.5 376.9,251.7 377.9,228.1 378.9,222.4 379.8,255.6 380.8,243.7 381.8,250.6 382.7,253.2 383.7,245.9 384.6,248.9 385.6,247.9 386.6,246.3 387.5,243.2 388.5,262.6 389.5,260.6 390.4,256.0 391.4,260.0 392.4,256.7 393.3,281.1 394.3,274.0 395.3,270.5 396.2,274.0 397.2,280.0 398.2,279.9 399.1,275.1 400.1,279.0 401.0,280.9 402.0,275.9 403.0,273.5 403.9,263.4 404.9,248.9 405.9,257.3 406.8,270.9 407.8,258.7 408.8,261.0 409.7,255.5 410.7,263.2 411.7,259.9 412.6,259.7 413.6,259.7 414.5,252.1 415.5,260.4 416.5,255.1 417.4,259.1 418.4,247.4 419.4,252.7 420.3,258.3 421.3,260.4 422.3,261.4 423.2,257.0 424.2,256.1 425.2,250.1 426.1,249.3 427.1,252.2 428.1,231.7 429.0,244.6 430.0,256.7 430.9,245.3 431.9,242.2 432.9,247.4 433.8,249.2 434.8,251.0 435.8,250.5 436.7,252.3 437.7,252.8 438.7,248.9 439.6,259.6 440.6,258.2 441.6,263.2 442.5,258.0 443.5,263.0 444.4,255.0 445.4,251.7 446.4,259.2 447.3,242.1 448.3,250.8 449.3,243.5 450.2,247.1 451.2,233.2 452.2,241.0 453.1,245.9 454.1,253.4 455.1,234.3 456.0,248.8 457.0,234.7 458.0,240.4 458.9,245.6 459.9,244.1 460.8,244.7 461.8,243.4 462.8,251.0 463.7,263.7 464.7,255.6 465.7,212.9 466.6,219.2 467.6,215.4 468.6,229.6 469.5,219.0 470.5,219.5 471.5,227.1 472.4,248.0 473.4,245.8 474.3,232.3 475.3,243.8 476.3,242.9 477.2,250.7 478.2,243.8 479.2,245.3 480.1,246.1 481.1,245.5 482.1,237.0 483.0,238.8 484.0,249.7 485.0,250.6 485.9,249.7 486.9,257.1 487.9,246.4 488.8,253.3 489.8,253.3 490.7,253.9 491.7,250.4 492.7,248.2 493.6,245.3 494.6,233.3 495.6,255.4 496.5,237.3 497.5,215.7 498.5,242.6 499.4,241.2 500.4,245.2 501.4,246.3 502.3,243.4 503.3,242.4 504.2,245.8 505.2,248.8 506.2,246.7 507.1,250.1 508.1,247.5 509.1,250.1 510.0,256.1 511.0,258.4 512.0,237.5 512.9,260.2 513.9,265.6 514.9,268.5 515.8,250.8 516.8,247.3 517.8,254.5 518.7,240.3 519.7,242.5 520.6,233.9 521.6,243.7 522.6,249.9 523.5,238.4 524.5,232.4 525.5,236.9 526.4,239.8 527.4,233.1 528.4,250.4 529.3,242.8 530.3,242.2 531.3,259.9 532.2,302.6 533.2,247.7 534.1,243.7 535.1,256.6 536.1,253.6 537.0,250.8 538.0,254.0 539.0,243.0 539.9,240.2 540.9,238.8 541.9,240.8 542.8,246.3 543.8,238.9 544.8,235.3 545.7,240.0 546.7,237.8 547.7,234.5 548.6,239.4 549.6,244.8 550.5,241.3 551.5,243.7 552.5,246.7 553.4,236.6 554.4,249.4 555.4,247.2 556.3,273.7 557.3,257.3 558.3,248.7 559.2,266.9 560.2,249.3 561.2,252.0 562.1,251.7 563.1,246.2 564.0,235.9 565.0,244.6 566.0,244.9 566.9,243.1 567.9,244.1 568.9,234.4 569.8,238.2 570.8,237.8 571.8,262.7 572.7,241.3 573.7,242.5 574.7,237.9 575.6,248.4 576.6,249.8 577.6,258.0 578.5,243.4 579.5,261.4 580.4,246.4 581.4,260.5 582.4,263.5 583.3,245.9 584.3,252.1 585.3,245.1 586.2,250.1 587.2,244.2 588.2,249.0 589.1,243.3 590.1,239.7 591.1,235.3 592.0,249.3 593.0,243.9 593.9,237.7 594.9,236.7 595.9,243.3 596.8,245.2 597.8,252.2 598.8,234.8 599.7,248.9 600.7,249.7 601.7,253.3 602.6,258.5 603.6,258.4 604.6,254.5 605.5,246.4 606.5,248.7 607.5,256.2 608.4,249.7 609.4,245.7 610.3,239.9 611.3,233.9 612.3,238.3 613.2,239.3 614.2,240.9 615.2,247.8 616.1,249.2 617.1,246.0 618.1,245.0 619.0,241.7 620.0,245.7 621.0,248.4 621.9,241.6 622.9,247.2 623.8,255.5 624.8,254.1 625.8,263.6 626.7,251.0 627.7,255.0 628.7,252.7 629.6,261.5 630.6,253.3 631.6,241.3 632.5,244.2 633.5,234.2 634.5,241.3 635.4,245.4 636.4,230.1 637.4,243.0 638.3,239.0 639.3,243.2 640.2,242.2 641.2,243.6 642.2,242.8 643.1,235.8 644.1,241.7 645.1,238.4 646.0,255.3 647.0,254.0 648.0,254.4 648.9,254.8 649.9,254.9 650.9,260.6 651.8,254.5 652.8,253.2 653.7,253.8 654.7,250.0 655.7,267.3 656.6,252.1 657.6,243.9 658.6,247.7 659.5,235.3 660.5,238.5 661.5,243.9 662.4,252.3 663.4,248.6 664.4,248.7 665.3,250.6 666.3,241.6 667.3,248.7 668.2,249.7 669.2,262.1 670.1,260.6 671.1,259.9 672.1,256.5 673.0,262.2 674.0,253.6 675.0,260.9 675.9,251.4 676.9,254.6 677.9,250.3 678.8,253.0 679.8,250.4 680.8,244.6 681.7,246.6 682.7,239.6 683.6,240.0 684.6,246.7 685.6,248.7 686.5,243.2 687.5,245.7 688.5,244.5 689.4,250.0 690.4,246.4 691.4,254.3 692.3,251.2 693.3,253.3 694.3,257.9 695.2,249.5 696.2,251.5 697.2,262.1 698.1,253.0 699.1,261.2 700.0,246.3 701.0,250.0 702.0,248.6 702.9,250.8 703.9,242.7 704.9,250.7 705.8,242.4 706.8,246.2 707.8,249.6 708.7,243.8 709.7,243.9 710.7,258.9 711.6,253.2 712.6,249.6 713.5,249.2 714.5,252.0 715.5,252.7 716.4,252.7 717.4,263.5 718.4,245.9 719.3,269.6 720.3,252.0 721.3,255.0 722.2,256.0 723.2,241.1 724.2,249.0 725.1,249.8 726.1,248.9 727.1,249.7 728.0,264.1 729.0,258.0 729.9,241.3 730.9,243.7 731.9,342.1 732.8,337.6 733.8,337.9 734.8,335.7 735.7,336.7 736.7,341.5 737.7,340.3 738.6,339.8 739.6,339.6 740.6,340.4 741.5,338.1 742.5,337.5 743.5,338.8 744.4,338.0 745.4,341.8 746.3,337.4 747.3,346.5 748.3,336.8 749.2,339.2 750.2,336.8 751.2,336.7 752.1,337.6 753.1,336.1 754.1,339.8 755.0,339.7 756.0,337.2 757.0,338.7 757.9,337.7 758.9,338.4 759.8,336.6 760.8,340.8 761.8,334.7 762.7,337.2 763.7,339.1 764.7,339.4 765.6,338.8 766.6,341.6 767.6,339.2 768.5,339.4 769.5,337.1 770.5,338.1 771.4,336.2 772.4,337.8 773.4,338.0 774.3,337.5 775.3,338.6 776.2,335.8 777.2,336.2 778.2,336.9 779.1,337.4 780.1,332.4 781.1,332.2 782.0,331.3 783.0,336.8 784.0,336.9 784.9,336.8 785.9,336.2 786.9,338.6 787.8,338.0 788.8,338.6 789.7,339.6 790.7,338.6 791.7,337.1 792.6,331.5 793.6,336.4 794.6,337.1 795.5,336.9 796.5,334.8 797.5,335.9 798.4,335.2 799.4,342.9 800.4,286.0 801.3,335.7 802.3,336.9 803.3,338.6 804.2,338.2 805.2,336.2 806.1,309.0 807.1,340.0 808.1,338.7 809.0,319.5 810.0,345.3 811.0,340.9 811.9,339.1 812.9,338.9 813.9,333.9 814.8,333.3 815.8,328.2 816.8,313.8 817.7,310.7 818.7,333.1 819.6,335.8 820.6,348.0 821.6,338.2 822.5,314.0 823.5,338.1 824.5,330.9 825.4,335.4 826.4,344.4 827.4,313.9 828.3,337.2 829.3,338.2 830.3,337.2 831.2,316.0 832.2,343.6 833.2,342.0 834.1,342.1 835.1,342.2 836.0,341.6 837.0,342.7 838.0,343.1 838.9,347.5 839.9,310.0 840.9,345.4 841.8,343.1 842.8,342.1 843.8,316.1 844.7,342.3 845.7,335.7 846.7,340.9 847.6,318.1 848.6,338.3 849.5,342.2 850.5,339.6 851.5,321.0 852.4,347.0 853.4,341.5 854.4,322.9 855.3,341.8 856.3,341.9 857.3,340.7 858.2,339.4 859.2,342.2 860.2,341.9 861.1,340.1 862.1,316.8 863.1,316.9 864.0,343.7 865.0,340.3 865.9,313.1 866.9,338.1 867.9,336.7 868.8,338.3 869.8,294.0 870.8,340.8 871.7,340.4 872.7,311.9 873.7,343.7 874.6,339.4 875.6,319.5 876.6,344.3 877.5,318.8 878.5,336.9 879.4,344.1 880.4,343.6 881.4,341.6 882.3,339.2 883.3,340.2 884.3,342.0 885.2,340.4 886.2,293.7 887.2,340.2 888.1,342.3 889.1,337.2 890.1,311.6 891.0,342.1 892.0,337.4 893.0,340.7 893.9,319.0 894.9,338.3 895.8,316.6 896.8,337.6 897.8,338.9 898.7,315.0 899.7,339.6 900.7,320.0 901.6,342.0 902.6,338.9 903.6,343.4 904.5,340.7 905.5,346.5 906.5,341.4 907.4,338.5 908.4,339.6 909.3,340.1 910.3,316.3 911.3,313.8 912.2,339.3 913.2,338.6 914.2,338.3 915.1,343.5 916.1,343.4 917.1,334.7 918.0,318.2 919.0,340.9 920.0,345.0 920.9,341.7 921.9,322.1 922.9,340.8 923.8,342.8 924.8,351.6 925.7,327.8 926.7,342.3 927.7,348.3 928.6,345.7 929.6,341.6 930.6,343.9 931.5,346.8 932.5,323.9 933.5,321.3 934.4,349.4 935.4,342.0 936.4,340.6 937.3,320.4 938.3,345.0 939.2,339.9 940.2,342.3 941.2,348.1 942.1,342.6 943.1,320.8 944.1,343.3 945.0,346.5 946.0,341.8" fill="none" stroke="#7c3aed" stroke-width="2.2" stroke-linejoin="round" stroke-linecap="round"/>
<line x1="76" y1="70" x2="94" y2="70" stroke="#2563eb" stroke-width="3"/>
<text x="100" y="74" font-family="Arial, sans-serif" font-size="11" fill="#0f172a">tx count</text>
<line x1="186" y1="70" x2="204" y2="70" stroke="#7c3aed" stroke-width="3"/>
<text x="210" y="74" font-family="Arial, sans-serif" font-size="11" fill="#0f172a">unique accounts</text>
<text x="28" y="404" font-family="Arial, sans-serif" font-size="11" fill="#64748b">Source: hourly_features.csv; capped windows are sample counts</text>
</svg>