<svg xmlns="http://www.w3.org/2000/svg" width="980" height="420" viewBox="0 0 980 420">
<rect width="100%" height="100%" fill="#ffffff"/>
<text x="28" y="34" font-family="Arial, sans-serif" font-size="20" font-weight="700" fill="#0f172a">Network activity sample trend</text>
<text x="28" y="56" font-family="Arial, sans-serif" font-size="12" fill="#64748b">Hourly transaction sample count and unique account sample count</text>
<line x1="76" y1="362.0" x2="946" y2="362.0" stroke="#e2e8f0" stroke-width="1"/>
<text x="68" y="366.0" font-family="Arial, sans-serif" font-size="10" text-anchor="end" fill="#64748b">153</text>
<line x1="76" y1="292.0" x2="946" y2="292.0" stroke="#e2e8f0" stroke-width="1"/>
<text x="68" y="296.0" font-family="Arial, sans-serif" font-size="10" text-anchor="end" fill="#64748b">1K</text>
<line x1="76" y1="222.0" x2="946" y2="222.0" stroke="#e2e8f0" stroke-width="1"/>
<text x="68" y="226.0" font-family="Arial, sans-serif" font-size="10" text-anchor="end" fill="#64748b">3K</text>
<line x1="76" y1="152.0" x2="946" y2="152.0" stroke="#e2e8f0" stroke-width="1"/>
<text x="68" y="156.0" font-family="Arial, sans-serif" font-size="10" text-anchor="end" fill="#64748b">4K</text>
<line x1="76" y1="82.0" x2="946" y2="82.0" stroke="#e2e8f0" stroke-width="1"/>
<text x="68" y="86.0" font-family="Arial, sans-serif" font-size="10" text-anchor="end" fill="#64748b">5K</text>
<line x1="76" y1="362" x2="946" y2="362" stroke="#334155" stroke-width="1"/>
<line x1="76" y1="82" x2="76" y2="362" stroke="#334155" stroke-width="1"/>
<text x="76" y="72" font-family="Arial, sans-serif" font-size="11" fill="#64748b">count</text>
<line x1="76.0" y1="362" x2="76.0" y2="366" stroke="#334155" stroke-width="1"/>
<text x="76.0" y="380" font-family="Arial, sans-serif" font-size="10" text-anchor="middle" fill="#64748b">0</text>
<line x1="511.0" y1="362" x2="511.0" y2="366" stroke="#334155" stroke-width="1"/>
<text x="511.0" y="380" font-family="Arial, sans-serif" font-size="10" text-anchor="middle" fill="#64748b">464</text>
<line x1="946.0" y1="362" x2="946.0" y2="366" stroke="#334155" stroke-width="1"/>
<text x="946.0" y="380" font-family="Arial, sans-serif" font-size="10" text-anchor="middle" fill="#64748b">928</text>
<polyline points="76.0,92.4 76.9,92.4 77.9,92.4 78.8,92.4 79.8,92.4 80.7,92.4 81.6,92.4 82.6,92.4 83.5,92.4 84.4,92.4 85.4,92.4 86.3,92.4 87.2,92.4 88.2,92.4 89.1,92.4 90.1,92.4 91.0,92.4 91.9,92.4 92.9,92.4 93.8,92.4 94.8,92.4 95.7,92.4 96.6,92.4 97.6,92.4 98.5,92.4 99.4,92.4 100.4,92.4 101.3,92.4 102.2,92.4 103.2,92.4 104.1,92.4 105.1,92.4 106.0,92.4 106.9,92.4 107.9,92.4 108.8,92.4 109.8,92.4 110.7,92.4 111.6,92.4 112.6,92.4 113.5,92.4 114.4,92.4 115.4,92.4 116.3,92.4 117.2,92.4 118.2,92.4 119.1,92.4 120.1,92.4 121.0,92.4 121.9,92.4 122.9,92.4 123.8,92.4 124.8,92.4 125.7,92.4 126.6,92.4 127.6,92.4 128.5,92.4 129.4,92.4 130.4,92.4 131.3,92.4 132.2,92.4 133.2,92.4 134.1,92.4 135.1,92.4 136.0,92.4 136.9,92.4 137.9,92.4 138.8,92.4 139.8,92.4 140.7,92.4 141.6,92.4 142.6,92.4 143.5,92.4 144.4,92.4 145.4,92.4 146.3,92.4 147.2,92.4 148.2,92.4 149.1,92.4 150.1,92.4 151.0,92.4 151.9,92.4 152.9,92.4 153.8,92.4 154.8,92.4 155.7,92.4 156.6,92.4 157.6,92.4 158.5,92.4 159.4,92.4 160.4,92.4 161.3,92.4 162.2,92.4 163.2,92.4 164.1,92.4 165.1,92.4 166.0,92.4 166.9,92.4 167.9,92.4 168.8,92.4 169.8,92.4 170.7,92.4 171.6,92.4 172.6,92.4 173.5,92.4 174.4,92.4 175.4,92.4 176.3,92.4 177.2,92.4 178.2,92.4 179.1,92.4 180.1,92.4 181.0,92.4 181.9,92.4 182.9,92.4 183.8,92.4 184.8,92.4 185.7,92.4 186.6,92.4 187.6,92.4 188.5,92.4 189.4,92.4 190.4,92.4 191.3,92.4 192.2,92.4 193.2,92.4 194.1,92.4 195.1,92.4 196.0,92.4 196.9,92.4 197.9,92.4 198.8,92.4 199.8,92.4 200.7,92.4 201.6,92.4 202.6,92.4 203.5,92.4 204.4,92.4 205.4,92.4 206.3,92.4 207.2,92.4 208.2,92.4 209.1,92.4 210.1,92.4 211.0,92.4 211.9,92.4 212.9,92.4 213.8,92.4 214.8,92.4 215.7,92.4 216.6,92.4 217.6,92.4 218.5,92.4 219.4,92.4 220.4,92.4 221.3,92.4 222.2,92.4 223.2,92.4 224.1,92.4 225.1,92.4 226.0,92.4 226.9,92.4 227.9,92.4 228.8,92.4 229.8,92.4 230.7,92.4 231.6,92.4 232.6,92.4 233.5,92.4 234.4,92.4 235.4,92.4 236.3,92.4 237.2,92.4 238.2,92.4 239.1,92.4 240.1,92.4 241.0,92.4 241.9,92.4 242.9,92.4 243.8,92.4 244.8,92.4 245.7,92.4 246.6,92.4 247.6,92.4 248.5,92.4 249.4,92.4 250.4,92.4 251.3,92.4 252.2,92.4 253.2,92.4 254.1,92.4 255.1,92.4 256.0,92.4 256.9,92.4 257.9,92.4 258.8,92.4 259.8,92.4 260.7,92.4 261.6,92.4 262.6,92.4 263.5,92.4 264.4,92.4 265.4,92.4 266.3,92.4 267.2,92.4 268.2,92.4 269.1,92.4 270.1,92.4 271.0,92.4 271.9,92.4 272.9,92.4 273.8,92.4 274.8,92.4 275.7,92.4 276.6,92.4 277.6,92.4 278.5,92.4 279.4,92.4 280.4,92.4 281.3,92.4 282.2,92.4 283.2,92.4 284.1,92.4 285.1,92.4 286.0,92.4 286.9,92.4 287.9,92.4 288.8,92.4 289.8,92.4 290.7,92.4 291.6,92.4 292.6,92.4 293.5,92.4 294.4,92.4 295.4,92.4 296.3,92.4 297.2,92.4 298.2,92.4 299.1,92.4 300.1,92.4 301.0,92.4 301.9,92.4 302.9,92.4 303.8,92.4 304.8,92.4 305.7,92.4 306.6,92.4 307.6,92.4 308.5,92.4 309.4,92.4 310.4,92.4 311.3,92.4 312.2,92.4 313.2,92.4 314.1,92.4 315.1,92.4 316.0,92.4 316.9,92.4 317.9,92.4 318.8,92.4 319.8,92.4 320.7,92.4 321.6,92.4 322.6,92.4 323.5,92.4 324.4,92.4 325.4,92.4 326.3,92.4 327.2,92.4 328.2,92.4 329.1,92.4 330.1,92.4 331.0,92.4 331.9,92.4 332.9,92.4 333.8,92.4 334.8,92.4 335.7,92.4 336.6,92.4 337.6,92.4 338.5,92.4 339.4,92.4 340.4,92.4 341.3,92.4 342.2,92.4 343.2,92.4 344.1,92.4 345.1,92.4 346.0,92.4 346.9,92.4 347.9,92.4 348.8,92.4 349.8,92.4 350.7,92.4 351.6,92.4 352.6,92.4 353.5,92.4 354.4,92.4 355.4,92.4 356.3,92.4 357.2,92.4 358.2,92.4 359.1,92.4 360.1,92.4 361.0,92.4 361.9,92.4 362.9,92.4 363.8,92.4 364.8,92.4 365.7,92.4 366.6,92.4 367.6,92.4 368.5,92.4 369.4,92.4 370.4,92.4 371.3,92.4 372.2,92.4 373.2,92.4 374.1,92.4 375.1,92.4 376.0,92.4 376.9,92.4 377.9,92.4 378.8,92.4 379.8,92.4 380.7,92.4 381.6,92.4 382.6,92.4 383.5,92.4 384.4,92.4 385.4,92.4 386.3,92.4 387.2,92.4 388.2,92.4 389.1,92.4 390.1,92.4 391.0,92.4 391.9,92.4 392.9,92.4 393.8,92.4 394.8,92.4 395.7,92.4 396.6,92.4 397.6,92.4 398.5,92.4 399.4,92.4 400.4,92.4 401.3,92.4 402.2,92.4 403.2,92.4 404.1,92.4 405.1,92.4 406.0,92.4 406.9,92.4 407.9,92.4 408.8,92.4 409.8,92.4 410.7,92.4 411.6,92.4 412.6,92.4 413.5,92.4 414.4,92.4 415.4,92.4 416.3,92.4 417.2,92.4 418.2,92.4 419.1,92.4 420.1,92.4 421.0,92.4 421.9,92.4 422.9,92.4 423.8,92.4 424.8,92.4 425.7,92.4 426.6,92.4 427.6,92.4 428.5,92.4 429.4,92.4 430.4,92.4 431.3,92.4 432.2,92.4 433.2,92.4 434.1,92.4 435.1,92.4 436.0,92.4 436.9,92.4 437.9,92.4 438.8,92.4 439.8,92.4 440.7,92.4 441.6,92.4 442.6,92.4 443.5,92.4 444.4,92.4 445.4,92.4 446.3,92.4 447.2,92.4 448.2,92.4 449.1,92.4 450.1,92.4 451.0,92.4 451.9,92.4 452.9,92.4 453.8,92.4 454.8,92.4 455.7,92.4 456.6,92.4 457.6,92.4 458.5,92.4 459.4,92.4 460.4,92.4 461.3,92.4 462.2,92.4 463.2,92.4 464.1,92.4 465.1,92.4 466.0,92.4 466.9,92.4 467.9,92.4 468.8,92.4 469.8,92.4 470.7,92.4 471.6,92.4 472.6,92.4 473.5,92.4 474.4,92.4 475.4,92.4 476.3,92.4 477.2,92.4 478.2,92.4 479.1,92.4 480.1,92.4 481.0,92.4 481.9,92.4 482.9,92.4 483.8,92.4 484.8,92.4 485.7,92.4 486.6,92.4 487.6,92.4 488.5,92.4 489.4,92.4 490.4,92.4 491.3,92.4 492.2,92.4 493.2,92.4 494.1,92.4 495.1,92.4 496.0,92.4 496.9,92.4 497.9,92.4 498.8,92.4 499.8,92.4 500.7,92.4 501.6,92.4 502.6,92.4 503.5,92.4 504.4,92.4 505.4,92.4 506.3,92.4 507.2,92.4 508.2,92.4 509.1,92.4 510.1,92.4 511.0,92.4 511.9,92.4 512.9,92.4 513.8,92.4 514.8,92.4 515.7,92.4 516.6,92.4 517.6,92.4 518.5,92.4 519.4,92.4 520.4,92.4 521.3,92.4 522.2,92.4 523.2,92.4 524.1,92.4 525.1,92.4 526.0,92.4 526.9,92.4 527.9,92.4 528.8,92.4 529.8,92.4 530.7,92.4 531.6,92.4 532.6,92.4 533.5,92.4 534.4,92.4 535.4,92.4 536.3,92.4 537.2,92.4 538.2,92.4 539.1,92.4 540.1,92.4 541.0,92.4 541.9,92.4 542.9,92.4 543.8,92.4 544.8,92.4 545.7,92.4 546.6,92.4 547.6,92.4 548.5,92.4 549.4,92.4 550.4,92.4 551.3,92.4 552.2,92.4 553.2,92.4 554.1,92.4 555.1,92.4 556.0,92.4 556.9,92.4 557.9,92.4 558.8,92.4 559.8,92.4 560.7,92.4 561.6,92.4 562.6,92.4 563.5,92.4 564.4,92.4 565.4,92.4 566.3,92.4 567.2,92.4 568.2,92.4 569.1,92.4 570.1,92.4 571.0,92.4 571.9,92.4 572.9,92.4 573.8,92.4 574.8,92.4 575.7,92.4 576.6,92.4 577.6,92.4 578.5,92.4 579.4,92.4 580.4,92.4 581.3,92.4 582.2,92.4 583.2,92.4 584.1,92.4 585.1,92.4 586.0,92.4 586.9,92.4 587.9,92.4 588.8,92.4 589.8,92.4 590.7,92.4 591.6,92.4 592.6,92.4 593.5,92.4 594.4,92.4 595.4,92.4 596.3,92.4 597.2,92.4 598.2,92.4 599.1,92.4 600.1,92.4 601.0,92.4 601.9,92.4 602.9,92.4 603.8,92.4 604.8,92.4 605.7,92.4 606.6,92.4 607.6,92.4 608.5,92.4 609.4,92.4 610.4,92.4 611.3,92.4 612.2,92.4 613.2,92.4 614.1,92.4 615.1,92.4 616.0,92.4 616.9,92.4 617.9,92.4 618.8,92.4 619.8,92.4 620.7,92.4 621.6,92.4 622.6,92.4 623.5,92.4 624.4,92.4 625.4,92.4 626.3,92.4 627.2,92.4 628.2,92.4 629.1,92.4 630.1,92.4 631.0,92.4 631.9,92.4 632.9,92.4 633.8,92.4 634.8,92.4 635.7,92.4 636.6,92.4 637.6,92.4 638.5,92.4 639.4,92.4 640.4,92.4 641.3,92.4 642.2,92.4 643.2,92.4 644.1,92.4 645.1,92.4 646.0,92.4 646.9,92.4 647.9,92.4 648.8,92.4 649.8,92.4 650.7,92.4 651.6,92.4 652.6,92.4 653.5,92.4 654.4,92.4 655.4,92.4 656.3,92.4 657.2,92.4 658.2,92.4 659.1,92.4 660.1,92.4 661.0,92.4 661.9,92.4 662.9,92.4 663.8,92.4 664.8,92.4 665.7,92.4 666.6,92.4 667.6,92.4 668.5,92.4 669.4,92.4 670.4,92.4 671.3,92.4 672.2,92.4 673.2,92.4 674.1,92.4 675.1,92.4 676.0,92.4 676.9,92.4 677.9,92.4 678.8,92.4 679.8,92.4 680.7,92.4 681.6,92.4 682.6,92.4 683.5,92.4 684.4,92.4 685.4,92.4 686.3,92.4 687.2,92.4 688.2,92.4 689.1,92.4 690.1,92.4 691.0,92.4 691.9,92.4 692.9,92.4 693.8,92.4 694.8,92.4 695.7,92.4 696.6,92.4 697.6,92.4 698.5,92.4 699.4,92.4 700.4,92.4 701.3,92.4 702.2,92.4 703.2,92.4 704.1,92.4 705.1,92.4 706.0,92.4 706.9,92.4 707.9,92.4 708.8,92.4 709.8,92.4 710.7,92.4 711.6,92.4 712.6,92.4 713.5,314.9 714.4,314.9 715.4,314.9 716.3,314.9 717.2,314.9 718.2,314.9 719.1,314.9 720.1,314.9 721.0,314.9 721.9,314.9 722.9,314.9 723.8,314.9 724.8,314.9 725.7,314.9 726.6,314.9 727.6,314.9 728.5,314.9 729.4,314.9 730.4,314.9 731.3,314.9 732.2,314.9 733.2,314.9 734.1,314.9 735.1,314.9 736.0,314.9 736.9,314.9 737.9,314.9 738.8,314.9 739.8,314.9 740.7,314.9 741.6,314.9 742.6,314.9 743.5,314.9 744.4,314.9 745.4,314.9 746.3,314.9 747.2,314.9 748.2,314.9 749.1,314.9 750.1,314.9 751.0,314.9 751.9,314.9 752.9,314.9 753.8,314.9 754.8,314.9 755.7,314.9 756.6,314.9 757.6,314.9 758.5,314.9 759.4,314.9 760.4,314.9 761.3,314.9 762.2,314.9 763.2,314.9 764.1,314.9 765.1,314.9 766.0,314.9 766.9,314.9 767.9,314.9 768.8,314.9 769.8,314.9 770.7,314.9 771.6,314.9 772.6,314.9 773.5,314.9 774.4,314.9 775.4,314.9 776.3,314.9 777.2,314.9 778.2,314.9 779.1,314.9 780.1,205.4 781.0,314.9 781.9,314.9 782.9,314.9 783.8,314.9 784.8,314.9 785.7,261.0 786.6,314.9 787.6,314.9 788.5,261.1 789.4,314.9 790.4,314.9 791.3,314.9 792.2,314.9 793.2,314.9 794.1,314.9 795.1,314.9 796.0,259.9 796.9,261.1 797.9,314.9 798.8,314.9 799.8,314.9 800.7,314.9 801.6,262.2 802.6,314.9 803.5,314.9 804.4,314.9 805.4,314.9 806.3,259.6 807.2,314.9 808.2,314.9 809.1,314.9 810.1,260.7 811.0,314.9 811.9,314.9 812.9,314.9 813.8,314.9 814.8,314.9 815.7,314.9 816.6,314.9 817.6,314.9 818.5,205.9 819.4,314.9 820.4,314.9 821.3,314.9 822.2,260.1 823.2,314.9 824.1,314.9 825.1,314.9 826.0,260.5 826.9,314.9 827.9,314.9 828.8,314.9 829.8,260.6 830.7,314.9 831.6,314.9 832.6,260.0 833.5,314.9 834.4,314.9 835.4,314.9 836.3,314.9 837.2,314.9 838.2,314.9 839.1,314.9 840.1,259.6 841.0,259.3 841.9,314.9 842.9,314.9 843.8,261.6 844.8,314.9 845.7,314.9 846.6,314.9 847.6,259.3 848.5,314.9 849.4,314.9 850.4,259.7 851.3,314.9 852.2,314.9 853.2,259.3 854.1,314.9 855.1,260.6 856.0,314.9 856.9,314.9 857.9,314.9 858.8,314.9 859.8,314.9 860.7,314.9 861.6,314.9 862.6,314.9 863.5,205.5 864.4,314.9 865.4,314.9 866.3,314.9 867.2,260.2 868.2,314.9 869.1,314.9 870.1,314.9 871.0,262.1 871.9,314.9 872.9,261.0 873.8,314.9 874.8,314.9 875.7,259.9 876.6,314.9 877.6,259.4 878.5,314.9 879.4,314.9 880.4,314.9 881.3,314.9 882.2,314.9 883.2,314.9 884.1,314.9 885.1,314.9 886.0,314.9 886.9,260.2 887.9,262.5 888.8,314.9 889.8,314.9 890.7,314.9 891.6,314.9 892.6,314.9 893.5,314.9 894.4,261.4 895.4,314.9 896.3,314.9 897.2,314.9 898.2,259.5 899.1,314.9 900.1,314.9 901.0,314.9 901.9,261.1 902.9,314.9 903.8,314.9 904.8,314.9 905.7,314.9 906.6,314.9 907.6,314.9 908.5,260.1 909.4,265.3 910.4,314.9 911.3,314.9 912.2,314.9 913.2,267.5 914.1,314.9 915.1,314.9 916.0,314.9 916.9,314.9 917.9,314.9 918.8,267.2 919.8,314.9 920.7,314.9 921.6,260.2 922.6,314.9 923.5,314.9 924.4,314.9 925.4,314.9 926.3,314.9 927.2,314.9 928.2,314.9 929.1,314.9 930.1,314.9 931.0,314.9 931.9,314.9 932.9,261.2 933.8,314.9 934.8,314.9 935.7,314.9 936.6,314.9 937.6,314.9 938.5,261.3 939.4,314.9 940.4,314.9 941.3,314.9 942.2,314.9 943.2,261.4 944.1,314.9 945.1,314.9 946.0,314.9" fill="none" stroke="#2563eb" stroke-width="2.2" stroke-linejoin="round" stroke-linecap="round"/>
<polyline points="76.0,260.4 76.9,256.5 77.9,247.3 78.8,245.1 79.8,248.7 80.7,238.2 81.6,237.6 82.6,241.4 83.5,246.3 84.4,245.8 85.4,262.2 86.3,243.9 87.2,243.1 88.2,244.7 89.1,248.8 90.1,257.0 91.0,254.2 91.9,251.9 92.9,249.4 93.8,254.3 94.8,259.1 95.7,255.2 96.6,253.3 97.6,253.0 98.5,247.1 99.4,245.5 100.4,247.5 101.3,239.0 102.2,230.5 103.2,239.1 104.1,241.4 105.1,255.0 106.0,248.8 106.9,248.4 107.9,252.9 108.8,248.3 109.8,245.2 110.7,251.1 111.6,244.9 112.6,244.8 113.5,242.6 114.4,259.5 115.4,255.8 116.3,251.9 117.2,218.0 118.2,220.5 119.1,253.1 120.1,249.0 121.0,235.3 121.9,217.5 122.9,237.8 123.8,248.9 124.8,241.8 125.7,240.0 126.6,241.8 127.6,244.6 128.5,242.3 129.4,247.8 130.4,239.2 131.3,244.8 132.2,236.8 133.2,243.3 134.1,241.8 135.1,282.4 136.0,267.5 136.9,259.9 137.9,267.6 138.8,264.6 139.8,236.4 140.7,231.8 141.6,241.3 142.6,257.5 143.5,269.9 144.4,243.9 145.4,243.3 146.3,245.9 147.2,258.7 148.2,248.2 149.1,256.8 150.1,243.7 151.0,238.4 151.9,251.7 152.9,247.7 153.8,252.3 154.8,253.5 155.7,251.8 156.6,259.6 157.6,249.2 158.5,249.2 159.4,251.5 160.4,247.8 161.3,265.8 162.2,229.5 163.2,253.5 164.1,248.8 165.1,216.5 166.0,254.2 166.9,243.1 167.9,245.7 168.8,225.0 169.8,244.0 170.7,246.2 171.6,238.9 172.6,247.2 173.5,241.5 174.4,247.9 175.4,242.2 176.3,240.7 177.2,240.6 178.2,245.9 179.1,243.2 180.1,249.6 181.0,235.8 181.9,249.2 182.9,250.3 183.8,248.7 184.8,218.2 185.7,202.0 186.6,213.0 187.6,214.0 188.5,213.6 189.4,223.1 190.4,218.6 191.3,214.2 192.2,241.4 193.2,244.2 194.1,239.8 195.1,241.1 196.0,240.1 196.9,239.6 197.9,240.6 198.8,242.4 199.8,241.3 200.7,242.9 201.6,247.5 202.6,242.9 203.5,255.8 204.4,255.5 205.4,246.0 206.3,260.9 207.2,287.5 208.2,252.0 209.1,265.7 210.1,253.3 211.0,251.1 211.9,251.3 212.9,248.6 213.8,249.6 214.8,243.1 215.7,248.9 216.6,242.2 217.6,240.3 218.5,238.7 219.4,240.6 220.4,249.2 221.3,261.7 222.2,245.0 223.2,250.0 224.1,248.7 225.1,250.8 226.0,251.1 226.9,256.3 227.9,258.4 228.8,256.7 229.8,289.3 230.7,253.4 231.6,267.7 232.6,234.2 233.5,249.9 234.4,242.9 235.4,246.8 236.3,238.4 237.2,240.6 238.2,246.6 239.1,241.0 240.1,234.6 241.0,243.6 241.9,245.3 242.9,239.3 243.8,243.1 244.8,242.9 245.7,244.7 246.6,245.7 247.6,249.5 248.5,251.0 249.4,256.7 250.4,261.1 251.3,250.0 252.2,282.8 253.2,249.5 254.1,252.8 255.1,248.4 256.0,247.6 256.9,240.8 257.9,240.3 258.8,240.1 259.8,238.9 260.7,245.2 261.6,245.9 262.6,256.6 263.5,255.0 264.4,251.5 265.4,247.9 266.3,253.5 267.2,245.4 268.2,251.3 269.1,243.7 270.1,251.1 271.0,255.8 271.9,259.0 272.9,256.6 273.8,263.8 274.8,294.7 275.7,257.7 276.6,258.0 277.6,256.3 278.5,255.5 279.4,247.4 280.4,245.8 281.3,243.7 282.2,250.1 283.2,246.6 284.1,243.3 285.1,243.3 286.0,239.2 286.9,246.0 287.9,238.2 288.8,239.3 289.8,238.8 290.7,253.5 291.6,253.2 292.6,251.9 293.5,257.0 294.4,270.8 295.4,255.6 296.3,258.2 297.2,255.8 298.2,250.1 299.1,230.0 300.1,217.9 301.0,255.3 301.9,242.9 302.9,226.3 303.8,222.7 304.8,222.3 305.7,222.0 306.6,220.9 307.6,237.2 308.5,229.8 309.4,233.3 310.4,234.0 311.3,243.6 312.2,254.5 313.2,264.0 314.1,243.1 315.1,281.2 316.0,247.9 316.9,262.7 317.9,254.6 318.8,256.1 319.8,263.5 320.7,247.4 321.6,208.1 322.6,218.9 323.5,221.1 324.4,223.9 325.4,213.4 326.3,225.5 327.2,220.2 328.2,207.3 329.1,239.9 330.1,237.7 331.0,246.7 331.9,249.2 332.9,245.3 333.8,241.6 334.8,250.3 335.7,248.1 336.6,246.6 337.6,265.0 338.5,250.0 339.4,245.5 340.4,256.6 341.3,225.3 342.2,209.7 343.2,215.1 344.1,253.5 345.1,249.3 346.0,243.2 346.9,267.8 347.9,237.3 348.8,242.6 349.8,241.2 350.7,248.6 351.6,230.5 352.6,240.7 353.5,242.6 354.4,263.0 355.4,237.2 356.3,242.5 357.2,240.7 358.2,245.7 359.1,244.6 360.1,261.2 361.0,248.6 361.9,255.9 362.9,252.5 363.8,249.5 364.8,262.6 365.7,250.4 366.6,256.8 367.6,261.5 368.5,251.7 369.4,228.1 370.4,222.4 371.3,255.6 372.2,243.7 373.2,250.6 374.1,253.2 375.1,245.9 376.0,248.9 376.9,247.9 377.9,246.3 378.8,243.2 379.8,262.6 380.7,260.6 381.6,256.0 382.6,260.0 383.5,256.7 384.4,281.1 385.4,274.0 386.3,270.5 387.2,274.0 388.2,280.0 389.1,279.9 390.1,275.1 391.0,279.0 391.9,280.9 392.9,275.9 393.8,273.5 394.8,263.4 395.7,248.9 396.6,257.3 397.6,270.9 398.5,258.7 399.4,261.0 400.4,255.5 401.3,263.2 402.2,259.9 403.2,259.7 404.1,259.7 405.1,252.1 406.0,260.4 406.9,255.1 407.9,259.1 408.8,247.4 409.8,252.7 410.7,258.3 411.6,260.4 412.6,261.4 413.5,257.0 414.4,256.1 415.4,250.1 416.3,249.3 417.2,252.2 418.2,231.7 419.1,244.6 420.1,256.7 421.0,245.3 421.9,242.2 422.9,247.4 423.8,249.2 424.8,251.0 425.7,250.5 426.6,252.3 427.6,252.8 428.5,248.9 429.4,259.6 430.4,258.2 431.3,263.2 432.2,258.0 433.2,263.0 434.1,255.0 435.1,251.7 436.0,259.2 436.9,242.1 437.9,250.8 438.8,243.5 439.8,247.1 440.7,233.2 441.6,241.0 442.6,245.9 443.5,253.4 444.4,234.3 445.4,248.8 446.3,234.7 447.2,240.4 448.2,245.6 449.1,244.1 450.1,244.7 451.0,243.4 451.9,251.0 452.9,263.7 453.8,255.6 454.8,212.9 455.7,219.2 456.6,215.4 457.6,229.6 458.5,219.0 459.4,219.5 460.4,227.1 461.3,248.0 462.2,245.8 463.2,232.3 464.1,243.8 465.1,242.9 466.0,250.7 466.9,243.8 467.9,245.3 468.8,246.1 469.8,245.5 470.7,237.0 471.6,238.8 472.6,249.7 473.5,250.6 474.4,249.7 475.4,257.1 476.3,246.4 477.2,253.3 478.2,253.3 479.1,253.9 480.1,250.4 481.0,248.2 481.9,245.3 482.9,233.3 483.8,255.4 484.8,237.3 485.7,215.7 486.6,242.6 487.6,241.2 488.5,245.2 489.4,246.3 490.4,243.4 491.3,242.4 492.2,245.8 493.2,248.8 494.1,246.7 495.1,250.1 496.0,247.5 496.9,250.1 497.9,256.1 498.8,258.4 499.8,237.5 500.7,260.2 501.6,265.6 502.6,268.5 503.5,250.8 504.4,247.3 505.4,254.5 506.3,240.3 507.2,242.5 508.2,233.9 509.1,243.7 510.1,249.9 511.0,238.4 511.9,232.4 512.9,236.9 513.8,239.8 514.8,233.1 515.7,250.4 516.6,242.8 517.6,242.2 518.5,259.9 519.4,302.6 520.4,247.7 521.3,243.7 522.2,256.6 523.2,253.6 524.1,250.8 525.1,254.0 526.0,243.0 526.9,240.2 527.9,238.8 528.8,240.8 529.8,246.3 530.7,238.9 531.6,235.3 532.6,240.0 533.5,237.8 534.4,234.5 535.4,239.4 536.3,244.8 537.2,241.3 538.2,243.7 539.1,246.7 540.1,236.6 541.0,249.4 541.9,247.2 542.9,273.7 543.8,257.3 544.8,248.7 545.7,266.9 546.6,249.3 547.6,252.0 548.5,251.7 549.4,246.2 550.4,235.9 551.3,244.6 552.2,244.9 553.2,243.1 554.1,244.1 555.1,234.4 556.0,238.2 556.9,237.8 557.9,262.7 558.8,241.3 559.8,242.5 560.7,237.9 561.6,248.4 562.6,249.8 563.5,258.0 564.4,243.4 565.4,261.4 566.3,246.4 567.2,260.5 568.2,263.5 569.1,245.9 570.1,252.1 571.0,245.1 571.9,250.1 572.9,244.2 573.8,249.0 574.8,243.3 575.7,239.7 576.6,235.3 577.6,249.3 578.5,243.9 579.4,237.7 580.4,236.7 581.3,243.3 582.2,245.2 583.2,252.2 584.1,234.8 585.1,248.9 586.0,249.7 586.9,253.3 587.9,258.5 588.8,258.4 589.8,254.5 590.7,246.4 591.6,248.7 592.6,256.2 593.5,249.7 594.4,245.7 595.4,239.9 596.3,233.9 597.2,238.3 598.2,239.3 599.1,240.9 600.1,247.8 601.0,249.2 601.9,246.0 602.9,245.0 603.8,241.7 604.8,245.7 605.7,248.4 606.6,241.6 607.6,247.2 608.5,255.5 609.4,254.1 610.4,263.6 611.3,251.0 612.2,255.0 613.2,252.7 614.1,261.5 615.1,253.3 616.0,241.3 616.9,244.2 617.9,234.2 618.8,241.3 619.8,245.4 620.7,230.1 621.6,243.0 622.6,239.0 623.5,243.2 624.4,242.2 625.4,243.6 626.3,242.8 627.2,235.8 628.2,241.7 629.1,238.4 630.1,255.3 631.0,254.0 631.9,254.4 632.9,254.8 633.8,254.9 634.8,260.6 635.7,254.5 636.6,253.2 637.6,253.8 638.5,250.0 639.4,267.3 640.4,252.1 641.3,243.9 642.2,247.7 643.2,235.3 644.1,238.5 645.1,243.9 646.0,252.3 646.9,248.6 647.9,248.7 648.8,250.6 649.8,241.6 650.7,248.7 651.6,249.7 652.6,262.1 653.5,260.6 654.4,259.9 655.4,256.5 656.3,262.2 657.2,253.6 658.2,260.9 659.1,251.4 660.1,254.6 661.0,250.3 661.9,253.0 662.9,250.4 663.8,244.6 664.8,246.6 665.7,239.6 666.6,240.0 667.6,246.7 668.5,248.7 669.4,243.2 670.4,245.7 671.3,244.5 672.2,250.0 673.2,246.4 674.1,254.3 675.1,251.2 676.0,253.3 676.9,257.9 677.9,249.5 678.8,251.5 679.8,262.1 680.7,253.0 681.6,261.2 682.6,246.3 683.5,250.0 684.4,248.6 685.4,250.8 686.3,242.7 687.2,250.7 688.2,242.4 689.1,246.2 690.1,249.6 691.0,243.8 691.9,243.9 692.9,258.9 693.8,253.2 694.8,249.6 695.7,249.2 696.6,252.0 697.6,252.7 698.5,252.7 699.4,263.5 700.4,245.9 701.3,269.6 702.2,252.0 703.2,255.0 704.1,256.0 705.1,241.1 706.0,249.0 706.9,249.8 707.9,248.9 708.8,249.7 709.8,264.1 710.7,258.0 711.6,241.3 712.6,243.7 713.5,342.1 714.4,337.6 715.4,337.9 716.3,335.7 717.2,336.7 718.2,341.5 719.1,340.3 720.1,339.8 721.0,339.6 721.9,340.4 722.9,338.1 723.8,337.5 724.8,338.8 725.7,338.0 726.6,341.8 727.6,337.4 728.5,346.5 729.4,336.8 730.4,339.2 731.3,336.8 732.2,336.7 733.2,337.6 734.1,336.1 735.1,339.8 736.0,339.7 736.9,337.2 737.9,338.7 738.8,337.7 739.8,338.4 740.7,336.6 741.6,340.8 742.6,334.7 743.5,337.2 744.4,339.1 745.4,339.4 746.3,338.8 747.2,341.6 748.2,339.2 749.1,339.4 750.1,337.1 751.0,338.1 751.9,336.2 752.9,337.8 753.8,338.0 754.8,337.5 755.7,338.6 756.6,335.8 757.6,336.2 758.5,336.9 759.4,337.4 760.4,332.4 761.3,332.2 762.2,331.3 763.2,336.8 764.1,336.9 765.1,336.8 766.0,336.2 766.9,338.6 767.9,338.0 768.8,338.6 769.8,339.6 770.7,338.6 771.6,337.1 772.6,331.5 773.5,336.4 774.4,337.1 775.4,336.9 776.3,334.8 777.2,335.9 778.2,335.2 779.1,342.9 780.1,286.0 781.0,335.7 781.9,336.9 782.9,338.6 783.8,338.2 784.8,336.2 785.7,309.0 786.6,340.0 787.6,338.7 788.5,319.5 789.4,345.3 790.4,340.9 791.3,339.1 792.2,338.9 793.2,333.9 794.1,333.3 795.1,328.2 796.0,313.8 796.9,310.7 797.9,333.1 798.8,335.8 799.8,348.0 800.7,338.2 801.6,314.0 802.6,338.1 803.5,330.9 804.4,335.4 805.4,344.4 806.3,313.9 807.2,337.2 808.2,338.2 809.1,337.2 810.1,316.0 811.0,343.6 811.9,342.0 812.9,342.1 813.8,342.2 814.8,341.6 815.7,342.7 816.6,343.1 817.6,347.5 818.5,310.0 819.4,345.4 820.4,343.1 821.3,342.1 822.2,316.1 823.2,342.3 824.1,335.7 825.1,340.9 826.0,318.1 826.9,338.3 827.9,342.2 828.8,339.6 829.8,321.0 830.7,347.0 831.6,341.5 832.6,322.9 833.5,341.8 834.4,341.9 835.4,340.7 836.3,339.4 837.2,342.2 838.2,341.9 839.1,340.1 840.1,316.8 841.0,316.9 841.9,343.7 842.9,340.3 843.8,313.1 844.8,338.1 845.7,336.7 846.6,338.3 847.6,294.0 848.5,340.8 849.4,340.4 850.4,311.9 851.3,343.7 852.2,339.4 853.2,319.5 854.1,344.3 855.1,318.8 856.0,336.9 856.9,344.1 857.9,343.6 858.8,341.6 859.8,339.2 860.7,340.2 861.6,342.0 862.6,340.4 863.5,293.7 864.4,340.2 865.4,342.3 866.3,337.2 867.2,311.6 868.2,342.1 869.1,337.4 870.1,340.7 871.0,319.0 871.9,338.3 872.9,316.6 873.8,337.6 874.8,338.9 875.7,315.0 876.6,339.6 877.6,320.0 878.5,342.0 879.4,338.9 880.4,343.4 881.3,340.7 882.2,346.5 883.2,341.4 884.1,338.5 885.1,339.6 886.0,340.1 886.9,316.3 887.9,313.8 888.8,339.3 889.8,338.6 890.7,338.3 891.6,343.5 892.6,343.4 893.5,334.7 894.4,318.2 895.4,340.9 896.3,345.0 897.2,341.7 898.2,322.1 899.1,340.8 900.1,342.8 901.0,351.6 901.9,327.8 902.9,342.3 903.8,348.3 904.8,345.7 905.7,341.6 906.6,343.9 907.6,346.8 908.5,323.9 909.4,321.3 910.4,349.4 911.3,342.0 912.2,340.6 913.2,320.4 914.1,345.0 915.1,339.9 916.0,342.3 916.9,348.1 917.9,342.6 918.8,320.8 919.8,343.3 920.7,346.5 921.6,324.1 922.6,346.3 923.5,345.7 924.4,346.8 925.4,348.3 926.3,348.1 927.2,346.3 928.2,347.2 929.1,346.5 930.1,341.0 931.0,340.7 931.9,338.4 932.9,317.8 933.8,343.2 934.8,340.1 935.7,343.0 936.6,342.7 937.6,340.3 938.5,322.4 939.4,348.9 940.4,335.4 941.3,337.7 942.2,343.5 943.2,315.5 944.1,346.9 945.1,345.3 946.0,343.3" fill="none" stroke="#7c3aed" stroke-width="2.2" stroke-linejoin="round" stroke-linecap="round"/>
<line x1="76" y1="70" x2="94" y2="70" stroke="#2563eb" stroke-width="3"/>
<text x="100" y="74" font-family="Arial, sans-serif" font-size="11" fill="#0f172a">tx count</text>
<line x1="186" y1="70" x2="204" y2="70" stroke="#7c3aed" stroke-width="3"/>
<text x="210" y="74" font-family="Arial, sans-serif" font-size="11" fill="#0f172a">unique accounts</text>
<text x="28" y="404" font-family="Arial, sans-serif" font-size="11" fill="#64748b">Source: hourly_features.csv; capped windows are sample counts</text>
</svg>