<svg xmlns="http://www.w3.org/2000/svg" width="980" height="420" viewBox="0 0 980 420">
<rect width="100%" height="100%" fill="#ffffff"/>
<text x="28" y="34" font-family="Arial, sans-serif" font-size="20" font-weight="700" fill="#0f172a">Network activity sample trend</text>
<text x="28" y="56" font-family="Arial, sans-serif" font-size="12" fill="#64748b">Hourly transaction sample count and unique account sample count</text>
<line x1="76" y1="362.0" x2="946" y2="362.0" stroke="#e2e8f0" stroke-width="1"/>
<text x="68" y="366.0" font-family="Arial, sans-serif" font-size="10" text-anchor="end" fill="#64748b">153</text>
<line x1="76" y1="292.0" x2="946" y2="292.0" stroke="#e2e8f0" stroke-width="1"/>
<text x="68" y="296.0" font-family="Arial, sans-serif" font-size="10" text-anchor="end" fill="#64748b">1K</text>
<line x1="76" y1="222.0" x2="946" y2="222.0" stroke="#e2e8f0" stroke-width="1"/>
<text x="68" y="226.0" font-family="Arial, sans-serif" font-size="10" text-anchor="end" fill="#64748b">3K</text>
<line x1="76" y1="152.0" x2="946" y2="152.0" stroke="#e2e8f0" stroke-width="1"/>
<text x="68" y="156.0" font-family="Arial, sans-serif" font-size="10" text-anchor="end" fill="#64748b">4K</text>
<line x1="76" y1="82.0" x2="946" y2="82.0" stroke="#e2e8f0" stroke-width="1"/>
<text x="68" y="86.0" font-family="Arial, sans-serif" font-size="10" text-anchor="end" fill="#64748b">5K</text>
<line x1="76" y1="362" x2="946" y2="362" stroke="#334155" stroke-width="1"/>
<line x1="76" y1="82" x2="76" y2="362" stroke="#334155" stroke-width="1"/>
<text x="76" y="72" font-family="Arial, sans-serif" font-size="11" fill="#64748b">count</text>
<line x1="76.0" y1="362" x2="76.0" y2="366" stroke="#334155" stroke-width="1"/>
<text x="76.0" y="380" font-family="Arial, sans-serif" font-size="10" text-anchor="middle" fill="#64748b">0</text>
<line x1="511.5" y1="362" x2="511.5" y2="366" stroke="#334155" stroke-width="1"/>
<text x="511.5" y="380" font-family="Arial, sans-serif" font-size="10" text-anchor="middle" fill="#64748b">447</text>
<line x1="946.0" y1="362" x2="946.0" y2="366" stroke="#334155" stroke-width="1"/>
<text x="946.0" y="380" font-family="Arial, sans-serif" font-size="10" text-anchor="middle" fill="#64748b">893</text>
<polyline points="76.0,92.4 77.0,92.4 77.9,92.4 78.9,92.4 79.9,92.4 80.9,92.4 81.8,92.4 82.8,92.4 83.8,92.4 84.8,92.4 85.7,92.4 86.7,92.4 87.7,92.4 88.7,92.4 89.6,92.4 90.6,92.4 91.6,92.4 92.6,92.4 93.5,92.4 94.5,92.4 95.5,92.4 96.5,92.4 97.4,92.4 98.4,92.4 99.4,92.4 100.4,92.4 101.3,92.4 102.3,92.4 103.3,92.4 104.3,92.4 105.2,92.4 106.2,92.4 107.2,92.4 108.2,92.4 109.1,92.4 110.1,92.4 111.1,92.4 112.0,92.4 113.0,92.4 114.0,92.4 115.0,92.4 115.9,92.4 116.9,92.4 117.9,92.4 118.9,92.4 119.8,92.4 120.8,92.4 121.8,92.4 122.8,92.4 123.7,92.4 124.7,92.4 125.7,92.4 126.7,92.4 127.6,92.4 128.6,92.4 129.6,92.4 130.6,92.4 131.5,92.4 132.5,92.4 133.5,92.4 134.5,92.4 135.4,92.4 136.4,92.4 137.4,92.4 138.4,92.4 139.3,92.4 140.3,92.4 141.3,92.4 142.2,92.4 143.2,92.4 144.2,92.4 145.2,92.4 146.1,92.4 147.1,92.4 148.1,92.4 149.1,92.4 150.0,92.4 151.0,92.4 152.0,92.4 153.0,92.4 153.9,92.4 154.9,92.4 155.9,92.4 156.9,92.4 157.8,92.4 158.8,92.4 159.8,92.4 160.8,92.4 161.7,92.4 162.7,92.4 163.7,92.4 164.7,92.4 165.6,92.4 166.6,92.4 167.6,92.4 168.6,92.4 169.5,92.4 170.5,92.4 171.5,92.4 172.5,92.4 173.4,92.4 174.4,92.4 175.4,92.4 176.3,92.4 177.3,92.4 178.3,92.4 179.3,92.4 180.2,92.4 181.2,92.4 182.2,92.4 183.2,92.4 184.1,92.4 185.1,92.4 186.1,92.4 187.1,92.4 188.0,92.4 189.0,92.4 190.0,92.4 191.0,92.4 191.9,92.4 192.9,92.4 193.9,92.4 194.9,92.4 195.8,92.4 196.8,92.4 197.8,92.4 198.8,92.4 199.7,92.4 200.7,92.4 201.7,92.4 202.7,92.4 203.6,92.4 204.6,92.4 205.6,92.4 206.5,92.4 207.5,92.4 208.5,92.4 209.5,92.4 210.4,92.4 211.4,92.4 212.4,92.4 213.4,92.4 214.3,92.4 215.3,92.4 216.3,92.4 217.3,92.4 218.2,92.4 219.2,92.4 220.2,92.4 221.2,92.4 222.1,92.4 223.1,92.4 224.1,92.4 225.1,92.4 226.0,92.4 227.0,92.4 228.0,92.4 229.0,92.4 229.9,92.4 230.9,92.4 231.9,92.4 232.9,92.4 233.8,92.4 234.8,92.4 235.8,92.4 236.8,92.4 237.7,92.4 238.7,92.4 239.7,92.4 240.6,92.4 241.6,92.4 242.6,92.4 243.6,92.4 244.5,92.4 245.5,92.4 246.5,92.4 247.5,92.4 248.4,92.4 249.4,92.4 250.4,92.4 251.4,92.4 252.3,92.4 253.3,92.4 254.3,92.4 255.3,92.4 256.2,92.4 257.2,92.4 258.2,92.4 259.2,92.4 260.1,92.4 261.1,92.4 262.1,92.4 263.1,92.4 264.0,92.4 265.0,92.4 266.0,92.4 267.0,92.4 267.9,92.4 268.9,92.4 269.9,92.4 270.8,92.4 271.8,92.4 272.8,92.4 273.8,92.4 274.7,92.4 275.7,92.4 276.7,92.4 277.7,92.4 278.6,92.4 279.6,92.4 280.6,92.4 281.6,92.4 282.5,92.4 283.5,92.4 284.5,92.4 285.5,92.4 286.4,92.4 287.4,92.4 288.4,92.4 289.4,92.4 290.3,92.4 291.3,92.4 292.3,92.4 293.3,92.4 294.2,92.4 295.2,92.4 296.2,92.4 297.2,92.4 298.1,92.4 299.1,92.4 300.1,92.4 301.1,92.4 302.0,92.4 303.0,92.4 304.0,92.4 304.9,92.4 305.9,92.4 306.9,92.4 307.9,92.4 308.8,92.4 309.8,92.4 310.8,92.4 311.8,92.4 312.7,92.4 313.7,92.4 314.7,92.4 315.7,92.4 316.6,92.4 317.6,92.4 318.6,92.4 319.6,92.4 320.5,92.4 321.5,92.4 322.5,92.4 323.5,92.4 324.4,92.4 325.4,92.4 326.4,92.4 327.4,92.4 328.3,92.4 329.3,92.4 330.3,92.4 331.3,92.4 332.2,92.4 333.2,92.4 334.2,92.4 335.1,92.4 336.1,92.4 337.1,92.4 338.1,92.4 339.0,92.4 340.0,92.4 341.0,92.4 342.0,92.4 342.9,92.4 343.9,92.4 344.9,92.4 345.9,92.4 346.8,92.4 347.8,92.4 348.8,92.4 349.8,92.4 350.7,92.4 351.7,92.4 352.7,92.4 353.7,92.4 354.6,92.4 355.6,92.4 356.6,92.4 357.6,92.4 358.5,92.4 359.5,92.4 360.5,92.4 361.5,92.4 362.4,92.4 363.4,92.4 364.4,92.4 365.4,92.4 366.3,92.4 367.3,92.4 368.3,92.4 369.2,92.4 370.2,92.4 371.2,92.4 372.2,92.4 373.1,92.4 374.1,92.4 375.1,92.4 376.1,92.4 377.0,92.4 378.0,92.4 379.0,92.4 380.0,92.4 380.9,92.4 381.9,92.4 382.9,92.4 383.9,92.4 384.8,92.4 385.8,92.4 386.8,92.4 387.8,92.4 388.7,92.4 389.7,92.4 390.7,92.4 391.7,92.4 392.6,92.4 393.6,92.4 394.6,92.4 395.6,92.4 396.5,92.4 397.5,92.4 398.5,92.4 399.4,92.4 400.4,92.4 401.4,92.4 402.4,92.4 403.3,92.4 404.3,92.4 405.3,92.4 406.3,92.4 407.2,92.4 408.2,92.4 409.2,92.4 410.2,92.4 411.1,92.4 412.1,92.4 413.1,92.4 414.1,92.4 415.0,92.4 416.0,92.4 417.0,92.4 418.0,92.4 418.9,92.4 419.9,92.4 420.9,92.4 421.9,92.4 422.8,92.4 423.8,92.4 424.8,92.4 425.8,92.4 426.7,92.4 427.7,92.4 428.7,92.4 429.7,92.4 430.6,92.4 431.6,92.4 432.6,92.4 433.5,92.4 434.5,92.4 435.5,92.4 436.5,92.4 437.4,92.4 438.4,92.4 439.4,92.4 440.4,92.4 441.3,92.4 442.3,92.4 443.3,92.4 444.3,92.4 445.2,92.4 446.2,92.4 447.2,92.4 448.2,92.4 449.1,92.4 450.1,92.4 451.1,92.4 452.1,92.4 453.0,92.4 454.0,92.4 455.0,92.4 456.0,92.4 456.9,92.4 457.9,92.4 458.9,92.4 459.9,92.4 460.8,92.4 461.8,92.4 462.8,92.4 463.7,92.4 464.7,92.4 465.7,92.4 466.7,92.4 467.6,92.4 468.6,92.4 469.6,92.4 470.6,92.4 471.5,92.4 472.5,92.4 473.5,92.4 474.5,92.4 475.4,92.4 476.4,92.4 477.4,92.4 478.4,92.4 479.3,92.4 480.3,92.4 481.3,92.4 482.3,92.4 483.2,92.4 484.2,92.4 485.2,92.4 486.2,92.4 487.1,92.4 488.1,92.4 489.1,92.4 490.1,92.4 491.0,92.4 492.0,92.4 493.0,92.4 494.0,92.4 494.9,92.4 495.9,92.4 496.9,92.4 497.8,92.4 498.8,92.4 499.8,92.4 500.8,92.4 501.7,92.4 502.7,92.4 503.7,92.4 504.7,92.4 505.6,92.4 506.6,92.4 507.6,92.4 508.6,92.4 509.5,92.4 510.5,92.4 511.5,92.4 512.5,92.4 513.4,92.4 514.4,92.4 515.4,92.4 516.4,92.4 517.3,92.4 518.3,92.4 519.3,92.4 520.3,92.4 521.2,92.4 522.2,92.4 523.2,92.4 524.2,92.4 525.1,92.4 526.1,92.4 527.1,92.4 528.0,92.4 529.0,92.4 530.0,92.4 531.0,92.4 531.9,92.4 532.9,92.4 533.9,92.4 534.9,92.4 535.8,92.4 536.8,92.4 537.8,92.4 538.8,92.4 539.7,92.4 540.7,92.4 541.7,92.4 542.7,92.4 543.6,92.4 544.6,92.4 545.6,92.4 546.6,92.4 547.5,92.4 548.5,92.4 549.5,92.4 550.5,92.4 551.4,92.4 552.4,92.4 553.4,92.4 554.4,92.4 555.3,92.4 556.3,92.4 557.3,92.4 558.3,92.4 559.2,92.4 560.2,92.4 561.2,92.4 562.1,92.4 563.1,92.4 564.1,92.4 565.1,92.4 566.0,92.4 567.0,92.4 568.0,92.4 569.0,92.4 569.9,92.4 570.9,92.4 571.9,92.4 572.9,92.4 573.8,92.4 574.8,92.4 575.8,92.4 576.8,92.4 577.7,92.4 578.7,92.4 579.7,92.4 580.7,92.4 581.6,92.4 582.6,92.4 583.6,92.4 584.6,92.4 585.5,92.4 586.5,92.4 587.5,92.4 588.5,92.4 589.4,92.4 590.4,92.4 591.4,92.4 592.3,92.4 593.3,92.4 594.3,92.4 595.3,92.4 596.2,92.4 597.2,92.4 598.2,92.4 599.2,92.4 600.1,92.4 601.1,92.4 602.1,92.4 603.1,92.4 604.0,92.4 605.0,92.4 606.0,92.4 607.0,92.4 607.9,92.4 608.9,92.4 609.9,92.4 610.9,92.4 611.8,92.4 612.8,92.4 613.8,92.4 614.8,92.4 615.7,92.4 616.7,92.4 617.7,92.4 618.7,92.4 619.6,92.4 620.6,92.4 621.6,92.4 622.6,92.4 623.5,92.4 624.5,92.4 625.5,92.4 626.4,92.4 627.4,92.4 628.4,92.4 629.4,92.4 630.3,92.4 631.3,92.4 632.3,92.4 633.3,92.4 634.2,92.4 635.2,92.4 636.2,92.4 637.2,92.4 638.1,92.4 639.1,92.4 640.1,92.4 641.1,92.4 642.0,92.4 643.0,92.4 644.0,92.4 645.0,92.4 645.9,92.4 646.9,92.4 647.9,92.4 648.9,92.4 649.8,92.4 650.8,92.4 651.8,92.4 652.8,92.4 653.7,92.4 654.7,92.4 655.7,92.4 656.6,92.4 657.6,92.4 658.6,92.4 659.6,92.4 660.5,92.4 661.5,92.4 662.5,92.4 663.5,92.4 664.4,92.4 665.4,92.4 666.4,92.4 667.4,92.4 668.3,92.4 669.3,92.4 670.3,92.4 671.3,92.4 672.2,92.4 673.2,92.4 674.2,92.4 675.2,92.4 676.1,92.4 677.1,92.4 678.1,92.4 679.1,92.4 680.0,92.4 681.0,92.4 682.0,92.4 683.0,92.4 683.9,92.4 684.9,92.4 685.9,92.4 686.9,92.4 687.8,92.4 688.8,92.4 689.8,92.4 690.7,92.4 691.7,92.4 692.7,92.4 693.7,92.4 694.6,92.4 695.6,92.4 696.6,92.4 697.6,92.4 698.5,92.4 699.5,92.4 700.5,92.4 701.5,92.4 702.4,92.4 703.4,92.4 704.4,92.4 705.4,92.4 706.3,92.4 707.3,92.4 708.3,92.4 709.3,92.4 710.2,92.4 711.2,92.4 712.2,92.4 713.2,92.4 714.1,92.4 715.1,92.4 716.1,92.4 717.1,92.4 718.0,92.4 719.0,92.4 720.0,92.4 720.9,92.4 721.9,92.4 722.9,92.4 723.9,92.4 724.8,92.4 725.8,92.4 726.8,92.4 727.8,92.4 728.7,92.4 729.7,92.4 730.7,92.4 731.7,92.4 732.6,92.4 733.6,92.4 734.6,92.4 735.6,92.4 736.5,92.4 737.5,92.4 738.5,314.9 739.5,314.9 740.4,314.9 741.4,314.9 742.4,314.9 743.4,314.9 744.3,314.9 745.3,314.9 746.3,314.9 747.3,314.9 748.2,314.9 749.2,314.9 750.2,314.9 751.2,314.9 752.1,314.9 753.1,314.9 754.1,314.9 755.0,314.9 756.0,314.9 757.0,314.9 758.0,314.9 758.9,314.9 759.9,314.9 760.9,314.9 761.9,314.9 762.8,314.9 763.8,314.9 764.8,314.9 765.8,314.9 766.7,314.9 767.7,314.9 768.7,314.9 769.7,314.9 770.6,314.9 771.6,314.9 772.6,314.9 773.6,314.9 774.5,314.9 775.5,314.9 776.5,314.9 777.5,314.9 778.4,314.9 779.4,314.9 780.4,314.9 781.4,314.9 782.3,314.9 783.3,314.9 784.3,314.9 785.2,314.9 786.2,314.9 787.2,314.9 788.2,314.9 789.1,314.9 790.1,314.9 791.1,314.9 792.1,314.9 793.0,314.9 794.0,314.9 795.0,314.9 796.0,314.9 796.9,314.9 797.9,314.9 798.9,314.9 799.9,314.9 800.8,314.9 801.8,314.9 802.8,314.9 803.8,314.9 804.7,314.9 805.7,314.9 806.7,314.9 807.7,205.4 808.6,314.9 809.6,314.9 810.6,314.9 811.6,314.9 812.5,314.9 813.5,261.0 814.5,314.9 815.5,314.9 816.4,261.1 817.4,314.9 818.4,314.9 819.3,314.9 820.3,314.9 821.3,314.9 822.3,314.9 823.2,314.9 824.2,259.9 825.2,261.1 826.2,314.9 827.1,314.9 828.1,314.9 829.1,314.9 830.1,262.2 831.0,314.9 832.0,314.9 833.0,314.9 834.0,314.9 834.9,259.6 835.9,314.9 836.9,314.9 837.9,314.9 838.8,260.7 839.8,314.9 840.8,314.9 841.8,314.9 842.7,314.9 843.7,314.9 844.7,314.9 845.7,314.9 846.6,314.9 847.6,205.9 848.6,314.9 849.5,314.9 850.5,314.9 851.5,260.1 852.5,314.9 853.4,314.9 854.4,314.9 855.4,260.5 856.4,314.9 857.3,314.9 858.3,314.9 859.3,260.6 860.3,314.9 861.2,314.9 862.2,260.0 863.2,314.9 864.2,314.9 865.1,314.9 866.1,314.9 867.1,314.9 868.1,314.9 869.0,314.9 870.0,259.6 871.0,259.3 872.0,314.9 872.9,314.9 873.9,261.6 874.9,314.9 875.9,314.9 876.8,314.9 877.8,259.3 878.8,314.9 879.8,314.9 880.7,259.7 881.7,314.9 882.7,314.9 883.6,259.3 884.6,314.9 885.6,260.6 886.6,314.9 887.5,314.9 888.5,314.9 889.5,314.9 890.5,314.9 891.4,314.9 892.4,314.9 893.4,314.9 894.4,205.5 895.3,314.9 896.3,314.9 897.3,314.9 898.3,260.2 899.2,314.9 900.2,314.9 901.2,314.9 902.2,262.1 903.1,314.9 904.1,261.0 905.1,314.9 906.1,314.9 907.0,259.9 908.0,314.9 909.0,259.4 910.0,314.9 910.9,314.9 911.9,314.9 912.9,314.9 913.8,314.9 914.8,314.9 915.8,314.9 916.8,314.9 917.7,314.9 918.7,260.2 919.7,262.5 920.7,314.9 921.6,314.9 922.6,314.9 923.6,314.9 924.6,314.9 925.5,314.9 926.5,261.4 927.5,314.9 928.5,314.9 929.4,314.9 930.4,259.5 931.4,314.9 932.4,314.9 933.3,314.9 934.3,261.1 935.3,314.9 936.3,314.9 937.2,314.9 938.2,314.9 939.2,314.9 940.2,314.9 941.1,260.1 942.1,265.3 943.1,314.9 944.1,314.9 945.0,314.9 946.0,314.9" fill="none" stroke="#2563eb" stroke-width="2.2" stroke-linejoin="round" stroke-linecap="round"/>
<polyline points="76.0,260.4 77.0,256.5 77.9,247.3 78.9,245.1 79.9,248.7 80.9,238.2 81.8,237.6 82.8,241.4 83.8,246.3 84.8,245.8 85.7,262.2 86.7,243.9 87.7,243.1 88.7,244.7 89.6,248.8 90.6,257.0 91.6,254.2 92.6,251.9 93.5,249.4 94.5,254.3 95.5,259.1 96.5,255.2 97.4,253.3 98.4,253.0 99.4,247.1 100.4,245.5 101.3,247.5 102.3,239.0 103.3,230.5 104.3,239.1 105.2,241.4 106.2,255.0 107.2,248.8 108.2,248.4 109.1,252.9 110.1,248.3 111.1,245.2 112.0,251.1 113.0,244.9 114.0,244.8 115.0,242.6 115.9,259.5 116.9,255.8 117.9,251.9 118.9,218.0 119.8,220.5 120.8,253.1 121.8,249.0 122.8,235.3 123.7,217.5 124.7,237.8 125.7,248.9 126.7,241.8 127.6,240.0 128.6,241.8 129.6,244.6 130.6,242.3 131.5,247.8 132.5,239.2 133.5,244.8 134.5,236.8 135.4,243.3 136.4,241.8 137.4,282.4 138.4,267.5 139.3,259.9 140.3,267.6 141.3,264.6 142.2,236.4 143.2,231.8 144.2,241.3 145.2,257.5 146.1,269.9 147.1,243.9 148.1,243.3 149.1,245.9 150.0,258.7 151.0,248.2 152.0,256.8 153.0,243.7 153.9,238.4 154.9,251.7 155.9,247.7 156.9,252.3 157.8,253.5 158.8,251.8 159.8,259.6 160.8,249.2 161.7,249.2 162.7,251.5 163.7,247.8 164.7,265.8 165.6,229.5 166.6,253.5 167.6,248.8 168.6,216.5 169.5,254.2 170.5,243.1 171.5,245.7 172.5,225.0 173.4,244.0 174.4,246.2 175.4,238.9 176.3,247.2 177.3,241.5 178.3,247.9 179.3,242.2 180.2,240.7 181.2,240.6 182.2,245.9 183.2,243.2 184.1,249.6 185.1,235.8 186.1,249.2 187.1,250.3 188.0,248.7 189.0,218.2 190.0,202.0 191.0,213.0 191.9,214.0 192.9,213.6 193.9,223.1 194.9,218.6 195.8,214.2 196.8,241.4 197.8,244.2 198.8,239.8 199.7,241.1 200.7,240.1 201.7,239.6 202.7,240.6 203.6,242.4 204.6,241.3 205.6,242.9 206.5,247.5 207.5,242.9 208.5,255.8 209.5,255.5 210.4,246.0 211.4,260.9 212.4,287.5 213.4,252.0 214.3,265.7 215.3,253.3 216.3,251.1 217.3,251.3 218.2,248.6 219.2,249.6 220.2,243.1 221.2,248.9 222.1,242.2 223.1,240.3 224.1,238.7 225.1,240.6 226.0,249.2 227.0,261.7 228.0,245.0 229.0,250.0 229.9,248.7 230.9,250.8 231.9,251.1 232.9,256.3 233.8,258.4 234.8,256.7 235.8,289.3 236.8,253.4 237.7,267.7 238.7,234.2 239.7,249.9 240.6,242.9 241.6,246.8 242.6,238.4 243.6,240.6 244.5,246.6 245.5,241.0 246.5,234.6 247.5,243.6 248.4,245.3 249.4,239.3 250.4,243.1 251.4,242.9 252.3,244.7 253.3,245.7 254.3,249.5 255.3,251.0 256.2,256.7 257.2,261.1 258.2,250.0 259.2,282.8 260.1,249.5 261.1,252.8 262.1,248.4 263.1,247.6 264.0,240.8 265.0,240.3 266.0,240.1 267.0,238.9 267.9,245.2 268.9,245.9 269.9,256.6 270.8,255.0 271.8,251.5 272.8,247.9 273.8,253.5 274.7,245.4 275.7,251.3 276.7,243.7 277.7,251.1 278.6,255.8 279.6,259.0 280.6,256.6 281.6,263.8 282.5,294.7 283.5,257.7 284.5,258.0 285.5,256.3 286.4,255.5 287.4,247.4 288.4,245.8 289.4,243.7 290.3,250.1 291.3,246.6 292.3,243.3 293.3,243.3 294.2,239.2 295.2,246.0 296.2,238.2 297.2,239.3 298.1,238.8 299.1,253.5 300.1,253.2 301.1,251.9 302.0,257.0 303.0,270.8 304.0,255.6 304.9,258.2 305.9,255.8 306.9,250.1 307.9,230.0 308.8,217.9 309.8,255.3 310.8,242.9 311.8,226.3 312.7,222.7 313.7,222.3 314.7,222.0 315.7,220.9 316.6,237.2 317.6,229.8 318.6,233.3 319.6,234.0 320.5,243.6 321.5,254.5 322.5,264.0 323.5,243.1 324.4,281.2 325.4,247.9 326.4,262.7 327.4,254.6 328.3,256.1 329.3,263.5 330.3,247.4 331.3,208.1 332.2,218.9 333.2,221.1 334.2,223.9 335.1,213.4 336.1,225.5 337.1,220.2 338.1,207.3 339.0,239.9 340.0,237.7 341.0,246.7 342.0,249.2 342.9,245.3 343.9,241.6 344.9,250.3 345.9,248.1 346.8,246.6 347.8,265.0 348.8,250.0 349.8,245.5 350.7,256.6 351.7,225.3 352.7,209.7 353.7,215.1 354.6,253.5 355.6,249.3 356.6,243.2 357.6,267.8 358.5,237.3 359.5,242.6 360.5,241.2 361.5,248.6 362.4,230.5 363.4,240.7 364.4,242.6 365.4,263.0 366.3,237.2 367.3,242.5 368.3,240.7 369.2,245.7 370.2,244.6 371.2,261.2 372.2,248.6 373.1,255.9 374.1,252.5 375.1,249.5 376.1,262.6 377.0,250.4 378.0,256.8 379.0,261.5 380.0,251.7 380.9,228.1 381.9,222.4 382.9,255.6 383.9,243.7 384.8,250.6 385.8,253.2 386.8,245.9 387.8,248.9 388.7,247.9 389.7,246.3 390.7,243.2 391.7,262.6 392.6,260.6 393.6,256.0 394.6,260.0 395.6,256.7 396.5,281.1 397.5,274.0 398.5,270.5 399.4,274.0 400.4,280.0 401.4,279.9 402.4,275.1 403.3,279.0 404.3,280.9 405.3,275.9 406.3,273.5 407.2,263.4 408.2,248.9 409.2,257.3 410.2,270.9 411.1,258.7 412.1,261.0 413.1,255.5 414.1,263.2 415.0,259.9 416.0,259.7 417.0,259.7 418.0,252.1 418.9,260.4 419.9,255.1 420.9,259.1 421.9,247.4 422.8,252.7 423.8,258.3 424.8,260.4 425.8,261.4 426.7,257.0 427.7,256.1 428.7,250.1 429.7,249.3 430.6,252.2 431.6,231.7 432.6,244.6 433.5,256.7 434.5,245.3 435.5,242.2 436.5,247.4 437.4,249.2 438.4,251.0 439.4,250.5 440.4,252.3 441.3,252.8 442.3,248.9 443.3,259.6 444.3,258.2 445.2,263.2 446.2,258.0 447.2,263.0 448.2,255.0 449.1,251.7 450.1,259.2 451.1,242.1 452.1,250.8 453.0,243.5 454.0,247.1 455.0,233.2 456.0,241.0 456.9,245.9 457.9,253.4 458.9,234.3 459.9,248.8 460.8,234.7 461.8,240.4 462.8,245.6 463.7,244.1 464.7,244.7 465.7,243.4 466.7,251.0 467.6,263.7 468.6,255.6 469.6,212.9 470.6,219.2 471.5,215.4 472.5,229.6 473.5,219.0 474.5,219.5 475.4,227.1 476.4,248.0 477.4,245.8 478.4,232.3 479.3,243.8 480.3,242.9 481.3,250.7 482.3,243.8 483.2,245.3 484.2,246.1 485.2,245.5 486.2,237.0 487.1,238.8 488.1,249.7 489.1,250.6 490.1,249.7 491.0,257.1 492.0,246.4 493.0,253.3 494.0,253.3 494.9,253.9 495.9,250.4 496.9,248.2 497.8,245.3 498.8,233.3 499.8,255.4 500.8,237.3 501.7,215.7 502.7,242.6 503.7,241.2 504.7,245.2 505.6,246.3 506.6,243.4 507.6,242.4 508.6,245.8 509.5,248.8 510.5,246.7 511.5,250.1 512.5,247.5 513.4,250.1 514.4,256.1 515.4,258.4 516.4,237.5 517.3,260.2 518.3,265.6 519.3,268.5 520.3,250.8 521.2,247.3 522.2,254.5 523.2,240.3 524.2,242.5 525.1,233.9 526.1,243.7 527.1,249.9 528.0,238.4 529.0,232.4 530.0,236.9 531.0,239.8 531.9,233.1 532.9,250.4 533.9,242.8 534.9,242.2 535.8,259.9 536.8,302.6 537.8,247.7 538.8,243.7 539.7,256.6 540.7,253.6 541.7,250.8 542.7,254.0 543.6,243.0 544.6,240.2 545.6,238.8 546.6,240.8 547.5,246.3 548.5,238.9 549.5,235.3 550.5,240.0 551.4,237.8 552.4,234.5 553.4,239.4 554.4,244.8 555.3,241.3 556.3,243.7 557.3,246.7 558.3,236.6 559.2,249.4 560.2,247.2 561.2,273.7 562.1,257.3 563.1,248.7 564.1,266.9 565.1,249.3 566.0,252.0 567.0,251.7 568.0,246.2 569.0,235.9 569.9,244.6 570.9,244.9 571.9,243.1 572.9,244.1 573.8,234.4 574.8,238.2 575.8,237.8 576.8,262.7 577.7,241.3 578.7,242.5 579.7,237.9 580.7,248.4 581.6,249.8 582.6,258.0 583.6,243.4 584.6,261.4 585.5,246.4 586.5,260.5 587.5,263.5 588.5,245.9 589.4,252.1 590.4,245.1 591.4,250.1 592.3,244.2 593.3,249.0 594.3,243.3 595.3,239.7 596.2,235.3 597.2,249.3 598.2,243.9 599.2,237.7 600.1,236.7 601.1,243.3 602.1,245.2 603.1,252.2 604.0,234.8 605.0,248.9 606.0,249.7 607.0,253.3 607.9,258.5 608.9,258.4 609.9,254.5 610.9,246.4 611.8,248.7 612.8,256.2 613.8,249.7 614.8,245.7 615.7,239.9 616.7,233.9 617.7,238.3 618.7,239.3 619.6,240.9 620.6,247.8 621.6,249.2 622.6,246.0 623.5,245.0 624.5,241.7 625.5,245.7 626.4,248.4 627.4,241.6 628.4,247.2 629.4,255.5 630.3,254.1 631.3,263.6 632.3,251.0 633.3,255.0 634.2,252.7 635.2,261.5 636.2,253.3 637.2,241.3 638.1,244.2 639.1,234.2 640.1,241.3 641.1,245.4 642.0,230.1 643.0,243.0 644.0,239.0 645.0,243.2 645.9,242.2 646.9,243.6 647.9,242.8 648.9,235.8 649.8,241.7 650.8,238.4 651.8,255.3 652.8,254.0 653.7,254.4 654.7,254.8 655.7,254.9 656.6,260.6 657.6,254.5 658.6,253.2 659.6,253.8 660.5,250.0 661.5,267.3 662.5,252.1 663.5,243.9 664.4,247.7 665.4,235.3 666.4,238.5 667.4,243.9 668.3,252.3 669.3,248.6 670.3,248.7 671.3,250.6 672.2,241.6 673.2,248.7 674.2,249.7 675.2,262.1 676.1,260.6 677.1,259.9 678.1,256.5 679.1,262.2 680.0,253.6 681.0,260.9 682.0,251.4 683.0,254.6 683.9,250.3 684.9,253.0 685.9,250.4 686.9,244.6 687.8,246.6 688.8,239.6 689.8,240.0 690.7,246.7 691.7,248.7 692.7,243.2 693.7,245.7 694.6,244.5 695.6,250.0 696.6,246.4 697.6,254.3 698.5,251.2 699.5,253.3 700.5,257.9 701.5,249.5 702.4,251.5 703.4,262.1 704.4,253.0 705.4,261.2 706.3,246.3 707.3,250.0 708.3,248.6 709.3,250.8 710.2,242.7 711.2,250.7 712.2,242.4 713.2,246.2 714.1,249.6 715.1,243.8 716.1,243.9 717.1,258.9 718.0,253.2 719.0,249.6 720.0,249.2 720.9,252.0 721.9,252.7 722.9,252.7 723.9,263.5 724.8,245.9 725.8,269.6 726.8,252.0 727.8,255.0 728.7,256.0 729.7,241.1 730.7,249.0 731.7,249.8 732.6,248.9 733.6,249.7 734.6,264.1 735.6,258.0 736.5,241.3 737.5,243.7 738.5,342.1 739.5,337.6 740.4,337.9 741.4,335.7 742.4,336.7 743.4,341.5 744.3,340.3 745.3,339.8 746.3,339.6 747.3,340.4 748.2,338.1 749.2,337.5 750.2,338.8 751.2,338.0 752.1,341.8 753.1,337.4 754.1,346.5 755.0,336.8 756.0,339.2 757.0,336.8 758.0,336.7 758.9,337.6 759.9,336.1 760.9,339.8 761.9,339.7 762.8,337.2 763.8,338.7 764.8,337.7 765.8,338.4 766.7,336.6 767.7,340.8 768.7,334.7 769.7,337.2 770.6,339.1 771.6,339.4 772.6,338.8 773.6,341.6 774.5,339.2 775.5,339.4 776.5,337.1 777.5,338.1 778.4,336.2 779.4,337.8 780.4,338.0 781.4,337.5 782.3,338.6 783.3,335.8 784.3,336.2 785.2,336.9 786.2,337.4 787.2,332.4 788.2,332.2 789.1,331.3 790.1,336.8 791.1,336.9 792.1,336.8 793.0,336.2 794.0,338.6 795.0,338.0 796.0,338.6 796.9,339.6 797.9,338.6 798.9,337.1 799.9,331.5 800.8,336.4 801.8,337.1 802.8,336.9 803.8,334.8 804.7,335.9 805.7,335.2 806.7,342.9 807.7,286.0 808.6,335.7 809.6,336.9 810.6,338.6 811.6,338.2 812.5,336.2 813.5,309.0 814.5,340.0 815.5,338.7 816.4,319.5 817.4,345.3 818.4,340.9 819.3,339.1 820.3,338.9 821.3,333.9 822.3,333.3 823.2,328.2 824.2,313.8 825.2,310.7 826.2,333.1 827.1,335.8 828.1,348.0 829.1,338.2 830.1,314.0 831.0,338.1 832.0,330.9 833.0,335.4 834.0,344.4 834.9,313.9 835.9,337.2 836.9,338.2 837.9,337.2 838.8,316.0 839.8,343.6 840.8,342.0 841.8,342.1 842.7,342.2 843.7,341.6 844.7,342.7 845.7,343.1 846.6,347.5 847.6,310.0 848.6,345.4 849.5,343.1 850.5,342.1 851.5,316.1 852.5,342.3 853.4,335.7 854.4,340.9 855.4,318.1 856.4,338.3 857.3,342.2 858.3,339.6 859.3,321.0 860.3,347.0 861.2,341.5 862.2,322.9 863.2,341.8 864.2,341.9 865.1,340.7 866.1,339.4 867.1,342.2 868.1,341.9 869.0,340.1 870.0,316.8 871.0,316.9 872.0,343.7 872.9,340.3 873.9,313.1 874.9,338.1 875.9,336.7 876.8,338.3 877.8,294.0 878.8,340.8 879.8,340.4 880.7,311.9 881.7,343.7 882.7,339.4 883.6,319.5 884.6,344.3 885.6,318.8 886.6,336.9 887.5,344.1 888.5,343.6 889.5,341.6 890.5,339.2 891.4,340.2 892.4,342.0 893.4,340.4 894.4,293.7 895.3,340.2 896.3,342.3 897.3,337.2 898.3,311.6 899.2,342.1 900.2,337.4 901.2,340.7 902.2,319.0 903.1,338.3 904.1,316.6 905.1,337.6 906.1,338.9 907.0,315.0 908.0,339.6 909.0,320.0 910.0,342.0 910.9,338.9 911.9,343.4 912.9,340.7 913.8,346.5 914.8,341.4 915.8,338.5 916.8,339.6 917.7,340.1 918.7,316.3 919.7,313.8 920.7,339.3 921.6,338.6 922.6,338.3 923.6,343.5 924.6,343.4 925.5,334.7 926.5,318.2 927.5,340.9 928.5,345.0 929.4,341.7 930.4,322.1 931.4,340.8 932.4,342.8 933.3,351.6 934.3,327.8 935.3,342.3 936.3,348.3 937.2,345.7 938.2,341.6 939.2,343.9 940.2,346.8 941.1,323.9 942.1,321.3 943.1,349.4 944.1,342.0 945.0,340.6 946.0,341.0" fill="none" stroke="#7c3aed" stroke-width="2.2" stroke-linejoin="round" stroke-linecap="round"/>
<line x1="76" y1="70" x2="94" y2="70" stroke="#2563eb" stroke-width="3"/>
<text x="100" y="74" font-family="Arial, sans-serif" font-size="11" fill="#0f172a">tx count</text>
<line x1="186" y1="70" x2="204" y2="70" stroke="#7c3aed" stroke-width="3"/>
<text x="210" y="74" font-family="Arial, sans-serif" font-size="11" fill="#0f172a">unique accounts</text>
<text x="28" y="404" font-family="Arial, sans-serif" font-size="11" fill="#64748b">Source: hourly_features.csv; capped windows are sample counts</text>
</svg>