<svg xmlns="http://www.w3.org/2000/svg" width="980" height="420" viewBox="0 0 980 420">
<rect width="100%" height="100%" fill="#ffffff"/>
<text x="28" y="34" font-family="Arial, sans-serif" font-size="20" font-weight="700" fill="#0f172a">Network activity sample trend</text>
<text x="28" y="56" font-family="Arial, sans-serif" font-size="12" fill="#64748b">Hourly transaction sample count and unique account sample count</text>
<line x1="76" y1="362.0" x2="946" y2="362.0" stroke="#e2e8f0" stroke-width="1"/>
<text x="68" y="366.0" font-family="Arial, sans-serif" font-size="10" text-anchor="end" fill="#64748b">220</text>
<line x1="76" y1="292.0" x2="946" y2="292.0" stroke="#e2e8f0" stroke-width="1"/>
<text x="68" y="296.0" font-family="Arial, sans-serif" font-size="10" text-anchor="end" fill="#64748b">1K</text>
<line x1="76" y1="222.0" x2="946" y2="222.0" stroke="#e2e8f0" stroke-width="1"/>
<text x="68" y="226.0" font-family="Arial, sans-serif" font-size="10" text-anchor="end" fill="#64748b">3K</text>
<line x1="76" y1="152.0" x2="946" y2="152.0" stroke="#e2e8f0" stroke-width="1"/>
<text x="68" y="156.0" font-family="Arial, sans-serif" font-size="10" text-anchor="end" fill="#64748b">4K</text>
<line x1="76" y1="82.0" x2="946" y2="82.0" stroke="#e2e8f0" stroke-width="1"/>
<text x="68" y="86.0" font-family="Arial, sans-serif" font-size="10" text-anchor="end" fill="#64748b">5K</text>
<line x1="76" y1="362" x2="946" y2="362" stroke="#334155" stroke-width="1"/>
<line x1="76" y1="82" x2="76" y2="362" stroke="#334155" stroke-width="1"/>
<text x="76" y="72" font-family="Arial, sans-serif" font-size="11" fill="#64748b">count</text>
<line x1="76.0" y1="362" x2="76.0" y2="366" stroke="#334155" stroke-width="1"/>
<text x="76.0" y="380" font-family="Arial, sans-serif" font-size="10" text-anchor="middle" fill="#64748b">0</text>
<line x1="511.0" y1="362" x2="511.0" y2="366" stroke="#334155" stroke-width="1"/>
<text x="511.0" y="380" font-family="Arial, sans-serif" font-size="10" text-anchor="middle" fill="#64748b">413</text>
<line x1="946.0" y1="362" x2="946.0" y2="366" stroke="#334155" stroke-width="1"/>
<text x="946.0" y="380" font-family="Arial, sans-serif" font-size="10" text-anchor="middle" fill="#64748b">826</text>
<polyline points="76.0,92.4 77.1,92.4 78.1,92.4 79.2,92.4 80.2,92.4 81.3,92.4 82.3,92.4 83.4,92.4 84.4,92.4 85.5,92.4 86.5,92.4 87.6,92.4 88.6,92.4 89.7,92.4 90.7,92.4 91.8,92.4 92.9,92.4 93.9,92.4 95.0,92.4 96.0,92.4 97.1,92.4 98.1,92.4 99.2,92.4 100.2,92.4 101.3,92.4 102.3,92.4 103.4,92.4 104.4,92.4 105.5,92.4 106.5,92.4 107.6,92.4 108.7,92.4 109.7,92.4 110.8,92.4 111.8,92.4 112.9,92.4 113.9,92.4 115.0,92.4 116.0,92.4 117.1,92.4 118.1,92.4 119.2,92.4 120.2,92.4 121.3,92.4 122.3,92.4 123.4,92.4 124.5,92.4 125.5,92.4 126.6,92.4 127.6,92.4 128.7,92.4 129.7,92.4 130.8,92.4 131.8,92.4 132.9,92.4 133.9,92.4 135.0,92.4 136.0,92.4 137.1,92.4 138.1,92.4 139.2,92.4 140.2,92.4 141.3,92.4 142.4,92.4 143.4,92.4 144.5,92.4 145.5,92.4 146.6,92.4 147.6,92.4 148.7,92.4 149.7,92.4 150.8,92.4 151.8,92.4 152.9,92.4 153.9,92.4 155.0,92.4 156.0,92.4 157.1,92.4 158.2,92.4 159.2,92.4 160.3,92.4 161.3,92.4 162.4,92.4 163.4,92.4 164.5,92.4 165.5,92.4 166.6,92.4 167.6,92.4 168.7,92.4 169.7,92.4 170.8,92.4 171.8,92.4 172.9,92.4 174.0,92.4 175.0,92.4 176.1,92.4 177.1,92.4 178.2,92.4 179.2,92.4 180.3,92.4 181.3,92.4 182.4,92.4 183.4,92.4 184.5,92.4 185.5,92.4 186.6,92.4 187.6,92.4 188.7,92.4 189.8,92.4 190.8,92.4 191.9,92.4 192.9,92.4 194.0,92.4 195.0,92.4 196.1,92.4 197.1,92.4 198.2,92.4 199.2,92.4 200.3,92.4 201.3,92.4 202.4,92.4 203.4,92.4 204.5,92.4 205.6,92.4 206.6,92.4 207.7,92.4 208.7,92.4 209.8,92.4 210.8,92.4 211.9,92.4 212.9,92.4 214.0,92.4 215.0,92.4 216.1,92.4 217.1,92.4 218.2,92.4 219.2,92.4 220.3,92.4 221.4,92.4 222.4,92.4 223.5,92.4 224.5,92.4 225.6,92.4 226.6,92.4 227.7,92.4 228.7,92.4 229.8,92.4 230.8,92.4 231.9,92.4 232.9,92.4 234.0,92.4 235.0,92.4 236.1,92.4 237.2,92.4 238.2,92.4 239.3,92.4 240.3,92.4 241.4,92.4 242.4,92.4 243.5,92.4 244.5,92.4 245.6,92.4 246.6,92.4 247.7,92.4 248.7,92.4 249.8,92.4 250.8,92.4 251.9,92.4 252.9,92.4 254.0,92.4 255.1,92.4 256.1,92.4 257.2,92.4 258.2,92.4 259.3,92.4 260.3,92.4 261.4,92.4 262.4,92.4 263.5,92.4 264.5,92.4 265.6,92.4 266.6,92.4 267.7,92.4 268.7,92.4 269.8,92.4 270.9,92.4 271.9,92.4 273.0,92.4 274.0,92.4 275.1,92.4 276.1,92.4 277.2,92.4 278.2,92.4 279.3,92.4 280.3,92.4 281.4,92.4 282.4,92.4 283.5,92.4 284.5,92.4 285.6,92.4 286.7,92.4 287.7,92.4 288.8,92.4 289.8,92.4 290.9,92.4 291.9,92.4 293.0,92.4 294.0,92.4 295.1,92.4 296.1,92.4 297.2,92.4 298.2,92.4 299.3,92.4 300.3,92.4 301.4,92.4 302.5,92.4 303.5,92.4 304.6,92.4 305.6,92.4 306.7,92.4 307.7,92.4 308.8,92.4 309.8,92.4 310.9,92.4 311.9,92.4 313.0,92.4 314.0,92.4 315.1,92.4 316.1,92.4 317.2,92.4 318.3,92.4 319.3,92.4 320.4,92.4 321.4,92.4 322.5,92.4 323.5,92.4 324.6,92.4 325.6,92.4 326.7,92.4 327.7,92.4 328.8,92.4 329.8,92.4 330.9,92.4 331.9,92.4 333.0,92.4 334.1,92.4 335.1,92.4 336.2,92.4 337.2,92.4 338.3,92.4 339.3,92.4 340.4,92.4 341.4,92.4 342.5,92.4 343.5,92.4 344.6,92.4 345.6,92.4 346.7,92.4 347.7,92.4 348.8,92.4 349.8,92.4 350.9,92.4 352.0,92.4 353.0,92.4 354.1,92.4 355.1,92.4 356.2,92.4 357.2,92.4 358.3,92.4 359.3,92.4 360.4,92.4 361.4,92.4 362.5,92.4 363.5,92.4 364.6,92.4 365.6,92.4 366.7,92.4 367.8,92.4 368.8,92.4 369.9,92.4 370.9,92.4 372.0,92.4 373.0,92.4 374.1,92.4 375.1,92.4 376.2,92.4 377.2,92.4 378.3,92.4 379.3,92.4 380.4,92.4 381.4,92.4 382.5,92.4 383.6,92.4 384.6,92.4 385.7,92.4 386.7,92.4 387.8,92.4 388.8,92.4 389.9,92.4 390.9,92.4 392.0,92.4 393.0,92.4 394.1,92.4 395.1,92.4 396.2,92.4 397.2,92.4 398.3,92.4 399.4,92.4 400.4,92.4 401.5,92.4 402.5,92.4 403.6,92.4 404.6,92.4 405.7,92.4 406.7,92.4 407.8,92.4 408.8,92.4 409.9,92.4 410.9,92.4 412.0,92.4 413.0,92.4 414.1,92.4 415.2,92.4 416.2,92.4 417.3,92.4 418.3,92.4 419.4,92.4 420.4,92.4 421.5,92.4 422.5,92.4 423.6,92.4 424.6,92.4 425.7,92.4 426.7,92.4 427.8,92.4 428.8,92.4 429.9,92.4 431.0,92.4 432.0,92.4 433.1,92.4 434.1,92.4 435.2,92.4 436.2,92.4 437.3,92.4 438.3,92.4 439.4,92.4 440.4,92.4 441.5,92.4 442.5,92.4 443.6,92.4 444.6,92.4 445.7,92.4 446.8,92.4 447.8,92.4 448.9,92.4 449.9,92.4 451.0,92.4 452.0,92.4 453.1,92.4 454.1,92.4 455.2,92.4 456.2,92.4 457.3,92.4 458.3,92.4 459.4,92.4 460.4,92.4 461.5,92.4 462.5,92.4 463.6,92.4 464.7,92.4 465.7,92.4 466.8,92.4 467.8,92.4 468.9,92.4 469.9,92.4 471.0,92.4 472.0,92.4 473.1,92.4 474.1,92.4 475.2,92.4 476.2,92.4 477.3,92.4 478.3,92.4 479.4,92.4 480.5,92.4 481.5,92.4 482.6,92.4 483.6,92.4 484.7,92.4 485.7,92.4 486.8,92.4 487.8,92.4 488.9,92.4 489.9,92.4 491.0,92.4 492.0,92.4 493.1,92.4 494.1,92.4 495.2,92.4 496.3,92.4 497.3,92.4 498.4,92.4 499.4,92.4 500.5,92.4 501.5,92.4 502.6,92.4 503.6,92.4 504.7,92.4 505.7,92.4 506.8,92.4 507.8,92.4 508.9,92.4 509.9,92.4 511.0,92.4 512.1,92.4 513.1,92.4 514.2,92.4 515.2,92.4 516.3,92.4 517.3,92.4 518.4,92.4 519.4,92.4 520.5,92.4 521.5,92.4 522.6,92.4 523.6,92.4 524.7,92.4 525.7,92.4 526.8,92.4 527.9,92.4 528.9,92.4 530.0,92.4 531.0,92.4 532.1,92.4 533.1,92.4 534.2,92.4 535.2,92.4 536.3,92.4 537.3,92.4 538.4,92.4 539.4,92.4 540.5,92.4 541.5,92.4 542.6,92.4 543.7,92.4 544.7,92.4 545.8,92.4 546.8,92.4 547.9,92.4 548.9,92.4 550.0,92.4 551.0,92.4 552.1,92.4 553.1,92.4 554.2,92.4 555.2,92.4 556.3,92.4 557.3,92.4 558.4,92.4 559.5,92.4 560.5,92.4 561.6,92.4 562.6,92.4 563.7,92.4 564.7,92.4 565.8,92.4 566.8,92.4 567.9,92.4 568.9,92.4 570.0,92.4 571.0,92.4 572.1,92.4 573.1,92.4 574.2,92.4 575.2,92.4 576.3,92.4 577.4,92.4 578.4,92.4 579.5,92.4 580.5,92.4 581.6,92.4 582.6,92.4 583.7,92.4 584.7,92.4 585.8,92.4 586.8,92.4 587.9,92.4 588.9,92.4 590.0,92.4 591.0,92.4 592.1,92.4 593.2,92.4 594.2,92.4 595.3,92.4 596.3,92.4 597.4,92.4 598.4,92.4 599.5,92.4 600.5,92.4 601.6,92.4 602.6,92.4 603.7,92.4 604.7,92.4 605.8,92.4 606.8,92.4 607.9,92.4 609.0,92.4 610.0,92.4 611.1,92.4 612.1,92.4 613.2,92.4 614.2,92.4 615.3,92.4 616.3,92.4 617.4,92.4 618.4,92.4 619.5,92.4 620.5,92.4 621.6,92.4 622.6,92.4 623.7,92.4 624.8,92.4 625.8,92.4 626.9,92.4 627.9,92.4 629.0,92.4 630.0,92.4 631.1,92.4 632.1,92.4 633.2,92.4 634.2,92.4 635.3,92.4 636.3,92.4 637.4,92.4 638.4,92.4 639.5,92.4 640.6,92.4 641.6,92.4 642.7,92.4 643.7,92.4 644.8,92.4 645.8,92.4 646.9,92.4 647.9,92.4 649.0,92.4 650.0,92.4 651.1,92.4 652.1,92.4 653.2,92.4 654.2,92.4 655.3,92.4 656.4,92.4 657.4,92.4 658.5,92.4 659.5,92.4 660.6,92.4 661.6,92.4 662.7,92.4 663.7,92.4 664.8,92.4 665.8,92.4 666.9,92.4 667.9,92.4 669.0,92.4 670.0,92.4 671.1,92.4 672.2,92.4 673.2,92.4 674.3,92.4 675.3,92.4 676.4,92.4 677.4,92.4 678.5,92.4 679.5,92.4 680.6,92.4 681.6,92.4 682.7,92.4 683.7,92.4 684.8,92.4 685.8,92.4 686.9,92.4 687.9,92.4 689.0,92.4 690.1,92.4 691.1,92.4 692.2,92.4 693.2,92.4 694.3,92.4 695.3,92.4 696.4,92.4 697.4,92.4 698.5,92.4 699.5,92.4 700.6,92.4 701.6,92.4 702.7,92.4 703.7,92.4 704.8,92.4 705.9,92.4 706.9,92.4 708.0,92.4 709.0,92.4 710.1,92.4 711.1,92.4 712.2,92.4 713.2,92.4 714.3,92.4 715.3,92.4 716.4,92.4 717.4,92.4 718.5,92.4 719.5,92.4 720.6,92.4 721.7,92.4 722.7,92.4 723.8,92.4 724.8,92.4 725.9,92.4 726.9,92.4 728.0,92.4 729.0,92.4 730.1,92.4 731.1,92.4 732.2,92.4 733.2,92.4 734.3,92.4 735.3,92.4 736.4,92.4 737.5,92.4 738.5,92.4 739.6,92.4 740.6,92.4 741.7,92.4 742.7,92.4 743.8,92.4 744.8,92.4 745.9,92.4 746.9,92.4 748.0,92.4 749.0,92.4 750.1,92.4 751.1,92.4 752.2,92.4 753.3,92.4 754.3,92.4 755.4,92.4 756.4,92.4 757.5,92.4 758.5,92.4 759.6,92.4 760.6,92.4 761.7,92.4 762.7,92.4 763.8,92.4 764.8,92.4 765.9,92.4 766.9,92.4 768.0,92.4 769.1,92.4 770.1,92.4 771.2,92.4 772.2,92.4 773.3,92.4 774.3,92.4 775.4,92.4 776.4,92.4 777.5,92.4 778.5,92.4 779.6,92.4 780.6,92.4 781.7,92.4 782.7,92.4 783.8,92.4 784.8,92.4 785.9,92.4 787.0,92.4 788.0,92.4 789.1,92.4 790.1,92.4 791.2,92.4 792.2,318.0 793.3,318.0 794.3,318.0 795.4,318.0 796.4,318.0 797.5,318.0 798.5,318.0 799.6,318.0 800.6,318.0 801.7,318.0 802.8,318.0 803.8,318.0 804.9,318.0 805.9,318.0 807.0,318.0 808.0,318.0 809.1,318.0 810.1,318.0 811.2,318.0 812.2,318.0 813.3,318.0 814.3,318.0 815.4,318.0 816.4,318.0 817.5,318.0 818.6,318.0 819.6,318.0 820.7,318.0 821.7,318.0 822.8,318.0 823.8,318.0 824.9,318.0 825.9,318.0 827.0,318.0 828.0,318.0 829.1,318.0 830.1,318.0 831.2,318.0 832.2,318.0 833.3,318.0 834.4,318.0 835.4,318.0 836.5,318.0 837.5,318.0 838.6,318.0 839.6,318.0 840.7,318.0 841.7,318.0 842.8,318.0 843.8,318.0 844.9,318.0 845.9,318.0 847.0,318.0 848.0,318.0 849.1,318.0 850.2,318.0 851.2,318.0 852.3,318.0 853.3,318.0 854.4,318.0 855.4,318.0 856.5,318.0 857.5,318.0 858.6,318.0 859.6,318.0 860.7,318.0 861.7,318.0 862.8,318.0 863.8,318.0 864.9,318.0 866.0,318.0 867.0,207.0 868.1,318.0 869.1,318.0 870.2,318.0 871.2,318.0 872.3,318.0 873.3,263.4 874.4,318.0 875.4,318.0 876.5,263.5 877.5,318.0 878.6,318.0 879.6,318.0 880.7,318.0 881.8,318.0 882.8,318.0 883.9,318.0 884.9,262.2 886.0,263.5 887.0,318.0 888.1,318.0 889.1,318.0 890.2,318.0 891.2,264.6 892.3,318.0 893.3,318.0 894.4,318.0 895.4,318.0 896.5,261.9 897.5,318.0 898.6,318.0 899.7,318.0 900.7,263.1 901.8,318.0 902.8,318.0 903.9,318.0 904.9,318.0 906.0,318.0 907.0,318.0 908.1,318.0 909.1,318.0 910.2,207.5 911.2,318.0 912.3,318.0 913.3,318.0 914.4,262.4 915.5,318.0 916.5,318.0 917.6,318.0 918.6,262.8 919.7,318.0 920.7,318.0 921.8,318.0 922.8,263.0 923.9,318.0 924.9,318.0 926.0,262.3 927.0,318.0 928.1,318.0 929.1,318.0 930.2,318.0 931.3,318.0 932.3,318.0 933.4,318.0 934.4,261.9 935.5,261.7 936.5,318.0 937.6,318.0 938.6,264.0 939.7,318.0 940.7,318.0 941.8,318.0 942.8,261.7 943.9,318.0 944.9,318.0 946.0,318.0" fill="none" stroke="#2563eb" stroke-width="2.2" stroke-linejoin="round" stroke-linecap="round"/>
<polyline points="76.0,262.8 77.1,258.8 78.1,249.5 79.2,247.2 80.2,250.9 81.3,240.3 82.3,239.7 83.4,243.5 84.4,248.5 85.5,248.0 86.5,264.6 87.6,246.1 88.6,245.2 89.7,246.9 90.7,251.1 91.8,259.3 92.9,256.5 93.9,254.2 95.0,251.6 96.0,256.6 97.1,261.5 98.1,257.5 99.2,255.6 100.2,255.2 101.3,249.2 102.3,247.7 103.4,249.7 104.4,241.1 105.5,232.5 106.5,241.2 107.6,243.5 108.7,257.3 109.7,251.0 110.8,250.7 111.8,255.2 112.9,250.5 113.9,247.4 115.0,253.4 116.0,247.1 117.1,247.0 118.1,244.7 119.2,261.9 120.2,258.2 121.3,254.2 122.3,219.8 123.4,222.3 124.5,255.3 125.5,251.2 126.6,237.3 127.6,219.3 128.7,239.9 129.7,251.2 130.8,243.9 131.8,242.1 132.9,243.9 133.9,246.7 135.0,244.4 136.0,250.0 137.1,241.3 138.1,247.0 139.2,238.8 140.2,245.4 141.3,243.9 142.4,285.1 143.4,270.0 144.5,262.3 145.5,270.1 146.6,267.0 147.6,238.5 148.7,233.8 149.7,243.4 150.8,259.9 151.8,272.4 152.9,246.0 153.9,245.5 155.0,248.1 156.0,261.0 157.1,250.4 158.2,259.1 159.2,245.9 160.3,240.5 161.3,253.9 162.4,249.9 163.4,254.6 164.5,255.7 165.5,254.0 166.6,261.9 167.6,251.4 168.7,251.4 169.7,253.7 170.8,250.0 171.8,268.3 172.9,231.5 174.0,255.8 175.0,251.1 176.1,218.2 177.1,256.5 178.2,245.2 179.2,247.9 180.3,226.9 181.3,246.1 182.4,248.3 183.4,241.0 184.5,249.4 185.5,243.6 186.6,250.1 187.6,244.3 188.7,242.8 189.8,242.6 190.8,248.1 191.9,245.4 192.9,251.8 194.0,237.9 195.0,251.4 196.1,252.6 197.1,250.9 198.2,220.0 199.2,203.6 200.3,214.7 201.3,215.7 202.4,215.3 203.4,224.9 204.5,220.4 205.6,216.0 206.6,243.5 207.7,246.4 208.7,241.9 209.8,243.2 210.8,242.2 211.9,241.7 212.9,242.6 214.0,244.6 215.0,243.4 216.1,245.1 217.1,249.7 218.2,245.1 219.2,258.2 220.3,257.8 221.4,248.2 222.4,263.2 223.5,290.3 224.5,254.2 225.6,268.2 226.6,255.6 227.7,253.3 228.7,253.6 229.8,250.8 230.8,251.8 231.9,245.2 232.9,251.1 234.0,244.3 235.0,242.4 236.1,240.7 237.2,242.6 238.2,251.4 239.3,264.1 240.3,247.2 241.4,252.2 242.4,250.9 243.5,253.1 244.5,253.4 245.6,258.6 246.6,260.8 247.7,259.1 248.7,292.1 249.8,255.7 250.8,270.2 251.9,236.2 252.9,252.1 254.0,245.1 255.1,249.0 256.1,240.5 257.2,242.6 258.2,248.7 259.3,243.1 260.3,236.6 261.4,245.7 262.4,247.5 263.5,241.4 264.5,245.2 265.6,245.0 266.6,246.8 267.7,247.8 268.7,251.7 269.8,253.2 270.9,259.1 271.9,263.5 273.0,252.2 274.0,285.5 275.1,251.7 276.1,255.1 277.2,250.6 278.2,249.8 279.3,242.9 280.3,242.4 281.4,242.2 282.4,241.0 283.5,247.3 284.5,248.1 285.6,258.9 286.7,257.3 287.7,253.8 288.8,250.1 289.8,255.8 290.9,247.6 291.9,253.5 293.0,245.9 294.0,253.4 295.1,258.1 296.1,261.3 297.2,258.9 298.2,266.2 299.3,297.6 300.3,260.0 301.4,260.3 302.5,258.6 303.5,257.8 304.6,249.6 305.6,247.9 306.7,245.9 307.7,252.3 308.8,248.8 309.8,245.4 310.9,245.5 311.9,241.2 313.0,248.2 314.0,240.3 315.1,241.3 316.1,240.9 317.2,255.8 318.3,255.5 319.3,254.2 320.4,259.3 321.4,273.3 322.5,257.9 323.5,260.5 324.6,258.2 325.6,252.3 326.7,232.0 327.7,219.6 328.8,257.6 329.8,245.0 330.9,228.2 331.9,224.5 333.0,224.1 334.1,223.8 335.1,222.7 336.2,239.3 337.2,231.7 338.3,235.3 339.3,236.0 340.4,245.7 341.4,256.8 342.5,266.4 343.5,245.2 344.6,283.8 345.6,250.1 346.7,265.2 347.7,256.9 348.8,258.4 349.8,265.9 350.9,249.6 352.0,209.8 353.0,220.6 354.1,223.0 355.1,225.7 356.2,215.1 357.2,227.4 358.3,222.0 359.3,209.0 360.4,242.0 361.4,239.8 362.5,248.9 363.5,251.4 364.6,247.5 365.6,243.7 366.7,252.6 367.8,250.3 368.8,248.7 369.9,267.5 370.9,252.2 372.0,247.7 373.0,258.9 374.1,227.2 375.1,211.3 376.2,216.8 377.2,255.8 378.3,251.6 379.3,245.4 380.4,270.3 381.4,239.4 382.5,244.7 383.6,243.3 384.6,250.8 385.7,232.4 386.7,242.8 387.8,244.7 388.8,265.4 389.9,239.2 390.9,244.6 392.0,242.8 393.0,247.8 394.1,246.7 395.1,263.6 396.2,250.8 397.2,258.2 398.3,254.7 399.4,251.7 400.4,265.0 401.5,252.6 402.5,259.2 403.6,263.9 404.6,253.9 405.7,230.0 406.7,224.2 407.8,257.9 408.8,245.8 409.9,252.8 410.9,255.5 412.0,248.1 413.0,251.2 414.1,250.1 415.2,248.5 416.2,245.4 417.3,265.0 418.3,263.0 419.4,258.3 420.4,262.4 421.5,259.0 422.5,283.8 423.6,276.5 424.6,273.1 425.7,276.5 426.7,282.7 427.8,282.5 428.8,277.7 429.9,281.6 431.0,283.5 432.0,278.5 433.1,276.0 434.1,265.8 435.2,251.2 436.2,259.6 437.3,273.4 438.3,261.0 439.4,263.4 440.4,257.8 441.5,265.6 442.5,262.2 443.6,262.1 444.6,262.1 445.7,254.3 446.8,262.8 447.8,257.4 448.9,261.5 449.9,249.6 451.0,254.9 452.0,260.6 453.1,262.8 454.1,263.7 455.2,259.3 456.2,258.4 457.3,252.3 458.3,251.5 459.4,254.4 460.4,233.7 461.5,246.8 462.5,259.0 463.6,247.4 464.7,244.3 465.7,249.6 466.8,251.4 467.8,253.2 468.9,252.7 469.9,254.5 471.0,255.1 472.0,251.1 473.1,261.9 474.1,260.5 475.2,265.7 476.2,260.3 477.3,265.4 478.3,257.3 479.4,253.9 480.5,261.6 481.5,244.2 482.6,253.1 483.6,245.6 484.7,249.2 485.7,235.1 486.8,243.1 487.8,248.1 488.9,255.7 489.9,236.3 491.0,251.0 492.0,236.7 493.1,242.5 494.1,247.8 495.2,246.2 496.3,246.8 497.3,245.6 498.4,253.2 499.4,266.1 500.5,257.9 501.5,214.6 502.6,221.0 503.6,217.1 504.7,231.6 505.7,220.8 506.8,221.3 507.8,229.0 508.9,250.2 509.9,248.0 511.0,234.3 512.1,246.0 513.1,245.0 514.2,252.9 515.2,245.9 516.3,247.4 517.3,248.3 518.4,247.7 519.4,239.1 520.5,240.8 521.5,252.0 522.6,252.9 523.6,252.0 524.7,259.5 525.7,248.6 526.8,255.6 527.9,255.6 528.9,256.2 530.0,252.6 531.0,250.4 532.1,247.5 533.1,235.3 534.2,257.7 535.2,239.4 536.3,217.5 537.3,244.7 538.4,243.3 539.4,247.4 540.5,248.5 541.5,245.5 542.6,244.6 543.7,247.9 544.7,251.0 545.8,248.9 546.8,252.3 547.9,249.7 548.9,252.3 550.0,258.4 551.0,260.8 552.1,239.5 553.1,262.6 554.2,268.1 555.2,271.0 556.3,253.1 557.3,249.5 558.4,256.8 559.5,242.4 560.5,244.6 561.6,235.9 562.6,245.9 563.7,252.1 564.7,240.5 565.8,234.4 566.8,239.0 567.9,241.9 568.9,235.1 570.0,252.6 571.0,245.0 572.1,244.3 573.1,262.3 574.2,305.5 575.2,249.9 576.3,245.8 577.4,258.9 578.4,255.9 579.5,253.1 580.5,256.3 581.6,245.1 582.6,242.3 583.7,240.8 584.7,242.9 585.8,248.5 586.8,241.0 587.9,237.3 588.9,242.1 590.0,239.8 591.0,236.5 592.1,241.5 593.2,247.0 594.2,243.4 595.3,245.8 596.3,248.9 597.4,238.6 598.4,251.6 599.5,249.4 600.5,276.3 601.6,259.7 602.6,250.9 603.7,269.4 604.7,251.6 605.8,254.3 606.8,253.9 607.9,248.4 609.0,238.0 610.0,246.8 611.1,247.0 612.1,245.2 613.2,246.2 614.2,236.4 615.3,240.2 616.3,239.9 617.4,265.2 618.4,243.4 619.5,244.6 620.5,240.0 621.6,250.6 622.6,252.1 623.7,260.3 624.8,245.6 625.8,263.7 626.9,248.6 627.9,262.8 629.0,265.9 630.0,248.1 631.1,254.3 632.1,247.2 633.2,252.3 634.2,246.3 635.3,251.2 636.3,245.4 637.4,241.8 638.4,237.3 639.5,251.5 640.6,246.1 641.6,239.7 642.7,238.8 643.7,245.5 644.8,247.4 645.8,254.5 646.9,236.8 647.9,251.2 649.0,251.9 650.0,255.6 651.1,260.8 652.1,260.8 653.2,256.8 654.2,248.6 655.3,250.9 656.4,258.6 657.4,252.0 658.5,247.8 659.5,242.0 660.6,235.9 661.6,240.3 662.7,241.3 663.7,243.0 664.8,250.0 665.8,251.4 666.9,248.2 667.9,247.2 669.0,243.8 670.0,247.8 671.1,250.6 672.2,243.7 673.2,249.4 674.3,257.8 675.3,256.4 676.4,266.0 677.4,253.2 678.5,257.3 679.5,254.9 680.6,263.9 681.6,255.6 682.7,243.4 683.7,246.3 684.8,236.2 685.8,243.4 686.9,247.6 687.9,232.1 689.0,245.1 690.1,241.1 691.1,245.4 692.2,244.3 693.2,245.7 694.3,244.9 695.3,237.9 696.4,243.8 697.4,240.4 698.5,257.6 699.5,256.3 700.6,256.7 701.6,257.1 702.7,257.2 703.7,263.0 704.8,256.8 705.9,255.5 706.9,256.1 708.0,252.2 709.0,269.8 710.1,254.4 711.1,246.0 712.2,249.9 713.2,237.3 714.3,240.6 715.3,246.0 716.4,254.5 717.4,250.8 718.5,250.9 719.5,252.8 720.6,243.7 721.7,250.9 722.7,251.9 723.8,264.5 724.8,263.0 725.9,262.2 726.9,258.8 728.0,264.6 729.0,255.8 730.1,263.3 731.1,253.6 732.2,256.9 733.2,252.5 734.3,255.3 735.3,252.6 736.4,246.8 737.5,248.8 738.5,241.7 739.6,242.1 740.6,248.9 741.7,250.9 742.7,245.3 743.8,247.8 744.8,246.7 745.9,252.2 746.9,248.6 748.0,256.6 749.0,253.4 750.1,255.6 751.1,260.2 752.2,251.7 753.3,253.8 754.3,264.5 755.4,255.3 756.4,263.6 757.5,248.5 758.5,252.2 759.6,250.8 760.6,253.1 761.7,244.8 762.7,253.0 763.8,244.6 764.8,248.3 765.9,251.8 766.9,245.9 768.0,246.0 769.1,261.2 770.1,255.5 771.2,251.8 772.2,251.4 773.3,254.2 774.3,255.0 775.4,255.0 776.4,265.9 777.5,248.1 778.5,272.1 779.6,254.3 780.6,257.3 781.7,258.3 782.7,243.2 783.8,251.2 784.8,252.1 785.9,251.2 787.0,251.9 788.0,266.5 789.1,260.3 790.1,243.4 791.2,245.9 792.2,345.6 793.3,341.0 794.3,341.4 795.4,339.1 796.4,340.1 797.5,345.0 798.5,343.8 799.6,343.3 800.6,343.1 801.7,343.9 802.8,341.5 803.8,341.0 804.9,342.3 805.9,341.5 807.0,345.3 808.0,340.9 809.1,350.1 810.1,340.2 811.2,342.7 812.2,340.3 813.3,340.1 814.3,341.1 815.4,339.5 816.4,343.3 817.5,343.2 818.6,340.7 819.6,342.2 820.7,341.2 821.7,341.9 822.8,340.0 823.8,344.3 824.9,338.1 825.9,340.6 827.0,342.6 828.0,342.9 829.1,342.3 830.1,345.1 831.2,342.7 832.2,342.9 833.3,340.6 834.4,341.6 835.4,339.6 836.5,341.3 837.5,341.5 838.6,341.0 839.6,342.0 840.7,339.2 841.7,339.6 842.8,340.4 843.8,340.9 844.9,335.8 845.9,335.6 847.0,334.7 848.0,340.2 849.1,340.4 850.2,340.3 851.2,339.6 852.3,342.0 853.3,341.5 854.4,342.0 855.4,343.1 856.5,342.0 857.5,340.6 858.6,334.9 859.6,339.8 860.7,340.6 861.7,340.3 862.8,338.2 863.8,339.3 864.9,338.7 866.0,346.4 867.0,288.7 868.1,339.1 869.1,340.3 870.2,342.0 871.2,341.7 872.3,339.6 873.3,312.1 874.4,343.5 875.4,342.2 876.5,322.7 877.5,348.9 878.6,344.5 879.6,342.6 880.7,342.4 881.8,337.4 882.8,336.7 883.9,331.5 884.9,316.9 886.0,313.8 887.0,336.5 888.1,339.3 889.1,351.6 890.2,341.7 891.2,317.1 892.3,341.6 893.3,334.3 894.4,338.9 895.4,348.0 896.5,317.1 897.5,340.6 898.6,341.7 899.7,340.6 900.7,319.1 901.8,347.2 902.8,345.5 903.9,345.7 904.9,345.8 906.0,345.1 907.0,346.2 908.1,346.7 909.1,351.1 910.2,313.1 911.2,349.0 912.3,346.7 913.3,345.7 914.4,319.3 915.5,345.8 916.5,339.2 917.6,344.5 918.6,321.3 919.7,341.8 920.7,345.7 921.8,343.1 922.8,324.3 923.9,350.6 924.9,345.0 926.0,326.2 927.0,345.3 928.1,345.4 929.1,344.2 930.2,342.9 931.3,345.7 932.3,345.4 933.4,343.6 934.4,320.0 935.5,320.0 936.5,347.3 937.6,343.8 938.6,316.3 939.7,341.6 940.7,340.2 941.8,341.8 942.8,296.9 943.9,344.3 944.9,343.9 946.0,340.0" fill="none" stroke="#7c3aed" stroke-width="2.2" stroke-linejoin="round" stroke-linecap="round"/>
<line x1="76" y1="70" x2="94" y2="70" stroke="#2563eb" stroke-width="3"/>
<text x="100" y="74" font-family="Arial, sans-serif" font-size="11" fill="#0f172a">tx count</text>
<line x1="186" y1="70" x2="204" y2="70" stroke="#7c3aed" stroke-width="3"/>
<text x="210" y="74" font-family="Arial, sans-serif" font-size="11" fill="#0f172a">unique accounts</text>
<text x="28" y="404" font-family="Arial, sans-serif" font-size="11" fill="#64748b">Source: hourly_features.csv; capped windows are sample counts</text>
</svg>