<svg xmlns="http://www.w3.org/2000/svg" width="980" height="420" viewBox="0 0 980 420">
<rect width="100%" height="100%" fill="#ffffff"/>
<text x="28" y="34" font-family="Arial, sans-serif" font-size="20" font-weight="700" fill="#0f172a">Network activity sample trend</text>
<text x="28" y="56" font-family="Arial, sans-serif" font-size="12" fill="#64748b">Hourly transaction sample count and unique account sample count</text>
<line x1="76" y1="362.0" x2="946" y2="362.0" stroke="#e2e8f0" stroke-width="1"/>
<text x="68" y="366.0" font-family="Arial, sans-serif" font-size="10" text-anchor="end" fill="#64748b">153</text>
<line x1="76" y1="292.0" x2="946" y2="292.0" stroke="#e2e8f0" stroke-width="1"/>
<text x="68" y="296.0" font-family="Arial, sans-serif" font-size="10" text-anchor="end" fill="#64748b">1K</text>
<line x1="76" y1="222.0" x2="946" y2="222.0" stroke="#e2e8f0" stroke-width="1"/>
<text x="68" y="226.0" font-family="Arial, sans-serif" font-size="10" text-anchor="end" fill="#64748b">3K</text>
<line x1="76" y1="152.0" x2="946" y2="152.0" stroke="#e2e8f0" stroke-width="1"/>
<text x="68" y="156.0" font-family="Arial, sans-serif" font-size="10" text-anchor="end" fill="#64748b">4K</text>
<line x1="76" y1="82.0" x2="946" y2="82.0" stroke="#e2e8f0" stroke-width="1"/>
<text x="68" y="86.0" font-family="Arial, sans-serif" font-size="10" text-anchor="end" fill="#64748b">5K</text>
<line x1="76" y1="362" x2="946" y2="362" stroke="#334155" stroke-width="1"/>
<line x1="76" y1="82" x2="76" y2="362" stroke="#334155" stroke-width="1"/>
<text x="76" y="72" font-family="Arial, sans-serif" font-size="11" fill="#64748b">count</text>
<line x1="76.0" y1="362" x2="76.0" y2="366" stroke="#334155" stroke-width="1"/>
<text x="76.0" y="380" font-family="Arial, sans-serif" font-size="10" text-anchor="middle" fill="#64748b">0</text>
<line x1="511.5" y1="362" x2="511.5" y2="366" stroke="#334155" stroke-width="1"/>
<text x="511.5" y="380" font-family="Arial, sans-serif" font-size="10" text-anchor="middle" fill="#64748b">441</text>
<line x1="946.0" y1="362" x2="946.0" y2="366" stroke="#334155" stroke-width="1"/>
<text x="946.0" y="380" font-family="Arial, sans-serif" font-size="10" text-anchor="middle" fill="#64748b">881</text>
<polyline points="76.0,92.4 77.0,92.4 78.0,92.4 79.0,92.4 80.0,92.4 80.9,92.4 81.9,92.4 82.9,92.4 83.9,92.4 84.9,92.4 85.9,92.4 86.9,92.4 87.9,92.4 88.8,92.4 89.8,92.4 90.8,92.4 91.8,92.4 92.8,92.4 93.8,92.4 94.8,92.4 95.8,92.4 96.7,92.4 97.7,92.4 98.7,92.4 99.7,92.4 100.7,92.4 101.7,92.4 102.7,92.4 103.7,92.4 104.6,92.4 105.6,92.4 106.6,92.4 107.6,92.4 108.6,92.4 109.6,92.4 110.6,92.4 111.6,92.4 112.5,92.4 113.5,92.4 114.5,92.4 115.5,92.4 116.5,92.4 117.5,92.4 118.5,92.4 119.5,92.4 120.4,92.4 121.4,92.4 122.4,92.4 123.4,92.4 124.4,92.4 125.4,92.4 126.4,92.4 127.4,92.4 128.3,92.4 129.3,92.4 130.3,92.4 131.3,92.4 132.3,92.4 133.3,92.4 134.3,92.4 135.3,92.4 136.2,92.4 137.2,92.4 138.2,92.4 139.2,92.4 140.2,92.4 141.2,92.4 142.2,92.4 143.2,92.4 144.1,92.4 145.1,92.4 146.1,92.4 147.1,92.4 148.1,92.4 149.1,92.4 150.1,92.4 151.1,92.4 152.0,92.4 153.0,92.4 154.0,92.4 155.0,92.4 156.0,92.4 157.0,92.4 158.0,92.4 159.0,92.4 159.9,92.4 160.9,92.4 161.9,92.4 162.9,92.4 163.9,92.4 164.9,92.4 165.9,92.4 166.9,92.4 167.8,92.4 168.8,92.4 169.8,92.4 170.8,92.4 171.8,92.4 172.8,92.4 173.8,92.4 174.8,92.4 175.7,92.4 176.7,92.4 177.7,92.4 178.7,92.4 179.7,92.4 180.7,92.4 181.7,92.4 182.7,92.4 183.6,92.4 184.6,92.4 185.6,92.4 186.6,92.4 187.6,92.4 188.6,92.4 189.6,92.4 190.6,92.4 191.5,92.4 192.5,92.4 193.5,92.4 194.5,92.4 195.5,92.4 196.5,92.4 197.5,92.4 198.5,92.4 199.4,92.4 200.4,92.4 201.4,92.4 202.4,92.4 203.4,92.4 204.4,92.4 205.4,92.4 206.4,92.4 207.3,92.4 208.3,92.4 209.3,92.4 210.3,92.4 211.3,92.4 212.3,92.4 213.3,92.4 214.3,92.4 215.2,92.4 216.2,92.4 217.2,92.4 218.2,92.4 219.2,92.4 220.2,92.4 221.2,92.4 222.2,92.4 223.1,92.4 224.1,92.4 225.1,92.4 226.1,92.4 227.1,92.4 228.1,92.4 229.1,92.4 230.1,92.4 231.0,92.4 232.0,92.4 233.0,92.4 234.0,92.4 235.0,92.4 236.0,92.4 237.0,92.4 238.0,92.4 238.9,92.4 239.9,92.4 240.9,92.4 241.9,92.4 242.9,92.4 243.9,92.4 244.9,92.4 245.9,92.4 246.8,92.4 247.8,92.4 248.8,92.4 249.8,92.4 250.8,92.4 251.8,92.4 252.8,92.4 253.8,92.4 254.7,92.4 255.7,92.4 256.7,92.4 257.7,92.4 258.7,92.4 259.7,92.4 260.7,92.4 261.7,92.4 262.6,92.4 263.6,92.4 264.6,92.4 265.6,92.4 266.6,92.4 267.6,92.4 268.6,92.4 269.6,92.4 270.5,92.4 271.5,92.4 272.5,92.4 273.5,92.4 274.5,92.4 275.5,92.4 276.5,92.4 277.5,92.4 278.4,92.4 279.4,92.4 280.4,92.4 281.4,92.4 282.4,92.4 283.4,92.4 284.4,92.4 285.4,92.4 286.3,92.4 287.3,92.4 288.3,92.4 289.3,92.4 290.3,92.4 291.3,92.4 292.3,92.4 293.3,92.4 294.2,92.4 295.2,92.4 296.2,92.4 297.2,92.4 298.2,92.4 299.2,92.4 300.2,92.4 301.2,92.4 302.1,92.4 303.1,92.4 304.1,92.4 305.1,92.4 306.1,92.4 307.1,92.4 308.1,92.4 309.1,92.4 310.0,92.4 311.0,92.4 312.0,92.4 313.0,92.4 314.0,92.4 315.0,92.4 316.0,92.4 317.0,92.4 317.9,92.4 318.9,92.4 319.9,92.4 320.9,92.4 321.9,92.4 322.9,92.4 323.9,92.4 324.9,92.4 325.8,92.4 326.8,92.4 327.8,92.4 328.8,92.4 329.8,92.4 330.8,92.4 331.8,92.4 332.8,92.4 333.7,92.4 334.7,92.4 335.7,92.4 336.7,92.4 337.7,92.4 338.7,92.4 339.7,92.4 340.7,92.4 341.6,92.4 342.6,92.4 343.6,92.4 344.6,92.4 345.6,92.4 346.6,92.4 347.6,92.4 348.6,92.4 349.5,92.4 350.5,92.4 351.5,92.4 352.5,92.4 353.5,92.4 354.5,92.4 355.5,92.4 356.5,92.4 357.4,92.4 358.4,92.4 359.4,92.4 360.4,92.4 361.4,92.4 362.4,92.4 363.4,92.4 364.4,92.4 365.3,92.4 366.3,92.4 367.3,92.4 368.3,92.4 369.3,92.4 370.3,92.4 371.3,92.4 372.3,92.4 373.2,92.4 374.2,92.4 375.2,92.4 376.2,92.4 377.2,92.4 378.2,92.4 379.2,92.4 380.2,92.4 381.1,92.4 382.1,92.4 383.1,92.4 384.1,92.4 385.1,92.4 386.1,92.4 387.1,92.4 388.1,92.4 389.0,92.4 390.0,92.4 391.0,92.4 392.0,92.4 393.0,92.4 394.0,92.4 395.0,92.4 396.0,92.4 396.9,92.4 397.9,92.4 398.9,92.4 399.9,92.4 400.9,92.4 401.9,92.4 402.9,92.4 403.9,92.4 404.8,92.4 405.8,92.4 406.8,92.4 407.8,92.4 408.8,92.4 409.8,92.4 410.8,92.4 411.8,92.4 412.7,92.4 413.7,92.4 414.7,92.4 415.7,92.4 416.7,92.4 417.7,92.4 418.7,92.4 419.7,92.4 420.6,92.4 421.6,92.4 422.6,92.4 423.6,92.4 424.6,92.4 425.6,92.4 426.6,92.4 427.6,92.4 428.5,92.4 429.5,92.4 430.5,92.4 431.5,92.4 432.5,92.4 433.5,92.4 434.5,92.4 435.5,92.4 436.4,92.4 437.4,92.4 438.4,92.4 439.4,92.4 440.4,92.4 441.4,92.4 442.4,92.4 443.4,92.4 444.3,92.4 445.3,92.4 446.3,92.4 447.3,92.4 448.3,92.4 449.3,92.4 450.3,92.4 451.3,92.4 452.2,92.4 453.2,92.4 454.2,92.4 455.2,92.4 456.2,92.4 457.2,92.4 458.2,92.4 459.2,92.4 460.1,92.4 461.1,92.4 462.1,92.4 463.1,92.4 464.1,92.4 465.1,92.4 466.1,92.4 467.1,92.4 468.0,92.4 469.0,92.4 470.0,92.4 471.0,92.4 472.0,92.4 473.0,92.4 474.0,92.4 475.0,92.4 475.9,92.4 476.9,92.4 477.9,92.4 478.9,92.4 479.9,92.4 480.9,92.4 481.9,92.4 482.9,92.4 483.8,92.4 484.8,92.4 485.8,92.4 486.8,92.4 487.8,92.4 488.8,92.4 489.8,92.4 490.8,92.4 491.7,92.4 492.7,92.4 493.7,92.4 494.7,92.4 495.7,92.4 496.7,92.4 497.7,92.4 498.7,92.4 499.6,92.4 500.6,92.4 501.6,92.4 502.6,92.4 503.6,92.4 504.6,92.4 505.6,92.4 506.6,92.4 507.5,92.4 508.5,92.4 509.5,92.4 510.5,92.4 511.5,92.4 512.5,92.4 513.5,92.4 514.5,92.4 515.4,92.4 516.4,92.4 517.4,92.4 518.4,92.4 519.4,92.4 520.4,92.4 521.4,92.4 522.4,92.4 523.3,92.4 524.3,92.4 525.3,92.4 526.3,92.4 527.3,92.4 528.3,92.4 529.3,92.4 530.3,92.4 531.2,92.4 532.2,92.4 533.2,92.4 534.2,92.4 535.2,92.4 536.2,92.4 537.2,92.4 538.2,92.4 539.1,92.4 540.1,92.4 541.1,92.4 542.1,92.4 543.1,92.4 544.1,92.4 545.1,92.4 546.1,92.4 547.0,92.4 548.0,92.4 549.0,92.4 550.0,92.4 551.0,92.4 552.0,92.4 553.0,92.4 554.0,92.4 554.9,92.4 555.9,92.4 556.9,92.4 557.9,92.4 558.9,92.4 559.9,92.4 560.9,92.4 561.9,92.4 562.8,92.4 563.8,92.4 564.8,92.4 565.8,92.4 566.8,92.4 567.8,92.4 568.8,92.4 569.8,92.4 570.7,92.4 571.7,92.4 572.7,92.4 573.7,92.4 574.7,92.4 575.7,92.4 576.7,92.4 577.7,92.4 578.6,92.4 579.6,92.4 580.6,92.4 581.6,92.4 582.6,92.4 583.6,92.4 584.6,92.4 585.6,92.4 586.5,92.4 587.5,92.4 588.5,92.4 589.5,92.4 590.5,92.4 591.5,92.4 592.5,92.4 593.5,92.4 594.4,92.4 595.4,92.4 596.4,92.4 597.4,92.4 598.4,92.4 599.4,92.4 600.4,92.4 601.4,92.4 602.3,92.4 603.3,92.4 604.3,92.4 605.3,92.4 606.3,92.4 607.3,92.4 608.3,92.4 609.3,92.4 610.2,92.4 611.2,92.4 612.2,92.4 613.2,92.4 614.2,92.4 615.2,92.4 616.2,92.4 617.2,92.4 618.1,92.4 619.1,92.4 620.1,92.4 621.1,92.4 622.1,92.4 623.1,92.4 624.1,92.4 625.1,92.4 626.0,92.4 627.0,92.4 628.0,92.4 629.0,92.4 630.0,92.4 631.0,92.4 632.0,92.4 633.0,92.4 633.9,92.4 634.9,92.4 635.9,92.4 636.9,92.4 637.9,92.4 638.9,92.4 639.9,92.4 640.9,92.4 641.8,92.4 642.8,92.4 643.8,92.4 644.8,92.4 645.8,92.4 646.8,92.4 647.8,92.4 648.8,92.4 649.7,92.4 650.7,92.4 651.7,92.4 652.7,92.4 653.7,92.4 654.7,92.4 655.7,92.4 656.7,92.4 657.6,92.4 658.6,92.4 659.6,92.4 660.6,92.4 661.6,92.4 662.6,92.4 663.6,92.4 664.6,92.4 665.5,92.4 666.5,92.4 667.5,92.4 668.5,92.4 669.5,92.4 670.5,92.4 671.5,92.4 672.5,92.4 673.4,92.4 674.4,92.4 675.4,92.4 676.4,92.4 677.4,92.4 678.4,92.4 679.4,92.4 680.4,92.4 681.3,92.4 682.3,92.4 683.3,92.4 684.3,92.4 685.3,92.4 686.3,92.4 687.3,92.4 688.3,92.4 689.2,92.4 690.2,92.4 691.2,92.4 692.2,92.4 693.2,92.4 694.2,92.4 695.2,92.4 696.2,92.4 697.1,92.4 698.1,92.4 699.1,92.4 700.1,92.4 701.1,92.4 702.1,92.4 703.1,92.4 704.1,92.4 705.0,92.4 706.0,92.4 707.0,92.4 708.0,92.4 709.0,92.4 710.0,92.4 711.0,92.4 712.0,92.4 712.9,92.4 713.9,92.4 714.9,92.4 715.9,92.4 716.9,92.4 717.9,92.4 718.9,92.4 719.9,92.4 720.8,92.4 721.8,92.4 722.8,92.4 723.8,92.4 724.8,92.4 725.8,92.4 726.8,92.4 727.8,92.4 728.7,92.4 729.7,92.4 730.7,92.4 731.7,92.4 732.7,92.4 733.7,92.4 734.7,92.4 735.7,92.4 736.6,92.4 737.6,92.4 738.6,92.4 739.6,92.4 740.6,92.4 741.6,92.4 742.6,92.4 743.6,92.4 744.5,92.4 745.5,92.4 746.5,92.4 747.5,314.9 748.5,314.9 749.5,314.9 750.5,314.9 751.5,314.9 752.4,314.9 753.4,314.9 754.4,314.9 755.4,314.9 756.4,314.9 757.4,314.9 758.4,314.9 759.4,314.9 760.3,314.9 761.3,314.9 762.3,314.9 763.3,314.9 764.3,314.9 765.3,314.9 766.3,314.9 767.3,314.9 768.2,314.9 769.2,314.9 770.2,314.9 771.2,314.9 772.2,314.9 773.2,314.9 774.2,314.9 775.2,314.9 776.1,314.9 777.1,314.9 778.1,314.9 779.1,314.9 780.1,314.9 781.1,314.9 782.1,314.9 783.1,314.9 784.0,314.9 785.0,314.9 786.0,314.9 787.0,314.9 788.0,314.9 789.0,314.9 790.0,314.9 791.0,314.9 791.9,314.9 792.9,314.9 793.9,314.9 794.9,314.9 795.9,314.9 796.9,314.9 797.9,314.9 798.9,314.9 799.8,314.9 800.8,314.9 801.8,314.9 802.8,314.9 803.8,314.9 804.8,314.9 805.8,314.9 806.8,314.9 807.7,314.9 808.7,314.9 809.7,314.9 810.7,314.9 811.7,314.9 812.7,314.9 813.7,314.9 814.7,314.9 815.6,314.9 816.6,314.9 817.6,205.4 818.6,314.9 819.6,314.9 820.6,314.9 821.6,314.9 822.6,314.9 823.5,261.0 824.5,314.9 825.5,314.9 826.5,261.1 827.5,314.9 828.5,314.9 829.5,314.9 830.5,314.9 831.4,314.9 832.4,314.9 833.4,314.9 834.4,259.9 835.4,261.1 836.4,314.9 837.4,314.9 838.4,314.9 839.3,314.9 840.3,262.2 841.3,314.9 842.3,314.9 843.3,314.9 844.3,314.9 845.3,259.6 846.3,314.9 847.2,314.9 848.2,314.9 849.2,260.7 850.2,314.9 851.2,314.9 852.2,314.9 853.2,314.9 854.2,314.9 855.1,314.9 856.1,314.9 857.1,314.9 858.1,205.9 859.1,314.9 860.1,314.9 861.1,314.9 862.1,260.1 863.0,314.9 864.0,314.9 865.0,314.9 866.0,260.5 867.0,314.9 868.0,314.9 869.0,314.9 870.0,260.6 870.9,314.9 871.9,314.9 872.9,260.0 873.9,314.9 874.9,314.9 875.9,314.9 876.9,314.9 877.9,314.9 878.8,314.9 879.8,314.9 880.8,259.6 881.8,259.3 882.8,314.9 883.8,314.9 884.8,261.6 885.8,314.9 886.7,314.9 887.7,314.9 888.7,259.3 889.7,314.9 890.7,314.9 891.7,259.7 892.7,314.9 893.7,314.9 894.6,259.3 895.6,314.9 896.6,260.6 897.6,314.9 898.6,314.9 899.6,314.9 900.6,314.9 901.6,314.9 902.5,314.9 903.5,314.9 904.5,314.9 905.5,205.5 906.5,314.9 907.5,314.9 908.5,314.9 909.5,260.2 910.4,314.9 911.4,314.9 912.4,314.9 913.4,262.1 914.4,314.9 915.4,261.0 916.4,314.9 917.4,314.9 918.3,259.9 919.3,314.9 920.3,259.4 921.3,314.9 922.3,314.9 923.3,314.9 924.3,314.9 925.3,314.9 926.2,314.9 927.2,314.9 928.2,314.9 929.2,314.9 930.2,260.2 931.2,262.5 932.2,314.9 933.2,314.9 934.1,314.9 935.1,314.9 936.1,314.9 937.1,314.9 938.1,261.4 939.1,314.9 940.1,314.9 941.1,314.9 942.0,259.5 943.0,314.9 944.0,314.9 945.0,314.9 946.0,314.9" fill="none" stroke="#2563eb" stroke-width="2.2" stroke-linejoin="round" stroke-linecap="round"/>
<polyline points="76.0,260.4 77.0,256.5 78.0,247.3 79.0,245.1 80.0,248.7 80.9,238.2 81.9,237.6 82.9,241.4 83.9,246.3 84.9,245.8 85.9,262.2 86.9,243.9 87.9,243.1 88.8,244.7 89.8,248.8 90.8,257.0 91.8,254.2 92.8,251.9 93.8,249.4 94.8,254.3 95.8,259.1 96.7,255.2 97.7,253.3 98.7,253.0 99.7,247.1 100.7,245.5 101.7,247.5 102.7,239.0 103.7,230.5 104.6,239.1 105.6,241.4 106.6,255.0 107.6,248.8 108.6,248.4 109.6,252.9 110.6,248.3 111.6,245.2 112.5,251.1 113.5,244.9 114.5,244.8 115.5,242.6 116.5,259.5 117.5,255.8 118.5,251.9 119.5,218.0 120.4,220.5 121.4,253.1 122.4,249.0 123.4,235.3 124.4,217.5 125.4,237.8 126.4,248.9 127.4,241.8 128.3,240.0 129.3,241.8 130.3,244.6 131.3,242.3 132.3,247.8 133.3,239.2 134.3,244.8 135.3,236.8 136.2,243.3 137.2,241.8 138.2,282.4 139.2,267.5 140.2,259.9 141.2,267.6 142.2,264.6 143.2,236.4 144.1,231.8 145.1,241.3 146.1,257.5 147.1,269.9 148.1,243.9 149.1,243.3 150.1,245.9 151.1,258.7 152.0,248.2 153.0,256.8 154.0,243.7 155.0,238.4 156.0,251.7 157.0,247.7 158.0,252.3 159.0,253.5 159.9,251.8 160.9,259.6 161.9,249.2 162.9,249.2 163.9,251.5 164.9,247.8 165.9,265.8 166.9,229.5 167.8,253.5 168.8,248.8 169.8,216.5 170.8,254.2 171.8,243.1 172.8,245.7 173.8,225.0 174.8,244.0 175.7,246.2 176.7,238.9 177.7,247.2 178.7,241.5 179.7,247.9 180.7,242.2 181.7,240.7 182.7,240.6 183.6,245.9 184.6,243.2 185.6,249.6 186.6,235.8 187.6,249.2 188.6,250.3 189.6,248.7 190.6,218.2 191.5,202.0 192.5,213.0 193.5,214.0 194.5,213.6 195.5,223.1 196.5,218.6 197.5,214.2 198.5,241.4 199.4,244.2 200.4,239.8 201.4,241.1 202.4,240.1 203.4,239.6 204.4,240.6 205.4,242.4 206.4,241.3 207.3,242.9 208.3,247.5 209.3,242.9 210.3,255.8 211.3,255.5 212.3,246.0 213.3,260.9 214.3,287.5 215.2,252.0 216.2,265.7 217.2,253.3 218.2,251.1 219.2,251.3 220.2,248.6 221.2,249.6 222.2,243.1 223.1,248.9 224.1,242.2 225.1,240.3 226.1,238.7 227.1,240.6 228.1,249.2 229.1,261.7 230.1,245.0 231.0,250.0 232.0,248.7 233.0,250.8 234.0,251.1 235.0,256.3 236.0,258.4 237.0,256.7 238.0,289.3 238.9,253.4 239.9,267.7 240.9,234.2 241.9,249.9 242.9,242.9 243.9,246.8 244.9,238.4 245.9,240.6 246.8,246.6 247.8,241.0 248.8,234.6 249.8,243.6 250.8,245.3 251.8,239.3 252.8,243.1 253.8,242.9 254.7,244.7 255.7,245.7 256.7,249.5 257.7,251.0 258.7,256.7 259.7,261.1 260.7,250.0 261.7,282.8 262.6,249.5 263.6,252.8 264.6,248.4 265.6,247.6 266.6,240.8 267.6,240.3 268.6,240.1 269.6,238.9 270.5,245.2 271.5,245.9 272.5,256.6 273.5,255.0 274.5,251.5 275.5,247.9 276.5,253.5 277.5,245.4 278.4,251.3 279.4,243.7 280.4,251.1 281.4,255.8 282.4,259.0 283.4,256.6 284.4,263.8 285.4,294.7 286.3,257.7 287.3,258.0 288.3,256.3 289.3,255.5 290.3,247.4 291.3,245.8 292.3,243.7 293.3,250.1 294.2,246.6 295.2,243.3 296.2,243.3 297.2,239.2 298.2,246.0 299.2,238.2 300.2,239.3 301.2,238.8 302.1,253.5 303.1,253.2 304.1,251.9 305.1,257.0 306.1,270.8 307.1,255.6 308.1,258.2 309.1,255.8 310.0,250.1 311.0,230.0 312.0,217.9 313.0,255.3 314.0,242.9 315.0,226.3 316.0,222.7 317.0,222.3 317.9,222.0 318.9,220.9 319.9,237.2 320.9,229.8 321.9,233.3 322.9,234.0 323.9,243.6 324.9,254.5 325.8,264.0 326.8,243.1 327.8,281.2 328.8,247.9 329.8,262.7 330.8,254.6 331.8,256.1 332.8,263.5 333.7,247.4 334.7,208.1 335.7,218.9 336.7,221.1 337.7,223.9 338.7,213.4 339.7,225.5 340.7,220.2 341.6,207.3 342.6,239.9 343.6,237.7 344.6,246.7 345.6,249.2 346.6,245.3 347.6,241.6 348.6,250.3 349.5,248.1 350.5,246.6 351.5,265.0 352.5,250.0 353.5,245.5 354.5,256.6 355.5,225.3 356.5,209.7 357.4,215.1 358.4,253.5 359.4,249.3 360.4,243.2 361.4,267.8 362.4,237.3 363.4,242.6 364.4,241.2 365.3,248.6 366.3,230.5 367.3,240.7 368.3,242.6 369.3,263.0 370.3,237.2 371.3,242.5 372.3,240.7 373.2,245.7 374.2,244.6 375.2,261.2 376.2,248.6 377.2,255.9 378.2,252.5 379.2,249.5 380.2,262.6 381.1,250.4 382.1,256.8 383.1,261.5 384.1,251.7 385.1,228.1 386.1,222.4 387.1,255.6 388.1,243.7 389.0,250.6 390.0,253.2 391.0,245.9 392.0,248.9 393.0,247.9 394.0,246.3 395.0,243.2 396.0,262.6 396.9,260.6 397.9,256.0 398.9,260.0 399.9,256.7 400.9,281.1 401.9,274.0 402.9,270.5 403.9,274.0 404.8,280.0 405.8,279.9 406.8,275.1 407.8,279.0 408.8,280.9 409.8,275.9 410.8,273.5 411.8,263.4 412.7,248.9 413.7,257.3 414.7,270.9 415.7,258.7 416.7,261.0 417.7,255.5 418.7,263.2 419.7,259.9 420.6,259.7 421.6,259.7 422.6,252.1 423.6,260.4 424.6,255.1 425.6,259.1 426.6,247.4 427.6,252.7 428.5,258.3 429.5,260.4 430.5,261.4 431.5,257.0 432.5,256.1 433.5,250.1 434.5,249.3 435.5,252.2 436.4,231.7 437.4,244.6 438.4,256.7 439.4,245.3 440.4,242.2 441.4,247.4 442.4,249.2 443.4,251.0 444.3,250.5 445.3,252.3 446.3,252.8 447.3,248.9 448.3,259.6 449.3,258.2 450.3,263.2 451.3,258.0 452.2,263.0 453.2,255.0 454.2,251.7 455.2,259.2 456.2,242.1 457.2,250.8 458.2,243.5 459.2,247.1 460.1,233.2 461.1,241.0 462.1,245.9 463.1,253.4 464.1,234.3 465.1,248.8 466.1,234.7 467.1,240.4 468.0,245.6 469.0,244.1 470.0,244.7 471.0,243.4 472.0,251.0 473.0,263.7 474.0,255.6 475.0,212.9 475.9,219.2 476.9,215.4 477.9,229.6 478.9,219.0 479.9,219.5 480.9,227.1 481.9,248.0 482.9,245.8 483.8,232.3 484.8,243.8 485.8,242.9 486.8,250.7 487.8,243.8 488.8,245.3 489.8,246.1 490.8,245.5 491.7,237.0 492.7,238.8 493.7,249.7 494.7,250.6 495.7,249.7 496.7,257.1 497.7,246.4 498.7,253.3 499.6,253.3 500.6,253.9 501.6,250.4 502.6,248.2 503.6,245.3 504.6,233.3 505.6,255.4 506.6,237.3 507.5,215.7 508.5,242.6 509.5,241.2 510.5,245.2 511.5,246.3 512.5,243.4 513.5,242.4 514.5,245.8 515.4,248.8 516.4,246.7 517.4,250.1 518.4,247.5 519.4,250.1 520.4,256.1 521.4,258.4 522.4,237.5 523.3,260.2 524.3,265.6 525.3,268.5 526.3,250.8 527.3,247.3 528.3,254.5 529.3,240.3 530.3,242.5 531.2,233.9 532.2,243.7 533.2,249.9 534.2,238.4 535.2,232.4 536.2,236.9 537.2,239.8 538.2,233.1 539.1,250.4 540.1,242.8 541.1,242.2 542.1,259.9 543.1,302.6 544.1,247.7 545.1,243.7 546.1,256.6 547.0,253.6 548.0,250.8 549.0,254.0 550.0,243.0 551.0,240.2 552.0,238.8 553.0,240.8 554.0,246.3 554.9,238.9 555.9,235.3 556.9,240.0 557.9,237.8 558.9,234.5 559.9,239.4 560.9,244.8 561.9,241.3 562.8,243.7 563.8,246.7 564.8,236.6 565.8,249.4 566.8,247.2 567.8,273.7 568.8,257.3 569.8,248.7 570.7,266.9 571.7,249.3 572.7,252.0 573.7,251.7 574.7,246.2 575.7,235.9 576.7,244.6 577.7,244.9 578.6,243.1 579.6,244.1 580.6,234.4 581.6,238.2 582.6,237.8 583.6,262.7 584.6,241.3 585.6,242.5 586.5,237.9 587.5,248.4 588.5,249.8 589.5,258.0 590.5,243.4 591.5,261.4 592.5,246.4 593.5,260.5 594.4,263.5 595.4,245.9 596.4,252.1 597.4,245.1 598.4,250.1 599.4,244.2 600.4,249.0 601.4,243.3 602.3,239.7 603.3,235.3 604.3,249.3 605.3,243.9 606.3,237.7 607.3,236.7 608.3,243.3 609.3,245.2 610.2,252.2 611.2,234.8 612.2,248.9 613.2,249.7 614.2,253.3 615.2,258.5 616.2,258.4 617.2,254.5 618.1,246.4 619.1,248.7 620.1,256.2 621.1,249.7 622.1,245.7 623.1,239.9 624.1,233.9 625.1,238.3 626.0,239.3 627.0,240.9 628.0,247.8 629.0,249.2 630.0,246.0 631.0,245.0 632.0,241.7 633.0,245.7 633.9,248.4 634.9,241.6 635.9,247.2 636.9,255.5 637.9,254.1 638.9,263.6 639.9,251.0 640.9,255.0 641.8,252.7 642.8,261.5 643.8,253.3 644.8,241.3 645.8,244.2 646.8,234.2 647.8,241.3 648.8,245.4 649.7,230.1 650.7,243.0 651.7,239.0 652.7,243.2 653.7,242.2 654.7,243.6 655.7,242.8 656.7,235.8 657.6,241.7 658.6,238.4 659.6,255.3 660.6,254.0 661.6,254.4 662.6,254.8 663.6,254.9 664.6,260.6 665.5,254.5 666.5,253.2 667.5,253.8 668.5,250.0 669.5,267.3 670.5,252.1 671.5,243.9 672.5,247.7 673.4,235.3 674.4,238.5 675.4,243.9 676.4,252.3 677.4,248.6 678.4,248.7 679.4,250.6 680.4,241.6 681.3,248.7 682.3,249.7 683.3,262.1 684.3,260.6 685.3,259.9 686.3,256.5 687.3,262.2 688.3,253.6 689.2,260.9 690.2,251.4 691.2,254.6 692.2,250.3 693.2,253.0 694.2,250.4 695.2,244.6 696.2,246.6 697.1,239.6 698.1,240.0 699.1,246.7 700.1,248.7 701.1,243.2 702.1,245.7 703.1,244.5 704.1,250.0 705.0,246.4 706.0,254.3 707.0,251.2 708.0,253.3 709.0,257.9 710.0,249.5 711.0,251.5 712.0,262.1 712.9,253.0 713.9,261.2 714.9,246.3 715.9,250.0 716.9,248.6 717.9,250.8 718.9,242.7 719.9,250.7 720.8,242.4 721.8,246.2 722.8,249.6 723.8,243.8 724.8,243.9 725.8,258.9 726.8,253.2 727.8,249.6 728.7,249.2 729.7,252.0 730.7,252.7 731.7,252.7 732.7,263.5 733.7,245.9 734.7,269.6 735.7,252.0 736.6,255.0 737.6,256.0 738.6,241.1 739.6,249.0 740.6,249.8 741.6,248.9 742.6,249.7 743.6,264.1 744.5,258.0 745.5,241.3 746.5,243.7 747.5,342.1 748.5,337.6 749.5,337.9 750.5,335.7 751.5,336.7 752.4,341.5 753.4,340.3 754.4,339.8 755.4,339.6 756.4,340.4 757.4,338.1 758.4,337.5 759.4,338.8 760.3,338.0 761.3,341.8 762.3,337.4 763.3,346.5 764.3,336.8 765.3,339.2 766.3,336.8 767.3,336.7 768.2,337.6 769.2,336.1 770.2,339.8 771.2,339.7 772.2,337.2 773.2,338.7 774.2,337.7 775.2,338.4 776.1,336.6 777.1,340.8 778.1,334.7 779.1,337.2 780.1,339.1 781.1,339.4 782.1,338.8 783.1,341.6 784.0,339.2 785.0,339.4 786.0,337.1 787.0,338.1 788.0,336.2 789.0,337.8 790.0,338.0 791.0,337.5 791.9,338.6 792.9,335.8 793.9,336.2 794.9,336.9 795.9,337.4 796.9,332.4 797.9,332.2 798.9,331.3 799.8,336.8 800.8,336.9 801.8,336.8 802.8,336.2 803.8,338.6 804.8,338.0 805.8,338.6 806.8,339.6 807.7,338.6 808.7,337.1 809.7,331.5 810.7,336.4 811.7,337.1 812.7,336.9 813.7,334.8 814.7,335.9 815.6,335.2 816.6,342.9 817.6,286.0 818.6,335.7 819.6,336.9 820.6,338.6 821.6,338.2 822.6,336.2 823.5,309.0 824.5,340.0 825.5,338.7 826.5,319.5 827.5,345.3 828.5,340.9 829.5,339.1 830.5,338.9 831.4,333.9 832.4,333.3 833.4,328.2 834.4,313.8 835.4,310.7 836.4,333.1 837.4,335.8 838.4,348.0 839.3,338.2 840.3,314.0 841.3,338.1 842.3,330.9 843.3,335.4 844.3,344.4 845.3,313.9 846.3,337.2 847.2,338.2 848.2,337.2 849.2,316.0 850.2,343.6 851.2,342.0 852.2,342.1 853.2,342.2 854.2,341.6 855.1,342.7 856.1,343.1 857.1,347.5 858.1,310.0 859.1,345.4 860.1,343.1 861.1,342.1 862.1,316.1 863.0,342.3 864.0,335.7 865.0,340.9 866.0,318.1 867.0,338.3 868.0,342.2 869.0,339.6 870.0,321.0 870.9,347.0 871.9,341.5 872.9,322.9 873.9,341.8 874.9,341.9 875.9,340.7 876.9,339.4 877.9,342.2 878.8,341.9 879.8,340.1 880.8,316.8 881.8,316.9 882.8,343.7 883.8,340.3 884.8,313.1 885.8,338.1 886.7,336.7 887.7,338.3 888.7,294.0 889.7,340.8 890.7,340.4 891.7,311.9 892.7,343.7 893.7,339.4 894.6,319.5 895.6,344.3 896.6,318.8 897.6,336.9 898.6,344.1 899.6,343.6 900.6,341.6 901.6,339.2 902.5,340.2 903.5,342.0 904.5,340.4 905.5,293.7 906.5,340.2 907.5,342.3 908.5,337.2 909.5,311.6 910.4,342.1 911.4,337.4 912.4,340.7 913.4,319.0 914.4,338.3 915.4,316.6 916.4,337.6 917.4,338.9 918.3,315.0 919.3,339.6 920.3,320.0 921.3,342.0 922.3,338.9 923.3,343.4 924.3,340.7 925.3,346.5 926.2,341.4 927.2,338.5 928.2,339.6 929.2,340.1 930.2,316.3 931.2,313.8 932.2,339.3 933.2,338.6 934.1,338.3 935.1,343.5 936.1,343.4 937.1,334.7 938.1,318.2 939.1,340.9 940.1,345.0 941.1,341.7 942.0,322.1 943.0,340.8 944.0,342.8 945.0,351.6 946.0,347.9" fill="none" stroke="#7c3aed" stroke-width="2.2" stroke-linejoin="round" stroke-linecap="round"/>
<line x1="76" y1="70" x2="94" y2="70" stroke="#2563eb" stroke-width="3"/>
<text x="100" y="74" font-family="Arial, sans-serif" font-size="11" fill="#0f172a">tx count</text>
<line x1="186" y1="70" x2="204" y2="70" stroke="#7c3aed" stroke-width="3"/>
<text x="210" y="74" font-family="Arial, sans-serif" font-size="11" fill="#0f172a">unique accounts</text>
<text x="28" y="404" font-family="Arial, sans-serif" font-size="11" fill="#64748b">Source: hourly_features.csv; capped windows are sample counts</text>
</svg>