<svg xmlns="http://www.w3.org/2000/svg" width="980" height="420" viewBox="0 0 980 420">
<rect width="100%" height="100%" fill="#ffffff"/>
<text x="28" y="34" font-family="Arial, sans-serif" font-size="20" font-weight="700" fill="#0f172a">Network activity sample trend</text>
<text x="28" y="56" font-family="Arial, sans-serif" font-size="12" fill="#64748b">Hourly transaction sample count and unique account sample count</text>
<line x1="76" y1="362.0" x2="946" y2="362.0" stroke="#e2e8f0" stroke-width="1"/>
<text x="68" y="366.0" font-family="Arial, sans-serif" font-size="10" text-anchor="end" fill="#64748b">153</text>
<line x1="76" y1="292.0" x2="946" y2="292.0" stroke="#e2e8f0" stroke-width="1"/>
<text x="68" y="296.0" font-family="Arial, sans-serif" font-size="10" text-anchor="end" fill="#64748b">1K</text>
<line x1="76" y1="222.0" x2="946" y2="222.0" stroke="#e2e8f0" stroke-width="1"/>
<text x="68" y="226.0" font-family="Arial, sans-serif" font-size="10" text-anchor="end" fill="#64748b">3K</text>
<line x1="76" y1="152.0" x2="946" y2="152.0" stroke="#e2e8f0" stroke-width="1"/>
<text x="68" y="156.0" font-family="Arial, sans-serif" font-size="10" text-anchor="end" fill="#64748b">4K</text>
<line x1="76" y1="82.0" x2="946" y2="82.0" stroke="#e2e8f0" stroke-width="1"/>
<text x="68" y="86.0" font-family="Arial, sans-serif" font-size="10" text-anchor="end" fill="#64748b">5K</text>
<line x1="76" y1="362" x2="946" y2="362" stroke="#334155" stroke-width="1"/>
<line x1="76" y1="82" x2="76" y2="362" stroke="#334155" stroke-width="1"/>
<text x="76" y="72" font-family="Arial, sans-serif" font-size="11" fill="#64748b">count</text>
<line x1="76.0" y1="362" x2="76.0" y2="366" stroke="#334155" stroke-width="1"/>
<text x="76.0" y="380" font-family="Arial, sans-serif" font-size="10" text-anchor="middle" fill="#64748b">0</text>
<line x1="511.0" y1="362" x2="511.0" y2="366" stroke="#334155" stroke-width="1"/>
<text x="511.0" y="380" font-family="Arial, sans-serif" font-size="10" text-anchor="middle" fill="#64748b">444</text>
<line x1="946.0" y1="362" x2="946.0" y2="366" stroke="#334155" stroke-width="1"/>
<text x="946.0" y="380" font-family="Arial, sans-serif" font-size="10" text-anchor="middle" fill="#64748b">888</text>
<polyline points="76.0,92.4 77.0,92.4 78.0,92.4 78.9,92.4 79.9,92.4 80.9,92.4 81.9,92.4 82.9,92.4 83.8,92.4 84.8,92.4 85.8,92.4 86.8,92.4 87.8,92.4 88.7,92.4 89.7,92.4 90.7,92.4 91.7,92.4 92.7,92.4 93.6,92.4 94.6,92.4 95.6,92.4 96.6,92.4 97.6,92.4 98.5,92.4 99.5,92.4 100.5,92.4 101.5,92.4 102.5,92.4 103.4,92.4 104.4,92.4 105.4,92.4 106.4,92.4 107.4,92.4 108.3,92.4 109.3,92.4 110.3,92.4 111.3,92.4 112.2,92.4 113.2,92.4 114.2,92.4 115.2,92.4 116.2,92.4 117.1,92.4 118.1,92.4 119.1,92.4 120.1,92.4 121.1,92.4 122.0,92.4 123.0,92.4 124.0,92.4 125.0,92.4 126.0,92.4 126.9,92.4 127.9,92.4 128.9,92.4 129.9,92.4 130.9,92.4 131.8,92.4 132.8,92.4 133.8,92.4 134.8,92.4 135.8,92.4 136.7,92.4 137.7,92.4 138.7,92.4 139.7,92.4 140.7,92.4 141.6,92.4 142.6,92.4 143.6,92.4 144.6,92.4 145.6,92.4 146.5,92.4 147.5,92.4 148.5,92.4 149.5,92.4 150.5,92.4 151.4,92.4 152.4,92.4 153.4,92.4 154.4,92.4 155.4,92.4 156.3,92.4 157.3,92.4 158.3,92.4 159.3,92.4 160.3,92.4 161.2,92.4 162.2,92.4 163.2,92.4 164.2,92.4 165.2,92.4 166.1,92.4 167.1,92.4 168.1,92.4 169.1,92.4 170.1,92.4 171.0,92.4 172.0,92.4 173.0,92.4 174.0,92.4 175.0,92.4 175.9,92.4 176.9,92.4 177.9,92.4 178.9,92.4 179.9,92.4 180.8,92.4 181.8,92.4 182.8,92.4 183.8,92.4 184.8,92.4 185.7,92.4 186.7,92.4 187.7,92.4 188.7,92.4 189.6,92.4 190.6,92.4 191.6,92.4 192.6,92.4 193.6,92.4 194.5,92.4 195.5,92.4 196.5,92.4 197.5,92.4 198.5,92.4 199.4,92.4 200.4,92.4 201.4,92.4 202.4,92.4 203.4,92.4 204.3,92.4 205.3,92.4 206.3,92.4 207.3,92.4 208.3,92.4 209.2,92.4 210.2,92.4 211.2,92.4 212.2,92.4 213.2,92.4 214.1,92.4 215.1,92.4 216.1,92.4 217.1,92.4 218.1,92.4 219.0,92.4 220.0,92.4 221.0,92.4 222.0,92.4 223.0,92.4 223.9,92.4 224.9,92.4 225.9,92.4 226.9,92.4 227.9,92.4 228.8,92.4 229.8,92.4 230.8,92.4 231.8,92.4 232.8,92.4 233.7,92.4 234.7,92.4 235.7,92.4 236.7,92.4 237.7,92.4 238.6,92.4 239.6,92.4 240.6,92.4 241.6,92.4 242.6,92.4 243.5,92.4 244.5,92.4 245.5,92.4 246.5,92.4 247.5,92.4 248.4,92.4 249.4,92.4 250.4,92.4 251.4,92.4 252.4,92.4 253.3,92.4 254.3,92.4 255.3,92.4 256.3,92.4 257.2,92.4 258.2,92.4 259.2,92.4 260.2,92.4 261.2,92.4 262.1,92.4 263.1,92.4 264.1,92.4 265.1,92.4 266.1,92.4 267.0,92.4 268.0,92.4 269.0,92.4 270.0,92.4 271.0,92.4 271.9,92.4 272.9,92.4 273.9,92.4 274.9,92.4 275.9,92.4 276.8,92.4 277.8,92.4 278.8,92.4 279.8,92.4 280.8,92.4 281.7,92.4 282.7,92.4 283.7,92.4 284.7,92.4 285.7,92.4 286.6,92.4 287.6,92.4 288.6,92.4 289.6,92.4 290.6,92.4 291.5,92.4 292.5,92.4 293.5,92.4 294.5,92.4 295.5,92.4 296.4,92.4 297.4,92.4 298.4,92.4 299.4,92.4 300.4,92.4 301.3,92.4 302.3,92.4 303.3,92.4 304.3,92.4 305.3,92.4 306.2,92.4 307.2,92.4 308.2,92.4 309.2,92.4 310.2,92.4 311.1,92.4 312.1,92.4 313.1,92.4 314.1,92.4 315.1,92.4 316.0,92.4 317.0,92.4 318.0,92.4 319.0,92.4 320.0,92.4 320.9,92.4 321.9,92.4 322.9,92.4 323.9,92.4 324.9,92.4 325.8,92.4 326.8,92.4 327.8,92.4 328.8,92.4 329.8,92.4 330.7,92.4 331.7,92.4 332.7,92.4 333.7,92.4 334.6,92.4 335.6,92.4 336.6,92.4 337.6,92.4 338.6,92.4 339.5,92.4 340.5,92.4 341.5,92.4 342.5,92.4 343.5,92.4 344.4,92.4 345.4,92.4 346.4,92.4 347.4,92.4 348.4,92.4 349.3,92.4 350.3,92.4 351.3,92.4 352.3,92.4 353.3,92.4 354.2,92.4 355.2,92.4 356.2,92.4 357.2,92.4 358.2,92.4 359.1,92.4 360.1,92.4 361.1,92.4 362.1,92.4 363.1,92.4 364.0,92.4 365.0,92.4 366.0,92.4 367.0,92.4 368.0,92.4 368.9,92.4 369.9,92.4 370.9,92.4 371.9,92.4 372.9,92.4 373.8,92.4 374.8,92.4 375.8,92.4 376.8,92.4 377.8,92.4 378.7,92.4 379.7,92.4 380.7,92.4 381.7,92.4 382.7,92.4 383.6,92.4 384.6,92.4 385.6,92.4 386.6,92.4 387.6,92.4 388.5,92.4 389.5,92.4 390.5,92.4 391.5,92.4 392.5,92.4 393.4,92.4 394.4,92.4 395.4,92.4 396.4,92.4 397.4,92.4 398.3,92.4 399.3,92.4 400.3,92.4 401.3,92.4 402.2,92.4 403.2,92.4 404.2,92.4 405.2,92.4 406.2,92.4 407.1,92.4 408.1,92.4 409.1,92.4 410.1,92.4 411.1,92.4 412.0,92.4 413.0,92.4 414.0,92.4 415.0,92.4 416.0,92.4 416.9,92.4 417.9,92.4 418.9,92.4 419.9,92.4 420.9,92.4 421.8,92.4 422.8,92.4 423.8,92.4 424.8,92.4 425.8,92.4 426.7,92.4 427.7,92.4 428.7,92.4 429.7,92.4 430.7,92.4 431.6,92.4 432.6,92.4 433.6,92.4 434.6,92.4 435.6,92.4 436.5,92.4 437.5,92.4 438.5,92.4 439.5,92.4 440.5,92.4 441.4,92.4 442.4,92.4 443.4,92.4 444.4,92.4 445.4,92.4 446.3,92.4 447.3,92.4 448.3,92.4 449.3,92.4 450.3,92.4 451.2,92.4 452.2,92.4 453.2,92.4 454.2,92.4 455.2,92.4 456.1,92.4 457.1,92.4 458.1,92.4 459.1,92.4 460.1,92.4 461.0,92.4 462.0,92.4 463.0,92.4 464.0,92.4 465.0,92.4 465.9,92.4 466.9,92.4 467.9,92.4 468.9,92.4 469.9,92.4 470.8,92.4 471.8,92.4 472.8,92.4 473.8,92.4 474.8,92.4 475.7,92.4 476.7,92.4 477.7,92.4 478.7,92.4 479.6,92.4 480.6,92.4 481.6,92.4 482.6,92.4 483.6,92.4 484.5,92.4 485.5,92.4 486.5,92.4 487.5,92.4 488.5,92.4 489.4,92.4 490.4,92.4 491.4,92.4 492.4,92.4 493.4,92.4 494.3,92.4 495.3,92.4 496.3,92.4 497.3,92.4 498.3,92.4 499.2,92.4 500.2,92.4 501.2,92.4 502.2,92.4 503.2,92.4 504.1,92.4 505.1,92.4 506.1,92.4 507.1,92.4 508.1,92.4 509.0,92.4 510.0,92.4 511.0,92.4 512.0,92.4 513.0,92.4 513.9,92.4 514.9,92.4 515.9,92.4 516.9,92.4 517.9,92.4 518.8,92.4 519.8,92.4 520.8,92.4 521.8,92.4 522.8,92.4 523.7,92.4 524.7,92.4 525.7,92.4 526.7,92.4 527.7,92.4 528.6,92.4 529.6,92.4 530.6,92.4 531.6,92.4 532.6,92.4 533.5,92.4 534.5,92.4 535.5,92.4 536.5,92.4 537.5,92.4 538.4,92.4 539.4,92.4 540.4,92.4 541.4,92.4 542.4,92.4 543.3,92.4 544.3,92.4 545.3,92.4 546.3,92.4 547.2,92.4 548.2,92.4 549.2,92.4 550.2,92.4 551.2,92.4 552.1,92.4 553.1,92.4 554.1,92.4 555.1,92.4 556.1,92.4 557.0,92.4 558.0,92.4 559.0,92.4 560.0,92.4 561.0,92.4 561.9,92.4 562.9,92.4 563.9,92.4 564.9,92.4 565.9,92.4 566.8,92.4 567.8,92.4 568.8,92.4 569.8,92.4 570.8,92.4 571.7,92.4 572.7,92.4 573.7,92.4 574.7,92.4 575.7,92.4 576.6,92.4 577.6,92.4 578.6,92.4 579.6,92.4 580.6,92.4 581.5,92.4 582.5,92.4 583.5,92.4 584.5,92.4 585.5,92.4 586.4,92.4 587.4,92.4 588.4,92.4 589.4,92.4 590.4,92.4 591.3,92.4 592.3,92.4 593.3,92.4 594.3,92.4 595.3,92.4 596.2,92.4 597.2,92.4 598.2,92.4 599.2,92.4 600.2,92.4 601.1,92.4 602.1,92.4 603.1,92.4 604.1,92.4 605.1,92.4 606.0,92.4 607.0,92.4 608.0,92.4 609.0,92.4 610.0,92.4 610.9,92.4 611.9,92.4 612.9,92.4 613.9,92.4 614.9,92.4 615.8,92.4 616.8,92.4 617.8,92.4 618.8,92.4 619.8,92.4 620.7,92.4 621.7,92.4 622.7,92.4 623.7,92.4 624.6,92.4 625.6,92.4 626.6,92.4 627.6,92.4 628.6,92.4 629.5,92.4 630.5,92.4 631.5,92.4 632.5,92.4 633.5,92.4 634.4,92.4 635.4,92.4 636.4,92.4 637.4,92.4 638.4,92.4 639.3,92.4 640.3,92.4 641.3,92.4 642.3,92.4 643.3,92.4 644.2,92.4 645.2,92.4 646.2,92.4 647.2,92.4 648.2,92.4 649.1,92.4 650.1,92.4 651.1,92.4 652.1,92.4 653.1,92.4 654.0,92.4 655.0,92.4 656.0,92.4 657.0,92.4 658.0,92.4 658.9,92.4 659.9,92.4 660.9,92.4 661.9,92.4 662.9,92.4 663.8,92.4 664.8,92.4 665.8,92.4 666.8,92.4 667.8,92.4 668.7,92.4 669.7,92.4 670.7,92.4 671.7,92.4 672.7,92.4 673.6,92.4 674.6,92.4 675.6,92.4 676.6,92.4 677.6,92.4 678.5,92.4 679.5,92.4 680.5,92.4 681.5,92.4 682.5,92.4 683.4,92.4 684.4,92.4 685.4,92.4 686.4,92.4 687.4,92.4 688.3,92.4 689.3,92.4 690.3,92.4 691.3,92.4 692.2,92.4 693.2,92.4 694.2,92.4 695.2,92.4 696.2,92.4 697.1,92.4 698.1,92.4 699.1,92.4 700.1,92.4 701.1,92.4 702.0,92.4 703.0,92.4 704.0,92.4 705.0,92.4 706.0,92.4 706.9,92.4 707.9,92.4 708.9,92.4 709.9,92.4 710.9,92.4 711.8,92.4 712.8,92.4 713.8,92.4 714.8,92.4 715.8,92.4 716.7,92.4 717.7,92.4 718.7,92.4 719.7,92.4 720.7,92.4 721.6,92.4 722.6,92.4 723.6,92.4 724.6,92.4 725.6,92.4 726.5,92.4 727.5,92.4 728.5,92.4 729.5,92.4 730.5,92.4 731.4,92.4 732.4,92.4 733.4,92.4 734.4,92.4 735.4,92.4 736.3,92.4 737.3,92.4 738.3,92.4 739.3,92.4 740.3,92.4 741.2,92.4 742.2,314.9 743.2,314.9 744.2,314.9 745.2,314.9 746.1,314.9 747.1,314.9 748.1,314.9 749.1,314.9 750.1,314.9 751.0,314.9 752.0,314.9 753.0,314.9 754.0,314.9 755.0,314.9 755.9,314.9 756.9,314.9 757.9,314.9 758.9,314.9 759.9,314.9 760.8,314.9 761.8,314.9 762.8,314.9 763.8,314.9 764.8,314.9 765.7,314.9 766.7,314.9 767.7,314.9 768.7,314.9 769.6,314.9 770.6,314.9 771.6,314.9 772.6,314.9 773.6,314.9 774.5,314.9 775.5,314.9 776.5,314.9 777.5,314.9 778.5,314.9 779.4,314.9 780.4,314.9 781.4,314.9 782.4,314.9 783.4,314.9 784.3,314.9 785.3,314.9 786.3,314.9 787.3,314.9 788.3,314.9 789.2,314.9 790.2,314.9 791.2,314.9 792.2,314.9 793.2,314.9 794.1,314.9 795.1,314.9 796.1,314.9 797.1,314.9 798.1,314.9 799.0,314.9 800.0,314.9 801.0,314.9 802.0,314.9 803.0,314.9 803.9,314.9 804.9,314.9 805.9,314.9 806.9,314.9 807.9,314.9 808.8,314.9 809.8,314.9 810.8,314.9 811.8,205.4 812.8,314.9 813.7,314.9 814.7,314.9 815.7,314.9 816.7,314.9 817.7,261.0 818.6,314.9 819.6,314.9 820.6,261.1 821.6,314.9 822.6,314.9 823.5,314.9 824.5,314.9 825.5,314.9 826.5,314.9 827.5,314.9 828.4,259.9 829.4,261.1 830.4,314.9 831.4,314.9 832.4,314.9 833.3,314.9 834.3,262.2 835.3,314.9 836.3,314.9 837.2,314.9 838.2,314.9 839.2,259.6 840.2,314.9 841.2,314.9 842.1,314.9 843.1,260.7 844.1,314.9 845.1,314.9 846.1,314.9 847.0,314.9 848.0,314.9 849.0,314.9 850.0,314.9 851.0,314.9 851.9,205.9 852.9,314.9 853.9,314.9 854.9,314.9 855.9,260.1 856.8,314.9 857.8,314.9 858.8,314.9 859.8,260.5 860.8,314.9 861.7,314.9 862.7,314.9 863.7,260.6 864.7,314.9 865.7,314.9 866.6,260.0 867.6,314.9 868.6,314.9 869.6,314.9 870.6,314.9 871.5,314.9 872.5,314.9 873.5,314.9 874.5,259.6 875.5,259.3 876.4,314.9 877.4,314.9 878.4,261.6 879.4,314.9 880.4,314.9 881.3,314.9 882.3,259.3 883.3,314.9 884.3,314.9 885.3,259.7 886.2,314.9 887.2,314.9 888.2,259.3 889.2,314.9 890.2,260.6 891.1,314.9 892.1,314.9 893.1,314.9 894.1,314.9 895.1,314.9 896.0,314.9 897.0,314.9 898.0,314.9 899.0,205.5 900.0,314.9 900.9,314.9 901.9,314.9 902.9,260.2 903.9,314.9 904.9,314.9 905.8,314.9 906.8,262.1 907.8,314.9 908.8,261.0 909.8,314.9 910.7,314.9 911.7,259.9 912.7,314.9 913.7,259.4 914.6,314.9 915.6,314.9 916.6,314.9 917.6,314.9 918.6,314.9 919.5,314.9 920.5,314.9 921.5,314.9 922.5,314.9 923.5,260.2 924.4,262.5 925.4,314.9 926.4,314.9 927.4,314.9 928.4,314.9 929.3,314.9 930.3,314.9 931.3,261.4 932.3,314.9 933.3,314.9 934.2,314.9 935.2,259.5 936.2,314.9 937.2,314.9 938.2,314.9 939.1,261.1 940.1,314.9 941.1,314.9 942.1,314.9 943.1,314.9 944.0,314.9 945.0,314.9 946.0,314.9" fill="none" stroke="#2563eb" stroke-width="2.2" stroke-linejoin="round" stroke-linecap="round"/>
<polyline points="76.0,260.4 77.0,256.5 78.0,247.3 78.9,245.1 79.9,248.7 80.9,238.2 81.9,237.6 82.9,241.4 83.8,246.3 84.8,245.8 85.8,262.2 86.8,243.9 87.8,243.1 88.7,244.7 89.7,248.8 90.7,257.0 91.7,254.2 92.7,251.9 93.6,249.4 94.6,254.3 95.6,259.1 96.6,255.2 97.6,253.3 98.5,253.0 99.5,247.1 100.5,245.5 101.5,247.5 102.5,239.0 103.4,230.5 104.4,239.1 105.4,241.4 106.4,255.0 107.4,248.8 108.3,248.4 109.3,252.9 110.3,248.3 111.3,245.2 112.2,251.1 113.2,244.9 114.2,244.8 115.2,242.6 116.2,259.5 117.1,255.8 118.1,251.9 119.1,218.0 120.1,220.5 121.1,253.1 122.0,249.0 123.0,235.3 124.0,217.5 125.0,237.8 126.0,248.9 126.9,241.8 127.9,240.0 128.9,241.8 129.9,244.6 130.9,242.3 131.8,247.8 132.8,239.2 133.8,244.8 134.8,236.8 135.8,243.3 136.7,241.8 137.7,282.4 138.7,267.5 139.7,259.9 140.7,267.6 141.6,264.6 142.6,236.4 143.6,231.8 144.6,241.3 145.6,257.5 146.5,269.9 147.5,243.9 148.5,243.3 149.5,245.9 150.5,258.7 151.4,248.2 152.4,256.8 153.4,243.7 154.4,238.4 155.4,251.7 156.3,247.7 157.3,252.3 158.3,253.5 159.3,251.8 160.3,259.6 161.2,249.2 162.2,249.2 163.2,251.5 164.2,247.8 165.2,265.8 166.1,229.5 167.1,253.5 168.1,248.8 169.1,216.5 170.1,254.2 171.0,243.1 172.0,245.7 173.0,225.0 174.0,244.0 175.0,246.2 175.9,238.9 176.9,247.2 177.9,241.5 178.9,247.9 179.9,242.2 180.8,240.7 181.8,240.6 182.8,245.9 183.8,243.2 184.8,249.6 185.7,235.8 186.7,249.2 187.7,250.3 188.7,248.7 189.6,218.2 190.6,202.0 191.6,213.0 192.6,214.0 193.6,213.6 194.5,223.1 195.5,218.6 196.5,214.2 197.5,241.4 198.5,244.2 199.4,239.8 200.4,241.1 201.4,240.1 202.4,239.6 203.4,240.6 204.3,242.4 205.3,241.3 206.3,242.9 207.3,247.5 208.3,242.9 209.2,255.8 210.2,255.5 211.2,246.0 212.2,260.9 213.2,287.5 214.1,252.0 215.1,265.7 216.1,253.3 217.1,251.1 218.1,251.3 219.0,248.6 220.0,249.6 221.0,243.1 222.0,248.9 223.0,242.2 223.9,240.3 224.9,238.7 225.9,240.6 226.9,249.2 227.9,261.7 228.8,245.0 229.8,250.0 230.8,248.7 231.8,250.8 232.8,251.1 233.7,256.3 234.7,258.4 235.7,256.7 236.7,289.3 237.7,253.4 238.6,267.7 239.6,234.2 240.6,249.9 241.6,242.9 242.6,246.8 243.5,238.4 244.5,240.6 245.5,246.6 246.5,241.0 247.5,234.6 248.4,243.6 249.4,245.3 250.4,239.3 251.4,243.1 252.4,242.9 253.3,244.7 254.3,245.7 255.3,249.5 256.3,251.0 257.2,256.7 258.2,261.1 259.2,250.0 260.2,282.8 261.2,249.5 262.1,252.8 263.1,248.4 264.1,247.6 265.1,240.8 266.1,240.3 267.0,240.1 268.0,238.9 269.0,245.2 270.0,245.9 271.0,256.6 271.9,255.0 272.9,251.5 273.9,247.9 274.9,253.5 275.9,245.4 276.8,251.3 277.8,243.7 278.8,251.1 279.8,255.8 280.8,259.0 281.7,256.6 282.7,263.8 283.7,294.7 284.7,257.7 285.7,258.0 286.6,256.3 287.6,255.5 288.6,247.4 289.6,245.8 290.6,243.7 291.5,250.1 292.5,246.6 293.5,243.3 294.5,243.3 295.5,239.2 296.4,246.0 297.4,238.2 298.4,239.3 299.4,238.8 300.4,253.5 301.3,253.2 302.3,251.9 303.3,257.0 304.3,270.8 305.3,255.6 306.2,258.2 307.2,255.8 308.2,250.1 309.2,230.0 310.2,217.9 311.1,255.3 312.1,242.9 313.1,226.3 314.1,222.7 315.1,222.3 316.0,222.0 317.0,220.9 318.0,237.2 319.0,229.8 320.0,233.3 320.9,234.0 321.9,243.6 322.9,254.5 323.9,264.0 324.9,243.1 325.8,281.2 326.8,247.9 327.8,262.7 328.8,254.6 329.8,256.1 330.7,263.5 331.7,247.4 332.7,208.1 333.7,218.9 334.6,221.1 335.6,223.9 336.6,213.4 337.6,225.5 338.6,220.2 339.5,207.3 340.5,239.9 341.5,237.7 342.5,246.7 343.5,249.2 344.4,245.3 345.4,241.6 346.4,250.3 347.4,248.1 348.4,246.6 349.3,265.0 350.3,250.0 351.3,245.5 352.3,256.6 353.3,225.3 354.2,209.7 355.2,215.1 356.2,253.5 357.2,249.3 358.2,243.2 359.1,267.8 360.1,237.3 361.1,242.6 362.1,241.2 363.1,248.6 364.0,230.5 365.0,240.7 366.0,242.6 367.0,263.0 368.0,237.2 368.9,242.5 369.9,240.7 370.9,245.7 371.9,244.6 372.9,261.2 373.8,248.6 374.8,255.9 375.8,252.5 376.8,249.5 377.8,262.6 378.7,250.4 379.7,256.8 380.7,261.5 381.7,251.7 382.7,228.1 383.6,222.4 384.6,255.6 385.6,243.7 386.6,250.6 387.6,253.2 388.5,245.9 389.5,248.9 390.5,247.9 391.5,246.3 392.5,243.2 393.4,262.6 394.4,260.6 395.4,256.0 396.4,260.0 397.4,256.7 398.3,281.1 399.3,274.0 400.3,270.5 401.3,274.0 402.2,280.0 403.2,279.9 404.2,275.1 405.2,279.0 406.2,280.9 407.1,275.9 408.1,273.5 409.1,263.4 410.1,248.9 411.1,257.3 412.0,270.9 413.0,258.7 414.0,261.0 415.0,255.5 416.0,263.2 416.9,259.9 417.9,259.7 418.9,259.7 419.9,252.1 420.9,260.4 421.8,255.1 422.8,259.1 423.8,247.4 424.8,252.7 425.8,258.3 426.7,260.4 427.7,261.4 428.7,257.0 429.7,256.1 430.7,250.1 431.6,249.3 432.6,252.2 433.6,231.7 434.6,244.6 435.6,256.7 436.5,245.3 437.5,242.2 438.5,247.4 439.5,249.2 440.5,251.0 441.4,250.5 442.4,252.3 443.4,252.8 444.4,248.9 445.4,259.6 446.3,258.2 447.3,263.2 448.3,258.0 449.3,263.0 450.3,255.0 451.2,251.7 452.2,259.2 453.2,242.1 454.2,250.8 455.2,243.5 456.1,247.1 457.1,233.2 458.1,241.0 459.1,245.9 460.1,253.4 461.0,234.3 462.0,248.8 463.0,234.7 464.0,240.4 465.0,245.6 465.9,244.1 466.9,244.7 467.9,243.4 468.9,251.0 469.9,263.7 470.8,255.6 471.8,212.9 472.8,219.2 473.8,215.4 474.8,229.6 475.7,219.0 476.7,219.5 477.7,227.1 478.7,248.0 479.6,245.8 480.6,232.3 481.6,243.8 482.6,242.9 483.6,250.7 484.5,243.8 485.5,245.3 486.5,246.1 487.5,245.5 488.5,237.0 489.4,238.8 490.4,249.7 491.4,250.6 492.4,249.7 493.4,257.1 494.3,246.4 495.3,253.3 496.3,253.3 497.3,253.9 498.3,250.4 499.2,248.2 500.2,245.3 501.2,233.3 502.2,255.4 503.2,237.3 504.1,215.7 505.1,242.6 506.1,241.2 507.1,245.2 508.1,246.3 509.0,243.4 510.0,242.4 511.0,245.8 512.0,248.8 513.0,246.7 513.9,250.1 514.9,247.5 515.9,250.1 516.9,256.1 517.9,258.4 518.8,237.5 519.8,260.2 520.8,265.6 521.8,268.5 522.8,250.8 523.7,247.3 524.7,254.5 525.7,240.3 526.7,242.5 527.7,233.9 528.6,243.7 529.6,249.9 530.6,238.4 531.6,232.4 532.6,236.9 533.5,239.8 534.5,233.1 535.5,250.4 536.5,242.8 537.5,242.2 538.4,259.9 539.4,302.6 540.4,247.7 541.4,243.7 542.4,256.6 543.3,253.6 544.3,250.8 545.3,254.0 546.3,243.0 547.2,240.2 548.2,238.8 549.2,240.8 550.2,246.3 551.2,238.9 552.1,235.3 553.1,240.0 554.1,237.8 555.1,234.5 556.1,239.4 557.0,244.8 558.0,241.3 559.0,243.7 560.0,246.7 561.0,236.6 561.9,249.4 562.9,247.2 563.9,273.7 564.9,257.3 565.9,248.7 566.8,266.9 567.8,249.3 568.8,252.0 569.8,251.7 570.8,246.2 571.7,235.9 572.7,244.6 573.7,244.9 574.7,243.1 575.7,244.1 576.6,234.4 577.6,238.2 578.6,237.8 579.6,262.7 580.6,241.3 581.5,242.5 582.5,237.9 583.5,248.4 584.5,249.8 585.5,258.0 586.4,243.4 587.4,261.4 588.4,246.4 589.4,260.5 590.4,263.5 591.3,245.9 592.3,252.1 593.3,245.1 594.3,250.1 595.3,244.2 596.2,249.0 597.2,243.3 598.2,239.7 599.2,235.3 600.2,249.3 601.1,243.9 602.1,237.7 603.1,236.7 604.1,243.3 605.1,245.2 606.0,252.2 607.0,234.8 608.0,248.9 609.0,249.7 610.0,253.3 610.9,258.5 611.9,258.4 612.9,254.5 613.9,246.4 614.9,248.7 615.8,256.2 616.8,249.7 617.8,245.7 618.8,239.9 619.8,233.9 620.7,238.3 621.7,239.3 622.7,240.9 623.7,247.8 624.6,249.2 625.6,246.0 626.6,245.0 627.6,241.7 628.6,245.7 629.5,248.4 630.5,241.6 631.5,247.2 632.5,255.5 633.5,254.1 634.4,263.6 635.4,251.0 636.4,255.0 637.4,252.7 638.4,261.5 639.3,253.3 640.3,241.3 641.3,244.2 642.3,234.2 643.3,241.3 644.2,245.4 645.2,230.1 646.2,243.0 647.2,239.0 648.2,243.2 649.1,242.2 650.1,243.6 651.1,242.8 652.1,235.8 653.1,241.7 654.0,238.4 655.0,255.3 656.0,254.0 657.0,254.4 658.0,254.8 658.9,254.9 659.9,260.6 660.9,254.5 661.9,253.2 662.9,253.8 663.8,250.0 664.8,267.3 665.8,252.1 666.8,243.9 667.8,247.7 668.7,235.3 669.7,238.5 670.7,243.9 671.7,252.3 672.7,248.6 673.6,248.7 674.6,250.6 675.6,241.6 676.6,248.7 677.6,249.7 678.5,262.1 679.5,260.6 680.5,259.9 681.5,256.5 682.5,262.2 683.4,253.6 684.4,260.9 685.4,251.4 686.4,254.6 687.4,250.3 688.3,253.0 689.3,250.4 690.3,244.6 691.3,246.6 692.2,239.6 693.2,240.0 694.2,246.7 695.2,248.7 696.2,243.2 697.1,245.7 698.1,244.5 699.1,250.0 700.1,246.4 701.1,254.3 702.0,251.2 703.0,253.3 704.0,257.9 705.0,249.5 706.0,251.5 706.9,262.1 707.9,253.0 708.9,261.2 709.9,246.3 710.9,250.0 711.8,248.6 712.8,250.8 713.8,242.7 714.8,250.7 715.8,242.4 716.7,246.2 717.7,249.6 718.7,243.8 719.7,243.9 720.7,258.9 721.6,253.2 722.6,249.6 723.6,249.2 724.6,252.0 725.6,252.7 726.5,252.7 727.5,263.5 728.5,245.9 729.5,269.6 730.5,252.0 731.4,255.0 732.4,256.0 733.4,241.1 734.4,249.0 735.4,249.8 736.3,248.9 737.3,249.7 738.3,264.1 739.3,258.0 740.3,241.3 741.2,243.7 742.2,342.1 743.2,337.6 744.2,337.9 745.2,335.7 746.1,336.7 747.1,341.5 748.1,340.3 749.1,339.8 750.1,339.6 751.0,340.4 752.0,338.1 753.0,337.5 754.0,338.8 755.0,338.0 755.9,341.8 756.9,337.4 757.9,346.5 758.9,336.8 759.9,339.2 760.8,336.8 761.8,336.7 762.8,337.6 763.8,336.1 764.8,339.8 765.7,339.7 766.7,337.2 767.7,338.7 768.7,337.7 769.6,338.4 770.6,336.6 771.6,340.8 772.6,334.7 773.6,337.2 774.5,339.1 775.5,339.4 776.5,338.8 777.5,341.6 778.5,339.2 779.4,339.4 780.4,337.1 781.4,338.1 782.4,336.2 783.4,337.8 784.3,338.0 785.3,337.5 786.3,338.6 787.3,335.8 788.3,336.2 789.2,336.9 790.2,337.4 791.2,332.4 792.2,332.2 793.2,331.3 794.1,336.8 795.1,336.9 796.1,336.8 797.1,336.2 798.1,338.6 799.0,338.0 800.0,338.6 801.0,339.6 802.0,338.6 803.0,337.1 803.9,331.5 804.9,336.4 805.9,337.1 806.9,336.9 807.9,334.8 808.8,335.9 809.8,335.2 810.8,342.9 811.8,286.0 812.8,335.7 813.7,336.9 814.7,338.6 815.7,338.2 816.7,336.2 817.7,309.0 818.6,340.0 819.6,338.7 820.6,319.5 821.6,345.3 822.6,340.9 823.5,339.1 824.5,338.9 825.5,333.9 826.5,333.3 827.5,328.2 828.4,313.8 829.4,310.7 830.4,333.1 831.4,335.8 832.4,348.0 833.3,338.2 834.3,314.0 835.3,338.1 836.3,330.9 837.2,335.4 838.2,344.4 839.2,313.9 840.2,337.2 841.2,338.2 842.1,337.2 843.1,316.0 844.1,343.6 845.1,342.0 846.1,342.1 847.0,342.2 848.0,341.6 849.0,342.7 850.0,343.1 851.0,347.5 851.9,310.0 852.9,345.4 853.9,343.1 854.9,342.1 855.9,316.1 856.8,342.3 857.8,335.7 858.8,340.9 859.8,318.1 860.8,338.3 861.7,342.2 862.7,339.6 863.7,321.0 864.7,347.0 865.7,341.5 866.6,322.9 867.6,341.8 868.6,341.9 869.6,340.7 870.6,339.4 871.5,342.2 872.5,341.9 873.5,340.1 874.5,316.8 875.5,316.9 876.4,343.7 877.4,340.3 878.4,313.1 879.4,338.1 880.4,336.7 881.3,338.3 882.3,294.0 883.3,340.8 884.3,340.4 885.3,311.9 886.2,343.7 887.2,339.4 888.2,319.5 889.2,344.3 890.2,318.8 891.1,336.9 892.1,344.1 893.1,343.6 894.1,341.6 895.1,339.2 896.0,340.2 897.0,342.0 898.0,340.4 899.0,293.7 900.0,340.2 900.9,342.3 901.9,337.2 902.9,311.6 903.9,342.1 904.9,337.4 905.8,340.7 906.8,319.0 907.8,338.3 908.8,316.6 909.8,337.6 910.7,338.9 911.7,315.0 912.7,339.6 913.7,320.0 914.6,342.0 915.6,338.9 916.6,343.4 917.6,340.7 918.6,346.5 919.5,341.4 920.5,338.5 921.5,339.6 922.5,340.1 923.5,316.3 924.4,313.8 925.4,339.3 926.4,338.6 927.4,338.3 928.4,343.5 929.3,343.4 930.3,334.7 931.3,318.2 932.3,340.9 933.3,345.0 934.2,341.7 935.2,322.1 936.2,340.8 937.2,342.8 938.2,351.6 939.1,327.8 940.1,342.3 941.1,348.3 942.1,345.7 943.1,341.6 944.0,343.9 945.0,346.8 946.0,344.3" fill="none" stroke="#7c3aed" stroke-width="2.2" stroke-linejoin="round" stroke-linecap="round"/>
<line x1="76" y1="70" x2="94" y2="70" stroke="#2563eb" stroke-width="3"/>
<text x="100" y="74" font-family="Arial, sans-serif" font-size="11" fill="#0f172a">tx count</text>
<line x1="186" y1="70" x2="204" y2="70" stroke="#7c3aed" stroke-width="3"/>
<text x="210" y="74" font-family="Arial, sans-serif" font-size="11" fill="#0f172a">unique accounts</text>
<text x="28" y="404" font-family="Arial, sans-serif" font-size="11" fill="#64748b">Source: hourly_features.csv; capped windows are sample counts</text>
</svg>