<svg xmlns="http://www.w3.org/2000/svg" width="980" height="420" viewBox="0 0 980 420">
<rect width="100%" height="100%" fill="#ffffff"/>
<text x="28" y="34" font-family="Arial, sans-serif" font-size="20" font-weight="700" fill="#0f172a">Network activity sample trend</text>
<text x="28" y="56" font-family="Arial, sans-serif" font-size="12" fill="#64748b">Hourly transaction sample count and unique account sample count</text>
<line x1="76" y1="362.0" x2="946" y2="362.0" stroke="#e2e8f0" stroke-width="1"/>
<text x="68" y="366.0" font-family="Arial, sans-serif" font-size="10" text-anchor="end" fill="#64748b">220</text>
<line x1="76" y1="292.0" x2="946" y2="292.0" stroke="#e2e8f0" stroke-width="1"/>
<text x="68" y="296.0" font-family="Arial, sans-serif" font-size="10" text-anchor="end" fill="#64748b">1K</text>
<line x1="76" y1="222.0" x2="946" y2="222.0" stroke="#e2e8f0" stroke-width="1"/>
<text x="68" y="226.0" font-family="Arial, sans-serif" font-size="10" text-anchor="end" fill="#64748b">3K</text>
<line x1="76" y1="152.0" x2="946" y2="152.0" stroke="#e2e8f0" stroke-width="1"/>
<text x="68" y="156.0" font-family="Arial, sans-serif" font-size="10" text-anchor="end" fill="#64748b">4K</text>
<line x1="76" y1="82.0" x2="946" y2="82.0" stroke="#e2e8f0" stroke-width="1"/>
<text x="68" y="86.0" font-family="Arial, sans-serif" font-size="10" text-anchor="end" fill="#64748b">5K</text>
<line x1="76" y1="362" x2="946" y2="362" stroke="#334155" stroke-width="1"/>
<line x1="76" y1="82" x2="76" y2="362" stroke="#334155" stroke-width="1"/>
<text x="76" y="72" font-family="Arial, sans-serif" font-size="11" fill="#64748b">count</text>
<line x1="76.0" y1="362" x2="76.0" y2="366" stroke="#334155" stroke-width="1"/>
<text x="76.0" y="380" font-family="Arial, sans-serif" font-size="10" text-anchor="middle" fill="#64748b">0</text>
<line x1="511.5" y1="362" x2="511.5" y2="366" stroke="#334155" stroke-width="1"/>
<text x="511.5" y="380" font-family="Arial, sans-serif" font-size="10" text-anchor="middle" fill="#64748b">410</text>
<line x1="946.0" y1="362" x2="946.0" y2="366" stroke="#334155" stroke-width="1"/>
<text x="946.0" y="380" font-family="Arial, sans-serif" font-size="10" text-anchor="middle" fill="#64748b">819</text>
<polyline points="76.0,92.4 77.1,92.4 78.1,92.4 79.2,92.4 80.2,92.4 81.3,92.4 82.4,92.4 83.4,92.4 84.5,92.4 85.6,92.4 86.6,92.4 87.7,92.4 88.7,92.4 89.8,92.4 90.9,92.4 91.9,92.4 93.0,92.4 94.1,92.4 95.1,92.4 96.2,92.4 97.2,92.4 98.3,92.4 99.4,92.4 100.4,92.4 101.5,92.4 102.6,92.4 103.6,92.4 104.7,92.4 105.7,92.4 106.8,92.4 107.9,92.4 108.9,92.4 110.0,92.4 111.1,92.4 112.1,92.4 113.2,92.4 114.2,92.4 115.3,92.4 116.4,92.4 117.4,92.4 118.5,92.4 119.6,92.4 120.6,92.4 121.7,92.4 122.7,92.4 123.8,92.4 124.9,92.4 125.9,92.4 127.0,92.4 128.1,92.4 129.1,92.4 130.2,92.4 131.2,92.4 132.3,92.4 133.4,92.4 134.4,92.4 135.5,92.4 136.5,92.4 137.6,92.4 138.7,92.4 139.7,92.4 140.8,92.4 141.9,92.4 142.9,92.4 144.0,92.4 145.0,92.4 146.1,92.4 147.2,92.4 148.2,92.4 149.3,92.4 150.4,92.4 151.4,92.4 152.5,92.4 153.5,92.4 154.6,92.4 155.7,92.4 156.7,92.4 157.8,92.4 158.9,92.4 159.9,92.4 161.0,92.4 162.0,92.4 163.1,92.4 164.2,92.4 165.2,92.4 166.3,92.4 167.4,92.4 168.4,92.4 169.5,92.4 170.5,92.4 171.6,92.4 172.7,92.4 173.7,92.4 174.8,92.4 175.9,92.4 176.9,92.4 178.0,92.4 179.0,92.4 180.1,92.4 181.2,92.4 182.2,92.4 183.3,92.4 184.4,92.4 185.4,92.4 186.5,92.4 187.5,92.4 188.6,92.4 189.7,92.4 190.7,92.4 191.8,92.4 192.8,92.4 193.9,92.4 195.0,92.4 196.0,92.4 197.1,92.4 198.2,92.4 199.2,92.4 200.3,92.4 201.3,92.4 202.4,92.4 203.5,92.4 204.5,92.4 205.6,92.4 206.7,92.4 207.7,92.4 208.8,92.4 209.8,92.4 210.9,92.4 212.0,92.4 213.0,92.4 214.1,92.4 215.2,92.4 216.2,92.4 217.3,92.4 218.3,92.4 219.4,92.4 220.5,92.4 221.5,92.4 222.6,92.4 223.7,92.4 224.7,92.4 225.8,92.4 226.8,92.4 227.9,92.4 229.0,92.4 230.0,92.4 231.1,92.4 232.2,92.4 233.2,92.4 234.3,92.4 235.3,92.4 236.4,92.4 237.5,92.4 238.5,92.4 239.6,92.4 240.7,92.4 241.7,92.4 242.8,92.4 243.8,92.4 244.9,92.4 246.0,92.4 247.0,92.4 248.1,92.4 249.2,92.4 250.2,92.4 251.3,92.4 252.3,92.4 253.4,92.4 254.5,92.4 255.5,92.4 256.6,92.4 257.6,92.4 258.7,92.4 259.8,92.4 260.8,92.4 261.9,92.4 263.0,92.4 264.0,92.4 265.1,92.4 266.1,92.4 267.2,92.4 268.3,92.4 269.3,92.4 270.4,92.4 271.5,92.4 272.5,92.4 273.6,92.4 274.6,92.4 275.7,92.4 276.8,92.4 277.8,92.4 278.9,92.4 280.0,92.4 281.0,92.4 282.1,92.4 283.1,92.4 284.2,92.4 285.3,92.4 286.3,92.4 287.4,92.4 288.5,92.4 289.5,92.4 290.6,92.4 291.6,92.4 292.7,92.4 293.8,92.4 294.8,92.4 295.9,92.4 297.0,92.4 298.0,92.4 299.1,92.4 300.1,92.4 301.2,92.4 302.3,92.4 303.3,92.4 304.4,92.4 305.5,92.4 306.5,92.4 307.6,92.4 308.6,92.4 309.7,92.4 310.8,92.4 311.8,92.4 312.9,92.4 313.9,92.4 315.0,92.4 316.1,92.4 317.1,92.4 318.2,92.4 319.3,92.4 320.3,92.4 321.4,92.4 322.4,92.4 323.5,92.4 324.6,92.4 325.6,92.4 326.7,92.4 327.8,92.4 328.8,92.4 329.9,92.4 330.9,92.4 332.0,92.4 333.1,92.4 334.1,92.4 335.2,92.4 336.3,92.4 337.3,92.4 338.4,92.4 339.4,92.4 340.5,92.4 341.6,92.4 342.6,92.4 343.7,92.4 344.8,92.4 345.8,92.4 346.9,92.4 347.9,92.4 349.0,92.4 350.1,92.4 351.1,92.4 352.2,92.4 353.3,92.4 354.3,92.4 355.4,92.4 356.4,92.4 357.5,92.4 358.6,92.4 359.6,92.4 360.7,92.4 361.8,92.4 362.8,92.4 363.9,92.4 364.9,92.4 366.0,92.4 367.1,92.4 368.1,92.4 369.2,92.4 370.2,92.4 371.3,92.4 372.4,92.4 373.4,92.4 374.5,92.4 375.6,92.4 376.6,92.4 377.7,92.4 378.7,92.4 379.8,92.4 380.9,92.4 381.9,92.4 383.0,92.4 384.1,92.4 385.1,92.4 386.2,92.4 387.2,92.4 388.3,92.4 389.4,92.4 390.4,92.4 391.5,92.4 392.6,92.4 393.6,92.4 394.7,92.4 395.7,92.4 396.8,92.4 397.9,92.4 398.9,92.4 400.0,92.4 401.1,92.4 402.1,92.4 403.2,92.4 404.2,92.4 405.3,92.4 406.4,92.4 407.4,92.4 408.5,92.4 409.6,92.4 410.6,92.4 411.7,92.4 412.7,92.4 413.8,92.4 414.9,92.4 415.9,92.4 417.0,92.4 418.1,92.4 419.1,92.4 420.2,92.4 421.2,92.4 422.3,92.4 423.4,92.4 424.4,92.4 425.5,92.4 426.5,92.4 427.6,92.4 428.7,92.4 429.7,92.4 430.8,92.4 431.9,92.4 432.9,92.4 434.0,92.4 435.0,92.4 436.1,92.4 437.2,92.4 438.2,92.4 439.3,92.4 440.4,92.4 441.4,92.4 442.5,92.4 443.5,92.4 444.6,92.4 445.7,92.4 446.7,92.4 447.8,92.4 448.9,92.4 449.9,92.4 451.0,92.4 452.0,92.4 453.1,92.4 454.2,92.4 455.2,92.4 456.3,92.4 457.4,92.4 458.4,92.4 459.5,92.4 460.5,92.4 461.6,92.4 462.7,92.4 463.7,92.4 464.8,92.4 465.9,92.4 466.9,92.4 468.0,92.4 469.0,92.4 470.1,92.4 471.2,92.4 472.2,92.4 473.3,92.4 474.4,92.4 475.4,92.4 476.5,92.4 477.5,92.4 478.6,92.4 479.7,92.4 480.7,92.4 481.8,92.4 482.8,92.4 483.9,92.4 485.0,92.4 486.0,92.4 487.1,92.4 488.2,92.4 489.2,92.4 490.3,92.4 491.3,92.4 492.4,92.4 493.5,92.4 494.5,92.4 495.6,92.4 496.7,92.4 497.7,92.4 498.8,92.4 499.8,92.4 500.9,92.4 502.0,92.4 503.0,92.4 504.1,92.4 505.2,92.4 506.2,92.4 507.3,92.4 508.3,92.4 509.4,92.4 510.5,92.4 511.5,92.4 512.6,92.4 513.7,92.4 514.7,92.4 515.8,92.4 516.8,92.4 517.9,92.4 519.0,92.4 520.0,92.4 521.1,92.4 522.2,92.4 523.2,92.4 524.3,92.4 525.3,92.4 526.4,92.4 527.5,92.4 528.5,92.4 529.6,92.4 530.7,92.4 531.7,92.4 532.8,92.4 533.8,92.4 534.9,92.4 536.0,92.4 537.0,92.4 538.1,92.4 539.2,92.4 540.2,92.4 541.3,92.4 542.3,92.4 543.4,92.4 544.5,92.4 545.5,92.4 546.6,92.4 547.6,92.4 548.7,92.4 549.8,92.4 550.8,92.4 551.9,92.4 553.0,92.4 554.0,92.4 555.1,92.4 556.1,92.4 557.2,92.4 558.3,92.4 559.3,92.4 560.4,92.4 561.5,92.4 562.5,92.4 563.6,92.4 564.6,92.4 565.7,92.4 566.8,92.4 567.8,92.4 568.9,92.4 570.0,92.4 571.0,92.4 572.1,92.4 573.1,92.4 574.2,92.4 575.3,92.4 576.3,92.4 577.4,92.4 578.5,92.4 579.5,92.4 580.6,92.4 581.6,92.4 582.7,92.4 583.8,92.4 584.8,92.4 585.9,92.4 587.0,92.4 588.0,92.4 589.1,92.4 590.1,92.4 591.2,92.4 592.3,92.4 593.3,92.4 594.4,92.4 595.5,92.4 596.5,92.4 597.6,92.4 598.6,92.4 599.7,92.4 600.8,92.4 601.8,92.4 602.9,92.4 603.9,92.4 605.0,92.4 606.1,92.4 607.1,92.4 608.2,92.4 609.3,92.4 610.3,92.4 611.4,92.4 612.4,92.4 613.5,92.4 614.6,92.4 615.6,92.4 616.7,92.4 617.8,92.4 618.8,92.4 619.9,92.4 620.9,92.4 622.0,92.4 623.1,92.4 624.1,92.4 625.2,92.4 626.3,92.4 627.3,92.4 628.4,92.4 629.4,92.4 630.5,92.4 631.6,92.4 632.6,92.4 633.7,92.4 634.8,92.4 635.8,92.4 636.9,92.4 637.9,92.4 639.0,92.4 640.1,92.4 641.1,92.4 642.2,92.4 643.3,92.4 644.3,92.4 645.4,92.4 646.4,92.4 647.5,92.4 648.6,92.4 649.6,92.4 650.7,92.4 651.8,92.4 652.8,92.4 653.9,92.4 654.9,92.4 656.0,92.4 657.1,92.4 658.1,92.4 659.2,92.4 660.2,92.4 661.3,92.4 662.4,92.4 663.4,92.4 664.5,92.4 665.6,92.4 666.6,92.4 667.7,92.4 668.7,92.4 669.8,92.4 670.9,92.4 671.9,92.4 673.0,92.4 674.1,92.4 675.1,92.4 676.2,92.4 677.2,92.4 678.3,92.4 679.4,92.4 680.4,92.4 681.5,92.4 682.6,92.4 683.6,92.4 684.7,92.4 685.7,92.4 686.8,92.4 687.9,92.4 688.9,92.4 690.0,92.4 691.1,92.4 692.1,92.4 693.2,92.4 694.2,92.4 695.3,92.4 696.4,92.4 697.4,92.4 698.5,92.4 699.6,92.4 700.6,92.4 701.7,92.4 702.7,92.4 703.8,92.4 704.9,92.4 705.9,92.4 707.0,92.4 708.1,92.4 709.1,92.4 710.2,92.4 711.2,92.4 712.3,92.4 713.4,92.4 714.4,92.4 715.5,92.4 716.5,92.4 717.6,92.4 718.7,92.4 719.7,92.4 720.8,92.4 721.9,92.4 722.9,92.4 724.0,92.4 725.0,92.4 726.1,92.4 727.2,92.4 728.2,92.4 729.3,92.4 730.4,92.4 731.4,92.4 732.5,92.4 733.5,92.4 734.6,92.4 735.7,92.4 736.7,92.4 737.8,92.4 738.9,92.4 739.9,92.4 741.0,92.4 742.0,92.4 743.1,92.4 744.2,92.4 745.2,92.4 746.3,92.4 747.4,92.4 748.4,92.4 749.5,92.4 750.5,92.4 751.6,92.4 752.7,92.4 753.7,92.4 754.8,92.4 755.9,92.4 756.9,92.4 758.0,92.4 759.0,92.4 760.1,92.4 761.2,92.4 762.2,92.4 763.3,92.4 764.4,92.4 765.4,92.4 766.5,92.4 767.5,92.4 768.6,92.4 769.7,92.4 770.7,92.4 771.8,92.4 772.8,92.4 773.9,92.4 775.0,92.4 776.0,92.4 777.1,92.4 778.2,92.4 779.2,92.4 780.3,92.4 781.3,92.4 782.4,92.4 783.5,92.4 784.5,92.4 785.6,92.4 786.7,92.4 787.7,92.4 788.8,92.4 789.8,92.4 790.9,92.4 792.0,92.4 793.0,92.4 794.1,92.4 795.2,92.4 796.2,92.4 797.3,92.4 798.3,318.0 799.4,318.0 800.5,318.0 801.5,318.0 802.6,318.0 803.7,318.0 804.7,318.0 805.8,318.0 806.8,318.0 807.9,318.0 809.0,318.0 810.0,318.0 811.1,318.0 812.2,318.0 813.2,318.0 814.3,318.0 815.3,318.0 816.4,318.0 817.5,318.0 818.5,318.0 819.6,318.0 820.7,318.0 821.7,318.0 822.8,318.0 823.8,318.0 824.9,318.0 826.0,318.0 827.0,318.0 828.1,318.0 829.2,318.0 830.2,318.0 831.3,318.0 832.3,318.0 833.4,318.0 834.5,318.0 835.5,318.0 836.6,318.0 837.6,318.0 838.7,318.0 839.8,318.0 840.8,318.0 841.9,318.0 843.0,318.0 844.0,318.0 845.1,318.0 846.1,318.0 847.2,318.0 848.3,318.0 849.3,318.0 850.4,318.0 851.5,318.0 852.5,318.0 853.6,318.0 854.6,318.0 855.7,318.0 856.8,318.0 857.8,318.0 858.9,318.0 860.0,318.0 861.0,318.0 862.1,318.0 863.1,318.0 864.2,318.0 865.3,318.0 866.3,318.0 867.4,318.0 868.5,318.0 869.5,318.0 870.6,318.0 871.6,318.0 872.7,318.0 873.8,207.0 874.8,318.0 875.9,318.0 877.0,318.0 878.0,318.0 879.1,318.0 880.1,263.4 881.2,318.0 882.3,318.0 883.3,263.5 884.4,318.0 885.5,318.0 886.5,318.0 887.6,318.0 888.6,318.0 889.7,318.0 890.8,318.0 891.8,262.2 892.9,263.5 893.9,318.0 895.0,318.0 896.1,318.0 897.1,318.0 898.2,264.6 899.3,318.0 900.3,318.0 901.4,318.0 902.4,318.0 903.5,261.9 904.6,318.0 905.6,318.0 906.7,318.0 907.8,263.1 908.8,318.0 909.9,318.0 910.9,318.0 912.0,318.0 913.1,318.0 914.1,318.0 915.2,318.0 916.3,318.0 917.3,207.5 918.4,318.0 919.4,318.0 920.5,318.0 921.6,262.4 922.6,318.0 923.7,318.0 924.8,318.0 925.8,262.8 926.9,318.0 927.9,318.0 929.0,318.0 930.1,263.0 931.1,318.0 932.2,318.0 933.3,262.3 934.3,318.0 935.4,318.0 936.4,318.0 937.5,318.0 938.6,318.0 939.6,318.0 940.7,318.0 941.8,261.9 942.8,261.7 943.9,318.0 944.9,318.0 946.0,318.0" fill="none" stroke="#2563eb" stroke-width="2.2" stroke-linejoin="round" stroke-linecap="round"/>
<polyline points="76.0,262.8 77.1,258.8 78.1,249.5 79.2,247.2 80.2,250.9 81.3,240.3 82.4,239.7 83.4,243.5 84.5,248.5 85.6,248.0 86.6,264.6 87.7,246.1 88.7,245.2 89.8,246.9 90.9,251.1 91.9,259.3 93.0,256.5 94.1,254.2 95.1,251.6 96.2,256.6 97.2,261.5 98.3,257.5 99.4,255.6 100.4,255.2 101.5,249.2 102.6,247.7 103.6,249.7 104.7,241.1 105.7,232.5 106.8,241.2 107.9,243.5 108.9,257.3 110.0,251.0 111.1,250.7 112.1,255.2 113.2,250.5 114.2,247.4 115.3,253.4 116.4,247.1 117.4,247.0 118.5,244.7 119.6,261.9 120.6,258.2 121.7,254.2 122.7,219.8 123.8,222.3 124.9,255.3 125.9,251.2 127.0,237.3 128.1,219.3 129.1,239.9 130.2,251.2 131.2,243.9 132.3,242.1 133.4,243.9 134.4,246.7 135.5,244.4 136.5,250.0 137.6,241.3 138.7,247.0 139.7,238.8 140.8,245.4 141.9,243.9 142.9,285.1 144.0,270.0 145.0,262.3 146.1,270.1 147.2,267.0 148.2,238.5 149.3,233.8 150.4,243.4 151.4,259.9 152.5,272.4 153.5,246.0 154.6,245.5 155.7,248.1 156.7,261.0 157.8,250.4 158.9,259.1 159.9,245.9 161.0,240.5 162.0,253.9 163.1,249.9 164.2,254.6 165.2,255.7 166.3,254.0 167.4,261.9 168.4,251.4 169.5,251.4 170.5,253.7 171.6,250.0 172.7,268.3 173.7,231.5 174.8,255.8 175.9,251.1 176.9,218.2 178.0,256.5 179.0,245.2 180.1,247.9 181.2,226.9 182.2,246.1 183.3,248.3 184.4,241.0 185.4,249.4 186.5,243.6 187.5,250.1 188.6,244.3 189.7,242.8 190.7,242.6 191.8,248.1 192.8,245.4 193.9,251.8 195.0,237.9 196.0,251.4 197.1,252.6 198.2,250.9 199.2,220.0 200.3,203.6 201.3,214.7 202.4,215.7 203.5,215.3 204.5,224.9 205.6,220.4 206.7,216.0 207.7,243.5 208.8,246.4 209.8,241.9 210.9,243.2 212.0,242.2 213.0,241.7 214.1,242.6 215.2,244.6 216.2,243.4 217.3,245.1 218.3,249.7 219.4,245.1 220.5,258.2 221.5,257.8 222.6,248.2 223.7,263.2 224.7,290.3 225.8,254.2 226.8,268.2 227.9,255.6 229.0,253.3 230.0,253.6 231.1,250.8 232.2,251.8 233.2,245.2 234.3,251.1 235.3,244.3 236.4,242.4 237.5,240.7 238.5,242.6 239.6,251.4 240.7,264.1 241.7,247.2 242.8,252.2 243.8,250.9 244.9,253.1 246.0,253.4 247.0,258.6 248.1,260.8 249.2,259.1 250.2,292.1 251.3,255.7 252.3,270.2 253.4,236.2 254.5,252.1 255.5,245.1 256.6,249.0 257.6,240.5 258.7,242.6 259.8,248.7 260.8,243.1 261.9,236.6 263.0,245.7 264.0,247.5 265.1,241.4 266.1,245.2 267.2,245.0 268.3,246.8 269.3,247.8 270.4,251.7 271.5,253.2 272.5,259.1 273.6,263.5 274.6,252.2 275.7,285.5 276.8,251.7 277.8,255.1 278.9,250.6 280.0,249.8 281.0,242.9 282.1,242.4 283.1,242.2 284.2,241.0 285.3,247.3 286.3,248.1 287.4,258.9 288.5,257.3 289.5,253.8 290.6,250.1 291.6,255.8 292.7,247.6 293.8,253.5 294.8,245.9 295.9,253.4 297.0,258.1 298.0,261.3 299.1,258.9 300.1,266.2 301.2,297.6 302.3,260.0 303.3,260.3 304.4,258.6 305.5,257.8 306.5,249.6 307.6,247.9 308.6,245.9 309.7,252.3 310.8,248.8 311.8,245.4 312.9,245.5 313.9,241.2 315.0,248.2 316.1,240.3 317.1,241.3 318.2,240.9 319.3,255.8 320.3,255.5 321.4,254.2 322.4,259.3 323.5,273.3 324.6,257.9 325.6,260.5 326.7,258.2 327.8,252.3 328.8,232.0 329.9,219.6 330.9,257.6 332.0,245.0 333.1,228.2 334.1,224.5 335.2,224.1 336.3,223.8 337.3,222.7 338.4,239.3 339.4,231.7 340.5,235.3 341.6,236.0 342.6,245.7 343.7,256.8 344.8,266.4 345.8,245.2 346.9,283.8 347.9,250.1 349.0,265.2 350.1,256.9 351.1,258.4 352.2,265.9 353.3,249.6 354.3,209.8 355.4,220.6 356.4,223.0 357.5,225.7 358.6,215.1 359.6,227.4 360.7,222.0 361.8,209.0 362.8,242.0 363.9,239.8 364.9,248.9 366.0,251.4 367.1,247.5 368.1,243.7 369.2,252.6 370.2,250.3 371.3,248.7 372.4,267.5 373.4,252.2 374.5,247.7 375.6,258.9 376.6,227.2 377.7,211.3 378.7,216.8 379.8,255.8 380.9,251.6 381.9,245.4 383.0,270.3 384.1,239.4 385.1,244.7 386.2,243.3 387.2,250.8 388.3,232.4 389.4,242.8 390.4,244.7 391.5,265.4 392.6,239.2 393.6,244.6 394.7,242.8 395.7,247.8 396.8,246.7 397.9,263.6 398.9,250.8 400.0,258.2 401.1,254.7 402.1,251.7 403.2,265.0 404.2,252.6 405.3,259.2 406.4,263.9 407.4,253.9 408.5,230.0 409.6,224.2 410.6,257.9 411.7,245.8 412.7,252.8 413.8,255.5 414.9,248.1 415.9,251.2 417.0,250.1 418.1,248.5 419.1,245.4 420.2,265.0 421.2,263.0 422.3,258.3 423.4,262.4 424.4,259.0 425.5,283.8 426.5,276.5 427.6,273.1 428.7,276.5 429.7,282.7 430.8,282.5 431.9,277.7 432.9,281.6 434.0,283.5 435.0,278.5 436.1,276.0 437.2,265.8 438.2,251.2 439.3,259.6 440.4,273.4 441.4,261.0 442.5,263.4 443.5,257.8 444.6,265.6 445.7,262.2 446.7,262.1 447.8,262.1 448.9,254.3 449.9,262.8 451.0,257.4 452.0,261.5 453.1,249.6 454.2,254.9 455.2,260.6 456.3,262.8 457.4,263.7 458.4,259.3 459.5,258.4 460.5,252.3 461.6,251.5 462.7,254.4 463.7,233.7 464.8,246.8 465.9,259.0 466.9,247.4 468.0,244.3 469.0,249.6 470.1,251.4 471.2,253.2 472.2,252.7 473.3,254.5 474.4,255.1 475.4,251.1 476.5,261.9 477.5,260.5 478.6,265.7 479.7,260.3 480.7,265.4 481.8,257.3 482.8,253.9 483.9,261.6 485.0,244.2 486.0,253.1 487.1,245.6 488.2,249.2 489.2,235.1 490.3,243.1 491.3,248.1 492.4,255.7 493.5,236.3 494.5,251.0 495.6,236.7 496.7,242.5 497.7,247.8 498.8,246.2 499.8,246.8 500.9,245.6 502.0,253.2 503.0,266.1 504.1,257.9 505.2,214.6 506.2,221.0 507.3,217.1 508.3,231.6 509.4,220.8 510.5,221.3 511.5,229.0 512.6,250.2 513.7,248.0 514.7,234.3 515.8,246.0 516.8,245.0 517.9,252.9 519.0,245.9 520.0,247.4 521.1,248.3 522.2,247.7 523.2,239.1 524.3,240.8 525.3,252.0 526.4,252.9 527.5,252.0 528.5,259.5 529.6,248.6 530.7,255.6 531.7,255.6 532.8,256.2 533.8,252.6 534.9,250.4 536.0,247.5 537.0,235.3 538.1,257.7 539.2,239.4 540.2,217.5 541.3,244.7 542.3,243.3 543.4,247.4 544.5,248.5 545.5,245.5 546.6,244.6 547.6,247.9 548.7,251.0 549.8,248.9 550.8,252.3 551.9,249.7 553.0,252.3 554.0,258.4 555.1,260.8 556.1,239.5 557.2,262.6 558.3,268.1 559.3,271.0 560.4,253.1 561.5,249.5 562.5,256.8 563.6,242.4 564.6,244.6 565.7,235.9 566.8,245.9 567.8,252.1 568.9,240.5 570.0,234.4 571.0,239.0 572.1,241.9 573.1,235.1 574.2,252.6 575.3,245.0 576.3,244.3 577.4,262.3 578.5,305.5 579.5,249.9 580.6,245.8 581.6,258.9 582.7,255.9 583.8,253.1 584.8,256.3 585.9,245.1 587.0,242.3 588.0,240.8 589.1,242.9 590.1,248.5 591.2,241.0 592.3,237.3 593.3,242.1 594.4,239.8 595.5,236.5 596.5,241.5 597.6,247.0 598.6,243.4 599.7,245.8 600.8,248.9 601.8,238.6 602.9,251.6 603.9,249.4 605.0,276.3 606.1,259.7 607.1,250.9 608.2,269.4 609.3,251.6 610.3,254.3 611.4,253.9 612.4,248.4 613.5,238.0 614.6,246.8 615.6,247.0 616.7,245.2 617.8,246.2 618.8,236.4 619.9,240.2 620.9,239.9 622.0,265.2 623.1,243.4 624.1,244.6 625.2,240.0 626.3,250.6 627.3,252.1 628.4,260.3 629.4,245.6 630.5,263.7 631.6,248.6 632.6,262.8 633.7,265.9 634.8,248.1 635.8,254.3 636.9,247.2 637.9,252.3 639.0,246.3 640.1,251.2 641.1,245.4 642.2,241.8 643.3,237.3 644.3,251.5 645.4,246.1 646.4,239.7 647.5,238.8 648.6,245.5 649.6,247.4 650.7,254.5 651.8,236.8 652.8,251.2 653.9,251.9 654.9,255.6 656.0,260.8 657.1,260.8 658.1,256.8 659.2,248.6 660.2,250.9 661.3,258.6 662.4,252.0 663.4,247.8 664.5,242.0 665.6,235.9 666.6,240.3 667.7,241.3 668.7,243.0 669.8,250.0 670.9,251.4 671.9,248.2 673.0,247.2 674.1,243.8 675.1,247.8 676.2,250.6 677.2,243.7 678.3,249.4 679.4,257.8 680.4,256.4 681.5,266.0 682.6,253.2 683.6,257.3 684.7,254.9 685.7,263.9 686.8,255.6 687.9,243.4 688.9,246.3 690.0,236.2 691.1,243.4 692.1,247.6 693.2,232.1 694.2,245.1 695.3,241.1 696.4,245.4 697.4,244.3 698.5,245.7 699.6,244.9 700.6,237.9 701.7,243.8 702.7,240.4 703.8,257.6 704.9,256.3 705.9,256.7 707.0,257.1 708.1,257.2 709.1,263.0 710.2,256.8 711.2,255.5 712.3,256.1 713.4,252.2 714.4,269.8 715.5,254.4 716.5,246.0 717.6,249.9 718.7,237.3 719.7,240.6 720.8,246.0 721.9,254.5 722.9,250.8 724.0,250.9 725.0,252.8 726.1,243.7 727.2,250.9 728.2,251.9 729.3,264.5 730.4,263.0 731.4,262.2 732.5,258.8 733.5,264.6 734.6,255.8 735.7,263.3 736.7,253.6 737.8,256.9 738.9,252.5 739.9,255.3 741.0,252.6 742.0,246.8 743.1,248.8 744.2,241.7 745.2,242.1 746.3,248.9 747.4,250.9 748.4,245.3 749.5,247.8 750.5,246.7 751.6,252.2 752.7,248.6 753.7,256.6 754.8,253.4 755.9,255.6 756.9,260.2 758.0,251.7 759.0,253.8 760.1,264.5 761.2,255.3 762.2,263.6 763.3,248.5 764.4,252.2 765.4,250.8 766.5,253.1 767.5,244.8 768.6,253.0 769.7,244.6 770.7,248.3 771.8,251.8 772.8,245.9 773.9,246.0 775.0,261.2 776.0,255.5 777.1,251.8 778.2,251.4 779.2,254.2 780.3,255.0 781.3,255.0 782.4,265.9 783.5,248.1 784.5,272.1 785.6,254.3 786.7,257.3 787.7,258.3 788.8,243.2 789.8,251.2 790.9,252.1 792.0,251.2 793.0,251.9 794.1,266.5 795.2,260.3 796.2,243.4 797.3,245.9 798.3,345.6 799.4,341.0 800.5,341.4 801.5,339.1 802.6,340.1 803.7,345.0 804.7,343.8 805.8,343.3 806.8,343.1 807.9,343.9 809.0,341.5 810.0,341.0 811.1,342.3 812.2,341.5 813.2,345.3 814.3,340.9 815.3,350.1 816.4,340.2 817.5,342.7 818.5,340.3 819.6,340.1 820.7,341.1 821.7,339.5 822.8,343.3 823.8,343.2 824.9,340.7 826.0,342.2 827.0,341.2 828.1,341.9 829.2,340.0 830.2,344.3 831.3,338.1 832.3,340.6 833.4,342.6 834.5,342.9 835.5,342.3 836.6,345.1 837.6,342.7 838.7,342.9 839.8,340.6 840.8,341.6 841.9,339.6 843.0,341.3 844.0,341.5 845.1,341.0 846.1,342.0 847.2,339.2 848.3,339.6 849.3,340.4 850.4,340.9 851.5,335.8 852.5,335.6 853.6,334.7 854.6,340.2 855.7,340.4 856.8,340.3 857.8,339.6 858.9,342.0 860.0,341.5 861.0,342.0 862.1,343.1 863.1,342.0 864.2,340.6 865.3,334.9 866.3,339.8 867.4,340.6 868.5,340.3 869.5,338.2 870.6,339.3 871.6,338.7 872.7,346.4 873.8,288.7 874.8,339.1 875.9,340.3 877.0,342.0 878.0,341.7 879.1,339.6 880.1,312.1 881.2,343.5 882.3,342.2 883.3,322.7 884.4,348.9 885.5,344.5 886.5,342.6 887.6,342.4 888.6,337.4 889.7,336.7 890.8,331.5 891.8,316.9 892.9,313.8 893.9,336.5 895.0,339.3 896.1,351.6 897.1,341.7 898.2,317.1 899.3,341.6 900.3,334.3 901.4,338.9 902.4,348.0 903.5,317.1 904.6,340.6 905.6,341.7 906.7,340.6 907.8,319.1 908.8,347.2 909.9,345.5 910.9,345.7 912.0,345.8 913.1,345.1 914.1,346.2 915.2,346.7 916.3,351.1 917.3,313.1 918.4,349.0 919.4,346.7 920.5,345.7 921.6,319.3 922.6,345.8 923.7,339.2 924.8,344.5 925.8,321.3 926.9,341.8 927.9,345.7 929.0,343.1 930.1,324.3 931.1,350.6 932.2,345.0 933.3,326.2 934.3,345.3 935.4,345.4 936.4,344.2 937.5,342.9 938.6,345.7 939.6,345.4 940.7,343.6 941.8,320.0 942.8,320.0 943.9,347.3 944.9,343.8 946.0,340.6" fill="none" stroke="#7c3aed" stroke-width="2.2" stroke-linejoin="round" stroke-linecap="round"/>
<line x1="76" y1="70" x2="94" y2="70" stroke="#2563eb" stroke-width="3"/>
<text x="100" y="74" font-family="Arial, sans-serif" font-size="11" fill="#0f172a">tx count</text>
<line x1="186" y1="70" x2="204" y2="70" stroke="#7c3aed" stroke-width="3"/>
<text x="210" y="74" font-family="Arial, sans-serif" font-size="11" fill="#0f172a">unique accounts</text>
<text x="28" y="404" font-family="Arial, sans-serif" font-size="11" fill="#64748b">Source: hourly_features.csv; capped windows are sample counts</text>
</svg>