<svg xmlns="http://www.w3.org/2000/svg" width="980" height="420" viewBox="0 0 980 420">
<rect width="100%" height="100%" fill="#ffffff"/>
<text x="28" y="34" font-family="Arial, sans-serif" font-size="20" font-weight="700" fill="#0f172a">Network activity sample trend</text>
<text x="28" y="56" font-family="Arial, sans-serif" font-size="12" fill="#64748b">Hourly transaction sample count and unique account sample count</text>
<line x1="76" y1="362.0" x2="946" y2="362.0" stroke="#e2e8f0" stroke-width="1"/>
<text x="68" y="366.0" font-family="Arial, sans-serif" font-size="10" text-anchor="end" fill="#64748b">153</text>
<line x1="76" y1="292.0" x2="946" y2="292.0" stroke="#e2e8f0" stroke-width="1"/>
<text x="68" y="296.0" font-family="Arial, sans-serif" font-size="10" text-anchor="end" fill="#64748b">1K</text>
<line x1="76" y1="222.0" x2="946" y2="222.0" stroke="#e2e8f0" stroke-width="1"/>
<text x="68" y="226.0" font-family="Arial, sans-serif" font-size="10" text-anchor="end" fill="#64748b">3K</text>
<line x1="76" y1="152.0" x2="946" y2="152.0" stroke="#e2e8f0" stroke-width="1"/>
<text x="68" y="156.0" font-family="Arial, sans-serif" font-size="10" text-anchor="end" fill="#64748b">4K</text>
<line x1="76" y1="82.0" x2="946" y2="82.0" stroke="#e2e8f0" stroke-width="1"/>
<text x="68" y="86.0" font-family="Arial, sans-serif" font-size="10" text-anchor="end" fill="#64748b">5K</text>
<line x1="76" y1="362" x2="946" y2="362" stroke="#334155" stroke-width="1"/>
<line x1="76" y1="82" x2="76" y2="362" stroke="#334155" stroke-width="1"/>
<text x="76" y="72" font-family="Arial, sans-serif" font-size="11" fill="#64748b">count</text>
<line x1="76.0" y1="362" x2="76.0" y2="366" stroke="#334155" stroke-width="1"/>
<text x="76.0" y="380" font-family="Arial, sans-serif" font-size="10" text-anchor="middle" fill="#64748b">0</text>
<line x1="511.0" y1="362" x2="511.0" y2="366" stroke="#334155" stroke-width="1"/>
<text x="511.0" y="380" font-family="Arial, sans-serif" font-size="10" text-anchor="middle" fill="#64748b">457</text>
<line x1="946.0" y1="362" x2="946.0" y2="366" stroke="#334155" stroke-width="1"/>
<text x="946.0" y="380" font-family="Arial, sans-serif" font-size="10" text-anchor="middle" fill="#64748b">914</text>
<polyline points="76.0,92.4 77.0,92.4 77.9,92.4 78.9,92.4 79.8,92.4 80.8,92.4 81.7,92.4 82.7,92.4 83.6,92.4 84.6,92.4 85.5,92.4 86.5,92.4 87.4,92.4 88.4,92.4 89.3,92.4 90.3,92.4 91.2,92.4 92.2,92.4 93.1,92.4 94.1,92.4 95.0,92.4 96.0,92.4 96.9,92.4 97.9,92.4 98.8,92.4 99.8,92.4 100.7,92.4 101.7,92.4 102.7,92.4 103.6,92.4 104.6,92.4 105.5,92.4 106.5,92.4 107.4,92.4 108.4,92.4 109.3,92.4 110.3,92.4 111.2,92.4 112.2,92.4 113.1,92.4 114.1,92.4 115.0,92.4 116.0,92.4 116.9,92.4 117.9,92.4 118.8,92.4 119.8,92.4 120.7,92.4 121.7,92.4 122.6,92.4 123.6,92.4 124.5,92.4 125.5,92.4 126.4,92.4 127.4,92.4 128.4,92.4 129.3,92.4 130.3,92.4 131.2,92.4 132.2,92.4 133.1,92.4 134.1,92.4 135.0,92.4 136.0,92.4 136.9,92.4 137.9,92.4 138.8,92.4 139.8,92.4 140.7,92.4 141.7,92.4 142.6,92.4 143.6,92.4 144.5,92.4 145.5,92.4 146.4,92.4 147.4,92.4 148.3,92.4 149.3,92.4 150.2,92.4 151.2,92.4 152.1,92.4 153.1,92.4 154.1,92.4 155.0,92.4 156.0,92.4 156.9,92.4 157.9,92.4 158.8,92.4 159.8,92.4 160.7,92.4 161.7,92.4 162.6,92.4 163.6,92.4 164.5,92.4 165.5,92.4 166.4,92.4 167.4,92.4 168.3,92.4 169.3,92.4 170.2,92.4 171.2,92.4 172.1,92.4 173.1,92.4 174.0,92.4 175.0,92.4 175.9,92.4 176.9,92.4 177.8,92.4 178.8,92.4 179.8,92.4 180.7,92.4 181.7,92.4 182.6,92.4 183.6,92.4 184.5,92.4 185.5,92.4 186.4,92.4 187.4,92.4 188.3,92.4 189.3,92.4 190.2,92.4 191.2,92.4 192.1,92.4 193.1,92.4 194.0,92.4 195.0,92.4 195.9,92.4 196.9,92.4 197.8,92.4 198.8,92.4 199.7,92.4 200.7,92.4 201.6,92.4 202.6,92.4 203.5,92.4 204.5,92.4 205.5,92.4 206.4,92.4 207.4,92.4 208.3,92.4 209.3,92.4 210.2,92.4 211.2,92.4 212.1,92.4 213.1,92.4 214.0,92.4 215.0,92.4 215.9,92.4 216.9,92.4 217.8,92.4 218.8,92.4 219.7,92.4 220.7,92.4 221.6,92.4 222.6,92.4 223.5,92.4 224.5,92.4 225.4,92.4 226.4,92.4 227.3,92.4 228.3,92.4 229.2,92.4 230.2,92.4 231.2,92.4 232.1,92.4 233.1,92.4 234.0,92.4 235.0,92.4 235.9,92.4 236.9,92.4 237.8,92.4 238.8,92.4 239.7,92.4 240.7,92.4 241.6,92.4 242.6,92.4 243.5,92.4 244.5,92.4 245.4,92.4 246.4,92.4 247.3,92.4 248.3,92.4 249.2,92.4 250.2,92.4 251.1,92.4 252.1,92.4 253.0,92.4 254.0,92.4 254.9,92.4 255.9,92.4 256.9,92.4 257.8,92.4 258.8,92.4 259.7,92.4 260.7,92.4 261.6,92.4 262.6,92.4 263.5,92.4 264.5,92.4 265.4,92.4 266.4,92.4 267.3,92.4 268.3,92.4 269.2,92.4 270.2,92.4 271.1,92.4 272.1,92.4 273.0,92.4 274.0,92.4 274.9,92.4 275.9,92.4 276.8,92.4 277.8,92.4 278.7,92.4 279.7,92.4 280.6,92.4 281.6,92.4 282.6,92.4 283.5,92.4 284.5,92.4 285.4,92.4 286.4,92.4 287.3,92.4 288.3,92.4 289.2,92.4 290.2,92.4 291.1,92.4 292.1,92.4 293.0,92.4 294.0,92.4 294.9,92.4 295.9,92.4 296.8,92.4 297.8,92.4 298.7,92.4 299.7,92.4 300.6,92.4 301.6,92.4 302.5,92.4 303.5,92.4 304.4,92.4 305.4,92.4 306.4,92.4 307.3,92.4 308.3,92.4 309.2,92.4 310.2,92.4 311.1,92.4 312.1,92.4 313.0,92.4 314.0,92.4 314.9,92.4 315.9,92.4 316.8,92.4 317.8,92.4 318.7,92.4 319.7,92.4 320.6,92.4 321.6,92.4 322.5,92.4 323.5,92.4 324.4,92.4 325.4,92.4 326.3,92.4 327.3,92.4 328.2,92.4 329.2,92.4 330.1,92.4 331.1,92.4 332.1,92.4 333.0,92.4 334.0,92.4 334.9,92.4 335.9,92.4 336.8,92.4 337.8,92.4 338.7,92.4 339.7,92.4 340.6,92.4 341.6,92.4 342.5,92.4 343.5,92.4 344.4,92.4 345.4,92.4 346.3,92.4 347.3,92.4 348.2,92.4 349.2,92.4 350.1,92.4 351.1,92.4 352.0,92.4 353.0,92.4 353.9,92.4 354.9,92.4 355.8,92.4 356.8,92.4 357.8,92.4 358.7,92.4 359.7,92.4 360.6,92.4 361.6,92.4 362.5,92.4 363.5,92.4 364.4,92.4 365.4,92.4 366.3,92.4 367.3,92.4 368.2,92.4 369.2,92.4 370.1,92.4 371.1,92.4 372.0,92.4 373.0,92.4 373.9,92.4 374.9,92.4 375.8,92.4 376.8,92.4 377.7,92.4 378.7,92.4 379.6,92.4 380.6,92.4 381.5,92.4 382.5,92.4 383.5,92.4 384.4,92.4 385.4,92.4 386.3,92.4 387.3,92.4 388.2,92.4 389.2,92.4 390.1,92.4 391.1,92.4 392.0,92.4 393.0,92.4 393.9,92.4 394.9,92.4 395.8,92.4 396.8,92.4 397.7,92.4 398.7,92.4 399.6,92.4 400.6,92.4 401.5,92.4 402.5,92.4 403.4,92.4 404.4,92.4 405.3,92.4 406.3,92.4 407.2,92.4 408.2,92.4 409.2,92.4 410.1,92.4 411.1,92.4 412.0,92.4 413.0,92.4 413.9,92.4 414.9,92.4 415.8,92.4 416.8,92.4 417.7,92.4 418.7,92.4 419.6,92.4 420.6,92.4 421.5,92.4 422.5,92.4 423.4,92.4 424.4,92.4 425.3,92.4 426.3,92.4 427.2,92.4 428.2,92.4 429.1,92.4 430.1,92.4 431.0,92.4 432.0,92.4 432.9,92.4 433.9,92.4 434.9,92.4 435.8,92.4 436.8,92.4 437.7,92.4 438.7,92.4 439.6,92.4 440.6,92.4 441.5,92.4 442.5,92.4 443.4,92.4 444.4,92.4 445.3,92.4 446.3,92.4 447.2,92.4 448.2,92.4 449.1,92.4 450.1,92.4 451.0,92.4 452.0,92.4 452.9,92.4 453.9,92.4 454.8,92.4 455.8,92.4 456.7,92.4 457.7,92.4 458.6,92.4 459.6,92.4 460.6,92.4 461.5,92.4 462.5,92.4 463.4,92.4 464.4,92.4 465.3,92.4 466.3,92.4 467.2,92.4 468.2,92.4 469.1,92.4 470.1,92.4 471.0,92.4 472.0,92.4 472.9,92.4 473.9,92.4 474.8,92.4 475.8,92.4 476.7,92.4 477.7,92.4 478.6,92.4 479.6,92.4 480.5,92.4 481.5,92.4 482.4,92.4 483.4,92.4 484.3,92.4 485.3,92.4 486.3,92.4 487.2,92.4 488.2,92.4 489.1,92.4 490.1,92.4 491.0,92.4 492.0,92.4 492.9,92.4 493.9,92.4 494.8,92.4 495.8,92.4 496.7,92.4 497.7,92.4 498.6,92.4 499.6,92.4 500.5,92.4 501.5,92.4 502.4,92.4 503.4,92.4 504.3,92.4 505.3,92.4 506.2,92.4 507.2,92.4 508.1,92.4 509.1,92.4 510.0,92.4 511.0,92.4 512.0,92.4 512.9,92.4 513.9,92.4 514.8,92.4 515.8,92.4 516.7,92.4 517.7,92.4 518.6,92.4 519.6,92.4 520.5,92.4 521.5,92.4 522.4,92.4 523.4,92.4 524.3,92.4 525.3,92.4 526.2,92.4 527.2,92.4 528.1,92.4 529.1,92.4 530.0,92.4 531.0,92.4 531.9,92.4 532.9,92.4 533.8,92.4 534.8,92.4 535.7,92.4 536.7,92.4 537.7,92.4 538.6,92.4 539.6,92.4 540.5,92.4 541.5,92.4 542.4,92.4 543.4,92.4 544.3,92.4 545.3,92.4 546.2,92.4 547.2,92.4 548.1,92.4 549.1,92.4 550.0,92.4 551.0,92.4 551.9,92.4 552.9,92.4 553.8,92.4 554.8,92.4 555.7,92.4 556.7,92.4 557.6,92.4 558.6,92.4 559.5,92.4 560.5,92.4 561.4,92.4 562.4,92.4 563.4,92.4 564.3,92.4 565.3,92.4 566.2,92.4 567.2,92.4 568.1,92.4 569.1,92.4 570.0,92.4 571.0,92.4 571.9,92.4 572.9,92.4 573.8,92.4 574.8,92.4 575.7,92.4 576.7,92.4 577.6,92.4 578.6,92.4 579.5,92.4 580.5,92.4 581.4,92.4 582.4,92.4 583.3,92.4 584.3,92.4 585.2,92.4 586.2,92.4 587.1,92.4 588.1,92.4 589.1,92.4 590.0,92.4 591.0,92.4 591.9,92.4 592.9,92.4 593.8,92.4 594.8,92.4 595.7,92.4 596.7,92.4 597.6,92.4 598.6,92.4 599.5,92.4 600.5,92.4 601.4,92.4 602.4,92.4 603.3,92.4 604.3,92.4 605.2,92.4 606.2,92.4 607.1,92.4 608.1,92.4 609.0,92.4 610.0,92.4 610.9,92.4 611.9,92.4 612.8,92.4 613.8,92.4 614.8,92.4 615.7,92.4 616.7,92.4 617.6,92.4 618.6,92.4 619.5,92.4 620.5,92.4 621.4,92.4 622.4,92.4 623.3,92.4 624.3,92.4 625.2,92.4 626.2,92.4 627.1,92.4 628.1,92.4 629.0,92.4 630.0,92.4 630.9,92.4 631.9,92.4 632.8,92.4 633.8,92.4 634.7,92.4 635.7,92.4 636.6,92.4 637.6,92.4 638.5,92.4 639.5,92.4 640.5,92.4 641.4,92.4 642.4,92.4 643.3,92.4 644.3,92.4 645.2,92.4 646.2,92.4 647.1,92.4 648.1,92.4 649.0,92.4 650.0,92.4 650.9,92.4 651.9,92.4 652.8,92.4 653.8,92.4 654.7,92.4 655.7,92.4 656.6,92.4 657.6,92.4 658.5,92.4 659.5,92.4 660.4,92.4 661.4,92.4 662.3,92.4 663.3,92.4 664.2,92.4 665.2,92.4 666.2,92.4 667.1,92.4 668.1,92.4 669.0,92.4 670.0,92.4 670.9,92.4 671.9,92.4 672.8,92.4 673.8,92.4 674.7,92.4 675.7,92.4 676.6,92.4 677.6,92.4 678.5,92.4 679.5,92.4 680.4,92.4 681.4,92.4 682.3,92.4 683.3,92.4 684.2,92.4 685.2,92.4 686.1,92.4 687.1,92.4 688.0,92.4 689.0,92.4 689.9,92.4 690.9,92.4 691.9,92.4 692.8,92.4 693.8,92.4 694.7,92.4 695.7,92.4 696.6,92.4 697.6,92.4 698.5,92.4 699.5,92.4 700.4,92.4 701.4,92.4 702.3,92.4 703.3,92.4 704.2,92.4 705.2,92.4 706.1,92.4 707.1,92.4 708.0,92.4 709.0,92.4 709.9,92.4 710.9,92.4 711.8,92.4 712.8,92.4 713.7,92.4 714.7,92.4 715.6,92.4 716.6,92.4 717.6,92.4 718.5,92.4 719.5,92.4 720.4,92.4 721.4,92.4 722.3,92.4 723.3,314.9 724.2,314.9 725.2,314.9 726.1,314.9 727.1,314.9 728.0,314.9 729.0,314.9 729.9,314.9 730.9,314.9 731.8,314.9 732.8,314.9 733.7,314.9 734.7,314.9 735.6,314.9 736.6,314.9 737.5,314.9 738.5,314.9 739.4,314.9 740.4,314.9 741.4,314.9 742.3,314.9 743.3,314.9 744.2,314.9 745.2,314.9 746.1,314.9 747.1,314.9 748.0,314.9 749.0,314.9 749.9,314.9 750.9,314.9 751.8,314.9 752.8,314.9 753.7,314.9 754.7,314.9 755.6,314.9 756.6,314.9 757.5,314.9 758.5,314.9 759.4,314.9 760.4,314.9 761.3,314.9 762.3,314.9 763.2,314.9 764.2,314.9 765.1,314.9 766.1,314.9 767.1,314.9 768.0,314.9 769.0,314.9 769.9,314.9 770.9,314.9 771.8,314.9 772.8,314.9 773.7,314.9 774.7,314.9 775.6,314.9 776.6,314.9 777.5,314.9 778.5,314.9 779.4,314.9 780.4,314.9 781.3,314.9 782.3,314.9 783.2,314.9 784.2,314.9 785.1,314.9 786.1,314.9 787.0,314.9 788.0,314.9 788.9,314.9 789.9,314.9 790.8,205.4 791.8,314.9 792.8,314.9 793.7,314.9 794.7,314.9 795.6,314.9 796.6,261.0 797.5,314.9 798.5,314.9 799.4,261.1 800.4,314.9 801.3,314.9 802.3,314.9 803.2,314.9 804.2,314.9 805.1,314.9 806.1,314.9 807.0,259.9 808.0,261.1 808.9,314.9 809.9,314.9 810.8,314.9 811.8,314.9 812.7,262.2 813.7,314.9 814.6,314.9 815.6,314.9 816.5,314.9 817.5,259.6 818.5,314.9 819.4,314.9 820.4,314.9 821.3,260.7 822.3,314.9 823.2,314.9 824.2,314.9 825.1,314.9 826.1,314.9 827.0,314.9 828.0,314.9 828.9,314.9 829.9,205.9 830.8,314.9 831.8,314.9 832.7,314.9 833.7,260.1 834.6,314.9 835.6,314.9 836.5,314.9 837.5,260.5 838.4,314.9 839.4,314.9 840.3,314.9 841.3,260.6 842.2,314.9 843.2,314.9 844.2,260.0 845.1,314.9 846.1,314.9 847.0,314.9 848.0,314.9 848.9,314.9 849.9,314.9 850.8,314.9 851.8,259.6 852.7,259.3 853.7,314.9 854.6,314.9 855.6,261.6 856.5,314.9 857.5,314.9 858.4,314.9 859.4,259.3 860.3,314.9 861.3,314.9 862.2,259.7 863.2,314.9 864.1,314.9 865.1,259.3 866.0,314.9 867.0,260.6 867.9,314.9 868.9,314.9 869.9,314.9 870.8,314.9 871.8,314.9 872.7,314.9 873.7,314.9 874.6,314.9 875.6,205.5 876.5,314.9 877.5,314.9 878.4,314.9 879.4,260.2 880.3,314.9 881.3,314.9 882.2,314.9 883.2,262.1 884.1,314.9 885.1,261.0 886.0,314.9 887.0,314.9 887.9,259.9 888.9,314.9 889.8,259.4 890.8,314.9 891.7,314.9 892.7,314.9 893.6,314.9 894.6,314.9 895.6,314.9 896.5,314.9 897.5,314.9 898.4,314.9 899.4,260.2 900.3,262.5 901.3,314.9 902.2,314.9 903.2,314.9 904.1,314.9 905.1,314.9 906.0,314.9 907.0,261.4 907.9,314.9 908.9,314.9 909.8,314.9 910.8,259.5 911.7,314.9 912.7,314.9 913.6,314.9 914.6,261.1 915.5,314.9 916.5,314.9 917.4,314.9 918.4,314.9 919.3,314.9 920.3,314.9 921.3,260.1 922.2,265.3 923.2,314.9 924.1,314.9 925.1,314.9 926.0,267.5 927.0,314.9 927.9,314.9 928.9,314.9 929.8,314.9 930.8,314.9 931.7,267.2 932.7,314.9 933.6,314.9 934.6,260.2 935.5,314.9 936.5,314.9 937.4,314.9 938.4,314.9 939.3,314.9 940.3,314.9 941.2,314.9 942.2,314.9 943.1,314.9 944.1,314.9 945.0,314.9 946.0,314.9" fill="none" stroke="#2563eb" stroke-width="2.2" stroke-linejoin="round" stroke-linecap="round"/>
<polyline points="76.0,260.4 77.0,256.5 77.9,247.3 78.9,245.1 79.8,248.7 80.8,238.2 81.7,237.6 82.7,241.4 83.6,246.3 84.6,245.8 85.5,262.2 86.5,243.9 87.4,243.1 88.4,244.7 89.3,248.8 90.3,257.0 91.2,254.2 92.2,251.9 93.1,249.4 94.1,254.3 95.0,259.1 96.0,255.2 96.9,253.3 97.9,253.0 98.8,247.1 99.8,245.5 100.7,247.5 101.7,239.0 102.7,230.5 103.6,239.1 104.6,241.4 105.5,255.0 106.5,248.8 107.4,248.4 108.4,252.9 109.3,248.3 110.3,245.2 111.2,251.1 112.2,244.9 113.1,244.8 114.1,242.6 115.0,259.5 116.0,255.8 116.9,251.9 117.9,218.0 118.8,220.5 119.8,253.1 120.7,249.0 121.7,235.3 122.6,217.5 123.6,237.8 124.5,248.9 125.5,241.8 126.4,240.0 127.4,241.8 128.4,244.6 129.3,242.3 130.3,247.8 131.2,239.2 132.2,244.8 133.1,236.8 134.1,243.3 135.0,241.8 136.0,282.4 136.9,267.5 137.9,259.9 138.8,267.6 139.8,264.6 140.7,236.4 141.7,231.8 142.6,241.3 143.6,257.5 144.5,269.9 145.5,243.9 146.4,243.3 147.4,245.9 148.3,258.7 149.3,248.2 150.2,256.8 151.2,243.7 152.1,238.4 153.1,251.7 154.1,247.7 155.0,252.3 156.0,253.5 156.9,251.8 157.9,259.6 158.8,249.2 159.8,249.2 160.7,251.5 161.7,247.8 162.6,265.8 163.6,229.5 164.5,253.5 165.5,248.8 166.4,216.5 167.4,254.2 168.3,243.1 169.3,245.7 170.2,225.0 171.2,244.0 172.1,246.2 173.1,238.9 174.0,247.2 175.0,241.5 175.9,247.9 176.9,242.2 177.8,240.7 178.8,240.6 179.8,245.9 180.7,243.2 181.7,249.6 182.6,235.8 183.6,249.2 184.5,250.3 185.5,248.7 186.4,218.2 187.4,202.0 188.3,213.0 189.3,214.0 190.2,213.6 191.2,223.1 192.1,218.6 193.1,214.2 194.0,241.4 195.0,244.2 195.9,239.8 196.9,241.1 197.8,240.1 198.8,239.6 199.7,240.6 200.7,242.4 201.6,241.3 202.6,242.9 203.5,247.5 204.5,242.9 205.5,255.8 206.4,255.5 207.4,246.0 208.3,260.9 209.3,287.5 210.2,252.0 211.2,265.7 212.1,253.3 213.1,251.1 214.0,251.3 215.0,248.6 215.9,249.6 216.9,243.1 217.8,248.9 218.8,242.2 219.7,240.3 220.7,238.7 221.6,240.6 222.6,249.2 223.5,261.7 224.5,245.0 225.4,250.0 226.4,248.7 227.3,250.8 228.3,251.1 229.2,256.3 230.2,258.4 231.2,256.7 232.1,289.3 233.1,253.4 234.0,267.7 235.0,234.2 235.9,249.9 236.9,242.9 237.8,246.8 238.8,238.4 239.7,240.6 240.7,246.6 241.6,241.0 242.6,234.6 243.5,243.6 244.5,245.3 245.4,239.3 246.4,243.1 247.3,242.9 248.3,244.7 249.2,245.7 250.2,249.5 251.1,251.0 252.1,256.7 253.0,261.1 254.0,250.0 254.9,282.8 255.9,249.5 256.9,252.8 257.8,248.4 258.8,247.6 259.7,240.8 260.7,240.3 261.6,240.1 262.6,238.9 263.5,245.2 264.5,245.9 265.4,256.6 266.4,255.0 267.3,251.5 268.3,247.9 269.2,253.5 270.2,245.4 271.1,251.3 272.1,243.7 273.0,251.1 274.0,255.8 274.9,259.0 275.9,256.6 276.8,263.8 277.8,294.7 278.7,257.7 279.7,258.0 280.6,256.3 281.6,255.5 282.6,247.4 283.5,245.8 284.5,243.7 285.4,250.1 286.4,246.6 287.3,243.3 288.3,243.3 289.2,239.2 290.2,246.0 291.1,238.2 292.1,239.3 293.0,238.8 294.0,253.5 294.9,253.2 295.9,251.9 296.8,257.0 297.8,270.8 298.7,255.6 299.7,258.2 300.6,255.8 301.6,250.1 302.5,230.0 303.5,217.9 304.4,255.3 305.4,242.9 306.4,226.3 307.3,222.7 308.3,222.3 309.2,222.0 310.2,220.9 311.1,237.2 312.1,229.8 313.0,233.3 314.0,234.0 314.9,243.6 315.9,254.5 316.8,264.0 317.8,243.1 318.7,281.2 319.7,247.9 320.6,262.7 321.6,254.6 322.5,256.1 323.5,263.5 324.4,247.4 325.4,208.1 326.3,218.9 327.3,221.1 328.2,223.9 329.2,213.4 330.1,225.5 331.1,220.2 332.1,207.3 333.0,239.9 334.0,237.7 334.9,246.7 335.9,249.2 336.8,245.3 337.8,241.6 338.7,250.3 339.7,248.1 340.6,246.6 341.6,265.0 342.5,250.0 343.5,245.5 344.4,256.6 345.4,225.3 346.3,209.7 347.3,215.1 348.2,253.5 349.2,249.3 350.1,243.2 351.1,267.8 352.0,237.3 353.0,242.6 353.9,241.2 354.9,248.6 355.8,230.5 356.8,240.7 357.8,242.6 358.7,263.0 359.7,237.2 360.6,242.5 361.6,240.7 362.5,245.7 363.5,244.6 364.4,261.2 365.4,248.6 366.3,255.9 367.3,252.5 368.2,249.5 369.2,262.6 370.1,250.4 371.1,256.8 372.0,261.5 373.0,251.7 373.9,228.1 374.9,222.4 375.8,255.6 376.8,243.7 377.7,250.6 378.7,253.2 379.6,245.9 380.6,248.9 381.5,247.9 382.5,246.3 383.5,243.2 384.4,262.6 385.4,260.6 386.3,256.0 387.3,260.0 388.2,256.7 389.2,281.1 390.1,274.0 391.1,270.5 392.0,274.0 393.0,280.0 393.9,279.9 394.9,275.1 395.8,279.0 396.8,280.9 397.7,275.9 398.7,273.5 399.6,263.4 400.6,248.9 401.5,257.3 402.5,270.9 403.4,258.7 404.4,261.0 405.3,255.5 406.3,263.2 407.2,259.9 408.2,259.7 409.2,259.7 410.1,252.1 411.1,260.4 412.0,255.1 413.0,259.1 413.9,247.4 414.9,252.7 415.8,258.3 416.8,260.4 417.7,261.4 418.7,257.0 419.6,256.1 420.6,250.1 421.5,249.3 422.5,252.2 423.4,231.7 424.4,244.6 425.3,256.7 426.3,245.3 427.2,242.2 428.2,247.4 429.1,249.2 430.1,251.0 431.0,250.5 432.0,252.3 432.9,252.8 433.9,248.9 434.9,259.6 435.8,258.2 436.8,263.2 437.7,258.0 438.7,263.0 439.6,255.0 440.6,251.7 441.5,259.2 442.5,242.1 443.4,250.8 444.4,243.5 445.3,247.1 446.3,233.2 447.2,241.0 448.2,245.9 449.1,253.4 450.1,234.3 451.0,248.8 452.0,234.7 452.9,240.4 453.9,245.6 454.8,244.1 455.8,244.7 456.7,243.4 457.7,251.0 458.6,263.7 459.6,255.6 460.6,212.9 461.5,219.2 462.5,215.4 463.4,229.6 464.4,219.0 465.3,219.5 466.3,227.1 467.2,248.0 468.2,245.8 469.1,232.3 470.1,243.8 471.0,242.9 472.0,250.7 472.9,243.8 473.9,245.3 474.8,246.1 475.8,245.5 476.7,237.0 477.7,238.8 478.6,249.7 479.6,250.6 480.5,249.7 481.5,257.1 482.4,246.4 483.4,253.3 484.3,253.3 485.3,253.9 486.3,250.4 487.2,248.2 488.2,245.3 489.1,233.3 490.1,255.4 491.0,237.3 492.0,215.7 492.9,242.6 493.9,241.2 494.8,245.2 495.8,246.3 496.7,243.4 497.7,242.4 498.6,245.8 499.6,248.8 500.5,246.7 501.5,250.1 502.4,247.5 503.4,250.1 504.3,256.1 505.3,258.4 506.2,237.5 507.2,260.2 508.1,265.6 509.1,268.5 510.0,250.8 511.0,247.3 512.0,254.5 512.9,240.3 513.9,242.5 514.8,233.9 515.8,243.7 516.7,249.9 517.7,238.4 518.6,232.4 519.6,236.9 520.5,239.8 521.5,233.1 522.4,250.4 523.4,242.8 524.3,242.2 525.3,259.9 526.2,302.6 527.2,247.7 528.1,243.7 529.1,256.6 530.0,253.6 531.0,250.8 531.9,254.0 532.9,243.0 533.8,240.2 534.8,238.8 535.7,240.8 536.7,246.3 537.7,238.9 538.6,235.3 539.6,240.0 540.5,237.8 541.5,234.5 542.4,239.4 543.4,244.8 544.3,241.3 545.3,243.7 546.2,246.7 547.2,236.6 548.1,249.4 549.1,247.2 550.0,273.7 551.0,257.3 551.9,248.7 552.9,266.9 553.8,249.3 554.8,252.0 555.7,251.7 556.7,246.2 557.6,235.9 558.6,244.6 559.5,244.9 560.5,243.1 561.4,244.1 562.4,234.4 563.4,238.2 564.3,237.8 565.3,262.7 566.2,241.3 567.2,242.5 568.1,237.9 569.1,248.4 570.0,249.8 571.0,258.0 571.9,243.4 572.9,261.4 573.8,246.4 574.8,260.5 575.7,263.5 576.7,245.9 577.6,252.1 578.6,245.1 579.5,250.1 580.5,244.2 581.4,249.0 582.4,243.3 583.3,239.7 584.3,235.3 585.2,249.3 586.2,243.9 587.1,237.7 588.1,236.7 589.1,243.3 590.0,245.2 591.0,252.2 591.9,234.8 592.9,248.9 593.8,249.7 594.8,253.3 595.7,258.5 596.7,258.4 597.6,254.5 598.6,246.4 599.5,248.7 600.5,256.2 601.4,249.7 602.4,245.7 603.3,239.9 604.3,233.9 605.2,238.3 606.2,239.3 607.1,240.9 608.1,247.8 609.0,249.2 610.0,246.0 610.9,245.0 611.9,241.7 612.8,245.7 613.8,248.4 614.8,241.6 615.7,247.2 616.7,255.5 617.6,254.1 618.6,263.6 619.5,251.0 620.5,255.0 621.4,252.7 622.4,261.5 623.3,253.3 624.3,241.3 625.2,244.2 626.2,234.2 627.1,241.3 628.1,245.4 629.0,230.1 630.0,243.0 630.9,239.0 631.9,243.2 632.8,242.2 633.8,243.6 634.7,242.8 635.7,235.8 636.6,241.7 637.6,238.4 638.5,255.3 639.5,254.0 640.5,254.4 641.4,254.8 642.4,254.9 643.3,260.6 644.3,254.5 645.2,253.2 646.2,253.8 647.1,250.0 648.1,267.3 649.0,252.1 650.0,243.9 650.9,247.7 651.9,235.3 652.8,238.5 653.8,243.9 654.7,252.3 655.7,248.6 656.6,248.7 657.6,250.6 658.5,241.6 659.5,248.7 660.4,249.7 661.4,262.1 662.3,260.6 663.3,259.9 664.2,256.5 665.2,262.2 666.2,253.6 667.1,260.9 668.1,251.4 669.0,254.6 670.0,250.3 670.9,253.0 671.9,250.4 672.8,244.6 673.8,246.6 674.7,239.6 675.7,240.0 676.6,246.7 677.6,248.7 678.5,243.2 679.5,245.7 680.4,244.5 681.4,250.0 682.3,246.4 683.3,254.3 684.2,251.2 685.2,253.3 686.1,257.9 687.1,249.5 688.0,251.5 689.0,262.1 689.9,253.0 690.9,261.2 691.9,246.3 692.8,250.0 693.8,248.6 694.7,250.8 695.7,242.7 696.6,250.7 697.6,242.4 698.5,246.2 699.5,249.6 700.4,243.8 701.4,243.9 702.3,258.9 703.3,253.2 704.2,249.6 705.2,249.2 706.1,252.0 707.1,252.7 708.0,252.7 709.0,263.5 709.9,245.9 710.9,269.6 711.8,252.0 712.8,255.0 713.7,256.0 714.7,241.1 715.6,249.0 716.6,249.8 717.6,248.9 718.5,249.7 719.5,264.1 720.4,258.0 721.4,241.3 722.3,243.7 723.3,342.1 724.2,337.6 725.2,337.9 726.1,335.7 727.1,336.7 728.0,341.5 729.0,340.3 729.9,339.8 730.9,339.6 731.8,340.4 732.8,338.1 733.7,337.5 734.7,338.8 735.6,338.0 736.6,341.8 737.5,337.4 738.5,346.5 739.4,336.8 740.4,339.2 741.4,336.8 742.3,336.7 743.3,337.6 744.2,336.1 745.2,339.8 746.1,339.7 747.1,337.2 748.0,338.7 749.0,337.7 749.9,338.4 750.9,336.6 751.8,340.8 752.8,334.7 753.7,337.2 754.7,339.1 755.6,339.4 756.6,338.8 757.5,341.6 758.5,339.2 759.4,339.4 760.4,337.1 761.3,338.1 762.3,336.2 763.2,337.8 764.2,338.0 765.1,337.5 766.1,338.6 767.1,335.8 768.0,336.2 769.0,336.9 769.9,337.4 770.9,332.4 771.8,332.2 772.8,331.3 773.7,336.8 774.7,336.9 775.6,336.8 776.6,336.2 777.5,338.6 778.5,338.0 779.4,338.6 780.4,339.6 781.3,338.6 782.3,337.1 783.2,331.5 784.2,336.4 785.1,337.1 786.1,336.9 787.0,334.8 788.0,335.9 788.9,335.2 789.9,342.9 790.8,286.0 791.8,335.7 792.8,336.9 793.7,338.6 794.7,338.2 795.6,336.2 796.6,309.0 797.5,340.0 798.5,338.7 799.4,319.5 800.4,345.3 801.3,340.9 802.3,339.1 803.2,338.9 804.2,333.9 805.1,333.3 806.1,328.2 807.0,313.8 808.0,310.7 808.9,333.1 809.9,335.8 810.8,348.0 811.8,338.2 812.7,314.0 813.7,338.1 814.6,330.9 815.6,335.4 816.5,344.4 817.5,313.9 818.5,337.2 819.4,338.2 820.4,337.2 821.3,316.0 822.3,343.6 823.2,342.0 824.2,342.1 825.1,342.2 826.1,341.6 827.0,342.7 828.0,343.1 828.9,347.5 829.9,310.0 830.8,345.4 831.8,343.1 832.7,342.1 833.7,316.1 834.6,342.3 835.6,335.7 836.5,340.9 837.5,318.1 838.4,338.3 839.4,342.2 840.3,339.6 841.3,321.0 842.2,347.0 843.2,341.5 844.2,322.9 845.1,341.8 846.1,341.9 847.0,340.7 848.0,339.4 848.9,342.2 849.9,341.9 850.8,340.1 851.8,316.8 852.7,316.9 853.7,343.7 854.6,340.3 855.6,313.1 856.5,338.1 857.5,336.7 858.4,338.3 859.4,294.0 860.3,340.8 861.3,340.4 862.2,311.9 863.2,343.7 864.1,339.4 865.1,319.5 866.0,344.3 867.0,318.8 867.9,336.9 868.9,344.1 869.9,343.6 870.8,341.6 871.8,339.2 872.7,340.2 873.7,342.0 874.6,340.4 875.6,293.7 876.5,340.2 877.5,342.3 878.4,337.2 879.4,311.6 880.3,342.1 881.3,337.4 882.2,340.7 883.2,319.0 884.1,338.3 885.1,316.6 886.0,337.6 887.0,338.9 887.9,315.0 888.9,339.6 889.8,320.0 890.8,342.0 891.7,338.9 892.7,343.4 893.6,340.7 894.6,346.5 895.6,341.4 896.5,338.5 897.5,339.6 898.4,340.1 899.4,316.3 900.3,313.8 901.3,339.3 902.2,338.6 903.2,338.3 904.1,343.5 905.1,343.4 906.0,334.7 907.0,318.2 907.9,340.9 908.9,345.0 909.8,341.7 910.8,322.1 911.7,340.8 912.7,342.8 913.6,351.6 914.6,327.8 915.5,342.3 916.5,348.3 917.4,345.7 918.4,341.6 919.3,343.9 920.3,346.8 921.3,323.9 922.2,321.3 923.2,349.4 924.1,342.0 925.1,340.6 926.0,320.4 927.0,345.0 927.9,339.9 928.9,342.3 929.8,348.1 930.8,342.6 931.7,320.8 932.7,343.3 933.6,346.5 934.6,324.1 935.5,346.3 936.5,345.7 937.4,346.8 938.4,348.3 939.3,348.1 940.3,346.3 941.2,347.2 942.2,346.5 943.1,341.0 944.1,340.7 945.0,338.4 946.0,342.4" fill="none" stroke="#7c3aed" stroke-width="2.2" stroke-linejoin="round" stroke-linecap="round"/>
<line x1="76" y1="70" x2="94" y2="70" stroke="#2563eb" stroke-width="3"/>
<text x="100" y="74" font-family="Arial, sans-serif" font-size="11" fill="#0f172a">tx count</text>
<line x1="186" y1="70" x2="204" y2="70" stroke="#7c3aed" stroke-width="3"/>
<text x="210" y="74" font-family="Arial, sans-serif" font-size="11" fill="#0f172a">unique accounts</text>
<text x="28" y="404" font-family="Arial, sans-serif" font-size="11" fill="#64748b">Source: hourly_features.csv; capped windows are sample counts</text>
</svg>