<svg xmlns="http://www.w3.org/2000/svg" width="980" height="420" viewBox="0 0 980 420">
<rect width="100%" height="100%" fill="#ffffff"/>
<text x="28" y="34" font-family="Arial, sans-serif" font-size="20" font-weight="700" fill="#0f172a">Network activity sample trend</text>
<text x="28" y="56" font-family="Arial, sans-serif" font-size="12" fill="#64748b">Hourly transaction sample count and unique account sample count</text>
<line x1="76" y1="362.0" x2="946" y2="362.0" stroke="#e2e8f0" stroke-width="1"/>
<text x="68" y="366.0" font-family="Arial, sans-serif" font-size="10" text-anchor="end" fill="#64748b">249</text>
<line x1="76" y1="292.0" x2="946" y2="292.0" stroke="#e2e8f0" stroke-width="1"/>
<text x="68" y="296.0" font-family="Arial, sans-serif" font-size="10" text-anchor="end" fill="#64748b">1K</text>
<line x1="76" y1="222.0" x2="946" y2="222.0" stroke="#e2e8f0" stroke-width="1"/>
<text x="68" y="226.0" font-family="Arial, sans-serif" font-size="10" text-anchor="end" fill="#64748b">3K</text>
<line x1="76" y1="152.0" x2="946" y2="152.0" stroke="#e2e8f0" stroke-width="1"/>
<text x="68" y="156.0" font-family="Arial, sans-serif" font-size="10" text-anchor="end" fill="#64748b">4K</text>
<line x1="76" y1="82.0" x2="946" y2="82.0" stroke="#e2e8f0" stroke-width="1"/>
<text x="68" y="86.0" font-family="Arial, sans-serif" font-size="10" text-anchor="end" fill="#64748b">5K</text>
<line x1="76" y1="362" x2="946" y2="362" stroke="#334155" stroke-width="1"/>
<line x1="76" y1="82" x2="76" y2="362" stroke="#334155" stroke-width="1"/>
<text x="76" y="72" font-family="Arial, sans-serif" font-size="11" fill="#64748b">count</text>
<line x1="76.0" y1="362" x2="76.0" y2="366" stroke="#334155" stroke-width="1"/>
<text x="76.0" y="380" font-family="Arial, sans-serif" font-size="10" text-anchor="middle" fill="#64748b">0</text>
<line x1="511.0" y1="362" x2="511.0" y2="366" stroke="#334155" stroke-width="1"/>
<text x="511.0" y="380" font-family="Arial, sans-serif" font-size="10" text-anchor="middle" fill="#64748b">384</text>
<line x1="946.0" y1="362" x2="946.0" y2="366" stroke="#334155" stroke-width="1"/>
<text x="946.0" y="380" font-family="Arial, sans-serif" font-size="10" text-anchor="middle" fill="#64748b">768</text>
<polyline points="76.0,92.4 77.1,92.4 78.3,92.4 79.4,92.4 80.5,92.4 81.7,92.4 82.8,92.4 83.9,92.4 85.1,92.4 86.2,92.4 87.3,92.4 88.5,92.4 89.6,92.4 90.7,92.4 91.9,92.4 93.0,92.4 94.1,92.4 95.3,92.4 96.4,92.4 97.5,92.4 98.7,92.4 99.8,92.4 100.9,92.4 102.1,92.4 103.2,92.4 104.3,92.4 105.5,92.4 106.6,92.4 107.7,92.4 108.9,92.4 110.0,92.4 111.1,92.4 112.2,92.4 113.4,92.4 114.5,92.4 115.6,92.4 116.8,92.4 117.9,92.4 119.0,92.4 120.2,92.4 121.3,92.4 122.4,92.4 123.6,92.4 124.7,92.4 125.8,92.4 127.0,92.4 128.1,92.4 129.2,92.4 130.4,92.4 131.5,92.4 132.6,92.4 133.8,92.4 134.9,92.4 136.0,92.4 137.2,92.4 138.3,92.4 139.4,92.4 140.6,92.4 141.7,92.4 142.8,92.4 144.0,92.4 145.1,92.4 146.2,92.4 147.4,92.4 148.5,92.4 149.6,92.4 150.8,92.4 151.9,92.4 153.0,92.4 154.2,92.4 155.3,92.4 156.4,92.4 157.6,92.4 158.7,92.4 159.8,92.4 161.0,92.4 162.1,92.4 163.2,92.4 164.4,92.4 165.5,92.4 166.6,92.4 167.8,92.4 168.9,92.4 170.0,92.4 171.2,92.4 172.3,92.4 173.4,92.4 174.6,92.4 175.7,92.4 176.8,92.4 178.0,92.4 179.1,92.4 180.2,92.4 181.4,92.4 182.5,92.4 183.6,92.4 184.8,92.4 185.9,92.4 187.0,92.4 188.1,92.4 189.3,92.4 190.4,92.4 191.5,92.4 192.7,92.4 193.8,92.4 194.9,92.4 196.1,92.4 197.2,92.4 198.3,92.4 199.5,92.4 200.6,92.4 201.7,92.4 202.9,92.4 204.0,92.4 205.1,92.4 206.3,92.4 207.4,92.4 208.5,92.4 209.7,92.4 210.8,92.4 211.9,92.4 213.1,92.4 214.2,92.4 215.3,92.4 216.5,92.4 217.6,92.4 218.7,92.4 219.9,92.4 221.0,92.4 222.1,92.4 223.3,92.4 224.4,92.4 225.5,92.4 226.7,92.4 227.8,92.4 228.9,92.4 230.1,92.4 231.2,92.4 232.3,92.4 233.5,92.4 234.6,92.4 235.7,92.4 236.9,92.4 238.0,92.4 239.1,92.4 240.3,92.4 241.4,92.4 242.5,92.4 243.7,92.4 244.8,92.4 245.9,92.4 247.1,92.4 248.2,92.4 249.3,92.4 250.5,92.4 251.6,92.4 252.7,92.4 253.9,92.4 255.0,92.4 256.1,92.4 257.2,92.4 258.4,92.4 259.5,92.4 260.6,92.4 261.8,92.4 262.9,92.4 264.0,92.4 265.2,92.4 266.3,92.4 267.4,92.4 268.6,92.4 269.7,92.4 270.8,92.4 272.0,92.4 273.1,92.4 274.2,92.4 275.4,92.4 276.5,92.4 277.6,92.4 278.8,92.4 279.9,92.4 281.0,92.4 282.2,92.4 283.3,92.4 284.4,92.4 285.6,92.4 286.7,92.4 287.8,92.4 289.0,92.4 290.1,92.4 291.2,92.4 292.4,92.4 293.5,92.4 294.6,92.4 295.8,92.4 296.9,92.4 298.0,92.4 299.2,92.4 300.3,92.4 301.4,92.4 302.6,92.4 303.7,92.4 304.8,92.4 306.0,92.4 307.1,92.4 308.2,92.4 309.4,92.4 310.5,92.4 311.6,92.4 312.8,92.4 313.9,92.4 315.0,92.4 316.2,92.4 317.3,92.4 318.4,92.4 319.6,92.4 320.7,92.4 321.8,92.4 323.0,92.4 324.1,92.4 325.2,92.4 326.4,92.4 327.5,92.4 328.6,92.4 329.8,92.4 330.9,92.4 332.0,92.4 333.1,92.4 334.3,92.4 335.4,92.4 336.5,92.4 337.7,92.4 338.8,92.4 339.9,92.4 341.1,92.4 342.2,92.4 343.3,92.4 344.5,92.4 345.6,92.4 346.7,92.4 347.9,92.4 349.0,92.4 350.1,92.4 351.3,92.4 352.4,92.4 353.5,92.4 354.7,92.4 355.8,92.4 356.9,92.4 358.1,92.4 359.2,92.4 360.3,92.4 361.5,92.4 362.6,92.4 363.7,92.4 364.9,92.4 366.0,92.4 367.1,92.4 368.3,92.4 369.4,92.4 370.5,92.4 371.7,92.4 372.8,92.4 373.9,92.4 375.1,92.4 376.2,92.4 377.3,92.4 378.5,92.4 379.6,92.4 380.7,92.4 381.9,92.4 383.0,92.4 384.1,92.4 385.3,92.4 386.4,92.4 387.5,92.4 388.7,92.4 389.8,92.4 390.9,92.4 392.1,92.4 393.2,92.4 394.3,92.4 395.5,92.4 396.6,92.4 397.7,92.4 398.9,92.4 400.0,92.4 401.1,92.4 402.2,92.4 403.4,92.4 404.5,92.4 405.6,92.4 406.8,92.4 407.9,92.4 409.0,92.4 410.2,92.4 411.3,92.4 412.4,92.4 413.6,92.4 414.7,92.4 415.8,92.4 417.0,92.4 418.1,92.4 419.2,92.4 420.4,92.4 421.5,92.4 422.6,92.4 423.8,92.4 424.9,92.4 426.0,92.4 427.2,92.4 428.3,92.4 429.4,92.4 430.6,92.4 431.7,92.4 432.8,92.4 434.0,92.4 435.1,92.4 436.2,92.4 437.4,92.4 438.5,92.4 439.6,92.4 440.8,92.4 441.9,92.4 443.0,92.4 444.2,92.4 445.3,92.4 446.4,92.4 447.6,92.4 448.7,92.4 449.8,92.4 451.0,92.4 452.1,92.4 453.2,92.4 454.4,92.4 455.5,92.4 456.6,92.4 457.8,92.4 458.9,92.4 460.0,92.4 461.2,92.4 462.3,92.4 463.4,92.4 464.6,92.4 465.7,92.4 466.8,92.4 468.0,92.4 469.1,92.4 470.2,92.4 471.4,92.4 472.5,92.4 473.6,92.4 474.8,92.4 475.9,92.4 477.0,92.4 478.1,92.4 479.3,92.4 480.4,92.4 481.5,92.4 482.7,92.4 483.8,92.4 484.9,92.4 486.1,92.4 487.2,92.4 488.3,92.4 489.5,92.4 490.6,92.4 491.7,92.4 492.9,92.4 494.0,92.4 495.1,92.4 496.3,92.4 497.4,92.4 498.5,92.4 499.7,92.4 500.8,92.4 501.9,92.4 503.1,92.4 504.2,92.4 505.3,92.4 506.5,92.4 507.6,92.4 508.7,92.4 509.9,92.4 511.0,92.4 512.1,92.4 513.3,92.4 514.4,92.4 515.5,92.4 516.7,92.4 517.8,92.4 518.9,92.4 520.1,92.4 521.2,92.4 522.3,92.4 523.5,92.4 524.6,92.4 525.7,92.4 526.9,92.4 528.0,92.4 529.1,92.4 530.3,92.4 531.4,92.4 532.5,92.4 533.7,92.4 534.8,92.4 535.9,92.4 537.1,92.4 538.2,92.4 539.3,92.4 540.5,92.4 541.6,92.4 542.7,92.4 543.9,92.4 545.0,92.4 546.1,92.4 547.2,92.4 548.4,92.4 549.5,92.4 550.6,92.4 551.8,92.4 552.9,92.4 554.0,92.4 555.2,92.4 556.3,92.4 557.4,92.4 558.6,92.4 559.7,92.4 560.8,92.4 562.0,92.4 563.1,92.4 564.2,92.4 565.4,92.4 566.5,92.4 567.6,92.4 568.8,92.4 569.9,92.4 571.0,92.4 572.2,92.4 573.3,92.4 574.4,92.4 575.6,92.4 576.7,92.4 577.8,92.4 579.0,92.4 580.1,92.4 581.2,92.4 582.4,92.4 583.5,92.4 584.6,92.4 585.8,92.4 586.9,92.4 588.0,92.4 589.2,92.4 590.3,92.4 591.4,92.4 592.6,92.4 593.7,92.4 594.8,92.4 596.0,92.4 597.1,92.4 598.2,92.4 599.4,92.4 600.5,92.4 601.6,92.4 602.8,92.4 603.9,92.4 605.0,92.4 606.2,92.4 607.3,92.4 608.4,92.4 609.6,92.4 610.7,92.4 611.8,92.4 613.0,92.4 614.1,92.4 615.2,92.4 616.4,92.4 617.5,92.4 618.6,92.4 619.8,92.4 620.9,92.4 622.0,92.4 623.1,92.4 624.3,92.4 625.4,92.4 626.5,92.4 627.7,92.4 628.8,92.4 629.9,92.4 631.1,92.4 632.2,92.4 633.3,92.4 634.5,92.4 635.6,92.4 636.7,92.4 637.9,92.4 639.0,92.4 640.1,92.4 641.3,92.4 642.4,92.4 643.5,92.4 644.7,92.4 645.8,92.4 646.9,92.4 648.1,92.4 649.2,92.4 650.3,92.4 651.5,92.4 652.6,92.4 653.7,92.4 654.9,92.4 656.0,92.4 657.1,92.4 658.3,92.4 659.4,92.4 660.5,92.4 661.7,92.4 662.8,92.4 663.9,92.4 665.1,92.4 666.2,92.4 667.3,92.4 668.5,92.4 669.6,92.4 670.7,92.4 671.9,92.4 673.0,92.4 674.1,92.4 675.3,92.4 676.4,92.4 677.5,92.4 678.7,92.4 679.8,92.4 680.9,92.4 682.1,92.4 683.2,92.4 684.3,92.4 685.5,92.4 686.6,92.4 687.7,92.4 688.9,92.4 690.0,92.4 691.1,92.4 692.2,92.4 693.4,92.4 694.5,92.4 695.6,92.4 696.8,92.4 697.9,92.4 699.0,92.4 700.2,92.4 701.3,92.4 702.4,92.4 703.6,92.4 704.7,92.4 705.8,92.4 707.0,92.4 708.1,92.4 709.2,92.4 710.4,92.4 711.5,92.4 712.6,92.4 713.8,92.4 714.9,92.4 716.0,92.4 717.2,92.4 718.3,92.4 719.4,92.4 720.6,92.4 721.7,92.4 722.8,92.4 724.0,92.4 725.1,92.4 726.2,92.4 727.4,92.4 728.5,92.4 729.6,92.4 730.8,92.4 731.9,92.4 733.0,92.4 734.2,92.4 735.3,92.4 736.4,92.4 737.6,92.4 738.7,92.4 739.8,92.4 741.0,92.4 742.1,92.4 743.2,92.4 744.4,92.4 745.5,92.4 746.6,92.4 747.8,92.4 748.9,92.4 750.0,92.4 751.2,92.4 752.3,92.4 753.4,92.4 754.6,92.4 755.7,92.4 756.8,92.4 758.0,92.4 759.1,92.4 760.2,92.4 761.4,92.4 762.5,92.4 763.6,92.4 764.8,92.4 765.9,92.4 767.0,92.4 768.1,92.4 769.3,92.4 770.4,92.4 771.5,92.4 772.7,92.4 773.8,92.4 774.9,92.4 776.1,92.4 777.2,92.4 778.3,92.4 779.5,92.4 780.6,92.4 781.7,92.4 782.9,92.4 784.0,92.4 785.1,92.4 786.3,92.4 787.4,92.4 788.5,92.4 789.7,92.4 790.8,92.4 791.9,92.4 793.1,92.4 794.2,92.4 795.3,92.4 796.5,92.4 797.6,92.4 798.7,92.4 799.9,92.4 801.0,92.4 802.1,92.4 803.3,92.4 804.4,92.4 805.5,92.4 806.7,92.4 807.8,92.4 808.9,92.4 810.1,92.4 811.2,92.4 812.3,92.4 813.5,92.4 814.6,92.4 815.7,92.4 816.9,92.4 818.0,92.4 819.1,92.4 820.3,92.4 821.4,92.4 822.5,92.4 823.7,92.4 824.8,92.4 825.9,92.4 827.1,92.4 828.2,92.4 829.3,92.4 830.5,92.4 831.6,92.4 832.7,92.4 833.9,92.4 835.0,92.4 836.1,92.4 837.2,92.4 838.4,92.4 839.5,92.4 840.6,92.4 841.8,92.4 842.9,92.4 844.0,92.4 845.2,92.4 846.3,319.4 847.4,319.4 848.6,319.4 849.7,319.4 850.8,319.4 852.0,319.4 853.1,319.4 854.2,319.4 855.4,319.4 856.5,319.4 857.6,319.4 858.8,319.4 859.9,319.4 861.0,319.4 862.2,319.4 863.3,319.4 864.4,319.4 865.6,319.4 866.7,319.4 867.8,319.4 869.0,319.4 870.1,319.4 871.2,319.4 872.4,319.4 873.5,319.4 874.6,319.4 875.8,319.4 876.9,319.4 878.0,319.4 879.2,319.4 880.3,319.4 881.4,319.4 882.6,319.4 883.7,319.4 884.8,319.4 886.0,319.4 887.1,319.4 888.2,319.4 889.4,319.4 890.5,319.4 891.6,319.4 892.8,319.4 893.9,319.4 895.0,319.4 896.2,319.4 897.3,319.4 898.4,319.4 899.6,319.4 900.7,319.4 901.8,319.4 903.0,319.4 904.1,319.4 905.2,319.4 906.4,319.4 907.5,319.4 908.6,319.4 909.8,319.4 910.9,319.4 912.0,319.4 913.1,319.4 914.3,319.4 915.4,319.4 916.5,319.4 917.7,319.4 918.8,319.4 919.9,319.4 921.1,319.4 922.2,319.4 923.3,319.4 924.5,319.4 925.6,319.4 926.7,207.7 927.9,319.4 929.0,319.4 930.1,319.4 931.3,319.4 932.4,319.4 933.5,264.5 934.7,319.4 935.8,319.4 936.9,264.5 938.1,319.4 939.2,319.4 940.3,319.4 941.5,319.4 942.6,319.4 943.7,319.4 944.9,319.4 946.0,319.4" fill="none" stroke="#2563eb" stroke-width="2.2" stroke-linejoin="round" stroke-linecap="round"/>
<polyline points="76.0,263.8 77.1,259.8 78.3,250.4 79.4,248.2 80.5,251.9 81.7,241.2 82.8,240.6 83.9,244.5 85.1,249.4 86.2,249.0 87.3,265.7 88.5,247.0 89.6,246.2 90.7,247.8 91.9,252.0 93.0,260.4 94.1,257.5 95.3,255.1 96.4,252.6 97.5,257.6 98.7,262.5 99.8,258.5 100.9,256.6 102.1,256.2 103.2,250.2 104.3,248.6 105.5,250.7 106.6,242.0 107.7,233.4 108.9,242.1 110.0,244.5 111.1,258.3 112.2,252.0 113.4,251.6 114.5,256.2 115.6,251.5 116.8,248.3 117.9,254.4 119.0,248.1 120.2,247.9 121.3,245.6 122.4,262.9 123.6,259.2 124.7,255.1 125.8,220.6 127.0,223.1 128.1,256.3 129.2,252.2 130.4,238.2 131.5,220.1 132.6,240.8 133.8,252.1 134.9,244.9 136.0,243.0 137.2,244.8 138.3,247.7 139.4,245.3 140.6,250.9 141.7,242.2 142.8,247.9 144.0,239.7 145.1,246.3 146.2,244.9 147.4,286.3 148.5,271.1 149.6,263.3 150.8,271.2 151.9,268.1 153.0,239.4 154.2,234.7 155.3,244.4 156.4,260.9 157.6,273.5 158.7,247.0 159.8,246.4 161.0,249.0 162.1,262.1 163.2,251.3 164.4,260.1 165.5,246.8 166.6,241.4 167.8,254.9 168.9,250.8 170.0,255.6 171.2,256.7 172.3,255.0 173.4,263.0 174.6,252.4 175.7,252.4 176.8,254.7 178.0,250.9 179.1,269.3 180.2,232.3 181.4,256.8 182.5,252.0 183.6,219.0 184.8,257.5 185.9,246.2 187.0,248.8 188.1,227.7 189.3,247.1 190.4,249.3 191.5,241.9 192.7,250.4 193.8,244.5 194.9,251.1 196.1,245.3 197.2,243.7 198.3,243.6 199.5,249.1 200.6,246.3 201.7,252.8 202.9,238.7 204.0,252.4 205.1,253.6 206.3,251.9 207.4,220.8 208.5,204.2 209.7,215.5 210.8,216.5 211.9,216.0 213.1,225.7 214.2,221.1 215.3,216.7 216.5,244.5 217.6,247.3 218.7,242.8 219.9,244.1 221.0,243.1 222.1,242.6 223.3,243.6 224.4,245.5 225.5,244.3 226.7,246.0 227.8,250.7 228.9,246.0 230.1,259.2 231.2,258.8 232.3,249.1 233.5,264.3 234.6,291.5 235.7,255.2 236.9,269.3 238.0,256.6 239.1,254.3 240.3,254.6 241.4,251.7 242.5,252.8 243.7,246.2 244.8,252.1 245.9,245.2 247.1,243.3 248.2,241.6 249.3,243.6 250.5,252.4 251.6,265.1 252.7,248.1 253.9,253.2 255.0,251.9 256.1,254.1 257.2,254.4 258.4,259.6 259.5,261.8 260.6,260.1 261.8,293.3 262.9,256.7 264.0,271.3 265.2,237.1 266.3,253.1 267.4,246.0 268.6,250.0 269.7,241.4 270.8,243.6 272.0,249.7 273.1,244.0 274.2,237.5 275.4,246.6 276.5,248.4 277.6,242.3 278.8,246.1 279.9,246.0 281.0,247.8 282.2,248.8 283.3,252.7 284.4,254.2 285.6,260.1 286.7,264.5 287.8,253.2 289.0,286.7 290.1,252.7 291.2,256.1 292.4,251.6 293.5,250.7 294.6,243.9 295.8,243.3 296.9,243.1 298.0,241.9 299.2,248.3 300.3,249.0 301.4,259.9 302.6,258.3 303.7,254.7 304.8,251.1 306.0,256.8 307.1,248.5 308.2,254.5 309.4,246.8 310.5,254.4 311.6,259.1 312.8,262.4 313.9,260.0 315.0,267.3 316.2,298.8 317.3,261.0 318.4,261.3 319.6,259.6 320.7,258.8 321.8,250.5 323.0,248.9 324.1,246.8 325.2,253.3 326.4,249.8 327.5,246.3 328.6,246.4 329.8,242.1 330.9,249.1 332.0,241.2 333.1,242.3 334.3,241.8 335.4,256.8 336.5,256.5 337.7,255.1 338.8,260.4 339.9,274.4 341.1,258.9 342.2,261.6 343.3,259.2 344.5,253.3 345.6,232.8 346.7,220.4 347.9,258.6 349.0,246.0 350.1,229.0 351.3,225.3 352.4,224.9 353.5,224.6 354.7,223.5 355.8,240.2 356.9,232.6 358.1,236.1 359.2,236.9 360.3,246.6 361.5,257.8 362.6,267.5 363.7,246.1 364.9,285.0 366.0,251.1 367.1,266.2 368.3,257.9 369.4,259.5 370.5,267.0 371.7,250.5 372.8,210.5 373.9,221.4 375.1,223.8 376.2,226.5 377.3,215.9 378.5,228.2 379.6,222.8 380.7,209.7 381.9,242.9 383.0,240.7 384.1,249.9 385.3,252.4 386.4,248.4 387.5,244.6 388.7,253.6 389.8,251.2 390.9,249.7 392.1,268.5 393.2,253.2 394.3,248.6 395.5,260.0 396.6,228.0 397.7,212.1 398.9,217.6 400.0,256.8 401.1,252.5 402.2,246.3 403.4,271.4 404.5,240.3 405.6,245.7 406.8,244.2 407.9,251.7 409.0,233.3 410.2,243.7 411.3,245.6 412.4,266.5 413.6,240.1 414.7,245.6 415.8,243.7 417.0,248.8 418.1,247.7 419.2,264.7 420.4,251.8 421.5,259.2 422.6,255.7 423.8,252.7 424.9,266.1 426.0,253.6 427.2,260.2 428.3,264.9 429.4,254.9 430.6,230.9 431.7,225.0 432.8,258.9 434.0,246.7 435.1,253.8 436.2,256.5 437.4,249.0 438.5,252.1 439.6,251.1 440.8,249.4 441.9,246.3 443.0,266.1 444.2,264.1 445.3,259.3 446.4,263.4 447.6,260.0 448.7,284.9 449.8,277.7 451.0,274.2 452.1,277.7 453.2,283.9 454.4,283.7 455.5,278.9 456.6,282.8 457.8,284.7 458.9,279.6 460.0,277.2 461.2,266.8 462.3,252.1 463.4,260.7 464.6,274.5 465.7,262.1 466.8,264.5 468.0,258.8 469.1,266.7 470.2,263.3 471.4,263.1 472.5,263.1 473.6,255.3 474.8,263.8 475.9,258.4 477.0,262.5 478.1,250.5 479.3,255.9 480.4,261.7 481.5,263.8 482.7,264.8 483.8,260.3 484.9,259.5 486.1,253.3 487.2,252.5 488.3,255.4 489.5,234.5 490.6,247.7 491.7,260.0 492.9,248.4 494.0,245.3 495.1,250.6 496.3,252.4 497.4,254.2 498.5,253.7 499.7,255.5 500.8,256.1 501.9,252.1 503.1,263.0 504.2,261.6 505.3,266.7 506.5,261.3 507.6,266.5 508.7,258.3 509.9,254.9 511.0,262.6 512.1,245.2 513.3,254.1 514.4,246.6 515.5,250.2 516.7,236.0 517.8,244.0 518.9,249.1 520.1,256.7 521.2,237.2 522.3,252.0 523.5,237.6 524.6,243.5 525.7,248.7 526.9,247.1 528.0,247.8 529.1,246.5 530.3,254.2 531.4,267.2 532.5,258.9 533.7,215.3 534.8,221.8 535.9,217.9 537.1,232.4 538.2,221.6 539.3,222.1 540.5,229.8 541.6,251.2 542.7,249.0 543.9,235.2 545.0,246.9 546.1,246.0 547.2,253.9 548.4,246.9 549.5,248.4 550.6,249.2 551.8,248.6 552.9,240.0 554.0,241.8 555.2,252.9 556.3,253.8 557.4,252.9 558.6,260.5 559.7,249.5 560.8,256.6 562.0,256.6 563.1,257.2 564.2,253.6 565.4,251.4 566.5,248.4 567.6,236.1 568.8,258.7 569.9,240.3 571.0,218.3 572.2,245.7 573.3,244.2 574.4,248.3 575.6,249.5 576.7,246.5 577.8,245.5 579.0,248.9 580.1,252.0 581.2,249.8 582.4,253.3 583.5,250.7 584.6,253.3 585.8,259.5 586.9,261.8 588.0,240.4 589.2,263.7 590.3,269.2 591.4,272.1 592.6,254.1 593.7,250.4 594.8,257.8 596.0,243.3 597.1,245.6 598.2,236.8 599.4,246.8 600.5,253.1 601.6,241.4 602.8,235.3 603.9,239.9 605.0,242.8 606.2,236.0 607.3,253.6 608.4,245.9 609.6,245.2 610.7,263.3 611.8,306.8 613.0,250.9 614.1,246.7 615.2,259.9 616.4,256.9 617.5,254.1 618.6,257.3 619.8,246.1 620.9,243.2 622.0,241.8 623.1,243.8 624.3,249.5 625.4,241.9 626.5,238.2 627.7,243.0 628.8,240.7 629.9,237.4 631.1,242.4 632.2,247.9 633.3,244.4 634.5,246.7 635.6,249.9 636.7,239.5 637.9,252.6 639.0,250.3 640.1,277.4 641.3,260.7 642.4,251.9 643.5,270.5 644.7,252.5 645.8,255.3 646.9,254.9 648.1,249.4 649.2,238.9 650.3,247.7 651.5,248.0 652.6,246.1 653.7,247.1 654.9,237.3 656.0,241.1 657.1,240.8 658.3,266.2 659.4,244.4 660.5,245.6 661.7,240.9 662.8,251.6 663.9,253.0 665.1,261.3 666.2,246.5 667.3,264.8 668.5,249.5 669.6,263.9 670.7,267.0 671.9,249.1 673.0,255.3 674.1,248.2 675.3,253.3 676.4,247.3 677.5,252.2 678.7,246.3 679.8,242.7 680.9,238.2 682.1,252.5 683.2,247.0 684.3,240.6 685.5,239.7 686.6,246.4 687.7,248.3 688.9,255.5 690.0,237.7 691.1,252.1 692.2,252.9 693.4,256.6 694.5,261.8 695.6,261.8 696.8,257.8 697.9,249.5 699.0,251.9 700.2,259.6 701.3,252.9 702.4,248.8 703.6,242.9 704.7,236.8 705.8,241.2 707.0,242.3 708.1,244.0 709.2,251.0 710.4,252.4 711.5,249.1 712.6,248.1 713.8,244.7 714.9,248.8 716.0,251.6 717.2,244.6 718.3,250.4 719.4,258.8 720.6,257.4 721.7,267.1 722.8,254.2 724.0,258.3 725.1,255.9 726.2,264.9 727.4,256.6 728.5,244.4 729.6,247.3 730.8,237.1 731.9,244.3 733.0,248.6 734.2,233.0 735.3,246.1 736.4,242.0 737.6,246.3 738.7,245.3 739.8,246.6 741.0,245.8 742.1,238.7 743.2,244.7 744.4,241.4 745.5,258.6 746.6,257.3 747.8,257.7 748.9,258.2 750.0,258.2 751.2,264.1 752.3,257.8 753.4,256.5 754.6,257.1 755.7,253.2 756.8,270.9 758.0,255.4 759.1,247.0 760.2,250.9 761.4,238.2 762.5,241.5 763.6,247.0 764.8,255.5 765.9,251.8 767.0,251.9 768.1,253.8 769.3,244.6 770.4,251.9 771.5,252.9 772.7,265.6 773.8,264.0 774.9,263.3 776.1,259.9 777.2,265.7 778.3,256.8 779.5,264.3 780.6,254.6 781.7,257.9 782.9,253.5 784.0,256.3 785.1,253.6 786.3,247.7 787.4,249.8 788.5,242.6 789.7,243.1 790.8,249.9 791.9,251.9 793.1,246.2 794.2,248.8 795.3,247.6 796.5,253.2 797.6,249.5 798.7,257.6 799.9,254.4 801.0,256.6 802.1,261.3 803.3,252.7 804.4,254.7 805.5,265.6 806.7,256.3 807.8,264.6 808.9,249.4 810.1,253.2 811.2,251.8 812.3,254.1 813.5,245.8 814.6,254.0 815.7,245.5 816.9,249.3 818.0,252.8 819.1,246.9 820.3,247.0 821.4,262.2 822.5,256.5 823.7,252.8 824.8,252.4 825.9,255.2 827.1,256.0 828.2,256.0 829.3,267.0 830.5,249.1 831.6,273.2 832.7,255.3 833.9,258.3 835.0,259.3 836.1,244.1 837.2,252.2 838.4,253.0 839.5,252.1 840.6,252.9 841.8,267.6 842.9,261.3 844.0,244.3 845.2,246.8 846.3,347.1 847.4,342.5 848.6,342.9 849.7,340.6 850.8,341.6 852.0,346.5 853.1,345.4 854.2,344.8 855.4,344.6 856.5,345.4 857.6,343.1 858.8,342.5 859.9,343.8 861.0,343.0 862.2,346.9 863.3,342.4 864.4,351.6 865.6,341.8 866.7,344.2 867.8,341.8 869.0,341.6 870.1,342.6 871.2,341.0 872.4,344.8 873.5,344.8 874.6,342.2 875.8,343.7 876.9,342.7 878.0,343.4 879.2,341.5 880.3,345.8 881.4,339.6 882.6,342.2 883.7,344.1 884.8,344.4 886.0,343.8 887.1,346.7 888.2,344.3 889.4,344.4 890.5,342.1 891.6,343.1 892.8,341.1 893.9,342.8 895.0,343.0 896.2,342.5 897.3,343.6 898.4,340.7 899.6,341.1 900.7,341.9 901.8,342.4 903.0,337.3 904.1,337.0 905.2,336.2 906.4,341.8 907.5,341.9 908.6,341.8 909.8,341.1 910.9,343.6 912.0,343.0 913.1,343.6 914.3,344.6 915.4,343.6 916.5,342.1 917.7,336.4 918.8,341.4 919.9,342.1 921.1,341.9 922.2,339.7 923.3,340.8 924.5,340.2 925.6,348.0 926.7,289.9 927.9,340.6 929.0,341.9 930.1,343.6 931.3,343.2 932.4,341.1 933.5,313.4 934.7,345.0 935.8,343.7 936.9,324.2 938.1,350.4 939.2,346.0 940.3,344.1 941.5,343.9 942.6,338.9 943.7,338.2 944.9,333.0 946.0,341.6" fill="none" stroke="#7c3aed" stroke-width="2.2" stroke-linejoin="round" stroke-linecap="round"/>
<line x1="76" y1="70" x2="94" y2="70" stroke="#2563eb" stroke-width="3"/>
<text x="100" y="74" font-family="Arial, sans-serif" font-size="11" fill="#0f172a">tx count</text>
<line x1="186" y1="70" x2="204" y2="70" stroke="#7c3aed" stroke-width="3"/>
<text x="210" y="74" font-family="Arial, sans-serif" font-size="11" fill="#0f172a">unique accounts</text>
<text x="28" y="404" font-family="Arial, sans-serif" font-size="11" fill="#64748b">Source: hourly_features.csv; capped windows are sample counts</text>
</svg>