<svg xmlns="http://www.w3.org/2000/svg" width="980" height="420" viewBox="0 0 980 420">
<rect width="100%" height="100%" fill="#ffffff"/>
<text x="28" y="34" font-family="Arial, sans-serif" font-size="20" font-weight="700" fill="#0f172a">Network activity sample trend</text>
<text x="28" y="56" font-family="Arial, sans-serif" font-size="12" fill="#64748b">Hourly transaction sample count and unique account sample count</text>
<line x1="76" y1="362.0" x2="946" y2="362.0" stroke="#e2e8f0" stroke-width="1"/>
<text x="68" y="366.0" font-family="Arial, sans-serif" font-size="10" text-anchor="end" fill="#64748b">220</text>
<line x1="76" y1="292.0" x2="946" y2="292.0" stroke="#e2e8f0" stroke-width="1"/>
<text x="68" y="296.0" font-family="Arial, sans-serif" font-size="10" text-anchor="end" fill="#64748b">1K</text>
<line x1="76" y1="222.0" x2="946" y2="222.0" stroke="#e2e8f0" stroke-width="1"/>
<text x="68" y="226.0" font-family="Arial, sans-serif" font-size="10" text-anchor="end" fill="#64748b">3K</text>
<line x1="76" y1="152.0" x2="946" y2="152.0" stroke="#e2e8f0" stroke-width="1"/>
<text x="68" y="156.0" font-family="Arial, sans-serif" font-size="10" text-anchor="end" fill="#64748b">4K</text>
<line x1="76" y1="82.0" x2="946" y2="82.0" stroke="#e2e8f0" stroke-width="1"/>
<text x="68" y="86.0" font-family="Arial, sans-serif" font-size="10" text-anchor="end" fill="#64748b">5K</text>
<line x1="76" y1="362" x2="946" y2="362" stroke="#334155" stroke-width="1"/>
<line x1="76" y1="82" x2="76" y2="362" stroke="#334155" stroke-width="1"/>
<text x="76" y="72" font-family="Arial, sans-serif" font-size="11" fill="#64748b">count</text>
<line x1="76.0" y1="362" x2="76.0" y2="366" stroke="#334155" stroke-width="1"/>
<text x="76.0" y="380" font-family="Arial, sans-serif" font-size="10" text-anchor="middle" fill="#64748b">0</text>
<line x1="511.5" y1="362" x2="511.5" y2="366" stroke="#334155" stroke-width="1"/>
<text x="511.5" y="380" font-family="Arial, sans-serif" font-size="10" text-anchor="middle" fill="#64748b">408</text>
<line x1="946.0" y1="362" x2="946.0" y2="366" stroke="#334155" stroke-width="1"/>
<text x="946.0" y="380" font-family="Arial, sans-serif" font-size="10" text-anchor="middle" fill="#64748b">815</text>
<polyline points="76.0,92.4 77.1,92.4 78.1,92.4 79.2,92.4 80.3,92.4 81.3,92.4 82.4,92.4 83.5,92.4 84.5,92.4 85.6,92.4 86.7,92.4 87.7,92.4 88.8,92.4 89.9,92.4 90.9,92.4 92.0,92.4 93.1,92.4 94.1,92.4 95.2,92.4 96.3,92.4 97.3,92.4 98.4,92.4 99.5,92.4 100.6,92.4 101.6,92.4 102.7,92.4 103.8,92.4 104.8,92.4 105.9,92.4 107.0,92.4 108.0,92.4 109.1,92.4 110.2,92.4 111.2,92.4 112.3,92.4 113.4,92.4 114.4,92.4 115.5,92.4 116.6,92.4 117.6,92.4 118.7,92.4 119.8,92.4 120.8,92.4 121.9,92.4 123.0,92.4 124.0,92.4 125.1,92.4 126.2,92.4 127.2,92.4 128.3,92.4 129.4,92.4 130.4,92.4 131.5,92.4 132.6,92.4 133.6,92.4 134.7,92.4 135.8,92.4 136.8,92.4 137.9,92.4 139.0,92.4 140.0,92.4 141.1,92.4 142.2,92.4 143.3,92.4 144.3,92.4 145.4,92.4 146.5,92.4 147.5,92.4 148.6,92.4 149.7,92.4 150.7,92.4 151.8,92.4 152.9,92.4 153.9,92.4 155.0,92.4 156.1,92.4 157.1,92.4 158.2,92.4 159.3,92.4 160.3,92.4 161.4,92.4 162.5,92.4 163.5,92.4 164.6,92.4 165.7,92.4 166.7,92.4 167.8,92.4 168.9,92.4 169.9,92.4 171.0,92.4 172.1,92.4 173.1,92.4 174.2,92.4 175.3,92.4 176.3,92.4 177.4,92.4 178.5,92.4 179.5,92.4 180.6,92.4 181.7,92.4 182.7,92.4 183.8,92.4 184.9,92.4 186.0,92.4 187.0,92.4 188.1,92.4 189.2,92.4 190.2,92.4 191.3,92.4 192.4,92.4 193.4,92.4 194.5,92.4 195.6,92.4 196.6,92.4 197.7,92.4 198.8,92.4 199.8,92.4 200.9,92.4 202.0,92.4 203.0,92.4 204.1,92.4 205.2,92.4 206.2,92.4 207.3,92.4 208.4,92.4 209.4,92.4 210.5,92.4 211.6,92.4 212.6,92.4 213.7,92.4 214.8,92.4 215.8,92.4 216.9,92.4 218.0,92.4 219.0,92.4 220.1,92.4 221.2,92.4 222.2,92.4 223.3,92.4 224.4,92.4 225.4,92.4 226.5,92.4 227.6,92.4 228.7,92.4 229.7,92.4 230.8,92.4 231.9,92.4 232.9,92.4 234.0,92.4 235.1,92.4 236.1,92.4 237.2,92.4 238.3,92.4 239.3,92.4 240.4,92.4 241.5,92.4 242.5,92.4 243.6,92.4 244.7,92.4 245.7,92.4 246.8,92.4 247.9,92.4 248.9,92.4 250.0,92.4 251.1,92.4 252.1,92.4 253.2,92.4 254.3,92.4 255.3,92.4 256.4,92.4 257.5,92.4 258.5,92.4 259.6,92.4 260.7,92.4 261.7,92.4 262.8,92.4 263.9,92.4 264.9,92.4 266.0,92.4 267.1,92.4 268.1,92.4 269.2,92.4 270.3,92.4 271.3,92.4 272.4,92.4 273.5,92.4 274.6,92.4 275.6,92.4 276.7,92.4 277.8,92.4 278.8,92.4 279.9,92.4 281.0,92.4 282.0,92.4 283.1,92.4 284.2,92.4 285.2,92.4 286.3,92.4 287.4,92.4 288.4,92.4 289.5,92.4 290.6,92.4 291.6,92.4 292.7,92.4 293.8,92.4 294.8,92.4 295.9,92.4 297.0,92.4 298.0,92.4 299.1,92.4 300.2,92.4 301.2,92.4 302.3,92.4 303.4,92.4 304.4,92.4 305.5,92.4 306.6,92.4 307.6,92.4 308.7,92.4 309.8,92.4 310.8,92.4 311.9,92.4 313.0,92.4 314.0,92.4 315.1,92.4 316.2,92.4 317.3,92.4 318.3,92.4 319.4,92.4 320.5,92.4 321.5,92.4 322.6,92.4 323.7,92.4 324.7,92.4 325.8,92.4 326.9,92.4 327.9,92.4 329.0,92.4 330.1,92.4 331.1,92.4 332.2,92.4 333.3,92.4 334.3,92.4 335.4,92.4 336.5,92.4 337.5,92.4 338.6,92.4 339.7,92.4 340.7,92.4 341.8,92.4 342.9,92.4 343.9,92.4 345.0,92.4 346.1,92.4 347.1,92.4 348.2,92.4 349.3,92.4 350.3,92.4 351.4,92.4 352.5,92.4 353.5,92.4 354.6,92.4 355.7,92.4 356.7,92.4 357.8,92.4 358.9,92.4 360.0,92.4 361.0,92.4 362.1,92.4 363.2,92.4 364.2,92.4 365.3,92.4 366.4,92.4 367.4,92.4 368.5,92.4 369.6,92.4 370.6,92.4 371.7,92.4 372.8,92.4 373.8,92.4 374.9,92.4 376.0,92.4 377.0,92.4 378.1,92.4 379.2,92.4 380.2,92.4 381.3,92.4 382.4,92.4 383.4,92.4 384.5,92.4 385.6,92.4 386.6,92.4 387.7,92.4 388.8,92.4 389.8,92.4 390.9,92.4 392.0,92.4 393.0,92.4 394.1,92.4 395.2,92.4 396.2,92.4 397.3,92.4 398.4,92.4 399.4,92.4 400.5,92.4 401.6,92.4 402.7,92.4 403.7,92.4 404.8,92.4 405.9,92.4 406.9,92.4 408.0,92.4 409.1,92.4 410.1,92.4 411.2,92.4 412.3,92.4 413.3,92.4 414.4,92.4 415.5,92.4 416.5,92.4 417.6,92.4 418.7,92.4 419.7,92.4 420.8,92.4 421.9,92.4 422.9,92.4 424.0,92.4 425.1,92.4 426.1,92.4 427.2,92.4 428.3,92.4 429.3,92.4 430.4,92.4 431.5,92.4 432.5,92.4 433.6,92.4 434.7,92.4 435.7,92.4 436.8,92.4 437.9,92.4 438.9,92.4 440.0,92.4 441.1,92.4 442.1,92.4 443.2,92.4 444.3,92.4 445.3,92.4 446.4,92.4 447.5,92.4 448.6,92.4 449.6,92.4 450.7,92.4 451.8,92.4 452.8,92.4 453.9,92.4 455.0,92.4 456.0,92.4 457.1,92.4 458.2,92.4 459.2,92.4 460.3,92.4 461.4,92.4 462.4,92.4 463.5,92.4 464.6,92.4 465.6,92.4 466.7,92.4 467.8,92.4 468.8,92.4 469.9,92.4 471.0,92.4 472.0,92.4 473.1,92.4 474.2,92.4 475.2,92.4 476.3,92.4 477.4,92.4 478.4,92.4 479.5,92.4 480.6,92.4 481.6,92.4 482.7,92.4 483.8,92.4 484.8,92.4 485.9,92.4 487.0,92.4 488.0,92.4 489.1,92.4 490.2,92.4 491.3,92.4 492.3,92.4 493.4,92.4 494.5,92.4 495.5,92.4 496.6,92.4 497.7,92.4 498.7,92.4 499.8,92.4 500.9,92.4 501.9,92.4 503.0,92.4 504.1,92.4 505.1,92.4 506.2,92.4 507.3,92.4 508.3,92.4 509.4,92.4 510.5,92.4 511.5,92.4 512.6,92.4 513.7,92.4 514.7,92.4 515.8,92.4 516.9,92.4 517.9,92.4 519.0,92.4 520.1,92.4 521.1,92.4 522.2,92.4 523.3,92.4 524.3,92.4 525.4,92.4 526.5,92.4 527.5,92.4 528.6,92.4 529.7,92.4 530.7,92.4 531.8,92.4 532.9,92.4 534.0,92.4 535.0,92.4 536.1,92.4 537.2,92.4 538.2,92.4 539.3,92.4 540.4,92.4 541.4,92.4 542.5,92.4 543.6,92.4 544.6,92.4 545.7,92.4 546.8,92.4 547.8,92.4 548.9,92.4 550.0,92.4 551.0,92.4 552.1,92.4 553.2,92.4 554.2,92.4 555.3,92.4 556.4,92.4 557.4,92.4 558.5,92.4 559.6,92.4 560.6,92.4 561.7,92.4 562.8,92.4 563.8,92.4 564.9,92.4 566.0,92.4 567.0,92.4 568.1,92.4 569.2,92.4 570.2,92.4 571.3,92.4 572.4,92.4 573.4,92.4 574.5,92.4 575.6,92.4 576.7,92.4 577.7,92.4 578.8,92.4 579.9,92.4 580.9,92.4 582.0,92.4 583.1,92.4 584.1,92.4 585.2,92.4 586.3,92.4 587.3,92.4 588.4,92.4 589.5,92.4 590.5,92.4 591.6,92.4 592.7,92.4 593.7,92.4 594.8,92.4 595.9,92.4 596.9,92.4 598.0,92.4 599.1,92.4 600.1,92.4 601.2,92.4 602.3,92.4 603.3,92.4 604.4,92.4 605.5,92.4 606.5,92.4 607.6,92.4 608.7,92.4 609.7,92.4 610.8,92.4 611.9,92.4 612.9,92.4 614.0,92.4 615.1,92.4 616.1,92.4 617.2,92.4 618.3,92.4 619.3,92.4 620.4,92.4 621.5,92.4 622.6,92.4 623.6,92.4 624.7,92.4 625.8,92.4 626.8,92.4 627.9,92.4 629.0,92.4 630.0,92.4 631.1,92.4 632.2,92.4 633.2,92.4 634.3,92.4 635.4,92.4 636.4,92.4 637.5,92.4 638.6,92.4 639.6,92.4 640.7,92.4 641.8,92.4 642.8,92.4 643.9,92.4 645.0,92.4 646.0,92.4 647.1,92.4 648.2,92.4 649.2,92.4 650.3,92.4 651.4,92.4 652.4,92.4 653.5,92.4 654.6,92.4 655.6,92.4 656.7,92.4 657.8,92.4 658.8,92.4 659.9,92.4 661.0,92.4 662.0,92.4 663.1,92.4 664.2,92.4 665.3,92.4 666.3,92.4 667.4,92.4 668.5,92.4 669.5,92.4 670.6,92.4 671.7,92.4 672.7,92.4 673.8,92.4 674.9,92.4 675.9,92.4 677.0,92.4 678.1,92.4 679.1,92.4 680.2,92.4 681.3,92.4 682.3,92.4 683.4,92.4 684.5,92.4 685.5,92.4 686.6,92.4 687.7,92.4 688.7,92.4 689.8,92.4 690.9,92.4 691.9,92.4 693.0,92.4 694.1,92.4 695.1,92.4 696.2,92.4 697.3,92.4 698.3,92.4 699.4,92.4 700.5,92.4 701.5,92.4 702.6,92.4 703.7,92.4 704.7,92.4 705.8,92.4 706.9,92.4 708.0,92.4 709.0,92.4 710.1,92.4 711.2,92.4 712.2,92.4 713.3,92.4 714.4,92.4 715.4,92.4 716.5,92.4 717.6,92.4 718.6,92.4 719.7,92.4 720.8,92.4 721.8,92.4 722.9,92.4 724.0,92.4 725.0,92.4 726.1,92.4 727.2,92.4 728.2,92.4 729.3,92.4 730.4,92.4 731.4,92.4 732.5,92.4 733.6,92.4 734.6,92.4 735.7,92.4 736.8,92.4 737.8,92.4 738.9,92.4 740.0,92.4 741.0,92.4 742.1,92.4 743.2,92.4 744.2,92.4 745.3,92.4 746.4,92.4 747.4,92.4 748.5,92.4 749.6,92.4 750.7,92.4 751.7,92.4 752.8,92.4 753.9,92.4 754.9,92.4 756.0,92.4 757.1,92.4 758.1,92.4 759.2,92.4 760.3,92.4 761.3,92.4 762.4,92.4 763.5,92.4 764.5,92.4 765.6,92.4 766.7,92.4 767.7,92.4 768.8,92.4 769.9,92.4 770.9,92.4 772.0,92.4 773.1,92.4 774.1,92.4 775.2,92.4 776.3,92.4 777.3,92.4 778.4,92.4 779.5,92.4 780.5,92.4 781.6,92.4 782.7,92.4 783.7,92.4 784.8,92.4 785.9,92.4 786.9,92.4 788.0,92.4 789.1,92.4 790.1,92.4 791.2,92.4 792.3,92.4 793.3,92.4 794.4,92.4 795.5,92.4 796.6,92.4 797.6,92.4 798.7,92.4 799.8,92.4 800.8,92.4 801.9,318.0 803.0,318.0 804.0,318.0 805.1,318.0 806.2,318.0 807.2,318.0 808.3,318.0 809.4,318.0 810.4,318.0 811.5,318.0 812.6,318.0 813.6,318.0 814.7,318.0 815.8,318.0 816.8,318.0 817.9,318.0 819.0,318.0 820.0,318.0 821.1,318.0 822.2,318.0 823.2,318.0 824.3,318.0 825.4,318.0 826.4,318.0 827.5,318.0 828.6,318.0 829.6,318.0 830.7,318.0 831.8,318.0 832.8,318.0 833.9,318.0 835.0,318.0 836.0,318.0 837.1,318.0 838.2,318.0 839.3,318.0 840.3,318.0 841.4,318.0 842.5,318.0 843.5,318.0 844.6,318.0 845.7,318.0 846.7,318.0 847.8,318.0 848.9,318.0 849.9,318.0 851.0,318.0 852.1,318.0 853.1,318.0 854.2,318.0 855.3,318.0 856.3,318.0 857.4,318.0 858.5,318.0 859.5,318.0 860.6,318.0 861.7,318.0 862.7,318.0 863.8,318.0 864.9,318.0 865.9,318.0 867.0,318.0 868.1,318.0 869.1,318.0 870.2,318.0 871.3,318.0 872.3,318.0 873.4,318.0 874.5,318.0 875.5,318.0 876.6,318.0 877.7,207.0 878.7,318.0 879.8,318.0 880.9,318.0 882.0,318.0 883.0,318.0 884.1,263.4 885.2,318.0 886.2,318.0 887.3,263.5 888.4,318.0 889.4,318.0 890.5,318.0 891.6,318.0 892.6,318.0 893.7,318.0 894.8,318.0 895.8,262.2 896.9,263.5 898.0,318.0 899.0,318.0 900.1,318.0 901.2,318.0 902.2,264.6 903.3,318.0 904.4,318.0 905.4,318.0 906.5,318.0 907.6,261.9 908.6,318.0 909.7,318.0 910.8,318.0 911.8,263.1 912.9,318.0 914.0,318.0 915.0,318.0 916.1,318.0 917.2,318.0 918.2,318.0 919.3,318.0 920.4,318.0 921.4,207.5 922.5,318.0 923.6,318.0 924.7,318.0 925.7,262.4 926.8,318.0 927.9,318.0 928.9,318.0 930.0,262.8 931.1,318.0 932.1,318.0 933.2,318.0 934.3,263.0 935.3,318.0 936.4,318.0 937.5,262.3 938.5,318.0 939.6,318.0 940.7,318.0 941.7,318.0 942.8,318.0 943.9,318.0 944.9,318.0 946.0,318.0" fill="none" stroke="#2563eb" stroke-width="2.2" stroke-linejoin="round" stroke-linecap="round"/>
<polyline points="76.0,262.8 77.1,258.8 78.1,249.5 79.2,247.2 80.3,250.9 81.3,240.3 82.4,239.7 83.5,243.5 84.5,248.5 85.6,248.0 86.7,264.6 87.7,246.1 88.8,245.2 89.9,246.9 90.9,251.1 92.0,259.3 93.1,256.5 94.1,254.2 95.2,251.6 96.3,256.6 97.3,261.5 98.4,257.5 99.5,255.6 100.6,255.2 101.6,249.2 102.7,247.7 103.8,249.7 104.8,241.1 105.9,232.5 107.0,241.2 108.0,243.5 109.1,257.3 110.2,251.0 111.2,250.7 112.3,255.2 113.4,250.5 114.4,247.4 115.5,253.4 116.6,247.1 117.6,247.0 118.7,244.7 119.8,261.9 120.8,258.2 121.9,254.2 123.0,219.8 124.0,222.3 125.1,255.3 126.2,251.2 127.2,237.3 128.3,219.3 129.4,239.9 130.4,251.2 131.5,243.9 132.6,242.1 133.6,243.9 134.7,246.7 135.8,244.4 136.8,250.0 137.9,241.3 139.0,247.0 140.0,238.8 141.1,245.4 142.2,243.9 143.3,285.1 144.3,270.0 145.4,262.3 146.5,270.1 147.5,267.0 148.6,238.5 149.7,233.8 150.7,243.4 151.8,259.9 152.9,272.4 153.9,246.0 155.0,245.5 156.1,248.1 157.1,261.0 158.2,250.4 159.3,259.1 160.3,245.9 161.4,240.5 162.5,253.9 163.5,249.9 164.6,254.6 165.7,255.7 166.7,254.0 167.8,261.9 168.9,251.4 169.9,251.4 171.0,253.7 172.1,250.0 173.1,268.3 174.2,231.5 175.3,255.8 176.3,251.1 177.4,218.2 178.5,256.5 179.5,245.2 180.6,247.9 181.7,226.9 182.7,246.1 183.8,248.3 184.9,241.0 186.0,249.4 187.0,243.6 188.1,250.1 189.2,244.3 190.2,242.8 191.3,242.6 192.4,248.1 193.4,245.4 194.5,251.8 195.6,237.9 196.6,251.4 197.7,252.6 198.8,250.9 199.8,220.0 200.9,203.6 202.0,214.7 203.0,215.7 204.1,215.3 205.2,224.9 206.2,220.4 207.3,216.0 208.4,243.5 209.4,246.4 210.5,241.9 211.6,243.2 212.6,242.2 213.7,241.7 214.8,242.6 215.8,244.6 216.9,243.4 218.0,245.1 219.0,249.7 220.1,245.1 221.2,258.2 222.2,257.8 223.3,248.2 224.4,263.2 225.4,290.3 226.5,254.2 227.6,268.2 228.7,255.6 229.7,253.3 230.8,253.6 231.9,250.8 232.9,251.8 234.0,245.2 235.1,251.1 236.1,244.3 237.2,242.4 238.3,240.7 239.3,242.6 240.4,251.4 241.5,264.1 242.5,247.2 243.6,252.2 244.7,250.9 245.7,253.1 246.8,253.4 247.9,258.6 248.9,260.8 250.0,259.1 251.1,292.1 252.1,255.7 253.2,270.2 254.3,236.2 255.3,252.1 256.4,245.1 257.5,249.0 258.5,240.5 259.6,242.6 260.7,248.7 261.7,243.1 262.8,236.6 263.9,245.7 264.9,247.5 266.0,241.4 267.1,245.2 268.1,245.0 269.2,246.8 270.3,247.8 271.3,251.7 272.4,253.2 273.5,259.1 274.6,263.5 275.6,252.2 276.7,285.5 277.8,251.7 278.8,255.1 279.9,250.6 281.0,249.8 282.0,242.9 283.1,242.4 284.2,242.2 285.2,241.0 286.3,247.3 287.4,248.1 288.4,258.9 289.5,257.3 290.6,253.8 291.6,250.1 292.7,255.8 293.8,247.6 294.8,253.5 295.9,245.9 297.0,253.4 298.0,258.1 299.1,261.3 300.2,258.9 301.2,266.2 302.3,297.6 303.4,260.0 304.4,260.3 305.5,258.6 306.6,257.8 307.6,249.6 308.7,247.9 309.8,245.9 310.8,252.3 311.9,248.8 313.0,245.4 314.0,245.5 315.1,241.2 316.2,248.2 317.3,240.3 318.3,241.3 319.4,240.9 320.5,255.8 321.5,255.5 322.6,254.2 323.7,259.3 324.7,273.3 325.8,257.9 326.9,260.5 327.9,258.2 329.0,252.3 330.1,232.0 331.1,219.6 332.2,257.6 333.3,245.0 334.3,228.2 335.4,224.5 336.5,224.1 337.5,223.8 338.6,222.7 339.7,239.3 340.7,231.7 341.8,235.3 342.9,236.0 343.9,245.7 345.0,256.8 346.1,266.4 347.1,245.2 348.2,283.8 349.3,250.1 350.3,265.2 351.4,256.9 352.5,258.4 353.5,265.9 354.6,249.6 355.7,209.8 356.7,220.6 357.8,223.0 358.9,225.7 360.0,215.1 361.0,227.4 362.1,222.0 363.2,209.0 364.2,242.0 365.3,239.8 366.4,248.9 367.4,251.4 368.5,247.5 369.6,243.7 370.6,252.6 371.7,250.3 372.8,248.7 373.8,267.5 374.9,252.2 376.0,247.7 377.0,258.9 378.1,227.2 379.2,211.3 380.2,216.8 381.3,255.8 382.4,251.6 383.4,245.4 384.5,270.3 385.6,239.4 386.6,244.7 387.7,243.3 388.8,250.8 389.8,232.4 390.9,242.8 392.0,244.7 393.0,265.4 394.1,239.2 395.2,244.6 396.2,242.8 397.3,247.8 398.4,246.7 399.4,263.6 400.5,250.8 401.6,258.2 402.7,254.7 403.7,251.7 404.8,265.0 405.9,252.6 406.9,259.2 408.0,263.9 409.1,253.9 410.1,230.0 411.2,224.2 412.3,257.9 413.3,245.8 414.4,252.8 415.5,255.5 416.5,248.1 417.6,251.2 418.7,250.1 419.7,248.5 420.8,245.4 421.9,265.0 422.9,263.0 424.0,258.3 425.1,262.4 426.1,259.0 427.2,283.8 428.3,276.5 429.3,273.1 430.4,276.5 431.5,282.7 432.5,282.5 433.6,277.7 434.7,281.6 435.7,283.5 436.8,278.5 437.9,276.0 438.9,265.8 440.0,251.2 441.1,259.6 442.1,273.4 443.2,261.0 444.3,263.4 445.3,257.8 446.4,265.6 447.5,262.2 448.6,262.1 449.6,262.1 450.7,254.3 451.8,262.8 452.8,257.4 453.9,261.5 455.0,249.6 456.0,254.9 457.1,260.6 458.2,262.8 459.2,263.7 460.3,259.3 461.4,258.4 462.4,252.3 463.5,251.5 464.6,254.4 465.6,233.7 466.7,246.8 467.8,259.0 468.8,247.4 469.9,244.3 471.0,249.6 472.0,251.4 473.1,253.2 474.2,252.7 475.2,254.5 476.3,255.1 477.4,251.1 478.4,261.9 479.5,260.5 480.6,265.7 481.6,260.3 482.7,265.4 483.8,257.3 484.8,253.9 485.9,261.6 487.0,244.2 488.0,253.1 489.1,245.6 490.2,249.2 491.3,235.1 492.3,243.1 493.4,248.1 494.5,255.7 495.5,236.3 496.6,251.0 497.7,236.7 498.7,242.5 499.8,247.8 500.9,246.2 501.9,246.8 503.0,245.6 504.1,253.2 505.1,266.1 506.2,257.9 507.3,214.6 508.3,221.0 509.4,217.1 510.5,231.6 511.5,220.8 512.6,221.3 513.7,229.0 514.7,250.2 515.8,248.0 516.9,234.3 517.9,246.0 519.0,245.0 520.1,252.9 521.1,245.9 522.2,247.4 523.3,248.3 524.3,247.7 525.4,239.1 526.5,240.8 527.5,252.0 528.6,252.9 529.7,252.0 530.7,259.5 531.8,248.6 532.9,255.6 534.0,255.6 535.0,256.2 536.1,252.6 537.2,250.4 538.2,247.5 539.3,235.3 540.4,257.7 541.4,239.4 542.5,217.5 543.6,244.7 544.6,243.3 545.7,247.4 546.8,248.5 547.8,245.5 548.9,244.6 550.0,247.9 551.0,251.0 552.1,248.9 553.2,252.3 554.2,249.7 555.3,252.3 556.4,258.4 557.4,260.8 558.5,239.5 559.6,262.6 560.6,268.1 561.7,271.0 562.8,253.1 563.8,249.5 564.9,256.8 566.0,242.4 567.0,244.6 568.1,235.9 569.2,245.9 570.2,252.1 571.3,240.5 572.4,234.4 573.4,239.0 574.5,241.9 575.6,235.1 576.7,252.6 577.7,245.0 578.8,244.3 579.9,262.3 580.9,305.5 582.0,249.9 583.1,245.8 584.1,258.9 585.2,255.9 586.3,253.1 587.3,256.3 588.4,245.1 589.5,242.3 590.5,240.8 591.6,242.9 592.7,248.5 593.7,241.0 594.8,237.3 595.9,242.1 596.9,239.8 598.0,236.5 599.1,241.5 600.1,247.0 601.2,243.4 602.3,245.8 603.3,248.9 604.4,238.6 605.5,251.6 606.5,249.4 607.6,276.3 608.7,259.7 609.7,250.9 610.8,269.4 611.9,251.6 612.9,254.3 614.0,253.9 615.1,248.4 616.1,238.0 617.2,246.8 618.3,247.0 619.3,245.2 620.4,246.2 621.5,236.4 622.6,240.2 623.6,239.9 624.7,265.2 625.8,243.4 626.8,244.6 627.9,240.0 629.0,250.6 630.0,252.1 631.1,260.3 632.2,245.6 633.2,263.7 634.3,248.6 635.4,262.8 636.4,265.9 637.5,248.1 638.6,254.3 639.6,247.2 640.7,252.3 641.8,246.3 642.8,251.2 643.9,245.4 645.0,241.8 646.0,237.3 647.1,251.5 648.2,246.1 649.2,239.7 650.3,238.8 651.4,245.5 652.4,247.4 653.5,254.5 654.6,236.8 655.6,251.2 656.7,251.9 657.8,255.6 658.8,260.8 659.9,260.8 661.0,256.8 662.0,248.6 663.1,250.9 664.2,258.6 665.3,252.0 666.3,247.8 667.4,242.0 668.5,235.9 669.5,240.3 670.6,241.3 671.7,243.0 672.7,250.0 673.8,251.4 674.9,248.2 675.9,247.2 677.0,243.8 678.1,247.8 679.1,250.6 680.2,243.7 681.3,249.4 682.3,257.8 683.4,256.4 684.5,266.0 685.5,253.2 686.6,257.3 687.7,254.9 688.7,263.9 689.8,255.6 690.9,243.4 691.9,246.3 693.0,236.2 694.1,243.4 695.1,247.6 696.2,232.1 697.3,245.1 698.3,241.1 699.4,245.4 700.5,244.3 701.5,245.7 702.6,244.9 703.7,237.9 704.7,243.8 705.8,240.4 706.9,257.6 708.0,256.3 709.0,256.7 710.1,257.1 711.2,257.2 712.2,263.0 713.3,256.8 714.4,255.5 715.4,256.1 716.5,252.2 717.6,269.8 718.6,254.4 719.7,246.0 720.8,249.9 721.8,237.3 722.9,240.6 724.0,246.0 725.0,254.5 726.1,250.8 727.2,250.9 728.2,252.8 729.3,243.7 730.4,250.9 731.4,251.9 732.5,264.5 733.6,263.0 734.6,262.2 735.7,258.8 736.8,264.6 737.8,255.8 738.9,263.3 740.0,253.6 741.0,256.9 742.1,252.5 743.2,255.3 744.2,252.6 745.3,246.8 746.4,248.8 747.4,241.7 748.5,242.1 749.6,248.9 750.7,250.9 751.7,245.3 752.8,247.8 753.9,246.7 754.9,252.2 756.0,248.6 757.1,256.6 758.1,253.4 759.2,255.6 760.3,260.2 761.3,251.7 762.4,253.8 763.5,264.5 764.5,255.3 765.6,263.6 766.7,248.5 767.7,252.2 768.8,250.8 769.9,253.1 770.9,244.8 772.0,253.0 773.1,244.6 774.1,248.3 775.2,251.8 776.3,245.9 777.3,246.0 778.4,261.2 779.5,255.5 780.5,251.8 781.6,251.4 782.7,254.2 783.7,255.0 784.8,255.0 785.9,265.9 786.9,248.1 788.0,272.1 789.1,254.3 790.1,257.3 791.2,258.3 792.3,243.2 793.3,251.2 794.4,252.1 795.5,251.2 796.6,251.9 797.6,266.5 798.7,260.3 799.8,243.4 800.8,245.9 801.9,345.6 803.0,341.0 804.0,341.4 805.1,339.1 806.2,340.1 807.2,345.0 808.3,343.8 809.4,343.3 810.4,343.1 811.5,343.9 812.6,341.5 813.6,341.0 814.7,342.3 815.8,341.5 816.8,345.3 817.9,340.9 819.0,350.1 820.0,340.2 821.1,342.7 822.2,340.3 823.2,340.1 824.3,341.1 825.4,339.5 826.4,343.3 827.5,343.2 828.6,340.7 829.6,342.2 830.7,341.2 831.8,341.9 832.8,340.0 833.9,344.3 835.0,338.1 836.0,340.6 837.1,342.6 838.2,342.9 839.3,342.3 840.3,345.1 841.4,342.7 842.5,342.9 843.5,340.6 844.6,341.6 845.7,339.6 846.7,341.3 847.8,341.5 848.9,341.0 849.9,342.0 851.0,339.2 852.1,339.6 853.1,340.4 854.2,340.9 855.3,335.8 856.3,335.6 857.4,334.7 858.5,340.2 859.5,340.4 860.6,340.3 861.7,339.6 862.7,342.0 863.8,341.5 864.9,342.0 865.9,343.1 867.0,342.0 868.1,340.6 869.1,334.9 870.2,339.8 871.3,340.6 872.3,340.3 873.4,338.2 874.5,339.3 875.5,338.7 876.6,346.4 877.7,288.7 878.7,339.1 879.8,340.3 880.9,342.0 882.0,341.7 883.0,339.6 884.1,312.1 885.2,343.5 886.2,342.2 887.3,322.7 888.4,348.9 889.4,344.5 890.5,342.6 891.6,342.4 892.6,337.4 893.7,336.7 894.8,331.5 895.8,316.9 896.9,313.8 898.0,336.5 899.0,339.3 900.1,351.6 901.2,341.7 902.2,317.1 903.3,341.6 904.4,334.3 905.4,338.9 906.5,348.0 907.6,317.1 908.6,340.6 909.7,341.7 910.8,340.6 911.8,319.1 912.9,347.2 914.0,345.5 915.0,345.7 916.1,345.8 917.2,345.1 918.2,346.2 919.3,346.7 920.4,351.1 921.4,313.1 922.5,349.0 923.6,346.7 924.7,345.7 925.7,319.3 926.8,345.8 927.9,339.2 928.9,344.5 930.0,321.3 931.1,341.8 932.1,345.7 933.2,343.1 934.3,324.3 935.3,350.6 936.4,345.0 937.5,326.2 938.5,345.3 939.6,345.4 940.7,344.2 941.7,342.9 942.8,345.7 943.9,345.4 944.9,343.6 946.0,344.2" fill="none" stroke="#7c3aed" stroke-width="2.2" stroke-linejoin="round" stroke-linecap="round"/>
<line x1="76" y1="70" x2="94" y2="70" stroke="#2563eb" stroke-width="3"/>
<text x="100" y="74" font-family="Arial, sans-serif" font-size="11" fill="#0f172a">tx count</text>
<line x1="186" y1="70" x2="204" y2="70" stroke="#7c3aed" stroke-width="3"/>
<text x="210" y="74" font-family="Arial, sans-serif" font-size="11" fill="#0f172a">unique accounts</text>
<text x="28" y="404" font-family="Arial, sans-serif" font-size="11" fill="#64748b">Source: hourly_features.csv; capped windows are sample counts</text>
</svg>