<svg xmlns="http://www.w3.org/2000/svg" width="980" height="420" viewBox="0 0 980 420">
<rect width="100%" height="100%" fill="#ffffff"/>
<text x="28" y="34" font-family="Arial, sans-serif" font-size="20" font-weight="700" fill="#0f172a">Network activity sample trend</text>
<text x="28" y="56" font-family="Arial, sans-serif" font-size="12" fill="#64748b">Hourly transaction sample count and unique account sample count</text>
<line x1="76" y1="362.0" x2="946" y2="362.0" stroke="#e2e8f0" stroke-width="1"/>
<text x="68" y="366.0" font-family="Arial, sans-serif" font-size="10" text-anchor="end" fill="#64748b">220</text>
<line x1="76" y1="292.0" x2="946" y2="292.0" stroke="#e2e8f0" stroke-width="1"/>
<text x="68" y="296.0" font-family="Arial, sans-serif" font-size="10" text-anchor="end" fill="#64748b">1K</text>
<line x1="76" y1="222.0" x2="946" y2="222.0" stroke="#e2e8f0" stroke-width="1"/>
<text x="68" y="226.0" font-family="Arial, sans-serif" font-size="10" text-anchor="end" fill="#64748b">3K</text>
<line x1="76" y1="152.0" x2="946" y2="152.0" stroke="#e2e8f0" stroke-width="1"/>
<text x="68" y="156.0" font-family="Arial, sans-serif" font-size="10" text-anchor="end" fill="#64748b">4K</text>
<line x1="76" y1="82.0" x2="946" y2="82.0" stroke="#e2e8f0" stroke-width="1"/>
<text x="68" y="86.0" font-family="Arial, sans-serif" font-size="10" text-anchor="end" fill="#64748b">5K</text>
<line x1="76" y1="362" x2="946" y2="362" stroke="#334155" stroke-width="1"/>
<line x1="76" y1="82" x2="76" y2="362" stroke="#334155" stroke-width="1"/>
<text x="76" y="72" font-family="Arial, sans-serif" font-size="11" fill="#64748b">count</text>
<line x1="76.0" y1="362" x2="76.0" y2="366" stroke="#334155" stroke-width="1"/>
<text x="76.0" y="380" font-family="Arial, sans-serif" font-size="10" text-anchor="middle" fill="#64748b">0</text>
<line x1="511.0" y1="362" x2="511.0" y2="366" stroke="#334155" stroke-width="1"/>
<text x="511.0" y="380" font-family="Arial, sans-serif" font-size="10" text-anchor="middle" fill="#64748b">420</text>
<line x1="946.0" y1="362" x2="946.0" y2="366" stroke="#334155" stroke-width="1"/>
<text x="946.0" y="380" font-family="Arial, sans-serif" font-size="10" text-anchor="middle" fill="#64748b">840</text>
<polyline points="76.0,92.4 77.0,92.4 78.1,92.4 79.1,92.4 80.1,92.4 81.2,92.4 82.2,92.4 83.2,92.4 84.3,92.4 85.3,92.4 86.4,92.4 87.4,92.4 88.4,92.4 89.5,92.4 90.5,92.4 91.5,92.4 92.6,92.4 93.6,92.4 94.6,92.4 95.7,92.4 96.7,92.4 97.8,92.4 98.8,92.4 99.8,92.4 100.9,92.4 101.9,92.4 102.9,92.4 104.0,92.4 105.0,92.4 106.0,92.4 107.1,92.4 108.1,92.4 109.1,92.4 110.2,92.4 111.2,92.4 112.2,92.4 113.3,92.4 114.3,92.4 115.4,92.4 116.4,92.4 117.4,92.4 118.5,92.4 119.5,92.4 120.5,92.4 121.6,92.4 122.6,92.4 123.6,92.4 124.7,92.4 125.7,92.4 126.8,92.4 127.8,92.4 128.8,92.4 129.9,92.4 130.9,92.4 131.9,92.4 133.0,92.4 134.0,92.4 135.0,92.4 136.1,92.4 137.1,92.4 138.1,92.4 139.2,92.4 140.2,92.4 141.2,92.4 142.3,92.4 143.3,92.4 144.4,92.4 145.4,92.4 146.4,92.4 147.5,92.4 148.5,92.4 149.5,92.4 150.6,92.4 151.6,92.4 152.6,92.4 153.7,92.4 154.7,92.4 155.8,92.4 156.8,92.4 157.8,92.4 158.9,92.4 159.9,92.4 160.9,92.4 162.0,92.4 163.0,92.4 164.0,92.4 165.1,92.4 166.1,92.4 167.1,92.4 168.2,92.4 169.2,92.4 170.2,92.4 171.3,92.4 172.3,92.4 173.4,92.4 174.4,92.4 175.4,92.4 176.5,92.4 177.5,92.4 178.5,92.4 179.6,92.4 180.6,92.4 181.6,92.4 182.7,92.4 183.7,92.4 184.8,92.4 185.8,92.4 186.8,92.4 187.9,92.4 188.9,92.4 189.9,92.4 191.0,92.4 192.0,92.4 193.0,92.4 194.1,92.4 195.1,92.4 196.1,92.4 197.2,92.4 198.2,92.4 199.2,92.4 200.3,92.4 201.3,92.4 202.4,92.4 203.4,92.4 204.4,92.4 205.5,92.4 206.5,92.4 207.5,92.4 208.6,92.4 209.6,92.4 210.6,92.4 211.7,92.4 212.7,92.4 213.8,92.4 214.8,92.4 215.8,92.4 216.9,92.4 217.9,92.4 218.9,92.4 220.0,92.4 221.0,92.4 222.0,92.4 223.1,92.4 224.1,92.4 225.1,92.4 226.2,92.4 227.2,92.4 228.2,92.4 229.3,92.4 230.3,92.4 231.4,92.4 232.4,92.4 233.4,92.4 234.5,92.4 235.5,92.4 236.5,92.4 237.6,92.4 238.6,92.4 239.6,92.4 240.7,92.4 241.7,92.4 242.8,92.4 243.8,92.4 244.8,92.4 245.9,92.4 246.9,92.4 247.9,92.4 249.0,92.4 250.0,92.4 251.0,92.4 252.1,92.4 253.1,92.4 254.1,92.4 255.2,92.4 256.2,92.4 257.2,92.4 258.3,92.4 259.3,92.4 260.4,92.4 261.4,92.4 262.4,92.4 263.5,92.4 264.5,92.4 265.5,92.4 266.6,92.4 267.6,92.4 268.6,92.4 269.7,92.4 270.7,92.4 271.8,92.4 272.8,92.4 273.8,92.4 274.9,92.4 275.9,92.4 276.9,92.4 278.0,92.4 279.0,92.4 280.0,92.4 281.1,92.4 282.1,92.4 283.1,92.4 284.2,92.4 285.2,92.4 286.2,92.4 287.3,92.4 288.3,92.4 289.4,92.4 290.4,92.4 291.4,92.4 292.5,92.4 293.5,92.4 294.5,92.4 295.6,92.4 296.6,92.4 297.6,92.4 298.7,92.4 299.7,92.4 300.8,92.4 301.8,92.4 302.8,92.4 303.9,92.4 304.9,92.4 305.9,92.4 307.0,92.4 308.0,92.4 309.0,92.4 310.1,92.4 311.1,92.4 312.1,92.4 313.2,92.4 314.2,92.4 315.2,92.4 316.3,92.4 317.3,92.4 318.4,92.4 319.4,92.4 320.4,92.4 321.5,92.4 322.5,92.4 323.5,92.4 324.6,92.4 325.6,92.4 326.6,92.4 327.7,92.4 328.7,92.4 329.8,92.4 330.8,92.4 331.8,92.4 332.9,92.4 333.9,92.4 334.9,92.4 336.0,92.4 337.0,92.4 338.0,92.4 339.1,92.4 340.1,92.4 341.1,92.4 342.2,92.4 343.2,92.4 344.2,92.4 345.3,92.4 346.3,92.4 347.4,92.4 348.4,92.4 349.4,92.4 350.5,92.4 351.5,92.4 352.5,92.4 353.6,92.4 354.6,92.4 355.6,92.4 356.7,92.4 357.7,92.4 358.8,92.4 359.8,92.4 360.8,92.4 361.9,92.4 362.9,92.4 363.9,92.4 365.0,92.4 366.0,92.4 367.0,92.4 368.1,92.4 369.1,92.4 370.1,92.4 371.2,92.4 372.2,92.4 373.2,92.4 374.3,92.4 375.3,92.4 376.4,92.4 377.4,92.4 378.4,92.4 379.5,92.4 380.5,92.4 381.5,92.4 382.6,92.4 383.6,92.4 384.6,92.4 385.7,92.4 386.7,92.4 387.8,92.4 388.8,92.4 389.8,92.4 390.9,92.4 391.9,92.4 392.9,92.4 394.0,92.4 395.0,92.4 396.0,92.4 397.1,92.4 398.1,92.4 399.1,92.4 400.2,92.4 401.2,92.4 402.2,92.4 403.3,92.4 404.3,92.4 405.4,92.4 406.4,92.4 407.4,92.4 408.5,92.4 409.5,92.4 410.5,92.4 411.6,92.4 412.6,92.4 413.6,92.4 414.7,92.4 415.7,92.4 416.8,92.4 417.8,92.4 418.8,92.4 419.9,92.4 420.9,92.4 421.9,92.4 423.0,92.4 424.0,92.4 425.0,92.4 426.1,92.4 427.1,92.4 428.1,92.4 429.2,92.4 430.2,92.4 431.2,92.4 432.3,92.4 433.3,92.4 434.4,92.4 435.4,92.4 436.4,92.4 437.5,92.4 438.5,92.4 439.5,92.4 440.6,92.4 441.6,92.4 442.6,92.4 443.7,92.4 444.7,92.4 445.8,92.4 446.8,92.4 447.8,92.4 448.9,92.4 449.9,92.4 450.9,92.4 452.0,92.4 453.0,92.4 454.0,92.4 455.1,92.4 456.1,92.4 457.1,92.4 458.2,92.4 459.2,92.4 460.2,92.4 461.3,92.4 462.3,92.4 463.4,92.4 464.4,92.4 465.4,92.4 466.5,92.4 467.5,92.4 468.5,92.4 469.6,92.4 470.6,92.4 471.6,92.4 472.7,92.4 473.7,92.4 474.8,92.4 475.8,92.4 476.8,92.4 477.9,92.4 478.9,92.4 479.9,92.4 481.0,92.4 482.0,92.4 483.0,92.4 484.1,92.4 485.1,92.4 486.1,92.4 487.2,92.4 488.2,92.4 489.2,92.4 490.3,92.4 491.3,92.4 492.4,92.4 493.4,92.4 494.4,92.4 495.5,92.4 496.5,92.4 497.5,92.4 498.6,92.4 499.6,92.4 500.6,92.4 501.7,92.4 502.7,92.4 503.8,92.4 504.8,92.4 505.8,92.4 506.9,92.4 507.9,92.4 508.9,92.4 510.0,92.4 511.0,92.4 512.0,92.4 513.1,92.4 514.1,92.4 515.1,92.4 516.2,92.4 517.2,92.4 518.2,92.4 519.3,92.4 520.3,92.4 521.4,92.4 522.4,92.4 523.4,92.4 524.5,92.4 525.5,92.4 526.5,92.4 527.6,92.4 528.6,92.4 529.6,92.4 530.7,92.4 531.7,92.4 532.8,92.4 533.8,92.4 534.8,92.4 535.9,92.4 536.9,92.4 537.9,92.4 539.0,92.4 540.0,92.4 541.0,92.4 542.1,92.4 543.1,92.4 544.1,92.4 545.2,92.4 546.2,92.4 547.2,92.4 548.3,92.4 549.3,92.4 550.4,92.4 551.4,92.4 552.4,92.4 553.5,92.4 554.5,92.4 555.5,92.4 556.6,92.4 557.6,92.4 558.6,92.4 559.7,92.4 560.7,92.4 561.8,92.4 562.8,92.4 563.8,92.4 564.9,92.4 565.9,92.4 566.9,92.4 568.0,92.4 569.0,92.4 570.0,92.4 571.1,92.4 572.1,92.4 573.1,92.4 574.2,92.4 575.2,92.4 576.2,92.4 577.3,92.4 578.3,92.4 579.4,92.4 580.4,92.4 581.4,92.4 582.5,92.4 583.5,92.4 584.5,92.4 585.6,92.4 586.6,92.4 587.6,92.4 588.7,92.4 589.7,92.4 590.8,92.4 591.8,92.4 592.8,92.4 593.9,92.4 594.9,92.4 595.9,92.4 597.0,92.4 598.0,92.4 599.0,92.4 600.1,92.4 601.1,92.4 602.1,92.4 603.2,92.4 604.2,92.4 605.2,92.4 606.3,92.4 607.3,92.4 608.4,92.4 609.4,92.4 610.4,92.4 611.5,92.4 612.5,92.4 613.5,92.4 614.6,92.4 615.6,92.4 616.6,92.4 617.7,92.4 618.7,92.4 619.8,92.4 620.8,92.4 621.8,92.4 622.9,92.4 623.9,92.4 624.9,92.4 626.0,92.4 627.0,92.4 628.0,92.4 629.1,92.4 630.1,92.4 631.1,92.4 632.2,92.4 633.2,92.4 634.2,92.4 635.3,92.4 636.3,92.4 637.4,92.4 638.4,92.4 639.4,92.4 640.5,92.4 641.5,92.4 642.5,92.4 643.6,92.4 644.6,92.4 645.6,92.4 646.7,92.4 647.7,92.4 648.8,92.4 649.8,92.4 650.8,92.4 651.9,92.4 652.9,92.4 653.9,92.4 655.0,92.4 656.0,92.4 657.0,92.4 658.1,92.4 659.1,92.4 660.1,92.4 661.2,92.4 662.2,92.4 663.2,92.4 664.3,92.4 665.3,92.4 666.4,92.4 667.4,92.4 668.4,92.4 669.5,92.4 670.5,92.4 671.5,92.4 672.6,92.4 673.6,92.4 674.6,92.4 675.7,92.4 676.7,92.4 677.8,92.4 678.8,92.4 679.8,92.4 680.9,92.4 681.9,92.4 682.9,92.4 684.0,92.4 685.0,92.4 686.0,92.4 687.1,92.4 688.1,92.4 689.1,92.4 690.2,92.4 691.2,92.4 692.2,92.4 693.3,92.4 694.3,92.4 695.4,92.4 696.4,92.4 697.4,92.4 698.5,92.4 699.5,92.4 700.5,92.4 701.6,92.4 702.6,92.4 703.6,92.4 704.7,92.4 705.7,92.4 706.8,92.4 707.8,92.4 708.8,92.4 709.9,92.4 710.9,92.4 711.9,92.4 713.0,92.4 714.0,92.4 715.0,92.4 716.1,92.4 717.1,92.4 718.1,92.4 719.2,92.4 720.2,92.4 721.2,92.4 722.3,92.4 723.3,92.4 724.4,92.4 725.4,92.4 726.4,92.4 727.5,92.4 728.5,92.4 729.5,92.4 730.6,92.4 731.6,92.4 732.6,92.4 733.7,92.4 734.7,92.4 735.8,92.4 736.8,92.4 737.8,92.4 738.9,92.4 739.9,92.4 740.9,92.4 742.0,92.4 743.0,92.4 744.0,92.4 745.1,92.4 746.1,92.4 747.1,92.4 748.2,92.4 749.2,92.4 750.2,92.4 751.3,92.4 752.3,92.4 753.4,92.4 754.4,92.4 755.4,92.4 756.5,92.4 757.5,92.4 758.5,92.4 759.6,92.4 760.6,92.4 761.6,92.4 762.7,92.4 763.7,92.4 764.8,92.4 765.8,92.4 766.8,92.4 767.9,92.4 768.9,92.4 769.9,92.4 771.0,92.4 772.0,92.4 773.0,92.4 774.1,92.4 775.1,92.4 776.1,92.4 777.2,92.4 778.2,92.4 779.2,92.4 780.3,318.0 781.3,318.0 782.4,318.0 783.4,318.0 784.4,318.0 785.5,318.0 786.5,318.0 787.5,318.0 788.6,318.0 789.6,318.0 790.6,318.0 791.7,318.0 792.7,318.0 793.8,318.0 794.8,318.0 795.8,318.0 796.9,318.0 797.9,318.0 798.9,318.0 800.0,318.0 801.0,318.0 802.0,318.0 803.1,318.0 804.1,318.0 805.1,318.0 806.2,318.0 807.2,318.0 808.2,318.0 809.3,318.0 810.3,318.0 811.4,318.0 812.4,318.0 813.4,318.0 814.5,318.0 815.5,318.0 816.5,318.0 817.6,318.0 818.6,318.0 819.6,318.0 820.7,318.0 821.7,318.0 822.8,318.0 823.8,318.0 824.8,318.0 825.9,318.0 826.9,318.0 827.9,318.0 829.0,318.0 830.0,318.0 831.0,318.0 832.1,318.0 833.1,318.0 834.1,318.0 835.2,318.0 836.2,318.0 837.2,318.0 838.3,318.0 839.3,318.0 840.4,318.0 841.4,318.0 842.4,318.0 843.5,318.0 844.5,318.0 845.5,318.0 846.6,318.0 847.6,318.0 848.6,318.0 849.7,318.0 850.7,318.0 851.8,318.0 852.8,318.0 853.8,207.0 854.9,318.0 855.9,318.0 856.9,318.0 858.0,318.0 859.0,318.0 860.0,263.4 861.1,318.0 862.1,318.0 863.1,263.5 864.2,318.0 865.2,318.0 866.2,318.0 867.3,318.0 868.3,318.0 869.4,318.0 870.4,318.0 871.4,262.2 872.5,263.5 873.5,318.0 874.5,318.0 875.6,318.0 876.6,318.0 877.6,264.6 878.7,318.0 879.7,318.0 880.8,318.0 881.8,318.0 882.8,261.9 883.9,318.0 884.9,318.0 885.9,318.0 887.0,263.1 888.0,318.0 889.0,318.0 890.1,318.0 891.1,318.0 892.1,318.0 893.2,318.0 894.2,318.0 895.2,318.0 896.3,207.5 897.3,318.0 898.4,318.0 899.4,318.0 900.4,262.4 901.5,318.0 902.5,318.0 903.5,318.0 904.6,262.8 905.6,318.0 906.6,318.0 907.7,318.0 908.7,263.0 909.8,318.0 910.8,318.0 911.8,262.3 912.9,318.0 913.9,318.0 914.9,318.0 916.0,318.0 917.0,318.0 918.0,318.0 919.1,318.0 920.1,261.9 921.1,261.7 922.2,318.0 923.2,318.0 924.2,264.0 925.3,318.0 926.3,318.0 927.4,318.0 928.4,261.7 929.4,318.0 930.5,318.0 931.5,262.1 932.5,318.0 933.6,318.0 934.6,261.7 935.6,318.0 936.7,263.0 937.7,318.0 938.8,318.0 939.8,318.0 940.8,318.0 941.9,318.0 942.9,318.0 943.9,318.0 945.0,318.0 946.0,262.3" fill="none" stroke="#2563eb" stroke-width="2.2" stroke-linejoin="round" stroke-linecap="round"/>
<polyline points="76.0,262.8 77.0,258.8 78.1,249.5 79.1,247.2 80.1,250.9 81.2,240.3 82.2,239.7 83.2,243.5 84.3,248.5 85.3,248.0 86.4,264.6 87.4,246.1 88.4,245.2 89.5,246.9 90.5,251.1 91.5,259.3 92.6,256.5 93.6,254.2 94.6,251.6 95.7,256.6 96.7,261.5 97.8,257.5 98.8,255.6 99.8,255.2 100.9,249.2 101.9,247.7 102.9,249.7 104.0,241.1 105.0,232.5 106.0,241.2 107.1,243.5 108.1,257.3 109.1,251.0 110.2,250.7 111.2,255.2 112.2,250.5 113.3,247.4 114.3,253.4 115.4,247.1 116.4,247.0 117.4,244.7 118.5,261.9 119.5,258.2 120.5,254.2 121.6,219.8 122.6,222.3 123.6,255.3 124.7,251.2 125.7,237.3 126.8,219.3 127.8,239.9 128.8,251.2 129.9,243.9 130.9,242.1 131.9,243.9 133.0,246.7 134.0,244.4 135.0,250.0 136.1,241.3 137.1,247.0 138.1,238.8 139.2,245.4 140.2,243.9 141.2,285.1 142.3,270.0 143.3,262.3 144.4,270.1 145.4,267.0 146.4,238.5 147.5,233.8 148.5,243.4 149.5,259.9 150.6,272.4 151.6,246.0 152.6,245.5 153.7,248.1 154.7,261.0 155.8,250.4 156.8,259.1 157.8,245.9 158.9,240.5 159.9,253.9 160.9,249.9 162.0,254.6 163.0,255.7 164.0,254.0 165.1,261.9 166.1,251.4 167.1,251.4 168.2,253.7 169.2,250.0 170.2,268.3 171.3,231.5 172.3,255.8 173.4,251.1 174.4,218.2 175.4,256.5 176.5,245.2 177.5,247.9 178.5,226.9 179.6,246.1 180.6,248.3 181.6,241.0 182.7,249.4 183.7,243.6 184.8,250.1 185.8,244.3 186.8,242.8 187.9,242.6 188.9,248.1 189.9,245.4 191.0,251.8 192.0,237.9 193.0,251.4 194.1,252.6 195.1,250.9 196.1,220.0 197.2,203.6 198.2,214.7 199.2,215.7 200.3,215.3 201.3,224.9 202.4,220.4 203.4,216.0 204.4,243.5 205.5,246.4 206.5,241.9 207.5,243.2 208.6,242.2 209.6,241.7 210.6,242.6 211.7,244.6 212.7,243.4 213.8,245.1 214.8,249.7 215.8,245.1 216.9,258.2 217.9,257.8 218.9,248.2 220.0,263.2 221.0,290.3 222.0,254.2 223.1,268.2 224.1,255.6 225.1,253.3 226.2,253.6 227.2,250.8 228.2,251.8 229.3,245.2 230.3,251.1 231.4,244.3 232.4,242.4 233.4,240.7 234.5,242.6 235.5,251.4 236.5,264.1 237.6,247.2 238.6,252.2 239.6,250.9 240.7,253.1 241.7,253.4 242.8,258.6 243.8,260.8 244.8,259.1 245.9,292.1 246.9,255.7 247.9,270.2 249.0,236.2 250.0,252.1 251.0,245.1 252.1,249.0 253.1,240.5 254.1,242.6 255.2,248.7 256.2,243.1 257.2,236.6 258.3,245.7 259.3,247.5 260.4,241.4 261.4,245.2 262.4,245.0 263.5,246.8 264.5,247.8 265.5,251.7 266.6,253.2 267.6,259.1 268.6,263.5 269.7,252.2 270.7,285.5 271.8,251.7 272.8,255.1 273.8,250.6 274.9,249.8 275.9,242.9 276.9,242.4 278.0,242.2 279.0,241.0 280.0,247.3 281.1,248.1 282.1,258.9 283.1,257.3 284.2,253.8 285.2,250.1 286.2,255.8 287.3,247.6 288.3,253.5 289.4,245.9 290.4,253.4 291.4,258.1 292.5,261.3 293.5,258.9 294.5,266.2 295.6,297.6 296.6,260.0 297.6,260.3 298.7,258.6 299.7,257.8 300.8,249.6 301.8,247.9 302.8,245.9 303.9,252.3 304.9,248.8 305.9,245.4 307.0,245.5 308.0,241.2 309.0,248.2 310.1,240.3 311.1,241.3 312.1,240.9 313.2,255.8 314.2,255.5 315.2,254.2 316.3,259.3 317.3,273.3 318.4,257.9 319.4,260.5 320.4,258.2 321.5,252.3 322.5,232.0 323.5,219.6 324.6,257.6 325.6,245.0 326.6,228.2 327.7,224.5 328.7,224.1 329.8,223.8 330.8,222.7 331.8,239.3 332.9,231.7 333.9,235.3 334.9,236.0 336.0,245.7 337.0,256.8 338.0,266.4 339.1,245.2 340.1,283.8 341.1,250.1 342.2,265.2 343.2,256.9 344.2,258.4 345.3,265.9 346.3,249.6 347.4,209.8 348.4,220.6 349.4,223.0 350.5,225.7 351.5,215.1 352.5,227.4 353.6,222.0 354.6,209.0 355.6,242.0 356.7,239.8 357.7,248.9 358.8,251.4 359.8,247.5 360.8,243.7 361.9,252.6 362.9,250.3 363.9,248.7 365.0,267.5 366.0,252.2 367.0,247.7 368.1,258.9 369.1,227.2 370.1,211.3 371.2,216.8 372.2,255.8 373.2,251.6 374.3,245.4 375.3,270.3 376.4,239.4 377.4,244.7 378.4,243.3 379.5,250.8 380.5,232.4 381.5,242.8 382.6,244.7 383.6,265.4 384.6,239.2 385.7,244.6 386.7,242.8 387.8,247.8 388.8,246.7 389.8,263.6 390.9,250.8 391.9,258.2 392.9,254.7 394.0,251.7 395.0,265.0 396.0,252.6 397.1,259.2 398.1,263.9 399.1,253.9 400.2,230.0 401.2,224.2 402.2,257.9 403.3,245.8 404.3,252.8 405.4,255.5 406.4,248.1 407.4,251.2 408.5,250.1 409.5,248.5 410.5,245.4 411.6,265.0 412.6,263.0 413.6,258.3 414.7,262.4 415.7,259.0 416.8,283.8 417.8,276.5 418.8,273.1 419.9,276.5 420.9,282.7 421.9,282.5 423.0,277.7 424.0,281.6 425.0,283.5 426.1,278.5 427.1,276.0 428.1,265.8 429.2,251.2 430.2,259.6 431.2,273.4 432.3,261.0 433.3,263.4 434.4,257.8 435.4,265.6 436.4,262.2 437.5,262.1 438.5,262.1 439.5,254.3 440.6,262.8 441.6,257.4 442.6,261.5 443.7,249.6 444.7,254.9 445.8,260.6 446.8,262.8 447.8,263.7 448.9,259.3 449.9,258.4 450.9,252.3 452.0,251.5 453.0,254.4 454.0,233.7 455.1,246.8 456.1,259.0 457.1,247.4 458.2,244.3 459.2,249.6 460.2,251.4 461.3,253.2 462.3,252.7 463.4,254.5 464.4,255.1 465.4,251.1 466.5,261.9 467.5,260.5 468.5,265.7 469.6,260.3 470.6,265.4 471.6,257.3 472.7,253.9 473.7,261.6 474.8,244.2 475.8,253.1 476.8,245.6 477.9,249.2 478.9,235.1 479.9,243.1 481.0,248.1 482.0,255.7 483.0,236.3 484.1,251.0 485.1,236.7 486.1,242.5 487.2,247.8 488.2,246.2 489.2,246.8 490.3,245.6 491.3,253.2 492.4,266.1 493.4,257.9 494.4,214.6 495.5,221.0 496.5,217.1 497.5,231.6 498.6,220.8 499.6,221.3 500.6,229.0 501.7,250.2 502.7,248.0 503.8,234.3 504.8,246.0 505.8,245.0 506.9,252.9 507.9,245.9 508.9,247.4 510.0,248.3 511.0,247.7 512.0,239.1 513.1,240.8 514.1,252.0 515.1,252.9 516.2,252.0 517.2,259.5 518.2,248.6 519.3,255.6 520.3,255.6 521.4,256.2 522.4,252.6 523.4,250.4 524.5,247.5 525.5,235.3 526.5,257.7 527.6,239.4 528.6,217.5 529.6,244.7 530.7,243.3 531.7,247.4 532.8,248.5 533.8,245.5 534.8,244.6 535.9,247.9 536.9,251.0 537.9,248.9 539.0,252.3 540.0,249.7 541.0,252.3 542.1,258.4 543.1,260.8 544.1,239.5 545.2,262.6 546.2,268.1 547.2,271.0 548.3,253.1 549.3,249.5 550.4,256.8 551.4,242.4 552.4,244.6 553.5,235.9 554.5,245.9 555.5,252.1 556.6,240.5 557.6,234.4 558.6,239.0 559.7,241.9 560.7,235.1 561.8,252.6 562.8,245.0 563.8,244.3 564.9,262.3 565.9,305.5 566.9,249.9 568.0,245.8 569.0,258.9 570.0,255.9 571.1,253.1 572.1,256.3 573.1,245.1 574.2,242.3 575.2,240.8 576.2,242.9 577.3,248.5 578.3,241.0 579.4,237.3 580.4,242.1 581.4,239.8 582.5,236.5 583.5,241.5 584.5,247.0 585.6,243.4 586.6,245.8 587.6,248.9 588.7,238.6 589.7,251.6 590.8,249.4 591.8,276.3 592.8,259.7 593.9,250.9 594.9,269.4 595.9,251.6 597.0,254.3 598.0,253.9 599.0,248.4 600.1,238.0 601.1,246.8 602.1,247.0 603.2,245.2 604.2,246.2 605.2,236.4 606.3,240.2 607.3,239.9 608.4,265.2 609.4,243.4 610.4,244.6 611.5,240.0 612.5,250.6 613.5,252.1 614.6,260.3 615.6,245.6 616.6,263.7 617.7,248.6 618.7,262.8 619.8,265.9 620.8,248.1 621.8,254.3 622.9,247.2 623.9,252.3 624.9,246.3 626.0,251.2 627.0,245.4 628.0,241.8 629.1,237.3 630.1,251.5 631.1,246.1 632.2,239.7 633.2,238.8 634.2,245.5 635.3,247.4 636.3,254.5 637.4,236.8 638.4,251.2 639.4,251.9 640.5,255.6 641.5,260.8 642.5,260.8 643.6,256.8 644.6,248.6 645.6,250.9 646.7,258.6 647.7,252.0 648.8,247.8 649.8,242.0 650.8,235.9 651.9,240.3 652.9,241.3 653.9,243.0 655.0,250.0 656.0,251.4 657.0,248.2 658.1,247.2 659.1,243.8 660.1,247.8 661.2,250.6 662.2,243.7 663.2,249.4 664.3,257.8 665.3,256.4 666.4,266.0 667.4,253.2 668.4,257.3 669.5,254.9 670.5,263.9 671.5,255.6 672.6,243.4 673.6,246.3 674.6,236.2 675.7,243.4 676.7,247.6 677.8,232.1 678.8,245.1 679.8,241.1 680.9,245.4 681.9,244.3 682.9,245.7 684.0,244.9 685.0,237.9 686.0,243.8 687.1,240.4 688.1,257.6 689.1,256.3 690.2,256.7 691.2,257.1 692.2,257.2 693.3,263.0 694.3,256.8 695.4,255.5 696.4,256.1 697.4,252.2 698.5,269.8 699.5,254.4 700.5,246.0 701.6,249.9 702.6,237.3 703.6,240.6 704.7,246.0 705.7,254.5 706.8,250.8 707.8,250.9 708.8,252.8 709.9,243.7 710.9,250.9 711.9,251.9 713.0,264.5 714.0,263.0 715.0,262.2 716.1,258.8 717.1,264.6 718.1,255.8 719.2,263.3 720.2,253.6 721.2,256.9 722.3,252.5 723.3,255.3 724.4,252.6 725.4,246.8 726.4,248.8 727.5,241.7 728.5,242.1 729.5,248.9 730.6,250.9 731.6,245.3 732.6,247.8 733.7,246.7 734.7,252.2 735.8,248.6 736.8,256.6 737.8,253.4 738.9,255.6 739.9,260.2 740.9,251.7 742.0,253.8 743.0,264.5 744.0,255.3 745.1,263.6 746.1,248.5 747.1,252.2 748.2,250.8 749.2,253.1 750.2,244.8 751.3,253.0 752.3,244.6 753.4,248.3 754.4,251.8 755.4,245.9 756.5,246.0 757.5,261.2 758.5,255.5 759.6,251.8 760.6,251.4 761.6,254.2 762.7,255.0 763.7,255.0 764.8,265.9 765.8,248.1 766.8,272.1 767.9,254.3 768.9,257.3 769.9,258.3 771.0,243.2 772.0,251.2 773.0,252.1 774.1,251.2 775.1,251.9 776.1,266.5 777.2,260.3 778.2,243.4 779.2,245.9 780.3,345.6 781.3,341.0 782.4,341.4 783.4,339.1 784.4,340.1 785.5,345.0 786.5,343.8 787.5,343.3 788.6,343.1 789.6,343.9 790.6,341.5 791.7,341.0 792.7,342.3 793.8,341.5 794.8,345.3 795.8,340.9 796.9,350.1 797.9,340.2 798.9,342.7 800.0,340.3 801.0,340.1 802.0,341.1 803.1,339.5 804.1,343.3 805.1,343.2 806.2,340.7 807.2,342.2 808.2,341.2 809.3,341.9 810.3,340.0 811.4,344.3 812.4,338.1 813.4,340.6 814.5,342.6 815.5,342.9 816.5,342.3 817.6,345.1 818.6,342.7 819.6,342.9 820.7,340.6 821.7,341.6 822.8,339.6 823.8,341.3 824.8,341.5 825.9,341.0 826.9,342.0 827.9,339.2 829.0,339.6 830.0,340.4 831.0,340.9 832.1,335.8 833.1,335.6 834.1,334.7 835.2,340.2 836.2,340.4 837.2,340.3 838.3,339.6 839.3,342.0 840.4,341.5 841.4,342.0 842.4,343.1 843.5,342.0 844.5,340.6 845.5,334.9 846.6,339.8 847.6,340.6 848.6,340.3 849.7,338.2 850.7,339.3 851.8,338.7 852.8,346.4 853.8,288.7 854.9,339.1 855.9,340.3 856.9,342.0 858.0,341.7 859.0,339.6 860.0,312.1 861.1,343.5 862.1,342.2 863.1,322.7 864.2,348.9 865.2,344.5 866.2,342.6 867.3,342.4 868.3,337.4 869.4,336.7 870.4,331.5 871.4,316.9 872.5,313.8 873.5,336.5 874.5,339.3 875.6,351.6 876.6,341.7 877.6,317.1 878.7,341.6 879.7,334.3 880.8,338.9 881.8,348.0 882.8,317.1 883.9,340.6 884.9,341.7 885.9,340.6 887.0,319.1 888.0,347.2 889.0,345.5 890.1,345.7 891.1,345.8 892.1,345.1 893.2,346.2 894.2,346.7 895.2,351.1 896.3,313.1 897.3,349.0 898.4,346.7 899.4,345.7 900.4,319.3 901.5,345.8 902.5,339.2 903.5,344.5 904.6,321.3 905.6,341.8 906.6,345.7 907.7,343.1 908.7,324.3 909.8,350.6 910.8,345.0 911.8,326.2 912.9,345.3 913.9,345.4 914.9,344.2 916.0,342.9 917.0,345.7 918.0,345.4 919.1,343.6 920.1,320.0 921.1,320.0 922.2,347.3 923.2,343.8 924.2,316.3 925.3,341.6 926.3,340.2 927.4,341.8 928.4,296.9 929.4,344.3 930.5,343.9 931.5,315.0 932.5,347.3 933.6,342.9 934.6,322.7 935.6,347.9 936.7,322.0 937.7,340.4 938.8,347.6 939.8,347.1 940.8,345.1 941.9,342.7 942.9,343.7 943.9,345.5 945.0,344.0 946.0,316.7" fill="none" stroke="#7c3aed" stroke-width="2.2" stroke-linejoin="round" stroke-linecap="round"/>
<line x1="76" y1="70" x2="94" y2="70" stroke="#2563eb" stroke-width="3"/>
<text x="100" y="74" font-family="Arial, sans-serif" font-size="11" fill="#0f172a">tx count</text>
<line x1="186" y1="70" x2="204" y2="70" stroke="#7c3aed" stroke-width="3"/>
<text x="210" y="74" font-family="Arial, sans-serif" font-size="11" fill="#0f172a">unique accounts</text>
<text x="28" y="404" font-family="Arial, sans-serif" font-size="11" fill="#64748b">Source: hourly_features.csv; capped windows are sample counts</text>
</svg>