<svg xmlns="http://www.w3.org/2000/svg" width="980" height="420" viewBox="0 0 980 420">
<rect width="100%" height="100%" fill="#ffffff"/>
<text x="28" y="34" font-family="Arial, sans-serif" font-size="20" font-weight="700" fill="#0f172a">Network activity sample trend</text>
<text x="28" y="56" font-family="Arial, sans-serif" font-size="12" fill="#64748b">Hourly transaction sample count and unique account sample count</text>
<line x1="76" y1="362.0" x2="946" y2="362.0" stroke="#e2e8f0" stroke-width="1"/>
<text x="68" y="366.0" font-family="Arial, sans-serif" font-size="10" text-anchor="end" fill="#64748b">249</text>
<line x1="76" y1="292.0" x2="946" y2="292.0" stroke="#e2e8f0" stroke-width="1"/>
<text x="68" y="296.0" font-family="Arial, sans-serif" font-size="10" text-anchor="end" fill="#64748b">1K</text>
<line x1="76" y1="222.0" x2="946" y2="222.0" stroke="#e2e8f0" stroke-width="1"/>
<text x="68" y="226.0" font-family="Arial, sans-serif" font-size="10" text-anchor="end" fill="#64748b">3K</text>
<line x1="76" y1="152.0" x2="946" y2="152.0" stroke="#e2e8f0" stroke-width="1"/>
<text x="68" y="156.0" font-family="Arial, sans-serif" font-size="10" text-anchor="end" fill="#64748b">4K</text>
<line x1="76" y1="82.0" x2="946" y2="82.0" stroke="#e2e8f0" stroke-width="1"/>
<text x="68" y="86.0" font-family="Arial, sans-serif" font-size="10" text-anchor="end" fill="#64748b">5K</text>
<line x1="76" y1="362" x2="946" y2="362" stroke="#334155" stroke-width="1"/>
<line x1="76" y1="82" x2="76" y2="362" stroke="#334155" stroke-width="1"/>
<text x="76" y="72" font-family="Arial, sans-serif" font-size="11" fill="#64748b">count</text>
<line x1="76.0" y1="362" x2="76.0" y2="366" stroke="#334155" stroke-width="1"/>
<text x="76.0" y="380" font-family="Arial, sans-serif" font-size="10" text-anchor="middle" fill="#64748b">0</text>
<line x1="511.6" y1="362" x2="511.6" y2="366" stroke="#334155" stroke-width="1"/>
<text x="511.6" y="380" font-family="Arial, sans-serif" font-size="10" text-anchor="middle" fill="#64748b">385</text>
<line x1="946.0" y1="362" x2="946.0" y2="366" stroke="#334155" stroke-width="1"/>
<text x="946.0" y="380" font-family="Arial, sans-serif" font-size="10" text-anchor="middle" fill="#64748b">769</text>
<polyline points="76.0,92.4 77.1,92.4 78.3,92.4 79.4,92.4 80.5,92.4 81.7,92.4 82.8,92.4 83.9,92.4 85.1,92.4 86.2,92.4 87.3,92.4 88.4,92.4 89.6,92.4 90.7,92.4 91.8,92.4 93.0,92.4 94.1,92.4 95.2,92.4 96.4,92.4 97.5,92.4 98.6,92.4 99.8,92.4 100.9,92.4 102.0,92.4 103.2,92.4 104.3,92.4 105.4,92.4 106.5,92.4 107.7,92.4 108.8,92.4 109.9,92.4 111.1,92.4 112.2,92.4 113.3,92.4 114.5,92.4 115.6,92.4 116.7,92.4 117.9,92.4 119.0,92.4 120.1,92.4 121.3,92.4 122.4,92.4 123.5,92.4 124.6,92.4 125.8,92.4 126.9,92.4 128.0,92.4 129.2,92.4 130.3,92.4 131.4,92.4 132.6,92.4 133.7,92.4 134.8,92.4 136.0,92.4 137.1,92.4 138.2,92.4 139.4,92.4 140.5,92.4 141.6,92.4 142.7,92.4 143.9,92.4 145.0,92.4 146.1,92.4 147.3,92.4 148.4,92.4 149.5,92.4 150.7,92.4 151.8,92.4 152.9,92.4 154.1,92.4 155.2,92.4 156.3,92.4 157.5,92.4 158.6,92.4 159.7,92.4 160.9,92.4 162.0,92.4 163.1,92.4 164.2,92.4 165.4,92.4 166.5,92.4 167.6,92.4 168.8,92.4 169.9,92.4 171.0,92.4 172.2,92.4 173.3,92.4 174.4,92.4 175.6,92.4 176.7,92.4 177.8,92.4 179.0,92.4 180.1,92.4 181.2,92.4 182.3,92.4 183.5,92.4 184.6,92.4 185.7,92.4 186.9,92.4 188.0,92.4 189.1,92.4 190.3,92.4 191.4,92.4 192.5,92.4 193.7,92.4 194.8,92.4 195.9,92.4 197.1,92.4 198.2,92.4 199.3,92.4 200.4,92.4 201.6,92.4 202.7,92.4 203.8,92.4 205.0,92.4 206.1,92.4 207.2,92.4 208.4,92.4 209.5,92.4 210.6,92.4 211.8,92.4 212.9,92.4 214.0,92.4 215.2,92.4 216.3,92.4 217.4,92.4 218.5,92.4 219.7,92.4 220.8,92.4 221.9,92.4 223.1,92.4 224.2,92.4 225.3,92.4 226.5,92.4 227.6,92.4 228.7,92.4 229.9,92.4 231.0,92.4 232.1,92.4 233.3,92.4 234.4,92.4 235.5,92.4 236.7,92.4 237.8,92.4 238.9,92.4 240.0,92.4 241.2,92.4 242.3,92.4 243.4,92.4 244.6,92.4 245.7,92.4 246.8,92.4 248.0,92.4 249.1,92.4 250.2,92.4 251.4,92.4 252.5,92.4 253.6,92.4 254.8,92.4 255.9,92.4 257.0,92.4 258.1,92.4 259.3,92.4 260.4,92.4 261.5,92.4 262.7,92.4 263.8,92.4 264.9,92.4 266.1,92.4 267.2,92.4 268.3,92.4 269.5,92.4 270.6,92.4 271.7,92.4 272.9,92.4 274.0,92.4 275.1,92.4 276.2,92.4 277.4,92.4 278.5,92.4 279.6,92.4 280.8,92.4 281.9,92.4 283.0,92.4 284.2,92.4 285.3,92.4 286.4,92.4 287.6,92.4 288.7,92.4 289.8,92.4 291.0,92.4 292.1,92.4 293.2,92.4 294.3,92.4 295.5,92.4 296.6,92.4 297.7,92.4 298.9,92.4 300.0,92.4 301.1,92.4 302.3,92.4 303.4,92.4 304.5,92.4 305.7,92.4 306.8,92.4 307.9,92.4 309.1,92.4 310.2,92.4 311.3,92.4 312.4,92.4 313.6,92.4 314.7,92.4 315.8,92.4 317.0,92.4 318.1,92.4 319.2,92.4 320.4,92.4 321.5,92.4 322.6,92.4 323.8,92.4 324.9,92.4 326.0,92.4 327.2,92.4 328.3,92.4 329.4,92.4 330.6,92.4 331.7,92.4 332.8,92.4 333.9,92.4 335.1,92.4 336.2,92.4 337.3,92.4 338.5,92.4 339.6,92.4 340.7,92.4 341.9,92.4 343.0,92.4 344.1,92.4 345.3,92.4 346.4,92.4 347.5,92.4 348.7,92.4 349.8,92.4 350.9,92.4 352.0,92.4 353.2,92.4 354.3,92.4 355.4,92.4 356.6,92.4 357.7,92.4 358.8,92.4 360.0,92.4 361.1,92.4 362.2,92.4 363.4,92.4 364.5,92.4 365.6,92.4 366.8,92.4 367.9,92.4 369.0,92.4 370.1,92.4 371.3,92.4 372.4,92.4 373.5,92.4 374.7,92.4 375.8,92.4 376.9,92.4 378.1,92.4 379.2,92.4 380.3,92.4 381.5,92.4 382.6,92.4 383.7,92.4 384.9,92.4 386.0,92.4 387.1,92.4 388.2,92.4 389.4,92.4 390.5,92.4 391.6,92.4 392.8,92.4 393.9,92.4 395.0,92.4 396.2,92.4 397.3,92.4 398.4,92.4 399.6,92.4 400.7,92.4 401.8,92.4 403.0,92.4 404.1,92.4 405.2,92.4 406.4,92.4 407.5,92.4 408.6,92.4 409.7,92.4 410.9,92.4 412.0,92.4 413.1,92.4 414.3,92.4 415.4,92.4 416.5,92.4 417.7,92.4 418.8,92.4 419.9,92.4 421.1,92.4 422.2,92.4 423.3,92.4 424.5,92.4 425.6,92.4 426.7,92.4 427.8,92.4 429.0,92.4 430.1,92.4 431.2,92.4 432.4,92.4 433.5,92.4 434.6,92.4 435.8,92.4 436.9,92.4 438.0,92.4 439.2,92.4 440.3,92.4 441.4,92.4 442.6,92.4 443.7,92.4 444.8,92.4 445.9,92.4 447.1,92.4 448.2,92.4 449.3,92.4 450.5,92.4 451.6,92.4 452.7,92.4 453.9,92.4 455.0,92.4 456.1,92.4 457.3,92.4 458.4,92.4 459.5,92.4 460.7,92.4 461.8,92.4 462.9,92.4 464.0,92.4 465.2,92.4 466.3,92.4 467.4,92.4 468.6,92.4 469.7,92.4 470.8,92.4 472.0,92.4 473.1,92.4 474.2,92.4 475.4,92.4 476.5,92.4 477.6,92.4 478.8,92.4 479.9,92.4 481.0,92.4 482.2,92.4 483.3,92.4 484.4,92.4 485.5,92.4 486.7,92.4 487.8,92.4 488.9,92.4 490.1,92.4 491.2,92.4 492.3,92.4 493.5,92.4 494.6,92.4 495.7,92.4 496.9,92.4 498.0,92.4 499.1,92.4 500.3,92.4 501.4,92.4 502.5,92.4 503.6,92.4 504.8,92.4 505.9,92.4 507.0,92.4 508.2,92.4 509.3,92.4 510.4,92.4 511.6,92.4 512.7,92.4 513.8,92.4 515.0,92.4 516.1,92.4 517.2,92.4 518.4,92.4 519.5,92.4 520.6,92.4 521.7,92.4 522.9,92.4 524.0,92.4 525.1,92.4 526.3,92.4 527.4,92.4 528.5,92.4 529.7,92.4 530.8,92.4 531.9,92.4 533.1,92.4 534.2,92.4 535.3,92.4 536.5,92.4 537.6,92.4 538.7,92.4 539.8,92.4 541.0,92.4 542.1,92.4 543.2,92.4 544.4,92.4 545.5,92.4 546.6,92.4 547.8,92.4 548.9,92.4 550.0,92.4 551.2,92.4 552.3,92.4 553.4,92.4 554.6,92.4 555.7,92.4 556.8,92.4 558.0,92.4 559.1,92.4 560.2,92.4 561.3,92.4 562.5,92.4 563.6,92.4 564.7,92.4 565.9,92.4 567.0,92.4 568.1,92.4 569.3,92.4 570.4,92.4 571.5,92.4 572.7,92.4 573.8,92.4 574.9,92.4 576.1,92.4 577.2,92.4 578.3,92.4 579.4,92.4 580.6,92.4 581.7,92.4 582.8,92.4 584.0,92.4 585.1,92.4 586.2,92.4 587.4,92.4 588.5,92.4 589.6,92.4 590.8,92.4 591.9,92.4 593.0,92.4 594.2,92.4 595.3,92.4 596.4,92.4 597.5,92.4 598.7,92.4 599.8,92.4 600.9,92.4 602.1,92.4 603.2,92.4 604.3,92.4 605.5,92.4 606.6,92.4 607.7,92.4 608.9,92.4 610.0,92.4 611.1,92.4 612.3,92.4 613.4,92.4 614.5,92.4 615.6,92.4 616.8,92.4 617.9,92.4 619.0,92.4 620.2,92.4 621.3,92.4 622.4,92.4 623.6,92.4 624.7,92.4 625.8,92.4 627.0,92.4 628.1,92.4 629.2,92.4 630.4,92.4 631.5,92.4 632.6,92.4 633.8,92.4 634.9,92.4 636.0,92.4 637.1,92.4 638.3,92.4 639.4,92.4 640.5,92.4 641.7,92.4 642.8,92.4 643.9,92.4 645.1,92.4 646.2,92.4 647.3,92.4 648.5,92.4 649.6,92.4 650.7,92.4 651.9,92.4 653.0,92.4 654.1,92.4 655.2,92.4 656.4,92.4 657.5,92.4 658.6,92.4 659.8,92.4 660.9,92.4 662.0,92.4 663.2,92.4 664.3,92.4 665.4,92.4 666.6,92.4 667.7,92.4 668.8,92.4 670.0,92.4 671.1,92.4 672.2,92.4 673.3,92.4 674.5,92.4 675.6,92.4 676.7,92.4 677.9,92.4 679.0,92.4 680.1,92.4 681.3,92.4 682.4,92.4 683.5,92.4 684.7,92.4 685.8,92.4 686.9,92.4 688.1,92.4 689.2,92.4 690.3,92.4 691.4,92.4 692.6,92.4 693.7,92.4 694.8,92.4 696.0,92.4 697.1,92.4 698.2,92.4 699.4,92.4 700.5,92.4 701.6,92.4 702.8,92.4 703.9,92.4 705.0,92.4 706.2,92.4 707.3,92.4 708.4,92.4 709.6,92.4 710.7,92.4 711.8,92.4 712.9,92.4 714.1,92.4 715.2,92.4 716.3,92.4 717.5,92.4 718.6,92.4 719.7,92.4 720.9,92.4 722.0,92.4 723.1,92.4 724.3,92.4 725.4,92.4 726.5,92.4 727.7,92.4 728.8,92.4 729.9,92.4 731.0,92.4 732.2,92.4 733.3,92.4 734.4,92.4 735.6,92.4 736.7,92.4 737.8,92.4 739.0,92.4 740.1,92.4 741.2,92.4 742.4,92.4 743.5,92.4 744.6,92.4 745.8,92.4 746.9,92.4 748.0,92.4 749.1,92.4 750.3,92.4 751.4,92.4 752.5,92.4 753.7,92.4 754.8,92.4 755.9,92.4 757.1,92.4 758.2,92.4 759.3,92.4 760.5,92.4 761.6,92.4 762.7,92.4 763.9,92.4 765.0,92.4 766.1,92.4 767.2,92.4 768.4,92.4 769.5,92.4 770.6,92.4 771.8,92.4 772.9,92.4 774.0,92.4 775.2,92.4 776.3,92.4 777.4,92.4 778.6,92.4 779.7,92.4 780.8,92.4 782.0,92.4 783.1,92.4 784.2,92.4 785.3,92.4 786.5,92.4 787.6,92.4 788.7,92.4 789.9,92.4 791.0,92.4 792.1,92.4 793.3,92.4 794.4,92.4 795.5,92.4 796.7,92.4 797.8,92.4 798.9,92.4 800.1,92.4 801.2,92.4 802.3,92.4 803.5,92.4 804.6,92.4 805.7,92.4 806.8,92.4 808.0,92.4 809.1,92.4 810.2,92.4 811.4,92.4 812.5,92.4 813.6,92.4 814.8,92.4 815.9,92.4 817.0,92.4 818.2,92.4 819.3,92.4 820.4,92.4 821.6,92.4 822.7,92.4 823.8,92.4 824.9,92.4 826.1,92.4 827.2,92.4 828.3,92.4 829.5,92.4 830.6,92.4 831.7,92.4 832.9,92.4 834.0,92.4 835.1,92.4 836.3,92.4 837.4,92.4 838.5,92.4 839.7,92.4 840.8,92.4 841.9,92.4 843.0,92.4 844.2,92.4 845.3,319.4 846.4,319.4 847.6,319.4 848.7,319.4 849.8,319.4 851.0,319.4 852.1,319.4 853.2,319.4 854.4,319.4 855.5,319.4 856.6,319.4 857.8,319.4 858.9,319.4 860.0,319.4 861.1,319.4 862.3,319.4 863.4,319.4 864.5,319.4 865.7,319.4 866.8,319.4 867.9,319.4 869.1,319.4 870.2,319.4 871.3,319.4 872.5,319.4 873.6,319.4 874.7,319.4 875.9,319.4 877.0,319.4 878.1,319.4 879.3,319.4 880.4,319.4 881.5,319.4 882.6,319.4 883.8,319.4 884.9,319.4 886.0,319.4 887.2,319.4 888.3,319.4 889.4,319.4 890.6,319.4 891.7,319.4 892.8,319.4 894.0,319.4 895.1,319.4 896.2,319.4 897.4,319.4 898.5,319.4 899.6,319.4 900.7,319.4 901.9,319.4 903.0,319.4 904.1,319.4 905.3,319.4 906.4,319.4 907.5,319.4 908.7,319.4 909.8,319.4 910.9,319.4 912.1,319.4 913.2,319.4 914.3,319.4 915.5,319.4 916.6,319.4 917.7,319.4 918.8,319.4 920.0,319.4 921.1,319.4 922.2,319.4 923.4,319.4 924.5,319.4 925.6,207.7 926.8,319.4 927.9,319.4 929.0,319.4 930.2,319.4 931.3,319.4 932.4,264.5 933.6,319.4 934.7,319.4 935.8,264.5 936.9,319.4 938.1,319.4 939.2,319.4 940.3,319.4 941.5,319.4 942.6,319.4 943.7,319.4 944.9,263.3 946.0,319.4" fill="none" stroke="#2563eb" stroke-width="2.2" stroke-linejoin="round" stroke-linecap="round"/>
<polyline points="76.0,263.8 77.1,259.8 78.3,250.4 79.4,248.2 80.5,251.9 81.7,241.2 82.8,240.6 83.9,244.5 85.1,249.4 86.2,249.0 87.3,265.7 88.4,247.0 89.6,246.2 90.7,247.8 91.8,252.0 93.0,260.4 94.1,257.5 95.2,255.1 96.4,252.6 97.5,257.6 98.6,262.5 99.8,258.5 100.9,256.6 102.0,256.2 103.2,250.2 104.3,248.6 105.4,250.7 106.5,242.0 107.7,233.4 108.8,242.1 109.9,244.5 111.1,258.3 112.2,252.0 113.3,251.6 114.5,256.2 115.6,251.5 116.7,248.3 117.9,254.4 119.0,248.1 120.1,247.9 121.3,245.6 122.4,262.9 123.5,259.2 124.6,255.1 125.8,220.6 126.9,223.1 128.0,256.3 129.2,252.2 130.3,238.2 131.4,220.1 132.6,240.8 133.7,252.1 134.8,244.9 136.0,243.0 137.1,244.8 138.2,247.7 139.4,245.3 140.5,250.9 141.6,242.2 142.7,247.9 143.9,239.7 145.0,246.3 146.1,244.9 147.3,286.3 148.4,271.1 149.5,263.3 150.7,271.2 151.8,268.1 152.9,239.4 154.1,234.7 155.2,244.4 156.3,260.9 157.5,273.5 158.6,247.0 159.7,246.4 160.9,249.0 162.0,262.1 163.1,251.3 164.2,260.1 165.4,246.8 166.5,241.4 167.6,254.9 168.8,250.8 169.9,255.6 171.0,256.7 172.2,255.0 173.3,263.0 174.4,252.4 175.6,252.4 176.7,254.7 177.8,250.9 179.0,269.3 180.1,232.3 181.2,256.8 182.3,252.0 183.5,219.0 184.6,257.5 185.7,246.2 186.9,248.8 188.0,227.7 189.1,247.1 190.3,249.3 191.4,241.9 192.5,250.4 193.7,244.5 194.8,251.1 195.9,245.3 197.1,243.7 198.2,243.6 199.3,249.1 200.4,246.3 201.6,252.8 202.7,238.7 203.8,252.4 205.0,253.6 206.1,251.9 207.2,220.8 208.4,204.2 209.5,215.5 210.6,216.5 211.8,216.0 212.9,225.7 214.0,221.1 215.2,216.7 216.3,244.5 217.4,247.3 218.5,242.8 219.7,244.1 220.8,243.1 221.9,242.6 223.1,243.6 224.2,245.5 225.3,244.3 226.5,246.0 227.6,250.7 228.7,246.0 229.9,259.2 231.0,258.8 232.1,249.1 233.3,264.3 234.4,291.5 235.5,255.2 236.7,269.3 237.8,256.6 238.9,254.3 240.0,254.6 241.2,251.7 242.3,252.8 243.4,246.2 244.6,252.1 245.7,245.2 246.8,243.3 248.0,241.6 249.1,243.6 250.2,252.4 251.4,265.1 252.5,248.1 253.6,253.2 254.8,251.9 255.9,254.1 257.0,254.4 258.1,259.6 259.3,261.8 260.4,260.1 261.5,293.3 262.7,256.7 263.8,271.3 264.9,237.1 266.1,253.1 267.2,246.0 268.3,250.0 269.5,241.4 270.6,243.6 271.7,249.7 272.9,244.0 274.0,237.5 275.1,246.6 276.2,248.4 277.4,242.3 278.5,246.1 279.6,246.0 280.8,247.8 281.9,248.8 283.0,252.7 284.2,254.2 285.3,260.1 286.4,264.5 287.6,253.2 288.7,286.7 289.8,252.7 291.0,256.1 292.1,251.6 293.2,250.7 294.3,243.9 295.5,243.3 296.6,243.1 297.7,241.9 298.9,248.3 300.0,249.0 301.1,259.9 302.3,258.3 303.4,254.7 304.5,251.1 305.7,256.8 306.8,248.5 307.9,254.5 309.1,246.8 310.2,254.4 311.3,259.1 312.4,262.4 313.6,260.0 314.7,267.3 315.8,298.8 317.0,261.0 318.1,261.3 319.2,259.6 320.4,258.8 321.5,250.5 322.6,248.9 323.8,246.8 324.9,253.3 326.0,249.8 327.2,246.3 328.3,246.4 329.4,242.1 330.6,249.1 331.7,241.2 332.8,242.3 333.9,241.8 335.1,256.8 336.2,256.5 337.3,255.1 338.5,260.4 339.6,274.4 340.7,258.9 341.9,261.6 343.0,259.2 344.1,253.3 345.3,232.8 346.4,220.4 347.5,258.6 348.7,246.0 349.8,229.0 350.9,225.3 352.0,224.9 353.2,224.6 354.3,223.5 355.4,240.2 356.6,232.6 357.7,236.1 358.8,236.9 360.0,246.6 361.1,257.8 362.2,267.5 363.4,246.1 364.5,285.0 365.6,251.1 366.8,266.2 367.9,257.9 369.0,259.5 370.1,267.0 371.3,250.5 372.4,210.5 373.5,221.4 374.7,223.8 375.8,226.5 376.9,215.9 378.1,228.2 379.2,222.8 380.3,209.7 381.5,242.9 382.6,240.7 383.7,249.9 384.9,252.4 386.0,248.4 387.1,244.6 388.2,253.6 389.4,251.2 390.5,249.7 391.6,268.5 392.8,253.2 393.9,248.6 395.0,260.0 396.2,228.0 397.3,212.1 398.4,217.6 399.6,256.8 400.7,252.5 401.8,246.3 403.0,271.4 404.1,240.3 405.2,245.7 406.4,244.2 407.5,251.7 408.6,233.3 409.7,243.7 410.9,245.6 412.0,266.5 413.1,240.1 414.3,245.6 415.4,243.7 416.5,248.8 417.7,247.7 418.8,264.7 419.9,251.8 421.1,259.2 422.2,255.7 423.3,252.7 424.5,266.1 425.6,253.6 426.7,260.2 427.8,264.9 429.0,254.9 430.1,230.9 431.2,225.0 432.4,258.9 433.5,246.7 434.6,253.8 435.8,256.5 436.9,249.0 438.0,252.1 439.2,251.1 440.3,249.4 441.4,246.3 442.6,266.1 443.7,264.1 444.8,259.3 445.9,263.4 447.1,260.0 448.2,284.9 449.3,277.7 450.5,274.2 451.6,277.7 452.7,283.9 453.9,283.7 455.0,278.9 456.1,282.8 457.3,284.7 458.4,279.6 459.5,277.2 460.7,266.8 461.8,252.1 462.9,260.7 464.0,274.5 465.2,262.1 466.3,264.5 467.4,258.8 468.6,266.7 469.7,263.3 470.8,263.1 472.0,263.1 473.1,255.3 474.2,263.8 475.4,258.4 476.5,262.5 477.6,250.5 478.8,255.9 479.9,261.7 481.0,263.8 482.2,264.8 483.3,260.3 484.4,259.5 485.5,253.3 486.7,252.5 487.8,255.4 488.9,234.5 490.1,247.7 491.2,260.0 492.3,248.4 493.5,245.3 494.6,250.6 495.7,252.4 496.9,254.2 498.0,253.7 499.1,255.5 500.3,256.1 501.4,252.1 502.5,263.0 503.6,261.6 504.8,266.7 505.9,261.3 507.0,266.5 508.2,258.3 509.3,254.9 510.4,262.6 511.6,245.2 512.7,254.1 513.8,246.6 515.0,250.2 516.1,236.0 517.2,244.0 518.4,249.1 519.5,256.7 520.6,237.2 521.7,252.0 522.9,237.6 524.0,243.5 525.1,248.7 526.3,247.1 527.4,247.8 528.5,246.5 529.7,254.2 530.8,267.2 531.9,258.9 533.1,215.3 534.2,221.8 535.3,217.9 536.5,232.4 537.6,221.6 538.7,222.1 539.8,229.8 541.0,251.2 542.1,249.0 543.2,235.2 544.4,246.9 545.5,246.0 546.6,253.9 547.8,246.9 548.9,248.4 550.0,249.2 551.2,248.6 552.3,240.0 553.4,241.8 554.6,252.9 555.7,253.8 556.8,252.9 558.0,260.5 559.1,249.5 560.2,256.6 561.3,256.6 562.5,257.2 563.6,253.6 564.7,251.4 565.9,248.4 567.0,236.1 568.1,258.7 569.3,240.3 570.4,218.3 571.5,245.7 572.7,244.2 573.8,248.3 574.9,249.5 576.1,246.5 577.2,245.5 578.3,248.9 579.4,252.0 580.6,249.8 581.7,253.3 582.8,250.7 584.0,253.3 585.1,259.5 586.2,261.8 587.4,240.4 588.5,263.7 589.6,269.2 590.8,272.1 591.9,254.1 593.0,250.4 594.2,257.8 595.3,243.3 596.4,245.6 597.5,236.8 598.7,246.8 599.8,253.1 600.9,241.4 602.1,235.3 603.2,239.9 604.3,242.8 605.5,236.0 606.6,253.6 607.7,245.9 608.9,245.2 610.0,263.3 611.1,306.8 612.3,250.9 613.4,246.7 614.5,259.9 615.6,256.9 616.8,254.1 617.9,257.3 619.0,246.1 620.2,243.2 621.3,241.8 622.4,243.8 623.6,249.5 624.7,241.9 625.8,238.2 627.0,243.0 628.1,240.7 629.2,237.4 630.4,242.4 631.5,247.9 632.6,244.4 633.8,246.7 634.9,249.9 636.0,239.5 637.1,252.6 638.3,250.3 639.4,277.4 640.5,260.7 641.7,251.9 642.8,270.5 643.9,252.5 645.1,255.3 646.2,254.9 647.3,249.4 648.5,238.9 649.6,247.7 650.7,248.0 651.9,246.1 653.0,247.1 654.1,237.3 655.2,241.1 656.4,240.8 657.5,266.2 658.6,244.4 659.8,245.6 660.9,240.9 662.0,251.6 663.2,253.0 664.3,261.3 665.4,246.5 666.6,264.8 667.7,249.5 668.8,263.9 670.0,267.0 671.1,249.1 672.2,255.3 673.3,248.2 674.5,253.3 675.6,247.3 676.7,252.2 677.9,246.3 679.0,242.7 680.1,238.2 681.3,252.5 682.4,247.0 683.5,240.6 684.7,239.7 685.8,246.4 686.9,248.3 688.1,255.5 689.2,237.7 690.3,252.1 691.4,252.9 692.6,256.6 693.7,261.8 694.8,261.8 696.0,257.8 697.1,249.5 698.2,251.9 699.4,259.6 700.5,252.9 701.6,248.8 702.8,242.9 703.9,236.8 705.0,241.2 706.2,242.3 707.3,244.0 708.4,251.0 709.6,252.4 710.7,249.1 711.8,248.1 712.9,244.7 714.1,248.8 715.2,251.6 716.3,244.6 717.5,250.4 718.6,258.8 719.7,257.4 720.9,267.1 722.0,254.2 723.1,258.3 724.3,255.9 725.4,264.9 726.5,256.6 727.7,244.4 728.8,247.3 729.9,237.1 731.0,244.3 732.2,248.6 733.3,233.0 734.4,246.1 735.6,242.0 736.7,246.3 737.8,245.3 739.0,246.6 740.1,245.8 741.2,238.7 742.4,244.7 743.5,241.4 744.6,258.6 745.8,257.3 746.9,257.7 748.0,258.2 749.1,258.2 750.3,264.1 751.4,257.8 752.5,256.5 753.7,257.1 754.8,253.2 755.9,270.9 757.1,255.4 758.2,247.0 759.3,250.9 760.5,238.2 761.6,241.5 762.7,247.0 763.9,255.5 765.0,251.8 766.1,251.9 767.2,253.8 768.4,244.6 769.5,251.9 770.6,252.9 771.8,265.6 772.9,264.0 774.0,263.3 775.2,259.9 776.3,265.7 777.4,256.8 778.6,264.3 779.7,254.6 780.8,257.9 782.0,253.5 783.1,256.3 784.2,253.6 785.3,247.7 786.5,249.8 787.6,242.6 788.7,243.1 789.9,249.9 791.0,251.9 792.1,246.2 793.3,248.8 794.4,247.6 795.5,253.2 796.7,249.5 797.8,257.6 798.9,254.4 800.1,256.6 801.2,261.3 802.3,252.7 803.5,254.7 804.6,265.6 805.7,256.3 806.8,264.6 808.0,249.4 809.1,253.2 810.2,251.8 811.4,254.1 812.5,245.8 813.6,254.0 814.8,245.5 815.9,249.3 817.0,252.8 818.2,246.9 819.3,247.0 820.4,262.2 821.6,256.5 822.7,252.8 823.8,252.4 824.9,255.2 826.1,256.0 827.2,256.0 828.3,267.0 829.5,249.1 830.6,273.2 831.7,255.3 832.9,258.3 834.0,259.3 835.1,244.1 836.3,252.2 837.4,253.0 838.5,252.1 839.7,252.9 840.8,267.6 841.9,261.3 843.0,244.3 844.2,246.8 845.3,347.1 846.4,342.5 847.6,342.9 848.7,340.6 849.8,341.6 851.0,346.5 852.1,345.4 853.2,344.8 854.4,344.6 855.5,345.4 856.6,343.1 857.8,342.5 858.9,343.8 860.0,343.0 861.1,346.9 862.3,342.4 863.4,351.6 864.5,341.8 865.7,344.2 866.8,341.8 867.9,341.6 869.1,342.6 870.2,341.0 871.3,344.8 872.5,344.8 873.6,342.2 874.7,343.7 875.9,342.7 877.0,343.4 878.1,341.5 879.3,345.8 880.4,339.6 881.5,342.2 882.6,344.1 883.8,344.4 884.9,343.8 886.0,346.7 887.2,344.3 888.3,344.4 889.4,342.1 890.6,343.1 891.7,341.1 892.8,342.8 894.0,343.0 895.1,342.5 896.2,343.6 897.4,340.7 898.5,341.1 899.6,341.9 900.7,342.4 901.9,337.3 903.0,337.0 904.1,336.2 905.3,341.8 906.4,341.9 907.5,341.8 908.7,341.1 909.8,343.6 910.9,343.0 912.1,343.6 913.2,344.6 914.3,343.6 915.5,342.1 916.6,336.4 917.7,341.4 918.8,342.1 920.0,341.9 921.1,339.7 922.2,340.8 923.4,340.2 924.5,348.0 925.6,289.9 926.8,340.6 927.9,341.9 929.0,343.6 930.2,343.2 931.3,341.1 932.4,313.4 933.6,345.0 934.7,343.7 935.8,324.2 936.9,350.4 938.1,346.0 939.2,344.1 940.3,343.9 941.5,338.9 942.6,338.2 943.7,333.0 944.9,318.3 946.0,342.7" fill="none" stroke="#7c3aed" stroke-width="2.2" stroke-linejoin="round" stroke-linecap="round"/>
<line x1="76" y1="70" x2="94" y2="70" stroke="#2563eb" stroke-width="3"/>
<text x="100" y="74" font-family="Arial, sans-serif" font-size="11" fill="#0f172a">tx count</text>
<line x1="186" y1="70" x2="204" y2="70" stroke="#7c3aed" stroke-width="3"/>
<text x="210" y="74" font-family="Arial, sans-serif" font-size="11" fill="#0f172a">unique accounts</text>
<text x="28" y="404" font-family="Arial, sans-serif" font-size="11" fill="#64748b">Source: hourly_features.csv; capped windows are sample counts</text>
</svg>