<svg xmlns="http://www.w3.org/2000/svg" width="980" height="430" viewBox="0 0 980 430">
<rect width="100%" height="100%" fill="#ffffff"/>
<text x="28" y="34" font-family="Arial, sans-serif" font-size="20" font-weight="700" fill="#0f172a">Rolling backtest mean R2</text>
<text x="28" y="56" font-family="Arial, sans-serif" font-size="12" fill="#64748b">Recent 24-hour expanding-window folds; higher is better</text>
<line x1="86" y1="342.0" x2="946" y2="342.0" stroke="#e2e8f0" stroke-width="1"/>
<text x="78" y="346.0" font-family="Arial, sans-serif" font-size="10" text-anchor="end" fill="#64748b">-0.16</text>
<line x1="86" y1="277.5" x2="946" y2="277.5" stroke="#e2e8f0" stroke-width="1"/>
<text x="78" y="281.5" font-family="Arial, sans-serif" font-size="10" text-anchor="end" fill="#64748b">-0.12</text>
<line x1="86" y1="213.0" x2="946" y2="213.0" stroke="#e2e8f0" stroke-width="1"/>
<text x="78" y="217.0" font-family="Arial, sans-serif" font-size="10" text-anchor="end" fill="#64748b">-0.07</text>
<line x1="86" y1="148.5" x2="946" y2="148.5" stroke="#e2e8f0" stroke-width="1"/>
<text x="78" y="152.5" font-family="Arial, sans-serif" font-size="10" text-anchor="end" fill="#64748b">-0.02</text>
<line x1="86" y1="84.0" x2="946" y2="84.0" stroke="#e2e8f0" stroke-width="1"/>
<text x="78" y="88.0" font-family="Arial, sans-serif" font-size="10" text-anchor="end" fill="#64748b">0.02</text>
<line x1="86" y1="342" x2="946" y2="342" stroke="#334155" stroke-width="1"/>
<line x1="86" y1="84" x2="86" y2="342" stroke="#334155" stroke-width="1"/>
<text x="86" y="74" font-family="Arial, sans-serif" font-size="11" fill="#64748b">mean R2</text>
<line x1="86" y1="115.6" x2="946" y2="115.6" stroke="#334155" stroke-width="1.2"/>
<rect x="100.0" y="101.8" width="91.8" height="13.9" fill="#059669" rx="3"/>
<text x="145.9" y="95.8" font-family="Arial, sans-serif" font-size="10" text-anchor="middle" fill="#0f172a">0.01</text>
<text x="145.9" y="360" font-family="Arial, sans-serif" font-size="10" text-anchor="middle" fill="#64748b" transform="rotate(22 145.9,360)">gradient_boosted_stumps_100_</text>
<rect x="205.8" y="104.1" width="91.8" height="11.5" fill="#059669" rx="3"/>
<text x="251.6" y="98.1" font-family="Arial, sans-serif" font-size="10" text-anchor="middle" fill="#0f172a">0.01</text>
<text x="251.6" y="360" font-family="Arial, sans-serif" font-size="10" text-anchor="middle" fill="#64748b" transform="rotate(22 251.6,360)">gradient_boosted_stumps_200_</text>
<rect x="311.5" y="115.6" width="91.8" height="19.2" fill="#dc2626" rx="3"/>
<text x="357.4" y="109.6" font-family="Arial, sans-serif" font-size="10" text-anchor="middle" fill="#0f172a">-0.01</text>
<text x="357.4" y="360" font-family="Arial, sans-serif" font-size="10" text-anchor="middle" fill="#64748b" transform="rotate(22 357.4,360)">gradient_boosted_stumps_50_l</text>
<rect x="417.2" y="115.6" width="91.8" height="58.9" fill="#dc2626" rx="3"/>
<text x="463.1" y="109.6" font-family="Arial, sans-serif" font-size="10" text-anchor="middle" fill="#0f172a">-0.04</text>
<text x="463.1" y="360" font-family="Arial, sans-serif" font-size="10" text-anchor="middle" fill="#64748b" transform="rotate(22 463.1,360)">gradient_boosted_trees_depth</text>
<rect x="523.0" y="115.6" width="91.8" height="118.6" fill="#dc2626" rx="3"/>
<text x="568.9" y="109.6" font-family="Arial, sans-serif" font-size="10" text-anchor="middle" fill="#0f172a">-0.08</text>
<text x="568.9" y="360" font-family="Arial, sans-serif" font-size="10" text-anchor="middle" fill="#64748b" transform="rotate(22 568.9,360)">ridge_alpha_100_log1p_target</text>
<rect x="628.8" y="115.6" width="91.8" height="127.1" fill="#dc2626" rx="3"/>
<text x="674.6" y="109.6" font-family="Arial, sans-serif" font-size="10" text-anchor="middle" fill="#0f172a">-0.09</text>
<text x="674.6" y="360" font-family="Arial, sans-serif" font-size="10" text-anchor="middle" fill="#64748b" transform="rotate(22 674.6,360)">ridge_alpha_100</text>
<rect x="734.5" y="115.6" width="91.8" height="191.2" fill="#dc2626" rx="3"/>
<text x="780.4" y="109.6" font-family="Arial, sans-serif" font-size="10" text-anchor="middle" fill="#0f172a">-0.14</text>
<text x="780.4" y="360" font-family="Arial, sans-serif" font-size="10" text-anchor="middle" fill="#64748b" transform="rotate(22 780.4,360)">ridge_alpha_10_log1p_target</text>
<rect x="840.2" y="115.6" width="91.8" height="208.6" fill="#dc2626" rx="3"/>
<text x="886.1" y="109.6" font-family="Arial, sans-serif" font-size="10" text-anchor="middle" fill="#0f172a">-0.15</text>
<text x="886.1" y="360" font-family="Arial, sans-serif" font-size="10" text-anchor="middle" fill="#64748b" transform="rotate(22 886.1,360)">ridge_alpha_10</text>
<text x="28" y="414" font-family="Arial, sans-serif" font-size="11" fill="#64748b">Source: models/rolling_backtest.csv</text>
</svg>